<svg xmlns="http://www.w3.org/2000/svg">
<style>.text { font-size: 14px; font-family: Arial, sans-serif; }</style>
<g id="page-0" transform="translate(0, 0)">
<rect width="1758" height="2275" fill="none" stroke="black" />
<text x="1542.00004254" y="79.000000625" width="52.999920299999985" height="27.000000299999996" class="text">Page </text>
<text x="1619.9999886" y="77.00000262500001" width="8.000007539999842" height="25.000002300000006" class="text">1 </text>
<text x="1642.00000494" y="77.00000262500001" width="19.00002450000011" height="26.0000013" class="text">of </text>
<text x="1675.00003824" y="75.99999907499999" width="7.999919639999916" height="24.999997749999984" class="text">2
</text>
<text x="839.9999830200001" y="113.999997475" width="189.99996371999998" height="38.99999285" class="text">INVOICE
</text>
<text x="904.00000818" y="151.99999814999998" width="85.00000320000004" height="26.00000129999998" class="text">Property
</text>
<text x="337.00000338" y="185.99999144999998" width="93.99999629999996" height="27.999990199999985" class="text">WAGT
</text>
<text x="904.00000818" y="182.99999899999997" width="70.00002641999993" height="22.00000529999997" class="text">Invoice </text>
<text x="983.9999780999999" y="181.99999545" width="6.00000126000009" height="19.99999820000002" class="text">#
</text>
<text x="344.00000778000003" y="218.9999994" width="34.00000127999999" height="27.00000485000001" class="text">PO </text>
<text x="392.00000028" y="218.9999994" width="54.000028920000034" height="27.00000485000001" class="text">Box </text>
<text x="456.00002544" y="218.9999994" width="62.00000129999995" height="27.00000485000001" class="text">1212
</text>
<text x="904.99997616" y="216.00000695" width="70.99999439999999" height="21.000001749999996" class="text">Invoice </text>
<text x="981.99995424" y="216.00000695" width="46.00007412000002" height="21.000001749999996" class="text">Date
</text>
<text x="344.99999334" y="258.99999125" width="108.99999065999998" height="31.99999757499998" class="text">Augusta</text>
<text x="459.00001728" y="257.000016" width="8.999975519999964" height="30.000022325000003" class="text">, </text>
<text x="476.00000034" y="257.000016" width="38.00001384000001" height="30.000022325000003" class="text">GA </text>
<text x="535.00002738" y="257.000016" width="75.99995736000005" height="32.000013499999994" class="text">30903
</text>
<text x="904.00000818" y="250.99999925" width="70.00002641999993" height="22.99999975" class="text">Invoice </text>
<text x="981.99995424" y="250.99999925" width="63.000074760000075" height="22.99999975" class="text">Month
</text>
<text x="344.00000778000003" y="291.00000475" width="71.99999753999998" height="32.00001350000002" class="text">Sales </text>
<text x="430.00001412" y="291.999981" width="8.999975519999964" height="31.999990749999995" class="text">T </text>
<text x="456.00002544" y="291.999981" width="8.999975519999964" height="31.999990749999995" class="text">&amp; </text>
<text x="484.99999344" y="291.999981" width="9.000028259999908" height="31.999990749999995" class="text">C</text>
<text x="504.00001794" y="291.999981" width="8.99997552000002" height="31.999990749999995" class="text">: </text>
<text x="524.00001042" y="295.0000235" width="332.0000052600001" height="35.00003325" class="text">www.gray.tv/advertising </text>
<text x="901.9999843200001" y="285.00001075" width="72.00005027999987" height="21.000001750000024" class="text">Invoice </text>
<text x="981.99995424" y="285.00001075" width="67.00003458000003" height="21.000001750000024" class="text">Period
</text>
<text x="344.99999334" y="328.99998949999997" width="56.000017619999994" height="32.99998974999994" class="text">Main</text>
<text x="409.00000092" y="328.99998949999997" width="9.000010680000003" height="32.99998974999994" class="text">: </text>
<text x="442.00001664" y="328.99998949999997" width="8.99997552000002" height="32.99998974999994" class="text">(</text>
<text x="452.00001288" y="328.99998949999997" width="46.99998935999997" height="32.99998974999994" class="text">803</text>
<text x="501.0000261" y="328.99998949999997" width="8.999975519999964" height="32.99998974999994" class="text">) </text>
<text x="518.00002674" y="328.99998949999997" width="119.99995488000002" height="32.99998974999994" class="text">278-1212
</text>
<text x="902.9999523" y="318.0000005" width="105.00008358000002" height="22.00000074999997" class="text">Advertiser
</text>
<text x="342.99998705999997" y="364.0" width="86.00000634000003" height="33.99998875" class="text">Billing</text>
<text x="431.99998524" y="363.000001" width="9.000010679999946" height="31.999990749999995" class="text">: </text>
<text x="448.00000032" y="363.000001" width="8.999975519999964" height="31.999990749999995" class="text">(</text>
<text x="459.00001728" y="363.000001" width="45.00000066000001" height="32.99998975" class="text">803</text>
<text x="505.99998906" y="361.99997924999997" width="8.999993099999926" height="31.999967999999967" class="text">) </text>
<text x="525.99998154" y="361.99997924999997" width="119.00000448000003" height="33.99996599999997" class="text">278-1212
</text>
<text x="901.9999843200001" y="355.00000900000003" width="81.99999377999984" height="22.000000750000027" class="text">Product
</text>
<text x="904.00000818" y="386.999977" width="85.00000320000004" height="20.999979000000053" class="text">Estimate </text>
<text x="1002.0000522" y="386.00000075" width="4.999910219999947" height="19.000026500000047" class="text">#
</text>
<text x="50.000000538" y="450.00000500000004" width="61.999999542000005" height="26.99999575000004" class="text">Billing </text>
<text x="120.00000410400001" y="448.99998325" width="79.99999101599998" height="25.99997400000001" class="text">Address</text>
<text x="202.0000014" y="448.000007" width="7.000004399999995" height="24.999997749999977" class="text">:
</text>
<text x="1088.0000058" y="148.00000215" width="74.99993663999999" height="20.000000475000007" class="text">WAGT
</text>
<text x="1093.99998948" y="182.99999899999997" width="107.9999875200001" height="22.00000529999997" class="text">1456957-2
</text>
<text x="1319.00002794" y="181.99999545" width="57.99995357999978" height="21.000001749999996" class="text">Order </text>
<text x="1384.99998906" y="181.99999545" width="6.00000126000009" height="21.000001749999996" class="text"># </text>
<text x="1467.00000042" y="181.99999545" width="85.9999535999998" height="19.99999820000002" class="text">1456957
</text>
<text x="1091.99996562" y="216.00000695" width="87.0000270600001" height="22.000005299999998" class="text">01/26/20
</text>
<text x="1317.99997206" y="216.00000695" width="26.000081639999962" height="20.000014125000007" class="text">Alt </text>
<text x="1351.00000536" y="216.00000695" width="58.000041479999936" height="21.000001749999996" class="text">Order </text>
<text x="1415.9999985" y="215.0000034" width="5.999983680000014" height="19.999998199999993" class="text"># </text>
<text x="1458.9999753" y="216.999994575" width="162.00006918000008" height="21.999989374999984" class="text">WOC12331571
</text>
<text x="1094.99995746" y="257.000016" width="79.00000194000017" height="28.000017500000013" class="text">January </text>
<text x="1184.00000838" y="254.99999524999998" width="48.99996048000003" height="26.999995749999982" class="text">2020 </text>
<text x="1314.99998022" y="251.99999825" width="50.999984339999855" height="21.000001750000024" class="text">Deal </text>
<text x="1371.9999482399999" y="251.99999825" width="6.000106740000092" height="21.000001750000024" class="text">#
</text>
<text x="1093.99998948" y="290.00000575" width="85.00000320000004" height="25.999996750000037" class="text">12/30/19 </text>
<text x="1189.9999920599998" y="290.00000575" width="7.000057140000308" height="25.999996750000037" class="text">- </text>
<text x="1206.9999927" y="290.00000575" width="81.99999378000007" height="25.999996750000037" class="text">12/30/19 </text>
<text x="1319.00002794" y="290.00000575" width="54.99996173999989" height="25.999996750000037" class="text">Flight </text>
<text x="1376.99998152" y="290.00000575" width="62.99996927999996" height="25.999996750000037" class="text">Dates </text>
<text x="1466.00003244" y="286.00000975" width="83.99992973999997" height="22.000000750000027" class="text">12/24/19 </text>
<text x="1560.00001116" y="286.00000975" width="5.999983680000014" height="22.000000750000027" class="text">- </text>
<text x="1576.00004382" y="286.00000975" width="83.9999297400002" height="22.000000750000027" class="text">12/30/19
</text>
<text x="1093.0000215" y="320.9999975" width="42.99999437999986" height="22.999977" class="text">Tom </text>
<text x="1147.00001526" y="321.9999965" width="65.99996111999985" height="23.999976000000004" class="text">Steyer </text>
<text x="1221.9999694800001" y="321.9999965" width="46.00007411999991" height="22.99999975000003" class="text">2020
</text>
<text x="1091.99996562" y="355.00000900000003" width="83.00006723999991" height="22.000000750000027" class="text">Political
</text>
<text x="1093.0000215" y="386.999977" width="48.00001008000004" height="20.00000275000002" class="text">8196
</text>
<text x="1093.99998948" y="423.9999855" width="85.99995360000003" height="21.999977999999942" class="text">Account </text>
<text x="1181.99998452" y="423.9999855" width="98.00002644000006" height="21.999977999999942" class="text">Executive </text>
<text x="1316.0000361" y="428.9999805" width="83.99992973999997" height="27.999994749999985" class="text">Augusta </text>
<text x="1409.0000468399999" y="426.00000625" width="65.00001072000009" height="27.00001850000001" class="text">House
</text>
<text x="1093.0000215" y="457.00002075" width="59.00002704000008" height="21.000024499999995" class="text">Sales </text>
<text x="1159.0000002" y="457.999997" width="58.000041480000164" height="22.000000750000027" class="text">Office
</text>
<text x="1319.00002794" y="460.99999399999996" width="79.0000195199998" height="26.999995749999925" class="text">Augusta </text>
<text x="1410.0000148200002" y="460.99999399999996" width="90.00001889999976" height="26.999995749999925" class="text">Regional
</text>
<text x="1093.0000215" y="495.99998175" width="57.99995358000001" height="26.999995749999982" class="text">Sales </text>
<text x="1155.00004038" y="497.00000350000005" width="72.99991278000016" height="26.99999575000004" class="text">Region </text>
<text x="1314.99998022" y="495.99998175" width="96.00000258" height="24.999997750000034" class="text">Regional
</text>
<text x="1093.0000215" y="532.000014" width="76.99997807999989" height="29.000016500000015" class="text">Agency </text>
<text x="1179.99994308" y="529.99999325" width="51.00010739999993" height="27.999971999999957" class="text">Code
</text>
<text x="1093.99998948" y="562.00000675" width="106.00005155999997" height="22.000000750000027" class="text">Advertiser </text>
<text x="1204.99996884" y="560.9999849999999" width="52.00005779999992" height="20.99997899999994" class="text">Code </text>
<text x="1319.99999592" y="560.9999849999999" width="48.99996048000003" height="20.000002749999908" class="text">1232
</text>
<text x="1093.0000215" y="600.000037" width="59.00002704000008" height="27.00004124999998" class="text">Billing </text>
<text x="1161.99999204" y="598.99996975" width="95.00003459999994" height="27.999949249999986" class="text">Calendar </text>
<text x="1316.0000361" y="596.0000182499999" width="106.99991406000004" height="20.999978999999826" class="text">Broadcast
</text>
<text x="1093.0000215" y="636.0000237500001" width="60.99994542000013" height="28.000040250000097" class="text">Billing </text>
<text x="1164.9999838800002" y="635.0000247500001" width="45.999968639999906" height="26.000042250000092" class="text">Type
</text>
<text x="1317.99997206" y="632.000005" width="47.99999249999996" height="23.0000225" class="text">Cash
</text>
<text x="1094.99995746" y="670.0000352500001" width="78.00003396000011" height="27.000041250000095" class="text">Special </text>
<text x="1173.9999594" y="670.0000352500001" width="92.00004275999981" height="27.000041250000095" class="text">Handling
</text>
<text x="1094.99995746" y="706.000022" width="73.00001826000016" height="29.0000164999999" class="text">Agency </text>
<text x="1176.99995124" y="703.9999785" width="38.000066580000066" height="27.999971999999957" class="text">Ref
</text>
<text x="1320.9999639" y="697.9999845000001" width="45.00000065999984" height="20.00000275000002" class="text">1058
</text>
<text x="1093.99998948" y="733.9999712499999" width="103.00005972000008" height="21.999977999999942" class="text">Advertiser </text>
<text x="1201.0000090199999" y="733.9999712499999" width="39.99998496000012" height="21.999977999999942" class="text">Ref </text>
<text x="1319.99999592" y="731.9999959999999" width="72.0000502800001" height="20.999978999999826" class="text">146666
</text>
<text x="1091.99996562" y="768.999959" width="83.00006723999991" height="21.99995524999997" class="text">Product </text>
<text x="1183.0000404" y="768.999959" width="6.00000126000009" height="21.99995524999997" class="text">1
</text>
<text x="1319.99999592" y="767.99998275" width="47.00004209999997" height="20.000002749999908" class="text">1246
</text>
<text x="1093.0000215" y="800.99999525" width="79.99996992000001" height="19.999979999999937" class="text">Product </text>
<text x="1181.99998452" y="800.99999525" width="5.999983680000014" height="19.999979999999937" class="text">2
</text>
<text x="262.000014" y="519.000027" width="87.99997745999997" height="31.000037250000048" class="text">Buying </text>
<text x="361.99999398" y="517.00000625" width="54.999996899999985" height="29.999992749999933" class="text">Time
</text>
<text x="262.99999956" y="546.999999" width="110.00001138000005" height="28.99999374999993" class="text">Attention</text>
<text x="376.00000278" y="545.99997725" width="7.9999899599999935" height="26.999950249999983" class="text">: </text>
<text x="390.99999714" y="547.999998" width="114.99999192000001" height="28.99997099999996" class="text">Accounts </text>
<text x="514.99998216" y="549.00001975" width="95.00003460000005" height="29.000016500000015" class="text">Payable
</text>
<text x="262.000014" y="573.999972" width="40.999988099999996" height="23.999975999999947" class="text">650 </text>
<text x="312.99999834" y="573.999972" width="180.00000264000005" height="23.999975999999947" class="text">Massachusetts </text>
<text x="505.99998906" y="573.999972" width="43.99999752000002" height="23.999975999999947" class="text">Ave </text>
<text x="559.0000148400001" y="573.999972" width="29.99998871999992" height="23.999975999999947" class="text">NW </text>
<text x="610.00001676" y="573.999972" width="34.00000127999999" height="23.999975999999947" class="text">Ste </text>
<text x="658.00002684" y="573.999972" width="36.99997553999992" height="23.999975999999947" class="text">210
</text>
<text x="257.00001588000003" y="610.0000269999999" width="148.9999932" height="31.000037249999878" class="text">Washington</text>
<text x="409.99998647999996" y="607.9999835" width="8.000025120000032" height="27.999949249999986" class="text">, </text>
<text x="421.99998899999997" y="607.00000725" width="36.00000756000003" height="29.000016500000015" class="text">DC </text>
<text x="477.99998903999995" y="607.00000725" width="70.99997682000003" height="29.999992749999933" class="text">20001
</text>
<text x="52.99999941" y="731.9999959999999" width="48.000003047999996" height="24.99999774999992" class="text">Send </text>
<text x="109.99999555800001" y="733.9999712499999" width="93.99999454200001" height="26.999972999999954" class="text">Payment </text>
<text x="211.99999764" y="732.9999722499999" width="18.000021359999977" height="24.99999774999992" class="text">To</text>
<text x="235.00001712000002" y="732.9999722499999" width="6.999969239999984" height="24.99999774999992" class="text">:
</text>
<text x="61.999999542000005" y="771.0000025" width="97.00000044599997" height="25.999974000000066" class="text">WAGT
</text>
<text x="66.999997662" y="805.0000140000001" width="37.000003668000005" height="26.000042250000092" class="text">PO </text>
<text x="115.99999506" y="805.0000140000001" width="51.000008952" height="26.000042250000092" class="text">Box </text>
<text x="180.99998820000002" y="805.0000140000001" width="75.00000695999995" height="26.000042250000092" class="text">14200
</text>
<text x="69.999998292" y="844.0000205" width="156.99999370799998" height="32.000036249999994" class="text">Tallahassee</text>
<text x="231.00000455999998" y="842.9999760000001" width="9.000010680000031" height="29.999992750000047" class="text">, </text>
<text x="245.99999892" y="842.9999760000001" width="32.99999814" height="29.999992750000047" class="text">FL </text>
<text x="296.99998326" y="844.0000205" width="152.00003778" height="32.000036249999994" class="text">32317-4200
</text>
<text x="1189.9999920599998" y="981.9999735" width="53.99999376000005" height="26.999973000000068" class="text">Spots</text>
<text x="1243.00001784" y="981.9999735" width="8.000025119999918" height="26.999973000000068" class="text">/
</text>
<text x="1183.0000404" y="1012.9999652500001" width="59.999977440000066" height="20.00000275000002" class="text">Week
</text>
<text x="50.000000538" y="1010.99999" width="42.99999613799999" height="20.00000275000002" class="text">Line </text>
<text x="116.9999982" y="1011.999989" width="50.00000581200001" height="20.00000275000002" class="text">Start </text>
<text x="173.00000351399999" y="1011.999989" width="43.999992246000005" height="20.00000275000002" class="text">Date
</text>
<text x="253.00000332000002" y="1010.99999" width="36.99999312" height="20.999979000000053" class="text">End </text>
<text x="300.99999582" y="1012.9999652500001" width="43.99999752000002" height="21.999978000000056" class="text">Date
</text>
<text x="394.99999212" y="1016.9999839999999" width="109.99999379999997" height="26.999972999999954" class="text">Description
</text>
<text x="659.99999796" y="1011.999989" width="46.99998935999997" height="21.000001750000024" class="text">Start</text>
<text x="708.00000804" y="1011.999989" width="5.999983680000014" height="21.000001750000024" class="text">/</text>
<text x="713.00002374" y="1011.999989" width="37.999961100000064" height="21.000001750000024" class="text">End </text>
<text x="761.99998422" y="1011.999989" width="50.000033940000094" height="21.000001750000024" class="text">Time
</text>
<text x="873.00001632" y="1012.9999652500001" width="96.99997056000007" height="16.999960250000072" class="text">MTWTFSS
</text>
<text x="1079.9999806800001" y="1016.9999839999999" width="65.99997869999993" height="25.999996749999923" class="text">Length
</text>
<text x="1334.00000472" y="1012.9999652500001" width="47.000042099999746" height="20.00000275000002" class="text">Rate
</text>
<text x="1444.0000161" y="1017.99996025" width="47.0000245199999" height="26.999972999999954" class="text">Type
</text>
<text x="95.00000119799999" y="1059.0000102499998" width="6.000001260000005" height="20.999978999999712" class="text">4 </text>
<text x="120.00000410400001" y="1060.9999854999999" width="83.999985996" height="22.999954249999746" class="text">12/24/19
</text>
<text x="253.99998888000002" y="1059.0000102499998" width="88.00001261999998" height="20.999978999999712" class="text">12/30/19
</text>
<text x="393.00000342" y="1065.00000425" width="49.99996361999996" height="28.00001750000024" class="text">Days </text>
<text x="453.00001602000003" y="1064.000028" width="18.999989340000013" height="25.99999674999981" class="text">of </text>
<text x="479.00000976" y="1063.000029" width="36.99997554000004" height="27.000041250000095" class="text">Our </text>
<text x="522.9999897" y="1063.000029" width="53.99999376000005" height="28.000017500000013" class="text">Lives
</text>
<text x="661.00001868" y="1064.000028" width="18.999971759999994" height="25.99999674999981" class="text">1p</text>
<text x="685.00000614" y="1064.000028" width="7.000004399999966" height="25.99999674999981" class="text">-</text>
<text x="695.00000238" y="1064.000028" width="18.99998934000007" height="25.99999674999981" class="text">2p
</text>
<text x="881.0000238599999" y="1056.99996675" width="3.999959820000072" height="14.999985000000152" class="text">1</text>
<text x="890.99996736" y="1056.99996675" width="4.000065300000074" height="14.999985000000152" class="text">.
</text>
<text x="1116.9999738000001" y="1060.00000925" width="7.0000571399998535" height="20.99997899999994" class="text">:</text>
<text x="1124.00003094" y="1060.00000925" width="22.999984320000067" height="23.000022500000114" class="text">30
</text>
<text x="1240.99999398" y="1058.0000340000001" width="5.000015699999949" height="17.00005125000007" class="text">1
</text>
<text x="1344.0000536999999" y="1060.9999854999999" width="5.999983680000014" height="21.999955249999857" class="text">$</text>
<text x="1354.9999651800001" y="1060.9999854999999" width="57.00007349999987" height="22.999954249999746" class="text">45.00
</text>
<text x="1452.99999162" y="1059.0000102499998" width="34.999951680000095" height="20.999978999999712" class="text">NM
</text>
<text x="105.99999882" y="1115.99999875" width="74.99998938000002" height="21.000001750000138" class="text">Weeks</text>
<text x="183.99999762" y="1115.99999875" width="6.000001260000005" height="21.000001750000138" class="text">: </text>
<text x="243.99999264" y="1115.99999875" width="47.99999249999999" height="21.000001750000138" class="text">Start </text>
<text x="295.9999977" y="1115.99999875" width="46.99998935999997" height="21.000001750000138" class="text">Date </text>
<text x="377.00000592000004" y="1115.99999875" width="39.99998495999995" height="21.999978000000056" class="text">End </text>
<text x="426.99998711999996" y="1115.99999875" width="46.00002138000002" height="21.999978000000056" class="text">Date </text>
<text x="507.00000977999997" y="1114.0000235" width="96.99997056000001" height="19.000026500000104" class="text">MTWTFSS </text>
<text x="681.00001116" y="1119.99999475" width="56.99998560000006" height="26.999973000000182" class="text">Spots</text>
<text x="741.99999174" y="1119.0000185000001" width="7.000004399999966" height="24.999997750000148" class="text">/</text>
<text x="743.00001246" y="1119.0000185000001" width="62.00000130000001" height="27.000041250000095" class="text">Week
</text>
<text x="245.00001336" y="1142.000041" width="82.99997934000001" height="22.00004624999997" class="text">12/24/19 </text>
<text x="382.00000404" y="1140.9999965" width="82.99999691999994" height="21.00000174999991" class="text">12/30/19 </text>
<text x="514.00001418" y="1140.0000657500002" width="4.000012559999959" height="16.00005225000018" class="text">1</text>
<text x="525.99998154" y="1140.0000657500002" width="4.000012560000073" height="16.00005225000018" class="text">.
</text>
<text x="797.0000062199999" y="1140.0000657500002" width="5.000015700000063" height="19.000072000000046" class="text">1
</text>
<text x="66.000003312" y="1177.0000287500002" width="57.99999753" height="28.00001750000024" class="text">Spots</text>
<text x="128.999998962" y="1174.0000089999999" width="8.000004023999992" height="26.00004224999975" class="text">: </text>
<text x="152.99999872799998" y="1172.9999645" width="8.000005782000017" height="25.999928499999896" class="text">#
</text>
<text x="197.99998884000001" y="1172.00003375" width="21.99999876000001" height="21.00004725000008" class="text">Ch </text>
<text x="273.99999894" y="1174.0000089999999" width="38.99999939999998" height="23.000022499999886" class="text">Day </text>
<text x="332.00000526" y="1172.9999645" width="26.00001132" height="22.99990875000003" class="text">Air </text>
<text x="366.00000654" y="1172.9999645" width="43.999979939999946" height="24.99999774999992" class="text">Date </text>
<text x="462.00000911999996" y="1172.9999645" width="25.00000818000001" height="24.99999774999992" class="text">Air </text>
<text x="497.99998152" y="1175.0000762500001" width="47.99999249999996" height="26.000065000000177" class="text">Time </text>
<text x="561.00000354" y="1175.9999842500001" width="111.00001452000004" height="26.999973000000182" class="text">Description
</text>
<text x="150.00000513" y="1202.0000265" width="4.999998119999987" height="18.000004750000244" class="text">1 </text>
<text x="188.99999574" y="1204.00000175" width="76.00001010000003" height="21.999955249999857" class="text">WAGT </text>
<text x="293.99999141999996" y="1200.999982" width="4.999998120000043" height="18.000027499999987" class="text">M </text>
<text x="336.00001782" y="1202.9999572499999" width="83.99996490000001" height="20.9999107499998" class="text">12/30/19 </text>
<text x="469.00001352000004" y="1207.99995225" width="37.99999625999993" height="26.999973000000182" class="text">1:59 </text>
<text x="512.99999346" y="1207.99995225" width="29.999988720000033" height="26.999973000000182" class="text">PM </text>
<text x="556.99999098" y="1207.99995225" width="52.000005060000035" height="26.999973000000182" class="text">Days </text>
<text x="618.99999228" y="1207.99995225" width="19.999992479999946" height="26.999973000000182" class="text">of </text>
<text x="644.00001804" y="1207.99995225" width="37.99999625999999" height="26.999973000000182" class="text">Our </text>
<text x="689.0000186999999" y="1207.99995225" width="48.9999780600001" height="26.999973000000182" class="text">Lives
</text>
<text x="924.00000066" y="1114.99999975" width="42.000026400000024" height="20.99997899999994" class="text">Rate
</text>
<text x="901.0000163399999" y="1140.0000657500002" width="6.999951660000079" height="21.00004725000008" class="text">$</text>
<text x="912.0000332999999" y="1142.000041" width="54.999944160000155" height="23.000022499999886" class="text">45.00
</text>
<text x="904.99997616" y="1172.00003375" width="48.00001008000004" height="21.999978000000056" class="text">Start</text>
<text x="952.99998624" y="1172.00003375" width="5.999983680000014" height="21.999978000000056" class="text">/</text>
<text x="960.00004338" y="1172.00003375" width="36.99997554000015" height="21.999978000000056" class="text">End </text>
<text x="1009.00000386" y="1172.00003375" width="48.99996047999991" height="23.000022500000114" class="text">Time
</text>
<text x="902.9999523" y="1207.00004425" width="24.00005778000002" height="26.000065000000177" class="text">1p</text>
<text x="929.00003394" y="1207.00004425" width="6.999951659999965" height="26.000065000000177" class="text">-</text>
<text x="937.0000414799999" y="1207.00004425" width="23.999952300000132" height="26.000065000000177" class="text">2p
</text>
<text x="1113.00001398" y="1174.0000089999999" width="63.999937260000024" height="23.000022499999886" class="text">Length </text>
<text x="1190.9999600400001" y="1172.9999645" width="25.000008179999895" height="22.99990875000003" class="text">Ad</text>
<text x="1218.99997764" y="1172.9999645" width="5.999983680000014" height="22.99990875000003" class="text">-</text>
<text x="1224.99996132" y="1172.9999645" width="17.000000640000053" height="22.99990875000003" class="text">ID
</text>
<text x="1150.0000071" y="1202.0000265" width="5.999983680000014" height="21.000047250000307" class="text">:</text>
<text x="1156.99995876" y="1202.0000265" width="22.000033920000078" height="21.000047250000307" class="text">30 </text>
<text x="1189.00004166" y="1202.0000265" width="142.9999216199999" height="21.000047250000307" class="text">TS20TV1964AH
</text>
<text x="1576.00004382" y="1175.9999842500001" width="48.99996048000003" height="26.999973000000182" class="text">Rate </text>
<text x="1644.99999678" y="1177.0000287500002" width="48.00001008000004" height="26.999973000000182" class="text">Type
</text>
<text x="1568.0000187" y="1204.00000175" width="5.9999836799997865" height="21.000047249999852" class="text">$</text>
<text x="1579.00003566" y="1204.00000175" width="53.999993759999825" height="23.000022500000114" class="text">45.00 </text>
<text x="1656.99996414" y="1202.9999572499999" width="31.000009439999985" height="21.999978000000056" class="text">NM
</text>
<text x="83.00000043600001" y="1253.99999725" width="18.00000202199999" height="21.00004725000008" class="text">13 </text>
<text x="117.99999958200002" y="1253.99999725" width="85.999990518" height="21.00004725000008" class="text">12/24/19
</text>
<text x="255.99999515999997" y="1252.99995275" width="84.00000006000005" height="20.9999107499998" class="text">12/30/19
</text>
<text x="395.99999526" y="1255.0000645" width="7.000004400000023" height="24.999997750000148" class="text">M</text>
<text x="413.99999904" y="1255.9999725" width="7.000004400000023" height="24.99999774999992" class="text">-</text>
<text x="423.99999528" y="1255.9999725" width="7.000004399999966" height="24.99999774999992" class="text">F </text>
<text x="442.00001664" y="1257.99994775" width="47.99999250000002" height="26.999972999999954" class="text">430p</text>
<text x="494.00002169999993" y="1257.00003975" width="7.00000440000008" height="24.99999774999992" class="text">-</text>
<text x="501.99999407999996" y="1257.00003975" width="23.000037060000068" height="24.99999774999992" class="text">5p
</text>
<text x="658.9999772399999" y="1257.00003975" width="48.00001008000004" height="24.99999774999992" class="text">430p</text>
<text x="710.99999988" y="1257.00003975" width="7.000004399999966" height="24.99999774999992" class="text">-</text>
<text x="719.00000742" y="1257.99994775" width="22.999984320000067" height="25.999905749999925" class="text">5p
</text>
<text x="879.99996798" y="1252.99995275" width="5.000015700000063" height="18.999935499999992" class="text">1</text>
<text x="890.00001696" y="1255.0000645" width="81.0000258" height="21.00004725000008" class="text">------
</text>
<text x="1118.00004726" y="1253.99999725" width="5.999983680000014" height="21.00004725000008" class="text">:</text>
<text x="1124.99999892" y="1253.99999725" width="22.000016340000002" height="21.00004725000008" class="text">30
</text>
<text x="1238.99995254" y="1250.9999775" width="5.000033279999798" height="16.999960250000186" class="text">1
</text>
<text x="1345.0000216800001" y="1252.99995275" width="5.9999836799997865" height="20.00000275000002" class="text">$</text>
<text x="1354.9999651800001" y="1252.99995275" width="54.00008165999975" height="21.999977999999828" class="text">45.00
</text>
<text x="1453.9999596" y="1253.99999725" width="33.00003330000004" height="21.00004725000008" class="text">NM
</text>
<text x="107.00000196" y="1309.0000105" width="74.99998938" height="20.00000275000002" class="text">Weeks</text>
<text x="182.99999448" y="1309.0000105" width="6.000001260000005" height="20.00000275000002" class="text">: </text>
<text x="243.99999264" y="1307.99994325" width="47.99999249999999" height="18.999935499999992" class="text">Start </text>
<text x="298.00000398000003" y="1309.0000105" width="43.999997519999965" height="20.00000275000002" class="text">Date </text>
<text x="378.00000906" y="1309.0000105" width="36.99997553999998" height="20.00000275000002" class="text">End </text>
<text x="426.00000156" y="1310.000055" width="44.00001510000004" height="20.00000275000002" class="text">Date </text>
<text x="507.00000977999997" y="1307.00003525" width="96.99997056000001" height="19.000094750000017" class="text">MTWTFSS </text>
<text x="682.9999822799999" y="1314.0000055" width="56.00001762000011" height="26.00006499999995" class="text">Spots</text>
<text x="743.00001246" y="1314.0000055" width="7.000004399999966" height="26.00006499999995" class="text">/</text>
<text x="744.99998358" y="1315.00005" width="60.99999816000002" height="27.000109500000008" class="text">Week
</text>
<text x="245.00001336" y="1335.9999835" width="84.00000006000002" height="21.999978000000056" class="text">12/24/19 </text>
<text x="378.99999462" y="1335.00005275" width="84.99998562000002" height="21.000047249999852" class="text">12/30/19
</text>
<text x="66.999997662" y="1368.999996" width="58.000004562" height="26.999973000000182" class="text">Spots</text>
<text x="127.99999582199999" y="1367.00002075" width="8.000004023999992" height="24.999997750000148" class="text">: </text>
<text x="152.99999872799998" y="1367.00002075" width="8.000005782000017" height="24.999997750000148" class="text"># </text>
<text x="196.00000014" y="1364.0000009999999" width="27.000014460000017" height="21.000047249999852" class="text">Ch </text>
<text x="273.99999894" y="1370.00006325" width="41.000005680000015" height="26.00006499999995" class="text">Day </text>
<text x="334.9999971" y="1367.9999515" width="28.000017600000035" height="24.99999774999992" class="text">Air </text>
<text x="366.9999921" y="1367.9999515" width="47.99999250000002" height="25.999928500000124" class="text">Date
</text>
<text x="460.00002041999994" y="1367.9999515" width="29.99998872000009" height="25.999928500000124" class="text">Air </text>
<text x="497.00001354" y="1370.00006325" width="46.99998936000003" height="27.000109500000008" class="text">Time </text>
<text x="559.99998282" y="1370.9999712499998" width="114.00002394" height="28.000017499999785" class="text">Description
</text>
<text x="150.999994206" y="1397.99994425" width="5.000012184000013" height="18.999935499999992" class="text">1 </text>
<text x="186.99998946000002" y="1397.00003625" width="77.00001323999996" height="21.00007000000005" class="text">WAGT </text>
<text x="293.99999141999996" y="1397.99994425" width="6.0000188400000525" height="20.999910750000026" class="text">M </text>
<text x="336.00001782" y="1397.99994425" width="81.99999378000001" height="20.999910750000026" class="text">12/30/19
</text>
<text x="563.9999953800001" y="1400.000056" width="8.000025119999918" height="24.999997750000148" class="text">M</text>
<text x="579.00000732" y="1400.9999639999999" width="7.999972380000031" height="24.99999774999992" class="text">-</text>
<text x="589.00000356" y="1400.9999639999999" width="7.999972380000031" height="24.99999774999992" class="text">F </text>
<text x="606.0000042" y="1402.9999392500001" width="49.99998119999998" height="26.999973000000182" class="text">430p</text>
<text x="658.9999772399999" y="1402.9999392500001" width="8.000025120000146" height="24.999997750000148" class="text">-</text>
<text x="668.00002308" y="1405.000051" width="18.999971759999994" height="27.000109500000008" class="text">5p
</text>
<text x="278.99999706" y="1422.0000340000001" width="80.99999063999996" height="21.000070000000278" class="text">Credited
</text>
<text x="923.00005026" y="1310.99998575" width="43.999927200000116" height="21.999978000000056" class="text">Rate
</text>
<text x="901.9999843200001" y="1335.00005275" width="5.9999836799999" height="22.00011449999988" class="text">$</text>
<text x="912.0000332999999" y="1335.00005275" width="56.999985599999945" height="22.00011449999988" class="text">45.00
</text>
<text x="904.00000818" y="1365.9999762500001" width="48.99997805999999" height="21.999978000000056" class="text">Start</text>
<text x="952.99998624" y="1365.9999762500001" width="5.999983680000014" height="21.999978000000056" class="text">/</text>
<text x="958.99996992" y="1365.9999762500001" width="38.000049000000104" height="21.999978000000056" class="text">End </text>
<text x="1009.00000386" y="1365.9999762500001" width="45.000000659999955" height="21.999978000000056" class="text">Time
</text>
<text x="904.99997616" y="1402.00003125" width="48.00001008000004" height="24.99999774999992" class="text">430p</text>
<text x="957.00003396" y="1402.9999392500001" width="6.999951659999965" height="24.999997750000148" class="text">-</text>
<text x="963.0000352200001" y="1402.9999392500001" width="22.99998431999984" height="24.999997750000148" class="text">5p
</text>
<text x="1113.00001398" y="1370.00006325" width="65.99997870000016" height="26.00006499999995" class="text">Length </text>
<text x="1192.9999839" y="1367.9999515" width="24.000057780000134" height="24.99999774999992" class="text">Ad</text>
<text x="1220.00003352" y="1367.9999515" width="7.999919640000144" height="24.99999774999992" class="text">-</text>
<text x="1226.9999851799998" y="1367.9999515" width="19.00002450000011" height="25.999928500000124" class="text">ID
</text>
<text x="1150.0000071" y="1398.99998875" width="6.999951660000079" height="21.00004725000008" class="text">:</text>
<text x="1156.99995876" y="1398.99998875" width="22.999984320000067" height="23.000022500000114" class="text">00
</text>
<text x="1576.00004382" y="1368.999996" width="46.9999366200002" height="26.999973000000182" class="text">Rate </text>
<text x="1645.99996476" y="1370.00006325" width="46.000074120000136" height="27.000109500000008" class="text">Type
</text>
<text x="1568.0000187" y="1397.99994425" width="5.9999836799997865" height="20.999910750000026" class="text">$</text>
<text x="1580.9999540400001" y="1397.99994425" width="53.999993759999825" height="20.999910750000026" class="text">45.00 </text>
<text x="1656.99996414" y="1397.99994425" width="31.000009439999985" height="20.999910750000026" class="text">NM
</text>
<text x="80.000001564" y="1474.00000475" width="19.999997753999992" height="21.999977999999828" class="text">16 </text>
<text x="120.00000410400001" y="1474.00000475" width="83.00000043600001" height="21.999977999999828" class="text">12/24/19
</text>
<text x="255.99999515999997" y="1474.00000475" width="84.00000006000005" height="21.00007000000005" class="text">12/30/19
</text>
<text x="392.00000028" y="1475.00004925" width="46.0000038" height="24.000089750000143" class="text">NBC </text>
<text x="449.00002104000004" y="1474.00000475" width="23.999987459999943" height="21.999977999999828" class="text">26 </text>
<text x="480.99998088" y="1475.9999572499999" width="59.00000946000006" height="23.999930499999664" class="text">News </text>
<text x="552.00002802" y="1475.00004925" width="5.999983680000014" height="22.00011450000011" class="text">@ </text>
<text x="576.9999834600001" y="1475.9999572499999" width="19.999992479999946" height="21.999955249999857" class="text">7p
</text>
<text x="658.9999772399999" y="1477.0000245" width="24.00000504000002" height="26.000065000000177" class="text">7p</text>
<text x="685.00000614" y="1477.9999325" width="7.000004399999966" height="25.999905749999925" class="text">-</text>
<text x="692.99997852" y="1478.99999975" width="50.00003393999998" height="28.000040249999984" class="text">730p
</text>
<text x="879.99996798" y="1470.9999622500002" width="5.000015700000063" height="18.999935499999992" class="text">1-
</text>
<text x="1116.9999738000001" y="1472.9999375" width="5.999983680000014" height="20.00000275000002" class="text">:</text>
<text x="1124.99999892" y="1472.9999375" width="22.000016340000002" height="20.00000275000002" class="text">30
</text>
<text x="1240.99999398" y="1470.9999622500002" width="3.999959819999958" height="15.999915750000127" class="text">1
</text>
<text x="1344.0000536999999" y="1474.00000475" width="5.999983680000014" height="21.00007000000005" class="text">$</text>
<text x="1354.9999651800001" y="1474.00000475" width="56.00001761999988" height="21.00007000000005" class="text">90.00
</text>
<text x="1453.9999596" y="1472.9999375" width="33.00003330000004" height="20.00000275000002" class="text">NM
</text>
<text x="105.99999882" y="1530.00003975" width="74.99998938000002" height="20.00000275000025" class="text">Weeks</text>
<text x="181.99999134" y="1530.00003975" width="6.000001259999976" height="20.00000275000025" class="text">: </text>
<text x="241.99998636" y="1530.00003975" width="49.00001322" height="20.00000275000025" class="text">Start </text>
<text x="296.99998326" y="1530.00003975" width="44.000032680000004" height="20.00000275000025" class="text">Date </text>
<text x="378.00000906" y="1530.00003975" width="36.99997553999998" height="20.00000275000025" class="text">End </text>
<text x="424.99998084000003" y="1530.00003975" width="44.000032680000004" height="20.00000275000025" class="text">Date </text>
<text x="507.00000977999997" y="1527.999928" width="96.00000258000006" height="17.99989100000016" class="text">MTWTFSS </text>
<text x="681.00001116" y="1532.0000149999998" width="54.99999689999993" height="23.000022499999886" class="text">Spots</text>
<text x="741.99999174" y="1532.0000149999998" width="5.999983680000014" height="23.000022499999886" class="text">/</text>
<text x="743.00001246" y="1532.0000149999998" width="62.99996928000007" height="24.000066999999945" class="text">Week
</text>
<text x="245.00001336" y="1555.0000375" width="82.99997934000001" height="22.00009174999991" class="text">12/24/19 </text>
<text x="379.99999776" y="1555.0000375" width="83.00001450000002" height="22.00009174999991" class="text">12/30/19
</text>
<text x="66.999997662" y="1590.000048" width="58.000004562" height="27.000109500000008" class="text">Spots</text>
<text x="127.99999582199999" y="1587.99993625" width="8.000004023999992" height="24.99999774999992" class="text">: </text>
<text x="152.99999872799998" y="1587.99993625" width="8.000005782000017" height="24.99999774999992" class="text"># </text>
<text x="196.00000014" y="1583.99998575" width="25.99999373999998" height="20.000002749999794" class="text">Ch </text>
<text x="272.99999579999997" y="1587.0000055" width="42.00000882000006" height="23.000022499999886" class="text">Day </text>
<text x="334.9999971" y="1587.0000055" width="26.000011320000056" height="23.000022499999886" class="text">Air </text>
<text x="368.00001282" y="1587.0000055" width="44.99996550000003" height="23.000022499999886" class="text">Date </text>
<text x="463.00001226" y="1587.99993625" width="24.99997301999997" height="24.99999774999992" class="text">Air </text>
<text x="497.99998152" y="1588.99998075" width="49.00001322000003" height="26.00004224999998" class="text">Time </text>
<text x="558.0000117" y="1590.000048" width="114.99997434" height="27.000109500000008" class="text">Description
</text>
<text x="150.00000513" y="1615.99995375" width="4.999998119999987" height="18.999935499999992" class="text">1 </text>
<text x="186.99998946000002" y="1617.0000209999998" width="76.00001009999997" height="21.999977999999828" class="text">WAGT </text>
<text x="293.99999141999996" y="1615.00004575" width="4.999998120000043" height="16.99998299999993" class="text">M </text>
<text x="336.00001782" y="1618.0000655" width="83.99996490000001" height="21.000047249999852" class="text">12/30/19 </text>
<text x="467.9999928" y="1618.0000655" width="39.99998496000006" height="23.000022499999886" class="text">7:20 </text>
<text x="517.00000602" y="1618.9999735" width="28.999967999999967" height="23.99993049999989" class="text">PM </text>
<text x="558.0000117" y="1618.9999735" width="47.999992500000076" height="23.000022499999886" class="text">NBC </text>
<text x="617.99998914" y="1618.9999735" width="20.999995619999936" height="23.000022499999886" class="text">26 </text>
<text x="645.9999891599999" y="1620.0000407500002" width="59.000009460000115" height="24.000089750000143" class="text">News </text>
<text x="718.00000428" y="1620.0000407500002" width="5.999983680000014" height="23.000022500000114" class="text">@ </text>
<text x="740.9999885999999" y="1620.0000407500002" width="22.000016340000002" height="23.000022500000114" class="text">7p
</text>
<text x="921.9999768" y="1528.99999525" width="45.99996864000002" height="20.00000275000002" class="text">Rate
</text>
<text x="904.00000818" y="1555.0000375" width="6.000001259999976" height="21.000047249999852" class="text">$</text>
<text x="913.99995168" y="1555.0000375" width="53.99999376000005" height="23.000022500000114" class="text">90.00
</text>
<text x="904.00000818" y="1585.999961" width="48.99997805999999" height="21.999977999999828" class="text">Start</text>
<text x="952.99998624" y="1585.999961" width="5.999983680000014" height="21.999977999999828" class="text">/</text>
<text x="958.99996992" y="1585.999961" width="38.000049000000104" height="21.999977999999828" class="text">End </text>
<text x="1009.00000386" y="1585.999961" width="47.999992500000076" height="21.999977999999828" class="text">Time
</text>
<text x="902.9999523" y="1623.0000605" width="24.00005778000002" height="26.00004224999998" class="text">7p</text>
<text x="929.00003394" y="1622.000016" width="6.999951659999965" height="26.00006499999995" class="text">-</text>
<text x="937.0000414799999" y="1623.0000605" width="45.999986220000096" height="28.000017500000013" class="text">730p
</text>
<text x="1113.00001398" y="1587.0000055" width="65.00001072000009" height="24.000066999999945" class="text">Length </text>
<text x="1190.9999600400001" y="1585.999961" width="28.000017599999865" height="23.000022499999886" class="text">Ad</text>
<text x="1221.0000015" y="1585.00003025" width="5.9999836799997865" height="22.00009174999991" class="text">-</text>
<text x="1226.0000172" y="1585.00003025" width="17.000000640000053" height="22.00009174999991" class="text">ID
</text>
<text x="1150.99997508" y="1617.0000209999998" width="5.000015699999949" height="18.999958249999736" class="text">:</text>
<text x="1156.99995876" y="1617.0000209999998" width="22.000033920000078" height="18.999958249999736" class="text">30 </text>
<text x="1190.9999600400001" y="1617.0000209999998" width="143.00004467999997" height="21.000069999999823" class="text">TS20TV1964AH
</text>
<text x="1576.00004382" y="1587.99993625" width="47.99999250000019" height="23.999953249999862" class="text">Rate </text>
<text x="1647.00002064" y="1587.99993625" width="46.9999366200002" height="22.99988600000006" class="text">Type
</text>
<text x="1568.0000187" y="1618.0000655" width="5.9999836799997865" height="22.00011449999988" class="text">$</text>
<text x="1577.9999622" y="1618.0000655" width="55.00006721999989" height="22.00011449999988" class="text">90.00 </text>
<text x="1655.0000457600001" y="1618.0000655" width="32.99992781999981" height="22.00011449999988" class="text">NM
</text>
<text x="81.999999054" y="1665.9999492499999" width="19.999997754000006" height="20.9999107499998" class="text">18 </text>
<text x="119.00000272199999" y="1667.0000165000001" width="85.99999051799999" height="21.999978000000056" class="text">12/24/19
</text>
<text x="257.00001588000003" y="1668.000061" width="82.99997933999998" height="21.00004725000008" class="text">12/30/19
</text>
<text x="394.99999212" y="1668.99999175" width="8.000007540000013" height="25.999928499999896" class="text">M</text>
<text x="411.0000072" y="1670.00003625" width="7.9999899599999935" height="26.00004224999998" class="text">-</text>
<text x="421.00000344" y="1670.00003625" width="7.9999899599999935" height="26.00004224999998" class="text">F </text>
<text x="439.99997520000005" y="1672.0000115" width="25.000025759999914" height="28.000017500000013" class="text">6p</text>
<text x="466.00002168" y="1670.99994425" width="7.999954800000069" height="25.999905749999925" class="text">-</text>
<text x="473.99997648000004" y="1672.0000115" width="47.000042099999916" height="26.999972999999954" class="text">630p
</text>
<text x="658.9999772399999" y="1670.00003625" width="23.000037060000068" height="24.99999774999992" class="text">6p</text>
<text x="685.9999741199999" y="1670.00003625" width="7.00000440000008" height="24.99999774999992" class="text">-</text>
<text x="691.0000074" y="1670.00003625" width="50.99998434000008" height="24.99999774999992" class="text">630p
</text>
<text x="881.0000238599999" y="1665.00004125" width="4.999927800000023" height="16.999983000000157" class="text">1
</text>
<text x="906.0000496200001" y="1665.00004125" width="63.99993725999991" height="15.000007750000123" class="text">-----
</text>
<text x="1116.9999738000001" y="1667.0000165000001" width="5.999983680000014" height="21.00007000000005" class="text">:</text>
<text x="1127.0000227799999" y="1667.0000165000001" width="17.999968620000118" height="21.00007000000005" class="text">30
</text>
<text x="1240.99999398" y="1665.00004125" width="5.000015699999949" height="16.999983000000157" class="text">1
</text>
<text x="1345.0000216800001" y="1665.9999492499999" width="5.9999836799997865" height="20.9999107499998" class="text">$</text>
<text x="1353.00002922" y="1668.000061" width="56.99998560000017" height="23.000022499999886" class="text">60.00
</text>
<text x="1452.99999162" y="1665.9999492499999" width="33.00003330000004" height="20.000002749999794" class="text">NM
</text>
<text x="105.99999882" y="1723.0000515" width="74.99998938000002" height="21.000047249999852" class="text">Weeks</text>
<text x="181.99999134" y="1723.0000515" width="6.000001259999976" height="21.000047249999852" class="text">: </text>
<text x="243.99999264" y="1723.0000515" width="47.00000694000002" height="21.000047249999852" class="text">Start </text>
<text x="295.9999977" y="1723.0000515" width="46.99998935999997" height="21.000047249999852" class="text">Date </text>
<text x="378.00000906" y="1722.0000069999999" width="36.99997553999998" height="20.000002749999794" class="text">End </text>
<text x="426.00000156" y="1723.0000515" width="44.00001510000004" height="21.000047249999852" class="text">Date </text>
<text x="507.00000977999997" y="1720.9999625" width="97.99999128000007" height="17.99989100000016" class="text">MTWTFSS </text>
<text x="682.0000143" y="1725.9999575" width="55.99998246000007" height="25.999928500000124" class="text">Spots</text>
<text x="740.9999885999999" y="1725.9999575" width="6.999986820000117" height="25.999928500000124" class="text">/</text>
<text x="743.99998044" y="1725.9999575" width="61.00003332000006" height="25.999928500000124" class="text">Week
</text>
<text x="245.00001336" y="1748.00004925" width="82.99997934000001" height="19.99998000000005" class="text">12/24/19 </text>
<text x="381.0000009" y="1750.0000245" width="85.00002078" height="24.99999774999992" class="text">12/30/19
</text>
<text x="514.00001418" y="1745.9999602500002" width="4.000012559999959" height="15.000007750000123" class="text">1</text>
<text x="524.00001042" y="1745.9999602500002" width="4.000012559999959" height="15.000007750000123" class="text">.
</text>
<text x="797.0000062199999" y="1745.9999602500002" width="5.000015700000063" height="16.999983000000384" class="text">1
</text>
<text x="66.999997662" y="1783.00005975" width="57.00000318000001" height="26.00006499999995" class="text">Spots</text>
<text x="127.99999582199999" y="1781.9999925" width="7.000002642000027" height="24.99999774999992" class="text">: </text>
<text x="152.99999872799998" y="1781.9999925" width="7.000002642000027" height="24.99999774999992" class="text"># </text>
<text x="196.00000014" y="1775.999953" width="25.99999373999998" height="20.00000275000002" class="text">Ch </text>
<text x="271.99999266" y="1783.00005975" width="43.99999752000002" height="27.000109500000008" class="text">Day </text>
<text x="334.00001154" y="1781.9999925" width="29.999988719999976" height="26.999950249999983" class="text">Air </text>
<text x="368.00001282" y="1780.999948" width="45.99998621999998" height="26.999972999999727" class="text">Date </text>
<text x="463.00001226" y="1780.0000400000001" width="24.99997301999997" height="24.999997750000148" class="text">Air </text>
<text x="497.99998152" y="1781.9999925" width="47.99999249999996" height="26.00004224999998" class="text">Time </text>
<text x="558.0000117" y="1783.99996775" width="114.99997434" height="28.000017500000013" class="text">Description
</text>
<text x="151.99999734600001" y="1810.0000327500002" width="4.999998119999987" height="19.000094750000244" class="text">1 </text>
<text x="187.99999259999998" y="1812.000008" width="73.00000068000003" height="21.00007000000005" class="text">WAGT </text>
<text x="293.00000586" y="1810.99994075" width="5.999983680000014" height="20.00000275000002" class="text">M </text>
<text x="332.99999082" y="1812.000008" width="85.00002078" height="21.999978000000056" class="text">12/30/19 </text>
<text x="465.00000095999997" y="1813.0000525" width="42.000008820000005" height="24.99999774999992" class="text">6:15 </text>
<text x="514.99998216" y="1813.99998325" width="32.00001258000009" height="24.99999774999992" class="text">PM </text>
<text x="563.9999953800001" y="1813.99998325" width="7.000004399999966" height="24.99999774999992" class="text">M</text>
<text x="579.00000732" y="1813.99998325" width="7.000004399999966" height="24.99999774999992" class="text">-</text>
<text x="589.00000356" y="1813.99998325" width="7.00000440000008" height="24.99999774999992" class="text">F </text>
<text x="607.00002492" y="1815.0000277499998" width="22.999984320000067" height="24.99999774999992" class="text">6p</text>
<text x="634.0000218" y="1815.0000277499998" width="7.00000440000008" height="24.99999774999992" class="text">-</text>
<text x="638.99998476" y="1815.9999357499998" width="51.000001920000045" height="25.999905749999925" class="text">630p
</text>
<text x="923.00005026" y="1722.0000069999999" width="43.999927200000116" height="20.000002749999794" class="text">Rate
</text>
<text x="902.9999523" y="1748.99998" width="6.000089160000016" height="21.999978000000056" class="text">$</text>
<text x="913.99995168" y="1748.99998" width="53.99999376000005" height="21.999978000000056" class="text">60.00
</text>
<text x="907.0000176000001" y="1780.0000400000001" width="45.000000659999955" height="21.999978000000056" class="text">Start</text>
<text x="952.99998624" y="1780.0000400000001" width="5.999983680000014" height="21.999978000000056" class="text">/</text>
<text x="958.00000194" y="1780.0000400000001" width="40.99995294000007" height="21.999978000000056" class="text">End </text>
<text x="1011.00002772" y="1780.0000400000001" width="45.99996864000002" height="23.000045250000085" class="text">Time
</text>
<text x="904.00000818" y="1815.0000277499998" width="22.000033920000078" height="24.000089749999916" class="text">6p</text>
<text x="930.0000019199999" y="1815.0000277499998" width="7.000039560000005" height="24.000089749999916" class="text">-</text>
<text x="935.9999856" y="1815.0000277499998" width="50.00003393999998" height="24.000089749999916" class="text">630p
</text>
<text x="1110.00002214" y="1780.999948" width="66.99992909999992" height="23.999953249999862" class="text">Length </text>
<text x="1190.9999600400001" y="1778.99997275" width="25.000008179999895" height="23.99993050000012" class="text">Ad</text>
<text x="1218.99997764" y="1778.99997275" width="5.999983680000014" height="23.000022500000114" class="text">-</text>
<text x="1224.99996132" y="1778.0000647499999" width="17.000000640000053" height="23.000022499999886" class="text">ID
</text>
<text x="1150.0000071" y="1810.99994075" width="5.999983680000014" height="21.999955249999857" class="text">:</text>
<text x="1155.00004038" y="1810.99994075" width="24.99990270000012" height="21.999955249999857" class="text">30 </text>
<text x="1192.0000335" y="1810.99994075" width="141.00000324000007" height="21.999955249999857" class="text">TS20TV1964AH
</text>
<text x="1577.0000117999998" y="1781.9999925" width="47.00002452000035" height="26.00004224999998" class="text">Rate </text>
<text x="1644.99999678" y="1783.00005975" width="47.0000421000002" height="26.00006499999995" class="text">Type
</text>
<text x="1568.0000187" y="1812.000008" width="5.9999836799997865" height="21.00007000000005" class="text">$</text>
<text x="1579.00003566" y="1812.000008" width="53.999993759999825" height="21.00007000000005" class="text">60.00 </text>
<text x="1653.9999722999999" y="1812.000008" width="35.00007474000017" height="21.999978000000056" class="text">NM
</text>
<text x="910.00000944" y="1868.000043" width="53.999976179999976" height="26.00004224999998" class="text">Total </text>
<text x="966.9999774600001" y="1868.99997375" width="55.00006721999989" height="25.999928499999896" class="text">Spots
</text>
<text x="1178.99999268" y="1863.99997875" width="5.000015699999949" height="18.000027499999987" class="text">3
</text>
<text x="50.000000538" y="1975.0000269999998" width="145.999999602" height="38.00003024999978" class="text">Payment </text>
<text x="205.99999638" y="1973.99995975" width="99.000012" height="36.99996299999998" class="text">Terms </text>
<text x="317.0000109" y="1973.99995975" width="34.00000127999999" height="36.99996299999998" class="text">30 </text>
<text x="361.99999398" y="1973.99995975" width="81.99999377999995" height="38.00003025000001" class="text">Days
</text>
<text x="1309.99994694" y="1963.000039" width="57.00009107999995" height="20.00000275000002" class="text">Gross </text>
<text x="1376.99998152" y="1963.000039" width="50.99998434000008" height="20.00000275000002" class="text">Total
</text>
<text x="1571.00001054" y="1965.00001425" width="6.000001259999863" height="21.999978000000056" class="text">$</text>
<text x="1580.9999540400001" y="1965.00001425" width="68.00000255999998" height="21.999978000000056" class="text">195.00
</text>
<text x="66.000003312" y="2086.00007525" width="32.999994623999996" height="20.00000275000002" class="text">We </text>
<text x="98.000001828" y="2086.00007525" width="60.99999815999999" height="20.00000275000002" class="text">warrant </text>
<text x="162.999994968" y="2086.00007525" width="29.99999575199999" height="20.00000275000002" class="text">that </text>
<text x="197.00000328000002" y="2086.00007525" width="22.99998432000001" height="20.00000275000002" class="text">the </text>
<text x="226.00000644" y="2086.00007525" width="46.99998935999997" height="20.00000275000002" class="text">actual </text>
<text x="276.00000522" y="2086.00007525" width="75.99999251999998" height="20.00000275000002" class="text">broadcast </text>
<text x="358.00001658" y="2086.00007525" width="80.99997305999995" height="20.00000275000002" class="text">information </text>
<text x="448.00000032" y="2086.00007525" width="49.99998119999998" height="20.00000275000002" class="text">shown </text>
<text x="501.99999407999996" y="2086.00007525" width="18.000003780000043" height="20.00000275000002" class="text">on </text>
<text x="525.00003114" y="2086.00007525" width="24.999955440000008" height="20.00000275000002" class="text">this </text>
<text x="556.99999098" y="2086.00007525" width="52.000005060000035" height="20.00000275000002" class="text">invoice </text>
<text x="613.9999765800001" y="2086.00007525" width="31.000009439999985" height="20.00000275000002" class="text">was </text>
<text x="651.0000224400001" y="2086.00007525" width="40.99998809999988" height="20.00000275000002" class="text">taken </text>
<text x="696.99999108" y="2086.00007525" width="34.00000127999999" height="20.00000275000002" class="text">from </text>
<text x="737.00002878" y="2086.00007525" width="22.999984319999953" height="20.00000275000002" class="text">the </text>
<text x="765.9999967800001" y="2086.00007525" width="63.00002201999996" height="20.00000275000002" class="text">program </text>
<text x="835.00000248" y="2086.00007525" width="22.999984319999953" height="20.00000275000002" class="text">log</text>
<text x="859.00000752" y="2086.00007525" width="5.9999836799999" height="20.00000275000002" class="text">. </text>
<text x="873.9999843" y="2086.00007525" width="28.999967999999967" height="20.00000275000002" class="text">The </text>
<text x="909.00004146" y="2086.00007525" width="45.999968639999906" height="20.00000275000002" class="text">station </text>
<text x="963.99998562" y="2086.00007525" width="36.000042720000124" height="20.00000275000002" class="text">does </text>
<text x="1003.9999705800001" y="2086.00007525" width="28.000017599999865" height="20.00000275000002" class="text">not </text>
<text x="1034.00001204" y="2086.00007525" width="87.99999503999993" height="20.00000275000002" class="text">discriminate </text>
<text x="1132.0000560600001" y="2086.00007525" width="7.99990205999984" height="20.00000275000002" class="text">in </text>
<text x="1150.0000071" y="2086.00007525" width="14.000008799999932" height="20.00000275000002" class="text">its </text>
<text x="1172.00004102" y="2086.00007525" width="79.00000193999995" height="20.00000275000002" class="text">advertising </text>
<text x="1260.00001848" y="2086.00007525" width="65.99996111999985" height="20.00000275000002" class="text">contracts</text>
<text x="1328.9999714399999" y="2086.00007525" width="6.00000126000009" height="20.00000275000002" class="text">, </text>
<text x="1339.9999884" y="2086.00007525" width="25.99997615999996" height="20.00000275000002" class="text">and </text>
<text x="1370.99999784" y="2086.00007525" width="10.999999379999963" height="20.00000275000002" class="text">it </text>
<text x="1385.99995704" y="2086.00007525" width="24.000057780000134" height="20.00000275000002" class="text">will </text>
<text x="1413.99997464" y="2086.00007525" width="25.000008180000123" height="20.00000275000002" class="text">not </text>
<text x="1444.0000161" y="2086.00007525" width="50.999984339999855" height="20.00000275000002" class="text">accept </text>
<text x="1497.99999228" y="2086.00007525" width="81.00004338000008" height="20.00000275000002" class="text">advertising </text>
<text x="1588.00001118" y="2086.00007525" width="63.999937260000024" height="20.00000275000002" class="text">intended </text>
<text x="1656.99996414" y="2086.00007525" width="11.000016960000039" height="20.00000275000002" class="text">to
</text>
<text x="68.000000802" y="2106.999986" width="88.00000558800001" height="20.9999107499998" class="text">discriminate </text>
<text x="164.99999949" y="2106.999986" width="14.999985570000007" height="20.9999107499998" class="text">on </text>
<text x="189.99999888" y="2106.999986" width="20.999995619999993" height="20.9999107499998" class="text">the </text>
<text x="217.9999989" y="2106.999986" width="37.00001069999999" height="20.9999107499998" class="text">basis </text>
<text x="262.000014" y="2106.999986" width="14.99997677999994" height="20.9999107499998" class="text">of </text>
<text x="281.00000334" y="2106.999986" width="32.99998056000004" height="20.9999107499998" class="text">race </text>
<text x="320.00000274" y="2106.999986" width="17.000000639999996" height="20.9999107499998" class="text">or </text>
<text x="339.00000966" y="2106.999986" width="60.99998058" height="20.9999107499998" class="text">ethnicity</text>
<text x="402.99999966" y="2106.999986" width="6.000001259999976" height="20.9999107499998" class="text">. </text>
<text x="418.0000116" y="2106.999986" width="76.99997808" height="20.9999107499998" class="text">Advertiser </text>
<text x="499.00000223999996" y="2106.999986" width="46.00002138000002" height="20.9999107499998" class="text">hereto </text>
<text x="552.99997842" y="2106.999986" width="53.00002577999999" height="20.9999107499998" class="text">affirms </text>
<text x="608.99999604" y="2106.999986" width="31.000009439999985" height="20.9999107499998" class="text">that </text>
<text x="644.00001804" y="2106.999986" width="52.999973039999986" height="20.9999107499998" class="text">nothing </text>
<text x="703.9999954799999" y="2106.999986" width="10.999999380000077" height="20.9999107499998" class="text">in </text>
<text x="721.99999926" y="2106.999986" width="26.999996880000026" height="20.9999107499998" class="text">this </text>
<text x="754.00002942" y="2106.999986" width="86.9999567399999" height="20.9999107499998" class="text">Agreement </text>
<text x="844.99999872" y="2106.999986" width="8.999993099999983" height="20.9999107499998" class="text">is </text>
<text x="861.99999936" y="2106.999986" width="62.99996928000007" height="20.9999107499998" class="text">intended </text>
<text x="932.0000257800001" y="2106.999986" width="11.999967359999914" height="20.9999107499998" class="text">to </text>
<text x="949.9999943999999" y="2106.999986" width="90.00000132000014" height="20.9999107499998" class="text">discriminate </text>
<text x="1046.9999473799999" y="2106.999986" width="19.000042080000185" height="20.9999107499998" class="text">on </text>
<text x="1071.00000516" y="2106.999986" width="23.999952299999904" height="20.9999107499998" class="text">the </text>
<text x="1099.99997316" y="2106.999986" width="39.000034559999904" height="20.9999107499998" class="text">basis </text>
<text x="1145.99995938" y="2106.999986" width="15.000064679999923" height="20.9999107499998" class="text">of </text>
<text x="1166.0000397600002" y="2106.999986" width="31.999977419999823" height="20.9999107499998" class="text">race </text>
<text x="1201.0000090199999" y="2106.999986" width="19.999992480000174" height="20.9999107499998" class="text">or </text>
<text x="1223.00002536" y="2106.999986" width="60.999945419999904" height="20.9999107499998" class="text">ethnicity</text>
<text x="1286.9999626200001" y="2106.999986" width="5.999983680000014" height="20.9999107499998" class="text">. </text>
<text x="1302.99999528" y="2106.999986" width="27.000049620000027" height="20.9999107499998" class="text">This </text>
<text x="1339.00002042" y="2106.999986" width="85.99995360000003" height="20.9999107499998" class="text">Agreement </text>
<text x="1426.00004748" y="2106.999986" width="10.999911480000037" height="20.9999107499998" class="text">is </text>
<text x="1444.0000161" y="2106.999986" width="53.999976179999976" height="20.9999107499998" class="text">subject </text>
<text x="1503.99999354" y="2106.999986" width="10.999999379999963" height="20.9999107499998" class="text">to </text>
<text x="1523.00001804" y="2106.999986" width="22.999984320000067" height="20.9999107499998" class="text">the </text>
<text x="1552.99995402" y="2106.999986" width="64.99999314000002" height="20.9999107499998" class="text">Standard </text>
<text x="1628.99996412" y="2106.999986" width="46.000074120000136" height="20.9999107499998" class="text">Terms
</text>
<text x="627.0000174" y="2126.000058" width="26.999996880000026" height="19.000072000000273" class="text">and </text>
<text x="659.99999796" y="2126.000058" width="80.99999063999996" height="19.000072000000273" class="text">Conditions </text>
<text x="746.0000043" y="2126.000058" width="64.99999314000002" height="19.000072000000273" class="text">available </text>
<text x="818.00000184" y="2126.000058" width="18.000021360000005" height="19.000072000000273" class="text">at </text>
<text x="837.99999432" y="2126.000058" width="22.999984319999953" height="19.000072000000273" class="text">the </text>
<text x="864.9999912" y="2126.000058" width="25.999976160000074" height="19.000072000000273" class="text">link </text>
<text x="896.99996862" y="2126.000058" width="55.00004964000004" height="19.000072000000273" class="text">located </text>
<text x="958.99996992" y="2126.000058" width="44.000050259999966" height="19.000072000000273" class="text">above </text>
<text x="1009.99997184" y="2126.000058" width="15.000064679999923" height="19.000072000000273" class="text">on </text>
<text x="1031.99998818" y="2126.000058" width="25.99997615999996" height="19.000072000000273" class="text">this </text>
<text x="1065.99998946" y="2126.000058" width="50.00003393999987" height="19.000072000000273" class="text">invoice</text>
<text x="1119.99996564" y="2126.000058" width="5.000033280000025" height="19.000072000000273" class="text">.
</text>
<text x="1517.9999847600002" y="2201.00005125" width="65.99996111999985" height="19.000071999999818" class="text">powered </text>
<text x="1590.0000526200001" y="2200.00000675" width="17.000000639999826" height="18.00002749999976" class="text">by </text>
<text x="1611.9999634800001" y="2200.00000675" width="78.00003395999988" height="20.00000275000002" class="text">WideOrbit
</text>
</g>
<g id="page-1" transform="translate(0, 2295)">
<rect width="1758" height="2275" fill="none" stroke="black" />
<text x="1542.00004254" y="79.000000625" width="51.99995231999992" height="27.000000299999996" class="text">Page </text>
<text x="1619.9999886" y="77.99999707500001" width="7.000039560000005" height="24.999997750000013" class="text">2 </text>
<text x="1641.00003696" y="77.00000262500001" width="22.999984320000067" height="25.000002300000006" class="text">of </text>
<text x="1675.00003824" y="77.00000262500001" width="6.9999516599998515" height="25.000002300000006" class="text">2
</text>
<text x="781.0000263" y="118.99999702500001" width="185.00000076000003" height="44.99999595000001" class="text">INVOICE
</text>
<text x="344.99999334" y="144.00000387499998" width="49.00001322000003" height="27.000004849999982" class="text">Send </text>
<text x="404.99998836" y="144.00000387499998" width="91.00000445999996" height="27.000004849999982" class="text">Payment </text>
<text x="501.0000261" y="144.00000387499998" width="24.999955440000008" height="27.000004849999982" class="text">To</text>
<text x="527.00000226" y="144.00000387499998" width="8.000025120000032" height="27.000004849999982" class="text">:
</text>
<text x="337.99998894" y="182.99999899999997" width="93.99999630000002" height="28.99999374999996" class="text">WAGT
</text>
<text x="342.99998705999997" y="216.999994575" width="34.00001886000007" height="26.999988924999997" class="text">PO </text>
<text x="389.999994" y="216.999994575" width="53.99999375999994" height="26.999988924999997" class="text">Box </text>
<text x="459.00001728" y="216.999994575" width="73.99996865999998" height="26.999988924999997" class="text">14200
</text>
<text x="344.99999334" y="257.000016" width="159.99999257999997" height="34.00001832500001" class="text">Tallahassee</text>
<text x="507.00000977999997" y="255.99999425000001" width="8.999975520000078" height="31.99999302500001" class="text">, </text>
<text x="524.00001042" y="254.99999524999998" width="28.99996800000008" height="31.99999757499998" class="text">FL </text>
<text x="575.00001234" y="254.99999524999998" width="150.99999947999993" height="33.00000112499998" class="text">32317-4200
</text>
<text x="1319.00002794" y="185.0000061" width="66.99992909999992" height="24.999997750000006" class="text">Invoice </text>
<text x="1396.999974" y="185.99999144999998" width="58.000041479999936" height="24.999997749999977" class="text">Month </text>
<text x="1484.0000010600002" y="186.999995" width="79.00000193999972" height="26.000001300000008" class="text">January </text>
<text x="1574.9999703600001" y="186.999995" width="47.000042099999746" height="24.999997750000034" class="text">2020
</text>
<text x="1317.99997206" y="216.00000695" width="67.99998498000014" height="21.000001749999996" class="text">Invoice </text>
<text x="1393.99998216" y="216.00000695" width="67.00003458000015" height="21.000001749999996" class="text">Period </text>
<text x="1483.0000330799999" y="216.00000695" width="85.99995360000025" height="21.000001749999996" class="text">12/30/19 </text>
<text x="1580.9999540400001" y="216.00000695" width="6.000001259999863" height="21.000001749999996" class="text">- </text>
<text x="1596.0000363" y="216.00000695" width="83.9999297400002" height="21.000001749999996" class="text">12/30/19
</text>
<text x="901.9999843200001" y="181.99999545" width="72.00005027999987" height="21.000001749999996" class="text">Invoice </text>
<text x="983.0000277" y="181.99999545" width="5.999983680000014" height="21.000001749999996" class="text">#
</text>
<text x="902.9999523" y="216.00000695" width="70.00002641999993" height="22.000005299999998" class="text">Invoice </text>
<text x="980.0000358599999" y="216.00000695" width="46.99991904000001" height="22.000005299999998" class="text">Date
</text>
<text x="906.0000496200001" y="250.99999925" width="100.99991279999983" height="21.000001749999996" class="text">Advertiser
</text>
<text x="902.9999523" y="285.00001075" width="83.00006723999991" height="21.000001750000024" class="text">Product
</text>
<text x="904.00000818" y="318.0000005" width="85.99997117999999" height="19.999979999999994" class="text">Estimate </text>
<text x="1000.99997874" y="318.0000005" width="5.999983680000014" height="19.999979999999994" class="text">#
</text>
<text x="1062.0000296399999" y="184.00000255" width="104.0000101200003" height="22.000005300000026" class="text">1456957-2
</text>
<text x="1056.99999636" y="216.999994575" width="87.00002705999987" height="21.999989374999984" class="text">01/26/20
</text>
<text x="1060.99995618" y="254.99999524999998" width="40.000090439999894" height="25.99999674999998" class="text">Tom </text>
<text x="1113.00001398" y="254.99999524999998" width="68.00000255999998" height="25.99999674999998" class="text">Steyer </text>
<text x="1184.9999763600001" y="254.99999524999998" width="50.00003393999987" height="25.99999674999998" class="text">2020
</text>
<text x="1056.0000459599999" y="286.999986" width="85.99995360000025" height="22.999977" class="text">Political
</text>
<text x="1059.0000378" y="318.9999995" width="47.99999249999996" height="20.999978999999996" class="text">8196
</text>
<text x="1214.00004984" y="425.00000724999995" width="76.99997808000012" height="29.00001649999996" class="text">Agency </text>
<text x="1300.00000344" y="423.00000925" width="124.99997058000008" height="29.000016500000015" class="text">Commission
</text>
<text x="1582.99999548" y="420.99998850000003" width="5.999983680000014" height="20.999979000000053" class="text">$</text>
<text x="1593.99999486" y="420.99998850000003" width="54.99996174000012" height="20.999979000000053" class="text">29.25
</text>
<text x="1252.99996134" y="470.00000775" width="39.99998496000012" height="20.000002749999965" class="text">Net </text>
<text x="1297.0000116" y="470.00000775" width="82.9999617599999" height="20.000002749999965" class="text">Amount </text>
<text x="1384.99998906" y="470.00000775" width="39.99998496000012" height="20.000002749999965" class="text">Due
</text>
<text x="1571.00001054" y="470.999984" width="6.000001259999863" height="22.00000074999997" class="text">$</text>
<text x="1580.9999540400001" y="470.999984" width="67.00003457999969" height="22.00000074999997" class="text">165.75
</text>
<text x="952.00001826" y="523.00000025" width="68.99995295999986" height="22.00000074999997" class="text">Invoice </text>
<text x="1028.99999634" y="523.00000025" width="82.9999617599999" height="22.00000074999997" class="text">Balance </text>
<text x="1122.00000708" y="523.00000025" width="19.999992480000174" height="22.00000074999997" class="text">as </text>
<text x="1149.0000567" y="523.00000025" width="23.999934720000056" height="22.00000074999997" class="text">of </text>
<text x="1175.00003286" y="523.00000025" width="87.99997746000008" height="22.00000074999997" class="text">04/17/20 </text>
<text x="1272.9999538200002" y="523.00000025" width="73.0000182599997" height="22.00000074999997" class="text">6:10:17 </text>
<text x="1356.00002106" y="523.00000025" width="26.999944139999798" height="22.00000074999997" class="text">PM </text>
<text x="1393.99998216" y="523.00000025" width="32.000065319999976" height="22.00000074999997" class="text">ET
</text>
<text x="1594.99996284" y="524.0000220000001" width="5.999983680000014" height="21.00002450000011" class="text">$</text>
<text x="1605.9999798000001" y="524.0000220000001" width="45.00000065999984" height="21.00002450000011" class="text">0.00
</text>
<text x="66.000003312" y="2086.00007525" width="32.999994623999996" height="20.00000275000002" class="text">We </text>
<text x="98.000001828" y="2086.00007525" width="60.99999815999999" height="20.00000275000002" class="text">warrant </text>
<text x="162.999994968" y="2086.00007525" width="29.99999575199999" height="20.00000275000002" class="text">that </text>
<text x="197.00000328000002" y="2086.00007525" width="22.99998432000001" height="20.00000275000002" class="text">the </text>
<text x="226.00000644" y="2086.00007525" width="46.99998935999997" height="20.00000275000002" class="text">actual </text>
<text x="276.00000522" y="2086.00007525" width="75.99999251999998" height="20.00000275000002" class="text">broadcast </text>
<text x="358.00001658" y="2086.00007525" width="80.99997305999995" height="20.00000275000002" class="text">information </text>
<text x="448.00000032" y="2086.00007525" width="49.99998119999998" height="20.00000275000002" class="text">shown </text>
<text x="501.99999407999996" y="2086.00007525" width="18.000003780000043" height="20.00000275000002" class="text">on </text>
<text x="525.00003114" y="2086.00007525" width="24.999955440000008" height="20.00000275000002" class="text">this </text>
<text x="556.99999098" y="2086.00007525" width="52.000005060000035" height="20.00000275000002" class="text">invoice </text>
<text x="613.9999765800001" y="2086.00007525" width="31.000009439999985" height="20.00000275000002" class="text">was </text>
<text x="651.0000224400001" y="2086.00007525" width="40.99998809999988" height="20.00000275000002" class="text">taken </text>
<text x="696.99999108" y="2086.00007525" width="34.00000127999999" height="20.00000275000002" class="text">from </text>
<text x="737.00002878" y="2086.00007525" width="22.999984319999953" height="20.00000275000002" class="text">the </text>
<text x="765.9999967800001" y="2086.00007525" width="63.00002201999996" height="20.00000275000002" class="text">program </text>
<text x="835.00000248" y="2086.00007525" width="22.999984319999953" height="20.00000275000002" class="text">log</text>
<text x="859.00000752" y="2086.00007525" width="5.9999836799999" height="20.00000275000002" class="text">. </text>
<text x="873.9999843" y="2086.00007525" width="28.999967999999967" height="20.00000275000002" class="text">The </text>
<text x="909.00004146" y="2086.00007525" width="45.999968639999906" height="20.00000275000002" class="text">station </text>
<text x="963.99998562" y="2086.00007525" width="36.000042720000124" height="20.00000275000002" class="text">does </text>
<text x="1003.9999705800001" y="2086.00007525" width="28.000017599999865" height="20.00000275000002" class="text">not </text>
<text x="1034.00001204" y="2086.00007525" width="87.99999503999993" height="20.00000275000002" class="text">discriminate </text>
<text x="1132.0000560600001" y="2086.00007525" width="7.99990205999984" height="20.00000275000002" class="text">in </text>
<text x="1150.0000071" y="2086.00007525" width="14.000008799999932" height="20.00000275000002" class="text">its </text>
<text x="1172.00004102" y="2086.00007525" width="79.00000193999995" height="20.00000275000002" class="text">advertising </text>
<text x="1260.00001848" y="2086.00007525" width="65.99996111999985" height="20.00000275000002" class="text">contracts</text>
<text x="1328.9999714399999" y="2086.00007525" width="6.00000126000009" height="20.00000275000002" class="text">, </text>
<text x="1339.9999884" y="2086.00007525" width="25.99997615999996" height="20.00000275000002" class="text">and </text>
<text x="1370.99999784" y="2086.00007525" width="10.999999379999963" height="20.00000275000002" class="text">it </text>
<text x="1385.99995704" y="2086.00007525" width="24.000057780000134" height="20.00000275000002" class="text">will </text>
<text x="1413.99997464" y="2086.00007525" width="25.000008180000123" height="20.00000275000002" class="text">not </text>
<text x="1444.0000161" y="2086.00007525" width="50.999984339999855" height="20.00000275000002" class="text">accept </text>
<text x="1500.00003372" y="2086.00007525" width="79.99996992000001" height="20.00000275000002" class="text">advertising </text>
<text x="1588.00001118" y="2086.00007525" width="63.999937260000024" height="20.00000275000002" class="text">intended </text>
<text x="1656.99996414" y="2086.00007525" width="11.000016960000039" height="20.00000275000002" class="text">to
</text>
<text x="68.000000802" y="2106.999986" width="88.00000558800001" height="20.9999107499998" class="text">discriminate </text>
<text x="164.99999949" y="2106.999986" width="14.999985570000007" height="20.9999107499998" class="text">on </text>
<text x="189.99999888" y="2106.999986" width="20.999995619999993" height="20.9999107499998" class="text">the </text>
<text x="217.9999989" y="2106.999986" width="37.00001069999999" height="20.9999107499998" class="text">basis </text>
<text x="262.000014" y="2106.999986" width="14.99997677999994" height="20.9999107499998" class="text">of </text>
<text x="281.00000334" y="2106.999986" width="32.99998056000004" height="20.9999107499998" class="text">race </text>
<text x="320.00000274" y="2106.999986" width="17.000000639999996" height="20.9999107499998" class="text">or </text>
<text x="339.00000966" y="2106.999986" width="60.99998058" height="20.9999107499998" class="text">ethnicity</text>
<text x="402.99999966" y="2106.999986" width="6.000001259999976" height="20.9999107499998" class="text">. </text>
<text x="418.0000116" y="2106.999986" width="76.99997808" height="20.9999107499998" class="text">Advertiser </text>
<text x="499.00000223999996" y="2106.999986" width="46.00002138000002" height="20.9999107499998" class="text">hereto </text>
<text x="552.99997842" y="2106.999986" width="53.00002577999999" height="20.9999107499998" class="text">affirms </text>
<text x="608.99999604" y="2106.999986" width="31.000009439999985" height="20.9999107499998" class="text">that </text>
<text x="644.00001804" y="2106.999986" width="52.999973039999986" height="20.9999107499998" class="text">nothing </text>
<text x="703.9999954799999" y="2106.999986" width="10.999999380000077" height="20.9999107499998" class="text">in </text>
<text x="721.99999926" y="2106.999986" width="26.999996880000026" height="20.9999107499998" class="text">this </text>
<text x="754.00002942" y="2106.999986" width="86.9999567399999" height="20.9999107499998" class="text">Agreement </text>
<text x="844.99999872" y="2106.999986" width="8.999993099999983" height="20.9999107499998" class="text">is </text>
<text x="861.99999936" y="2106.999986" width="62.99996928000007" height="20.9999107499998" class="text">intended </text>
<text x="932.0000257800001" y="2106.999986" width="11.999967359999914" height="20.9999107499998" class="text">to </text>
<text x="949.9999943999999" y="2106.999986" width="90.00000132000014" height="20.9999107499998" class="text">discriminate </text>
<text x="1046.9999473799999" y="2106.999986" width="19.000042080000185" height="20.9999107499998" class="text">on </text>
<text x="1071.00000516" y="2106.999986" width="23.999952299999904" height="20.9999107499998" class="text">the </text>
<text x="1099.99997316" y="2106.999986" width="39.000034559999904" height="20.9999107499998" class="text">basis </text>
<text x="1145.99995938" y="2106.999986" width="15.000064679999923" height="20.9999107499998" class="text">of </text>
<text x="1166.0000397600002" y="2106.999986" width="31.999977419999823" height="20.9999107499998" class="text">race </text>
<text x="1201.0000090199999" y="2106.999986" width="19.999992480000174" height="20.9999107499998" class="text">or </text>
<text x="1223.00002536" y="2106.999986" width="60.999945419999904" height="20.9999107499998" class="text">ethnicity</text>
<text x="1286.9999626200001" y="2106.999986" width="5.999983680000014" height="20.9999107499998" class="text">. </text>
<text x="1302.99999528" y="2106.999986" width="27.000049620000027" height="20.9999107499998" class="text">This </text>
<text x="1339.00002042" y="2106.999986" width="85.99995360000003" height="20.9999107499998" class="text">Agreement </text>
<text x="1426.00004748" y="2106.999986" width="10.999911480000037" height="20.9999107499998" class="text">is </text>
<text x="1444.0000161" y="2106.999986" width="53.999976179999976" height="20.9999107499998" class="text">subject </text>
<text x="1503.99999354" y="2106.999986" width="10.999999379999963" height="20.9999107499998" class="text">to </text>
<text x="1523.00001804" y="2106.999986" width="22.999984320000067" height="20.9999107499998" class="text">the </text>
<text x="1552.99995402" y="2106.999986" width="64.99999314000002" height="20.9999107499998" class="text">Standard </text>
<text x="1628.99996412" y="2106.999986" width="46.000074120000136" height="20.9999107499998" class="text">Terms
</text>
<text x="627.0000174" y="2126.000058" width="26.999996880000026" height="19.000072000000273" class="text">and </text>
<text x="659.99999796" y="2126.000058" width="80.99999063999996" height="19.000072000000273" class="text">Conditions </text>
<text x="746.0000043" y="2126.000058" width="64.99999314000002" height="19.000072000000273" class="text">available </text>
<text x="818.00000184" y="2126.000058" width="18.000021360000005" height="19.000072000000273" class="text">at </text>
<text x="837.99999432" y="2126.000058" width="22.999984319999953" height="19.000072000000273" class="text">the </text>
<text x="864.9999912" y="2126.000058" width="25.999976160000074" height="19.000072000000273" class="text">link </text>
<text x="896.99996862" y="2126.000058" width="55.00004964000004" height="19.000072000000273" class="text">located </text>
<text x="958.99996992" y="2126.000058" width="44.000050259999966" height="19.000072000000273" class="text">above </text>
<text x="1009.99997184" y="2126.000058" width="15.000064679999923" height="19.000072000000273" class="text">on </text>
<text x="1031.99998818" y="2126.000058" width="25.99997615999996" height="19.000072000000273" class="text">this </text>
<text x="1065.99998946" y="2126.000058" width="50.00003393999987" height="19.000072000000273" class="text">invoice</text>
<text x="1119.99996564" y="2126.000058" width="5.000033280000025" height="19.000072000000273" class="text">.
</text>
<text x="1517.9999847600002" y="2201.00005125" width="65.99996111999985" height="19.000071999999818" class="text">powered </text>
<text x="1590.0000526200001" y="2200.00000675" width="17.000000639999826" height="18.00002749999976" class="text">by </text>
<text x="1611.9999634800001" y="2200.00000675" width="78.00003395999988" height="20.00000275000002" class="text">WideOrbit
</text>
</g>
</svg>
