<svg xmlns="http://www.w3.org/2000/svg">
<style>.text { font-size: 14px; font-family: Arial, sans-serif; }</style>
<g id="page-0" transform="translate(0, 0)">
<rect width="1758" height="2275" fill="none" stroke="black" />
<text x="1364.0000461799998" y="108.999997925" width="56.99998560000017" height="18.999994650000005" class="text">Invoice
</text>
<text x="1480.00004124" y="110.00000147499999" width="69.99992094000004" height="22.000005299999998" class="text">7432897
</text>
<text x="1364.99999658" y="140.00000105" width="23.000001899999916" height="18.000002475000016" class="text">Inv </text>
<text x="1393.99998216" y="140.00000105" width="32.000065319999976" height="18.000002475000016" class="text">Date
</text>
<text x="87.999998556" y="202.9999972" width="266.999991024" height="118.999997025" class="text">MeTV
</text>
<text x="689.0000186999999" y="92.99999572499999" width="92.9999580000001" height="19.999998199999993" class="text">Advertiser
</text>
<text x="689.0000186999999" y="131.000003225" width="68.00000255999998" height="24.000003300000003" class="text">Agency
</text>
<text x="688.0000155600001" y="164.00000435" width="50.99998433999997" height="24.000003300000003" class="text">Buyer
</text>
<text x="689.0000186999999" y="199.00000119999999" width="95.99994984000011" height="23.999994199999975" class="text">Salesperson
</text>
<text x="389.00000844" y="105.00000192499999" width="57.00002076000004" height="22.000005299999984" class="text">REMIT </text>
<text x="453.999984" y="105.00000192499999" width="19.99999248000006" height="22.000005299999984" class="text">TO </text>
<text x="484.99999344" y="105.00000192499999" width="59.00000946" height="22.000005299999984" class="text">Sinclair </text>
<text x="551.0000073" y="105.00000192499999" width="84.99998561999996" height="22.000005299999984" class="text">Broadcast </text>
<text x="641.0000262000001" y="105.00000192499999" width="27.9999472799999" height="22.000005299999984" class="text">Gro
</text>
<text x="392.00000028" y="135.0000015" width="6.000001260000033" height="20.000000474999993" class="text">c</text>
<text x="399.99999024" y="135.0000015" width="6.0000188400000525" height="20.000000474999993" class="text">/</text>
<text x="406.00000908000004" y="135.0000015" width="5.999983679999957" height="20.000000474999993" class="text">o </text>
<text x="419.99998272" y="136.000002775" width="43.99999752000002" height="21.00000175000001" class="text">EJAR
</text>
<text x="388.0000053" y="165.00000789999999" width="25.99999373999998" height="20.00000047499998" class="text">PO </text>
<text x="421.00000344" y="165.00000789999999" width="34.00000127999999" height="21.00000402500001" class="text">Box </text>
<text x="460.00002041999994" y="164.00000435" width="59.999977440000066" height="21.000001749999996" class="text">206270
</text>
<text x="389.999994" y="197.99999765" width="51.00000191999993" height="22.000005300000026" class="text">Dallas</text>
<text x="442.99996703999994" y="197.99999765" width="6.000054000000091" height="22.000005300000026" class="text">, </text>
<text x="455.00000472" y="197.99999765" width="19.999992479999946" height="22.000005300000026" class="text">TX </text>
<text x="483.00000473999995" y="197.99999765" width="96.00000258000006" height="22.99999065" class="text">75320-6270
</text>
<text x="1477.9999998" y="145.99999505" width="79.0000195199998" height="21.999998474999984" class="text">5/24/2020
</text>
<text x="877.0000288800001" y="97.99999527499999" width="77.99998121999988" height="25.999992199999994" class="text">Kennedy </text>
<text x="963.0000352200001" y="97.99999527499999" width="25.00000817999978" height="25.999992199999994" class="text">for </text>
<text x="991.00003524" y="97.99999527499999" width="133.99996368000006" height="25.999992199999994" class="text">Massachusetts </text>
<text x="1133.00000646" y="97.99999527499999" width="56.999985599999945" height="25.999992199999994" class="text">Senate</text>
<text x="1193.99995188" y="97.99999527499999" width="7.0000571399998535" height="25.999992199999994" class="text">-</text>
<text x="1201.0000090199999" y="97.99999527499999" width="6.999951660000079" height="25.999992199999994" class="text">D</text>
<text x="1212.00002598" y="97.99999527499999" width="6.999951660000079" height="25.999992199999994" class="text">(</text>
<text x="1223.00002536" y="97.99999527499999" width="56.999985599999945" height="25.999992199999994" class="text">136462</text>
<text x="1282.0000348199999" y="97.99999527499999" width="6.999951660000079" height="25.999992199999994" class="text">)
</text>
<text x="877.0000288800001" y="131.000003225" width="56.99991527999987" height="27.000004849999996" class="text">Ethica </text>
<text x="938.0000094599999" y="131.000003225" width="51.99996990000011" height="27.000004849999996" class="text">Media </text>
<text x="997.9999869000001" y="131.000003225" width="31.999959839999974" height="25.000006850000005" class="text">LLC </text>
<text x="1039.00004532" y="131.000003225" width="6.999951660000079" height="25.000006850000005" class="text">(</text>
<text x="1045.000029" y="133.000001225" width="51.00000191999993" height="27.00000485000001" class="text">18622</text>
<text x="1096.00003092" y="131.99999995000002" width="6.999934080000003" height="25.00000002500002" class="text">)
</text>
<text x="874.9999874399999" y="164.00000435" width="71.0000471400001" height="23.000002025000015" class="text">MUNDY</text>
<text x="946.00003458" y="164.00000435" width="5.999983680000014" height="23.000002025000015" class="text">, </text>
<text x="949.9999943999999" y="164.00000435" width="73.99996866000015" height="23.000002025000015" class="text">CAROLE
</text>
<text x="877.0000288800001" y="200.00000475" width="36.99992279999992" height="26.00000129999998" class="text">HRP</text>
<text x="918.0000169799999" y="200.00000475" width="6.999951660000079" height="26.00000129999998" class="text">/</text>
<text x="921.0000088200001" y="201.00000830000002" width="36.999993119999885" height="27.00000485000001" class="text">PHL</text>
<text x="958.99996992" y="201.00000830000002" width="7.000057139999967" height="26.000001300000008" class="text">, </text>
<text x="967.99994544" y="201.99999365" width="102.0000917399999" height="27.999990199999985" class="text">Philadelphia </text>
<text x="1076.00003844" y="201.00000830000002" width="6.999951660000079" height="26.000001300000008" class="text">(</text>
<text x="1082.9999901" y="201.99999365" width="39.999967380000044" height="26.000001300000008" class="text">3699</text>
<text x="1124.00003094" y="201.99999365" width="6.999951660000079" height="26.000001300000008" class="text">)
</text>
<text x="877.9999792799999" y="231.9999955" width="18.99998934000007" height="25.00000002500002" class="text">ph</text>
<text x="898.99999248" y="231.9999955" width="7.0000571400001945" height="25.00000002500002" class="text">: </text>
<text x="909.00004146" y="230.99999649999998" width="6.999951659999965" height="24.999988649999977" class="text">(</text>
<text x="915.99999312" y="230.99999649999998" width="28.000000020000016" height="24.999988649999977" class="text">555</text>
<text x="947.00000256" y="230.99999649999998" width="7.000039560000005" height="24.999988649999977" class="text">) </text>
<text x="958.00000194" y="230.99999649999998" width="76.00001010000005" height="26.999995749999954" class="text">555-5555
</text>
<text x="1365.9999645599999" y="179.000003" width="49.00006596000003" height="21.000001749999996" class="text">Terms
</text>
<text x="1477.9999998" y="181.99999545" width="26.999944139999798" height="18.99999464999999" class="text">CIA
</text>
<text x="1364.99999658" y="216.00000695" width="70.00002641999981" height="20.000014125000007" class="text">Contract
</text>
<text x="1477.9999998" y="220.00000294999998" width="73.99998624" height="19.999998199999993" class="text">4365857
</text>
<text x="87.000002448" y="270.000003" width="279.99998965199995" height="59.99999915000001" class="text">PROVIDENCE
</text>
<text x="1364.99999658" y="255.99999425000001" width="28.99998557999993" height="23.999998750000003" class="text">Bill </text>
<text x="1398.00004746" y="257.99999225" width="36.99997553999992" height="22.999999749999972" class="text">Type
</text>
<text x="1475.99997594" y="259.99999025" width="58.00005906000001" height="25.999996750000008" class="text">Weekly</text>
<text x="1539.0000507" y="258.99999125" width="6.999951660000079" height="23.999998749999975" class="text">/</text>
<text x="1543.9999785" y="259.99999025" width="72.0000502800001" height="24.999997749999977" class="text">Irregular
</text>
<text x="1492.0000086" y="290.00000575" width="5.999983680000014" height="20.00000275000002" class="text">5</text>
<text x="1500.00003372" y="290.00000575" width="5.999983680000014" height="20.00000275000002" class="text">/</text>
<text x="1506.0000174" y="290.00000575" width="14.999959200000148" height="20.00000275000002" class="text">18</text>
<text x="1522.00005006" y="290.00000575" width="5.999983680000014" height="20.00000275000002" class="text">/</text>
<text x="1529.9999697" y="291.00000475" width="58.000041479999936" height="21.000001750000024" class="text">2020-5</text>
<text x="1588.00001118" y="291.00000475" width="5.999983680000014" height="20.00000275000002" class="text">/</text>
<text x="1593.99999486" y="291.00000475" width="14.999976779999997" height="20.00000275000002" class="text">24</text>
<text x="1610.0000451" y="291.00000475" width="5.999983680000014" height="20.00000275000002" class="text">/</text>
<text x="1617.99994716" y="291.00000475" width="33.00003330000004" height="20.00000275000002" class="text">2020
</text>
<text x="689.0000186999999" y="283.999989" width="60.99999816000002" height="23.99999875000003" class="text">Special </text>
<text x="750.00001686" y="283.999989" width="71.9999975400001" height="23.99999875000003" class="text">Handling
</text>
<text x="688.0000155600001" y="315.00002624999996" width="62.99996927999996" height="20.000002749999965" class="text">Product
</text>
<text x="1362.99997272" y="286.00000975" width="53.00002577999999" height="19.00000375000002" class="text">Period
</text>
<text x="689.99998668" y="348.99999225000005" width="43.999997519999965" height="18.999981000000048" class="text">Brand
</text>
<text x="688.0000155600001" y="386.999977" width="37.999996259999875" height="24.999997750000034" class="text">Acct </text>
<text x="729.00000366" y="390.0000195" width="48.00001008000004" height="27.00001850000001" class="text">Types
</text>
<text x="686.99999484" y="417.9999915" width="29.000020739999968" height="19.999979999999994" class="text">Est</text>
<text x="713.00002374" y="417.9999915" width="5.999983680000014" height="19.999979999999994" class="text">/</text>
<text x="719.9999753999999" y="418.99999049999997" width="66.00001386000008" height="20.99997899999994" class="text">External </text>
<text x="788.9999811" y="418.99999049999997" width="6.000036420000015" height="20.000002749999965" class="text">#
</text>
<text x="877.9999792799999" y="282.99998999999997" width="43.99999752000008" height="20.99997899999994" class="text">None
</text>
<text x="876.00000816" y="320.00002125" width="95.00003460000005" height="26.000019500000008" class="text">POLITICAL </text>
<text x="978.9999624000001" y="320.9999975" width="105.00008358000002" height="26.99999575000004" class="text">CANDIDATE </text>
<text x="1090.99999764" y="320.9999975" width="6.999951660000079" height="24.999997749999977" class="text">(</text>
<text x="1097.9999493" y="320.9999975" width="18.000074099999892" height="24.999997749999977" class="text">ns</text>
<text x="1119.0000152399998" y="320.9999975" width="6.999951660000079" height="24.999997749999977" class="text">) </text>
<text x="1128.99995874" y="320.9999975" width="7.0000571399998535" height="24.999997749999977" class="text">(</text>
<text x="1138.00003974" y="320.9999975" width="35.99991966000016" height="24.999997749999977" class="text">1186</text>
<text x="1175.99998326" y="321.9999965" width="7.000057140000081" height="24.999997749999977" class="text">)
</text>
<text x="877.0000288800001" y="353.99998725" width="84.99993287999996" height="25.99997400000001" class="text">33/33/192 </text>
<text x="966.00002706" y="353.99998725" width="6.999951659999965" height="24.999997750000034" class="text">(</text>
<text x="975.99997056" y="356.000008" width="67.99998498000002" height="27.00001850000001" class="text">1382509</text>
<text x="1045.99999698" y="355.00000900000003" width="7.0000571399998535" height="24.999997750000034" class="text">)
</text>
<text x="877.0000288800001" y="388.99999775" width="77.00001323999993" height="23.999975999999947" class="text">National</text>
<text x="952.00001826" y="388.99999775" width="6.999951659999965" height="23.999975999999947" class="text">/</text>
<text x="957.00003396" y="390.0000195" width="73.99998623999988" height="24.999997749999977" class="text">Political </text>
<text x="1034.00001204" y="390.0000195" width="87.0000270600001" height="24.00002150000006" class="text">Candidate </text>
<text x="1130.00001462" y="390.0000195" width="63.999937260000024" height="24.00002150000006" class="text">Agency </text>
<text x="1201.9999770000002" y="390.0000195" width="36.99997553999992" height="24.00002150000006" class="text">BRD
</text>
<text x="881.0000238599999" y="420.00001225" width="113.00000322000005" height="22.00000074999997" class="text">192/09827328
</text>
<text x="1348.99996392" y="340.000024" width="19.999992479999946" height="22.000023499999998" class="text">CO</text>
<text x="1371.9999482399999" y="341.00000024999997" width="6.000106740000092" height="22.00000074999997" class="text">-</text>
<text x="1379.99997336" y="341.00000024999997" width="19.999992479999946" height="22.00000074999997" class="text">OP</text>
<text x="1402.9999576799999" y="341.00000024999997" width="6.000089160000016" height="22.00000074999997" class="text">/</text>
<text x="1407.9999909599999" y="342.99999825000003" width="45.999968640000134" height="23.99999875000003" class="text">Order </text>
<text x="1458.9999753" y="343.99999725000004" width="36.99999312" height="23.99997600000006" class="text">Type </text>
<text x="1554.0000099" y="340.000024" width="25.999993740000036" height="20.00000275000002" class="text">No</text>
<text x="1579.00003566" y="340.000024" width="5.9999836799997865" height="20.00000275000002" class="text">/</text>
<text x="1585.0000193399999" y="340.000024" width="62.99996927999996" height="20.00000275000002" class="text">Normal
</text>
<text x="1348.99996392" y="373.99999" width="65.00001071999986" height="22.000000750000027" class="text">Package
</text>
<text x="1351.00000536" y="409.0000005" width="36.00002514000016" height="18.99998099999999" class="text">Gen. </text>
<text x="1390.00002234" y="409.0000005" width="31.999959839999974" height="18.99998099999999" class="text">Date </text>
<text x="1458.00000732" y="412.00002025" width="79.99996992000024" height="22.00000074999997" class="text">5/26/2020 </text>
<text x="1551.99998604" y="412.00002025" width="70.00002641999981" height="22.00000074999997" class="text">11:59:22</text>
<text x="1622.9999804400002" y="412.00002025" width="24.00004019999983" height="22.00000074999997" class="text">AM
</text>
<text x="98.000001828" y="387.99999875" width="74.00000030400003" height="27.999994749999928" class="text">Ethica </text>
<text x="176.99999322" y="387.99999875" width="68.00002014" height="27.999994749999928" class="text">Media </text>
<text x="258.00000144" y="387.99999875" width="42.999994379999976" height="27.999994749999928" class="text">LLC
</text>
<text x="99.999999318" y="427.00000525" width="51.99999802800002" height="26.99999575000004" class="text">1225 </text>
<text x="162.000005892" y="428.00000425" width="90.00001186800003" height="27.99999475000004" class="text">Franklin </text>
<text x="265.9999914" y="428.00000425" width="86.00000633999997" height="27.00001850000001" class="text">Avenue
</text>
<text x="98.999997936" y="467.00001075" width="54.00000079199998" height="28.000017499999956" class="text">Suite </text>
<text x="168.000005394" y="465.99998899999997" width="36.99998784599998" height="25.999973999999952" class="text">325
</text>
<text x="99.999999318" y="512.0000112500001" width="80.99998888200003" height="32.00001350000002" class="text">Garden </text>
<text x="192.99999072" y="512.0000112500001" width="43.00001196000002" height="32.00001350000002" class="text">City</text>
<text x="238.99999451999997" y="512.0000112500001" width="9.00001068000006" height="32.00001350000002" class="text">, </text>
<text x="250.99999703999998" y="512.0000112500001" width="35.99998998000001" height="32.00001350000002" class="text">NY </text>
<text x="294.99999456" y="512.0000112500001" width="135.00001956" height="32.00001350000002" class="text">11530-0515
</text>
<text x="688.0000155600001" y="452.000003" width="45.999968639999906" height="18.00000474999996" class="text">Demo
</text>
<text x="686.99999484" y="487.0000135" width="69.00000569999997" height="18.000027499999987" class="text">Revision
</text>
<text x="559.99998282" y="537.99998525" width="29.999988720000033" height="23.99997600000006" class="text">AgM
</text>
<text x="689.0000186999999" y="520.00000325" width="83.99998248000009" height="19.000003749999962" class="text">Comments
</text>
<text x="876.00000816" y="524.99999825" width="90.00001889999999" height="22.000000750000027" class="text">KENNEDY </text>
<text x="974.0000345999999" y="524.99999825" width="35.99993724000001" height="22.000000750000027" class="text">FOR </text>
<text x="1019.0000528400001" y="524.99999825" width="26.999944140000025" height="22.000000750000027" class="text">MA </text>
<text x="1053.00005412" y="524.99999825" width="5.999983680000014" height="22.000000750000027" class="text">- </text>
<text x="1063.99994802" y="524.99999825" width="71.0000998800001" height="22.000000750000027" class="text">SENATE
</text>
<text x="879.0" y="555.99999" width="98.99999442000001" height="21.999978000000056" class="text">JORDANNA </text>
<text x="986.99996994" y="555.99999" width="80.00007540000001" height="21.999978000000056" class="text">GELTZER
</text>
<text x="637.99998162" y="588.99997975" width="129.99998628000003" height="29.999969999999962" class="text">OFFICIAL </text>
<text x="780.00000558" y="588.99997975" width="113.00000321999994" height="29.999969999999962" class="text">BILLING </text>
<text x="906.0000496200001" y="588.99997975" width="114.99992159999977" height="29.999969999999962" class="text">INVOICE
</text>
<text x="72.999998922" y="582.0000095" width="114.99999367799998" height="29.999992750000047" class="text">Providence </text>
<text x="193.99999386" y="581.0000105" width="9.000010680000031" height="26.99999575000004" class="text">(</text>
<text x="199.99999512" y="582.9999857500001" width="53.000008200000025" height="28.999971000000073" class="text">EJAR</text>
<text x="255.99999515999997" y="582.9999857500001" width="9.00001068000006" height="26.99999575000004" class="text">)
</text>
<text x="86.00000106600001" y="627.0000100000001" width="24.99999587399998" height="13.000032500000088" class="text">Line
</text>
<text x="138.999993444" y="632.99998125" width="30.000002783999975" height="17.99995924999996" class="text">Type
</text>
<text x="253.00000332000002" y="628.99998525" width="65.99997869999999" height="15.99998400000004" class="text">Scheduled
</text>
<text x="446.9999796" y="631.000006" width="59.00000946" height="19.00000375000002" class="text">Schedule </text>
<text x="511.00002234" y="631.000006" width="34.00000127999999" height="19.00000375000002" class="text">Days </text>
<text x="548.00001546" y="631.000006" width="10.999999380000077" height="19.00000375000002" class="text">to </text>
<text x="566.00001924" y="631.000006" width="23.999952300000018" height="19.00000375000002" class="text">Run
</text>
<text x="730.99999236" y="627.99998625" width="16.99998306000009" height="14.000008750000006" class="text">Air </text>
<text x="756.00000054" y="627.99998625" width="29.999988720000033" height="14.000008750000006" class="text">Time
</text>
<text x="870.0000244800001" y="631.000006" width="45.000000659999955" height="20.999979000000053" class="text">Length
</text>
<text x="1037.99997186" y="627.0000100000001" width="52.00005779999992" height="18.0000275000001" class="text">Program
</text>
<text x="1251.00004296" y="632.99998125" width="34.000001280000106" height="19.00000375000002" class="text">Copy</text>
<text x="1285.99999464" y="632.99998125" width="5.000033280000025" height="19.00000375000002" class="text">/</text>
<text x="1291.9999783199999" y="632.99998125" width="31.000009440000213" height="19.00000375000002" class="text">ISCI
</text>
<text x="1418.00002236" y="636.0000237500001" width="56.00003519999996" height="17.00005125000007" class="text">Amount
</text>
<text x="1577.9999622" y="635.0000247500001" width="56.999985599999945" height="17.0000285000001" class="text">Remarks
</text>
<text x="75.000003444" y="691.0000142499999" width="15.999995741999996" height="13.000032499999861" class="text">1.0
</text>
<text x="130.000000344" y="692.9999895" width="63.99999351599999" height="16.99998299999993" class="text">Contract </text>
<text x="199.99999512" y="692.9999895" width="29.000003160000006" height="16.99998299999993" class="text">Line </text>
<text x="235.00001712000002" y="692.9999895" width="65.99997869999996" height="16.99998299999993" class="text">Remarks</text>
<text x="300.99999582" y="692.9999895" width="4.999998119999987" height="16.99998299999993" class="text">:
</text>
<text x="392.00000028" y="695.000033" width="74.00002139999998" height="17.000051249999956" class="text">BEVERLY </text>
<text x="473.99997648000004" y="695.000033" width="104.00002769999986" height="17.000051249999956" class="text">HILLBILLIES
</text>
<text x="133.999997082" y="723.99998125" width="34.99999914599999" height="15.000007750000009" class="text">SPOT
</text>
<text x="221.00000832" y="725.00002575" width="47.99999250000002" height="16.000052249999953" class="text">7:00:00</text>
<text x="270.00000396" y="725.00002575" width="93.00001074" height="16.000052249999953" class="text">AM-7:30:00AM </text>
<text x="383.99999274" y="725.00002575" width="20.999995619999993" height="16.000052249999953" class="text">Day</text>
<text x="404.0000028" y="725.00002575" width="3.9999949799999968" height="16.000052249999953" class="text">,</text>
<text x="409.00000092" y="725.00002575" width="3.9999774000000343" height="16.000052249999953" class="text">M</text>
<text x="416.99999088" y="725.00002575" width="4.000012560000016" height="16.000052249999953" class="text">-</text>
<text x="423.99999528" y="725.00002575" width="4.000012560000016" height="16.000052249999953" class="text">1
</text>
<text x="661.99996908" y="726.000002" width="54.00004649999994" height="18.000027499999987" class="text">05/18/20 </text>
<text x="729.00000366" y="726.000002" width="25.000025760000085" height="18.000027499999987" class="text">7:16</text>
<text x="756.00000054" y="726.000002" width="17.000000640000053" height="18.000027499999987" class="text">AM </text>
<text x="778.99998486" y="726.000002" width="5.000033279999911" height="18.000027499999987" class="text">(</text>
<text x="784.00001814" y="726.000002" width="19.99999248000006" height="18.000027499999987" class="text">MO</text>
<text x="804.00001062" y="726.000002" width="4.999962959999948" height="18.000027499999987" class="text">)
</text>
<text x="887.00002512" y="725.00002575" width="36.000025139999934" height="17.000051249999956" class="text">00:30 </text>
<text x="932.99999376" y="726.000002" width="34.99995167999998" height="17.000028499999985" class="text">MeTV </text>
<text x="975.00000258" y="726.000002" width="14.000008800000046" height="14.999984999999924" class="text">7a
</text>
<text x="1418.99999034" y="728.99997625" width="3.999959819999958" height="15.99998400000004" class="text">$</text>
<text x="1427.00001546" y="728.99997625" width="34.000001280000106" height="15.99998400000004" class="text">25.00
</text>
<text x="1209.99998454" y="727.000001" width="113.00000322000005" height="15.999983999999927" class="text">4CMM20MASS004
</text>
<text x="1212.00002598" y="747.99998" width="3.9999422400001095" height="15.000007750000123" class="text">H
</text>
<text x="1206.9999927" y="1993.0000545" width="28.99996800000008" height="13.000032500000088" class="text">Gross </text>
<text x="1243.99998582" y="1993.0000545" width="28.999968000000308" height="13.000032500000088" class="text">Total
</text>
<text x="1449.99999978" y="1995.99993775" width="3.999959819999958" height="15.000007750000123" class="text">$</text>
<text x="1458.9999753" y="1995.99993775" width="38.000066580000066" height="15.000007750000123" class="text">25.00
</text>
<text x="1534.000035" y="1995.99993775" width="28.999967999999853" height="15.999915750000127" class="text">Total </text>
<text x="1565.99999484" y="1996.9999822500001" width="31.999959839999974" height="16.00005225000018" class="text">Spots
</text>
<text x="1653.0000219" y="1993.9999625" width="2.9999918399998933" height="10.999920750000229" class="text">1
</text>
<text x="1206.9999927" y="2015.9999404999999" width="56.00001762000011" height="13.999940499999866" class="text">Commission
</text>
<text x="1438.99998282" y="2025.9999305000001" width="5.000033280000025" height="18.999935499999992" class="text">(</text>
<text x="1446.0000399599999" y="2025.9999305000001" width="4.999927800000023" height="18.999935499999992" class="text">$</text>
<text x="1455.99998346" y="2025.9999305000001" width="28.000017600000092" height="18.999935499999992" class="text">3.75</text>
<text x="1487.9999433" y="2025.9999305000001" width="5.000033280000025" height="18.999935499999992" class="text">)
</text>
<text x="78.000002316" y="2020.9999355" width="33.999997764" height="23.999953249999862" class="text">Net </text>
<text x="117.99999958200002" y="2020.9999355" width="21.999997001999986" height="23.999953249999862" class="text">30</text>
<text x="143.000002488" y="2020.9999355" width="7.000002641999998" height="23.999953249999862" class="text">-</text>
<text x="148.000000608" y="2020.9999355" width="88.00000207200003" height="24.99999774999992" class="text">Payment </text>
<text x="238.99999451999997" y="2020.00000475" width="14.000008800000046" height="24.000066999999945" class="text">is </text>
<text x="259.00000458" y="2020.00000475" width="37.99997868000003" height="24.000066999999945" class="text">due </text>
<text x="300.99999582" y="2020.00000475" width="58.00000632000001" height="24.000066999999945" class="text">within </text>
<text x="370.00000152" y="2020.00000475" width="18.000003779999986" height="24.000066999999945" class="text">30 </text>
<text x="399.00000468" y="2020.00000475" width="43.000011959999995" height="24.999997750000148" class="text">days </text>
<text x="449.00002104000004" y="2018.9999602500002" width="42.999976799999956" height="23.999953250000317" class="text">from </text>
<text x="499.00000223999996" y="2018.9999602500002" width="64.99999314000013" height="23.999953250000317" class="text">invoice
</text>
<text x="77.000000934" y="2043.0000499999999" width="42.00000178799999" height="18.00002749999976" class="text">date</text>
<text x="122.999997702" y="2043.0000499999999" width="4.999998119999987" height="18.00002749999976" class="text">.
</text>
<text x="78.000002316" y="2073.99995075" width="65.000000172" height="22.99988600000006" class="text">Station </text>
<text x="151.99999734600001" y="2073.99995075" width="63.00000971399999" height="22.99988600000006" class="text">owned </text>
<text x="221.00000832" y="2073.99995075" width="20.999978040000002" height="22.99988600000006" class="text">or </text>
<text x="248.99999076" y="2073.99995075" width="81.00000821999998" height="22.99988600000006" class="text">provided </text>
<text x="336.00001782" y="2073.99995075" width="77.99998122" height="22.99988600000006" class="text">services </text>
<text x="418.0000116" y="2073.99995075" width="24.99995543999995" height="22.99988600000006" class="text">by </text>
<text x="446.9999796" y="2073.99995075" width="32.000030159999994" height="22.99988600000006" class="text">the </text>
<text x="485.99999657999996" y="2073.99995075" width="69.00002328" height="22.99988600000006" class="text">Sinclair
</text>
<text x="78.000002316" y="2103.0000354999997" width="96.000004338" height="24.000066999999945" class="text">Broadcast </text>
<text x="181.99999134" y="2103.0000354999997" width="53.000025780000016" height="21.999977999999828" class="text">Group</text>
<text x="238.00000896" y="2103.0000354999997" width="5.9999836799999855" height="21.000047249999625" class="text">.
</text>
<text x="738.9999999" y="2005.0000197499999" width="62.00001887999997" height="16.000052249999726" class="text">Warranty </text>
<text x="805.00001376" y="2005.0000197499999" width="3.999959819999958" height="16.000052249999726" class="text">- </text>
<text x="815.00001" y="2005.0000197499999" width="22.999984320000067" height="16.000052249999726" class="text">We </text>
<text x="839.9999830200001" y="2005.0000197499999" width="52.00005779999992" height="16.000052249999726" class="text">warrant </text>
<text x="895.0000326600001" y="2005.0000197499999" width="19.999992479999946" height="16.000052249999726" class="text">the </text>
<text x="920.0000584200001" y="2005.0000197499999" width="37.999943519999874" height="16.000052249999726" class="text">above </text>
<text x="960.9999937800001" y="2005.0000197499999" width="68.99995295999997" height="16.000052249999726" class="text">broadcasts </text>
<text x="1032.99995616" y="2005.0000197499999" width="33.00003330000004" height="16.000052249999726" class="text">were </text>
<text x="1073.00002902" y="2005.0000197499999" width="31.999977419999823" height="16.000052249999726" class="text">made
</text>
<text x="740.9999885999999" y="2023.00004725" width="63.000022020000074" height="16.000052249999953" class="text">according </text>
<text x="808.0000056" y="2023.00004725" width="11.000016960000039" height="16.000052249999953" class="text">to </text>
<text x="825.0000062400001" y="2023.00004725" width="19.999992479999946" height="16.000052249999953" class="text">the </text>
<text x="849.99997926" y="2023.00004725" width="46.00002138000002" height="16.000052249999953" class="text">official </text>
<text x="896.00000064" y="2023.00004725" width="42.99997680000001" height="16.000052249999953" class="text">station </text>
<text x="943.0000427399999" y="2023.00004725" width="17.999951040000155" height="16.000052249999953" class="text">log</text>
<text x="963.99998562" y="2023.00004725" width="3.999959820000072" height="16.000052249999953" class="text">. </text>
<text x="969.0000188999999" y="2023.00004725" width="39.99998496000012" height="16.000052249999953" class="text">Please </text>
<text x="1012.99996368" y="2023.00004725" width="27.000032040000065" height="16.000052249999953" class="text">note </text>
<text x="1045.99999698" y="2023.00004725" width="27.00003203999995" height="16.000052249999953" class="text">that </text>
<text x="1073.9999970000001" y="2023.00004725" width="23.999952299999904" height="16.000052249999953" class="text">we </text>
<text x="1097.9999493" y="2023.00004725" width="17.000000640000053" height="16.000052249999953" class="text">do </text>
<text x="1119.0000152399998" y="2023.00004725" width="22.999984320000294" height="16.000052249999953" class="text">not
</text>
<text x="741.99999174" y="2040.9999382499998" width="49.00003079999999" height="16.99998299999993" class="text">notarize </text>
<text x="798.00000936" y="2040.9999382499998" width="51.00000191999993" height="16.99998299999993" class="text">invoices </text>
<text x="850.9999824" y="2040.9999382499998" width="31.99997742000005" height="16.99998299999993" class="text">since </text>
<text x="887.9999755199999" y="2040.9999382499998" width="19.000042080000185" height="16.99998299999993" class="text">the </text>
<text x="912.0000332999999" y="2040.9999382499998" width="48.99996048000014" height="16.99998299999993" class="text">purpose </text>
<text x="967.99994544" y="2040.9999382499998" width="16.000032659999874" height="16.99998299999993" class="text">of </text>
<text x="986.0000195399999" y="2040.9999382499998" width="45.000000659999955" height="16.99998299999993" class="text">placing </text>
<text x="1034.99998002" y="2040.9999382499998" width="5.000015699999949" height="16.99998299999993" class="text">a </text>
<text x="1043.99995554" y="2040.9999382499998" width="40.00009044000012" height="16.99998299999993" class="text">notary </text>
<text x="1088.9999737800001" y="2040.9999382499998" width="28.000000020000016" height="16.99998299999993" class="text">seal </text>
<text x="1119.99996564" y="2040.9999382499998" width="12.000090420000106" height="16.99998299999993" class="text">on </text>
<text x="1139.00000772" y="2040.9999382499998" width="5.000015699999949" height="16.99998299999993" class="text">a
</text>
<text x="740.00002062" y="2056.9999905" width="67.99998498000002" height="16.99998299999993" class="text">document </text>
<text x="809.9999943" y="2056.9999905" width="9.000028260000022" height="16.99998299999993" class="text">is </text>
<text x="822.99998238" y="2056.9999905" width="12.000020100000029" height="16.99998299999993" class="text">to </text>
<text x="839.00001504" y="2056.9999905" width="56.99998560000006" height="16.99998299999993" class="text">guaranty </text>
<text x="899.9999604599999" y="2056.9999905" width="20.000097960000176" height="16.99998299999993" class="text">the </text>
<text x="924.00000066" y="2056.9999905" width="74.99995422000006" height="16.99998299999993" class="text">authenticity </text>
<text x="1003.9999705800001" y="2056.9999905" width="16.000032659999874" height="16.99998299999993" class="text">of </text>
<text x="1022.00004468" y="2056.9999905" width="11.999967360000028" height="16.99998299999993" class="text">an </text>
<text x="1040.9999637" y="2056.9999905" width="70.00002642000004" height="16.99998299999993" class="text">individual's
</text>
<text x="741.99999174" y="2073.99995075" width="56.999985599999945" height="17.999890999999934" class="text">signature </text>
<text x="805.00001376" y="2073.99995075" width="22.999984319999953" height="17.999890999999934" class="text">and </text>
<text x="830.99998992" y="2073.99995075" width="23.00000190000003" height="17.999890999999934" class="text">not </text>
<text x="856.99998366" y="2073.99995075" width="10.999999379999963" height="17.999890999999934" class="text">to </text>
<text x="873.00001632" y="2073.99995075" width="40.999935359999995" height="17.999890999999934" class="text">certify </text>
<text x="918.9999849599999" y="2073.99995075" width="21.000065940000127" height="17.999890999999934" class="text">the </text>
<text x="943.99999314" y="2073.99995075" width="56.00003520000007" height="17.999890999999934" class="text">accuracy </text>
<text x="1003.00002018" y="2073.99995075" width="12.999935340000093" height="17.999890999999934" class="text">of </text>
<text x="1017.99997938" y="2073.99995075" width="84.00003521999997" height="17.999890999999934" class="text">commercials </text>
<text x="1104.00003846" y="2073.99995075" width="31.000009439999985" height="17.999890999999934" class="text">aired</text>
<text x="1136.0000158799999" y="2073.99995075" width="5.000015700000176" height="17.999890999999934" class="text">.
</text>
<text x="1206.00002472" y="2071.9999755" width="20.999960459999784" height="11.999965249999605" class="text">Net </text>
<text x="1231.00005048" y="2071.9999755" width="28.99996800000008" height="13.000009749999663" class="text">Total
</text>
<text x="1449.99999978" y="2073.99995075" width="3.999959819999958" height="14.999984999999924" class="text">$</text>
<text x="1458.9999753" y="2073.99995075" width="36.000025139999934" height="14.999984999999924" class="text">21.25
</text>
<text x="68.000000802" y="2213.99994725" width="52.999992378" height="18.999935499999992" class="text">Officially </text>
<text x="126.99999444000001" y="2213.99994725" width="43.00000317" height="18.999935499999992" class="text">printed </text>
<text x="174.99999573" y="2213.99994725" width="12.99999686999999" height="18.999935499999992" class="text">on </text>
<text x="194.999997" y="2213.99994725" width="55.000014479999976" height="18.999935499999992" class="text">06/11/20 </text>
<text x="259.00000458" y="2213.99994725" width="34.00000127999999" height="18.999935499999992" class="text">11:44 </text>
<text x="298.99998954" y="2213.99994725" width="14.999994360000017" height="18.999935499999992" class="text">AM
</text>
<text x="1520.9999766" y="2218.0000342499998" width="31.000009439999985" height="21.000047249999625" class="text">Page</text>
<text x="1551.99998604" y="2216.000059" width="5.999983680000014" height="18.00002749999976" class="text">: </text>
<text x="1563.99997098" y="2215.0000145" width="5.999983680000014" height="18.00002749999976" class="text">1
</text>
</g>
</svg>
