<svg xmlns="http://www.w3.org/2000/svg">
<style>.text { font-size: 14px; font-family: Arial, sans-serif; }</style>
<g id="page-0" transform="translate(0, 0)">
<rect width="1758" height="2275" fill="none" stroke="black" />
<text x="1169.99999958" y="75.000004625" width="50.000033940000094" height="22.000005300000005" class="text">Print </text>
<text x="1224.99996132" y="75.000004625" width="45.00000066000007" height="22.000005300000005" class="text">Date </text>
<text x="1291.00002792" y="75.000004625" width="84.99998561999996" height="22.000005300000005" class="text">05/22/20 </text>
<text x="1384.99998906" y="75.000004625" width="87.99999504000016" height="22.000005300000005" class="text">09:59:15
</text>
<text x="1531.9999935600001" y="77.00000262500001" width="50.00003393999987" height="22.999999750000008" class="text">Page </text>
<text x="1611.9999634800001" y="75.000004625" width="5.9999836799997865" height="22.000005300000005" class="text">1 </text>
<text x="1633.00002942" y="75.000004625" width="19.999992480000174" height="22.000005300000005" class="text">of </text>
<text x="1669.00005456" y="74.000001075" width="5.999983680000014" height="22.000000749999998" class="text">1
</text>
<text x="795.00001752" y="126.99999812499999" width="157.99996871999997" height="39.999996399999986" class="text">ORDER
</text>
<text x="52.000001544" y="230.99999649999998" width="68.999991636" height="20.999992649999996" class="text">Orders
</text>
<text x="248.99999076" y="228.9999985" width="63.00002202000002" height="19.999998199999993" class="text">Order</text>
<text x="317.99999646" y="228.9999985" width="6.0000188400000525" height="19.999998199999993" class="text">/</text>
<text x="330.99998454" y="229.9999975" width="39.00001698" height="19.99999365000002" class="text">Rev</text>
<text x="373.9999965" y="229.9999975" width="6.000001259999976" height="19.99999365000002" class="text">:
</text>
<text x="1316.0000361" y="231.9999955" width="181.99995618000003" height="46.00000405000003" class="text">WICU
</text>
<text x="490.99997712" y="229.9999975" width="64.00004273999997" height="19.99999365000002" class="text">49282
</text>
<text x="248.00000520000003" y="273.999999" width="28.99998557999993" height="22.000000749999998" class="text">Alt </text>
<text x="281.9999889" y="273.999999" width="60.00001259999999" height="22.000000749999998" class="text">Order </text>
<text x="348.00002034" y="273.999999" width="5.999983680000014" height="22.000000749999998" class="text">#</text>
<text x="361.00000842000003" y="273.999999" width="5.999983679999957" height="22.000000749999998" class="text">:
</text>
<text x="248.99999076" y="316.0000025" width="81.99999378000001" height="20.999978999999996" class="text">Product </text>
<text x="334.00001154" y="316.99997875" width="50.99998433999997" height="21.999955250000028" class="text">Desc</text>
<text x="388.0000053" y="316.99997875" width="6.000001260000033" height="20.999978999999996" class="text">:
</text>
<text x="494.00002169999993" y="318.9999995" width="46.99998935999997" height="24.999997750000034" class="text">2020 </text>
<text x="549.99998658" y="320.9999975" width="77.00003082" height="25.99997400000001" class="text">Primary
</text>
<text x="248.00000520000003" y="358.99998225" width="88.00001261999995" height="20.999978999999996" class="text">Estimate</text>
<text x="339.99999522" y="358.99998225" width="6.000018839999996" height="20.999978999999996" class="text">:
</text>
<text x="1238.0000021399999" y="356.99998425" width="58.000041479999936" height="23.999976000000004" class="text">WICU</text>
<text x="1302.0000273" y="356.000008" width="6.00000126000009" height="22.000023499999998" class="text">-</text>
<text x="1308.99997896" y="356.000008" width="44.00005026000008" height="22.000023499999998" class="text">DT1
</text>
<text x="250.00001147999998" y="407.00002525" width="57.99998874000002" height="27.00001850000001" class="text">Flight </text>
<text x="310.0000065" y="406.0000035" width="60.99999816000002" height="27.00001850000001" class="text">Dates</text>
<text x="371.00000466" y="403.99998275" width="7.9999899599999935" height="24.999997750000034" class="text">:
</text>
<text x="490.99997712" y="403.99998275" width="197.00003844000008" height="22.999977" class="text">05/27/2006/01/20
</text>
<text x="949.0000264199999" y="408.00000150000005" width="77.99992848" height="29.000016500000072" class="text">Primary </text>
<text x="1037.00000388" y="405.0000045" width="28.999985580000157" height="26.999995749999982" class="text">AE</text>
<text x="1068.9999813" y="403.99998275" width="8.00000754000007" height="25.99997400000001" class="text">:
</text>
<text x="1238.0000021399999" y="407.00002525" width="48.999960480000254" height="28.00004025000004" class="text">Pam </text>
<text x="1292.9999463000001" y="409.0000005" width="72.00005027999987" height="28.999993749999987" class="text">Forsyth
</text>
<text x="248.00000520000003" y="448.99998325" width="82.99997933999998" height="26.99997300000001" class="text">Original </text>
<text x="336.00001782" y="448.000007" width="44.99998307999999" height="24.999997749999977" class="text">Date</text>
<text x="389.999994" y="447.000008" width="7.000004399999966" height="24.999997749999977" class="text">/ </text>
<text x="399.99999024" y="447.000008" width="42.000026400000024" height="24.999997749999977" class="text">Rev</text>
<text x="443.99998775999995" y="447.000008" width="7.00000440000008" height="24.999997749999977" class="text">:
</text>
<text x="493.00000098000004" y="445.00001000000003" width="192.9999731399999" height="21.000024500000052" class="text">05/22/20/05/22/20
</text>
<text x="954.00004212" y="445.00001000000003" width="53.99999376000005" height="21.000024500000052" class="text">Sales </text>
<text x="1015.9999555200001" y="445.00001000000003" width="56.000017619999994" height="21.000024500000052" class="text">Office</text>
<text x="1076.99998884" y="445.00001000000003" width="6.00000126000009" height="21.000024500000052" class="text">:
</text>
<text x="1240.000026" y="447.000008" width="25.99997615999996" height="21.000001749999967" class="text">ER</text>
<text x="1274.00002728" y="447.000008" width="5.999983680000014" height="21.000001749999967" class="text">-</text>
<text x="1279.00004298" y="447.000008" width="26.999944140000025" height="22.000000750000027" class="text">L1
</text>
<text x="248.00000520000003" y="492.00000850000004" width="62.99998685999998" height="28.000017500000013" class="text">Order </text>
<text x="317.99999646" y="493.0000075" width="45.00001824000003" height="27.00001850000001" class="text">Type</text>
<text x="366.00000654" y="493.0000075" width="7.9999899599999935" height="24.999997749999977" class="text">:
</text>
<text x="494.00002169999993" y="487.99998975" width="105.99999882000009" height="22.999977" class="text">GENERAL
</text>
<text x="949.0000264199999" y="493.0000075" width="59.999977440000066" height="29.00001649999996" class="text">Sales </text>
<text x="1014.0000195599999" y="495.0000055" width="68.99997054000016" height="29.000016500000015" class="text">Region</text>
<text x="1088.0000058" y="493.99998375" width="8.000025119999918" height="25.99997400000001" class="text">:
</text>
<text x="1240.000026" y="488.99998875" width="56.99998560000017" height="20.000002749999965" class="text">Local
</text>
<text x="52.000001544" y="580.00003425" width="79.00000193999999" height="26.000019500000008" class="text">Agency
</text>
<text x="248.00000520000003" y="576.0000154999999" width="64.00000757999999" height="21.00002449999988" class="text">Name</text>
<text x="312.00001278" y="576.0000154999999" width="5.999983679999957" height="21.00002449999988" class="text">:
</text>
<text x="491.99999784" y="576.0000154999999" width="83.00001450000002" height="22.000000749999913" class="text">Friends </text>
<text x="582.00001674" y="576.0000154999999" width="25.00000818000001" height="22.000000749999913" class="text">of </text>
<text x="610.9999847400001" y="576.0000154999999" width="63.00002201999996" height="22.000000749999913" class="text">Andre </text>
<text x="682.9999822799999" y="576.0000154999999" width="71.0000471400001" height="22.000000749999913" class="text">Horton
</text>
<text x="1240.000026" y="616.99999725" width="48.99996048000003" height="20.00000275000002" class="text">Cash
</text>
<text x="248.00000520000003" y="621.99999225" width="69.99999125999994" height="26.999950249999983" class="text">Buying </text>
<text x="329.00001342" y="621.000016" width="80.99997305999995" height="28.0000174999999" class="text">Contact</text>
<text x="406.00000908000004" y="618.9999725" width="7.999989959999937" height="24.999997750000034" class="text">:
</text>
<text x="250.99999703999998" y="666.0000165" width="57.99998873999999" height="29.0000164999999" class="text">Billing </text>
<text x="315.99999018" y="665.0000175" width="81.00000821999998" height="28.99999374999993" class="text">Contact</text>
<text x="396.9999984" y="662.99999675" width="7.9999899599999935" height="26.999972999999954" class="text">:
</text>
<text x="949.9999943999999" y="621.99999225" width="59.999977440000066" height="25.999974000000066" class="text">Billing </text>
<text x="1020.00000324" y="621.99999225" width="48.000010079999925" height="25.999974000000066" class="text">Type</text>
<text x="1071.99997314" y="621.99999225" width="7.0000571399998535" height="25.999974000000066" class="text">:
</text>
<text x="952.99998624" y="666.0000165" width="59.00000946" height="29.999992749999933" class="text">Billing </text>
<text x="1017.99997938" y="663.9999730000001" width="96.00000258" height="30.99999175000005" class="text">Calendar</text>
<text x="1113.00001398" y="661.0000215" width="8.999993099999983" height="27.00004124999998" class="text">:
</text>
<text x="494.00002169999993" y="660.0000225" width="63.999990000000025" height="21.00004725000008" class="text">Jordan </text>
<text x="569.99997906" y="661.0000215" width="73.00001826000005" height="21.000001750000024" class="text">Lander
</text>
<text x="1240.99999398" y="660.0000225" width="92.00004276000004" height="22.000023499999998" class="text">Calendar
</text>
<text x="493.00000098000004" y="702.9999795" width="25.99999373999998" height="20.999979000000053" class="text">PO </text>
<text x="529.9999941000001" y="702.9999795" width="42.00002639999991" height="20.999979000000053" class="text">Box </text>
<text x="580.99999602" y="703.9999785" width="46.00002138000002" height="21.999978000000056" class="text">1933
</text>
<text x="1238.0000021399999" y="702.9999795" width="50.000033940000094" height="21.999955250000085" class="text">EOM</text>
<text x="1291.9999783199999" y="702.9999795" width="6.00000126000009" height="21.999955250000085" class="text">/</text>
<text x="1297.0000116" y="702.9999795" width="48.9999604799998" height="21.999955250000085" class="text">EOC
</text>
<text x="952.00001826" y="706.99999825" width="57.9999535799999" height="24.999997750000034" class="text">Billing </text>
<text x="1020.9999712199999" y="707.9999745" width="52.00005780000015" height="25.999974000000066" class="text">Cycle</text>
<text x="1079.00003028" y="707.9999745" width="6.999951660000079" height="24.999997750000034" class="text">:
</text>
<text x="949.9999943999999" y="751.99999875" width="76.00001010000028" height="28.000017500000013" class="text">Agency </text>
<text x="1034.00001204" y="750.99999975" width="121.99997873999996" height="28.999993750000044" class="text">Commission</text>
<text x="1161.00002406" y="748.999979" width="6.999951660000079" height="25.999996750000037" class="text">:
</text>
<text x="487.00001729999997" y="748.999979" width="38.000013840000065" height="21.999978000000056" class="text">Erie</text>
<text x="529.9999941000001" y="748.999979" width="5.9999836799999" height="21.999978000000056" class="text">, </text>
<text x="542.00003178" y="748.999979" width="26.999979300000064" height="21.999978000000056" class="text">PA </text>
<text x="588.00000042" y="748.999979" width="60.99998057999994" height="22.999977000000058" class="text">16502
</text>
<text x="1240.99999398" y="746.00000475" width="5.999983680000014" height="20.00000275000002" class="text">0</text>
<text x="1252.99996134" y="746.00000475" width="5.999983680000014" height="20.00000275000002" class="text">%
</text>
<text x="52.000001544" y="832.999986" width="114.00000108600001" height="21.000001750000024" class="text">Advertiser
</text>
<text x="247.00001964000003" y="832.999986" width="63.99997241999998" height="20.00000275000002" class="text">Name</text>
<text x="312.99999834" y="832.999986" width="5.999983680000014" height="20.00000275000002" class="text">:
</text>
<text x="494.00002169999993" y="832.999986" width="79.99996992000013" height="21.000001750000024" class="text">Friends </text>
<text x="582.00001674" y="832.999986" width="21.9999636" height="21.000001750000024" class="text">of </text>
<text x="610.00001676" y="832.999986" width="62.99996927999996" height="21.000001750000024" class="text">Andre </text>
<text x="681.00001116" y="832.999986" width="73.00001826000005" height="21.000001750000024" class="text">Horton
</text>
<text x="248.99999076" y="881.9999825" width="132.00001013999997" height="27.999949249999986" class="text">Demographic</text>
<text x="385.99999902" y="881.9999825" width="8.000007540000013" height="27.999949249999986" class="text">:
</text>
<text x="489.000006" y="876.0000112500001" width="32.99998056000004" height="20.00000275000002" class="text">HH
</text>
<text x="950.9999448" y="876.9999875000001" width="40.00009044000001" height="21.999978000000056" class="text">New </text>
<text x="1003.9999705800001" y="876.9999875000001" width="90.99998687999982" height="21.999978000000056" class="text">Business </text>
<text x="1105.99997442" y="876.9999875000001" width="42.000008820000176" height="21.999978000000056" class="text">Thru</text>
<text x="1152.00004854" y="876.9999875000001" width="5.999983680000014" height="21.999978000000056" class="text">:
</text>
<text x="248.00000520000003" y="919.0000365" width="81.99999377999995" height="21.000069999999937" class="text">Product </text>
<text x="337.00000338" y="919.0000365" width="62.99998685999998" height="21.000069999999937" class="text">Codes</text>
<text x="402.99999966" y="919.0000365" width="6.000001259999976" height="21.000069999999937" class="text">:
</text>
<text x="494.00002169999993" y="924.0000315" width="94.99998186000005" height="24.99999774999992" class="text">Congress
</text>
<text x="950.9999448" y="919.0000365" width="105.00010115999987" height="21.000069999999937" class="text">Advertiser </text>
<text x="1062.9999976200002" y="919.0000365" width="84.0000176399999" height="21.000069999999937" class="text">External </text>
<text x="1152.00004854" y="919.0000365" width="14.999959199999921" height="21.000069999999937" class="text">ID</text>
<text x="1175.99998326" y="919.0000365" width="6.00000126000009" height="21.000069999999937" class="text">:
</text>
<text x="247.00001964000003" y="961.9999935000001" width="92.99997557999998" height="21.000001750000024" class="text">Revenue </text>
<text x="349.0000059" y="962.99996975" width="50.99998433999997" height="21.999977999999942" class="text">Code </text>
<text x="412.99997832" y="962.99996975" width="6.000018839999996" height="20.99997899999994" class="text">1</text>
<text x="423.99999528" y="962.99996975" width="6.000018839999996" height="20.99997899999994" class="text">:
</text>
<text x="490.00000914000003" y="965.0000132499999" width="46.99998936000003" height="24.99999774999992" class="text">POL
</text>
<text x="952.99998624" y="966.9999885" width="72.00005027999987" height="26.999972999999954" class="text">Agency </text>
<text x="1034.00001204" y="965.9999895" width="85.99995360000003" height="25.999973999999952" class="text">External </text>
<text x="1124.00003094" y="965.0000132499999" width="17.999968620000118" height="24.99999774999992" class="text">ID</text>
<text x="1147.00001526" y="965.0000132499999" width="6.999951660000079" height="24.99999774999992" class="text">:
</text>
<text x="245.99999892" y="1005.0000187500001" width="93.00001074" height="21.000001750000024" class="text">Revenue </text>
<text x="348.00002034" y="1005.0000187500001" width="50.999984340000026" height="21.000001750000024" class="text">Code </text>
<text x="411.99999276" y="1005.0000187500001" width="6.000018839999996" height="21.000001750000024" class="text">2</text>
<text x="423.00000972000004" y="1005.0000187500001" width="5.999983679999957" height="21.000001750000024" class="text">:
</text>
<text x="490.99997712" y="1006.9999712499999" width="47.00004210000003" height="21.999955249999857" class="text">POL</text>
<text x="538.9999872" y="1006.9999712499999" width="6.000036420000015" height="21.999955249999857" class="text">-</text>
<text x="549.99998658" y="1006.9999712499999" width="5.999983680000014" height="21.999955249999857" class="text">C
</text>
<text x="950.9999448" y="1005.0000187500001" width="41.00005841999996" height="20.00000275000002" class="text">Unit </text>
<text x="998.99995488" y="1005.0000187500001" width="51.00008981999997" height="20.00000275000002" class="text">Code</text>
<text x="1054.00000452" y="1004.00001975" width="5.999983680000241" height="20.000002749999908" class="text">:
</text>
<text x="1241.99996196" y="1005.9999949999999" width="81.99999378000007" height="20.999978999999826" class="text">General
</text>
<text x="248.99999076" y="1049.00002025" width="91.00000446000001" height="22.000046250000196" class="text">Revenue </text>
<text x="348.00002034" y="1049.00002025" width="52.999990620000005" height="22.000046250000196" class="text">Code </text>
<text x="411.99999276" y="1049.00002025" width="6.000018839999996" height="22.000046250000196" class="text">3</text>
<text x="423.00000972000004" y="1049.00002025" width="5.999983679999957" height="22.000046250000196" class="text">:
</text>
<text x="494.99998968" y="1049.00002025" width="43.000029540000014" height="22.000046250000196" class="text">GEN
</text>
<text x="53.999999034000005" y="1155.0000734999999" width="37.00000015199999" height="22.00004624999974" class="text">Bill </text>
<text x="95.999997306" y="1155.0000734999999" width="46.00000379999999" height="22.00004624999974" class="text">Plan
</text>
<text x="56.00000004" y="1187.0000415000002" width="48.999997398000005" height="20.00000275000025" class="text">Start </text>
<text x="108.99999945" y="1187.9999495" width="46.00000379999999" height="20.999910750000026" class="text">Date
</text>
<text x="884.99998368" y="1154.00000625" width="59.99997743999995" height="20.99997899999994" class="text">Totals
</text>
<text x="881.0000238599999" y="1185.99997425" width="60.99994542000002" height="19.99998000000005" class="text">Month
</text>
<text x="211.99999764" y="1187.9999495" width="40.000020120000016" height="18.999935499999765" class="text">End </text>
<text x="258.00000144" y="1187.9999495" width="47.00000693999999" height="20.00000275000002" class="text">Date
</text>
<text x="383.00000718" y="1192.99996725" width="6.999986820000004" height="23.999953249999862" class="text"># </text>
<text x="402.99999966" y="1192.99996725" width="53.00002577999999" height="25.999928500000124" class="text">Spots </text>
<text x="477.99998903999995" y="1192.0000364999999" width="59.000009460000115" height="26.00004224999998" class="text">Gross </text>
<text x="544.0000029" y="1190.9999919999998" width="81.99999377999995" height="24.99999774999992" class="text">Amount
</text>
<text x="661.00001868" y="1187.9999495" width="39.999984960000006" height="20.00000275000002" class="text">Net </text>
<text x="704.99999862" y="1187.9999495" width="83.00001450000002" height="20.00000275000002" class="text">Amount
</text>
<text x="1122.00000708" y="1190.00006125" width="6.999951660000079" height="23.000022500000114" class="text"># </text>
<text x="1139.99995812" y="1192.99996725" width="59.00002704000008" height="25.00002050000012" class="text">Spots
</text>
<text x="446.9999796" y="1230.0000667499999" width="5.000033279999968" height="18.00002749999976" class="text">6
</text>
<text x="1201.9999770000002" y="1222.0000292500001" width="5.000015699999722" height="16.999960250000186" class="text">6
</text>
<text x="56.00000004" y="1232.0000420000001" width="84.99999792599999" height="21.000070000000278" class="text">05/01/20
</text>
<text x="53.999999034000005" y="1267.0000297499998" width="86.99999893199998" height="21.9999779999996" class="text">06/01/20
</text>
<text x="209.99999136" y="1232.0000420000001" width="88.00001262000004" height="21.000070000000278" class="text">05/31/20
</text>
<text x="211.99999764" y="1267.9999605" width="88.00001262" height="22.999908749999804" class="text">06/01/20
</text>
<text x="546.99999474" y="1232.99995" width="5.999983680000014" height="22.999885999999833" class="text">$</text>
<text x="559.99998282" y="1232.99995" width="84.00003521999997" height="22.999885999999833" class="text">1,700.00
</text>
<text x="566.00001924" y="1267.9999605" width="6.000001259999976" height="22.999908749999804" class="text">$</text>
<text x="576.9999834600001" y="1267.9999605" width="70.00002641999993" height="22.999908749999804" class="text">850.00
</text>
<text x="734.9999873400001" y="1232.99995" width="6.000001259999863" height="21.999978000000056" class="text">$</text>
<text x="747.00002502" y="1232.99995" width="83.99996490000001" height="22.999885999999833" class="text">1,700.00
</text>
<text x="753.0000087" y="1267.9999605" width="5.999983680000128" height="22.999908749999804" class="text">$</text>
<text x="764.00002566" y="1267.9999605" width="66.99996425999996" height="22.999908749999804" class="text">850.00
</text>
<text x="881.0000238599999" y="1227.999955" width="45.999986220000096" height="25.999928499999896" class="text">May </text>
<text x="932.99999376" y="1227.00002425" width="47.99999249999996" height="26.999950249999983" class="text">2020
</text>
<text x="884.99998368" y="1257.00003975" width="44.000050259999966" height="21.00007000000005" class="text">June </text>
<text x="940.0000509" y="1257.00003975" width="46.99991904000001" height="21.00007000000005" class="text">2020
</text>
<text x="1249.9999695" y="1187.9999495" width="58.00005906000024" height="20.999910750000026" class="text">Gross </text>
<text x="1314.99998022" y="1187.9999495" width="84.00001764000012" height="20.999910750000026" class="text">Amount
</text>
<text x="1308.0000285600001" y="1224.0000045" width="5.9999836799997865" height="21.999977999999828" class="text">$</text>
<text x="1322.00001978" y="1225.99997975" width="85.00000320000004" height="23.999953249999862" class="text">1,700.00
</text>
<text x="1327.00005306" y="1257.99994775" width="5.999983680000014" height="21.999978000000056" class="text">$</text>
<text x="1336.99999656" y="1257.99994775" width="67.00003457999992" height="21.999978000000056" class="text">850.00
</text>
<text x="1308.0000285600001" y="1295.9999779999998" width="5.9999836799997865" height="21.9999779999996" class="text">$</text>
<text x="1319.99999592" y="1295.9999779999998" width="87.0000270600001" height="23.999953249999862" class="text">2,550.00
</text>
<text x="1441.0000242600001" y="1187.9999495" width="40.99993535999988" height="20.999910750000026" class="text">Net </text>
<text x="1484.0000010600002" y="1187.9999495" width="84.0000176399999" height="20.999910750000026" class="text">Amount
</text>
<text x="1492.99997658" y="1224.0000045" width="5.999983680000014" height="21.999977999999828" class="text">$</text>
<text x="1504.9999439399999" y="1225.99997975" width="84.0000352200002" height="23.999953249999862" class="text">1,700.00
</text>
<text x="1512.00000108" y="1259.0000149999998" width="5.999983680000241" height="21.999977999999828" class="text">$</text>
<text x="1523.00001804" y="1259.0000149999998" width="67.99998497999991" height="23.999953249999862" class="text">850.00
</text>
<text x="1492.99997658" y="1295.00004725" width="5.999983680000014" height="22.000091750000138" class="text">$</text>
<text x="1504.9999439399999" y="1297.0000225" width="84.0000352200002" height="24.000066999999945" class="text">2,550.00
</text>
<text x="1627.00002816" y="1192.99996725" width="68.99997053999982" height="25.00002050000012" class="text">Rating
</text>
<text x="1659.0000055799999" y="1224.0000045" width="42.000008820000176" height="20.00000275000002" class="text">0.00
</text>
<text x="1661.0000294400002" y="1257.99994775" width="42.999976799999786" height="20.999910750000026" class="text">0.00
</text>
<text x="1195.00002534" y="1295.00004725" width="19.00002449999988" height="64.99998050000022" class="text">39
</text>
<text x="448.00000032" y="1267.0000297499998" width="5.999983679999957" height="21.000047249999852" class="text">3
</text>
<text x="881.0000238599999" y="1297.0000225" width="54.99996174" height="19.99998000000005" class="text">Totals
</text>
<text x="1656.99996414" y="1295.00004725" width="45.00001823999992" height="21.000047249999852" class="text">0.00
</text>
<text x="54.999996900000006" y="1345.0000655" width="92.00000232599999" height="22.00011449999988" class="text">Account </text>
<text x="154.000001868" y="1345.0000655" width="116.00000209200002" height="22.00011449999988" class="text">Executives
</text>
<text x="54.999996900000006" y="1380.00005325" width="83.00000746799998" height="21.00004725000008" class="text">Account </text>
<text x="144.999994704" y="1380.00005325" width="98.000012376" height="22.00011450000011" class="text">Executive
</text>
<text x="370.00000152" y="1380.00005325" width="53.999993759999995" height="22.00011450000011" class="text">Sales </text>
<text x="433.99999152" y="1380.00005325" width="56.00001762000005" height="22.00011450000011" class="text">Office
</text>
<text x="542.00003178" y="1384.0000037500001" width="57.99998874000005" height="28.000040249999984" class="text">Sales </text>
<text x="603.99998034" y="1385.00004825" width="73.00001826000005" height="27.000109500000008" class="text">Region
</text>
<text x="730.99999236" y="1379.00000875" width="47.999992500000076" height="20.00000275000002" class="text">Start </text>
<text x="782.99999742" y="1379.00000875" width="46.00002138000002" height="20.00000275000002" class="text">Date </text>
<text x="839.9999830200001" y="1379.00000875" width="6.000036420000015" height="20.00000275000002" class="text">/ </text>
<text x="852.00000312" y="1379.00000875" width="40.00003770000001" height="20.00000275000002" class="text">End </text>
<text x="898.99999248" y="1379.00000875" width="44.000050259999966" height="20.00000275000002" class="text">Date
</text>
<text x="1121.0000391" y="1380.00005325" width="60.999945419999904" height="22.00011450000011" class="text">Order </text>
<text x="1187.9999682" y="1380.00005325" width="5.999983680000014" height="20.00000275000002" class="text">%
</text>
<text x="54.999996900000006" y="1425.00005375" width="46.999999908" height="24.99999774999992" class="text">Pam </text>
<text x="110.99999693999999" y="1427.0000289999998" width="70.99999440000002" height="26.00006499999995" class="text">Forsyth
</text>
<text x="731.9999955000001" y="1422.999942" width="45.00001823999992" height="21.999978000000056" class="text">Start </text>
<text x="784.00001814" y="1422.999942" width="26.999979300000064" height="21.999978000000056" class="text">Of </text>
<text x="815.00001" y="1422.999942" width="60.99999816000002" height="21.999978000000056" class="text">Order </text>
<text x="881.0000238599999" y="1422.999942" width="6.00000126000009" height="21.999978000000056" class="text">- </text>
<text x="893.9999592" y="1422.999942" width="39.99998495999989" height="21.999978000000056" class="text">End </text>
<text x="941.0000013" y="1422.999942" width="28.999985580000043" height="21.999978000000056" class="text">Of </text>
<text x="972.99997872" y="1422.999942" width="59.00000946" height="21.999978000000056" class="text">Order
</text>
<text x="1161.00002406" y="1422.999942" width="34.000001280000106" height="21.999978000000056" class="text">100</text>
<text x="1200.00004104" y="1422.999942" width="5.999983680000014" height="21.999978000000056" class="text">%
</text>
<text x="1602.00001998" y="1545.9999555000002" width="93.99997871999994" height="23.99993050000012" class="text">Amount
</text>
<text x="1056.99999636" y="1547.00002275" width="42.99997680000001" height="28.000040249999984" class="text">Len </text>
<text x="1116.0000234" y="1550.0000425" width="63.999919680000176" height="29.000084750000042" class="text">Spots
</text>
<text x="1079.9999806800001" y="1582.99994125" width="7.0000571399998535" height="20.999933499999997" class="text">:</text>
<text x="1088.9999737800001" y="1582.99994125" width="22.99998431999984" height="22.999908749999804" class="text">30 </text>
<text x="1178.0000247" y="1582.99994125" width="5.999983680000014" height="20.000002749999794" class="text">3
</text>
<text x="1235.0000103" y="1550.0000425" width="51.99995232000015" height="31.000060000000076" class="text">Rate </text>
<text x="1311.9999708" y="1548.9999979999998" width="33.00005088000012" height="28.99994824999999" class="text">Pri </text>
<text x="1362.99997272" y="1550.0000425" width="36.99999312" height="29.000084750000042" class="text">Rtg </text>
<text x="1415.0000305199999" y="1552.00001775" width="51.999969900000224" height="31.000060000000076" class="text">Type </text>
<text x="1483.0000330799999" y="1552.99992575" width="62.99996928000019" height="30.99990075000005" class="text">Spots
</text>
<text x="1226.0000172" y="1585.00003025" width="6.999951660000079" height="24.99999774999992" class="text">$</text>
<text x="1237.00003416" y="1585.00003025" width="68.00000255999998" height="24.99999774999992" class="text">250.00 </text>
<text x="1314.00001224" y="1585.00003025" width="6.999951660000079" height="24.99999774999992" class="text">P</text>
<text x="1325.9999796" y="1585.00003025" width="7.000057140000081" height="24.99999774999992" class="text">-</text>
<text x="1334.00000472" y="1585.00003025" width="27.0000496199998" height="24.99999774999992" class="text">01</text>
<text x="1359.99998088" y="1585.00003025" width="11.9999673599998" height="24.99999774999992" class="text">.: </text>
<text x="1378.00005498" y="1585.00003025" width="42.99997680000001" height="24.99999774999992" class="text">0.00 </text>
<text x="1430.0000073" y="1585.00003025" width="31.999959839999974" height="24.99999774999992" class="text">NM </text>
<text x="1543.00001052" y="1580.999966" width="5.000015699999949" height="18.99995825000019" class="text">3
</text>
<text x="1622.0000124599999" y="1582.99994125" width="5.999983680000014" height="21.999978000000056" class="text">$</text>
<text x="1636.00002126" y="1582.99994125" width="64.99999314000002" height="21.999978000000056" class="text">750.00
</text>
<text x="1080.99994866" y="1710.99994975" width="6.000089160000016" height="20.00000275000002" class="text">:</text>
<text x="1090.0000296599999" y="1710.99994975" width="17.999968620000118" height="20.00000275000002" class="text">30
</text>
<text x="1179.99994308" y="1710.0000417499998" width="5.000033280000025" height="18.00002749999976" class="text">3
</text>
<text x="1224.99996132" y="1712.000017" width="6.000089160000016" height="21.999978000000056" class="text">$</text>
<text x="1238.0000021399999" y="1712.000017" width="64.00002516000018" height="21.999978000000056" class="text">250.00 </text>
<text x="1313.0000442599999" y="1712.000017" width="5.999983680000241" height="21.999978000000056" class="text">P</text>
<text x="1328.00002104" y="1712.000017" width="5.999983680000014" height="21.999978000000056" class="text">-</text>
<text x="1334.00000472" y="1712.000017" width="23.999952299999904" height="21.999978000000056" class="text">01</text>
<text x="1362.0000047400001" y="1712.000017" width="8.999993099999983" height="21.999978000000056" class="text">.: </text>
<text x="1376.99998152" y="1712.000017" width="42.99997680000001" height="21.999978000000056" class="text">0.00 </text>
<text x="1430.0000073" y="1712.000017" width="31.999959839999974" height="21.999978000000056" class="text">NM
</text>
<text x="1543.00001052" y="1710.0000417499998" width="5.000015699999949" height="19.00009474999979" class="text">3
</text>
<text x="1621.00004448" y="1710.99994975" width="5.999983680000014" height="20.999910750000026" class="text">$</text>
<text x="1633.99997982" y="1713.0000615000001" width="68.00000255999998" height="23.000022500000114" class="text">750.00
</text>
<text x="68.000000802" y="1545.0000475000002" width="23.999999765999988" height="22.00011450000011" class="text">Ln </text>
<text x="121.99999632" y="1543.99998025" width="27.000007428000018" height="21.999955249999857" class="text">Ch </text>
<text x="211.99999764" y="1545.0000475000002" width="53.999993759999995" height="23.000022500000114" class="text">Start </text>
<text x="312.00001278" y="1545.0000475000002" width="42.999976799999956" height="24.000089750000143" class="text">End </text>
<text x="412.99997832" y="1550.0000425" width="105.00004841999993" height="29.000084750000042" class="text">Inventory </text>
<text x="528.99999096" y="1548.9999979999998" width="60.00001259999999" height="26.999972999999727" class="text">Code </text>
<text x="661.00001868" y="1545.0000475000002" width="62.99996927999996" height="24.000089750000143" class="text">Break </text>
<text x="747.99997542" y="1545.0000475000002" width="53.00004335999995" height="24.000089750000143" class="text">Start</text>
<text x="799.99999806" y="1545.0000475000002" width="7.000004399999966" height="24.000089750000143" class="text">/</text>
<text x="805.9999817400001" y="1545.0000475000002" width="45.000000659999955" height="24.000089750000143" class="text">End </text>
<text x="863.00002008" y="1545.0000475000002" width="52.000005060000035" height="24.000089750000143" class="text">Time </text>
<text x="949.9999943999999" y="1550.0000425" width="59.000009460000115" height="27.000109500000008" class="text">Days
</text>
<text x="57.99999753" y="1587.0000055" width="8.000005782000002" height="26.999972999999954" class="text">N </text>
<text x="84.000003576" y="1587.0000055" width="7.999996991999993" height="26.999972999999954" class="text">1 </text>
<text x="113.000001462" y="1587.0000055" width="61.000005192" height="26.999972999999954" class="text">WICU </text>
<text x="198.99999198" y="1587.0000055" width="89.00001576" height="26.999972999999954" class="text">05/27/20 </text>
<text x="305.00000838" y="1587.0000055" width="84.99998562000002" height="26.999972999999954" class="text">06/01/20 </text>
<text x="411.99999276" y="1587.0000055" width="50.00001635999996" height="26.999972999999954" class="text">Early </text>
<text x="470.00001666000003" y="1587.0000055" width="60.999998159999905" height="26.999972999999954" class="text">News </text>
<text x="529.9999941000001" y="1587.0000055" width="97.9999912799999" height="26.999972999999954" class="text">Weekday </text>
<text x="637.99998162" y="1587.0000055" width="8.000007539999956" height="26.999972999999954" class="text">(</text>
<text x="641.0000262000001" y="1587.0000055" width="53.99997617999986" height="26.999972999999954" class="text">1M </text>
<text x="743.00001246" y="1587.0000055" width="24.00000504000002" height="26.000042250000206" class="text">5p</text>
<text x="771.00003006" y="1587.0000055" width="6.999986820000004" height="26.000042250000206" class="text">-</text>
<text x="775.99999302" y="1587.0000055" width="51.000001920000045" height="26.000042250000206" class="text">530p
</text>
<text x="935.9999856" y="1582.0000105" width="55.00004964000004" height="21.00004725000008" class="text">1-11</text>
<text x="992.9999712" y="1580.999966" width="38.000048999999876" height="18.99995825000019" class="text">---
</text>
<text x="418.0000116" y="1612.00000325" width="35.00000442000004" height="21.999955249999857" class="text">Erie </text>
<text x="462.00000911999996" y="1613.9999785" width="60.999980580000056" height="23.000022500000114" class="text">News </text>
<text x="528.99999096" y="1613.0000705000002" width="37.99999625999999" height="22.000114500000336" class="text">Now </text>
<text x="586.9999797" y="1613.9999785" width="6.000036420000015" height="21.999955250000085" class="text">@ </text>
<text x="613.0000086" y="1613.9999785" width="19.999992479999946" height="21.999955250000085" class="text">5p
</text>
<text x="157.999996848" y="1645.9999465" width="44.00000455200001" height="20.999910750000254" class="text">Start </text>
<text x="209.0000058" y="1647.0000137499999" width="46.99998935999997" height="21.999978000000056" class="text">Date </text>
<text x="290.99999958" y="1647.0000137499999" width="39.999984960000006" height="21.999978000000056" class="text">End </text>
<text x="337.99998894" y="1648.00005825" width="49.00001322000003" height="22.00009174999991" class="text">Date </text>
<text x="426.99998711999996" y="1650.99996425" width="110.0000113800001" height="27.99990374999993" class="text">Weekdays </text>
<text x="605.00000106" y="1650.99996425" width="53.00002577999999" height="24.99999774999992" class="text">Spots</text>
<text x="661.99996908" y="1650.99996425" width="7.000004399999966" height="24.99999774999992" class="text">/</text>
<text x="662.9999898" y="1650.99996425" width="62.00000130000001" height="25.999928500000124" class="text">Week </text>
<text x="797.0000062199999" y="1648.9999890000001" width="45.00000066000007" height="23.999953250000317" class="text">Rate </text>
<text x="890.00001696" y="1650.99996425" width="68.99995295999997" height="25.999928500000124" class="text">Rating
</text>
<text x="81.999999054" y="1677.0000065" width="60.000002051999985" height="21.999978000000056" class="text">Week</text>
<text x="144.999994704" y="1677.0000065" width="5.9999995020000085" height="21.999978000000056" class="text">: </text>
<text x="155.00000325" y="1677.0000065" width="86.99998311000002" height="21.999978000000056" class="text">05/27/20 </text>
<text x="290.99999958" y="1677.0000065" width="87.99999503999999" height="21.999978000000056" class="text">06/02/20 </text>
<text x="430.99999968" y="1675.00003125" width="52.00000505999998" height="20.00000275000002" class="text">1-11</text>
<text x="487.00001729999997" y="1675.00003125" width="38.000013840000065" height="19.000071999999818" class="text">---
</text>
<text x="716.9999835599999" y="1675.9999619999999" width="5.000015700000063" height="18.999958249999736" class="text">3 </text>
<text x="763.0000049399999" y="1678.00007375" width="5.999983680000128" height="22.00011449999988" class="text">$</text>
<text x="777.00001374" y="1678.00007375" width="63.99997241999995" height="24.000089750000143" class="text">250.00
</text>
<text x="915.99999312" y="1678.00007375" width="42.99997680000001" height="23.000045250000085" class="text">0.00
</text>
<text x="60.000002052000006" y="1713.9999695000001" width="6.999995609999992" height="25.999905750000153" class="text">N </text>
<text x="86.00000106600001" y="1713.9999695000001" width="6.999995609999985" height="25.999905750000153" class="text">2 </text>
<text x="115.99999506" y="1713.9999695000001" width="58.000011594" height="25.999905750000153" class="text">WICU </text>
<text x="200.99999825999998" y="1715.00003675" width="88.99999818000003" height="26.00006499999995" class="text">05/27/20 </text>
<text x="305.00000838" y="1715.00003675" width="84.99998562000002" height="26.00006499999995" class="text">06/01/20 </text>
<text x="412.99997832" y="1715.99994475" width="48.00001007999998" height="26.999972999999954" class="text">Early </text>
<text x="473.0000085" y="1715.99994475" width="58.000006319999954" height="25.999905749999925" class="text">News </text>
<text x="532.99998594" y="1715.99994475" width="96.00000258" height="25.999905749999925" class="text">Weekday </text>
<text x="640.00000548" y="1715.99994475" width="7.000004399999966" height="25.999905749999925" class="text">(</text>
<text x="641.0000262000001" y="1717.0000120000002" width="55.99996487999988" height="26.999973000000182" class="text">2M </text>
<text x="744.99998358" y="1717.0000120000002" width="48.00001008000004" height="26.999973000000182" class="text">530p</text>
<text x="797.0000062199999" y="1715.99994475" width="7.00000440000008" height="24.99999774999992" class="text">-</text>
<text x="802.9999899000001" y="1715.99994475" width="22.999984319999953" height="24.99999774999992" class="text">6p
</text>
<text x="935.9999856" y="1712.000017" width="53.99999376000005" height="21.00007000000005" class="text">1-11</text>
<text x="992.0000032199999" y="1710.99994975" width="37.9999435200001" height="18.999935499999992" class="text">---
</text>
<text x="418.0000116" y="1742.0000097500001" width="38.00001384000001" height="23.99995325000009" class="text">Erie </text>
<text x="465.00000095999997" y="1743.999985" width="59.00000946" height="24.99999774999992" class="text">News </text>
<text x="528.99999096" y="1743.00005425" width="37.99999625999999" height="24.000066999999945" class="text">Now </text>
<text x="588.00000042" y="1743.999985" width="7.000004399999966" height="23.999953249999862" class="text">@ </text>
<text x="611.9999878799999" y="1745.0000295" width="68.0000025600001" height="24.99999774999992" class="text">530pm
</text>
<text x="156.00000639" y="1776.9999975" width="45.99999500999999" height="20.00000275000002" class="text">Start </text>
<text x="209.0000058" y="1775.999953" width="43.99999752000002" height="20.00000275000002" class="text">Date </text>
<text x="290.99999958" y="1775.999953" width="38.99999939999998" height="20.999910750000026" class="text">End </text>
<text x="339.99999522" y="1775.999953" width="42.000008820000005" height="20.999910750000026" class="text">Date </text>
<text x="428.00000784" y="1778.99997275" width="107.00001953999998" height="23.99993050000012" class="text">Weekdays </text>
<text x="602.0000092199999" y="1778.99997275" width="57.99998874000005" height="24.99999774999992" class="text">Spots</text>
<text x="662.9999898" y="1778.99997275" width="7.000004399999966" height="24.99999774999992" class="text">/</text>
<text x="664.00001052" y="1780.0000400000001" width="59.00000945999989" height="26.00006499999995" class="text">Week </text>
<text x="795.00001752" y="1778.0000647499999" width="46.99998935999997" height="23.000022499999886" class="text">Rate </text>
<text x="890.00001696" y="1781.9999925" width="68.99995295999997" height="26.00004224999998" class="text">Rating
</text>
<text x="81.000002946" y="1805.99994575" width="59.99999502" height="20.00000275000002" class="text">Week</text>
<text x="144.999994704" y="1805.99994575" width="5.9999995020000085" height="20.00000275000002" class="text">: </text>
<text x="154.000001868" y="1805.99994575" width="89.00000521199999" height="20.00000275000002" class="text">05/27/20 </text>
<text x="291.99998514" y="1805.99994575" width="87.00000948000002" height="20.999910750000026" class="text">06/02/20 </text>
<text x="430.99999968" y="1803.9999705" width="52.00000505999998" height="20.00000275000002" class="text">1-11</text>
<text x="487.00001729999997" y="1803.0000625" width="38.000013840000065" height="18.000027499999987" class="text">---
</text>
<text x="718.00000428" y="1805.00003775" width="5.000015699999949" height="18.000027499999987" class="text">3 </text>
<text x="764.00002566" y="1805.00003775" width="5.9999836799999" height="20.00000275000002" class="text">$</text>
<text x="775.99999302" y="1806.99999025" width="66.00001385999997" height="21.999955250000085" class="text">250.00 </text>
<text x="916.9999611" y="1805.99994575" width="42.00000882000006" height="20.00000275000002" class="text">0.00
</text>
<text x="57.99999753" y="1843.00004525" width="7.000002641999998" height="26.00004224999998" class="text">N </text>
<text x="87.000002448" y="1843.00004525" width="6.999997367999995" height="26.00004224999998" class="text">3 </text>
<text x="113.000001462" y="1843.00004525" width="57.99999753" height="26.00004224999998" class="text">WICU </text>
<text x="202.0000014" y="1843.9999759999998" width="84.99998561999999" height="25.99992849999967" class="text">05/27/20 </text>
<text x="305.99999393999997" y="1843.9999759999998" width="85.00000320000004" height="25.99992849999967" class="text">06/01/20 </text>
<text x="411.99999276" y="1845.0000205" width="51.00001950000001" height="26.999972999999727" class="text">Early </text>
<text x="470.99998464" y="1845.0000205" width="60.99999816000002" height="26.00004224999998" class="text">News </text>
<text x="534.0000066599999" y="1845.0000205" width="97.99997370000006" height="26.00004224999998" class="text">Weekday </text>
<text x="637.99998162" y="1845.0000205" width="7.00000440000008" height="26.00004224999998" class="text">(</text>
<text x="648.0000306000001" y="1845.0000205" width="43.99997993999989" height="26.00004224999998" class="text">3rdM </text>
<text x="743.99998044" y="1843.9999759999998" width="23.999987460000057" height="25.99992849999967" class="text">6p</text>
<text x="770.0000093399999" y="1845.0000205" width="7.00000440000008" height="26.00004224999998" class="text">-</text>
<text x="778.00001688" y="1845.99995125" width="45.99998621999998" height="27.99990374999993" class="text">630p
</text>
<text x="938.0000094599999" y="1840.0000255" width="51.99996990000011" height="19.000072000000046" class="text">1-11</text>
<text x="991.00003524" y="1838.9999810000002" width="40.99995293999996" height="20.00000275000025" class="text">---
</text>
<text x="418.0000116" y="1870.999949" width="34.00000127999999" height="21.999978000000056" class="text">Erie </text>
<text x="462.00000911999996" y="1871.9999935" width="59.999977440000066" height="23.000022500000114" class="text">News </text>
<text x="528.99999096" y="1871.9999935" width="37.00002828000004" height="21.999978000000056" class="text">Now </text>
<text x="586.9999797" y="1871.9999935" width="6.000036420000015" height="21.999978000000056" class="text">@ </text>
<text x="611.9999878799999" y="1871.9999935" width="19.99999248000006" height="21.999978000000056" class="text">6p
</text>
<text x="155.00000325" y="1905.00002875" width="48.99998685000003" height="21.00007000000005" class="text">Start </text>
<text x="208.00000266" y="1905.99993675" width="47.00000693999999" height="21.999978000000056" class="text">Date </text>
<text x="293.00000586" y="1905.00002875" width="38.999999400000036" height="21.00007000000005" class="text">End </text>
<text x="339.00000966" y="1907.000004" width="44.99998307999999" height="21.999977999999828" class="text">Date </text>
<text x="426.99998711999996" y="1911.999999" width="112.00000008" height="28.99994824999999" class="text">Weekdays </text>
<text x="603.00001236" y="1910.00002375" width="53.99999375999994" height="26.999973000000182" class="text">Spots</text>
<text x="659.99999796" y="1910.00002375" width="8.000025120000032" height="26.999973000000182" class="text">/</text>
<text x="664.00001052" y="1910.00002375" width="59.00000945999989" height="26.999973000000182" class="text">Week </text>
<text x="795.00001752" y="1907.000004" width="46.99998935999997" height="23.000045250000085" class="text">Rate </text>
<text x="890.99996736" y="1907.000004" width="65.00001071999986" height="23.99995325000009" class="text">Rating
</text>
<text x="83.00000043600001" y="1933.999977" width="57.99999752999999" height="20.000002749999794" class="text">Week</text>
<text x="144.999994704" y="1933.999977" width="5.000010426000017" height="18.999958249999963" class="text">: </text>
<text x="156.00000639" y="1935.0000215" width="84.99999441" height="21.000047249999852" class="text">05/27/20 </text>
<text x="289.99999644" y="1935.0000215" width="86.00000633999997" height="20.00000275000002" class="text">06/02/20 </text>
<text x="430.99999968" y="1933.999977" width="53.99999376000005" height="20.000002749999794" class="text">1-11</text>
<text x="487.00001729999997" y="1933.00004625" width="38.000013840000065" height="19.000071999999818" class="text">---
</text>
<text x="718.00000428" y="1933.999977" width="5.000015699999949" height="18.000027499999987" class="text">3 </text>
<text x="763.0000049399999" y="1935.9999295" width="5.999983680000128" height="20.999910750000026" class="text">$</text>
<text x="777.00001374" y="1935.9999295" width="66.99998184000003" height="20.999910750000026" class="text">350.00 </text>
<text x="918.0000169799999" y="1935.0000215" width="42.99997680000013" height="20.00000275000002" class="text">0.00
</text>
<text x="1080.99994866" y="1840.0000255" width="6.000089160000016" height="20.00000275000002" class="text">:</text>
<text x="1088.9999737800001" y="1840.0000255" width="22.000016340000002" height="20.00000275000002" class="text">30
</text>
<text x="1179.99994308" y="1838.00005025" width="5.000033280000025" height="18.000027499999987" class="text">3
</text>
<text x="1224.99996132" y="1840.9999334999998" width="6.000089160000016" height="21.999955249999857" class="text">$</text>
<text x="1238.0000021399999" y="1840.9999334999998" width="64.99999314000002" height="21.999955249999857" class="text">350.00 </text>
<text x="1313.0000442599999" y="1840.9999334999998" width="5.999983680000241" height="21.999955249999857" class="text">P</text>
<text x="1328.00002104" y="1840.9999334999998" width="5.999983680000014" height="21.999955249999857" class="text">-</text>
<text x="1334.00000472" y="1840.9999334999998" width="23.999952299999904" height="21.999955249999857" class="text">01</text>
<text x="1359.0000129" y="1840.9999334999998" width="12.999935339999865" height="21.999955249999857" class="text">.: </text>
<text x="1376.99998152" y="1840.9999334999998" width="41.00004084000011" height="21.999955249999857" class="text">0.00 </text>
<text x="1430.0000073" y="1840.9999334999998" width="31.999959839999974" height="21.999955249999857" class="text">NM
</text>
<text x="1543.00001052" y="1840.0000255" width="5.999983680000014" height="20.00000275000002" class="text">3
</text>
<text x="1602.99998796" y="1842.00000075" width="5.999983680000014" height="21.999978000000056" class="text">$</text>
<text x="1616.99999676" y="1842.00000075" width="81.99999378000007" height="23.999953249999862" class="text">1,050.00
</text>
<text x="1362.0000047400001" y="1975.0000269999998" width="56.999985599999945" height="20.000002749999794" class="text">Totals
</text>
<text x="1537.9999772400001" y="1973.99995975" width="5.000033279999798" height="18.000027499999987" class="text">9
</text>
<text x="1602.00001998" y="1975.999935" width="5.999983680000014" height="20.999910750000026" class="text">$</text>
<text x="1616.00002878" y="1978.0000467500001" width="85.9999535999998" height="23.000022500000114" class="text">2,550.00
</text>
</g>
</svg>
