<svg xmlns="http://www.w3.org/2000/svg">
<style>.text { font-size: 14px; font-family: Arial, sans-serif; }</style>
<g id="page-0" transform="translate(0, 0)">
<rect width="2275" height="1758" fill="none" stroke="black" />
<text x="2083.9999635" y="127.99999582199999" width="43.00002525000036" height="24.999995873999993" class="text">Daily
</text>
<text x="150.9999946" y="241.99998636" width="95.00000965000001" height="59.99999502" class="text">abc
</text>
<text x="261.00001199999997" y="281.9999889" width="143.99999250000002" height="141.999992316" class="text">13
</text>
<text x="540.000006" y="120.99999318" width="101.00001275" height="35.999995254" class="text">1/28/20 </text>
<text x="656.0000265" y="120.00000410400001" width="57.99994200000003" height="34.000003038" class="text">Add </text>
<text x="727.000001" y="120.00000410400001" width="25.999973999999952" height="34.000003038" class="text">to </text>
<text x="767.99998275" y="121.99999632" width="138.99999750000006" height="35.999995253999984" class="text">Schedule
</text>
<text x="535.0000110000001" y="149.000003748" width="88.99995649999994" height="19.00000340400001" class="text">Advertiser</text>
<text x="625.00003475" y="149.000003748" width="4.999994999999899" height="19.00000340400001" class="text">: </text>
<text x="677.9999817500001" y="152.99999872799998" width="40.99998174999996" height="22.99999838399998" class="text">Lynn </text>
<text x="725.00002575" y="152.99999872799998" width="68.99993099999995" height="22.99999838399998" class="text">Bennett </text>
<text x="796.00000025" y="152.99999872799998" width="26.999973000000068" height="22.99999838399998" class="text">for </text>
<text x="826.9999919999999" y="152.99999872799998" width="80.99998725000012" height="22.99999838399998" class="text">Congress </text>
<text x="914.00001875" y="152.99999872799998" width="5.999994000000015" height="22.99999838399998" class="text">- </text>
<text x="926.00000675" y="152.99999872799998" width="34.00001150000003" height="22.99999838399998" class="text">11th </text>
<text x="967.99996475" y="152.99999872799998" width="62.0000517499999" height="22.99999838399998" class="text">District
</text>
<text x="537.99998525" y="180.99998820000002" width="60.00000824999995" height="20.99998683000001" class="text">Agency</text>
<text x="602.00001225" y="180.99998820000002" width="5.9999712499999305" height="20.99998683000001" class="text">:
</text>
<text x="680.00002525" y="178.9999995" width="33.99994325" height="24.999997632000003" class="text">Red </text>
<text x="722.99998225" y="178.9999995" width="49.00001925000004" height="23.99999625000001" class="text">Action </text>
<text x="781.9999915000001" y="180.99998820000002" width="85.9999822499999" height="24.99998181000001" class="text">Strategies
</text>
<text x="535.99998725" y="213.00000078" width="51.00001724999993" height="26.00001131999997" class="text">Buyer</text>
<text x="585.00002925" y="211.99999764" width="6.999970250000047" height="21.99999876000001" class="text">:
</text>
<text x="678.99998075" y="204.99999323999998" width="66.00004775000002" height="19.000006919999976" class="text">Melanie </text>
<text x="755.0000184999999" y="205.99999638" width="69.99999825000009" height="20.000010059999994" class="text">Bowman
</text>
<text x="535.99998725" y="240.00001524" width="55.00003600000002" height="22.000016340000002" class="text">Length</text>
<text x="596.0000182499999" y="240.00001524" width="5.999994000000129" height="22.000016340000002" class="text">(</text>
<text x="602.9999885000001" y="240.00001524" width="5.9999939999999015" height="22.000016340000002" class="text">s</text>
<text x="612.00000225" y="240.00001524" width="5.999994000000015" height="22.000016340000002" class="text">)</text>
<text x="617.99999625" y="240.00001524" width="5.999971250000044" height="22.000016340000002" class="text">:
</text>
<text x="678.99998075" y="233.00001084" width="6.000039500000071" height="18.000003779999986" class="text">:</text>
<text x="686.00001925" y="235.00001712000002" width="17.99995924999996" height="19.000024500000023" class="text">15
</text>
<text x="535.99998725" y="270.00000396" width="77.99999025" height="22.99998431999998" class="text">Proposal </text>
<text x="616.99999725" y="269.00000082" width="5.999994000000015" height="20.999995619999993" class="text">#</text>
<text x="630.00002975" y="269.00000082" width="5.999994000000129" height="20.999995619999993" class="text">: </text>
<text x="681.0000242499999" y="267.00001212" width="72.99994975000004" height="19.999992479999975" class="text">1243066
</text>
<text x="535.99998725" y="300.00001026" width="61.00000724999995" height="24.00000504000002" class="text">Market </text>
<text x="598.99996975" y="300.00001026" width="7.00003849999996" height="24.00000504000002" class="text">[</text>
<text x="602.9999885000001" y="300.00001026" width="47.00004399999989" height="24.00000504000002" class="text">Rank</text>
<text x="648.99996525" y="300.00001026" width="7.000061250000044" height="24.00000504000002" class="text">]</text>
<text x="657.00000275" y="300.00001026" width="6.999970250000047" height="24.00000504000002" class="text">: </text>
<text x="676.0000065" y="300.99999582" width="97.99997024999993" height="24.00000504000002" class="text">WESTERN </text>
<text x="781.00001525" y="300.99999582" width="26.999972999999954" height="24.00000504000002" class="text">NC </text>
<text x="816.0000030000001" y="300.99999582" width="48.00002024999992" height="24.00000504000002" class="text">SPCL </text>
<text x="870.0000172499999" y="300.99999582" width="6.99997025000016" height="24.00000504000002" class="text">[</text>
<text x="876.0000112500001" y="300.99999582" width="20.99997899999994" height="24.00000504000002" class="text">28</text>
<text x="899.0000337500001" y="300.99999582" width="6.999970249999933" height="24.00000504000002" class="text">]
</text>
<text x="532.000014" y="325.99998641999997" width="56.99996575" height="19.999992480000003" class="text">Books</text>
<text x="590.00002425" y="325.99998641999997" width="5.9999939999999015" height="17.999986199999967" class="text">:
</text>
<text x="678.99998075" y="327.9999927" width="27.00004124999998" height="21.000013200000012" class="text">1st </text>
<text x="711.0000170000001" y="327.9999927" width="119.99999374999993" height="21.000013200000012" class="text">QrtWESTERN </text>
<text x="837.9999809999999" y="327.9999927" width="27.000041250000095" height="21.000013200000012" class="text">NC </text>
<text x="872.99996875" y="327.9999927" width="49.999995499999955" height="21.000013200000012" class="text">SPCL
</text>
<text x="535.0000110000001" y="358.00001658" width="50.000018249999926" height="23.00001948000005" class="text">Flight </text>
<text x="588.99997975" y="356.99999586" width="49.999995499999955" height="21.99999876000004" class="text">Dates</text>
<text x="638.9999752499999" y="356.99999586" width="6.000062250000042" height="20.99997804000003" class="text">: </text>
<text x="677.0000055" y="356.99999586" width="167.00001499999996" height="19.999992480000003" class="text">01/22/2002/05/20
</text>
<text x="534.000012" y="388.0000053" width="39.99995999999999" height="21.999998759999983" class="text">Note</text>
<text x="575.0000392500001" y="387.00000216" width="5.9999712499999305" height="20.000010060000022" class="text">:
</text>
<text x="677.0000055" y="389.999994" width="51.99997074999999" height="25.999993740000036" class="text">Rates </text>
<text x="736.00001475" y="389.999994" width="54.99999049999997" height="25.999993740000036" class="text">quoted </text>
<text x="796.99999925" y="390.99999714" width="14.999985000000038" height="25.99999373999998" class="text">in </text>
<text x="817.9999782499999" y="390.99999714" width="29.00001650000013" height="25.99999373999998" class="text">this </text>
<text x="856.0000085" y="390.99999714" width="39.99998274999996" height="25.99999373999998" class="text">avail </text>
<text x="900.0000100000001" y="390.99999714" width="19.000026499999876" height="25.99999373999998" class="text">or </text>
<text x="920.00001275" y="390.99999714" width="75.99999224999999" height="25.99999373999998" class="text">package </text>
<text x="1001.99997625" y="390.99999714" width="22.000046250000082" height="25.99999373999998" class="text">are </text>
<text x="1030.99999275" y="392.00000028" width="44.00000150000005" height="25.99999373999998" class="text">good </text>
<text x="1080.000012" y="392.00000028" width="25.999974000000066" height="25.99999373999998" class="text">for </text>
<text x="1110.00000475" y="392.00000028" width="19.000003749999905" height="25.99999373999998" class="text">48 </text>
<text x="1135.99997875" y="392.00000028" width="46.999975749999976" height="25.99999373999998" class="text">hours</text>
<text x="1184.0000217499999" y="392.00000028" width="6.999970249999933" height="25.99999373999998" class="text">. </text>
<text x="1195.999987" y="392.00000028" width="56.000057749999996" height="25.99999373999998" class="text">Station </text>
<text x="1260.0000595" y="393.00000342" width="69.99999824999986" height="26.00001132" class="text">requires </text>
<text x="1335.00005275" y="393.00000342" width="29.999992750000047" height="26.00001132" class="text">two </text>
<text x="1368.999996" y="393.00000342" width="43.99995600000011" height="26.00001132" class="text">week </text>
<text x="1420.0000587499999" y="394.00000656000003" width="87.99988925000002" height="27.000014460000045" class="text">notification </text>
<text x="1517.00000725" y="394.00000656000003" width="25.999928500000124" height="25.999993740000036" class="text">for </text>
<text x="1547.99993075" y="394.00000656000003" width="19.000094750000017" height="25.999993740000036" class="text">all </text>
<text x="1570.99995325" y="394.00000656000003" width="110.0000037499999" height="25.999993740000036" class="text">cancellations</text>
<text x="1683.00006875" y="394.00000656000003" width="6.999970249999933" height="25.999993740000036" class="text">.
</text>
<text x="1780.999948" y="164.99999949" width="56.000057749999996" height="20.000004786000005" class="text">Station </text>
<text x="1845.0000205" y="166.00000263" width="68.00002300000006" height="20.000006544" class="text">Contact</text>
<text x="1911.999999" y="164.99999949" width="4.999995000000126" height="18.000000263999993" class="text">:
</text>
<text x="1776.9999975" y="192.99999072" width="48.99995099999978" height="18.999984065999996" class="text">Name</text>
<text x="1828.9999682500002" y="192.99999072" width="4.999994999999672" height="18.999984065999996" class="text">: </text>
<text x="1843.9999759999998" y="193.99999386" width="59.000077500000316" height="19.999987205999986" class="text">Daniel </text>
<text x="1907.000004" y="193.99999386" width="68.00002299999983" height="18.999998129999994" class="text">Johnson
</text>
<text x="1775.999953" y="224.00000016" width="56.000035000000025" height="24.00000504000002" class="text">Phone</text>
<text x="1833.00005525" y="223.00001460000001" width="5.999925750000102" height="22.00001634000003" class="text">: </text>
<text x="1845.99995125" y="223.00001460000001" width="6.000039499999957" height="22.00001634000003" class="text">(</text>
<text x="1853.999966" y="223.00001460000001" width="28.000040249999984" height="22.00001634000003" class="text">828</text>
<text x="1885.999934" y="224.00000016" width="6.0000622500001555" height="21.99999876000001" class="text">) </text>
<text x="1898.0000585" y="224.99998572" width="80.99989624999989" height="23.99998746000003" class="text">651-4537
</text>
<text x="1775.999953" y="243.99999264" width="31.000037250000105" height="17.999986199999995" class="text">Fax</text>
<text x="1810.0000327500002" y="243.99999264" width="4.999994999999672" height="17.999986199999995" class="text">: </text>
<text x="1845.0000205" y="248.99999076" width="5.99992575000033" height="22.99998432000001" class="text">(</text>
<text x="1851.99999075" y="248.99999076" width="30.000015500000018" height="22.99998432000001" class="text">828</text>
<text x="1885.999934" y="248.99999076" width="6.0000622500001555" height="22.99998432000001" class="text">) </text>
<text x="1895.99994675" y="248.99999076" width="79.99998825000011" height="22.99998432000001" class="text">651-4578
</text>
<text x="1775.999953" y="273.99999894" width="49.99999549999984" height="25.00000818000001" class="text">Email</text>
<text x="1825.00001775" y="272.99999579999997" width="5.999925749999875" height="22.99998431999998" class="text">: </text>
<text x="1845.0000205" y="276.00000522" width="184.99999700000012" height="25.999993740000008" class="text">djohnson@sbgtv.com
</text>
<text x="149.0000057" y="327.9999927" width="283.00001729999997" height="46.0000038" class="text">WLOS
</text>
<text x="680.00002525" y="436.99998336" width="33.99994325" height="21.999998759999983" class="text">This </text>
<text x="720.0000307500001" y="436.99998336" width="32.999944249999885" height="21.999998759999983" class="text">sale </text>
<text x="761.99998875" y="438.00000408" width="15.999983999999927" height="23.00001947999999" class="text">of </text>
<text x="782.9999905000001" y="438.00000408" width="91.00004549999994" height="21.999998759999983" class="text">advertising </text>
<text x="881.00000625" y="438.00000408" width="13.000032499999975" height="21.999998759999983" class="text">is </text>
<text x="900.0000100000001" y="438.00000408" width="62.9999597499999" height="21.999998759999983" class="text">subject </text>
<text x="966.9999885" y="438.99998963999997" width="13.000009750000004" height="21.999998759999983" class="text">to </text>
<text x="989.000012" y="438.99998963999997" width="25.999996750000037" height="21.999998759999983" class="text">the </text>
<text x="1021.00000275" y="438.99998963999997" width="75.9999694999999" height="21.999998759999983" class="text">Standard </text>
<text x="1104.00001075" y="439.99997520000005" width="88.00002574999985" height="22.999984320000067" class="text">Advertiser </text>
<text x="1197.0000315" y="439.99997520000005" width="53.00003800000013" height="21.999963600000058" class="text">Terms </text>
<text x="1255.9999725" y="439.99997520000005" width="31.000060000000076" height="21.999963600000058" class="text">and </text>
<text x="1295.9999779999998" y="440.99999591999995" width="88.0000257500003" height="22.999984319999953" class="text">Conditions</text>
<text x="1385.00004825" y="440.99999591999995" width="5.999925750000102" height="21.999998759999926" class="text">, </text>
<text x="1395.9999690000002" y="440.99999591999995" width="26.00006499999995" height="21.999998759999926" class="text">the </text>
<text x="1430.0000487500001" y="440.99999591999995" width="50.999926250000044" height="21.999998759999926" class="text">Terms</text>
<text x="1482.0000195" y="440.99999591999995" width="5.999925750000102" height="21.999998759999926" class="text">, </text>
<text x="1493.99998475" y="440.99999591999995" width="8.000037499999962" height="21.999998759999926" class="text">in </text>
<text x="1513.9999874999999" y="442.00001664" width="46.999975749999976" height="23.00001947999999" class="text">effect </text>
<text x="1567.9999335" y="442.00001664" width="16.000052249999953" height="22.00003392000002" class="text">on </text>
<text x="1593.00006775" y="442.00001664" width="23.999953249999862" height="22.00003392000002" class="text">the </text>
<text x="1623.0000605" y="442.00001664" width="36.99998574999995" height="22.00003392000002" class="text">date </text>
<text x="1670.00003625" y="442.00001664" width="20.999910750000026" height="22.00003392000002" class="text">the </text>
<text x="1700.99995975" y="442.99996703999994" width="89.99997824999991" height="22.999984319999953" class="text">advertising </text>
<text x="1800.0000200000002" y="442.99996703999994" width="45.99993124999992" height="21.999963599999944" class="text">order </text>
<text x="1850.0000155" y="442.99996703999994" width="8.999945499999967" height="21.999963599999944" class="text">is
</text>
<text x="677.9999817500001" y="465.00000095999997" width="75.99999224999988" height="26.00001132" class="text">accepted</text>
<text x="756.9999937499999" y="465.00000095999997" width="6.999970250000047" height="26.00001132" class="text">. </text>
<text x="768.999959" y="466.00002168" width="54.00001425000005" height="27.000032040000008" class="text">Terms </text>
<text x="830.00001175" y="466.00002168" width="21.999977999999942" height="26.000046479999924" class="text">are </text>
<text x="861.99997975" y="466.99997207999996" width="105.00000875" height="26.999996879999912" class="text">incorporated </text>
<text x="974.000027" y="466.99997207999996" width="18.999935499999992" height="26.999996879999912" class="text">by </text>
<text x="999.00002475" y="466.99997207999996" width="29.999992750000047" height="25.999976160000017" class="text">this </text>
<text x="1035.0000115" y="466.99997207999996" width="79.99998824999989" height="25.999976160000017" class="text">reference</text>
<text x="1115.99999875" y="466.99997207999996" width="7.000038500000073" height="25.999976160000017" class="text">. </text>
<text x="1128.00003225" y="466.99997207999996" width="29.00001650000013" height="25.999976160000017" class="text">The </text>
<text x="1162.99995175" y="467.9999928" width="59.00007750000009" height="26.999996880000026" class="text">parties </text>
<text x="1227.999955" y="467.9999928" width="53.00001525000016" height="25.99997615999996" class="text">intend </text>
<text x="1285.00005725" y="467.9999928" width="24.99999774999992" height="25.99997615999996" class="text">for </text>
<text x="1312.99993825" y="467.9999928" width="26.00006499999995" height="25.99997615999996" class="text">the </text>
<text x="1348.99999325" y="467.9999928" width="49.99999550000007" height="25.99997615999996" class="text">Terms </text>
<text x="1407.99993425" y="469.00001352000004" width="10.000012749999996" height="26.000046480000094" class="text">to </text>
<text x="1425.99996175" y="469.00001352000004" width="24.000089749999916" height="26.000046480000094" class="text">be </text>
<text x="1455.0000465" y="469.00001352000004" width="32.99989875000006" height="26.000046480000094" class="text">part </text>
<text x="1495.0000519999999" y="469.00001352000004" width="14.999984999999924" height="26.000046480000094" class="text">of </text>
<text x="1512.999943" y="469.00001352000004" width="39.99998275000007" height="26.000046480000094" class="text">their </text>
<text x="1558.999988" y="470.00001666000003" width="94.99999599999978" height="27.000049620000084" class="text">agreement </text>
<text x="1655.0000284999999" y="470.00001666000003" width="30.000015500000018" height="26.000028900000075" class="text">and </text>
<text x="1690.999947" y="470.00001666000003" width="24.000089749999916" height="26.000028900000075" class="text">be </text>
<text x="1720.00003175" y="470.00001666000003" width="50.999926250000044" height="26.000028900000075" class="text">bound </text>
<text x="1778.99997275" y="470.99998464" width="64.00007249999999" height="26.999996880000026" class="text">thereby</text>
<text x="1843.9999759999998" y="470.99998464" width="6.999970250000388" height="25.99997615999996" class="text">; </text>
<text x="1857.0000085" y="470.99998464" width="28.999925500000018" height="25.99997615999996" class="text">any
</text>
<text x="678.99998075" y="487.00001729999997" width="84.0000070000001" height="23.000037059999954" class="text">additional </text>
<text x="766.99998375" y="487.99998528" width="16.999983000000043" height="22.99998432000001" class="text">or </text>
<text x="791.00000525" y="487.99998528" width="69.00002199999994" height="22.99998432000001" class="text">different </text>
<text x="864.00002325" y="487.99998528" width="47.999951999999894" height="22.99998432000001" class="text">terms </text>
<text x="916.999993" y="487.99998528" width="13.000009750000004" height="22.99998432000001" class="text">in </text>
<text x="939.0000165" y="489.000006" width="30.000015500000018" height="24.00000504000002" class="text">any </text>
<text x="974.000027" y="489.000006" width="76.99996850000002" height="22.99998432000001" class="text">purchase </text>
<text x="1059.0000102499998" y="489.000006" width="46.9999757500002" height="22.99998432000001" class="text">order </text>
<text x="1110.00000475" y="489.000006" width="16.99996024999996" height="22.99998432000001" class="text">or </text>
<text x="1133.0000272500001" y="490.00000914000003" width="44.00000150000005" height="23.000037060000068" class="text">other </text>
<text x="1180.9999792499998" y="490.00000914000003" width="86.00005050000004" height="23.000037060000068" class="text">document </text>
<text x="1270.0000495000002" y="490.00000914000003" width="26.999972999999727" height="23.000037060000068" class="text">are </text>
<text x="1302.9999482500002" y="490.99997712" width="58.0000329999998" height="24.00000504000002" class="text">hereby </text>
<text x="1367.00002075" y="490.99997712" width="68.99995375000003" height="22.99998432000001" class="text">rejected</text>
<text x="1437.000019" y="490.99997712" width="5.999925749999875" height="22.99998432000001" class="text">.
</text>
<text x="121.99999857499999" y="532.99998594" width="78.000006175" height="22.99998432000001" class="text">Program
</text>
<text x="116.999999025" y="563.9999953800001" width="24.000003300000003" height="21.000013200000012" class="text">DP </text>
<text x="151.99999814999998" y="563.9999953800001" width="44.99999595000003" height="21.000013200000012" class="text">Days </text>
<text x="218.9999994" y="563.9999953800001" width="42.00001259999996" height="21.999963600000115" class="text">Time
</text>
<text x="562.999983" y="531.0000148199999" width="39.00002925000001" height="19.999992479999946" class="text">Rate </text>
<text x="620.0000397499999" y="531.0000148199999" width="33.999943250000115" height="19.999992479999946" class="text">Wed </text>
<text x="665.0000175" y="531.0000148199999" width="27.999971999999957" height="19.999992479999946" class="text">Thu </text>
<text x="708.9999735" y="531.0000148199999" width="22.000046250000082" height="19.999992479999946" class="text">Fri </text>
<text x="746.00000475" y="531.0000148199999" width="27.999971999999957" height="19.999992479999946" class="text">Sat </text>
<text x="782.9999905000001" y="531.0000148199999" width="28.0000174999999" height="19.999992479999946" class="text">Sun </text>
<text x="819.00002275" y="531.0000148199999" width="30.999991749999936" height="19.999992479999946" class="text">Mon </text>
<text x="862.99997875" y="531.0000148199999" width="26.000042250000092" height="19.999992479999946" class="text">Tue </text>
<text x="895.99999125" y="531.0000148199999" width="34.00001150000003" height="19.999992479999946" class="text">Wed </text>
<text x="942.999967" y="531.0000148199999" width="26.000065000000063" height="19.999992479999946" class="text">Thu </text>
<text x="986.99999125" y="531.0000148199999" width="19.999979999999937" height="19.999992479999946" class="text">Fri </text>
<text x="1022.9999552500001" y="531.0000148199999" width="24.000021499999775" height="19.999992479999946" class="text">Sat </text>
<text x="1059.0000102499998" y="531.0000148199999" width="30.000015500000245" height="19.999992479999946" class="text">Sun </text>
<text x="1096.99997225" y="531.0000148199999" width="31.000060000000076" height="19.999992479999946" class="text">Mon </text>
<text x="1140.9999965" y="531.0000148199999" width="29.00006200000007" height="19.999992479999946" class="text">Tue </text>
<text x="1174.0000089999999" y="531.0000148199999" width="33.999943250000115" height="19.999992479999946" class="text">Wed
</text>
<text x="627.99998625" y="552.00002802" width="25.999996750000037" height="14.000008799999932" class="text">1/22 </text>
<text x="666.99999275" y="552.00002802" width="25.999996749999923" height="14.000008799999932" class="text">1/23 </text>
<text x="706.99999825" y="552.00002802" width="24.99999774999992" height="14.000008799999932" class="text">1/24 </text>
<text x="747.00000375" y="552.99997842" width="25.999974000000066" height="13.999991220000084" class="text">1/25 </text>
<text x="786.9999865" y="552.99997842" width="24.000021500000003" height="13.999991220000084" class="text">1/26 </text>
<text x="826.9999919999999" y="552.99997842" width="24.999997750000034" height="13.999991220000084" class="text">1/27 </text>
<text x="865.9999985000001" y="552.99997842" width="23.0000225" height="13.999991220000084" class="text">1/28 </text>
<text x="904.00002875" y="552.99997842" width="23.99995325000009" height="13.999991220000084" class="text">1/29 </text>
<text x="945.99998675" y="552.99997842" width="23.000045250000085" height="13.999991220000084" class="text">1/30 </text>
<text x="985.99999225" y="553.99999914" width="23.0000225" height="14.000008799999932" class="text">1/31 </text>
<text x="1028.00004125" y="553.99999914" width="14.999984999999924" height="14.000008799999932" class="text">2/1
</text>
<text x="560.00000875" y="563.9999953800001" width="43.99997875000008" height="19.99999248000006" class="text">Days
</text>
<text x="1068.000024" y="555.00001986" width="13.999963250000064" height="15.000029519999885" class="text">2/2 </text>
<text x="1106.999985" y="555.00001986" width="17.0000285000001" height="15.000029519999885" class="text">2/3 </text>
<text x="1145.9999915" y="555.99997026" width="16.000052249999726" height="15.999979919999987" class="text">2/4 </text>
<text x="1185.99997425" y="555.00001986" width="15.000007750000123" height="16.000032659999988" class="text">2/5
</text>
<text x="1682.0000015" y="535.00002738" width="43.000025250000135" height="20.00004522000006" class="text">Cost
</text>
<text x="1670.00003625" y="568.0000079399999" width="50.999926250000044" height="22.000033919999964" class="text">Spots
</text>
<text x="1775.999953" y="527.00000226" width="31.000037250000105" height="15.999979919999987" class="text">A35</text>
<text x="1812.000008" y="525.99998154" width="3.9999277499998698" height="15.999979920000044" class="text">+
</text>
<text x="1775.999953" y="551.0000073" width="36.000054999999975" height="17.000000640000053" class="text">RTG
</text>
<text x="1755.00004225" y="575.00001234" width="35.99989574999995" height="18.000021360000005" class="text">CPP</text>
<text x="1793.9999805" y="575.00001234" width="4.999995000000126" height="18.000021360000005" class="text">/</text>
<text x="1798.00004475" y="575.00001234" width="35.99991849999992" height="18.000021360000005" class="text">SHR
</text>
<text x="108.000003475" y="605.00000106" width="58.99999332500002" height="18.000021360000005" class="text">WLOS
</text>
<text x="110.99999592500001" y="637.00001364" width="57.000004424999986" height="25.000025760000085" class="text">News </text>
<text x="174.00000345" y="635.99999292" width="21.999989374999984" height="22.999984319999953" class="text">13 </text>
<text x="205.0000043" y="635.99999292" width="36.99998120000001" height="22.999984319999953" class="text">This </text>
<text x="250.99999925" y="637.99998162" width="80.000011" height="24.99997301999997" class="text">Morning </text>
<text x="341.00000024999997" y="637.99998162" width="37.99998475000001" height="22.999984319999953" class="text">6am
</text>
<text x="116.999999025" y="662.9999898" width="4.999999549999998" height="18.00000377999993" class="text">M </text>
<text x="160.9999937" y="662.9999898" width="4.9999995500000125" height="18.999971759999994" class="text">M</text>
<text x="175.000007" y="662.9999898" width="4.999999549999984" height="18.999971759999994" class="text">-</text>
<text x="181.99999545" y="662.9999898" width="4.9999995500000125" height="18.999971759999994" class="text">F </text>
<text x="224.000001225" y="665.00003124" width="4.999997274999998" height="19.00004208000007" class="text">6</text>
<text x="232.99999449999999" y="665.00003124" width="4.999995000000013" height="19.00004208000007" class="text">:</text>
<text x="240.00001025" y="665.00003124" width="31.999990749999995" height="19.00004208000007" class="text">00A</text>
<text x="273.0" y="665.00003124" width="4.999995000000013" height="19.00004208000007" class="text">-</text>
<text x="286.00000975" y="665.00003124" width="4.999995000000013" height="19.00004208000007" class="text">6</text>
<text x="295.99999975000003" y="665.00003124" width="4.999994999999956" height="19.00004208000007" class="text">:</text>
<text x="301.99999375000004" y="665.00003124" width="31.999990749999938" height="19.00004208000007" class="text">30A
</text>
<text x="564.00000475" y="634.0000218" width="6.000039499999957" height="17.00000063999994" class="text">$</text>
<text x="573.999972" y="635.99999292" width="29.00001650000013" height="18.00000377999993" class="text">230
</text>
<text x="954.00002425" y="637.00001364" width="4.999995000000013" height="17.000000640000053" class="text">1
</text>
<text x="1152.0000309999998" y="637.00001364" width="3.999950500000068" height="16.000032659999988" class="text">1
</text>
<text x="1697.00000925" y="640.00000548" width="4.999995000000126" height="19.000024499999995" class="text">$</text>
<text x="1705.99995475" y="640.00000548" width="33.00001250000014" height="19.000024499999995" class="text">460
</text>
<text x="597.9999935" y="667.00000236" width="4.999995000000126" height="17.000000640000053" class="text">2
</text>
<text x="1731.9999970000001" y="672.00001806" width="3.9999504999998408" height="16.000032659999988" class="text">2
</text>
<text x="1808.0000575" y="641.0000262000001" width="24.999997750000148" height="19.00004208000007" class="text">6.6
</text>
<text x="1781.9999925" y="674.00000676" width="6.0000622500001555" height="19.999992479999946" class="text">$</text>
<text x="1793.0000497499998" y="674.00000676" width="45.00000050000017" height="19.999992479999946" class="text">34.85
</text>
<text x="1815.9999357499998" y="701.00000364" width="21.00007000000005" height="15.999997500000063" class="text">40
</text>
<text x="564.00000475" y="730.99999236" width="4.999972250000042" height="17.999968620000004" class="text">$</text>
<text x="572.99999575" y="730.99999236" width="29.000016500000015" height="17.999968620000004" class="text">260
</text>
<text x="110.99999592500001" y="730.00002438" width="58.00000797499999" height="22.000016340000002" class="text">News </text>
<text x="176.99999590000002" y="730.99999236" width="16.000002199999983" height="22.999984319999953" class="text">13 </text>
<text x="205.0000043" y="730.99999236" width="36.000004950000005" height="21.999981179999963" class="text">This </text>
<text x="250.99999925" y="731.9999955000001" width="80.99998725000003" height="22.999984320000067" class="text">Morning </text>
<text x="339.00000225" y="731.9999955000001" width="39.99998274999996" height="22.999984320000067" class="text">6:30</text>
<text x="381.00000575" y="731.9999955000001" width="28.999993749999987" height="22.000016340000116" class="text">am
</text>
<text x="115.999995475" y="760.0000130999999" width="5.000001824999998" height="18.00002135999989" class="text">N </text>
<text x="160.9999937" y="761.99998422" width="4.9999995500000125" height="18.999971759999994" class="text">M</text>
<text x="175.000007" y="761.99998422" width="4.999999549999984" height="18.999971759999994" class="text">-</text>
<text x="181.99999545" y="761.99998422" width="4.9999995500000125" height="18.999971759999994" class="text">F </text>
<text x="225.00000250000002" y="761.00003382" width="4.999994999999984" height="18.000021360000005" class="text">6</text>
<text x="233.9999935" y="761.00003382" width="4.999995000000013" height="18.000021360000005" class="text">:</text>
<text x="238.9999885" y="761.00003382" width="31.000014499999992" height="18.000021360000005" class="text">30A</text>
<text x="273.999999" y="761.00003382" width="4.999995000000013" height="18.000021360000005" class="text">-</text>
<text x="288.00000774999995" y="761.00003382" width="4.999995000000013" height="18.000021360000005" class="text">7</text>
<text x="296.99999875000003" y="761.00003382" width="4.999995000000013" height="18.000021360000005" class="text">:</text>
<text x="300.99999475" y="761.00003382" width="32.99998975" height="18.000021360000005" class="text">00A
</text>
<text x="1697.00000925" y="737.99999676" width="4.999995000000126" height="18.99998934000007" class="text">$</text>
<text x="1705.99995475" y="737.99999676" width="29.999992750000047" height="18.99998934000007" class="text">520
</text>
<text x="1812.000008" y="737.00002878" width="24.99999774999992" height="19.000024499999995" class="text">8.8
</text>
<text x="597.9999935" y="765.9999967800001" width="4.999995000000126" height="18.999971760000108" class="text">2
</text>
<text x="1731.9999970000001" y="770.0000093399999" width="5.00001774999987" height="17.00000063999994" class="text">2
</text>
<text x="1780.999948" y="771.00003006" width="6.0000622500001555" height="20.000045219999947" class="text">$</text>
<text x="1792.00000525" y="771.00003006" width="43.99993325000014" height="20.000045219999947" class="text">29.55
</text>
<text x="1815.9999357499998" y="799.99999806" width="21.00007000000005" height="15.000029519999998" class="text">44
</text>
<text x="564.00000475" y="829.9999867800001" width="4.999972250000042" height="17.999968620000004" class="text">$</text>
<text x="575.0000392500001" y="829.9999867800001" width="27.999949249999986" height="17.999968620000004" class="text">165
</text>
<text x="110.99999592500001" y="827.99999808" width="58.00000797499999" height="22.00001633999989" class="text">News </text>
<text x="174.00000345" y="827.99999808" width="19.999998199999993" height="22.00001633999989" class="text">13 </text>
<text x="201.99999365" y="829.0000188" width="87.00001310000002" height="22.000016340000002" class="text">Saturday </text>
<text x="296.99999875000003" y="829.0000188" width="19.999979999999994" height="22.000016340000002" class="text">at </text>
<text x="323.99999449999996" y="829.0000188" width="36.00000950000009" height="22.000016340000002" class="text">7AM
</text>
<text x="116.999999025" y="856.99998366" width="4.999999549999998" height="17.999968620000004" class="text">M </text>
<text x="156.9999977" y="860.00002824" width="37.00000395000001" height="20.000045219999947" class="text">SAT </text>
<text x="225.00000250000002" y="859.00000752" width="4.999994999999984" height="19.000024499999995" class="text">7</text>
<text x="232.99999449999999" y="859.00000752" width="4.999995000000013" height="19.000024499999995" class="text">:</text>
<text x="240.00001025" y="859.00000752" width="31.999990749999995" height="19.000024499999995" class="text">00A</text>
<text x="273.0" y="859.00000752" width="4.999995000000013" height="19.000024499999995" class="text">-</text>
<text x="286.00000975" y="859.00000752" width="4.999995000000013" height="19.000024499999995" class="text">8</text>
<text x="295.99999975000003" y="859.00000752" width="4.999994999999956" height="19.000024499999995" class="text">:</text>
<text x="298.99999675" y="859.00000752" width="32.00001350000002" height="19.000024499999995" class="text">00A
</text>
<text x="1698.00005375" y="833.99999934" width="5.00001774999987" height="18.000021360000005" class="text">$</text>
<text x="1708.9999745" y="835.00000248" width="28.000040249999984" height="19.000024499999995" class="text">165
</text>
<text x="1815.0000277499998" y="835.00000248" width="20.00000275000025" height="20.99999562000005" class="text">7.0
</text>
<text x="597.9999935" y="861.99999936" width="4.000018750000095" height="15.999979919999873" class="text">1
</text>
<text x="1730.9999525" y="869.00000376" width="4.999994999999899" height="17.000000640000053" class="text">1
</text>
<text x="1783.99996775" y="869.00000376" width="5.000017750000097" height="19.000024499999995" class="text">$</text>
<text x="1793.0000497499998" y="870.99997488" width="46.9999757500002" height="20.999995619999936" class="text">23.57
</text>
<text x="1815.0000277499998" y="898.99999248" width="25.999905749999925" height="19.000024499999995" class="text">31
</text>
<text x="565.00000375" y="926.0000421000001" width="5.000040499999955" height="18.00007410000012" class="text">$</text>
<text x="573.999972" y="926.0000421000001" width="29.00001650000013" height="18.00007410000012" class="text">195
</text>
<text x="113.000003025" y="924.99996864" width="52.99999022500002" height="22.999984319999953" class="text">Good </text>
<text x="170.9999928" y="926.0000421000001" width="83.00000344999998" height="24.00005778000002" class="text">Morning </text>
<text x="261.00001199999997" y="926.0000421000001" width="80.99996450000003" height="23.00008980000007" class="text">America</text>
<text x="345.99999525" y="926.0000421000001" width="5.999994000000015" height="23.00008980000007" class="text">-</text>
<text x="353.000011" y="926.0000421000001" width="31.99999075000005" height="23.00008980000007" class="text">Sat </text>
<text x="388.99999775" y="926.0000421000001" width="42.00000349999999" height="23.00008980000007" class="text">8AM
</text>
<text x="115.000001025" y="955.9999780799999" width="4.999999549999998" height="17.999968620000004" class="text">M </text>
<text x="155.0000088" y="955.9999780799999" width="38.99999285000001" height="17.999968620000004" class="text">SAT </text>
<text x="224.000001225" y="958.00000194" width="4.999997274999998" height="19.00002449999988" class="text">8</text>
<text x="234.99999250000002" y="958.00000194" width="5.000017749999984" height="19.00002449999988" class="text">:</text>
<text x="238.9999885" y="958.00000194" width="31.000014499999992" height="19.00002449999988" class="text">00A</text>
<text x="273.0" y="958.00000194" width="4.999995000000013" height="19.00002449999988" class="text">-</text>
<text x="286.00000975" y="958.00000194" width="4.999995000000013" height="19.00002449999988" class="text">9</text>
<text x="295.99999975000003" y="958.99996992" width="4.999994999999956" height="18.999919019999993" class="text">:</text>
<text x="300.0000185" y="958.99996992" width="32.99998975" height="18.999919019999993" class="text">00A
</text>
<text x="1698.00005375" y="933.9999441599999" width="5.999925749999875" height="18.99991901999988" class="text">$</text>
<text x="1708.9999745" y="933.9999441599999" width="31.00005999999985" height="20.99994287999982" class="text">195
</text>
<text x="598.99996975" y="960.9999937800001" width="5.000017750000097" height="17.000000640000053" class="text">1
</text>
<text x="1731.9999970000001" y="966.00002706" width="3.9999504999998408" height="16.0000326600001" class="text">1
</text>
<text x="1810.99994075" y="933.9999441599999" width="24.000089750000143" height="20.99994287999982" class="text">8.4
</text>
<text x="1780.999948" y="967.99994544" width="6.0000622500001555" height="19.999992479999946" class="text">$</text>
<text x="1792.00000525" y="967.99994544" width="46.9999757500002" height="19.999992479999946" class="text">23.21
</text>
<text x="1818.0000475000002" y="997.0000189200001" width="20.000002749999794" height="18.000056520000044" class="text">28
</text>
<text x="575.0000392500001" y="1023.99996306" width="4.999994999999899" height="17.999951040000155" class="text">$</text>
<text x="583.99998475" y="1023.99996306" width="19.000003750000133" height="17.999951040000155" class="text">80
</text>
<text x="110.99999592500001" y="1025.0000365199999" width="58.00000797499999" height="25.00000817999978" class="text">News </text>
<text x="175.000007" y="1023.99996306" width="17.99999109999999" height="22.999984320000067" class="text">13 </text>
<text x="201.00000830000002" y="1025.0000365199999" width="75.99998769999999" height="24.000057779999906" class="text">Sunday </text>
<text x="282.99998999999997" y="1025.0000365199999" width="21.000001750000024" height="22.99998431999984" class="text">at </text>
<text x="308.99998675" y="1025.0000365199999" width="39.00002925000001" height="22.99998431999984" class="text">6AM
</text>
<text x="113.999997475" y="1051.9999806600001" width="4.9999995500000125" height="17.000000640000053" class="text">M </text>
<text x="155.0000088" y="1054.00000452" width="37.99998930000001" height="17.99995104000004" class="text">SUN </text>
<text x="224.000001225" y="1054.9999725" width="4.999997274999998" height="18.999919020000107" class="text">6</text>
<text x="234.99999250000002" y="1054.9999725" width="5.000017749999984" height="18.999919020000107" class="text">:</text>
<text x="238.9999885" y="1054.9999725" width="31.000014499999992" height="18.999919020000107" class="text">00A</text>
<text x="274.999998" y="1056.0000459599999" width="4.999995000000013" height="19.000042079999957" class="text">-</text>
<text x="288.00000774999995" y="1056.0000459599999" width="4.999995000000013" height="19.000042079999957" class="text">7</text>
<text x="295.99999975000003" y="1056.0000459599999" width="4.999994999999956" height="19.000042079999957" class="text">:</text>
<text x="300.0000185" y="1056.0000459599999" width="32.99998975" height="19.000042079999957" class="text">00A
</text>
<text x="1708.9999745" y="1031.99998818" width="4.999995000000126" height="19.000024499999995" class="text">$</text>
<text x="1715.99994475" y="1031.99998818" width="21.00007000000005" height="19.000024499999995" class="text">80
</text>
<text x="1813.0000525" y="1031.99998818" width="22.99988600000006" height="19.999992479999946" class="text">3.8
</text>
<text x="598.99996975" y="1057.99996434" width="5.000017750000097" height="17.99996861999989" class="text">1
</text>
<text x="1731.9999970000001" y="1062.9999976200002" width="3.9999504999998408" height="14.999976780000225" class="text">1
</text>
<text x="1780.999948" y="1065.00002148" width="7.000106750000214" height="19.999992479999946" class="text">$</text>
<text x="1792.00000525" y="1068.0000133199999" width="46.000045" height="22.99998431999984" class="text">21.05
</text>
<text x="1818.99997825" y="1094.99995746" width="16.999960250000186" height="17.99996861999989" class="text">25
</text>
<text x="564.00000475" y="1122.00000708" width="4.999972250000042" height="17.99996861999989" class="text">$</text>
<text x="572.99999575" y="1122.00000708" width="28.000017500000013" height="17.99996861999989" class="text">130
</text>
<text x="110.00000147499999" y="1119.99996564" width="57.999998875" height="22.000016340000002" class="text">News </text>
<text x="175.99999234999999" y="1121.0000391" width="20.000000475000007" height="23.00008980000007" class="text">13 </text>
<text x="204.00000075000003" y="1121.0000391" width="70.99999724999998" height="22.00001634000023" class="text">Sunday </text>
<text x="282.99998999999997" y="1121.0000391" width="20.00002550000005" height="22.00001634000023" class="text">at </text>
<text x="310.0000085" y="1122.00000708" width="35.999986750000005" height="22.999984320000067" class="text">7AM
</text>
<text x="113.999997475" y="1149.0000567" width="4.9999995500000125" height="17.000000639999826" class="text">M </text>
<text x="156.9999977" y="1150.99997508" width="33.9999933" height="18.99991901999988" class="text">SUN </text>
<text x="226.00000605" y="1152.00004854" width="4.999990449999984" height="19.000042080000185" class="text">7</text>
<text x="233.9999935" y="1152.00004854" width="4.999995000000013" height="19.000042080000185" class="text">:</text>
<text x="237.9999895" y="1152.00004854" width="31.000014499999992" height="19.000042080000185" class="text">00A</text>
<text x="273.999999" y="1152.00004854" width="4.999995000000013" height="19.000042080000185" class="text">-</text>
<text x="286.999986" y="1152.9999989399998" width="4.999995000000013" height="19.00002449999988" class="text">8</text>
<text x="296.99999875000003" y="1152.9999989399998" width="4.999995000000013" height="19.00002449999988" class="text">:</text>
<text x="298.99999675" y="1152.9999989399998" width="32.999989750000054" height="19.00002449999988" class="text">00A
</text>
<text x="1697.00000925" y="1128.99995874" width="4.999995000000126" height="18.999936599999955" class="text">$</text>
<text x="1708.9999745" y="1128.99995874" width="26.999972999999954" height="18.999936599999955" class="text">130
</text>
<text x="1813.99998325" y="1130.9999826" width="21.00004725000008" height="22.999984320000067" class="text">7.9
</text>
<text x="597.9999935" y="1153.9999669200001" width="4.000018750000095" height="15.999927180000213" class="text">1
</text>
<text x="1731.9999970000001" y="1159.9999506" width="5.00001774999987" height="17.000000639999826" class="text">1
</text>
<text x="1780.999948" y="1162.99994244" width="6.0000622500001555" height="19.999992479999946" class="text">$</text>
<text x="1793.0000497499998" y="1162.99994244" width="43.99995600000011" height="19.999992479999946" class="text">16.46
</text>
<text x="1818.0000475000002" y="1192.9999839" width="17.999890999999934" height="17.000000640000053" class="text">36
</text>
<text x="564.00000475" y="1218.00000966" width="6.000039499999957" height="17.000000640000053" class="text">$</text>
<text x="573.999972" y="1220.00003352" width="30.00001550000013" height="18.000056519999816" class="text">195
</text>
<text x="113.000003025" y="1218.99997764" width="49.99999777500001" height="23.999952299999904" class="text">Good </text>
<text x="171.99999635" y="1221.0000015" width="80.0000019" height="25.99997615999996" class="text">Morning </text>
<text x="257.000016" y="1221.9999694800001" width="85.99998225000002" height="25.999993740000264" class="text">America </text>
<text x="348.000016" y="1223.00002536" width="75.99996949999996" height="25.99997615999996" class="text">Sunday
</text>
<text x="113.999997475" y="1249.00000152" width="4.9999995500000125" height="16.999983060000204" class="text">N </text>
<text x="155.0000088" y="1249.00000152" width="34.99999685" height="17.99995104000004" class="text">SUN </text>
<text x="222.999997675" y="1251.00004296" width="5.000001824999998" height="18.000074099999892" class="text">8</text>
<text x="231.9999955" y="1251.00004296" width="4.999994999999984" height="18.000074099999892" class="text">:</text>
<text x="236.9999905" y="1251.00004296" width="42.00000350000002" height="18.000074099999892" class="text">00A- </text>
<text x="286.00000975" y="1251.00004296" width="4.999995000000013" height="18.000074099999892" class="text">9</text>
<text x="295.0000235" y="1251.00004296" width="4.999995000000013" height="18.000074099999892" class="text">:</text>
<text x="300.0000185" y="1251.00004296" width="30.999991749999992" height="18.000074099999892" class="text">00A
</text>
<text x="1698.00005375" y="1227.9999531600001" width="5.00001774999987" height="18.999919020000107" class="text">$</text>
<text x="1708.9999745" y="1227.9999531600001" width="29.999992750000047" height="18.999919020000107" class="text">195
</text>
<text x="1813.0000525" y="1224.99996132" width="22.99988600000006" height="17.000000640000053" class="text">7.4
</text>
<text x="597.9999935" y="1252.99996134" width="4.000018750000095" height="15.999927179999986" class="text">1
</text>
<text x="1730.9999525" y="1258.99994502" width="4.000087000000121" height="15.999927179999986" class="text">1
</text>
<text x="1780.999948" y="1262.00005992" width="6.0000622500001555" height="20.000097959999948" class="text">$</text>
<text x="1792.00000525" y="1262.00005992" width="43.99993325000014" height="20.000097959999948" class="text">26.35
</text>
<text x="1817.000003" y="1291.9999783199999" width="18.999935499999992" height="17.999951039999814" class="text">27
</text>
<text x="1812.000008" y="1323.9999557400001" width="26.00004224999998" height="19.999992480000174" class="text">8.7
</text>
<text x="564.00000475" y="1319.99999592" width="4.999972250000042" height="17.99996861999989" class="text">$</text>
<text x="573.999972" y="1319.99999592" width="30.00001550000013" height="17.99996861999989" class="text">195
</text>
<text x="110.00000147499999" y="1314.99998022" width="57.999998875" height="19.999992480000174" class="text">News </text>
<text x="172.99999989999998" y="1314.99998022" width="22.000005300000026" height="19.999992480000174" class="text">13 </text>
<text x="201.99999365" y="1316.0000361" width="18.000009299999988" height="19.999992480000174" class="text">at </text>
<text x="226.00000605" y="1316.0000361" width="39.000001949999984" height="19.999992480000174" class="text">6:00 </text>
<text x="272.000001" y="1316.0000361" width="36.99998575000001" height="19.999992480000174" class="text">Sun
</text>
<text x="113.999997475" y="1345.99997208" width="4.000005099999996" height="15.999927179999986" class="text">N </text>
<text x="155.99999415000002" y="1350.0000373799999" width="34.999996849999974" height="21.000065940000013" class="text">SUN </text>
<text x="221.999994125" y="1351.00000536" width="6.000005375000001" height="20.99996046000001" class="text">6</text>
<text x="232.99999449999999" y="1351.00000536" width="5.999994000000015" height="20.99996046000001" class="text">:</text>
<text x="236.9999905" y="1351.00000536" width="30.00001549999999" height="20.99996046000001" class="text">00P</text>
<text x="273.0" y="1351.00000536" width="5.999994000000015" height="20.99996046000001" class="text">-</text>
<text x="285.00001075" y="1351.00000536" width="5.999994000000015" height="20.99996046000001" class="text">6</text>
<text x="295.99999975000003" y="1351.00000536" width="5.999994000000015" height="20.99996046000001" class="text">:</text>
<text x="300.0000185" y="1351.00000536" width="29.99999274999999" height="20.99996046000001" class="text">30P
</text>
<text x="1697.00000925" y="1327.00005306" width="6.000062249999928" height="20.000097959999948" class="text">$</text>
<text x="1708.0000665" y="1327.00005306" width="30.99990075000005" height="20.000097959999948" class="text">195
</text>
<text x="598.99996975" y="1351.00000536" width="4.000018750000095" height="14.99997677999977" class="text">1
</text>
<text x="1731.9999970000001" y="1356.99998904" width="3.9999504999998408" height="16.00003265999976" class="text">1
</text>
<text x="1783.00005975" y="1357.99995702" width="4.999995000000126" height="17.999968620000118" class="text">$</text>
<text x="1792.00000525" y="1359.99998088" width="46.000045" height="19.999992480000174" class="text">22.41
</text>
<text x="1818.99997825" y="1390.00002234" width="18.000027499999987" height="19.00002449999988" class="text">20
</text>
<text x="115.999995475" y="1439.9999507999999" width="43.00000932499999" height="21.99992843999985" class="text">Daily </text>
<text x="165.99999325000002" y="1439.9999507999999" width="80.000011" height="21.99992843999985" class="text">Subtotals
</text>
<text x="952.99997975" y="1438.99998282" width="3.99999600000001" height="14.000008799999932" class="text">1
</text>
<text x="995.0000060000001" y="1438.99998282" width="4.000018749999867" height="14.999959199999921" class="text">1
</text>
<text x="1031.999969" y="1439.9999507999999" width="4.000018749999981" height="15.999927179999759" class="text">2
</text>
<text x="1071.9999745" y="1438.00001484" width="4.000018749999981" height="13.999991219999856" class="text">4
</text>
<text x="1114.0000235" y="1438.99998282" width="3.99999600000001" height="14.000008799999932" class="text">1
</text>
<text x="1152.99996175" y="1438.99998282" width="4.000087000000121" height="14.000008799999932" class="text">1
</text>
<text x="1680.00002625" y="1447.99995834" width="5.999925750000102" height="22.99998431999984" class="text">$</text>
<text x="1690.999947" y="1447.99995834" width="45.00000049999994" height="22.99998431999984" class="text">1,940
</text>
<text x="1718.99998725" y="1480.00004124" width="18.000027499999987" height="21.000065940000013" class="text">10
</text>
<text x="115.000001025" y="1526.99997786" width="51.999995775000016" height="17.999968620000118" class="text">Demo </text>
<text x="174.00000345" y="1529.00000172" width="95.99999954999998" height="19.999992480000174" class="text">breakdown</text>
<text x="273.0" y="1528.00003374" width="4.999995000000013" height="18.000056519999816" class="text">:
</text>
<text x="115.999995475" y="1557.0000193199999" width="33.000010225" height="17.99996861999989" class="text">A35</text>
<text x="153.0000017" y="1557.99996972" width="4.999999549999984" height="17.99995104000027" class="text">+</text>
<text x="164.00000435" y="1557.99996972" width="4.999999549999984" height="17.99995104000027" class="text">R
</text>
<text x="677.9999817500001" y="1532.99996154" width="50.99999449999996" height="21.99992843999985" class="text">Spots
</text>
<text x="713.9999685" y="1560.00001116" width="17.00005125000007" height="17.99996861999989" class="text">10
</text>
<text x="804.00003775" y="1531.00002558" width="42.999956999999995" height="19.00002450000011" class="text">Cost
</text>
<text x="787.9999855" y="1560.99996156" width="5.9999712499999305" height="19.999992479999946" class="text">$</text>
<text x="800.000019" y="1560.99996156" width="42.99995700000011" height="19.999992479999946" class="text">1,940
</text>
<text x="892.9999715" y="1532.99996154" width="37.000031250000006" height="19.999992479999946" class="text">GRP</text>
<text x="931.00000175" y="1532.99996154" width="5.999994000000015" height="19.999992479999946" class="text">/</text>
<text x="940.0000155" y="1532.99996154" width="17.99995924999996" height="19.999992479999946" class="text">GI
</text>
<text x="912.9999742499999" y="1562.00003502" width="45.000000500000056" height="22.00001634000023" class="text">74.00
</text>
<text x="985.0000160000001" y="1531.9999935600001" width="35.99998674999995" height="17.99995104000027" class="text">CPP</text>
<text x="1024.0000225000001" y="1531.9999935600001" width="4.999994999999899" height="17.99995104000027" class="text">/</text>
<text x="1026.9999739999998" y="1531.9999935600001" width="39.000006500000154" height="19.00002450000011" class="text">CPM
</text>
<text x="1014.00000975" y="1562.00003502" width="5.999994000000015" height="21.000065940000013" class="text">$</text>
<text x="1025.9999977500001" y="1562.00003502" width="47.00004399999989" height="21.000065940000013" class="text">26.22
</text>
<text x="1129.0000085" y="1534.000035" width="53.00003800000013" height="22.000033920000078" class="text">Reach </text>
<text x="1202.0000265" y="1535.99995338" width="90.99993174999986" height="23.999952300000132" class="text">Frequency </text>
<text x="1317.00002525" y="1534.9999854" width="30.999923500000023" height="22.000016340000002" class="text">Net </text>
<text x="1352.0000357499998" y="1535.99995338" width="53.999946000000136" height="21.999910860000227" class="text">Reach </text>
<text x="1422.999942" y="1537.9999772400001" width="96.00004050000007" height="23.999934720000283" class="text">Population
</text>
<text x="1135.0000025" y="1563.0000029999999" width="52.00003900000024" height="20.999960459999784" class="text">42.61 </text>
<text x="1262.0000347500002" y="1562.00003502" width="33.99994324999966" height="19.00002450000011" class="text">1.74 </text>
<text x="1342.99995375" y="1563.99997098" width="67.00009224999985" height="19.999992479999946" class="text">190,269 </text>
<text x="1455.0000465" y="1565.99999484" width="68.9999537499998" height="20.99996046000001" class="text">446,537
</text>
<text x="118.000002575" y="1602.99998796" width="37.00000622499999" height="11.999984940000104" class="text">1/28/20 </text>
<text x="160.00000835" y="1602.99998796" width="20.999983549999996" height="11.999984940000104" class="text">Add </text>
<text x="185.0000061" y="1604.00004384" width="8.999995549999994" height="12.00007284000003" class="text">to </text>
<text x="200.00000475" y="1604.00004384" width="47.999997500000006" height="12.00007284000003" class="text">Schedule
</text>
<text x="128.000001675" y="1621.00004448" width="57.000004425000014" height="16.000032659999988" class="text">2000-2020 </text>
<text x="186.999995" y="1622.0000124599999" width="43.000002499999994" height="16.00003265999976" class="text">Imagine </text>
<text x="234.99999250000002" y="1622.9999804400002" width="88.00002575000002" height="17.999968620000118" class="text">Communications </text>
<text x="328.00001325" y="1622.9999804400002" width="29.99999274999999" height="17.000000640000053" class="text">Corp. </text>
<text x="361.99997924999997" y="1622.9999804400002" width="12.000010750000058" height="15.999927180000213" class="text">All </text>
<text x="375.99998800000003" y="1622.9999804400002" width="34.00001149999997" height="15.999927180000213" class="text">Rights </text>
<text x="413.99999549999995" y="1622.9999804400002" width="48.999996500000066" height="15.999927180000213" class="text">Reserved</text>
<text x="465.00001275" y="1622.9999804400002" width="3.999973250000039" height="15.999927180000213" class="text">. </text>
<text x="472.00000574999996" y="1624.0000363200002" width="30.000015500000075" height="16.999983060000204" class="text">V7.10 </text>
<text x="507.00001625" y="1624.0000363200002" width="22.999977" height="16.000032660000215" class="text">Data </text>
<text x="546.999999" y="1625.0000043" width="83.00003074999995" height="17.99995104000004" class="text">Nielsen.Subject </text>
<text x="632.99998125" y="1625.0000043" width="9.000013749999994" height="16.000032659999988" class="text">to </text>
<text x="647.9999889999999" y="1625.0000043" width="15.999984000000154" height="16.000032659999988" class="text">the </text>
<text x="666.99999275" y="1625.0000043" width="51.99997074999999" height="16.000032659999988" class="text">limitations </text>
<text x="722.99998225" y="1625.0000043" width="20.99997899999994" height="16.000032659999988" class="text">and </text>
<text x="747.99998" y="1625.99997228" width="56.000057749999996" height="17.000000640000053" class="text">restrictions </text>
<text x="809.00003275" y="1625.99997228" width="31.99996800000008" height="15.999927179999986" class="text">stated </text>
<text x="844.0000205" y="1625.99997228" width="8.999945499999967" height="15.999927179999986" class="text">in </text>
<text x="856.9999847500001" y="1625.99997228" width="15.999983999999927" height="15.999927179999986" class="text">the </text>
<text x="877.9999637499999" y="1625.99997228" width="39.000029250000125" height="15.999927179999986" class="text">original </text>
<text x="920.00001275" y="1627.00002816" width="31.99996800000008" height="16.999983059999977" class="text">report</text>
<text x="951.9999807500001" y="1627.00002816" width="4.000018749999867" height="16.000032660000215" class="text">.
</text>
<text x="2055.00001525" y="1622.0000124599999" width="71.99997350000012" height="19.999992479999946" class="text">1/28/2020
</text>
<text x="2041.99998275" y="1644.0000288" width="39.00007474999984" height="19.999992479999946" class="text">Page </text>
<text x="2088.00002775" y="1644.0000288" width="5.999925749999875" height="19.999992479999946" class="text">1 </text>
<text x="2101.999991" y="1642.9999729200001" width="14.999984999999924" height="19.999992479999946" class="text">of </text>
<text x="2120.0000185" y="1642.9999729200001" width="6.0000395000001845" height="19.999992479999946" class="text">2
</text>
<text x="123.99999657500001" y="1656.00001374" width="36.99999712499999" height="17.99996861999989" class="text">-item</text>
<text x="163.0000008" y="1656.00001374" width="4.999999549999984" height="17.99996861999989" class="text">(</text>
<text x="169.0000039" y="1656.00001374" width="4.9999995500000125" height="17.99996861999989" class="text">s</text>
<text x="175.99999234999999" y="1656.00001374" width="4.9999995500000125" height="17.99996861999989" class="text">) </text>
<text x="182.99999899999997" y="1656.99996414" width="65.00000325000002" height="18.99991901999988" class="text">estimated </text>
<text x="250.99999925" y="1656.99996414" width="17.000005749999985" height="17.99995104000004" class="text">by </text>
<text x="273.999999" y="1656.99996414" width="29.000016500000015" height="17.99995104000004" class="text">user</text>
<text x="303.99999175" y="1656.99996414" width="4.999995000000013" height="17.99995104000004" class="text">.
</text>
</g>
<g id="page-1" transform="translate(0, 1778)">
<rect width="2275" height="1758" fill="none" stroke="black" />
<text x="113.999997475" y="125.000002224" width="67.999997975" height="23.000005415999993" class="text">Agency </text>
<text x="190.999991" y="125.000002224" width="109.00002750000002" height="23.999999766000002" class="text">Commission</text>
<text x="303.99999175" y="124.000000842" width="6.000016749999986" height="22.99999838400001" class="text">:
</text>
<text x="641.00001875" y="124.000000842" width="54.99999050000008" height="19.999999512000002" class="text">Comm</text>
<text x="698.9999607499999" y="124.000000842" width="6.000062250000042" height="19.999999512000002" class="text">. </text>
<text x="711.0000170000001" y="124.000000842" width="5.9999712499999305" height="19.999999512000002" class="text">%
</text>
<text x="691.0000142499999" y="151.99999734600001" width="15.000007750000009" height="19.99999248000003" class="text">15</text>
<text x="710.0000180000001" y="151.99999734600001" width="5.9999939999999015" height="19.99999248000003" class="text">%
</text>
<text x="797.9999755" y="122.999997702" width="43.00002525000002" height="18.999996372" class="text">Total
</text>
<text x="799.0000427499999" y="155.00000325" width="5.999971250000158" height="21.000006168" class="text">$</text>
<text x="811.000008" y="155.00000325" width="29.000016500000015" height="21.000006168" class="text">291
</text>
<text x="872.99996875" y="122.999997702" width="33.000035249999996" height="18.000000263999993" class="text">Net </text>
<text x="910.0000227500001" y="125.000002224" width="44.00000149999994" height="20.00000478599999" class="text">Cost
</text>
<text x="895.000015" y="156.00000639" width="5.999994000000015" height="21.000007925999995" class="text">$</text>
<text x="907.99997925" y="156.00000639" width="46.000045" height="21.000007925999995" class="text">1,649
</text>
<text x="110.99999592500001" y="211.99999764" width="78.00000617499998" height="23.0000019" class="text">Dayparts</text>
<text x="194.00000165" y="211.99999764" width="6.0000030999999865" height="21.99999876000001" class="text">:
</text>
<text x="234.99999250000002" y="213.00000078" width="6.999992999999989" height="24.00000503999999" class="text">A </text>
<text x="251.99999825" y="213.00000078" width="6.999992999999989" height="24.00000503999999" class="text">- </text>
<text x="265.000008" y="213.00000078" width="75.00001600000002" height="24.00000503999999" class="text">ACCESS</text>
<text x="342.99999825000003" y="213.00000078" width="7.000015749999989" height="24.00000503999999" class="text">; </text>
<text x="351.99998925" y="213.00000078" width="29.99999274999999" height="24.00000503999999" class="text">D- </text>
<text x="383.99998" y="213.00000078" width="84.00002975000001" height="24.00000503999999" class="text">DAYTIME</text>
<text x="470.00000775" y="213.00000078" width="7.000015749999989" height="24.00000503999999" class="text">; </text>
<text x="477.99999975" y="213.00000078" width="34.99998775" height="24.00000503999999" class="text">M- </text>
<text x="512.0000112500001" y="213.00000078" width="93.9999969999999" height="24.00000503999999" class="text">MORNING</text>
<text x="607.00000725" y="213.00000078" width="6.999970250000047" height="24.00000503999999" class="text">; </text>
<text x="618.9999725" y="213.00000078" width="7.000038500000073" height="24.00000503999999" class="text">N </text>
<text x="636.0000237500001" y="213.00000078" width="6.999970249999933" height="24.00000503999999" class="text">- </text>
<text x="647.9999889999999" y="213.00000078" width="59.00000925000006" height="24.00000503999999" class="text">NEWS
</text>
<text x="1152.0000309999998" y="1512.00000108" width="49.999995500000296" height="25.99997615999996" class="text">Client </text>
<text x="1207.00004425" y="1514.0000425199999" width="80.99989625000012" height="27.0000496199998" class="text">Signature</text>
<text x="1289.00000775" y="1514.0000425199999" width="8.000014749999991" height="24.000057779999906" class="text">:
</text>
<text x="1332.000033" y="1571.00001054" width="210.99990275000005" height="138.99997938" class="text">Mulanie</text>
<text x="1528.99999525" y="1571.00001054" width="41.0000500000001" height="138.99997938" class="text">!
</text>
<text x="1540.0000525" y="1531.9999935600001" width="227.99999949999983" height="96.99997056000029" class="text">Bauman
</text>
<text x="1878.0000557499998" y="1534.000035" width="55.99992125000017" height="96.00002016000008" class="text">Date</text>
<text x="1915.00001875" y="1529.9999697" width="36.99996299999998" height="93.99997871999994" class="text">: </text>
<text x="1941.99999175" y="1526.99997786" width="216.99996499999997" height="115.99999505999995" class="text">1/28/2020
</text>
<text x="108.999997925" y="1599.99999612" width="36.99999712499999" height="13.000040820000095" class="text">1/28/20 </text>
<text x="150.000006975" y="1600.99994652" width="22.999992924999987" height="13.999991220000084" class="text">Add </text>
<text x="176.99999590000002" y="1600.99994652" width="8.999995549999966" height="12.999935340000093" class="text">to </text>
<text x="190.00000565" y="1600.99994652" width="51.000003600000014" height="12.999935340000093" class="text">Schedule
</text>
<text x="120.000000575" y="1617.99994716" width="55.999991774999984" height="15.999927179999986" class="text">2000-2020 </text>
<text x="177.99999945" y="1619.00002062" width="44.99999822500001" height="17.000000640000053" class="text">Imagine </text>
<text x="226.00000605" y="1619.00002062" width="89.99999645" height="16.000032659999988" class="text">Communications </text>
<text x="318.9999995" y="1619.00002062" width="31.999990749999995" height="16.000032659999988" class="text">Corp. </text>
<text x="351.99998925" y="1619.00002062" width="14.00000874999995" height="16.000032659999988" class="text">All </text>
<text x="368.999995" y="1619.9999886" width="31.999990749999995" height="17.000000640000053" class="text">Rights </text>
<text x="406.0000035" y="1619.9999886" width="49.99999550000001" height="15.999944760000062" class="text">Reserved</text>
<text x="457.999997" y="1619.9999886" width="4.000018749999981" height="15.999944760000062" class="text">. </text>
<text x="465.00001275" y="1619.9999886" width="29.99999274999999" height="15.999944760000062" class="text">V7.10 </text>
<text x="498.0000025" y="1619.9999886" width="24.999997749999977" height="15.999944760000062" class="text">Data </text>
<text x="540.000006" y="1621.00004448" width="37.99998474999995" height="17.000000640000053" class="text">Nielsen</text>
<text x="580.00003425" y="1621.00004448" width="3.9999504999999544" height="16.000032659999988" class="text">, </text>
<text x="583.99998475" y="1621.00004448" width="39.99998275000007" height="16.000032659999988" class="text">Subject </text>
<text x="626.0000110000001" y="1621.00004448" width="9.000013749999994" height="16.000032659999988" class="text">to </text>
<text x="638.9999752499999" y="1621.00004448" width="16.000052250000067" height="16.000032659999988" class="text">the </text>
<text x="661.0000215" y="1621.00004448" width="50.999971749999986" height="16.000032659999988" class="text">limitations </text>
<text x="716.000012" y="1621.00004448" width="19.00000375000002" height="16.000032659999988" class="text">and </text>
<text x="740.0000335" y="1622.0000124599999" width="56.99996575" height="17.000000639999826" class="text">restrictions </text>
<text x="801.99999425" y="1622.0000124599999" width="29.999992750000047" height="16.00003265999976" class="text">stated </text>
<text x="836.9999819999999" y="1622.0000124599999" width="7.000038500000073" height="16.00003265999976" class="text">in </text>
<text x="851.0000135" y="1622.0000124599999" width="15.99998400000004" height="16.00003265999976" class="text">the </text>
<text x="870.9999935" y="1622.0000124599999" width="40.00000550000016" height="16.00003265999976" class="text">original </text>
<text x="912.9999742499999" y="1622.0000124599999" width="29.999992750000047" height="16.00003265999976" class="text">report</text>
<text x="944.0000342500001" y="1622.0000124599999" width="3.9999277499998698" height="16.00003265999976" class="text">.
</text>
<text x="2048.999953" y="1616.99999676" width="71.00006549999989" height="17.000000639999826" class="text">1/28/2020
</text>
<text x="2035.9999432500001" y="1641.00003696" width="39.00007475000007" height="22.000016340000002" class="text">Page </text>
<text x="2081.0000575" y="1639.99998108" width="5.999925749999875" height="19.999992479999946" class="text">2 </text>
<text x="2091.99997825" y="1639.0000131" width="18.000027500000215" height="19.999992479999946" class="text">of </text>
<text x="2113.0000255" y="1639.0000131" width="5.999925749999875" height="19.999992479999946" class="text">2
</text>
<text x="106.999999925" y="1650.00003006" width="4.999999549999998" height="17.000000640000053" class="text">*</text>
<text x="115.000001025" y="1650.00003006" width="36.99999712499998" height="17.000000640000053" class="text">-item</text>
<text x="154.00000525000002" y="1650.00003006" width="4.999999549999984" height="17.000000640000053" class="text">(</text>
<text x="160.9999937" y="1650.99998046" width="4.9999995500000125" height="17.000000640000053" class="text">s</text>
<text x="168.00000035" y="1650.99998046" width="4.999999549999984" height="17.000000640000053" class="text">) </text>
<text x="175.99999234999999" y="1651.99994844" width="64.00001790000002" height="17.999968620000118" class="text">estimated </text>
<text x="245.00000525" y="1650.99998046" width="16.000006749999983" height="17.000000640000053" class="text">by </text>
<text x="266.000007" y="1651.99994844" width="29.000016500000015" height="17.999968620000118" class="text">user</text>
<text x="295.99999975000003" y="1651.99994844" width="4.999994999999956" height="17.000000640000053" class="text">.
</text>
</g>
</svg>
