<svg xmlns="http://www.w3.org/2000/svg">
<style>.text { font-size: 14px; font-family: Arial, sans-serif; }</style>
<g id="page-0" transform="translate(0, 0)">
<rect width="2275" height="1758" fill="none" stroke="black" />
<text x="607.00000725" y="49.000000914" width="123.00001350000002" height="27.000000395999997" class="text">Contract </text>
<text x="742.9999849999999" y="47.999997774" width="7.000038500000073" height="24.999997632000003" class="text">#
</text>
<text x="1250.9999775" y="43.999999278" width="34.00007974999994" height="14.999999633999995" class="text">Date </text>
<text x="1290.9999830000002" y="43.999999278" width="59.00007749999986" height="15.999999257999995" class="text">Entered
</text>
<text x="605.000032" y="75.000003444" width="67.99995474999992" height="15.000001391999994" class="text">Schedule </text>
<text x="682.0000004999999" y="75.999997794" width="43.00002525000002" height="14.999999633999998" class="text">Dates
</text>
<text x="1249.0000022499999" y="77.000000934" width="33.00003525000011" height="15.000001391999994" class="text">Last </text>
<text x="1287.0000325" y="77.000000934" width="65.99991124999997" height="16.999998881999993" class="text">Modified
</text>
<text x="1409.0000015" y="52.99999941" width="81.99996349999992" height="23.999999766" class="text">06/05/20
</text>
<text x="1407.99993425" y="86.00000106600001" width="81.00005549999992" height="22.99999838400001" class="text">06/05/20
</text>
<text x="1409.0000015" y="112.00000008" width="46.999975749999976" height="19.999999512000016" class="text">Leslie </text>
<text x="1465.00005925" y="112.00000008" width="38.999938250000014" height="21.00000089400001" class="text">Stoll</text>
<text x="1503.9999975" y="110.99999693999999" width="6.00003949999973" height="19.999997753999992" class="text">-</text>
<text x="1510.0000369999998" y="110.99999693999999" width="51.9999707500001" height="19.999997753999992" class="text">Oneill
</text>
<text x="1710.0000417499998" y="44.999998902" width="50.9999035000003" height="22.999998384" class="text">KECI</text>
<text x="1765.99994025" y="44.999998902" width="6.000062249999928" height="22.999998384" class="text">+</text>
<text x="1776.9999975" y="46.000000283999995" width="49.99999549999984" height="23.999999765999995" class="text">KCFW </text>
<text x="1845.99995125" y="46.000000283999995" width="67.00009224999985" height="23.000000141999998" class="text">Combo </text>
<text x="1920.0000137499999" y="46.000000283999995" width="5.999925750000102" height="23.000000141999998" class="text">(</text>
<text x="1930.0000264999999" y="46.000000283999995" width="48.99992825000004" height="23.000000141999998" class="text">KECI</text>
<text x="1983.0000417499998" y="46.000000283999995" width="5.99992575000033" height="23.000000141999998" class="text">+</text>
<text x="1993.0000545" y="46.999999908" width="53.99992324999994" height="23.000000142" class="text">KCFW</text>
<text x="2056.00005975" y="46.999999908" width="5.999925749999875" height="23.000000142" class="text">)
</text>
<text x="1710.99994975" y="70.999999674" width="20.00000275000002" height="18.999998129999994" class="text">By </text>
<text x="1738.00005925" y="70.999999674" width="88.99993374999985" height="18.999998129999994" class="text">Broadcast </text>
<text x="1831.999988" y="70.999999674" width="53.99994599999991" height="20.00000126999999" class="text">Month </text>
<text x="1913.9999742500002" y="72.000002814" width="46.99995299999978" height="20.00000127" class="text">Spots
</text>
<text x="2108.99996125" y="69.999998292" width="39.99998275000007" height="17.999996748" class="text">Rate
</text>
<text x="1710.0000417499998" y="98.000001828" width="35.999918500000376" height="18.000000263999993" class="text">Oct. </text>
<text x="1760.00003725" y="96.999998688" width="39.99998275000007" height="18.000000264000008" class="text">2020
</text>
<text x="1955.00002425" y="98.000001828" width="4.999994999999899" height="16.999998882" class="text">9
</text>
<text x="2056.00005975" y="101.999996808" width="5.999925749999875" height="21.999995244000004" class="text">$</text>
<text x="2068.00004775" y="101.999996808" width="73.99992600000041" height="21.999995244000004" class="text">1,505.00
</text>
<text x="1710.99994975" y="131.000003484" width="45.00000049999994" height="18.00000202199999" class="text">Grand </text>
<text x="1768.0000519999999" y="130.000000344" width="40.99991350000005" height="18.000000263999993" class="text">Total</text>
<text x="1805.99994575" y="130.000000344" width="4.999994999999899" height="16.999998882" class="text">:
</text>
<text x="1953.999957" y="137.000002986" width="5.00001774999987" height="18.000000264000008" class="text">9
</text>
<text x="2056.9999905" y="138.999993444" width="6.0000395000001845" height="22.99999838400001" class="text">$</text>
<text x="2068.00004775" y="140.999997966" width="75.99990125000022" height="25.00000290599999" class="text">1,505.00
</text>
<text x="1249.0000022499999" y="113.000001462" width="58.999941000000035" height="20.000004786000005" class="text">Entered </text>
<text x="1314.0000055" y="114.000004602" width="21.000047249999852" height="19.00000340400001" class="text">By
</text>
<text x="295.0000235" y="120.99999318" width="49.99999550000001" height="26.999993364000005" class="text">KECI</text>
<text x="345.000019" y="120.99999318" width="7.999991999999963" height="26.999993364000005" class="text">+</text>
<text x="356.99998425" y="120.00000410400001" width="50.00004100000001" height="27.000007428000018" class="text">KCFW </text>
<text x="423.00000925" y="120.00000410400001" width="69.99999824999998" height="29.000004918000016" class="text">Combo </text>
<text x="495.99998175" y="119.00000272199999" width="56.00003499999997" height="27.000002154" class="text">KECI</text>
<text x="549.999996" y="119.00000272199999" width="7.99999200000002" height="27.000002154" class="text">+</text>
<text x="557.999988" y="119.00000272199999" width="138.00002125000003" height="29.000006675999998" class="text">KCFWdvertiser
</text>
<text x="296.99999875000003" y="150.00000513" width="31.000014499999963" height="23.999999766000002" class="text">340 </text>
<text x="333.9999845" y="150.00000513" width="52.99999250000002" height="23.999999766000002" class="text">West </text>
<text x="390.0000195" y="150.00000513" width="40.99998174999996" height="23.999999766000002" class="text">Main </text>
<text x="445.99998625" y="150.00000513" width="18.000004750000016" height="23.999999766000002" class="text">St
</text>
<text x="602.9999885000001" y="149.000003748" width="62.00002899999993" height="21.000007926000023" class="text">Agency
</text>
<text x="296.99999875000003" y="181.99999134" width="78.99998925" height="27.99998947200001" class="text">Missoula</text>
<text x="376.999987" y="180.99998820000002" width="6.999993000000018" height="25.999984950000027" class="text">, </text>
<text x="388.99999775" y="180.99998820000002" width="33.000012500000025" height="25.999984950000027" class="text">MT </text>
<text x="430.00000224999997" y="180.99998820000002" width="60.00000825000001" height="25.999984950000027" class="text">59802
</text>
<text x="602.9999885000001" y="179.99998506" width="62.00002899999993" height="15.999986952" class="text">Product
</text>
<text x="1250.0000695" y="144.999994704" width="17.999890999999934" height="16.999998882" class="text">CO</text>
<text x="1272.00002475" y="144.999994704" width="5.00001774999987" height="16.999998882" class="text">-</text>
<text x="1277.9999504999998" y="144.999994704" width="19.000072000000046" height="16.999998882" class="text">OP
</text>
<text x="1409.0000015" y="143.000002488" width="23.99993049999989" height="16.999997124000004" class="text">No
</text>
<text x="37.999998399999996" y="211.99999764" width="226.0000106" height="110.000000832" class="text">KECI13
</text>
<text x="792.9999805" y="52.000001544" width="138.99999749999995" height="29.000001402000002" class="text">4394046
</text>
<text x="792.9999805" y="84.999997926" width="23.000022500000114" height="24.999995874" class="text">09</text>
<text x="817.000002" y="84.999997926" width="7.00003849999996" height="24.999995874" class="text">/</text>
<text x="826.9999919999999" y="84.999997926" width="18.0000275000001" height="24.999995874" class="text">29</text>
<text x="846.99999475" y="84.999997926" width="7.00003849999996" height="24.999995874" class="text">/</text>
<text x="856.9999847500001" y="84.999997926" width="48.00002024999992" height="24.999995874" class="text">20-10</text>
<text x="906.99998025" y="84.999997926" width="7.00003849999996" height="24.999995874" class="text">/</text>
<text x="912.9999742499999" y="84.999997926" width="23.000022500000114" height="24.999995874" class="text">02</text>
<text x="936.99999575" y="84.999997926" width="7.000038500000073" height="24.999995874" class="text">/</text>
<text x="942.999967" y="84.999997926" width="23.0000225" height="24.999995874" class="text">20
</text>
<text x="792.9999805" y="116.9999982" width="48.000020250000034" height="24.000001523999998" class="text">Bryce </text>
<text x="847.999971" y="116.9999982" width="71.0000655" height="24.000001523999998" class="text">Bennett </text>
<text x="924.0000315" y="116.9999982" width="26.999973000000068" height="24.000001523999998" class="text">for </text>
<text x="956.99997575" y="116.9999982" width="79.00001199999997" height="24.000001523999998" class="text">Secretary </text>
<text x="1046.0000005" y="116.9999982" width="18.000027499999987" height="24.000001523999998" class="text">of </text>
<text x="1069.99999925" y="116.9999982" width="45.00000049999994" height="24.000001523999998" class="text">State</text>
<text x="1115.99999875" y="116.9999982" width="7.000038500000073" height="24.000001523999998" class="text">-</text>
<text x="1125.99998875" y="116.9999982" width="7.000038500000073" height="24.000001523999998" class="text">D </text>
<text x="1145.0000607499999" y="116.9999982" width="6.999970249999933" height="24.000001523999998" class="text">(</text>
<text x="1154.00000625" y="116.9999982" width="61.9999835000001" height="24.000001523999998" class="text">136892</text>
<text x="1217.00003425" y="116.9999982" width="6.999970249999933" height="24.000001523999998" class="text">)
</text>
<text x="792.9999805" y="152.99999872799998" width="36.000054999999975" height="23.999999765999974" class="text">Left </text>
<text x="831.999987" y="154.000001868" width="45.99997674999986" height="25.00000290599999" class="text">Hook </text>
<text x="886.9999775" y="155.00000325" width="73.00004075000004" height="25.00000290599999" class="text">Strategy </text>
<text x="969.000032" y="154.000001868" width="6.999970249999933" height="24.000001523999998" class="text">(</text>
<text x="977.9999775" y="155.00000325" width="53.00001525000005" height="25.00000290599999" class="text">19055</text>
<text x="1031.999969" y="155.00000325" width="7.000061250000044" height="23.999999766000002" class="text">)
</text>
<text x="792.9999805" y="188.99999574" width="97.00003950000007" height="26.000000771999993" class="text">POLITICAL </text>
<text x="897.9999665" y="189.99999888" width="104.00000975" height="27.000003911999983" class="text">CANDIDATE </text>
<text x="1011.999989" y="188.99999574" width="7.00003849999996" height="24.999997632000003" class="text">(</text>
<text x="1017.99996025" y="188.99999574" width="23.000022500000114" height="24.999997632000003" class="text">ns</text>
<text x="1040.0000065" y="188.99999574" width="6.999970249999933" height="24.999997632000003" class="text">) </text>
<text x="1055.00001425" y="189.99999888" width="6.999970249999933" height="24.99999939" class="text">(</text>
<text x="1060.00000925" y="189.99999888" width="41.999958000000106" height="24.99999939" class="text">1186</text>
<text x="1106.999985" y="189.99999888" width="7.000038500000073" height="24.99999939" class="text">)
</text>
<text x="793.9999567499999" y="221.00000832" width="86.00005050000004" height="24.00000503999999" class="text">candidate </text>
<text x="889.0000210000001" y="221.99999387999998" width="5.9999939999999015" height="23.000001899999972" class="text">(</text>
<text x="896.99999025" y="223.00001460000001" width="75.9999694999999" height="25.00002576" class="text">1011042</text>
<text x="975.00000325" y="223.00001460000001" width="5.999994000000015" height="23.00001948000002" class="text">)
</text>
<text x="793.9999567499999" y="257.00001588000003" width="36.00005500000009" height="24.000005040000048" class="text">Katz</text>
<text x="832.999986" y="257.00001588000003" width="7.00003849999996" height="24.000005040000048" class="text">/</text>
<text x="841.00000075" y="257.00001588000003" width="25.999996750000037" height="24.000005040000048" class="text">DC</text>
<text x="866.9999975000001" y="257.00001588000003" width="7.00003849999996" height="24.000005040000048" class="text">, </text>
<text x="877.9999637499999" y="257.00001588000003" width="106.00005325000018" height="24.000005040000048" class="text">Washington </text>
<text x="990.000011" y="257.00001588000003" width="24.999997750000034" height="24.000005040000048" class="text">DC </text>
<text x="1022.9999552500001" y="257.00001588000003" width="7.000061249999817" height="24.000005040000048" class="text">(</text>
<text x="1030.99999275" y="257.00001588000003" width="44.00000150000005" height="24.000005040000048" class="text">4022</text>
<text x="1075.99999325" y="257.00001588000003" width="7.000038500000073" height="24.000005040000048" class="text">)
</text>
<text x="792.9999805" y="293.00000586" width="39.00000650000004" height="25.00000818000001" class="text">Katz </text>
<text x="836.00000575" y="293.00000586" width="104.00000975" height="25.00000818000001" class="text">Washington </text>
<text x="951.0000045" y="293.00000586" width="23.0000225" height="25.00000818000001" class="text">DC
</text>
<text x="795.000024" y="327.00000714000004" width="36.99996299999998" height="25.000025760000028" class="text">Sally</text>
<text x="836.00000575" y="327.00000714000004" width="6.999970250000047" height="25.000025760000028" class="text">, </text>
<text x="841.99999975" y="327.00000714000004" width="70.9999744999999" height="25.000025760000028" class="text">Rodgers</text>
<text x="915.999994" y="327.00000714000004" width="6.999970249999933" height="25.000025760000028" class="text">,
</text>
<text x="1249.0000022499999" y="175.99999008" width="68.99995375000003" height="15.999988709999997" class="text">External </text>
<text x="1322.999951" y="175.99999008" width="4.000086999999894" height="15.999988709999997" class="text">#
</text>
<text x="1410.0000459999999" y="177.99999635999998" width="121.99996899999996" height="19.999999511999988" class="text">ECR26931184
</text>
<text x="606.00000825" y="215.00000706" width="45.000000500000056" height="16.000015079999997" class="text">Brand
</text>
<text x="1249.0000022499999" y="209.0000058" width="46.00004500000023" height="14.00000879999999" class="text">Demo
</text>
<text x="605.000032" y="253.00000332000002" width="91.99997625000003" height="21.99999876000004" class="text">Salesperson
</text>
<text x="1250.0000695" y="245.99999892" width="45.99990849999972" height="19.000006920000004" class="text">Order </text>
<text x="1298.9999977500001" y="247.00001964000003" width="36.00005499999975" height="19.000006920000033" class="text">Type
</text>
<text x="1413.9999965" y="248.00000520000003" width="66.99997850000022" height="19.000006920000033" class="text">Normal
</text>
<text x="1249.0000022499999" y="276.99999077999996" width="66.99997850000022" height="18.999989339999956" class="text">Package </text>
<text x="1320.99997575" y="276.00000522" width="36.000054999999975" height="18.000003779999986" class="text">Deal
</text>
<text x="605.000032" y="284.99999832" width="40.00000549999993" height="14.99999435999996" class="text">Sales </text>
<text x="651.00000875" y="283.99999518" width="44.000024250000024" height="15.999997500000006" class="text">Office
</text>
<text x="1250.0000695" y="308.00000022" width="91.99995349999972" height="18.000003779999986" class="text">Commission </text>
<text x="1350.0000605" y="306.9999795" width="3.999950500000068" height="15.999979919999987" class="text">%
</text>
<text x="1412.9999520000001" y="312.00001278" width="44.00006974999974" height="19.000006920000033" class="text">15.00
</text>
<text x="605.000032" y="324.00001530000003" width="48.99995100000001" height="20.00002764000004" class="text">Buyer </text>
<text x="655.0000275" y="322.00000902" width="45.99997674999997" height="20.000027639999985" class="text">Name
</text>
<text x="40.99999995" y="320.9999883" width="38.000000674999995" height="29.000003160000006" class="text">Left </text>
<text x="84.000000175" y="322.00000902" width="49.00000105000001" height="29.000003160000006" class="text">Hook </text>
<text x="141.99999904999999" y="324.00001530000003" width="74.999995525" height="29.000020740000025" class="text">Strategy
</text>
<text x="46.000001775" y="349.99999146" width="44.000001499999996" height="24.99999059999999" class="text">2202 </text>
<text x="97.99999527499999" y="349.99999146" width="35.000005950000016" height="24.99999059999999" class="text">18th </text>
<text x="145.99999505" y="349.99999146" width="55.9999986" height="24.99999059999999" class="text">Street </text>
<text x="204.00000075000003" y="349.99999146" width="26.999995749999954" height="24.99999059999999" class="text">NW </text>
<text x="247.00000325" y="349.99999146" width="44.000001500000025" height="24.99999059999999" class="text">Suite </text>
<text x="300.0000185" y="349.99999146" width="31.999968000000024" height="24.99999059999999" class="text">220
</text>
<text x="40.00000095" y="384.99999588" width="110.99999365000001" height="31.999977419999993" class="text">Washington</text>
<text x="155.0000088" y="383.00000718" width="7.99999200000002" height="29.000003160000006" class="text">, </text>
<text x="165.99999325000002" y="383.00000718" width="28.000008399999984" height="29.000003160000006" class="text">DC </text>
<text x="209.0000003" y="383.00000718" width="55.00000869999997" height="31.000009440000042" class="text">20009
</text>
<text x="605.000032" y="354.99998958" width="49.999995499999955" height="18.999971759999994" class="text">Phone</text>
<text x="656.0000265" y="354.99998958" width="4.999995000000013" height="18.999971759999994" class="text">/</text>
<text x="662.99999675" y="354.99998958" width="27.00004124999998" height="18.999971759999994" class="text">Fax
</text>
<text x="1250.0000695" y="346.99999962" width="93.99992874999998" height="19.000006919999976" class="text">Commission
</text>
<text x="1412.0000212500001" y="351.99999773999997" width="5.999925749999875" height="21.000013199999955" class="text">$</text>
<text x="1423.9999865" y="351.99999773999997" width="58.00003300000003" height="21.000013199999955" class="text">225.75
</text>
<text x="605.000032" y="385.99999902" width="28.99994824999999" height="14.999994360000017" class="text">CPE
</text>
<text x="1247.99995775" y="382.00000404" width="29.99999274999982" height="15.000011940000036" class="text">Net </text>
<text x="1282.0000375" y="382.00000404" width="41.999958000000106" height="15.000011940000036" class="text">Total
</text>
<text x="1412.9999520000001" y="390.99999714" width="6.000039499999957" height="21.999998759999983" class="text">$</text>
<text x="1422.999942" y="390.99999714" width="77.00010500000008" height="24.00000504000002" class="text">1,279.25
</text>
<text x="606.00000825" y="423.00000972000004" width="62.999959750000016" height="19.000006920000033" class="text">Account </text>
<text x="672.99998675" y="423.99999528" width="45.99997675000009" height="19.000006920000033" class="text">Types
</text>
<text x="1250.0000695" y="416.00000532" width="38.999938249999786" height="16.000015080000026" class="text">Sales </text>
<text x="1295.9999779999998" y="416.00000532" width="24.999997750000148" height="16.000015080000026" class="text">Tax
</text>
<text x="605.000032" y="456.99997584" width="47.99995200000001" height="17.999986200000023" class="text">Billing </text>
<text x="661.99999775" y="456.99997584" width="35.00001050000003" height="17.999986200000023" class="text">Type
</text>
<text x="792.9999805" y="396.9999984" width="92.00004449999994" height="25.00000818000001" class="text">41/72/443
</text>
<text x="793.9999567499999" y="428.9999934" width="77.00003675000005" height="24.99999059999999" class="text">National</text>
<text x="867.99997375" y="428.9999934" width="7.000038500000073" height="24.99999059999999" class="text">/</text>
<text x="874.000036" y="428.9999934" width="71.99995074999993" height="24.99999059999999" class="text">Political </text>
<text x="949.00002925" y="428.9999934" width="85.99998225000002" height="24.99999059999999" class="text">Candidate </text>
<text x="1044.00002525" y="428.9999934" width="64.99998050000022" height="24.99999059999999" class="text">Agency </text>
<text x="1114.0000235" y="428.9999934" width="36.000032250000004" height="24.99999059999999" class="text">BRD
</text>
<text x="796.00000025" y="462.00000911999996" width="75.99999224999999" height="21.000013200000012" class="text">Standard
</text>
<text x="795.000024" y="494.99998968" width="56.99996574999989" height="21.000013199999955" class="text">Q42020 </text>
<text x="860.0000272499999" y="494.99998968" width="72.99994975000004" height="21.000013199999955" class="text">Broadcast
</text>
<text x="795.000024" y="517.00000602" width="77.99994474999994" height="19.999992480000003" class="text">Separation</text>
<text x="876.0000112500001" y="515.9999853" width="4.999994999999899" height="18.99997176000005" class="text">: </text>
<text x="887.9999765" y="515.9999853" width="17.000028499999985" height="19.999992480000117" class="text">30
</text>
<text x="603.9999875000001" y="489.000006" width="83.00000799999998" height="15.999997500000006" class="text">Comments
</text>
<text x="36.0000004" y="832.00001064" width="29.000000574999994" height="15.000011940000036" class="text">Line
</text>
<text x="120.9999973" y="839.00001504" width="29.000009674999987" height="22.000016340000002" class="text">Line </text>
<text x="156.9999977" y="839.00001504" width="37.00000395000001" height="22.000016340000002" class="text">Type</text>
<text x="200.00000475" y="839.00001504" width="6.000003100000015" height="22.000016340000002" class="text">/</text>
<text x="211.99999502499998" y="839.00001504" width="40.00000322500003" height="22.000016340000002" class="text">Break </text>
<text x="262.99998725" y="839.00001504" width="34.00001150000003" height="22.000016340000002" class="text">Type </text>
<text x="303.0000155" y="839.00001504" width="5.999971249999987" height="22.000016340000002" class="text">(</text>
<text x="308.00001050000003" y="839.00001504" width="28.99997099999996" height="22.000016340000002" class="text">Ref </text>
<text x="342.99999825000003" y="839.00001504" width="5.999994000000015" height="22.000016340000002" class="text">#</text>
<text x="353.99998725" y="839.00001504" width="6.000016750000043" height="22.000016340000002" class="text">)
</text>
<text x="468.00000975" y="833.99999934" width="42.99997975000002" height="15.999997500000063" class="text">Dates
</text>
<text x="596.0000182499999" y="836.0000232" width="25.999974000000066" height="20.000045219999947" class="text">Sec </text>
<text x="641.999995" y="837.99999432" width="49.00001924999992" height="22.000016340000002" class="text">Length
</text>
<text x="780.00001625" y="833.99999934" width="27.999971999999957" height="15.999997500000063" class="text">Run </text>
<text x="817.000002" y="833.99999934" width="44.00000149999994" height="17.000000640000053" class="text">Times
</text>
<text x="939.0000165" y="832.99997862" width="26.999972999999954" height="15.999979919999987" class="text">SPW </text>
<text x="990.99998725" y="832.99997862" width="21.000001750000024" height="15.999979919999987" class="text">Mo
</text>
<text x="1034.0000125" y="835.00000248" width="16.999983000000157" height="18.000003780000043" class="text">Tu </text>
<text x="1069.99999925" y="835.00000248" width="25.999996750000037" height="18.000003780000043" class="text">We </text>
<text x="1113.0000244999999" y="835.00000248" width="16.999983000000157" height="18.000003780000043" class="text">Th
</text>
<text x="1154.00000625" y="833.99999934" width="13.000032499999861" height="17.000000640000053" class="text">Fr </text>
<text x="1187.0000415000002" y="833.99999934" width="18.00002749999976" height="17.000000640000053" class="text">Sa
</text>
<text x="1225.00007175" y="832.99997862" width="16.99996024999996" height="12.99998807999998" class="text">Su
</text>
<text x="1265.99998525" y="837.99999432" width="41.0000500000001" height="20.99999562000005" class="text">Spots
</text>
<text x="1355.9999635000001" y="833.99999934" width="33.00003524999988" height="14.999976779999997" class="text">Rate
</text>
<text x="1505.0000420000001" y="833.99999934" width="38.999938249999786" height="15.999997500000063" class="text">Total
</text>
<text x="1715.00003675" y="835.00000248" width="50.99990350000007" height="15.999979919999987" class="text">Station
</text>
<text x="1946.99998675" y="836.0000232" width="80.00001099999986" height="17.00000063999994" class="text">Comments
</text>
<text x="2111.999981" y="835.00000248" width="56.999965749999774" height="17.000000640000053" class="text">Entered
</text>
<text x="65.99999997500001" y="870.0000244800001" width="16.99999665" height="18.00002136000012" class="text">1.0 </text>
<text x="90.999997725" y="870.0000244800001" width="56.000000875" height="18.00002136000012" class="text">Normal </text>
<text x="150.9999946" y="870.0000244800001" width="29.99999729999999" height="18.00002136000012" class="text">Line </text>
<text x="187.99999855000002" y="870.0000244800001" width="4.999999549999984" height="18.00002136000012" class="text">/ </text>
<text x="199.00000119999999" y="870.0000244800001" width="42.00000805000002" height="18.00002136000012" class="text">SPOT
</text>
<text x="617.99999625" y="870.0000244800001" width="4.999995000000013" height="19.00004208000007" class="text">3
</text>
<text x="967.99996475" y="867.99998304" width="3.0000425000000632" height="11.999967359999914" class="text">4
</text>
<text x="1040.0000065" y="870.0000244800001" width="4.999995000000126" height="17.000000640000053" class="text">X
</text>
<text x="1080.000012" y="870.0000244800001" width="3.99999600000001" height="16.0000326600001" class="text">X
</text>
<text x="1118.0000195" y="870.0000244800001" width="5.000017750000097" height="18.00002136000012" class="text">X
</text>
<text x="1155.9999814999999" y="870.0000244800001" width="4.999995000000126" height="17.000000640000053" class="text">X
</text>
<text x="1302.9999482500002" y="869.00000376" width="4.000086999999894" height="15.000011940000036" class="text">4
</text>
<text x="1372.9999465" y="870.99997488" width="4.999994999999899" height="16.999983059999977" class="text">$</text>
<text x="1384.0000037500001" y="870.99997488" width="46.99997574999975" height="16.999983059999977" class="text">115.00
</text>
<text x="390.99999575000004" y="873.00001632" width="18.00000474999996" height="19.999992479999946" class="text">09</text>
<text x="409.9999995" y="873.00001632" width="5.999994000000015" height="19.999992479999946" class="text">/</text>
<text x="417.00001525" y="873.00001632" width="17.99998199999999" height="19.999992479999946" class="text">29</text>
<text x="435.99999625" y="873.00001632" width="6.000016749999986" height="19.999992479999946" class="text">/</text>
<text x="443.000012" y="873.00001632" width="39.000006499999984" height="19.999992479999946" class="text">20-10</text>
<text x="485.99999175000005" y="873.00001632" width="6.000016749999986" height="19.999992479999946" class="text">/</text>
<text x="490.99998675" y="873.00001632" width="18.00000474999996" height="19.999992479999946" class="text">02</text>
<text x="512.0000112500001" y="873.00001632" width="5.999994000000015" height="19.999992479999946" class="text">/</text>
<text x="517.00000625" y="873.00001632" width="18.00000475000013" height="19.999992479999946" class="text">20
</text>
<text x="391.99999475000004" y="907.999968" width="17.000005749999957" height="22.000016340000002" class="text">09</text>
<text x="410.9999985" y="907.999968" width="6.000016749999986" height="22.000016340000002" class="text">/</text>
<text x="417.9999915" y="907.999968" width="16.00000675000001" height="22.000016340000002" class="text">29</text>
<text x="437.000018" y="907.999968" width="5.999994000000015" height="22.000016340000002" class="text">/</text>
<text x="443.000012" y="907.999968" width="39.99998274999996" height="22.000016340000002" class="text">20-10</text>
<text x="487.99998975" y="907.999968" width="5.999994000000015" height="22.000016340000002" class="text">/</text>
<text x="493.0000075" y="907.999968" width="17.000005750000014" height="22.000016340000002" class="text">02</text>
<text x="512.0000112500001" y="907.999968" width="5.999994000000015" height="22.000016340000002" class="text">/</text>
<text x="520.00000325" y="907.999968" width="15.99998400000004" height="22.000016340000002" class="text">20
</text>
<text x="388.99999775" y="941.99996928" width="20.00000275000002" height="20.999960459999897" class="text">09</text>
<text x="409.9999995" y="941.99996928" width="5.999994000000015" height="20.999960459999897" class="text">/</text>
<text x="417.9999915" y="941.99996928" width="15.000007750000009" height="20.999960459999897" class="text">29</text>
<text x="434.99999725" y="941.99996928" width="5.999994000000015" height="20.999960459999897" class="text">/</text>
<text x="443.000012" y="941.99996928" width="40.99998174999996" height="20.999960459999897" class="text">20-10</text>
<text x="485.99999175000005" y="941.99996928" width="6.000016749999986" height="20.999960459999897" class="text">/</text>
<text x="493.0000075" y="941.99996928" width="17.000005750000014" height="20.999960459999897" class="text">02</text>
<text x="510.9999895" y="941.99996928" width="6.000016749999929" height="20.999960459999897" class="text">/</text>
<text x="519.000027" y="941.99996928" width="14.999984999999924" height="20.999960459999897" class="text">20
</text>
<text x="1545.0000475000002" y="873.00001632" width="5.9999029999996765" height="21.000013200000012" class="text">$</text>
<text x="1555.0000375" y="873.00001632" width="49.99999550000007" height="21.000013200000012" class="text">460.00 </text>
<text x="1613.9999785" y="873.00001632" width="36.000054999999975" height="21.000013200000012" class="text">KECI</text>
<text x="1652.00000875" y="873.00001632" width="6.000062249999928" height="21.000013200000012" class="text">+</text>
<text x="1661.99999875" y="873.00001632" width="36.000054999999975" height="21.000013200000012" class="text">KCFW </text>
<text x="1713.9999695000001" y="873.00001632" width="49.99999549999984" height="21.000013200000012" class="text">Combo </text>
<text x="1772.0000025" y="873.00001632" width="6.000062249999928" height="21.000013200000012" class="text">(</text>
<text x="1775.999953" y="873.00001632" width="39.00007474999984" height="21.000013200000012" class="text">KECI</text>
<text x="1818.0000475000002" y="873.00001632" width="5.999925749999875" height="21.000013200000012" class="text">+</text>
<text x="1828.00006025" y="873.00001632" width="35.99991850000015" height="21.000013200000012" class="text">KCFW </text>
<text x="1880.000031" y="873.00001632" width="45.99990849999995" height="21.000013200000012" class="text">Today </text>
<text x="1933.00004625" y="873.00001632" width="33.999943250000115" height="21.000013200000012" class="text">Show</text>
<text x="1973.99995975" y="873.00001632" width="6.000062249999928" height="21.000013200000012" class="text">-</text>
<text x="1976.9999794999999" y="873.00001632" width="33.00003525000011" height="21.000013200000012" class="text">NBC
</text>
<text x="1547.00002275" y="907.0000176000001" width="5.999903000000131" height="19.99999248000006" class="text">$</text>
<text x="1555.9999682500002" y="907.0000176000001" width="49.99999549999984" height="19.99999248000006" class="text">495.00 </text>
<text x="1612.00000325" y="907.0000176000001" width="36.99998575000018" height="19.99999248000006" class="text">KECI</text>
<text x="1653.00005325" y="907.0000176000001" width="5.999925749999875" height="19.99999248000006" class="text">+</text>
<text x="1661.99999875" y="907.0000176000001" width="38.00003024999978" height="19.99999248000006" class="text">KCFW </text>
<text x="1712.000017" y="907.0000176000001" width="51.999947999999904" height="19.99999248000006" class="text">Combo </text>
<text x="1770.999958" y="907.0000176000001" width="6.000039499999957" height="19.99999248000006" class="text">(</text>
<text x="1778.0000647499999" y="907.0000176000001" width="37.999870999999985" height="19.99999248000006" class="text">KECI</text>
<text x="1817.000003" y="907.0000176000001" width="6.000062249999928" height="19.99999248000006" class="text">+</text>
<text x="1825.00001775" y="907.0000176000001" width="38.00003025000001" height="19.99999248000006" class="text">KCFW</text>
<text x="1870.999949" y="907.0000176000001" width="6.000039499999957" height="19.99999248000006" class="text">) </text>
<text x="1876.9999885" y="907.0000176000001" width="45.00000050000017" height="19.99999248000006" class="text">News </text>
<text x="1923.99996425" y="907.0000176000001" width="15.000007750000123" height="19.99999248000006" class="text">at </text>
<text x="1943.9999670000002" y="907.0000176000001" width="28.000017499999785" height="19.99999248000006" class="text">5PM
</text>
<text x="65.00000097499999" y="906.0000496200001" width="22.000000750000012" height="19.00002450000011" class="text">2.0 </text>
<text x="90.999997725" y="906.0000496200001" width="57.000004425" height="19.00002450000011" class="text">Normal </text>
<text x="151.99999814999998" y="907.0000176000001" width="29.999997300000018" height="19.000042080000185" class="text">Line </text>
<text x="189.0000021" y="907.0000176000001" width="4.9999995500000125" height="19.000042080000185" class="text">/ </text>
<text x="200.00000475" y="907.0000176000001" width="41.99998075000002" height="19.000042080000185" class="text">SPOT
</text>
<text x="682.99997675" y="870.99997488" width="5.000017750000097" height="18.999971759999994" class="text">:</text>
<text x="687.9999945000001" y="870.99997488" width="18.000027499999874" height="18.999971759999994" class="text">30 </text>
<text x="713.9999685" y="873.00001632" width="24.000021500000003" height="19.999992479999946" class="text">7A- </text>
<text x="742.9999849999999" y="873.00001632" width="18.0000275000001" height="19.999992479999946" class="text">9A </text>
<text x="770.00002625" y="873.00001632" width="4.999995000000013" height="19.000024499999995" class="text">(</text>
<text x="775.00002125" y="874.9999874399999" width="30.99999175000005" height="20.999995619999936" class="text">MST</text>
<text x="810.000009" y="873.9999843" width="5.000017750000097" height="18.99998934000007" class="text">)
</text>
<text x="681.0000242499999" y="906.0000496200001" width="5.999971250000158" height="20.000097960000176" class="text">:</text>
<text x="688.99997075" y="906.0000496200001" width="15.000007750000009" height="20.000097960000176" class="text">30 </text>
<text x="712.99999225" y="906.0000496200001" width="24.999997750000034" height="20.000097960000176" class="text">5P- </text>
<text x="742.9999849999999" y="906.0000496200001" width="5.999994000000129" height="20.000097960000176" class="text">5</text>
<text x="750.99999975" y="906.0000496200001" width="5.9999939999999015" height="20.000097960000176" class="text">:</text>
<text x="758.9999690000001" y="907.0000176000001" width="24.99999774999992" height="21.000065940000127" class="text">30P </text>
<text x="791.00000525" y="907.0000176000001" width="5.999994000000015" height="19.99999248000006" class="text">(</text>
<text x="796.00000025" y="907.0000176000001" width="34.00001150000003" height="19.99999248000006" class="text">MST</text>
<text x="831.00001075" y="907.0000176000001" width="5.9999712499999305" height="19.99999248000006" class="text">)
</text>
<text x="681.0000242499999" y="940.0000509" width="5.999971250000158" height="19.999992479999946" class="text">:</text>
<text x="688.99997075" y="940.0000509" width="15.000007750000009" height="19.999992479999946" class="text">30 </text>
<text x="712.99999225" y="941.99996928" width="34.99998775000006" height="20.999960459999897" class="text">10P- </text>
<text x="752.999975" y="941.0000013" width="15.000007750000009" height="19.999992479999946" class="text">10</text>
<text x="771.0000025" y="941.0000013" width="5.9999939999999015" height="19.999992479999946" class="text">:</text>
<text x="775.9999975" y="941.99996928" width="25.999996750000037" height="19.999992479999946" class="text">35P </text>
<text x="809.00003275" y="941.99996928" width="5.999994000000129" height="19.999992479999946" class="text">(</text>
<text x="817.000002" y="943.0000427399999" width="30.999968999999965" height="21.0000659399999" class="text">MST</text>
<text x="851.0000135" y="943.0000427399999" width="5.999971250000044" height="19.999992479999946" class="text">)
</text>
<text x="2098.9999485" y="871.9999956" width="49.999995500000296" height="19.99999248000006" class="text">6/5/20
</text>
<text x="2098.9999485" y="906.0000496200001" width="49.999995500000296" height="20.000097960000176" class="text">6/5/20
</text>
<text x="616.0000210000001" y="904.99997616" width="4.999994999999899" height="17.999951039999928" class="text">3
</text>
<text x="967.99996475" y="904.99997616" width="4.999994999999899" height="17.000000640000053" class="text">3
</text>
<text x="1040.99998275" y="902.9999523" width="4.000018749999981" height="14.999976780000111" class="text">X
</text>
<text x="1080.99998825" y="902.9999523" width="4.0000187500002085" height="15.999927179999986" class="text">X
</text>
<text x="1116.999975" y="904.99997616" width="4.999994999999899" height="17.000000640000053" class="text">X
</text>
<text x="1155.0000734999999" y="902.9999523" width="4.999995000000126" height="17.999968620000004" class="text">X
</text>
<text x="1302.00004025" y="904.99997616" width="4.999995000000126" height="17.000000640000053" class="text">3
</text>
<text x="1375.00005825" y="906.0000496200001" width="4.999995000000126" height="18.000074100000234" class="text">$</text>
<text x="1385.00004825" y="906.0000496200001" width="48.99995100000001" height="18.000074100000234" class="text">165.00
</text>
<text x="65.99999997500001" y="940.0000509" width="18.000000199999988" height="18.000074100000006" class="text">3.0 </text>
<text x="93.99999927500001" y="940.0000509" width="56.00000769999998" height="18.000074100000006" class="text">Normal </text>
<text x="151.99999814999998" y="941.0000013" width="32.00000440000002" height="17.99995104000004" class="text">Line </text>
<text x="190.999991" y="941.0000013" width="5.000001824999998" height="17.99995104000004" class="text">/ </text>
<text x="201.99999365" y="941.0000013" width="42.00001259999999" height="17.99995104000004" class="text">SPOT
</text>
<text x="617.99999625" y="938.0000094599999" width="4.999995000000013" height="17.000000639999826" class="text">3
</text>
<text x="967.99996475" y="938.9999774400001" width="4.000018750000095" height="14.999976780000111" class="text">2
</text>
<text x="1040.0000065" y="938.9999774400001" width="4.000018749999981" height="15.9999271800001" class="text">X
</text>
<text x="1080.000012" y="938.0000094599999" width="3.99999600000001" height="14.999959199999921" class="text">X
</text>
<text x="1118.0000195" y="938.0000094599999" width="5.000017750000097" height="17.000000639999826" class="text">X
</text>
<text x="1157.0000487500001" y="938.0000094599999" width="3.9999277499998698" height="14.999959199999921" class="text">X
</text>
<text x="1302.9999482500002" y="938.9999774400001" width="4.000086999999894" height="14.999976780000111" class="text">2
</text>
<text x="1373.9999910000001" y="940.0000509" width="5.00001774999987" height="18.000074100000006" class="text">$</text>
<text x="1384.0000037500001" y="940.0000509" width="48.99992824999981" height="18.000074100000006" class="text">275.00
</text>
<text x="1547.00002275" y="941.0000013" width="4.999995000000126" height="19.000024499999995" class="text">$</text>
<text x="1555.0000375" y="941.0000013" width="49.99999550000007" height="19.000024499999995" class="text">550.00 </text>
<text x="1613.9999785" y="941.0000013" width="36.000054999999975" height="19.000024499999995" class="text">KECI</text>
<text x="1653.00005325" y="941.0000013" width="5.00001774999987" height="19.000024499999995" class="text">+</text>
<text x="1660.00004625" y="941.0000013" width="39.999982749999845" height="19.000024499999995" class="text">KCFW </text>
<text x="1713.0000615000001" y="941.0000013" width="50.999903499999846" height="19.000024499999995" class="text">Combo </text>
<text x="1770.999958" y="941.0000013" width="4.999994999999899" height="19.000024499999995" class="text">(</text>
<text x="1775.999953" y="941.0000013" width="39.999982749999845" height="19.000024499999995" class="text">KECI</text>
<text x="1818.0000475000002" y="941.0000013" width="5.00001774999987" height="19.000024499999995" class="text">+</text>
<text x="1825.9999484999998" y="941.0000013" width="39.00007475000007" height="19.000024499999995" class="text">KCFW</text>
<text x="1871.9999935" y="941.0000013" width="4.999994999999899" height="19.000024499999995" class="text">) </text>
<text x="1876.9999885" y="941.0000013" width="43.99995600000011" height="19.000024499999995" class="text">News </text>
<text x="1926.9999839999998" y="941.0000013" width="13.000032500000316" height="19.000024499999995" class="text">at </text>
<text x="1946.99998675" y="941.0000013" width="13.999940499999866" height="19.000024499999995" class="text">10
</text>
<text x="2100.00001575" y="941.99996928" width="49.99999549999984" height="19.999992479999946" class="text">6/5/20
</text>
<text x="845.0000195" y="1357.99995702" width="269.9999802499999" height="34.99996925999994" class="text">CONFIRMATION </text>
<text x="1131.9999827499998" y="1357.99995702" width="205.0000452500003" height="34.99996925999994" class="text">CONTRACT
</text>
<text x="16.00000038" y="1396.00000602" width="71.000001345" height="21.000065940000013" class="text">Accepted</text>
<text x="87.99999617499999" y="1396.00000602" width="6.000003100000015" height="21.000065940000013" class="text">-</text>
<text x="92.000001275" y="1396.00000602" width="58.00000569999999" height="21.000065940000013" class="text">Agency</text>
<text x="153.0000017" y="1396.00000602" width="6.0000030999999865" height="21.000065940000013" class="text">/</text>
<text x="156.9999977" y="1396.00000602" width="83.00001255000001" height="21.000065940000013" class="text">Advertiser</text>
<text x="238.9999885" y="1396.00000602" width="6.000016749999986" height="21.000065940000013" class="text">:
</text>
<text x="641.999995" y="1392.0000462" width="36.99998574999995" height="16.000032659999988" class="text">Date</text>
<text x="681.0000242499999" y="1392.0000462" width="3.999996000000124" height="16.000032659999988" class="text">:
</text>
<text x="831.999987" y="1396.999974" width="70.99999724999998" height="22.999984320000067" class="text">Accepted</text>
<text x="905.000005" y="1396.00000602" width="5.999994000000129" height="21.000065940000013" class="text">-</text>
<text x="910.9999990000001" y="1396.00000602" width="53.00001524999993" height="22.99998431999984" class="text">Station</text>
<text x="965.9999895" y="1395.00003804" width="5.999994000000129" height="21.000048359999937" class="text">:
</text>
<text x="1330.99996575" y="1390.00002234" width="36.99998574999995" height="18.00007410000012" class="text">Date</text>
<text x="1370.9999712499998" y="1388.99994888" width="4.000087000000121" height="15.999927179999759" class="text">:
</text>
<text x="1495.99996" y="1390.99999032" width="81.00005549999992" height="19.000042080000185" class="text">Comments</text>
<text x="1580.999966" y="1390.00002234" width="4.999994999999899" height="17.000000639999826" class="text">:
</text>
<text x="25.999999025" y="1501.9999521" width="30.000001849999997" height="25.99997615999996" class="text">The </text>
<text x="62.999998425" y="1501.9999521" width="52.0000026" height="25.99997615999996" class="text">parties </text>
<text x="121.99999857499999" y="1501.9999521" width="48.000008875000034" height="25.99997615999996" class="text">intend </text>
<text x="175.99999234999999" y="1501.9999521" width="22.000005300000026" height="25.99997615999996" class="text">for </text>
<text x="205.0000043" y="1501.9999521" width="21.999989375000013" height="25.99997615999996" class="text">the </text>
<text x="233.9999935" y="1501.9999521" width="68.00000025000006" height="25.99997615999996" class="text">Standard </text>
<text x="308.00001050000003" y="1501.9999521" width="84.99998324999996" height="25.99997615999996" class="text">Advertiser </text>
<text x="400.99998575" y="1501.9999521" width="47.000021249999975" height="25.99997615999996" class="text">Terms </text>
<text x="453.000002" y="1501.9999521" width="29.000016500000015" height="25.99997615999996" class="text">and </text>
<text x="487.99998975" y="1501.9999521" width="88.0000257499999" height="25.99997615999996" class="text">Conditions </text>
<text x="580.00003425" y="1501.9999521" width="6.999970249999933" height="25.99997615999996" class="text">(</text>
<text x="586.0000282499999" y="1501.9999521" width="6.99997025000016" height="25.99997615999996" class="text">"</text>
<text x="598.99996975" y="1501.9999521" width="47.000044" height="25.99997615999996" class="text">Terms</text>
<text x="642.999994" y="1501.9999521" width="7.00003849999996" height="25.99997615999996" class="text">"</text>
<text x="652.00000775" y="1501.9999521" width="6.999970249999933" height="25.99997615999996" class="text">) </text>
<text x="663.9999730000001" y="1501.9999521" width="56.000057749999996" height="25.99997615999996" class="text">located </text>
<text x="728.99997625" y="1501.9999521" width="14.999984999999924" height="25.99997615999996" class="text">at</text>
<text x="742.9999849999999" y="1501.9999521" width="15.000007750000123" height="25.99997615999996" class="text">... </text>
<text x="762.9999877500001" y="1501.9999521" width="184.99997424999992" height="25.99997615999996" class="text">http://sbgi.net/?p=1224 </text>
<text x="951.0000045" y="1501.9999521" width="18.000027499999987" height="25.99997615999996" class="text">... </text>
<text x="971.9999835000001" y="1501.9999521" width="13.000032499999975" height="25.99997615999996" class="text">to </text>
<text x="990.99998725" y="1501.9999521" width="19.00002649999999" height="25.99997615999996" class="text">be </text>
<text x="1017.99996025" y="1501.9999521" width="29.0000164999999" height="25.99997615999996" class="text">part </text>
<text x="1054.00001525" y="1501.9999521" width="15.000007750000123" height="25.99997615999996" class="text">of </text>
<text x="1075.99999325" y="1501.9999521" width="33.00001250000014" height="25.99997615999996" class="text">their </text>
<text x="1115.99999875" y="1501.9999521" width="86.00002775000007" height="25.99997615999996" class="text">agreement</text>
<text x="1200.000074" y="1501.9999521" width="6.999970249999933" height="25.99997615999996" class="text">, </text>
<text x="1210.000064" y="1501.9999521" width="25.999905749999925" height="25.99997615999996" class="text">and </text>
<text x="1245.0000517500002" y="1501.9999521" width="21.9999779999996" height="25.99997615999996" class="text">the </text>
<text x="1272.00002475" y="1501.9999521" width="30.000015500000018" height="25.99997615999996" class="text">sale </text>
<text x="1310.99998575" y="1501.9999521" width="14.999984999999924" height="25.99997615999996" class="text">of </text>
<text x="1332.999941" y="1501.9999521" width="84.00007525000001" height="25.99997615999996" class="text">advertising </text>
<text x="1427.0000289999998" y="1501.9999521" width="9.999990000000253" height="25.99997615999996" class="text">is </text>
<text x="1442.99994475" y="1501.9999521" width="76.00003775000005" height="25.99997615999996" class="text">expressly </text>
<text x="1525.00004475" y="1501.9999521" width="58.999941000000035" height="25.99997615999996" class="text">subject </text>
<text x="1587.0000055" y="1501.9999521" width="15.000007749999895" height="25.99997615999996" class="text">to </text>
<text x="1608.0000755" y="1501.9999521" width="28.99992549999979" height="25.99997615999996" class="text">said </text>
<text x="1648.9999890000001" y="1501.9999521" width="46.99995299999978" height="25.99997615999996" class="text">Terms</text>
<text x="1693.9999895" y="1501.9999521" width="6.999970249999933" height="25.99997615999996" class="text">.
</text>
<text x="4.000000095" y="1636.99997166" width="6.000000370000001" height="20.999942879999935" class="text">B</text>
<text x="15.0000002425" y="1636.99997166" width="5.999999687500001" height="20.999942879999935" class="text">/</text>
<text x="22.99999975" y="1636.99997166" width="5.999998550000001" height="20.999942879999935" class="text">E </text>
<text x="36.9999994" y="1636.99997166" width="68.99999697499999" height="20.999942879999935" class="text">Bookend </text>
<text x="123.99999657500001" y="1636.99997166" width="6.0000030999999865" height="20.999942879999935" class="text">P</text>
<text x="135.0000015" y="1636.99997166" width="6.000000825000001" height="20.999942879999935" class="text">/</text>
<text x="141.000002325" y="1636.99997166" width="5.999996275000001" height="20.999942879999935" class="text">B </text>
<text x="156.9999977" y="1636.99997166" width="43.000007049999994" height="20.999942879999935" class="text">Piggy </text>
<text x="206.999995475" y="1636.99997166" width="34.00001377500001" height="20.999942879999935" class="text">Back
</text>
<text x="5.000000232500001" y="1678.00003008" width="69.0000008425" height="27.000049620000027" class="text">Printed </text>
<text x="80.99999862499999" y="1678.00003008" width="26.000001300000008" height="27.000049620000027" class="text">At</text>
<text x="105.00000192499999" y="1678.00003008" width="8.000001100000006" height="27.000049620000027" class="text">: </text>
<text x="118.99999702500001" y="1678.00003008" width="57.999998875" height="27.000049620000027" class="text">05:53 </text>
<text x="184.00000255" y="1678.00003008" width="24.999997750000006" height="27.000049620000027" class="text">PM </text>
<text x="224.000001225" y="1678.00003008" width="18.999983274999977" height="27.000049620000027" class="text">on </text>
<text x="258.99999125" y="1678.00003008" width="79.00001200000003" height="27.000049620000027" class="text">Tuesday</text>
<text x="340.000024" y="1678.00003008" width="7.99999200000002" height="27.000049620000027" class="text">, </text>
<text x="356.99998425" y="1678.00003008" width="44.000001499999996" height="27.000049620000027" class="text">June </text>
<text x="417.9999915" y="1678.00003008" width="8.000014749999991" height="27.000049620000027" class="text">9 </text>
<text x="434.99999725" y="1678.00003008" width="50.00001825000004" height="27.000049620000027" class="text">2020
</text>
<text x="2086.99998325" y="1656.99996414" width="45.00000050000017" height="23.999934720000056" class="text">Page </text>
<text x="2141.99997375" y="1655.0000457600001" width="6.999970249999933" height="21.00006594000024" class="text">1 </text>
<text x="2158.000026" y="1653.9999722999999" width="18.999958249999963" height="22.000016339999775" class="text">of </text>
<text x="2183.9999545" y="1653.0000219" width="7.000106750000214" height="21.000065940000013" class="text">1
</text>
</g>
</svg>
