<svg xmlns="http://www.w3.org/2000/svg">
<style>.text { font-size: 14px; font-family: Arial, sans-serif; }</style>
<g id="page-0" transform="translate(0, 0)">
<rect width="2379" height="1681" fill="none" stroke="black" />
<text x="1602.9999612899999" y="110.00000380200001" width="78.00003510000033" height="29.00000011600001" class="text">Version</text>
<text x="1686.9999771300002" y="109.00000379800001" width="8.000029829999903" height="27.00000683200001" class="text">: </text>
<text x="1705.99995579" y="110.00000380200001" width="117.00000507000004" height="29.00000011600001" class="text">Highlighting </text>
<text x="1831.99997955" y="111.000005487" width="100.00007549999987" height="29.000008520999998" class="text">Makegood </text>
<text x="1946.00006562" y="111.000005487" width="7.999910880000016" height="27.000008512999997" class="text">1
</text>
<text x="1614.0000528599999" y="134.999998859" width="68.99989746000028" height="20.999993360000005" class="text">Station</text>
<text x="1687.9999422" y="134.999998859" width="6.00009969000007" height="20.999993360000005" class="text">: </text>
<text x="1700.9999639100001" y="135.999998863" width="63.00008324999999" height="21.99999336400002" class="text">WBTW
</text>
<text x="1614.0000528599999" y="170.99999395999998" width="74.99999715000035" height="25.999993379999978" class="text">Market</text>
<text x="1687.9999422" y="170.99999395999998" width="7.000064759999987" height="25.999993379999978" class="text">: </text>
<text x="1705.99995579" y="170.99999395999998" width="55.00002962999997" height="25.999993379999978" class="text">Myrtle </text>
<text x="1774.00003092" y="170.99999395999998" width="60.000021510000124" height="25.999993379999978" class="text">Beach</text>
<text x="1839.00004431" y="170.99999395999998" width="6.999922019999985" height="25.999993379999978" class="text">-</text>
<text x="1845.99996633" y="170.99999395999998" width="84.00001583999983" height="25.999993379999978" class="text">Florence
</text>
<text x="2041.99999536" y="105.00000378200001" width="65.99997845999997" height="22.00000681200001" class="text">Status</text>
<text x="2111.00003556" y="105.00000378200001" width="5.999956950000069" height="22.00000681200001" class="text">: </text>
<text x="2130.00001422" y="105.00000378200001" width="99.99995654999975" height="22.00000681200001" class="text">Confirmed
</text>
<text x="2008.0000410599998" y="141.000000564" width="38.99994618000028" height="24.999995057000007" class="text">Con </text>
<text x="2059.0000438800002" y="141.000000564" width="47.99996486999953" height="25.999995061000007" class="text">Type</text>
<text x="2111.00003556" y="140.00000056" width="6.999922020000213" height="24.999995056999992" class="text">: </text>
<text x="2126.99997627" y="141.000000564" width="115.00005113999987" height="26.99999506500002" class="text">POLITICAL</text>
<text x="2246.00005422" y="138.999998875" width="6.999922020000213" height="24.999993376000006" class="text">/</text>
<text x="2251.0000461" y="138.999998875" width="56.00001849" height="24.999993376000006" class="text">VOTE
</text>
<text x="2041.00003029" y="166.99999394399998" width="52.99995675000014" height="22.99999336799999" class="text">Total </text>
<text x="2099.99994399" y="166.99999394399998" width="6.000099690000297" height="22.99999336799999" class="text">$</text>
<text x="2112.0000006299997" y="167.99999562899998" width="5.999956950000524" height="22.999995048999978" class="text">: </text>
<text x="2131.99996815" y="167.99999562899998" width="6.000099690000297" height="22.999995048999978" class="text">$</text>
<text x="2144.00002479" y="168.99999059" width="98.99999147999961" height="24.99999001400002" class="text">12,800.00
</text>
<text x="44.99999829" y="260.00000104000003" width="176.999998032" height="60.00000024000005" class="text">KATZ </text>
<text x="249.99999843" y="260.00000104000003" width="367.00002729000005" height="60.00000024000005" class="text">TELEVISION
</text>
<text x="706.99999851" y="104.00000209699999" width="93.99999960000002" height="21.000005126999994" class="text">Contract </text>
<text x="805.9999899899999" y="104.00000209699999" width="6.000028320000183" height="21.000005126999994" class="text"># </text>
<text x="830.99999697" y="104.00000209699999" width="96.00000110999997" height="21.000005126999994" class="text">26824876
</text>
<text x="1102.99998822" y="108.000003794" width="92.99996315999988" height="26.000006827999997" class="text">Changes </text>
<text x="1204.99994628" y="107.00000379" width="22.000064189999875" height="24.000006819999996" class="text">as </text>
<text x="1235.0000403000001" y="107.00000379" width="25.99992446999977" height="24.000006819999996" class="text">of</text>
<text x="1259.00001084" y="107.00000379" width="6.999945809999872" height="24.000006819999996" class="text">: </text>
<text x="1277.00004822" y="107.00000379" width="98.99996768999995" height="26.000000103999994" class="text">3/19/2020 </text>
<text x="1385.0000346" y="106.00000378600001" width="18.00001358999998" height="24.00000682000001" class="text">at </text>
<text x="1409.0000289299999" y="106.00000378600001" width="41.00001906000011" height="24.00000682000001" class="text">4:50 </text>
<text x="1456.9999938" y="106.00000378600001" width="31.00003529999981" height="24.00000682000001" class="text">PM
</text>
<text x="765.9999835799999" y="135.999998863" width="40.00000640999997" height="21.99999336400002" class="text">CPE</text>
<text x="812.99998338" y="135.999998863" width="6.0000283200000695" height="21.99999336400002" class="text">: </text>
<text x="831.99998583" y="135.999998863" width="120.00004302000002" height="21.99999336400002" class="text">195/218/790
</text>
<text x="1198.00002426" y="140.00000056" width="61.99997544000007" height="26.99999506499998" class="text">Flight</text>
<text x="1259.00001084" y="138.999998875" width="6.999945809999872" height="24.999993376000006" class="text">: </text>
<text x="1278.00001329" y="138.999998875" width="58.99991369999998" height="25.999993379999978" class="text">3/9/20 </text>
<text x="1345.9999456799999" y="137.999998871" width="7.000064759999987" height="24.999993375999992" class="text">- </text>
<text x="1359.99993246" y="138.999998875" width="72.00010193999992" height="26.999993383999993" class="text">3/24/20
</text>
<text x="730.99999284" y="170.99999395999998" width="79.00002395999991" height="26.999993383999993" class="text">Agency</text>
<text x="810.99998187" y="170.00000068" width="6.999993389999986" height="25.000000099999994" class="text">: </text>
<text x="830.99999697" y="170.99999395999998" width="84.99998091000009" height="26.999993383999993" class="text">National </text>
<text x="922.0000062" y="170.00000068" width="23.000029259999906" height="25.000000099999994" class="text">Ad </text>
<text x="953.99995899" y="170.00000068" width="111.00004812000009" height="27.000000107999995" class="text">Placement </text>
<text x="1145.99996121" y="170.00000068" width="110.00001167999994" height="27.000000107999995" class="text">Advertiser</text>
<text x="1259.00001084" y="170.00000068" width="6.999945809999872" height="26.00000010400001" class="text">: </text>
<text x="1277.00004822" y="172.00000405" width="76.99992728999973" height="28.00000347400001" class="text">Security </text>
<text x="1364.99992434" y="170.99999395999998" width="15.000118380000004" height="25.999993379999978" class="text">Is </text>
<text x="1390.00002648" y="172.00000405" width="77.99991614999976" height="27.000003469999996" class="text">Strength
</text>
<text x="1274.99997534" y="187.99999739" width="42.99997299000006" height="20.00000176100002" class="text">PAC
</text>
<text x="828.99999546" y="219.0000076" width="28.999986209999975" height="20.000000080000007" class="text">PO </text>
<text x="866.99997657" y="220.00000088" width="39.000017550000166" height="20.99999335999999" class="text">Box </text>
<text x="917.00003811" y="220.00000088" width="70.99997034" height="20.000000080000007" class="text">191271
</text>
<text x="1170.00002691" y="221.00001097" width="88.99998392999987" height="23.000013539999998" class="text">Product</text>
<text x="1256.99993796" y="220.00000088" width="6.00009969000007" height="20.99999335999999" class="text">: </text>
<text x="1278.99997836" y="219.0000076" width="19.00000245000024" height="21.000010169999996" class="text">TV
</text>
<text x="828.99999546" y="253.99999093000002" width="62.00004680999996" height="24.999983290000017" class="text">Dallas</text>
<text x="894.99997392" y="252.99999764999998" width="6.000052109999956" height="22.999979919999987" class="text">, </text>
<text x="908.9999844900001" y="252.99999764999998" width="21.000003959999844" height="22.999979919999987" class="text">TX </text>
<text x="943.99999902" y="252.99999764999998" width="55.9999947" height="23.999990009999976" class="text">75219 </text>
<text x="1091.00000295" y="256.99998758000004" width="79.00002396000014" height="27.99997994000003" class="text">Agency </text>
<text x="1179.0000456" y="255.99999429999997" width="58.99991369999998" height="27.999979940000003" class="text">Order </text>
<text x="1245.9999891300001" y="255.00000101999998" width="7.000064759999987" height="25.999993379999978" class="text">#</text>
<text x="1259.00001084" y="255.00000101999998" width="6.999945809999872" height="25.999993379999978" class="text">: </text>
<text x="1275.99994041" y="255.00000101999998" width="86.0000887199999" height="27.99999674999998" class="text">9473506
</text>
<text x="1193.99999745" y="287.00000451" width="62.99994050999999" height="27.000003469999967" class="text">Buyer</text>
<text x="1259.00001084" y="285.99999442" width="6.999945809999872" height="25.000000100000022" class="text">: </text>
<text x="1278.00001329" y="285.99999442" width="48.9999299399999" height="27.000003470000024" class="text">Lloyd</text>
<text x="1331.99993511" y="285.00000114" width="7.000064759999987" height="25.000000099999966" class="text">, </text>
<text x="1344.99998061" y="285.00000114" width="53.000075700000025" height="27.000003470000024" class="text">Dillon
</text>
<text x="1123.9999921800002" y="319.000008" width="130.00005056999976" height="29.00000683999997" class="text">Salesperson</text>
<text x="1258.00004577" y="317.00000463000003" width="7.9999108799997884" height="27.000003470000024" class="text">: </text>
<text x="1278.00001329" y="318.00001472" width="106.00005624000005" height="29.000006840000026" class="text">SHANNON </text>
<text x="1396.9999484999998" y="316.00001134999997" width="82.0000857" height="29.00000683999997" class="text">YALLOF
</text>
<text x="1278.00001329" y="334.99998453" width="137.9999376600001" height="20.999976550000042" class="text">212-373-8131
</text>
<text x="1140.00000426" y="370.99999476" width="114.00003848999995" height="25.000000099999966" class="text">Separation</text>
<text x="1258.00004577" y="370.99999476" width="6.999945809999872" height="25.000000099999966" class="text">:
</text>
<text x="695.00001324" y="401.00001169" width="112.99997826000003" height="26.000010190000012" class="text">Comments</text>
<text x="812.99998338" y="401.00001169" width="6.999993389999986" height="25.00001691" class="text">: </text>
<text x="830.99999697" y="401.00001169" width="72.99999563999995" height="25.00001691" class="text">FLGHT </text>
<text x="911.9999748600001" y="401.00001169" width="39.00001754999994" height="25.00001691" class="text">3.15 </text>
<text x="976.99998825" y="402.00000496999996" width="39.99998261999997" height="25.000000099999966" class="text">3.28</text>
<text x="1018.00000731" y="402.00000496999996" width="7.000017179999986" height="25.000000099999966" class="text">; </text>
<text x="1025.9999895600001" y="403.00001506" width="105.99998486999993" height="27.00002028" class="text">Separation</text>
<text x="1135.99997745" y="402.00000496999996" width="7.000017179999986" height="25.000000099999966" class="text">: </text>
<text x="1149.99998802" y="403.00001506" width="18.00001358999998" height="25.000016910000056" class="text">30
</text>
<text x="1620.99997488" y="221.00001097" width="61.99997544000007" height="23.000013539999998" class="text">Office</text>
<text x="1686.9999771300002" y="221.00001097" width="6.00009969000007" height="23.000013539999998" class="text">: </text>
<text x="1700.9999639100001" y="221.00001097" width="157.0000828499999" height="23.000013539999998" class="text">WASHINGTON
</text>
<text x="1606.9999880999999" y="250.99999428" width="77.00007002999996" height="21.999986640000003" class="text">Service</text>
<text x="1686.9999771300002" y="250.99999428" width="6.00009969000007" height="21.999986640000003" class="text">: </text>
<text x="1704.00002565" y="250.99999428" width="71.99993541000003" height="21.999986640000003" class="text">Nielsen
</text>
<text x="1532.99995602" y="285.99999442" width="82.00006191000011" height="25.000000100000022" class="text">Primary </text>
<text x="1624.0000366200002" y="285.00000114" width="60.00002150999967" height="24.00000682000001" class="text">Demo</text>
<text x="1686.9999771300002" y="285.00000114" width="7.000064759999987" height="24.00000682000001" class="text">: </text>
<text x="1704.9999907200001" y="285.00000114" width="60.0000215099999" height="25.000000099999966" class="text">Adults </text>
<text x="1776.99992613" y="284.00000786000004" width="34.000120830000014" height="24.00000682000001" class="text">35+
</text>
<text x="1586.00005551" y="312.00000461" width="102.99999450000018" height="20.99999336000002" class="text">Assistant</text>
<text x="1686.9999771300002" y="312.00000461" width="6.00009969000007" height="20.99999336000002" class="text">: </text>
<text x="1704.9999907200001" y="312.00000461" width="110.00005925999972" height="20.99999336000002" class="text">SHANNON </text>
<text x="1825.0000337400002" y="312.00000461" width="84.99998090999998" height="20.99999336000002" class="text">YALLOF
</text>
<text x="1707.0000636" y="334.99998453" width="137.9999376600001" height="20.999976550000042" class="text">212-373-8131
</text>
<text x="1989.00003861" y="223.00001434" width="56.00001849" height="24.00000682000001" class="text">Total </text>
<text x="2047.99995231" y="224.00000762" width="60.0000215099999" height="25.000000099999994" class="text">Spots</text>
<text x="2112.9999657000003" y="224.00000762" width="7.000088549999418" height="24.00000682000001" class="text">: </text>
<text x="2134.00004103" y="224.00000762" width="18.00003738000032" height="24.00000682000001" class="text">20
</text>
<text x="2005.9999443899999" y="250.99999428" width="54.000064560000055" height="20.999976550000014" class="text">Total </text>
<text x="2065.00000083" y="251.99998756" width="42.000007919999916" height="21.999969829999998" class="text">CPP</text>
<text x="2110.00007049" y="251.99998756" width="5.999956950000069" height="20.999976549999985" class="text">: </text>
<text x="2131.00000308" y="251.99998756" width="5.999956950000069" height="20.999976549999985" class="text">$</text>
<text x="2143.00005972" y="251.99998756" width="40.99990011" height="20.999976549999985" class="text">0.00
</text>
<text x="2003.00004918" y="282.99999777" width="53.99992182000028" height="22.00000345000001" class="text">Total </text>
<text x="2064.00003576" y="284.00000786000004" width="43.99993805999975" height="22.000020260000042" class="text">GRP</text>
<text x="2111.00003556" y="284.00000786000004" width="5.999956950000069" height="22.000020260000042" class="text">:
</text>
<text x="2023.99998177" y="312.00000461" width="65.00001338999982" height="20.000000080000063" class="text">Traffic </text>
<text x="2097.99999006" y="312.00000461" width="5.999980739999955" height="20.000000080000063" class="text">#</text>
<text x="2112.0000006299997" y="313.0000147" width="5.999956950000524" height="20.000016889999984" class="text">: </text>
<text x="2130.00001422" y="313.0000147" width="86.9999348399997" height="20.000016889999984" class="text">2419937
</text>
<text x="514.00000743" y="291.00001125" width="111.00000054000009" height="34.00002366999996" class="text">GROUP
</text>
<text x="56.999997834000006" y="347.99999803000003" width="32.00000036999999" height="21.000010170000053" class="text">125 </text>
<text x="93.000001224" y="347.99999803000003" width="57.999998589000015" height="21.000010170000053" class="text">West </text>
<text x="155.000002833" y="347.99999803000003" width="38.99998900200001" height="21.000010170000053" class="text">55th </text>
<text x="207.000006408" y="347.99999803000003" width="21.999990441000023" height="21.000010170000053" class="text">St
</text>
<text x="52.999999572" y="374.00000822" width="36.999997008" height="24.00000682000001" class="text">New </text>
<text x="105.999999144" y="374.00000822" width="40.000001651999995" height="24.00000682000001" class="text">York</text>
<text x="150.99999981300002" y="374.00000822" width="7.000002905999963" height="24.00000682000001" class="text">, </text>
<text x="162.00000573900002" y="374.00000822" width="30.999999615000007" height="24.00000682000001" class="text">NY </text>
<text x="201.99999787500002" y="374.00000822" width="58.000008105000006" height="24.00000682000001" class="text">10019
</text>
<text x="1409.0000289299999" y="457.000022" width="24.999935610000193" height="20.00000007999995" class="text">3/9 </text>
<text x="1446.00002118" y="457.000022" width="5.999980739999955" height="20.00000007999995" class="text">- </text>
<text x="1460.99999682" y="457.000022" width="37.999981110000135" height="20.00000007999995" class="text">3/23
</text>
<text x="1926.99992043" y="461.00002874" width="53.00009949000014" height="22.00000345000001" class="text">Total
</text>
<text x="2061.99996288" y="462.00002202" width="58.00009136999961" height="22.00000344999995" class="text">Total
</text>
<text x="337.00000464" y="502.99998184" width="27.000008490000027" height="27.99999674999998" class="text">DP </text>
<text x="388.99999632000004" y="506.99998858" width="96.99998997" height="31.00001020999997" class="text">Program
</text>
<text x="877.0000316999999" y="489.99998515" width="49.999966380000046" height="21.000010169999996" class="text">A35P
</text>
<text x="800.00003304" y="501.99998856" width="46.99997601000007" height="21.000010170000053" class="text">Rate
</text>
<text x="861.00001962" y="515.9999953399999" width="70.00000526999997" height="25.000016909999943" class="text">Rating
</text>
<text x="960.99997617" y="499.99998518999996" width="37.00001603999999" height="19.000006799999994" class="text">Len
</text>
<text x="1025.9999895600001" y="500.99997847000003" width="25.00003076999974" height="20.000000080000063" class="text">3/9
</text>
<text x="1089.00000144" y="500.99997847000003" width="37.999981110000135" height="20.000000080000063" class="text">3/16 </text>
<text x="1159.00000671" y="500.99997847000003" width="39.00001754999994" height="20.000000080000063" class="text">3/23
</text>
<text x="1915.9999716" y="505.99997849" width="60.00004530000001" height="25.999993379999978" class="text">Spots
</text>
<text x="2107.99997382" y="500.99997847000003" width="4.99999188000038" height="19.000006799999994" class="text">$
</text>
<text x="2159.00000043" y="500.99997847000003" width="43.999938060000204" height="22.00000345000001" class="text">CPP</text>
<text x="2206.00000023" y="499.99998518999996" width="5.999956950000069" height="20.00000007999995" class="text">*
</text>
<text x="2253.9999651000003" y="501.99998856" width="46.00001093999981" height="22.00000345000001" class="text">GRP</text>
<text x="2303.0000377799997" y="501.99998856" width="5.999956950000069" height="22.00000345000001" class="text">*
</text>
<text x="134.000001252" y="504.99998521000003" width="7.000000526999997" height="26.000010190000012" class="text"># </text>
<text x="156.99999720600002" y="504.99998521000003" width="40.000011167999986" height="26.000010190000012" class="text">Day</text>
<text x="200.999992362" y="504.99998521000003" width="7.00000290600002" height="26.000010190000012" class="text">/</text>
<text x="207.99999526800002" y="505.99997849" width="50.000009202" height="27.000003469999967" class="text">Time
</text>
<text x="159.000005853" y="542.9999988100001" width="5.999997393000001" height="21.00001017000011" class="text">M</text>
<text x="176.000006793" y="542.9999988100001" width="5.999995014000007" height="21.00001017000011" class="text">-</text>
<text x="184.999999314" y="541.99998872" width="5.999995014000007" height="20.999993359999962" class="text">F
</text>
<text x="76.000002663" y="565.99999554" width="46.999995041999995" height="24.000006819999953" class="text">MSD </text>
<text x="136.999998759" y="565.99999554" width="6.000004530000012" height="22.999996729999907" class="text">1 </text>
<text x="161.000000226" y="567.00000563" width="32.000005128000026" height="24.000006819999953" class="text">12n</text>
<text x="196.00000286099998" y="567.00000563" width="5.999995014000035" height="23.000013540000054" class="text">-</text>
<text x="207.000006408" y="567.00000563" width="19.999998446999996" height="23.000013540000054" class="text">12</text>
<text x="228.999996849" y="567.00000563" width="5.999995013999978" height="23.000013540000054" class="text">:</text>
<text x="237.000002889" y="569.000009" width="35.00001215099999" height="24.000006819999953" class="text">30p
</text>
<text x="161.000000226" y="593.00001582" width="5.999995014000007" height="20.000016889999984" class="text">M</text>
<text x="176.99999327400002" y="593.00001582" width="6.00001404599999" height="20.000016889999984" class="text">-</text>
<text x="184.999999314" y="594.0000090999999" width="22.000007093999983" height="21.000010169999882" class="text">Tu
</text>
<text x="60.000000099" y="619.0000092" width="52.000003575" height="25.00000010000008" class="text">MGD </text>
<text x="122.999997705" y="618.00001592" width="21.999997578000006" height="23.000013540000054" class="text">10 </text>
<text x="161.000000226" y="618.00001592" width="32.000005128000026" height="23.000013540000054" class="text">12n</text>
<text x="197.000008374" y="619.0000092" width="5.999995014000007" height="22.99999673000002" class="text">-</text>
<text x="207.000006408" y="619.0000092" width="20.999984928000032" height="22.99999673000002" class="text">12</text>
<text x="228.999996849" y="619.0000092" width="5.999995013999978" height="22.99999673000002" class="text">:</text>
<text x="237.000002889" y="619.0000092" width="35.00001215099999" height="22.99999673000002" class="text">30p
</text>
<text x="389.99998518" y="562.99999889" width="59.99999771999995" height="20.00000007999995" class="text">News </text>
<text x="457.99998894000004" y="562.99999889" width="18.00003737999998" height="20.00000007999995" class="text">13 </text>
<text x="486.99999893999995" y="564.00000898" width="22.000016610000046" height="20.000016889999984" class="text">At </text>
<text x="511.99998213" y="564.00000898" width="50.0000139600001" height="20.000016889999984" class="text">Noon
</text>
<text x="768.9999739499999" y="564.00000898" width="6.0000283200000695" height="21.000010169999882" class="text">$</text>
<text x="779.99999415" y="565.99999554" width="68.00000376000003" height="22.999996729999907" class="text">500.00
</text>
<text x="922.0000062" y="562.0000056099999" width="4.999991879999925" height="17.00000342999988" class="text">0
</text>
<text x="976.00002318" y="562.99999889" width="21.99996902999999" height="20.00000007999995" class="text">30
</text>
<text x="1037.00000976" y="564.00000898" width="4.999991879999925" height="19.000006799999937" class="text">0
</text>
<text x="1074.0000258" y="567.00000563" width="66.99994352999988" height="24.000006819999953" class="text">54
</text>
<text x="1175.00001879" y="564.00000898" width="2.0000015099999473" height="21.000010169999882" class="text">0
</text>
<text x="1970.00003616" y="562.0000056099999" width="4.0000268100000085" height="16.000010149999866" class="text">4
</text>
<text x="2018.99998989" y="565.0000022600001" width="5.999956950000069" height="22.00000345000001" class="text">$</text>
<text x="2029.99993872" y="565.0000022600001" width="83.99999204999995" height="22.00000345000001" class="text">2,000.00
</text>
<text x="2159.00000043" y="565.0000022600001" width="5.999956950000069" height="22.00000345000001" class="text">$</text>
<text x="2171.00005707" y="567.00000563" width="40.99990011" height="24.000006819999953" class="text">0.00
</text>
<text x="2280.99999738" y="564.00000898" width="24.99993560999974" height="21.000010169999882" class="text">0.0
</text>
<text x="392.00001048" y="617.00002264" width="57.000007349999976" height="21.000010169999996" class="text">News </text>
<text x="455.99998743000003" y="617.00002264" width="21.99999281999999" height="21.000010169999996" class="text">13 </text>
<text x="485.99998629000004" y="617.00002264" width="24.000018119999993" height="21.000010169999996" class="text">At </text>
<text x="512.9999947800001" y="617.00002264" width="51.00000281999996" height="21.000010169999996" class="text">Noon
</text>
<text x="768.9999739499999" y="616.00001255" width="6.0000283200000695" height="21.000010169999996" class="text">$</text>
<text x="779.0000290800001" y="616.00001255" width="67.99997996999991" height="21.000010169999996" class="text">500.00
</text>
<text x="899.9999657999999" y="615.00001927" width="25.999995839999997" height="20.000016890000097" class="text">0.0 </text>
<text x="976.00002318" y="615.00001927" width="21.99996902999999" height="19.00000680000005" class="text">30
</text>
<text x="903.9999926099999" y="647.00002276" width="86.99998242000004" height="22.00000345000001" class="text">TOTALS</text>
<text x="995.00000184" y="647.00002276" width="5.999956949999955" height="22.00000345000001" class="text">:
</text>
<text x="1037.00000976" y="616.00001255" width="4.999991879999925" height="19.000006799999937" class="text">0
</text>
<text x="1037.00000976" y="646.00002948" width="4.999991879999925" height="19.000006799999937" class="text">2
</text>
<text x="1105.00001352" y="645.00001939" width="16.000012080000033" height="56.00001030999999" class="text">02
</text>
<text x="1175.00001879" y="615.00001927" width="5.9999569499998415" height="21.00001017000011" class="text">1
</text>
<text x="1175.00001879" y="645.00001939" width="5.9999569499998415" height="20.000000080000063" class="text">6
</text>
<text x="1971.00002502" y="615.00001927" width="4.999991879999925" height="19.00000680000005" class="text">1
</text>
<text x="1954.9999415700001" y="644.0000261099999" width="23.000005469999905" height="18.000013519999925" class="text">20
</text>
<text x="2037.00000348" y="617.00002264" width="5.999956950000069" height="21.000010169999996" class="text">$</text>
<text x="2047.99995231" y="617.00002264" width="68.00007512999991" height="23.000013540000054" class="text">500.00
</text>
<text x="2004.99997932" y="648.00001604" width="7.000064759999987" height="24.000006819999953" class="text">$</text>
<text x="2018.0000010299998" y="648.00001604" width="95.9999297400002" height="24.000006819999953" class="text">12,800.00
</text>
<text x="2159.00000043" y="616.00001255" width="5.999956950000069" height="20.00000007999995" class="text">$</text>
<text x="2168.99998419" y="616.00001255" width="42.99997299000006" height="22.00000345000001" class="text">0.00
</text>
<text x="2159.00000043" y="648.00001604" width="5.999956950000069" height="22.99999673000002" class="text">$</text>
<text x="2171.00005707" y="648.00001604" width="42.000007919999916" height="22.99999673000002" class="text">0.00
</text>
<text x="2277.99993564" y="614.00000918" width="27.99999734999983" height="20.000000080000063" class="text">0.0
</text>
<text x="2280.00000852" y="647.00002276" width="25.99992446999977" height="22.00000345000001" class="text">0.0
</text>
<text x="1096.9999599" y="645.00001939" width="26.000067209999997" height="19.00000680000005" class="text">12
</text>
<text x="46.999999800000005" y="738.99999287" width="44.999998289999986" height="19.00000680000005" class="text">Date</text>
<text x="96.999997107" y="738.99999287" width="4.999999016999993" height="19.00000680000005" class="text">/</text>
<text x="103.99999763400001" y="738.99999287" width="48.000007692" height="19.00000680000005" class="text">Time
</text>
<text x="46.999999800000005" y="772.99999973" width="82.99999843199998" height="20.000000080000063" class="text">03/19/20 </text>
<text x="141.99999777600001" y="772.99999973" width="41.000009543999994" height="20.999993359999962" class="text">4:50 </text>
<text x="190.00000784699998" y="772.00000645" width="28.99999096800005" height="20.00000007999995" class="text">PM
</text>
<text x="258.00000447" y="740.0000029600001" width="68.99999262" height="20.000016890000097" class="text">Action
</text>
<text x="258.99999333" y="776.00001319" width="50.00001396000005" height="26.000010190000012" class="text">Sent </text>
<text x="312.99998652" y="777.00000647" width="23.000005469999962" height="25.000000099999966" class="text">To </text>
<text x="343.00000917" y="778.0000165600001" width="40.99999527" height="26.000010190000012" class="text">Rep
</text>
<text x="540.99999213" y="742.99999961" width="67.00003869" height="26.000010190000012" class="text">Added </text>
<text x="617.00002572" y="745.00000298" width="27.999949769999944" height="25.00001691" class="text">by
</text>
<text x="540.99999213" y="772.00000645" width="89.99997279000002" height="21.000010169999996" class="text">Charlotte </text>
<text x="639.99998361" y="772.99999973" width="58.00002000000006" height="22.00000345000001" class="text">Kokel
</text>
<text x="1058.9999787900001" y="709.99998603" width="112.00001318999989" height="26.000010190000012" class="text">Makegood </text>
<text x="1180.9999757399999" y="708.9999927499999" width="112.99997826000026" height="26.000010189999898" class="text">Comments
</text>
<text x="754.99996338" y="740.0000029600001" width="103.00001828999996" height="20.000016890000097" class="text">Comment
</text>
<text x="753.00003324" y="776.00001319" width="33.99995430000001" height="26.000010190000012" class="text">MG </text>
<text x="798.00000774" y="776.00001319" width="32.99998922999998" height="26.000010190000012" class="text">due </text>
<text x="840.9999807300001" y="776.00001319" width="14.000010569999972" height="26.000010190000012" class="text">to </text>
<text x="866.0000115" y="777.00000647" width="44.000009429999864" height="26.000010190000012" class="text">CBS </text>
<text x="918.00000318" y="777.00000647" width="56.99995977000003" height="26.000010190000012" class="text">News </text>
<text x="981.99998013" y="777.00000647" width="76.99999866000007" height="26.000010190000012" class="text">Special </text>
<text x="1060.9999803" y="778.0000165600001" width="70.00002905999986" height="27.000020280000058" class="text">Report </text>
<text x="1137.00003768" y="778.0000165600001" width="6.999993389999872" height="26.000010190000012" class="text">(</text>
<text x="1142.99999463" y="778.0000165600001" width="117.00000507000004" height="26.000010190000012" class="text">coronavirus</text>
<text x="1261.99992984" y="778.0000165600001" width="7.000064759999987" height="26.000010190000012" class="text">)
</text>
<text x="42.000000783" y="1660.99999992" width="83.999994429" height="28.999956409999868" class="text">Printed </text>
<text x="136.999998759" y="1660.99999992" width="28.000004487000012" height="28.999956409999868" class="text">on </text>
<text x="170.99999826" y="1660.99999992" width="128.99999033999998" height="28.999956409999868" class="text">03/23/2020 </text>
<text x="309.00000729000004" y="1660.99999992" width="21.99999281999993" height="28.999956409999868" class="text">at </text>
<text x="337.00000464" y="1660.99999992" width="65.99997845999997" height="28.999956409999868" class="text">02:46 </text>
<text x="407.99997498" y="1660.99999992" width="37.00001603999999" height="28.999956409999868" class="text">PM </text>
<text x="455.00002236" y="1660.99999992" width="7.999958459999959" height="28.999956409999868" class="text">| </text>
<text x="469.99997421" y="1660.99999992" width="8.000006040000017" height="28.999956409999868" class="text">* </text>
<text x="488.00001159" y="1660.99999992" width="57.00000735000003" height="28.999956409999868" class="text">Stats </text>
<text x="553.99999005" y="1660.99999992" width="75.00004473000001" height="28.999956409999868" class="text">based </text>
<text x="634.9999917299999" y="1660.99999992" width="32.000024160000066" height="28.999956409999868" class="text">on </text>
<text x="676.99999965" y="1660.99999992" width="88.00001886000007" height="28.999956409999868" class="text">Primary </text>
<text x="777.0000037799999" y="1660.99999992" width="68.99996883000006" height="28.999956409999868" class="text">Demo
</text>
<text x="2181.0000408299998" y="1662.00004363" width="62.999940510000215" height="30.000000119999868" class="text">Page </text>
<text x="2253.9999651000003" y="1658.99999655" width="8.99999489999982" height="28.000013560000298" class="text">1 </text>
<text x="2271.99997869" y="1658.99999655" width="27.00003228000014" height="30.00001693000013" class="text">of </text>
<text x="2307.00006459" y="1656.99999318" width="8.99999489999982" height="28.00001356000007" class="text">1
</text>
</g>
</svg>
