<svg xmlns="http://www.w3.org/2000/svg">
<style>.text { font-size: 14px; font-family: Arial, sans-serif; }</style>
<g id="page-0" transform="translate(0, 0)">
<rect width="2275" height="1758" fill="none" stroke="black" />
<text x="2028.00004225" y="78.999998424" width="54.999990500000195" height="25.999999013999997" class="text">Page </text>
<text x="2108.99996125" y="77.000000934" width="7.000106750000214" height="24.99999939" class="text">1 </text>
<text x="2130.0000085" y="77.000000934" width="23.000022499999886" height="24.99999939" class="text">of </text>
<text x="2163.99995175" y="77.000000934" width="7.000106749999759" height="24.99999939" class="text">2
</text>
<text x="1068.000024" y="101.999996808" width="179.99993375000008" height="37.999998018000014" class="text">INVOICE
</text>
<text x="48.999998774999995" y="238.00000896" width="162.99999624999998" height="90.00000835200001" class="text">FOX </text>
<text x="241.9999855" y="236.99998824000002" width="81.00003275000003" height="87.99998449200001" class="text">22
</text>
<text x="345.99999525" y="110.99999693999999" width="62.00000625000007" height="21.999995243999976" class="text">Remit </text>
<text x="415.9999935" y="110.99999693999999" width="87.99998024999996" height="21.999995243999976" class="text">Address</text>
<text x="510.00001325" y="110.99999693999999" width="5.999971249999987" height="21.999995243999976" class="text">:
</text>
<text x="336.9999815" y="150.00000513" width="88.00002574999996" height="27.000007428000004" class="text">WFVX</text>
<text x="428.00000425" y="150.00000513" width="7.999991999999963" height="27.000007428000004" class="text">-</text>
<text x="440.000015" y="150.00000513" width="28.999971000000016" height="27.000007428000004" class="text">TV
</text>
<text x="345.99999525" y="189.99999888" width="45.000000500000056" height="30.999998892000008" class="text">371 </text>
<text x="417.00001525" y="189.99999888" width="90.99997724999997" height="32.000002032" class="text">Target </text>
<text x="514.00000925" y="188.99999574" width="129.9999610000001" height="32.000000274" class="text">Industrial </text>
<text x="652.999984" y="188.99999574" width="74.00001699999996" height="30.999998892000008" class="text">Circle
</text>
<text x="341.9999765" y="224.00000016" width="102.00001175" height="32.00001258" class="text">Bangor</text>
<text x="445.99998625" y="221.99999387999998" width="9.000013749999994" height="30.999991859999966" class="text">, </text>
<text x="457.999997" y="221.99999387999998" width="45.99997674999997" height="31.999994999999984" class="text">ME </text>
<text x="520.9999795" y="221.99999387999998" width="77.99999025" height="32.999998139999974" class="text">04401
</text>
<text x="342.99999825000003" y="259.00000458" width="59.000009250000005" height="32.00001258" class="text">Main</text>
<text x="409.0000005" y="259.00000458" width="8.999991000000023" height="32.00001258" class="text">: </text>
<text x="443.99998825" y="259.00000458" width="9.000013749999994" height="32.00001258" class="text">(</text>
<text x="455.999999" y="259.00000458" width="45.0000005" height="32.00001258" class="text">207</text>
<text x="502.00002125000003" y="259.00000458" width="8.999968249999995" height="32.00001258" class="text">) </text>
<text x="519.000027" y="259.00000458" width="118.99997199999996" height="32.00001258" class="text">945-6457
</text>
<text x="342.99999825000003" y="294.99999456" width="85.99998224999996" height="34.00000127999999" class="text">Billing</text>
<text x="432.000023" y="293.99999141999996" width="8.999968249999995" height="31.999977419999937" class="text">: </text>
<text x="448.000007" y="293.00000586" width="9.000013749999994" height="32.000012579999975" class="text">(</text>
<text x="458.999996" y="293.00000586" width="44.99997774999997" height="32.99999814" class="text">207</text>
<text x="505.9999945" y="293.00000586" width="9.000013749999937" height="32.000012579999975" class="text">) </text>
<text x="523.00000025" y="293.00000586" width="122.00003724999999" height="35.00000441999998" class="text">945-6457
</text>
<text x="1025.9999977500001" y="183.99999762" width="104.99998599999981" height="21.999991727999998" class="text">Advertiser
</text>
<text x="1024.0000225000001" y="216.99999576" width="84.00000699999987" height="20.999995619999993" class="text">Product
</text>
<text x="1024.99999875" y="253.00000332000002" width="86.99998125000002" height="21.99999876000004" class="text">Estimate </text>
<text x="1121.9999699999998" y="253.00000332000002" width="82.00003175000006" height="21.99999876000004" class="text">Number
</text>
<text x="1234.00001725" y="187.99999259999998" width="53.999923250000165" height="25.999986707999994" class="text">Clean </text>
<text x="1297.99995325" y="187.99999259999998" width="71.00004274999992" height="25.999986707999994" class="text">Energy </text>
<text x="1377.9999415" y="187.99999259999998" width="73.00001799999995" height="25.999986707999994" class="text">Matters
</text>
<text x="1230.99997475" y="216.99999576" width="61.99998349999987" height="19.999992479999975" class="text">Ballot </text>
<text x="1295.9999779999998" y="216.99999576" width="54.00008250000019" height="19.999992479999975" class="text">Issue
</text>
<text x="1680.999957" y="148.000000608" width="76.00003775000005" height="20.000004786000005" class="text">Invoice </text>
<text x="1767.0000075" y="148.000000608" width="6.000039499999957" height="20.000004786000005" class="text">#
</text>
<text x="1683.00006875" y="181.99999134" width="68.99993099999983" height="19.999985448000018" class="text">Invoice </text>
<text x="1758.9999699999998" y="182.99999448" width="46.0000677500002" height="20.999988588000008" class="text">Date
</text>
<text x="1680.00002625" y="216.99999576" width="68.99995375000003" height="20.999995619999993" class="text">Invoice </text>
<text x="1758.000062" y="216.99999576" width="62.999891499999876" height="20.999995619999993" class="text">Month
</text>
<text x="1680.00002625" y="252.00001776000002" width="73.00004074999993" height="21.99999876000004" class="text">Invoice </text>
<text x="1758.9999699999998" y="252.00001776000002" width="66.00004775000025" height="21.99999876000004" class="text">Period
</text>
<text x="1885.999934" y="150.00000513" width="130.00000649999993" height="23.000010689999996" class="text">FF20040160
</text>
<text x="1888.9999765" y="182.99999448" width="84.00007525000001" height="20.999988588000008" class="text">04/26/20
</text>
<text x="1887.00000125" y="221.99999387999998" width="46.999975749999976" height="26.99999687999997" class="text">April </text>
<text x="1940.9999472499999" y="219.99998760000003" width="49.00006475000032" height="26.999996880000026" class="text">2020
</text>
<text x="1887.00000125" y="253.00000332000002" width="86.99995850000005" height="21.99999876000004" class="text">03/30/20 </text>
<text x="1983.9999725" y="253.00000332000002" width="6.0000395000001845" height="21.99999876000004" class="text">- </text>
<text x="1998.0000495" y="253.00000332000002" width="86.99995850000005" height="21.99999876000004" class="text">04/06/20
</text>
<text x="80.000004175" y="267.99999768" width="81.99999307499998" height="34.99998683999999" class="text">WFVX </text>
<text x="180.9999919" y="267.99999768" width="122.00002360000002" height="36.99999312" class="text">BANGOR
</text>
<text x="1232.0000420000001" y="252.00001776000002" width="51.999970749999875" height="20.000027640000013" class="text">8131
</text>
<text x="1680.999957" y="320.00000274" width="58.00001025000006" height="19.999992480000003" class="text">Order </text>
<text x="1748.00004925" y="320.00000274" width="5.999925750000102" height="19.999992480000003" class="text">#
</text>
<text x="1683.99997675" y="354.99998958" width="23.000022499999886" height="20.999978039999974" class="text">Alt </text>
<text x="1715.00003675" y="354.99998958" width="58.999941000000035" height="20.999978039999974" class="text">Order </text>
<text x="1780.999948" y="354.00000402" width="6.0000622500001555" height="21.000013200000012" class="text">#
</text>
<text x="1885.999934" y="320.9999883" width="51.0000627500001" height="19.999992480000003" class="text">8978
</text>
<text x="1887.00000125" y="354.99998958" width="101.00003549999997" height="21.999998759999983" class="text">26889199
</text>
<text x="1025.9999977500001" y="327.9999927" width="84.00000699999987" height="29.000003160000006" class="text">Property
</text>
<text x="1227.00002425" y="320.9999883" width="70.99992900000007" height="19.999992480000003" class="text">WFVX</text>
<text x="1300.000065" y="320.9999883" width="5.999903000000131" height="19.999992480000003" class="text">-</text>
<text x="1310.000055" y="320.9999883" width="21.999978000000056" height="19.999992480000003" class="text">TV
</text>
<text x="1025.9999977500001" y="359.00000214" width="87.00002674999973" height="26.99999687999997" class="text">Account </text>
<text x="1116.999975" y="359.00000214" width="95.00006425000015" height="26.99999687999997" class="text">Executive </text>
<text x="1234.00001725" y="359.00000214" width="41.999958000000106" height="26.00001132" class="text">Katz </text>
<text x="1284.00001275" y="359.99998769999996" width="118.0000184999999" height="26.99999687999997" class="text">Washington
</text>
<text x="1025.9999977500001" y="390.99999714" width="57.000033999999914" height="22.99998432000001" class="text">Sales </text>
<text x="1090.99997825" y="390.99999714" width="56.9999885000002" height="22.99998432000001" class="text">Office </text>
<text x="1230.99997475" y="394.99999212" width="45.00000049999994" height="28.000000020000016" class="text">Katz</text>
<text x="1280.00006225" y="394.99999212" width="7.999878250000165" height="26.999979300000007" class="text">-</text>
<text x="1282.0000375" y="396.9999984" width="121.99996899999996" height="30.000006299999995" class="text">Washington
</text>
<text x="1026.9999739999998" y="428.9999934" width="57.00003400000014" height="27.999982439999997" class="text">Sales </text>
<text x="1088.00002675" y="430.99999968" width="72.00004175000004" height="29.000003160000006" class="text">Region
</text>
<text x="1232.99995" y="424.99998084000003" width="86.00005050000004" height="21.99998118000002" class="text">National
</text>
<text x="1680.999957" y="389.999994" width="49.99999550000007" height="21.99998118000002" class="text">Deal </text>
<text x="1735.9999475" y="389.00000844" width="6.0000622500001555" height="20.000010059999966" class="text">#
</text>
<text x="1680.999957" y="428.00000784" width="59.00007749999986" height="29.000003160000006" class="text">Order </text>
<text x="1748.00004925" y="430.00001412" width="57.99989649999998" height="29.000003160000006" class="text">Flight
</text>
<text x="217.999998125" y="428.9999934" width="68.00001162500001" height="29.000003160000006" class="text">Billing </text>
<text x="295.99999975000003" y="428.00000784" width="90.000001" height="28.000017600000035" class="text">Address</text>
<text x="390.99999575000004" y="426.99998711999996" width="7.999991999999963" height="26.99999687999997" class="text">:
</text>
<text x="1885.999934" y="424.99998084000003" width="89.00009299999988" height="22.999984320000067" class="text">03/31/20 </text>
<text x="1983.9999725" y="424.99998084000003" width="6.0000395000001845" height="22.999984320000067" class="text">- </text>
<text x="1996.9999822500001" y="424.99998084000003" width="86.00005050000004" height="22.999984320000067" class="text">04/06/20
</text>
<text x="1232.0000420000001" y="493.00000098000004" width="105.99989399999981" height="22.00001634000006" class="text">Broadcast
</text>
<text x="221.00000649999998" y="487.99998528" width="79.00001200000003" height="22.99998432000001" class="text">GMMB
</text>
<text x="222.999997675" y="521.99998656" width="108.000012575" height="29.999988720000033" class="text">Attention</text>
<text x="333.9999845" y="521.00001858" width="7.99999200000002" height="28.00001759999992" class="text">: </text>
<text x="350.99999025" y="522.9999897" width="112.00000175000002" height="29.999988719999976" class="text">Accounts </text>
<text x="473.999981" y="524.00001042" width="91.00002275000003" height="29.999988720000033" class="text">Payable
</text>
<text x="221.999994125" y="546.99999474" width="53.000003875000004" height="21.9999636" class="text">3050 </text>
<text x="288.00000774999995" y="546.99999474" width="5.999994000000015" height="21.9999636" class="text">K </text>
<text x="311.0000075" y="546.99999474" width="73.99999425000004" height="22.999984320000067" class="text">Street </text>
<text x="388.99999775" y="545.99997402" width="31.99999075000005" height="21.9999636" class="text">NW
</text>
<text x="216.00000695" y="583.99998786" width="147.99999305" height="31.000009439999985" class="text">Washington</text>
<text x="367.999996" y="582.00001674" width="7.99999200000002" height="28.00001759999998" class="text">, </text>
<text x="380.00000675" y="582.00001674" width="37.00000849999998" height="28.00001759999998" class="text">DC </text>
<text x="435.99999625" y="582.00001674" width="71.99999624999998" height="29.999988720000033" class="text">20007
</text>
<text x="1025.9999977500001" y="497.99998152" width="60.99998449999998" height="27.999964859999977" class="text">Billing </text>
<text x="1095.999996" y="497.00001354" width="93.00002074999998" height="29.000020740000025" class="text">Calendar
</text>
<text x="1025.9999977500001" y="532.99998594" width="59.999985499999866" height="25.999976160000017" class="text">Billing </text>
<text x="1095.999996" y="532.99998594" width="48.000020250000034" height="25.999976160000017" class="text">Type
</text>
<text x="1028.00004125" y="566.99998722" width="76.9999684999998" height="25.999976160000074" class="text">Special </text>
<text x="1105.999986" y="566.99998722" width="91.00004549999994" height="25.999976160000074" class="text">Handling
</text>
<text x="1232.99995" y="528.0000229799999" width="48.00002025000026" height="21.000013199999955" class="text">Cash
</text>
<text x="1680.00002625" y="497.99998152" width="76.99996850000002" height="28.999967999999967" class="text">Agency </text>
<text x="1763.999965" y="495.99999281999993" width="54.00008250000019" height="26.999979299999893" class="text">Code
</text>
<text x="1683.00006875" y="528.99999096" width="101.99996624999994" height="23.000001899999972" class="text">Advertiser </text>
<text x="1790.999938" y="528.0000229799999" width="54.00008249999996" height="23.000037059999954" class="text">Code
</text>
<text x="1680.00002625" y="561.00000354" width="81.99998624999989" height="19.99999248000006" class="text">Product </text>
<text x="1770.999958" y="562.00002426" width="24.99999774999992" height="19.99999248000006" class="text">1/2
</text>
<text x="1887.00000125" y="527.00000226" width="36.000054999999975" height="19.000024499999938" class="text">524
</text>
<text x="1888.00004575" y="561.00000354" width="36.99998574999995" height="19.99999248000006" class="text">560
</text>
<text x="1682.0000015" y="637.99998162" width="74.99999324999999" height="30.999956699999984" class="text">Agency </text>
<text x="1763.999965" y="634.9999897800001" width="39.00009750000004" height="27.99996486000009" class="text">Ref
</text>
<text x="1680.999957" y="667.00000236" width="104.99998600000004" height="22.000016340000002" class="text">Advertiser </text>
<text x="1790.00003" y="667.00000236" width="40.00000550000004" height="22.000016340000002" class="text">Ref
</text>
<text x="819.00002275" y="737.99999676" width="45.000000500000056" height="24.00000504000002" class="text">Day
</text>
<text x="940.99999175" y="736.0000080599999" width="45.00000049999994" height="21.0000131999999" class="text">Date
</text>
<text x="1070.9999982499999" y="740.00002062" width="71.00004275000015" height="26.999996880000026" class="text">Length </text>
<text x="1167.99994675" y="738.9999999" width="29.000084750000042" height="25.999976160000074" class="text">Air </text>
<text x="1207.99995225" y="738.9999999" width="49.00008750000006" height="26.999996880000026" class="text">Time
</text>
<text x="1310.000055" y="736.0000080599999" width="27.99988099999996" height="22.00001633999989" class="text">Ad</text>
<text x="1342.0000229999998" y="736.0000080599999" width="5.999925750000102" height="22.00001633999989" class="text">-</text>
<text x="1347.000018" y="736.0000080599999" width="16.99998299999993" height="22.00001633999989" class="text">ID
</text>
<text x="1585.00003025" y="737.00002878" width="43.999955999999884" height="22.000033919999964" class="text">Rate
</text>
<text x="1730.9999525" y="736.0000080599999" width="154.0000735000001" height="22.999984319999953" class="text">Reconciliation
</text>
<text x="56.999999875" y="734.9999873400001" width="43.000002499999994" height="21.999963600000115" class="text">Line
</text>
<text x="57.999998875" y="765.9999967800001" width="4.999999549999998" height="18.999971760000108" class="text">1
</text>
<text x="2125.0000135" y="736.0000080599999" width="43.00002524999991" height="22.00001633999989" class="text">Ref </text>
<text x="2173.99994175" y="734.9999873400001" width="6.0000622500001555" height="20.99999562000005" class="text">#
</text>
<text x="131.000003225" y="738.9999999" width="91.99999445" height="28.000000020000016" class="text">Channel </text>
<text x="241.00000925" y="740.9999885999999" width="122.99999075" height="28.99998557999993" class="text">Description
</text>
<text x="121.99999857499999" y="767.9999679" width="67.000003525" height="20.99994288000005" class="text">WFVX </text>
<text x="233.9999935" y="773.00000118" width="57.9999875" height="25.999976160000074" class="text">Good </text>
<text x="303.0000155" y="773.00000118" width="88.99997925000002" height="25.999976160000074" class="text">Morning </text>
<text x="398.99998775" y="773.00000118" width="33.000035249999996" height="25.999976160000074" class="text">ME
</text>
<text x="587.99998075" y="736.0000080599999" width="50.99999449999996" height="21.0000131999999" class="text">Time
</text>
<text x="587.0000044999999" y="768.9999886200001" width="43.00002525000002" height="21.999963600000115" class="text">6:00 </text>
<text x="641.00001875" y="768.9999886200001" width="26.999973000000068" height="21.999963600000115" class="text">AM</text>
<text x="677.0000055" y="768.9999886200001" width="5.9999712499999305" height="21.999963600000115" class="text">-</text>
<text x="686.00001925" y="768.9999886200001" width="5.9999712499999305" height="21.999963600000115" class="text">7</text>
<text x="697.0000082500001" y="768.9999886200001" width="5.9999712499999305" height="21.999963600000115" class="text">:</text>
<text x="702.00000325" y="768.9999886200001" width="24.999997750000034" height="21.999963600000115" class="text">00 </text>
<text x="733.9999712499999" y="768.9999886200001" width="32.000036249999994" height="21.999963600000115" class="text">AM
</text>
<text x="118.000002575" y="826.9999949400001" width="68.99999242500002" height="21.000013200000012" class="text">WFVX
</text>
<text x="120.000000575" y="853.99999182" width="67.99999797500001" height="21.999981179999963" class="text">WFVX
</text>
<text x="120.000000575" y="881.0000238599999" width="67.99999797500001" height="20.999995619999936" class="text">WFVX
</text>
<text x="120.9999973" y="907.999968" width="68.00000479999999" height="22.000016340000002" class="text">WFVX
</text>
<text x="120.000000575" y="941.0000013" width="67.99999797500001" height="22.000016340000116" class="text">WFVX
</text>
<text x="820.00002175" y="799.99999806" width="86.99995850000005" height="22.999984320000067" class="text">03/31/20 </text>
<text x="915.00001775" y="799.99999806" width="16.99996024999996" height="22.999984320000067" class="text">to </text>
<text x="940.0000155" y="799.99999806" width="90.00000099999988" height="22.999984320000067" class="text">04/06/20
</text>
<text x="822.99997325" y="827.99999808" width="22.00004624999997" height="20.999995619999936" class="text">Tu
</text>
<text x="940.99999175" y="826.9999949400001" width="87.00004950000005" height="19.99999248000006" class="text">03/31/20
</text>
<text x="822.99997325" y="853.00002384" width="6.000062249999928" height="21.000013200000012" class="text">W
</text>
<text x="940.0000155" y="854.99999496" width="86.99995849999982" height="22.000016340000002" class="text">04/01/20
</text>
<text x="824.0000405" y="879.99996798" width="5.999971250000044" height="19.999939739999945" class="text">F
</text>
<text x="940.0000155" y="879.99996798" width="85.99998225000013" height="21.999981179999963" class="text">04/03/20
</text>
<text x="825.00001675" y="906.0000496200001" width="4.999995000000013" height="19.00002450000011" class="text">M
</text>
<text x="941.99999075" y="907.999968" width="84.99998324999979" height="22.000016340000002" class="text">04/06/20
</text>
<text x="1098.0000395" y="798.99997734" width="23.99993049999989" height="18.999971759999994" class="text">4x
</text>
<text x="1071.9999745" y="826.9999949400001" width="6.000062249999928" height="19.99999248000006" class="text">:</text>
<text x="1078.00003675" y="826.9999949400001" width="21.999955250000085" height="19.99999248000006" class="text">30
</text>
<text x="1070.9999982499999" y="853.99999182" width="5.9999712500002715" height="21.000013200000012" class="text">:</text>
<text x="1080.99998825" y="853.99999182" width="18.000027500000215" height="21.000013200000012" class="text">30
</text>
<text x="1070.9999982499999" y="879.99996798" width="5.9999712500002715" height="20.999960459999897" class="text">:</text>
<text x="1080.99998825" y="879.99996798" width="18.000027500000215" height="20.999960459999897" class="text">30
</text>
<text x="1070.9999982499999" y="907.0000176000001" width="7.000038500000073" height="19.99999248000006" class="text">:</text>
<text x="1080.000012" y="906.0000496200001" width="19.000003750000133" height="21.000065940000127" class="text">30
</text>
<text x="1165.0000635000001" y="798.99997734" width="81.99996349999992" height="19.999992479999946" class="text">MTWTF--
</text>
<text x="1185.00006625" y="827.99999808" width="45.00000049999994" height="19.999992479999946" class="text">6:58 </text>
<text x="1235.99996975" y="826.9999949400001" width="29.000084750000042" height="19.99999248000006" class="text">AM
</text>
<text x="1185.99997425" y="854.99999496" width="43.000025250000135" height="22.000016340000002" class="text">6:58 </text>
<text x="1237.999945" y="854.99999496" width="27.000109500000008" height="22.000016340000002" class="text">AM
</text>
<text x="1185.00006625" y="879.99996798" width="46.9999757500002" height="20.999960459999897" class="text">6:31 </text>
<text x="1239.00001225" y="881.0000238599999" width="26.999972999999954" height="22.00001633999989" class="text">AM
</text>
<text x="1185.99997425" y="907.999968" width="43.000025250000135" height="22.000016340000002" class="text">6:58 </text>
<text x="1237.999945" y="907.999968" width="27.000109500000008" height="22.000016340000002" class="text">AM
</text>
<text x="1315.99998075" y="827.99999808" width="104.0000779999998" height="17.00000063999994" class="text">CEM20104H
</text>
<text x="1315.99998075" y="853.99999182" width="106.00005325000006" height="17.999968620000004" class="text">CEM20104H
</text>
<text x="1317.00002525" y="879.99996798" width="105.00000875000023" height="17.999968620000004" class="text">CEM20104H
</text>
<text x="1315.99998075" y="907.999968" width="106.99996124999984" height="17.00000063999994" class="text">CEM20104H
</text>
<text x="1655.0000284999999" y="827.99999808" width="5.99992575000033" height="20.999995619999936" class="text">$</text>
<text x="1663.999974" y="827.99999808" width="55.00001324999994" height="20.999995619999936" class="text">40.00
</text>
<text x="1655.0000284999999" y="854.99999496" width="5.99992575000033" height="22.000016340000002" class="text">$</text>
<text x="1663.999974" y="854.99999496" width="56.99998849999997" height="22.000016340000002" class="text">40.00
</text>
<text x="1655.0000284999999" y="881.0000238599999" width="5.99992575000033" height="22.00001633999989" class="text">$</text>
<text x="1663.999974" y="881.0000238599999" width="56.99998849999997" height="22.00001633999989" class="text">40.00
</text>
<text x="1653.00005325" y="907.0000176000001" width="5.999925749999875" height="21.000065940000127" class="text">$</text>
<text x="1663.999974" y="907.999968" width="56.000057749999996" height="22.000016340000002" class="text">40.00
</text>
<text x="2178.00002875" y="825.99997422" width="4.999994999999672" height="18.999971759999994" class="text">2
</text>
<text x="2178.00002875" y="852.00000312" width="4.999994999999672" height="17.00000063999994" class="text">1
</text>
<text x="2176.0000535" y="879.99996798" width="4.999995000000126" height="18.999989339999956" class="text">4
</text>
<text x="2176.99998425" y="906.0000496200001" width="6.00003949999973" height="20.000097960000176" class="text">3
</text>
<text x="59.000002425000005" y="938.9999774400001" width="2.9999969999999934" height="22.000016340000116" class="text">2
</text>
<text x="233.9999935" y="943.0000427399999" width="40.000005500000015" height="26.000081639999962" class="text">Fox </text>
<text x="282.99998999999997" y="944.99996112" width="62.00002900000004" height="28.000000020000016" class="text">News </text>
<text x="356.000008" y="944.99996112" width="6.999993000000018" height="25.999976160000074" class="text">@</text>
<text x="375.99998800000003" y="944.99996112" width="19.00002649999999" height="25.999976160000074" class="text">7a
</text>
<text x="587.0000044999999" y="940.0000509" width="43.00002525000002" height="22.000033920000078" class="text">7:00 </text>
<text x="637.999999" y="940.0000509" width="32.00003625000011" height="22.000033920000078" class="text">AM</text>
<text x="675.00003025" y="940.0000509" width="5.9999939999999015" height="22.000033920000078" class="text">-</text>
<text x="683.99997575" y="940.0000509" width="6.000062250000042" height="22.000033920000078" class="text">8</text>
<text x="697.0000082500001" y="940.0000509" width="5.9999712499999305" height="22.000033920000078" class="text">:</text>
<text x="703.9999785" y="940.0000509" width="20.00000275000002" height="22.000033920000078" class="text">00 </text>
<text x="736.00001475" y="940.0000509" width="26.999973000000068" height="22.000033920000078" class="text">AM
</text>
<text x="820.00002175" y="972.00001074" width="86.99995850000005" height="22.999984320000067" class="text">03/31/20 </text>
<text x="915.00001775" y="972.00001074" width="16.99996024999996" height="22.999984320000067" class="text">to </text>
<text x="940.0000155" y="972.00001074" width="90.00000099999988" height="22.999984320000067" class="text">04/06/20
</text>
<text x="822.99997325" y="997.9999869000001" width="22.00004624999997" height="19.000024499999995" class="text">Tu
</text>
<text x="941.99999075" y="998.99995488" width="84.99998324999979" height="18.999919020000107" class="text">03/31/20
</text>
<text x="821.999997" y="1023.99996306" width="5.9999712499999305" height="19.999992479999946" class="text">W
</text>
<text x="940.0000155" y="1026.0000045000002" width="85.99998225000013" height="20.99996046000024" class="text">04/01/20
</text>
<text x="822.99997325" y="1051.9999806600001" width="22.00004624999997" height="19.00002450000011" class="text">Th
</text>
<text x="940.99999175" y="1053.00005412" width="87.00004950000005" height="23.000107379999918" class="text">04/02/20
</text>
<text x="824.0000405" y="1077.99995682" width="4.999995000000013" height="18.999919020000107" class="text">F
</text>
<text x="940.99999175" y="1079.9999806800001" width="87.00004950000005" height="22.999984320000067" class="text">04/03/20
</text>
<text x="118.99999702500001" y="997.9999869000001" width="70.00000507499998" height="19.99999248000006" class="text">WFVX
</text>
<text x="120.000000575" y="1026.0000045000002" width="67.99999797500001" height="22.000033920000078" class="text">WFVX
</text>
<text x="118.99999702500001" y="1051.9999806600001" width="66.99999442499997" height="20.99996046000024" class="text">WFVX
</text>
<text x="118.000002575" y="1079.00003028" width="68.99999242500002" height="21.000065940000013" class="text">WFVX
</text>
<text x="121.99999857499999" y="1110.9999901200001" width="67.000003525" height="20.99996046000024" class="text">WFVX
</text>
<text x="1096.99997225" y="971.00004276" width="26.000065000000177" height="19.000024499999995" class="text">4x
</text>
<text x="1073.00004175" y="997.9999869000001" width="4.999994999999899" height="19.000024499999995" class="text">:</text>
<text x="1079.000013" y="997.9999869000001" width="21.999977999999828" height="19.000024499999995" class="text">30
</text>
<text x="1069.99999925" y="1026.0000045000002" width="5.999994000000015" height="20.99996046000024" class="text">:</text>
<text x="1079.000013" y="1026.0000045000002" width="21.999977999999828" height="20.99996046000024" class="text">30
</text>
<text x="1071.9999745" y="1051.0000126799998" width="6.000062249999928" height="19.999992479999946" class="text">:</text>
<text x="1078.00003675" y="1051.0000126799998" width="21.999955250000085" height="19.999992479999946" class="text">30
</text>
<text x="1070.9999982499999" y="1079.00003028" width="5.9999712500002715" height="21.000065940000013" class="text">:</text>
<text x="1080.99998825" y="1079.00003028" width="18.000027500000215" height="21.000065940000013" class="text">30
</text>
<text x="1165.0000635000001" y="971.00004276" width="81.99996349999992" height="20.000097960000062" class="text">MTWTF--
</text>
<text x="1189.00001675" y="1000.0000283400001" width="39.99998275000007" height="21.000065940000013" class="text">7:30 </text>
<text x="1239.00001225" y="1000.0000283400001" width="26.999972999999954" height="21.000065940000013" class="text">AM
</text>
<text x="1190.00006125" y="1026.0000045000002" width="37.999893749999956" height="20.99996046000024" class="text">7:49 </text>
<text x="1237.000037" y="1026.0000045000002" width="30.999923500000023" height="20.99996046000024" class="text">AM
</text>
<text x="1190.9999919999998" y="1053.00005412" width="39.9999827500003" height="21.000065940000013" class="text">7:43 </text>
<text x="1237.000037" y="1051.9999806600001" width="30.999923500000023" height="20.99996046000024" class="text">AM
</text>
<text x="1189.00001675" y="1077.99995682" width="38.999938250000014" height="19.999992480000174" class="text">7:20 </text>
<text x="1237.000037" y="1079.00003028" width="28.99994824999999" height="19.999992479999946" class="text">AM
</text>
<text x="2176.99998425" y="997.9999869000001" width="4.999995000000126" height="19.000024499999995" class="text">2
</text>
<text x="2176.99998425" y="1023.99996306" width="6.00003949999973" height="20.99994288000005" class="text">3
</text>
<text x="1314.0000055" y="997.9999869000001" width="108.99993649999988" height="16.0000326600001" class="text">CEM20104H
</text>
<text x="1315.99998075" y="1026.0000045000002" width="106.99996124999984" height="17.999968620000118" class="text">CEM20104H
</text>
<text x="1317.00002525" y="1051.0000126799998" width="105.00000875000023" height="16.00003265999976" class="text">CEM20104H
</text>
<text x="1314.0000055" y="1079.00003028" width="106.99996125000007" height="18.000074099999892" class="text">CEM20104H
</text>
<text x="1653.00005325" y="1000.0000283400001" width="5.999925749999875" height="21.000065940000013" class="text">$</text>
<text x="1663.000066" y="1000.0000283400001" width="56.99996575" height="21.000065940000013" class="text">40.00
</text>
<text x="1653.00005325" y="1025.0000365199999" width="5.999925749999875" height="21.000065939999786" class="text">$</text>
<text x="1663.000066" y="1026.9999549" width="56.99996575" height="22.99998431999984" class="text">40.00
</text>
<text x="1655.0000284999999" y="1053.00005412" width="5.99992575000033" height="21.000065940000013" class="text">$</text>
<text x="1665.00004125" y="1053.00005412" width="53.99994599999991" height="23.000107379999918" class="text">40.00
</text>
<text x="1653.00005325" y="1080.99994866" width="5.999925749999875" height="22.999984320000067" class="text">$</text>
<text x="1663.999974" y="1080.99994866" width="58.0000329999998" height="22.999984320000067" class="text">40.00
</text>
<text x="2176.0000535" y="1076.99998884" width="3.999950500000068" height="16.000032659999988" class="text">4
</text>
<text x="56.999999875" y="1108.99996626" width="4.999999549999998" height="17.000000640000053" class="text">3
</text>
<text x="234.99999250000002" y="1110.9999901200001" width="27.00001850000001" height="20.99996046000024" class="text">Su </text>
<text x="271.000002" y="1110.9999901200001" width="37.99998475000001" height="20.99996046000024" class="text">Fox </text>
<text x="318.9999995" y="1110.9999901200001" width="61.00000725000001" height="20.99996046000024" class="text">News
</text>
<text x="590.00002425" y="1110.9999901200001" width="52.99996974999999" height="20.99996046000024" class="text">10:00 </text>
<text x="652.00000775" y="1110.9999901200001" width="29.0000164999999" height="20.99996046000024" class="text">AM</text>
<text x="688.99997075" y="1110.9999901200001" width="6.000062250000042" height="20.99996046000024" class="text">-</text>
<text x="697.9999845000001" y="1110.9999901200001" width="22.00004624999997" height="20.99996046000024" class="text">11</text>
<text x="722.99998225" y="1110.9999901200001" width="5.999994000000015" height="20.99996046000024" class="text">:</text>
<text x="727.99997725" y="1110.9999901200001" width="24.000021500000003" height="20.99996046000024" class="text">00 </text>
<text x="761.0000125" y="1110.9999901200001" width="30.99999175000005" height="20.99996046000024" class="text">AM
</text>
<text x="1100.999991" y="1141.99999956" width="20.00000275000025" height="19.000042079999957" class="text">1x
</text>
<text x="819.00002275" y="1141.99999956" width="88.99995650000005" height="20.99996046000001" class="text">03/30/20 </text>
<text x="915.999994" y="1141.99999956" width="15.000007750000009" height="20.99996046000001" class="text">to </text>
<text x="940.99999175" y="1141.99999956" width="89.00002474999985" height="20.99996046000001" class="text">04/05/20
</text>
<text x="820.00002175" y="1172.00004102" width="26.999973000000068" height="22.000033920000078" class="text">Su
</text>
<text x="940.0000155" y="1169.99999958" width="89.000002" height="19.999992479999946" class="text">04/05/20
</text>
<text x="1165.9999942499999" y="1139.99995812" width="79.99998825000011" height="17.000000639999826" class="text">------</text>
<text x="1253.99999725" y="1139.99995812" width="5.00001774999987" height="17.000000639999826" class="text">S
</text>
<text x="1185.99997425" y="1172.00004102" width="46.0000677500002" height="22.999984320000067" class="text">9:31 </text>
<text x="1237.000037" y="1172.00004102" width="28.99994824999999" height="22.999984320000067" class="text">AM
</text>
<text x="1069.99999925" y="1169.99999958" width="8.000037499999962" height="20.999942879999935" class="text">:</text>
<text x="1079.000013" y="1172.00004102" width="20.00000275000002" height="22.000033920000078" class="text">30
</text>
<text x="1314.0000055" y="1169.99999958" width="108.99993649999988" height="16.00003265999976" class="text">CEM20104H
</text>
<text x="1640.9999515" y="1170.99996756" width="6.000062249999928" height="21.99991086" class="text">$</text>
<text x="1655.0000284999999" y="1172.99999142" width="65.00000325000019" height="23.999934720000056" class="text">150.00
</text>
<text x="118.000002575" y="1169.99999958" width="68.99999242500002" height="20.999942879999935" class="text">WFVX
</text>
<text x="118.99999702500001" y="1203.0000328800002" width="71.00000862499998" height="21.000048360000164" class="text">WFVX
</text>
<text x="56.000000875" y="1203.0000328800002" width="5.999998550000001" height="19.999992480000174" class="text">4
</text>
<text x="238.9999885" y="1204.00000086" width="6.000016749999986" height="22.000016340000002" class="text">M</text>
<text x="257.000016" y="1204.00000086" width="5.999971249999987" height="22.000016340000002" class="text">-</text>
<text x="265.000008" y="1204.00000086" width="5.999994000000015" height="22.000016340000002" class="text">F
</text>
<text x="586.0000282499999" y="1203.0000328800002" width="44.999977750000085" height="22.00001634000023" class="text">6:00 </text>
<text x="640.00001975" y="1203.0000328800002" width="26.999973000000068" height="22.00001634000023" class="text">PM</text>
<text x="676.0000065" y="1203.0000328800002" width="5.9999939999999015" height="22.00001634000023" class="text">-</text>
<text x="685.00002025" y="1203.0000328800002" width="5.9999939999999015" height="22.00001634000023" class="text">6</text>
<text x="696.0000092500001" y="1203.0000328800002" width="5.9999939999999015" height="22.00001634000023" class="text">:</text>
<text x="705.0000229999999" y="1203.0000328800002" width="20.00000275000002" height="22.00001634000023" class="text">30 </text>
<text x="733.9999712499999" y="1203.0000328800002" width="28.000017500000126" height="22.00001634000023" class="text">PM
</text>
<text x="118.99999702500001" y="1263.00001032" width="71.00000862499998" height="22.000016340000002" class="text">WFVX
</text>
<text x="121.99999857499999" y="1289.99995446" width="67.000003525" height="20.99996046000001" class="text">WFVX
</text>
<text x="118.99999702500001" y="1314.00001224" width="70.00000507499998" height="19.999992479999946" class="text">WFVX
</text>
<text x="120.9999973" y="1340.9999563800002" width="68.00000479999999" height="20.99996046000024" class="text">WFVX
</text>
<text x="118.99999702500001" y="1376.00001354" width="71.00000862499998" height="22.000016340000002" class="text">WFVX
</text>
<text x="819.00002275" y="1235.9999607" width="85.99998225000002" height="22.999984320000067" class="text">03/31/20 </text>
<text x="916.999993" y="1235.9999607" width="12.000033499999972" height="22.999984320000067" class="text">to </text>
<text x="941.99999075" y="1235.9999607" width="84.99998324999979" height="22.999984320000067" class="text">04/06/20
</text>
<text x="822.99997325" y="1263.00001032" width="22.00004624999997" height="19.999992479999946" class="text">Tu
</text>
<text x="942.999967" y="1263.00001032" width="87.00004949999993" height="21.000048359999937" class="text">03/31/20
</text>
<text x="821.999997" y="1288.00003608" width="5.9999712499999305" height="19.999992479999946" class="text">W
</text>
<text x="941.99999075" y="1288.99998648" width="86.00005050000004" height="19.999992479999946" class="text">04/01/20
</text>
<text x="824.0000405" y="1314.00001224" width="21.999955250000085" height="19.00002450000011" class="text">Th
</text>
<text x="940.0000155" y="1314.99998022" width="85.99998225000013" height="20.99996046000001" class="text">04/02/20
</text>
<text x="824.0000405" y="1342.0000122600002" width="5.999971250000044" height="19.999992480000174" class="text">M
</text>
<text x="941.99999075" y="1342.0000122600002" width="88.00002574999985" height="21.000048360000164" class="text">04/06/20
</text>
<text x="1098.0000395" y="1234.0000423200001" width="23.99993049999989" height="19.00002450000011" class="text">4x
</text>
<text x="1070.9999982499999" y="1262.00005992" width="5.9999712500002715" height="20.000097959999948" class="text">:</text>
<text x="1079.000013" y="1262.00005992" width="21.999977999999828" height="20.000097959999948" class="text">30
</text>
<text x="1071.9999745" y="1288.99998648" width="6.000062249999928" height="19.999992479999946" class="text">:</text>
<text x="1078.00003675" y="1288.99998648" width="21.999955250000085" height="19.999992479999946" class="text">30
</text>
<text x="1070.9999982499999" y="1314.99998022" width="5.9999712500002715" height="19.999992480000174" class="text">:</text>
<text x="1080.000012" y="1314.99998022" width="18.000027499999987" height="19.999992480000174" class="text">30
</text>
<text x="1071.9999745" y="1340.9999563800002" width="7.000038500000073" height="19.999992480000174" class="text">:</text>
<text x="1078.00003675" y="1342.99998024" width="22.999954249999973" height="22.000016340000002" class="text">00
</text>
<text x="1164.000019" y="1234.0000423200001" width="81.99996349999992" height="19.00002450000011" class="text">MTWTF--
</text>
<text x="1185.99997425" y="1262.00005992" width="41.0000500000001" height="21.000065940000013" class="text">6:24 </text>
<text x="1237.000037" y="1262.00005992" width="30.999923500000023" height="21.000065940000013" class="text">PM
</text>
<text x="1187.0000415000002" y="1289.99995446" width="40.99991349999982" height="20.99996046000001" class="text">6:20 </text>
<text x="1237.000037" y="1289.99995446" width="30.999923500000023" height="20.99996046000001" class="text">PM
</text>
<text x="1185.99997425" y="1314.99998022" width="41.99998075000008" height="19.999992480000174" class="text">6:24 </text>
<text x="1237.000037" y="1314.99998022" width="28.99994824999999" height="20.99996046000001" class="text">PM
</text>
<text x="1317.00002525" y="1260.99998646" width="105.00000875000023" height="16.000032659999988" class="text">CEM20104H
</text>
<text x="1315.99998075" y="1289.99995446" width="106.00005325000006" height="18.99991901999988" class="text">CEM20104H
</text>
<text x="1317.00002525" y="1314.99998022" width="103.00003349999997" height="17.000000640000053" class="text">CEM20104H
</text>
<text x="1653.9999839999998" y="1263.9999782999998" width="6.0000622500001555" height="22.000016339999775" class="text">$</text>
<text x="1665.00004125" y="1263.9999782999998" width="53.99994599999991" height="23.999952299999904" class="text">75.00
</text>
<text x="1653.00005325" y="1289.99995446" width="5.999925749999875" height="21.99991086" class="text">$</text>
<text x="1665.9999492499999" y="1289.99995446" width="51.000062750000325" height="21.99991086" class="text">75.00
</text>
<text x="1653.00005325" y="1317.00000408" width="5.999925749999875" height="22.999984320000067" class="text">$</text>
<text x="1663.999974" y="1317.00000408" width="58.0000329999998" height="22.999984320000067" class="text">75.00
</text>
<text x="1655.0000284999999" y="1342.99998024" width="5.99992575000033" height="20.99996046000001" class="text">$</text>
<text x="1667.0000165000001" y="1342.99998024" width="51.999970749999875" height="20.99996046000001" class="text">75.00 </text>
<text x="1745.0000295" y="1342.99998024" width="80.99991899999986" height="22.000016340000002" class="text">Credited
</text>
<text x="2175.000009" y="1260.99998646" width="4.999995000000126" height="19.00002449999988" class="text">3
</text>
<text x="2178.00002875" y="1288.00003608" width="4.999994999999672" height="18.000074099999892" class="text">1
</text>
<text x="2176.0000535" y="1314.00001224" width="5.99992575000033" height="19.999992479999946" class="text">4
</text>
<text x="2176.99998425" y="1342.0000122600002" width="6.00003949999973" height="19.999992480000174" class="text">2
</text>
<text x="56.999999875" y="1373.0000217000002" width="4.999999549999998" height="18.000056520000044" class="text">5
</text>
<text x="238.9999885" y="1379.0000053800002" width="7.000015750000017" height="25.000008180000123" class="text">M</text>
<text x="253.99999624999998" y="1379.0000053800002" width="7.000015749999989" height="25.000008180000123" class="text">-</text>
<text x="265.000008" y="1379.0000053800002" width="22.999999749999972" height="25.000008180000123" class="text">Su </text>
<text x="300.99999475" y="1379.0000053800002" width="35.999986750000005" height="25.000008180000123" class="text">10p </text>
<text x="342.99999825000003" y="1379.0000053800002" width="62.000006249999956" height="25.000008180000123" class="text">News
</text>
<text x="587.99998075" y="1374.99994008" width="54.00001425000005" height="21.99991086" class="text">10:00 </text>
<text x="650.0000325" y="1374.99994008" width="31.999967999999967" height="21.99991086" class="text">PM</text>
<text x="688.99997075" y="1374.99994008" width="6.000062250000042" height="21.99991086" class="text">-</text>
<text x="696.0000092500001" y="1374.99994008" width="21.999977999999942" height="21.99991086" class="text">11</text>
<text x="720.0000307500001" y="1374.99994008" width="5.9999712499999305" height="21.99991086" class="text">:</text>
<text x="726.000002" y="1374.99994008" width="24.000021500000003" height="21.99991086" class="text">00 </text>
<text x="757.99999275" y="1374.99994008" width="30.999968999999965" height="21.99991086" class="text">PM
</text>
<text x="118.000002575" y="1432.99999914" width="68.99999242500002" height="20.99996046000001" class="text">WFVX
</text>
<text x="121.99999857499999" y="1460.00004876" width="67.000003525" height="21.000065940000013" class="text">WFVX
</text>
<text x="121.99999857499999" y="1492.99997658" width="67.000003525" height="20.99996046000024" class="text">WFVX
</text>
<text x="820.00002175" y="1404.00003114" width="86.99995850000005" height="19.999992479999946" class="text">03/31/20 </text>
<text x="917.99996925" y="1404.00003114" width="11.00005724999994" height="19.999992479999946" class="text">to </text>
<text x="940.0000155" y="1404.9999815400001" width="85.99998225000013" height="19.999992480000174" class="text">04/06/20
</text>
<text x="825.00001675" y="1435.0000229999998" width="17.999959250000074" height="19.999992479999946" class="text">Th
</text>
<text x="941.99999075" y="1433.9999671199998" width="84.99998324999979" height="19.999992479999946" class="text">04/02/20
</text>
<text x="825.00001675" y="1460.00004876" width="4.999995000000013" height="19.00002449999988" class="text">M
</text>
<text x="941.99999075" y="1460.00004876" width="86.00005050000004" height="20.000097960000176" class="text">04/06/20
</text>
<text x="1099.999992" y="1404.00003114" width="21.999977999999828" height="19.000042079999957" class="text">2x
</text>
<text x="1071.9999745" y="1433.9999671199998" width="6.000062249999928" height="20.999960459999784" class="text">:</text>
<text x="1079.000013" y="1433.9999671199998" width="21.999977999999828" height="20.999960459999784" class="text">30
</text>
<text x="1070.9999982499999" y="1461.00001674" width="5.9999712500002715" height="21.00006594000024" class="text">:</text>
<text x="1080.99998825" y="1461.00001674" width="18.000027500000215" height="21.00006594000024" class="text">30
</text>
<text x="1164.000019" y="1405.99994952" width="96.00004049999984" height="18.99991901999988" class="text">MTWTFSS
</text>
<text x="1174.0000089999999" y="1435.0000229999998" width="58.00003300000026" height="21.000048359999937" class="text">10:41 </text>
<text x="1235.00006175" y="1435.0000229999998" width="30.999923500000023" height="21.000048359999937" class="text">PM
</text>
<text x="1175.9999842500001" y="1460.00004876" width="49.99999549999984" height="21.000065940000013" class="text">10:38 </text>
<text x="1237.000037" y="1461.00001674" width="26.999972999999954" height="21.00006594000024" class="text">PM
</text>
<text x="1317.00002525" y="1433.9999671199998" width="103.9999415000002" height="17.99996861999989" class="text">CEM20104H
</text>
<text x="1314.0000055" y="1461.00001674" width="106.99996125000007" height="17.999968620000118" class="text">CEM20104H
</text>
<text x="1640.0000435" y="1435.9999909800001" width="6.999970249999933" height="20.99996046000024" class="text">$</text>
<text x="1653.9999839999998" y="1435.9999909800001" width="68.00002300000006" height="23.999952300000132" class="text">200.00
</text>
<text x="1640.9999515" y="1461.99996714" width="6.000062249999928" height="22.999984320000067" class="text">$</text>
<text x="1653.00005325" y="1461.99996714" width="68.9999537499998" height="22.999984320000067" class="text">200.00
</text>
<text x="2176.99998425" y="1432.99999914" width="6.00003949999973" height="19.999992479999946" class="text">2
</text>
<text x="2178.00002875" y="1458.00000732" width="4.999994999999672" height="18.000056520000044" class="text">1
</text>
<text x="56.999999875" y="1491.00004062" width="4.999999549999998" height="16.999983059999977" class="text">6
</text>
<text x="238.9999885" y="1497.00004188" width="7.000015750000017" height="25.0000257600002" class="text">M</text>
<text x="253.99999624999998" y="1497.00004188" width="7.000015749999989" height="25.0000257600002" class="text">-</text>
<text x="265.000008" y="1497.00004188" width="22.999999749999972" height="25.0000257600002" class="text">Su </text>
<text x="300.99999475" y="1497.00004188" width="35.999986750000005" height="25.0000257600002" class="text">10p </text>
<text x="342.99999825000003" y="1497.00004188" width="62.000006249999956" height="25.0000257600002" class="text">News
</text>
<text x="591.00002325" y="1492.99997658" width="54.000014249999936" height="20.99996046000024" class="text">10:00 </text>
<text x="651.00000875" y="1492.99997658" width="29.000016500000015" height="20.99996046000024" class="text">PM</text>
<text x="687.9999945000001" y="1492.99997658" width="5.9999712499999305" height="20.99996046000024" class="text">-</text>
<text x="697.0000082500001" y="1492.99997658" width="21.99995524999997" height="20.99996046000024" class="text">11</text>
<text x="722.000006" y="1492.99997658" width="5.999971250000044" height="20.99996046000024" class="text">:</text>
<text x="727.000001" y="1492.99997658" width="23.99999875000003" height="20.99996046000024" class="text">00 </text>
<text x="757.99999275" y="1492.99997658" width="29.999992749999933" height="20.99996046000024" class="text">PM
</text>
<text x="820.00002175" y="1525.0000419" width="87.99995750000005" height="22.000016340000002" class="text">03/30/20 </text>
<text x="914.00001875" y="1525.0000419" width="15.99998400000004" height="22.000016340000002" class="text">to </text>
<text x="940.99999175" y="1525.0000419" width="88.00002574999996" height="22.000016340000002" class="text">04/05/20
</text>
<text x="821.999997" y="1551.00001806" width="25.999973999999952" height="19.00002449999988" class="text">Su
</text>
<text x="940.0000155" y="1551.99998604" width="89.000002" height="19.999992479999946" class="text">04/05/20
</text>
<text x="1101.99996725" y="1523.00001804" width="20.000002749999794" height="19.00002449999988" class="text">1x
</text>
<text x="1070.9999982499999" y="1551.99998604" width="5.9999712500002715" height="19.999992479999946" class="text">:</text>
<text x="1079.000013" y="1551.99998604" width="21.999977999999828" height="19.999992479999946" class="text">30
</text>
<text x="1165.9999942499999" y="1523.99998602" width="79.99998825000011" height="19.000042080000185" class="text">------</text>
<text x="1252.00004475" y="1523.00001804" width="4.999995000000126" height="17.000000640000053" class="text">S
</text>
<text x="1175.0000762500001" y="1551.99998604" width="53.99992324999994" height="19.999992479999946" class="text">10:19 </text>
<text x="1234.00001725" y="1551.99998604" width="33.00001249999991" height="19.999992479999946" class="text">PM
</text>
<text x="121.99999857499999" y="1551.99998604" width="67.000003525" height="20.99996046000001" class="text">WFVX
</text>
<text x="1315.99998075" y="1552.99995402" width="104.99998600000004" height="17.000000639999826" class="text">CEM20104H
</text>
<text x="1640.9999515" y="1554.0000099" width="6.000062249999928" height="22.000016339999775" class="text">$</text>
<text x="1652.00000875" y="1554.0000099" width="68.00002300000006" height="24.00004019999983" class="text">200.00
</text>
<text x="90.999997725" y="1610.9999954999998" width="13.000000650000004" height="20.999942879999708" class="text">In </text>
<text x="110.00000147499999" y="1610.9999954999998" width="87.99999617500002" height="20.999942879999708" class="text">accordance </text>
<text x="206.00000785" y="1610.9999954999998" width="26.999986649999983" height="20.999942879999708" class="text">with </text>
<text x="237.9999895" y="1610.9999954999998" width="89.00000200000002" height="20.999942879999708" class="text">paragraphs </text>
<text x="331.99998650000003" y="1610.9999954999998" width="18.000027499999987" height="20.999942879999708" class="text">49 </text>
<text x="356.99998425" y="1610.9999954999998" width="26.999995749999982" height="20.999942879999708" class="text">and </text>
<text x="390.99999575000004" y="1610.9999954999998" width="15.000007749999952" height="20.999942879999708" class="text">50 </text>
<text x="413.99999549999995" y="1610.9999954999998" width="14.999985000000038" height="20.999942879999708" class="text">of </text>
<text x="434.99999725" y="1610.9999954999998" width="20.00000275000002" height="20.999942879999708" class="text">the </text>
<text x="460.00001775000004" y="1610.9999954999998" width="48.999973749999924" height="20.999942879999708" class="text">United </text>
<text x="519.000027" y="1610.9999954999998" width="44.99997774999997" height="20.999942879999708" class="text">Stated </text>
<text x="570.00004425" y="1610.9999954999998" width="60.99996175000001" height="20.999942879999708" class="text">Federal </text>
<text x="635.0000247500001" y="1610.9999954999998" width="126.99996399999998" height="20.999942879999708" class="text">Communications </text>
<text x="768.999959" y="1610.9999954999998" width="92.00004449999994" height="20.999942879999708" class="text">Commission </text>
<text x="865.00002225" y="1610.9999954999998" width="54.99999049999997" height="20.999942879999708" class="text">Report </text>
<text x="924.0000315" y="1610.9999954999998" width="26.999973000000068" height="20.999942879999708" class="text">and </text>
<text x="956.99997575" y="1610.9999954999998" width="45.000000500000056" height="20.999942879999708" class="text">Order </text>
<text x="1005.0000187500001" y="1610.9999954999998" width="28.999993749999817" height="20.999942879999708" class="text">No. </text>
<text x="1035.0000115" y="1610.9999954999998" width="36.99996299999998" height="20.999942879999708" class="text">FCC </text>
<text x="1075.99999325" y="1610.9999954999998" width="55.999989499999856" height="20.999942879999708" class="text">07-217</text>
<text x="1130.99998375" y="1610.9999954999998" width="5.999994000000015" height="20.999942879999708" class="text">, </text>
<text x="1140.9999965" y="1610.9999954999998" width="24.000067000000172" height="20.999942879999708" class="text">this </text>
<text x="1172.00003375" y="1610.9999954999998" width="49.99999550000007" height="20.999942879999708" class="text">station </text>
<text x="1228.9999995" y="1610.9999954999998" width="23.999953249999862" height="20.999942879999708" class="text">will </text>
<text x="1255.9999725" y="1610.9999954999998" width="26.999972999999954" height="20.999942879999708" class="text">not </text>
<text x="1285.00005725" y="1610.9999954999998" width="90.00000099999988" height="20.999942879999708" class="text">discriminate </text>
<text x="1380.99996125" y="1610.9999954999998" width="11.000057250000054" height="20.999942879999708" class="text">in </text>
<text x="1400.9999639999999" y="1610.9999954999998" width="26.999973000000182" height="20.999942879999708" class="text">any </text>
<text x="1433.99999925" y="1610.9999954999998" width="61.99996075000013" height="20.999942879999708" class="text">contract </text>
<text x="1497.99993525" y="1610.9999954999998" width="21.00004725000008" height="20.999942879999708" class="text">for </text>
<text x="1525.00004475" y="1610.9999954999998" width="80.99991900000009" height="20.999942879999708" class="text">advertising </text>
<text x="1613.0000705000002" y="1610.9999954999998" width="14.999984999999924" height="20.999942879999708" class="text">on </text>
<text x="1635.0000484999998" y="1610.9999954999998" width="23.99993050000012" height="20.999942879999708" class="text">the </text>
<text x="1663.999974" y="1610.9999954999998" width="39.00009749999981" height="20.999942879999708" class="text">basis </text>
<text x="1708.9999745" y="1610.9999954999998" width="16.99998299999993" height="20.999942879999708" class="text">of </text>
<text x="1728.9999772499998" y="1610.9999954999998" width="31.999968000000308" height="20.999942879999708" class="text">race </text>
<text x="1768.0000519999999" y="1610.9999954999998" width="16.999983000000157" height="20.999942879999708" class="text">or </text>
<text x="1787.00001025" y="1610.9999954999998" width="61.000052749999895" height="20.999942879999708" class="text">ethnicity</text>
<text x="1850.9999462500002" y="1610.9999954999998" width="6.000062249999701" height="20.999942879999708" class="text">, </text>
<text x="1860.99993625" y="1610.9999954999998" width="27.000109500000008" height="20.999942879999708" class="text">and </text>
<text x="1895.000016" y="1610.9999954999998" width="18.000027499999987" height="20.999942879999708" class="text">all </text>
<text x="1915.00001875" y="1610.9999954999998" width="35.00001049999992" height="20.999942879999708" class="text">such </text>
<text x="1956.9999995" y="1610.9999954999998" width="66.9999557499998" height="20.999942879999708" class="text">contracts </text>
<text x="2030.9999254999998" y="1610.9999954999998" width="28.00004025000044" height="20.999942879999708" class="text">will </text>
<text x="2058.9999657500002" y="1610.9999954999998" width="20.000002749999567" height="20.999942879999708" class="text">be </text>
<text x="2085.000008" y="1610.9999954999998" width="73.00001800000018" height="20.999942879999708" class="text">evaluated</text>
<text x="2160.00000125" y="1610.9999954999998" width="6.0000622500001555" height="20.999942879999708" class="text">,
</text>
<text x="861.0000034999999" y="1630.00003758" width="68.99999925000009" height="21.000065940000013" class="text">accepted</text>
<text x="932.999977" y="1630.00003758" width="6.000039500000071" height="21.000065940000013" class="text">, </text>
<text x="940.99999175" y="1630.00003758" width="80.99998725" height="21.000065940000013" class="text">negotiated </text>
<text x="1026.9999739999998" y="1630.00003758" width="27.000041250000095" height="21.000065940000013" class="text">and </text>
<text x="1061.9999845" y="1630.00003758" width="75.99996950000013" height="21.000065940000013" class="text">completed </text>
<text x="1145.9999915" y="1630.00003758" width="58.00001024999983" height="21.000065940000013" class="text">without </text>
<text x="1205.000069" y="1630.00003758" width="48.99992825000004" height="21.000065940000013" class="text">regard </text>
<text x="1260.0000595" y="1630.00003758" width="11.99996525000006" height="21.000065940000013" class="text">to </text>
<text x="1277.9999504999998" y="1630.00003758" width="32.000104500000134" height="21.000065940000013" class="text">race </text>
<text x="1317.9999559999999" y="1630.00003758" width="14.999985000000152" height="21.000065940000013" class="text">or </text>
<text x="1339.00000325" y="1630.00003758" width="61.9999607499999" height="21.000065940000013" class="text">ethnicity</text>
<text x="1402.9999392500001" y="1630.00003758" width="6.000062249999928" height="21.000065940000013" class="text">.
</text>
<text x="2041.99998275" y="1684.00001376" width="64.00007249999999" height="19.999992479999946" class="text">powered </text>
<text x="2111.999981" y="1682.99995788" width="16.999983000000157" height="18.999936599999955" class="text">by </text>
<text x="2133.00002825" y="1682.99995788" width="80.99991899999986" height="20.99996046000001" class="text">WideOrbit
</text>
</g>
<g id="page-1" transform="translate(0, 1778)">
<rect width="2275" height="1758" fill="none" stroke="black" />
<text x="2028.00004225" y="78.999998424" width="54.999990500000195" height="25.999999013999997" class="text">Page </text>
<text x="2108.99996125" y="77.000000934" width="7.000106750000214" height="24.99999939" class="text">2 </text>
<text x="2130.0000085" y="77.000000934" width="23.000022499999886" height="24.99999939" class="text">of </text>
<text x="2163.99995175" y="75.999997794" width="7.000106749999759" height="24.999999389999992" class="text">2
</text>
<text x="1068.000024" y="101.999996808" width="179.99993375000008" height="37.999998018000014" class="text">INVOICE
</text>
<text x="48.999998774999995" y="238.00000896" width="162.99999624999998" height="90.00000835200001" class="text">FOX </text>
<text x="241.9999855" y="236.99998824000002" width="81.00003275000003" height="87.99998449200001" class="text">22
</text>
<text x="345.99999525" y="110.99999693999999" width="62.00000625000007" height="21.999995243999976" class="text">Remit </text>
<text x="415.9999935" y="110.99999693999999" width="87.99998024999996" height="21.999995243999976" class="text">Address</text>
<text x="510.00001325" y="110.99999693999999" width="5.999971249999987" height="21.999995243999976" class="text">:
</text>
<text x="336.9999815" y="150.00000513" width="88.00002574999996" height="27.000007428000004" class="text">WFVX</text>
<text x="428.00000425" y="150.00000513" width="7.999991999999963" height="27.000007428000004" class="text">-</text>
<text x="440.000015" y="150.00000513" width="28.999971000000016" height="27.000007428000004" class="text">TV
</text>
<text x="345.99999525" y="189.99999888" width="45.000000500000056" height="30.999998892000008" class="text">371 </text>
<text x="417.00001525" y="189.99999888" width="90.99997724999997" height="32.000002032" class="text">Target </text>
<text x="514.00000925" y="188.99999574" width="129.9999610000001" height="32.000000274" class="text">Industrial </text>
<text x="652.999984" y="188.99999574" width="74.00001699999996" height="30.999998892000008" class="text">Circle
</text>
<text x="341.9999765" y="224.00000016" width="102.00001175" height="32.00001258" class="text">Bangor</text>
<text x="445.99998625" y="221.99999387999998" width="9.000013749999994" height="30.999991859999966" class="text">, </text>
<text x="457.999997" y="221.99999387999998" width="45.99997674999997" height="31.999994999999984" class="text">ME </text>
<text x="520.9999795" y="221.99999387999998" width="77.99999025" height="32.999998139999974" class="text">04401
</text>
<text x="342.99999825000003" y="259.00000458" width="59.000009250000005" height="32.00001258" class="text">Main</text>
<text x="409.0000005" y="259.00000458" width="8.999991000000023" height="32.00001258" class="text">: </text>
<text x="443.99998825" y="259.00000458" width="9.000013749999994" height="32.00001258" class="text">(</text>
<text x="455.999999" y="259.00000458" width="45.0000005" height="32.00001258" class="text">207</text>
<text x="502.00002125000003" y="259.00000458" width="8.999968249999995" height="32.00001258" class="text">) </text>
<text x="519.000027" y="259.00000458" width="118.99997199999996" height="32.00001258" class="text">945-6457
</text>
<text x="342.99999825000003" y="294.99999456" width="85.99998224999996" height="34.00000127999999" class="text">Billing</text>
<text x="432.000023" y="293.99999141999996" width="8.999968249999995" height="31.999977419999937" class="text">: </text>
<text x="448.000007" y="293.00000586" width="9.000013749999994" height="32.000012579999975" class="text">(</text>
<text x="458.999996" y="293.00000586" width="44.99997774999997" height="32.99999814" class="text">207</text>
<text x="505.9999945" y="293.00000586" width="9.000013749999937" height="32.000012579999975" class="text">) </text>
<text x="523.00000025" y="293.00000586" width="122.00003724999999" height="35.00000441999998" class="text">945-6457
</text>
<text x="1025.9999977500001" y="183.99999762" width="104.99998599999981" height="21.999991727999998" class="text">Advertiser
</text>
<text x="1024.0000225000001" y="216.99999576" width="84.00000699999987" height="20.999995619999993" class="text">Product
</text>
<text x="1024.99999875" y="253.00000332000002" width="86.99998125000002" height="21.99999876000004" class="text">Estimate </text>
<text x="1121.9999699999998" y="253.00000332000002" width="82.00003175000006" height="21.99999876000004" class="text">Number
</text>
<text x="1234.00001725" y="187.99999259999998" width="53.999923250000165" height="25.999986707999994" class="text">Clean </text>
<text x="1297.99995325" y="187.99999259999998" width="71.00004274999992" height="25.999986707999994" class="text">Energy </text>
<text x="1377.9999415" y="187.99999259999998" width="73.00001799999995" height="25.999986707999994" class="text">Matters
</text>
<text x="1230.99997475" y="216.99999576" width="61.99998349999987" height="19.999992479999975" class="text">Ballot </text>
<text x="1295.9999779999998" y="216.99999576" width="54.00008250000019" height="19.999992479999975" class="text">Issue
</text>
<text x="1680.999957" y="148.000000608" width="76.00003775000005" height="20.000004786000005" class="text">Invoice </text>
<text x="1767.0000075" y="148.000000608" width="6.000039499999957" height="20.000004786000005" class="text">#
</text>
<text x="1683.00006875" y="181.99999134" width="68.99993099999983" height="19.999985448000018" class="text">Invoice </text>
<text x="1758.9999699999998" y="182.99999448" width="46.0000677500002" height="20.999988588000008" class="text">Date
</text>
<text x="1680.00002625" y="216.99999576" width="68.99995375000003" height="20.999995619999993" class="text">Invoice </text>
<text x="1758.000062" y="216.99999576" width="62.999891499999876" height="20.999995619999993" class="text">Month
</text>
<text x="1680.00002625" y="252.00001776000002" width="73.00004074999993" height="21.99999876000004" class="text">Invoice </text>
<text x="1758.9999699999998" y="252.00001776000002" width="66.00004775000025" height="21.99999876000004" class="text">Period
</text>
<text x="1885.999934" y="150.00000513" width="130.00000649999993" height="23.000010689999996" class="text">FF20040160
</text>
<text x="1888.9999765" y="182.99999448" width="84.00007525000001" height="20.999988588000008" class="text">04/26/20
</text>
<text x="1887.00000125" y="221.99999387999998" width="46.999975749999976" height="26.99999687999997" class="text">April </text>
<text x="1940.9999472499999" y="219.99998760000003" width="49.00006475000032" height="26.999996880000026" class="text">2020
</text>
<text x="1887.00000125" y="253.00000332000002" width="86.99995850000005" height="21.99999876000004" class="text">03/30/20 </text>
<text x="1983.9999725" y="253.00000332000002" width="6.0000395000001845" height="21.99999876000004" class="text">- </text>
<text x="1998.0000495" y="253.00000332000002" width="86.99995850000005" height="21.99999876000004" class="text">04/06/20
</text>
<text x="80.000004175" y="267.99999768" width="81.99999307499998" height="34.99998683999999" class="text">WFVX </text>
<text x="180.9999919" y="267.99999768" width="122.00002360000002" height="36.99999312" class="text">BANGOR
</text>
<text x="1232.0000420000001" y="252.00001776000002" width="51.999970749999875" height="20.000027640000013" class="text">8131
</text>
<text x="1680.999957" y="320.00000274" width="58.00001025000006" height="19.999992480000003" class="text">Order </text>
<text x="1748.00004925" y="320.00000274" width="5.999925750000102" height="19.999992480000003" class="text">#
</text>
<text x="1683.99997675" y="354.99998958" width="23.000022499999886" height="20.999978039999974" class="text">Alt </text>
<text x="1715.00003675" y="354.99998958" width="58.999941000000035" height="20.999978039999974" class="text">Order </text>
<text x="1780.999948" y="354.00000402" width="6.0000622500001555" height="21.000013200000012" class="text">#
</text>
<text x="1885.999934" y="320.9999883" width="51.0000627500001" height="19.999992480000003" class="text">8978
</text>
<text x="1887.00000125" y="354.99998958" width="101.00003549999997" height="21.999998759999983" class="text">26889199
</text>
<text x="1025.9999977500001" y="327.9999927" width="84.00000699999987" height="29.000003160000006" class="text">Property
</text>
<text x="1227.00002425" y="320.9999883" width="70.99992900000007" height="19.999992480000003" class="text">WFVX</text>
<text x="1300.000065" y="320.9999883" width="5.999903000000131" height="19.999992480000003" class="text">-</text>
<text x="1310.000055" y="320.9999883" width="21.999978000000056" height="19.999992480000003" class="text">TV
</text>
<text x="1025.9999977500001" y="359.00000214" width="87.00002674999973" height="26.99999687999997" class="text">Account </text>
<text x="1116.999975" y="359.00000214" width="95.00006425000015" height="26.99999687999997" class="text">Executive </text>
<text x="1234.00001725" y="359.00000214" width="41.999958000000106" height="26.00001132" class="text">Katz </text>
<text x="1284.00001275" y="359.99998769999996" width="118.0000184999999" height="26.99999687999997" class="text">Washington
</text>
<text x="1025.9999977500001" y="390.99999714" width="57.000033999999914" height="22.99998432000001" class="text">Sales </text>
<text x="1090.99997825" y="390.99999714" width="56.9999885000002" height="22.99998432000001" class="text">Office </text>
<text x="1230.99997475" y="394.99999212" width="45.00000049999994" height="28.000000020000016" class="text">Katz</text>
<text x="1280.00006225" y="394.99999212" width="7.999878250000165" height="26.999979300000007" class="text">-</text>
<text x="1282.0000375" y="396.9999984" width="121.99996899999996" height="30.000006299999995" class="text">Washington
</text>
<text x="1026.9999739999998" y="428.9999934" width="57.00003400000014" height="27.999982439999997" class="text">Sales </text>
<text x="1088.00002675" y="430.99999968" width="72.00004175000004" height="29.000003160000006" class="text">Region
</text>
<text x="1232.99995" y="424.99998084000003" width="86.00005050000004" height="21.99998118000002" class="text">National
</text>
<text x="1680.999957" y="389.999994" width="49.99999550000007" height="21.99998118000002" class="text">Deal </text>
<text x="1735.9999475" y="389.00000844" width="6.0000622500001555" height="20.000010059999966" class="text">#
</text>
<text x="1680.999957" y="428.00000784" width="59.00007749999986" height="29.000003160000006" class="text">Order </text>
<text x="1748.00004925" y="430.00001412" width="57.99989649999998" height="29.000003160000006" class="text">Flight
</text>
<text x="217.999998125" y="428.9999934" width="68.00001162500001" height="29.000003160000006" class="text">Billing </text>
<text x="295.99999975000003" y="428.00000784" width="90.000001" height="28.000017600000035" class="text">Address</text>
<text x="390.99999575000004" y="426.99998711999996" width="7.999991999999963" height="26.99999687999997" class="text">:
</text>
<text x="1885.999934" y="424.99998084000003" width="89.00009299999988" height="22.999984320000067" class="text">03/31/20 </text>
<text x="1983.9999725" y="424.99998084000003" width="6.0000395000001845" height="22.999984320000067" class="text">- </text>
<text x="1996.9999822500001" y="424.99998084000003" width="86.00005050000004" height="22.999984320000067" class="text">04/06/20
</text>
<text x="1232.0000420000001" y="493.00000098000004" width="105.99989399999981" height="22.00001634000006" class="text">Broadcast
</text>
<text x="221.00000649999998" y="487.99998528" width="79.00001200000003" height="22.99998432000001" class="text">GMMB
</text>
<text x="222.999997675" y="521.99998656" width="108.000012575" height="29.999988720000033" class="text">Attention</text>
<text x="333.9999845" y="521.00001858" width="7.99999200000002" height="28.00001759999992" class="text">: </text>
<text x="350.99999025" y="522.9999897" width="112.00000175000002" height="29.999988719999976" class="text">Accounts </text>
<text x="473.999981" y="524.00001042" width="91.00002275000003" height="29.999988720000033" class="text">Payable
</text>
<text x="221.999994125" y="546.99999474" width="53.000003875000004" height="21.9999636" class="text">3050 </text>
<text x="288.00000774999995" y="546.99999474" width="5.999994000000015" height="21.9999636" class="text">K </text>
<text x="311.0000075" y="546.99999474" width="73.99999425000004" height="22.999984320000067" class="text">Street </text>
<text x="388.99999775" y="545.99997402" width="31.99999075000005" height="21.9999636" class="text">NW
</text>
<text x="216.00000695" y="583.99998786" width="147.99999305" height="31.000009439999985" class="text">Washington</text>
<text x="367.999996" y="582.00001674" width="7.99999200000002" height="28.00001759999998" class="text">, </text>
<text x="380.00000675" y="582.00001674" width="37.00000849999998" height="28.00001759999998" class="text">DC </text>
<text x="435.99999625" y="582.00001674" width="71.99999624999998" height="29.999988720000033" class="text">20007
</text>
<text x="1025.9999977500001" y="497.99998152" width="60.99998449999998" height="27.999964859999977" class="text">Billing </text>
<text x="1095.999996" y="497.00001354" width="93.00002074999998" height="29.000020740000025" class="text">Calendar
</text>
<text x="1025.9999977500001" y="532.99998594" width="59.999985499999866" height="25.999976160000017" class="text">Billing </text>
<text x="1095.999996" y="532.99998594" width="48.000020250000034" height="25.999976160000017" class="text">Type
</text>
<text x="1028.00004125" y="566.99998722" width="76.9999684999998" height="25.999976160000074" class="text">Special </text>
<text x="1105.999986" y="566.99998722" width="91.00004549999994" height="25.999976160000074" class="text">Handling
</text>
<text x="1232.99995" y="528.0000229799999" width="48.00002025000026" height="21.000013199999955" class="text">Cash
</text>
<text x="1680.00002625" y="497.99998152" width="76.99996850000002" height="28.999967999999967" class="text">Agency </text>
<text x="1763.999965" y="495.99999281999993" width="54.00008250000019" height="26.999979299999893" class="text">Code
</text>
<text x="1683.00006875" y="528.99999096" width="101.99996624999994" height="23.000001899999972" class="text">Advertiser </text>
<text x="1790.999938" y="528.0000229799999" width="54.00008249999996" height="23.000037059999954" class="text">Code
</text>
<text x="1680.00002625" y="561.00000354" width="81.99998624999989" height="19.99999248000006" class="text">Product </text>
<text x="1770.999958" y="562.00002426" width="24.99999774999992" height="19.99999248000006" class="text">1/2
</text>
<text x="1887.00000125" y="527.00000226" width="36.000054999999975" height="19.000024499999938" class="text">524
</text>
<text x="1888.00004575" y="561.00000354" width="36.99998574999995" height="19.99999248000006" class="text">560
</text>
<text x="1682.0000015" y="637.99998162" width="74.99999324999999" height="29.99998871999992" class="text">Agency </text>
<text x="1763.999965" y="635.99999292" width="39.00009750000004" height="28.999967999999967" class="text">Ref
</text>
<text x="1680.999957" y="667.00000236" width="106.00005325000006" height="22.999984320000067" class="text">Advertiser </text>
<text x="1790.999938" y="667.00000236" width="38.000030250000236" height="22.999984320000067" class="text">Ref
</text>
<text x="819.00002275" y="737.99999676" width="45.000000500000056" height="24.00000504000002" class="text">Day
</text>
<text x="941.99999075" y="734.9999873400001" width="45.99997674999997" height="19.99999248000006" class="text">Date
</text>
<text x="1070.9999982499999" y="740.00002062" width="71.00004275000015" height="28.00001759999998" class="text">Length </text>
<text x="1167.99994675" y="738.9999999" width="29.000084750000042" height="25.999976160000074" class="text">Air </text>
<text x="1207.99995225" y="737.99999676" width="49.00008750000006" height="26.999996880000026" class="text">Time
</text>
<text x="1310.000055" y="736.0000080599999" width="27.99988099999996" height="22.00001633999989" class="text">Ad</text>
<text x="1342.0000229999998" y="736.0000080599999" width="5.999925750000102" height="22.00001633999989" class="text">-</text>
<text x="1347.000018" y="736.0000080599999" width="16.99998299999993" height="22.00001633999989" class="text">ID
</text>
<text x="1582.99994125" y="736.0000080599999" width="47.00008950000006" height="22.00001633999989" class="text">Rate
</text>
<text x="1731.9999970000001" y="737.00002878" width="156.99997949999988" height="24.00000504000002" class="text">Reconciliation
</text>
<text x="56.999999875" y="734.9999873400001" width="43.000002499999994" height="21.999963600000115" class="text">Line
</text>
<text x="56.999999875" y="765.9999967800001" width="4.999999549999998" height="18.999971760000108" class="text">7
</text>
<text x="2125.0000135" y="736.0000080599999" width="43.00002524999991" height="22.00001633999989" class="text">Ref </text>
<text x="2173.99994175" y="734.9999873400001" width="6.0000622500001555" height="20.99999562000005" class="text">#
</text>
<text x="133.000001225" y="738.9999999" width="92.00000127500002" height="28.000000020000016" class="text">Channel </text>
<text x="241.9999855" y="740.9999885999999" width="121.00001549999999" height="28.99998557999993" class="text">Description
</text>
<text x="118.99999702500001" y="767.9999679" width="71.00000862499998" height="21.9999636" class="text">WFVX </text>
<text x="231.9999955" y="771.00003006" width="129.99998374999996" height="25.00002575999997" class="text">Wednesday
</text>
<text x="588.99997975" y="737.00002878" width="51.00004000000001" height="22.000033919999964" class="text">Time
</text>
<text x="586.0000282499999" y="767.0000175" width="44.999977750000085" height="21.000013200000012" class="text">8:00 </text>
<text x="637.0000000000001" y="767.0000175" width="30.999991749999936" height="21.000013200000012" class="text">PM</text>
<text x="675.00003025" y="767.0000175" width="5.9999939999999015" height="21.000013200000012" class="text">-</text>
<text x="682.99997675" y="767.0000175" width="5.999994000000015" height="21.000013200000012" class="text">9</text>
<text x="696.0000092500001" y="767.0000175" width="5.9999939999999015" height="21.000013200000012" class="text">:</text>
<text x="702.00000325" y="767.0000175" width="23.99999875000003" height="21.000013200000012" class="text">00 </text>
<text x="735.00001575" y="765.9999967800001" width="25.999996750000037" height="21.000013200000012" class="text">PM
</text>
<text x="820.00002175" y="798.99997734" width="86.99995850000005" height="21.9999636" class="text">03/30/20 </text>
<text x="914.00001875" y="798.99997734" width="15.99998400000004" height="21.9999636" class="text">to </text>
<text x="940.99999175" y="798.99997734" width="87.00004950000005" height="21.9999636" class="text">04/05/20
</text>
<text x="821.999997" y="825.0000062400001" width="5.9999712499999305" height="19.99999248000006" class="text">W
</text>
<text x="941.99999075" y="825.99997422" width="87.00002674999996" height="20.99996046000001" class="text">04/01/20
</text>
<text x="1100.999991" y="798.00000936" width="18.000027500000215" height="19.99999248000006" class="text">1x
</text>
<text x="1073.00004175" y="825.0000062400001" width="4.999994999999899" height="19.000024499999995" class="text">:</text>
<text x="1079.000013" y="825.0000062400001" width="21.999977999999828" height="19.000024499999995" class="text">30
</text>
<text x="1165.9999942499999" y="798.99997734" width="36.99996299999998" height="19.999992479999946" class="text">--W</text>
<text x="1209.0000195" y="798.99997734" width="51.0000399999999" height="20.99996046000001" class="text">----
</text>
<text x="1185.99997425" y="825.99997422" width="41.99998075000008" height="19.999992479999946" class="text">9:35 </text>
<text x="1234.00001725" y="825.0000062400001" width="33.00001249999991" height="19.99999248000006" class="text">PM
</text>
<text x="121.99999857499999" y="825.99997422" width="67.000003525" height="20.99996046000001" class="text">WFVX
</text>
<text x="1315.00005" y="825.0000062400001" width="107.99989199999982" height="16.0000326600001" class="text">CEM20104H
</text>
<text x="1642.0000187500002" y="826.9999949400001" width="6.00003949999973" height="21.000013200000012" class="text">$</text>
<text x="1650.99996425" y="826.9999949400001" width="71.00004274999992" height="22.999984320000067" class="text">325.00
</text>
<text x="2178.9999595" y="825.99997422" width="4.999995000000126" height="18.999971759999994" class="text">1
</text>
<text x="535.0000110000001" y="879.0" width="55.00001324999994" height="29.999988720000033" class="text">Aired </text>
<text x="602.00001225" y="881.0000238599999" width="61.999960750000014" height="29.000020739999968" class="text">Spots
</text>
<text x="805.0000140000001" y="874.9999874399999" width="24.00002149999989" height="21.999963599999887" class="text">16
</text>
<text x="985.0000160000001" y="952.00001826" width="65.9999795" height="22.999984320000067" class="text">Gross </text>
<text x="1061.9999845" y="952.00001826" width="57.00003400000014" height="22.999984320000067" class="text">Total
</text>
<text x="880.00000725" y="998.99995488" width="85.00000599999998" height="28.999967999999967" class="text">Agency </text>
<text x="974.000027" y="997.9999869000001" width="135.99997774999997" height="30.000041460000034" class="text">Commission
</text>
<text x="1227.00002425" y="957.00003396" width="8.000037499999962" height="28.000000020000016" class="text">$</text>
<text x="1242.99996275" y="957.00003396" width="94.99997325000004" height="30.000023879999958" class="text">1,620.00
</text>
<text x="1250.0000695" y="998.99995488" width="7.999878249999938" height="26.999944140000025" class="text">$</text>
<text x="1264.00001" y="998.99995488" width="73.99992599999996" height="26.999944140000025" class="text">243.00
</text>
<text x="1225.00007175" y="1040.9999637" width="7.999878249999938" height="28.00000002000013" class="text">$</text>
<text x="1242.000032" y="1040.9999637" width="96.99997125000004" height="28.00000002000013" class="text">1,377.00
</text>
<text x="912.9999742499999" y="1037.00000388" width="42.00002625000002" height="22.999984319999953" class="text">Net </text>
<text x="962.99996975" y="1037.00000388" width="100.00005925000005" height="22.999984319999953" class="text">Amount </text>
<text x="1066.9999795" y="1037.00000388" width="46.00004499999977" height="22.999984319999953" class="text">Due
</text>
<text x="1387.9999542500002" y="1040.9999637" width="111.00004824999974" height="28.99996800000008" class="text">Payment </text>
<text x="1505.0000420000001" y="1040.9999637" width="72.9998814999999" height="28.99996800000008" class="text">Terms </text>
<text x="1590.9999559999999" y="1040.9999637" width="20.00000275000002" height="28.99996800000008" class="text">30 </text>
<text x="1622.000016" y="1040.9999637" width="61.00005275000012" height="28.99996800000008" class="text">Days
</text>
<text x="565.00000375" y="1102.999965" width="82.00000899999998" height="23.999934720000056" class="text">Invoice </text>
<text x="656.0000265" y="1102.999965" width="91.99995350000006" height="23.999934720000056" class="text">Balance </text>
<text x="757.99999275" y="1102.999965" width="25.999973999999952" height="23.999934720000056" class="text">as </text>
<text x="792.0000042500001" y="1102.999965" width="22.000023499999998" height="23.999934720000056" class="text">of </text>
<text x="820.00002175" y="1102.999965" width="96.99997125000004" height="23.999934720000056" class="text">05/05/20 </text>
<text x="930.00000275" y="1102.999965" width="96.99997124999982" height="23.999934720000056" class="text">12:07:59 </text>
<text x="1034.0000125" y="1102.999965" width="35.99998675000006" height="23.999934720000056" class="text">PM </text>
<text x="1083.00003175" y="1102.999965" width="30.999991749999936" height="23.999934720000056" class="text">ET
</text>
<text x="1278.999995" y="1102.999965" width="6.0000622500001555" height="22.99998431999984" class="text">$</text>
<text x="1290.00005225" y="1102.999965" width="48.99995100000001" height="22.99998431999984" class="text">0.00
</text>
<text x="90.999997725" y="1610.9999954999998" width="13.000000650000004" height="20.999942879999708" class="text">In </text>
<text x="110.00000147499999" y="1610.9999954999998" width="87.99999617500002" height="20.999942879999708" class="text">accordance </text>
<text x="206.00000785" y="1610.9999954999998" width="26.999986649999983" height="20.999942879999708" class="text">with </text>
<text x="237.9999895" y="1610.9999954999998" width="89.00000200000002" height="20.999942879999708" class="text">paragraphs </text>
<text x="331.99998650000003" y="1610.9999954999998" width="18.000027499999987" height="20.999942879999708" class="text">49 </text>
<text x="356.99998425" y="1610.9999954999998" width="26.999995749999982" height="20.999942879999708" class="text">and </text>
<text x="390.99999575000004" y="1610.9999954999998" width="15.000007749999952" height="20.999942879999708" class="text">50 </text>
<text x="413.99999549999995" y="1610.9999954999998" width="14.999985000000038" height="20.999942879999708" class="text">of </text>
<text x="434.99999725" y="1610.9999954999998" width="20.00000275000002" height="20.999942879999708" class="text">the </text>
<text x="460.00001775000004" y="1610.9999954999998" width="48.999973749999924" height="20.999942879999708" class="text">United </text>
<text x="519.000027" y="1610.9999954999998" width="44.99997774999997" height="20.999942879999708" class="text">Stated </text>
<text x="570.00004425" y="1610.9999954999998" width="60.99996175000001" height="20.999942879999708" class="text">Federal </text>
<text x="635.0000247500001" y="1610.9999954999998" width="126.99996399999998" height="20.999942879999708" class="text">Communications </text>
<text x="768.999959" y="1610.9999954999998" width="92.00004449999994" height="20.999942879999708" class="text">Commission </text>
<text x="865.00002225" y="1610.9999954999998" width="54.99999049999997" height="20.999942879999708" class="text">Report </text>
<text x="924.0000315" y="1610.9999954999998" width="26.999973000000068" height="20.999942879999708" class="text">and </text>
<text x="956.99997575" y="1610.9999954999998" width="45.000000500000056" height="20.999942879999708" class="text">Order </text>
<text x="1005.0000187500001" y="1610.9999954999998" width="28.999993749999817" height="20.999942879999708" class="text">No. </text>
<text x="1035.0000115" y="1610.9999954999998" width="36.99996299999998" height="20.999942879999708" class="text">FCC </text>
<text x="1075.99999325" y="1610.9999954999998" width="55.999989499999856" height="20.999942879999708" class="text">07-217</text>
<text x="1130.99998375" y="1610.9999954999998" width="5.999994000000015" height="20.999942879999708" class="text">, </text>
<text x="1140.9999965" y="1610.9999954999998" width="24.000067000000172" height="20.999942879999708" class="text">this </text>
<text x="1172.00003375" y="1610.9999954999998" width="49.99999550000007" height="20.999942879999708" class="text">station </text>
<text x="1228.9999995" y="1610.9999954999998" width="23.999953249999862" height="20.999942879999708" class="text">will </text>
<text x="1255.9999725" y="1610.9999954999998" width="26.999972999999954" height="20.999942879999708" class="text">not </text>
<text x="1285.00005725" y="1610.9999954999998" width="90.00000099999988" height="20.999942879999708" class="text">discriminate </text>
<text x="1380.99996125" y="1610.9999954999998" width="11.000057250000054" height="20.999942879999708" class="text">in </text>
<text x="1400.9999639999999" y="1610.9999954999998" width="26.999973000000182" height="20.999942879999708" class="text">any </text>
<text x="1433.99999925" y="1610.9999954999998" width="61.99996075000013" height="20.999942879999708" class="text">contract </text>
<text x="1497.99993525" y="1610.9999954999998" width="21.00004725000008" height="20.999942879999708" class="text">for </text>
<text x="1525.00004475" y="1610.9999954999998" width="80.99991900000009" height="20.999942879999708" class="text">advertising </text>
<text x="1613.0000705000002" y="1610.9999954999998" width="14.999984999999924" height="20.999942879999708" class="text">on </text>
<text x="1635.0000484999998" y="1610.9999954999998" width="23.99993050000012" height="20.999942879999708" class="text">the </text>
<text x="1663.999974" y="1610.9999954999998" width="39.00009749999981" height="20.999942879999708" class="text">basis </text>
<text x="1708.9999745" y="1610.9999954999998" width="16.99998299999993" height="20.999942879999708" class="text">of </text>
<text x="1728.9999772499998" y="1610.9999954999998" width="31.999968000000308" height="20.999942879999708" class="text">race </text>
<text x="1768.0000519999999" y="1610.9999954999998" width="16.999983000000157" height="20.999942879999708" class="text">or </text>
<text x="1787.00001025" y="1610.9999954999998" width="61.000052749999895" height="20.999942879999708" class="text">ethnicity</text>
<text x="1850.9999462500002" y="1610.9999954999998" width="6.000062249999701" height="20.999942879999708" class="text">, </text>
<text x="1860.99993625" y="1610.9999954999998" width="27.000109500000008" height="20.999942879999708" class="text">and </text>
<text x="1895.000016" y="1610.9999954999998" width="18.000027499999987" height="20.999942879999708" class="text">all </text>
<text x="1915.00001875" y="1610.9999954999998" width="35.00001049999992" height="20.999942879999708" class="text">such </text>
<text x="1956.9999995" y="1610.9999954999998" width="66.9999557499998" height="20.999942879999708" class="text">contracts </text>
<text x="2030.9999254999998" y="1610.9999954999998" width="28.00004025000044" height="20.999942879999708" class="text">will </text>
<text x="2058.9999657500002" y="1610.9999954999998" width="20.000002749999567" height="20.999942879999708" class="text">be </text>
<text x="2085.000008" y="1610.9999954999998" width="73.00001800000018" height="20.999942879999708" class="text">evaluated</text>
<text x="2160.00000125" y="1610.9999954999998" width="6.0000622500001555" height="20.999942879999708" class="text">,
</text>
<text x="861.0000034999999" y="1630.00003758" width="68.99999925000009" height="21.000065940000013" class="text">accepted</text>
<text x="932.999977" y="1630.00003758" width="6.000039500000071" height="21.000065940000013" class="text">, </text>
<text x="940.99999175" y="1630.00003758" width="80.99998725" height="21.000065940000013" class="text">negotiated </text>
<text x="1026.9999739999998" y="1630.00003758" width="27.000041250000095" height="21.000065940000013" class="text">and </text>
<text x="1061.9999845" y="1630.00003758" width="75.99996950000013" height="21.000065940000013" class="text">completed </text>
<text x="1145.9999915" y="1630.00003758" width="58.00001024999983" height="21.000065940000013" class="text">without </text>
<text x="1205.000069" y="1630.00003758" width="48.99992825000004" height="21.000065940000013" class="text">regard </text>
<text x="1260.0000595" y="1630.00003758" width="11.99996525000006" height="21.000065940000013" class="text">to </text>
<text x="1277.9999504999998" y="1630.00003758" width="32.000104500000134" height="21.000065940000013" class="text">race </text>
<text x="1317.9999559999999" y="1630.00003758" width="14.999985000000152" height="21.000065940000013" class="text">or </text>
<text x="1339.00000325" y="1630.00003758" width="61.9999607499999" height="21.000065940000013" class="text">ethnicity</text>
<text x="1402.9999392500001" y="1630.00003758" width="6.000062249999928" height="21.000065940000013" class="text">.
</text>
<text x="2041.99998275" y="1684.00001376" width="64.00007249999999" height="19.999992479999946" class="text">powered </text>
<text x="2111.999981" y="1682.99995788" width="16.999983000000157" height="18.999936599999955" class="text">by </text>
<text x="2133.00002825" y="1682.99995788" width="80.99991899999986" height="20.99996046000001" class="text">WideOrbit
</text>
</g>
</svg>
