<svg xmlns="http://www.w3.org/2000/svg">
<style>.text { font-size: 14px; font-family: Arial, sans-serif; }</style>
<g id="page-0" transform="translate(0, 0)">
<rect width="1758" height="2275" fill="none" stroke="black" />
<text x="1542.00004254" y="79.000000625" width="52.999920299999985" height="27.000000299999996" class="text">Page </text>
<text x="1619.9999886" y="77.00000262500001" width="8.000007539999842" height="25.000002300000006" class="text">1 </text>
<text x="1641.00003696" y="77.00000262500001" width="23.999952299999904" height="26.0000013" class="text">of </text>
<text x="1676.00000622" y="75.99999907499999" width="8.00000754000007" height="24.999997749999984" class="text">1
</text>
<text x="92.00000056799999" y="241.00000925" width="27.000002154" height="16.000006749999983" class="text">THE
</text>
<text x="116.9999982" y="282.99998999999997" width="212.00001522000002" height="99.999991" class="text">W59
</text>
<text x="342.99998705999997" y="184.00000255" width="76.99999566000002" height="26.000001300000008" class="text">KFRE
</text>
<text x="344.99999334" y="222.999997675" width="59.99999501999997" height="31.000003125000006" class="text">5111 </text>
<text x="416.99999088" y="224.000001225" width="28.000017600000035" height="32.00000667500001" class="text">E. </text>
<text x="452.00001288" y="225.00000250000002" width="120.00000762000002" height="33.000007950000025" class="text">McKinley </text>
<text x="586.00001172" y="225.00000250000002" width="48.00001008000004" height="32.00000440000002" class="text">Ave
</text>
<text x="344.00000778000003" y="258.99999125" width="91.99999001999998" height="31.99999757499998" class="text">Fresno</text>
<text x="438.99998963999997" y="257.000016" width="9.00001068000006" height="30.000022325000003" class="text">, </text>
<text x="456.99997584" y="257.000016" width="33.00003330000004" height="30.000022325000003" class="text">CA </text>
<text x="511.00002234" y="257.000016" width="79.99996992000001" height="32.000013499999994" class="text">93727
</text>
<text x="344.00000778000003" y="288.00000774999995" width="55.999982459999956" height="25.999996749999923" class="text">Main</text>
<text x="411.0000072" y="288.00000774999995" width="7.000004399999966" height="25.999996749999923" class="text">: </text>
<text x="442.00001664" y="293.00000274999996" width="9.999996239999973" height="30.999991749999936" class="text">(</text>
<text x="453.00001602000003" y="293.00000274999996" width="44.99996549999997" height="33.00001249999997" class="text">559</text>
<text x="501.0000261" y="291.999981" width="9.999996239999973" height="30.99996900000002" class="text">) </text>
<text x="518.00002674" y="291.999981" width="118.99998690000007" height="33.99998875" class="text">255-2600
</text>
<text x="344.00000778000003" y="330.00001125" width="84.00000005999999" height="34.99998775" class="text">Billing</text>
<text x="431.99998524" y="328.99998949999997" width="9.000010679999946" height="32.99998974999994" class="text">: </text>
<text x="449.00002104000004" y="328.99998949999997" width="8.999975519999964" height="32.99998974999994" class="text">(</text>
<text x="460.00002041999994" y="328.99998949999997" width="46.99998936000003" height="34.99998775" class="text">559</text>
<text x="507.99997776000004" y="328.00001325" width="9.000028259999965" height="32.99998975" class="text">) </text>
<text x="525.99998154" y="328.00001325" width="119.00000448000003" height="35.00001050000003" class="text">255-2600
</text>
<text x="839.9999830200001" y="113.999997475" width="189.99996371999998" height="38.99999285" class="text">INVOICE
</text>
<text x="904.00000818" y="151.99999814999998" width="85.00000320000004" height="26.00000129999998" class="text">Property
</text>
<text x="901.9999843200001" y="184.00000255" width="70.99999439999988" height="23.00000885" class="text">Invoice </text>
<text x="985.00005156" y="182.99999899999997" width="5.999983680000014" height="21.000001749999996" class="text">#
</text>
<text x="904.99997616" y="216.00000695" width="70.99999439999999" height="21.000001749999996" class="text">Invoice </text>
<text x="981.99995424" y="216.00000695" width="46.00007412000002" height="21.000001749999996" class="text">Date
</text>
<text x="904.00000818" y="250.99999925" width="70.00002641999993" height="22.99999975" class="text">Invoice </text>
<text x="981.99995424" y="250.99999925" width="63.000074760000075" height="22.99999975" class="text">Month
</text>
<text x="902.9999523" y="285.00001075" width="69.00005843999998" height="20.00000275000002" class="text">Invoice </text>
<text x="981.99995424" y="285.00001075" width="66.00006659999997" height="21.000001750000024" class="text">Period
</text>
<text x="904.00000818" y="318.0000005" width="104.99999567999998" height="22.00000074999997" class="text">Advertiser
</text>
<text x="901.9999843200001" y="355.00000900000003" width="81.99999377999984" height="22.000000750000027" class="text">Product
</text>
<text x="904.00000818" y="386.999977" width="85.00000320000004" height="20.999979000000053" class="text">Estimate </text>
<text x="1002.0000522" y="386.00000075" width="4.999910219999947" height="19.000026500000047" class="text">#
</text>
<text x="50.000000538" y="450.00000500000004" width="61.999999542000005" height="26.99999575000004" class="text">Billing </text>
<text x="120.00000410400001" y="448.99998325" width="79.99999101599998" height="25.99997400000001" class="text">Address</text>
<text x="202.0000014" y="448.000007" width="7.000004399999995" height="24.999997749999977" class="text">:
</text>
<text x="1090.0000296599999" y="149.0000057" width="62.99996927999996" height="21.00000402500001" class="text">KFRE
</text>
<text x="1096.00003092" y="182.99999899999997" width="105.9999460800002" height="22.00000529999997" class="text">1330991-1
</text>
<text x="1319.00002794" y="181.99999545" width="57.99995357999978" height="21.000001749999996" class="text">Order </text>
<text x="1384.99998906" y="181.99999545" width="6.00000126000009" height="21.000001749999996" class="text"># </text>
<text x="1466.00003244" y="181.99999545" width="86.99992157999986" height="19.99999820000002" class="text">1330991
</text>
<text x="1090.99999764" y="216.999994575" width="87.99999504000016" height="21.000001749999996" class="text">01/19/20
</text>
<text x="1319.00002794" y="216.999994575" width="22.999984320000067" height="21.000001749999996" class="text">Alt </text>
<text x="1351.00000536" y="216.999994575" width="58.000041479999936" height="21.000001749999996" class="text">Order </text>
<text x="1416.99996648" y="216.00000695" width="5.999983680000014" height="21.000001749999996" class="text"># </text>
<text x="1464.00000858" y="216.00000695" width="99.99996239999996" height="20.000014125000007" class="text">09739079
</text>
<text x="1094.99995746" y="257.000016" width="80.00007540000001" height="28.000017500000013" class="text">January </text>
<text x="1183.0000404" y="254.99999524999998" width="46.99993661999997" height="26.999995749999982" class="text">2020 </text>
<text x="1317.99997206" y="250.99999925" width="47.99999249999996" height="20.00000275000002" class="text">Deal </text>
<text x="1373.0000217000002" y="250.99999925" width="5.999983680000014" height="20.00000275000002" class="text">#
</text>
<text x="1090.99999764" y="290.00000575" width="88.99994544000015" height="25.999996750000037" class="text">01/13/20 </text>
<text x="1189.9999920599998" y="290.00000575" width="7.000057140000308" height="25.999996750000037" class="text">- </text>
<text x="1203.0000328800002" y="290.00000575" width="85.9999535999998" height="25.999996750000037" class="text">01/19/20 </text>
<text x="1319.00002794" y="290.00000575" width="54.99996173999989" height="25.999996750000037" class="text">Flight </text>
<text x="1376.99998152" y="290.00000575" width="62.99996927999996" height="25.999996750000037" class="text">Dates </text>
<text x="1463.0000406" y="290.00000575" width="88.99994544000015" height="25.999996750000037" class="text">01/18/20 </text>
<text x="1560.99996156" y="290.00000575" width="7.000057140000081" height="25.999996750000037" class="text">- </text>
<text x="1574.9999703600001" y="290.00000575" width="85.00000320000004" height="25.999996750000037" class="text">01/24/20
</text>
<text x="1094.99995746" y="323.00001825000004" width="43.000082280000015" height="24.999997750000034" class="text">Mike </text>
<text x="1147.9999832400001" y="323.00001825000004" width="110.0000113799997" height="27.00001850000001" class="text">Bloomberg </text>
<text x="1268.999994" y="321.9999965" width="47.00004209999997" height="24.999997749999977" class="text">2020 </text>
<text x="1325.0000292" y="320.9999975" width="28.99996800000008" height="24.999997749999977" class="text">Inc</text>
<text x="1354.9999651800001" y="320.9999975" width="7.000039560000005" height="24.999997749999977" class="text">-</text>
<text x="1364.99999658" y="320.9999975" width="6.9999516599998515" height="24.999997749999977" class="text">D
</text>
<text x="1090.99999764" y="356.000008" width="149.00002836" height="22.999999749999972" class="text">BLOOMBERG </text>
<text x="1248.00005112" y="356.000008" width="132.99999569999977" height="22.999999749999972" class="text">PRESIDENT
</text>
<text x="1091.99996562" y="388.99999775" width="52.00005779999992" height="22.000023499999998" class="text">0117
</text>
<text x="1093.99998948" y="423.9999855" width="85.99995360000003" height="21.999977999999942" class="text">Account </text>
<text x="1181.99998452" y="423.9999855" width="98.00002644000006" height="21.999977999999942" class="text">Executive </text>
<text x="1311.0000204" y="428.00000425" width="122.9999467199998" height="27.00001850000001" class="text">Washington </text>
<text x="1444.0000161" y="428.00000425" width="30.00004145999992" height="27.00001850000001" class="text">DC </text>
<text x="1484.99995146" y="428.00000425" width="85.00000320000004" height="27.00001850000001" class="text">TeleRep</text>
<text x="1571.00001054" y="428.00000425" width="8.000025120000146" height="27.00001850000001" class="text">/</text>
<text x="1574.9999703600001" y="428.00000425" width="35.000074739999945" height="27.00001850000001" class="text">DC
</text>
<text x="1093.0000215" y="457.00002075" width="59.00002704000008" height="21.000024499999995" class="text">Sales </text>
<text x="1159.0000002" y="457.999997" width="58.000041480000164" height="22.000000750000027" class="text">Office
</text>
<text x="1317.99997206" y="462.00001575" width="84.00001764000012" height="26.000019500000008" class="text">TeleRep </text>
<text x="1409.0000468399999" y="462.00001575" width="118.99998690000007" height="28.000017499999956" class="text">Washington </text>
<text x="1537.00002684" y="460.99999399999996" width="33.99998370000003" height="25.99999674999998" class="text">DC
</text>
<text x="1093.0000215" y="495.99998175" width="57.99995358000001" height="26.999995749999982" class="text">Sales </text>
<text x="1155.00004038" y="497.00000350000005" width="72.99991278000016" height="26.99999575000004" class="text">Region </text>
<text x="1314.99998022" y="492.00000850000004" width="90.00000132000014" height="22.000000750000027" class="text">National
</text>
<text x="1093.0000215" y="532.000014" width="76.99997807999989" height="29.000016500000015" class="text">Agency </text>
<text x="1179.99994308" y="529.99999325" width="51.00010739999993" height="27.999971999999957" class="text">Code </text>
<text x="1316.0000361" y="527.99999525" width="89.99991341999998" height="22.00000074999997" class="text">9915458
</text>
<text x="1093.99998948" y="562.00000675" width="106.00005155999997" height="22.000000750000027" class="text">Advertiser </text>
<text x="1204.99996884" y="560.9999849999999" width="52.00005779999992" height="20.99997899999994" class="text">Code </text>
<text x="1317.99997206" y="562.00000675" width="59.00000946" height="21.000024499999995" class="text">MBLM
</text>
<text x="1093.0000215" y="600.000037" width="59.00002704000008" height="27.00004124999998" class="text">Billing </text>
<text x="1161.99999204" y="598.99996975" width="95.00003459999994" height="27.999949249999986" class="text">Calendar </text>
<text x="1317.99997206" y="596.0000182499999" width="104.99997810000013" height="22.00004624999997" class="text">Broadcast
</text>
<text x="1093.0000215" y="636.0000237500001" width="60.99994542000013" height="28.000040250000097" class="text">Billing </text>
<text x="1164.9999838800002" y="635.0000247500001" width="45.999968639999906" height="26.000042250000092" class="text">Type
</text>
<text x="1317.99997206" y="632.000005" width="47.99999249999996" height="21.999978000000056" class="text">Cash
</text>
<text x="1094.99995746" y="670.0000352500001" width="78.00003396000011" height="27.000041250000095" class="text">Special </text>
<text x="1173.9999594" y="670.0000352500001" width="92.00004275999981" height="27.000041250000095" class="text">Handling
</text>
<text x="1094.99995746" y="706.000022" width="73.00001826000016" height="29.0000164999999" class="text">Agency </text>
<text x="1176.99995124" y="703.9999785" width="38.000066580000066" height="27.999971999999957" class="text">Ref
</text>
<text x="1317.00000408" y="698.9999607499999" width="48.9999604799998" height="19.999979999999937" class="text">8284
</text>
<text x="1093.99998948" y="733.9999712499999" width="103.00005972000008" height="21.999977999999942" class="text">Advertiser </text>
<text x="1201.0000090199999" y="733.9999712499999" width="39.99998496000012" height="21.999977999999942" class="text">Ref </text>
<text x="1319.00002794" y="733.9999712499999" width="86.99992157999986" height="21.999977999999942" class="text">7357001
</text>
<text x="1091.99996562" y="767.99998275" width="81.99999378000007" height="22.999954249999973" class="text">Product </text>
<text x="1184.9999763600001" y="767.99998275" width="5.999983680000014" height="22.999954249999973" class="text">1
</text>
<text x="1317.00000408" y="768.999959" width="59.00000946" height="21.99995524999997" class="text">MBLM
</text>
<text x="1093.0000215" y="800.99999525" width="79.99996992000001" height="19.999979999999937" class="text">Product </text>
<text x="1181.99998452" y="800.99999525" width="5.999983680000014" height="19.999979999999937" class="text">2
</text>
<text x="260.99999328" y="518.0000052500001" width="117.00001578000001" height="27.9999947500001" class="text">Assembly
</text>
<text x="262.000014" y="546.999999" width="108.99999065999998" height="27.999971999999957" class="text">Attention</text>
<text x="377.00000592000004" y="545.99997725" width="6.999986819999947" height="25.999974000000066" class="text">: </text>
<text x="390.99999714" y="546.999999" width="116.00001263999997" height="27.999971999999957" class="text">Accounts </text>
<text x="515.9999853" y="547.999998" width="94.00003145999995" height="27.99999475000004" class="text">Payable
</text>
<text x="262.000014" y="578.99998975" width="41.99997365999997" height="28.999993750000044" class="text">711 </text>
<text x="313.9999839" y="578.99998975" width="57.000020759999984" height="28.999993750000044" class="text">Third </text>
<text x="382.00000404" y="578.99998975" width="92.99999315999992" height="28.999993750000044" class="text">Avenue</text>
<text x="477.99998903999995" y="578.99998975" width="8.000007540000013" height="28.999993750000044" class="text">, </text>
<text x="490.99997712" y="578.99998975" width="36.00002513999999" height="28.999993750000044" class="text">3rd </text>
<text x="541.0000110599999" y="578.99998975" width="62.99996928000007" height="28.999993750000044" class="text">Floor
</text>
<text x="260.00000772" y="607.00000725" width="45.99998621999998" height="26.999972999999954" class="text">New </text>
<text x="324.00001530000003" y="607.00000725" width="50.99998433999997" height="26.999972999999954" class="text">York</text>
<text x="379.99999776" y="607.00000725" width="8.000007540000013" height="26.999972999999954" class="text">, </text>
<text x="392.00000028" y="607.00000725" width="34.99998683999996" height="26.999972999999954" class="text">NY </text>
<text x="445.00000848" y="607.00000725" width="69.00000569999997" height="26.999972999999954" class="text">10017
</text>
<text x="52.99999941" y="731.9999959999999" width="48.000003047999996" height="24.99999774999992" class="text">Send </text>
<text x="109.99999555800001" y="733.9999712499999" width="93.99999454200001" height="26.999972999999954" class="text">Payment </text>
<text x="211.99999764" y="732.9999722499999" width="18.000021359999977" height="24.99999774999992" class="text">To</text>
<text x="235.00001712000002" y="733.9999712499999" width="6.999969239999984" height="24.99999774999992" class="text">:
</text>
<text x="68.000000802" y="771.0000025" width="76.99999390199999" height="27.000041250000095" class="text">KFRE
</text>
<text x="66.999997662" y="806.99998925" width="86.00000106599998" height="29.999992750000047" class="text">REMIT </text>
<text x="167.000004012" y="807.99998825" width="32.99999110799999" height="30.000015500000018" class="text">TO </text>
<text x="215.99999262" y="807.99998825" width="101.00001828" height="30.000015500000018" class="text">Sinclair </text>
<text x="325.99998641999997" y="810.000009" width="143.00002710000007" height="32.000036249999994" class="text">Broadcast </text>
<text x="476.00000034" y="809.00003275" width="80.99999064000002" height="30.00006099999996" class="text">Group </text>
<text x="569.99997906" y="809.00003275" width="38.000013840000065" height="30.00006099999996" class="text">Inc
</text>
<text x="69.999998292" y="840.0000245" width="8.000004024000006" height="27.00004124999998" class="text">c</text>
<text x="83.00000043600001" y="840.0000245" width="7.999998749999989" height="27.00004124999998" class="text">/</text>
<text x="93.999999816" y="840.0000245" width="7.999996992000007" height="27.00004124999998" class="text">o </text>
<text x="115.99999506" y="840.0000245" width="76.99999566" height="27.00004124999998" class="text">KFRE
</text>
<text x="66.000003312" y="874.000036" width="37.999998018" height="27.00004124999998" class="text">PO </text>
<text x="116.9999982" y="874.000036" width="54.00000079200001" height="27.00004124999998" class="text">Box </text>
<text x="180.99998820000002" y="874.000036" width="90.00001889999999" height="27.00004124999998" class="text">206270
</text>
<text x="68.000000802" y="911.9999752499999" width="82.000004328" height="31.999967999999967" class="text">Dallas</text>
<text x="151.99999734600001" y="911.9999752499999" width="9.000007163999982" height="31.999967999999967" class="text">, </text>
<text x="172.00000213200002" y="911.9999752499999" width="28.999996127999964" height="31.999967999999967" class="text">TX </text>
<text x="224.00000016" y="911.9999752499999" width="146.00000136" height="31.999967999999967" class="text">75320-6270
</text>
<text x="1189.9999920599998" y="981.9999735" width="53.99999376000005" height="26.999973000000068" class="text">Spots</text>
<text x="1243.00001784" y="981.9999735" width="8.000025119999918" height="26.999973000000068" class="text">/
</text>
<text x="1183.0000404" y="1012.9999652500001" width="59.999977440000066" height="20.00000275000002" class="text">Week
</text>
<text x="52.000001544" y="1010.00001375" width="39.99999902399999" height="20.00000275000002" class="text">Line </text>
<text x="119.00000272199999" y="1011.999989" width="45.999996768" height="21.000001750000024" class="text">Start </text>
<text x="172.00000213200002" y="1012.9999652500001" width="45.99999676799999" height="20.999979000000053" class="text">Date
</text>
<text x="255.0000096" y="1011.999989" width="36.99997553999998" height="21.000001750000024" class="text">End </text>
<text x="300.00001026" y="1011.999989" width="46.99998935999997" height="21.000001750000024" class="text">Date
</text>
<text x="390.99999714" y="1015.9999849999999" width="114.99999192000001" height="24.99999774999992" class="text">Description
</text>
<text x="661.99996908" y="1011.999989" width="43.000029540000014" height="21.000001750000024" class="text">Start</text>
<text x="706.99998732" y="1011.999989" width="6.000036420000015" height="21.000001750000024" class="text">/</text>
<text x="712.00000302" y="1011.999989" width="38.00001383999995" height="21.000001750000024" class="text">End </text>
<text x="764.00002566" y="1011.999989" width="45.99996864000002" height="21.000001750000024" class="text">Time
</text>
<text x="873.00001632" y="1012.9999652500001" width="96.99997056000007" height="16.999960250000072" class="text">MTWTFSS
</text>
<text x="1079.9999806800001" y="1016.9999839999999" width="65.99997869999993" height="25.999996749999923" class="text">Length
</text>
<text x="1334.00000472" y="1012.9999652500001" width="47.000042099999746" height="20.00000275000002" class="text">Rate
</text>
<text x="1444.0000161" y="1017.99996025" width="47.0000245199999" height="26.999972999999954" class="text">Type
</text>
<text x="95.999997306" y="1059.0000102499998" width="5.9999995020000085" height="22.000023499999998" class="text">3 </text>
<text x="117.99999958200002" y="1059.0000102499998" width="86.99999365799997" height="22.000023499999998" class="text">01/18/20
</text>
<text x="250.00001147999998" y="1060.00000925" width="89.99998374000003" height="23.000022500000114" class="text">01/18/20
</text>
<text x="394.00000656000003" y="1063.000029" width="59.00000946" height="26.000042250000206" class="text">Judge </text>
<text x="465.00000095999997" y="1063.000029" width="46.00002138000002" height="26.000042250000206" class="text">Judy
</text>
<text x="657.00000612" y="1065.00000425" width="24.00000504000002" height="25.999974000000066" class="text">6p</text>
<text x="685.00000614" y="1065.00000425" width="7.000004399999966" height="25.999974000000066" class="text">-</text>
<text x="689.99998668" y="1065.00000425" width="51.00000191999993" height="25.999974000000066" class="text">630p
</text>
<text x="921.0000088200001" y="1059.0000102499998" width="37.99996109999995" height="19.000003749999905" class="text">--1-
</text>
<text x="1116.9999738000001" y="1060.00000925" width="7.0000571399998535" height="20.99997899999994" class="text">:</text>
<text x="1124.00003094" y="1060.00000925" width="22.999984320000067" height="23.000022500000114" class="text">30
</text>
<text x="1240.99999398" y="1058.0000340000001" width="5.000015699999949" height="17.00005125000007" class="text">1
</text>
<text x="1344.0000536999999" y="1060.9999854999999" width="5.999983680000014" height="21.999955249999857" class="text">$</text>
<text x="1354.9999651800001" y="1060.9999854999999" width="57.00007349999987" height="21.999955249999857" class="text">30.00
</text>
<text x="1452.99999162" y="1059.0000102499998" width="34.999951680000095" height="20.999978999999712" class="text">NM
</text>
<text x="105.99999882" y="1115.99999875" width="74.99998938000002" height="21.000001750000138" class="text">Weeks</text>
<text x="183.99999762" y="1115.99999875" width="6.000001260000005" height="21.000001750000138" class="text">: </text>
<text x="243.00000708" y="1115.99999875" width="48.99997805999999" height="21.999978000000056" class="text">Start </text>
<text x="298.00000398000003" y="1115.99999875" width="43.999997519999965" height="21.999978000000056" class="text">Date </text>
<text x="377.00000592000004" y="1115.99999875" width="39.99998495999995" height="21.000001750000138" class="text">End </text>
<text x="424.99998084000003" y="1115.99999875" width="46.000003799999945" height="21.000001750000138" class="text">Date </text>
<text x="507.00000977999997" y="1114.0000235" width="96.99997056000001" height="19.000026500000104" class="text">MTWTFSS </text>
<text x="681.00001116" y="1119.99999475" width="57.99998874000005" height="26.999973000000182" class="text">Spots</text>
<text x="741.99999174" y="1119.0000185000001" width="7.000004399999966" height="24.999997750000148" class="text">/</text>
<text x="743.00001246" y="1119.99999475" width="59.00000946" height="26.999973000000182" class="text">Week
</text>
<text x="241.99998636" y="1142.000041" width="87.00002706000001" height="22.00004624999997" class="text">01/13/20 </text>
<text x="378.00000906" y="1140.9999965" width="86.99999189999994" height="21.999977999999828" class="text">01/19/20
</text>
<text x="68.000000802" y="1177.0000287500002" width="56.00000004" height="29.999992750000047" class="text">Spots</text>
<text x="126.000005364" y="1175.0000762500001" width="8.999993100000012" height="27.000109500000008" class="text">: </text>
<text x="150.999994206" y="1174.0000089999999" width="9.00000716400001" height="26.999972999999727" class="text"># </text>
<text x="194.999997" y="1170.0000585" width="26.99999687999997" height="21.00004725000008" class="text">Ch </text>
<text x="275.00000208" y="1174.0000089999999" width="38.999981820000016" height="23.000022499999886" class="text">Day </text>
<text x="334.9999971" y="1172.9999645" width="24.99999059999999" height="22.99990875000003" class="text">Air </text>
<text x="366.9999921" y="1172.9999645" width="44.00001510000004" height="24.99999774999992" class="text">Date </text>
<text x="463.00001226" y="1172.00003375" width="24.99997301999997" height="24.99999774999992" class="text">Air </text>
<text x="497.99998152" y="1174.0000089999999" width="46.00002138000002" height="26.999972999999727" class="text">Time </text>
<text x="558.0000117" y="1175.9999842500001" width="114.99997434" height="28.000017500000013" class="text">Description
</text>
<text x="150.00000513" y="1202.0000265" width="4.999998119999987" height="19.000072000000046" class="text">1 </text>
<text x="191.99998758" y="1202.0000265" width="59.00000945999997" height="19.99998000000005" class="text">KFRE </text>
<text x="289.99999644" y="1202.9999572499999" width="25.99999373999998" height="20.000002749999794" class="text">Sa </text>
<text x="332.00000526" y="1202.9999572499999" width="86.9999919" height="20.9999107499998" class="text">01/18/20 </text>
<text x="463.99998024" y="1205.9999770000002" width="45.00001824000003" height="26.999973000000182" class="text">6:25 </text>
<text x="514.00001418" y="1207.00004425" width="34.00000127999999" height="26.999972999999954" class="text">PM </text>
<text x="561.00000354" y="1207.99995225" width="59.00000946" height="27.99988099999996" class="text">Judge </text>
<text x="631.99998036" y="1209.0000195" width="42.000026400000024" height="28.00004025000021" class="text">Judy
</text>
<text x="921.0000088200001" y="1114.99999975" width="45.99996864000002" height="20.99997899999994" class="text">Rate
</text>
<text x="902.9999523" y="1140.0000657500002" width="6.000089160000016" height="21.00004725000008" class="text">$</text>
<text x="913.99995168" y="1142.000041" width="53.99999376000005" height="23.000022499999886" class="text">30.00
</text>
<text x="902.9999523" y="1172.00003375" width="47.99999249999996" height="23.000022500000114" class="text">Start</text>
<text x="952.00001826" y="1172.00003375" width="5.9999836799999" height="23.000022500000114" class="text">/</text>
<text x="958.00000194" y="1172.00003375" width="39.99998496000012" height="23.000022500000114" class="text">End </text>
<text x="1008.00003588" y="1172.00003375" width="46.99993661999997" height="23.000022500000114" class="text">Time
</text>
<text x="904.00000818" y="1207.99995225" width="23.00000190000003" height="24.99999774999992" class="text">6p</text>
<text x="930.99995232" y="1207.99995225" width="7.0000571399998535" height="24.99999774999992" class="text">-</text>
<text x="935.9999856" y="1207.99995225" width="49.00006596000003" height="24.99999774999992" class="text">630p
</text>
<text x="1113.00001398" y="1172.9999645" width="65.00001072000009" height="22.99990875000003" class="text">Length </text>
<text x="1192.0000335" y="1172.00003375" width="23.999934720000056" height="21.999978000000056" class="text">Ad</text>
<text x="1221.0000015" y="1172.00003375" width="5.9999836799997865" height="21.999978000000056" class="text">-</text>
<text x="1226.0000172" y="1172.00003375" width="17.000000640000053" height="21.999978000000056" class="text">ID
</text>
<text x="1150.0000071" y="1202.0000265" width="5.999983680000014" height="21.000047250000307" class="text">:</text>
<text x="1156.99995876" y="1202.0000265" width="22.000033920000078" height="21.000047250000307" class="text">30 </text>
<text x="1189.00004166" y="1202.0000265" width="142.9999216199999" height="21.000047250000307" class="text">MRBPBK3013EH
</text>
<text x="1574.9999703600001" y="1175.0000762500001" width="50.00003393999987" height="27.000109500000008" class="text">Rate </text>
<text x="1644.0000288" y="1175.9999842500001" width="48.999978059999876" height="26.999973000000182" class="text">Type
</text>
<text x="1568.9999866800001" y="1204.00000175" width="5.999983680000014" height="21.999955249999857" class="text">$</text>
<text x="1580.00000364" y="1204.00000175" width="53.999976179999976" height="21.999955249999857" class="text">30.00 </text>
<text x="1656.00001374" y="1204.00000175" width="33.00003330000004" height="21.999955249999857" class="text">NM
</text>
<text x="907.999968" y="1262.0000347500002" width="53.0000257800001" height="28.00001750000024" class="text">Total </text>
<text x="964.9999536000001" y="1262.99994275" width="59.00000945999989" height="26.999972999999954" class="text">Spots
</text>
<text x="1178.99999268" y="1257.99994775" width="5.999983680000014" height="20.00000275000002" class="text">1
</text>
<text x="50.000000538" y="1367.9999515" width="144.999996462" height="40.000005499999816" class="text">Payment </text>
<text x="209.0000058" y="1367.9999515" width="96.99998813999997" height="40.000005499999816" class="text">Terms </text>
<text x="320.9999883" y="1367.9999515" width="30.000023880000015" height="40.000005499999816" class="text">30 </text>
<text x="366.00000654" y="1367.9999515" width="76.99996049999993" height="40.000005499999816" class="text">Days
</text>
<text x="1309.99994694" y="1355.9999635000001" width="59.00000946" height="20.999910750000254" class="text">Gross </text>
<text x="1378.00005498" y="1355.9999635000001" width="50.99998434000008" height="20.999910750000254" class="text">Total
</text>
<text x="1582.0000275" y="1357.00003075" width="5.999983680000014" height="21.000047249999852" class="text">$</text>
<text x="1593.99999486" y="1357.00003075" width="54.99996174000012" height="21.000047249999852" class="text">30.00
</text>
<text x="1218.00000966" y="1415.000041" width="71.9999448000001" height="27.00008674999981" class="text">Agency </text>
<text x="1299.00003546" y="1413.9999965" width="123.99991470000009" height="28.000017500000013" class="text">Commission
</text>
<text x="1594.99996284" y="1410.0000459999999" width="5.999983680000014" height="21.000047249999852" class="text">$</text>
<text x="1605.9999798000001" y="1410.0000459999999" width="44.00005025999985" height="21.000047249999852" class="text">4.50
</text>
<text x="1255.9999531800001" y="1463.9999919999998" width="36.99999312" height="21.9999779999996" class="text">Net </text>
<text x="1296.0000436199998" y="1463.9999919999998" width="82.99996176000036" height="23.999953249999862" class="text">Amount </text>
<text x="1382.9999652" y="1462.9999475" width="41.00005842000019" height="21.999977999999828" class="text">Due
</text>
<text x="1582.99999548" y="1462.00001675" width="5.999983680000014" height="21.000047249999852" class="text">$</text>
<text x="1597.00000428" y="1463.9999919999998" width="53.00002577999999" height="23.00002249999966" class="text">25.50
</text>
<text x="387.00000216" y="2066.9999805" width="29.999988719999976" height="21.000047250000307" class="text">Net </text>
<text x="421.00000344" y="2066.9999805" width="17.999986199999967" height="21.000047250000307" class="text">30</text>
<text x="440.99999591999995" y="2066.9999805" width="5.999983680000071" height="21.000047250000307" class="text">-</text>
<text x="443.99998775999995" y="2066.9999805" width="70.00002642000004" height="21.000047250000307" class="text">Payment </text>
<text x="519.99999786" y="2066.9999805" width="9.999996240000087" height="21.000047250000307" class="text">is </text>
<text x="535.99997778" y="2066.9999805" width="26.999996880000026" height="21.000047250000307" class="text">due </text>
<text x="569.99997906" y="2066.9999805" width="40.00003770000001" height="21.000047250000307" class="text">within </text>
<text x="617.0000211600001" y="2066.9999805" width="19.999992479999946" height="21.000047250000307" class="text">30 </text>
<text x="642.99999732" y="2066.9999805" width="35.99997239999993" height="21.000047250000307" class="text">days </text>
<text x="682.0000143" y="2066.9999805" width="34.00000127999999" height="21.000047250000307" class="text">from </text>
<text x="721.99999926" y="2066.9999805" width="52.00002264" height="21.000047250000307" class="text">invoice </text>
<text x="781.9999767" y="2066.9999805" width="29.000020739999968" height="21.000047250000307" class="text">date</text>
<text x="815.00001" y="2066.9999805" width="5.999983680000014" height="21.000047250000307" class="text">. </text>
<text x="829.9999867800001" y="2066.9999805" width="49.000013219999914" height="21.000047250000307" class="text">Station </text>
<text x="889.0000489800001" y="2066.9999805" width="46.99993661999986" height="21.000047250000307" class="text">owned </text>
<text x="943.99999314" y="2066.9999805" width="14.999976779999997" height="21.000047250000307" class="text">or </text>
<text x="963.0000352200001" y="2066.9999805" width="62.99996928000007" height="21.000047250000307" class="text">provided </text>
<text x="1034.00001204" y="2066.9999805" width="62.99996928000019" height="21.000047250000307" class="text">services </text>
<text x="1099.99997316" y="2066.9999805" width="19.999992479999946" height="21.000047250000307" class="text">by </text>
<text x="1124.99999892" y="2066.9999805" width="24.000057779999906" height="21.000047250000307" class="text">the </text>
<text x="1155.99999078" y="2066.9999805" width="53.99999376000005" height="21.000047250000307" class="text">Sinclair </text>
<text x="1217.00004168" y="2066.9999805" width="77.99994605999973" height="21.000047250000307" class="text">Broadcast </text>
<text x="1300.9999714199998" y="2066.9999805" width="44.00005026000031" height="21.000047250000307" class="text">Group</text>
<text x="1345.99997208" y="2066.9999805" width="5.999983680000014" height="21.000047250000307" class="text">.
</text>
<text x="57.99999753" y="2108.0000305" width="71.000001432" height="21.999955249999857" class="text">Warranty</text>
<text x="132.00000486599998" y="2108.0000305" width="5.9999995020000085" height="21.999955249999857" class="text">-</text>
<text x="135.99999984599998" y="2108.0000305" width="26.99999512200003" height="21.999955249999857" class="text">We </text>
<text x="168.000005394" y="2108.0000305" width="58.000001045999994" height="21.999955249999857" class="text">warrant </text>
<text x="228.99999828" y="2108.0000305" width="24.999990600000018" height="21.999955249999857" class="text">the </text>
<text x="259.00000458" y="2108.0000305" width="43.99999752000002" height="21.999955249999857" class="text">above </text>
<text x="308.99998578" y="2108.0000305" width="84.00001764000001" height="21.999955249999857" class="text">broadcasts </text>
<text x="398.00000154" y="2108.0000305" width="35.99998997999995" height="21.999955249999857" class="text">were </text>
<text x="445.00000848" y="2108.0000305" width="39.999984960000006" height="21.999955249999857" class="text">made </text>
<text x="490.00000914000003" y="2108.0000305" width="73.99998624000006" height="21.999955249999857" class="text">according </text>
<text x="566.99998722" y="2108.0000305" width="17.000000640000053" height="21.999955249999857" class="text">to </text>
<text x="588.00000042" y="2108.0000305" width="23.999987459999943" height="21.999955249999857" class="text">the </text>
<text x="617.99998914" y="2108.0000305" width="50.99998433999997" height="21.999955249999857" class="text">official </text>
<text x="669.9999942" y="2108.0000305" width="49.99998119999998" height="21.999955249999857" class="text">station </text>
<text x="726.9999798" y="2108.0000305" width="22.000016340000002" height="21.999955249999857" class="text">log</text>
<text x="750.00001686" y="2108.0000305" width="5.999983680000014" height="21.999955249999857" class="text">. </text>
<text x="764.99997606" y="2108.0000305" width="50.00003393999998" height="21.999955249999857" class="text">Please </text>
<text x="819.00002256" y="2108.0000305" width="32.999980559999926" height="21.999955249999857" class="text">note </text>
<text x="857.9999868" y="2108.0000305" width="34.00005401999999" height="21.999955249999857" class="text">that </text>
<text x="890.00001696" y="2108.0000305" width="25.00000818000001" height="21.999955249999857" class="text">we </text>
<text x="921.0000088200001" y="2108.0000305" width="17.000000639999826" height="21.999955249999857" class="text">do </text>
<text x="941.99996928" y="2108.0000305" width="29.000073480000083" height="21.999955249999857" class="text">not </text>
<text x="971.00004276" y="2108.0000305" width="60.999945419999904" height="21.999955249999857" class="text">notarize </text>
<text x="1039.99999572" y="2108.0000305" width="61.000050899999906" height="21.999955249999857" class="text">invoices </text>
<text x="1107.0000303" y="2108.0000305" width="37.999961100000064" height="21.999955249999857" class="text">since </text>
<text x="1152.00004854" y="2108.0000305" width="19.999992479999946" height="21.999955249999857" class="text">the </text>
<text x="1178.0000247" y="2108.0000305" width="62.99996927999996" height="21.999955249999857" class="text">purpose </text>
<text x="1246.99997766" y="2108.0000305" width="16.000032659999988" height="21.999955249999857" class="text">of </text>
<text x="1266.99997014" y="2108.0000305" width="51.00000191999993" height="21.999955249999857" class="text">placing </text>
<text x="1327.00005306" y="2108.0000305" width="5.999983680000014" height="21.999955249999857" class="text">a </text>
<text x="1337.99996454" y="2108.0000305" width="47.99999249999996" height="21.999955249999857" class="text">notary </text>
<text x="1392.0000462" y="2108.0000305" width="31.99997742000005" height="21.999955249999857" class="text">seal </text>
<text x="1429.00003932" y="2108.0000305" width="17.000000639999826" height="21.999955249999857" class="text">on </text>
<text x="1453.9999596" y="2108.0000305" width="6.000089160000016" height="21.999955249999857" class="text">a </text>
<text x="1466.00003244" y="2108.0000305" width="79.00000193999995" height="21.999955249999857" class="text">document </text>
<text x="1546.9999703400001" y="2108.0000305" width="12.000072839999802" height="21.999955249999857" class="text">is </text>
<text x="1563.99997098" y="2108.0000305" width="12.00007284000003" height="21.999955249999857" class="text">to </text>
<text x="1582.0000275" y="2108.0000305" width="68.00000255999998" height="21.999955249999857" class="text">guaranty </text>
<text x="1655.0000457600001" y="2108.0000305" width="23.999952299999904" height="21.999955249999857" class="text">the
</text>
<text x="525.99998154" y="2126.9999887500003" width="83.00001450000002" height="21.999978000000283" class="text">authenticity </text>
<text x="616.00000044" y="2126.9999887500003" width="17.00000063999994" height="21.999978000000283" class="text">of </text>
<text x="635.99999292" y="2126.9999887500003" width="17.000000640000053" height="21.999978000000283" class="text">an </text>
<text x="658.9999772399999" y="2126.9999887500003" width="84.00003522000009" height="21.999978000000283" class="text">individual's </text>
<text x="750.99998484" y="2126.9999887500003" width="69.00000569999997" height="21.999978000000283" class="text">signature </text>
<text x="825.0000062400001" y="2126.9999887500003" width="28.00001759999998" height="21.999978000000283" class="text">and </text>
<text x="856.99998366" y="2126.9999887500003" width="25.999976160000074" height="21.999978000000283" class="text">not </text>
<text x="887.9999755199999" y="2126.9999887500003" width="11.000016960000039" height="21.999978000000283" class="text">to </text>
<text x="906.0000496200001" y="2126.9999887500003" width="43.99994477999974" height="21.999978000000283" class="text">certify </text>
<text x="957.00003396" y="2126.9999887500003" width="23.999952300000018" height="21.999978000000283" class="text">the </text>
<text x="985.00005156" y="2126.9999887500003" width="68.99995295999997" height="21.999978000000283" class="text">accuracy </text>
<text x="1059.9999882000002" y="2126.9999887500003" width="16.000050239999837" height="21.999978000000283" class="text">of </text>
<text x="1079.9999806800001" y="2126.9999887500003" width="89.0000685" height="21.999978000000283" class="text">commercial </text>
<text x="1173.9999594" y="2126.9999887500003" width="34.00000127999988" height="21.999978000000283" class="text">aired</text>
<text x="1210.99995252" y="2126.9999887500003" width="6.000089160000016" height="21.999978000000283" class="text">.
</text>
<text x="1517.9999847600002" y="2201.00005125" width="65.99996111999985" height="20.00000275000002" class="text">powered </text>
<text x="1590.0000526200001" y="2200.00000675" width="17.000000639999826" height="18.00002749999976" class="text">by </text>
<text x="1611.9999634800001" y="2200.00000675" width="78.00003395999988" height="20.00000275000002" class="text">WideOrbit
</text>
</g>
</svg>
