<svg xmlns="http://www.w3.org/2000/svg">
<style>.text { font-size: 14px; font-family: Arial, sans-serif; }</style>
<g id="page-0" transform="translate(0, 0)">
<rect width="1758" height="2275" fill="none" stroke="black" />
<text x="1542.00004254" y="80.000004175" width="54.99996173999989" height="28.00000385" class="text">Page </text>
<text x="1622.9999804400002" y="77.99999707500001" width="8.000007539999842" height="25.999996750000008" class="text">1 </text>
<text x="1642.9999729200001" y="77.99999707500001" width="19.999992479999946" height="26.999995750000004" class="text">of </text>
<text x="1678.00003008" y="77.00000262500001" width="8.000025120000146" height="26.0000013" class="text">1
</text>
<text x="572.0000205" y="160.00000835" width="343.00000464000004" height="85.000003725" class="text">DUPLINY
</text>
<text x="336.00001782" y="189.0000021" width="153.99999132000005" height="31.000000849999992" class="text">WGAL_MT
</text>
<text x="346.99999962" y="218.9999994" width="54.999996899999985" height="27.00000485000001" class="text">1300 </text>
<text x="414.9999846" y="218.9999994" width="126.0000264599999" height="27.00000485000001" class="text">Columbia </text>
<text x="552.00002802" y="218.9999994" width="49.99998119999998" height="27.00000485000001" class="text">Ave
</text>
<text x="342.99998705999997" y="257.99999225" width="137.0000258400001" height="30.999998574999978" class="text">Lancaster</text>
<text x="480.99998088" y="257.000016" width="9.000028260000022" height="30.000022325000003" class="text">, </text>
<text x="495.99999281999993" y="257.000016" width="32.99999814000006" height="30.000022325000003" class="text">PA </text>
<text x="551.0000073" y="255.99999425000001" width="76.00001010000005" height="30.999991749999992" class="text">17603
</text>
<text x="60.99999816" y="291.999981" width="172.99999824" height="34.999964999999975" class="text">SUSQUEHANNA </text>
<text x="245.00001336" y="293.00000274999996" width="81.99999378000004" height="34.00001149999997" class="text">VALLEY </text>
<text x="342.0000015" y="294.00000174999997" width="62.99998685999998" height="34.00001149999997" class="text">Main</text>
<text x="411.99999276" y="293.00000274999996" width="9.000010680000003" height="31.999990749999995" class="text">: </text>
<text x="442.99996703999994" y="295.99999975000003" width="188.00006292000006" height="34.99998775000006" class="text">(717)393-5851
</text>
<text x="344.00000778000003" y="328.99998949999997" width="86.00000633999997" height="32.99998974999994" class="text">Billing</text>
<text x="433.00000596" y="328.99998949999997" width="9.000010680000003" height="32.99998974999994" class="text">:
</text>
<text x="66.000003312" y="261.00001199999997" width="237.999984348" height="75.00002054999999" class="text">MeTV </text>
<text x="344.00000778000003" y="269.000004" width="136.99997309999998" height="71.00000634999998" class="text">Lancaster</text>
<text x="476.00000034" y="270.000003" width="21.99998118000002" height="64.99999869999999" class="text">, </text>
<text x="487.00001729999997" y="271.000002" width="51.000001920000045" height="65.9999977" class="text">PA </text>
<text x="551.0000073" y="274.999998" width="80.00002266000001" height="68.00000252500001" class="text">17603
</text>
<text x="840.9999861599999" y="113.000003025" width="184.00005035999993" height="39.00000195" class="text">INVOICE
</text>
<text x="901.9999843200001" y="151.99999814999998" width="87.99999503999993" height="26.999998024999982" class="text">Property
</text>
<text x="901.9999843200001" y="181.99999545" width="72.00005027999987" height="21.000001749999996" class="text">Invoice </text>
<text x="985.00005156" y="181.99999545" width="5.999983680000014" height="21.000001749999996" class="text">#
</text>
<text x="902.9999523" y="216.00000695" width="69.00005843999998" height="20.000014125000007" class="text">Invoice </text>
<text x="983.9999780999999" y="216.00000695" width="44.00005026000008" height="21.000001749999996" class="text">Date
</text>
<text x="901.9999843200001" y="251.99999825" width="73.99998623999988" height="22.99999975" class="text">Invoice </text>
<text x="983.0000277" y="251.99999825" width="59.99997743999995" height="22.99999975" class="text">Month
</text>
<text x="902.9999523" y="285.00001075" width="69.00005843999998" height="20.00000275000002" class="text">Invoice </text>
<text x="981.99995424" y="285.00001075" width="64.9999931399999" height="21.000001750000024" class="text">Period
</text>
<text x="906.0000496200001" y="318.0000005" width="100.99991279999983" height="21.000001749999967" class="text">Advertiser
</text>
<text x="904.00000818" y="355.00000900000003" width="82.00001135999992" height="23.0000225" class="text">Product
</text>
<text x="904.00000818" y="387.99999875" width="85.99997117999999" height="21.000024499999995" class="text">Estimate </text>
<text x="1003.00002018" y="386.999977" width="5.999983680000014" height="20.00000275000002" class="text">#
</text>
<text x="50.999998404" y="450.00000500000004" width="58.000001046" height="26.99999575000004" class="text">Billing </text>
<text x="120.99999318" y="448.99998325" width="82.99999692000002" height="27.999994749999985" class="text">Address</text>
<text x="205.99999638" y="447.000008" width="7.000004399999995" height="24.999997749999977" class="text">:
</text>
<text x="1093.0000215" y="149.0000057" width="60.99994542000013" height="21.00000402500001" class="text">EGAL
</text>
<text x="1096.9999813200002" y="182.99999899999997" width="104.00002769999969" height="22.999990649999972" class="text">2005246-1
</text>
<text x="1319.00002794" y="181.99999545" width="57.99995357999978" height="21.000001749999996" class="text">Order </text>
<text x="1384.99998906" y="181.99999545" width="6.00000126000009" height="21.000001749999996" class="text"># </text>
<text x="1466.00003244" y="182.99999899999997" width="82.9999617599999" height="22.999990649999972" class="text">2005246
</text>
<text x="1093.99998948" y="216.999994575" width="84.00003521999997" height="21.999989374999984" class="text">04/26/20
</text>
<text x="1319.00002794" y="216.00000695" width="25.000025759999744" height="21.000001749999996" class="text">Alt </text>
<text x="1350.0000373799999" y="216.00000695" width="62.99996928000019" height="21.000001749999996" class="text">Order </text>
<text x="1416.99996648" y="216.00000695" width="5.999983680000014" height="21.000001749999996" class="text"># </text>
<text x="1464.00000858" y="215.0000034" width="99.99996239999996" height="19.999998199999993" class="text">09816665
</text>
<text x="1091.99996562" y="255.99999425000001" width="49.00006596000003" height="27.999994750000013" class="text">April </text>
<text x="1145.99995938" y="254.99999524999998" width="50.00001635999979" height="28.00000157499997" class="text">2020
</text>
<text x="1319.00002794" y="250.99999925" width="46.999936619999744" height="21.000001749999996" class="text">Deal </text>
<text x="1371.9999482399999" y="250.99999925" width="6.000106740000092" height="21.000001749999996" class="text">#
</text>
<text x="1093.99998948" y="290.00000575" width="85.00000320000004" height="27.00001850000001" class="text">03/30/20 </text>
<text x="1189.00004166" y="290.00000575" width="8.00000754000007" height="27.00001850000001" class="text">- </text>
<text x="1201.9999770000002" y="290.00000575" width="87.99997745999985" height="27.00001850000001" class="text">04/26/20 </text>
<text x="1319.00002794" y="290.00000575" width="57.99995357999978" height="27.00001850000001" class="text">Flight </text>
<text x="1379.0000053800002" y="290.00000575" width="59.000009459999774" height="27.00001850000001" class="text">Dates </text>
<text x="1461.99996714" y="285.00001075" width="87.99999503999993" height="22.000023499999998" class="text">04/24/20 </text>
<text x="1560.00001116" y="285.00001075" width="5.999983680000014" height="21.000001750000024" class="text">- </text>
<text x="1574.9999703600001" y="286.00000975" width="87.00002705999987" height="22.000000750000027" class="text">04/30/20
</text>
<text x="1093.0000215" y="318.9999995" width="83.99992973999997" height="20.00000275000002" class="text">America </text>
<text x="1184.9999763600001" y="318.9999995" width="45.00000065999984" height="20.999978999999996" class="text">First </text>
<text x="1235.9999607" y="318.0000005" width="61.00005090000013" height="19.999979999999994" class="text">Action </text>
<text x="1306.9999551" y="318.0000005" width="39.00001697999983" height="19.999979999999994" class="text">Inc.
</text>
<text x="1091.99996562" y="356.000008" width="103.00005972000008" height="22.999999749999972" class="text">AMERICA </text>
<text x="1204.99996884" y="356.000008" width="66.00006660000008" height="22.999999749999972" class="text">FIRST </text>
<text x="1275.99994566" y="356.000008" width="83.00006723999991" height="22.999999749999972" class="text">ACTION
</text>
<text x="1094.99995746" y="387.99999875" width="72.0000502800001" height="21.000024499999995" class="text">380128
</text>
<text x="1093.99998948" y="423.00000925" width="85.99995360000003" height="22.000023499999998" class="text">Account </text>
<text x="1184.00000838" y="423.00000925" width="96.00000258" height="22.000023499999998" class="text">Executive
</text>
<text x="1316.0000361" y="430.00000224999997" width="48.00001007999981" height="27.999994749999928" class="text">Mary </text>
<text x="1376.99998152" y="428.00000425" width="62.99996927999996" height="29.000016500000015" class="text">Tricoli
</text>
<text x="1093.99998948" y="457.999997" width="53.99999376000005" height="22.000000750000027" class="text">Sales </text>
<text x="1159.9999506" y="457.999997" width="56.00001762000011" height="22.000000750000027" class="text">Office
</text>
<text x="1317.00000408" y="462.999992" width="47.99999249999996" height="27.99999475000004" class="text">HRP</text>
<text x="1368.000006" y="462.999992" width="8.00000754000007" height="27.99999475000004" class="text">-</text>
<text x="1373.99998968" y="463.999991" width="124.99997058000008" height="28.999993750000044" class="text">Philadelphia
</text>
<text x="1093.0000215" y="495.99998175" width="57.99995358000001" height="26.999995749999982" class="text">Sales </text>
<text x="1155.00004038" y="498.0000025" width="72.99991278000016" height="27.999994749999985" class="text">Region
</text>
<text x="1317.99997206" y="493.0000075" width="87.00000948000024" height="22.999999749999972" class="text">National
</text>
<text x="1093.0000215" y="532.000014" width="76.99997807999989" height="29.000016500000015" class="text">Agency </text>
<text x="1179.99994308" y="529.99999325" width="54.000099240000054" height="27.999971999999957" class="text">Code
</text>
<text x="1096.00003092" y="560.9999849999999" width="101.00001828000018" height="20.99997899999994" class="text">Advertiser </text>
<text x="1206.00002472" y="560.9999849999999" width="51.00000191999993" height="20.99997899999994" class="text">Code
</text>
<text x="1093.0000215" y="600.000037" width="62.99996927999996" height="27.00004124999998" class="text">Billing </text>
<text x="1161.99999204" y="598.99996975" width="95.00003459999994" height="27.999949249999986" class="text">Calendar </text>
<text x="1316.0000361" y="596.0000182499999" width="105.99994607999997" height="20.00000275000002" class="text">Broadcast
</text>
<text x="1093.99998948" y="633.99998025" width="62.000001299999894" height="24.999997750000034" class="text">Billing </text>
<text x="1164.0000158999999" y="633.99998025" width="48.99996048000003" height="24.999997750000034" class="text">Type
</text>
<text x="1096.00003092" y="668.999968" width="76.99996050000004" height="25.999973999999952" class="text">Special </text>
<text x="1173.9999594" y="668.999968" width="91.00009236000005" height="25.999973999999952" class="text">Handling
</text>
<text x="1091.99996562" y="705.0000229999999" width="77.00008356000012" height="29.0000164999999" class="text">Agency </text>
<text x="1176.99995124" y="702.00000325" width="40.00009044000012" height="25.999996749999923" class="text">Ref
</text>
<text x="1093.99998948" y="733.9999712499999" width="103.00005972000008" height="21.999977999999942" class="text">Advertiser </text>
<text x="1204.00000086" y="733.9999712499999" width="36.99999312" height="21.999977999999942" class="text">Ref
</text>
<text x="1091.99996562" y="767.99998275" width="83.00006723999991" height="20.99997899999994" class="text">Product </text>
<text x="1184.00000838" y="766.99998375" width="5.9999836799997865" height="20.99997899999994" class="text">1
</text>
<text x="1093.0000215" y="800.99999525" width="82.9999617599999" height="19.999979999999937" class="text">Product </text>
<text x="1181.99998452" y="800.99999525" width="5.999983680000014" height="19.999979999999937" class="text">2
</text>
<text x="260.99999328" y="518.0000052500001" width="40.999988099999996" height="27.000018500000067" class="text">Del </text>
<text x="308.99998578" y="518.0000052500001" width="47.00002452000007" height="27.9999947500001" class="text">Ray </text>
<text x="361.99999398" y="518.0000052500001" width="73.00001826000005" height="29.000016500000072" class="text">Media
</text>
<text x="264.0000027" y="546.999999" width="104.99999568000004" height="28.99999374999993" class="text">Attention</text>
<text x="376.00000278" y="545.99997725" width="7.9999899599999935" height="26.999950249999983" class="text">: </text>
<text x="392.00000028" y="546.999999" width="110.99999694000002" height="27.999971999999957" class="text">Accounts </text>
<text x="512.99999346" y="547.999998" width="94.99999944000001" height="28.99997099999996" class="text">Payable
</text>
<text x="260.00000772" y="572.99999575" width="34.99998684000002" height="22.99999975000003" class="text">PO </text>
<text x="305.00000838" y="573.999972" width="48.00001007999998" height="23.999975999999947" class="text">Box </text>
<text x="364.00000026" y="573.999972" width="52.999990620000005" height="22.999976999999944" class="text">1309
</text>
<text x="260.99999328" y="606.00000825" width="127.00001201999999" height="28.000017500000013" class="text">Alexandria</text>
<text x="394.00000656000003" y="605.000032" width="7.000004399999966" height="26.00004224999998" class="text">, </text>
<text x="409.00000092" y="605.000032" width="33.00001572000002" height="26.00004224999998" class="text">VA </text>
<text x="459.00001728" y="605.000032" width="69.00000569999992" height="27.000041250000095" class="text">22313
</text>
<text x="1317.00000408" y="632.000005" width="48.9999604799998" height="24.000021500000003" class="text">Cash
</text>
<text x="50.999998404" y="731.9999959999999" width="52.00000154399999" height="24.99999774999992" class="text">Send </text>
<text x="110.99999693999999" y="733.9999712499999" width="92.99999316000003" height="26.999972999999954" class="text">Payment </text>
<text x="211.99999764" y="732.9999722499999" width="23.00001948000002" height="24.99999774999992" class="text">To</text>
<text x="238.99999451999997" y="732.9999722499999" width="7.000004400000023" height="24.99999774999992" class="text">:
</text>
<text x="61.999999542000005" y="775.9999975" width="155.999999358" height="32.000036249999994" class="text">WGAL_MT
</text>
<text x="65.000000172" y="805.0000140000001" width="37.999999775999996" height="26.000042250000092" class="text">PO </text>
<text x="114.000004602" y="805.0000140000001" width="54.99999162599998" height="26.000042250000092" class="text">Box </text>
<text x="178.9999995" y="805.0000140000001" width="74.00000382000002" height="26.000042250000092" class="text">90030
</text>
<text x="69.000002184" y="844.0000205" width="112.99998915600001" height="31.00003724999999" class="text">Prescott</text>
<text x="181.99999134" y="842.9999760000001" width="9.000010680000003" height="29.999992750000047" class="text">, </text>
<text x="199.99999512" y="842.9999760000001" width="33.00001571999999" height="29.999992750000047" class="text">AZ </text>
<text x="252.00001776000002" y="842.9999760000001" width="150.9999819" height="31.99996800000008" class="text">86304-9030
</text>
<text x="50.999998404" y="980.99999725" width="67.00000117800002" height="28.000017500000013" class="text">Unless </text>
<text x="128.999998962" y="980.99999725" width="86.999993658" height="28.000017500000013" class="text">specified </text>
<text x="226.999992" y="980.99999725" width="20.00002764000004" height="28.000017500000013" class="text">on </text>
<text x="260.00000772" y="980.99999725" width="26.999979300000007" height="28.000017500000013" class="text">the </text>
<text x="295.9999977" y="980.99999725" width="31.999995000000013" height="28.000017500000013" class="text">line </text>
<text x="337.00000338" y="980.99999725" width="57.00000318000002" height="28.000017500000013" class="text">levels </text>
<text x="401.00001096" y="980.99999725" width="55.99996487999999" height="28.000017500000013" class="text">below</text>
<text x="462.00000911999996" y="980.99999725" width="8.00000754000007" height="28.000017500000013" class="text">, </text>
<text x="477.00002106" y="980.99999725" width="26.999996880000026" height="28.000017500000013" class="text">the </text>
<text x="518.00002674" y="980.99999725" width="53.99999376000005" height="28.000017500000013" class="text">Class </text>
<text x="579.00000732" y="980.99999725" width="21.000013200000012" height="28.000017500000013" class="text">of </text>
<text x="607.00002492" y="980.99999725" width="46.999989360000086" height="28.000017500000013" class="text">Time </text>
<text x="661.99996908" y="980.99999725" width="105.99999881999997" height="28.000017500000013" class="text">purchased </text>
<text x="775.99999302" y="980.99999725" width="15.999979919999987" height="28.000017500000013" class="text">is </text>
<text x="802.9999899000001" y="980.99999725" width="53.00002577999999" height="28.000017500000013" class="text">Fixed </text>
<text x="861.99999936" y="980.99999725" width="39.99998496000012" height="28.000017500000013" class="text">Non </text>
<text x="910.9999598400001" y="980.99999725" width="32.000082899999825" height="28.000017500000013" class="text">Pre</text>
<text x="946.00003458" y="980.99999725" width="8.000007539999956" height="28.000017500000013" class="text">-</text>
<text x="955.0000100999999" y="980.99999725" width="81.99999377999995" height="28.000017500000013" class="text">emptible
</text>
<text x="1186.00003224" y="1011.999989" width="56.999985599999945" height="24.999997750000034" class="text">Spots</text>
<text x="1246.99997766" y="1010.99999" width="7.000057140000081" height="24.999997750000034" class="text">/
</text>
<text x="1181.00001654" y="1044.00002525" width="64.99999314000002" height="24.00002149999989" class="text">Week
</text>
<text x="52.000001544" y="1040.99998275" width="38.999997642" height="19.99998000000005" class="text">Line </text>
<text x="119.00000272199999" y="1041.99998175" width="49.00000267200001" height="20.99997899999994" class="text">Start </text>
<text x="174.000006654" y="1041.99998175" width="43.999992246000005" height="20.000002749999908" class="text">Date
</text>
<text x="253.00000332000002" y="1041.99998175" width="40.00000253999997" height="20.99997899999994" class="text">End </text>
<text x="300.99999582" y="1044.00002525" width="43.99999752000002" height="22.000046249999855" class="text">Date
</text>
<text x="393.00000342" y="1046.9999767499999" width="111.99998249999999" height="25.99997399999984" class="text">Description
</text>
<text x="658.00002684" y="1043.00002625" width="48.99996047999991" height="22.000023499999998" class="text">Start</text>
<text x="706.99998732" y="1043.00002625" width="6.000036420000015" height="22.000023499999998" class="text">/</text>
<text x="713.00002374" y="1043.00002625" width="39.999984960000006" height="22.000023499999998" class="text">End </text>
<text x="765.9999967800001" y="1043.00002625" width="46.99998935999997" height="22.000023499999998" class="text">Time
</text>
<text x="874.9999874399999" y="1044.00002525" width="96.00005532000011" height="19.000026499999876" class="text">MTWTFSS
</text>
<text x="1080.99994866" y="1048.0000212500001" width="66.00006660000008" height="27.000018500000124" class="text">Length
</text>
<text x="1336.0000285800002" y="1043.00002625" width="46.999936619999744" height="22.000023499999998" class="text">Rate
</text>
<text x="1441.99997466" y="1046.9999767499999" width="49.00006596000003" height="25.99997399999984" class="text">Type
</text>
<text x="96.999998688" y="1089.00002575" width="6.000001259999991" height="20.00000275000002" class="text">1 </text>
<text x="115.99999506" y="1089.00002575" width="86.00000634" height="22.00004624999997" class="text">04/24/20
</text>
<text x="253.99998888000002" y="1089.00002575" width="86.00000634" height="21.000001750000138" class="text">04/24/20
</text>
<text x="398.00000154" y="1088.00002675" width="6.000001259999976" height="21.000047249999852" class="text">M</text>
<text x="411.99999276" y="1088.00002675" width="6.000018839999996" height="21.000047249999852" class="text">-</text>
<text x="419.99998272" y="1088.00002675" width="26.000046480000037" height="21.000047249999852" class="text">SU </text>
<text x="462.00000911999996" y="1088.00002675" width="52.000005060000035" height="21.000047249999852" class="text">10-10</text>
<text x="518.99999472" y="1088.00002675" width="6.000036420000015" height="21.000047249999852" class="text">:</text>
<text x="525.99998154" y="1088.00002675" width="35.000021999999944" height="21.000047249999852" class="text">30P
</text>
<text x="661.99996908" y="1089.00002575" width="52.00002264" height="21.000001750000138" class="text">10-10</text>
<text x="716.9999835599999" y="1089.00002575" width="6.000036420000015" height="21.000001750000138" class="text">:</text>
<text x="726.9999798" y="1089.00002575" width="53.00002577999999" height="21.000001750000138" class="text">30PM
</text>
<text x="876.00000816" y="1089.00002575" width="53.99999375999994" height="20.00000275000002" class="text">----</text>
<text x="932.0000257800001" y="1089.00002575" width="25.999976159999846" height="20.00000275000002" class="text">1--
</text>
<text x="1119.0000152399998" y="1090.000002" width="5.999983680000241" height="20.99997899999994" class="text">:</text>
<text x="1128.99995874" y="1090.000002" width="18.000056520000044" height="20.99997899999994" class="text">30
</text>
<text x="1243.00001784" y="1088.00002675" width="5.000033280000025" height="17.0000285000001" class="text">1
</text>
<text x="1334.00000472" y="1090.99997825" width="5.9999836799997865" height="22.999954249999973" class="text">$</text>
<text x="1342.99998024" y="1090.99997825" width="69.00005843999998" height="22.999954249999973" class="text">400.00
</text>
<text x="1457.00005692" y="1089.00002575" width="32.99992782000004" height="21.000001750000138" class="text">NM
</text>
<text x="107.00000196" y="1145.0000607499999" width="74.99998938" height="20.000070999999934" class="text">Weeks</text>
<text x="182.99999448" y="1145.0000607499999" width="6.000001260000005" height="20.000070999999934" class="text">: </text>
<text x="245.00001336" y="1145.9999915" width="43.999979939999974" height="21.000001750000138" class="text">Start </text>
<text x="296.99998326" y="1145.9999915" width="46.000003799999945" height="21.000001750000138" class="text">Date </text>
<text x="379.99999776" y="1145.9999915" width="36.99999312" height="21.999978000000056" class="text">End </text>
<text x="426.99998711999996" y="1147.0000360000001" width="46.00002138000002" height="22.000046250000196" class="text">Date </text>
<text x="507.99997776000004" y="1142.999949" width="97.00002330000001" height="19.99991174999991" class="text">MTWTFSS </text>
<text x="681.00001116" y="1147.99996675" width="59.00000946" height="24.999929500000007" class="text">Spots</text>
<text x="741.99999174" y="1147.0000360000001" width="5.999983680000014" height="23.000022500000114" class="text">/</text>
<text x="744.99998358" y="1147.0000360000001" width="60.00003017999995" height="23.99999875000003" class="text">Week
</text>
<text x="241.99998636" y="1172.00003375" width="87.00002706000001" height="21.999978000000056" class="text">04/20/20 </text>
<text x="378.00000906" y="1172.00003375" width="85.00000319999998" height="23.000022500000114" class="text">04/26/20
</text>
<text x="551.0000073" y="1170.99998925" width="38.999964240000054" height="21.999978000000056" class="text">-1--
</text>
<text x="798.00000936" y="1170.0000585" width="4.999980540000024" height="18.000027500000215" class="text">1
</text>
<text x="66.999997662" y="1205.9999770000002" width="57.00000318000001" height="26.999973000000182" class="text">Spots</text>
<text x="127.99999582199999" y="1205.000069" width="7.000002642000027" height="24.99999774999992" class="text">: </text>
<text x="152.99999872799998" y="1205.000069" width="7.000002642000027" height="24.99999774999992" class="text"># </text>
<text x="197.99998884000001" y="1202.0000265" width="24.000005039999962" height="21.999955250000085" class="text">Ch </text>
<text x="275.00000208" y="1205.9999770000002" width="38.999981820000016" height="24.999997750000375" class="text">Day </text>
<text x="334.00001154" y="1205.000069" width="27.999982439999997" height="24.99999774999992" class="text">Air </text>
<text x="366.9999921" y="1205.000069" width="49.00001322000003" height="27.000109500000008" class="text">Date </text>
<text x="460.9999884" y="1204.00000175" width="28.00001759999998" height="23.99993049999989" class="text">Air </text>
<text x="497.99998152" y="1204.00000175" width="46.00002138000002" height="23.99993049999989" class="text">Time </text>
<text x="556.99999098" y="1204.00000175" width="115.99999505999995" height="23.99993049999989" class="text">Description
</text>
<text x="151.99999734600001" y="1232.99995" width="4.999998119999987" height="18.999935499999992" class="text">1 </text>
<text x="188.99999574" y="1234.00001725" width="86.00000634" height="21.999977999999828" class="text">WGALM </text>
<text x="293.00000586" y="1234.00001725" width="5.999983680000014" height="21.999977999999828" class="text">F </text>
<text x="334.00001154" y="1234.00001725" width="85.99997117999999" height="21.999977999999828" class="text">04/24/20 </text>
<text x="457.99999656" y="1232.0000420000001" width="49.999981200000036" height="21.000070000000278" class="text">10:15 </text>
<text x="518.99999472" y="1232.0000420000001" width="26.99997929999995" height="21.000070000000278" class="text">PM </text>
<text x="562.00002426" y="1232.0000420000001" width="5.9999836799999" height="21.000070000000278" class="text">M</text>
<text x="579.00000732" y="1232.99995" width="6.000001259999976" height="20.9999107499998" class="text">-</text>
<text x="586.9999797" y="1232.99995" width="26.00002889999996" height="20.9999107499998" class="text">SU </text>
<text x="627.99998538" y="1232.99995" width="54.00002891999998" height="20.9999107499998" class="text">10-10</text>
<text x="684.000003" y="1232.99995" width="5.999983680000014" height="20.9999107499998" class="text">:</text>
<text x="693.99999924" y="1232.99995" width="32.99998056000004" height="20.9999107499998" class="text">30P
</text>
<text x="921.0000088200001" y="1147.0000360000001" width="43.99994478000008" height="22.000046250000196" class="text">Rate
</text>
<text x="890.99996736" y="1172.00003375" width="7.000057139999967" height="24.000066999999945" class="text">$</text>
<text x="904.00000818" y="1172.00003375" width="68.00000255999998" height="24.000066999999945" class="text">400.00
</text>
<text x="906.0000496200001" y="1202.0000265" width="45.999968639999906" height="21.999955250000085" class="text">Start</text>
<text x="954.00004212" y="1202.0000265" width="6.000001259999976" height="21.999955250000085" class="text">/</text>
<text x="960.00004338" y="1202.0000265" width="37.9999435200001" height="21.999955250000085" class="text">End </text>
<text x="1011.00002772" y="1202.0000265" width="46.99993661999986" height="21.999955250000085" class="text">Time
</text>
<text x="906.0000496200001" y="1234.00001725" width="52.99992029999987" height="21.999977999999828" class="text">10-10</text>
<text x="963.0000352200001" y="1234.00001725" width="5.9999836799997865" height="21.999977999999828" class="text">:</text>
<text x="967.99994544" y="1234.00001725" width="54.00009923999994" height="21.999977999999828" class="text">30PM
</text>
<text x="1113.00001398" y="1202.9999572499999" width="65.00001072000009" height="21.999978000000056" class="text">Length </text>
<text x="1190.9999600400001" y="1202.0000265" width="28.000017599999865" height="21.999955250000085" class="text">Ad</text>
<text x="1221.0000015" y="1202.0000265" width="5.9999836799997865" height="21.999955250000085" class="text">-</text>
<text x="1226.0000172" y="1202.0000265" width="17.000000640000053" height="21.999955250000085" class="text">ID
</text>
<text x="1152.00004854" y="1232.99995" width="5.999983680000014" height="21.999978000000056" class="text">:</text>
<text x="1156.99995876" y="1232.99995" width="25.00002575999997" height="21.999978000000056" class="text">30 </text>
<text x="1187.9999682" y="1232.99995" width="180.00003779999997" height="21.999978000000056" class="text">AFAPA1001TVREVH
</text>
<text x="1576.00004382" y="1204.00000175" width="48.99996048000003" height="26.00004224999998" class="text">Rate </text>
<text x="1644.99999678" y="1205.000069" width="48.999960480000254" height="26.00006499999995" class="text">Type
</text>
<text x="1557.0000193199999" y="1235.00006175" width="5.999983680000014" height="22.00011449999988" class="text">$</text>
<text x="1568.0000187" y="1235.00006175" width="68.00000255999998" height="24.000089750000143" class="text">400.00 </text>
<text x="1658.0000376" y="1234.00001725" width="31.999959839999974" height="21.999977999999828" class="text">NM
</text>
<text x="98.000001828" y="1282.9999455" width="5.9999995020000085" height="20.9999107499998" class="text">2 </text>
<text x="115.000005984" y="1284.00001275" width="87.99999855600002" height="21.999977999999828" class="text">04/26/20
</text>
<text x="250.99999703999998" y="1285.00005725" width="90.00001890000004" height="24.000066999999945" class="text">04/26/20
</text>
<text x="398.00000154" y="1282.9999455" width="6.000001259999976" height="20.9999107499998" class="text">M</text>
<text x="411.99999276" y="1282.9999455" width="6.000018839999996" height="20.9999107499998" class="text">-</text>
<text x="419.99998272" y="1282.9999455" width="26.000046480000037" height="20.9999107499998" class="text">SU </text>
<text x="462.00000911999996" y="1284.00001275" width="52.999973039999986" height="21.999977999999828" class="text">10-10</text>
<text x="517.00000602" y="1284.00001275" width="5.999983680000014" height="21.00007000000005" class="text">:</text>
<text x="527.00000226" y="1284.00001275" width="32.99998056000004" height="21.00007000000005" class="text">30P
</text>
<text x="659.99999796" y="1284.00001275" width="53.00002577999999" height="21.00007000000005" class="text">10-10</text>
<text x="718.00000428" y="1284.00001275" width="5.999983680000014" height="21.00007000000005" class="text">:</text>
<text x="724.9999911" y="1284.00001275" width="53.99999376000005" height="21.999977999999828" class="text">30PM
</text>
<text x="950.9999448" y="1282.0000375" width="18.000074099999892" height="20.000002749999794" class="text">-1
</text>
<text x="1119.0000152399998" y="1282.0000375" width="5.999983680000241" height="20.000002749999794" class="text">:</text>
<text x="1127.0000227799999" y="1282.0000375" width="22.000033920000078" height="20.000002749999794" class="text">30
</text>
<text x="1243.00001784" y="1282.0000375" width="5.000033280000025" height="16.99998299999993" class="text">1
</text>
<text x="1333.00003674" y="1284.00001275" width="5.999983680000014" height="21.999977999999828" class="text">$</text>
<text x="1344.0000536999999" y="1284.00001275" width="67.99998498000014" height="21.999977999999828" class="text">400.00
</text>
<text x="1457.00005692" y="1282.9999455" width="32.99992782000004" height="20.9999107499998" class="text">NM
</text>
<text x="104.99999743800001" y="1340.00004775" width="74.99998762199999" height="22.000091750000138" class="text">Weeks</text>
<text x="183.99999762" y="1339.00000325" width="6.000001260000005" height="20.00000275000002" class="text">: </text>
<text x="243.99999264" y="1339.00000325" width="49.00001322" height="20.00000275000002" class="text">Start </text>
<text x="296.99998326" y="1339.00000325" width="46.000003799999945" height="21.00004725000008" class="text">Date </text>
<text x="378.00000906" y="1340.00004775" width="40.00000253999997" height="22.000091750000138" class="text">End </text>
<text x="426.00000156" y="1340.00004775" width="44.00001510000004" height="22.000091750000138" class="text">Date </text>
<text x="508.99999848000004" y="1337.999936" width="94.99998185999993" height="20.999910750000026" class="text">MTWTFSS </text>
<text x="681.00001116" y="1339.00000325" width="59.00000946" height="21.00004725000008" class="text">Spots</text>
<text x="743.00001246" y="1340.00004775" width="5.999983680000014" height="21.00004725000008" class="text">/</text>
<text x="743.99998044" y="1340.00004775" width="62.00000130000012" height="21.00004725000008" class="text">Week
</text>
<text x="241.0000008" y="1365.9999762500001" width="86.00000634000003" height="21.999978000000056" class="text">04/20/20 </text>
<text x="377.00000592000004" y="1365.9999762500001" width="86.99997431999998" height="20.999910750000254" class="text">04/26/20
</text>
<text x="596.99997594" y="1364.0000009999999" width="5.000033279999911" height="16.99998299999993" class="text">1
</text>
<text x="798.00000936" y="1364.0000009999999" width="4.999980540000024" height="18.000027499999987" class="text">1
</text>
<text x="66.999997662" y="1400.000056" width="58.000004562" height="27.000109500000008" class="text">Spots</text>
<text x="127.99999582199999" y="1398.99998875" width="7.000002642000027" height="24.99999774999992" class="text">: </text>
<text x="152.99999872799998" y="1398.99998875" width="7.000002642000027" height="24.99999774999992" class="text"># </text>
<text x="197.00000328000002" y="1395.9999690000002" width="24.00000503999999" height="21.999978000000056" class="text">Ch </text>
<text x="273.99999894" y="1397.00003625" width="38.99999939999998" height="23.000045249999857" class="text">Day </text>
<text x="334.00001154" y="1397.00003625" width="25.99997615999996" height="23.000045249999857" class="text">Air </text>
<text x="366.00000654" y="1397.00003625" width="48.99997805999999" height="23.000045249999857" class="text">Date </text>
<text x="460.9999884" y="1395.000061" width="28.00001759999998" height="22.00011449999988" class="text">Air </text>
<text x="497.00001354" y="1395.000061" width="48.99996047999997" height="22.00011449999988" class="text">Time </text>
<text x="559.0000148400001" y="1397.00003625" width="112.00000007999995" height="24.000089749999916" class="text">Description
</text>
<text x="152.99999872799998" y="1425.99996175" width="4.999998120000015" height="18.000027499999987" class="text">1 </text>
<text x="188.99999574" y="1427.0000289999998" width="86.00000634" height="21.000047249999852" class="text">WGALM </text>
<text x="290.99999958" y="1425.99996175" width="26.00001132" height="18.999935499999992" class="text">Su </text>
<text x="334.00001154" y="1427.0000289999998" width="84.99998562000002" height="21.000047249999852" class="text">04/26/20 </text>
<text x="456.00002544" y="1427.0000289999998" width="52.99997304000004" height="21.999977999999828" class="text">10:22 </text>
<text x="518.99999472" y="1427.0000289999998" width="26.99997929999995" height="21.999977999999828" class="text">PM </text>
<text x="562.99997466" y="1427.0000289999998" width="6.000036420000015" height="21.999977999999828" class="text">M</text>
<text x="579.00000732" y="1427.0000289999998" width="6.000001259999976" height="21.999977999999828" class="text">-</text>
<text x="586.9999797" y="1427.0000289999998" width="24.00000504000002" height="21.999977999999828" class="text">SU </text>
<text x="627.99998538" y="1427.0000289999998" width="53.00002577999999" height="21.999977999999828" class="text">10-10</text>
<text x="684.000003" y="1427.0000289999998" width="5.999983680000014" height="21.999977999999828" class="text">:</text>
<text x="691.0000074" y="1427.0000289999998" width="35.00000441999998" height="21.999977999999828" class="text">30P
</text>
<text x="923.00005026" y="1340.9999785" width="44.99989518000007" height="20.999910750000026" class="text">Rate
</text>
<text x="893.0000087999999" y="1365.9999762500001" width="5.999983680000014" height="20.999910750000254" class="text">$</text>
<text x="902.9999523" y="1365.9999762500001" width="70.00002641999993" height="20.999910750000254" class="text">400.00
</text>
<text x="904.99997616" y="1395.9999690000002" width="48.00001008000004" height="23.000022500000114" class="text">Start</text>
<text x="954.00004212" y="1395.9999690000002" width="6.000001259999976" height="23.000022500000114" class="text">/</text>
<text x="960.00004338" y="1395.9999690000002" width="38.99991150000005" height="23.000022500000114" class="text">End </text>
<text x="1009.99997184" y="1395.9999690000002" width="47.000024520000125" height="23.000022500000114" class="text">Time
</text>
<text x="907.999968" y="1427.0000289999998" width="52.00007538" height="21.000047249999852" class="text">10-10</text>
<text x="963.0000352200001" y="1427.0000289999998" width="5.9999836799997865" height="21.000047249999852" class="text">:</text>
<text x="969.99998688" y="1427.0000289999998" width="53.00002577999987" height="21.000047249999852" class="text">30PM
</text>
<text x="1110.9999901200001" y="1395.9999690000002" width="67.00003457999992" height="23.000022500000114" class="text">Length </text>
<text x="1187.9999682" y="1395.9999690000002" width="30.00004145999992" height="23.000022500000114" class="text">Ad</text>
<text x="1220.00003352" y="1395.9999690000002" width="5.999983680000014" height="23.000022500000114" class="text">-</text>
<text x="1226.0000172" y="1395.9999690000002" width="17.000000640000053" height="23.000022500000114" class="text">ID
</text>
<text x="1152.00004854" y="1425.99996175" width="5.999983680000014" height="19.99998000000005" class="text">:</text>
<text x="1158.00003222" y="1425.99996175" width="21.99991086" height="19.99998000000005" class="text">30 </text>
<text x="1189.9999920599998" y="1425.99996175" width="177.00004596000008" height="19.99998000000005" class="text">AFAPA1001TVREVH
</text>
<text x="1577.9999622" y="1397.00003625" width="44.00005025999985" height="23.000045249999857" class="text">Rate </text>
<text x="1647.00002064" y="1397.99994425" width="43.99994478000008" height="22.99988600000006" class="text">Type
</text>
<text x="1556.00005134" y="1427.999937" width="5.999983680000014" height="20.999910750000026" class="text">$</text>
<text x="1566.99996282" y="1427.999937" width="70.00000883999996" height="22.99988600000006" class="text">400.00 </text>
<text x="1656.00001374" y="1427.0000289999998" width="34.999951680000095" height="21.000047249999852" class="text">NM
</text>
<text x="913.0000012800001" y="1482.9999274999998" width="50.00003393999998" height="23.999930499999664" class="text">Total </text>
<text x="969.0000188999999" y="1482.9999274999998" width="54.999944160000155" height="23.999930499999664" class="text">Spots
</text>
<text x="1181.00001654" y="1482.0000195" width="5.999983680000014" height="20.00000275000002" class="text">2
</text>
<text x="50.000000538" y="1592.00002325" width="145.999999602" height="39.00009749999981" class="text">Payment </text>
<text x="209.0000058" y="1592.00002325" width="98.99999442000001" height="39.00009749999981" class="text">Terms </text>
<text x="317.0000109" y="1592.00002325" width="34.99998683999996" height="39.00009749999981" class="text">30 </text>
<text x="366.00000654" y="1592.00002325" width="80.00002266000001" height="39.00009749999981" class="text">Days
</text>
<text x="1311.0000204" y="1580.00003525" width="57.999935999999934" height="21.00004725000008" class="text">Gross </text>
<text x="1381.0000468199999" y="1580.00003525" width="50.99998434000008" height="21.00004725000008" class="text">Total
</text>
<text x="1573.00005198" y="1585.00003025" width="6.9999516599998515" height="24.000067000000172" class="text">$</text>
<text x="1582.0000275" y="1585.00003025" width="71.99994479999987" height="26.00004224999998" class="text">800.00
</text>
<text x="1218.00000966" y="1638.0000682500001" width="76.00001010000005" height="24.99999774999992" class="text">Agency </text>
<text x="1302.0000273" y="1638.0000682500001" width="122.99994672000003" height="26.000065000000177" class="text">Commission
</text>
<text x="1571.99997852" y="1637.0000009999999" width="5.999983680000014" height="23.000022499999886" class="text">$</text>
<text x="1582.99999548" y="1637.0000009999999" width="70.00002642000004" height="23.000022499999886" class="text">120.00
</text>
<text x="1255.9999531800001" y="1688.00006375" width="39.000034559999676" height="23.000022499999886" class="text">Net </text>
<text x="1299.00003546" y="1688.00006375" width="82.99996176000013" height="23.000022499999886" class="text">Amount </text>
<text x="1387.99999848" y="1688.00006375" width="39.999967380000044" height="23.000022499999886" class="text">Due
</text>
<text x="1571.99997852" y="1688.00006375" width="5.999983680000014" height="23.000022499999886" class="text">$</text>
<text x="1582.99999548" y="1688.00006375" width="70.00002642000004" height="23.000022499999886" class="text">680.00
</text>
<text x="78.999998424" y="1903.0000535000001" width="28.00000353600001" height="22.00011450000011" class="text">This </text>
<text x="115.99999506" y="1903.0000535000001" width="52.000010333999995" height="22.00011450000011" class="text">invoice </text>
<text x="172.00000213200002" y="1903.0000535000001" width="11.999995487999968" height="22.00011450000011" class="text">is </text>
<text x="191.00000202" y="1903.0000535000001" width="56.00001762000002" height="22.00011450000011" class="text">subject </text>
<text x="253.00000332000002" y="1903.0000535000001" width="7.9999899599999935" height="22.00011450000011" class="text">to </text>
<text x="269.00000082" y="1903.0000535000001" width="24.999990599999933" height="22.00011450000011" class="text">the </text>
<text x="300.99999582" y="1903.0000535000001" width="68.00000256000004" height="22.00011450000011" class="text">Standard </text>
<text x="376.00000278" y="1903.0000535000001" width="45.00000066000001" height="22.00011450000011" class="text">Terms </text>
<text x="428.9999934" y="1903.0000535000001" width="24.99999059999999" height="22.00011450000011" class="text">and </text>
<text x="460.9999884" y="1903.0000535000001" width="81.00004337999997" height="22.00011450000011" class="text">Conditions </text>
<text x="548.99996586" y="1903.0000535000001" width="22.000033920000078" height="22.00011450000011" class="text">for </text>
<text x="572.9999709" y="1903.0000535000001" width="73.00001825999993" height="22.00011450000011" class="text">Purchase </text>
<text x="651.0000224400001" y="1903.0000535000001" width="17.00000063999994" height="22.00011450000011" class="text">of </text>
<text x="669.9999942" y="1903.0000535000001" width="80.99999064000008" height="22.00011450000011" class="text">Broadcast </text>
<text x="754.00002942" y="1903.0000535000001" width="81.99999377999995" height="22.00011450000011" class="text">Advertising</text>
<text x="839.00001504" y="1903.0000535000001" width="5.999983680000014" height="22.00011450000011" class="text">, </text>
<text x="847.99999056" y="1903.0000535000001" width="42.99997680000001" height="22.00011450000011" class="text">which </text>
<text x="896.99996862" y="1903.0000535000001" width="26.000081639999962" height="22.00011450000011" class="text">can </text>
<text x="930.0000019199999" y="1903.0000535000001" width="19.999992479999946" height="22.00011450000011" class="text">be </text>
<text x="955.9999780799999" y="1903.0000535000001" width="66.00006660000008" height="22.00011450000011" class="text">reviewed </text>
<text x="1028.99999634" y="1903.0000535000001" width="16.000032659999988" height="22.00011450000011" class="text">at </text>
<text x="1048.00002084" y="1903.0000535000001" width="22.000016340000002" height="22.00011450000011" class="text">the </text>
<text x="1076.99998884" y="1903.0000535000001" width="65.99996112000008" height="22.00011450000011" class="text">following </text>
<text x="1147.9999832400001" y="1903.0000535000001" width="35.00005715999987" height="22.00011450000011" class="text">URL</text>
<text x="1184.00000838" y="1903.0000535000001" width="5.9999836799997865" height="22.00011450000011" class="text">: </text>
<text x="1193.99995188" y="1903.0000535000001" width="479.0000625" height="22.00011450000011" class="text">www.hearst.com/newsroom/hearst-television-advertising-sales
</text>
<text x="477.99998903999995" y="1943.9999670000002" width="32.00001258000003" height="21.999978000000056" class="text">We </text>
<text x="512.99999346" y="1943.9999670000002" width="59.000027039999964" height="21.999978000000056" class="text">warrant </text>
<text x="573.9999916200001" y="1943.9999670000002" width="29.99998871999992" height="21.999978000000056" class="text">that </text>
<text x="610.00001676" y="1943.9999670000002" width="21.9999636" height="21.999978000000056" class="text">the </text>
<text x="638.99998476" y="1943.9999670000002" width="48.00001008000004" height="21.999978000000056" class="text">actual </text>
<text x="689.99998668" y="1943.9999670000002" width="77.00003082" height="21.999978000000056" class="text">broadcast </text>
<text x="771.00003006" y="1943.9999670000002" width="82.99996176000002" height="21.999978000000056" class="text">information </text>
<text x="861.99999936" y="1943.9999670000002" width="48.00001008000004" height="21.999978000000056" class="text">shown </text>
<text x="913.0000012800001" y="1943.9999670000002" width="19.999992479999946" height="21.999978000000056" class="text">on </text>
<text x="940.0000509" y="1943.9999670000002" width="23.999934719999942" height="21.999978000000056" class="text">this </text>
<text x="969.99998688" y="1943.9999670000002" width="53.00002577999987" height="21.999978000000056" class="text">invoice </text>
<text x="1028.99999634" y="1943.9999670000002" width="31.999959839999974" height="21.999978000000056" class="text">was </text>
<text x="1065.00002148" y="1943.9999670000002" width="39.99998495999989" height="21.999978000000056" class="text">taken </text>
<text x="1113.99998196" y="1943.9999670000002" width="31.99997742000005" height="21.999978000000056" class="text">from </text>
<text x="1150.99997508" y="1943.9999670000002" width="24.000057779999906" height="21.999978000000056" class="text">the </text>
<text x="1179.99994308" y="1943.9999670000002" width="65.00001071999986" height="21.999978000000056" class="text">program </text>
<text x="1246.99997766" y="1943.9999670000002" width="25.00002575999997" height="21.999978000000056" class="text">log
</text>
<text x="56.00000004" y="1983.9999725" width="123.99998502" height="20.999933499999997" class="text">Notwithstanding </text>
<text x="185.00000076" y="1983.9999725" width="12.999988080000008" height="20.999933499999997" class="text">to </text>
<text x="203.00000454000002" y="1983.9999725" width="47.99999249999996" height="20.999933499999997" class="text">whom </text>
<text x="255.99999515999997" y="1983.9999725" width="27.000014460000045" height="20.999933499999997" class="text">bills </text>
<text x="290.99999958" y="1983.9999725" width="21.000013200000012" height="20.999933499999997" class="text">are </text>
<text x="322.00000902" y="1983.9999725" width="67.99998498000002" height="20.999933499999997" class="text">rendered</text>
<text x="390.99999714" y="1983.9999725" width="6.000001259999976" height="20.999933499999997" class="text">, </text>
<text x="401.00001096" y="1983.9999725" width="76.0000101" height="20.999933499999997" class="text">advertiser</text>
<text x="477.00002106" y="1983.9999725" width="5.999983679999957" height="20.999933499999997" class="text">, </text>
<text x="487.00001729999997" y="1983.9999725" width="52.9999730400001" height="20.999933499999997" class="text">agency </text>
<text x="548.00001546" y="1983.9999725" width="26.999996880000026" height="20.999933499999997" class="text">and </text>
<text x="580.99999602" y="1983.9999725" width="54.99999689999993" height="20.999933499999997" class="text">service</text>
<text x="637.00001364" y="1983.9999725" width="5.999983680000014" height="20.999933499999997" class="text">, </text>
<text x="645.9999891599999" y="1983.9999725" width="42.00002640000014" height="20.999933499999997" class="text">jointly </text>
<text x="695.00000238" y="1983.9999725" width="26.999996880000026" height="20.999933499999997" class="text">and </text>
<text x="728.00000052" y="1983.9999725" width="67.00001700000007" height="20.999933499999997" class="text">severally</text>
<text x="798.99997734" y="1983.9999725" width="6.000036420000015" height="20.999933499999997" class="text">, </text>
<text x="805.9999817400001" y="1983.9999725" width="38.00001383999995" height="20.999933499999997" class="text">shall </text>
<text x="846.0000194400001" y="1983.9999725" width="49.99998119999998" height="20.999933499999997" class="text">remain </text>
<text x="904.99997616" y="1983.9999725" width="70.99999439999999" height="20.999933499999997" class="text">obligated </text>
<text x="980.99998626" y="1983.9999725" width="13.000040819999981" height="20.999933499999997" class="text">to </text>
<text x="1000.0000283400001" y="1983.9999725" width="26.999926559999835" height="20.999933499999997" class="text">pay </text>
<text x="1034.00001204" y="1983.9999725" width="11.000016960000039" height="20.999933499999997" class="text">to </text>
<text x="1054.9999725" y="1983.9999725" width="47.00004209999997" height="20.999933499999997" class="text">station </text>
<text x="1110.00002214" y="1983.9999725" width="20.99996046000001" height="20.999933499999997" class="text">the </text>
<text x="1136.99996628" y="1983.9999725" width="58.00005906000001" height="20.999933499999997" class="text">amount </text>
<text x="1201.0000090199999" y="1983.9999725" width="14.999959200000148" height="20.999933499999997" class="text">of </text>
<text x="1220.00003352" y="1983.9999725" width="26.999944140000025" height="20.999933499999997" class="text">any </text>
<text x="1251.00004296" y="1983.9999725" width="28.99996800000008" height="20.999933499999997" class="text">bills </text>
<text x="1288.00003608" y="1983.9999725" width="67.99998498000014" height="20.999933499999997" class="text">rendered </text>
<text x="1362.99997272" y="1983.9999725" width="15.00008226" height="20.999933499999997" class="text">by </text>
<text x="1387.0000305" y="1983.9999725" width="45.999968639999906" height="20.999933499999997" class="text">station </text>
<text x="1438.99998282" y="1983.9999725" width="42.99997680000001" height="20.999933499999997" class="text">within </text>
<text x="1489.0000167599999" y="1983.9999725" width="23.999952300000132" height="20.999933499999997" class="text">the </text>
<text x="1520.0000261999999" y="1983.9999725" width="30.999991860000137" height="20.999933499999997" class="text">time </text>
<text x="1556.00005134" y="1983.9999725" width="68.99995295999997" height="20.999933499999997" class="text">specified </text>
<text x="1630.99998798" y="1983.9999725" width="27.000049620000027" height="20.999933499999997" class="text">and </text>
<text x="1662.9999654" y="1983.9999725" width="35.00005715999987" height="20.999933499999997" class="text">until
</text>
<text x="83.00000043600001" y="2003.9999525" width="68.99999691000001" height="20.999910750000254" class="text">payment </text>
<text x="155.00000325" y="2003.9999525" width="10.99999938000002" height="20.999910750000254" class="text">in </text>
<text x="173.00000351399999" y="2003.9999525" width="23.99999976600003" height="20.999910750000254" class="text">full </text>
<text x="200.99999825999998" y="2003.9999525" width="10.99999938000002" height="20.999910750000254" class="text">is </text>
<text x="219.00000204" y="2003.9999525" width="62.99998686000001" height="20.999910750000254" class="text">received </text>
<text x="288.99999329999997" y="2003.9999525" width="19.999992480000003" height="20.999910750000254" class="text">by </text>
<text x="312.99999834" y="2003.9999525" width="48.99999564000001" height="20.999910750000254" class="text">station</text>
<text x="365.0000034" y="2003.9999525" width="6.000001259999976" height="20.999910750000254" class="text">. </text>
<text x="371.99999022" y="2003.9999525" width="73.00001826000005" height="20.999910750000254" class="text">Payment </text>
<text x="445.00000848" y="2003.9999525" width="18.999971759999994" height="20.999910750000254" class="text">by </text>
<text x="470.99998464" y="2003.9999525" width="76.00001010000005" height="20.999910750000254" class="text">advertiser </text>
<text x="551.0000073" y="2003.9999525" width="11.999967360000028" height="20.999910750000254" class="text">to </text>
<text x="570.99999978" y="2003.9999525" width="54.99999689999993" height="20.999910750000254" class="text">agency </text>
<text x="628.99998852" y="2003.9999525" width="19.999992479999946" height="20.999910750000254" class="text">or </text>
<text x="650.00000172" y="2003.9999525" width="11.999967360000028" height="20.999910750000254" class="text">to </text>
<text x="668.99997348" y="2003.9999525" width="54.00004649999994" height="20.999910750000254" class="text">service </text>
<text x="730.99999236" y="2003.9999525" width="16.000032659999988" height="20.999910750000254" class="text">or </text>
<text x="750.00001686" y="2003.9999525" width="67.99998498000002" height="20.999910750000254" class="text">payment </text>
<text x="819.99999054" y="2003.9999525" width="19.99999248000006" height="20.999910750000254" class="text">by </text>
<text x="843.99999558" y="2003.9999525" width="57.00002075999987" height="20.999910750000254" class="text">agency </text>
<text x="904.00000818" y="2003.9999525" width="12.999952919999942" height="20.999910750000254" class="text">to </text>
<text x="924.00000066" y="2003.9999525" width="53.99999376000005" height="20.999910750000254" class="text">service</text>
<text x="980.0000358599999" y="2003.9999525" width="5.999983680000014" height="20.999910750000254" class="text">, </text>
<text x="989.00001138" y="2003.9999525" width="37.999943519999874" height="20.999910750000254" class="text">shall </text>
<text x="1028.00002836" y="2003.9999525" width="26.999944140000025" height="20.999910750000254" class="text">not </text>
<text x="1059.0000378" y="2003.9999525" width="70.99997682000003" height="20.999910750000254" class="text">constitute </text>
<text x="1139.00000772" y="2003.9999525" width="64.99999314000002" height="20.999910750000254" class="text">payment </text>
<text x="1209.00003414" y="2003.9999525" width="10.999999379999963" height="20.999910750000254" class="text">to </text>
<text x="1229.99997702" y="2003.9999525" width="47.00004209999997" height="20.999910750000254" class="text">station</text>
<text x="1280.00001096" y="2003.9999525" width="5.999983680000014" height="20.999910750000254" class="text">. </text>
<text x="1289.99995446" y="2003.9999525" width="52.00005780000015" height="20.999910750000254" class="text">Station </text>
<text x="1348.99996392" y="2003.9999525" width="24.000057780000134" height="20.999910750000254" class="text">will </text>
<text x="1378.00005498" y="2003.9999525" width="24.999902699999893" height="20.999910750000254" class="text">not </text>
<text x="1404.00003114" y="2003.9999525" width="19.999992480000174" height="20.999910750000254" class="text">be </text>
<text x="1429.00003932" y="2003.9999525" width="48.00001008000004" height="20.999910750000254" class="text">bound </text>
<text x="1483.0000330799999" y="2003.9999525" width="17.99995104000027" height="20.999910750000254" class="text">by </text>
<text x="1506.0000174" y="2003.9999525" width="79.00000193999995" height="20.999910750000254" class="text">conditions</text>
<text x="1585.0000193399999" y="2003.9999525" width="5.999983680000014" height="20.999910750000254" class="text">, </text>
<text x="1593.99999486" y="2003.9999525" width="51.00000191999993" height="20.999910750000254" class="text">printed </text>
<text x="1653.0000219" y="2003.9999525" width="14.999959199999921" height="20.999910750000254" class="text">or
</text>
<text x="80.000001564" y="2025.0000225000001" width="71.99999578200001" height="21.999978000000056" class="text">otherwise</text>
<text x="152.99999872799998" y="2025.0000225000001" width="6.000001260000005" height="21.999978000000056" class="text">, </text>
<text x="162.999994968" y="2025.0000225000001" width="16.00000453199999" height="21.999978000000056" class="text">on </text>
<text x="187.99999259999998" y="2025.0000225000001" width="67.00001700000001" height="21.999978000000056" class="text">contracts</text>
<text x="257.00001588000003" y="2025.0000225000001" width="5.999983679999957" height="21.999978000000056" class="text">, </text>
<text x="265.9999914" y="2025.0000225000001" width="66.00001386000002" height="21.999978000000056" class="text">insertion </text>
<text x="339.99999522" y="2025.0000225000001" width="45.000000659999955" height="21.999978000000056" class="text">orders</text>
<text x="389.00000844" y="2025.0000225000001" width="5.999983680000014" height="21.999978000000056" class="text">, </text>
<text x="396.9999984" y="2025.0000225000001" width="36.00000756000003" height="21.999978000000056" class="text">copy </text>
<text x="436.99998336" y="2025.0000225000001" width="88.99999818000003" height="21.999978000000056" class="text">instructions </text>
<text x="531.0000148199999" y="2025.0000225000001" width="17.000000640000053" height="21.999978000000056" class="text">or </text>
<text x="552.99997842" y="2025.0000225000001" width="25.000025759999858" height="21.999978000000056" class="text">any </text>
<text x="586.9999797" y="2025.0000225000001" width="120.0000076199999" height="21.999978000000056" class="text">correspondence </text>
<text x="713.00002374" y="2025.0000225000001" width="37.999961100000064" height="21.999978000000056" class="text">when </text>
<text x="760.0000130999999" y="2025.0000225000001" width="34.00000127999999" height="21.999978000000056" class="text">such </text>
<text x="801.00001878" y="2025.0000225000001" width="55.99996487999999" height="21.999978000000056" class="text">conflict </text>
<text x="860.99997864" y="2025.0000225000001" width="26.000046480000037" height="21.999978000000056" class="text">with </text>
<text x="895.0000326600001" y="2025.0000225000001" width="20.999960459999897" height="21.999978000000056" class="text">the </text>
<text x="924.99996864" y="2025.0000225000001" width="45.00001824000003" height="21.999978000000056" class="text">above </text>
<text x="975.99997056" y="2025.0000225000001" width="42.00000882000006" height="21.999978000000056" class="text">terms </text>
<text x="1023.0000126599999" y="2025.0000225000001" width="28.000000019999902" height="21.999978000000056" class="text">and </text>
<text x="1059.0000378" y="2025.0000225000001" width="76.00001010000005" height="21.999978000000056" class="text">conditions</text>
<text x="1136.99996628" y="2025.0000225000001" width="5.999983680000014" height="21.999978000000056" class="text">. </text>
<text x="1145.99995938" y="2025.0000225000001" width="37.000081019999925" height="21.999978000000056" class="text">Four </text>
<text x="1184.00000838" y="2025.0000225000001" width="51.99995231999992" height="21.999978000000056" class="text">weeks </text>
<text x="1240.99999398" y="2025.0000225000001" width="62.99996927999996" height="21.999978000000056" class="text">advance </text>
<text x="1309.99994694" y="2025.0000225000001" width="90.00001889999999" height="21.999978000000056" class="text">cancellation </text>
<text x="1405.99994952" y="2025.0000225000001" width="45.00001823999992" height="21.999978000000056" class="text">notice </text>
<text x="1458.00000732" y="2025.0000225000001" width="12.999952919999942" height="21.999978000000056" class="text">is </text>
<text x="1475.00000796" y="2025.0000225000001" width="65.00001071999986" height="21.999978000000056" class="text">required </text>
<text x="1545.00003438" y="2025.0000225000001" width="49.99992846000009" height="21.999978000000056" class="text">unless </text>
<text x="1599.99999612" y="2025.0000225000001" width="73.99996865999992" height="21.999978000000056" class="text">otherwise
</text>
<text x="840.9999861599999" y="2043.999958" width="66.99998184000003" height="18.999935499999992" class="text">specified</text>
<text x="910.9999598400001" y="2043.0000499999999" width="5.000033279999911" height="18.00002749999976" class="text">.
</text>
<text x="66.000003312" y="2085.000008" width="49.000002671999994" height="21.00004725000008" class="text">Station</text>
<text x="116.9999982" y="2085.000008" width="5.9999995020000085" height="21.00004725000008" class="text">, </text>
<text x="128.999998962" y="2085.000008" width="22.99999838400001" height="21.00004725000008" class="text">and </text>
<text x="162.000005892" y="2085.000008" width="14.999987328000003" height="21.00004725000008" class="text">its </text>
<text x="181.99999134" y="2085.000008" width="53.000025780000016" height="21.00004725000008" class="text">parent </text>
<text x="238.00000896" y="2085.000008" width="68.99997053999999" height="21.00004725000008" class="text">company</text>
<text x="306.9999795" y="2085.000008" width="6.000018839999996" height="21.00004725000008" class="text">, </text>
<text x="317.0000109" y="2085.000008" width="36.00000755999997" height="21.00004725000008" class="text">does </text>
<text x="359.00000214" y="2085.000008" width="24.00000504000002" height="21.00004725000008" class="text">not </text>
<text x="389.999994" y="2085.000008" width="87.00002705999998" height="21.00004725000008" class="text">discriminate </text>
<text x="483.99997272" y="2085.000008" width="13.000040819999981" height="21.00004725000008" class="text">in </text>
<text x="502.99999722" y="2085.000008" width="24.000005039999962" height="21.00004725000008" class="text">the </text>
<text x="534.0000066599999" y="2085.000008" width="26.999996880000026" height="21.00004725000008" class="text">sale </text>
<text x="569.00001108" y="2085.000008" width="15.99999749999995" height="21.00004725000008" class="text">of </text>
<text x="589.99997154" y="2085.000008" width="82.00004651999996" height="21.00004725000008" class="text">advertising </text>
<text x="678.99996972" y="2085.000008" width="31.000009439999985" height="21.00004725000008" class="text">time</text>
<text x="710.99999988" y="2085.000008" width="5.9999836799999" height="21.00004725000008" class="text">, </text>
<text x="720.99999612" y="2085.000008" width="26.999979300000064" height="21.00004725000008" class="text">and </text>
<text x="753.0000087" y="2085.000008" width="25.999976160000074" height="21.00004725000008" class="text">will </text>
<text x="784.00001814" y="2085.000008" width="52.000005060000035" height="21.00004725000008" class="text">accept </text>
<text x="836.99999118" y="2085.000008" width="19.999992479999946" height="21.00004725000008" class="text">no </text>
<text x="863.00002008" y="2085.000008" width="83.99998247999997" height="21.00004725000008" class="text">advertising </text>
<text x="950.9999448" y="2085.000008" width="43.000082280000015" height="21.00004725000008" class="text">which </text>
<text x="1000.99997874" y="2085.000008" width="11.000016960000039" height="21.00004725000008" class="text">is </text>
<text x="1019.0000528400001" y="2085.000008" width="49.999928459999865" height="21.00004725000008" class="text">placed </text>
<text x="1076.00003844" y="2085.000008" width="28.000000020000016" height="21.00004725000008" class="text">with </text>
<text x="1110.9999901200001" y="2085.000008" width="17.000000640000053" height="21.00004725000008" class="text">an </text>
<text x="1133.00000646" y="2085.000008" width="46.9999366200002" height="21.00004725000008" class="text">intent </text>
<text x="1181.99998452" y="2085.000008" width="10.999999379999963" height="21.00004725000008" class="text">to </text>
<text x="1201.9999770000002" y="2085.000008" width="90.99996929999998" height="21.00004725000008" class="text">discriminate </text>
<text x="1300.00000344" y="2085.000008" width="17.000000640000053" height="21.00004725000008" class="text">on </text>
<text x="1322.00001978" y="2085.000008" width="23.999952299999904" height="21.00004725000008" class="text">the </text>
<text x="1353.00002922" y="2085.000008" width="36.99999312" height="21.00004725000008" class="text">basis </text>
<text x="1396.999974" y="2085.000008" width="15.000064679999923" height="21.00004725000008" class="text">of </text>
<text x="1415.9999985" y="2085.000008" width="31.999959839999974" height="21.00004725000008" class="text">race </text>
<text x="1455.99998346" y="2085.000008" width="14.99997677999977" height="21.00004725000008" class="text">or </text>
<text x="1477.9999998" y="2085.000008" width="59.00002703999985" height="21.00004725000008" class="text">ethnicity</text>
<text x="1540.99996908" y="2085.000008" width="6.00000126000009" height="21.00004725000008" class="text">. </text>
<text x="1552.99995402" y="2085.000008" width="81.0000258" height="21.00004725000008" class="text">Advertiser </text>
<text x="1634.9999478" y="2085.000008" width="56.00001762000011" height="21.00004725000008" class="text">hereby
</text>
<text x="83.00000043600001" y="2108.0000305" width="79.999994532" height="21.999955249999857" class="text">represents </text>
<text x="169.99999761" y="2108.0000305" width="27.999991230000006" height="21.999955249999857" class="text">and </text>
<text x="200.99999825999998" y="2108.0000305" width="66.99999942" height="21.999955249999857" class="text">warrants </text>
<text x="273.99999894" y="2108.0000305" width="29.999988719999976" height="21.999955249999857" class="text">that </text>
<text x="308.00000022" y="2108.0000305" width="9.000010680000003" height="21.999955249999857" class="text">it </text>
<text x="320.00000274" y="2108.0000305" width="12.99998807999998" height="21.999955249999857" class="text">is </text>
<text x="337.99998894" y="2108.0000305" width="26.00001132" height="21.999955249999857" class="text">not </text>
<text x="368.00001282" y="2108.0000305" width="85.00000320000004" height="21.999955249999857" class="text">purchasing </text>
<text x="457.99999656" y="2108.0000305" width="76.00001009999994" height="21.999955249999857" class="text">broadcast </text>
<text x="539.9999903400001" y="2108.0000305" width="19.000024499999995" height="21.999955249999857" class="text">air </text>
<text x="562.00002426" y="2108.0000305" width="30.999991860000023" height="21.999955249999857" class="text">time </text>
<text x="600.9999885000001" y="2108.0000305" width="43.999997519999965" height="21.999955249999857" class="text">under </text>
<text x="651.0000224400001" y="2108.0000305" width="23.999987459999943" height="21.999955249999857" class="text">this </text>
<text x="682.0000143" y="2108.0000305" width="82.99996176000002" height="21.999955249999857" class="text">advertising </text>
<text x="768.9999886200001" y="2108.0000305" width="41.00000567999996" height="21.999955249999857" class="text">sales </text>
<text x="815.99997798" y="2108.0000305" width="62.000001299999894" height="21.999955249999857" class="text">contract </text>
<text x="882.9999598200001" y="2108.0000305" width="19.999992479999946" height="21.999955249999857" class="text">for </text>
<text x="910.00000944" y="2108.0000305" width="5.999983680000014" height="21.999955249999857" class="text">a </text>
<text x="921.9999768" y="2108.0000305" width="104.99997809999991" height="21.999955249999857" class="text">discriminatory </text>
<text x="1034.00001204" y="2108.0000305" width="60.999945419999904" height="21.999955249999857" class="text">purpose</text>
<text x="1096.9999813200002" y="2108.0000305" width="5.9999836799997865" height="21.999955249999857" class="text">, </text>
<text x="1105.99997442" y="2108.0000305" width="67.00001700000007" height="21.999955249999857" class="text">including </text>
<text x="1178.99999268" y="2108.0000305" width="27.00003203999995" height="21.999955249999857" class="text">but </text>
<text x="1209.99998454" y="2108.0000305" width="25.99997615999996" height="21.999955249999857" class="text">not </text>
<text x="1238.99995254" y="2108.0000305" width="47.00004209999997" height="21.999955249999857" class="text">limited </text>
<text x="1292.9999463000001" y="2108.0000305" width="11.000016959999812" height="21.999955249999857" class="text">to </text>
<text x="1314.00001224" y="2108.0000305" width="71.9999448000001" height="21.999955249999857" class="text">decisions </text>
<text x="1390.99999032" y="2108.0000305" width="24.00004019999983" height="21.999955249999857" class="text">not </text>
<text x="1418.00002236" y="2108.0000305" width="12.999952919999942" height="21.999955249999857" class="text">to </text>
<text x="1439.9999507999999" y="2108.0000305" width="38.00004900000022" height="21.999955249999857" class="text">place </text>
<text x="1484.99995146" y="2108.0000305" width="83.00006724000013" height="21.999955249999857" class="text">advertising </text>
<text x="1574.9999703600001" y="2108.0000305" width="16.00003265999976" height="21.999955249999857" class="text">on </text>
<text x="1597.00000428" y="2108.0000305" width="73.99996865999992" height="21.999955249999857" class="text">particular
</text>
<text x="723.0000199799999" y="2125.0000135" width="58.00000632000001" height="21.00004725000008" class="text">stations </text>
<text x="788.9999811" y="2126.000058" width="15.000029519999998" height="21.00004725000008" class="text">on </text>
<text x="812.99998614" y="2126.000058" width="19.999992479999946" height="21.00004725000008" class="text">the </text>
<text x="839.9999830200001" y="2126.000058" width="37.999996259999875" height="21.00004725000008" class="text">basis </text>
<text x="885.99995166" y="2126.000058" width="17.000000640000053" height="21.00004725000008" class="text">of </text>
<text x="904.00000818" y="2126.9999887500003" width="31.999977419999937" height="21.999978000000283" class="text">race </text>
<text x="943.99999314" y="2126.9999887500003" width="14.999976779999997" height="20.999933500000225" class="text">or </text>
<text x="964.9999536000001" y="2126.9999887500003" width="60.00008291999973" height="20.999933500000225" class="text">ethnicity</text>
<text x="1028.00002836" y="2126.9999887500003" width="5.999983680000014" height="20.999933500000225" class="text">.
</text>
<text x="1520.9999766" y="2201.999982" width="64.0000427399998" height="21.999977999999828" class="text">powered </text>
<text x="1593.00004446" y="2201.00005125" width="17.999951039999814" height="20.00000275000002" class="text">by </text>
<text x="1613.00003694" y="2201.00005125" width="82.9999617599999" height="21.00004725000008" class="text">WideOrbit
</text>
</g>
</svg>
