<svg xmlns="http://www.w3.org/2000/svg">
<style>.text { font-size: 14px; font-family: Arial, sans-serif; }</style>
<g id="page-0" transform="translate(0, 0)">
<rect width="1758" height="2274" fill="none" stroke="black" />
<text x="60.000002052000006" y="204.00000788399998" width="168.000010668" height="78.00001010399998" class="text">NEWS
</text>
<text x="57.000001422000004" y="252.99998706000002" width="158.999991198" height="48.99997917600004" class="text">CHANNEL
</text>
<text x="374.99999964" y="100.00000502399999" width="65.99999627999995" height="27.000006995999982" class="text">REMIT </text>
<text x="449.00002104000004" y="100.999998798" width="23.999987459999943" height="26.999995625999986" class="text">TO </text>
<text x="487.00001729999997" y="102.99999999" width="65.99996112000008" height="28.00000077" class="text">Sinclair </text>
<text x="562.00002426" y="105.000001182" width="92.99995799999999" height="28.999999091999996" class="text">Broadcast
</text>
<text x="377.00000592000004" y="131.00000076" width="6.999986819999947" height="25.000005803999997" class="text">c</text>
<text x="387.00000216" y="131.00000076" width="7.000004400000023" height="25.000005803999997" class="text">/</text>
<text x="394.99999212" y="131.00000076" width="7.000004399999966" height="25.000005803999997" class="text">o </text>
<text x="406.99999464" y="133.000001952" width="58.000006319999954" height="27.000006995999982" class="text">WCTI
</text>
<text x="374.99999964" y="161.99999877" width="26.00001132" height="24.000000659999984" class="text">PO </text>
<text x="411.0000072" y="164.000006784" width="43.999997519999965" height="25.000005803999983" class="text">BOX </text>
<text x="465.00000095999997" y="164.999993736" width="66.99998184000003" height="25.999992755999983" class="text">206270
</text>
<text x="371.99999022" y="197.99999975999998" width="59.99999502000003" height="28.000000769999986" class="text">Dallas</text>
<text x="433.99999152" y="197.99999975999998" width="8.000025120000032" height="28.000000769999986" class="text">, </text>
<text x="446.00002920000003" y="197.99999975999998" width="25.999976160000017" height="28.000000769999986" class="text">TX </text>
<text x="480.99998088" y="197.99999975999998" width="110.00001137999999" height="28.000000769999986" class="text">75320-6270
</text>
<text x="676.9999986" y="94.000003722" width="104.00002769999992" height="27.000004722" class="text">Advertiser
</text>
<text x="675.0000099" y="133.000001952" width="72.99996552000005" height="29.000005913999985" class="text">Agency
</text>
<text x="671.00001492" y="165.99999888" width="59.00000946" height="26.999997899999983" class="text">Buyer
</text>
<text x="674.00000676" y="200.99999472599998" width="113.00000321999994" height="26.999995625999958" class="text">Salesperson
</text>
<text x="879.99996798" y="100.00000502399999" width="46.000074120000136" height="33.00000602399999" class="text">Vote </text>
<text x="932.99999376" y="100.999998798" width="42.00000881999995" height="32.999999202" class="text">Vets </text>
<text x="981.99995424" y="102.99999999" width="64.9999931399999" height="34.000002072" class="text">Action </text>
<text x="1054.9999725" y="103.999996038" width="52.00005779999992" height="32.999996928" class="text">Fund </text>
<text x="1110.9999901200001" y="103.999996038" width="10.000048979999974" height="30.99999801" class="text">(</text>
<text x="1119.99996564" y="105.000001182" width="62.00001887999997" height="32.000003154" class="text">25501</text>
<text x="1178.99999268" y="105.000001182" width="10.000048979999974" height="30.99999801" class="text">)
</text>
<text x="874.9999874399999" y="137.000002062" width="114.99999192000007" height="34.99999812" class="text">Waterfront </text>
<text x="994.00002708" y="139.00000098" width="100.99993037999991" height="33.999999798000005" class="text">Strategies </text>
<text x="1099.0000227599999" y="139.00000098" width="9.9999435000002" height="31.000004832000016" class="text">(</text>
<text x="1108.99996626" y="139.999997028" width="47.99999249999996" height="32.00000088" class="text">7591</text>
<text x="1155.00004038" y="139.999997028" width="9.9999435000002" height="30.999995736000002" class="text">)
</text>
<text x="879.0" y="171.00000186" width="42.00000882000006" height="29.00000363999999" class="text">Mike</text>
<text x="924.00000066" y="171.00000186" width="8.000025120000146" height="29.00000363999999" class="text">, </text>
<text x="927.99996048" y="171.00000186" width="70.99999439999999" height="29.00000363999999" class="text">Furman</text>
<text x="1002.0000522" y="171.00000186" width="7.999919639999916" height="29.00000363999999" class="text">,
</text>
<text x="877.0000288800001" y="205.99999998" width="43.99997994" height="29.999992866000014" class="text">Katz</text>
<text x="921.0000088200001" y="205.99999998" width="8.99999309999987" height="29.999992866000014" class="text">/</text>
<text x="927.99996048" y="207.000005124" width="28.000017599999865" height="30.000011058000013" class="text">DC</text>
<text x="957.00003396" y="207.000005124" width="8.999993099999983" height="30.000011058000013" class="text">, </text>
<text x="969.0000188999999" y="207.999992076" width="107.99996994000014" height="31.999984962000013" class="text">Washington </text>
<text x="1087.00003782" y="207.999992076" width="27.99991212000009" height="29.999992866000014" class="text">DC </text>
<text x="1122.00000708" y="207.999992076" width="8.999975520000135" height="29.999992866000014" class="text">(</text>
<text x="1130.9999826" y="208.99999494600002" width="45.999968639999906" height="30.999995736000017" class="text">4022</text>
<text x="1178.99999268" y="208.99999494600002" width="8.999975519999907" height="29.999992866000014" class="text">)
</text>
<text x="879.0" y="240.9999981" width="17.999968620000004" height="32.000003153999984" class="text">ph</text>
<text x="901.0000163399999" y="240.9999981" width="8.999993100000097" height="32.000003153999984" class="text">: </text>
<text x="913.99995168" y="240.9999981" width="9.000098579999985" height="32.000003153999984" class="text">(</text>
<text x="918.9999849599999" y="240.9999981" width="36.99999312" height="32.000003153999984" class="text">202</text>
<text x="955.9999780799999" y="240.9999981" width="8.999975520000248" height="32.000003153999984" class="text">) </text>
<text x="966.9999774600001" y="240.9999981" width="87.00002705999987" height="32.000003153999984" class="text">955-5342</text>
<text x="1060.99995618" y="240.9999981" width="9.00008099999991" height="32.000003153999984" class="text">, </text>
<text x="1076.99998884" y="240.9999981" width="19.000042079999957" height="32.000003153999984" class="text">fx</text>
<text x="1096.00003092" y="240.9999981" width="8.999975519999907" height="32.000003153999984" class="text">: </text>
<text x="1105.99997442" y="240.9999981" width="8.999975520000135" height="32.000003153999984" class="text">(</text>
<text x="1114.99994994" y="240.9999981" width="35.00005715999987" height="32.000003153999984" class="text">202</text>
<text x="1150.99997508" y="240.9999981" width="8.999975519999907" height="32.000003153999984" class="text">) </text>
<text x="1162.99994244" y="240.9999981" width="99.00011747999997" height="32.000003153999984" class="text">955-5348x
</text>
<text x="226.00000644" y="214.00000020000002" width="37.99999625999999" height="33.999992976000016" class="text">abc
</text>
<text x="1351.00000536" y="117.000001512" width="64.00002515999995" height="24.000002933999994" class="text">Invoice </text>
<text x="1463.0000406" y="117.000001512" width="83.9999297400002" height="22.999997789999995" class="text">7176697
</text>
<text x="1348.99996392" y="148.000006344" width="27.000049620000027" height="23.000004612000012" class="text">Inv </text>
<text x="1381.0000468199999" y="148.999993296" width="38.99991150000005" height="23.999991564000013" class="text">Date
</text>
<text x="1461.99996714" y="156.999993516" width="89.00005091999992" height="26.999995625999986" class="text">1/12/2020
</text>
<text x="1350.0000373799999" y="187.0000023" width="56.99998560000017" height="24.000000660000012" class="text">Terms
</text>
<text x="1460.00004876" y="192.999994506" width="30.99999185999991" height="21.99999264600001" class="text">CIA
</text>
<text x="1348.00001352" y="226.00000053" width="81.99999378000007" height="22.999995516000013" class="text">Contract </text>
<text x="1461.00001674" y="231.99998364" width="81.99999377999984" height="24.999978516" class="text">4160437
</text>
<text x="1347.00004554" y="266.00001299999997" width="31.000009439999985" height="26.00002913999998" class="text">Bill </text>
<text x="1384.00003866" y="267.999996" width="42.99997680000001" height="26.99999790000001" class="text">Type </text>
<text x="1458.9999753" y="268.99998750000003" width="68.00000255999998" height="27.999989400000032" class="text">Weekly</text>
<text x="1531.00002558" y="268.99998750000003" width="6.999951660000079" height="25.999983660000055" class="text">/</text>
<text x="1537.00002684" y="270.00000174" width="79.00000194000017" height="27.999989400000032" class="text">Irregular
</text>
<text x="1345.99997208" y="294.9999939" width="58.00005906000001" height="21.999994920000006" class="text">Period </text>
<text x="1469.00002428" y="297.99999114" width="5.999983680000014" height="21.999994920000006" class="text">1</text>
<text x="1475.99997594" y="297.99999114" width="5.999983680000014" height="21.999994920000006" class="text">/</text>
<text x="1481.99995962" y="297.99999114" width="5.999983680000014" height="21.999994920000006" class="text">6</text>
<text x="1491.00004062" y="297.99999114" width="6.00000126000009" height="21.999994920000006" class="text">/</text>
<text x="1500.00003372" y="299.00000538" width="67.99998498000014" height="23.00000915999999" class="text">2020-1</text>
<text x="1565.99999484" y="299.00000538" width="5.999983680000014" height="22.000017660000026" class="text">/</text>
<text x="1573.00005198" y="299.00000538" width="19.999992479999946" height="22.000017660000026" class="text">12</text>
<text x="1593.00004446" y="299.00000538" width="5.999983680000014" height="22.000017660000026" class="text">/</text>
<text x="1599.99999612" y="299.00000538" width="39.00001697999983" height="22.000017660000026" class="text">2020
</text>
<text x="1331.00001288" y="347.99999820000005" width="23.999952300000132" height="26.99999790000004" class="text">CO</text>
<text x="1357.99995702" y="347.0000067" width="8.000007539999842" height="25.000014899999996" class="text">-</text>
<text x="1365.9999645599999" y="348.9999897" width="24.000057780000134" height="26.99999790000004" class="text">OP</text>
<text x="1390.99999032" y="347.99999820000005" width="8.00000754000007" height="24.999992160000033" class="text">/</text>
<text x="1398.9999978600001" y="350.99999544" width="53.00002577999976" height="27.999989400000004" class="text">Order </text>
<text x="1457.00005692" y="350.99999544" width="42.99997680000001" height="26.000006400000018" class="text">Type </text>
<text x="1537.9999772400001" y="348.9999897" width="24.000057779999906" height="21.999994920000006" class="text">No</text>
<text x="1563.99997098" y="348.9999897" width="5.999983680000014" height="21.999994920000006" class="text">/</text>
<text x="1571.00001054" y="350.99999544" width="68.00000255999998" height="24.000000660000012" class="text">Normal
</text>
<text x="1331.00001288" y="382.00000482" width="76.99997807999989" height="24.000000660000012" class="text">Package
</text>
<text x="1331.00001288" y="417.99999444" width="43.9999272" height="24.00000066000007" class="text">Gen. </text>
<text x="1376.00001354" y="419.00000867999995" width="37.99996109999984" height="24.000000659999955" class="text">Date </text>
<text x="1441.0000242600001" y="420.99999168" width="87.00000947999979" height="25.999983659999998" class="text">1/14/2020 </text>
<text x="1546.00000236" y="422.00000592000004" width="76.00001009999983" height="26.000006400000075" class="text">10:39:36</text>
<text x="1625.99997228" y="420.99999168" width="27.000049620000027" height="24.000000659999955" class="text">AM
</text>
<text x="77.000000934" y="393.00000228" width="151.999997346" height="42.00000683999997" class="text">Waterfront </text>
<text x="233.00001084" y="398.00000525999997" width="132.99999570000003" height="42.99999833999999" class="text">Strategies
</text>
<text x="87.999998556" y="425.99999466" width="55.00000393200001" height="29.999995140000067" class="text">3050 </text>
<text x="158.99999998799998" y="425.99999466" width="8.00000402400002" height="29.00000363999999" class="text">K </text>
<text x="185.00000076" y="425.99999466" width="28.000000019999987" height="29.00000363999999" class="text">St </text>
<text x="217.9999989" y="427.0000089" width="37.00001069999999" height="30.000017879999973" class="text">NW
</text>
<text x="84.999997926" y="465.00000425999997" width="9.000001889999993" height="29.999995139999953" class="text">#</text>
<text x="101.000002458" y="465.00000425999997" width="43.00000317" height="29.999995139999953" class="text">100
</text>
<text x="80.000001564" y="513.00000558" width="158.99999295599997" height="40.00000110000002" class="text">Washington</text>
<text x="245.99999892" y="511.99999134" width="11.000016960000039" height="37.99999535999996" class="text">, </text>
<text x="257.00001588000003" y="511.99999134" width="41.99997365999997" height="37.99999535999996" class="text">DC </text>
<text x="308.00000022" y="511.99999134" width="80.00000508" height="38.999986860000035" class="text">20007
</text>
<text x="674.00000676" y="288.99999942000005" width="66.99998183999992" height="26.99999790000004" class="text">Special </text>
<text x="744.99998358" y="288.99999942000005" width="80.99999063999996" height="26.99999790000004" class="text">Handling </text>
<text x="877.0000288800001" y="288.00000792" width="50.99993159999997" height="23.00000915999999" class="text">None
</text>
<text x="672.00001806" y="318.99999456" width="72.99996552000005" height="21.999994920000006" class="text">Product
</text>
<text x="877.9999792799999" y="328.00000902" width="105.0000484200001" height="32.00000087999996" class="text">POLITICAL </text>
<text x="992.9999712" y="328.00000902" width="59.000009460000115" height="31.000009379999995" class="text">ISSUE </text>
<text x="1059.0000378" y="328.00000902" width="8.00000754000007" height="29.00000363999999" class="text">(</text>
<text x="1067.00004534" y="328.00000902" width="21.999928440000076" height="29.00000363999999" class="text">ns</text>
<text x="1090.99999764" y="328.00000902" width="8.000025119999918" height="29.00000363999999" class="text">) </text>
<text x="1102.999965" y="329.00000052" width="8.000025120000146" height="29.00000363999999" class="text">(</text>
<text x="1110.9999901200001" y="329.99999202" width="44.00005025999985" height="30.999986639999975" class="text">1187</text>
<text x="1155.99999078" y="329.99999202" width="8.000025119999918" height="28.999980900000025" class="text">)
</text>
<text x="672.00001806" y="352.00000968" width="53.99999375999994" height="21.000003419999985" class="text">Brand
</text>
<text x="874.9999874399999" y="361.00000140000003" width="122.00003148000019" height="31.00000938000005" class="text">97/103/7981 </text>
<text x="1000.0000283400001" y="361.00000140000003" width="8.999975519999907" height="28.00001214000008" class="text">(</text>
<text x="1008.00003588" y="363.00000714000004" width="79.99996992000001" height="30.000017880000087" class="text">1309606</text>
<text x="1090.0000296599999" y="363.00000714000004" width="8.999993099999983" height="28.00001214000008" class="text">)
</text>
<text x="672.99998604" y="390.99999654" width="43.000029540000014" height="27.999989399999947" class="text">Acct </text>
<text x="721.99999926" y="393.00000228" width="55.000014480000004" height="28.000012139999967" class="text">Types </text>
<text x="876.00000816" y="396.99999102000004" width="85.99995360000003" height="30.99998664000003" class="text">National</text>
<text x="960.00004338" y="395.99999951999996" width="7.999902060000068" height="29.00000363999993" class="text">/</text>
<text x="966.9999774600001" y="398.00000525999997" width="82.00001135999992" height="31.000009379999938" class="text">Political </text>
<text x="1053.00005412" y="398.99999676" width="50.99998434000008" height="30.999986639999975" class="text">Issue </text>
<text x="1113.99998196" y="400.000011" width="73.99998624" height="31.000009379999938" class="text">Agency </text>
<text x="1195.9999757399999" y="401.0000025" width="45.000018240000145" height="29.999995139999953" class="text">BRD
</text>
<text x="669.9999942" y="420.99999168" width="34.00000127999999" height="20.99998068000002" class="text">Est</text>
<text x="702.99997476" y="420.99999168" width="6.000036420000015" height="20.99998068000002" class="text">/</text>
<text x="706.00001934" y="420.99999168" width="78.99994920000006" height="20.99998068000002" class="text">External </text>
<text x="788.9999811" y="420.99999168" width="6.000036420000015" height="20.99998068000002" class="text"># </text>
<text x="877.9999792799999" y="425.00000316" width="48.00006282000015" height="23.000009160000047" class="text">7981</text>
<text x="924.00000066" y="425.00000316" width="6.000001259999976" height="23.000009160000047" class="text">/</text>
<text x="930.0000019199999" y="427.0000089" width="135.99998754000012" height="25.000014900000053" class="text">ECR26768365
</text>
<text x="672.99998604" y="454.99999829999996" width="50.00003393999998" height="21.000003419999985" class="text">Demo
</text>
<text x="669.9999942" y="489.00000492000004" width="80.00002266000001" height="21.00000342000004" class="text">Revision
</text>
<text x="672.00001806" y="526.00000878" width="97.9999912799999" height="22.000017660000026" class="text">Comments
</text>
<text x="535.99997778" y="538.99998924" width="34.00000127999999" height="26.999997899999983" class="text">AgM
</text>
<text x="877.9999792799999" y="532.00000326" width="49.000030800000104" height="28.000012139999967" class="text">Issue
</text>
<text x="877.0000288800001" y="561.0000069" width="36.99992279999992" height="26.00000639999996" class="text">New </text>
<text x="926.0000421000001" y="561.9999984" width="49.999928459999865" height="26.999997899999926" class="text">order</text>
<text x="977.0000264399999" y="561.9999984" width="6.999951659999965" height="26.00000639999996" class="text">. </text>
<text x="985.00005156" y="561.9999984" width="63.999937260000024" height="26.00000639999996" class="text">Please </text>
<text x="1059.0000378" y="562.9999899000001" width="63.999919680000176" height="26.99999790000004" class="text">confirm</text>
<text x="1127.0000227799999" y="562.9999899000001" width="6.999951660000079" height="25.999983659999998" class="text">. </text>
<text x="1138.00003974" y="562.9999899000001" width="47.99999250000019" height="25.999983659999998" class="text">Total </text>
<text x="1189.9999920599998" y="562.9999899000001" width="14.999976780000225" height="25.999983659999998" class="text">is </text>
<text x="1215.99996822" y="562.9999899000001" width="7.000057140000081" height="25.999983659999998" class="text">$</text>
<text x="1227.9999531600001" y="564.00000414" width="58.000041479999936" height="26.999997899999926" class="text">12,660</text>
<text x="1291.00002792" y="564.00000414" width="6.9999516599998515" height="26.00000639999996" class="text">.
</text>
<text x="603.99998034" y="592.0000162800001" width="147.00000450000005" height="35.00002086000006" class="text">OFFICIAL </text>
<text x="768.9999886200001" y="592.0000162800001" width="126.00004404000003" height="34.00000662000002" class="text">BILLING </text>
<text x="910.00000944" y="592.9999850400001" width="129.99998628000003" height="34.99997538000002" class="text">INVOICE
</text>
<text x="414.9999846" y="633.00000888" width="68.00002013999995" height="21.99999491999995" class="text">Schedule </text>
<text x="490.99997712" y="633.99997764" width="42.000008820000005" height="21.99999491999995" class="text">Days </text>
<text x="538.00001922" y="633.00000888" width="14.999959200000035" height="20.00001192000002" class="text">to </text>
<text x="559.99998282" y="633.00000888" width="31.000009439999985" height="20.00001192000002" class="text">Run
</text>
<text x="709.99997916" y="630.9999804" width="21.000013200000012" height="16.99996920000001" class="text">Air </text>
<text x="740.00002062" y="630.9999804" width="36.99999312" height="16.99996920000001" class="text">Time </text>
<text x="849.00001128" y="633.99997764" width="52.00000505999992" height="21.99999491999995" class="text">Length
</text>
<text x="1014.0000195599999" y="633.00000888" width="65.9999611200002" height="21.99999491999995" class="text">Program
</text>
<text x="1226.0000172" y="640.99998636" width="40.99995293999996" height="26.00000639999996" class="text">Copy</text>
<text x="1268.0000436" y="640.0000176" width="7.999902060000068" height="24.000023399999918" class="text">/</text>
<text x="1275.99994566" y="640.0000176" width="37.000098599999774" height="26.00000639999996" class="text">ISCI
</text>
<text x="56.00000004" y="582.0000103200001" width="106.999994928" height="34.000006620000136" class="text">Greenville </text>
<text x="172.00000213200002" y="582.0000103200001" width="9.999989207999988" height="31.000009380000165" class="text">(</text>
<text x="176.99999322" y="582.99997908" width="64.00000758000002" height="31.999978140000053" class="text">WCTI</text>
<text x="240.00001524" y="582.99997908" width="9.999996239999973" height="30.999986639999975" class="text">)
</text>
<text x="69.000002184" y="630.00001164" width="32.000000274" height="23.00000915999999" class="text">Line </text>
<text x="124.000000842" y="630.9999804" width="37.00000366799999" height="21.999994920000063" class="text">Type
</text>
<text x="230.00001899999998" y="628.9999974" width="77.99998122000002" height="20.00001192000002" class="text">Scheduled
</text>
<text x="1393.99998216" y="643.0000148400001" width="66.00006660000008" height="18.00002892000009" class="text">Amount
</text>
<text x="1554.0000099" y="642.0000006" width="68.99997054000028" height="18.99999767999998" class="text">Remarks
</text>
<text x="60.99999816" y="688.99998768" width="28.000003536000015" height="16.000000439999894" class="text">22.0
</text>
<text x="117.99999958200002" y="692.9999991599999" width="75.99999427799997" height="20.000011919999793" class="text">Contract </text>
<text x="200.99999825999998" y="692.9999991599999" width="35.99998998000004" height="18.99999767999998" class="text">Line </text>
<text x="241.99998636" y="694.0000134" width="84.00000005999996" height="20.00001192000002" class="text">Remarks</text>
<text x="325.00000086" y="694.0000134" width="4.999998119999987" height="18.000028919999863" class="text">: </text>
<text x="377.00000592000004" y="697.0000106399999" width="87.99999503999993" height="21.99999491999995" class="text">Bachelor </text>
<text x="473.0000085" y="695.9999964000001" width="6.000001260000033" height="20.00001192000002" class="text">(</text>
<text x="479.00000976" y="695.9999964000001" width="69.99995609999996" height="20.00001192000002" class="text">Season </text>
<text x="555.99997026" y="697.9999794" width="90.00001889999987" height="21.99999491999995" class="text">Premiere</text>
<text x="651.0000224400001" y="697.0000106399999" width="5.9999836799999" height="20.000011919999906" class="text">)</text>
<text x="658.00002684" y="697.0000106399999" width="47.99999249999996" height="20.000011919999906" class="text">-ABC
</text>
<text x="120.00000410400001" y="720.99998856" width="41.000000405999984" height="16.99996920000001" class="text">Prime </text>
<text x="203.99999010000002" y="723.0000170400001" width="59.00000945999997" height="20.00001192000002" class="text">2246170</text>
<text x="267.00001212" y="722.0000028000001" width="4.999980539999967" height="17.99998344000005" class="text">-</text>
<text x="271.99999266" y="723.0000170400001" width="31.000009440000042" height="18.999997680000092" class="text">ABC</text>
<text x="303.99998766" y="723.0000170400001" width="4.999998119999987" height="18.00002892000009" class="text">-</text>
<text x="310.0000065" y="723.0000170400001" width="26.00001132" height="18.00002892000009" class="text">The </text>
<text x="342.99998705999997" y="723.0000170400001" width="19.000006920000033" height="18.00002892000009" class="text">Ba </text>
<text x="366.00000654" y="723.9999858" width="23.000001899999972" height="17.999983439999937" class="text">Per </text>
<text x="393.00000342" y="723.9999858" width="31.99997742000005" height="17.999983439999937" class="text">week </text>
<text x="430.99999968" y="725.00000004" width="4.999998120000043" height="17.99998344000005" class="text">(</text>
<text x="438.00000408" y="725.00000004" width="4.999962959999948" height="17.99998344000005" class="text">1</text>
<text x="445.00000848" y="725.00000004" width="4.999962960000005" height="17.99998344000005" class="text">)</text>
<text x="450.99999216000003" y="725.00000004" width="5.000033279999968" height="17.99998344000005" class="text">, </text>
<text x="453.999984" y="725.00000004" width="19.99999248000006" height="17.99998344000005" class="text">Mo
</text>
<text x="645.9999891599999" y="729.00001152" width="67.00003458000003" height="21.999994920000063" class="text">01/06/20 </text>
<text x="728.00000052" y="729.00001152" width="32.000012579999975" height="21.999994920000063" class="text">8:49</text>
<text x="760.0000130999999" y="729.00001152" width="19.99999248000006" height="21.999994920000063" class="text">PM </text>
<text x="790.00000182" y="729.00001152" width="5.999983680000014" height="21.999994920000063" class="text">(</text>
<text x="797.0000062199999" y="729.00001152" width="19.99999248000006" height="21.999994920000063" class="text">Mo</text>
<text x="819.00002256" y="729.00001152" width="5.999983680000014" height="21.999994920000063" class="text">)
</text>
<text x="861.99999936" y="729.99998028" width="44.000050260000194" height="22.999963680000064" class="text">00:30 </text>
<text x="916.9999611" y="730.99999452" width="30.000041460000034" height="23.00000915999999" class="text">ABC</text>
<text x="947.00000256" y="729.99998028" width="5.999983680000014" height="20.99998068000002" class="text">-</text>
<text x="955.9999780799999" y="730.99999452" width="27.00004962000014" height="21.99999491999995" class="text">The </text>
<text x="988.0000433999999" y="732.00000876" width="65.00001072000009" height="23.00000915999999" class="text">Bachelor </text>
<text x="1059.0000378" y="732.00000876" width="5.999983680000014" height="21.000026159999948" class="text">(</text>
<text x="1065.00002148" y="733.9999917600001" width="56.999985599999945" height="23.00000915999999" class="text">Monday</text>
<text x="1124.00003094" y="733.9999917600001" width="5.999983680000014" height="20.999980680000135" class="text">)
</text>
<text x="1195.00002534" y="730.99999452" width="94.99992911999993" height="17.99998344000005" class="text">WVNC19101H
</text>
<text x="1393.99998216" y="735.000006" width="5.000015700000176" height="18.99999767999998" class="text">$</text>
<text x="1401.9999897" y="735.000006" width="50.00003393999987" height="18.99999767999998" class="text">940.00
</text>
<text x="1190.9999600400001" y="1972.9999888799998" width="36.99999312" height="16.99996919999967" class="text">Gross </text>
<text x="1235.9999607" y="1972.9999888799998" width="35.00007474000017" height="15.999932219999891" class="text">Total
</text>
<text x="1192.0000335" y="1995.0000520199999" width="66.99991152000007" height="16.000068659999897" class="text">Commission
</text>
<text x="1515.9999609" y="1977.99994638" width="36.00002514000016" height="18.99999767999998" class="text">Total </text>
<text x="1554.9999778800002" y="1978.99998336" width="36.99999311999977" height="17.99998344000005" class="text">Spots
</text>
<text x="1634.9999478" y="1977.99994638" width="4.00006529999996" height="14.999895240000114" class="text">1
</text>
<text x="66.999997662" y="1984.9999778400002" width="41.00000040600001" height="28.999958160000006" class="text">Net </text>
<text x="113.000001462" y="1983.99994086" width="30.000001026000007" height="26.999884199999997" class="text">30</text>
<text x="144.999994704" y="1983.99994086" width="8.000004023999992" height="26.999884199999997" class="text">-</text>
<text x="154.000001868" y="1985.99999208" width="99.99998701200002" height="28.999935420000156" class="text">Payment </text>
<text x="262.000014" y="1985.99999208" width="14.99997677999994" height="27.00004338000008" class="text">is </text>
<text x="286.99998702" y="1987.00000632" width="41.000005680000015" height="28.000057620000007" class="text">due </text>
<text x="332.99999082" y="1988.0000205600002" width="71.00001198000001" height="29.000071860000162" class="text">within </text>
<text x="418.99999716" y="1988.0000205600002" width="23.999969879999924" height="27.00002064000023" class="text">30 </text>
<text x="453.999984" y="1989.00005754" width="51.00000191999999" height="28.000057620000007" class="text">days </text>
<text x="514.99998216" y="1989.99993534" width="50.00003393999998" height="27.99992118" class="text">from </text>
<text x="576.9999834600001" y="1990.9999495799998" width="80.0000226599999" height="28.9999354199997" class="text">invoice
</text>
<text x="65.000000172" y="2004.9999897599998" width="48.00000129" height="20.00001191999968" class="text">date</text>
<text x="117.99999958200002" y="2006.000004" width="6.000001259999991" height="20.000011919999906" class="text">.
</text>
<text x="68.000000802" y="2041.99994814" width="77.99999528400001" height="29.999949660000084" class="text">Station </text>
<text x="156.999995466" y="2042.99998512" width="73.00002353399998" height="29.99997240000016" class="text">owned </text>
<text x="241.99998636" y="2042.99998512" width="20.000027640000013" height="27.99992118" class="text">or </text>
<text x="272.99999579999997" y="2045.0000136" width="97.00000572000005" height="29.999949660000084" class="text">provided </text>
<text x="378.99999462" y="2046.0000505799999" width="90.00001890000004" height="30.00010883999994" class="text">services </text>
<text x="479.00000976" y="2047.0000648199998" width="25.99997615999996" height="29.000071859999707" class="text">by </text>
<text x="512.99999346" y="2047.99994262" width="39.999984960000006" height="28.999935420000156" class="text">the </text>
<text x="559.99998282" y="2048.9999795999997" width="85.00000320000004" height="29.999972399999933" class="text">Sinclair
</text>
<text x="66.999997662" y="2068.99999152" width="112.999987398" height="30.99998664000009" class="text">Broadcast </text>
<text x="186.99998946000002" y="2071.00002" width="66.99999942" height="29.000071859999935" class="text">Group</text>
<text x="258.00000144" y="2071.00002" width="9.000010680000003" height="27.000020640000002" class="text">.
</text>
<text x="721.99999926" y="1977.99994638" width="62.00001887999997" height="17.999960699999974" class="text">Warranty</text>
<text x="788.9999811" y="1977.99994638" width="5.000033279999911" height="16.999946460000046" class="text">-</text>
<text x="798.00000936" y="1977.99994638" width="24.00000504000002" height="16.999946460000046" class="text">We </text>
<text x="822.0000144" y="1977.99994638" width="51.999969899999996" height="16.999946460000046" class="text">warrant </text>
<text x="876.00000816" y="1978.99998336" width="22.000016340000002" height="17.99998344000005" class="text">the </text>
<text x="901.9999843200001" y="1978.99998336" width="36.99999312" height="16.999969199999896" class="text">above </text>
<text x="943.99999314" y="1981.0000118399998" width="67.00003458000003" height="18.99999767999975" class="text">broadcasts </text>
<text x="1014.0000195599999" y="1979.9999976000001" width="31.0000094400001" height="16.999946460000274" class="text">were </text>
<text x="1051.9999806600001" y="1979.9999976000001" width="32.000065319999976" height="16.999946460000274" class="text">made
</text>
<text x="726.9999798" y="1995.0000520199999" width="57.99998874000005" height="18.000119880000057" class="text">according </text>
<text x="788.0000131200001" y="1994.00001504" width="11.99998493999999" height="16.000068660000125" class="text">to </text>
<text x="807.00000246" y="1994.00001504" width="19.99999248000006" height="16.000068660000125" class="text">the </text>
<text x="832.00001064" y="1995.0000520199999" width="41.99997366000002" height="17.0001056399999" class="text">official </text>
<text x="877.0000288800001" y="1995.0000520199999" width="40.99998809999988" height="16.000068659999897" class="text">station </text>
<text x="921.0000088200001" y="1995.0000520199999" width="19.000042079999957" height="16.000068659999897" class="text">log</text>
<text x="943.0000427399999" y="1995.0000520199999" width="3.999959820000072" height="16.000068659999897" class="text">. </text>
<text x="952.99998624" y="1996.00006626" width="39.999984960000006" height="16.000068659999897" class="text">Please </text>
<text x="995.99996304" y="1996.00006626" width="28.000000020000016" height="16.000068659999897" class="text">note </text>
<text x="1028.00002836" y="1996.9999440600002" width="26.999944140000025" height="16.999946460000046" class="text">that </text>
<text x="1056.99999636" y="1996.9999440600002" width="20.99996046000001" height="15.999932220000346" class="text">we </text>
<text x="1080.99994866" y="1996.9999440600002" width="15.00008226" height="15.999932220000346" class="text">do </text>
<text x="1099.99997316" y="1996.9999440600002" width="22.999984320000067" height="15.999932220000346" class="text">not
</text>
<text x="724.9999911" y="2014.0000497" width="49.99998119999998" height="18.999997680000206" class="text">notarize </text>
<text x="780.00000558" y="2014.0000497" width="52.000005060000035" height="18.999997680000206" class="text">invoices </text>
<text x="835.00000248" y="2014.0000497" width="29.99998871999992" height="17.0001056399999" class="text">since </text>
<text x="870.0000244800001" y="2014.0000497" width="19.999992479999946" height="17.0001056399999" class="text">the </text>
<text x="892.00004082" y="2015.99994174" width="51.00000191999993" height="18.99999767999975" class="text">purpose </text>
<text x="949.0000264199999" y="2015.00006394" width="12.999935340000093" height="17.000082900000052" class="text">of </text>
<text x="964.9999536000001" y="2016.9999787200002" width="44.00005025999985" height="18.999997680000206" class="text">placing </text>
<text x="1012.99996368" y="2015.99994174" width="5.000015700000063" height="16.999946460000046" class="text">a </text>
<text x="1023.0000126599999" y="2017.99999296" width="39.99998496000023" height="18.999997680000206" class="text">notary </text>
<text x="1068.0000133199999" y="2016.9999787200002" width="25.999976160000188" height="16.999969200000123" class="text">seal </text>
<text x="1096.9999813200002" y="2017.99999296" width="13.000040819999867" height="16.999946460000274" class="text">on </text>
<text x="1116.9999738000001" y="2017.99999296" width="5.000033279999798" height="16.999946460000274" class="text">a
</text>
<text x="724.9999911" y="2032.0000104" width="63.999990000000025" height="18.999997680000206" class="text">document </text>
<text x="792.9999936600001" y="2030.9999961600001" width="9.000028259999908" height="16.999946460000046" class="text">is </text>
<text x="805.00001376" y="2030.9999961600001" width="12.99998807999998" height="16.999946460000046" class="text">to </text>
<text x="822.0000144" y="2030.9999961600001" width="55.000014480000004" height="16.999946460000046" class="text">guaranty </text>
<text x="879.99996798" y="2030.9999961600001" width="22.000016340000116" height="16.999946460000046" class="text">the </text>
<text x="904.99997616" y="2033.0000473799998" width="76.00001010000005" height="18.99999767999975" class="text">authenticity </text>
<text x="986.0000195399999" y="2032.0000104" width="11.999967360000142" height="16.999946460000046" class="text">of </text>
<text x="1000.99997874" y="2032.0000104" width="14.999976780000111" height="16.999946460000046" class="text">an </text>
<text x="1020.9999712199999" y="2034.00006162" width="70.00002642000004" height="18.99999767999998" class="text">individual's
</text>
<text x="724.9999911" y="2048.9999795999997" width="56.00003519999996" height="18.99999767999975" class="text">signature </text>
<text x="787.00000998" y="2048.9999795999997" width="22.999984320000067" height="17.999983439999596" class="text">and </text>
<text x="812.99998614" y="2048.9999795999997" width="23.000037059999954" height="17.999983439999596" class="text">not </text>
<text x="839.9999830200001" y="2048.9999795999997" width="10.999999379999963" height="17.999983439999596" class="text">to </text>
<text x="856.00001568" y="2048.9999795999997" width="39.999984960000006" height="17.999983439999596" class="text">certify </text>
<text x="899.9999604599999" y="2049.99999384" width="20.000097960000176" height="17.99998344000005" class="text">the </text>
<text x="924.00000066" y="2049.99999384" width="54.99996174000012" height="17.99998344000005" class="text">accuracy </text>
<text x="983.0000277" y="2049.99999384" width="13.999991220000084" height="17.99998344000005" class="text">of </text>
<text x="1000.99997874" y="2052.00002232" width="75.00005970000007" height="20.000011919999906" class="text">commercials </text>
<text x="1082.9999901" y="2051.00000808" width="30.000023879999844" height="17.9999607000002" class="text">aired</text>
<text x="1113.99998196" y="2051.00000808" width="5.000033279999798" height="17.9999607000002" class="text">.
</text>
<text x="1409.0000468399999" y="1977.99994638" width="4.999927800000023" height="18.99999767999998" class="text">$</text>
<text x="1418.00002236" y="1977.99994638" width="57.99995358000001" height="18.99999767999998" class="text">940.00
</text>
<text x="1388.99994888" y="2008.00005522" width="6.000089160000016" height="22.00006313999984" class="text">(</text>
<text x="1396.999974" y="2008.00005522" width="5.9999836799997865" height="22.00006313999984" class="text">$</text>
<text x="1410.0000148200002" y="2008.00005522" width="56.00001761999988" height="22.00006313999984" class="text">141.00</text>
<text x="1469.99999226" y="2008.00005522" width="5.999983680000014" height="22.00006313999984" class="text">)
</text>
<text x="1189.9999920599998" y="2052.00002232" width="24.000057780000134" height="17.000082899999825" class="text">Net </text>
<text x="1218.99997764" y="2052.00002232" width="36.000025139999934" height="17.000082899999825" class="text">Total
</text>
<text x="1407.9999909599999" y="2058.0000168" width="5.999983680000014" height="20.000011920000134" class="text">$</text>
<text x="1418.99999034" y="2060.00006802" width="56.999985599999945" height="22.000063140000066" class="text">799.00
</text>
<text x="1054.00000452" y="2155.99993422" width="248.99999075999995" height="30.99998663999986" class="text">http://sbgi.net/?p=1224
</text>
<text x="1374.99994008" y="2155.99993422" width="22.000033920000078" height="25.999869959999614" class="text">... </text>
<text x="1399.99996584" y="2155.99993422" width="19.00002450000011" height="25.999869959999614" class="text">to </text>
<text x="1427.00001546" y="2155.99993422" width="23.999952299999904" height="25.999869959999614" class="text">be </text>
<text x="1458.00000732" y="2155.00005642" width="42.99997680000024" height="26.000006400000075" class="text">part </text>
<text x="1509.0000092399998" y="2155.00005642" width="19.00002450000011" height="26.000006400000075" class="text">of </text>
<text x="1535.99995338" y="2155.00005642" width="42.00000881999995" height="26.000006400000075" class="text">their
</text>
<text x="65.000000172" y="2141.0000162399997" width="34.99999914599999" height="27.000020639999548" class="text">The </text>
<text x="107.00000196" y="2143.00006746" width="69.99999125999999" height="29.000071859999935" class="text">parties </text>
<text x="181.99999134" y="2143.99994526" width="64.00000757999999" height="28.99993541999993" class="text">intend </text>
<text x="250.99999703999998" y="2143.00006746" width="30.000006299999995" height="27.000020640000002" class="text">for </text>
<text x="286.99998702" y="2143.99994526" width="31.999995000000013" height="26.999884199999997" class="text">the </text>
<text x="329.00001342" y="2145.99999648" width="83.99996490000001" height="28.99993541999993" class="text">Standard </text>
<text x="426.00000156" y="2147.00001072" width="101.00000069999999" height="29.000071859999935" class="text">Advertiser </text>
<text x="536.9999985000001" y="2148.0000477" width="62.000001299999894" height="29.00009460000001" class="text">Terms </text>
<text x="607.00002492" y="2147.00001072" width="34.99995167999998" height="27.000020640000002" class="text">and </text>
<text x="652.99999356" y="2149.00006194" width="103.00000697999997" height="29.000071859999935" class="text">Conditions </text>
<text x="764.99997606" y="2149.00006194" width="8.000025120000032" height="27.000043379999624" class="text">(</text>
<text x="770.0000093399999" y="2149.00006194" width="8.00000754000007" height="27.000043379999624" class="text">"</text>
<text x="782.99999742" y="2150.99995398" width="62.00000130000001" height="28.99993541999993" class="text">Terms</text>
<text x="843.0000276000001" y="2149.99993974" width="7.999954799999955" height="26.99988420000045" class="text">"</text>
<text x="853.99999182" y="2149.99993974" width="8.000007539999956" height="26.99988420000045" class="text">) </text>
<text x="867.99998304" y="2151.99999096" width="69.00005843999998" height="28.999935420000384" class="text">located </text>
<text x="949.9999943999999" y="2150.99995398" width="19.999992480000174" height="27.000020640000002" class="text">at</text>
<text x="971.00004276" y="2150.99995398" width="19.999992479999946" height="27.000020640000002" class="text">...
</text>
<text x="63.000002682" y="2170.99998864" width="111.000003972" height="27.00004338000008" class="text">agreement</text>
<text x="173.00000351399999" y="2169.99995166" width="6.999981546000015" height="24.99996942000007" class="text">, </text>
<text x="185.99998632" y="2169.99995166" width="35.000022" height="24.99996942000007" class="text">and </text>
<text x="228.99999828" y="2170.99998864" width="31.999995000000013" height="26.000006400000075" class="text">the </text>
<text x="271.99999266" y="2170.99998864" width="34.99998684000002" height="24.999992160000147" class="text">sale </text>
<text x="315.99999018" y="2170.99998864" width="23.00001947999999" height="24.999992160000147" class="text">of </text>
<text x="342.99998705999997" y="2173.00001712" width="108.00000510000007" height="27.000020640000002" class="text">advertising </text>
<text x="460.00002041999994" y="2172.00000288" width="13.999956060000102" height="24.999992160000147" class="text">is </text>
<text x="483.00000473999995" y="2174.0000541" width="89.99996616000004" height="27.00004338000008" class="text">expressly </text>
<text x="586.9999797" y="2174.9999319" width="71.99999753999987" height="26.999884199999997" class="text">subject </text>
<text x="664.00001052" y="2174.0000541" width="18.99997175999988" height="24.999992160000147" class="text">to </text>
<text x="693.99999924" y="2174.0000541" width="35.00000441999998" height="24.999992160000147" class="text">said </text>
<text x="743.99998044" y="2174.9999319" width="61.00003332000006" height="25.99986996000007" class="text">Terms</text>
<text x="805.00001376" y="2174.9999319" width="7.00000440000008" height="24.999992159999692" class="text">.
</text>
<text x="57.99999753" y="2200.9999383" width="61.00000519199999" height="22.99994093999976" class="text">Officially </text>
<text x="128.999998962" y="2200.9999383" width="50.999986097999994" height="22.99994093999976" class="text">printed </text>
<text x="185.99998632" y="2200.9999383" width="17.000018220000015" height="20.99988971999983" class="text">on </text>
<text x="209.99999136" y="2201.99995254" width="68.00000256000001" height="22.99994093999976" class="text">02/03/20 </text>
<text x="283.00000962" y="2202.99998952" width="44.99998307999999" height="21.999926699999833" class="text">02:59 </text>
<text x="332.99999082" y="2201.99995254" width="20.000027639999985" height="20.99988971999983" class="text">PM
</text>
<text x="1504.9999439399999" y="2219.00005818" width="35.000074739999945" height="24.999992160000147" class="text">Page</text>
<text x="1540.99996908" y="2217.00000696" width="7.0000571399998535" height="22.00006313999984" class="text">: </text>
<text x="1554.0000099" y="2215.99999272" width="6.999951660000079" height="21.999926700000287" class="text">1
</text>
</g>
</svg>
