<svg xmlns="http://www.w3.org/2000/svg">
<style>.text { font-size: 14px; font-family: Arial, sans-serif; }</style>
<g id="page-0" transform="translate(0, 0)">
<rect width="1759" height="2273" fill="none" stroke="black" />
<text x="147.000002908" y="159.999995423" width="90.99999694200002" height="55.999991920000014" class="text">my
</text>
<text x="217.99999395" y="233.99998572" width="91.00000046" height="82.99998380299999" class="text">TV
</text>
<text x="382.00000715" y="105.00000076100001" width="66.00000188000001" height="23.00000285100002" class="text">REMIT </text>
<text x="456.00001139000005" y="105.00000076100001" width="25.999990079999975" height="23.00000285100002" class="text">TO </text>
<text x="491.00001292" y="105.00000076100001" width="70.00000306000004" height="23.00000285100002" class="text">Sinclair </text>
<text x="568.99998316" y="105.00000076100001" width="97.00003741" height="23.00000285100002" class="text">Broadcast
</text>
<text x="384.00000774" y="137.999998922" width="6.9999932700000045" height="23.999997836000006" class="text">c</text>
<text x="393.9999931" y="137.999998922" width="7.000010860000032" height="23.999997836000006" class="text">/</text>
<text x="401.00000396" y="137.999998922" width="6.9999932700000045" height="23.999997836000006" class="text">o </text>
<text x="414.99999049999997" y="137.999998922" width="51.99999775000009" height="23.999997836000006" class="text">WCIV
</text>
<text x="379.99998897" y="169.00000484" width="30.00002644" height="23.999997836000006" class="text">PO </text>
<text x="419.00000927" y="169.00000484" width="37.00000212000003" height="23.999997836000006" class="text">Box </text>
<text x="464.00003133999996" y="169.00000484" width="65.99996669999996" height="23.999997836000006" class="text">206270
</text>
<text x="382.99999865" y="204.000004336" width="59.00002619999998" height="30.000008659999992" class="text">Dallas</text>
<text x="443.99997267000003" y="203.00000025900002" width="8.000019949999967" height="28.00000050600002" class="text">, </text>
<text x="457.00002048" y="203.00000025900002" width="20.000005899999962" height="28.00000050600002" class="text">TX </text>
<text x="488.00000323999996" y="203.00000025900002" width="111.99999786000001" height="29.99999274900003" class="text">75320-6270
</text>
<text x="684.99999979" y="93.999996828" width="105.00000459" height="22.999996032" class="text">Advertiser
</text>
<text x="684.99999979" y="135.999997587" width="77.00001392000001" height="30.999996825999986" class="text">Agency
</text>
<text x="681.99999011" y="166.000006247" width="58.000017110000044" height="27.000003247999985" class="text">Buyer
</text>
<text x="686.00000888" y="201.000005743" width="109.99999727" height="27.999998233000014" class="text">Salesperson
</text>
<text x="893.9999998800001" y="97.00000224" width="54.9999898399999" height="29.000004582999992" class="text">Jaime </text>
<text x="957.9999659900001" y="97.00000224" width="83.99998960000005" height="29.000004582999992" class="text">Harrison </text>
<text x="1049.00001922" y="97.00000224" width="32.999930579999955" height="29.000004582999992" class="text">for </text>
<text x="1085.9999861600002" y="97.00000224" width="25.99997248999989" height="29.000004582999992" class="text">US </text>
<text x="1121.00002287" y="97.00000224" width="68.0000024699998" height="29.000004582999992" class="text">Senate</text>
<text x="1192.00003502" y="97.00000224" width="7.999967179999885" height="29.000004582999992" class="text">-</text>
<text x="1201.00001129" y="97.00000224" width="7.999949590000142" height="29.000004582999992" class="text">D </text>
<text x="1221.00005237" y="97.00000224" width="7.999949589999915" height="29.000004582999992" class="text">(</text>
<text x="1229.00000196" y="97.00000224" width="67.99998488000006" height="29.000004582999992" class="text">135916</text>
<text x="1300.00001411" y="97.00000224" width="7.999949590000142" height="29.000004582999992" class="text">)
</text>
<text x="891.9999817" y="130.999997659" width="29.000017349999894" height="32.000000903" class="text">AL </text>
<text x="928.0000450900001" y="132.000004009" width="54.99998984000001" height="32.00000317600001" class="text">Media </text>
<text x="993.00002029" y="132.000004009" width="9.999967770000126" height="30.000001841000014" class="text">(</text>
<text x="1002.9999880600001" y="132.999998994" width="53.99998074999985" height="30.999996826000014" class="text">15629</text>
<text x="1058.99998699" y="132.999998994" width="9.999967770000012" height="29.999999568000007" class="text">)
</text>
<text x="892.9999907900001" y="163.999998093" width="64.9999752" height="26.999996428999992" class="text">Kassal</text>
<text x="956.0000533499999" y="163.999998093" width="7.999949590000142" height="26.999996428999992" class="text">, </text>
<text x="962.99999385" y="163.999998093" width="58.000017110000044" height="26.999996428999992" class="text">Ronni
</text>
<text x="891.9999817" y="203.00000025900002" width="99.00002040999993" height="30.999999099000007" class="text">Millennium</text>
<text x="992.0000112" y="201.99999390899998" width="7.999949589999915" height="28.999986398999994" class="text">/</text>
<text x="998.9999516999999" y="201.99999390899998" width="41.000108840000166" height="28.999986398999994" class="text">CHI</text>
<text x="1036.00002418" y="201.99999390899998" width="7.999949589999915" height="28.999986398999994" class="text">, </text>
<text x="1047.00000104" y="201.99999390899998" width="76.00004001000025" height="28.999986398999994" class="text">Chicago </text>
<text x="1131.00000823" y="203.00000025900002" width="7.999949589999915" height="29.00000458300002" class="text">(</text>
<text x="1142.99999418" y="203.00000025900002" width="40.99998570999992" height="29.00000458300002" class="text">1094</text>
<text x="1187.00000716" y="203.00000025900002" width="7.999949589999915" height="29.00000458300002" class="text">)
</text>
<text x="892.9999907900001" y="234.99999207" width="21.000050169999895" height="28.999995490999964" class="text">ph</text>
<text x="916.99996269" y="233.99998572" width="9.000064220000013" height="28.999993218000014" class="text">: </text>
<text x="928.0000450900001" y="233.99998572" width="8.999958679999963" height="28.999993218000014" class="text">(</text>
<text x="936.0000122700001" y="233.99998572" width="33.000036120000004" height="29.999981384000023" class="text">312</text>
<text x="969.0000483900001" y="233.0000021" width="8.99995867999985" height="28.999997764" class="text">) </text>
<text x="980.00002525" y="233.99998572" width="91.99995677999993" height="31.99999181100003" class="text">832-6600
</text>
<text x="1362.99995354" y="105.999995746" width="65.00008073999993" height="21.999996500999984" class="text">Invoice </text>
<text x="1483.00002412" y="104.00000350299999" width="78.99996173999989" height="24.00000692799999" class="text">7497817
</text>
<text x="1363.99996263" y="137.000001664" width="25.00008653000009" height="20.00000425799999" class="text">Inv </text>
<text x="1398.00000784" y="137.000001664" width="38.99998512000002" height="20.999999243000005" class="text">Date
</text>
<text x="1475.9999780800001" y="144.000002927" width="79.00006727999994" height="23.000002851000005" class="text">6/7/2020
</text>
<text x="1364.99997172" y="176.00000383" width="55.99999892999995" height="20.99999924299999" class="text">Terms
</text>
<text x="1479.99999685" y="180.999994666" width="28.000008260000186" height="21.999987409" class="text">CIA
</text>
<text x="1363.99996263" y="215.000005996" width="80.00007636999999" height="22.00000331999999" class="text">Contract </text>
<text x="1482.00001503" y="218.999992755" width="77.99995265000007" height="22.999993758999977" class="text">4388174
</text>
<text x="1361.99996204" y="258.00000174" width="34.00004521000005" height="27.999995960000007" class="text">Bill </text>
<text x="1401.00003511" y="258.00000174" width="41.99999479999997" height="27.999995960000007" class="text">Type </text>
<text x="1474.99996899" y="258.00000174" width="71.00001214999998" height="27.999995960000007" class="text">Weekly</text>
<text x="1545.99998114" y="258.00000174" width="8.000055129999964" height="27.999995960000007" class="text">/</text>
<text x="1554.00003627" y="258.00000174" width="78.99996174000012" height="27.999995960000007" class="text">Irregular
</text>
<text x="1363.99996263" y="288.0000104" width="58.000017110000044" height="22.00000332000002" class="text">Period </text>
<text x="1492.99999189" y="290.00002309999996" width="6.000054540000065" height="22.000026049999974" class="text">6</text>
<text x="1501.99995057" y="290.00002309999996" width="6.000054540000065" height="22.000026049999974" class="text">/</text>
<text x="1511.00003238" y="290.00002309999996" width="5.999931409999817" height="22.000026049999974" class="text">1</text>
<text x="1516.9999637899998" y="290.00002309999996" width="6.000054540000065" height="22.000026049999974" class="text">/</text>
<text x="1525.00001892" y="290.00002309999996" width="66.99999337999998" height="24.000016019999975" class="text">2020-6</text>
<text x="1592.0000123" y="288.99999402000003" width="6.000036950000094" height="21.999980590000007" class="text">/</text>
<text x="1598.9999528" y="288.99999402000003" width="6.000036949999867" height="21.999980590000007" class="text">7</text>
<text x="1607.0000079299998" y="288.99999402000003" width="5.9999490000002424" height="21.999980590000007" class="text">/</text>
<text x="1612.99995693" y="288.99999402000003" width="41.99999479999997" height="21.999980590000007" class="text">2020
</text>
<text x="102.000000187" y="265.00000073" width="231.000018893" height="29.000002310000013" class="text">CHARLESTON
</text>
<text x="1348.999967" y="339.99997692" width="23.000068349999992" height="24.999954179999975" class="text">CO</text>
<text x="1378.99997585" y="341.000006" width="7.000046039999916" height="24.99999964" class="text">-</text>
<text x="1384.0000212999998" y="341.000006" width="22.99996281000017" height="24.99999964" class="text">OP</text>
<text x="1411.00000288" y="341.000006" width="6.999958090000064" height="24.99999964" class="text">/</text>
<text x="1416.99995188" y="343.0000187" width="52.00006811000003" height="27.000012340000012" class="text">Order </text>
<text x="1474.99996899" y="344.00000232" width="41.99999479999974" height="27.000012340000012" class="text">Type </text>
<text x="1556.0000544499999" y="341.000006" width="25.99997249000012" height="22.999986939999985" class="text">No</text>
<text x="1584.9999486699999" y="341.000006" width="6.000054540000065" height="22.999986939999985" class="text">/</text>
<text x="1586.99996685" y="341.000006" width="74.0000394199999" height="22.999986939999985" class="text">Normal
</text>
<text x="1348.999967" y="377.00000730000005" width="75.00003091999997" height="26.000028720000046" class="text">Package
</text>
<text x="1350.9999675899999" y="413.0000086" width="42.000012390000165" height="24.99999964" class="text">Gen. </text>
<text x="1391.99997089" y="413.0000086" width="39.9999766200001" height="24.99999964" class="text">Date </text>
<text x="1458.99994668" y="413.0000086" width="79.00006727999994" height="24.99999964" class="text">6/9/2020 </text>
<text x="1558.99995859" y="413.0000086" width="66.00008982999998" height="24.99999964" class="text">7:52:25</text>
<text x="1630.99997983" y="413.0000086" width="23.000068349999992" height="24.99999964" class="text">AM
</text>
<text x="96.000000176" y="394.0000016" width="30.000001814" height="33.00000498000003" class="text">AL </text>
<text x="136.999992922" y="394.0000016" width="75.00001684800003" height="33.00000498000003" class="text">Media
</text>
<text x="92.999997532" y="433.00002195" width="45.000002721" height="32.000021360000005" class="text">222 </text>
<text x="149.000005257" y="433.00002195" width="8.999988583000004" height="32.000021360000005" class="text">W </text>
<text x="180.99999183" y="433.00002195" width="97.00000223" height="32.000021360000005" class="text">Ontario </text>
<text x="291.00000668999996" y="433.00002195" width="29.99999126" height="32.000021360000005" class="text">St
</text>
<text x="97.000000471" y="473.00000319" width="36.999996843000005" height="31.999998629999936" class="text">Ste </text>
<text x="147.999997926" y="473.00000319" width="41.000013854" height="33.00000497999997" class="text">200
</text>
<text x="97.000000471" y="517.00000983" width="107.00000693899999" height="40.00002669999992" class="text">Chicago</text>
<text x="204.99999891" y="514.99999713" width="12.000003540000023" height="36.99998492000003" class="text">, </text>
<text x="219.99999454000002" y="514.00001351" width="21.000014989999983" height="37.00003038" class="text">IL </text>
<text x="252.00000398" y="514.00001351" width="76.99999632999996" height="38.999997620000045" class="text">60654
</text>
<text x="687.00001797" y="288.0000104" width="68.99999396999999" height="30.000008659999992" class="text">Special </text>
<text x="758.9999864399999" y="288.0000104" width="79.00001451000003" height="31.000015010000027" class="text">Handling </text>
<text x="891.9999817" y="285.00001407999997" width="49.00005842999997" height="24.000016019999975" class="text">None
</text>
<text x="684.00000829" y="316.00000636" width="74.99997814999995" height="19.999990620000005" class="text">Product
</text>
<text x="892.9999907900001" y="321.999999" width="105.00005735999991" height="28.99997958" class="text">POLITICAL </text>
<text x="1009.0000250100001" y="322.99998262" width="117.9999468599998" height="29.999963200000025" class="text">CANDIDATE </text>
<text x="1135.000027" y="322.99998262" width="7.999967179999885" height="28.99997958" class="text">(</text>
<text x="1142.99999418" y="322.99998262" width="22.00005926000017" height="28.99997958" class="text">ns</text>
<text x="1166.99996608" y="322.99998262" width="8.000055130000192" height="28.99997958" class="text">) </text>
<text x="1179.00003998" y="322.99998262" width="7.999967179999885" height="28.99997958" class="text">(</text>
<text x="1187.00000716" y="322.99998262" width="43.000003890000016" height="28.99997958" class="text">1186</text>
<text x="1234.00004741" y="322.99998262" width="7.999949590000142" height="28.99997958" class="text">)
</text>
<text x="684.00000829" y="352.00000766" width="55.99999893000006" height="21.000019699999996" class="text">Brand
</text>
<text x="891.9999817" y="360.00001299999997" width="45.00002207" height="33.00000497999997" class="text">1428 </text>
<text x="945.9999800400001" y="358.99998392000003" width="10.000073309999834" height="30.999992280000072" class="text">(</text>
<text x="955.0000442600001" y="360.99999662" width="78.99996173999989" height="33.00000498000003" class="text">1391218</text>
<text x="1036.00002418" y="360.99999662" width="9.999967770000012" height="30.999992279999958" class="text">)
</text>
<text x="686.00000888" y="391.00000528000004" width="43.00002147999999" height="27.000012340000012" class="text">Acct </text>
<text x="730.9999781800001" y="391.9999889" width="56.00001651999992" height="27.000012339999955" class="text">Types </text>
<text x="889.99998111" y="391.00000528000004" width="87.00001686999985" height="27.999995960000035" class="text">National</text>
<text x="974.9999798" y="391.00000528000004" width="8.000055130000078" height="27.999995960000035" class="text">/</text>
<text x="981.0000343400001" y="391.00000528000004" width="86.00000777999992" height="27.999995960000035" class="text">Political </text>
<text x="1070.99997294" y="391.00000528000004" width="99.00000282000019" height="27.999995960000035" class="text">Candidate </text>
<text x="1179.9999435299999" y="391.00000528000004" width="75.00004850999994" height="27.999995960000035" class="text">Agency </text>
<text x="1260.0000199" y="391.00000528000004" width="44.000030570000035" height="27.999995960000035" class="text">BRD
</text>
<text x="684.00000829" y="420.99999121" width="31.99997425999993" height="21.999980590000007" class="text">Est</text>
<text x="715.00002623" y="420.99999121" width="5.999984179999956" height="21.999980590000007" class="text">/</text>
<text x="718.99999223" y="420.99999121" width="77.00001392000001" height="21.999980590000007" class="text">External </text>
<text x="800.99998124" y="420.99999121" width="6.00000177000004" height="21.999980590000007" class="text"># </text>
<text x="896.00001806" y="420.99999121" width="43.00000389000013" height="22.999986939999985" class="text">1428</text>
<text x="941.00004013" y="420.99999121" width="5.999949000000015" height="22.999986939999985" class="text">/</text>
<text x="943.99996186" y="420.99999121" width="141.00001521000013" height="22.999986939999985" class="text">ECR26930213
</text>
<text x="687.00001797" y="455.00002527" width="49.00000565999994" height="21.000019699999996" class="text">Demo
</text>
<text x="893.9999998800001" y="455.00002527" width="36.99996693999992" height="23.00003240000001" class="text">A35</text>
<text x="936.0000122700001" y="455.00002527" width="6.000036949999981" height="23.00003240000001" class="text">+
</text>
<text x="684.00000829" y="489.99999749" width="78.00000541999998" height="22.000003319999962" class="text">Revision
</text>
<text x="684.99999979" y="523.99998609" width="97.00000223000006" height="22.000003319999962" class="text">Comments
</text>
<text x="892.9999907900001" y="528.00001149" width="55.99999892999995" height="27.000012340000012" class="text">Jaime </text>
<text x="956.0000533499999" y="528.00001149" width="78.99996174000012" height="27.000012340000012" class="text">Harrison
</text>
<text x="895.00000897" y="557.99999742" width="65.99996669999996" height="28.000018689999933" class="text">LAURA </text>
<text x="969.0000483900001" y="557.99999742" width="98.99989727999991" height="28.000018689999933" class="text">HEINRICH</text>
<text x="1071.99998203" y="557.99999742" width="8.000055129999964" height="28.000018689999933" class="text">/</text>
<text x="1077.00000989" y="557.99999742" width="100.00002949999998" height="28.000018689999933" class="text">MATTHEW </text>
<text x="1192.00003502" y="557.99999742" width="115.99992868000004" height="28.000018689999933" class="text">MEVERDEN
</text>
<text x="616.00000582" y="593.0000150999999" width="154.00001024999995" height="36.00002402999985" class="text">OFFICIAL </text>
<text x="778.00001843" y="592.00000875" width="127.99996739999995" height="35.00001767999993" class="text">BILLING </text>
<text x="922.00000814" y="592.00000875" width="129.0000292599999" height="36.00000130000001" class="text">INVOICE
</text>
<text x="724.999994" y="632.00001272" width="18.99997922" height="16.999994300000026" class="text">Air </text>
<text x="753.00000226" y="632.00001272" width="38.000011210000025" height="16.999994300000026" class="text">Time </text>
<text x="862.99998194" y="634.99996358" width="54.99998984000001" height="22.999986939999985" class="text">Length
</text>
<text x="1030.99997873" y="632.00001272" width="67.99998488000006" height="22.999986939999985" class="text">Program
</text>
<text x="1245.00002427" y="636.00003812" width="38.99996752999982" height="22.000026050000088" class="text">Copy</text>
<text x="1288.00002816" y="634.99996358" width="5.999931410000045" height="22.000003319999905" class="text">/</text>
<text x="1293.99995957" y="634.99996358" width="36.00006338999992" height="22.000003319999905" class="text">ISCI
</text>
<text x="552.0000045300001" y="539.00001315" width="33.999992439999914" height="26.000028719999932" class="text">AgM
</text>
<text x="62.0000007" y="586.99999973" width="122.00000081" height="35.00001768000004" class="text">Charleston </text>
<text x="192.99999537" y="588.00000608" width="30.00000885" height="33.000004980000085" class="text">SC </text>
<text x="232.99998958" y="588.00000608" width="10.000002949999981" height="31.99999863000005" class="text">(</text>
<text x="239.00000894000001" y="588.9999897" width="59.00000860999998" height="33.99998860000005" class="text">WCIV</text>
<text x="304.00000173" y="588.9999897" width="10.00000295000001" height="31.999998629999936" class="text">)
</text>
<text x="79.999997215" y="634.99996358" width="29.00000151900001" height="22.000003319999905" class="text">Line </text>
<text x="135.000004645" y="637.0000217400001" width="35.99999478900003" height="22.000003320000133" class="text">Type
</text>
<text x="241.00000953" y="632.00001272" width="78.00000541999998" height="18.00000065000006" class="text">Scheduled
</text>
<text x="427.99998554" y="634.99996358" width="69.00002914999999" height="19.99994516000004" class="text">Schedule </text>
<text x="505.00001705000005" y="634.99996358" width="38.99998511999996" height="19.99994516000004" class="text">Days </text>
<text x="550.99999544" y="636.00003812" width="15.000013219999914" height="21.000019700000053" class="text">to </text>
<text x="570.99998375" y="636.00003812" width="31.00003552999999" height="20.000036079999973" class="text">Run
</text>
<text x="1414.00003015" y="637.0000217400001" width="66.99997579000001" height="18.000000650000175" class="text">Amount
</text>
<text x="1572.99996272" y="634.99996358" width="72.00002124000002" height="17.999977919999992" class="text">Remarks
</text>
<text x="71.000001596" y="698.00002268" width="20.00000062299999" height="18.000046110000085" class="text">1.0
</text>
<text x="126.00000199" y="698.00002268" width="75.99998723999998" height="18.000046110000085" class="text">Contract </text>
<text x="210.00000917999998" y="698.00002268" width="35.00000152999999" height="18.000046110000085" class="text">Line </text>
<text x="250.99999489" y="698.00002268" width="80.00000601000002" height="18.000046110000085" class="text">Remarks</text>
<text x="333.00001908" y="698.00002268" width="4.999975089999964" height="18.000046110000085" class="text">: </text>
<text x="389.00001801" y="700.99999627" width="35.00000153000002" height="21.000019700000053" class="text">BIG </text>
<text x="431.99998672" y="700.99999627" width="59.000026200000036" height="21.000019700000053" class="text">BANG </text>
<text x="498.00002378" y="700.99999627" width="81.99998901000004" height="21.000019700000053" class="text">THEORY
</text>
<text x="130.00000668799998" y="728.99999223" width="40.99999274600003" height="18.999984270000027" class="text">SPOT </text>
<text x="219.00000304" y="728.00000861" width="54.999989839999984" height="18.999984270000027" class="text">7:00:00</text>
<text x="273.99999288" y="729.99997585" width="93.00001864000006" height="20.999951510000074" class="text">PM-7:30:00 </text>
<text x="378.99999747000004" y="729.99997585" width="20.999997399999984" height="19.999967890000107" class="text">Per </text>
<text x="403.00000454999997" y="729.99997585" width="33.00000094000001" height="18.999984270000027" class="text">week </text>
<text x="443.00001634999995" y="729.99997585" width="4.999992680000048" height="18.999984270000027" class="text">(</text>
<text x="448.00000903" y="729.99997585" width="4.999992679999991" height="18.999984270000027" class="text">1</text>
<text x="456.00001139000005" y="729.99997585" width="4.999992679999934" height="18.999984270000027" class="text">)</text>
<text x="462.00001316000004" y="729.99997585" width="4.999975090000021" height="18.999984270000027" class="text">, </text>
<text x="464.99998765999993" y="729.99997585" width="20.99999740000004" height="18.999984270000027" class="text">We</text>
<text x="485.99998506" y="729.99997585" width="5.000027860000046" height="18.999984270000027" class="text">, </text>
<text x="491.00001292" y="729.99997585" width="15.000013219999971" height="18.999984270000027" class="text">Th</text>
<text x="506.99998246" y="729.99997585" width="5.000027859999989" height="18.999984270000027" class="text">, </text>
<text x="512.00001032" y="731.0000276600001" width="15.000013220000028" height="20.000036080000086" class="text">Fr
</text>
<text x="659.0000272999999" y="731.0000276600001" width="68.99999396999999" height="22.000003320000133" class="text">06/04/20 </text>
<text x="740.00000722" y="731.0000276600001" width="35.00000152999996" height="22.000003320000133" class="text">7:11</text>
<text x="775.00000875" y="731.0000276600001" width="19.999988309999935" height="22.000003320000133" class="text">PM </text>
<text x="805.0000176" y="731.0000276600001" width="5.9999841800000695" height="22.000003320000133" class="text">(</text>
<text x="811.00000178" y="731.0000276600001" width="16.000022309999963" height="22.000003320000133" class="text">Th</text>
<text x="831.00000768" y="731.0000276600001" width="5.999984179999956" height="22.000003320000133" class="text">)
</text>
<text x="879.0000042500001" y="732.00001128" width="41.999994799999854" height="22.999986939999985" class="text">00:30 </text>
<text x="935.00000318" y="731.0000276600001" width="26.99998157999994" height="21.000019700000166" class="text">The </text>
<text x="969.0000483900001" y="732.00001128" width="19.99993553999991" height="22.00000332000002" class="text">Big </text>
<text x="997.00003906" y="732.9999949" width="36.999966940000036" height="22.00000332000002" class="text">Bang </text>
<text x="1042.9999646800002" y="734.00000125" width="49.000058429999854" height="23.00000966999994" class="text">Theory
</text>
<text x="1210.99997906" y="728.99999223" width="90.00004414" height="19.999967889999994" class="text">HARR0530H
</text>
<text x="1412.0000119699998" y="732.00001128" width="5.9999490000002424" height="20.000013349999904" class="text">$</text>
<text x="1422.99998883" y="732.00001128" width="49.99996198000008" height="20.000013349999904" class="text">100.00
</text>
<text x="90.000000165" y="1092.99998517" width="14.000000611999994" height="12.999968899999885" class="text">ira
</text>
<text x="1210.99997906" y="1997.9999357699999" width="37.00005489" height="16.999926109999933" class="text">Gross </text>
<text x="1253.99998295" y="1996.99995215" width="36.00006338999992" height="15.999942489999967" class="text">Total
</text>
<text x="1208.9999608800001" y="2018.99995547" width="68.99999396999988" height="14.99995887" class="text">Commission
</text>
<text x="1535.99999578" y="2002.00002936" width="38.99998512000002" height="21.000019700000166" class="text">Total </text>
<text x="1576.9999990800002" y="2003.00001298" width="36.99996693999992" height="21.000019700000166" class="text">Spots
</text>
<text x="1656.99996991" y="2000.0000621200002" width="4.000036359999967" height="15.000095250000186" class="text">1
</text>
<text x="1430.00005246" y="2002.00002936" width="4.999922319999996" height="19.000052460000006" class="text">$</text>
<text x="1439.00001114" y="2002.00002936" width="58.000017110000044" height="19.000052460000006" class="text">100.00
</text>
<text x="1420.99997065" y="2030.99994075" width="6.000054540000065" height="20.99988331999998" class="text">(</text>
<text x="1430.99995601" y="2030.99994075" width="6.000036950000094" height="20.99988331999998" class="text">$</text>
<text x="1440.00002023" y="2030.99994075" width="48.99993530000006" height="22.99998693999987" class="text">15.00</text>
<text x="1490.99997371" y="2029.99995713" width="6.000054540000065" height="21.00001969999994" class="text">)
</text>
<text x="77.000001607" y="2020.99992271" width="40.99999274599999" height="28.99991139000008" class="text">Net </text>
<text x="124.0000014" y="2020.99992271" width="25.99999887499999" height="28.99991139000008" class="text">30</text>
<text x="154.999998232" y="2020.99992271" width="8.00000763700001" height="28.99991139000008" class="text">-</text>
<text x="161.00000352" y="2022.00006544" width="105.00000459" height="30.000054120000186" class="text">Payment </text>
<text x="270.99998320000003" y="2022.00006544" width="16.999996219999957" height="29.000070499999993" class="text">is </text>
<text x="297.00000846" y="2022.00006544" width="41.99999479999997" height="29.000070499999993" class="text">due </text>
<text x="344.99998744" y="2022.00006544" width="68.99999396999999" height="29.000070499999993" class="text">within </text>
<text x="427.99998554" y="2023.00004906" width="27.000016759999994" height="29.000070499999993" class="text">30 </text>
<text x="462.00001316000004" y="2023.00004906" width="52.99997165999997" height="29.000070499999993" class="text">days </text>
<text x="523.00000477" y="2023.00004906" width="52.99997166000003" height="29.000070499999993" class="text">from </text>
<text x="587.00000606" y="2024.00003268" width="79.00001451000003" height="30.00005411999996" class="text">invoice
</text>
<text x="74.999999258" y="2042.99994876" width="46.999999792999986" height="22.000026050000088" class="text">date</text>
<text x="128.00000433900001" y="2042.99994876" width="5.999992974999998" height="22.000026050000088" class="text">.
</text>
<text x="76.00000131200001" y="2075.99995374" width="76.99999457099999" height="27.999950500000068" class="text">Station </text>
<text x="166.000001477" y="2076.99993736" width="75.99999955299998" height="28.999934120000034" class="text">owned </text>
<text x="249.99998580000002" y="2076.99993736" width="26.000007669999974" height="27.999927769999886" class="text">or </text>
<text x="280.00001224" y="2076.99993736" width="98.99998523000005" height="27.999927769999886" class="text">provided </text>
<text x="391.00000101" y="2078.00005736" width="89.99999136999998" height="28.00006415000007" class="text">services </text>
<text x="490.00000382999997" y="2078.00005736" width="25.99999008000009" height="28.00006415000007" class="text">by </text>
<text x="525.00000536" y="2078.00005736" width="39.999994209999954" height="28.00006415000007" class="text">the </text>
<text x="573.0000019299999" y="2079.00004098" width="82.99999810000008" height="28.00006415000007" class="text">Sinclair
</text>
<text x="73.999998963" y="2102.0000279200003" width="117.00001340699998" height="28.000064150000526" class="text">Broadcast </text>
<text x="199.99998864" y="2103.00003427" width="65.00001037999996" height="27.000080530000105" class="text">Group</text>
<text x="266.99998201999995" y="2103.00003427" width="8.00001995000008" height="24.999976909999987" class="text">.
</text>
<text x="740.00000722" y="2010.00005743" width="59.99996492999992" height="18.000046110000085" class="text">Warranty</text>
<text x="806.0000266899999" y="2010.00005743" width="4.9999750900001345" height="18.000046110000085" class="text">-</text>
<text x="813.99997628" y="2010.00005743" width="26.000042849999886" height="18.000046110000085" class="text">We </text>
<text x="839.00001004" y="2010.00005743" width="53.99998075000008" height="18.000046110000085" class="text">warrant </text>
<text x="892.9999907900001" y="2010.00005743" width="21.999953720000008" height="18.000046110000085" class="text">the </text>
<text x="919.9999899600001" y="2010.00005743" width="37.99997602999997" height="18.000046110000085" class="text">above </text>
<text x="962.99999385" y="2010.00005743" width="68.9999939700001" height="18.000046110000085" class="text">broadcasts </text>
<text x="1035.00001509" y="2010.00005743" width="32.999930579999955" height="18.000046110000085" class="text">were </text>
<text x="1072.99999112" y="2010.00005743" width="32.000027029999956" height="18.000046110000085" class="text">made
</text>
<text x="743.0000169" y="2027.00000627" width="63.00000978999992" height="19.000052460000006" class="text">according </text>
<text x="809.00000119" y="2027.00000627" width="11.000029629999972" height="19.000052460000006" class="text">to </text>
<text x="823.99999682" y="2027.00000627" width="18.999996810000084" height="19.000052460000006" class="text">the </text>
<text x="850.99999599" y="2027.00000627" width="43.00000389000013" height="19.000052460000006" class="text">official </text>
<text x="896.00001806" y="2027.00000627" width="41.99999480000008" height="19.000052460000006" class="text">station </text>
<text x="942.00004922" y="2027.00000627" width="18.99992644999986" height="19.000052460000006" class="text">log</text>
<text x="962.99999385" y="2027.00000627" width="5.000045450000016" height="19.000052460000006" class="text">. </text>
<text x="970.99996103" y="2027.00000627" width="37.00005489" height="19.000052460000006" class="text">Please </text>
<text x="1012.99995583" y="2027.00000627" width="30.0000088500002" height="19.000052460000006" class="text">note </text>
<text x="1048.00001013" y="2027.00000627" width="23.99997189999999" height="19.000052460000006" class="text">that </text>
<text x="1074.99999171" y="2027.00000627" width="20.000058670000044" height="19.000052460000006" class="text">we </text>
<text x="1098.9999636100001" y="2027.00000627" width="17.000031399999898" height="19.000052460000006" class="text">do </text>
<text x="1121.00002287" y="2027.00000627" width="20.999962220000043" height="19.000052460000006" class="text">not
</text>
<text x="741.00001631" y="2045.00005238" width="51.00000625000007" height="18.000046109999857" class="text">notarize </text>
<text x="796.00000615" y="2045.00005238" width="52.99997166000003" height="18.000046109999857" class="text">invoices </text>
<text x="852.00000508" y="2045.00005238" width="33.00003611999989" height="18.000046109999857" class="text">since </text>
<text x="887.9999629299999" y="2045.00005238" width="21.000050170000122" height="18.000046109999857" class="text">the </text>
<text x="912.00004037" y="2045.00005238" width="51.99996257000009" height="18.000046109999857" class="text">purpose </text>
<text x="968.0000393" y="2045.00005238" width="16.99990826999999" height="18.000046109999857" class="text">of </text>
<text x="986.9999657500001" y="2045.00005238" width="44.00001297999995" height="18.000046109999857" class="text">placing </text>
<text x="1036.00002418" y="2045.00005238" width="4.999922319999996" height="18.000046109999857" class="text">a </text>
<text x="1045.99999195" y="2045.00005238" width="39.99999421000007" height="18.000046109999857" class="text">notary </text>
<text x="1091.00001402" y="2045.00005238" width="28.00000825999996" height="18.000046109999857" class="text">seal </text>
<text x="1119.00002228" y="2045.00005238" width="17.000013809999928" height="18.000046109999857" class="text">on </text>
<text x="1139.99996691" y="2045.00005238" width="5.000027859999818" height="18.000046109999857" class="text">a
</text>
<text x="742.00000781" y="2060.00001125" width="66.99999337999998" height="14.999958870000228" class="text">document </text>
<text x="812.00001087" y="2060.00001125" width="8.000019950000024" height="14.999958870000228" class="text">is </text>
<text x="823.99999682" y="2060.00001125" width="10.999976859999947" height="14.999958870000228" class="text">to </text>
<text x="841.00002822" y="2060.00001125" width="55.99999893000006" height="14.999958870000228" class="text">guaranty </text>
<text x="900.9999579700001" y="2060.00001125" width="19.000031990000025" height="14.999958870000228" class="text">the </text>
<text x="925.00003541" y="2060.00001125" width="76.99994356000002" height="14.999958870000228" class="text">authenticity </text>
<text x="1005.00000624" y="2060.00001125" width="14.999995630000058" height="14.999958870000228" class="text">of </text>
<text x="1024.00003823" y="2060.00001125" width="10.99997686000006" height="14.999958870000228" class="text">an </text>
<text x="1042.9999646800002" y="2060.00001125" width="68.99999396999988" height="14.999958870000228" class="text">individual's
</text>
<text x="743.99997322" y="2076.99993736" width="57.000008019999996" height="16.999926109999706" class="text">signature </text>
<text x="806.0000266899999" y="2076.99993736" width="22.999962810000056" height="16.999926109999706" class="text">and </text>
<text x="832.00001677" y="2076.99993736" width="22.000006490000032" height="16.999926109999706" class="text">not </text>
<text x="857.99998926" y="2076.99993736" width="10.000020540000037" height="16.999926109999706" class="text">to </text>
<text x="875.00002066" y="2076.99993736" width="39.00002029999996" height="16.999926109999706" class="text">certify </text>
<text x="919.9999899600001" y="2076.99993736" width="20.000041079999846" height="16.999926109999706" class="text">the </text>
<text x="944.99997095" y="2076.99993736" width="54.9999898399999" height="16.999926109999706" class="text">accuracy </text>
<text x="1005.00000624" y="2076.99993736" width="11.999985949999996" height="16.999926109999706" class="text">of </text>
<text x="1020.00000187" y="2076.99993736" width="80.99997991999999" height="16.999926109999706" class="text">commercials </text>
<text x="1105.00001815" y="2076.99993736" width="31.000017939999907" height="16.999926109999706" class="text">aired</text>
<text x="1137.00004518" y="2076.99993736" width="4.999939910000194" height="16.999926109999706" class="text">.
</text>
<text x="1208.9999608800001" y="2075.99995374" width="25.000086529999862" height="15.99994248999974" class="text">Net </text>
<text x="1237.9999606400002" y="2075.99995374" width="37.000072479999744" height="15.99994248999974" class="text">Total
</text>
<text x="1439.00001114" y="2079.00004098" width="5.000027860000046" height="17.00006248999989" class="text">$</text>
<text x="1447.99996982" y="2079.00004098" width="50.00006752000013" height="17.00006248999989" class="text">85.00
</text>
<text x="65.999998362" y="2210.99994725" width="60.999998645999995" height="20.999883319999753" class="text">Officially </text>
<text x="135.99999966299998" y="2210.99994725" width="52.00000302700002" height="20.999883319999753" class="text">printed </text>
<text x="194.99999596" y="2210.99994725" width="15.000013219999971" height="20.999883319999753" class="text">on </text>
<text x="219.99999454000002" y="2210.99994725" width="66.00000187999999" height="20.999883319999753" class="text">06/12/20 </text>
<text x="291.99999819" y="2210.99994725" width="44.99998689" height="20.999883319999753" class="text">08:57 </text>
<text x="343.99999594" y="2210.99994725" width="18.000005310000006" height="20.999883319999753" class="text">AM
</text>
<text x="1522.0000092399998" y="2221.99994891" width="37.99995844000023" height="23.000009670000054" class="text">Page</text>
<text x="1557.9999495" y="2219.99995894" width="7.000063630000113" height="20.00001334999979" class="text">: </text>
<text x="1573.99997181" y="2219.99995894" width="7.000046039999916" height="20.00001334999979" class="text">1
</text>
</g>
</svg>
