<svg xmlns="http://www.w3.org/2000/svg">
<style>.text { font-size: 14px; font-family: Arial, sans-serif; }</style>
<g id="page-0" transform="translate(0, 0)">
<rect width="1758" height="2275" fill="none" stroke="black" />
<text x="9.0000003078" y="84.000000175" width="87.9999983802" height="27.000000299999996" class="text">Contract </text>
<text x="107.00000196" y="84.000000175" width="110.99999694" height="27.9999993" class="text">Agreement </text>
<text x="223.00001460000001" y="82.99999662500001" width="85.99997117999996" height="27.999994750000006" class="text">Between</text>
<text x="313.9999839" y="82.000002175" width="7.000004399999966" height="26.000001300000008" class="text">:
</text>
<text x="1195.00002534" y="74.000001075" width="50.999984339999855" height="21.000001750000003" class="text">Print </text>
<text x="1249.00000152" y="74.000001075" width="47.000042099999746" height="21.000001750000003" class="text">Date </text>
<text x="1320.9999639" y="72.999997525" width="88.00008293999986" height="20.999997199999996" class="text">02/13/20
</text>
<text x="1494.00005004" y="77.99999707500001" width="53.999976179999976" height="26.999995750000004" class="text">Page </text>
<text x="1574.9999703600001" y="75.99999907499999" width="7.0000571399998535" height="25.999996749999994" class="text">1 </text>
<text x="1597.99995468" y="75.99999907499999" width="19.000042079999957" height="25.999996749999994" class="text">of </text>
<text x="1634.9999478" y="75.000004625" width="7.000057140000081" height="26.000005850000008" class="text">1
</text>
<text x="1.9999999512000002" y="150.000006975" width="271.99999898880003" height="64.00000879999999" class="text">WKBN
</text>
<text x="713.00002374" y="123.99999657500001" width="255.9999951599999" height="42.99999795000002" class="text">CONTRACT
</text>
<text x="1130.00001462" y="175.99999234999999" width="87.99999503999993" height="21.99998709999997" class="text">Contract </text>
<text x="1224.99996132" y="175.000007" width="6.000089160000016" height="19.99999820000002" class="text">/ </text>
<text x="1235.9999607" y="175.99999234999999" width="85.00000320000004" height="21.99998709999997" class="text">Revision
</text>
<text x="1155.99999078" y="209.0000003" width="87.0000270600001" height="21.000001749999996" class="text">2380819 </text>
<text x="1279.00004298" y="209.0000003" width="4.999927800000023" height="18.99999465000002" class="text">1
</text>
<text x="1387.0000305" y="175.000007" width="25.99997615999996" height="22.000005299999998" class="text">Alt </text>
<text x="1421.00003178" y="175.000007" width="59.999977440000066" height="22.000005299999998" class="text">Order </text>
<text x="1489.0000167599999" y="175.000007" width="5.999983680000014" height="22.000005299999998" class="text">#
</text>
<text x="1387.0000305" y="210.00000384999998" width="100.99991279999995" height="24.000012400000003" class="text">26801250
</text>
<text x="300.99999582" y="186.999995" width="86.00000634000003" height="26.99998665000001" class="text">WKBN
</text>
<text x="306.9999795" y="220.00000294999998" width="58.00002390000003" height="27.000004849999982" class="text">2960 </text>
<text x="373.9999965" y="220.00000294999998" width="72.99998310000001" height="27.000004849999982" class="text">North </text>
<text x="463.99998024" y="220.00000294999998" width="112.00003523999999" height="27.000004849999982" class="text">Meridian </text>
<text x="589.99997154" y="220.00000294999998" width="83.0000144999999" height="27.000004849999982" class="text">Street
</text>
<text x="303.0000021" y="254.99999524999998" width="110.99999693999996" height="25.99999674999998" class="text">Heather </text>
<text x="419.99998272" y="254.99999524999998" width="56.000017619999994" height="25.99999674999998" class="text">Kiel
</text>
<text x="303.99998766" y="295.0000235" width="164.00000513999998" height="33.00001249999997" class="text">Indianapolis</text>
<text x="474.99999719999994" y="293.00000274999996" width="8.999975520000078" height="30.999991749999936" class="text">, </text>
<text x="489.000006" y="293.00000274999996" width="23.999987460000057" height="31.999990749999995" class="text">IN </text>
<text x="535.00002738" y="291.999981" width="79.99996992000001" height="31.999990749999995" class="text">46208
</text>
<text x="21.000000894" y="328.00001325" width="126.999999714" height="38.00000749999998" class="text">FIRST </text>
<text x="157.999996848" y="328.99998949999997" width="145.999990812" height="37.99998474999995" class="text">NEWS </text>
<text x="306.9999795" y="328.99998949999997" width="10.000031400000012" height="35.999986750000005" class="text">(</text>
<text x="315.00000462" y="328.99998949999997" width="46.99998935999997" height="35.999986750000005" class="text">330</text>
<text x="364.00000026" y="328.99998949999997" width="9.99999624000003" height="35.999986750000005" class="text">) </text>
<text x="384.99999588" y="331.00001025" width="118.00000134000004" height="38.00000750000004" class="text">782-1144
</text>
<text x="50.999998404" y="283.999989" width="221.99999739599997" height="135.99998685000003" class="text">27
</text>
<text x="1351.99995576" y="249.00000125" width="85.00000320000004" height="22.9999952" class="text">Original </text>
<text x="1439.9999507999999" y="249.00000125" width="44.00005026000031" height="22.9999952" class="text">Date </text>
<text x="1495.99996842" y="249.00000125" width="5.999983680000014" height="22.9999952" class="text">/ </text>
<text x="1509.0000092399998" y="249.00000125" width="84.0000352200002" height="22.9999952" class="text">Revision
</text>
<text x="1373.0000217000002" y="282.00001375" width="88.99994543999992" height="23.0000225" class="text">02/13/20 </text>
<text x="1500.9999841200001" y="282.00001375" width="6.000001259999863" height="22.000023499999998" class="text">/ </text>
<text x="1528.00003374" y="283.999989" width="91.99995486000012" height="23.99999875000003" class="text">02/13/20
</text>
<text x="847.99999056" y="250.00000025" width="107.00001953999993" height="22.000000749999998" class="text">Advertiser
</text>
<text x="849.00001128" y="288.00000774999995" width="46.999989360000086" height="28.000017499999956" class="text">POL</text>
<text x="896.00000064" y="288.00000774999995" width="8.000007539999956" height="28.000017499999956" class="text">/</text>
<text x="904.00000818" y="288.00000774999995" width="87.99999503999993" height="28.000017499999956" class="text">Michael </text>
<text x="994.99999506" y="288.00000774999995" width="119.99995488000013" height="28.000017499999956" class="text">Bloomberg</text>
<text x="1116.9999738000001" y="288.00000774999995" width="8.000025119999918" height="28.000017499999956" class="text">/</text>
<text x="1124.00003094" y="288.00000774999995" width="110.00001138000016" height="28.000017499999956" class="text">President</text>
<text x="1229.0000090400001" y="288.00000774999995" width="8.000025119999918" height="28.000017499999956" class="text">/</text>
<text x="1235.0000103" y="288.00000774999995" width="30.000041460000148" height="28.000017499999956" class="text">US</text>
<text x="1268.0000436" y="288.00000774999995" width="7.999902060000068" height="28.000017499999956" class="text">/</text>
<text x="1274.00002728" y="288.00000774999995" width="46.99993661999997" height="28.000017499999956" class="text">Dem
</text>
<text x="847.99999056" y="323.00001825000004" width="89.00005091999992" height="24.999997750000034" class="text">Contract </text>
<text x="943.0000427399999" y="323.99999449999996" width="59.999977440000066" height="24.999997749999977" class="text">Dates
</text>
<text x="1133.99997444" y="320.9999975" width="86.00005908000003" height="23.999998749999975" class="text">Estimate </text>
<text x="1231.00005048" y="320.00002125" width="5.999983680000014" height="22.00000074999997" class="text">#
</text>
<text x="846.99998742" y="356.000008" width="86.9999567399999" height="24.000021499999946" class="text">12/30/19 </text>
<text x="944.99996112" y="356.000008" width="7.000057140000081" height="24.000021499999946" class="text">- </text>
<text x="960.00004338" y="356.000008" width="86.9999039999999" height="24.000021499999946" class="text">03/29/20 </text>
<text x="1130.9999826" y="356.000008" width="50.00003393999987" height="22.999999749999972" class="text">0127
</text>
<text x="13.000000210200001" y="458.999996" width="39.0000013338" height="22.99999975000003" class="text">And</text>
<text x="54.999996900000006" y="457.999997" width="6.000001259999991" height="20.999978999999996" class="text">:
</text>
<text x="847.99999056" y="392.99999375" width="82.00001135999992" height="22.000000750000027" class="text">Product
</text>
<text x="846.99998742" y="428.00000425" width="54.99999690000004" height="22.99999975000003" class="text">MIKE </text>
<text x="907.999968" y="428.00000425" width="154.0000616399999" height="22.99999975000003" class="text">BLOOMBERG </text>
<text x="1071.99997314" y="428.00000425" width="46.00007411999991" height="22.99999975000003" class="text">2020
</text>
<text x="1130.00001462" y="462.00001575" width="59.99997743999984" height="23.000022499999943" class="text">Billing </text>
<text x="1198.00001718" y="462.00001575" width="56.999985599999945" height="23.000022499999943" class="text">Cycle </text>
<text x="1277.00001912" y="462.00001575" width="59.999977440000066" height="23.000022499999943" class="text">Billing </text>
<text x="1348.00001352" y="462.00001575" width="93.99996113999987" height="23.000022499999943" class="text">Calendar
</text>
<text x="1130.00001462" y="495.99998175" width="48.00001008000004" height="22.000000750000027" class="text">EOM
</text>
<text x="1279.00004298" y="495.99998175" width="106.99991406000004" height="22.000000750000027" class="text">Broadcast
</text>
<text x="1130.00001462" y="534.000012" width="85.99995360000003" height="23.000022499999943" class="text">Property </text>
<text x="1280.99997894" y="532.000014" width="84.99998561999996" height="22.00000074999997" class="text">Account </text>
<text x="1370.00002986" y="534.000012" width="96.99997056000007" height="23.999998749999975" class="text">Executive
</text>
<text x="1127.0000227799999" y="567.00000175" width="70.00002642000027" height="22.000000750000027" class="text">WKBN </text>
<text x="1280.99997894" y="570.00004425" width="41.00004084000011" height="29.000061999999957" class="text">Katz </text>
<text x="1328.00002104" y="571.0000205" width="124.99997057999985" height="30.00003824999999" class="text">Washington
</text>
<text x="1132.0000560600001" y="603.9999875000001" width="78.99989645999995" height="21.999978000000056" class="text">Special </text>
<text x="1212.00002598" y="603.9999875000001" width="88.99994543999992" height="22.999977000000058" class="text">Handling
</text>
<text x="219.99998760000003" y="520.9999795" width="120.00000761999999" height="30.99996900000002" class="text">Assembly
</text>
<text x="221.99999387999998" y="547.999998" width="42.000008820000005" height="27.00001850000001" class="text">711 </text>
<text x="275.00000208" y="547.999998" width="30.000006299999995" height="27.00001850000001" class="text">3rd </text>
<text x="320.00000274" y="547.999998" width="89.99998373999995" height="27.00001850000001" class="text">Avenue
</text>
<text x="219.99998760000003" y="578.99998975" width="36.00000755999994" height="27.99999475000004" class="text">3rd </text>
<text x="267.99999768" y="578.99998975" width="64.99999314000002" height="27.99999475000004" class="text">Floor
</text>
<text x="221.00000832" y="608.9999825" width="42.999994379999976" height="29.999992749999933" class="text">New </text>
<text x="281.9999889" y="607.9999835" width="54.00002891999998" height="30.999968999999965" class="text">York</text>
<text x="337.99998894" y="607.9999835" width="9.000010680000003" height="29.999992750000047" class="text">, </text>
<text x="351.99999773999997" y="607.9999835" width="37.999996260000046" height="30.999968999999965" class="text">NY </text>
<text x="406.99999464" y="607.00000725" width="66.99998184000003" height="30.99999175000005" class="text">10017
</text>
<text x="1506.99998538" y="460.00001775000004" width="47.99999250000019" height="20.00000275000002" class="text">Cash</text>
<text x="1562.00003502" y="460.99999399999996" width="5.999983680000014" height="20.000002749999965" class="text">/</text>
<text x="1568.9999866800001" y="462.00001575" width="56.00001761999988" height="21.000024499999995" class="text">Trade
</text>
<text x="1506.0000174" y="495.0000055" width="50.000033940000094" height="22.000000750000027" class="text">Cash
</text>
<text x="1509.0000092399998" y="532.99999025" width="54.99996174000012" height="24.999997750000034" class="text">Sales </text>
<text x="1569.99995466" y="532.99999025" width="58.000041479999936" height="24.999997750000034" class="text">Office
</text>
<text x="1508.00004126" y="571.0000205" width="42.99997680000001" height="28.000017500000013" class="text">Katz</text>
<text x="1554.9999778800002" y="571.0000205" width="8.000025119999691" height="28.000017500000013" class="text">/</text>
<text x="1557.0000193199999" y="571.99999675" width="110.99996178000015" height="28.999993750000044" class="text">Washingto
</text>
<text x="1132.0000560600001" y="675.00003025" width="137.99990591999995" height="24.000021500000003" class="text">Demographic
</text>
<text x="1132.0000560600001" y="707.9999745" width="61.99989581999989" height="19.999979999999937" class="text">Adults </text>
<text x="1206.00002472" y="706.99999825" width="34.00000127999988" height="20.000002749999908" class="text">35+
</text>
<text x="1132.0000560600001" y="820.00002175" width="39.99998495999989" height="26.000065000000063" class="text">Agy </text>
<text x="1178.99999268" y="819.00002275" width="56.00001761999988" height="28.000017500000013" class="text">Code
</text>
<text x="1133.99997444" y="851.9999897499999" width="87.0000270600001" height="20.99997899999994" class="text">9915458
</text>
<text x="1132.0000560600001" y="890.0000200000001" width="77.99992847999988" height="24.999997750000034" class="text">Agency </text>
<text x="1217.00004168" y="889.0000210000001" width="38.99991150000005" height="23.0000225" class="text">Ref
</text>
<text x="1282.0000348199999" y="817.000002" width="104.99999568000021" height="24.000021500000003" class="text">Advertiser </text>
<text x="1393.00001418" y="817.000002" width="51.99995231999992" height="24.000021500000003" class="text">Code
</text>
<text x="1280.99997894" y="850.0000144999999" width="59.00000946" height="20.99997899999994" class="text">MBLM
</text>
<text x="1509.9999772200001" y="817.000002" width="79.00000193999995" height="24.000021500000003" class="text">Product </text>
<text x="1597.00000428" y="817.000002" width="28.000000020000016" height="24.000021500000003" class="text">1/2
</text>
<text x="1508.00004126" y="851.0000135" width="60.99994542000013" height="23.000045250000085" class="text">MBLM
</text>
<text x="1395.00003804" y="887.9999765" width="104.99999567999998" height="21.999977999999942" class="text">Advertiser </text>
<text x="1506.0000174" y="887.9999765" width="37.999961100000064" height="21.999977999999942" class="text">Ref
</text>
<text x="924.00000066" y="1016.9999839999999" width="59.99997743999995" height="26.999972999999954" class="text">Days
</text>
<text x="1118.00004726" y="984.0000170000001" width="66.99992910000014" height="29.00001650000013" class="text">Spots</text>
<text x="1187.00000022" y="984.0000170000001" width="8.000025120000146" height="29.00001650000013" class="text">/
</text>
<text x="1026.9999549" y="1019.0000275" width="73.00001826000016" height="32.000036249999994" class="text">Length </text>
<text x="1113.99998196" y="1016.9999839999999" width="70.9999944000001" height="31.999967999999853" class="text">Week
</text>
<text x="1077.99995682" y="1048.0000212500001" width="6.000089160000016" height="21.000047250000307" class="text">:</text>
<text x="1088.0000058" y="1048.0000212500001" width="17.99996861999989" height="21.000047250000307" class="text">30
</text>
<text x="1240.99999398" y="1012.9999652500001" width="53.999993759999825" height="23.99995325000009" class="text">Rate
</text>
<text x="716.9999835599999" y="981.9999735" width="52.00000506000015" height="23.99999875000003" class="text">Start</text>
<text x="768.9999886200001" y="981.9999735" width="7.000004399999966" height="23.99999875000003" class="text">/</text>
<text x="774.9999723" y="981.9999735" width="45.00001824000003" height="23.99999875000003" class="text">End
</text>
<text x="716.9999835599999" y="1010.99999" width="54.00004650000005" height="23.99999875000003" class="text">Time
</text>
<text x="716.00001558" y="1053.000039" width="7.999972380000031" height="28.000040249999984" class="text">M</text>
<text x="733.00001622" y="1053.000039" width="7.999972379999917" height="28.000040249999984" class="text">-</text>
<text x="743.99998044" y="1054.00001525" width="8.00000754000007" height="28.000017499999785" class="text">F </text>
<text x="761.99998422" y="1054.00001525" width="26.000028900000075" height="28.000017499999785" class="text">4p</text>
<text x="788.9999811" y="1054.00001525" width="8.000025119999918" height="28.000017499999785" class="text">-</text>
<text x="795.9999855" y="1055.00001425" width="21.000013200000012" height="29.0000164999999" class="text">5p
</text>
<text x="784.00001814" y="1080.99998825" width="45.00000066000007" height="21.999978000000056" class="text">Rate
</text>
<text x="765.9999967800001" y="1103.0000344999999" width="5.999983680000014" height="21.000047249999852" class="text">$</text>
<text x="777.00001374" y="1105.00000975" width="53.999976179999976" height="23.000022499999886" class="text">40.00
</text>
<text x="1371.9999482399999" y="1016.9999839999999" width="57.000091080000175" height="29.0000164999999" class="text">Type </text>
<text x="1432.00003116" y="1016.9999839999999" width="66.99992910000014" height="29.0000164999999" class="text">Spots
</text>
<text x="1382.9999652" y="1048.0000212500001" width="35.0000571600001" height="21.000047250000307" class="text">NM </text>
<text x="1497.00004188" y="1048.0000212500001" width="5.999983680000014" height="21.000047250000307" class="text">1
</text>
<text x="1571.00001054" y="1012.9999652500001" width="98.00004402000013" height="24.999997750000034" class="text">Amount
</text>
<text x="1604.00004384" y="1049.9999965" width="6.00000126000009" height="23.000022500000114" class="text">$</text>
<text x="1616.00002878" y="1049.9999965" width="56.999985599999945" height="23.999998749999804" class="text">40.00
</text>
<text x="19.999999512000002" y="1019.0000275" width="8.000000508" height="28.000040249999984" class="text">*</text>
<text x="37.000000152" y="1019.0000275" width="44.000002794" height="28.000040249999984" class="text">Line </text>
<text x="109.99999555800001" y="1019.0000275" width="30.000001025999993" height="28.000040249999984" class="text">Ch </text>
<text x="167.000004012" y="1019.0000275" width="50.999994888" height="28.000040249999984" class="text">Start </text>
<text x="226.999992" y="1019.0000275" width="51.00000192000002" height="28.000040249999984" class="text">Date </text>
<text x="289.99999644" y="1019.0000275" width="44.000015099999985" height="28.000040249999984" class="text">End </text>
<text x="342.0000015" y="1019.0000275" width="49.99999878" height="28.000040249999984" class="text">Date </text>
<text x="411.99999276" y="1019.0000275" width="127.99999758000007" height="28.000040249999984" class="text">Description
</text>
<text x="18.000000264" y="1051.99997175" width="5.999999501999998" height="20.99997899999994" class="text">N </text>
<text x="60.99999816" y="1051.99997175" width="5.999999502000001" height="21.999955250000085" class="text">1 </text>
<text x="89.00000169600001" y="1051.99997175" width="70.999999674" height="21.999955250000085" class="text">WKBN </text>
<text x="168.000005394" y="1051.99997175" width="90.999999186" height="22.999954249999973" class="text">02/13/20 </text>
<text x="288.99999329999997" y="1050.9999955" width="90.00000132000002" height="21.999978000000056" class="text">02/14/20 </text>
<text x="412.99997832" y="1051.99997175" width="8.000025119999975" height="24.999997750000148" class="text">M</text>
<text x="430.99999968" y="1053.000039" width="7.9999899599999935" height="24.99999774999992" class="text">-</text>
<text x="440.99999591999995" y="1053.000039" width="8.000025120000089" height="24.99999774999992" class="text">F </text>
<text x="459.00001728" y="1055.00001425" width="23.999987459999943" height="25.999996750000037" class="text">4p</text>
<text x="485.99999657999996" y="1055.00001425" width="8.000025119999975" height="24.999997750000148" class="text">-</text>
<text x="494.00002169999993" y="1055.9999905" width="24.00000504000002" height="25.999974000000066" class="text">5p
</text>
<text x="115.99999506" y="1080.000012" width="48.000003047999996" height="21.000001750000138" class="text">Start </text>
<text x="168.000005394" y="1080.99998825" width="47.000001666" height="21.999978000000056" class="text">Date </text>
<text x="248.99999076" y="1079.000013" width="40.00000253999997" height="20.99997899999994" class="text">End </text>
<text x="298.00000398000003" y="1080.99998825" width="41.999991239999986" height="21.999978000000056" class="text">Date </text>
<text x="376.00000278" y="1080.000012" width="114.00000636000004" height="23.000045249999857" class="text">Weekdays </text>
<text x="552.99997842" y="1079.000013" width="54.00004649999994" height="23.000022500000114" class="text">Spots</text>
<text x="613.9999765800001" y="1079.000013" width="6.000036419999901" height="23.000022500000114" class="text">/</text>
<text x="613.9999765800001" y="1079.000013" width="62.000001299999894" height="23.000022500000114" class="text">Week
</text>
<text x="31.999998515999998" y="1105.00000975" width="62.0000013" height="21.999977999999828" class="text">Week</text>
<text x="98.000001828" y="1105.00000975" width="5.9999995020000085" height="21.999977999999828" class="text">: </text>
<text x="113.000001462" y="1105.00000975" width="87.99999679799998" height="21.999977999999828" class="text">02/10/20 </text>
<text x="248.00000520000003" y="1105.999986" width="86.99999189999994" height="21.999978000000056" class="text">02/16/20 </text>
<text x="378.99999462" y="1105.00000975" width="39.00001698" height="20.000002749999794" class="text">---</text>
<text x="423.00000972000004" y="1105.00000975" width="40.00000253999997" height="21.00000174999991" class="text">TF--
</text>
<text x="614.9999973" y="1101.99996725" width="5.000015699999949" height="18.999935499999992" class="text">1
</text>
<text x="18.999999888" y="1145.0000607499999" width="5.999999501999998" height="21.000047249999852" class="text">N </text>
<text x="60.99999816" y="1145.0000607499999" width="5.999999502000001" height="21.000047249999852" class="text">2 </text>
<text x="89.99999604599999" y="1145.0000607499999" width="70.00000532400001" height="22.00002349999977" class="text">WKBN </text>
<text x="168.999996228" y="1144.00001625" width="88.00001965200005" height="20.99997899999994" class="text">02/13/20 </text>
<text x="288.99999329999997" y="1144.00001625" width="88.00001262000006" height="20.99997899999994" class="text">02/14/20 </text>
<text x="414.9999846" y="1147.99996675" width="30.000023880000015" height="26.999972999999954" class="text">1st </text>
<text x="449.99997144" y="1147.99996675" width="57.000038339999946" height="26.999972999999954" class="text">News </text>
<text x="519.99999786" y="1147.99996675" width="8.000025119999918" height="26.999972999999954" class="text">@ </text>
<text x="542.00003178" y="1147.99996675" width="25.99997615999996" height="26.999972999999954" class="text">5p </text>
<text x="576.9999834600001" y="1147.99996675" width="8.000025119999918" height="26.999972999999954" class="text">M</text>
<text x="593.00001612" y="1147.99996675" width="7.999972380000031" height="26.999972999999954" class="text">-</text>
<text x="603.99998034" y="1147.99996675" width="8.000007539999956" height="26.999972999999954" class="text">F
</text>
<text x="116.9999982" y="1172.00003375" width="45.000007692" height="21.00004725000008" class="text">Start </text>
<text x="169.99999761" y="1172.9999645" width="44.00000631" height="20.999933500000225" class="text">Date </text>
<text x="248.99999076" y="1172.9999645" width="40.00000253999997" height="21.999978000000056" class="text">End </text>
<text x="295.9999977" y="1172.9999645" width="46.0000038" height="21.999978000000056" class="text">Date </text>
<text x="377.00000592000004" y="1172.9999645" width="113.00000322" height="24.99999774999992" class="text">Weekdays </text>
<text x="555.99997026" y="1172.00003375" width="55.000014480000004" height="24.000066999999945" class="text">Spots</text>
<text x="611.9999878799999" y="1172.00003375" width="7.00000440000008" height="24.000066999999945" class="text">/</text>
<text x="613.0000086" y="1172.00003375" width="62.99996927999996" height="24.000066999999945" class="text">Week
</text>
<text x="31.999998515999998" y="1199.00000675" width="62.0000013" height="21.999977999999828" class="text">Week</text>
<text x="99.999999318" y="1199.00000675" width="5.9999995020000085" height="21.999977999999828" class="text">: </text>
<text x="113.000001462" y="1199.00000675" width="86.999993658" height="21.999977999999828" class="text">02/10/20 </text>
<text x="248.00000520000003" y="1200.000074" width="88.00001261999995" height="24.000089749999916" class="text">02/16/20 </text>
<text x="383.00000718" y="1199.00000675" width="37.99999625999999" height="21.00004725000008" class="text">---</text>
<text x="426.99998711999996" y="1197.9999622500002" width="36.00002514000005" height="20.999933499999997" class="text">TF--
</text>
<text x="613.9999765800001" y="1195.00005625" width="6.000036419999901" height="19.999979999999823" class="text">1
</text>
<text x="1079.00003028" y="1142.000041" width="5.999983680000014" height="21.000047249999852" class="text">:</text>
<text x="1085.99998194" y="1142.000041" width="22.000016340000002" height="21.000047249999852" class="text">30
</text>
<text x="1384.00003866" y="1140.0000657500002" width="32.99992782000004" height="20.000071000000162" class="text">NM
</text>
<text x="1497.99999228" y="1140.0000657500002" width="6.00000126000009" height="20.000071000000162" class="text">1
</text>
<text x="1591.999971" y="1140.9999965" width="5.999983680000014" height="21.999977999999828" class="text">$</text>
<text x="1602.00001998" y="1140.9999965" width="71.9999448000001" height="21.999977999999828" class="text">200.00
</text>
<text x="718.00000428" y="1145.0000607499999" width="30.999991860000023" height="24.000066999999717" class="text">1st </text>
<text x="750.99998484" y="1145.0000607499999" width="60.00001259999999" height="24.000066999999717" class="text">News </text>
<text x="822.0000144" y="1145.0000607499999" width="7.000004399999966" height="24.000066999999717" class="text">@ </text>
<text x="846.99998742" y="1145.0000607499999" width="22.000016340000002" height="24.000066999999717" class="text">5p </text>
<text x="881.9999918399999" y="1145.0000607499999" width="7.0000571400001945" height="24.000066999999717" class="text">M</text>
<text x="898.0000245" y="1145.0000607499999" width="6.999951659999965" height="24.000066999999717" class="text">-</text>
<text x="906.0000496200001" y="1145.0000607499999" width="6.999951659999965" height="24.000066999999717" class="text">I
</text>
<text x="782.99999742" y="1172.00003375" width="47.99999249999996" height="23.000022500000114" class="text">Rate
</text>
<text x="754.00002942" y="1197.0000315" width="5.9999836799999" height="21.999955249999857" class="text">$</text>
<text x="765.9999967800001" y="1197.0000315" width="66.99998183999992" height="24.000066999999945" class="text">200.00
</text>
<text x="927.00001008" y="1245.9999825" width="73.99996865999992" height="26.999972999999954" class="text">Totals
</text>
<text x="1497.00004188" y="1239.00001225" width="5.999983680000014" height="20.00000275000002" class="text">2
</text>
<text x="1591.999971" y="1240.9999875" width="5.999983680000014" height="21.999978000000056" class="text">$</text>
<text x="1605.9999798000001" y="1240.9999875" width="67.99998497999991" height="23.99995325000009" class="text">240.00
</text>
<text x="19.999999512000002" y="1320.00006775" width="52.99999941" height="23.000045250000085" class="text">Time </text>
<text x="83.00000043600001" y="1320.00006775" width="72.00000281399998" height="24.000089750000143" class="text">Period
</text>
<text x="305.00000838" y="1320.00006775" width="8.99997552000002" height="28.000040249999984" class="text"># </text>
<text x="325.00000086" y="1322.00002025" width="26.99999687999997" height="29.00006200000007" class="text">of </text>
<text x="354.99998958" y="1323.9999955" width="64.99999314000002" height="31.000037250000105" class="text">Spots
</text>
<text x="466.00002168" y="1317.9999559999999" width="64.99999313999996" height="23.999953249999862" class="text">Gross </text>
<text x="538.00001922" y="1317.9999559999999" width="93.99996113999998" height="23.999953249999862" class="text">Amount
</text>
<text x="926.0000421000001" y="1315.99998075" width="45.999968639999906" height="23.000022500000114" class="text">Net </text>
<text x="972.99997872" y="1315.99998075" width="95.00003459999994" height="23.000022500000114" class="text">Amount
</text>
<text x="15.999999433800001" y="1364.0000009999999" width="99.0000065502" height="23.000022499999886" class="text">01/27/20 </text>
<text x="138.000004368" y="1364.0000009999999" width="114.00001339200003" height="24.99999774999992" class="text">-02/23/20
</text>
<text x="409.99998647999996" y="1362.00002575" width="6.0000188400000525" height="21.999978000000056" class="text">2
</text>
<text x="539.9999903400001" y="1364.0000009999999" width="7.000004399999966" height="26.00006499999995" class="text">$</text>
<text x="553.99999914" y="1364.0000009999999" width="73.00001826000005" height="26.00006499999995" class="text">240.00
</text>
<text x="538.9999872" y="1407.99993425" width="6.999986820000004" height="25.999905750000153" class="text">$</text>
<text x="552.99997842" y="1407.99993425" width="73.00001825999993" height="27.99988099999996" class="text">240.00
</text>
<text x="672.00001806" y="1323.9999955" width="89.00001576" height="33.00001249999991" class="text">Agency </text>
<text x="767.9999679" y="1322.00002025" width="79.00001952000002" height="33.00001250000014" class="text">Comm</text>
<text x="846.0000194400001" y="1319.0000005" width="9.999996239999973" height="29.999992750000047" class="text">.
</text>
<text x="754.99997982" y="1367.00002075" width="8.000025119999918" height="29.000084750000042" class="text">(</text>
<text x="765.9999967800001" y="1367.00002075" width="8.000025119999918" height="29.000084750000042" class="text">$</text>
<text x="781.0000263" y="1367.00002075" width="58.999956720000114" height="29.000084750000042" class="text">36.00</text>
<text x="842.00000688" y="1367.00002075" width="7.999972380000031" height="29.000084750000042" class="text">)
</text>
<text x="756.00000054" y="1409.0000015" width="8.000025120000032" height="28.99994824999999" class="text">(</text>
<text x="767.0000175" y="1409.0000015" width="7.999954799999955" height="28.99994824999999" class="text">$</text>
<text x="781.0000263" y="1410.0000459999999" width="59.99995985999999" height="29.99999274999982" class="text">36.00</text>
<text x="846.0000194400001" y="1410.0000459999999" width="7.999972379999917" height="29.000084749999814" class="text">)
</text>
<text x="975.00000258" y="1362.9999565" width="6.999951659999965" height="25.999928499999896" class="text">$</text>
<text x="989.00001138" y="1362.9999565" width="76.99997808" height="25.999928499999896" class="text">204.00
</text>
<text x="975.99997056" y="1407.00002625" width="8.000007539999956" height="26.999972999999954" class="text">$</text>
<text x="988.0000433999999" y="1407.00002625" width="76.99997808000012" height="26.999972999999954" class="text">204.00
</text>
<text x="18.999999888" y="1407.99993425" width="65.00000368799999" height="23.99993049999989" class="text">Totals
</text>
<text x="412.99997832" y="1405.000051" width="6.000018839999996" height="21.000047249999852" class="text">2
</text>
<text x="22.000000518" y="1562.9999385" width="127.00000323" height="32.99989875000006" class="text">Signature</text>
<text x="155.00000325" y="1562.00000775" width="8.999994858000008" height="31.000037249999878" class="text">:
</text>
<text x="846.0000194400001" y="1552.00001775" width="60.99999816000002" height="24.99999774999992" class="text">Date</text>
<text x="913.0000012800001" y="1552.00001775" width="7.000057139999967" height="24.99999774999992" class="text">:
</text>
<text x="561.00000354" y="2078.9999685" width="8.00000754000007" height="27.999903749999703" class="text">(</text>
<text x="569.99997906" y="2078.9999685" width="8.000025119999918" height="27.999903749999703" class="text">* </text>
<text x="586.00001172" y="2078.9999685" width="41.00000568000007" height="27.999903749999703" class="text">Line </text>
<text x="637.00001364" y="2078.9999685" width="130.00000386" height="27.999903749999703" class="text">Transactions</text>
<text x="768.9999886200001" y="2078.9999685" width="8.000025119999918" height="27.999903749999703" class="text">: </text>
<text x="788.0000131200001" y="2078.9999685" width="7.999972379999917" height="27.999903749999703" class="text">N </text>
<text x="810.99999744" y="2078.9999685" width="8.000025120000032" height="27.999903749999703" class="text">= </text>
<text x="830.99998992" y="2078.9999685" width="39.999984960000006" height="27.999903749999703" class="text">New</text>
<text x="877.9999792799999" y="2078.9999685" width="7.999972380000031" height="27.999903749999703" class="text">, </text>
<text x="892.00004082" y="2078.9999685" width="7.999919639999916" height="27.999903749999703" class="text">E </text>
<text x="910.9999598400001" y="2078.9999685" width="8.000025119999805" height="27.999903749999703" class="text">= </text>
<text x="932.0000257800001" y="2078.9999685" width="64.99999314000002" height="27.999903749999703" class="text">Edited</text>
<text x="997.9999869000001" y="2078.9999685" width="8.000025119999805" height="27.999903749999703" class="text">, </text>
<text x="1011.9999957" y="2078.9999685" width="8.000007539999956" height="27.999903749999703" class="text">D </text>
<text x="1034.99998002" y="2078.9999685" width="8.000025119999918" height="27.999903749999703" class="text">= </text>
<text x="1051.9999806600001" y="2078.9999685" width="75.00004211999976" height="27.999903749999703" class="text">Deleted</text>
<text x="1133.00000646" y="2078.9999685" width="8.000025120000146" height="27.999903749999703" class="text">)
</text>
<text x="24.99999939" y="2101.00006025" width="125.00000574" height="26.00004224999975" class="text">Notwithstanding </text>
<text x="155.00000325" y="2101.00006025" width="14.999994360000017" height="26.00004224999975" class="text">to </text>
<text x="174.000006654" y="2101.00006025" width="47.000001666" height="26.00004224999975" class="text">whom </text>
<text x="224.99998572" y="2101.00006025" width="29.000003160000006" height="26.00004224999975" class="text">bills </text>
<text x="260.99999328" y="2101.00006025" width="23.000001899999972" height="26.00004224999975" class="text">are </text>
<text x="289.99999644" y="2101.00006025" width="69.99999125999994" height="26.00004224999975" class="text">rendered</text>
<text x="359.99998769999996" y="2101.00006025" width="7.000004400000023" height="26.00004224999975" class="text">, </text>
<text x="370.00000152" y="2101.00006025" width="77.99999880000001" height="26.00004224999975" class="text">advertiser</text>
<text x="446.00002920000003" y="2101.00006025" width="6.999986820000004" height="26.00004224999975" class="text">, </text>
<text x="459.00001728" y="2101.00006025" width="54.999996899999985" height="26.00004224999975" class="text">agency </text>
<text x="518.99999472" y="2101.00006025" width="26.00002889999996" height="26.00004224999975" class="text">and </text>
<text x="552.99997842" y="2101.00006025" width="51.00000191999993" height="26.00004224999975" class="text">service</text>
<text x="605.00000106" y="2101.00006025" width="6.99998681999989" height="26.00004224999975" class="text">, </text>
<text x="611.9999878799999" y="2101.00006025" width="48.00001008000004" height="26.00004224999975" class="text">jointly </text>
<text x="667.00000236" y="2101.00006025" width="25.99997615999996" height="26.00004224999975" class="text">and </text>
<text x="701.00000364" y="2101.00006025" width="66.00001385999997" height="26.00004224999975" class="text">severally</text>
<text x="767.9999679" y="2101.00006025" width="7.000004399999966" height="26.00004224999975" class="text">, </text>
<text x="778.99998486" y="2101.00006025" width="36.99999312" height="26.00004224999975" class="text">shall </text>
<text x="818.00000184" y="2101.00006025" width="49.99998119999998" height="26.00004224999975" class="text">remain </text>
<text x="877.9999792799999" y="2101.00006025" width="69.99997368000015" height="26.00004224999975" class="text">obligated </text>
<text x="954.00004212" y="2101.00006025" width="9.999943499999972" height="26.00004224999975" class="text">to </text>
<text x="972.99997872" y="2101.00006025" width="25.999976160000074" height="26.00004224999975" class="text">pay </text>
<text x="1006.0000120199999" y="2101.00006025" width="9.9999435000002" height="26.00004224999975" class="text">to </text>
<text x="1023.99996306" y="2101.00006025" width="48.00001008000004" height="26.00004224999975" class="text">station </text>
<text x="1077.99995682" y="2101.00006025" width="22.000016340000002" height="26.00004224999975" class="text">the </text>
<text x="1107.0000303" y="2101.00006025" width="62.0000188800002" height="26.00004224999975" class="text">amount </text>
<text x="1170.99996756" y="2101.00006025" width="15.00006468000015" height="26.00004224999975" class="text">of </text>
<text x="1192.9999839" y="2101.00006025" width="25.00002575999997" height="26.00004224999975" class="text">any </text>
<text x="1223.00002536" y="2101.00006025" width="29.99993597999992" height="26.00004224999975" class="text">bills </text>
<text x="1257.9999946199998" y="2101.00006025" width="70.00002642000027" height="26.00004224999975" class="text">rendered </text>
<text x="1331.99996328" y="2101.00006025" width="19.000042079999957" height="26.00004224999975" class="text">by </text>
<text x="1356.00002106" y="2101.00006025" width="51.99996989999977" height="26.00004224999975" class="text">station </text>
<text x="1413.00000666" y="2101.00006025" width="42.99997680000001" height="26.00004224999975" class="text">within </text>
<text x="1464.00000858" y="2101.00006025" width="22.000016340000002" height="26.00004224999975" class="text">the </text>
<text x="1492.99997658" y="2101.00006025" width="33.000033299999814" height="26.00004224999975" class="text">time </text>
<text x="1529.9999697" y="2101.00006025" width="67.99998497999991" height="26.00004224999975" class="text">specified </text>
<text x="1605.9999798000001" y="2101.00006025" width="25.99997615999996" height="26.00004224999975" class="text">and </text>
<text x="1639.0000131" y="2101.00006025" width="34.999951680000095" height="26.00004224999975" class="text">until
</text>
<text x="49.000000914" y="2121.000063" width="68.99999866800002" height="19.000071999999818" class="text">payment </text>
<text x="120.99999318" y="2120.0000185" width="11.00001168599998" height="18.00002749999976" class="text">in </text>
<text x="140.999997966" y="2118.99995125" width="21.999997002000015" height="17.999890999999934" class="text">full </text>
<text x="168.000005394" y="2118.99995125" width="9.999990965999984" height="17.999890999999934" class="text">is </text>
<text x="185.00000076" y="2118.99995125" width="65.00001071999998" height="20.00000275000002" class="text">received </text>
<text x="281.00000334" y="2118.00004325" width="46.99998936000003" height="16.999983000000157" class="text">station
</text>
<text x="418.0000116" y="2120.0000185" width="17.000000640000053" height="23.000045249999857" class="text">by </text>
<text x="440.99999591999995" y="2120.0000185" width="79.00000194000006" height="23.000045249999857" class="text">advertiser </text>
<text x="521.99998656" y="2120.0000185" width="13.000040819999981" height="23.000045249999857" class="text">to </text>
<text x="542.00003178" y="2120.0000185" width="53.99997618000009" height="23.000045249999857" class="text">agency </text>
<text x="602.0000092199999" y="2120.0000185" width="16.99998306000009" height="23.000045249999857" class="text">or </text>
<text x="620.99998098" y="2120.0000185" width="12.000020099999915" height="23.000045249999857" class="text">to </text>
<text x="641.0000262000001" y="2120.0000185" width="56.999985599999945" height="23.000045249999857" class="text">service </text>
<text x="702.99997476" y="2120.0000185" width="18.000021360000005" height="23.000045249999857" class="text">or </text>
<text x="723.99998796" y="2120.0000185" width="67.99998498000002" height="23.000045249999857" class="text">payment </text>
<text x="792.9999936600001" y="2120.0000185" width="17.00000063999994" height="23.000045249999857" class="text">by </text>
<text x="815.99997798" y="2120.0000185" width="56.000017619999994" height="23.000045249999857" class="text">agency </text>
<text x="877.0000288800001" y="2120.0000185" width="12.000020100000029" height="23.000045249999857" class="text">to </text>
<text x="896.00000064" y="2120.0000185" width="53.00002577999987" height="23.000045249999857" class="text">service</text>
<text x="952.99998624" y="2120.0000185" width="5.999983680000014" height="23.000045249999857" class="text">, </text>
<text x="963.99998562" y="2120.0000185" width="38.000066580000066" height="23.000045249999857" class="text">shall </text>
<text x="1003.9999705800001" y="2120.0000185" width="24.000057779999906" height="23.000045249999857" class="text">not </text>
<text x="1031.99998818" y="2120.0000185" width="70.99997682000003" height="23.000045249999857" class="text">constitute </text>
<text x="1110.00002214" y="2120.0000185" width="70.99999439999988" height="23.000045249999857" class="text">payment </text>
<text x="1179.99994308" y="2120.0000185" width="12.000090419999879" height="23.000045249999857" class="text">to </text>
<text x="1203.0000328800002" y="2120.0000185" width="48.999978059999876" height="23.000045249999857" class="text">station</text>
<text x="1254.0000348" y="2120.0000185" width="5.999983680000014" height="23.000045249999857" class="text">. </text>
<text x="1268.999994" y="2120.0000185" width="51.999969899999996" height="23.000045249999857" class="text">Station </text>
<text x="1325.0000292" y="2120.0000185" width="28.99996800000008" height="23.000045249999857" class="text">will </text>
<text x="1356.00002106" y="2120.0000185" width="26.999944139999798" height="23.000045249999857" class="text">not </text>
<text x="1385.99995704" y="2120.0000185" width="18.000074099999892" height="23.000045249999857" class="text">be </text>
<text x="1407.9999909599999" y="2120.0000185" width="49.00006596000003" height="23.000045249999857" class="text">bound </text>
<text x="1461.00001674" y="2120.0000185" width="22.000016339999775" height="23.000045249999857" class="text">by </text>
<text x="1486.9999929" y="2120.0000185" width="81.0000258" height="23.000045249999857" class="text">conditions </text>
<text x="1574.9999703600001" y="2120.0000185" width="53.999993759999825" height="23.000045249999857" class="text">printed </text>
<text x="1634.9999478" y="2120.0000185" width="17.000000640000053" height="23.000045249999857" class="text">or
</text>
<text x="26.999998637999997" y="2143.000041" width="71.999999298" height="26.000064999999722" class="text">otherwise </text>
<text x="107.99999806800001" y="2143.000041" width="68.99999515199998" height="26.000064999999722" class="text">contracts</text>
<text x="177.99999635999998" y="2143.000041" width="7.000004400000023" height="26.000064999999722" class="text">, </text>
<text x="186.99998946000002" y="2143.000041" width="63.00002201999996" height="26.000064999999722" class="text">insertion </text>
<text x="259.00000458" y="2143.000041" width="47.99997492" height="26.000064999999722" class="text">orders</text>
<text x="308.00000022" y="2143.000041" width="7.000004400000023" height="26.000064999999722" class="text">, </text>
<text x="318.99998202" y="2143.000041" width="33.000015719999965" height="26.000064999999722" class="text">copy </text>
<text x="359.00000214" y="2143.000041" width="90.00001890000004" height="26.000064999999722" class="text">instructions </text>
<text x="453.999984" y="2143.000041" width="15.000029520000055" height="26.000064999999722" class="text">or </text>
<text x="474.99999719999994" y="2143.000041" width="26.000028900000075" height="26.000064999999722" class="text">any </text>
<text x="504.99998592" y="2143.000041" width="122.00003148000008" height="26.000064999999722" class="text">correspondence </text>
<text x="634.9999897800001" y="2143.000041" width="40.00002011999993" height="26.000064999999722" class="text">when </text>
<text x="682.9999822799999" y="2143.000041" width="33.00003330000004" height="26.000064999999722" class="text">such </text>
<text x="724.9999911" y="2143.000041" width="52.00002264" height="26.000064999999722" class="text">conflict </text>
<text x="781.0000263" y="2143.000041" width="26.999979300000064" height="26.000064999999722" class="text">with </text>
<text x="816.9999987" y="2143.000041" width="25.00000818000001" height="26.000064999999722" class="text">the </text>
<text x="846.0000194400001" y="2143.000041" width="46.99998935999986" height="26.000064999999722" class="text">above </text>
<text x="896.00000064" y="2143.000041" width="47.99999249999996" height="26.000064999999722" class="text">terms </text>
<text x="947.9999529600001" y="2143.000041" width="26.00008163999985" height="26.000064999999722" class="text">and </text>
<text x="981.99995424" y="2143.000041" width="74.00009171999989" height="26.000064999999722" class="text">conditions</text>
<text x="1056.99999636" y="2143.000041" width="6.9999516599998515" height="26.000064999999722" class="text">. </text>
<text x="1071.99997314" y="2143.000041" width="33.000033299999814" height="26.000064999999722" class="text">Two </text>
<text x="1107.0000303" y="2143.000041" width="39.99998496000012" height="26.000064999999722" class="text">week </text>
<text x="1155.99999078" y="2143.000041" width="61.00005090000013" height="26.000064999999722" class="text">advance </text>
<text x="1226.0000172" y="2143.000041" width="90.99998688000005" height="26.000064999999722" class="text">cancellation </text>
<text x="1322.00001978" y="2143.000041" width="45.99998621999998" height="26.000064999999722" class="text">notice </text>
<text x="1376.00001354" y="2143.000041" width="8.999975519999907" height="26.000064999999722" class="text">is </text>
<text x="1392.0000462" y="2143.000041" width="61.99991339999997" height="26.000064999999722" class="text">required </text>
<text x="1463.0000406" y="2143.000041" width="47.99999250000019" height="26.000064999999722" class="text">unless </text>
<text x="1517.9999847600002" y="2143.000041" width="70.99999439999988" height="26.000064999999722" class="text">otherwise </text>
<text x="1597.99995468" y="2143.000041" width="68.00000255999998" height="26.000064999999722" class="text">specified
</text>
<text x="23.999999766" y="2181.9999792500003" width="62.00000130000001" height="23.99995325000009" class="text">Nexstar </text>
<text x="87.999998556" y="2181.9999792500003" width="46.99999990800002" height="23.99995325000009" class="text">Media </text>
<text x="142.00000110599998" y="2181.9999792500003" width="47.99999777400001" height="23.99995325000009" class="text">Group </text>
<text x="196.00000014" y="2181.9999792500003" width="37.00001069999999" height="23.99995325000009" class="text">does </text>
<text x="235.00001712000002" y="2181.9999792500003" width="27.999982439999968" height="23.99995325000009" class="text">not </text>
<text x="269.00000082" y="2181.9999792500003" width="87.00000948000002" height="23.99995325000009" class="text">discriminate </text>
<text x="361.99999398" y="2181.9999792500003" width="13.00000566" height="23.99995325000009" class="text">in </text>
<text x="381.0000009" y="2181.9999792500003" width="25.000008180000066" height="23.99995325000009" class="text">the </text>
<text x="411.99999276" y="2181.9999792500003" width="30.999974279999947" height="23.99995325000009" class="text">sale </text>
<text x="450.99999216000003" y="2181.9999792500003" width="14.000008799999932" height="23.99995325000009" class="text">of </text>
<text x="469.00001352000004" y="2181.9999792500003" width="83.0000144999999" height="23.99995325000009" class="text">advertising </text>
<text x="558.0000117" y="2181.9999792500003" width="29.999988720000033" height="23.99995325000009" class="text">time</text>
<text x="589.99997154" y="2181.9999792500003" width="7.000004399999966" height="23.99995325000009" class="text">, </text>
<text x="598.9999998" y="2181.9999792500003" width="26.999996880000026" height="23.99995325000009" class="text">and </text>
<text x="631.00002996" y="2181.9999792500003" width="29.999988720000033" height="23.99995325000009" class="text">will </text>
<text x="664.00001052" y="2181.9999792500003" width="53.99999375999994" height="23.99995325000009" class="text">accept </text>
<text x="719.00000742" y="2181.9999792500003" width="18.000021360000005" height="23.99995325000009" class="text">no </text>
<text x="741.99999174" y="2181.9999792500003" width="83.99998247999997" height="23.99995325000009" class="text">advertising </text>
<text x="830.99998992" y="2181.9999792500003" width="42.000026400000024" height="23.99995325000009" class="text">which </text>
<text x="881.0000238599999" y="2181.9999792500003" width="12.999935340000093" height="23.99995325000009" class="text">is </text>
<text x="898.99999248" y="2181.9999792500003" width="51.00000191999993" height="23.99995325000009" class="text">placed </text>
<text x="955.9999780799999" y="2181.9999792500003" width="29.000073480000083" height="23.99995325000009" class="text">with </text>
<text x="992.0000032199999" y="2181.9999792500003" width="17.999968620000004" height="23.99995325000009" class="text">an </text>
<text x="1015.9999555200001" y="2181.9999792500003" width="45.000000659999955" height="23.99995325000009" class="text">intent </text>
<text x="1060.99995618" y="2181.9999792500003" width="13.000040820000095" height="23.99995325000009" class="text">to </text>
<text x="1082.0000221199998" y="2181.9999792500003" width="90.9999693000002" height="23.99995325000009" class="text">discriminate </text>
<text x="1179.99994308" y="2181.9999792500003" width="18.000074099999892" height="23.99995325000009" class="text">on </text>
<text x="1201.9999770000002" y="2181.9999792500003" width="24.00004019999983" height="23.99995325000009" class="text">the </text>
<text x="1232.0000184599999" y="2181.9999792500003" width="40.999935360000336" height="23.99995325000009" class="text">basis </text>
<text x="1297.99997958" y="2178.00002875" width="32.000065319999976" height="18.000027500000215" class="text">race </text>
<text x="1336.99999656" y="2178.00002875" width="17.000000640000053" height="18.000027500000215" class="text">or </text>
<text x="1356.99998904" y="2178.00002875" width="61.00003332000006" height="19.000072000000273" class="text">ethnicity</text>
<text x="1421.99998218" y="2176.99998425" width="5.000033280000025" height="18.000027500000215" class="text">. </text>
<text x="1432.00003116" y="2176.99998425" width="28.000017600000092" height="18.000027500000215" class="text">Any </text>
<text x="1466.00003244" y="2176.99998425" width="77.99994605999996" height="20.00000275000002" class="text">advertiser </text>
<text x="1548.9999942" y="2176.0000535" width="58.00005906000001" height="18.00002749999976" class="text">certifies </text>
<text x="1613.00003694" y="2176.0000535" width="31.999959839999974" height="18.00002749999976" class="text">that </text>
<text x="1647.9999886199998" y="2176.0000535" width="11.000016960000039" height="18.00002749999976" class="text">it </text>
<text x="1662.9999654" y="2176.0000535" width="9.00008099999991" height="18.00002749999976" class="text">is
</text>
<text x="37.999999776" y="2201.999982" width="28.000003536" height="24.999997749999693" class="text">not </text>
<text x="69.000002184" y="2201.999982" width="51.00000192000002" height="24.999997749999693" class="text">buying </text>
<text x="126.99999444000001" y="2201.999982" width="97.99999128" height="24.999997749999693" class="text">broadcasting </text>
<text x="231.99999012" y="2201.999982" width="18.000021359999977" height="24.999997749999693" class="text">air </text>
<text x="255.99999515999997" y="2201.999982" width="30.999991860000023" height="24.999997749999693" class="text">time </text>
<text x="294.99999456" y="2201.999982" width="13.99999121999997" height="24.999997749999693" class="text">on </text>
<text x="318.99998202" y="2201.999982" width="57.000020759999984" height="24.999997749999693" class="text">Nexstar </text>
<text x="378.99999462" y="2201.999982" width="45.99998622000004" height="24.999997749999693" class="text">Media </text>
<text x="435.9999978" y="2201.999982" width="46.0000038" height="24.999997749999693" class="text">Group </text>
<text x="487.00001729999997" y="2201.999982" width="59.999977440000066" height="24.999997749999693" class="text">stations </text>
<text x="549.99998658" y="2201.999982" width="21.000013200000012" height="24.999997749999693" class="text">for </text>
<text x="576.9999834600001" y="2201.999982" width="7.000004399999966" height="24.999997749999693" class="text">a </text>
<text x="592.00001298" y="2201.999982" width="107.00000195999996" height="24.999997749999693" class="text">discriminatory </text>
<text x="703.9999954799999" y="2201.999982" width="63.000022020000074" height="24.999997749999693" class="text">purpose</text>
<text x="767.0000175" y="2201.999982" width="7.000004399999966" height="24.999997749999693" class="text">, </text>
<text x="775.99999302" y="2201.999982" width="69.00000569999997" height="24.999997749999693" class="text">including </text>
<text x="849.00001128" y="2201.999982" width="28.000017600000092" height="24.999997749999693" class="text">but </text>
<text x="879.0" y="2201.999982" width="25.00000818000001" height="24.999997749999693" class="text">not </text>
<text x="907.999968" y="2201.999982" width="52.00007538" height="24.999997749999693" class="text">limited </text>
<text x="966.00002706" y="2201.999982" width="8.99997552000002" height="24.999997749999693" class="text">to </text>
<text x="983.9999780999999" y="2201.999982" width="70.9999944000001" height="24.999997749999693" class="text">decisions </text>
<text x="1059.0000378" y="2201.999982" width="25.000008180000123" height="24.999997749999693" class="text">not </text>
<text x="1087.00003782" y="2201.999982" width="14.000008799999932" height="24.999997749999693" class="text">to </text>
<text x="1110.00002214" y="2201.999982" width="39.99998495999989" height="24.999997749999693" class="text">place </text>
<text x="1156.99995876" y="2201.999982" width="83.00006723999991" height="24.999997749999693" class="text">advertising </text>
<text x="1243.99998582" y="2201.999982" width="18.00007410000012" height="24.999997749999693" class="text">on </text>
<text x="1268.999994" y="2201.999982" width="71.99996238000017" height="24.999997749999693" class="text">particular </text>
<text x="1347.00004554" y="2201.999982" width="59.999977440000066" height="24.999997749999693" class="text">stations </text>
<text x="1410.9999828" y="2201.999982" width="19.00002450000011" height="24.999997749999693" class="text">on </text>
<text x="1435.0000229999998" y="2201.999982" width="25.0000257600002" height="24.999997749999693" class="text">the </text>
<text x="1464.00000858" y="2201.999982" width="42.00000881999995" height="24.999997749999693" class="text">basis </text>
<text x="1512.00000108" y="2201.999982" width="14.000008799999932" height="24.999997749999693" class="text">of </text>
<text x="1529.9999697" y="2201.999982" width="35.00005715999987" height="24.999997749999693" class="text">race </text>
<text x="1568.9999866800001" y="2201.999982" width="17.99996861999989" height="24.999997749999693" class="text">or </text>
<text x="1588.99997916" y="2201.999982" width="64.99999313999979" height="24.999997749999693" class="text">ethnicity
</text>
<text x="1503.00002556" y="2238.0000370000002" width="62.99996927999996" height="19.000094750000244" class="text">powered </text>
<text x="1571.00001054" y="2236.9999697499998" width="19.000042080000185" height="16.99996024999973" class="text">by </text>
<text x="1591.999971" y="2236.9999697499998" width="84.00003521999997" height="18.999935499999992" class="text">WideOrbit
</text>
</g>
</svg>
