<svg xmlns="http://www.w3.org/2000/svg">
<style>.text { font-size: 14px; font-family: Arial, sans-serif; }</style>
<g id="page-0" transform="translate(0, 0)">
<rect width="2275" height="1758" fill="none" stroke="black" />
<text x="2030.0000175" y="78.999998424" width="53.00001525000016" height="26.999996879999998" class="text">Page </text>
<text x="2111.000073" y="77.000000934" width="7.9998782499997105" height="24.99999939" class="text">1 </text>
<text x="2128.999964" y="77.000000934" width="24.000066999999945" height="26.000002529999996" class="text">of </text>
<text x="2163.00004375" y="75.999997794" width="8.000014749999991" height="24.999999389999992" class="text">1
</text>
<text x="194.00000165" y="160.00000137" width="146.00002235" height="96.999998688" class="text">IOWA </text>
<text x="336.9999815" y="174.99999573" width="98.00001574999999" height="88.99999466399998" class="text">KCWI
</text>
<text x="1069.99999925" y="104.00000133" width="182.00004549999994" height="42.000001788" class="text">INVOICE
</text>
<text x="869.00001825" y="160.00000137" width="141.99997175" height="96.00000258000001" class="text">DU </text>
<text x="1066.9999795" y="160.00000137" width="182.00002274999974" height="96.00000258000001" class="text">INVOICE </text>
<text x="1277.0000424999998" y="160.00000137" width="175.99989225000013" height="96.00000258000001" class="text">ATE
</text>
<text x="343.99999725000004" y="112.00000008" width="66.00000224999997" height="22.999998383999994" class="text">Remit </text>
<text x="417.00001525" y="112.00000008" width="90.000001" height="22.999998383999994" class="text">Address</text>
<text x="508.99999149999996" y="112.00000008" width="6.000016749999986" height="22.999998383999994" class="text">:
</text>
<text x="342.99999825000003" y="150.00000513" width="83.00000799999998" height="27.000007428000004" class="text">KCWI
</text>
<text x="345.000019" y="182.99999448" width="31.999967999999967" height="24.999997632000003" class="text">PO </text>
<text x="390.0000195" y="182.99999448" width="52.99999250000002" height="24.999997632000003" class="text">Box </text>
<text x="458.999996" y="183.99999762" width="90.00002374999997" height="26.000000771999993" class="text">744201
</text>
<text x="345.99999525" y="221.99999387999998" width="91.00002275000003" height="30.999991859999966" class="text">Atlanta</text>
<text x="442.00001299999997" y="221.00000832" width="7.999992000000077" height="29.000020739999997" class="text">, </text>
<text x="457.999997" y="221.00000832" width="37.00000849999998" height="29.000020739999997" class="text">GA </text>
<text x="515.9999845" y="221.00000832" width="152.00000725000007" height="31.000009440000014" class="text">30374-4201
</text>
<text x="343.99999725000004" y="259.00000458" width="59.000009250000005" height="32.00001258" class="text">Main</text>
<text x="409.9999995" y="259.00000458" width="8.999990999999966" height="32.00001258" class="text">: </text>
<text x="445.00001000000003" y="259.00000458" width="8.999968249999995" height="32.00001258" class="text">(</text>
<text x="451.000004" y="259.00000458" width="45.99999950000006" height="32.00001258" class="text">515</text>
<text x="502.99999749999995" y="259.00000458" width="9.000013750000107" height="32.00001258" class="text">) </text>
<text x="520.00000325" y="259.00000458" width="118.99997199999996" height="32.00001258" class="text">457-9645
</text>
<text x="345.000019" y="294.99999456" width="84.99998324999996" height="34.00000127999999" class="text">Billing</text>
<text x="432.99999925000003" y="293.99999141999996" width="9.000013749999937" height="31.999977419999937" class="text">: </text>
<text x="448.99998325" y="293.99999141999996" width="9.000013749999994" height="31.999977419999937" class="text">(</text>
<text x="460.00001775000004" y="293.00000586" width="44.99997774999997" height="32.99999814" class="text">214</text>
<text x="507.00001625" y="293.00000586" width="8.999968249999995" height="32.000012579999975" class="text">) </text>
<text x="524.99999825" y="293.00000586" width="117.99999575000004" height="35.00000441999998" class="text">765-4173
</text>
<text x="1026.9999739999998" y="183.99999762" width="104.00000975000012" height="23.99999624999998" class="text">Advertiser
</text>
<text x="1024.99999875" y="217.9999989" width="81.99998624999989" height="21.99999876000001" class="text">Product
</text>
<text x="1026.9999739999998" y="252.00001776000002" width="84.0000070000001" height="21.00001320000004" class="text">Estimate </text>
<text x="1123.00003725" y="252.00001776000002" width="82.00003174999983" height="21.00001320000004" class="text">Number
</text>
<text x="1232.99995" y="183.99999762" width="46.000045" height="21.999991727999998" class="text">POL</text>
<text x="1280.00006225" y="183.99999762" width="5.999925750000102" height="21.999991727999998" class="text">/</text>
<text x="1285.999988" y="183.99999762" width="61.9999607499999" height="21.999991727999998" class="text">Bernie </text>
<text x="1360.99998125" y="183.99999762" width="79.99998825000011" height="21.999991727999998" class="text">Sanders</text>
<text x="1445.0000565" y="183.99999762" width="5.999902999999904" height="21.999991727999998" class="text">/</text>
<text x="1450.9999595" y="183.99999762" width="98.00003849999985" height="21.999991727999998" class="text">President</text>
<text x="1550.9999504999998" y="183.99999762" width="6.0000622500001555" height="21.999991727999998" class="text">/</text>
<text x="1552.00001775" y="183.99999762" width="33.00001249999991" height="21.999991727999998" class="text">US</text>
<text x="1587.99993625" y="183.99999762" width="6.000039499999957" height="21.999991727999998" class="text">/</text>
<text x="1593.99997575" y="183.99999762" width="46.00006774999997" height="21.999991727999998" class="text">Dem
</text>
<text x="1232.99995" y="216.99999576" width="82.0001000000002" height="20.999995619999993" class="text">Political</text>
<text x="1334.00000825" y="216.99999576" width="6.000039499999957" height="19.999992479999975" class="text">:</text>
<text x="1342.99995375" y="216.99999576" width="34.00007974999994" height="19.999992479999975" class="text">30s
</text>
<text x="1680.00002625" y="149.000003748" width="78.99994374999983" height="21.000007926000023" class="text">Invoice </text>
<text x="1768.9999827499998" y="149.000003748" width="6.0000395000001845" height="21.000007926000023" class="text">#
</text>
<text x="1680.999957" y="181.99999134" width="69.99999824999986" height="19.999985448000018" class="text">Invoice </text>
<text x="1760.00003725" y="182.99999448" width="45.99990849999995" height="20.999988588000008" class="text">Date
</text>
<text x="1680.00002625" y="216.99999576" width="71.9999734999999" height="20.999995619999993" class="text">Invoice </text>
<text x="1760.99994525" y="216.99999576" width="60.00000824999984" height="20.999995619999993" class="text">Month
</text>
<text x="1680.00002625" y="252.00001776000002" width="73.00004074999993" height="21.99999876000004" class="text">Invoice </text>
<text x="1760.00003725" y="252.00001776000002" width="64.99998049999999" height="21.99999876000004" class="text">Period
</text>
<text x="1890.0000209999998" y="150.00000513" width="106.9999612500003" height="22.000009308000017" class="text">2282165-2
</text>
<text x="1887.00000125" y="185.00000076" width="86.99995850000005" height="22.000005791999996" class="text">01/26/20
</text>
<text x="1888.9999765" y="221.99999387999998" width="79.99998825000011" height="29.000003159999977" class="text">January </text>
<text x="1976.9999794999999" y="219.99998760000003" width="51.0000627500001" height="26.999996880000026" class="text">2020
</text>
<text x="1890.0000209999998" y="253.00000332000002" width="83.99993875000018" height="21.99999876000004" class="text">12/30/19 </text>
<text x="1983.9999725" y="253.00000332000002" width="6.0000395000001845" height="21.99999876000004" class="text">- </text>
<text x="1998.9999575" y="253.00000332000002" width="85.00000599999998" height="21.99999876000004" class="text">01/26/20
</text>
<text x="103.999998375" y="252.00001776000002" width="49.00000332500001" height="34.00001886000001" class="text">THE
</text>
<text x="1235.00006175" y="252.00001776000002" width="47.99988374999998" height="20.000027640000013" class="text">1813
</text>
<text x="1888.00004575" y="320.00000274" width="85.00000599999998" height="21.999998759999983" class="text">2282165
</text>
<text x="1024.99999875" y="325.00000086" width="86.99998125000002" height="26.00001132" class="text">Property
</text>
<text x="1230.0000667499999" y="320.9999883" width="69.99999825000009" height="20.999978039999974" class="text">KCWI
</text>
<text x="1025.9999977500001" y="356.00001030000004" width="84.00000699999987" height="23.00001948000005" class="text">Account </text>
<text x="1115.99999875" y="356.00001030000004" width="99.00006024999993" height="23.00001948000005" class="text">Executive </text>
<text x="1232.0000420000001" y="356.00001030000004" width="68.99993099999983" height="23.00001948000005" class="text">KCWI </text>
<text x="1300.000065" y="356.00001030000004" width="57.999873750000006" height="23.00001948000005" class="text">Local </text>
<text x="1362.00002575" y="356.00001030000004" width="66.9999785" height="23.00001948000005" class="text">House
</text>
<text x="1025.9999977500001" y="390.99999714" width="59.00000924999995" height="22.99998432000001" class="text">Sales </text>
<text x="1090.000002" y="390.99999714" width="59.00000924999995" height="22.99998432000001" class="text">Office </text>
<text x="1232.99995" y="390.99999714" width="40.00000550000004" height="21.999998759999983" class="text">Des </text>
<text x="1274.0000000000002" y="390.99999714" width="73.00001799999973" height="21.999998759999983" class="text">Moines </text>
<text x="1354.000011" y="390.99999714" width="58.00001025000006" height="21.999998759999983" class="text">Local </text>
<text x="1417.999947" y="390.99999714" width="54.00008249999996" height="21.999998759999983" class="text">Sales </text>
<text x="1480.9999750000002" y="390.99999714" width="56.999965749999774" height="21.999998759999983" class="text">Office
</text>
<text x="1026.9999739999998" y="428.9999934" width="57.00003400000014" height="29.000003160000006" class="text">Sales </text>
<text x="1089.00002575" y="430.99999968" width="73.00001799999973" height="29.000003160000006" class="text">Region
</text>
<text x="1230.99997475" y="423.00000972000004" width="58.0000329999998" height="20.000010060000022" class="text">Local
</text>
<text x="1680.999957" y="320.00000274" width="58.00001025000006" height="21.000013200000012" class="text">Order </text>
<text x="1748.00004925" y="320.00000274" width="5.999925750000102" height="19.999992480000003" class="text">#
</text>
<text x="1683.00006875" y="356.00001030000004" width="25.999905749999925" height="21.00001320000007" class="text">Alt </text>
<text x="1715.00003675" y="356.00001030000004" width="58.00001025000006" height="21.99999876000004" class="text">Order </text>
<text x="1780.999948" y="354.99998958" width="6.0000622500001555" height="20.999978039999974" class="text">#
</text>
<text x="1680.999957" y="389.00000844" width="49.99999550000007" height="20.999995619999993" class="text">Deal </text>
<text x="1737.00001475" y="389.00000844" width="6.000039499999957" height="20.999995619999993" class="text">#
</text>
<text x="1683.00006875" y="428.9999934" width="55.99989849999997" height="29.999988719999976" class="text">Order </text>
<text x="1745.9999602500002" y="430.99999968" width="58.00001024999983" height="29.999988719999976" class="text">Flight
</text>
<text x="220.00000294999998" y="424.99998084000003" width="68.00000479999997" height="22.999984320000067" class="text">Billing </text>
<text x="298.99999675" y="426.00000156" width="87.00000400000005" height="24.00000504000002" class="text">Address</text>
<text x="388.99999775" y="426.00000156" width="6.000016750000043" height="23.000001899999972" class="text">:
</text>
<text x="1890.99995175" y="424.99998084000003" width="86.00002774999984" height="22.999984320000067" class="text">12/24/19 </text>
<text x="1985.000017" y="423.99999528" width="5.999925749999875" height="20.999995619999993" class="text">- </text>
<text x="2000.0000247500002" y="424.99998084000003" width="83.99993874999973" height="21.99998118000002" class="text">12/30/19
</text>
<text x="1885.999934" y="493.00000098000004" width="89.00009299999988" height="22.00001634000006" class="text">9917137
</text>
<text x="218.9999994" y="489.000006" width="54.00000059999999" height="24.00000504000002" class="text">Blue </text>
<text x="273.0" y="489.000006" width="66.00000225000002" height="24.00000504000002" class="text">West </text>
<text x="345.000019" y="489.000006" width="67.9999775" height="24.00000504000002" class="text">Media
</text>
<text x="218.9999994" y="517.00000602" width="109.99999009999996" height="22.999984320000067" class="text">Attention</text>
<text x="336.00000524999996" y="517.00000602" width="5.999971250000044" height="22.999984320000067" class="text">: </text>
<text x="348.000016" y="517.00000602" width="119.99999374999999" height="22.999984320000067" class="text">BlueWest </text>
<text x="473.00000474999996" y="517.00000602" width="72.99997250000007" height="22.999984320000067" class="text">Media </text>
<text x="552.00001675" y="517.00000602" width="73.00001800000007" height="22.999984320000067" class="text">Email
</text>
<text x="217.999998125" y="546.99999474" width="56.999999875000015" height="21.9999636" class="text">5130 </text>
<text x="288.00000774999995" y="546.99999474" width="5.999994000000015" height="21.9999636" class="text">E </text>
<text x="311.99998375" y="545.99997402" width="45.0000005" height="21.9999636" class="text">18th </text>
<text x="373.00001375" y="545.99997402" width="40.99998174999996" height="21.9999636" class="text">Ave
</text>
<text x="221.00000649999998" y="582.00001674" width="87.00000400000005" height="28.00001759999998" class="text">Denver</text>
<text x="306.99998875" y="579.9999753" width="7.000015749999989" height="25.99997615999996" class="text">, </text>
<text x="320.00002125" y="579.9999753" width="37.99998475000001" height="26.999996879999912" class="text">CO </text>
<text x="373.99999" y="579.9999753" width="71.99999624999998" height="27.999947280000015" class="text">80220
</text>
<text x="1025.9999977500001" y="497.99998152" width="62.00002899999981" height="27.999964859999977" class="text">Billing </text>
<text x="1095.999996" y="497.00001354" width="94.99999599999978" height="29.000020740000025" class="text">Calendar
</text>
<text x="1025.9999977500001" y="532.99998594" width="60.99998449999998" height="25.000008179999952" class="text">Billing </text>
<text x="1095.999996" y="532.99998594" width="48.000020250000034" height="25.999976160000017" class="text">Type
</text>
<text x="1028.00004125" y="566.99998722" width="76.9999684999998" height="25.999976160000074" class="text">Special </text>
<text x="1105.999986" y="566.99998722" width="91.00004549999994" height="25.999976160000074" class="text">Handling
</text>
<text x="1232.0000420000001" y="493.00000098000004" width="105.99989399999981" height="22.00001634000006" class="text">Broadcast
</text>
<text x="1234.00001725" y="527.00000226" width="48.000020250000034" height="19.999992480000003" class="text">Cash
</text>
<text x="1680.00002625" y="497.99998152" width="78.00003575000005" height="27.999964859999977" class="text">Agency </text>
<text x="1767.0000075" y="494.99998968" width="51.000040000000126" height="28.000017600000035" class="text">Code
</text>
<text x="1682.0000015" y="528.0000229799999" width="103.00003349999997" height="22.000033919999908" class="text">Advertiser </text>
<text x="1792.00000525" y="528.0000229799999" width="53.00001524999993" height="22.000033919999908" class="text">Code
</text>
<text x="1680.00002625" y="562.99997466" width="81.99998624999989" height="21.999963600000115" class="text">Product </text>
<text x="1770.0000272500001" y="562.00002426" width="25.999928499999896" height="19.99999248000006" class="text">1/2
</text>
<text x="1680.00002625" y="637.00001364" width="78.00003575000005" height="29.000020739999968" class="text">Agency </text>
<text x="1763.999965" y="634.0000218" width="41.00007275000007" height="26.999996880000026" class="text">Ref
</text>
<text x="1680.999957" y="667.00000236" width="104.99998600000004" height="22.000016340000002" class="text">Advertiser </text>
<text x="1790.00003" y="667.00000236" width="40.00000550000004" height="22.000016340000002" class="text">Ref
</text>
<text x="819.00002275" y="737.99999676" width="45.000000500000056" height="24.00000504000002" class="text">Day
</text>
<text x="940.0000155" y="736.0000080599999" width="48.99999649999995" height="22.00001633999989" class="text">Date
</text>
<text x="1070.9999982499999" y="740.00002062" width="71.00004275000015" height="28.00001759999998" class="text">Length </text>
<text x="1167.99994675" y="738.9999999" width="29.000084750000042" height="25.999976160000074" class="text">Air </text>
<text x="1207.99995225" y="738.9999999" width="49.00008750000006" height="26.999996880000026" class="text">Time
</text>
<text x="1310.99998575" y="734.9999873400001" width="24.000066999999945" height="21.999963600000115" class="text">Ad</text>
<text x="1339.00000325" y="734.9999873400001" width="6.000062249999928" height="21.999963600000115" class="text">-</text>
<text x="1345.0000655" y="734.9999873400001" width="16.999960250000186" height="21.999963600000115" class="text">ID
</text>
<text x="1582.0000105" y="736.0000080599999" width="48.99995100000001" height="21.0000131999999" class="text">Rate
</text>
<text x="1730.9999525" y="737.00002878" width="157.00009324999996" height="24.00000504000002" class="text">Reconciliation
</text>
<text x="2126.9999887500003" y="736.0000080599999" width="39.99998274999962" height="21.0000131999999" class="text">Ref </text>
<text x="2171.99998925" y="736.0000080599999" width="6.0000395000001845" height="21.0000131999999" class="text">#
</text>
<text x="56.999999875" y="734.9999873400001" width="45.00000050000001" height="21.999963600000115" class="text">Line
</text>
<text x="56.999999875" y="767.0000175" width="5.999998550000001" height="19.99999248000006" class="text">1
</text>
<text x="131.000003225" y="737.00002878" width="93.99999927500002" height="26.00002889999996" class="text">Channel </text>
<text x="241.00000925" y="738.9999999" width="124.00001250000003" height="26.999996880000026" class="text">Description
</text>
<text x="123.99999657500001" y="767.9999679" width="66.99999442499998" height="20.99994288000005" class="text">KCWI </text>
<text x="236.9999905" y="771.9999804600001" width="46.99999850000003" height="26.999996880000026" class="text">Last </text>
<text x="290.00000575" y="771.9999804600001" width="43.000002499999994" height="25.999976160000074" class="text">Man </text>
<text x="345.000019" y="773.00000118" width="95.99997224999998" height="26.999996880000026" class="text">Standing
</text>
<text x="590.00002425" y="736.0000080599999" width="49.999995499999955" height="21.0000131999999" class="text">Time
</text>
<text x="588.99997975" y="770.0000093399999" width="8.000014749999991" height="26.00002889999996" class="text">M</text>
<text x="607.9999835" y="771.00003006" width="8.000037500000076" height="26.000046479999924" class="text">-</text>
<text x="615.0000220000001" y="771.00003006" width="7.9999692499999355" height="26.000046479999924" class="text">F </text>
<text x="632.99998125" y="774.0000219" width="52.000039000000015" height="28.00001759999998" class="text">530p</text>
<text x="687.9999945000001" y="774.0000219" width="8.000014749999991" height="26.000046479999924" class="text">-</text>
<text x="697.0000082500001" y="775.99999302" width="24.99999774999992" height="28.00001759999998" class="text">6p
</text>
<text x="1170.0000585" y="798.00000936" width="5.999925750000102" height="19.99999248000006" class="text">1</text>
<text x="1179.000004" y="799.99999806" width="81.99998625000012" height="21.999981180000077" class="text">------
</text>
<text x="820.999998" y="799.99999806" width="86.99998125000002" height="21.999981180000077" class="text">12/30/19 </text>
<text x="915.00001775" y="799.99999806" width="15.99998400000004" height="21.999981180000077" class="text">to </text>
<text x="940.0000155" y="799.99999806" width="86.99995849999982" height="21.999981180000077" class="text">01/05/20
</text>
<text x="826.00001575" y="826.9999949400001" width="4.999995000000013" height="18.99998934000007" class="text">M
</text>
<text x="944.0000342500001" y="829.9999867800001" width="84.9999832499999" height="22.999984320000067" class="text">12/30/19
</text>
<text x="1101.99996725" y="798.00000936" width="18.000027499999987" height="19.000024499999995" class="text">1x
</text>
<text x="1071.9999745" y="829.0000188" width="6.000062249999928" height="21.000013200000012" class="text">:</text>
<text x="1079.000013" y="829.0000188" width="21.999977999999828" height="21.000013200000012" class="text">00
</text>
<text x="1643.999994" y="826.9999949400001" width="6.000039499999957" height="19.99999248000006" class="text">$</text>
<text x="1655.99995925" y="826.9999949400001" width="66.0000477499998" height="19.99999248000006" class="text">100.00 </text>
<text x="1743.00005425" y="826.9999949400001" width="82.9998942499999" height="19.99999248000006" class="text">Credited
</text>
<text x="2178.9999595" y="826.9999949400001" width="6.0000395000001845" height="18.00002136000012" class="text">2
</text>
<text x="120.9999973" y="826.9999949400001" width="69.99999369999999" height="21.000013200000012" class="text">KCWI
</text>
<text x="120.9999973" y="860.00002824" width="70.99999724999999" height="21.000013200000012" class="text">KCWI
</text>
<text x="59.000002425000005" y="857.9999868" width="4.999999549999998" height="17.000000640000053" class="text">2
</text>
<text x="237.9999895" y="867.00003264" width="113.99999975" height="28.00001759999998" class="text">Goldbergs
</text>
<text x="590.00002425" y="863.9999880600001" width="8.999945499999967" height="28.999985580000043" class="text">M</text>
<text x="607.00000725" y="864.9999912" width="9.000013750000107" height="28.999967999999967" class="text">-</text>
<text x="616.0000210000001" y="864.9999912" width="9.000013749999994" height="28.999967999999967" class="text">F </text>
<text x="633.99998025" y="867.00003264" width="49.999995499999955" height="31.000009439999985" class="text">530p</text>
<text x="687.9999945000001" y="867.00003264" width="9.000013749999994" height="29.00003831999993" class="text">-</text>
<text x="696.0000092500001" y="869.00000376" width="20.99997899999994" height="29.999988720000033" class="text">6p
</text>
<text x="822.99997325" y="892.00004082" width="84.00000699999998" height="22.00001633999989" class="text">12/30/19 </text>
<text x="914.00001875" y="892.00004082" width="15.99998400000004" height="22.00001633999989" class="text">to </text>
<text x="940.99999175" y="892.00004082" width="87.00004950000005" height="22.00001633999989" class="text">01/05/20
</text>
<text x="825.00001675" y="918.0000169799999" width="5.999994000000015" height="19.999992479999946" class="text">M
</text>
<text x="944.0000342500001" y="920.0000584200001" width="82.99993974999973" height="22.000033920000078" class="text">12/30/19
</text>
<text x="1101.99996725" y="892.00004082" width="18.000027499999987" height="20.000045219999947" class="text">1x
</text>
<text x="1070.9999982499999" y="920.0000584200001" width="5.9999712500002715" height="21.000065940000127" class="text">:</text>
<text x="1080.99998825" y="920.0000584200001" width="18.000027500000215" height="21.000065940000127" class="text">30
</text>
<text x="1170.0000585" y="890.00001696" width="5.000017750000097" height="19.00004208000007" class="text">1</text>
<text x="1180.9999792499998" y="890.00001696" width="79.00008025000011" height="21.000013200000012" class="text">------
</text>
<text x="1189.00001675" y="918.9999849599999" width="43.99993324999991" height="20.999960459999897" class="text">5:42 </text>
<text x="1239.00001225" y="918.9999849599999" width="31.000037250000105" height="20.999960459999897" class="text">PM
</text>
<text x="120.9999973" y="918.9999849599999" width="69.99999369999999" height="20.999960459999897" class="text">KCWI
</text>
<text x="1315.99998075" y="918.9999849599999" width="93.00002074999998" height="19.000024499999995" class="text">BSIA107H
</text>
<text x="1643.00006325" y="918.9999849599999" width="5.999925750000102" height="20.999960459999897" class="text">$</text>
<text x="1655.99995925" y="920.0000584200001" width="66.0000477499998" height="22.000033920000078" class="text">125.00
</text>
<text x="2180.000004" y="918.0000169799999" width="4.999995000000126" height="18.000056520000044" class="text">2
</text>
<text x="534.000012" y="971.00004276" width="59.99996275000001" height="27.000049620000027" class="text">Aired </text>
<text x="603.9999875000001" y="972.00001074" width="63.00000524999996" height="27.000049620000027" class="text">Spots
</text>
<text x="825.00001675" y="969.0000188999999" width="5.999994000000015" height="21.000065939999786" class="text">1
</text>
<text x="985.99999225" y="1043.99995554" width="69.00002200000006" height="22.999984320000067" class="text">Gross </text>
<text x="1066.9999795" y="1043.99995554" width="56.000057749999996" height="22.999984320000067" class="text">Total
</text>
<text x="1252.00004475" y="1046.9999473799999" width="6.999970249999933" height="25.99997615999996" class="text">$</text>
<text x="1265.99998525" y="1048.99998882" width="73.00001799999995" height="28.000017600000092" class="text">125.00
</text>
<text x="880.00000725" y="1090.99999764" width="85.00000599999998" height="28.00000001999979" class="text">Agency </text>
<text x="976.9999785" y="1090.0000296599999" width="139.99999649999995" height="29.000073479999855" class="text">Commission
</text>
<text x="1265.99998525" y="1091.99996562" width="8.000014750000219" height="24.99992027999997" class="text">$</text>
<text x="1278.999995" y="1091.99996562" width="61.9999835000001" height="26.999944140000025" class="text">18.75
</text>
<text x="915.00001775" y="1133.00000646" width="45.99997675000009" height="25.000008179999895" class="text">Net </text>
<text x="962.99996975" y="1133.00000646" width="102.00003450000008" height="25.000008179999895" class="text">Amount </text>
<text x="1069.99999925" y="1133.00000646" width="45.99999950000006" height="25.000008179999895" class="text">Due
</text>
<text x="1250.9999775" y="1135.0000479" width="8.000037499999735" height="27.000049620000027" class="text">$</text>
<text x="1265.99998525" y="1135.0000479" width="76.00003774999982" height="27.000049620000027" class="text">106.25
</text>
<text x="1388.99999875" y="1132.0000560600001" width="110.0000037499999" height="27.000049620000254" class="text">Payment </text>
<text x="1505.99997275" y="1132.0000560600001" width="74.99999324999999" height="27.000049620000254" class="text">Terms </text>
<text x="1588.99998075" y="1132.0000560600001" width="24.99999774999992" height="27.000049620000254" class="text">30 </text>
<text x="1625.0000357499998" y="1132.0000560600001" width="58.99994100000026" height="27.000049620000254" class="text">Days
</text>
<text x="707.9999745" y="1630.99998798" width="30.000015500000018" height="22.999984320000067" class="text">We </text>
<text x="738.99996625" y="1630.99998798" width="63.00002799999993" height="22.999984320000067" class="text">warrant </text>
<text x="804.00003775" y="1630.99998798" width="27.999949249999986" height="22.999984320000067" class="text">that </text>
<text x="840.0000245" y="1630.99998798" width="21.99995524999997" height="22.999984320000067" class="text">the </text>
<text x="867.99997375" y="1630.99998798" width="49.00001925000004" height="22.999984320000067" class="text">actual </text>
<text x="917.99996925" y="1630.99998798" width="78.00003574999994" height="22.999984320000067" class="text">broadcast </text>
<text x="1001.0" y="1630.99998798" width="84.0000070000001" height="22.999984320000067" class="text">information </text>
<text x="1090.99997825" y="1630.99998798" width="46.9999757500002" height="22.999984320000067" class="text">shown </text>
<text x="1145.9999915" y="1630.99998798" width="16.99996024999996" height="22.999984320000067" class="text">on </text>
<text x="1170.99998925" y="1630.99998798" width="26.00004224999998" height="22.999984320000067" class="text">this </text>
<text x="1202.9999572499999" y="1630.99998798" width="52.000107250000156" height="22.999984320000067" class="text">invoice </text>
<text x="1259.0000149999998" y="1630.99998798" width="33.00001250000014" height="22.999984320000067" class="text">was </text>
<text x="1295.9999779999998" y="1630.99998798" width="41.999958000000106" height="22.999984320000067" class="text">taken </text>
<text x="1345.9999735" y="1630.99998798" width="31.99996800000008" height="22.999984320000067" class="text">from </text>
<text x="1382.0000284999999" y="1630.99998798" width="24.999997750000148" height="22.999984320000067" class="text">the </text>
<text x="1413.9999965" y="1630.99998798" width="48.99995100000001" height="22.999984320000067" class="text">official </text>
<text x="1468.999987" y="1630.99998798" width="60.000008250000064" height="22.999984320000067" class="text">program </text>
<text x="1535.9999655" y="1630.99998798" width="23.000022500000114" height="22.999984320000067" class="text">log</text>
<text x="1560.9999632499998" y="1630.99998798" width="6.0000622500001555" height="22.999984320000067" class="text">.
</text>
<text x="2043.0000499999999" y="1682.99995788" width="64.99998049999999" height="20.99996046000001" class="text">powered </text>
<text x="2115.00000075" y="1681.9999899" width="16.999983000000157" height="19.00002449999988" class="text">by </text>
<text x="2136.00007075" y="1682.99995788" width="79.99998825000011" height="20.99996046000001" class="text">WideOrbit
</text>
</g>
</svg>
