<svg xmlns="http://www.w3.org/2000/svg">
<style>.text { font-size: 14px; font-family: Arial, sans-serif; }</style>
<g id="page-0" transform="translate(0, 0)">
<rect width="2275" height="1758" fill="none" stroke="black" />
<text x="2031.99999275" y="83.00000043600001" width="54.99999049999974" height="29.000001402000002" class="text">Page </text>
<text x="2113.0000255" y="81.000002946" width="8.000037499999962" height="26.00000604599999" class="text">1 </text>
<text x="2133.00002825" y="80.000001564" width="20.00000275000002" height="27.000002154" class="text">of </text>
<text x="2164.99999625" y="78.999998424" width="8.000037499999962" height="25.999999013999997" class="text">2
</text>
<text x="1068.000024" y="112.00000008" width="184.00002074999998" height="39.99999726600001" class="text">INVOICE
</text>
<text x="861.0000034999999" y="168.000005394" width="253.00002000000006" height="90.00000307799999" class="text">DUEN
</text>
<text x="95.000002825" y="298.00000398000003" width="145.000007425" height="241.00000255800003" class="text">aw
</text>
<text x="346.99999425" y="116.9999982" width="65.00002599999999" height="21.000000893999996" class="text">Remit </text>
<text x="420.00001225" y="116.9999982" width="90.000001" height="21.999997002" class="text">Address</text>
<text x="512.9999875" y="115.99999506" width="6.000039500000071" height="20.99999386200001" class="text">:
</text>
<text x="341.9999765" y="158.99999998799998" width="95.00004150000001" height="28.999999643999985" class="text">wwww
</text>
<text x="106.999999925" y="203.99999010000002" width="52.000004875" height="39.99999199200002" class="text">THE
</text>
<text x="346.99999425" y="191.99998758" width="34.00001150000003" height="26.999988090000016" class="text">PO </text>
<text x="393.99999275" y="191.99998758" width="54.00001424999999" height="26.999988090000016" class="text">Box </text>
<text x="457.00002075" y="191.99998758" width="95.99997225000004" height="26.999988090000016" class="text">419779
</text>
<text x="348.000016" y="231.99999012" width="95.99997224999998" height="32.99999814" class="text">Boston</text>
<text x="448.000007" y="231.00000455999998" width="9.000013749999994" height="31.000009439999985" class="text">, </text>
<text x="460.00001775000004" y="231.00000455999998" width="45.99997674999997" height="32.000012579999975" class="text">MA </text>
<text x="522.00000125" y="231.00000455999998" width="150.99998549999998" height="33.000015719999965" class="text">02241-9779
</text>
<text x="346.99999425" y="265.9999914" width="59.000009250000005" height="30.999974279999975" class="text">Main</text>
<text x="417.00001525" y="265.9999914" width="8.999991000000023" height="30.999974279999975" class="text">: </text>
<text x="448.000007" y="265.9999914" width="9.000013749999994" height="30.999974279999975" class="text">(</text>
<text x="457.999997" y="265.9999914" width="44.000024250000024" height="30.999974279999975" class="text">540</text>
<text x="505.9999945" y="265.9999914" width="9.000013749999937" height="30.999974279999975" class="text">) </text>
<text x="523.00000025" y="265.9999914" width="118.00001850000001" height="30.999974279999975" class="text">344-2127
</text>
<text x="350.000014" y="301.99998138" width="83.99998425000001" height="31.999977419999993" class="text">Billing</text>
<text x="435.99999625" y="300.99999582" width="9.00001375000005" height="30.999991859999966" class="text">: </text>
<text x="455.0" y="300.99999582" width="8.999991000000023" height="30.999991859999966" class="text">(</text>
<text x="465.00001275" y="300.99999582" width="43.99997874999997" height="30.999991859999966" class="text">214</text>
<text x="514.00000925" y="300.99999582" width="8.999991000000023" height="30.999991859999966" class="text">) </text>
<text x="529.99999325" y="300.99999582" width="118.99997199999996" height="32.99999814" class="text">765-4103
</text>
<text x="50.000002325" y="339.00000966" width="120.00000512500003" height="48.00001007999998" class="text">WWCW </text>
<text x="191.99999455" y="339.00000966" width="14.000013300000006" height="48.00001007999998" class="text">| </text>
<text x="216.999994575" y="339.00000966" width="121.00000867500003" height="48.00001007999998" class="text">VIRGINIA
</text>
<text x="1030.99999275" y="188.99999574" width="104.00000974999989" height="20.999990346000004" class="text">Advertiser
</text>
<text x="1682.0000015" y="155.00000325" width="80.00001099999986" height="21.000006168" class="text">Invoice </text>
<text x="1772.0000025" y="155.00000325" width="6.000062249999928" height="21.000006168" class="text">#
</text>
<text x="1685.9999520000001" y="188.99999574" width="66.0000477499998" height="19.999999512000016" class="text">Invoice </text>
<text x="1760.99994525" y="188.99999574" width="47.0001122499998" height="20.999990346000004" class="text">Date
</text>
<text x="1683.99997675" y="224.00000016" width="68.00002299999983" height="20.999995619999993" class="text">Invoice </text>
<text x="1760.99994525" y="224.00000016" width="63.00002799999993" height="20.999995619999993" class="text">Month
</text>
<text x="1683.99997675" y="260.99999328" width="71.00006549999989" height="24.99999059999999" class="text">Invoice </text>
<text x="1763.999965" y="260.00000772" width="64.00009524999996" height="24.000005039999962" class="text">Period
</text>
<text x="1232.99995" y="193.99999386" width="49.00008750000006" height="26.999989847999984" class="text">POL</text>
<text x="1280.9999702500002" y="193.99999386" width="8.000037499999735" height="26.999989847999984" class="text">/</text>
<text x="1287.0000325" y="193.99999386" width="83.99993874999973" height="26.999989847999984" class="text">Michael </text>
<text x="1375.99996625" y="193.99999386" width="104.00007800000003" height="26.999989847999984" class="text">Bloomberg</text>
<text x="1485.9999699999998" y="193.99999386" width="8.000014750000219" height="26.999989847999984" class="text">/</text>
<text x="1492.0000095" y="193.99999386" width="100.00001374999988" height="26.999989847999984" class="text">President</text>
<text x="1592.00002325" y="193.99999386" width="8.000014749999991" height="26.999989847999984" class="text">/</text>
<text x="1597.00001825" y="193.99999386" width="29.999992750000047" height="26.999989847999984" class="text">US</text>
<text x="1628.99998625" y="193.99999386" width="8.000014749999991" height="26.999989847999984" class="text">/</text>
<text x="1637.0000009999999" y="193.99999386" width="8.00003750000019" height="26.999989847999984" class="text">D
</text>
<text x="1232.99995" y="224.99998572" width="56.000057749999996" height="20.999995619999993" class="text">MIKE </text>
<text x="1297.0000225" y="224.99998572" width="145.99992225000005" height="22.99998432000001" class="text">BLOOMBERG </text>
<text x="1457.0000217499999" y="224.00000016" width="48.00002025000026" height="20.999995619999993" class="text">2020
</text>
<text x="1234.00001725" y="260.00000772" width="48.000020250000034" height="21.000013200000012" class="text">0126
</text>
<text x="1890.99995175" y="156.00000639" width="108.0000057499999" height="23.000012448000007" class="text">2373133-1
</text>
<text x="1888.9999765" y="188.99999574" width="88.00000299999988" height="20.999990346000004" class="text">02/23/20
</text>
<text x="1890.99995175" y="228.99999828" width="91.00004549999994" height="29.000003160000006" class="text">February </text>
<text x="1990.0000120000002" y="226.999992" width="49.99999549999984" height="26.999996879999998" class="text">2020
</text>
<text x="1888.00004575" y="260.00000772" width="199.99998199999982" height="23.000019479999963" class="text">01/27/2002/23/20
</text>
<text x="1029.0000175" y="224.99998572" width="80.99998725" height="20.999995619999993" class="text">Product
</text>
<text x="1028.00004125" y="260.00000772" width="87.99995749999994" height="23.000019479999963" class="text">Estimate </text>
<text x="1124.99998975" y="259.00000458" width="84.00002975000007" height="22.000016339999974" class="text">Number
</text>
<text x="1890.99995175" y="327.9999927" width="89.99997824999991" height="22.99998432000001" class="text">2373133
</text>
<text x="1893.9999715" y="364.00000026" width="98.0000157500001" height="21.999998759999983" class="text">26797186
</text>
<text x="1029.0000175" y="334.00001154" width="85.9999822499999" height="28.000017600000035" class="text">Property
</text>
<text x="1230.0000667499999" y="329.00001342" width="80.99991900000009" height="21.000013200000012" class="text">WWCW
</text>
<text x="1029.0000175" y="366.00000654" width="85.9999822499999" height="24.99999059999999" class="text">Account </text>
<text x="1119.0000185000001" y="368.00001282" width="98.99994649999985" height="26.99999687999997" class="text">Executive </text>
<text x="1237.000037" y="366.9999921" width="43.99993325000014" height="24.99999059999999" class="text">Katz </text>
<text x="1285.00005725" y="368.99999838" width="125.9999194999998" height="26.999996880000026" class="text">Washington
</text>
<text x="1030.99999275" y="399.00000468" width="55.99998950000008" height="23.00000190000003" class="text">Sales </text>
<text x="1095.999996" y="398.00000154" width="56.99996575" height="21.99999876000004" class="text">Office </text>
<text x="1235.00006175" y="404.0000028" width="45.999908500000174" height="28.000000020000016" class="text">Katz</text>
<text x="1285.00005725" y="402.99999966" width="6.999970249999933" height="25.99999373999998" class="text">/</text>
<text x="1285.999988" y="404.0000028" width="124.99998874999983" height="28.000000020000016" class="text">Washington
</text>
<text x="1031.999969" y="438.00000408" width="57.00005675000011" height="28.000017600000035" class="text">Sales </text>
<text x="1095.999996" y="438.99998963999997" width="69.00006750000011" height="27.99998243999994" class="text">Region </text>
<text x="1232.99995" y="433.00000596" width="89.00007025000014" height="21.000013200000012" class="text">National
</text>
<text x="1683.99997675" y="327.9999927" width="61.000052749999895" height="19.999992480000003" class="text">Order </text>
<text x="1750.9999552499999" y="327.00000714000004" width="6.0000395000001845" height="20.00002764000004" class="text">#
</text>
<text x="1683.99997675" y="363.0000147" width="28.000040249999984" height="21.999998759999983" class="text">Alt </text>
<text x="1718.99998725" y="363.0000147" width="59.00007749999986" height="21.999998759999983" class="text">Order </text>
<text x="1785.999943" y="363.0000147" width="6.000062249999928" height="21.999998759999983" class="text">#
</text>
<text x="1683.00006875" y="396.9999984" width="50.999903499999846" height="20.999995619999993" class="text">Deal </text>
<text x="1740.0000344999999" y="396.9999984" width="5.99992575000033" height="20.999995619999993" class="text">#
</text>
<text x="1685.000044" y="435.00001224000005" width="63.000005250000186" height="28.000017600000035" class="text">Order </text>
<text x="1751.99999975" y="436.99998336" width="56.99996575" height="27.999982439999997" class="text">Flight
</text>
<text x="226.00000605" y="436.99998336" width="67.99999569999997" height="24.99999059999999" class="text">Billing </text>
<text x="305.00001349999997" y="435.9999978" width="86.99998125000008" height="24.99999059999999" class="text">Address</text>
<text x="395.0000145" y="435.00001224000005" width="5.999971249999987" height="23.00001948000005" class="text">:
</text>
<text x="1893.0000407500002" y="431.99998524" width="85.00000599999998" height="21.99999876000004" class="text">12/30/19 </text>
<text x="1990.99994275" y="431.99998524" width="6.0000395000001845" height="21.99999876000004" class="text">- </text>
<text x="2000.99993275" y="431.99998524" width="87.00009499999987" height="21.99999876000004" class="text">03/29/20
</text>
<text x="1237.000037" y="502.99999722" width="106.99996125000007" height="22.000016340000002" class="text">Broadcast
</text>
<text x="226.00000605" y="504.99998592" width="119.00001295000001" height="28.999985579999986" class="text">Assembly
</text>
<text x="227.9999995" y="534.0000066599999" width="108.00000574999996" height="29.000020739999968" class="text">Attention</text>
<text x="341.00000024999997" y="534.0000066599999" width="7.999992000000077" height="29.000020739999968" class="text">: </text>
<text x="355.00000900000003" y="534.0000066599999" width="118.99997199999996" height="29.000020739999968" class="text">Assembly </text>
<text x="482.0000185" y="534.0000066599999" width="72.99997250000001" height="29.000020739999968" class="text">Email
</text>
<text x="227.9999995" y="559.0000148400001" width="42.00000349999999" height="25.000008180000123" class="text">711 </text>
<text x="278.999994" y="559.0000148400001" width="35.00001049999997" height="25.000008180000123" class="text">3rd </text>
<text x="323.99999449999996" y="559.0000148400001" width="91.00002275000003" height="25.000008180000123" class="text">Avenue
</text>
<text x="229.9999975" y="589.00000356" width="34.00001149999997" height="22.000016340000002" class="text">3rd </text>
<text x="275.999997" y="589.99997154" width="65.9999795" height="22.999984320000067" class="text">Floor
</text>
<text x="226.00000605" y="627.99998538" width="43.999996949999996" height="31.000009439999985" class="text">New </text>
<text x="290.00000575" y="627.99998538" width="52.99999250000002" height="31.000009439999985" class="text">York</text>
<text x="345.000019" y="627.99998538" width="8.999968249999995" height="31.000009439999985" class="text">, </text>
<text x="361.000003" y="627.99998538" width="32.99998975" height="31.000009439999985" class="text">NY </text>
<text x="412.00002025" y="627.99998538" width="65.9999795" height="31.000009439999985" class="text">10017
</text>
<text x="1030.0000165" y="507.99997776000004" width="60.99996175000001" height="26.999996880000026" class="text">Billing </text>
<text x="1099.00001575" y="507.00000977999997" width="96.99997124999982" height="28.00000001999996" class="text">Calendar
</text>
<text x="1031.999969" y="542.00003178" width="57.00005675000011" height="26.000046479999924" class="text">Billing </text>
<text x="1104.00001075" y="542.00003178" width="46.000045" height="26.000046479999924" class="text">Type
</text>
<text x="1033.00003625" y="579.00000732" width="77.99994474999994" height="28.000000020000016" class="text">Special </text>
<text x="1113.0000244999999" y="579.00000732" width="92.00004450000006" height="28.000000020000016" class="text">Handling
</text>
<text x="1239.00001225" y="538.9999872" width="46.999975749999976" height="20.99996046000001" class="text">Cash
</text>
<text x="1683.99997675" y="507.00000977999997" width="76.99996850000002" height="28.00000001999996" class="text">Agency </text>
<text x="1768.9999827499998" y="504.99998592" width="54.999990500000195" height="26.999996880000026" class="text">Code
</text>
<text x="1685.9999520000001" y="536.9999985000001" width="104.99998599999981" height="22.000016340000116" class="text">Advertiser </text>
<text x="1798.00004475" y="536.9999985000001" width="50.999926250000044" height="22.000016340000116" class="text">Code
</text>
<text x="1685.000044" y="570.99999978" width="81.99996350000015" height="19.99999248000006" class="text">Product </text>
<text x="1775.00002225" y="570.99999978" width="25.999928499999896" height="19.99999248000006" class="text">1/2
</text>
<text x="1891.99999625" y="504.00001794" width="88.00002574999985" height="23.00003706000001" class="text">9915458
</text>
<text x="1891.99999625" y="536.9999985000001" width="58.999941000000035" height="21.000013200000012" class="text">MBLM
</text>
<text x="1891.99999625" y="572.0000205" width="58.999941000000035" height="22.000033919999964" class="text">MBLM
</text>
<text x="1685.000044" y="647.00000988" width="76.99996850000002" height="29.99998871999992" class="text">Agency </text>
<text x="1768.0000519999999" y="644.00001804" width="40.99991350000005" height="28.00001759999998" class="text">Ref
</text>
<text x="1688.99997175" y="675.99997788" width="105.00000875" height="21.999963599999887" class="text">Advertiser </text>
<text x="1795.99995575" y="675.0000099" width="41.000049999999874" height="20.999995619999936" class="text">Ref
</text>
<text x="827.9999682499999" y="753.0000087" width="41.0000500000001" height="26.00002889999996" class="text">Day
</text>
<text x="949.00002925" y="747.99997542" width="46.999975749999976" height="20.99999562000005" class="text">Date
</text>
<text x="1078.00003675" y="753.0000087" width="70.99997450000001" height="29.000020739999968" class="text">Length </text>
<text x="1175.9999842500001" y="750.99998484" width="24.99999774999992" height="26.999996880000026" class="text">Air </text>
<text x="1214.0000145" y="750.99998484" width="51.000040000000126" height="28.999985580000043" class="text">Time
</text>
<text x="1315.99998075" y="747.00002502" width="26.00004224999975" height="21.000013200000012" class="text">Ad</text>
<text x="1345.9999735" y="747.00002502" width="6.000062249999928" height="21.000013200000012" class="text">-</text>
<text x="1352.0000357499998" y="747.00002502" width="15.999915750000127" height="21.000013200000012" class="text">ID
</text>
<text x="1588.99998075" y="747.00002502" width="46.99997574999975" height="22.000033919999964" class="text">Rate
</text>
<text x="1737.00001475" y="747.00002502" width="156.9999567499999" height="23.000037059999954" class="text">Reconciliation
</text>
<text x="2131.99998375" y="746.0000043" width="41.0000500000001" height="22.999984320000067" class="text">Ref </text>
<text x="2176.99998425" y="744.99998358" width="6.999970249999933" height="20.99999562000005" class="text">#
</text>
<text x="65.00000097499999" y="748.99999614" width="46.999998500000004" height="22.000016340000002" class="text">Line
</text>
<text x="70.000000525" y="781.0000263" width="5.000004099999998" height="19.000042079999957" class="text">1
</text>
<text x="143.00000260000002" y="754.00002942" width="87.99999389999996" height="31.0000094400001" class="text">Channel </text>
<text x="249.00000125" y="756.00000054" width="126.0000105" height="32.000012579999975" class="text">Description
</text>
<text x="128.9999984" y="784.00001814" width="77.99999707499998" height="22.999984319999953" class="text">WWCW </text>
<text x="248.00000225" y="784.00001814" width="40.00000549999996" height="22.000033919999964" class="text">2:00 </text>
<text x="295.99999975000003" y="784.00001814" width="30.999991749999992" height="22.000033919999964" class="text">PM</text>
<text x="335.00000624999996" y="782.99999742" width="5.999994000000015" height="21.9999636" class="text">-</text>
<text x="343.99999725000004" y="782.99999742" width="6.000016749999986" height="21.9999636" class="text">2</text>
<text x="355.00000900000003" y="782.99999742" width="5.999993999999958" height="21.9999636" class="text">:</text>
<text x="365.00002175000003" y="782.99999742" width="19.999979999999994" height="21.9999636" class="text">30 </text>
<text x="391.99999475000004" y="782.99999742" width="31.999990749999938" height="21.9999636" class="text">PM
</text>
<text x="597.9999935" y="748.99999614" width="49.999995499999955" height="20.99999562000005" class="text">Time
</text>
<text x="597.9999935" y="781.0000263" width="42.00002625000002" height="19.999992479999946" class="text">2:00 </text>
<text x="647.9999889999999" y="781.0000263" width="29.00001650000013" height="21.000013200000012" class="text">PM</text>
<text x="682.99997675" y="780.00000558" width="5.999994000000015" height="19.99999248000006" class="text">-</text>
<text x="695.000033" y="780.00000558" width="5.9999712499999305" height="19.99999248000006" class="text">2</text>
<text x="705.0000229999999" y="780.00000558" width="5.999994000000129" height="19.99999248000006" class="text">:</text>
<text x="711.0000170000001" y="780.00000558" width="21.999955249999857" height="19.99999248000006" class="text">30 </text>
<text x="741.9999859999999" y="780.00000558" width="29.00001650000013" height="19.99999248000006" class="text">PM
</text>
<text x="827.9999682499999" y="812.99998614" width="87.00004950000005" height="21.9999636" class="text">02/03/20 </text>
<text x="925.00000775" y="812.99998614" width="11.99998800000003" height="21.9999636" class="text">to </text>
<text x="949.00002925" y="812.99998614" width="86.99995849999993" height="21.9999636" class="text">02/09/20
</text>
<text x="830.00001175" y="840.9999861599999" width="25.999996750000037" height="19.999992479999946" class="text">Su
</text>
<text x="947.999962" y="840.9999861599999" width="88.00002574999996" height="20.999995619999936" class="text">02/09/20
</text>
<text x="1109.0000057500001" y="810.99999744" width="17.999959249999847" height="19.000024499999995" class="text">1x
</text>
<text x="1079.000013" y="840.9999861599999" width="5.999994000000015" height="19.999992479999946" class="text">:</text>
<text x="1085.000007" y="840.9999861599999" width="21.999977999999828" height="19.999992479999946" class="text">30
</text>
<text x="1172.9999645" y="812.0000181600001" width="79.00008024999988" height="22.000016340000116" class="text">------</text>
<text x="1259.0000149999998" y="810.99999744" width="4.999995000000126" height="19.000024499999995" class="text">S
</text>
<text x="1197.9999622500002" y="839.00001504" width="39.00007474999984" height="19.999992479999946" class="text">2:26 </text>
<text x="1245.9999825" y="839.9999830200001" width="29.000084750000042" height="19.99999248000006" class="text">PM
</text>
<text x="1320.99997575" y="839.00001504" width="131.0000510000002" height="19.999992479999946" class="text">MRBPSS316EH
</text>
<text x="1663.000066" y="839.9999830200001" width="5.999925749999875" height="21.999981180000077" class="text">$</text>
<text x="1675.00003125" y="839.9999830200001" width="53.99994599999991" height="24.00000504000002" class="text">10.00
</text>
<text x="128.9999984" y="842.00000688" width="78.99999835" height="21.000013200000012" class="text">WWCW
</text>
<text x="133.99999795" y="873.9999843" width="73.99999880000001" height="20.99996046000001" class="text">WWCW
</text>
<text x="70.99999952499999" y="873.00001632" width="4.999999549999998" height="19.000024499999995" class="text">2
</text>
<text x="250.00000025" y="874.9999874399999" width="40.000005500000015" height="20.999995619999936" class="text">2:30 </text>
<text x="296.99999875000003" y="874.9999874399999" width="31.000014499999963" height="20.999995619999936" class="text">PM</text>
<text x="335.00000624999996" y="874.9999874399999" width="5.999994000000015" height="20.999995619999936" class="text">-</text>
<text x="342.99999825000003" y="874.9999874399999" width="5.999994000000015" height="20.999995619999936" class="text">3</text>
<text x="353.000011" y="874.9999874399999" width="5.999971250000044" height="20.999995619999936" class="text">:</text>
<text x="361.000003" y="874.9999874399999" width="23.99999875000003" height="20.999995619999936" class="text">00 </text>
<text x="391.99999475000004" y="874.9999874399999" width="28.999993749999987" height="20.999995619999936" class="text">PM
</text>
<text x="600.000037" y="873.9999843" width="39.99998274999996" height="20.99996046000001" class="text">2:30 </text>
<text x="647.00001275" y="873.9999843" width="30.99996900000008" height="20.99996046000001" class="text">PM</text>
<text x="685.00002025" y="873.9999843" width="5.9999939999999015" height="20.99996046000001" class="text">-</text>
<text x="695.000033" y="873.9999843" width="5.9999712499999305" height="20.99996046000001" class="text">3</text>
<text x="706.000022" y="873.9999843" width="5.999971250000044" height="20.99996046000001" class="text">:</text>
<text x="711.0000170000001" y="873.9999843" width="23.999998749999918" height="20.99996046000001" class="text">00 </text>
<text x="741.9999859999999" y="873.9999843" width="29.00001650000013" height="20.99996046000001" class="text">PM
</text>
<text x="827.9999682499999" y="904.99997616" width="89.00002475000008" height="20.999960459999897" class="text">02/03/20 </text>
<text x="925.00000775" y="904.99997616" width="15.000007750000009" height="20.999960459999897" class="text">to </text>
<text x="950.0000055" y="904.99997616" width="89.00002474999997" height="20.999960459999897" class="text">02/09/20
</text>
<text x="831.00001075" y="932.99999376" width="26.999972999999954" height="19.00004208000007" class="text">Su
</text>
<text x="949.00002925" y="932.99999376" width="86.99995849999993" height="22.000033919999964" class="text">02/09/20
</text>
<text x="1109.0000057500001" y="904.00000818" width="20.000002749999794" height="19.000024499999995" class="text">1x
</text>
<text x="1079.000013" y="932.0000257800001" width="5.999994000000015" height="19.999992480000174" class="text">:</text>
<text x="1086.9999822500001" y="932.0000257800001" width="22.000023499999998" height="19.999992480000174" class="text">30
</text>
<text x="1174.0000089999999" y="902.9999523" width="78.99994375000006" height="18.999936599999955" class="text">------</text>
<text x="1260.0000595" y="902.9999523" width="4.999995000000126" height="18.999936599999955" class="text">S
</text>
<text x="1197.9999622500002" y="932.0000257800001" width="42.00009449999993" height="19.999992480000174" class="text">2:54 </text>
<text x="1245.9999825" y="932.0000257800001" width="29.000084750000042" height="19.999992480000174" class="text">PM
</text>
<text x="1322.00002025" y="932.0000257800001" width="130.99991449999993" height="19.999992480000174" class="text">MRBPSS316EH
</text>
<text x="1661.99999875" y="932.99999376" width="6.999992999999904" height="23.999952300000018" class="text">$</text>
<text x="1675.00003125" y="932.99999376" width="53.00003800000013" height="23.999952300000018" class="text">10.00
</text>
<text x="131.99999995000002" y="933.9999441599999" width="79.99999507499996" height="20.99994287999982" class="text">WWCW
</text>
<text x="131.000003225" y="967.99994544" width="77.99999707500001" height="21.99991086" class="text">WWCW </text>
<text x="248.00000225" y="967.99994544" width="43.00000250000002" height="21.99991086" class="text">7:00 </text>
<text x="300.0000185" y="967.99994544" width="27.999994749999985" height="21.99991086" class="text">PM</text>
<text x="336.00000524999996" y="967.99994544" width="5.999971250000044" height="21.99991086" class="text">-</text>
<text x="346.99999425" y="967.99994544" width="6.000016749999986" height="21.99991086" class="text">7</text>
<text x="358.000006" y="967.99994544" width="5.999994000000015" height="21.99991086" class="text">:</text>
<text x="365.00002175000003" y="967.99994544" width="19.999979999999994" height="21.99991086" class="text">30 </text>
<text x="393.99999275" y="967.99994544" width="31.000014499999963" height="21.99991086" class="text">PM
</text>
<text x="72.999997525" y="966.00002706" width="4.9999995500000125" height="18.000074099999892" class="text">3
</text>
<text x="600.000037" y="966.00002706" width="39.99998274999996" height="21.000065940000013" class="text">7:00 </text>
<text x="646.00001375" y="966.00002706" width="35.00001049999992" height="21.000065940000013" class="text">PM</text>
<text x="686.9999955000001" y="966.00002706" width="5.9999939999999015" height="21.000065940000013" class="text">-</text>
<text x="695.000033" y="966.00002706" width="5.9999712499999305" height="21.000065940000013" class="text">7</text>
<text x="706.000022" y="966.00002706" width="5.999971250000044" height="21.000065940000013" class="text">:</text>
<text x="713.9999685" y="966.00002706" width="20.000002749999908" height="21.000065940000013" class="text">30 </text>
<text x="743.99996125" y="966.00002706" width="29.00001650000013" height="21.000065940000013" class="text">PM
</text>
<text x="830.00001175" y="998.99995488" width="87.99995750000005" height="21.999928440000076" class="text">02/03/20 </text>
<text x="924.0000315" y="998.99995488" width="16.999960250000072" height="21.999928440000076" class="text">to </text>
<text x="951.9999807500001" y="997.9999869000001" width="85.00000599999976" height="22.000016340000116" class="text">02/09/20
</text>
<text x="831.00001075" y="1026.9999549" width="25.999974000000066" height="19.999992479999946" class="text">Su
</text>
<text x="951.0000045" y="1026.9999549" width="87.00002675000007" height="21.99991086" class="text">02/09/20
</text>
<text x="1110.00000475" y="997.0000189200001" width="18.000027499999987" height="19.00002450000011" class="text">1x
</text>
<text x="1080.000012" y="1026.0000045000002" width="5.999971250000044" height="20.99996046000024" class="text">:</text>
<text x="1088.00002675" y="1026.0000045000002" width="22.999954249999973" height="20.99996046000024" class="text">30
</text>
<text x="1172.9999645" y="997.0000189200001" width="81.00003274999995" height="21.000048360000164" class="text">------</text>
<text x="1260.99999025" y="995.99996304" width="4.999994999999899" height="18.99993660000007" class="text">S
</text>
<text x="1200.000074" y="1025.0000365199999" width="38.999938250000014" height="22.00001633999989" class="text">7:22 </text>
<text x="1245.0000517500002" y="1025.0000365199999" width="31.999990749999597" height="22.00001633999989" class="text">PM
</text>
<text x="1323.9999955" y="1023.99996306" width="130.00000649999993" height="18.999919020000107" class="text">MRBPSS316EH
</text>
<text x="1663.999974" y="1025.0000365199999" width="6.000062249999928" height="22.00001633999989" class="text">$</text>
<text x="1673.99998675" y="1025.0000365199999" width="54.99999049999974" height="22.00001633999989" class="text">30.00
</text>
<text x="133.99999795" y="1028.00002836" width="77.99999707499998" height="22.000016340000116" class="text">WWCW
</text>
<text x="133.000001225" y="1060.99995618" width="77.00000262499998" height="21.99991086" class="text">WWCW </text>
<text x="249.00000125" y="1060.99995618" width="42.00000350000002" height="21.99991086" class="text">7:30 </text>
<text x="300.99999475" y="1060.99995618" width="27.00001850000001" height="21.99991086" class="text">PM</text>
<text x="336.9999815" y="1060.99995618" width="6.000016750000043" height="21.99991086" class="text">-</text>
<text x="345.99999525" y="1060.99995618" width="5.999994000000015" height="21.99991086" class="text">8</text>
<text x="356.99998425" y="1060.99995618" width="6.000016749999986" height="21.99991086" class="text">:</text>
<text x="361.99997924999997" y="1060.99995618" width="24.999997750000034" height="21.99991086" class="text">00 </text>
<text x="395.0000145" y="1060.99995618" width="27.999994749999985" height="21.99991086" class="text">PM
</text>
<text x="70.000000525" y="1059.0000378" width="5.000004099999998" height="18.000074099999892" class="text">4
</text>
<text x="597.9999935" y="1059.9999882000002" width="42.00002625000002" height="22.00001634000023" class="text">7:30 </text>
<text x="648.99996525" y="1059.9999882000002" width="32.000058999999965" height="22.00001634000023" class="text">PM </text>
<text x="691.9999905" y="1059.9999882000002" width="45.99999950000006" height="22.00001634000023" class="text">8:00 </text>
<text x="747.00000375" y="1059.9999882000002" width="26.999972999999954" height="22.00001634000023" class="text">PM
</text>
<text x="829.0000355" y="1093.99998948" width="90.000001" height="30.99999185999991" class="text">02/03/20 </text>
<text x="924.0000315" y="1093.99998948" width="18.999935499999992" height="30.99999185999991" class="text">to </text>
<text x="950.0000055" y="1093.99998948" width="89.00002474999997" height="30.99999185999991" class="text">02/09/20
</text>
<text x="832.999986" y="1119.99996564" width="26.00004224999998" height="20.999942880000162" class="text">Su
</text>
<text x="951.0000045" y="1119.99996564" width="89.00000199999988" height="22.99998431999984" class="text">02/09/20
</text>
<text x="1113.0000244999999" y="1090.0000296599999" width="17.999959250000074" height="21.000048359999937" class="text">1x
</text>
<text x="1081.99998725" y="1119.0000152399998" width="6.000039499999957" height="21.000065939999786" class="text">:</text>
<text x="1090.99997825" y="1119.0000152399998" width="19.000026500000104" height="21.000065939999786" class="text">30
</text>
<text x="1177.0000287500002" y="1090.0000296599999" width="78.99994374999983" height="21.000048359999937" class="text">------</text>
<text x="1262.99994275" y="1088.9999737800001" width="5.000017750000097" height="18.999936600000183" class="text">S
</text>
<text x="1200.000074" y="1118.00004726" width="39.99998275000007" height="21.000065939999786" class="text">7:54 </text>
<text x="1249.0000022499999" y="1118.00004726" width="31.000060000000076" height="21.000065939999786" class="text">PM
</text>
<text x="1325.00006275" y="1116.9999738000001" width="128.9999392499999" height="19.00002450000011" class="text">MRBPSS316EH
</text>
<text x="1665.00004125" y="1116.0000234" width="5.999902999999904" height="22.00003391999985" class="text">$</text>
<text x="1675.00003125" y="1116.0000234" width="54.99999049999997" height="22.00003391999985" class="text">30.00
</text>
<text x="133.99999795" y="1119.0000152399998" width="77.00000945" height="19.999992479999946" class="text">WWCW
</text>
<text x="135.0000015" y="1155.99999078" width="73.99999880000001" height="27.00003203999995" class="text">WWCW </text>
<text x="249.00000125" y="1156.99995876" width="37.00000850000001" height="25.99997615999996" class="text">Sat </text>
<text x="291.999981" y="1156.99995876" width="24.000021500000003" height="25.99997615999996" class="text">7p</text>
<text x="316.99997875" y="1156.99995876" width="7.000015749999932" height="25.99997615999996" class="text">-</text>
<text x="325.9999925" y="1159.0000002" width="49.99999550000001" height="26.999944139999798" class="text">730p
</text>
<text x="72.000003075" y="1152.00004854" width="4.9999995500000125" height="19.000042080000185" class="text">5
</text>
<text x="596.9999945" y="1155.99999078" width="38.00003025000012" height="28.00000001999979" class="text">Sat </text>
<text x="640.00001975" y="1155.99999078" width="24.999997750000034" height="27.00003203999995" class="text">7p</text>
<text x="667.99999175" y="1155.99999078" width="8.000014749999991" height="25.99997615999996" class="text">-</text>
<text x="676.0000065" y="1156.99995876" width="49.00001924999992" height="28.000000020000016" class="text">730p
</text>
<text x="832.999986" y="1183.0000404" width="87.00002674999996" height="22.000016340000002" class="text">02/03/20 </text>
<text x="926.999983" y="1183.0000404" width="17.00005125000007" height="22.000016340000002" class="text">to </text>
<text x="951.9999807500001" y="1183.0000404" width="87.00004949999993" height="22.000016340000002" class="text">02/09/20
</text>
<text x="835.00000675" y="1212.99997638" width="25.999996749999923" height="20.999942879999935" class="text">Sa
</text>
<text x="955.0000004999999" y="1212.00002598" width="86.99998125000002" height="21.000065939999786" class="text">02/08/20
</text>
<text x="1111.99998" y="1181.99998452" width="18.000027499999987" height="19.999992479999946" class="text">1x
</text>
<text x="1089.00002575" y="1212.99997638" width="20.99997899999994" height="23.99993471999983" class="text">30
</text>
<text x="1175.9999842500001" y="1181.00001654" width="66.0000477499998" height="19.00002449999988" class="text">-----</text>
<text x="1249.0000022499999" y="1181.00001654" width="4.999995000000126" height="19.00002449999988" class="text">S-
</text>
<text x="1202.9999572499999" y="1210.99995252" width="36.0000550000002" height="20.99996046000024" class="text">7:30 </text>
<text x="1249.0000022499999" y="1209.99998454" width="31.000060000000076" height="20.999942879999935" class="text">PM
</text>
<text x="1325.00006275" y="1209.99998454" width="131.99995899999976" height="20.999942879999935" class="text">MRBPSS316EH
</text>
<text x="1665.00004125" y="1209.00003414" width="5.999902999999904" height="22.000033920000078" class="text">$</text>
<text x="1678.00007375" y="1209.00003414" width="53.999923250000165" height="22.000033920000078" class="text">30.00
</text>
<text x="135.0000015" y="1212.99997638" width="78.99999835" height="20.999942879999935" class="text">WWCW
</text>
<text x="133.99999795" y="1246.99997766" width="79.00000062500001" height="20.99996046000001" class="text">WWCW
</text>
<text x="72.000003075" y="1244.9999538" width="4.9999995500000125" height="17.999968620000118" class="text">6
</text>
<text x="248.00000225" y="1249.9999695" width="40.00000549999996" height="26.999944139999798" class="text">Sat </text>
<text x="291.999981" y="1251.00004296" width="49.00001924999998" height="27.000049620000027" class="text">730p</text>
<text x="345.99999525" y="1249.9999695" width="7.99999200000002" height="25.000008179999895" class="text">-</text>
<text x="358.99998225" y="1252.00001094" width="24.000021499999946" height="25.999993740000036" class="text">8p
</text>
<text x="598.99996975" y="1248.00005112" width="37.00005400000009" height="27.000049620000027" class="text">Sat </text>
<text x="642.999994" y="1249.00000152" width="48.99999649999995" height="27.00003203999995" class="text">730p</text>
<text x="697.0000082500001" y="1249.00000152" width="8.000014749999877" height="25.000008180000123" class="text">-</text>
<text x="710.0000180000001" y="1251.00004296" width="23.999953249999862" height="27.000049620000027" class="text">8p
</text>
<text x="831.999987" y="1275.99994566" width="87.00004949999993" height="21.99991086" class="text">02/03/20 </text>
<text x="929.0000265" y="1275.99994566" width="11.99996525000006" height="21.99991086" class="text">to </text>
<text x="952.99997975" y="1275.99994566" width="87.00002674999996" height="21.99991086" class="text">02/09/20
</text>
<text x="834.0000305" y="1303.99996326" width="25.999996749999923" height="19.999992479999946" class="text">Sa
</text>
<text x="951.9999807500001" y="1305.00003672" width="88.00002574999985" height="21.000065940000013" class="text">02/08/20
</text>
<text x="1114.99999975" y="1274.9999952599999" width="18.000027500000215" height="20.999960459999784" class="text">1x
</text>
<text x="1083.00003175" y="1303.99996326" width="5.999994000000015" height="21.999928440000076" class="text">:</text>
<text x="1091.99997725" y="1303.99996326" width="20.00000275000002" height="21.999928440000076" class="text">30
</text>
<text x="1175.9999842500001" y="1275.99994566" width="68.00002299999983" height="21.99991086" class="text">-----</text>
<text x="1249.0000022499999" y="1275.99994566" width="6.0000622500001555" height="21.99991086" class="text">S-
</text>
<text x="1202.0000265" y="1302.99999528" width="43.000025250000135" height="22.000016340000002" class="text">7:52 </text>
<text x="1250.0000695" y="1303.99996326" width="30.99990075000005" height="21.999928440000076" class="text">PM
</text>
<text x="1325.00006275" y="1302.99999528" width="129.99998374999996" height="20.99996046000001" class="text">MRBPSS316EH
</text>
<text x="1667.0000165000001" y="1300.9999714199998" width="6.000039499999957" height="20.999960459999784" class="text">$</text>
<text x="1678.00007375" y="1300.9999714199998" width="53.999923250000165" height="20.999960459999784" class="text">30.00
</text>
<text x="133.99999795" y="1305.99998712" width="79.00000062500001" height="20.999942879999935" class="text">WWCW
</text>
<text x="135.0000015" y="1339.00002042" width="78.99999835" height="21.000048360000164" class="text">WWCW
</text>
<text x="75.000004625" y="1337.99996454" width="4.999999549999998" height="18.999936599999955" class="text">7
</text>
<text x="250.99999925" y="1339.00002042" width="28.999993750000016" height="22.000016340000002" class="text">All </text>
<text x="283.999989" y="1339.00002042" width="101.00001275" height="22.000016340000002" class="text">American
</text>
<text x="602.9999885000001" y="1336.99999656" width="24.99999774999992" height="20.99996046000001" class="text">All </text>
<text x="632.000005" y="1336.99999656" width="104.00000975" height="20.99996046000001" class="text">American
</text>
<text x="835.00000675" y="1368.000006" width="85.00000599999998" height="20.99996046000001" class="text">02/10/20 </text>
<text x="930.00000275" y="1367.00003802" width="15.000007749999895" height="21.000065940000013" class="text">to </text>
<text x="954.00002425" y="1367.00003802" width="89.000002" height="22.000016339999775" class="text">02/16/20
</text>
<text x="840.0000245" y="1396.00000602" width="4.999995000000013" height="19.00002450000011" class="text">M
</text>
<text x="956.99997575" y="1396.999974" width="87.00004949999993" height="22.999984320000067" class="text">02/10/20
</text>
<text x="1111.99998" y="1367.00003802" width="22.000023499999998" height="19.999992479999946" class="text">1x
</text>
<text x="1084.000008" y="1396.999974" width="5.999994000000015" height="22.000033920000078" class="text">:</text>
<text x="1093.0000217499999" y="1396.999974" width="20.00000275000002" height="22.000033920000078" class="text">30
</text>
<text x="1179.000004" y="1367.00003802" width="6.000062249999928" height="22.000016339999775" class="text">M</text>
<text x="1190.9999919999998" y="1367.00003802" width="79.99998825000011" height="22.000016339999775" class="text">------
</text>
<text x="1202.0000265" y="1396.00000602" width="43.000025250000135" height="21.000065940000013" class="text">8:43 </text>
<text x="1249.0000022499999" y="1396.00000602" width="31.000060000000076" height="22.000016340000002" class="text">PM
</text>
<text x="1327.9999460000001" y="1393.00001418" width="128.0000312499999" height="18.00007410000012" class="text">MRBPSS316EH
</text>
<text x="1655.0000284999999" y="1395.00003804" width="5.99992575000033" height="22.000016339999775" class="text">$</text>
<text x="1665.9999492499999" y="1395.00003804" width="68.00002300000006" height="24.00004019999983" class="text">175.00
</text>
<text x="138.9999975" y="1398.00004746" width="74.000001075" height="21.000065940000013" class="text">WWCW
</text>
<text x="136.9999995" y="1430.99997528" width="75.999999075" height="21.999928440000076" class="text">WWCW
</text>
<text x="74.000001075" y="1430.0000073" width="4.999999549999998" height="19.00002450000011" class="text">8
</text>
<text x="254.99999524999998" y="1433.9999671199998" width="9.000013749999994" height="26.999944139999798" class="text">M</text>
<text x="271.000002" y="1435.0000229999998" width="8.999991000000023" height="27.00003203999995" class="text">-</text>
<text x="278.999994" y="1435.0000229999998" width="9.000013749999937" height="27.00003203999995" class="text">F </text>
<text x="298.99999675" y="1436.99995896" width="26.000019500000008" height="27.99991212000009" class="text">7p</text>
<text x="325.00001625" y="1435.9999909800001" width="8.999968249999995" height="26.999944140000252" class="text">-</text>
<text x="335.00000624999996" y="1438.00001484" width="48.99997375000004" height="28.99996800000008" class="text">730p
</text>
<text x="605.000032" y="1432.99999914" width="8.999945499999967" height="27.000049620000027" class="text">M</text>
<text x="621.000016" y="1433.9999671199998" width="9.000013749999994" height="26.999944139999798" class="text">-</text>
<text x="628.99998525" y="1433.9999671199998" width="9.000013749999994" height="26.999944139999798" class="text">F </text>
<text x="648.99996525" y="1435.9999909800001" width="26.000065000000063" height="28.000000020000243" class="text">7p</text>
<text x="675.00003025" y="1435.0000229999998" width="8.999945499999967" height="27.00003203999995" class="text">-</text>
<text x="685.00002025" y="1436.99995896" width="48.999950999999896" height="28.99996800000008" class="text">730p
</text>
<text x="138.00000305" y="1489.99998474" width="74.999995525" height="20.99996046000001" class="text">WWCW
</text>
<text x="136.9999995" y="1517.00003436" width="75.999999075" height="21.000065940000013" class="text">WWCW
</text>
<text x="136.9999995" y="1543.00001052" width="78.0000039" height="19.999992479999946" class="text">WWCW
</text>
<text x="136.000002775" y="1577.0000117999998" width="79.00000062499998" height="20.999960459999784" class="text">WWCW
</text>
<text x="835.00000675" y="1458.9999753" width="87.99995749999994" height="20.99996046000001" class="text">02/10/20 </text>
<text x="931.00000175" y="1458.9999753" width="14.999984999999924" height="20.99996046000001" class="text">to </text>
<text x="955.9999995" y="1458.9999753" width="85.99998225000002" height="20.99996046000001" class="text">02/16/20
</text>
<text x="839.0000255" y="1489.0000167599999" width="5.999994000000015" height="19.999992479999946" class="text">M
</text>
<text x="955.0000004999999" y="1489.0000167599999" width="85.99998225000013" height="22.000016339999775" class="text">02/10/20
</text>
<text x="839.0000255" y="1515.9999609" width="21.999977999999942" height="19.999992479999946" class="text">Tu
</text>
<text x="955.0000004999999" y="1514.99999292" width="88.00002575000008" height="20.999942880000162" class="text">02/11/20
</text>
<text x="955.0000004999999" y="1543.9999785" width="89.00002474999997" height="23.000001899999916" class="text">02/12/20
</text>
<text x="1111.99998" y="1458.9999753" width="22.000023499999998" height="19.999992479999946" class="text">3x
</text>
<text x="1085.000007" y="1487.9999433" width="5.999971249999817" height="20.999942879999935" class="text">:</text>
<text x="1094.999997" y="1487.9999433" width="18.000027499999987" height="20.999942879999935" class="text">30
</text>
<text x="1086.9999822500001" y="1514.0000425199999" width="4.999994999999899" height="19.000042079999957" class="text">:</text>
<text x="1093.0000217499999" y="1514.0000425199999" width="21.999978000000056" height="19.000042079999957" class="text">30
</text>
<text x="1085.000007" y="1540.99996908" width="5.999971249999817" height="20.999942880000162" class="text">:</text>
<text x="1094.999997" y="1540.99996908" width="18.000027499999987" height="20.999942880000162" class="text">30
</text>
<text x="1177.0000287500002" y="1457.00005692" width="36.99998574999972" height="19.000042079999957" class="text">MTW</text>
<text x="1220.99998475" y="1457.00005692" width="51.0000399999999" height="19.000042079999957" class="text">----
</text>
<text x="1200.999982" y="1487.9999433" width="43.00002524999991" height="21.99991086" class="text">6:58 </text>
<text x="1249.0000022499999" y="1487.9999433" width="31.999968000000308" height="21.99991086" class="text">PM
</text>
<text x="1204.00000175" y="1512.99996906" width="38.999960999999985" height="20.99996046000001" class="text">7:14 </text>
<text x="1250.9999775" y="1512.99996906" width="31.00005999999985" height="20.99996046000001" class="text">PM
</text>
<text x="1200.000074" y="1540.99996908" width="44.9999777500002" height="19.999992479999946" class="text">6:58 </text>
<text x="1250.9999775" y="1540.0000186799998" width="29.000084749999814" height="19.999992479999946" class="text">PM
</text>
<text x="1329.00001325" y="1486.9999929" width="129.99998375000018" height="19.999992479999946" class="text">MRBPSS316EH
</text>
<text x="1327.9999460000001" y="1512.99996906" width="132.00009549999982" height="19.999992479999946" class="text">MRBPSS316EH
</text>
<text x="1327.9999460000001" y="1540.99996908" width="131.00005099999998" height="22.000016340000002" class="text">MRBPSS316EH
</text>
<text x="1667.0000165000001" y="1486.00002492" width="6.000039499999957" height="21.000065940000013" class="text">$</text>
<text x="1678.00007375" y="1486.00002492" width="55.99989849999997" height="22.999984320000067" class="text">50.00
</text>
<text x="1668.000061" y="1512.00000108" width="5.999925750000102" height="20.99996046000001" class="text">$</text>
<text x="1678.99998175" y="1514.0000425199999" width="54.00008249999996" height="23.000001899999916" class="text">50.00
</text>
<text x="1667.0000165000001" y="1540.0000186799998" width="6.000039499999957" height="21.000065939999786" class="text">$</text>
<text x="1678.00007375" y="1540.0000186799998" width="55.99989849999997" height="22.000033919999623" class="text">50.00
</text>
<text x="2188.9999495" y="1483.0000330799999" width="4.999994999999672" height="19.00002449999988" class="text">1
</text>
<text x="2188.9999495" y="1511.0000331" width="6.000062249999701" height="21.000048360000164" class="text">3
</text>
<text x="2189.999994" y="1537.00002684" width="5.000017750000097" height="19.00004207999973" class="text">2
</text>
<text x="75.000004625" y="1576.00004382" width="4.999999549999998" height="18.000074099999892" class="text">9
</text>
<text x="254.99999524999998" y="1579.00003566" width="7.99999200000002" height="26.00008164000019" class="text">M</text>
<text x="271.000002" y="1580.00000364" width="7.99999200000002" height="25.999993740000036" class="text">-</text>
<text x="281.00001475" y="1580.00000364" width="7.99999200000002" height="25.999993740000036" class="text">F </text>
<text x="300.0000185" y="1580.9999540400001" width="50.999971749999986" height="26.999944140000252" class="text">730p</text>
<text x="353.99998725" y="1580.9999540400001" width="7.999991999999963" height="25.99997615999996" class="text">-</text>
<text x="360.00000400000005" y="1582.0000275" width="24.999997749999977" height="27.0000496199998" class="text">8p
</text>
<text x="603.9999875000001" y="1577.0000117999998" width="8.000014749999877" height="25.99999373999981" class="text">M</text>
<text x="622.99999125" y="1577.9999622" width="8.000014749999991" height="25.99997615999996" class="text">-</text>
<text x="630.00002975" y="1577.9999622" width="7.999969250000049" height="25.99997615999996" class="text">F </text>
<text x="648.99996525" y="1580.00000364" width="51.0000627500001" height="28.000017599999865" class="text">730p</text>
<text x="702.9999795" y="1580.00000364" width="8.000037500000076" height="25.999993740000036" class="text">-</text>
<text x="708.9999735" y="1580.9999540400001" width="24.99999774999992" height="26.999944140000252" class="text">8p
</text>
<text x="836.9999819999999" y="1608.00000366" width="85.00000599999998" height="22.000016339999775" class="text">02/10/20 </text>
<text x="931.00000175" y="1608.00000366" width="15.999983999999927" height="22.000016339999775" class="text">to </text>
<text x="955.0000004999999" y="1607.00005326" width="88.00002575000008" height="22.000033920000078" class="text">02/16/20
</text>
<text x="1114.0000235" y="1605.9999798000001" width="21.999955250000085" height="20.99996046000024" class="text">3x
</text>
<text x="1179.000004" y="1605.00001182" width="36.000054999999975" height="19.00002449999988" class="text">MTW </text>
<text x="1220.99998475" y="1605.00001182" width="51.0000399999999" height="19.999992480000174" class="text">----
</text>
<text x="723.99998125" y="1645.99996476" width="28.99999374999993" height="19.999992479999946" class="text">We </text>
<text x="755.0000184999999" y="1645.99996476" width="60.99998450000021" height="19.999992479999946" class="text">warrant </text>
<text x="820.00002175" y="1645.99996476" width="29.999992749999933" height="19.999992479999946" class="text">that </text>
<text x="854.00003325" y="1645.99996476" width="22.999954250000087" height="19.999992479999946" class="text">the </text>
<text x="882.9999815" y="1645.99996476" width="47.00002125000003" height="19.999992479999946" class="text">actual </text>
<text x="932.999977" y="1645.99996476" width="76.00003775000005" height="19.999992479999946" class="text">broadcast </text>
<text x="1014.00000975" y="1645.99996476" width="81.99998625" height="19.999992479999946" class="text">information </text>
<text x="1105.00000975" y="1645.99996476" width="48.99999650000018" height="19.999992479999946" class="text">shown </text>
<text x="1159.00000125" y="1645.99996476" width="18.000027500000215" height="19.999992479999946" class="text">on </text>
<text x="1182.0000465" y="1645.99996476" width="24.99999774999992" height="19.999992479999946" class="text">this </text>
<text x="1214.0000145" y="1645.99996476" width="51.9999707500001" height="19.999992479999946" class="text">invoice </text>
<text x="1270.99998025" y="1645.99996476" width="31.000060000000076" height="19.999992479999946" class="text">was </text>
<text x="1307.00003525" y="1645.99996476" width="40.99991349999982" height="19.999992479999946" class="text">taken </text>
<text x="1355.9999635000001" y="1645.99996476" width="31.99999075000005" height="19.999992479999946" class="text">from </text>
<text x="1393.99999375" y="1645.99996476" width="23.000022500000114" height="19.999992479999946" class="text">the </text>
<text x="1425.00005375" y="1645.99996476" width="50.999903499999846" height="19.999992479999946" class="text">official </text>
<text x="1478.99999975" y="1645.99996476" width="63.99993600000016" height="19.999992479999946" class="text">program </text>
<text x="1545.9999555000002" y="1645.99996476" width="23.00002249999966" height="19.999992479999946" class="text">tog</text>
<text x="1572.0000205" y="1645.99996476" width="5.999903000000131" height="19.999992479999946" class="text">.
</text>
<text x="2055.00001525" y="1698.99999054" width="63.99993599999971" height="19.999992479999946" class="text">powered </text>
<text x="2125.0000135" y="1698.00002256" width="16.999960250000186" height="19.999992479999946" class="text">by </text>
<text x="2148.000036" y="1698.00002256" width="78.00001299999985" height="21.000065939999786" class="text">WideOrbit
</text>
</g>
<g id="page-1" transform="translate(0, 1778)">
<rect width="2275" height="1758" fill="none" stroke="black" />
<text x="2033.9999679999999" y="81.000002946" width="54.999990500000195" height="28.000003535999994" class="text">Page </text>
<text x="2115.00000075" y="78.999998424" width="8.000037500000417" height="25.999999013999997" class="text">2 </text>
<text x="2135.0000035000003" y="78.000002316" width="20.000002749999567" height="26.000000772000007" class="text">of </text>
<text x="2166.9999715" y="78.000002316" width="8.000037499999962" height="26.000000772000007" class="text">2
</text>
<text x="1071.9999745" y="110.99999693999999" width="178.0000950000001" height="40.99999864799999" class="text">INVOICE
</text>
<text x="866.9999975000001" y="191.99998758" width="186.00004149999995" height="119.99998476600001" class="text">DUT </text>
<text x="1065.9999805" y="193.99999386" width="194.00007899999991" height="120.99999493799999" class="text">INVOICE </text>
<text x="1343.99999825" y="196.00000014" width="128.9999392499999" height="120.000002346" class="text">TE
</text>
<text x="207.99999675" y="283.99999518" width="26.99999575000001" height="229.99999614599997" class="text">w
</text>
<text x="351.99998925" y="116.9999982" width="64.00000425000002" height="21.999997002" class="text">Remit </text>
<text x="423.9999855" y="116.9999982" width="89.000002" height="21.999997002" class="text">Address</text>
<text x="515.00000825" y="116.9999982" width="5.999971250000044" height="21.999997002" class="text">:
</text>
<text x="345.99999525" y="155.00000325" width="94.99999600000001" height="26.000004287999985" class="text">WWWW
</text>
<text x="108.999997925" y="202.0000014" width="55.00000642500001" height="39.99999550800001" class="text">THE
</text>
<text x="350.000014" y="191.00000202" width="37.99998474999995" height="26.000002530000017" class="text">PO </text>
<text x="400.0000095" y="191.99998758" width="50.999994500000014" height="26.999988090000016" class="text">Box </text>
<text x="460.99999399999996" y="192.99999072" width="91.00002275000003" height="27.999991230000006" class="text">419779
</text>
<text x="350.99999025" y="230.00001899999998" width="97.00001674999999" height="30.000023879999986" class="text">Boston</text>
<text x="451.000004" y="228.99999828" width="7.99999200000002" height="29.000003160000006" class="text">, </text>
<text x="465.00001275" y="228.99999828" width="46.99999850000006" height="29.000003160000006" class="text">MA </text>
<text x="527.000019" y="228.99999828" width="148.9999875000001" height="31.000009439999985" class="text">02241-9779
</text>
<text x="350.99999025" y="265.00000584000003" width="62.00000625000001" height="31.99999500000004" class="text">Main</text>
<text x="420.00001225" y="265.00000584000003" width="8.999968249999995" height="31.99999500000004" class="text">: </text>
<text x="452.000003" y="265.00000584000003" width="8.999990999999966" height="31.99999500000004" class="text">(</text>
<text x="462.999992" y="265.00000584000003" width="45.00000049999994" height="31.99999500000004" class="text">540</text>
<text x="508.99999149999996" y="265.00000584000003" width="9.000013750000107" height="31.99999500000004" class="text">) </text>
<text x="527.99999525" y="265.00000584000003" width="114.99999875000003" height="31.99999500000004" class="text">344-2127
</text>
<text x="353.000011" y="301.99998138" width="84.00000700000004" height="34.99996926" class="text">Billing</text>
<text x="440.99999125" y="300.99999582" width="9.00001375000005" height="32.99999814" class="text">: </text>
<text x="457.999997" y="300.99999582" width="9.000013749999994" height="32.99999814" class="text">(</text>
<text x="468.99998600000004" y="300.99999582" width="42.00000349999999" height="33.99998369999997" class="text">214</text>
<text x="517.00000625" y="300.00001026" width="8.999991000000023" height="32.99999814" class="text">) </text>
<text x="535.99998725" y="300.00001026" width="120.00003924999999" height="35.00000441999998" class="text">765-4103
</text>
<text x="51.00000132500001" y="339.00000966" width="121.99999857499998" height="48.00001007999998" class="text">WWCW </text>
<text x="195.0000052" y="339.00000966" width="13.999995100000007" height="48.00001007999998" class="text">| </text>
<text x="217.999998125" y="339.00000966" width="130.00001787500003" height="48.00001007999998" class="text">VIRGINIA
</text>
<text x="1031.999969" y="189.99999888" width="104.00000975000012" height="21.999993485999994" class="text">Advertiser
</text>
<text x="1235.00006175" y="193.99999386" width="48.99995100000001" height="26.999989847999984" class="text">POL</text>
<text x="1285.00005725" y="193.99999386" width="7.999900999999909" height="26.999989847999984" class="text">/</text>
<text x="1290.9999830000002" y="193.99999386" width="83.00000799999998" height="27.999991229999978" class="text">Michael </text>
<text x="1379.00000875" y="192.99999072" width="104.99998600000004" height="26.999988089999988" class="text">Bloomberg</text>
<text x="1490.000057" y="192.99999072" width="7.999878249999938" height="26.999988089999988" class="text">/</text>
<text x="1495.99996" y="192.99999072" width="99.0000829999999" height="26.999988089999988" class="text">President</text>
<text x="1593.00006775" y="191.99998758" width="7.999900999999909" height="26.999988090000016" class="text">/</text>
<text x="1600.9999687499999" y="191.99998758" width="29.999992750000047" height="26.999988090000016" class="text">US</text>
<text x="1633.00007325" y="191.99998758" width="7.999878249999938" height="26.999988090000016" class="text">/</text>
<text x="1640.9999515" y="191.99998758" width="8.00003750000019" height="26.999988090000016" class="text">D
</text>
<text x="1240.00005675" y="223.00001460000001" width="51.999970749999875" height="21.000013200000012" class="text">MIKE </text>
<text x="1300.000065" y="223.00001460000001" width="146.9999667500001" height="23.00001948000002" class="text">BLOOMBERG </text>
<text x="1457.0000217499999" y="221.99999387999998" width="48.00002025000026" height="20.999995619999993" class="text">2020
</text>
<text x="1685.000044" y="152.99999872799998" width="78.99992100000009" height="21.99999524399999" class="text">Invoice </text>
<text x="1773.99997775" y="151.99999734600001" width="6.0000622500001555" height="19.99999248000003" class="text">#
</text>
<text x="1685.9999520000001" y="187.99999259999998" width="69.99999824999986" height="22.99999310999999" class="text">Invoice </text>
<text x="1765.99994025" y="187.99999259999998" width="48.000043000000005" height="22.99999310999999" class="text">Date
</text>
<text x="1685.9999520000001" y="221.00000832" width="72.00010999999995" height="21.000013200000012" class="text">Invoice </text>
<text x="1767.0000075" y="221.00000832" width="59.999985499999866" height="21.000013200000012" class="text">Month
</text>
<text x="1895.99994675" y="152.99999872799998" width="104.99998600000004" height="21.99999524399999" class="text">2373133-1
</text>
<text x="1893.0000407500002" y="187.99999259999998" width="90.99993174999986" height="23.999994491999985" class="text">02/23/20
</text>
<text x="1893.0000407500002" y="226.00000644" width="92.99988424999992" height="27.00001445999999" class="text">February </text>
<text x="1993.9999625" y="224.99998572" width="46.99997574999975" height="25.999993740000008" class="text">2020
</text>
<text x="1893.9999715" y="258.00000144" width="86.99995850000005" height="21.999998759999983" class="text">01/27/20 </text>
<text x="1991.99998725" y="258.00000144" width="6.000062249999928" height="21.999998759999983" class="text">- </text>
<text x="2005.9999277499999" y="258.00000144" width="88.00002574999985" height="21.999998759999983" class="text">02/23/20
</text>
<text x="1030.0000165" y="224.00000016" width="81.99996350000015" height="20.000010059999994" class="text">Product
</text>
<text x="1031.999969" y="260.00000772" width="85.00000599999998" height="23.000019479999963" class="text">Estimate </text>
<text x="1128.00003225" y="260.00000772" width="82.00003175000006" height="23.000019479999963" class="text">Number
</text>
<text x="1237.000037" y="260.00000772" width="50.99990350000007" height="23.000019479999963" class="text">0126
</text>
<text x="1685.9999520000001" y="257.00001588000003" width="71.00004274999992" height="21.000013200000012" class="text">Invoice </text>
<text x="1768.0000519999999" y="257.00001588000003" width="63.99993600000016" height="21.000013200000012" class="text">Period
</text>
<text x="1033.00003625" y="336.00001782" width="85.99998225000013" height="30.000023880000015" class="text">Property
</text>
<text x="1234.00001725" y="329.00001342" width="81.00003275000017" height="23.00001948000005" class="text">WWCW
</text>
<text x="1033.00003625" y="365.0000034" width="86.99995850000005" height="25.00000818000001" class="text">Account </text>
<text x="1123.00003725" y="366.00000654" width="98.99999200000002" height="26.00001132" class="text">Executive </text>
<text x="1237.000037" y="366.00000654" width="45.99990849999995" height="24.99999059999999" class="text">Katz </text>
<text x="1290.00005225" y="366.00000654" width="121.99996900000019" height="24.99999059999999" class="text">Washington
</text>
<text x="1035.0000115" y="398.00000154" width="54.99999049999997" height="21.99999876000004" class="text">Sales </text>
<text x="1099.00001575" y="398.00000154" width="56.00005774999977" height="21.99999876000004" class="text">Office </text>
<text x="1237.999945" y="401.00001096" width="46.00006774999997" height="26.00001132" class="text">Katz</text>
<text x="1287.0000325" y="401.00001096" width="6.999970249999933" height="26.00001132" class="text">/</text>
<text x="1290.00005225" y="402.99999966" width="123.99994425" height="28.000000020000016" class="text">Washington
</text>
<text x="1033.00003625" y="436.99998336" width="57.99994199999992" height="27.999982439999997" class="text">Sales </text>
<text x="1094.999997" y="438.99998963999997" width="72.00004175000004" height="29.000003160000006" class="text">Region </text>
<text x="1240.00005675" y="431.99998524" width="85.99991399999976" height="20.999978039999974" class="text">National
</text>
<text x="1687.00001925" y="327.00000714000004" width="63.000005250000186" height="21.99999876000004" class="text">Order </text>
<text x="1755.00004225" y="327.00000714000004" width="5.999903000000131" height="21.99999876000004" class="text">#
</text>
<text x="1687.00001925" y="361.00000842000003" width="26.99995025000021" height="21.000013200000012" class="text">Alt </text>
<text x="1723.0000515" y="361.00000842000003" width="57.99989649999998" height="21.000013200000012" class="text">Order </text>
<text x="1788.9999855" y="361.00000842000003" width="6.000039499999957" height="21.000013200000012" class="text">#
</text>
<text x="1687.00001925" y="395.99999526" width="51.000040000000126" height="21.999998759999983" class="text">Deal </text>
<text x="1745.9999602500002" y="394.99999212" width="6.00003949999973" height="20.999995619999993" class="text">#
</text>
<text x="1898.9999665" y="325.99998641999997" width="84.00007524999978" height="20.999978039999974" class="text">2373133
</text>
<text x="1895.000016" y="361.00000842000003" width="100.99992175000011" height="21.99999876000004" class="text">26797186
</text>
<text x="231.9999955" y="440.99999591999995" width="67.00000124999997" height="31.000009439999985" class="text">Billing </text>
<text x="310.0000085" y="440.99999591999995" width="85.00000600000004" height="31.000009439999985" class="text">Address</text>
<text x="402.00000750000004" y="439.99997520000005" width="7.999991999999963" height="28.999968000000024" class="text">:
</text>
<text x="1688.00006375" y="433.00000596" width="61.99996075000013" height="26.00001132" class="text">Order </text>
<text x="1753.9999750000002" y="435.9999978" width="59.00007749999986" height="26.999996880000026" class="text">Flight
</text>
<text x="1895.99994675" y="428.9999934" width="86.00005050000004" height="20.999995619999993" class="text">12/30/19 </text>
<text x="1993.9999625" y="428.9999934" width="6.0000622500001555" height="20.999995619999993" class="text">- </text>
<text x="2005.9999277499999" y="428.9999934" width="87.00011775000007" height="20.999995619999993" class="text">03/29/20
</text>
<text x="1895.000016" y="501.0000261" width="86.99998125000002" height="22.000016340000002" class="text">9915458
</text>
<text x="232.99999449999999" y="501.99999407999996" width="115.99999775000006" height="28.999985579999986" class="text">Assembly
</text>
<text x="232.99999449999999" y="532.99998594" width="108.99998200000002" height="29.999988719999976" class="text">Attention</text>
<text x="345.99999525" y="532.99998594" width="9.00001375000005" height="29.999988719999976" class="text">: </text>
<text x="361.99997924999997" y="532.99998594" width="115.00004425000003" height="29.999988719999976" class="text">Assembly </text>
<text x="485.99999175000005" y="532.99998594" width="71.99999624999998" height="29.999988719999976" class="text">Email
</text>
<text x="233.9999935" y="556.99999098" width="40.000005500000015" height="21.9999636" class="text">711 </text>
<text x="282.99998999999997" y="556.99999098" width="33.99998875000006" height="22.999984320000067" class="text">3rd </text>
<text x="328.99998949999997" y="556.99999098" width="90.000001" height="24.00000504000002" class="text">Avenue
</text>
<text x="232.99999449999999" y="588.00000042" width="34.0000115" height="21.999981179999963" class="text">3rd </text>
<text x="281.00001475" y="588.00000042" width="64.00000425000002" height="22.999984320000067" class="text">Floor
</text>
<text x="228.9999985" y="624.99999354" width="48.99999650000001" height="28.00001759999998" class="text">New </text>
<text x="295.99999975000003" y="624.99999354" width="50.99999449999996" height="28.99998557999993" class="text">York</text>
<text x="351.99998925" y="624.00002556" width="8.000014750000048" height="28.00001759999998" class="text">, </text>
<text x="364.0" y="624.00002556" width="36.000009499999976" height="28.00001759999998" class="text">NY </text>
<text x="417.9999915" y="624.00002556" width="67.000024" height="28.00001759999998" class="text">10017
</text>
<text x="1034.0000125" y="507.99997776000004" width="60.99998449999998" height="27.999964859999977" class="text">Billing </text>
<text x="1105.00000975" y="507.00000977999997" width="93.99999700000012" height="28.00000001999996" class="text">Calendar
</text>
<text x="1035.99998775" y="542.00003178" width="55.99998950000008" height="26.000046479999924" class="text">Billing </text>
<text x="1106.999985" y="542.00003178" width="45.99997675000009" height="26.000046479999924" class="text">Type
</text>
<text x="1036.9999867499998" y="579.00000732" width="77.00003675000016" height="30.000041460000034" class="text">Special </text>
<text x="1116.999975" y="578.0000041799999" width="90.99997725000003" height="29.00003831999993" class="text">Handling
</text>
<text x="1240.00005675" y="504.00001794" width="107.99989199999982" height="23.00003706000001" class="text">Broadcast
</text>
<text x="1239.00001225" y="535.99997778" width="51.0000399999999" height="20.99999562000005" class="text">Cash
</text>
<text x="1690.999947" y="505.99998906" width="77.00010499999985" height="28.999968000000024" class="text">Agency </text>
<text x="1773.000047" y="504.00001794" width="55.00001324999994" height="26.999996880000026" class="text">Code
</text>
<text x="1688.00006375" y="535.99997778" width="108.99993649999988" height="22.999984319999953" class="text">Advertiser </text>
<text x="1800.99995075" y="535.99997778" width="49.00006475000009" height="22.999984319999953" class="text">Code
</text>
<text x="1688.99997175" y="569.99997906" width="81.99998625000012" height="21.9999636" class="text">Product </text>
<text x="1778.99997275" y="569.00001108" width="26.00006499999995" height="20.00004522000006" class="text">1/2
</text>
<text x="1893.9999715" y="535.99997778" width="63.00002800000016" height="21.9999636" class="text">MBLM
</text>
<text x="1895.99994675" y="569.99997906" width="59.00007750000009" height="21.000013200000012" class="text">MBLM
</text>
<text x="1688.99997175" y="645.9999891599999" width="76.99996850000002" height="28.999967999999853" class="text">Agency </text>
<text x="1773.000047" y="644.00001804" width="40.99993625000002" height="28.00001759999998" class="text">Ref
</text>
<text x="1690.999947" y="675.0000099" width="106.00005324999984" height="22.000016340000002" class="text">Advertiser </text>
<text x="1800.99995075" y="675.0000099" width="37.00009950000003" height="22.000016340000002" class="text">Ref
</text>
<text x="66.999998975" y="747.99997542" width="46.00000405" height="21.999963600000115" class="text">Line
</text>
<text x="831.00001075" y="750.99998484" width="39.99998274999996" height="25.999993740000036" class="text">Day
</text>
<text x="951.9999807500001" y="747.00002502" width="47.00004399999989" height="21.000013200000012" class="text">Date
</text>
<text x="1081.99998725" y="750.99998484" width="73.00008624999987" height="27.99996486000009" class="text">Length </text>
<text x="1177.0000287500002" y="748.99999614" width="30.00001549999979" height="26.999996880000026" class="text">Air </text>
<text x="1215.9999897500002" y="747.99997542" width="51.00003999999967" height="26.999979300000064" class="text">Time
</text>
<text x="1320.99997575" y="746.0000043" width="23.000022500000114" height="22.999984320000067" class="text">Ad</text>
<text x="1347.99994875" y="744.99998358" width="7.000106750000214" height="20.99999562000005" class="text">-</text>
<text x="1355.9999635000001" y="744.99998358" width="16.99998299999993" height="21.999963600000115" class="text">ID
</text>
<text x="1590.9999559999999" y="746.0000043" width="48.00002025000026" height="22.000016340000002" class="text">Rate
</text>
<text x="1740.9999424999999" y="746.0000043" width="157.00011600000016" height="22.000016340000002" class="text">Reconciliation
</text>
<text x="2135.0000035000003" y="744.99998358" width="40.00000549999959" height="21.999963600000115" class="text">Ref </text>
<text x="2180.000004" y="743.99998044" width="6.999970249999933" height="19.999992479999946" class="text">#
</text>
<text x="601.00001325" y="748.99999614" width="49.00001924999992" height="20.99999562000005" class="text">Time
</text>
<text x="601.00001325" y="781.9999767" width="7.9999692499999355" height="25.999976160000074" class="text">M</text>
<text x="617.99999625" y="782.99999742" width="8.000014750000105" height="25.999976160000074" class="text">-</text>
<text x="627.0000100000001" y="782.99999742" width="8.000014749999991" height="25.999976160000074" class="text">F </text>
<text x="646.00001375" y="784.99996854" width="50.99999450000007" height="27.99994728000013" class="text">730p</text>
<text x="700.000028" y="784.99996854" width="7.9999464999999645" height="25.99997615999996" class="text">-</text>
<text x="705.0000229999999" y="787.00000998" width="28.99994824999999" height="28.000017599999865" class="text">8p
</text>
<text x="70.99999952499999" y="781.0000263" width="4.999999549999998" height="19.000042079999957" class="text">9
</text>
<text x="146.9999986" y="750.99998484" width="87.99999390000002" height="28.999985580000043" class="text">Channel </text>
<text x="254.99999524999998" y="753.0000087" width="121.99999174999999" height="29.999988720000033" class="text">Description
</text>
<text x="133.99999795" y="781.9999767" width="76.00000589999999" height="21.999963600000115" class="text">WWCW </text>
<text x="252.99999725" y="782.99999742" width="6.999992999999989" height="25.999976160000074" class="text">M</text>
<text x="269.000004" y="782.99999742" width="6.999993000000018" height="25.999976160000074" class="text">-</text>
<text x="278.999994" y="784.00001814" width="7.000015749999989" height="26.000046479999924" class="text">F </text>
<text x="296.99999875000003" y="785.99998926" width="51.999993500000016" height="28.00001759999998" class="text">730p</text>
<text x="351.99998925" y="784.99996854" width="6.999993000000018" height="25.99997615999996" class="text">-</text>
<text x="358.000006" y="784.99996854" width="23.999976000000004" height="25.99997615999996" class="text">8p
</text>
<text x="135.0000015" y="808.99997358" width="75.00000234999999" height="19.999992479999946" class="text">WWCW
</text>
<text x="133.000001225" y="835.00000248" width="78.99999379999997" height="20.99999562000005" class="text">WWCW
</text>
<text x="133.99999795" y="863.9999880600001" width="80.0000019" height="21.999981180000077" class="text">WWCW
</text>
<text x="135.0000015" y="896.99996862" width="78.99999835" height="21.999981180000077" class="text">WWCW </text>
<text x="253.99999624999998" y="896.00000064" width="5.999994000000015" height="21.000013200000126" class="text">M</text>
<text x="270.000003" y="896.00000064" width="5.999994000000015" height="21.000013200000126" class="text">-</text>
<text x="278.999994" y="896.00000064" width="6.000016749999986" height="21.000013200000126" class="text">F </text>
<text x="300.0000185" y="896.00000064" width="57.999987499999975" height="21.000013200000126" class="text">1230a</text>
<text x="363.000001" y="896.00000064" width="5.999994000000015" height="21.000013200000126" class="text">-</text>
<text x="370.99999299999996" y="896.00000064" width="20.00000275000008" height="21.000013200000126" class="text">1a
</text>
<text x="836.00000575" y="808.0000056" width="5.999994000000015" height="19.999992479999946" class="text">M
</text>
<text x="835.00000675" y="836.0000232" width="21.999978000000056" height="21.000013200000012" class="text">Tu
</text>
<text x="832.999986" y="861.99999936" width="6.000039499999957" height="21.000013200000012" class="text">W
</text>
<text x="951.0000045" y="808.0000056" width="88.00002574999996" height="23.000037059999954" class="text">02/10/20
</text>
<text x="952.99997975" y="836.99999118" width="85.00005150000015" height="22.999984320000067" class="text">02/11/20
</text>
<text x="951.0000045" y="860.99997864" width="88.00002574999996" height="20.999995619999936" class="text">02/12/20
</text>
<text x="1080.99998825" y="807.00000246" width="5.9999940000002425" height="22.000033919999964" class="text">:</text>
<text x="1090.000002" y="807.00000246" width="20.00000275000002" height="22.000033919999964" class="text">30
</text>
<text x="1081.99998725" y="832.99997862" width="6.000039499999957" height="19.999992479999946" class="text">:</text>
<text x="1090.99997825" y="832.99997862" width="18.000027500000215" height="19.999992479999946" class="text">30
</text>
<text x="1080.99998825" y="860.99997864" width="5.9999940000002425" height="20.999995619999936" class="text">:</text>
<text x="1090.000002" y="860.99997864" width="21.999978000000056" height="20.999995619999936" class="text">30
</text>
<text x="1200.000074" y="807.00000246" width="42.999888749999855" height="22.000033919999964" class="text">7:50 </text>
<text x="1250.9999775" y="808.0000056" width="26.999972999999727" height="22.000016340000002" class="text">PM
</text>
<text x="1200.999982" y="832.99997862" width="39.00007475000007" height="19.999992479999946" class="text">7:45 </text>
<text x="1249.0000022499999" y="833.99999934" width="28.99994824999999" height="19.99999248000006" class="text">PM
</text>
<text x="1200.999982" y="861.99999936" width="41.000049999999874" height="21.000013200000012" class="text">7:43 </text>
<text x="1247.99995775" y="861.99999936" width="31.000037249999878" height="21.000013200000012" class="text">PM
</text>
<text x="1325.9999707499999" y="807.00000246" width="126.99996400000009" height="22.000033919999964" class="text">MRBPSS316EH
</text>
<text x="1327.000038" y="832.99997862" width="128.00000850000015" height="20.999960459999897" class="text">MRBPSS316EH
</text>
<text x="1325.9999707499999" y="860.99997864" width="131.00005099999998" height="21.9999636" class="text">MRBPSS316EH
</text>
<text x="1665.9999492499999" y="808.0000056" width="7.000106750000214" height="23.999987460000057" class="text">$</text>
<text x="1678.00007375" y="808.0000056" width="56.99996575000023" height="23.999987460000057" class="text">50.00
</text>
<text x="1665.9999492499999" y="833.99999934" width="6.0000622500001555" height="21.999981179999963" class="text">$</text>
<text x="1677.0000065" y="833.99999934" width="56.99996575" height="21.999981179999963" class="text">50.00
</text>
<text x="1668.000061" y="860.00002824" width="5.999925750000102" height="21.000013200000012" class="text">$</text>
<text x="1678.99998175" y="860.00002824" width="53.00001525000016" height="23.000037059999954" class="text">50.00
</text>
<text x="2184.999999" y="866.00001192" width="15.000007749999895" height="77.99999879999996" class="text">213
</text>
<text x="72.999997525" y="895.0000326600001" width="18.000000200000002" height="21.00004836000005" class="text">10
</text>
<text x="603.9999875000001" y="895.0000326600001" width="6.000039499999843" height="21.00004836000005" class="text">M</text>
<text x="620.0000397499999" y="895.0000326600001" width="5.999971250000158" height="21.00004836000005" class="text">-</text>
<text x="628.99998525" y="895.0000326600001" width="6.000039500000071" height="21.00004836000005" class="text">F </text>
<text x="650.0000325" y="895.0000326600001" width="57.99994200000003" height="21.00004836000005" class="text">1230a</text>
<text x="712.99999225" y="895.0000326600001" width="5.999971250000044" height="21.00004836000005" class="text">-</text>
<text x="717.99998725" y="895.0000326600001" width="23.999998749999918" height="21.00004836000005" class="text">1a
</text>
<text x="136.000002775" y="955.9999780799999" width="79.00000062499998" height="22.000033919999964" class="text">WWCW
</text>
<text x="135.0000015" y="981.99995424" width="78.99999835" height="20.999960459999897" class="text">WWCW
</text>
<text x="133.99999795" y="1008.00003588" width="79.00000062500001" height="21.000065940000013" class="text">WWCW
</text>
<text x="831.00001075" y="926.0000421000001" width="88.00002574999996" height="21.000065940000127" class="text">02/10/20 </text>
<text x="927.999982" y="926.0000421000001" width="14.999984999999924" height="21.000065940000127" class="text">to </text>
<text x="952.99997975" y="926.0000421000001" width="89.000002" height="21.000065940000127" class="text">02/16/20
</text>
<text x="837.9999809999999" y="954.00004212" width="6.000039500000071" height="20.000097960000062" class="text">M
</text>
<text x="951.9999807500001" y="955.0000100999999" width="87.00004949999993" height="22.00001633999989" class="text">02/10/20
</text>
<text x="835.00000675" y="980.0000358599999" width="21.999978000000056" height="19.000042079999844" class="text">Tu
</text>
<text x="952.99997975" y="981.99995424" width="86.00005050000004" height="21.99991086" class="text">02/11/20
</text>
<text x="835.00000675" y="1006.99996242" width="5.999994000000015" height="19.999992479999946" class="text">W
</text>
<text x="951.9999807500001" y="1008.00003588" width="88.00002574999985" height="21.000065940000013" class="text">02/12/20
</text>
<text x="1110.999981" y="924.00000066" width="22.000046250000196" height="19.000024499999995" class="text">3x
</text>
<text x="1081.99998725" y="955.0000100999999" width="6.000039499999957" height="21.000065940000013" class="text">:</text>
<text x="1090.99997825" y="955.0000100999999" width="22.00004624999997" height="22.00001633999989" class="text">30
</text>
<text x="1084.000008" y="980.0000358599999" width="5.999994000000015" height="19.999992479999946" class="text">:</text>
<text x="1090.000002" y="980.0000358599999" width="21.999978000000056" height="19.999992479999946" class="text">30
</text>
<text x="1084.000008" y="1006.0000120199999" width="5.999994000000015" height="19.999992479999946" class="text">:</text>
<text x="1091.99997725" y="1006.0000120199999" width="22.00004624999997" height="19.999992479999946" class="text">30
</text>
<text x="1177.0000287500002" y="923.00005026" width="35.99991849999992" height="19.000042079999957" class="text">MTW</text>
<text x="1217.999965" y="923.00005026" width="53.00001524999993" height="19.000042079999957" class="text">----
</text>
<text x="1187.0000415000002" y="954.00004212" width="54.99999049999974" height="21.000048359999937" class="text">12:54 </text>
<text x="1252.00004475" y="954.00004212" width="28.999925500000245" height="22.00001633999989" class="text">AM
</text>
<text x="1190.00006125" y="980.0000358599999" width="51.999970749999875" height="22.000033919999964" class="text">12:59 </text>
<text x="1250.9999775" y="978.9999624000001" width="29.000084749999814" height="19.99999248000006" class="text">AM
</text>
<text x="1190.00006125" y="1006.99996242" width="54.999990500000195" height="20.99994288000005" class="text">12:48 </text>
<text x="1252.00004475" y="1006.99996242" width="28.999925500000245" height="21.99991086" class="text">AM
</text>
<text x="1327.9999460000001" y="954.00004212" width="128.0000312499999" height="22.00001633999989" class="text">MRBPSS316EH
</text>
<text x="1325.9999707499999" y="978.9999624000001" width="131.00005099999998" height="19.99999248000006" class="text">MRBPSS316EH
</text>
<text x="1327.000038" y="1006.0000120199999" width="129.99998374999996" height="19.000042079999844" class="text">MRBPSS316EH
</text>
<text x="1678.99998175" y="952.99998624" width="6.000062249999928" height="20.999960459999897" class="text">$</text>
<text x="1690.000039" y="952.99998624" width="45.00000050000017" height="22.999984320000067" class="text">5.00
</text>
<text x="1680.00002625" y="980.0000358599999" width="5.999925750000102" height="22.000033919999964" class="text">$</text>
<text x="1692.00001425" y="980.0000358599999" width="39.99998275000007" height="24.00005778000002" class="text">5.00
</text>
<text x="1680.00002625" y="1005.0000440399999" width="5.999925750000102" height="21.000065940000013" class="text">$</text>
<text x="1690.999947" y="1006.0000120199999" width="42.0001172499999" height="22.000033919999964" class="text">5.00
</text>
<text x="2189.999994" y="949.9999943999999" width="5.000017750000097" height="19.000042079999844" class="text">1
</text>
<text x="2188.9999495" y="977.0000264399999" width="4.999994999999672" height="19.000024499999995" class="text">2
</text>
<text x="2186.99997425" y="1003.9999705800001" width="4.999995000000126" height="18.999919020000107" class="text">3
</text>
<text x="549.00001975" y="1062.9999976200002" width="58.999963750000006" height="31.999977420000278" class="text">Aired </text>
<text x="616.0000210000001" y="1063.99994802" width="64.00000424999996" height="30.99999185999991" class="text">Spots
</text>
<text x="819.00002275" y="1057.99996434" width="25.999996750000037" height="22.99998431999984" class="text">16
</text>
<text x="999.00002475" y="1133.00000646" width="66.99995575000003" height="22.99998431999984" class="text">Gross </text>
<text x="1075.99999325" y="1133.00000646" width="59.99998550000009" height="22.99998431999984" class="text">Total
</text>
<text x="1265.0000545" y="1136.0000158799999" width="6.999970249999933" height="25.99999373999981" class="text">$</text>
<text x="1275.00006725" y="1136.0000158799999" width="76.9999684999998" height="28.000017599999865" class="text">630.00
</text>
<text x="896.99999025" y="1181.99998452" width="87.00002675000007" height="31.000009439999985" class="text">Agency </text>
<text x="991.99998625" y="1179.99994308" width="139.99999649999984" height="30.999886380000135" class="text">Commission
</text>
<text x="1278.999995" y="1179.99994308" width="6.999993000000131" height="24.99990270000012" class="text">$</text>
<text x="1290.9999830000002" y="1179.99994308" width="61.9999607499999" height="26.999944140000252" class="text">94.50
</text>
<text x="931.00000175" y="1221.9999694800001" width="44.00000149999994" height="21.999928440000076" class="text">Net </text>
<text x="979.99999825" y="1221.9999694800001" width="100.00001375" height="23.999952300000132" class="text">Amount </text>
<text x="1085.000007" y="1221.0000015" width="45.99997674999986" height="22.000016340000002" class="text">Due
</text>
<text x="1265.0000545" y="1224.99996132" width="7.999900999999909" height="27.999912119999863" class="text">$</text>
<text x="1275.99997525" y="1224.99996132" width="81.00005549999992" height="27.999912119999863" class="text">535.50
</text>
<text x="1398.99998875" y="1223.00002536" width="110.0000037499999" height="29.000073480000083" class="text">Payment </text>
<text x="1520.0000497499998" y="1221.9999694800001" width="70.9999062500001" height="28.000017600000092" class="text">Terms </text>
<text x="1603.9999885" y="1221.0000015" width="24.99999774999992" height="27.000049620000027" class="text">30 </text>
<text x="1635.9999564999998" y="1221.0000015" width="59.99998550000009" height="28.99996800000008" class="text">Days
</text>
<text x="727.000001" y="1647.00002064" width="31.99996800000008" height="22.000016340000002" class="text">We </text>
<text x="758.9999690000001" y="1647.00002064" width="62.00002899999993" height="22.000016340000002" class="text">warrant </text>
<text x="822.99997325" y="1647.00002064" width="31.000059999999962" height="22.000016340000002" class="text">that </text>
<text x="856.0000085" y="1647.00002064" width="23.0000225" height="22.000016340000002" class="text">the </text>
<text x="886.00000125" y="1647.00002064" width="49.99999550000007" height="22.000016340000002" class="text">actual </text>
<text x="936.99999575" y="1647.00002064" width="75.99996950000002" height="22.000016340000002" class="text">broadcast </text>
<text x="1020.00000375" y="1647.00002064" width="80.99998724999989" height="22.000016340000002" class="text">information </text>
<text x="1108.0000295" y="1647.00002064" width="47.999951999999894" height="22.000016340000002" class="text">shown </text>
<text x="1162.99995175" y="1647.00002064" width="17.000119499999983" height="22.000016340000002" class="text">on </text>
<text x="1185.99997425" y="1647.00002064" width="24.99999774999992" height="22.000016340000002" class="text">this </text>
<text x="1220.0000539999999" y="1647.00002064" width="51.9999707500001" height="22.000016340000002" class="text">invoice </text>
<text x="1275.99997525" y="1647.00002064" width="31.999967999999853" height="22.000016340000002" class="text">was </text>
<text x="1315.00005" y="1647.00002064" width="38.999960999999985" height="22.000016340000002" class="text">taken </text>
<text x="1360.99998125" y="1647.00002064" width="29.999992750000047" height="22.000016340000002" class="text">from </text>
<text x="1400.9999639999999" y="1647.00002064" width="21.000070000000278" height="22.000016340000002" class="text">the </text>
<text x="1427.0000289999998" y="1647.00002064" width="49.999995500000296" height="22.000016340000002" class="text">official </text>
<text x="1482.0000195" y="1647.00002064" width="60.99991625000007" height="22.000016340000002" class="text">program </text>
<text x="1552.00001775" y="1647.00002064" width="21.999978000000056" height="22.000016340000002" class="text">log
</text>
<text x="2058.000035" y="1696.9999491" width="63.99993599999971" height="19.999992479999946" class="text">powered </text>
<text x="2128.00003325" y="1695.9999986999999" width="16.999983000000157" height="17.99996861999989" class="text">by </text>
<text x="2150.0000112499997" y="1695.9999986999999" width="79.99998825000011" height="19.999992479999946" class="text">WideOrbit
</text>
</g>
</svg>
