<svg xmlns="http://www.w3.org/2000/svg">
<style>.text { font-size: 14px; font-family: Arial, sans-serif; }</style>
<g id="page-0" transform="translate(0, 0)">
<rect width="1556" height="2569" fill="none" stroke="black" />
<text x="307.00001368" y="174.000001315" width="83.99997536000006" height="22.000004004999994" class="text">RECEIVED
</text>
<text x="235.00000368" y="192.999993914" width="120.99999044" height="20.99998735799997" class="text">DEPARTMENT </text>
<text x="362.00000792000003" y="192.999993914" width="19.999983759999964" height="20.99998735799997" class="text">OF </text>
<text x="392.99999363999996" y="192.999993914" width="69.00001088000005" height="20.99998735799997" class="text">JUSTICE
</text>
<text x="998.99998704" y="152.999995974" width="80.99999180000009" height="28.000001127000004" class="text">Budget </text>
<text x="1090.00000184" y="151.99999731" width="81.99997076" height="27.000002463" class="text">Bureau </text>
<text x="1180.00003768" y="151.99999731" width="45.99995019999983" height="27.000002463" class="text">No. </text>
<text x="1232.9999962000002" y="151.99999731" width="25.999997559999883" height="27.999998557999987" class="text">43</text>
<text x="1262.00000844" y="151.000001215" width="7.999987279999914" height="27.000002462999987" class="text">-</text>
<text x="1272.0000314400002" y="151.000001215" width="81.99997076" height="27.000002462999987" class="text">R226.3
</text>
<text x="998.0000080799999" y="182.99999956699997" width="106.99998936000009" height="30.000003592999974" class="text">Approval </text>
<text x="1112.9999691599999" y="182.000003472" width="95.99998740000001" height="29.000007498000002" class="text">Expires </text>
<text x="1219.99995852" y="182.000003472" width="96.00008075999995" height="29.000007498000002" class="text">January </text>
<text x="1325.99996892" y="181.000004808" width="28.000033280000252" height="29.000007498000002" class="text">31</text>
<text x="1354.99998116" y="181.000004808" width="7.999987279999914" height="29.000007498000002" class="text">, </text>
<text x="1375.00002716" y="181.000004808" width="51.00001616000009" height="29.000007498000002" class="text">1968
</text>
<text x="616.99999536" y="243.00000932199998" width="8.000018400000044" height="28.00000883399997" class="text">(</text>
<text x="629.0000074" y="243.00000932199998" width="44.999971240000036" height="28.00000883399997" class="text">File </text>
<text x="684.0000172" y="243.00000932199998" width="42.999966640000025" height="28.00000883399997" class="text">two </text>
<text x="735.99999676" y="243.00000932199998" width="105.99996371999998" height="28.00000883399997" class="text">complete </text>
<text x="852.9999624400001" y="243.00000932199998" width="76.9999981599999" height="28.00000883399997" class="text">copies</text>
<text x="934.0000476" y="243.00000932199998" width="7.999987279999914" height="28.00000883399997" class="text">)
</text>
<text x="212.99999975999998" y="292.99999904" width="36.99998396000004" height="36.00001355999996" class="text">AUG </text>
<text x="275.00000232" y="292.99999904" width="10.00000743999999" height="36.00001355999996" class="text">6 </text>
<text x="329.00000204" y="292.00001579" width="10.00000743999999" height="36.00001869800002" class="text">3 </text>
<text x="364.00001252" y="292.00001579" width="26.999976520000075" height="36.00001869800002" class="text">53 </text>
<text x="403.00001664" y="292.00001579" width="26.999960959999953" height="36.00001869800002" class="text">PM </text>
<text x="457.0000008" y="292.00001579" width="45.000017920000005" height="37.000017361999994" class="text">1964
</text>
<text x="245.99999007999998" y="385.99998268999997" width="124.00000512000003" height="21.99996546999995" class="text">REGISTRATION </text>
<text x="377.99999804" y="385.99998268999997" width="73.00000452" height="21.000007910000022" class="text">SECTION
</text>
<text x="482.9999828" y="391.00000170000004" width="99.00000207999994" height="23.00000010000008" class="text">UNITED </text>
<text x="599.99999516" y="390.00001845" width="99.00000207999994" height="23.00000010000008" class="text">STATES </text>
<text x="712.0000038000001" y="390.00001845" width="189.00003792000007" height="25.000043670000082" class="text">DEPARTMENT </text>
<text x="912.00004368" y="389.00000951" width="33.99996928000007" height="23.000000099999966" class="text">OF </text>
<text x="965.0000022" y="389.00000951" width="105.00003143999982" height="24.00003473000004" class="text">JUSTICE
</text>
<text x="647.00001768" y="455.00000868" width="170.99999651999997" height="30.00001130000004" class="text">WASHINGTON</text>
<text x="824.0000435599999" y="455.00000868" width="8.999950680000097" height="30.00001130000004" class="text">, </text>
<text x="847.99998984" y="455.00000868" width="9.000059599999986" height="30.00001130000004" class="text">D</text>
<text x="866.0000001200001" y="455.00000868" width="8.999966239999935" height="30.00001130000004" class="text">, </text>
<text x="880.99999572" y="455.00000868" width="9.00004403999992" height="30.00001130000004" class="text">C</text>
<text x="895.99999132" y="455.00000868" width="9.000044040000034" height="30.00001130000004" class="text">,
</text>
<text x="698.99999724" y="525.00001792" width="64.99998612000002" height="23.000000100000022" class="text">Form </text>
<text x="776.99997436" y="525.00001792" width="33.000052560000086" height="23.000000100000022" class="text">FA</text>
<text x="815.99996292" y="525.00001792" width="6.000044919999937" height="23.000000100000022" class="text">-</text>
<text x="829.00001616" y="525.00001792" width="25.000003040000024" height="23.000000100000022" class="text">11
</text>
<text x="1301.00004368" y="558.00000466" width="147.99996695999994" height="69.99998354999997" class="text">1619
</text>
<text x="995.9999568" y="559.99999685" width="178.00005152000006" height="32.00000349000004" class="text">REGISTRATION </text>
<text x="1188.00002496" y="556.00001247" width="42.99993552000001" height="29.000002360000053" class="text">No.
</text>
<text x="671.00001064" y="600.99997804" width="212.99999975999992" height="24.999992290000023" class="text">AMENDMENT
</text>
<text x="300.99999988" y="671.99999622" width="25.999997559999997" height="34.99997893" class="text">TO </text>
<text x="346.00000224" y="671.99999622" width="213.00001532000005" height="37.0000225" class="text">SUPPLEMENTAL </text>
<text x="574.00001316" y="671.00001297" width="194.99998948000007" height="36.99999680999997" class="text">REGISTRATION </text>
<text x="785.0000083199999" y="670.0000297199999" width="10.000023000000056" height="35.00005599999997" class="text">( </text>
<text x="822.9999712399999" y="670.0000297199999" width="10.000023000000056" height="35.00005599999997" class="text">) </text>
<text x="846.00004748" y="670.0000297199999" width="153.99990295999987" height="37.000048189999916" class="text">EXEMPTION </text>
<text x="1019.00003304" y="668.9999693999999" width="9.999929640000005" height="34.99995323999997" class="text">( </text>
<text x="1039.99996464" y="668.9999693999999" width="10.000023000000056" height="34.99995323999997" class="text">✗</text>
<text x="1057.9999749199999" y="668.9999693999999" width="10.000023000000056" height="34.99995323999997" class="text">) </text>
<text x="1076.9999486" y="668.9999693999999" width="166.00007060000007" height="36.99997111999994" class="text">STATEMENT
</text>
<text x="682.0000126" y="699.00003208" width="6.999961640000038" height="26.00005261000001" class="text">(</text>
<text x="691.99998892" y="699.00003208" width="90.99998368000001" height="26.00005261000001" class="text">Indicate </text>
<text x="795.00003132" y="697.99997176" width="66.99997515999996" height="25.999975540000037" class="text">which</text>
<text x="866.0000001200001" y="697.99997176" width="7.000008319999893" height="25.999975540000037" class="text">)
</text>
<text x="553.99999828" y="761.99995305" width="117.99999132000005" height="39.99997225000004" class="text">NUMBER </text>
<text x="687.99999528" y="760.0000122399999" width="73.00002008000001" height="39.000014689999944" class="text">1619 </text>
<text x="782.9999726" y="757.9999686699999" width="76.99999816000002" height="37.99992868000004" class="text">FILED </text>
<text x="891.0000187200001" y="756.00002786" width="40.99997759999985" height="38.00003144000016" class="text">17 </text>
<text x="946.9999919200001" y="756.00002786" width="91.00001480000003" height="39.000014689999944" class="text">April </text>
<text x="1060.00001064" y="753.99998429" width="66.00001176" height="38.99998900000003" class="text">1964
</text>
<text x="585.99997852" y="910.99997492" width="108.00001499999996" height="29.00000235999994" class="text">Pursuant </text>
<text x="704.9999954799999" y="910.99997492" width="16.999984640000093" height="29.00000235999994" class="text">to </text>
<text x="737.0000224" y="910.99997492" width="34.99999491999995" height="29.00000235999994" class="text">the </text>
<text x="781.0000146799999" y="910.99997492" width="92.99997272000007" height="29.00000235999994" class="text">Foreign </text>
<text x="888.9999829999999" y="910.99997492" width="78.00007048000009" height="29.00000235999994" class="text">Agents
</text>
<text x="554.99997724" y="942.9999784099999" width="148.0000136399999" height="29.99998560999984" class="text">Registration </text>
<text x="713.99999284" y="941.00001191" width="43.00002888000006" height="27.00003585999991" class="text">Act </text>
<text x="765.000009" y="941.00001191" width="19.999999319999915" height="28.000019109999926" class="text">of </text>
<text x="796.00001028" y="940.00002866" width="51.99997956000004" height="27.99999342000001" class="text">1938 </text>
<text x="858.00001284" y="940.00002866" width="25.00001860000009" height="27.99999342000001" class="text">as </text>
<text x="892.99996108" y="940.00002866" width="109.00004063999984" height="29.00005374" class="text">Amended
</text>
<text x="150.999998756" y="1093.00003491" width="71.99999288400002" height="28.00001911000004" class="text">Name </text>
<text x="233.9999936" y="1093.00003491" width="21.000009399999982" height="28.00001911000004" class="text">of </text>
<text x="266.99999948" y="1094.99997572" width="123.00002616" height="28.999976670000024" class="text">registrant </text>
<text x="396.99998727999997" y="1094.00001816" width="8.000018399999988" height="28.00001911000004" class="text">(</text>
<text x="405.99998464000004" y="1094.00001816" width="25.99999755999994" height="28.00001911000004" class="text">or </text>
<text x="443.99999424" y="1094.00001816" width="64.00000716000005" height="28.00001911000004" class="text">agent</text>
<text x="508.99998036" y="1094.99997572" width="8.000033959999996" height="27.99999342000001" class="text">)
</text>
<text x="563.9999901599999" y="1087.00000696" width="91.00001480000003" height="32.000003490000154" class="text">Korea </text>
<text x="680.00002356" y="1086.00002371" width="85.99994884" height="33.00003812" class="text">Trade </text>
<text x="789.0000019600001" y="1084.00000583" width="156.00004760000002" height="33.999969989999954" class="text">Promotion </text>
<text x="965.9999811600001" y="1082.00003933" width="109.00002507999989" height="33.00006381000003" class="text">Center
</text>
<text x="153.000004912" y="1183.00001743" width="68.99999220799998" height="28.00001911000004" class="text">Name </text>
<text x="229.99999996" y="1183.00001743" width="25.999997559999997" height="27.000035860000025" class="text">of </text>
<text x="264.00000036" y="1184.99995824" width="82.99999639999999" height="28.999976670000024" class="text">foreign </text>
<text x="355.99999412" y="1184.99995824" width="113.00001872000001" height="27.99991635000015" class="text">principal
</text>
<text x="508.00000140000003" y="1179.0000073600002" width="91.99999376" height="38.00000575000013" class="text">Korea </text>
<text x="623.0000247199999" y="1179.0000073600002" width="86.99997447999999" height="38.00000575000013" class="text">Trade </text>
<text x="728.99998844" y="1179.0000073600002" width="158.00003663999996" height="38.00000575000013" class="text">Promotion </text>
<text x="910.99997136" y="1179.0000073600002" width="197.00004076000005" height="38.00000575000013" class="text">Corporation
</text>
<text x="236.99999272000002" y="1274.00003458" width="42.999997759999985" height="30.0000369899999" class="text">The </text>
<text x="291.99998696" y="1274.00003458" width="99.00000208000006" height="30.0000369899999" class="text">answers </text>
<text x="396.99998727999997" y="1274.00003458" width="22.00000392000004" height="30.0000369899999" class="text">to </text>
<text x="431.00000323999996" y="1274.00003458" width="34.999994920000006" height="30.0000369899999" class="text">the </text>
<text x="475.99997448" y="1274.00003458" width="68.00000080000007" height="30.0000369899999" class="text">items </text>
<text x="552.00000924" y="1274.00003458" width="27.999986599999943" height="30.0000369899999" class="text">of </text>
<text x="583.9999894800001" y="1274.00003458" width="38.000009599999885" height="30.0000369899999" class="text">the </text>
<text x="629.9999863600001" y="1274.00003458" width="65.00001723999992" height="30.0000369899999" class="text">above</text>
<text x="701.00000184" y="1274.00003458" width="8.999997359999952" height="30.0000369899999" class="text">-</text>
<text x="719.99997552" y="1274.00003458" width="115.00006999999994" height="30.0000369899999" class="text">mentioned </text>
<text x="847.00001088" y="1274.00003458" width="120.00004260000003" height="30.0000369899999" class="text">statement </text>
<text x="973.9999684400001" y="1274.00003458" width="63.00007487999994" height="30.0000369899999" class="text">listed </text>
<text x="1049.99998764" y="1274.00003458" width="64.00005383999996" height="30.0000369899999" class="text">below </text>
<text x="1127.99996476" y="1274.00003458" width="38.00005627999985" height="30.0000369899999" class="text">are </text>
<text x="1175.99995068" y="1274.00003458" width="85.00007879999998" height="30.0000369899999" class="text">hereby </text>
<text x="1266.99998104" y="1274.00003458" width="108.00004611999998" height="30.0000369899999" class="text">amended </text>
<text x="1380.9999631599999" y="1274.00003458" width="22.000003920000154" height="30.0000369899999" class="text">to
</text>
<text x="153.000004912" y="1300.00001012" width="53.999996608000004" height="23.00005148000014" class="text">read </text>
<text x="218.00000348000003" y="1300.00001012" width="25.000003039999996" height="23.00005148000014" class="text">as </text>
<text x="252.9999984" y="1300.00001012" width="86.00001108000001" height="23.00005148000014" class="text">follows</text>
<text x="342.0000086" y="1300.00001012" width="5.999982680000016" height="23.00005148000014" class="text">:
</text>
<text x="603.0000098400001" y="1362.0000506" width="7.999987279999914" height="28.000019109999812" class="text">(</text>
<text x="614.99999076" y="1362.0000506" width="69.99998984000013" height="28.000019109999812" class="text">Insert </text>
<text x="693.99999352" y="1362.0000506" width="82.00001743999997" height="28.000019109999812" class="text">proper </text>
<text x="785.0000083199999" y="1362.0000506" width="51.99997956000004" height="28.000019109999812" class="text">item </text>
<text x="847.99998984" y="1362.0000506" width="103.99997468000004" height="28.000019109999812" class="text">numbers</text>
<text x="956.0000515199999" y="1362.0000506" width="7.999971720000076" height="28.000019109999812" class="text">)
</text>
<text x="155.000001732" y="1423.00003076" width="51.999999788000025" height="24.000086109999984" class="text">Item </text>
<text x="219.00001355999999" y="1423.00003076" width="46.99999140000003" height="23.00002579000011" class="text">No.
</text>
<text x="298.99999528" y="1412.99994136" width="8.000018399999988" height="26.999958790000164" class="text">7
</text>
<text x="273.00001328" y="1476.00004216" width="39.99998307999999" height="32.000080560000015" class="text">1. </text>
<text x="332.00000116" y="1476.00004216" width="157.99998996" height="35.000081690000115" class="text">Contacted </text>
<text x="513.99999964" y="1473.00004103" width="163.00000923999994" height="34.00004706000004" class="text">importers </text>
<text x="695.99998256" y="1470.99992039" width="55.00000979999993" height="33.99986723000006" class="text">for </text>
<text x="770.0000127200001" y="1470.00001421" width="217.99997236000002" height="35.00008168999989" class="text">solicitation
</text>
<text x="274.0000078" y="1506.00000208" width="34.999994920000006" height="37.99992868000027" class="text">2. </text>
<text x="326.99999744" y="1506.00000208" width="166.99998732" height="40.99995549999994" class="text">Displayed </text>
<text x="513.99999964" y="1503.00000095" width="106.9999737999999" height="40.00004932000002" class="text">Korean </text>
<text x="642.99997736" y="1501.9999406299999" width="216.9999934" height="42.00001581999982" class="text">merchandises </text>
<text x="880.0000167599999" y="1498.0000333199998" width="32.000026920000096" height="38.00010850999979" class="text">in </text>
<text x="935.99998996" y="1496.9999730000002" width="54.00003084000002" height="38.99998900000014" class="text">our </text>
<text x="1012.0000247199999" y="1496.9999730000002" width="106.99998936000009" height="39.999895180000294" class="text">Center
</text>
<text x="275.00000232" y="1535.99998769" width="36.99999952000002" height="32.99998673999994" class="text">3. </text>
<text x="332.99999568" y="1535.99998769" width="159.00000003999997" height="35.99998786999981" class="text">Collected </text>
<text x="513.00002068" y="1532.99996087" width="128.99997771999995" height="35.99998786999981" class="text">samples </text>
<text x="658.00001964" y="1532.0000546899998" width="70.99996880000003" height="35.00008168999966" class="text">from </text>
<text x="757.0000217200001" y="1529.9999597400001" width="50.99996947999989" height="34.999927550000166" class="text">the </text>
<text x="828.0000372000001" y="1529.0000535600002" width="102.99999572000002" height="35.000081690000115" class="text">market </text>
<text x="954.00000024" y="1526.99993292" width="51.00001616000009" height="33.99986723000006" class="text">and </text>
<text x="1030.000035" y="1526.99993292" width="71.9999322000001" height="34.99992754999994" class="text">sent </text>
<text x="1122.99999216" y="1526.00005243" width="66.99999072000014" height="35.000107380000145" class="text">them </text>
<text x="1208.9999565599999" y="1523.9999317900001" width="37.00009288000001" height="32.99998674000017" class="text">to </text>
<text x="1266.00000208" y="1523.9999317900001" width="87.00002115999996" height="34.999927550000166" class="text">Korea
</text>
<text x="273.00001328" y="1568.00004256" width="37.99999403999999" height="35.000081690000115" class="text">4. </text>
<text x="331.00000664" y="1567.00000793" width="160.99998907999998" height="37.000048189999916" class="text">Collected </text>
<text x="515.99998868" y="1565.00004143" width="88.00000011999998" height="37.000048189999916" class="text">price </text>
<text x="625.00001376" y="1563.99998111" width="218.00001903999998" height="38.999988999999914" class="text">informations </text>
<text x="862.9999854399999" y="1560.0000738" width="49.000058240000044" height="36.00014200999999" class="text">and </text>
<text x="935.99998996" y="1560.0000738" width="72.00004111999999" height="37.00004819000014" class="text">sent </text>
<text x="1027.00002032" y="1557.9999531600001" width="32.00002691999998" height="34.999927550000166" class="text">to </text>
<text x="1082.99999352" y="1557.9999531600001" width="88.00000011999987" height="36.999868360000164" class="text">Korea
</text>
<text x="277.00000692" y="1596.9999678499998" width="34.99999492000006" height="31.999926419999838" class="text">5. </text>
<text x="336.99998932" y="1596.00006167" width="158.00002108" height="34.000021369999786" class="text">Inquiries </text>
<text x="517.99999328" y="1593.99994103" width="69.00001087999999" height="33.999867229999836" class="text">from </text>
<text x="605.9999934" y="1593.00006054" width="71.00001548" height="34.00004706000004" class="text">U.S. </text>
<text x="695.99998256" y="1592.0000002200002" width="107.00003603999994" height="34.00004706000004" class="text">buyers </text>
<text x="822.9999712399999" y="1590.0000337200001" width="75.00005580000004" height="34.00002137000024" class="text">were </text>
<text x="921.00000992" y="1588.9999734" width="198.00000416" height="35.99998787000004" class="text">transmitted </text>
<text x="1141.9999814" y="1585.00006609" width="29.000012239999933" height="32.000080560000015" class="text">to </text>
<text x="1192.0000186" y="1585.00006609" width="73.99998348000008" height="34.00002137000001" class="text">home </text>
<text x="1284.99999132" y="1584.00000577" width="106.99997380000013" height="34.00002137000001" class="text">office
</text>
<text x="275.00000232" y="1626.9999277699999" width="36.99999952000002" height="32.99998673999994" class="text">6. </text>
<text x="331.00000664" y="1626.9999277699999" width="197.00000963999997" height="35.99998786999981" class="text">Distributed </text>
<text x="553.99999828" y="1624.9999869600001" width="212.99999976000004" height="36.00001356000007" class="text">publications </text>
<text x="792.00001664" y="1621.99996014" width="29.999991199999954" height="34.00002137000001" class="text">to </text>
<text x="844.99997516" y="1621.00005396" width="105.00003144000004" height="34.00002137000001" class="text">buyers</text>
<text x="958.9999728399999" y="1619.9999936400002" width="9.000044040000034" height="32.99996105000014" class="text">; </text>
<text x="991.99996316" y="1618.9999590099999" width="9.0000596000001" height="32.99998673999994" class="text">"</text>
<text x="1009.99997344" y="1619.9999936400002" width="84.99998543999993" height="34.999927550000166" class="text">Korea </text>
<text x="1126.0000224" y="1618.00005283" width="84.00000647999991" height="34.00004706000004" class="text">Trade</text>
<text x="1213.00004356" y="1616.99999251" width="8.999950679999984" height="32.99998674000017" class="text">"
</text>
<text x="278.99999596000004" y="1660.00006865" width="32.000011359999974" height="35.00008168999989" class="text">7. </text>
<text x="332.00000116" y="1660.00006865" width="126.00000972000004" height="38.00010851000002" class="text">Engaged </text>
<text x="479.00000472" y="1657.0000418299999" width="31.999980240000014" height="35.00008168999989" class="text">in </text>
<text x="535.0000246" y="1656.0000072" width="88.00000011999998" height="36.00001355999984" class="text">Korea </text>
<text x="642.99997736" y="1654.9999468800002" width="139.00001627999995" height="37.99995437000007" class="text">Pavilion </text>
<text x="811.0000058800001" y="1652.9999803800001" width="123.0000417199999" height="37.99995437000007" class="text">project </text>
<text x="953.00003684" y="1649.99997925" width="37.99996292000003" height="35.99998787000004" class="text">at </text>
<text x="1010.9999524" y="1649.99997925" width="54.000030840000136" height="37.00004819000014" class="text">the </text>
<text x="1083.99995692" y="1649.00007307" width="127.00005092000015" height="38.000108510000246" class="text">World's </text>
<text x="1230.99996048" y="1646.99995243" width="71.00006215999997" height="36.999894049999966" class="text">Fair
</text>
<text x="154.00000409999998" y="1880.00005732" width="54.00000750000001" height="36.00014200999999" class="text">Item </text>
<text x="217.00000896" y="1879.0000226900002" width="49.99999051999998" height="35.99998787000004" class="text">No. </text>
<text x="281.99999507999996" y="1877.0000561900001" width="11.000001960000077" height="34.00002137000001" class="text">1 </text>
<text x="320.00000468" y="1877.0000561900001" width="11.000001959999963" height="34.00002137000001" class="text">(</text>
<text x="336.99998932" y="1875.99999587" width="11.00000196000002" height="34.00002137000001" class="text">c</text>
<text x="360.99998228" y="1875.99999587" width="11.00000196000002" height="34.00002137000001" class="text">) </text>
<text x="403.9999956" y="1875.99999587" width="91.99999376000005" height="37.000048189999916" class="text">Korea </text>
<text x="522.999997" y="1874.00005506" width="82.00001743999997" height="35.99998787000004" class="text">Trade </text>
<text x="625.00001376" y="1871.99993442" width="159.9999945599999" height="37.99995437000007" class="text">Promotion </text>
<text x="811.0000058800001" y="1868.00002711" width="107.99995275999981" height="35.99998786999981" class="text">Center
</text>
<text x="405.99998464000004" y="1905.99995579" width="36.99999951999996" height="32.99996105000014" class="text">10 </text>
<text x="458.99998983999996" y="1905.99995579" width="71.00001548000006" height="34.99992754999994" class="text">West </text>
<text x="557.00001296" y="1905.0000753" width="66.0000117599999" height="35.00010737999992" class="text">56th </text>
<text x="644.000003" y="1904.00001498" width="56.99999883999999" height="35.000081690000115" class="text">St. </text>
<text x="717.00000752" y="1902.99995466" width="51.999995119999994" height="32.99998673999994" class="text">New </text>
<text x="793.999959" y="1902.00004848" width="66.00001176" height="34.00002137000001" class="text">York</text>
<text x="869.0000148" y="1902.00004848" width="8.999966239999935" height="33.00011519000009" class="text">, </text>
<text x="896.99995472" y="1902.00004848" width="76.00003476000006" height="35.000081690000115" class="text">N.Y.
</text>
</g>
<g id="page-1" transform="translate(0, 2589)">
<rect width="1556" height="2569" fill="none" stroke="black" />
<text x="811.0000058800001" y="152.999995974" width="6.000029359999871" height="22.999992393000014" class="text">- </text>
<text x="835.00004552" y="152.999995974" width="5.999936000000048" height="22.999992393000014" class="text">2 </text>
<text x="854.99999816" y="152.999995974" width="6.000044919999937" height="22.999992393000014" class="text">-
</text>
<text x="220.00000808000001" y="286.99999678" width="53.99999971999998" height="38.00000318100001" class="text">Item </text>
<text x="284.00001524" y="288.00000572" width="46.9999914" height="38.000013456999994" class="text">No. </text>
<text x="364.00001252" y="288.99998897" width="10.999986400000012" height="35.99998530100001" class="text">1 </text>
<text x="400.00000196" y="288.99998897" width="11.000001959999963" height="35.99998530100001" class="text">(</text>
<text x="414.00001860000003" y="289.99999791" width="11.00000196000002" height="35.99999557699999" class="text">d</text>
<text x="436.00002252" y="289.99999791" width="11.00000196000002" height="35.99999557699999" class="text">)
</text>
<text x="335.9999948" y="346.00001044000004" width="53.000005199999976" height="29.000002360000053" class="text">Mr. </text>
<text x="407.00001028" y="346.99999369" width="57.999977799999954" height="29.000002359999996" class="text">Hee </text>
<text x="484.00000844" y="348.00000263" width="48.99996487999999" height="29.000002359999996" class="text">Kon </text>
<text x="556.00000288" y="348.99998588" width="53.00000519999992" height="27.99999342000001" class="text">Kim
</text>
<text x="873.00000844" y="467.0000132" width="3.0000146799999357" height="12.999987770000018" class="text">&gt;
</text>
<text x="222.99999164000002" y="915.0000363700001" width="52.00001068" height="28.00001911000004" class="text">Item </text>
<text x="290.99999243999997" y="912.9999928000001" width="45.00000236000005" height="27.000010169999996" class="text">No.
</text>
<text x="229.00000544000002" y="1545.0000167699998" width="49.99999052000001" height="23.999931969999807" class="text">Item </text>
<text x="295.0000172" y="1545.0000167699998" width="44.99998679999999" height="23.999931969999807" class="text">No.
</text>
<text x="416.00000764" y="2211.9999682899997" width="7.999987280000028" height="28.999925289999737" class="text">(</text>
<text x="423.99999492" y="2211.9999682899997" width="16.999984640000037" height="28.999925289999737" class="text">If </text>
<text x="449.99999248" y="2211.9999682899997" width="120.00002704000002" height="31.000020239999685" class="text">additional </text>
<text x="576.99998116" y="2211.00006211" width="70.0000365200001" height="29.000079429999914" class="text">items </text>
<text x="656.00001504" y="2211.00006211" width="36.99999951999996" height="29.000079429999914" class="text">are </text>
<text x="708.99998912" y="2210.00000179" width="15.00002672000005" height="29.000053740000112" class="text">to </text>
<text x="739.9999904" y="2210.00000179" width="23.999992959999986" height="29.000053740000112" class="text">be </text>
<text x="769.00000264" y="2211.00006211" width="108.99997839999992" height="31.000020239999685" class="text">amended</text>
<text x="883.00003144" y="2210.00000179" width="7.999987280000028" height="29.000053740000112" class="text">, </text>
<text x="899.99998496" y="2208.99994147" width="73.00000452000006" height="28.999899599999935" class="text">insert </text>
<text x="983.0000124800001" y="2208.99994147" width="115.99994003999973" height="29.999959920000038" class="text">additional </text>
<text x="1109.99995448" y="2208.00003529" width="67.00006852000001" height="29.000053740000112" class="text">pages </text>
<text x="1186.99995264" y="2208.00003529" width="27.000069879999955" height="29.000053740000112" class="text">as </text>
<text x="1222.9999732" y="2208.00003529" width="79.00004943999988" height="30.000114060000215" class="text">needed</text>
<text x="1309.00003096" y="2207.0000006600003" width="7.999987280000141" height="29.00007943000037" class="text">)
</text>
</g>
<g id="page-2" transform="translate(0, 5178)">
<rect width="1556" height="2569" fill="none" stroke="black" />
<text x="719.99997552" y="147.999997516" width="6.000044919999937" height="21.999993728999996" class="text">- </text>
<text x="743.99998404" y="147.999997516" width="6.000029359999985" height="21.999993728999996" class="text">3 </text>
<text x="765.9999724" y="147.999997516" width="6.000044919999937" height="21.999993728999996" class="text">-
</text>
<text x="193.00000044" y="244.000005417" width="93.99999836" height="30.000003593000002" class="text">Exhibits</text>
<text x="290.99999243999997" y="244.000005417" width="33.00000588" height="30.000003593000002" class="text">.--</text>
<text x="331.00000664" y="244.000005417" width="37.99999403999999" height="30.000003593000002" class="text">The </text>
<text x="380.00000264" y="244.000005417" width="111.00001412" height="30.000003593000002" class="text">following </text>
<text x="499.00000403999996" y="244.000005417" width="119.00000140000003" height="30.000003593000002" class="text">additional </text>
<text x="629.0000074" y="244.000005417" width="22.00000392000004" height="30.000003593000002" class="text">or </text>
<text x="662.00001328" y="244.000005417" width="104.99998476000007" height="30.000003593000002" class="text">amended </text>
<text x="778.99997896" y="244.000005417" width="91.00001480000003" height="30.000003593000002" class="text">exhibits </text>
<text x="880.0000167599999" y="244.000005417" width="37.99996292000003" height="30.000003593000002" class="text">are </text>
<text x="931.9999963199999" y="244.000005417" width="99.00000207999994" height="30.000003593000002" class="text">attached </text>
<text x="1038.99998568" y="244.000005417" width="76.99999816000013" height="30.000003593000002" class="text">hereto </text>
<text x="1129.00003708" y="244.000005417" width="27.99993991999986" height="30.000003593000002" class="text">as </text>
<text x="1173.00002936" y="244.000005417" width="8.999966240000049" height="30.000003593000002" class="text">a </text>
<text x="1197.9999546000001" y="244.000005417" width="53.00005187999977" height="30.000003593000002" class="text">part </text>
<text x="1261.00002948" y="244.000005417" width="27.999955479999926" height="30.000003593000002" class="text">of </text>
<text x="1298.000029" y="244.000005417" width="45.99995020000006" height="30.000003593000002" class="text">this
</text>
<text x="122.00000052" y="302.00000243" width="140.00001079999998" height="28.000019109999982" class="text">amendment </text>
<text x="275.00000232" y="302.00000243" width="7.999987279999971" height="28.000019109999982" class="text">(</text>
<text x="284.00001524" y="302.00000243" width="42.999982200000034" height="28.000019109999982" class="text">list </text>
<text x="336.99998932" y="302.00000243" width="92.00002488000001" height="28.000019109999982" class="text">exhibits </text>
<text x="447.99998788" y="302.00000243" width="93.00001939999999" height="28.000019109999982" class="text">attached</text>
<text x="548.99999456" y="302.00000243" width="8.000018400000044" height="28.000019109999982" class="text">)</text>
<text x="557.00001296" y="302.00000243" width="7.999987279999914" height="28.000019109999982" class="text">.
</text>
<text x="416.9999866" y="456.00001762" width="68.00000080000001" height="33.999995679999984" class="text">NOTE</text>
<text x="491.99999571999996" y="456.00001762" width="34.000015959999985" height="33.999995679999984" class="text">.--</text>
<text x="532.00000992" y="456.00001762" width="42.99996663999991" height="33.999995679999984" class="text">The </text>
<text x="579.99999584" y="456.00001762" width="139.99997968000002" height="33.999995679999984" class="text">amendment </text>
<text x="726.99998384" y="456.00001762" width="49.00002711999991" height="33.999995679999984" class="text">will </text>
<text x="782.9999726" y="456.00001762" width="39.00003523999999" height="33.999995679999984" class="text">not </text>
<text x="828.0000372000001" y="456.00001762" width="24.99992524000004" height="33.999995679999984" class="text">be </text>
<text x="863.9999644" y="456.00001762" width="104.00005248000002" height="33.999995679999984" class="text">accepted </text>
<text x="977.99994652" y="456.00001762" width="39.00003523999999" height="33.999995679999984" class="text">for </text>
<text x="1026.00004136" y="456.00001762" width="60.99994579999998" height="33.999995679999984" class="text">filing
</text>
<text x="524.00002264" y="486.00002892" width="81.99997076" height="31.00002023999997" class="text">unless </text>
<text x="610.99999712" y="486.00002892" width="47.000022520000016" height="31.00002023999997" class="text">both </text>
<text x="673.99997864" y="486.00002892" width="72.00004111999999" height="31.00002023999997" class="text">copies </text>
<text x="761.00001536" y="486.00002892" width="39.99996752000004" height="31.00002023999997" class="text">are </text>
<text x="810.0000269200001" y="486.00002892" width="73.00000451999995" height="31.00002023999997" class="text">signed </text>
<text x="896.99995472" y="486.00002892" width="35.00004159999992" height="31.00002023999997" class="text">and </text>
<text x="946.9999919200001" y="486.00002892" width="66.00001176" height="31.00002023999997" class="text">sworn </text>
<text x="1027.99998372" y="486.00002892" width="18.00001027999997" height="31.00002023999997" class="text">to </text>
<text x="1061.9999685599998" y="486.00002892" width="21.99998836000009" height="31.00002023999997" class="text">as
</text>
<text x="526.99999064" y="515.99998884" width="102.00001676" height="32.99998674" class="text">required </text>
<text x="640.99998832" y="513.99999665" width="64.00000715999988" height="30.99999454999994" class="text">below</text>
<text x="712.0000038000001" y="513.0000134" width="8.999997359999952" height="30.000011299999926" class="text">,
</text>
<text x="197.00000964" y="607.99998924" width="36.99998396000001" height="36.99999680999997" class="text">The </text>
<text x="248.9999892" y="607.99998924" width="145.00003008000002" height="36.99999680999997" class="text">undersigned </text>
<text x="407.99998924000005" y="607.99998924" width="74.99999355999995" height="36.99999680999997" class="text">swear</text>
<text x="486.00001304000006" y="607.99998924" width="10.999986399999955" height="36.99999680999997" class="text">(</text>
<text x="497.9999784" y="607.99998924" width="11.00000196000002" height="36.99999680999997" class="text">s</text>
<text x="511.99999504" y="607.99998924" width="11.00000196000002" height="36.99999680999997" class="text">) </text>
<text x="528.99997968" y="607.99998924" width="33.00000588" height="36.99999680999997" class="text">or </text>
<text x="576.0000021999999" y="607.99998924" width="71.00001548000012" height="36.99999680999997" class="text">affirm</text>
<text x="653.00000036" y="607.99998924" width="11.000001960000077" height="36.99999680999997" class="text">(</text>
<text x="664.00000232" y="607.99998924" width="11.000001959999963" height="36.99999680999997" class="text">s</text>
<text x="678.99999792" y="607.99998924" width="11.000001959999963" height="36.99999680999997" class="text">) </text>
<text x="697.9999871599999" y="607.99998924" width="52.00002624000001" height="36.99999680999997" class="text">that </text>
<text x="759.00001076" y="607.99998924" width="27.999939920000088" height="36.99999680999997" class="text">he </text>
<text x="800.00000392" y="607.99998924" width="41.99995655999999" height="36.99999680999997" class="text">has </text>
<text x="852.9999624400001" y="607.99998924" width="11.00000195999985" height="36.99999680999997" class="text">(</text>
<text x="865.0000211600001" y="607.99998924" width="45.999950199999944" height="36.99999680999997" class="text">they </text>
<text x="925.99996696" y="607.99998924" width="57.00004552000007" height="36.99999680999997" class="text">have</text>
<text x="982.00003352" y="607.99998924" width="11.000001959999963" height="36.99999680999997" class="text">) </text>
<text x="1009.00001004" y="607.99998924" width="47.000006960000064" height="36.99999680999997" class="text">read </text>
<text x="1076.9999486" y="607.99998924" width="32.00002691999998" height="36.99999680999997" class="text">the </text>
<text x="1123.99997112" y="607.99998924" width="139.9999952400001" height="36.99999680999997" class="text">information </text>
<text x="1277.00000404" y="607.99998924" width="43.000028879999945" height="36.99999680999997" class="text">set </text>
<text x="1327.00004124" y="607.99998924" width="57.99991556000009" height="36.99999680999997" class="text">forth
</text>
<text x="122.99999815199999" y="636.00000835" width="22.999998440000013" height="32.00000349000004" class="text">in </text>
<text x="161.99999916" y="636.00000835" width="39.99999864" height="32.00000349000004" class="text">this </text>
<text x="219.00001355999999" y="636.00000835" width="138.99998516000002" height="32.00000349000004" class="text">amendment </text>
<text x="369.9999952" y="636.00000835" width="19.0000048" height="32.00000349000004" class="text">to </text>
<text x="405.00000567999996" y="636.00000835" width="36.99999952000002" height="32.00000349000004" class="text">the </text>
<text x="454.9999962" y="636.00000835" width="161.99999915999996" height="32.00000349000004" class="text">supplemental </text>
<text x="627.99998176" y="636.00000835" width="120.00002703999996" height="32.00000349000004" class="text">statement </text>
<text x="763.0000044000001" y="636.00000835" width="121.00000599999987" height="32.00000349000004" class="text">mentioned </text>
<text x="896.99995472" y="636.00000835" width="65.00003279999987" height="32.00000349000004" class="text">above </text>
<text x="977.99994652" y="641.99998492" width="38.00007184000003" height="33.999995679999984" class="text">and </text>
<text x="1030.9999983999999" y="634.00001616" width="33.99998484000025" height="30.000011299999983" class="text">the </text>
<text x="1081.0000356" y="634.00001616" width="97.99994531999982" height="30.000011299999983" class="text">attached </text>
<text x="1196.00001224" y="634.00001616" width="92.99997271999996" height="30.000011299999983" class="text">exhibits</text>
<text x="1292.99996304" y="634.00001616" width="9.000059599999986" height="30.000011299999983" class="text">, </text>
<text x="1317.0000182400001" y="634.00001616" width="44.99997123999992" height="30.000011299999983" class="text">that
</text>
<text x="124.999994972" y="665.99996827" width="24.000006964000022" height="30.999994549999997" class="text">he </text>
<text x="167.00000288" y="665.99996827" width="17.000000199999988" height="30.999994549999997" class="text">is </text>
<text x="203.99998684" y="665.99996827" width="9.000012919999989" height="30.999994549999997" class="text">(</text>
<text x="212.99999975999998" y="665.99996827" width="47.99998592000003" height="30.999994549999997" class="text">they </text>
<text x="273.00001328" y="665.99996827" width="38.99998856000002" height="30.999994549999997" class="text">are</text>
<text x="319.00001016" y="665.99996827" width="8.999997360000009" height="30.999994549999997" class="text">) </text>
<text x="335.9999948" y="665.99996827" width="102.00001675999994" height="30.999994549999997" class="text">familiar </text>
<text x="449.00001352" y="665.99996827" width="47.99998592000003" height="30.999994549999997" class="text">with </text>
<text x="513.00002068" y="665.99996827" width="35.99997387999997" height="30.999994549999997" class="text">the </text>
<text x="565.9999792" y="665.99996827" width="96.00003407999998" height="30.999994549999997" class="text">contents </text>
<text x="678.00001896" y="665.99996827" width="87.99995344000001" height="30.999994549999997" class="text">thereof </text>
<text x="778.99997896" y="665.99996827" width="39.999998639999944" height="30.999994549999997" class="text">and </text>
<text x="832.99999424" y="665.99996827" width="46.00004356000011" height="30.999994549999997" class="text">that </text>
<text x="890.0000397599999" y="665.99996827" width="56.999952160000134" height="30.999994549999997" class="text">such </text>
<text x="957.9999938799999" y="665.99996827" width="101.00005336000004" height="30.999994549999997" class="text">contents </text>
<text x="1072.99997052" y="665.99996827" width="39.00003523999999" height="30.999994549999997" class="text">are </text>
<text x="1126.9999858" y="665.99996827" width="22.000003919999926" height="30.999994549999997" class="text">in </text>
<text x="1164.99996428" y="665.99996827" width="60.00006020000001" height="30.999994549999997" class="text">their </text>
<text x="1237.9999688" y="665.99996827" width="93.0000660799999" height="30.999994549999997" class="text">entirety
</text>
<text x="123.999995784" y="704.99995727" width="49.000005336" height="42.999973379999915" class="text">true </text>
<text x="187.00000219999998" y="704.99995727" width="44.00000784000002" height="42.999973379999915" class="text">and </text>
<text x="243.00000652000003" y="704.99995727" width="99.9999966" height="42.999973379999915" class="text">accurate </text>
<text x="360.99998228" y="704.99995727" width="21.00000940000001" height="42.999973379999915" class="text">to </text>
<text x="394.00001928" y="704.99995727" width="36.99998395999995" height="42.999973379999915" class="text">the </text>
<text x="443.99999424" y="704.99995727" width="55.00000979999999" height="42.999973379999915" class="text">best </text>
<text x="510.000006" y="704.99995727" width="23.999992959999986" height="42.999973379999915" class="text">of </text>
<text x="548.99999456" y="704.99995727" width="30.00002231999997" height="42.999973379999915" class="text">his </text>
<text x="596.0000015200001" y="704.99995727" width="11.99998091999987" height="42.999973379999915" class="text">(</text>
<text x="605.9999934" y="704.99995727" width="56.00001987999997" height="42.999973379999915" class="text">their</text>
<text x="664.00000232" y="704.99995727" width="11.999980919999985" height="42.999973379999915" class="text">) </text>
<text x="686.0000062400001" y="704.99995727" width="122.99994835999996" height="42.999973379999915" class="text">knowledge </text>
<text x="825.0000225199999" y="704.99995727" width="41.99995655999999" height="42.999973379999915" class="text">and </text>
<text x="880.0000167599999" y="704.99995727" width="65.00003280000021" height="42.999973379999915" class="text">belief</text>
<text x="947.9999708800001" y="704.99995727" width="12.000074279999808" height="42.999973379999915" class="text">, </text>
<text x="969.9999748" y="704.99995727" width="80.00001283999995" height="42.999973379999915" class="text">except </text>
<text x="1061.9999685599998" y="704.99995727" width="47.9999859200002" height="42.999973379999915" class="text">that </text>
<text x="1122.00002876" y="704.99995727" width="34.99994823999987" height="42.999973379999915" class="text">the </text>
<text x="1171.9999726" y="704.99995727" width="144.00006667999992" height="42.999973379999915" class="text">undersigned </text>
<text x="1340.99996452" y="704.99995727" width="54.99999423999998" height="42.999973379999915" class="text">make</text>
<text x="1394.99999536" y="704.99995727" width="11.999965360000033" height="42.999973379999915" class="text">(</text>
<text x="1404.0000393999999" y="704.99995727" width="11.999980920000098" height="42.999973379999915" class="text">s</text>
<text x="1416.99998372" y="704.99995727" width="11.99998091999987" height="42.999973379999915" class="text">)
</text>
<text x="122.00000052" y="728.999992" width="28.999998235999996" height="31.000020240000026" class="text">no </text>
<text x="167.9999974" y="728.999992" width="171.00001208" height="32.999986740000054" class="text">representation </text>
<text x="354.99999959999997" y="728.00000875" width="27.999986600000057" height="31.000020240000026" class="text">as </text>
<text x="397.99999735999995" y="728.00000875" width="17.000000200000045" height="31.000020240000026" class="text">to </text>
<text x="434.00001792" y="728.00000875" width="31.999980239999957" height="31.000020240000026" class="text">the </text>
<text x="484.9999874" y="727.0000255" width="54.00003084000002" height="31.000020240000026" class="text">truth </text>
<text x="557.00001296" y="727.0000255" width="24.000008519999938" height="31.000020240000026" class="text">or </text>
<text x="598.99998508" y="727.0000255" width="107.00002047999999" height="32.00000349000004" class="text">accuracy </text>
<text x="719.0000121200001" y="725.99996518" width="22.999967319999882" height="30.99994317000005" class="text">of </text>
<text x="758.0000006800001" y="727.0000255" width="136.00003271999992" height="33.00003812" class="text">information </text>
<text x="912.00004368" y="725.99996518" width="108.99993172000006" height="31.99997780000001" class="text">contained </text>
<text x="1039.99996464" y="725.00000762" width="17.000031320000062" height="31.000020240000026" class="text">in </text>
<text x="1075.9999852" y="725.00000762" width="39.00003523999999" height="31.000020240000026" class="text">any </text>
<text x="1130.00000048" y="725.00000762" width="84.99998544000005" height="32.00000349000004" class="text">Exhibit </text>
<text x="1233.9999751599998" y="724.00002437" width="9.000044040000148" height="31.000020240000026" class="text">A </text>
<text x="1262.9999874" y="724.00002437" width="49.000058240000044" height="31.000020240000026" class="text">filed </text>
<text x="1328.00000464" y="724.00002437" width="56.99995216000002" height="31.000020240000026" class="text">here-
</text>
<text x="122.99999815199999" y="756.9999854199999" width="49.00000844800002" height="32.99996104999991" class="text">with </text>
<text x="189.0000068" y="756.9999854199999" width="86.99999004" height="32.99996104999991" class="text">insofar </text>
<text x="286.00000428" y="756.9999854199999" width="29.99999120000001" height="32.99996104999991" class="text">as </text>
<text x="330.00001212" y="756.9999854199999" width="50.99998504000001" height="32.99996104999991" class="text">such </text>
<text x="396.99998727999997" y="756.9999854199999" width="138.00003732" height="32.99996104999991" class="text">information </text>
<text x="552.00000924" y="756.9999854199999" width="18.999989239999877" height="32.99996104999991" class="text">is </text>
<text x="583.9999894800001" y="756.9999854199999" width="38.000009599999885" height="32.99996104999991" class="text">not </text>
<text x="627.99998176" y="756.9999854199999" width="71.99999444000002" height="32.99996104999991" class="text">within </text>
<text x="715.99999744" y="756.9999854199999" width="32.99999031999994" height="32.99996104999991" class="text">his </text>
<text x="765.9999724" y="756.9999854199999" width="9.000012919999904" height="32.99996104999991" class="text">(</text>
<text x="776.0000109599999" y="756.9999854199999" width="56.00001988000008" height="32.99996104999991" class="text">their</text>
<text x="836.00002448" y="756.9999854199999" width="8.999950679999984" height="32.99996104999991" class="text">) </text>
<text x="858.00001284" y="756.9999854199999" width="103.99997467999992" height="32.99996104999991" class="text">personal </text>
<text x="972.9999894800001" y="756.9999854199999" width="124.0000206799998" height="32.99996104999991" class="text">knowledge</text>
<text x="1100.0000248400002" y="756.9999854199999" width="8.999950679999756" height="32.99996104999991" class="text">,
</text>
<text x="877.99998104" y="844.00004388" width="9.000044040000034" height="31.000020240000026" class="text">(</text>
<text x="892.99996108" y="844.00004388" width="52.000088480000045" height="31.000020240000026" class="text">Type </text>
<text x="961.0000085600001" y="844.00004388" width="22.00000392000004" height="31.000020240000026" class="text">or </text>
<text x="999.9999504399999" y="844.00004388" width="61.000039160000256" height="31.000020240000026" class="text">print </text>
<text x="1071.99999156" y="844.00004388" width="65.00001724000026" height="31.000020240000026" class="text">name </text>
<text x="1148.99998972" y="844.00004388" width="72.0000411200001" height="31.000020240000026" class="text">under </text>
<text x="1232.9999962000002" y="844.00004388" width="51.00001615999986" height="31.000020240000026" class="text">each </text>
<text x="1302.00002264" y="844.00004388" width="108.99993171999995" height="31.000020240000026" class="text">signature</text>
<text x="1417.99996268" y="844.00004388" width="9.000044040000148" height="31.000020240000026" class="text">)
</text>
<text x="1074.0000272799998" y="963.00000307" width="7.999987280000141" height="27.000035860000025" class="text">(</text>
<text x="1082.99999352" y="963.00000307" width="114.99996108000005" height="29.000002360000053" class="text">Signature
</text>
<text x="934.0000476" y="998.99999094" width="58.999987879999935" height="29.999959919999924" class="text">Hee </text>
<text x="1013.0000036800001" y="998.99999094" width="51.00000059999991" height="29.999959919999924" class="text">Kon </text>
<text x="1087.9999505600001" y="998.99999094" width="55.00000980000004" height="29.999959919999924" class="text">Kim
</text>
<text x="1074.0000272799998" y="1084.00000583" width="7.999987280000141" height="28.00001911000004" class="text">(</text>
<text x="1085.00002924" y="1084.00000583" width="106.99998935999997" height="28.00001911000004" class="text">Signature</text>
<text x="1197.9999546000001" y="1084.00000583" width="8.000080639999851" height="28.00001911000004" class="text">)
</text>
<text x="195.00000504000002" y="965.00002095" width="7.999987279999999" height="29.00005374" class="text">(</text>
<text x="202.99999232000002" y="965.00002095" width="17.000015759999997" height="29.00005374" class="text">If </text>
<text x="236.99999272000002" y="965.00002095" width="37.00001507999997" height="29.00005374" class="text">the </text>
<text x="290.99999243999997" y="965.00002095" width="66.00001176000006" height="29.00005374" class="text">agent </text>
<text x="373.00000988" y="965.00002095" width="21.999972800000023" height="29.00005374" class="text">is </text>
<text x="418.00001224" y="965.00002095" width="7.999987279999971" height="29.00005374" class="text">a </text>
<text x="449.00001352" y="965.00002095" width="133.99999699999995" height="29.00005374" class="text">partnership</text>
<text x="588.9999932" y="965.00002095" width="7.999987280000028" height="29.00005374" class="text">, </text>
<text x="613.00000172" y="965.00002095" width="139.00000072" height="29.00005374" class="text">corporation</text>
<text x="757.0000217200001" y="965.00002095" width="7.999987279999914" height="29.00005374" class="text">,
</text>
<text x="123.999995784" y="994.0000233100001" width="134.00000633599996" height="28.00001911000004" class="text">association</text>
<text x="265.00001044" y="992.99996299" width="6.999977200000046" height="25.999975539999923" class="text">, </text>
<text x="288.00000888" y="992.99996299" width="27.9999866" height="25.999975539999923" class="text">or </text>
<text x="335.00000028" y="992.99996299" width="61.00000804000001" height="25.999975539999923" class="text">other </text>
<text x="416.00000764" y="992.99996299" width="143.99998888" height="27.99994203999995" class="text">combination </text>
<text x="579.99999584" y="991.9999797400001" width="23.999992959999986" height="25.999975540000037" class="text">of </text>
<text x="620.00001004" y="991.9999797400001" width="127.99999875999993" height="27.99999342000001" class="text">individuals</text>
<text x="752.9999813999999" y="990.9999964900001" width="7.00000832000012" height="25.999975540000037" class="text">,
</text>
<text x="124.999994972" y="1024.99996648" width="43.000002428000016" height="29.000002360000053" class="text">this </text>
<text x="187.00000219999998" y="1024.99996648" width="143.00000992000002" height="29.000002360000053" class="text">amendment </text>
<text x="343.00000312000003" y="1024.99996648" width="58.99998787999999" height="29.000002360000053" class="text">shall </text>
<text x="422.00000588" y="1024.99996648" width="21.999988359999975" height="29.000002360000053" class="text">be </text>
<text x="464.99998808" y="1024.99996648" width="80.00001284000007" height="29.000002360000053" class="text">signed </text>
<text x="561.0000066" y="1024.99996648" width="42.00000324000007" height="29.000002360000053" class="text">and </text>
<text x="623.0000247199999" y="1024.99996648" width="66.99997516000008" height="29.000002360000053" class="text">sworn </text>
<text x="709.9999991999999" y="1024.99996648" width="20.99997828000005" height="29.000002360000053" class="text">to
</text>
<text x="124.999994972" y="1056.99996997" width="73.000009188" height="29.000002359999826" class="text">before </text>
<text x="221.99999712" y="1055.99998672" width="8.000002840000008" height="28.999976670000024" class="text">a </text>
<text x="251.00000936" y="1055.99998672" width="75.99998808000001" height="28.999976670000024" class="text">notary </text>
<text x="347.99999128" y="1055.99998672" width="68.00001635999996" height="29.999959920000038" class="text">public</text>
<text x="422.00000588" y="1055.00000347" width="7.999971719999962" height="28.999976670000024" class="text">, </text>
<text x="445.99999884000005" y="1055.00000347" width="27.00000763999998" height="28.999976670000024" class="text">or </text>
<text x="493.99998476" y="1055.00000347" width="63.00002820000003" height="30.0000369899999" class="text">other </text>
<text x="574.9999765599999" y="1054.00002022" width="81.00003848000006" height="30.0000369899999" class="text">officer </text>
<text x="673.00001524" y="1052.99998559" width="77.99997711999993" height="29.000002360000053" class="text">author-
</text>
<text x="123.999995784" y="1084.9999633900002" width="49.999999856" height="28.99997667000025" class="text">ized </text>
<text x="192.00000592" y="1084.9999633900002" width="21.999988360000003" height="28.99997667000025" class="text">to </text>
<text x="236.99999272000002" y="1084.9999633900002" width="130.00000336" height="28.99997667000025" class="text">administer </text>
<text x="382.9999862" y="1084.9999633900002" width="65.00000167999997" height="28.99997667000025" class="text">oaths</text>
<text x="449.00001352" y="1084.9999633900002" width="7.999987280000028" height="28.99997667000025" class="text">, </text>
<text x="473.00000648" y="1084.9999633900002" width="25.99999755999994" height="28.99997667000025" class="text">by </text>
<text x="521.00000796" y="1084.9999633900002" width="7.999971720000076" height="28.99997667000025" class="text">a </text>
<text x="559.99999652" y="1084.9999633900002" width="95.00000843999999" height="28.99997667000025" class="text">majority </text>
<text x="673.00001524" y="1084.9999633900002" width="25.99998199999993" height="28.99997667000025" class="text">of </text>
<text x="715.00001848" y="1084.9999633900002" width="62.999981520000006" height="28.99997667000025" class="text">those
</text>
<text x="124.999994972" y="1118.0000272" width="104.00001046800003" height="29.000053740000112" class="text">partners</text>
<text x="231.00001004" y="1116.9999668799999" width="8.00000283999998" height="28.999976670000024" class="text">, </text>
<text x="258.99999664" y="1116.9999668799999" width="89.99998915999998" height="28.999976670000024" class="text">officers</text>
<text x="355.99999412" y="1116.9999668799999" width="8.000018399999988" height="28.999976670000024" class="text">, </text>
<text x="380.00000264" y="1116.9999668799999" width="113.00001871999996" height="29.99995991999981" class="text">directors</text>
<text x="495.0000104" y="1115.9999836299999" width="7.999987279999971" height="28.999976669999796" class="text">, </text>
<text x="521.99997136" y="1115.9999836299999" width="26.000044239999966" height="28.999976669999796" class="text">or </text>
<text x="563.9999901599999" y="1115.9999836299999" width="96.99999748000005" height="28.999976669999796" class="text">persons </text>
<text x="678.00001896" y="1115.9999836299999" width="40.99999316000003" height="29.99995991999981" class="text">per-
</text>
<text x="124.999994972" y="1146.00004631" width="93.00000850800004" height="29.00007943000014" class="text">forming </text>
<text x="240.00000740000002" y="1144.99998599" width="90.00000471999999" height="26.999958789999937" class="text">similar </text>
<text x="349.99999588000003" y="1144.99998599" width="107.00000491999998" height="29.000002360000053" class="text">functions </text>
<text x="473.00000648" y="1144.00000274" width="45.999996880000026" height="27.000035860000025" class="text">who </text>
<text x="539.00001824" y="1144.00000274" width="36.999983959999895" height="27.000035860000025" class="text">are </text>
<text x="598.00000612" y="1143.0000194899999" width="18.00001027999997" height="27.000035860000025" class="text">in </text>
<text x="638.00002032" y="1143.0000194899999" width="34.99999492000006" height="27.000035860000025" class="text">the </text>
<text x="691.00002552" y="1143.0000194899999" width="78.99998720000008" height="27.000035860000025" class="text">United
</text>
<text x="126.00000349599999" y="1176.00000623" width="72.00000066400001" height="29.999959920000038" class="text">States</text>
<text x="198.99999867999998" y="1176.00000623" width="9.000012920000017" height="29.999959920000038" class="text">. </text>
<text x="235.00000368" y="1176.00000623" width="17.000000199999988" height="29.999959920000038" class="text">If </text>
<text x="268.99998852" y="1176.00000623" width="28.000017720000017" height="29.999959920000038" class="text">no </text>
<text x="318.00001564" y="1176.00000623" width="48.99998044" height="29.999959920000038" class="text">such </text>
<text x="390.00002564" y="1176.00000623" width="75.99997251999997" height="29.999959920000038" class="text">person </text>
<text x="489.99999112" y="1176.00000623" width="17.000000200000045" height="29.999959920000038" class="text">is </text>
<text x="528.00001628" y="1176.00000623" width="21.99998836000009" height="29.999959920000038" class="text">in </text>
<text x="570.9999984799999" y="1176.00000623" width="34.99999492000006" height="29.999959920000038" class="text">the </text>
<text x="625.99999272" y="1176.00000623" width="76.0000192" height="29.999959920000038" class="text">United </text>
<text x="709.9999991999999" y="1176.00000623" width="71.00001548" height="29.999959920000038" class="text">States</text>
<text x="786.9999506800001" y="1176.00000623" width="9.000059599999872" height="29.999959920000038" class="text">,
</text>
<text x="124.999994972" y="1205.9999661499999" width="37.00000418799999" height="28.999976669999796" class="text">the </text>
<text x="176.00000024" y="1205.9999661499999" width="141.00000531999999" height="28.999976669999796" class="text">amendment </text>
<text x="335.00000028" y="1205.9999661499999" width="59.99998240000002" height="28.999976669999796" class="text">shall </text>
<text x="409.99997828" y="1205.9999661499999" width="26.000044240000022" height="28.999976669999796" class="text">be </text>
<text x="457.0000008" y="1205.9999661499999" width="75.99997251999997" height="28.999976669999796" class="text">signed </text>
<text x="552.9999882" y="1205.9999661499999" width="38.00000960000011" height="28.999976669999796" class="text">and </text>
<text x="609.99998704" y="1205.9999661499999" width="69.0000108800001" height="28.999976669999796" class="text">sworn </text>
<text x="702.00001192" y="1205.9999661499999" width="19.999968200000012" height="28.999976669999796" class="text">to </text>
<text x="743.0000050799999" y="1205.9999661499999" width="27.999986600000057" height="28.999976669999796" class="text">by
</text>
<text x="123.999995784" y="1236.00000314" width="33.99999417599999" height="30.000036990000126" class="text">the </text>
<text x="181.00000396000002" y="1236.00000314" width="44.999986800000016" height="30.000036990000126" class="text">duly </text>
<text x="249.99998372000002" y="1236.00000314" width="126.00002528000002" height="30.000036990000126" class="text">authorized </text>
<text x="392.99999363999996" y="1236.00000314" width="172.99998556000003" height="30.000036990000126" class="text">representative </text>
<text x="588.9999932" y="1236.00000314" width="22.00000392000004" height="30.000036990000126" class="text">of </text>
<text x="629.0000074" y="1236.00000314" width="34.99999492000006" height="30.000036990000126" class="text">the </text>
<text x="684.9999806000001" y="1236.00000314" width="66.0000117599999" height="30.000036990000126" class="text">agent</text>
<text x="748.99998776" y="1236.00000314" width="9.000012920000131" height="30.000036990000126" class="text">.</text>
<text x="758.0000006800001" y="1236.00000314" width="8.999997359999952" height="30.000036990000126" class="text">)
</text>
<text x="1075.9999852" y="1203.99999965" width="7.999971719999849" height="28.999976670000024" class="text">(</text>
<text x="1082.00001456" y="1203.99999965" width="114.99997663999989" height="28.999976670000024" class="text">Signature</text>
<text x="1200.0000058800001" y="1203.99999965" width="7.999971719999849" height="28.999976670000024" class="text">)
</text>
<text x="1075.9999852" y="1323.0000616" width="9.00004403999992" height="30.000139750000017" class="text">(</text>
<text x="1085.00002924" y="1323.0000616" width="111.99996195999984" height="30.000139750000017" class="text">Signature</text>
<text x="1199.00002692" y="1323.9999420899999" width="8.999950679999984" height="29.999959920000038" class="text">)
</text>
<text x="1076.9999486" y="1440.99996047" width="8.000080640000078" height="28.000019109999812" class="text">(</text>
<text x="1086.99998716" y="1440.99996047" width="112.00003975999994" height="29.999959920000038" class="text">Signature</text>
<text x="1203.00002056" y="1440.00005429" width="7.999987280000141" height="28.00001911000004" class="text">)
</text>
<text x="195.00000504000002" y="1652.9999803800001" width="126.99998868" height="27.99999342000001" class="text">Subscribed </text>
<text x="344.99999216000003" y="1652.9999803800001" width="36.99999951999996" height="27.99999342000001" class="text">and </text>
<text x="405.00000567999996" y="1652.9999803800001" width="64.99998612000002" height="27.99999342000001" class="text">sworn </text>
<text x="493.00002135999995" y="1652.9999803800001" width="17.999963600000058" height="27.99999342000001" class="text">to </text>
<text x="530.9999842799999" y="1652.9999803800001" width="80.00001284000007" height="27.99999342000001" class="text">before </text>
<text x="634.99999008" y="1652.9999803800001" width="29.999991199999954" height="27.99999342000001" class="text">me </text>
<text x="682.99999156" y="1652.9999803800001" width="25.999997559999997" height="27.99999342000001" class="text">at
</text>
<text x="126.00000349599999" y="1713.99996054" width="40.99999938400002" height="51.99995108000007" class="text">this </text>
<text x="221.0000026" y="1716.99998736" width="76.00000364000002" height="53.999917579999874" class="text">27th </text>
<text x="346.99999676" y="1716.99998736" width="45.99999687999997" height="53.00001139999995" class="text">day </text>
<text x="405.00000567999996" y="1716.99998736" width="29.000012240000046" height="51.99995108000007" class="text">of
</text>
<text x="506.00001235999997" y="1735.9999516999999" width="95.00000844000004" height="82.99997131999976" class="text">July
</text>
<text x="743.0000050799999" y="1666.9999770900001" width="59.00003456000002" height="67.9998886000003" class="text">New </text>
<text x="829.00001616" y="1663.99997596" width="76.99999816000013" height="70.00003493000008" class="text">York</text>
<text x="928.00001824" y="1660.00006865" width="21.999988359999975" height="67.00000810999995" class="text">, </text>
<text x="965.0000022" y="1659.00000833" width="110.99998300000004" height="70.00003492999986" class="text">ny</text>
<text x="1071.99999156" y="1654.0000407" width="22.000003920000154" height="67.00000810999995" class="text">.
</text>
<text x="770.0000127200001" y="1726.00001644" width="87.00003671999991" height="74.00009638000006" class="text">1964
</text>
<text x="965.0000022" y="1929.00000727" width="150.9999816400001" height="143.00004529999978" class="text">John </text>
<text x="1170.00001468" y="1911.9999837399998" width="84.00000647999991" height="137.99992352999993" class="text">Lee
</text>
<text x="942.9999982800001" y="1955.00005988" width="7.999987279999914" height="27.000112930000114" class="text">(</text>
<text x="950.0000066" y="1955.00005988" width="84.00002203999998" height="29.000053739999885" class="text">Notary </text>
<text x="1049.00000868" y="1953.99999956" width="25.00001859999975" height="26.999958790000164" class="text">or </text>
<text x="1090.00000184" y="1953.99999956" width="62.99998151999989" height="27.99999342000001" class="text">other </text>
<text x="1169.00003572" y="1952.99993924" width="77.00001371999997" height="27.99999342000001" class="text">officer</text>
<text x="1251.00000648" y="1952.99993924" width="7.999987280000141" height="26.999933099999907" class="text">)
</text>
<text x="172.0000066" y="1937.00000172" width="118.99998583999997" height="65.00006729999996" class="text">notary </text>
<text x="301.9999944" y="1933.9999749" width="101.00002224000002" height="64.00000698000008" class="text">Public </text>
<text x="416.9999866" y="1930.99997377" width="19.000035920000016" height="61.00000584999998" class="text">of </text>
<text x="451.99998152000006" y="1930.0000675899998" width="33.00000587999995" height="62.000040479999825" class="text">the </text>
<text x="513.00002068" y="1929.00000727" width="68.00000079999995" height="64.00000698000008" class="text">state
</text>
<text x="618.00000544" y="1910.00004293" width="23.999992959999986" height="41.00010964000012" class="text">on </text>
<text x="666.00000692" y="1910.99994911" width="12.999991000000023" height="40.99998118999997" class="text">y
</text>
<text x="181.00000396000002" y="1971.9999292700002" width="275.99999684" height="44.999888500000225" class="text">31-2292175</text>
<text x="460.99999444" y="1969.9999627700001" width="12.000012040000001" height="42.9999220000002" class="text">.
</text>
<text x="187.00000219999998" y="2038.0000312000002" width="122.99999503999999" height="71.99997574000031" class="text">qualified </text>
<text x="320.9999992" y="2032.00000325" width="34.999994920000006" height="67.00000810999995" class="text">in </text>
<text x="366.99999608" y="2030.00006244" width="40.99999316000003" height="68.00006843000006" class="text">the </text>
<text x="407.99998924000005" y="2029.0000021199999" width="83.00002751999995" height="70.00003492999986" class="text">County </text>
<text x="502.00001872" y="2024.99994067" width="16.999984640000037" height="67.99991428999988" class="text">of </text>
<text x="537.0000136399999" y="2024.00003449" width="53.99998416000017" height="68.99997460999998" class="text">New </text>
<text x="605.9999934" y="2019.99997304" width="89.00001020000002" height="70.00003493000008" class="text">York
</text>
<text x="486.99997643999995" y="2074.99992525" width="106.00001040000006" height="62.999946660000205" class="text">March </text>
<text x="666.00000692" y="2072.99995875" width="56.99999883999999" height="62.00004048000005" class="text">31
</text>
<text x="942.9999982800001" y="2074.99992525" width="72.00004111999988" height="58.99988521" class="text">1965
</text>
<text x="122.99999815199999" y="2077.99992638" width="41.00000560800001" height="27.99999342000001" class="text">My </text>
<text x="179.99999388" y="2080.00004702" width="144.00000443999997" height="30.00011405999976" class="text">commission </text>
<text x="343.00000312000003" y="2078.9999867" width="90.00000471999994" height="27.99999342000001" class="text">expires
</text>
</g>
</svg>
