<svg xmlns="http://www.w3.org/2000/svg">
<style>.text { font-size: 14px; font-family: Arial, sans-serif; }</style>
<g id="page-0" transform="translate(0, 0)">
<rect width="1556" height="2569" fill="none" stroke="black" />
<text x="987.0000061200001" y="166.000001727" width="87.00002115999973" height="30.00000359300003" class="text">Budget </text>
<text x="1082.99999352" y="164.00000696799998" width="83.00002751999978" height="30.000003592999974" class="text">Bureau </text>
<text x="1171.9999726" y="160.999995562" width="47.99998591999997" height="27.999998558000016" class="text">No. </text>
<text x="1225.99998788" y="159.999996898" width="25.99999756000011" height="27.999998558000016" class="text">43</text>
<text x="1254.00002116" y="159.00000080299998" width="8.999966240000049" height="27.000002462999987" class="text">-</text>
<text x="1266.99998104" y="159.00000080299998" width="80.00001283999995" height="28.99999722199999" class="text">R226,3
</text>
<text x="988.9999484800001" y="198.000002648" width="110.0000040399998" height="32.00000092099998" class="text">Approval </text>
<text x="1107.00003316" y="195.000009225" width="95.0000084400001" height="30.000003593000002" class="text">Expires </text>
<text x="1214.99998592" y="192.999993914" width="92.99997271999996" height="30.999999687999974" class="text">January </text>
<text x="1320.00003292" y="190.00000305999998" width="26.999960959999953" height="29.000007497999974" class="text">31</text>
<text x="1347.99997284" y="189.000004396" width="9.00004403999992" height="28.000008834" class="text">, </text>
<text x="1365.99998312" y="189.000004396" width="51.00000060000002" height="29.000007498000002" class="text">1968
</text>
<text x="613.00000172" y="266.99999781" width="8.999997359999952" height="28.99999722200002" class="text">(</text>
<text x="624.0000036800001" y="266.99999781" width="47.99998591999997" height="30.99999198100005" class="text">File </text>
<text x="682.0000126" y="265.00000562" width="42.00000324000007" height="29.999995886000022" class="text">two </text>
<text x="732.99998208" y="265.00000562" width="106.00005708000003" height="32.00001119700002" class="text">complete </text>
<text x="851.9999834800001" y="262.00000449000004" width="76.00003475999995" height="30.000008731000065" class="text">copies</text>
<text x="931.9999963199999" y="260.99999555" width="8.999966240000049" height="28.999999791000022" class="text">)
</text>
<text x="484.00000844" y="421.00001299999997" width="99.00000207999994" height="27.000010169999996" class="text">UNITED </text>
<text x="598.00000612" y="417.99998617999995" width="99.00000208000006" height="25.999975539999923" class="text">STATES </text>
<text x="709.9999991999999" y="415.99999399" width="191.0000425200002" height="30.00001130000004" class="text">DEPARTMENT </text>
<text x="913.00002264" y="410.00001742" width="30.99995459999991" height="25.000017979999996" class="text">OF </text>
<text x="961.0000085600001" y="410.00001742" width="106.00001039999995" height="28.000019109999982" class="text">JUSTICE
</text>
<text x="649.00000672" y="481.00000991" width="166.99995620000004" height="31.00002023999997" class="text">WASHINGTON</text>
<text x="824.0000435599999" y="476.99997414999996" width="8.999950680000097" height="26.99998447999991" class="text">, </text>
<text x="844.99997516" y="476.99997414999996" width="29.999991200000068" height="27.999967729999923" class="text">D. </text>
<text x="877.99998104" y="475.9999909" width="31.000047960000074" height="27.99999342000001" class="text">C.
</text>
<text x="265.00001044" y="458.00000981000005" width="38.99998856000002" height="13.000039150000077" class="text">1 </text>
<text x="259.99999116" y="550.9999934599999" width="39.00000412000003" height="12.999987769999962" class="text">1
</text>
<text x="701.00000184" y="552.99998565" width="64.99997056000007" height="24.999992290000023" class="text">Form </text>
<text x="778.0" y="550.9999934599999" width="33.99996928000007" height="23.99998334999998" class="text">FA</text>
<text x="817.00003524" y="550.00001021" width="5.999935999999934" height="23.00000010000008" class="text">-</text>
<text x="829.99997956" y="550.00001021" width="22.99998288000006" height="23.00000010000008" class="text">11
</text>
<text x="675.99998324" y="631.99999828" width="211.00004184" height="27.99999342000001" class="text">AMENDMENT
</text>
<text x="303.999999" y="704.99995727" width="28.99999667999998" height="30.999943169999938" class="text">TO </text>
<text x="353.00001056" y="703.9999997100001" width="212.99996863999996" height="35.00003031000017" class="text">SUPPLEMENTAL </text>
<text x="583.0000105199999" y="699.00003208" width="189.00000680000005" height="34.00004706000004" class="text">REGISTRATION </text>
<text x="792.00001664" y="693.99998738" width="8.999966240000049" height="29.000002360000053" class="text">( </text>
<text x="829.00001616" y="693.00000413" width="8.999950679999984" height="29.00000235999994" class="text">) </text>
<text x="850.0000411200001" y="693.00000413" width="153.99999631999992" height="32.99998673999994" class="text">EXEMPTION </text>
<text x="1023.99999008" y="688.0000365" width="8.999966239999935" height="29.000079429999914" class="text">( </text>
<text x="1060.9999896000002" y="688.0000365" width="9.000044039999693" height="29.000079429999914" class="text">) </text>
<text x="1082.00001456" y="686.9999761800001" width="164.00003487999993" height="32.99998674000017" class="text">STATEMENT
</text>
<text x="686.9999852" y="731.9999931299999" width="8.000018400000044" height="25.999975539999923" class="text">(</text>
<text x="697.0000082" y="731.9999931299999" width="91.99999376000005" height="28.999976669999796" class="text">Indicate </text>
<text x="796.99998924" y="728.999992" width="69.0000108800001" height="28.000019109999926" class="text">which</text>
<text x="870.9999727200001" y="727.0000255" width="8.000065080000013" height="26.000052609999898" class="text">)
</text>
<text x="702.00001192" y="766.00004019" width="53.99998415999994" height="37.00004819000003" class="text">769
</text>
<text x="565.00000024" y="792.00001573" width="112.00000864000003" height="24.99999228999991" class="text">NUMBER
</text>
<text x="788.000023" y="795.0000168600001" width="78.99995607999983" height="42.000015820000044" class="text">FILED </text>
<text x="902.0000206799999" y="788.99998891" width="124.00002068000015" height="43.99995662999993" class="text">1/31/67
</text>
<text x="697.9999871599999" y="795.0000168600001" width="54.99999423999998" height="42.99999907000006" class="text">796
</text>
<text x="596.99998048" y="947.00003986" width="110.00000404000002" height="29.000079430000028" class="text">Pursuant </text>
<text x="715.00001848" y="944.99999629" width="18.99997368000004" height="27.000035860000025" class="text">to </text>
<text x="744.99999412" y="944.99999629" width="37.99997847999998" height="27.999993420000123" class="text">the </text>
<text x="789.99998092" y="944.99999629" width="95.00000843999999" height="28.99997666999991" class="text">Foreign </text>
<text x="899.99998496" y="942.9999784099999" width="75.00004023999998" height="29.000002359999826" class="text">Agents
</text>
<text x="565.00000024" y="980.0000266000001" width="148.99999260000004" height="32.00000349000004" class="text">Registration </text>
<text x="724.0000158400001" y="974.9999819" width="44.00000783999997" height="29.00000235999994" class="text">Act </text>
<text x="774.99998532" y="973.0000153999999" width="21.00002496000002" height="28.000019109999926" class="text">of </text>
<text x="806.00003328" y="973.0000153999999" width="52.99995851999995" height="30.000036990000012" class="text">1938 </text>
<text x="868.0000514000001" y="970.9999718299999" width="25.99998199999993" height="28.999976670000024" class="text">as </text>
<text x="902.9999996399999" y="969.9999885799999" width="106.00001040000006" height="31.000020239999913" class="text">Amended
</text>
<text x="170.000002" y="1141.00000161" width="65.9999962" height="29.000002360000053" class="text">Name </text>
<text x="245.99999007999998" y="1140.00001836" width="25.000003040000024" height="27.000035860000025" class="text">of </text>
<text x="278.00000144" y="1140.00001836" width="125.99999415999997" height="30.0000369899999" class="text">registrant </text>
<text x="412.99999296000004" y="1137.9999747900001" width="7.999987279999971" height="26.999958790000164" class="text">(</text>
<text x="418.00001224" y="1137.9999747900001" width="29.000012240000046" height="27.99999342000001" class="text">or </text>
<text x="457.0000008" y="1137.9999747900001" width="64.99997056000001" height="28.999976670000024" class="text">agent</text>
<text x="522.999997" y="1136.0000339800001" width="7.999987279999914" height="27.000035860000025" class="text">)
</text>
<text x="574.9999765599999" y="1133.00000716" width="86.00001108000004" height="37.000048189999916" class="text">Japan </text>
<text x="684.0000172" y="1130.99998928" width="148.99997703999998" height="37.99995436999984" class="text">National </text>
<text x="851.9999834800001" y="1129.0000227799999" width="124.00002067999992" height="38.00003143999993" class="text">Tourist </text>
<text x="998.99998704" y="1125.99999596" width="212.99998419999997" height="38.999988999999914" class="text">Organization
</text>
<text x="170.000002" y="1233.99998526" width="69.00001087999999" height="30.999943169999824" class="text">Name </text>
<text x="249.99998372000002" y="1233.00000201" width="20.00001488000001" height="29.000002359999826" class="text">of </text>
<text x="278.99999596000004" y="1233.00000201" width="80.99999179999998" height="31.000020239999913" class="text">foreign </text>
<text x="373.00000988" y="1232.00001876" width="113.99996655999996" height="31.00002024000014" class="text">principal
</text>
<text x="258.00000212" y="1322.00000128" width="40.99999316000003" height="28.000019110000267" class="text">The </text>
<text x="307.00001368" y="1320.99994096" width="100.99997556000005" height="28.999899599999935" class="text">answers </text>
<text x="418.00001224" y="1317.99993983" width="19.999999319999972" height="25.999898469999835" class="text">to </text>
<text x="449.00001352" y="1317.99993983" width="33.999969280000016" height="27.999864969999862" class="text">the </text>
<text x="493.00002135999995" y="1317.00003365" width="68.99996420000008" height="28.000019109999812" class="text">items </text>
<text x="574.00001316" y="1315.00006715" width="19.99999932000003" height="26.000052609999784" class="text">of </text>
<text x="601.99999976" y="1315.00006715" width="38.0000096" height="27.99999342000001" class="text">the </text>
<text x="647.99999664" y="1314.00000683" width="67.00002184000004" height="27.99999342000001" class="text">above</text>
<text x="717.9999864800001" y="1312.0000660199998" width="8.000033959999882" height="26.000052609999784" class="text">-</text>
<text x="735.0000178" y="1312.0000660199998" width="117.99994464000008" height="28.0000961799999" class="text">mentioned </text>
<text x="861.00004308" y="1309.9999453799999" width="121.99996940000017" height="28.999899599999935" class="text">statement </text>
<text x="990.99999976" y="1306.99994425" width="63.99996048000003" height="27.99994203999995" class="text">listed </text>
<text x="1067.00001896" y="1306.00003807" width="60.99994579999998" height="28.00001911000004" class="text">below </text>
<text x="1144.99999608" y="1303.99991743" width="37.999962919999916" height="27.99991635000015" class="text">are </text>
<text x="1193.99996096" y="1303.0000112500002" width="80.00002840000002" height="28.99997667000025" class="text">hereby </text>
<text x="1281.99996108" y="1301.00007044" width="106.0000259599999" height="29.000079429999914" class="text">amended </text>
<text x="1398.00001004" y="1298.00004362" width="19.999952639999947" height="26.00005261000001" class="text">to
</text>
<text x="174.99999016" y="1351.9999612000001" width="50.00000607999999" height="24.999992290000137" class="text">read </text>
<text x="236.99999272000002" y="1351.00005502" width="25.000018599999976" height="24.999992290000137" class="text">as </text>
<text x="270.99999312" y="1349.9999947000001" width="88.99999464000001" height="26.00005261000024" class="text">follows</text>
<text x="363.00000244" y="1348.00005389" width="5.999998239999968" height="23.00005147999991" class="text">:
</text>
<text x="624.0000036800001" y="1407.99997373" width="8.999997359999952" height="26.999958789999937" class="text">(</text>
<text x="634.99999008" y="1407.99997373" width="73.00002008000001" height="29.999959920000038" class="text">Insert </text>
<text x="713.99999284" y="1406.0000329200002" width="82.99999639999999" height="29.999985610000294" class="text">proper </text>
<text x="803.99999756" y="1403.0000060999998" width="54.99999423999998" height="27.99999342000001" class="text">ſtem </text>
<text x="868.0000514000001" y="1401.9999457800002" width="103.99995911999986" height="28.99989960000039" class="text">numbers</text>
<text x="975.0000252" y="1398.99994465" width="8.999966239999935" height="26.999958790000164" class="text">)
</text>
<text x="1214.00002252" y="1668.9999435900002" width="12.999944320000168" height="11.999901760000284" class="text">11
</text>
<text x="1214.99998592" y="1760.0000635" width="13.000053239999943" height="12.00005589999978" class="text">11
</text>
<text x="176.99999476" y="1482.9999762900002" width="54.000015280000014" height="42.9999220000002" class="text">Item </text>
<text x="243.00000652000003" y="1482.0000701099998" width="42.99999775999996" height="42.00001581999982" class="text">No. </text>
<text x="306.0000036" y="1481.0000097900001" width="13.000006559999974" height="40.99995550000017" class="text">2</text>
<text x="325.99998736000003" y="1481.0000097900001" width="13.000022119999983" height="40.99995550000017" class="text">(</text>
<text x="342.0000086" y="1481.0000097900001" width="12.999990999999966" height="40.99995550000017" class="text">a</text>
<text x="363.00000244" y="1479.9999494699998" width="13.000006560000031" height="40.99995549999994" class="text">)
</text>
<text x="251.00000936" y="1507.99996858" width="163.00000924000003" height="38.999988999999914" class="text">Schedules </text>
<text x="431.00000323999996" y="1504.99996745" width="147.0000035600001" height="37.99995436999984" class="text">attached </text>
<text x="596.0000015200001" y="1501.9999406299999" width="38.999988559999906" height="35.99998787000004" class="text">to </text>
<text x="651.99999028" y="1501.9999406299999" width="78.00002380000001" height="36.99989404999974" class="text">Form </text>
<text x="748.0000087999999" y="1499.99999982" width="33.00000588" height="36.0000135600003" class="text">FA</text>
<text x="785.0000083199999" y="1498.9999394999998" width="11.000001960000077" height="34.99995323999997" class="text">-</text>
<text x="803.99999756" y="1499.99999982" width="68.00003191999997" height="37.00004819000014" class="text">2-6M </text>
<text x="895.00001236" y="1498.0000333199998" width="89.99994248000007" height="37.00004818999969" class="text">filed </text>
<text x="1008.00003108" y="1496.0000668199998" width="122.99994836000008" height="38.00008281999976" class="text">January </text>
<text x="1153.99996232" y="1493.99997187" width="32.99999032000005" height="36.999894050000194" class="text">31</text>
<text x="1195.00003328" y="1493.00006569" width="11.000001959999963" height="35.00008168999989" class="text">, </text>
<text x="1228.00003916" y="1493.00006569" width="71.9999322000001" height="37.000048189999916" class="text">1967 </text>
<text x="1318.9999606000001" y="1490.99994505" width="33.00000587999989" height="35.99998787000004" class="text">as
</text>
<text x="252.00000387999998" y="1541.99998995" width="74.99999356000004" height="37.99992868000004" class="text">Item </text>
<text x="346.99999676" y="1540.00004914" width="27.00000763999998" height="35.99998787000004" class="text">10</text>
<text x="384.00001184" y="1538.99998882" width="10.999970840000003" height="35.99998787000004" class="text">(</text>
<text x="397.99999735999995" y="1538.99998882" width="11.00000196000002" height="35.99998787000004" class="text">a</text>
<text x="423.99999492" y="1538.99998882" width="11.00000196000002" height="35.99998787000004" class="text">) </text>
<text x="453.99998611999996" y="1537.9999285" width="105.0000314400001" height="37.99992867999981" class="text">should </text>
<text x="579.99999584" y="1535.99998769" width="73.00000451999995" height="37.99995437000007" class="text">have </text>
<text x="673.00001524" y="1534.0000211899999" width="69.9999898399999" height="37.00004818999969" class="text">been </text>
<text x="766.99999804" y="1532.0000546899998" width="69.9999898399999" height="37.000022499999886" class="text">Item </text>
<text x="858.9999918" y="1529.9999597400001" width="11.000001960000077" height="35.99998787000004" class="text">9</text>
<text x="880.99999572" y="1529.9999597400001" width="11.000001960000077" height="35.99998787000004" class="text">(</text>
<text x="895.00001236" y="1529.9999597400001" width="11.000001960000077" height="35.99998787000004" class="text">a</text>
<text x="917.00001628" y="1529.0000535600002" width="11.000001960000077" height="35.99998787000027" class="text">)
</text>
<text x="252.9999984" y="1584.00000577" width="124.99999963999997" height="35.99998787000004" class="text">Chicago </text>
<text x="396.00000832" y="1579.99994432" width="107.99999943999995" height="34.999927550000166" class="text">Office
</text>
<text x="706.99998452" y="1571.00006938" width="148.00001364000002" height="31.000020239999913" class="text">Schedule </text>
<text x="879.0000378000001" y="1567.00000793" width="8.999966239999935" height="26.999958789999937" class="text">B
</text>
<text x="252.9999984" y="1609.00002375" width="37.99999403999996" height="29.00007943000014" class="text">1. </text>
<text x="306.0000036" y="1609.00002375" width="180.99997283999994" height="31.000020239999913" class="text">Remittance
</text>
<text x="482.0000194" y="1638.9999836700001" width="9.999976319999973" height="29.999959920000038" class="text">"</text>
<text x="495.0000104" y="1638.9999836700001" width="68.99997975999992" height="32.99998673999994" class="text">July
</text>
<text x="895.99999132" y="1634.00001604" width="11.999965360000033" height="37.99995437000007" class="text">$</text>
<text x="917.9999796799999" y="1632.99995572" width="163.00005592000014" height="42.00001581999982" class="text">16,682.48 </text>
<text x="1136.0000453999999" y="1632.00004954" width="71.9999322000001" height="37.00004819000014" class="text">From </text>
<text x="1230.99996048" y="1630.99998922" width="89.00007243999994" height="37.00004819000014" class="text">Tokyo
</text>
<text x="491.00001676" y="1670.00000391" width="107.99996832" height="32.000080560000015" class="text">August
</text>
<text x="1005.0000164" y="1659.00000833" width="73.99998347999986" height="31.000020239999913" class="text">0.00
</text>
<text x="491.00001676" y="1702.99999065" width="165.99997724000002" height="34.99995323999997" class="text">September
</text>
<text x="968.00001688" y="1691.9999950699998" width="108.99993171999995" height="31.999926419999838" class="text">907.50
</text>
<text x="495.0000104" y="1729.99992375" width="123.99997400000001" height="29.999959920000038" class="text">October
</text>
<text x="917.9999796799999" y="1724.00004994" width="165.99997724000002" height="38.00008281999999" class="text">16,820.63
</text>
<text x="493.99998476" y="1757.99994286" width="144.99999896000003" height="28.000019109999812" class="text">November
</text>
<text x="936.99996892" y="1755.99997636" width="145.00004563999994" height="40.00004931999979" class="text">1,600.00
</text>
<text x="491.99999571999996" y="1791.00008374" width="144.99999896000003" height="29.000079429999914" class="text">December
</text>
<text x="976.99998312" y="1780.99999434" width="105.00003143999993" height="31.000045929999942" class="text">116.00
</text>
<text x="499.999983" y="1822.99998447" width="88.00000012000004" height="34.00002137000001" class="text">Total
</text>
<text x="899.99998496" y="1821.0000436599998" width="12.00005871999997" height="35.99998787000004" class="text">$</text>
<text x="921.00000992" y="1821.0000436599998" width="162.9999469999999" height="43.999982319999845" class="text">36,126.61
</text>
<text x="496.99999944" y="1857.99993771" width="124.99999963999994" height="35.99998787000004" class="text">Brought </text>
<text x="644.000003" y="1855.00006503" width="71.00001548" height="35.000081690000115" class="text">over </text>
<text x="735.99999676" y="1852.99997008" width="75.99997252000003" height="34.99995323999997" class="text">from
</text>
<text x="493.99998476" y="1885.99993113" width="147.00000356000004" height="32.99996105000014" class="text">Previous </text>
<text x="658.00001964" y="1885.00005064" width="107.99995276000004" height="32.99998673999994" class="text">period
</text>
<text x="936.99996892" y="1882.00002382" width="146.00002460000007" height="40.99995549999994" class="text">2,792.61
</text>
<text x="902.9999996399999" y="1913.00004406" width="11.000001960000077" height="34.000021369999786" class="text">$</text>
<text x="921.00000992" y="1913.00004406" width="162.9999469999999" height="38.999988999999914" class="text">38,919.22
</text>
<text x="184.9999976" y="1943.00000398" width="50.00000607999999" height="35.00008168999989" class="text">Item </text>
<text x="252.00000387999998" y="1943.00000398" width="45.000002360000025" height="35.00008168999989" class="text">No. </text>
<text x="317.00000556" y="1943.00000398" width="9.999991880000039" height="35.00008168999989" class="text">9</text>
<text x="335.00000028" y="1943.00000398" width="9.999991880000039" height="35.00008168999989" class="text">(</text>
<text x="352.00000048" y="1943.00000398" width="10.000007440000047" height="35.00008168999989" class="text">c</text>
<text x="373.00000988" y="1943.00000398" width="9.99997632000003" height="35.00008168999989" class="text">)
</text>
<text x="258.99999664" y="1972.99998959" width="159.99999456" height="42.9999220000002" class="text">Schedules </text>
<text x="442.0000052" y="1969.9999627700001" width="146.99998799999997" height="42.00001582000027" class="text">attached </text>
<text x="605.9999934" y="1966.99996164" width="36.00000499999999" height="39.999920870000096" class="text">to </text>
<text x="664.9999812799999" y="1966.0000554599999" width="72.0000411200001" height="40.00004931999979" class="text">Form </text>
<text x="754.00000704" y="1964.99999514" width="35.99997387999997" height="40.99995549999994" class="text">FA</text>
<text x="792.00001664" y="1963.99993482" width="11.999980919999985" height="38.999988999999914" class="text">-</text>
<text x="813.0000416" y="1963.99993482" width="65.99999620000006" height="40.99995549999994" class="text">2-6M </text>
<text x="902.0000206799999" y="1961.99999401" width="91.00001480000003" height="40.00007500999982" class="text">filed </text>
<text x="1016.00001836" y="1960.9999336899998" width="124.9999840800001" height="41.99986167999987" class="text">January </text>
<text x="1159.99999168" y="1958.0000610099999" width="36.99999951999985" height="40.00004931999979" class="text">31</text>
<text x="1200.99996928" y="1957.00002638" width="12.000074280000035" height="39.000014689999944" class="text">, </text>
<text x="1233.9999751599998" y="1957.00002638" width="76.00003476000006" height="40.99995550000017" class="text">1967 </text>
<text x="1323.0000476" y="1955.00005988" width="37.999962919999916" height="40.00004932000002" class="text">as
</text>
<text x="260.99998568" y="2007.0000109599998" width="75.00000912000002" height="37.99995436999984" class="text">Item </text>
<text x="355.99999412" y="2005.0000444599998" width="26.999992080000027" height="35.99998786999981" class="text">10</text>
<text x="392.99999363999996" y="2004.00000983" width="11.00000196000002" height="35.99998787000004" class="text">(</text>
<text x="407.00001028" y="2004.00000983" width="11.000001959999963" height="35.99998787000004" class="text">c</text>
<text x="429.0000142" y="2004.00000983" width="11.00000196000002" height="35.99998787000004" class="text">) </text>
<text x="460.00001547999995" y="2004.00000983" width="108.99997840000009" height="39.000014689999944" class="text">should </text>
<text x="588.9999932" y="2000.99998301" width="73.99999904000003" height="37.00004819000014" class="text">have </text>
<text x="682.0000126" y="1999.99992269" width="69.99998984000001" height="37.99992868000004" class="text">been </text>
<text x="776.0000109599999" y="1997.99998188" width="70.99999992000005" height="37.99995437000007" class="text">Item </text>
<text x="868.0000514000001" y="1996.00001538" width="10.999986400000012" height="35.99998787000004" class="text">9</text>
<text x="885.99995276" y="1996.00001538" width="11.000001959999963" height="35.99998787000004" class="text">(</text>
<text x="903.9999630400001" y="1996.00001538" width="11.00000195999985" height="35.99998787000004" class="text">c</text>
<text x="925.99996696" y="1994.99995506" width="11.000001959999963" height="35.99998787000004" class="text">)
</text>
<text x="719.99997552" y="2030.00006244" width="143.0000099199999" height="31.000020239999913" class="text">Schedule </text>
<text x="888.00000404" y="2027.00003562" width="7.999987280000028" height="27.99999342000001" class="text">C
</text>
<text x="258.00000212" y="2069.00005144" width="127.00000424000007" height="34.000021369999786" class="text">Chicago </text>
<text x="407.99998924000005" y="2066.00005031" width="106.00001040000001" height="32.99998673999994" class="text">Office
</text>
<text x="265.00001044" y="2093.0000091" width="5.999982680000016" height="21.999991160000263" class="text">2</text>
<text x="286.9999988" y="2094.00004373" width="5.999998240000025" height="21.999965470000006" class="text">.
</text>
<text x="334.00000576" y="2100.99997786" width="127.99999875999998" height="39.00001469000017" class="text">Monthly </text>
<text x="482.0000194" y="2099.00001136" width="198.99996756000002" height="40.00004932000002" class="text">Expenditure
</text>
<text x="504.00000775999996" y="2125.99997015" width="68.99997976000003" height="31.999926420000065" class="text">July
</text>
<text x="906.9999932799999" y="2119.9999422" width="10.999986400000012" height="34.99992754999994" class="text">$ </text>
<text x="938.00004124" y="2119.9999422" width="151.99996060000012" height="42.000015820000044" class="text">5,485.84
</text>
<text x="500.99999308" y="2158.99995689" width="105.00000031999997" height="35.999987869999586" class="text">August
</text>
<text x="939.00000464" y="2149.00002163" width="147.0000035600001" height="37.00004819000014" class="text">6,623.31
</text>
<text x="499.00000403999996" y="2188.00001063" width="163.99998820000002" height="34.00002137000001" class="text">September
</text>
<text x="940.99996256" y="2178.99998155" width="148.00006032" height="34.00002137000001" class="text">4,792.07
</text>
<text x="499.00000403999996" y="2213.00000292" width="128.00001432000005" height="27.99999342000001" class="text">October
</text>
<text x="942.0000348799999" y="2210.00000179" width="146.99998800000003" height="38.999988999999914" class="text">6,080.64
</text>
<text x="502.99999768" y="2244.00002316" width="146.00000904" height="31.00002024000014" class="text">November
</text>
<text x="939.00000464" y="2239.9999617099998" width="148.99994592000007" height="37.00004818999969" class="text">5,567.12
</text>
<text x="499.999983" y="2277.0000099" width="155.00002195999997" height="32.00008055999979" class="text">December
</text>
<text x="946.9999919200001" y="2269.99994732" width="154.00001187999976" height="33.99989292000009" class="text">5,838.73
</text>
<text x="508.00000140000003" y="2308.00003014" width="93.99999836" height="34.00002137000001" class="text">Total
</text>
<text x="914.0000016" y="2303.99996869" width="10.000022999999942" height="31.999926420000065" class="text">$</text>
<text x="934.0000476" y="2303.99996869" width="166.99995619999981" height="35.99998787000004" class="text">34,387.71
</text>
<text x="684.9999806000001" y="2352.00001246" width="12.000027599999953" height="39.00001469000017" class="text">(</text>
<text x="695.0000036" y="2352.00001246" width="174.00001120000002" height="42.000015820000044" class="text">continued</text>
<text x="880.0000167599999" y="2348.99998564" width="11.999980920000212" height="38.999988999999914" class="text">)
</text>
</g>
<g id="page-1" transform="translate(0, 2589)">
<rect width="1556" height="2569" fill="none" stroke="black" />
<text x="811.0000058800001" y="155.999997104" width="6.000029359999871" height="20.999997633999982" class="text">- </text>
<text x="836.9999878799999" y="155.999997104" width="6.00004492000005" height="20.999997633999982" class="text">2 </text>
<text x="858.00001284" y="155.999997104" width="5.9999515599999995" height="20.999997633999982" class="text">-
</text>
<text x="221.99999712" y="294.00000798" width="55.00000979999999" height="37.0000225" class="text">Item </text>
<text x="289.0000034" y="294.00000798" width="42.999997759999985" height="37.0000225" class="text">No. </text>
<text x="351.00000596" y="292.99999904" width="11.00000196000002" height="37.000001947999976" class="text">9</text>
<text x="374.00000439999997" y="292.99999904" width="11.000001960000077" height="37.000001947999976" class="text">(</text>
<text x="388.00000547999997" y="292.99999904" width="10.999970840000003" height="37.000001947999976" class="text">c</text>
<text x="411.00000392" y="292.99999904" width="11.00000196000002" height="37.000001947999976" class="text">) </text>
<text x="443.99999424" y="292.99999904" width="11.00000196000002" height="37.000001947999976" class="text">(</text>
<text x="460.00001547999995" y="292.99999904" width="159.99999456000006" height="38.99999670699998" class="text">continued</text>
<text x="629.0000074" y="292.00001579" width="11.000001960000077" height="37.000017361999994" class="text">)
</text>
<text x="442.99998416" y="346.99999369" width="12.000012040000001" height="39.999997940000014" class="text">(</text>
<text x="454.9999962" y="346.99999369" width="113.99999768000004" height="39.999997940000014" class="text">Amount </text>
<text x="590.00001884" y="346.99999369" width="70.99996879999992" height="39.999997940000014" class="text">left </text>
<text x="682.0000126" y="346.99999369" width="70.99996879999992" height="39.999997940000014" class="text">over </text>
<text x="774.00000636" y="346.99999369" width="29.999991199999954" height="39.999997940000014" class="text">to </text>
<text x="824.0000435599999" y="346.99999369" width="56.999952160000134" height="39.999997940000014" class="text">the </text>
<text x="899.99998496" y="346.99999369" width="88.0000001200001" height="39.999997940000014" class="text">month </text>
<text x="1013.9999670799999" y="346.99999369" width="29.999991199999954" height="39.999997940000014" class="text">of </text>
<text x="1070.0000336399999" y="346.99999369" width="121.99998496000012" height="39.999997940000014" class="text">January</text>
<text x="1199.00002692" y="346.99999369" width="11.999980920000098" height="39.999997940000014" class="text">, </text>
<text x="1232.0000327999999" y="346.99999369" width="91.99999376000005" height="39.999997940000014" class="text">1967-</text>
<text x="1327.00004124" y="346.99999369" width="11.999965360000033" height="39.999997940000014" class="text">$</text>
<text x="1343.9999792" y="346.99999369" width="150.99998164" height="39.999997940000014" class="text">4,531.51</text>
<text x="1494.99996084" y="346.99999369" width="12.000074280000035" height="39.999997940000014" class="text">)
</text>
<text x="221.99999712" y="380.00000611999997" width="34.999994920000006" height="31.00002023999997" class="text">3. </text>
<text x="275.00000232" y="380.00000611999997" width="107.99998388" height="33.00001242999997" class="text">Nature </text>
<text x="405.00000567999996" y="378.99999718" width="35.00001048000007" height="30.999994549999997" class="text">of </text>
<text x="458.00001088000005" y="378.99999718" width="201.9999977999999" height="32.99998673999994" class="text">Expenditure
</text>
<text x="460.99999444" y="408.00002523" width="107.99999944000001" height="33.99999568000004" class="text">Office </text>
<text x="585.0000151200001" y="408.00002523" width="204.99996579999993" height="33.99999568000004" class="text">Maintenance </text>
<text x="811.0000058800001" y="408.00002523" width="123.0000417199999" height="33.99999568000004" class="text">Expense
</text>
<text x="1307.99995864" y="403.00000622" width="10.000023000000056" height="35.00000462000003" class="text">$ </text>
<text x="1343.00000024" y="404.99999841000005" width="143.99998888000005" height="36.999996810000084" class="text">4,171.75
</text>
<text x="458.99998983999996" y="440.00000302999996" width="161.00002020000005" height="33.00001242999997" class="text">Allowance </text>
<text x="642.99997736" y="438.00001084" width="35.00004160000003" height="31.000020240000026" class="text">to </text>
<text x="702.00001192" y="438.00001084" width="35.000010480000014" height="31.000020240000026" class="text">I. </text>
<text x="735.99999676" y="438.00001084" width="107.99999944000001" height="33.00001242999997" class="text">Hirose</text>
<text x="851.0000045200001" y="437.00000190000003" width="8.999966239999935" height="30.999994550000054" class="text">, </text>
<text x="866.0000001200001" y="437.00000190000003" width="143.99997331999987" height="33.00001243000003" class="text">T.Tamura </text>
<text x="1030.9999983999999" y="435.00000971" width="8.999966240000049" height="31.00002023999997" class="text">&amp; </text>
<text x="1067.00001896" y="435.99999296000004" width="198.0000041599999" height="33.99999568000004" class="text">M.Hashimoto </text>
<text x="1323.0000476" y="435.99999296000004" width="165.99997724000013" height="36.99997112" class="text">13,252.98
</text>
<text x="464.00000912" y="470.00001433" width="156.99996431999995" height="33.00001242999997" class="text">Traveling </text>
<text x="641.9999984" y="469.00000539" width="128.99999328" height="32.00000348999998" class="text">Expense
</text>
<text x="1383.9999934" y="463.99998637999994" width="108.00004611999998" height="30.999968859999967" class="text">739.31
</text>
<text x="458.99998983999996" y="497.99998206" width="109.00002508000006" height="29.999985609999953" class="text">Office </text>
<text x="587.99998312" y="496.99999881" width="73.00000451999995" height="27.99999342000001" class="text">Rent
</text>
<text x="1342.0000368400001" y="495.00000662" width="147.9999669599997" height="33.00001243000003" class="text">5,047.50
</text>
<text x="458.99998983999996" y="530.99999449" width="109.00002508000006" height="31.999977799999954" class="text">Salary </text>
<text x="592.0000234400001" y="530.99999449" width="28.9999499999999" height="31.999977799999954" class="text">to </text>
<text x="644.000003" y="530.99999449" width="163.99998819999996" height="31.999977799999954" class="text">Employees
</text>
<text x="1368.00001884" y="527.99999336" width="11.000001959999963" height="35.00000461999997" class="text">,</text>
<text x="1383.9999934" y="527.99999336" width="105.00003144000016" height="37.99998005999993" class="text">741.75
</text>
<text x="458.99998983999996" y="561.00000579" width="91.00001480000009" height="30.000011300000097" class="text">Movie </text>
<text x="574.00001316" y="561.00000579" width="8.999997359999952" height="30.000011300000097" class="text">&amp; </text>
<text x="607.00000348" y="561.00000579" width="90.00000471999999" height="30.000011300000097" class="text">Photo </text>
<text x="717.00000752" y="561.00000579" width="126.99998868" height="30.000011300000097" class="text">Expense
</text>
<text x="1383.00001444" y="557.00002141" width="107.99995276000004" height="33.00001242999997" class="text">343.02
</text>
<text x="462.99998348" y="591.0000170899999" width="196.0000151199999" height="32.000003489999926" class="text">Advertising </text>
<text x="682.0000126" y="591.0000170899999" width="9.000012920000017" height="32.000003489999926" class="text">&amp; </text>
<text x="717.00000752" y="591.0000170899999" width="166.00002392" height="32.000003489999926" class="text">Publicity </text>
<text x="902.0000206799999" y="591.0000170899999" width="128.99997771999995" height="32.000003489999926" class="text">Expense
</text>
<text x="1383.9999934" y="587.99999027" width="103.99995911999986" height="33.00001242999997" class="text">791.90
</text>
<text x="460.00001547999995" y="621.99998595" width="180.9999728400001" height="31.99997780000001" class="text">Exhibition </text>
<text x="662.00001328" y="623.0000205800001" width="126.0000097200001" height="32.000003490000154" class="text">Expense
</text>
<text x="1384.9999568" y="618.00000157" width="102.99999571999979" height="33.999995679999984" class="text">381.20
</text>
<text x="460.99999444" y="653.9999894399999" width="184.00003419999996" height="33.99999567999987" class="text">Conference </text>
<text x="664.9999812799999" y="653.9999894399999" width="10.000023000000056" height="33.99999567999987" class="text">&amp; </text>
<text x="698.99999724" y="653.9999894399999" width="123.99997399999995" height="33.99999567999987" class="text">Meeting </text>
<text x="850.0000411200001" y="653.9999894399999" width="121.99996939999983" height="33.99999567999987" class="text">Expense
</text>
<text x="1343.9999792" y="650.00000506" width="148.00006031999987" height="38.00003144000004" class="text">1,082.46
</text>
<text x="462.99998348" y="685.99999293" width="108.0000149999999" height="32.00000349000004" class="text">Survey </text>
<text x="592.99998684" y="685.00000968" width="9.000012920000017" height="32.00000349000004" class="text">&amp; </text>
<text x="629.0000074" y="685.99999293" width="232.99999907999995" height="34.00002137000001" class="text">Investigating </text>
<text x="884.0000104" y="683.99994936" width="124.99999964000006" height="32.99996104999991" class="text">Expense
</text>
<text x="1379.99999976" y="679.99996498" width="110.0000040399998" height="35.99998786999993" class="text">271.28
</text>
<text x="462.99998348" y="716.0000299200001" width="212.00002079999996" height="33.00003812000011" class="text">Distribution </text>
<text x="698.99999724" y="716.0000299200001" width="126.99998868000011" height="32.00008056000013" class="text">Expense
</text>
<text x="1343.9999792" y="713.00002879" width="150.00001823999992" height="38.00003143999993" class="text">3,010.06
</text>
<text x="458.99998983999996" y="749.0000166599999" width="236.99999272000008" height="35.99998786999993" class="text">Miscellaneous </text>
<text x="717.9999864800001" y="749.99999991" width="123.99997399999995" height="35.99998787000004" class="text">Expense
</text>
<text x="1379.0000208" y="741.0000479" width="107.99996832000011" height="33.00006381000003" class="text">554.50
</text>
<text x="469.00001284" y="773.0000256999999" width="85.99996440000001" height="27.999993419999896" class="text">Total
</text>
<text x="1310.99997332" y="774.0000089499999" width="11.000001959999963" height="35.99998786999993" class="text">$</text>
<text x="1327.00004124" y="774.0000089499999" width="166.99995620000004" height="39.99997225000004" class="text">34,387.71
</text>
<text x="680.00002356" y="834.9999891100001" width="144.99999895999986" height="28.999976670000137" class="text">Schedule </text>
<text x="851.9999834800001" y="834.9999891100001" width="7.999987279999914" height="28.999976670000137" class="text">C</text>
<text x="869.0000148" y="834.9999891100001" width="7.999987279999914" height="28.999976670000137" class="text">-</text>
<text x="888.9999829999999" y="834.9999891100001" width="7.999971720000076" height="28.999976670000137" class="text">1
</text>
<text x="226.99998528" y="884.9999993800001" width="124.00002068" height="36.999971120000055" class="text">Persons </text>
<text x="374.00000439999997" y="884.00001613" width="31.99998024000007" height="35.00000461999991" class="text">to </text>
<text x="427.0000096" y="884.00001613" width="75.00000912000002" height="35.99998786999993" class="text">whom </text>
<text x="517.99999328" y="883.0000328799999" width="144.00001999999995" height="36.0000649399999" class="text">payments </text>
<text x="680.00002356" y="881.9999725600001" width="72.99995783999987" height="35.00000462000003" class="text">were </text>
<text x="776.99997436" y="881.000015" width="71.00001548" height="35.00003030999994" class="text">made </text>
<text x="868.0000514000001" y="881.000015" width="53.99992191999979" height="35.00003030999994" class="text">for </text>
<text x="940.99996256" y="881.000015" width="197.0000252000001" height="36.99997111999994" class="text">advertising </text>
<text x="1162.0000274" y="878.99997143" width="53.99993747999997" height="34.99992754999994" class="text">and </text>
<text x="1235.0000474800001" y="878.99997143" width="108.99993171999995" height="36.99997111999994" class="text">public </text>
<text x="1368.00001884" y="877.99998818" width="162.99996256000009" height="36.99997111999994" class="text">relations</text>
<text x="1537.99998972" y="876.0000473700001" width="10.000023000000056" height="35.00003031000006" class="text">.
</text>
<text x="224.00000171999997" y="913.9999760500001" width="129.00000884000005" height="32.00000349000004" class="text">Chicago </text>
<text x="373.00000988" y="912.9999928000001" width="103.99999023999999" height="32.99996105000014" class="text">Office
</text>
<text x="552.9999882" y="909.00000842" width="74.99999356000001" height="30.000036990000012" class="text">None</text>
<text x="636.0000157200001" y="908.00002517" width="7.999987279999914" height="26.000052609999898" class="text">.
</text>
<text x="232.00000456" y="933.0000431499999" width="49.999990519999955" height="25.00001797999994" class="text">Item </text>
<text x="297.00000624" y="934.00000071" width="44.00000783999997" height="24.00000904000001" class="text">No.
</text>
<text x="228.00001092" y="992.99996299" width="72.99998896000002" height="37.999954369999955" class="text">Item </text>
<text x="318.00001564" y="992.99996299" width="53.99996859999999" height="37.999954369999955" class="text">No. </text>
<text x="390.00002564" y="992.99996299" width="34.99999492000006" height="37.999954369999955" class="text">10</text>
<text x="431.00000323999996" y="992.99996299" width="11.00000196000002" height="37.999954369999955" class="text">(</text>
<text x="445.99999884000005" y="992.99996299" width="11.000001959999963" height="37.999954369999955" class="text">a</text>
<text x="469.00001284" y="992.99996299" width="11.00000196000002" height="37.999954369999955" class="text">)
</text>
<text x="225.99999076000003" y="1052.00000234" width="162.00001471999994" height="36.999971120000055" class="text">Schedules </text>
<text x="405.99998464000004" y="1051.00001909" width="146.00002460000002" height="37.00004819000003" class="text">attached </text>
<text x="570.9999984799999" y="1050.00003584" width="38.0000096" height="35.00000462000003" class="text">to </text>
<text x="627.00001836" y="1048.99997552" width="71.99997887999996" height="35.00000461999991" class="text">Form </text>
<text x="723.00000576" y="1048.99997552" width="31.999980240000014" height="35.00000461999991" class="text">FA</text>
<text x="759.99998972" y="1048.99997552" width="10.000023000000056" height="35.00000461999991" class="text">-</text>
<text x="780.0000357199999" y="1047.99999227" width="66.00001176000012" height="35.00000461999991" class="text">2-6M </text>
<text x="865.0000211600001" y="1047.99999227" width="89.99995803999991" height="36.99994542999991" class="text">filed </text>
<text x="983.0000124800001" y="1047.99999227" width="122.99994835999996" height="36.99994542999991" class="text">January </text>
<text x="1129.00003708" y="1045.99997439" width="31.999933559999818" height="34.99992755000005" class="text">31</text>
<text x="1166.0000210399999" y="1045.99997439" width="9.999929640000119" height="34.99992755000005" class="text">, </text>
<text x="1203.00002056" y="1045.99997439" width="70.99996880000003" height="35.99998787000004" class="text">1967 </text>
<text x="1288.000006" y="1044.99999114" width="39.00003523999999" height="35.00000462000003" class="text">as </text>
<text x="1350.00000856" y="1044.99999114" width="70.99996880000003" height="35.00000462000003" class="text">Item
</text>
<text x="226.99998528" y="1084.00000583" width="33.000005879999975" height="36.00001356000007" class="text">11</text>
<text x="268.99998852" y="1084.00000583" width="10.000007440000047" height="36.00001356000007" class="text">(</text>
<text x="282.9999896" y="1083.00002258" width="10.000007440000047" height="35.99998786999981" class="text">a</text>
<text x="304.99999352" y="1083.00002258" width="9.999991879999982" height="35.99998786999981" class="text">) </text>
<text x="335.00000028" y="1083.00002258" width="107.00000491999998" height="37.000048189999916" class="text">should </text>
<text x="464.99998808" y="1082.00003933" width="69.00001087999999" height="38.00003143999993" class="text">have </text>
<text x="554.99997724" y="1080.99997901" width="69.00002644000006" height="36.999971120000055" class="text">been </text>
<text x="647.99999664" y="1079.99999576" width="73.99998348000008" height="36.999971120000055" class="text">Item </text>
<text x="743.0000050799999" y="1079.99999576" width="27.00000764000015" height="36.999971120000055" class="text">10</text>
<text x="780.0000357199999" y="1079.0000382" width="9.99994520000007" height="36.00001356000007" class="text">(</text>
<text x="795.00003132" y="1079.0000382" width="9.999929640000005" height="36.00001356000007" class="text">a</text>
<text x="815.99996292" y="1079.0000382" width="10.000023000000056" height="36.00001356000007" class="text">)</text>
<text x="833.9999732" y="1079.0000382" width="10.000023000000056" height="36.00001356000007" class="text">.
</text>
<text x="702.00001192" y="1111.99999925" width="142.99996323999994" height="31.000020239999913" class="text">Schedule </text>
<text x="872.00002948" y="1111.000016" width="7.999987279999914" height="28.999976670000024" class="text">D
</text>
<text x="229.00000544000002" y="1155.99998157" width="122.00000051999999" height="32.99998673999994" class="text">Chicago </text>
<text x="370.99998972" y="1154.00001507" width="109.00002508000006" height="33.00006381000003" class="text">Office
</text>
<text x="550.9999836000001" y="1151.9999715" width="79.00000276000003" height="31.000020239999913" class="text">None</text>
<text x="638.00002032" y="1151.0000139400001" width="8.999997360000066" height="28.00001911000004" class="text">.
</text>
<text x="240.00000740000002" y="1576.99994319" width="51.999979559999986" height="21.999991160000036" class="text">Item </text>
<text x="307.00001368" y="1576.0000370100001" width="43.999992280000015" height="21.999991160000036" class="text">No.
</text>
<text x="431.9999822" y="2255.99992492" width="8.000033960000053" height="28.999899599999935" class="text">(</text>
<text x="440.00001616000003" y="2255.99992492" width="16.99998463999998" height="28.999899599999935" class="text">If </text>
<text x="468.00000276000003" y="2255.99992492" width="117.99997575999998" height="30.999866099999963" class="text">additional </text>
<text x="594.00001248" y="2255.00001874" width="68.99997975999997" height="31.00002024000014" class="text">items </text>
<text x="673.99997864" y="2253.9999841100002" width="36.99999951999996" height="29.999985610000294" class="text">are </text>
<text x="721.00000116" y="2253.0000779300003" width="19.99999932000003" height="29.00007943000037" class="text">to </text>
<text x="752.00000244" y="2253.0000779300003" width="25.999997559999997" height="29.00007943000037" class="text">be </text>
<text x="785.9999872799999" y="2253.0000779300003" width="108.00004612000009" height="31.000020240000595" class="text">amended</text>
<text x="895.99999132" y="2250.9999572899997" width="7.999971720000076" height="28.999899599999935" class="text">, </text>
<text x="912.00004368" y="2252.0000176099998" width="73.99998348000008" height="31.000020239999685" class="text">insert </text>
<text x="994.00001444" y="2250.9999572899997" width="122.99994835999985" height="31.000020239999685" class="text">additional </text>
<text x="1122.99999216" y="2250.0000511099997" width="66.00001176" height="31.000020239999685" class="text">pages </text>
<text x="1200.0000058800001" y="2249.00001648" width="28.000033279999798" height="29.99998560999984" class="text">as </text>
<text x="1236.00001088" y="2249.00001648" width="80.00002840000002" height="31.000045929999942" class="text">needed</text>
<text x="1321.99997528" y="2247.00004998" width="7.999987279999914" height="29.000079429999914" class="text">)
</text>
</g>
<g id="page-2" transform="translate(0, 5178)">
<rect width="1556" height="2569" fill="none" stroke="black" />
<text x="724.9999948000001" y="155.000001009" width="5.999982679999903" height="20.999997633999982" class="text">- </text>
<text x="750.99999236" y="154.000002345" width="6.000029360000099" height="21.00000534100002" class="text">3 </text>
<text x="774.00000636" y="154.000002345" width="6.000029359999871" height="21.00000534100002" class="text">-
</text>
<text x="197.00000964" y="247.99999750400002" width="98.00000756" height="28.99998951500001" class="text">Exhibits</text>
<text x="297.00000624" y="247.99999750400002" width="35.99998943999998" height="27.999990851000035" class="text">.--</text>
<text x="337.99998383999997" y="247.99999750400002" width="40.00001420000001" height="27.999990851000035" class="text">The </text>
<text x="387.00001096" y="249.999992263" width="108.99997840000003" height="29.99998561000001" class="text">following </text>
<text x="506.00001235999997" y="251.00000891" width="121.00000600000004" height="30.000003593000002" class="text">additional </text>
<text x="634.99999008" y="249.999992263" width="25.999997559999997" height="27.99999085099998" class="text">or </text>
<text x="667.99999596" y="252.00000500500002" width="104.99998476000007" height="30.000003593000002" class="text">amended </text>
<text x="782.9999726" y="253.000003669" width="94.00002947999997" height="30.000003593000002" class="text">exhibits </text>
<text x="885.99995276" y="252.00000500500002" width="39.00003523999999" height="28.000008834000027" class="text">are </text>
<text x="936.99996892" y="254.000002333" width="97.00005971999997" height="30.000006162000005" class="text">attached </text>
<text x="1045.999994" y="254.99999842800003" width="74.99996243999999" height="30.000003593000002" class="text">hereto </text>
<text x="1138.99996672" y="254.000002333" width="25.99999756000011" height="28.000011403000002" class="text">as </text>
<text x="1182.999959" y="254.000002333" width="8.000080639999851" height="28.000011403000002" class="text">a </text>
<text x="1206.00003524" y="254.99999842800003" width="53.9999374800002" height="27.999990851000035" class="text">part </text>
<text x="1269.99999572" y="254.99999842800003" width="25.999997559999883" height="27.999990851000035" class="text">of </text>
<text x="1309.00003096" y="255.999997092" width="41.99995655999987" height="28.99998951500001" class="text">this
</text>
<text x="128.999997948" y="308.00000469" width="138.000001532" height="28.00001911000004" class="text">amendment </text>
<text x="278.99999596000004" y="306.99999575" width="7.000008319999949" height="26.000001229999953" class="text">(</text>
<text x="289.0000034" y="306.99999575" width="39.00000411999997" height="26.000001229999953" class="text">list </text>
<text x="342.0000086" y="309.00001363" width="92.99998828000003" height="28.000019109999982" class="text">exhibits </text>
<text x="451.00000256" y="309.99999688" width="97.00001304" height="27.999993420000067" class="text">attached</text>
<text x="554.99997724" y="309.00001363" width="7.000008320000006" height="26.00000123000001" class="text">)</text>
<text x="561.99998556" y="309.00001363" width="7.000008320000006" height="26.00000123000001" class="text">.
</text>
<text x="644.000003" y="311.99998906999997" width="88.99997908" height="36.99997111999994" class="text">Short </text>
<text x="750.99999236" y="311.99998906999997" width="77.0000448400001" height="35.999987869999984" class="text">Form </text>
<text x="843.9999962" y="313.99998125999997" width="216.9999934000001" height="36.99997112" class="text">Registration </text>
<text x="1085.00002924" y="315.00001589000004" width="162.99996255999986" height="36.00001356000007" class="text">Statement</text>
<text x="1255.00000012" y="315.00001589000004" width="10.000022999999828" height="35.00003031000006" class="text">,
</text>
<text x="219.00001355999999" y="369.99999379" width="73.99998348000005" height="34.999978930000054" class="text">Form </text>
<text x="312.99999636" y="369.00001054" width="35.99998943999998" height="33.00001243000003" class="text">DJ</text>
<text x="352.00000048" y="369.00001054" width="8.9999818" height="33.00001243000003" class="text">-</text>
<text x="369.9999952" y="369.99999379" width="50.000006079999935" height="33.99999568000004" class="text">305</text>
<text x="427.99998856" y="369.99999379" width="8.999997359999952" height="32.99998674" class="text">, </text>
<text x="457.0000008" y="369.99999379" width="56.999998840000046" height="32.99998674" class="text">for </text>
<text x="530.00000532" y="371.00000273" width="60.00001352000004" height="33.00001242999997" class="text">Mr. </text>
<text x="603.9999888" y="372.99999491999995" width="91.00001480000003" height="35.00000461999991" class="text">Masuo </text>
<text x="713.99999284" y="374.00002954999997" width="166.00002391999988" height="35.00003030999994" class="text">Hashimoto</text>
<text x="887.00002508" y="374.00002954999997" width="8.999966240000049" height="33.00003812" class="text">, </text>
<text x="921.00000992" y="374.99998711" width="124.00000512000008" height="35.00000462000003" class="text">Chicago </text>
<text x="1064.00000428" y="377.00000499000004" width="107.99996832000011" height="35.00003031000006" class="text">Office
</text>
<text x="420.99998024" y="463.00000313000004" width="72.00004111999993" height="29.999985610000067" class="text">NOTE</text>
<text x="495.0000104" y="461.99999419" width="35.999973879999914" height="27.99999342000001" class="text">.--</text>
<text x="535.9999879999999" y="463.00000313000004" width="40.00001420000001" height="29.000002360000053" class="text">The </text>
<text x="583.0000105199999" y="463.99998637999994" width="139.9999952400001" height="29.999985609999953" class="text">amendment </text>
<text x="730.99997748" y="465.00002101" width="47.000022520000016" height="29.00002804999997" class="text">will </text>
<text x="784.0000293600001" y="465.00002101" width="38.999941879999824" height="28.000019109999982" class="text">not </text>
<text x="832.99999424" y="465.99997857" width="25.999997559999997" height="28.999976669999967" class="text">be </text>
<text x="869.0000148" y="467.0000132" width="102.00001675999988" height="30.000011299999983" class="text">accepted </text>
<text x="982.00003352" y="467.0000132" width="35.9999272" height="28.00001911000004" class="text">for </text>
<text x="1027.00002032" y="469.00000539" width="63.99996048000003" height="30.00001130000004" class="text">filing
</text>
<text x="532.00000992" y="493.99999768" width="75.99997251999991" height="28.000019109999982" class="text">unless </text>
<text x="616.99999536" y="492.99998874" width="45.999996880000026" height="25.99997553999998" class="text">both </text>
<text x="677.00000888" y="495.00000662" width="76.99999816000002" height="27.99999342000001" class="text">copies </text>
<text x="761.99999432" y="495.00000662" width="41.000024279999934" height="27.000010169999996" class="text">are </text>
<text x="814.9999995200001" y="495.99998987000004" width="73.99998347999986" height="27.99999342000001" class="text">signed </text>
<text x="901.0000417200001" y="495.99998987000004" width="36.99999951999985" height="25.999975540000037" class="text">and </text>
<text x="949.0000432" y="497.99998206" width="71.99993219999999" height="27.99996772999998" class="text">sworn </text>
<text x="1030.9999983999999" y="496.99999881" width="23.999961840000196" height="26.000001230000066" class="text">to </text>
<text x="1064.00000428" y="497.99998206" width="28.000033280000025" height="25.99997553999998" class="text">as
</text>
<text x="535.0000246" y="526.00000117" width="99.99996548000001" height="30.000011299999983" class="text">required </text>
<text x="645.99999204" y="525.00001792" width="62.000018119999936" height="30.000011299999983" class="text">below</text>
<text x="715.00001848" y="524.0000089800001" width="7.999987280000028" height="28.00001911000004" class="text">.
</text>
<text x="199.9999932" y="615.00000044" width="40.00001420000001" height="25.999975540000037" class="text">The </text>
<text x="255.000003" y="616.99999263" width="142.99999435999996" height="27.99996772999998" class="text">undersigned </text>
<text x="412.99999296000004" y="616.00000938" width="71.00001547999995" height="26.000001230000066" class="text">swear</text>
<text x="491.00001676" y="616.00000938" width="6.999961639999981" height="26.000001230000066" class="text">(</text>
<text x="500.99999308" y="616.00000938" width="7.000008320000006" height="26.000001230000066" class="text">s</text>
<text x="517.00001432" y="616.00000938" width="7.000008320000006" height="26.000001230000066" class="text">) </text>
<text x="533.99999896" y="616.99999263" width="29.000012240000046" height="25.999975540000037" class="text">or </text>
<text x="576.99998116" y="616.99999263" width="73.00000452000006" height="25.999975540000037" class="text">affirm</text>
<text x="660.00000868" y="616.99999263" width="7.000008320000006" height="25.999975540000037" class="text">(</text>
<text x="670.00000056" y="616.99999263" width="7.000008320000006" height="25.999975540000037" class="text">s</text>
<text x="682.99999156" y="616.99999263" width="7.000008320000006" height="25.999975540000037" class="text">) </text>
<text x="702.9999908799999" y="616.99999263" width="45.000017920000005" height="25.999975540000037" class="text">that </text>
<text x="761.00001536" y="618.00000157" width="27.999986600000057" height="26.000001229999953" class="text">he </text>
<text x="802.00003964" y="618.00000157" width="40.99999316000003" height="26.000001229999953" class="text">has </text>
<text x="859.99997076" y="618.00000157" width="7.000008319999893" height="26.000001229999953" class="text">(</text>
<text x="869.99999376" y="618.00000157" width="46.00004355999988" height="26.000001229999953" class="text">they </text>
<text x="929.9999606" y="618.99998482" width="53.000051880000115" height="26.999984479999966" class="text">have </text>
<text x="1012.0000247199999" y="618.99998482" width="48.99996488000022" height="25.999975540000037" class="text">read </text>
<text x="1076.9999486" y="618.99998482" width="34.00007819999996" height="25.999975540000037" class="text">the </text>
<text x="1126.9999858" y="621.00002839" width="139.99999523999986" height="28.00001911000004" class="text">information </text>
<text x="1280.99999768" y="619.99999376" width="39.99999864000006" height="26.000001230000066" class="text">set </text>
<text x="1331.99999828" y="619.99999376" width="55.00000980000004" height="26.000001230000066" class="text">forth
</text>
<text x="129.99999558" y="643.99997711" width="15.00000338000001" height="26.99998448000008" class="text">in </text>
<text x="164.00000376" y="643.99997711" width="44.000007839999995" height="26.99998448000008" class="text">this </text>
<text x="222.99999164000002" y="646.00002068" width="137.99999063999996" height="29.000028050000083" class="text">amendment </text>
<text x="371.99998424" y="646.00002068" width="19.000004800000056" height="27.000035860000025" class="text">to </text>
<text x="411.00000392" y="646.00002068" width="31.000001279999992" height="27.000035860000025" class="text">the </text>
<text x="460.99999444" y="647.99996149" width="157.99998996" height="28.999976670000024" class="text">supplemental </text>
<text x="634.00002668" y="649.00002181" width="117.99997575999998" height="29.00002804999997" class="text">statement </text>
<text x="769.00000264" y="649.00002181" width="115.99998671999992" height="29.00002804999997" class="text">mentioned </text>
<text x="899.99998496" y="649.00002181" width="69.00001087999999" height="27.000035860000025" class="text">above </text>
<text x="984.9999548400001" y="649.00002181" width="38.00007184000003" height="27.000035860000025" class="text">and </text>
<text x="1035.999971" y="650.00000506" width="35.00004160000003" height="28.00001911000004" class="text">the </text>
<text x="1086.99998716" y="650.99998831" width="99.9999654799999" height="29.000002360000053" class="text">attached </text>
<text x="1202.0000416" y="651.99997156" width="89.99995803999991" height="28.99995097999988" class="text">exhibits</text>
<text x="1299.00000796" y="650.99998831" width="7.999971720000076" height="26.99998448000008" class="text">, </text>
<text x="1318.9999606000001" y="650.99998831" width="47.999985919999745" height="26.99998448000008" class="text">that
</text>
<text x="127.00000112800001" y="675.9999806000001" width="28.00000060399998" height="29.999959920000038" class="text">he </text>
<text x="167.9999974" y="675.9999806000001" width="22.000003919999983" height="29.999959920000038" class="text">is </text>
<text x="207.00000152" y="677.0000409200001" width="8.999981799999972" height="30.000036990000012" class="text">(</text>
<text x="217.00000896" y="677.0000409200001" width="45.99999687999997" height="30.000036990000012" class="text">they </text>
<text x="277.00000692" y="677.0000409200001" width="38.99998856000002" height="30.000036990000012" class="text">are</text>
<text x="320.9999992" y="677.0000409200001" width="9.000012920000017" height="30.000036990000012" class="text">) </text>
<text x="339.00000948" y="678.99998173" width="101.00000668000001" height="31.999977799999897" class="text">familiar </text>
<text x="449.99999248" y="678.99998173" width="52.00002624000001" height="31.000020239999913" class="text">with </text>
<text x="515.99998868" y="678.99998173" width="38.0000096" height="29.999959919999924" class="text">the </text>
<text x="570.00001952" y="681.0000253" width="95.99998740000001" height="32.000003489999926" class="text">contents </text>
<text x="682.0000126" y="682.00000855" width="88.0000001200001" height="32.000003489999926" class="text">thereof </text>
<text x="782.9999726" y="681.0000253" width="38.00005627999997" height="30.0000369899999" class="text">and </text>
<text x="833.9999732" y="682.00000855" width="49.000058240000044" height="31.000020239999913" class="text">that </text>
<text x="896.99995472" y="682.00000855" width="49.000058240000044" height="30.000036990000012" class="text">such </text>
<text x="961.0000085600001" y="683.99994936" width="102.00001676" height="31.99997780000001" class="text">contents </text>
<text x="1079.99997884" y="682.9999918" width="38.00005628000008" height="29.999985610000067" class="text">are </text>
<text x="1131.9999584" y="682.9999918" width="17.000031320000062" height="29.999985610000067" class="text">in </text>
<text x="1170.99999364" y="683.99994936" width="53.00005188" height="29.999959920000038" class="text">their </text>
<text x="1240.00000452" y="685.99999293" width="95.99998740000001" height="32.00000349000004" class="text">entirety
</text>
<text x="126.00000349599999" y="704.99995727" width="49.999996744" height="26.999933099999907" class="text">true </text>
<text x="190.99999584" y="706.00001759" width="39.00000412" height="27.000035860000025" class="text">and </text>
<text x="244.99999556" y="707.00000084" width="101.00000668000001" height="28.99997666999991" class="text">accurate </text>
<text x="365.00000704" y="707.00000084" width="19.99999932000003" height="27.000035860000025" class="text">to </text>
<text x="400.00000196" y="707.00000084" width="34.999994920000006" height="27.000035860000025" class="text">the </text>
<text x="449.99999248" y="707.99998409" width="52.00002624000001" height="28.00001911000004" class="text">best </text>
<text x="515.99998868" y="707.99998409" width="19.00003591999996" height="26.99995879000005" class="text">of </text>
<text x="550.00000464" y="707.99998409" width="33.999984840000025" height="26.99995879000005" class="text">his </text>
<text x="599.99999516" y="707.99998409" width="7.999987279999914" height="26.99995879000005" class="text">(</text>
<text x="610.99999712" y="709.00004441" width="53.99998415999994" height="28.00001911000004" class="text">their</text>
<text x="670.00000056" y="709.00004441" width="8.000018400000044" height="27.000035860000025" class="text">) </text>
<text x="689.99999988" y="710.00000197" width="123.00004172000001" height="28.999976670000024" class="text">knowledge </text>
<text x="829.00001616" y="710.00000197" width="37.999962919999916" height="27.000010169999996" class="text">and </text>
<text x="881.99997468" y="710.99998522" width="65.99999620000006" height="27.99999342000001" class="text">belief</text>
<text x="950.99998556" y="710.99998522" width="7.999987279999914" height="27.000035860000025" class="text">, </text>
<text x="973.9999684400001" y="711.99996847" width="78.00007047999986" height="28.00001911000004" class="text">except </text>
<text x="1064.00000428" y="711.99996847" width="48.00000148000004" height="28.00001911000004" class="text">that </text>
<text x="1122.99999216" y="711.99996847" width="35.0000571600001" height="26.99995879000005" class="text">the </text>
<text x="1174.00000832" y="714.00001204" width="143.99997331999998" height="29.000002360000053" class="text">undersigned </text>
<text x="1339.99998556" y="714.00001204" width="55.00000980000004" height="28.00001911000004" class="text">make</text>
<text x="1399.9999524" y="714.00001204" width="8.000080639999851" height="27.00003585999991" class="text">(</text>
<text x="1409.9999754" y="714.00001204" width="7.999987279999914" height="27.00003585999991" class="text">s</text>
<text x="1420.99997736" y="714.00001204" width="7.999987279999914" height="27.00003585999991" class="text">)
</text>
<text x="127.00000112800001" y="745.00003228" width="24.99999525999999" height="34.00004706000004" class="text">no </text>
<text x="167.00000288" y="745.00003228" width="176.00000024000002" height="34.00004706000004" class="text">representation </text>
<text x="357.99999872" y="745.00003228" width="24.999987480000016" height="34.00004706000004" class="text">as </text>
<text x="400.00000196" y="745.00003228" width="18.99998923999999" height="34.00004706000004" class="text">to </text>
<text x="434.00001792" y="745.00003228" width="38.99998856000002" height="34.00004706000004" class="text">the </text>
<text x="484.00000844" y="745.00003228" width="57.99997780000001" height="34.00004706000004" class="text">truth </text>
<text x="557.9999919200001" y="745.00003228" width="25.999997559999997" height="34.00004706000004" class="text">or </text>
<text x="599.99999516" y="745.00003228" width="106.00001039999995" height="34.00004706000004" class="text">accuracy </text>
<text x="721.99998012" y="745.00003228" width="25.000018599999976" height="34.00004706000004" class="text">of </text>
<text x="757.0000217200001" y="745.00003228" width="139.99993299999994" height="34.00004706000004" class="text">information </text>
<text x="913.00002264" y="745.00003228" width="113.00001872000007" height="34.00004706000004" class="text">contained </text>
<text x="1038.99998568" y="745.00003228" width="20.00006155999995" height="34.00004706000004" class="text">in </text>
<text x="1075.9999852" y="745.00003228" width="43.000028879999945" height="34.00004706000004" class="text">any </text>
<text x="1131.9999584" y="745.00003228" width="86.00005775999989" height="34.00004706000004" class="text">Exhibit </text>
<text x="1236.00001088" y="745.00003228" width="10.000038559999894" height="34.00004706000004" class="text">A </text>
<text x="1263.9999663600001" y="745.00003228" width="54.00001527999984" height="34.00004706000004" class="text">filed </text>
<text x="1334.00004956" y="745.00003228" width="51.99997955999993" height="34.00004706000004" class="text">here-
</text>
<text x="124.999994972" y="764.9999798700001" width="49.999995188000014" height="26.99995879000005" class="text">with </text>
<text x="193.99999495999998" y="767.0000234400001" width="83.00001196" height="29.000002360000053" class="text">insofar </text>
<text x="291.99998696" y="767.0000234400001" width="24.000008519999994" height="28.00001911000004" class="text">as </text>
<text x="332.00000116" y="767.0000234400001" width="53.00000520000003" height="27.000035860000025" class="text">such </text>
<text x="401.999991" y="768.99996425" width="136.00000160000002" height="28.99997666999991" class="text">information </text>
<text x="554.99997724" y="768.99996425" width="19.999999319999915" height="26.999958789999937" class="text">is </text>
<text x="585.99997852" y="768.99996425" width="39.00003523999999" height="26.999958789999937" class="text">not </text>
<text x="631.0000120000001" y="771.0000078200001" width="69.9999898399999" height="29.000002360000053" class="text">within </text>
<text x="717.9999864800001" y="770.00002457" width="34.00001595999993" height="27.000035860000025" class="text">his </text>
<text x="769.00000264" y="771.0000078200001" width="7.999971719999962" height="27.00003586000014" class="text">(</text>
<text x="780.0000357199999" y="771.0000078200001" width="52.999958520000064" height="27.00003586000014" class="text">their</text>
<text x="839.00003916" y="771.0000078200001" width="7.999971719999962" height="27.00003586000014" class="text">) </text>
<text x="858.9999918" y="773.0000256999999" width="103.99997468000004" height="29.00005374" class="text">personal </text>
<text x="977.99994652" y="774.0000089499999" width="118.00008467999999" height="28.99997666999991" class="text">knowledge</text>
<text x="1101.0000037999998" y="773.0000256999999" width="7.999971720000076" height="27.000010169999996" class="text">.
</text>
<text x="880.0000167599999" y="863.9999914699999" width="7.999987280000141" height="28.00001911000004" class="text">(</text>
<text x="891.0000187200001" y="863.9999914699999" width="54.99999423999998" height="28.00001911000004" class="text">Type </text>
<text x="961.9999875199999" y="863.9999914699999" width="25.999997560000224" height="28.00001911000004" class="text">or </text>
<text x="1001.0000227600001" y="864.99997472" width="62.99998151999989" height="27.99994203999995" class="text">print </text>
<text x="1072.99997052" y="864.99997472" width="64.00003828000013" height="27.99994203999995" class="text">name </text>
<text x="1152.99998336" y="864.99997472" width="68.00004748000015" height="27.99994203999995" class="text">under </text>
<text x="1236.9999898400001" y="866.0000093499999" width="51.00001615999986" height="27.99999342000001" class="text">each </text>
<text x="1303.999965" y="866.0000093499999" width="113.00001872000007" height="27.99999342000001" class="text">signature</text>
<text x="1420.99997736" y="866.0000093499999" width="7.999987279999914" height="27.99999342000001" class="text">)
</text>
<text x="961.9999875199999" y="1001.00003451" width="165.99997724000013" height="133.00005866000004" class="text">Mihin
</text>
<text x="1074.0000272799998" y="987.99999536" width="8.999966240000276" height="29.999959920000038" class="text">(</text>
<text x="1086.0000082000001" y="990.00003893" width="124.99999963999994" height="32.00000349000004" class="text">Signatures
</text>
<text x="898.00002704" y="1026.0000268" width="108.99993172000006" height="42.999999069999944" class="text">Yoshio </text>
<text x="1032.99995632" y="1026.0000268" width="103.00008907999995" height="42.999999069999944" class="text">Tagaya
</text>
<text x="197.00000964" y="981.99996741" width="7.999987279999999" height="28.99997666999991" class="text">(</text>
<text x="204.99999692" y="981.99996741" width="17.000000199999988" height="28.99997666999991" class="text">If </text>
<text x="239.00001287999999" y="983.0000277299999" width="36.99998396000001" height="30.0000369899999" class="text">the </text>
<text x="297.00000624" y="983.0000277299999" width="62.999981520000006" height="29.00005374" class="text">agent </text>
<text x="374.99999892" y="983.0000277299999" width="21.999988359999975" height="29.00005374" class="text">is </text>
<text x="420.00000127999994" y="984.00001098" width="7.999987280000084" height="29.00000235999994" class="text">a </text>
<text x="451.00000256" y="984.99999423" width="134.00001256000007" height="31.000020240000026" class="text">partnership</text>
<text x="590.9999978000001" y="984.99999423" width="7.999987279999914" height="29.000002360000053" class="text">, </text>
<text x="614.0000118" y="985.99995179" width="139.99999523999998" height="29.999959920000038" class="text">corporation</text>
<text x="759.00001076" y="985.99995179" width="7.999987280000028" height="28.999976670000024" class="text">,
</text>
<text x="129.99999558" y="1013.9999709" width="126.99999646" height="30.99994317000005" class="text">association</text>
<text x="264.00000036" y="1012.99998765" width="7.999987280000028" height="28.999976670000024" class="text">, </text>
<text x="290.99999243999997" y="1012.99998765" width="26.000013120000006" height="28.999976670000024" class="text">or </text>
<text x="332.99999568" y="1012.99998765" width="65.99998063999999" height="28.999976670000024" class="text">other </text>
<text x="416.00000764" y="1015.00003122" width="144.99999896000003" height="31.000020240000026" class="text">combination </text>
<text x="581.9999848799999" y="1015.00003122" width="22.00000392000004" height="30.000036990000012" class="text">of </text>
<text x="620.00001004" y="1016.00001447" width="130.99998231999996" height="31.000020240000026" class="text">individuals</text>
<text x="754.00000704" y="1015.00003122" width="7.999987280000028" height="29.000079430000028" class="text">,
</text>
<text x="127.00000112800001" y="1041.00000676" width="40.999996272000004" height="27.00003585999991" class="text">this </text>
<text x="189.0000068" y="1043.00002464" width="141.00000532" height="29.00005374" class="text">amendment </text>
<text x="344.99999216000003" y="1044.99999114" width="56.99999883999999" height="28.999976670000024" class="text">shall </text>
<text x="423.00001596" y="1044.00000789" width="24.999971920000007" height="27.00003585999991" class="text">be </text>
<text x="469.9999918" y="1045.99997439" width="73.00000451999995" height="29.00000235999994" class="text">signed </text>
<text x="563.9999901599999" y="1045.99997439" width="38.00000960000011" height="28.000019109999926" class="text">and </text>
<text x="623.0000247199999" y="1047.0000347100001" width="66.99997516000008" height="28.00001911000004" class="text">sworn </text>
<text x="713.00001388" y="1047.0000347100001" width="18.99998923999999" height="27.000035860000025" class="text">to
</text>
<text x="123.999995784" y="1075.0000281300001" width="75.00000289599997" height="27.99999342000001" class="text">before </text>
<text x="221.0000026" y="1075.0000281300001" width="8.000002840000036" height="27.99999342000001" class="text">a </text>
<text x="252.9999984" y="1075.0000281300001" width="76.00000364000002" height="27.99999342000001" class="text">notary </text>
<text x="349.99999588000003" y="1075.0000281300001" width="68.00001635999996" height="27.99999342000001" class="text">public</text>
<text x="420.00000127999994" y="1075.0000281300001" width="7.999987280000084" height="27.99999342000001" class="text">, </text>
<text x="445.99999884000005" y="1075.0000281300001" width="25.99999755999994" height="27.99999342000001" class="text">or </text>
<text x="491.00001676" y="1075.0000281300001" width="64.99998612000002" height="27.99999342000001" class="text">other </text>
<text x="576.99998116" y="1075.0000281300001" width="76.99999816000002" height="27.99999342000001" class="text">officer </text>
<text x="673.00001524" y="1075.0000281300001" width="75.99997251999991" height="27.99999342000001" class="text">author-
</text>
<text x="123.999995784" y="1102.9999701699999" width="49.999999856" height="26.999958789999937" class="text">ized </text>
<text x="195.00000504000002" y="1104.00003049" width="19.999983759999964" height="27.000035860000025" class="text">to </text>
<text x="237.99998724" y="1105.00001374" width="127.00001980000002" height="29.000002360000053" class="text">administer </text>
<text x="386.00000088" y="1105.00001374" width="63.000012639999966" height="27.000035860000025" class="text">oaths</text>
<text x="449.99999248" y="1105.9999713" width="8.000018400000044" height="26.999933099999907" class="text">, </text>
<text x="475.00001108000004" y="1105.9999713" width="24.99997191999995" height="26.999933099999907" class="text">by </text>
<text x="522.999997" y="1105.9999713" width="7.999987279999914" height="26.999933099999907" class="text">a </text>
<text x="561.0000066" y="1108.00001487" width="93.99999835999995" height="28.999976670000024" class="text">majority </text>
<text x="675.00000428" y="1107.00003162" width="23.999992959999986" height="27.000035860000025" class="text">of </text>
<text x="715.99999744" y="1108.00001487" width="62.000002559999984" height="27.000035860000025" class="text">those
</text>
<text x="122.99999815199999" y="1134.99997366" width="102.99999260800004" height="27.99994203999995" class="text">partners</text>
<text x="231.00001004" y="1134.99997366" width="8.00000283999998" height="26.999958789999937" class="text">, </text>
<text x="255.99999752" y="1136.0000339800001" width="96.00000295999999" height="29.000002360000053" class="text">officers</text>
<text x="354.99999959999997" y="1134.99997366" width="8.000002840000036" height="26.999958789999937" class="text">, </text>
<text x="380.99999716" y="1136.99999154" width="110.99999855999994" height="28.999976670000024" class="text">directors</text>
<text x="495.99998936000003" y="1136.0000339800001" width="8.00001839999993" height="27.000035860000025" class="text">, </text>
<text x="521.00000796" y="1136.99999154" width="25.00001860000009" height="27.99999342000001" class="text">or </text>
<text x="567.00000484" y="1137.9999747900001" width="93.00000383999998" height="27.99999342000001" class="text">persons </text>
<text x="680.00002356" y="1137.9999747900001" width="38.99998856000002" height="27.99999342000001" class="text">per-
</text>
<text x="122.00000052" y="1165.9999939" width="96.00000296000003" height="26.999958789999937" class="text">forming </text>
<text x="237.99998724" y="1165.9999939" width="90.00002028" height="26.999958789999937" class="text">similar </text>
<text x="347.99999128" y="1165.9999939" width="107.00000491999998" height="26.999958789999937" class="text">functions </text>
<text x="475.99997448" y="1165.9999939" width="45.000033479999956" height="26.999958789999937" class="text">who </text>
<text x="537.9999926" y="1165.9999939" width="38.000009599999885" height="26.999958789999937" class="text">are </text>
<text x="599.99999516" y="1165.9999939" width="14.99999559999992" height="26.999958789999937" class="text">in </text>
<text x="640.00000936" y="1165.9999939" width="34.99999491999995" height="26.999958789999937" class="text">the </text>
<text x="693.00001456" y="1165.9999939" width="75.00000912000007" height="26.999958789999937" class="text">United
</text>
<text x="124.999994972" y="1193.00002976" width="73.000009188" height="24.000034729999925" class="text">States</text>
<text x="199.9999932" y="1191.9999694399999" width="6.000013800000005" height="21.99999115999981" class="text">. </text>
<text x="232.00000456" y="1198.99995495" width="20.999993840000002" height="27.99991635000015" class="text">If </text>
<text x="266.99999948" y="1198.99995495" width="30.00000676000002" height="27.99991635000015" class="text">no </text>
<text x="314.99998539999996" y="1198.99995495" width="50.00002164000006" height="27.99991635000015" class="text">such </text>
<text x="388.00000547999997" y="1198.99995495" width="77.99999267999999" height="27.99991635000015" class="text">person </text>
<text x="488.00000208" y="1198.99995495" width="19.99999932000003" height="27.99991635000015" class="text">is </text>
<text x="530.00000532" y="1198.99995495" width="16.000021240000024" height="27.99991635000015" class="text">in </text>
<text x="572.00000856" y="1198.99995495" width="33.00000588" height="27.99991635000015" class="text">the </text>
<text x="625.00001376" y="1198.99995495" width="74.99996243999999" height="27.99991635000015" class="text">United </text>
<text x="709.9999991999999" y="1198.99995495" width="74.00003016000016" height="27.99991635000015" class="text">States</text>
<text x="785.0000083199999" y="1198.99995495" width="7.999987280000141" height="27.99991635000015" class="text">,
</text>
<text x="124.999994972" y="1225.00000756" width="36.00000966799999" height="27.99999342000001" class="text">the </text>
<text x="176.99999476" y="1226.99997406" width="141.00002088000002" height="29.999959920000038" class="text">amendment </text>
<text x="334.00000576" y="1228.00003438" width="62.000002559999984" height="29.000079429999914" class="text">shall </text>
<text x="409.99997828" y="1228.00003438" width="26.000044240000022" height="28.00001911000004" class="text">be </text>
<text x="458.99998983999996" y="1229.99997519" width="75.00000912000002" height="29.999959920000038" class="text">signed </text>
<text x="552.9999882" y="1229.00001763" width="39.99999864000006" height="28.00001911000004" class="text">and </text>
<text x="610.99999712" y="1230.99995844" width="69.00002644000006" height="29.999959920000038" class="text">sworn </text>
<text x="702.00001192" y="1229.99997519" width="19.999968200000012" height="27.99999342000001" class="text">to </text>
<text x="743.0000050799999" y="1230.99995844" width="25.99999756000011" height="27.99991634999992" class="text">by
</text>
<text x="124.999994972" y="1257.00001105" width="36.00000966799999" height="27.99999342000001" class="text">the </text>
<text x="179.99999388" y="1257.9999943" width="48.00001703999999" height="28.00001911000004" class="text">duly </text>
<text x="247.00000015999998" y="1258.99997755" width="127.00000423999998" height="29.000002360000053" class="text">authorized </text>
<text x="392.99999363999996" y="1261.00002112" width="174.00001120000002" height="30.000062679999928" class="text">representative </text>
<text x="585.99997852" y="1261.00002112" width="26.000044239999966" height="28.00001911000004" class="text">of </text>
<text x="629.9999863600001" y="1261.00002112" width="33.00000587999989" height="28.00001911000004" class="text">the </text>
<text x="684.9999806000001" y="1262.99996193" width="64.00000715999988" height="29.999959920000038" class="text">agent</text>
<text x="748.0000087999999" y="1261.99997868" width="7.999987280000028" height="27.99999342000001" class="text">.</text>
<text x="759.00001076" y="1261.99997868" width="7.999987280000028" height="27.99999342000001" class="text">)
</text>
<text x="1072.99997052" y="1109.9999813700001" width="8.000065080000013" height="27.999942040000178" class="text">(</text>
<text x="1082.99999352" y="1109.9999813700001" width="110.99996743999986" height="27.999942040000178" class="text">Signature</text>
<text x="1199.00002692" y="1109.9999813700001" width="7.999987279999914" height="27.999942040000178" class="text">)
</text>
<text x="1074.0000272799998" y="1233.00000201" width="7.999987280000141" height="28.00001911000004" class="text">(</text>
<text x="1085.00002924" y="1233.00000201" width="106.99998935999997" height="28.00001911000004" class="text">Signature</text>
<text x="1200.0000058800001" y="1233.00000201" width="7.999971719999849" height="28.00001911000004" class="text">)
</text>
<text x="1075.00000624" y="1353.00002152" width="7.999987280000141" height="26.999958790000164" class="text">(</text>
<text x="1083.99995692" y="1353.00002152" width="110.00000404000002" height="26.999958790000164" class="text">Signature</text>
<text x="1202.0000416" y="1354.0000818400001" width="7.999987279999914" height="27.000112930000114" class="text">)
</text>
<text x="1074.0000272799998" y="1473.9999472099998" width="7.999987280000141" height="26.99995878999971" class="text">(</text>
<text x="1085.00002924" y="1473.9999472099998" width="108.99993171999995" height="26.99995878999971" class="text">Signature</text>
<text x="1197.9999546000001" y="1473.9999472099998" width="8.000080639999851" height="26.99995878999971" class="text">)
</text>
<text x="192.00000592" y="1679.99993917" width="127.99999876000001" height="23.999931970000034" class="text">Subscribed </text>
<text x="342.0000086" y="1680.99999949" width="38.99998856000002" height="23.00005148000014" class="text">and </text>
<text x="401.999991" y="1682.00005981" width="67.00002183999999" height="24.00011180000024" class="text">sworn </text>
<text x="489.99999112" y="1682.00005981" width="20.999993840000002" height="23.00005148000014" class="text">to </text>
<text x="532.99997332" y="1684.00000062" width="72.00004111999999" height="24.999992290000137" class="text">before </text>
<text x="633.00000104" y="1682.9999403000002" width="29.000012239999933" height="22.99987165000016" class="text">me </text>
<text x="680.99998696" y="1684.00000062" width="25.999997559999997" height="23.00002579000011" class="text">at
</text>
<text x="761.99999432" y="1729.99992375" width="77.00004483999999" height="105.99984296999992" class="text">New </text>
<text x="861.00004308" y="1730.99998407" width="66.99997516000008" height="104.99996248000002" class="text">York</text>
<text x="949.0000432" y="1732.00004439" width="32.99999031999994" height="104.0000563000001" class="text">, </text>
<text x="997.0000291199999" y="1734.00001089" width="63.999960480000254" height="106.00002280000012" class="text">New </text>
<text x="1101.0000037999998" y="1735.0000455200002" width="81.99995520000016" height="105.00009093000017" class="text">York
</text>
<text x="480.99999375999994" y="1788.00005692" width="183.00000856000008" height="95.00002721999999" class="text">February</text>
<text x="733.99999216" y="1779.00002784" width="29.000012240000046" height="88.99999927000022" class="text">, </text>
<text x="766.99999804" y="1777.99996752" width="79.00004944" height="92.00000039999986" class="text">1967</text>
<text x="840.0000025599999" y="1774.99996639" width="29.00001224000016" height="88.99999926999999" class="text">.
</text>
<text x="122.00000052" y="1751.0000087300002" width="45.99999688000001" height="37.99992868000027" class="text">this
</text>
<text x="346.00000224" y="1746.0000411" width="38.0000096" height="27.99999342000001" class="text">day </text>
<text x="403.9999956" y="1743.99994615" width="25.000018600000033" height="26.999958789999937" class="text">of
</text>
<text x="950.99998556" y="1968.00002196" width="160.00004123999986" height="76.00006287999986" class="text">alene </text>
<text x="1085.00002924" y="1978.99999185" width="284.99994752" height="81.00000482000019" class="text">bi
</text>
<text x="936.99996892" y="1994.99995506" width="8.000080640000078" height="26.999933100000135" class="text">(</text>
<text x="943.9999772399999" y="1994.99995506" width="84.00000648000014" height="26.999933100000135" class="text">Notary </text>
<text x="1042.99997932" y="1994.99995506" width="25.000018599999976" height="26.999933100000135" class="text">or </text>
<text x="1083.99995692" y="1994.99995506" width="64.00005383999996" height="26.999933100000135" class="text">other </text>
<text x="1163.99998532" y="1994.99995506" width="76.99999816000013" height="26.999933100000135" class="text">officer</text>
<text x="1244.99997712" y="1994.99995506" width="7.999987279999914" height="26.999933100000135" class="text">)
</text>
<text x="530.00000532" y="2027.00003562" width="76.99999816000002" height="21.999991160000263" class="text">ARLENE </text>
<text x="618.9999844" y="2027.00003562" width="29.000012239999933" height="21.999991160000263" class="text">M. </text>
<text x="651.99999028" y="2027.00003562" width="76.0000192" height="21.999991160000263" class="text">URSINI
</text>
<text x="464.99998808" y="2050.99999328" width="63.000028199999974" height="20.99993084000016" class="text">Notary </text>
<text x="539.99998164" y="2050.99999328" width="54.00003084000002" height="20.99993084000016" class="text">Public</text>
<text x="599.99999516" y="2050.99999328" width="5.999998239999968" height="20.99993084000016" class="text">, </text>
<text x="614.99999076" y="2050.99999328" width="44.00000783999997" height="20.99993084000016" class="text">State </text>
<text x="675.99998324" y="2050.99999328" width="19.000020360000008" height="20.99993084000016" class="text">of </text>
<text x="704.0000165199999" y="2050.99999328" width="34.99999492000006" height="20.99993084000016" class="text">New </text>
<text x="757.0000217200001" y="2050.99999328" width="39.99996751999993" height="20.99993084000016" class="text">York
</text>
<text x="458.00001088000005" y="2077.00004589" width="36.99999951999996" height="24.000111800000013" class="text">No. </text>
<text x="502.00001872" y="2078.9999867" width="115.99998671999998" height="26.00005261000024" class="text">24-4057835 </text>
<text x="627.99998176" y="2078.9999867" width="45.999996880000026" height="23.999931970000034" class="text">Qual</text>
<text x="671.9999896" y="2078.9999867" width="7.000008320000006" height="23.999931970000034" class="text">. </text>
<text x="684.0000172" y="2078.9999867" width="12.999991000000023" height="23.999931970000034" class="text">In </text>
<text x="708.99998912" y="2080.00004702" width="53.00000520000003" height="24.999992289999682" class="text">Kings </text>
<text x="770.99999168" y="2080.00004702" width="33.99996927999996" height="24.000086109999756" class="text">Co.
</text>
<text x="458.99998983999996" y="2100.00007168" width="40.99999316000003" height="23.00002579000011" class="text">Cert</text>
<text x="500.99999308" y="2099.00001136" width="5.999998240000025" height="21.000084979999883" class="text">. </text>
<text x="521.99997136" y="2099.00001136" width="38.00002515999995" height="21.000084979999883" class="text">filed </text>
<text x="578.0000068" y="2100.00007168" width="10.999986399999898" height="21.000084979999883" class="text">in </text>
<text x="607.00000348" y="2100.99997786" width="40.00001420000001" height="21.99999115999981" class="text">New </text>
<text x="667.99999596" y="2102.00003818" width="40.00001420000001" height="21.999991160000263" class="text">York </text>
<text x="726.00002044" y="2102.99994436" width="65.99999620000006" height="22.99989734000019" class="text">County
</text>
<text x="482.0000194" y="2130.0000316" width="93.99998279999994" height="26.000052609999784" class="text">Commission </text>
<text x="590.00001884" y="2130.99993778" width="55.9999732" height="25.999898470000062" class="text">Exptres </text>
<text x="658.9999985999999" y="2130.0000316" width="43.999992280000015" height="24.00008611000021" class="text">March </text>
<text x="717.00000752" y="2130.0000316" width="18.00001027999997" height="24.00008611000021" class="text">30</text>
<text x="737.0000224" y="2130.0000316" width="6.999961639999924" height="24.00008611000021" class="text">, </text>
<text x="752.9999813999999" y="2130.99993778" width="40.00001420000012" height="23.999931970000034" class="text">1967
</text>
<text x="118.999995176" y="2113.99993994" width="41.000014943999986" height="27.99986497000009" class="text">My </text>
<text x="176.00000024" y="2116.99994107" width="144.00000444000003" height="30.999866100000418" class="text">commission </text>
<text x="337.99998383999997" y="2118.00000139" width="91.00003036000004" height="29.99998560999984" class="text">expires
</text>
<text x="936.99996892" y="2111.00006726" width="18.00001027999997" height="20.00002465999978" class="text">19
</text>
<text x="1295.99999328" y="2141.00002718" width="36.99998396000001" height="15.99996321000026" class="text">GPO </text>
<text x="1350.00000856" y="2141.00002718" width="3.9999936400001843" height="15.99996321000026" class="text">8 </text>
<text x="1361.99998948" y="2141.00002718" width="75.00005579999993" height="15.99996321000026" class="text">68.416
</text>
</g>
</svg>
