<svg xmlns="http://www.w3.org/2000/svg">
<style>.text { font-size: 14px; font-family: Arial, sans-serif; }</style>
<g id="page-0" transform="translate(0, 0)">
<rect width="1558" height="2565" fill="none" stroke="black" />
<text x="219.00000514" y="103.00000405499999" width="48.99998805999999" height="21.000006404999993" class="text">Form </text>
<text x="278.99998733999996" y="103.00000405499999" width="29.000004380000007" height="20.000000114999978" class="text">DJ</text>
<text x="306.0000027" y="103.00000405499999" width="5.999998220000009" height="20.000000114999978" class="text">-</text>
<text x="314.99999224" y="104.00000265" width="34.00000030000001" height="20.999998709999986" class="text">307
</text>
<text x="1135.0000398" y="105.00000124499999" width="52.99991935999992" height="19.000001519999984" class="text">Budge </text>
<text x="1235.0000361" y="105.00000124499999" width="27.999986499999977" height="18.000005489999992" class="text">eau </text>
<text x="1272.00002772" y="104.00000265" width="35.000002600000016" height="18.00000292499999" class="text">No. </text>
<text x="1310.99996162" y="103.00000405499999" width="19.000074859999813" height="17.00000432999998" class="text">43</text>
<text x="1333.9999677800001" y="103.00000405499999" width="5.000073819999898" height="17.00000432999998" class="text">-</text>
<text x="1337.99999256" y="103.00000405499999" width="60.00001335999991" height="19.000001519999984" class="text">R226.5
</text>
<text x="1131.99997058" y="123.00000417" width="82.0000639599998" height="20.000000115000006" class="text">Approval </text>
<text x="1221.00003506" y="123.00000417" width="64.99999369999978" height="20.000000115000006" class="text">Expires </text>
<text x="1296.99996058" y="123.00000417" width="38.00005623999982" height="20.000000115000006" class="text">Oct. </text>
<text x="1342.00001734" y="123.00000417" width="18.00002581999979" height="20.000000115000006" class="text">31</text>
<text x="1363.00000332" y="123.00000417" width="5.999951480000163" height="20.000000115000006" class="text">, </text>
<text x="1375.99995532" y="123.00000417" width="40.00006083999983" height="20.000000115000006" class="text">1971
</text>
<text x="553.9999966400001" y="161.000009775" width="90.99999117999994" height="33.00000493499999" class="text">UNITED </text>
<text x="655.99999754" y="163.999992735" width="93.99999808000007" height="34.99998930000001" class="text">STATES </text>
<text x="759.00001632" y="166.99999621499998" width="173.99994837999998" height="35.999998154999986" class="text">DEPARTMENT </text>
<text x="938.00003852" y="166.99999621499998" width="30.00000668000007" height="31.99999607999999" class="text">OF </text>
<text x="980.99998162" y="170.00000225999997" width="99.00004074000003" height="35.00000212499998" class="text">JUSTICE </text>
<text x="1085.0000026999999" y="170.00000225999997" width="60.99996892000013" height="34.00000352999996" class="text">COVER</text>
<text x="1147.9999918" y="170.00000225999997" width="9.999960679999958" height="32.00000633999997" class="text">,
</text>
<text x="662.9999980599999" y="190.000002375" width="155.99998487999994" height="23.99999449499998" class="text">WASHINGTON</text>
<text x="823.00000772" y="190.000002375" width="6.99998493999999" height="23.99999449499998" class="text">, </text>
<text x="839.99996892" y="190.000002375" width="53.00001284000007" height="23.99999449499998" class="text">D.C. </text>
<text x="901.0000313200001" y="190.000002375" width="60.00001335999991" height="23.99999449499998" class="text">20530
</text>
<text x="990.00000232" y="198.000006525" width="122.99998688000005" height="36.000008414999996" class="text">DEPARTMENT </text>
<text x="1117.00001398" y="185.000001705" width="23.000006160000112" height="25.000000784999997" class="text">OF </text>
<text x="1145.00001606" y="183.000004515" width="72.99994977999995" height="31.000007745000005" class="text">JUSTICE
</text>
<text x="544.9999915200001" y="248.999993865" width="151.9999912599999" height="29.999998889999972" class="text">AMENDMENT </text>
<text x="708.0000080799999" y="248.00000553" width="30.00000668000007" height="28.00000426500003" class="text">TO </text>
<text x="749.99999562" y="250.00000272" width="177.99997315999997" height="30.000001455000017" class="text">REGISTRATION </text>
<text x="943.99999" y="251.00000901" width="148.00001322000003" height="29.99999889000003" class="text">STATEMENT
</text>
<text x="962.9999713799999" y="300.9999798" width="15.000050080000051" height="39.99999509999998" class="text">„</text>
<text x="978.99997702" y="298.999998" width="43.00003658000014" height="42.99998832" class="text">NOV </text>
<text x="1040.9999949799999" y="293.9999922" width="14.999956600000132" height="39.999997664999995" class="text">7 </text>
<text x="1094.9999789600001" y="287.9999955" width="15.000050079999937" height="39.99998997" class="text">3 </text>
<text x="1163.99999744" y="281.9999988" width="32.00001127999985" height="43.000003710000016" class="text">PM </text>
<text x="1221.00003506" y="276.999993" width="46.999967879999986" height="43.99998691500002" class="text">1969
</text>
<text x="637.00001616" y="310.0000005" width="101.99995416000002" height="30.00000915000004" class="text">Pursuant </text>
<text x="746.99998872" y="308.99998395" width="16.000005639999927" height="28.000001699999984" class="text">to </text>
<text x="776.99997982" y="310.0000005" width="32.99998242000004" height="29.000018249999982" class="text">the </text>
<text x="820.0000319800001" y="310.9999914" width="79.99995029999991" height="30.000009149999983" class="text">Foreign </text>
<text x="913.9999833200001" y="312.00000795" width="76.99997456000006" height="30.000009149999983" class="text">Agents
</text>
<text x="599.00000666" y="340.00000965" width="135.99998561999996" height="27.000010799999984" class="text">Registration </text>
<text x="745.00001528" y="340.00000965" width="41.999940800000104" height="27.000010799999984" class="text">Act </text>
<text x="790.9999808599999" y="340.00000965" width="25.00002634000009" height="27.000010799999984" class="text">of </text>
<text x="825.99996788" y="340.00000965" width="47.0000769400001" height="27.000010799999984" class="text">1938</text>
<text x="874.00000038" y="340.00000965" width="7.999956079999947" height="27.000010799999984" class="text">, </text>
<text x="890.9999771600001" y="340.00000965" width="25.00001076000001" height="27.000010799999984" class="text">as </text>
<text x="925.99996418" y="340.00000965" width="93.0000736799999" height="27.000010799999984" class="text">amended</text>
<text x="1020.0000090000001" y="340.00000965" width="7.999956079999947" height="27.000010799999984" class="text">.
</text>
<text x="1022.0000136000001" y="386.99999235" width="123.9999580199999" height="33.00000750000004" class="text">REGISTRATION </text>
<text x="1152.99997214" y="374.9999733" width="75.00006344000008" height="29.99998350000004" class="text">SECTION
</text>
<text x="839.99996892" y="432.00001890000004" width="19.00007486000004" height="27.00003645000004" class="text">2. </text>
<text x="876.00002056" y="432.00001890000004" width="134.99996773999987" height="28.00002735000004" class="text">Registration </text>
<text x="1024.00003378" y="431.00000235" width="37.99996276000002" height="27.000010799999984" class="text">No.
</text>
<text x="227.99999468000001" y="426.99998745000005" width="18.999996960000004" height="25.999994250000043" class="text">1. </text>
<text x="261.99999498" y="429.00002055000004" width="63.00000467999996" height="28.00002735000004" class="text">Name </text>
<text x="335.00000708" y="429.00002055000004" width="18.999996959999976" height="26.00001990000004" class="text">of </text>
<text x="363.99999588" y="430.00001145" width="114.99999964000006" height="28.000001699999984" class="text">Registrant
</text>
<text x="222.99999876" y="453.99999825" width="127.00001165999996" height="26.000019899999984" class="text">Italian </text>
<text x="373.00001657999996" y="453.99999825" width="191.00000306000004" height="26.000019899999984" class="text">Government </text>
<text x="581.99999872" y="454.99998915000003" width="109.00000141999999" height="24.999977700000045" class="text">Travel </text>
<text x="710.99998382" y="456.0000057" width="109.00004816000012" height="25.999994249999986" class="text">Office
</text>
<text x="371.9999987" y="484.00000739999996" width="143.99998844000004" height="27.000010799999984" class="text">E.N.I.T.
</text>
<text x="962.9999713799999" y="487.00000574999996" width="54.000061879999976" height="27.000010799999984" class="text">568
</text>
<text x="223.99998548000002" y="577.0000075500001" width="26.000013059999986" height="28.000001700000098" class="text">3. </text>
<text x="266.00000418" y="577.99999845" width="46.99999903999998" height="28.000001699999984" class="text">This </text>
<text x="324.99999965999996" y="580.0000059" width="121.00001344000003" height="30.000009149999983" class="text">amendment </text>
<text x="452.00001132" y="580.0000059" width="19.999983680000014" height="29.00001825000004" class="text">is </text>
<text x="479.99999782000003" y="580.9999968" width="53.00001284000001" height="29.00001825000004" class="text">filed </text>
<text x="542.00001578" y="580.0000059" width="21.000001559999987" height="28.000027350000096" class="text">to </text>
<text x="574.9999982" y="581.9999877" width="118.00000653999996" height="30.000009150000096" class="text">accomplish </text>
<text x="703.9999832999999" y="581.9999877" width="36.00000490000002" height="28.000001699999984" class="text">the </text>
<text x="746.00001758" y="583.99999515" width="102.99997203999999" height="30.000009149999983" class="text">following </text>
<text x="857.9999947399999" y="584.99998605" width="101.00004534000004" height="30.000009149999983" class="text">indicated </text>
<text x="966.00002502" y="586.0000026" width="82.9999260400001" height="29.999983499999985" class="text">purpose </text>
<text x="1061.99999654" y="586.0000026" width="20.99998598000002" height="28.000001699999984" class="text">or </text>
<text x="1089.00002748" y="586.9999935" width="98.99993167999992" height="29.99998349999987" class="text">purposes</text>
<text x="1189.0000082" y="586.9999935" width="7.999971660000028" height="27.999976049999987" class="text">:
</text>
<text x="325.99998638" y="669.0000168" width="8.00000282000002" height="27.00003645000004" class="text">☑ </text>
<text x="369.9999941" y="669.9999564" width="24.000008460000004" height="26.999959500000045" class="text">To </text>
<text x="405.99998342000004" y="670.9999985999999" width="76.00001900000001" height="29.000018249999926" class="text">correct </text>
<text x="492.99998098000003" y="670.9999985999999" width="8.00000282000002" height="26.99995949999993" class="text">a </text>
<text x="513.00002698" y="672.00001515" width="113.99998175999997" height="29.00001825000004" class="text">deficiency </text>
<text x="635.00001156" y="672.00001515" width="19.999983680000014" height="27.00003645000004" class="text">in
</text>
<text x="888.99995698" y="673.99999695" width="28.00007998000001" height="29.00001825000004" class="text">To </text>
<text x="925.0000086199999" y="673.99999695" width="44.99996328000009" height="29.00001825000004" class="text">give </text>
<text x="983.99995736" y="673.99999695" width="8.00004955999998" height="29.00001825000004" class="text">a </text>
<text x="1004.99995892" y="673.99999695" width="20.000030419999916" height="29.00001825000004" class="text">10</text>
<text x="1027.99996508" y="673.99999695" width="8.00004955999998" height="29.00001825000004" class="text">-</text>
<text x="1038.00001924" y="673.99999695" width="33.99993797999991" height="29.00001825000004" class="text">day </text>
<text x="1080.99997792" y="673.99999695" width="69.00001848000011" height="29.00001825000004" class="text">notice </text>
<text x="1159.99997266" y="673.99999695" width="22.000050600000122" height="29.00001825000004" class="text">of </text>
<text x="1193.00003298" y="673.99999695" width="7.999971659999801" height="29.00001825000004" class="text">a </text>
<text x="1212.00001436" y="673.99999695" width="74.00001439999983" height="29.00001825000004" class="text">change </text>
<text x="1298.0000096200001" y="673.99999695" width="18.99998137999978" height="29.00001825000004" class="text">in </text>
<text x="1328.99997186" y="673.99999695" width="50.00005268000018" height="29.00001825000004" class="text">infor-
</text>
<text x="888.00000142" y="703.0000152" width="67.99996943999997" height="27.000036449999925" class="text">mation </text>
<text x="969.00000076" y="703.0000152" width="25.999981899999966" height="27.000036449999925" class="text">as </text>
<text x="1004.99995892" y="703.0000152" width="87.00004430000001" height="27.000036449999925" class="text">required </text>
<text x="1099.00000374" y="703.0000152" width="25.000010759999896" height="27.000036449999925" class="text">by </text>
<text x="1138.9999711" y="703.0000152" width="76.99999013999991" height="27.000036449999925" class="text">Section </text>
<text x="1228.00003558" y="703.0000152" width="7.999956079999947" height="27.000036449999925" class="text">2</text>
<text x="1238.9999674" y="703.0000152" width="8.000049559999752" height="27.000036449999925" class="text">(</text>
<text x="1249.9999927000001" y="703.0000152" width="8.00004955999998" height="27.000036449999925" class="text">b</text>
<text x="1263.0000226" y="703.0000152" width="7.999956079999947" height="27.000036449999925" class="text">) </text>
<text x="1279.00002824" y="703.0000152" width="19.99995252000008" height="27.000036449999925" class="text">of </text>
<text x="1305.9999657" y="703.0000152" width="34.000031459999946" height="27.000036449999925" class="text">the </text>
<text x="1353.00004264" y="703.0000152" width="37.99996276000002" height="27.000036449999925" class="text">Act</text>
<text x="1390.00004984" y="703.0000152" width="7.999956079999947" height="27.000036449999925" class="text">.
</text>
<text x="418.99998216" y="727.9999929" width="70.00002078" height="22.999995900000044" class="text">Initial </text>
<text x="499.99998150000005" y="729.00000945" width="107.00004355999994" height="24.000012449999986" class="text">Statement
</text>
<text x="880.00004534" y="790.9999839000001" width="57.99999317999993" height="26.999959500000045" class="text">Other </text>
<text x="948.0000147799999" y="792.0000261" width="83.99997508000001" height="28.000001699999984" class="text">purpose </text>
<text x="1040.9999949799999" y="792.0000261" width="7.9999560800001746" height="27.00003645000004" class="text">(</text>
<text x="1050.0000156800002" y="792.0000261" width="76.00001899999984" height="27.00003645000004" class="text">specify</text>
<text x="1133.0000352" y="792.9999657" width="7.9999560800001746" height="26.99995949999993" class="text">)</text>
<text x="1142.9999958800001" y="792.9999657" width="7.99995607999972" height="26.99995949999993" class="text">.
</text>
<text x="382.00000612" y="790.9999839000001" width="6.99998493999999" height="25.9999942500001" class="text">☑ </text>
<text x="418.99998216" y="790.9999839000001" width="147.00001092000008" height="27.9999760500001" class="text">Supplemental </text>
<text x="574.9999982" y="789.99996735" width="105.99997893999989" height="27.999976049999987" class="text">Statement
</text>
<text x="418.0000266" y="821.0000443499999" width="33.999984719999986" height="30.000060449999864" class="text">for </text>
<text x="469.99997482000003" y="821.0000443499999" width="69.00003405999996" height="31.00007699999992" class="text">June </text>
<text x="563.00001734" y="820.0000021500001" width="27.99998650000009" height="30.000034800000094" class="text">30</text>
<text x="598.0000043599999" y="820.0000021500001" width="9.00002070000005" height="30.000034800000094" class="text">, </text>
<text x="634.00000926" y="820.0000021500001" width="68.99997174000009" height="30.999974400000042" class="text">1969</text>
<text x="711.99998612" y="818.9999856000001" width="9.000020699999936" height="29.999957849999987" class="text">.
</text>
<text x="365.00001376" y="881.9999766000001" width="25.99996632" height="27.999976049999987" class="text">To </text>
<text x="402.00000538" y="881.9999766000001" width="44.000007719999985" height="27.999976049999987" class="text">give </text>
<text x="457.99999396000004" y="881.9999766000001" width="67.00001388000004" height="27.999976049999987" class="text">notice </text>
<text x="537.999991" y="881.9999766000001" width="19.99999925999998" height="27.999976049999987" class="text">of </text>
<text x="564.00001964" y="881.9999766000001" width="74.99996995999993" height="27.999976049999987" class="text">change </text>
<text x="650.0000149" y="881.9999766000001" width="19.999983680000014" height="27.999976049999987" class="text">in </text>
<text x="681.99997944" y="881.9999766000001" width="21.0000015600001" height="27.999976049999987" class="text">an
</text>
<text x="362.99999358" y="910.9999948499999" width="76.00001900000001" height="26.99995949999993" class="text">exhibit </text>
<text x="449.99999114" y="910.9999948499999" width="111.00000602" height="26.99995949999993" class="text">previously </text>
<text x="573.9999959" y="910.9999948499999" width="47.00001461999989" height="26.99995949999993" class="text">filed</text>
<text x="626.00000644" y="910.9999948499999" width="8.000002819999963" height="26.99995949999993" class="text">.
</text>
<text x="220.00000744" y="998.00002395" width="24.999995180000013" height="27.00003645000004" class="text">4. </text>
<text x="259.00000366" y="998.00002395" width="19.00001254" height="27.00003645000004" class="text">If </text>
<text x="286.99999016" y="998.9999892" width="39.99999852000002" height="28.000001699999984" class="text">this </text>
<text x="339.0000007" y="1000.00000575" width="117.99999096000005" height="29.00001825000004" class="text">amendment </text>
<text x="463.99999218" y="1000.00000575" width="92.00002464000005" height="27.999976049999987" class="text">requires </text>
<text x="558.99999256" y="1000.00000575" width="34.999987019999935" height="27.00003645000004" class="text">the </text>
<text x="601.9999824" y="1000.00000575" width="58.0000087599999" height="27.00003645000004" class="text">filing </text>
<text x="668.99999628" y="1000.00000575" width="19.999983680000014" height="27.00003645000004" class="text">of </text>
<text x="700.00000526" y="1000.00000575" width="8.000002819999963" height="27.00003645000004" class="text">a </text>
<text x="721.00000682" y="1001.0000223000001" width="99.99998071999994" height="28.000053000000094" class="text">document </text>
<text x="830.9999638" y="1001.0000223000001" width="20.000030419999916" height="27.000010800000155" class="text">or </text>
<text x="859.9999993399999" y="1003.0000041" width="113.00002619999998" height="28.99999260000004" class="text">documents</text>
<text x="978.00002146" y="1001.99998755" width="7.999956079999947" height="26.999959500000045" class="text">, </text>
<text x="992.99997806" y="1001.99998755" width="68.00006292" height="26.999959500000045" class="text">please </text>
<text x="1075.00002644" y="1001.99998755" width="37.99996276000002" height="26.999959500000045" class="text">list-
</text>
<text x="221.99999646" y="1172.00003085" width="20.000014840000006" height="29.00001825000004" class="text">5. </text>
<text x="256.00001234" y="1172.00003085" width="56.999990879999984" height="29.00001825000004" class="text">Each </text>
<text x="323.99999736" y="1172.9999704499999" width="45.99999673999997" height="29.000018249999812" class="text">item </text>
<text x="376.0000079" y="1172.9999704499999" width="89.99998887999999" height="29.000018249999812" class="text">checked </text>
<text x="479.99999782000003" y="1174.00001265" width="62.99998910000005" height="30.000060449999864" class="text">above </text>
<text x="552.9999943400001" y="1174.00001265" width="49.999990359999856" height="29.00001825000004" class="text">must </text>
<text x="607.99998062" y="1174.00001265" width="28.000033239999993" height="29.00001825000004" class="text">be </text>
<text x="643.0000143799999" y="1175.9999688" width="109.0000014200001" height="30.999974400000156" class="text">explained </text>
<text x="759.00001632" y="1175.0000292" width="61.99997121999991" height="29.00001825000004" class="text">below </text>
<text x="834.9999885799999" y="1175.0000292" width="16.00000564000004" height="29.00001825000004" class="text">in </text>
<text x="864.00002412" y="1175.0000292" width="37.99997833999987" height="29.00001825000004" class="text">full </text>
<text x="911.00000758" y="1175.9999688" width="64.9999937" height="29.9999578500001" class="text">detail </text>
<text x="980.99998162" y="1175.9999688" width="94.00004482000008" height="28.99999260000004" class="text">together </text>
<text x="1080.99997792" y="1175.9999688" width="47.00006136000002" height="28.99999260000004" class="text">with</text>
<text x="1129.99996598" y="1177.0000109999999" width="8.00004955999998" height="29.000018249999812" class="text">, </text>
<text x="1145.00001606" y="1177.0000109999999" width="63.99994465999998" height="29.000018249999812" class="text">where </text>
<text x="1217.00001028" y="1178.00002755" width="123.99995802000012" height="31.00005134999992" class="text">appropriate</text>
<text x="1344.99999308" y="1178.00002755" width="8.00004955999998" height="29.00001825000004" class="text">,
</text>
<text x="256.00001234" y="1204.99998705" width="87.99996870000001" height="29.9999578500001" class="text">specific </text>
<text x="360.00000226" y="1204.99998705" width="98.99999400000002" height="29.9999578500001" class="text">reference </text>
<text x="472.9999973" y="1204.99998705" width="22.000003859999993" height="29.9999578500001" class="text">to </text>
<text x="512.0000091" y="1204.99998705" width="33.99998471999993" height="29.9999578500001" class="text">and </text>
<text x="556.9999723799999" y="1204.99998705" width="84.0000374" height="29.9999578500001" class="text">identity </text>
<text x="652.99999064" y="1204.99998705" width="22.000003859999993" height="29.9999578500001" class="text">of </text>
<text x="680.00002158" y="1204.99998705" width="33.99998472000004" height="29.9999578500001" class="text">the </text>
<text x="725.99998716" y="1204.99998705" width="47.00001462" height="29.9999578500001" class="text">item </text>
<text x="779.99995556" y="1204.99998705" width="17.000070260000143" height="29.9999578500001" class="text">in </text>
<text x="809.9999622400001" y="1204.99998705" width="34.999987019999935" height="29.9999578500001" class="text">the </text>
<text x="855.000019" y="1204.99998705" width="125.00000706000003" height="29.9999578500001" class="text">registration </text>
<text x="992.00000692" y="1204.99998705" width="106.00002567999991" height="29.9999578500001" class="text">statement </text>
<text x="1106.99995982" y="1204.99998705" width="17.00005467999995" height="29.9999578500001" class="text">to </text>
<text x="1133.9999907600002" y="1204.99998705" width="62.999989099999766" height="29.9999578500001" class="text">which </text>
<text x="1208.99996072" y="1204.99998705" width="17.00005467999995" height="29.9999578500001" class="text">it </text>
<text x="1235.0000361" y="1204.99998705" width="87.99999985999989" height="29.9999578500001" class="text">pertains</text>
<text x="1326.0000117" y="1204.99998705" width="9.000005119999969" height="29.9999578500001" class="text">. </text>
<text x="1339.99999716" y="1204.99998705" width="21.999957119999863" height="29.9999578500001" class="text">If
</text>
<text x="261.99999498" y="1232.0000235" width="44.000007719999985" height="29.00001825000004" class="text">more </text>
<text x="316.99999684" y="1232.0000235" width="63.00000468000002" height="29.00001825000004" class="text">space </text>
<text x="389.99997778" y="1232.0000235" width="22.000003859999993" height="29.00001825000004" class="text">is </text>
<text x="418.99998216" y="1232.0000235" width="77.00002130000001" height="29.00001825000004" class="text">needed</text>
<text x="500.99998380000005" y="1232.0000235" width="8.000018399999988" height="29.00001825000004" class="text">, </text>
<text x="515.99998714" y="1232.0000235" width="40.00002968000001" height="29.00001825000004" class="text">full </text>
<text x="564.00001964" y="1232.0000235" width="44.999963279999974" height="29.00001825000004" class="text">size </text>
<text x="620.0000082199999" y="1232.0000235" width="62.99998910000011" height="29.00001825000004" class="text">insert </text>
<text x="696.99998278" y="1232.0000235" width="66.00001157999998" height="29.00001825000004" class="text">sheets </text>
<text x="771.99999948" y="1232.0000235" width="37.000007199999914" height="29.00001825000004" class="text">may </text>
<text x="818.0000118" y="1232.0000235" width="28.000002079999945" height="29.00001825000004" class="text">be </text>
<text x="853.0000144" y="1232.0000235" width="51.99994821999985" height="29.00001825000004" class="text">used</text>
<text x="906.9999828" y="1232.0000235" width="8.00004955999998" height="29.00001825000004" class="text">.
</text>
<text x="238.00000210000002" y="1327.00005675" width="29.99999109999999" height="28.00000170000021" class="text">15 </text>
<text x="296.99999757999996" y="1328.0000733000002" width="8.00000282000002" height="28.0001299500002" class="text">°
</text>
<text x="405.99998342000004" y="1323.9999558" width="52.000010540000005" height="20.999937149999823" class="text">All </text>
<text x="478.99999552" y="1329.99997815" width="56.00001974000003" height="29.00001825000004" class="text">our </text>
<text x="551.99999204" y="1332.0000369" width="184.00001811999994" height="31.00007699999992" class="text">propaganda </text>
<text x="757.99999844" y="1332.0000369" width="37.00000720000003" height="29.000018249999812" class="text">is </text>
<text x="818.0000118" y="1332.0000369" width="58.000008760000014" height="29.000018249999812" class="text">not </text>
<text x="892.0000262" y="1333.9999160999998" width="166.99999460000015" height="30.999897449999708" class="text">political</text>
<text x="1064.99997228" y="1333.00005345" width="8.00004955999998" height="29.00001825000004" class="text">.
</text>
<text x="173.99999512" y="1383.00000885" width="36.00000490000002" height="22.999995900000158" class="text">We </text>
<text x="234.00000848" y="1384.00005105" width="32.99999800000003" height="23.00002154999993" class="text">do
</text>
<text x="307.000005" y="1386.99997245" width="55.00000186" height="30.000034800000094" class="text">not </text>
<text x="382.00000612" y="1389.0000312" width="73.00001209999999" height="31.00007699999992" class="text">give </text>
<text x="475.00001748" y="1387.9999890000001" width="32.99996684000001" height="30.000034800000094" class="text">or </text>
<text x="532.00000836" y="1390.00004775" width="129.9999873999999" height="32.000093549999974" class="text">receive </text>
<text x="685.0000019199999" y="1390.00004775" width="51.00000824000006" height="30.000034800000094" class="text">any </text>
<text x="760.00001862" y="1392.99996915" width="241.00000899999998" height="32.99995620000004" class="text">contributions </text>
<text x="1020.0000090000001" y="1392.99996915" width="37.99996276000002" height="30.999897449999935" class="text">of </text>
<text x="1078.00000218" y="1394.0000113499998" width="90.00002003999998" height="31.99993964999976" class="text">money </text>
<text x="1189.0000082" y="1394.0000113499998" width="32.99998242000015" height="30.000034799999867" class="text">or </text>
<text x="1249.0000215599998" y="1395.0000278999998" width="90.9999756000002" height="31.00005134999992" class="text">other </text>
<text x="1360.99999872" y="1396.00004445" width="104.00000550000027" height="32.000067899999976" class="text">things
</text>
<text x="398.99999848" y="1417.00000725" width="38.00000950000003" height="31.00007699999992" class="text">of </text>
<text x="460.00001414" y="1418.0000238" width="90.99997560000003" height="32.000093549999974" class="text">value </text>
<text x="573.9999959" y="1419.99992865" width="50.999992659999975" height="30.999897449999935" class="text">for </text>
<text x="644.99998782" y="1423.0000039499998" width="187.99998058000006" height="33.99997274999987" class="text">politicall </text>
<text x="834.9999885799999" y="1424.0000461500001" width="143.00003288000005" height="32.0000935500002" class="text">purposes
</text>
<text x="256.99998347999997" y="1749.00001275" width="42.0000187" height="28.99999260000004" class="text">The </text>
<text x="308.99999402" y="1749.00001275" width="128.00001396000005" height="28.99999260000004" class="text">undersigned </text>
<text x="450.99999344" y="1749.00001275" width="63.9999914" height="28.99999260000004" class="text">swear</text>
<text x="514.99998484" y="1749.00001275" width="8.000002819999963" height="28.99999260000004" class="text">(</text>
<text x="522.99998766" y="1749.00001275" width="8.000002820000077" height="28.99999260000004" class="text">s</text>
<text x="537.999991" y="1749.00001275" width="8.000002819999963" height="28.99999260000004" class="text">) </text>
<text x="549.99997186" y="1749.00001275" width="28.000048820000075" height="28.99999260000004" class="text">or </text>
<text x="583.00000102" y="1749.00001275" width="60.00001335999991" height="28.99999260000004" class="text">affirm</text>
<text x="647.99999472" y="1749.00001275" width="8.000002819999963" height="28.99999260000004" class="text">(</text>
<text x="657.00001542" y="1749.00001275" width="8.000002819999963" height="28.99999260000004" class="text">s</text>
<text x="667.99999398" y="1749.00001275" width="8.000002819999963" height="28.99999260000004" class="text">) </text>
<text x="682.99999732" y="1749.00001275" width="47.00001462" height="28.99999260000004" class="text">that </text>
<text x="736.00001016" y="1749.00001275" width="26.99998419999997" height="28.99999260000004" class="text">he </text>
<text x="768.00002144" y="1749.00001275" width="41.999940800000104" height="28.99999260000004" class="text">has </text>
<text x="818.9999829399999" y="1749.00001275" width="8.000049560000207" height="28.99999260000004" class="text">(</text>
<text x="823.99996328" y="1749.00001275" width="48.000032499999975" height="28.99999260000004" class="text">they </text>
<text x="881.0000008999999" y="1749.00001275" width="48.99998806000008" height="28.99999260000004" class="text">have</text>
<text x="934.9999693" y="1749.00001275" width="8.00004955999998" height="28.99999260000004" class="text">) </text>
<text x="950.0000193799999" y="1749.00001275" width="46.99998346000018" height="28.99999260000004" class="text">read </text>
<text x="1004.99995892" y="1749.00001275" width="32.00001127999997" height="28.99999260000004" class="text">the </text>
<text x="1047.9999955" y="1749.00001275" width="123.0000024599999" height="28.99999260000004" class="text">information </text>
<text x="1180.00000308" y="1749.00001275" width="37.00000720000003" height="28.99999260000004" class="text">set </text>
<text x="1221.00003506" y="1749.00001275" width="49.99994361999984" height="28.99999260000004" class="text">forth </text>
<text x="1282.00000398" y="1749.00001275" width="21.99995712000009" height="28.99999260000004" class="text">in </text>
<text x="1310.99996162" y="1749.00001275" width="45.00005676000001" height="28.99999260000004" class="text">this
</text>
<text x="216.99998496" y="1778.000031" width="121.00001343999998" height="26.000071199999866" class="text">amendment </text>
<text x="344.99999892" y="1778.000031" width="37.00000720000003" height="26.000071199999866" class="text">and </text>
<text x="390.99998008" y="1778.000031" width="45.00001001999999" height="26.000071199999866" class="text">that </text>
<text x="443.99999292" y="1778.000031" width="24.00002403999997" height="26.000071199999866" class="text">he </text>
<text x="478.99999552" y="1778.000031" width="19.000028119999968" height="26.000071199999866" class="text">is </text>
<text x="509.00000220000004" y="1778.000031" width="6.99998493999999" height="26.000071199999866" class="text">(</text>
<text x="517.00000502" y="1778.000031" width="43.99999214000002" height="26.000071199999866" class="text">they </text>
<text x="576.0000005" y="1778.000031" width="29.00000437999995" height="26.000071199999866" class="text">are</text>
<text x="609.99998522" y="1778.000031" width="7.000000519999958" height="26.000071199999866" class="text">) </text>
<text x="624.99998856" y="1778.000031" width="88.00001543999997" height="26.000071199999866" class="text">familiar </text>
<text x="718.99998664" y="1778.000031" width="45.00001001999999" height="26.000071199999866" class="text">with </text>
<text x="773.00000178" y="1778.000031" width="33.000029160000054" height="26.000071199999866" class="text">the </text>
<text x="820.0000319800001" y="1778.000031" width="88.99995541999988" height="26.000071199999866" class="text">contents </text>
<text x="918.9999636599999" y="1778.000031" width="78.99999474000015" height="26.000071199999866" class="text">thereof </text>
<text x="1006.0000079600001" y="1778.000031" width="37.000007199999914" height="26.000071199999866" class="text">and </text>
<text x="1050.9999712400001" y="1778.000031" width="45.00005676000001" height="26.000071199999866" class="text">that </text>
<text x="1105.9999886800001" y="1778.000031" width="44.99996327999975" height="26.000071199999866" class="text">such </text>
<text x="1163.99999744" y="1778.000031" width="95.00000038000007" height="26.000071199999866" class="text">contents </text>
<text x="1270.00002312" y="1778.000031" width="28.999957640000048" height="26.000071199999866" class="text">are </text>
<text x="1312.00001066" y="1778.000031" width="14.999956599999905" height="26.000071199999866" class="text">in </text>
<text x="1339.99999716" y="1778.000031" width="53.000012839999954" height="26.000071199999866" class="text">their
</text>
<text x="218.00000284" y="1808.9999541" width="82.99998836" height="28.000001699999984" class="text">entirety </text>
<text x="313.00000322" y="1808.9999541" width="38.000009499999976" height="28.000001699999984" class="text">true </text>
<text x="365.00001376" y="1808.9999541" width="34.99998701999999" height="28.000001699999984" class="text">and </text>
<text x="411.99998164" y="1808.9999541" width="91.00002234000004" height="28.000001699999984" class="text">accurate </text>
<text x="512.0000091" y="1808.9999541" width="21.000001559999987" height="28.000001699999984" class="text">to </text>
<text x="543.9999892200001" y="1808.9999541" width="33.00002915999994" height="28.000001699999984" class="text">the </text>
<text x="584.00000332" y="1808.9999541" width="50.00000593999994" height="28.000001699999984" class="text">best </text>
<text x="644.99998782" y="1808.9999541" width="20.000030419999916" height="28.000001699999984" class="text">of </text>
<text x="671.00000088" y="1808.9999541" width="31.999980120000032" height="28.000001699999984" class="text">his </text>
<text x="715.0000086" y="1808.9999541" width="8.000002819999963" height="28.000001699999984" class="text">(</text>
<text x="722.00000912" y="1808.9999541" width="53.99996840000006" height="28.000001699999984" class="text">their</text>
<text x="776.99997982" y="1808.9999541" width="8.000065139999947" height="28.000001699999984" class="text">) </text>
<text x="790.9999808599999" y="1808.9999541" width="115.00004638000007" height="28.000001699999984" class="text">knowledge </text>
<text x="915.00003236" y="1808.9999541" width="39.999982939999995" height="28.000001699999984" class="text">and </text>
<text x="962.0000002400001" y="1808.9999541" width="67.99996943999997" height="28.000001699999984" class="text">belief</text>
<text x="1029.00001412" y="1808.9999541" width="7.999956079999947" height="28.000001699999984" class="text">.
</text>
<text x="242.99999802000002" y="1899.0000585" width="6.0000137999999765" height="22.99999589999993" class="text">(</text>
<text x="248.00000952000002" y="1899.0000585" width="45.999981159999976" height="22.99999589999993" class="text">Both </text>
<text x="301.99999349999996" y="1899.0000585" width="67.00001388000004" height="22.99999589999993" class="text">copies </text>
<text x="376.99999462" y="1899.0000585" width="20.99998598000002" height="22.99999589999993" class="text">of </text>
<text x="403.00002326" y="1899.0000585" width="37.99996276000002" height="22.99999589999993" class="text">this </text>
<text x="452.00001132" y="1899.0000585" width="110.00000372" height="22.99999589999993" class="text">amendment </text>
<text x="567.9999976800001" y="1899.0000585" width="47.999985759999845" height="22.99999589999993" class="text">shall </text>
<text x="623.99998626" y="1899.0000585" width="25.000026339999977" height="22.99999589999993" class="text">be </text>
<text x="657.00001542" y="1899.0000585" width="65.99999600000001" height="22.99999589999993" class="text">signed </text>
<text x="731.0000142399999" y="1899.0000585" width="36.00000490000002" height="22.99999589999993" class="text">and </text>
<text x="775.00002196" y="1899.0000585" width="54.99997069999995" height="22.99999589999993" class="text">sworn
</text>
<text x="216.99998496" y="1923.99995925" width="20.000014840000006" height="21.999979349999876" class="text">to </text>
<text x="242.0000113" y="1923.99995925" width="59.99998219999995" height="21.999979349999876" class="text">before </text>
<text x="316.99999684" y="1923.99995925" width="5.999998220000009" height="21.999979349999876" class="text">a </text>
<text x="329.99999557999996" y="1923.99995925" width="62.00000238000001" height="22.99999589999993" class="text">notary </text>
<text x="404.00002556" y="1922.9999427" width="57.99999318000005" height="21.999979349999876" class="text">public </text>
<text x="473.9999996" y="1922.9999427" width="19.99999925999998" height="21.999979349999876" class="text">or </text>
<text x="499.99998150000005" y="1922.9999427" width="49.99999035999991" height="21.999979349999876" class="text">other </text>
<text x="556.9999723799999" y="1922.9999427" width="65.00004044000002" height="22.99999589999993" class="text">person </text>
<text x="630.99998678" y="1922.00008005" width="106.00002568000002" height="22.000133249999863" class="text">authorized </text>
<text x="741.9999928" y="1922.00008005" width="19.99999925999998" height="22.000133249999863" class="text">to </text>
<text x="773.00000178" y="1922.00008005" width="19.99999925999998" height="22.000133249999863" class="text">ad-
</text>
<text x="220.99999416" y="1949.0000139" width="79.99999704000001" height="24.000012449999986" class="text">minister </text>
<text x="307.99999171999997" y="1949.0000139" width="54.000015140000016" height="24.000012449999986" class="text">oaths </text>
<text x="367.00000278" y="1949.0000139" width="26.999999779999996" height="24.000012449999986" class="text">by </text>
<text x="401.00000308" y="1949.0000139" width="30.000006680000013" height="24.000012449999986" class="text">the </text>
<text x="440.99998602" y="1949.0000139" width="54.000015140000016" height="24.000012449999986" class="text">agent</text>
<text x="493.99999886" y="1949.0000139" width="6.999984940000047" height="24.000012449999986" class="text">, </text>
<text x="511.00000680000005" y="1949.0000139" width="14.00000104000003" height="24.000012449999986" class="text">if </text>
<text x="533.00001066" y="1949.0000139" width="31.00000897999996" height="24.000012449999986" class="text">the </text>
<text x="570.0000178600001" y="1949.0000139" width="97.99997611999993" height="24.000012449999986" class="text">registrant </text>
<text x="675.9999968" y="1949.0000139" width="18.00002582000002" height="24.000012449999986" class="text">is </text>
<text x="703.9999832999999" y="1949.0000139" width="22.000003860000106" height="24.000012449999986" class="text">an </text>
<text x="737.00001246" y="1949.0000139" width="99.00002516000006" height="24.000012449999986" class="text">individual</text>
<text x="834.9999885799999" y="1949.0000139" width="7.000000519999958" height="24.000012449999986" class="text">,
</text>
<text x="216.00001382" y="1973.9999403" width="21.999988280000025" height="23.999884199999997" class="text">or </text>
<text x="245.00000262" y="1973.9999403" width="22.00000386000002" height="23.999884199999997" class="text">by </text>
<text x="278.0000162" y="1973.9999403" width="6.99998493999999" height="23.999884199999997" class="text">a </text>
<text x="296.99999757999996" y="1973.9999403" width="76.99999014000002" height="23.999884199999997" class="text">majority </text>
<text x="384.00001072" y="1973.9999403" width="21.999972700000058" height="23.999884199999997" class="text">of </text>
<text x="411.99998164" y="1973.9999403" width="50.99999266000003" height="23.999884199999997" class="text">those </text>
<text x="471.999995" y="1973.9999403" width="79.99999704000004" height="23.999884199999997" class="text">partners</text>
<text x="556.00001682" y="1973.9999403" width="7.000000519999958" height="23.999884199999997" class="text">, </text>
<text x="568.99999998" y="1973.9999403" width="76.99999014000002" height="23.999884199999997" class="text">officers</text>
<text x="646.99999242" y="1973.9999403" width="7.000000519999958" height="23.999884199999997" class="text">, </text>
<text x="662.9999980599999" y="1973.9999403" width="88.00001544000008" height="23.999884199999997" class="text">directors </text>
<text x="761.99999206" y="1973.9999403" width="17.999963500000035" height="23.999884199999997" class="text">or
</text>
<text x="214.99999594000002" y="1998.99999495" width="78.99999473999998" height="25.00005465000004" class="text">persons </text>
<text x="300.00000448000003" y="1998.99999495" width="103.00001877999995" height="25.00005465000004" class="text">performing </text>
<text x="417.00000872" y="1998.99999495" width="67.99996944000003" height="25.00005465000004" class="text">similar </text>
<text x="492.99998098000003" y="1998.99999495" width="91.00002233999999" height="25.00005465000004" class="text">functions </text>
<text x="593.0000240200001" y="1998.99999495" width="38.99996505999991" height="25.00005465000004" class="text">who </text>
<text x="637.9999872999999" y="1998.99999495" width="28.999988800000096" height="25.00005465000004" class="text">are </text>
<text x="680.00002158" y="1998.99999495" width="14.00000104000003" height="25.00005465000004" class="text">in </text>
<text x="703.9999832999999" y="1998.99999495" width="32.00002686000005" height="25.00005465000004" class="text">the </text>
<text x="745.00001528" y="1998.99999495" width="63.00003584000001" height="25.00005465000004" class="text">United
</text>
<text x="218.00000284" y="2020.9999743" width="60.00001336" height="20.99996280000005" class="text">States</text>
<text x="280.00000522" y="2020.9999743" width="5.999982639999985" height="20.99996280000005" class="text">, </text>
<text x="297.99999987999996" y="2020.9999743" width="10.999994140000013" height="20.99996280000005" class="text">if </text>
<text x="316.99999684" y="2020.9999743" width="31.9999957" height="20.99996280000005" class="text">the </text>
<text x="356.99999536" y="2021.9999908500001" width="96.00001825999999" height="20.999937150000278" class="text">registrant </text>
<text x="462.00001874000003" y="2021.9999908500001" width="18.99998138000001" height="20.999937150000278" class="text">is </text>
<text x="491.00002312000004" y="2021.9999908500001" width="19.999983680000014" height="20.999937150000278" class="text">an </text>
<text x="520.9999830600001" y="2023.0000074" width="119.00000883999985" height="21.999953700000106" class="text">organization</text>
<text x="644.0000166799999" y="2023.0000074" width="5.999998220000066" height="20.99993715000005" class="text">.</text>
<text x="652.99999064" y="2023.0000074" width="5.999982639999985" height="20.99993715000005" class="text">)
</text>
<text x="897.9999621" y="1903.0000221" width="183.00001582000004" height="48.00007619999997" class="text">Qumili
</text>
<text x="1302.0000344" y="1903.0000221" width="169.99997034000012" height="38.99997855000015" class="text">mazs
</text>
<text x="899.00002672" y="1944.0000337499998" width="127.9999828" height="27.000087749999693" class="text">Italian </text>
<text x="1054.00004046" y="1945.9999386" width="104.99996106000003" height="27.999976049999987" class="text">Travel </text>
<text x="1180.00000308" y="1947.99999735" width="220.99996299999998" height="29.000018250000267" class="text">Commissioner
</text>
<text x="1117.99998512" y="1944.0000337499998" width="217.0000316999999" height="132.00000434999993" class="text">Jon
</text>
<text x="220.99999416" y="2111.999967" width="118.00000653999999" height="30.99992310000016" class="text">Subscribed </text>
<text x="346.00000122" y="2110.9999248" width="37.00000719999997" height="28.999864349999825" class="text">and </text>
<text x="396.9999783" y="2111.999967" width="59.00001106000002" height="29.999906550000105" class="text">sworn </text>
<text x="466.99999908" y="2111.999967" width="22.000003859999993" height="29.000018250000267" class="text">to </text>
<text x="498.99997920000004" y="2111.999967" width="64.00003813999996" height="29.000018250000267" class="text">before </text>
<text x="579.9999785399999" y="2112.9999835500003" width="22.000003860000106" height="30.00003480000032" class="text">me </text>
<text x="615.0000278800001" y="2112.9999835500003" width="21.99998827999991" height="29.000018250000267" class="text">at
</text>
<text x="728.00000734" y="2101.99998105" width="74.99995437999996" height="77.99993144999985" class="text">New
</text>
<text x="491.99997868" y="2195.0000325" width="227.00000795999995" height="94.00006800000028" class="text">October </text>
<text x="744.00001298" y="2190.99994065" width="28.999988800000096" height="90.99999270000035" class="text">19 </text>
<text x="768.00002144" y="2217.0000118499997" width="79.99999704000004" height="111.00006719999965" class="text">691
</text>
<text x="558.99999256" y="2252.0000268" width="110.00000372" height="67.99997114999996" class="text">March </text>
<text x="678.0000014" y="2252.0000268" width="63.9999914" height="67.99997114999996" class="text">30,1
</text>
<text x="704.9999856" y="2247.99993495" width="106.99999681999998" height="65.99993804999986" class="text">2,1941
</text>
<text x="218.00000284" y="2181.9999969" width="45.00001002000002" height="43.99995870000021" class="text">this </text>
<text x="292.00000166" y="2183.00001345" width="39.99999851999996" height="44.99997525000026" class="text">31 </text>
<text x="340.000003" y="2183.00001345" width="36.99999162" height="43.99995870000021" class="text">day </text>
<text x="389.99997778" y="2183.00001345" width="17.000023520000013" height="43.99995870000021" class="text">of
</text>
<text x="1289.0000045" y="2162.0000763" width="175.99999972000023" height="53.000056349999795" class="text">Warde
</text>
<text x="1470.00000014" y="2162.99993895" width="41.99998753999989" height="32.999956199999815" class="text">fort
</text>
<text x="1020.0000090000001" y="2200.00001265" width="7.000000519999958" height="24.000038099999983" class="text">(</text>
<text x="1027.00000952" y="2200.00001265" width="66.99999830000002" height="24.000038099999983" class="text">Notary </text>
<text x="1105.0000331200001" y="2200.00001265" width="17.999932339999987" height="24.000038099999983" class="text">or </text>
<text x="1129.99996598" y="2200.00001265" width="53.000012839999954" height="24.000038099999983" class="text">other </text>
<text x="1187.99995916" y="2200.00001265" width="67.0000138800001" height="24.000038099999983" class="text">officer</text>
<text x="1256.00002208" y="2200.00001265" width="7.000000519999958" height="24.000038099999983" class="text">)
</text>
<text x="1528.99994888" y="2224.00005075" width="6.000044959999968" height="12.000019049999992" class="text">1
</text>
<text x="214.99999594000002" y="2253.9999316500002" width="34.00001587999998" height="25.99994295000033" class="text">My </text>
<text x="256.00001234" y="2257.00000695" width="123.99998918" height="29.000018250000267" class="text">commission </text>
<text x="394.00000256" y="2258.00004915" width="78.99999474000003" height="28.000001699999757" class="text">expires
</text>
<text x="1221.00003506" y="2225.0000673" width="58.99994873999981" height="36.000031500000205" class="text">Notary </text>
<text x="1286.0000287599999" y="2208.9999564" width="56.99994414000025" height="35.00001495000015" class="text">Indic</text>
<text x="1337.99999256" y="2194.00001595" width="11.000025300000061" height="21.999979350000103" class="text">, </text>
<text x="1349.00001786" y="2192.99997375" width="55.000017439999965" height="35.00001495000015" class="text">Ste</text>
<text x="1296.99996058" y="2225.9999556000002" width="37.00000720000003" height="29.000018250000267" class="text">No. </text>
<text x="1340.9999683" y="2212.0000317" width="10.00005415999999" height="19.0000579499997" class="text">1
</text>
<text x="1254.00001748" y="2259.0000657" width="85.00002412000003" height="41.00003730000026" class="text">Qualified 
</text>
<text x="1342.9999729" y="2235.0000276" width="16.000005639999927" height="22.999995900000158" class="text">in </text>
<text x="1361.9999542799999" y="2230.0000474500002" width="60.00001336000014" height="35.00001495000015" class="text">Queen 
</text>
<text x="1430.99997276" y="2211.00001515" width="59.00005779999992" height="33.99999839999964" class="text">Care
</text>
<text x="1212.00001436" y="2292.0000219" width="28.99995763999982" height="26.000071200000093" class="text">Ce 
</text>
<text x="1309.99999048" y="2265.0000624" width="41.00003198000013" height="30.000034799999867" class="text">filed </text>
<text x="1358.00002298" y="2251.0000102500003" width="19.999936939999998" height="23.000021550000383" class="text">in </text>
<text x="1384.99996044" y="2243.99997135" width="35.000002600000016" height="27.99997605000044" class="text">New </text>
<text x="1432.00003738" y="2230.99993575" width="37.99996276000002" height="28.999864349999825" class="text">You
</text>
</g>
</svg>
