<svg xmlns="http://www.w3.org/2000/svg">
<style>.text { font-size: 14px; font-family: Arial, sans-serif; }</style>
<g id="page-0" transform="translate(0, 0)">
<rect width="1556" height="2569" fill="none" stroke="black" />
<text x="190.99999584" y="115.999999164" width="49.00001156000002" height="24.999997428" class="text">Form </text>
<text x="248.9999892" y="116.999995259" width="30.000006760000048" height="23.99999876400001" class="text">DJ</text>
<text x="277.00000692" y="115.999999164" width="7.000008320000006" height="23.00000266900001" class="text">-</text>
<text x="284.00001524" y="118.00000419899999" width="37.99997848000004" height="25.000007703999998" class="text">307
</text>
<text x="1103.00003952" y="115.0000005" width="44.99997123999992" height="19.999998970000007" class="text">Budg
</text>
<text x="1197.9999546000001" y="114.000004405" width="34.000078199999734" height="18.000006779999993" class="text">reau </text>
<text x="1243.0000192" y="112.999995465" width="33.00000588000012" height="15.999999176000003" class="text">No. </text>
<text x="1280.00001872" y="112.999995465" width="18.999989239999877" height="16.999997839999992" class="text">43</text>
<text x="1303.0000016000001" y="111.99999937" width="3.9999780799998916" height="16.00000174499999" class="text">-</text>
<text x="1309.00003096" y="112.999995465" width="57.99991555999986" height="17.999993935000006" class="text">R226.5
</text>
<text x="1103.00003952" y="134.99999947" width="83.99991311999997" height="19.999998970000007" class="text">Approval </text>
<text x="1192.0000186" y="134.000003375" width="65.99999619999994" height="19.000002875000007" class="text">Expires </text>
<text x="1268.0000378" y="134.000003375" width="37.99997847999998" height="19.000002875000007" class="text">Oct. </text>
<text x="1312.00004564" y="132.999997004" width="20.999931599999854" height="18.999992598999995" class="text">31</text>
<text x="1335.00001296" y="132.999997004" width="4.9999725999998645" height="18.999992598999995" class="text">, </text>
<text x="1349.00004516" y="132.999997004" width="37.999962920000144" height="18.999992598999995" class="text">1971
</text>
<text x="521.00000796" y="174.000001315" width="93.9999828" height="26.999999893999984" class="text">UNITED </text>
<text x="627.00001836" y="174.000001315" width="92.99995716000001" height="26.999999893999984" class="text">STATES </text>
<text x="728.99998844" y="174.999999979" width="173.00003223999988" height="27.000002462999987" class="text">DEPARTMENT </text>
<text x="909.000029" y="174.999999979" width="31.99993355999993" height="24.999997428" class="text">OF </text>
<text x="956.0000515199999" y="176.999994738" width="96.99995080000008" height="26.999992187000004" class="text">JUSTICE
</text>
<text x="634.00002668" y="205.000003572" width="157.00001099999997" height="23.999998763999997" class="text">WASHINGTON</text>
<text x="793.999959" y="204.000007477" width="6.00004492000005" height="23.000002668999997" class="text">, </text>
<text x="811.0000058800001" y="204.000007477" width="54.00001527999996" height="23.000002668999997" class="text">D.C. </text>
<text x="873.00000844" y="204.000007477" width="59.99996684000007" height="23.000002668999997" class="text">20530
</text>
<text x="515.00000972" y="262.00000449000004" width="152.99998624" height="24.99999999700003" class="text">AMENDMENT </text>
<text x="678.99999792" y="260.99999555" width="29.000012239999933" height="22.999994961999988" class="text">TO </text>
<text x="717.9999864800001" y="262.00000449000004" width="181.0000195199999" height="24.00000390200003" class="text">REGISTRATION </text>
<text x="913.00002264" y="262.99998774" width="150.00000268000008" height="24.99998715199999" class="text">STATEMENT
</text>
<text x="609.99998704" y="325.00000253" width="102.00001676000011" height="30.00001130000004" class="text">Pursuant </text>
<text x="719.0000121200001" y="323.99999359000003" width="16.00000567999996" height="27.99999342000001" class="text">to </text>
<text x="746.99999872" y="325.00000253" width="31.999980240000014" height="29.000002359999996" class="text">the </text>
<text x="788.000023" y="325.99998578" width="84.00000647999991" height="29.999985609999953" class="text">Foreign </text>
<text x="887.00002508" y="326.99999471999996" width="71.99994775999994" height="30.000011299999926" class="text">Agents
</text>
<text x="570.9999984799999" y="355.00001383" width="133.999997" height="26.000026919999982" class="text">Registration </text>
<text x="717.00000752" y="355.00001383" width="40.00001420000001" height="26.000026919999982" class="text">Act </text>
<text x="761.00001536" y="355.00001383" width="23.999992959999872" height="26.000026919999982" class="text">of </text>
<text x="792.9999956" y="355.00001383" width="50.00003719999995" height="26.000026919999982" class="text">1938</text>
<text x="843.9999962" y="355.00001383" width="7.000008320000006" height="26.000026919999982" class="text">, </text>
<text x="862.9999854399999" y="355.00001383" width="24.000039640000068" height="26.000026919999982" class="text">as </text>
<text x="895.99999132" y="355.00001383" width="91.99999376000005" height="26.000026919999982" class="text">amended</text>
<text x="991.99996316" y="355.00001383" width="7.000023879999958" height="26.000026919999982" class="text">.
</text>
<text x="198.99999867999998" y="442.99997847000003" width="19.000004800000056" height="24.99999229000008" class="text">1. </text>
<text x="233.9999936" y="444.99997066" width="61.00002359999999" height="26.999984480000023" class="text">Name </text>
<text x="302.99998892" y="444.99997066" width="22.999998440000013" height="24.999992289999966" class="text">of </text>
<text x="335.00000028" y="447.99999748" width="116.00000227999999" height="28.000019109999982" class="text">Registrant
</text>
<text x="813.0000416" y="447.00001423" width="17.999916920000032" height="24.999992289999966" class="text">2. </text>
<text x="847.99998984" y="449.00000642000003" width="134.00004367999998" height="26.999984480000023" class="text">Registration </text>
<text x="991.99996316" y="449.00000642000003" width="43.00002888000006" height="26.00000123000001" class="text">No.
</text>
<text x="232.99999907999998" y="512.00000446" width="111.99999308000005" height="25.999975540000037" class="text">German </text>
<text x="366.99999608" y="512.00000446" width="150.9999972" height="27.000010170000053" class="text">National </text>
<text x="539.99998164" y="509.99998658" width="128.00001432" height="26.999984479999966" class="text">Tourist </text>
<text x="686.0000062400001" y="508.99997764000005" width="114.99997664" height="26.999984480000023" class="text">Office
</text>
<text x="931.0000329200001" y="506.99998545" width="55.9999732" height="27.999967730000037" class="text">616
</text>
<text x="198.00000416" y="595.9999847199999" width="19.99999932000003" height="27.999967729999867" class="text">3. </text>
<text x="235.9999982" y="596.99999366" width="46.9999914" height="28.99997666999991" class="text">This </text>
<text x="295.0000172" y="598.0000282899999" width="119.00000140000003" height="29.000028049999855" class="text">amendment </text>
<text x="422.00000588" y="598.0000282899999" width="19.999999319999972" height="28.000019109999926" class="text">is </text>
<text x="453.99998611999996" y="598.99998585" width="47.000006960000064" height="28.999976670000024" class="text">filed </text>
<text x="511.99999504" y="598.99998585" width="20.000014880000037" height="27.99999342000001" class="text">to </text>
<text x="543.9999752800001" y="600.99997804" width="124.00002067999992" height="29.999985609999953" class="text">accomplish </text>
<text x="678.00001896" y="600.00002048" width="31.9999802399999" height="28.00001911000004" class="text">the </text>
<text x="719.0000121200001" y="602.00001267" width="102.9999957199999" height="30.000011300000097" class="text">following </text>
<text x="832.00003084" y="602.99999592" width="102.00001676" height="29.999985609999953" class="text">indicated </text>
<text x="939.00000464" y="604.00000486" width="82.9999497199999" height="30.000011299999983" class="text">purpose </text>
<text x="1030.9999983999999" y="602.99999592" width="25.99999756000011" height="27.999993419999896" class="text">or </text>
<text x="1061.9999685599998" y="605.0000138" width="99.00000208000006" height="30.000011299999983" class="text">purposes</text>
<text x="1162.0000274" y="604.00000486" width="7.999987280000141" height="28.00001911000004" class="text">:
</text>
<text x="340.000004" y="689.00001975" width="25.000003040000024" height="27.00003585999991" class="text">To </text>
<text x="374.99999892" y="690.99996056" width="82.00000188000001" height="28.99997666999991" class="text">correct </text>
<text x="464.99998808" y="689.9999773100001" width="8.000018400000044" height="26.99993310000002" class="text">a </text>
<text x="482.9999828" y="692.0000208800001" width="117.00001236000003" height="28.999976670000024" class="text">deficiency </text>
<text x="607.9999824399999" y="690.99996056" width="19.000035920000073" height="26.999958789999937" class="text">in
</text>
<text x="861.00004308" y="693.00000413" width="25.999982000000045" height="28.00001911000004" class="text">To </text>
<text x="899.000006" y="693.00000413" width="43.000028879999945" height="28.00001911000004" class="text">give </text>
<text x="956.0000515199999" y="693.00000413" width="7.999971720000076" height="28.00001911000004" class="text">a </text>
<text x="977.99994652" y="693.00000413" width="20.00006155999995" height="28.00001911000004" class="text">10</text>
<text x="999.9999504399999" y="693.00000413" width="8.000080640000078" height="28.00001911000004" class="text">-</text>
<text x="1009.99997344" y="693.00000413" width="36.00002056000005" height="28.00001911000004" class="text">day </text>
<text x="1059.00004724" y="693.00000413" width="61.99990920000005" height="28.00001911000004" class="text">notice </text>
<text x="1134.99997308" y="693.00000413" width="20.00004600000011" height="28.00001911000004" class="text">of </text>
<text x="1166.0000210399999" y="693.00000413" width="7.999987280000141" height="28.00001911000004" class="text">a </text>
<text x="1188.00002496" y="693.00000413" width="73.99998348000008" height="28.00001911000004" class="text">change </text>
<text x="1273.0000103999998" y="693.00000413" width="14.999995600000148" height="28.00001911000004" class="text">in </text>
<text x="1303.999965" y="693.00000413" width="50.00003720000018" height="28.00001911000004" class="text">infor-
</text>
<text x="861.00004308" y="720.99999755" width="67.99993856000003" height="27.000010169999996" class="text">mation </text>
<text x="943.9999772399999" y="720.99999755" width="20.00004600000011" height="27.000010169999996" class="text">as </text>
<text x="977.99994652" y="720.99999755" width="87.00003672000014" height="27.000010169999996" class="text">required </text>
<text x="1071.99999156" y="720.99999755" width="25.000018599999976" height="27.000010169999996" class="text">by </text>
<text x="1108.99997552" y="720.99999755" width="76.00003476000006" height="27.000010169999996" class="text">Section </text>
<text x="1200.99996928" y="720.99999755" width="7.999987279999914" height="27.000010169999996" class="text">2</text>
<text x="1211.99997124" y="720.99999755" width="7.999987280000141" height="27.000010169999996" class="text">(</text>
<text x="1219.99995852" y="720.99999755" width="8.000080639999851" height="27.000010169999996" class="text">b</text>
<text x="1232.9999962000002" y="720.99999755" width="7.999987279999914" height="27.000010169999996" class="text">) </text>
<text x="1251.99998544" y="720.99999755" width="20.00004600000011" height="27.000010169999996" class="text">of </text>
<text x="1279.00003976" y="720.99999755" width="33.999984840000025" height="27.000010169999996" class="text">the </text>
<text x="1325.99996892" y="720.99999755" width="38.00005628000008" height="27.000010169999996" class="text">Act</text>
<text x="1362.99996844" y="720.99999755" width="8.000065080000013" height="27.000010169999996" class="text">.
</text>
<text x="390.99998904000006" y="746.0000155299999" width="71.99999443999997" height="21.00000790999991" class="text">Initial </text>
<text x="473.00000648" y="748.0000334099999" width="106.99998935999997" height="23.00002578999988" class="text">Statement
</text>
<text x="394.00001928" y="812.0000403900001" width="143.99997332000004" height="28.00001911000004" class="text">Supplemental </text>
<text x="550.00000464" y="810.99998007" width="106.99998935999997" height="28.00001911000004" class="text">Statement
</text>
<text x="392.99999363999996" y="837.00003268" width="32.000026920000096" height="21.000007910000022" class="text">for
</text>
<text x="852.9999624400001" y="810.99998007" width="62.00000255999987" height="28.99997666999991" class="text">Other </text>
<text x="920.0000309599999" y="813.00002364" width="82.99993416000018" height="30.000062680000042" class="text">purpose </text>
<text x="1015.0000394" y="812.0000403900001" width="7.999987280000141" height="28.00001911000004" class="text">(</text>
<text x="1023.99999008" y="813.9999812" width="80.00002840000013" height="29.999959919999924" class="text">specify</text>
<text x="1107.00003316" y="813.9999812" width="7.999987280000141" height="27.99999342000001" class="text">)</text>
<text x="1119.99997748" y="813.9999812" width="7.999987279999914" height="27.99999342000001" class="text">.
</text>
<text x="339.00000948" y="903.99996372" width="25.999997559999997" height="27.99991634999992" class="text">To </text>
<text x="373.00000988" y="903.99996372" width="47.99997036000002" height="27.99991634999992" class="text">give </text>
<text x="429.0000142" y="903.99996372" width="69.99998983999996" height="27.99991634999992" class="text">notice </text>
<text x="508.99998036" y="903.99996372" width="19.99999932000003" height="27.99991634999992" class="text">of </text>
<text x="539.99998164" y="903.99996372" width="74.00003016000005" height="27.99991634999992" class="text">change </text>
<text x="625.00001376" y="903.99996372" width="14.999995600000034" height="27.99991634999992" class="text">in </text>
<text x="656.00001504" y="903.99996372" width="20.999993840000002" height="27.99991634999992" class="text">an
</text>
<text x="337.99998383999997" y="935.99996721" width="74.00003016000005" height="30.99994317000005" class="text">exhibit </text>
<text x="425.00002056000005" y="935.99996721" width="113.99999767999998" height="30.99994317000005" class="text">previously </text>
<text x="546.00002656" y="935.99996721" width="50.99995391999994" height="28.999976670000024" class="text">filed</text>
<text x="601.99999976" y="935.99996721" width="7.999987279999914" height="28.999976670000024" class="text">.
</text>
<text x="192.00000592" y="1027.00001005" width="28.000002160000008" height="29.999985609999953" class="text">4. </text>
<text x="232.99999907999998" y="1027.00001005" width="16.999984640000037" height="29.999985609999953" class="text">If </text>
<text x="255.99999752" y="1027.00001005" width="42.00000324000004" height="29.999985609999953" class="text">this </text>
<text x="309.00000272" y="1027.00001005" width="122.00000051999996" height="29.999985609999953" class="text">amendment </text>
<text x="440.00001616000003" y="1027.00001005" width="86.99997447999993" height="29.999985609999953" class="text">requires </text>
<text x="532.99997332" y="1027.00001005" width="35.00004160000003" height="29.999985609999953" class="text">the </text>
<text x="578.0000068" y="1027.00001005" width="58.999987879999935" height="29.999985609999953" class="text">filing </text>
<text x="642.99997736" y="1027.00001005" width="22.000003919999926" height="29.999985609999953" class="text">of </text>
<text x="673.99997864" y="1027.00001005" width="9.000012920000017" height="29.999985609999953" class="text">a </text>
<text x="693.99999352" y="1027.00001005" width="102.99999572000002" height="29.999985609999953" class="text">document </text>
<text x="804.99996096" y="1027.00001005" width="22.000003919999926" height="29.999985609999953" class="text">or </text>
<text x="835.00004552" y="1027.00001005" width="110.99996744000009" height="29.999985609999953" class="text">documents</text>
<text x="953.00003684" y="1027.00001005" width="8.99995067999987" height="29.999985609999953" class="text">, </text>
<text x="967.00005348" y="1027.00001005" width="69.99998984000001" height="29.999985609999953" class="text">please </text>
<text x="1049.00000868" y="1027.00001005" width="38.99994188000005" height="29.999985609999953" class="text">list-
</text>
<text x="195.00000504000002" y="1200.99999852" width="22.000003919999983" height="29.999959920000038" class="text">5. </text>
<text x="232.00000456" y="1200.99999852" width="53.99999971999998" height="29.999959920000038" class="text">Each </text>
<text x="300.00000536" y="1200.99999852" width="42.00000324000001" height="29.999959920000038" class="text">item </text>
<text x="354.99999959999997" y="1200.99999852" width="83.99999092000002" height="29.999959920000038" class="text">checked </text>
<text x="453.00000716000005" y="1200.99999852" width="60.99999248" height="29.999959920000038" class="text">above </text>
<text x="528.00001628" y="1200.99999852" width="48.99996487999999" height="29.999959920000038" class="text">must </text>
<text x="585.0000151200001" y="1200.99999852" width="24.999971919999894" height="29.999959920000038" class="text">be </text>
<text x="616.99999536" y="1200.99999852" width="107.0000204800001" height="29.999959920000038" class="text">explained </text>
<text x="735.0000178" y="1200.99999852" width="60.000013519999925" height="29.999959920000038" class="text">below </text>
<text x="807.9999912" y="1200.99999852" width="17.000031319999948" height="29.999959920000038" class="text">in </text>
<text x="837.99996684" y="1200.99999852" width="38.00005627999997" height="29.999959920000038" class="text">full </text>
<text x="884.0000104" y="1200.99999852" width="66.99997516000008" height="29.999959920000038" class="text">detail </text>
<text x="957.0000149199999" y="1200.99999852" width="91.0000303600001" height="29.999959920000038" class="text">together </text>
<text x="1053.99998128" y="1200.99999852" width="47.9999859200002" height="29.999959920000038" class="text">with</text>
<text x="1104.99999744" y="1200.99999852" width="9.00004403999992" height="29.999959920000038" class="text">, </text>
<text x="1120.99995644" y="1200.99999852" width="61.00003916000014" height="29.999959920000038" class="text">where </text>
<text x="1193.99996096" y="1200.99999852" width="120.00002704000008" height="29.999959920000038" class="text">appropriate</text>
<text x="1320.99999632" y="1200.99999852" width="8.999966239999821" height="29.999959920000038" class="text">,
</text>
<text x="232.00000456" y="1233.00000201" width="87.00000559999998" height="31.000020239999913" class="text">specific </text>
<text x="335.9999948" y="1233.00000201" width="100.00002771999999" height="31.000020239999913" class="text">reference </text>
<text x="449.99999248" y="1233.00000201" width="19.000020360000008" height="31.000020239999913" class="text">to </text>
<text x="486.00001304000006" y="1233.00000201" width="34.99999491999989" height="31.000020239999913" class="text">and </text>
<text x="533.99999896" y="1233.00000201" width="82.99999639999999" height="31.000020239999913" class="text">identity </text>
<text x="625.99999272" y="1233.00000201" width="22.000003919999926" height="31.000020239999913" class="text">of </text>
<text x="658.00001964" y="1233.00000201" width="31.999980240000014" height="31.000020239999913" class="text">the </text>
<text x="702.00001192" y="1233.00000201" width="44.99998679999999" height="31.000020239999913" class="text">item </text>
<text x="757.0000217200001" y="1233.00000201" width="17.999963599999887" height="31.000020239999913" class="text">in </text>
<text x="785.0000083199999" y="1233.00000201" width="36.00002056000005" height="31.000020239999913" class="text">the </text>
<text x="828.0000372000001" y="1233.00000201" width="126.99994199999992" height="31.000020239999913" class="text">registration </text>
<text x="967.00005348" y="1233.00000201" width="104.99993807999988" height="31.000020239999913" class="text">statement </text>
<text x="1082.99999352" y="1233.00000201" width="17.000031320000062" height="31.000020239999913" class="text">to </text>
<text x="1112.00000576" y="1233.00000201" width="58.999987879999935" height="31.000020239999913" class="text">which </text>
<text x="1185.00001028" y="1233.00000201" width="17.000031320000062" height="31.000020239999913" class="text">it </text>
<text x="1211.99997124" y="1233.00000201" width="88.0000001200001" height="31.000020239999913" class="text">pertains</text>
<text x="1303.0000016000001" y="1233.00000201" width="9.00004403999992" height="31.000020239999913" class="text">. </text>
<text x="1317.99998164" y="1233.00000201" width="18.999989240000104" height="31.000020239999913" class="text">If
</text>
<text x="236.99999272000002" y="1261.00002112" width="42.00000324000001" height="28.00001911000004" class="text">more </text>
<text x="293.99999156" y="1261.00002112" width="64.00000716" height="29.000002359999826" class="text">space </text>
<text x="367.9999906" y="1260.00003787" width="16.000021240000024" height="28.000019109999812" class="text">is </text>
<text x="396.00000832" y="1260.00003787" width="76.99999816000002" height="28.000019109999812" class="text">needed</text>
<text x="477.00000012" y="1260.00003787" width="7.999987280000028" height="28.000019109999812" class="text">, </text>
<text x="489.99999112" y="1260.00003787" width="38.99998856000002" height="28.000019109999812" class="text">full </text>
<text x="539.99998164" y="1260.00003787" width="44.00000784000008" height="29.000079429999914" class="text">size </text>
<text x="592.99998684" y="1258.99997755" width="64.00000716" height="28.00001911000004" class="text">insert </text>
<text x="669.0000216" y="1258.99997755" width="68.99996420000002" height="28.00001911000004" class="text">sheets </text>
<text x="748.99998776" y="1258.99997755" width="35.000041600000145" height="28.00001911000004" class="text">may </text>
<text x="793.999959" y="1257.9999943" width="25.999997559999997" height="28.00001911000004" class="text">be </text>
<text x="829.99997956" y="1257.9999943" width="50.00003719999984" height="28.00001911000004" class="text">used</text>
<text x="884.99998936" y="1257.9999943" width="7.999971720000076" height="28.00001911000004" class="text">.
</text>
<text x="318.00001564" y="1317.99993983" width="55.99998875999995" height="25.00001797999994" class="text">see </text>
<text x="394.00001928" y="1317.00003365" width="146.99998799999997" height="24.99999228999991" class="text">attached
</text>
<text x="233.9999936" y="1785.9999619700002" width="41.00000872000001" height="31.999926420000293" class="text">The </text>
<text x="282.9999896" y="1785.9999619700002" width="132.00000796" height="31.999926420000293" class="text">undersigned </text>
<text x="427.0000096" y="1785.9999619700002" width="62.999981520000006" height="31.999926420000293" class="text">swear</text>
<text x="491.99999571999996" y="1785.9999619700002" width="8.999997360000066" height="31.999926420000293" class="text">(</text>
<text x="500.99999308" y="1785.9999619700002" width="9.00001291999996" height="31.999926420000293" class="text">s</text>
<text x="513.99999964" y="1785.9999619700002" width="8.999997359999952" height="31.999926420000293" class="text">) </text>
<text x="528.99997968" y="1785.9999619700002" width="24.000008519999938" height="31.999926420000293" class="text">or </text>
<text x="561.99998556" y="1785.9999619700002" width="56.99999883999999" height="31.999926420000293" class="text">affirm</text>
<text x="623.0000247199999" y="1785.9999619700002" width="8.999950680000097" height="31.999926420000293" class="text">(</text>
<text x="633.00000104" y="1785.9999619700002" width="8.999997359999952" height="31.999926420000293" class="text">s</text>
<text x="645.00002864" y="1785.9999619700002" width="8.999950679999984" height="31.999926420000293" class="text">) </text>
<text x="660.99998764" y="1785.9999619700002" width="45.999996880000026" height="31.999926420000293" class="text">that </text>
<text x="710.99997816" y="1785.9999619700002" width="29.000012240000046" height="31.999926420000293" class="text">he </text>
<text x="746.00001976" y="1785.9999619700002" width="40.99993092000011" height="31.999926420000293" class="text">has </text>
<text x="796.00001028" y="1785.9999619700002" width="8.999950679999984" height="31.999926420000293" class="text">(</text>
<text x="802.00003964" y="1785.9999619700002" width="48.99996488000011" height="31.999926420000293" class="text">they </text>
<text x="858.00001284" y="1785.9999619700002" width="48.999980439999945" height="31.999926420000293" class="text">have</text>
<text x="910.99997136" y="1785.9999619700002" width="9.000059599999872" height="31.999926420000293" class="text">) </text>
<text x="927.00003928" y="1785.9999619700002" width="42.99993552000001" height="31.999926420000293" class="text">read </text>
<text x="987.0000061200001" y="1785.9999619700002" width="29.99997563999989" height="31.999926420000293" class="text">the </text>
<text x="1026.00004136" y="1785.9999619700002" width="121.00000599999998" height="31.999926420000293" class="text">information </text>
<text x="1159.99999168" y="1785.9999619700002" width="35.00004160000003" height="31.999926420000293" class="text">set </text>
<text x="1202.0000416" y="1785.9999619700002" width="48.00000148000004" height="31.999926420000293" class="text">forth </text>
<text x="1262.9999874" y="1785.9999619700002" width="18.99997368000004" height="31.999926420000293" class="text">in </text>
<text x="1291.99999964" y="1785.9999619700002" width="40.999977599999966" height="31.999926420000293" class="text">this
</text>
<text x="193.00000044" y="1815.00001571" width="122.99999503999999" height="26.999958790000164" class="text">amendment </text>
<text x="323.0000038" y="1815.00001571" width="34.999994920000006" height="26.999958790000164" class="text">and </text>
<text x="370.99998972" y="1815.00001571" width="44.00000784000002" height="26.999958790000164" class="text">that </text>
<text x="420.99998024" y="1815.00001571" width="24.000039639999954" height="26.999958790000164" class="text">he </text>
<text x="457.0000008" y="1815.00001571" width="19.999999319999972" height="26.999958790000164" class="text">is </text>
<text x="486.99997643999995" y="1815.00001571" width="8.000033960000053" height="26.999958790000164" class="text">(</text>
<text x="495.0000104" y="1815.00001571" width="44.00000784000002" height="26.999958790000164" class="text">they </text>
<text x="550.00000464" y="1815.00001571" width="31.000016839999944" height="26.999958790000164" class="text">are</text>
<text x="587.00000416" y="1815.00001571" width="7.999987280000028" height="26.999958790000164" class="text">) </text>
<text x="603.0000098400001" y="1815.00001571" width="88.00001567999993" height="26.999958790000164" class="text">familiar </text>
<text x="695.0000036" y="1815.00001571" width="45.999996880000026" height="26.999958790000164" class="text">with </text>
<text x="750.99999236" y="1815.00001571" width="34.00001595999993" height="26.999958790000164" class="text">the </text>
<text x="795.00003132" y="1815.00001571" width="91.99999376000005" height="26.999958790000164" class="text">contents </text>
<text x="896.99995472" y="1815.00001571" width="79.00004944" height="26.999958790000164" class="text">thereof </text>
<text x="986.0000271600001" y="1815.00001571" width="33.99998483999991" height="26.999958790000164" class="text">and </text>
<text x="1032.99995632" y="1815.00001571" width="40.00001420000012" height="26.999958790000164" class="text">that </text>
<text x="1086.0000082000001" y="1815.00001571" width="43.99999227999979" height="26.999958790000164" class="text">such </text>
<text x="1144.99999608" y="1815.00001571" width="90.00005140000007" height="26.999958790000164" class="text">contents </text>
<text x="1247.9999917999999" y="1815.00001571" width="29.999991200000068" height="26.999958790000164" class="text">are </text>
<text x="1288.99998496" y="1815.00001571" width="18.99997368000004" height="26.999958790000164" class="text">in </text>
<text x="1317.99998164" y="1815.00001571" width="51.00001615999986" height="26.999958790000164" class="text">their
</text>
<text x="193.99999495999998" y="1846.9999421300001" width="85.99999552000003" height="30.999866099999963" class="text">entirety </text>
<text x="288.00000888" y="1846.9999421300001" width="39.99999864" height="30.999866099999963" class="text">true </text>
<text x="340.000004" y="1846.9999421300001" width="36.000005000000044" height="30.999866099999963" class="text">and </text>
<text x="386.00000088" y="1846.9999421300001" width="94.00001392000001" height="30.999866099999963" class="text">accurate </text>
<text x="489.99999112" y="1846.9999421300001" width="17.000000200000045" height="30.999866099999963" class="text">to </text>
<text x="521.00000796" y="1846.9999421300001" width="31.000001280000106" height="30.999866099999963" class="text">the </text>
<text x="563.0000112" y="1846.9999421300001" width="45.99999687999991" height="30.999866099999963" class="text">best </text>
<text x="618.9999844" y="1846.9999421300001" width="22.00000392000004" height="30.999866099999963" class="text">of </text>
<text x="649.99998568" y="1846.9999421300001" width="32.00002691999998" height="30.999866099999963" class="text">his </text>
<text x="691.00002552" y="1846.9999421300001" width="8.999950679999984" height="30.999866099999963" class="text">(</text>
<text x="701.00000184" y="1846.9999421300001" width="51.00000060000002" height="30.999866099999963" class="text">their</text>
<text x="752.9999813999999" y="1846.9999421300001" width="9.000012920000131" height="30.999866099999963" class="text">) </text>
<text x="766.99999804" y="1846.9999421300001" width="116.0000334" height="30.999866099999963" class="text">knowledge </text>
<text x="891.9999976800001" y="1846.9999421300001" width="39.99999863999983" height="30.999866099999963" class="text">and </text>
<text x="936.99996892" y="1846.9999421300001" width="67.00006852000001" height="30.999866099999963" class="text">belief</text>
<text x="1004.00003744" y="1846.9999421300001" width="8.999966240000049" height="30.999866099999963" class="text">.
</text>
<text x="935.99998996" y="1952.99993924" width="147.0000035600001" height="114.99987205000002" class="text">Man
</text>
<text x="220.00000808000001" y="1938.99994253" width="5.999982680000016" height="22.99987165000016" class="text">(</text>
<text x="224.99999624" y="1938.99994253" width="45.99999688" height="22.99987165000016" class="text">Both </text>
<text x="281.99999507999996" y="1938.99994253" width="66.99999072000003" height="22.99987165000016" class="text">copies </text>
<text x="357.00000420000003" y="1938.99994253" width="17.00000019999993" height="22.99987165000016" class="text">of </text>
<text x="381.99999168" y="1938.99994253" width="38.00000959999994" height="22.99987165000016" class="text">this </text>
<text x="427.99998856" y="1938.99994253" width="110.00000404000002" height="22.99987165000016" class="text">amendment </text>
<text x="548.0000156" y="1938.99994253" width="48.99996487999999" height="22.99987165000016" class="text">shall </text>
<text x="601.0000208" y="1938.99994253" width="25.999997559999997" height="22.99987165000016" class="text">be </text>
<text x="636.0000157200001" y="1938.99994253" width="62.99998151999989" height="22.99987165000016" class="text">signed </text>
<text x="709.9999991999999" y="1938.99994253" width="31.999980240000014" height="22.99987165000016" class="text">and </text>
<text x="754.00000704" y="1938.99994253" width="52.00002624000001" height="22.99987165000016" class="text">sworn
</text>
<text x="196.00001512000003" y="1964.99999514" width="15.999990119999978" height="21.999991160000036" class="text">to </text>
<text x="221.0000026" y="1964.99999514" width="58.99998788000002" height="21.999991160000036" class="text">before </text>
<text x="295.0000172" y="1964.99999514" width="5.999982680000016" height="21.999991160000036" class="text">a </text>
<text x="308.00000819999997" y="1964.99999514" width="61.99998700000003" height="23.00002578999988" class="text">notary </text>
<text x="381.99999168" y="1963.99993482" width="58.000024480000036" height="21.99996546999978" class="text">public </text>
<text x="451.99998152000006" y="1963.99993482" width="20.000014879999924" height="21.99996546999978" class="text">or </text>
<text x="482.0000194" y="1963.99993482" width="45.99999687999997" height="21.99996546999978" class="text">other </text>
<text x="535.0000246" y="1963.99993482" width="63.99996048000003" height="22.999871649999932" class="text">person </text>
<text x="613.00000172" y="1963.00005433" width="100.99999112" height="21.999991160000036" class="text">authorized </text>
<text x="724.0000158400001" y="1963.00005433" width="15.999974559999941" height="21.999991160000036" class="text">to </text>
<text x="750.99999236" y="1963.00005433" width="19.99999932000003" height="21.999991160000036" class="text">ad-
</text>
<text x="199.9999932" y="1991.0000477500002" width="79.00000276000003" height="27.999993420000237" class="text">minister </text>
<text x="286.9999988" y="1991.0000477500002" width="52.00001068" height="27.999993420000237" class="text">oaths </text>
<text x="343.99999764" y="1991.0000477500002" width="25.999997559999997" height="27.999993420000237" class="text">by </text>
<text x="376.00000900000003" y="1991.0000477500002" width="32.99999031999994" height="27.999993420000237" class="text">the </text>
<text x="416.9999866" y="1991.0000477500002" width="55.00000979999999" height="27.999993420000237" class="text">agent</text>
<text x="471.9999964" y="1991.0000477500002" width="8.000018400000044" height="27.999993420000237" class="text">, </text>
<text x="486.00001304000006" y="1991.0000477500002" width="16.00000567999996" height="27.999993420000237" class="text">if </text>
<text x="508.99998036" y="1991.0000477500002" width="31.000001279999992" height="27.999993420000237" class="text">the </text>
<text x="546.99998996" y="1991.0000477500002" width="99.00000208000006" height="27.999993420000237" class="text">registrant </text>
<text x="653.00000036" y="1991.0000477500002" width="20.99997828000005" height="27.999993420000237" class="text">is </text>
<text x="680.99998696" y="1991.0000477500002" width="21.00002496000002" height="27.999993420000237" class="text">an </text>
<text x="712.0000038000001" y="1991.0000477500002" width="101.00003779999997" height="27.999993420000237" class="text">individual</text>
<text x="813.0000416" y="1991.0000477500002" width="7.999987279999914" height="27.999993420000237" class="text">,
</text>
<text x="197.00000964" y="2016.0000400400002" width="16.999984640000008" height="21.999965470000234" class="text">or </text>
<text x="222.99999164000002" y="2016.0000400400002" width="20.00001488000001" height="21.999965470000234" class="text">by </text>
<text x="255.000003" y="2016.0000400400002" width="5.999982680000016" height="21.999965470000234" class="text">a </text>
<text x="277.00000692" y="2016.0000400400002" width="74.99999356000001" height="23.000025790000336" class="text">majority </text>
<text x="364.00001252" y="2015.00000541" width="19.99999932000003" height="21.999991160000263" class="text">of </text>
<text x="388.00000547999997" y="2015.00000541" width="57.0000144" height="21.999991160000263" class="text">those </text>
<text x="451.00000256" y="2015.00000541" width="79.99998171999994" height="21.999991160000263" class="text">partners</text>
<text x="535.0000246" y="2015.00000541" width="5.999982680000016" height="21.999991160000263" class="text">, </text>
<text x="548.99999456" y="2013.99994509" width="76.99999816000002" height="21.999991160000036" class="text">officers</text>
<text x="627.00001836" y="2013.99994509" width="5.999982680000016" height="21.999991160000036" class="text">, </text>
<text x="640.00000936" y="2013.99994509" width="88.99997908" height="21.999991160000036" class="text">directors </text>
<text x="739.9999904" y="2013.99994509" width="17.000031320000062" height="21.999991160000036" class="text">or
</text>
<text x="193.00000044" y="2041.0000580199999" width="80.00001284000001" height="21.99999115999981" class="text">persons </text>
<text x="279.99999048" y="2039.9999977000002" width="102.00000119999999" height="23.00005148000014" class="text">performing </text>
<text x="394.99998268" y="2039.9999977000002" width="71.00001547999995" height="21.999991160000263" class="text">similar </text>
<text x="469.9999918" y="2038.99993738" width="93.99999835999995" height="21.99999115999981" class="text">functions </text>
<text x="572.00000856" y="2038.99993738" width="37.99997847999998" height="21.99999115999981" class="text">who </text>
<text x="618.9999844" y="2038.99993738" width="28.000033280000025" height="21.99999115999981" class="text">are </text>
<text x="660.00000868" y="2038.0000312000002" width="13.000006560000088" height="21.999991160000036" class="text">in </text>
<text x="686.0000062400001" y="2038.0000312000002" width="27.999986599999943" height="21.999991160000036" class="text">the </text>
<text x="726.00002044" y="2038.0000312000002" width="62.99998152000012" height="21.999991160000036" class="text">United
</text>
<text x="195.00000504000002" y="2066.00005031" width="59.99999795999997" height="23.00005148000014" class="text">States</text>
<text x="258.99999664" y="2066.00005031" width="6.0000137999999765" height="23.00005148000014" class="text">, </text>
<text x="275.00000232" y="2066.00005031" width="13.000006559999974" height="23.00005148000014" class="text">if </text>
<text x="295.0000172" y="2066.00005031" width="31.999980240000014" height="23.00005148000014" class="text">the </text>
<text x="334.00000576" y="2066.00005031" width="97.99997643999995" height="23.00005148000014" class="text">registrant </text>
<text x="440.00001616000003" y="2066.00005031" width="16.99998463999998" height="23.00005148000014" class="text">is </text>
<text x="469.9999918" y="2066.00005031" width="16.99998463999998" height="23.00005148000014" class="text">an </text>
<text x="495.99998936000003" y="2066.00005031" width="122.00001607999997" height="23.00005148000014" class="text">organization</text>
<text x="623.0000247199999" y="2066.00005031" width="5.999982680000016" height="23.00005148000014" class="text">.</text>
<text x="631.9999754" y="2066.00005031" width="6.000044919999937" height="23.00005148000014" class="text">)
</text>
<text x="1239.00004112" y="2005.0000444599998" width="127.99990539999976" height="162.0000096399997" class="text">Porn
</text>
<text x="198.00000416" y="2150.00008195" width="119.00000139999997" height="24.000111800000013" class="text">Subscribed </text>
<text x="329.00000204" y="2149.00002163" width="34.000000399999976" height="21.999991160000263" class="text">and </text>
<text x="374.00000439999997" y="2149.00002163" width="60.00001352000004" height="21.999991160000263" class="text">sworn </text>
<text x="447.99998788" y="2150.00008195" width="16.000021240000024" height="23.000051480000366" class="text">to </text>
<text x="477.00000012" y="2150.00008195" width="64.00000716" height="22.000145299999986" class="text">before </text>
<text x="559.0000175600001" y="2150.00008195" width="23.999992959999872" height="22.000145299999986" class="text">me </text>
<text x="594.99999144" y="2150.00008195" width="19.999999319999915" height="22.000145299999986" class="text">at
</text>
<text x="440.99997956000004" y="2216.00002974" width="174.0000111999999" height="43.99998232000007" class="text">17UGUST
</text>
<text x="651.00001132" y="2158.99995689" width="75.00000911999996" height="50.999890759999744" class="text">NEW </text>
<text x="766.99999804" y="2164.00007866" width="91.00001479999992" height="52.00010522000002" class="text">YORK</text>
<text x="877.99998104" y="2164.00007866" width="16.00005236000004" height="48.00004377000005" class="text">, </text>
<text x="898.00002704" y="2166.99992565" width="58.999987879999935" height="50.9998907600002" class="text">N.Y.
</text>
<text x="965.9999811600001" y="2228.99996613" width="142.99999435999985" height="76.99994336999998" class="text">Allen
</text>
<text x="954.00000024" y="2258.0000455599998" width="62.00001812000005" height="35.99998787000004" class="text">ALLEN </text>
<text x="1030.000035" y="2261.99995287" width="78.99994051999988" height="36.999894049999966" class="text">KALFUS
</text>
<text x="197.00000964" y="2223.9999985" width="38.99998855999999" height="21.999965470000006" class="text">this
</text>
<text x="313.99999088" y="2228.99996613" width="40.00001420000001" height="26.999933099999907" class="text">day </text>
<text x="365.00000704" y="2225.999965" width="23.999992959999986" height="25.999898470000062" class="text">of
</text>
<text x="715.99999744" y="2222.99996387" width="23.000013999999965" height="22.99989734000019" class="text">19
</text>
<text x="766.99999804" y="2225.00005882" width="37.999962919999916" height="41.00010964000012" class="text">72
</text>
<text x="1082.00001456" y="2241.99992821" width="22.000003920000154" height="18.99996433999968" class="text">or </text>
<text x="1112.00000576" y="2241.99992821" width="51.00000060000002" height="20.999930839999706" class="text">other
</text>
<text x="497.9999784" y="2249.00001648" width="5.000019280000004" height="15.999963209999805" class="text">A
</text>
<text x="403.9999956" y="2272.00004227" width="65.00001724000003" height="30.000114060000215" class="text">Notary </text>
<text x="479.00000472" y="2277.0000099" width="54.99999423999998" height="29.000053739999657" class="text">Public</text>
<text x="535.0000246" y="2277.0000099" width="7.999971719999962" height="23.000025789999654" class="text">, </text>
<text x="548.99999456" y="2281.9999775300003" width="47.000006960000064" height="26.999958790000164" class="text">State </text>
<text x="605.9999934" y="2286.0000389799998" width="23.9999929600001" height="26.000052609999784" class="text">of </text>
<text x="634.99999008" y="2289.0000658" width="38.99998856000002" height="26.000052609999784" class="text">New </text>
<text x="689.99999988" y="2294.00003343" width="40.00001420000001" height="26.000052609999784" class="text">York</text>
<text x="486.00001304000006" y="2292.99997311" width="35.99995831999996" height="23.00002579000011" class="text">No. </text>
<text x="528.99997968" y="2302.00000219" width="112.00000864000003" height="29.000053740000112" class="text">31-2019425
</text>
<text x="193.00000044" y="2305.99993519" width="39.99999863999997" height="41.99986167999987" class="text">My </text>
<text x="235.9999982" y="2314.99996427" width="129.00000884000002" height="48.99994994999997" class="text">commission </text>
<text x="371.99998424" y="2322.99993303" width="132.00002351999996" height="47.99986394000007" class="text">expialified </text>
<text x="508.99998036" y="2325.00005367" width="18.00001027999997" height="42.000015820000044" class="text">in </text>
<text x="539.00001824" y="2328.0000548000003" width="36.999983959999895" height="43.000050450000344" class="text">New </text>
<text x="590.9999978000001" y="2331.9999878" width="40.00001420000001" height="42.99992199999997" class="text">York </text>
<text x="642.99997736" y="2336.9999554299998" width="68.00000079999995" height="44.99988849999954" class="text">County</text>
<text x="388.00000547999997" y="2339.99995656" width="114.00001324000004" height="47.99988962999987" class="text">Commission </text>
<text x="508.99998036" y="2347.99995101" width="69.00002644000006" height="44.9998885" class="text">Expices </text>
<text x="578.0000068" y="2353.99995327" width="65.99999619999994" height="45.00001694999992" class="text">March 
</text>
<text x="649.00000672" y="2356.99998009" width="24.999971920000007" height="39.999920870000096" class="text">20
</text>
<text x="866.0000001200001" y="2272.99994845" width="63.99996047999991" height="28.000019109999812" class="text">Notary </text>
<text x="942.0000348799999" y="2277.0000099" width="51.00000060000002" height="27.99999342000001" class="text">Public</text>
<text x="995.9999568" y="2275.9999495800002" width="8.000080640000078" height="23.99993197000049" class="text">, </text>
<text x="1013.9999670799999" y="2278.9999764" width="45.00008016000004" height="25.999898469999607" class="text">State </text>
<text x="1071.99999156" y="2280.9999172099997" width="18.999989240000104" height="24.999992289999682" class="text">of </text>
<text x="1098.9999525199999" y="2283.9999440300003" width="39.000035240000216" height="26.999958790000164" class="text">New </text>
<text x="1152.99998336" y="2286.0000389799998" width="40.999977599999966" height="26.000052609999784" class="text">York</text>
<text x="949.0000432" y="2294.00003343" width="37.99996292000003" height="24.999992290000137" class="text">No. 
</text>
<text x="994.00001444" y="2299.0000010599997" width="113.99999768000009" height="28.000019109999812" class="text">31-2019425
</text>
<text x="885.99995276" y="2312.99999777" width="79.00004944" height="26.999958790000164" class="text">Qualified </text>
<text x="973.9999684400001" y="2314.99996427" width="17.000031319999948" height="23.999957659999836" class="text">in </text>
<text x="1001.0000227600001" y="2317.00005922" width="36.00002055999994" height="24.000086109999756" class="text">New </text>
<text x="1053.99998128" y="2319.9999319" width="40.00001420000012" height="24.999992289999682" class="text">York </text>
<text x="1105.99996084" y="2323.99999335" width="65.00003279999987" height="26.000052609999784" class="text">County</text>
<text x="1170.00001468" y="2323.99999335" width="7.000008320000006" height="21.99999115999981" class="text">.
</text>
<text x="851.9999834800001" y="2341.00001688" width="113.99999767999998" height="40.99995549999994" class="text">Commission </text>
<text x="975.0000252" y="2344.99992419" width="66.99997516000008" height="37.99995437000007" class="text">Expires </text>
<text x="1049.99998764" y="2348.99998564" width="55.00000980000004" height="37.00004818999969" class="text">March </text>
<text x="1115.00002044" y="2350.00004596" width="19.999952639999947" height="34.00002137000001" class="text">30
</text>
</g>
<g id="page-1" transform="translate(0, 2589)">
<rect width="1556" height="2569" fill="none" stroke="black" />
<text x="204.99999692" y="158.000002139" width="72.00000999999997" height="35.00000205100001" class="text">Item </text>
<text x="300.99999988" y="159.00000080299998" width="25.999997559999997" height="35.00000205099997" class="text">14 </text>
<text x="357.99999872" y="159.00000080299998" width="9.999991879999982" height="35.00000205099997" class="text">(</text>
<text x="374.99999892" y="159.00000080299998" width="10.000007440000047" height="35.00000205099997" class="text">a</text>
<text x="396.00000832" y="159.00000080299998" width="9.99997632000003" height="35.00000205099997" class="text">)
</text>
<text x="199.9999932" y="257.99999442" width="75.00000912000002" height="21.999988591000033" class="text">Date
</text>
<text x="442.99998416" y="260.0000123" width="76.99999815999996" height="24.000006471000006" class="text">From </text>
<text x="537.9999926" y="260.0000123" width="76.9999981599999" height="24.000006471000006" class="text">whom
</text>
<text x="800.00000392" y="268.00000675" width="132.99997136000002" height="32.00000092100004" class="text">Purpose
</text>
<text x="1178.0000019600002" y="260.99999555" width="113.99999767999975" height="22.999994961999988" class="text">Amount
</text>
<text x="443.99999424" y="320.99999246" width="60.00001351999998" height="24.999992289999966" class="text">DZT</text>
<text x="506.00001235999997" y="319.00000027" width="7.000008320000063" height="22.00001684999995" class="text">*
</text>
<text x="803.0000186" y="326.99999471999996" width="111.9999464" height="32.00000348999998" class="text">office </text>
<text x="932.9999752800001" y="328.99998691" width="116.0000334" height="32.00000348999998" class="text">budget
</text>
<text x="443.99999424" y="366.00000941" width="56.999998840000046" height="25.000017980000052" class="text">DZT
</text>
<text x="443.99999424" y="412.00000961" width="55.99998876000001" height="23.000000100000022" class="text">DZT
</text>
<text x="844.99997516" y="403.99998947" width="10.000023000000056" height="13.999971019999975" class="text">11
</text>
<text x="443.99999424" y="457.00000087" width="59.00000344" height="21.999991160000036" class="text">DZT
</text>
<text x="954.9999792" y="449.00000642000003" width="13.000037679999991" height="13.000013459999991" class="text">11
</text>
<text x="198.99999867999998" y="325.00000253" width="78.00000824" height="32.99998674" class="text">1/17
</text>
<text x="201.00000328000002" y="371.00000273" width="73.00000451999998" height="35.99998787000004" class="text">2/25
</text>
<text x="202.99999232000002" y="419.99997837" width="73.00000451999998" height="37.999980059999984" class="text">3/22
</text>
<text x="199.9999932" y="463.00000313000004" width="59.00000344" height="33.00001243000003" class="text">217
</text>
<text x="196.00001512000003" y="512.00000446" width="80.99999179999995" height="38.000005750000014" class="text">4/20
</text>
<text x="201.00000328000002" y="554.99997784" width="73.00000451999998" height="33.999995679999984" class="text">5/19
</text>
<text x="201.00000328000002" y="600.00002048" width="73.00000451999998" height="35.00003031000006" class="text">6/20
</text>
<text x="196.00001512000003" y="647.99996149" width="79.99998171999997" height="38.99996331" class="text">6/30
</text>
<text x="199.9999932" y="690.99996056" width="55.00000979999999" height="35.99998787000004" class="text">6/2
</text>
<text x="443.99999424" y="503.00000107000005" width="58.000024480000036" height="21.999991160000036" class="text">DZT
</text>
<text x="843.9999962" y="495.00000662" width="13.000053239999943" height="13.999996710000005" class="text">11
</text>
<text x="1180.00003768" y="328.00000366" width="34.99994823999987" height="32.00000348999998" class="text">13 </text>
<text x="1233.9999751599998" y="328.00000366" width="112.00003976000016" height="32.00000348999998" class="text">858.00
</text>
<text x="1178.0000019600002" y="369.99999379" width="36.99998395999978" height="28.00001911000004" class="text">20 </text>
<text x="1233.9999751599998" y="371.99998597999996" width="112.00003976000016" height="30.000011299999983" class="text">858.00
</text>
<text x="1181.00001664" y="417.99998617999995" width="33.00000587999989" height="30.000011299999926" class="text">20 </text>
<text x="1233.9999751599998" y="419.99997837" width="109.00002508000011" height="32.00000348999998" class="text">858.00
</text>
<text x="1178.9999809199999" y="463.00000313000004" width="35.00004160000003" height="31.000020240000083" class="text">20 </text>
<text x="1233.9999751599998" y="465.00002101" width="112.00003976000016" height="33.000038120000056" class="text">858.00
</text>
<text x="1178.0000019600002" y="507.99999439" width="37.99996291999969" height="27.99999342000001" class="text">22 </text>
<text x="1236.9999898400001" y="508.99997764000005" width="108.00006167999982" height="27.999967730000037" class="text">208.00
</text>
<text x="1178.9999809199999" y="556.00001247" width="36.0000050000001" height="33.00003812" class="text">18 </text>
<text x="1233.9999751599998" y="558.00000466" width="110.00000404000025" height="33.99999567999987" class="text">879.00
</text>
<text x="1202.0000416" y="598.0000282899999" width="7.999987279999914" height="27.00003585999991" class="text">9 </text>
<text x="1235.0000474800001" y="600.00002048" width="110.99996743999986" height="29.00002804999997" class="text">811.00
</text>
<text x="1181.00001664" y="645.00003743" width="36.000020560000166" height="28.00004480000007" class="text">13 </text>
<text x="1236.9999898400001" y="645.00003743" width="108.00006167999982" height="28.00004480000007" class="text">175.00
</text>
<text x="1188.00002496" y="695.00002201" width="157.00002655999992" height="37.000048189999916" class="text">4247.58
</text>
<text x="1163.00000636" y="735.99997751" width="50.00003719999995" height="31.000020240000026" class="text">144 </text>
<text x="1239.00004112" y="739.99998758" width="108.99993171999995" height="32.999986740000054" class="text">752.58
</text>
<text x="445.00001987999997" y="547.99999233" width="55.999973200000056" height="22.99997441000005" class="text">DZT
</text>
<text x="957.0000149199999" y="541.00000682" width="8.999966240000163" height="13.000013459999991" class="text">11
</text>
<text x="445.99999884000005" y="593.99999253" width="56.00001987999997" height="23.000000099999966" class="text">DZT
</text>
<text x="843.0000328" y="584.99998914" width="12.999944320000054" height="12.999987770000075" class="text">11
</text>
<text x="957.0000149199999" y="585.99999808" width="11.000001960000077" height="12.000004519999948" class="text">11
</text>
<text x="443.99999424" y="639.00000948" width="59.00000344" height="22.000016850000065" class="text">DZT
</text>
<text x="447.00002448000004" y="683.99994936" width="51.99997955999993" height="20.999905149999904" class="text">DZT
</text>
<text x="1089.00002288" y="731.0000098800001" width="5.999935999999934" height="20.000024660000122" class="text">$
</text>
<text x="208.0000116" y="842.99998356" width="2.999983560000004" height="10.999995580000018" class="text">*
</text>
<text x="239.00001287999999" y="853.9999791399999" width="56.999998840000046" height="24.99999228999991" class="text">DZT </text>
<text x="315.99999548" y="853.9999791399999" width="7.000008320000006" height="24.99999228999991" class="text">= </text>
<text x="352.00000048" y="853.9999791399999" width="148.99999260000004" height="24.99999228999991" class="text">Deutsche </text>
<text x="521.99997136" y="853.9999791399999" width="148.00002919999997" height="24.99999228999991" class="text">Zentrale </text>
<text x="693.00001456" y="853.9999791399999" width="72.99995784000009" height="24.99999228999991" class="text">fuer </text>
<text x="788.000023" y="853.9999791399999" width="128.00001431999988" height="24.99999228999991" class="text">Tourism
</text>
<text x="206.000007" y="951.00002424" width="71.99999444" height="35.00000461999991" class="text">Item </text>
<text x="300.00000536" y="951.00002424" width="31.999995800000022" height="35.00000461999991" class="text">15 </text>
<text x="358.99999324000004" y="951.00002424" width="10.000007439999933" height="35.00000461999991" class="text">(</text>
<text x="376.00000900000003" y="951.00002424" width="9.999991879999982" height="35.00000461999991" class="text">a</text>
<text x="396.99998727999997" y="951.00002424" width="10.000023000000056" height="35.00000461999991" class="text">)
</text>
<text x="202.99999232000002" y="1026.0000268" width="129.00000884" height="29.00000235999994" class="text">January
</text>
<text x="442.99998416" y="1022.00001673" width="152.00000728000003" height="23.000025789999995" class="text">Salaries
</text>
<text x="445.99999884000005" y="1055.99998672" width="111.00001412" height="29.999959920000038" class="text">Office </text>
<text x="578.0000068" y="1061.0000314200001" width="130.00000335999994" height="31.00002024000014" class="text">expense
</text>
<text x="440.99997956000004" y="1098.00000254" width="153.00003291999997" height="22.999974409999822" class="text">Salaries
</text>
<text x="442.99998416" y="1132.00002391" width="114.00002880000005" height="29.000053740000112" class="text">Office </text>
<text x="579.00001688" y="1133.99999041" width="128.99999328" height="28.999976670000024" class="text">Expense
</text>
<text x="198.00000416" y="1098.99998579" width="151.99999172000003" height="25.999975539999923" class="text">February
</text>
<text x="201.00000328000002" y="1172.99997941" width="88.99999463999998" height="21.99996546999978" class="text">March
</text>
<text x="201.00000328000002" y="1254.9999931700002" width="94.00001391999999" height="29.999985610000067" class="text">April
</text>
<text x="445.99999884000005" y="1175.00002298" width="146.99998799999997" height="24.000009039999895" class="text">Salaries
</text>
<text x="442.99998416" y="1210.0000276" width="114.00002880000005" height="30.000036990000126" class="text">Office </text>
<text x="576.0000021999999" y="1212.99997735" width="130.99998232000007" height="29.999959920000038" class="text">Expense
</text>
<text x="445.00001987999997" y="1250.9999831" width="149.99997156000006" height="24.000009039999895" class="text">Salaries
</text>
<text x="447.00002448000004" y="1287.00007373" width="111.99999308000002" height="33.00006381000003" class="text">Office </text>
<text x="579.00001688" y="1287.99995422" width="129.99997224000003" height="32.000003490000154" class="text">Expense
</text>
<text x="443.99999424" y="1326.0000627299999" width="152.0000072800001" height="23.000051479999684" class="text">Salaries
</text>
<text x="445.00001987999997" y="1362.0000506" width="111.99999308000008" height="32.000080560000015" class="text">Office </text>
<text x="578.0000068" y="1364.0000171" width="130.00000335999994" height="32.000080560000015" class="text">Expense
</text>
<text x="442.99998416" y="1401.9999457800002" width="151.00002832" height="22.99987165000016" class="text">Salaries
</text>
<text x="447.00002448000004" y="1435.9999928399998" width="112.99997203999993" height="29.000079429999914" class="text">Office </text>
<text x="579.00001688" y="1438.9999939699999" width="131.99996127999998" height="29.99995991999981" class="text">Expense
</text>
<text x="1203.00002056" y="1027.99996761" width="8.999950679999984" height="27.999993420000123" class="text">9 </text>
<text x="1236.9999898400001" y="1027.00001005" width="109.00002507999989" height="29.999985609999953" class="text">310.04
</text>
<text x="1204.99996292" y="1058.00003029" width="8.000080640000078" height="28.00001911000004" class="text">3 </text>
<text x="1237.9999688" y="1058.00003029" width="107.00008271999991" height="30.000062679999928" class="text">718.96
</text>
<text x="1203.00002056" y="1101.0000036699998" width="10.000023000000056" height="30.00003698999967" class="text">8 </text>
<text x="1236.00001088" y="1104.00003049" width="109.00004063999995" height="32.000003489999926" class="text">698.20
</text>
<text x="1200.0000058800001" y="1134.99997366" width="8.999950679999756" height="30.99994317000005" class="text">6 </text>
<text x="1241.99996244" y="1136.99999154" width="108.00004611999998" height="32.99996105000014" class="text">391.72
</text>
<text x="1181.00001664" y="1178.0000241100001" width="36.000020560000166" height="27.99999342000001" class="text">12 </text>
<text x="1240.99998348" y="1178.0000241100001" width="108.00006167999982" height="27.99999342000001" class="text">718.81
</text>
<text x="1203.99999952" y="1211.00001085" width="7.999971719999849" height="27.000035860000025" class="text">9 </text>
<text x="1241.99996244" y="1211.00001085" width="103.00008907999995" height="27.99999342000001" class="text">792.72
</text>
<text x="1196.00001224" y="1257.00001105" width="153.00003291999997" height="34.00002137000001" class="text">7834.06
</text>
<text x="1189.00000392" y="1289.0000145400002" width="154.99997528000017" height="35.000004620000254" class="text">6307.86
</text>
<text x="1203.99999952" y="1329.9999700399999" width="9.00004403999992" height="31.000020239999913" class="text">8 </text>
<text x="1239.00004112" y="1331.99993654" width="106.9999737999999" height="32.99998673999994" class="text">ool.56
</text>
<text x="1191.0000396399998" y="1365.00007742" width="159.99994788000004" height="33.00014088000012" class="text">6839.33
</text>
<text x="1206.00003524" y="1407.99997373" width="7.999987279999914" height="27.99999342000001" class="text">7 </text>
<text x="1236.9999898400001" y="1407.99997373" width="112.00005531999977" height="29.999959920000038" class="text">829.88
</text>
<text x="1203.00002056" y="1437.0000531599999" width="7.999987280000141" height="28.000019109999812" class="text">5 </text>
<text x="1235.0000474800001" y="1438.9999939699999" width="110.99996743999986" height="29.99995991999981" class="text">618.19
</text>
<text x="1180.00003768" y="1484.9999171" width="39.99992083999996" height="30.999866099999963" class="text">93 </text>
<text x="1236.9999898400001" y="1484.9999171" width="113.99999767999975" height="32.99996105000014" class="text">061.33
</text>
<text x="201.00000328000002" y="1331.00003036" width="55.99998875999998" height="28.000019109999812" class="text">May
</text>
<text x="207.00000152" y="1401.9999457800002" width="68.00000080000001" height="21.999965470000234" class="text">June
</text>
<text x="203.99998684" y="1576.0000370100001" width="31.00001684" height="34.00004706000004" class="text">In </text>
<text x="262.00001132" y="1576.0000370100001" width="68.00000080000001" height="34.00004706000004" class="text">this </text>
<text x="352.00000048" y="1576.0000370100001" width="112.9999876" height="34.00004706000004" class="text">amount </text>
<text x="484.9999874" y="1576.0000370100001" width="53.00000520000003" height="34.00004706000004" class="text">are </text>
<text x="565.00000024" y="1576.0000370100001" width="139.00001627999995" height="34.00004706000004" class="text">included </text>
<text x="730.99997748" y="1576.0000370100001" width="143.00000992000002" height="34.00004706000004" class="text">payments </text>
<text x="895.99999132" y="1576.0000370100001" width="38.00005627999997" height="34.00004706000004" class="text">of </text>
<text x="957.0000149199999" y="1576.0000370100001" width="10.000038560000121" height="34.00004706000004" class="text">$ </text>
<text x="998.0000080799999" y="1576.0000370100001" width="10.000023000000056" height="34.00004706000004" class="text">7 </text>
<text x="1034.00002864" y="1576.0000370100001" width="106.99997380000013" height="34.00004706000004" class="text">169.43 </text>
<text x="1160.99997064" y="1576.0000370100001" width="38.00005628000008" height="34.00004706000004" class="text">to
</text>
<text x="201.9999978" y="1623.00002046" width="127.00000424000004" height="34.00004706000004" class="text">Stephen </text>
<text x="351.00000596" y="1623.00002046" width="96.00001852000003" height="34.00004706000004" class="text">Goerl </text>
<text x="468.00000276000003" y="1623.00002046" width="185.99997655999994" height="34.00004706000004" class="text">Associates </text>
<text x="678.00001896" y="1623.00002046" width="9.999976319999973" height="34.00004706000004" class="text">(</text>
<text x="693.00001456" y="1623.00002046" width="31.000001280000106" height="34.00004706000004" class="text">PR</text>
<text x="735.0000178" y="1623.00002046" width="9.999976319999973" height="34.00004706000004" class="text">)
</text>
<text x="201.9999978" y="1651.99992006" width="38.00000960000003" height="29.999959920000038" class="text">48 </text>
<text x="259.99999116" y="1651.99992006" width="72.00001000000003" height="29.999959920000038" class="text">East </text>
<text x="352.00000048" y="1651.99992006" width="73.00002008000007" height="29.999959920000038" class="text">43rd </text>
<text x="442.99998416" y="1651.99992006" width="118.00002244000001" height="29.999959920000038" class="text">Street
</text>
<text x="201.00000328000002" y="1684.00000062" width="53.000005200000004" height="29.000053739999885" class="text">New </text>
<text x="281.00000056" y="1684.00000062" width="68.99999532000004" height="29.999959920000038" class="text">York</text>
<text x="362.00000792000003" y="1682.9999403000002" width="7.999987279999971" height="28.999899600000163" class="text">, </text>
<text x="388.00000547999997" y="1682.9999403000002" width="77.99999267999999" height="28.999899600000163" class="text">N.Y.
</text>
</g>
</svg>
