<svg xmlns="http://www.w3.org/2000/svg">
<style>.text { font-size: 14px; font-family: Arial, sans-serif; }</style>
<g id="page-0" transform="translate(0, 0)">
<rect width="1556" height="2569" fill="none" stroke="black" />
<text x="146.999994224" y="99.999997419" width="52.00000445599997" height="23.999998763999997" class="text">Form </text>
<text x="207.00000152" y="102.000002454" width="28.99999667999998" height="24.99999999699999" class="text">DJ</text>
<text x="232.99999907999998" y="100.99999608300001" width="6.000013800000005" height="22.99999753100002" class="text">-</text>
<text x="244.00000104" y="102.000002454" width="33.000005879999975" height="24.000003902000003" class="text">307
</text>
<text x="1057.9999749199999" y="103.00000111799999" width="43.000028879999945" height="16.999997839999978" class="text">Budg </text>
<text x="1152.0000043999999" y="103.00000111799999" width="33.99998484000025" height="16.999997839999978" class="text">reau </text>
<text x="1196.00001224" y="102.000002454" width="32.99999032000005" height="17.000005547" class="text">No. </text>
<text x="1233.9999751599998" y="102.000002454" width="18.000010280000197" height="17.000005547" class="text">43</text>
<text x="1255.99997908" y="102.000002454" width="5.000050399999964" height="17.000005547" class="text">-</text>
<text x="1261.00002948" y="102.000002454" width="60.99994579999998" height="18.00000421099999" class="text">R226.5
</text>
<text x="1059.00004724" y="124.999994847" width="47.99998591999997" height="20.999995064999993" class="text">Appro </text>
<text x="1144.99999608" y="124.999994847" width="65.00003279999987" height="20.999995064999993" class="text">Expires </text>
<text x="1218.99997956" y="124.999994847" width="40.00001420000012" height="20.999995064999993" class="text">Oct. </text>
<text x="1263.9999663600001" y="124.999994847" width="20.000045999999884" height="20.999995064999993" class="text">31</text>
<text x="1287.0000270399998" y="124.999994847" width="5.999936000000162" height="20.999995064999993" class="text">, </text>
<text x="1299.99997136" y="124.999994847" width="47.0000225199999" height="20.999995064999993" class="text">1976
</text>
<text x="478.00002575999997" y="161.999994226" width="94.99996176000002" height="36.999999379000016" class="text">UNITED </text>
<text x="583.9999894800001" y="161.999994226" width="94.00002947999997" height="35.999990439" class="text">STATES </text>
<text x="684.0000172" y="164.00000696799998" width="171.99995992000004" height="37.00000708599998" class="text">DEPARTMENT </text>
<text x="862.9999854399999" y="164.00000696799998" width="32.000026920000096" height="35.00001232699998" class="text">OF </text>
<text x="906.0000143200001" y="165.000005632" width="100.99994443999992" height="37.00000708600001" class="text">JUSTICE
</text>
<text x="590.00001884" y="190.999999155" width="153.9999651999999" height="22.000004004999994" class="text">WASHINGTON</text>
<text x="748.99998776" y="190.999999155" width="5.999998240000082" height="22.000004004999994" class="text">, </text>
<text x="765.9999724" y="190.999999155" width="53.99998415999994" height="22.000004004999994" class="text">D.C. </text>
<text x="825.9999859200001" y="190.999999155" width="59.999966839999956" height="22.000004004999994" class="text">20530
</text>
<text x="1167.9999789600001" y="167.99999648600001" width="123.0000417199999" height="36.99999681000003" class="text">RECEIVED
</text>
<text x="1092.00003756" y="188.000005732" width="145.99993124000002" height="38.00000318100001" class="text">DEPARTMENT </text>
<text x="1240.99998348" y="190.00000305999998" width="31.000047960000074" height="25.999996092000004" class="text">OF </text>
<text x="1279.00003976" y="199.999997407" width="88.99997908" height="32.00000092099998" class="text">JUSTICE
</text>
<text x="469.9999918" y="249.999992263" width="152.00000727999998" height="27.99999085099998" class="text">AMENDMENT </text>
<text x="636.0000157200001" y="249.999992263" width="24.999971919999894" height="26.999992187000004" class="text">TO </text>
<text x="675.00000428" y="252.00000500500002" width="177.99995816000012" height="29.000004929000028" class="text">REGISTRATION </text>
<text x="866.9999790799999" y="253.000003669" width="146.99998800000003" height="29.000007498000002" class="text">STATEMENT
</text>
<text x="1081.0000356" y="246.000000176" width="44.99998679999999" height="52.000007597999996" class="text">Jul </text>
<text x="1131.9999584" y="249.999992263" width="40.00001420000012" height="49.999994856" class="text">16 </text>
<text x="1192.9999975599999" y="257.99999442" width="76.99999816000013" height="50.99999608900001" class="text">210 </text>
<text x="1279.00003976" y="262.00000449000004" width="27.999939920000088" height="45.00000924300005" class="text">AM </text>
<text x="1334.00004956" y="266.99999781" width="26.999960959999953" height="44.99999639800001" class="text">74
</text>
<text x="1094.99995888" y="309.99999688" width="178.00005151999994" height="47.99999238999999" class="text">REGISTRATION </text>
<text x="1279.00003976" y="315.99999914" width="60.99994579999998" height="36.99999681000003" class="text">UNIT</text>
<text x="1087.9999505600001" y="330.9999791" width="123.00005727999996" height="38.99996331" class="text">INTERNAL 
</text>
<text x="1219.99995852" y="343.00000931" width="123.0000417199999" height="39.00001469" class="text">SECURITY
</text>
<text x="1159.00001272" y="360.00000715" width="106.99998935999997" height="36.00001355999996" class="text">SECTION
</text>
<text x="1094.99995888" y="381.99999831" width="113.00001872000007" height="37.99998006000004" class="text">CRIMINAL </text>
<text x="1217.0000372000002" y="394.00000282999997" width="108.99993171999972" height="40.00002362999999" class="text">DIVISION
</text>
<text x="565.9999792" y="311.99998906999997" width="99.00000207999994" height="27.999993419999953" class="text">Pursuant </text>
<text x="671.00001064" y="311.99998906999997" width="18.99998923999999" height="25.99997553999998" class="text">to </text>
<text x="704.0000165199999" y="311.99998906999997" width="28.999965560000078" height="25.99997553999998" class="text">the </text>
<text x="743.99998404" y="313.99998125999997" width="81.00003847999994" height="27.99996772999998" class="text">Foreign </text>
<text x="840.99998152" y="315.00001589000004" width="69.00002644000006" height="27.000010170000053" class="text">Agents
</text>
<text x="526.00001168" y="345.00000150000005" width="133.999997" height="27.999993420000067" class="text">Registration </text>
<text x="671.9999896" y="344.00001825" width="40.00001420000001" height="26.000026919999982" class="text">Act </text>
<text x="717.00000752" y="344.00001825" width="23.999992959999986" height="26.000026919999982" class="text">of </text>
<text x="748.0000087999999" y="344.00001825" width="49.999943840000014" height="26.000026919999982" class="text">1938</text>
<text x="799.00002496" y="344.00001825" width="7.000008320000006" height="26.000026919999982" class="text">, </text>
<text x="814.9999995200001" y="344.00001825" width="28.00003327999991" height="26.000026919999982" class="text">as </text>
<text x="851.0000045200001" y="345.00000150000005" width="92.99997271999985" height="26.000001230000066" class="text">amended</text>
<text x="945.0000495600001" y="345.00000150000005" width="6.9999149599999555" height="26.000001230000066" class="text">,
</text>
<text x="155.000001732" y="429.9999907" width="17.99999938800002" height="23.999983350000036" class="text">1. </text>
<text x="190.00000132" y="431.99998288999996" width="58.99998787999999" height="25.99997553999998" class="text">Name </text>
<text x="259.99999116" y="431.99998288999996" width="22.000003919999983" height="23.99995765999995" class="text">of </text>
<text x="289.0000034" y="435.00000971" width="116.99998124000001" height="26.999984479999966" class="text">Registrant
</text>
<text x="763.0000044000001" y="437.00000190000003" width="23.999946280000017" height="26.999984480000023" class="text">2. </text>
<text x="802.00003964" y="438.99999409" width="136.9999650000001" height="28.999976669999967" class="text">Registration </text>
<text x="947.9999708800001" y="438.00001084" width="43.000028879999945" height="27.000035860000025" class="text">No.
</text>
<text x="221.0000026" y="515.99998884" width="68.99999532000001" height="24.999992290000023" class="text">JAPAN </text>
<text x="314.99998539999996" y="515.99998884" width="71.00001548000006" height="23.999983350000036" class="text">TRADE </text>
<text x="401.999991" y="516.99999778" width="89.00002575999997" height="24.999992289999966" class="text">CENTER
</text>
<text x="951.99996452" y="524.0000089800001" width="57.00004551999996" height="33.99999568000004" class="text">1813
</text>
<text x="153.000004912" y="582.99999695" width="19.999996208" height="28.000019109999926" class="text">3. </text>
<text x="190.99999584" y="584.99998914" width="46.9999914" height="28.999976670000024" class="text">This </text>
<text x="249.99998372000002" y="585.99999808" width="119.00001695999995" height="29.999985609999953" class="text">amendment </text>
<text x="377.00000352" y="585.99999808" width="19.999983759999964" height="27.99999342000001" class="text">is </text>
<text x="408.99999932" y="587.99999027" width="49.000011560000075" height="29.999985610000067" class="text">filed </text>
<text x="467.0000238" y="586.99998133" width="19.999952639999947" height="27.99996772999998" class="text">to </text>
<text x="499.999983" y="589.0000249" width="119.00000140000003" height="30.000011299999983" class="text">accomplish </text>
<text x="629.0000074" y="589.0000249" width="35.99997387999997" height="28.000019109999926" class="text">the </text>
<text x="671.00001064" y="591.0000170899999" width="102.99999572000002" height="30.00001129999987" class="text">following </text>
<text x="782.9999726" y="592.00000034" width="102.99998016000006" height="29.000002360000053" class="text">indicated </text>
<text x="891.0000187200001" y="593.99999253" width="82.99994972000002" height="30.000011299999983" class="text">purpose </text>
<text x="983.9999914399999" y="593.99999253" width="25.999982000000045" height="29.000002360000053" class="text">or </text>
<text x="1016.00001836" y="595.00000147" width="96.99995079999985" height="30.000011300000097" class="text">purposes</text>
<text x="1114.00004148" y="595.00000147" width="7.999987280000141" height="28.00001911000004" class="text">:
</text>
<text x="248.9999892" y="675.9999806000001" width="8.000002840000008" height="26.99995879000005" class="text">☑ </text>
<text x="292.99999704000004" y="677.0000409200001" width="26.00001311999995" height="27.000035860000025" class="text">To </text>
<text x="332.00000116" y="678.0000241700001" width="73.99998348000003" height="28.00001911000004" class="text">correct </text>
<text x="416.9999866" y="678.0000241700001" width="8.000033960000053" height="27.000035860000025" class="text">a </text>
<text x="436.99998592" y="678.99998173" width="112.00000864000003" height="27.999993419999896" class="text">deficiency </text>
<text x="563.0000112" y="678.99998173" width="16.00000567999996" height="27.000010169999996" class="text">in
</text>
<text x="818.9999776" y="682.00000855" width="20.000061560000063" height="28.00001911000004" class="text">To </text>
<text x="850.0000411200001" y="682.00000855" width="48.99996487999988" height="28.00001911000004" class="text">give </text>
<text x="907.9999566800001" y="682.00000855" width="8.000080639999851" height="28.00001911000004" class="text">a </text>
<text x="931.0000329200001" y="682.00000855" width="19.999952639999947" height="28.00001911000004" class="text">10</text>
<text x="953.00003684" y="682.00000855" width="7.999971720000076" height="28.00001911000004" class="text">-</text>
<text x="961.9999875199999" y="682.00000855" width="36.00002056000005" height="28.00001911000004" class="text">day </text>
<text x="1006.99995876" y="682.00000855" width="67.00006851999979" height="28.00001911000004" class="text">notice </text>
<text x="1086.99998716" y="682.00000855" width="21.00002496000002" height="28.00001911000004" class="text">of </text>
<text x="1118.0000351200001" y="682.00000855" width="7.999987279999914" height="28.00001911000004" class="text">a </text>
<text x="1141.0000024400001" y="682.00000855" width="73.99998347999986" height="28.00001911000004" class="text">change </text>
<text x="1225.99998788" y="682.00000855" width="14.999995600000148" height="28.00001911000004" class="text">in </text>
<text x="1252.9999644" y="682.00000855" width="53.00005188" height="28.00001911000004" class="text">infor-
</text>
<text x="814.9999995200001" y="711.99996847" width="66.99997515999996" height="28.00001911000004" class="text">mation </text>
<text x="892.99996108" y="711.99996847" width="25.999997559999883" height="28.00001911000004" class="text">as </text>
<text x="928.99998164" y="711.99996847" width="88.00000011999998" height="28.00001911000004" class="text">required </text>
<text x="1024.99996904" y="711.99996847" width="25.99999756000011" height="28.00001911000004" class="text">by </text>
<text x="1061.9999685599998" y="711.99996847" width="76.99999816000013" height="28.00001911000004" class="text">Section </text>
<text x="1152.99998336" y="711.99996847" width="7.999987279999914" height="28.00001911000004" class="text">2</text>
<text x="1163.99998532" y="711.99996847" width="7.999987280000141" height="28.00001911000004" class="text">(</text>
<text x="1173.00002936" y="711.99996847" width="7.999987279999914" height="28.00001911000004" class="text">b</text>
<text x="1186.99995264" y="711.99996847" width="8.000080640000078" height="28.00001911000004" class="text">) </text>
<text x="1200.99996928" y="711.99996847" width="25.99999756000011" height="28.00001911000004" class="text">of </text>
<text x="1229.99998152" y="711.99996847" width="36.999999520000074" height="28.00001911000004" class="text">the </text>
<text x="1277.00000404" y="711.99996847" width="35.00004160000003" height="28.00001911000004" class="text">Act</text>
<text x="1314.9999669600002" y="711.99996847" width="8.000080639999851" height="28.00001911000004" class="text">.
</text>
<text x="346.99999676" y="735.0000199499999" width="71.99999444000002" height="21.999991159999922" class="text">Initial </text>
<text x="425.99999951999996" y="736.99996076" width="109.00002508" height="23.999931970000034" class="text">Statement
</text>
<text x="347.99999128" y="800.99996774" width="144.00000443999994" height="28.999976670000024" class="text">Supplemental </text>
<text x="500.99999308" y="799.99998449" width="106.99998935999992" height="27.99999342000001" class="text">Statement
</text>
<text x="793.999959" y="800.99996774" width="8.000080639999965" height="28.999976670000024" class="text">| </text>
<text x="803.99999756" y="803.00001131" width="64.00005384000008" height="31.000020240000026" class="text">Other </text>
<text x="873.9999874" y="803.00001131" width="84.00000647999991" height="31.000020240000026" class="text">purpose </text>
<text x="965.9999811600001" y="803.00001131" width="7.999987280000028" height="29.000002360000053" class="text">(</text>
<text x="975.0000252" y="803.99996887" width="77.99997712000004" height="30.99994317000005" class="text">specify</text>
<text x="1057.9999749199999" y="803.99996887" width="7.999987280000141" height="28.999976670000024" class="text">)</text>
<text x="1071.0000126" y="803.99996887" width="7.999987279999914" height="28.999976670000024" class="text">.
</text>
<text x="344.99999216000003" y="830.00002148" width="34.000000399999976" height="34.0000213699999" class="text">for </text>
<text x="401.0000276" y="830.00002148" width="43.99999227999996" height="34.0000213699999" class="text">the </text>
<text x="462.99998348" y="830.00002148" width="87.00002116000002" height="34.0000213699999" class="text">period </text>
<text x="568.99999388" y="830.00002148" width="86.00001107999992" height="34.0000213699999" class="text">ending </text>
<text x="671.9999896" y="830.00002148" width="75.00000911999996" height="34.0000213699999" class="text">March </text>
<text x="769.00000264" y="830.00002148" width="24.999956359999942" height="34.0000213699999" class="text">30</text>
<text x="800.00000392" y="830.00002148" width="10.000023000000056" height="34.0000213699999" class="text">, </text>
<text x="829.99997956" y="830.00002148" width="55.9999732" height="34.0000213699999" class="text">1974
</text>
<text x="292.99999704000004" y="889.99996701" width="24.000008519999938" height="25.999975540000037" class="text">To </text>
<text x="330.00001212" y="889.99996701" width="43.99999227999996" height="25.999975540000037" class="text">give </text>
<text x="384.00001184" y="891.00002733" width="67.99996968000005" height="26.00005261000001" class="text">notice </text>
<text x="462.00000452" y="891.00002733" width="24.00000852000005" height="26.00005261000001" class="text">of </text>
<text x="493.00002135999995" y="891.99998489" width="75.99997252000009" height="27.000010169999996" class="text">change </text>
<text x="576.99998116" y="891.99998489" width="19.00002036000012" height="25.999975540000037" class="text">in </text>
<text x="610.99999712" y="891.99998489" width="18.999989240000104" height="25.999975540000037" class="text">an
</text>
<text x="289.0000034" y="921.9999705" width="76.99999815999996" height="29.000002360000053" class="text">exhibit </text>
<text x="374.99999892" y="921.9999705" width="116.00001784" height="27.999942040000064" class="text">previously </text>
<text x="502.00001872" y="923.99998838" width="49.99999052000004" height="28.999976670000024" class="text">filed</text>
<text x="552.9999882" y="923.00003082" width="8.000018400000044" height="27.000035860000025" class="text">.
</text>
<text x="146.999994224" y="1012.0000044" width="25.000012376" height="27.000010169999996" class="text">4. </text>
<text x="185.99999212" y="1012.0000044" width="19.0000048" height="27.000010169999996" class="text">If </text>
<text x="212.99999975999998" y="1012.99998765" width="41.00000872000004" height="27.99999342000001" class="text">this </text>
<text x="266.00000496" y="1013.9999709" width="118.00000688" height="28.999976670000024" class="text">amendment </text>
<text x="390.99998904000006" y="1013.9999709" width="91.99999375999994" height="28.00001911000004" class="text">requires </text>
<text x="486.00001304000006" y="1013.9999709" width="34.99999491999989" height="26.99995879000005" class="text">the </text>
<text x="528.99997968" y="1013.9999709" width="56.99999883999999" height="26.99995879000005" class="text">filing </text>
<text x="596.0000015200001" y="1013.9999709" width="20.000014879999867" height="26.99995879000005" class="text">of </text>
<text x="627.00001836" y="1015.00003122" width="7.999971719999962" height="27.000035860000025" class="text">a </text>
<text x="644.000003" y="1016.00001447" width="104.99998475999996" height="29.000002360000053" class="text">document </text>
<text x="758.0000006800001" y="1015.00003122" width="19.999999319999915" height="27.000035860000025" class="text">or </text>
<text x="784.0000293600001" y="1016.9999720300001" width="115.99995559999991" height="28.999976670000137" class="text">documents</text>
<text x="902.0000206799999" y="1016.00001447" width="7.999987280000141" height="27.000035860000025" class="text">, </text>
<text x="920.0000309599999" y="1016.00001447" width="67.99995412000021" height="27.000035860000025" class="text">please </text>
<text x="998.99998704" y="1016.9999720300001" width="43.00001332000011" height="26.999933100000135" class="text">list-
</text>
<text x="184.00000308" y="1086.00002371" width="182.99999300000002" height="24.000009040000123" class="text">Rixxxkmetix
</text>
<text x="166.00000836" y="1122.00001158" width="259.0000122" height="32.000003490000154" class="text">VEXXEXICCES
</text>
<text x="148.00000430400002" y="1183.99997499" width="21.99999769599998" height="24.000009040000123" class="text">5. </text>
<text x="187.00000219999998" y="1183.99997499" width="48.99999600000001" height="24.000009040000123" class="text">Each </text>
<text x="248.9999892" y="1184.99995824" width="48.00001704000002" height="23.999931970000034" class="text">item </text>
<text x="306.0000036" y="1184.99995824" width="88.00001567999999" height="23.999931970000034" class="text">checked </text>
<text x="405.00000567999996" y="1186.00001856" width="59.99998240000002" height="24.99999228999991" class="text">above </text>
<text x="482.0000194" y="1186.00001856" width="47.99998592000003" height="24.000009039999895" class="text">must </text>
<text x="535.0000246" y="1186.00001856" width="26.999960960000067" height="24.000009039999895" class="text">be </text>
<text x="568.99999388" y="1187.99998506" width="104.99998475999996" height="25.999975539999923" class="text">explained </text>
<text x="684.0000172" y="1187.00000181" width="59.999966839999956" height="24.000034729999925" class="text">below </text>
<text x="758.0000006800001" y="1187.00000181" width="18.000010279999856" height="24.000034729999925" class="text">in </text>
<text x="789.99998092" y="1187.99998506" width="36.0000050000001" height="23.999957659999836" class="text">full </text>
<text x="836.9999878799999" y="1187.99998506" width="64.00005384000019" height="23.999957659999836" class="text">detail </text>
<text x="909.000029" y="1189.00001969" width="90.99992143999987" height="24.99999228999991" class="text">together </text>
<text x="1005.0000164" y="1189.00001969" width="44.99997123999992" height="24.000009039999895" class="text">with</text>
<text x="1053.99998128" y="1189.00001969" width="7.000008320000234" height="24.000009039999895" class="text">, </text>
<text x="1067.99999792" y="1189.00001969" width="62.99998152000012" height="24.000009039999895" class="text">where </text>
<text x="1144.00001712" y="1190.99998619" width="118.99997028000007" height="25.999975539999923" class="text">appropriate</text>
<text x="1268.0000378" y="1190.00000294" width="6.999914960000069" height="24.000009040000123" class="text">,
</text>
<text x="184.9999976" y="1215.99997848" width="88.00001568000002" height="26.999958789999937" class="text">specific </text>
<text x="286.00000428" y="1218.00002205" width="101.00000668000001" height="28.00001911000004" class="text">reference </text>
<text x="401.999991" y="1217.0000388" width="20.00001487999998" height="27.000035860000025" class="text">to </text>
<text x="440.00001616000003" y="1218.00002205" width="34.999994920000006" height="28.00001911000004" class="text">and </text>
<text x="486.00001304000006" y="1218.00002205" width="80.99999179999992" height="27.000035860000025" class="text">identity </text>
<text x="579.00001688" y="1218.00002205" width="25.999997559999997" height="27.000035860000025" class="text">of </text>
<text x="610.99999712" y="1218.00002205" width="31.000001279999992" height="27.000035860000025" class="text">the </text>
<text x="651.99999028" y="1219.0000052999999" width="45.000017920000005" height="27.000035860000025" class="text">item </text>
<text x="706.99998452" y="1219.0000052999999" width="19.99999932000003" height="27.000035860000025" class="text">in </text>
<text x="737.9999858" y="1219.0000052999999" width="34.00003151999999" height="27.000035860000025" class="text">the </text>
<text x="780.0000357199999" y="1221.00002318" width="124.99999964000017" height="29.000053740000112" class="text">registration </text>
<text x="917.9999796799999" y="1221.00002318" width="106.00001040000006" height="29.000053740000112" class="text">statement </text>
<text x="1030.9999983999999" y="1221.00002318" width="19.99996820000024" height="27.000035860000025" class="text">to </text>
<text x="1061.9999685599998" y="1221.00002318" width="58.99998788000016" height="27.000035860000025" class="text">which </text>
<text x="1134.99997308" y="1221.00002318" width="16.000067919999992" height="27.000035860000025" class="text">it </text>
<text x="1159.99999168" y="1222.00000643" width="90.00005140000007" height="28.00001911000004" class="text">pertains</text>
<text x="1251.00000648" y="1222.00000643" width="7.999987280000141" height="27.000035860000025" class="text">. </text>
<text x="1266.00000208" y="1222.00000643" width="19.999952639999947" height="27.000035860000025" class="text">If
</text>
<text x="187.00000219999998" y="1249.00004229" width="45.000002360000025" height="29.00007943000014" class="text">more </text>
<text x="245.99999007999998" y="1249.00004229" width="65.00001724000003" height="29.00007943000014" class="text">space </text>
<text x="315.99999548" y="1249.00004229" width="21.999988359999975" height="29.00007943000014" class="text">is </text>
<text x="346.99999676" y="1249.00004229" width="75.00000912000002" height="29.00007943000014" class="text">needed</text>
<text x="427.0000096" y="1249.00004229" width="7.999987280000028" height="29.00007943000014" class="text">, </text>
<text x="442.0000052" y="1249.00004229" width="40.00001420000001" height="29.00007943000014" class="text">full </text>
<text x="489.99999112" y="1249.00004229" width="45.000033479999956" height="29.00007943000014" class="text">size </text>
<text x="546.00002656" y="1249.00004229" width="62.99998151999989" height="29.00007943000014" class="text">insert </text>
<text x="618.9999844" y="1249.00004229" width="69.99998984000001" height="29.00007943000014" class="text">sheets </text>
<text x="697.9999871599999" y="1249.00004229" width="37.00003064000009" height="29.00007943000014" class="text">may </text>
<text x="743.99998404" y="1249.00004229" width="28.000033280000025" height="29.00007943000014" class="text">be </text>
<text x="778.99997896" y="1249.00004229" width="49.000058240000044" height="29.00007943000014" class="text">used</text>
<text x="832.99999424" y="1249.00004229" width="7.999987280000028" height="29.00007943000014" class="text">.
</text>
<text x="335.9999948" y="1315.00006715" width="33.00000587999995" height="23.00002578999988" class="text">RE</text>
<text x="374.99999892" y="1315.99997333" width="6.999992759999998" height="21.999991160000263" class="text">:
</text>
<text x="416.00000764" y="1315.99997333" width="59.99996684000001" height="24.999992290000137" class="text">Item </text>
<text x="491.99999571999996" y="1315.00006715" width="25.000018600000033" height="23.00002578999988" class="text">12
</text>
<text x="331.00000664" y="1349.9999947000001" width="79.99999728" height="27.99999342000001" class="text">While </text>
<text x="425.00002056000005" y="1351.00005502" width="34.99999491999989" height="27.99999342000001" class="text">we </text>
<text x="473.00000648" y="1351.00005502" width="62.000018119999936" height="27.99999342000001" class="text">have </text>
<text x="552.9999882" y="1351.9999612000001" width="56.99999883999999" height="28.999899600000163" class="text">made </text>
<text x="627.00001836" y="1351.9999612000001" width="7.999971719999962" height="28.000019110000267" class="text">a </text>
<text x="655.00000496" y="1353.00002152" width="122.99999504000004" height="29.999959920000038" class="text">negative </text>
<text x="796.00001028" y="1354.0000818400001" width="118.99995472" height="30.000139750000244" class="text">response </text>
<text x="932.9999752800001" y="1353.00002152" width="25.999997559999883" height="28.00001911000004" class="text">to </text>
<text x="980.99997676" y="1354.0000818400001" width="58.00000892000003" height="28.000019110000267" class="text">Item </text>
<text x="1056.99999596" y="1354.0000818400001" width="25.99999756000011" height="28.000019110000267" class="text">12 </text>
<text x="1101.0000037999998" y="1354.0000818400001" width="25.999982000000273" height="28.000019110000267" class="text">of </text>
<text x="1145.99997504" y="1354.9999623300002" width="44.00000784000008" height="27.999993420000237" class="text">the
</text>
<text x="337.99998383999997" y="1384.99994794" width="180.00000944000004" height="30.999866099999963" class="text">Supplemental </text>
<text x="535.9999879999999" y="1384.99994794" width="134.00001256000007" height="30.999866099999963" class="text">Statement</text>
<text x="677.00000888" y="1384.99994794" width="8.999997360000066" height="30.999866099999963" class="text">, </text>
<text x="697.9999871599999" y="1384.99994794" width="34.99999492000006" height="30.999866099999963" class="text">we </text>
<text x="746.00001976" y="1384.99994794" width="75.00000911999996" height="30.999866099999963" class="text">amend </text>
<text x="840.0000025599999" y="1384.99994794" width="28.000048840000204" height="30.999866099999963" class="text">it </text>
<text x="885.99995276" y="1384.99994794" width="29.000012239999933" height="30.999866099999963" class="text">to </text>
<text x="928.00001824" y="1384.99994794" width="33.999969279999846" height="30.999866099999963" class="text">an </text>
<text x="973.9999684400001" y="1384.99994794" width="170.00004867999985" height="30.999866099999963" class="text">affirmative </text>
<text x="1159.00001272" y="1384.99994794" width="48.00000147999981" height="30.999866099999963" class="text">one
</text>
<text x="334.00000576" y="1415.99996818" width="31.999995799999965" height="34.99995323999997" class="text">at </text>
<text x="384.00001184" y="1415.99996818" width="58.99997231999998" height="34.99995323999997" class="text">your </text>
<text x="460.99999444" y="1415.99996818" width="102.9999957199999" height="34.99995323999997" class="text">request </text>
<text x="579.99999584" y="1415.99996818" width="75.00000911999996" height="34.99995323999997" class="text">dated </text>
<text x="675.00000428" y="1415.99996818" width="57.99997780000001" height="34.99995323999997" class="text">June </text>
<text x="752.9999813999999" y="1415.99996818" width="10.00002300000017" height="34.99995323999997" class="text">7</text>
<text x="766.99999804" y="1415.99996818" width="9.999976319999973" height="34.99995323999997" class="text">, </text>
<text x="796.99998924" y="1415.99996818" width="58.00000892000003" height="34.99995323999997" class="text">1974</text>
<text x="861.00004308" y="1415.99996818" width="9.999929640000119" height="34.99995323999997" class="text">. </text>
<text x="924.0000246" y="1412.00003518" width="36.99998396000012" height="29.000053739999885" class="text">We </text>
<text x="977.99994652" y="1412.99994136" width="87.00003672000014" height="29.999959920000038" class="text">submit </text>
<text x="1083.99995692" y="1415.000062" width="44.00000784000008" height="30.000114059999987" class="text">the </text>
<text x="1145.99997504" y="1417.0000285" width="132.00000795999995" height="31.00004593000017" class="text">following
</text>
<text x="334.00000576" y="1445.9999281" width="170.99998095999996" height="31.999926420000065" class="text">description</text>
<text x="510.99998496" y="1445.00002192" width="8.999997359999952" height="29.999959920000038" class="text">: </text>
<text x="563.0000112" y="1443.0000811099999" width="8.999997359999952" height="31.000045929999942" class="text">"</text>
<text x="579.99999584" y="1443.0000811099999" width="27.999986599999943" height="31.000045929999942" class="text">On </text>
<text x="625.99999272" y="1445.00002192" width="91.00001480000003" height="32.99998674000017" class="text">behalf </text>
<text x="732.00000312" y="1443.9999616" width="27.999986600000057" height="31.000020239999913" class="text">of </text>
<text x="778.0" y="1445.00002192" width="44.00000783999997" height="31.00002024000014" class="text">the </text>
<text x="840.99998152" y="1446.9999884200001" width="71.00006215999997" height="32.99998674000017" class="text">Japan </text>
<text x="928.99998164" y="1446.9999884200001" width="124.99999963999994" height="31.999926420000065" class="text">External </text>
<text x="1071.99999156" y="1448.00004874" width="69.99998984000013" height="32.000080560000015" class="text">Trade </text>
<text x="1159.00001272" y="1448.9999292300001" width="180.99997283999983" height="32.99996105000014" class="text">Organization
</text>
<text x="337.99998383999997" y="1478.00000866" width="11.00000196000002" height="37.00004819000014" class="text">(</text>
<text x="357.99999872" y="1478.00000866" width="69.99998984000001" height="37.00004819000014" class="text">JETRO</text>
<text x="431.00000323999996" y="1478.00000866" width="11.00000196000002" height="37.00004819000014" class="text">)</text>
<text x="445.00001987999997" y="1478.00000866" width="11.00000196000002" height="37.00004819000014" class="text">, </text>
<text x="469.00001284" y="1478.00000866" width="34.99999491999995" height="37.00004819000014" class="text">we </text>
<text x="517.99999328" y="1478.00000866" width="91.00001479999992" height="37.00004819000014" class="text">sought </text>
<text x="625.99999272" y="1478.00000866" width="27.999986599999943" height="37.00004819000014" class="text">to </text>
<text x="670.00000056" y="1478.00000866" width="104.99998475999996" height="37.00004819000014" class="text">promote </text>
<text x="792.00001664" y="1478.00000866" width="47.99998591999986" height="37.00004819000014" class="text">two</text>
<text x="840.99998152" y="1478.00000866" width="11.000001960000077" height="37.00004819000014" class="text">-</text>
<text x="850.0000411200001" y="1478.00000866" width="46.9999135999999" height="37.00004819000014" class="text">way </text>
<text x="913.00002264" y="1478.00000866" width="33.99996928000007" height="37.00004819000014" class="text">U. </text>
<text x="957.9999938799999" y="1478.00000866" width="33.99996928000007" height="37.00004819000014" class="text">S.</text>
<text x="993.00003548" y="1478.00000866" width="11.000001960000077" height="37.00004819000014" class="text">-</text>
<text x="1006.99995876" y="1478.00000866" width="72.00004111999988" height="37.00004819000014" class="text">Japan </text>
<text x="1098.9999525199999" y="1478.00000866" width="72.0000411200001" height="37.00004819000014" class="text">trade </text>
<text x="1188.00002496" y="1478.00000866" width="41.99995655999987" height="37.00004819000014" class="text">and </text>
<text x="1251.00000648" y="1478.00000866" width="26.99997652000002" height="37.00004819000014" class="text">to
</text>
<text x="336.99998932" y="1507.0000624" width="149.99998711999996" height="31.000020239999913" class="text">strengthen </text>
<text x="506.00001235999997" y="1507.0000624" width="89.9999891600001" height="31.000020239999913" class="text">mutual </text>
<text x="609.99998704" y="1507.0000624" width="196.00004624000007" height="31.000020239999913" class="text">understanding </text>
<text x="824.0000435599999" y="1507.0000624" width="100.99994444000015" height="31.000020239999913" class="text">between </text>
<text x="945.0000495600001" y="1507.0000624" width="43.999898919999964" height="31.000020239999913" class="text">the </text>
<text x="1008.00003108" y="1507.0000624" width="44.00000783999997" height="31.000020239999913" class="text">two </text>
<text x="1070.0000336399999" y="1507.0000624" width="132.99998692000008" height="31.000020239999913" class="text">countries</text>
<text x="1207.0000142" y="1507.0000624" width="8.999950679999984" height="31.000020239999913" class="text">. </text>
<text x="1266.00000208" y="1506.00000208" width="44.99997123999992" height="26.00005261000024" class="text">For
</text>
<text x="339.00000948" y="1537.9999285" width="73.00000452" height="31.999926419999838" class="text">these </text>
<text x="433.00000783999997" y="1538.99998882" width="115.99998672000004" height="32.99998673999994" class="text">purposes</text>
<text x="553.99999828" y="1538.99998882" width="9.000012920000017" height="31.999926420000065" class="text">, </text>
<text x="576.99998116" y="1538.99998882" width="35.00004160000003" height="31.999926420000065" class="text">we </text>
<text x="625.99999272" y="1540.99995532" width="178.00000483999997" height="33.99989292000009" class="text">disseminated </text>
<text x="825.0000225199999" y="1540.99995532" width="132.99997136000002" height="32.99998673999994" class="text">pamphlets </text>
<text x="975.0000252" y="1540.99995532" width="44.99998679999999" height="31.999926420000065" class="text">and </text>
<text x="1038.99998568" y="1540.99995532" width="73.99998347999986" height="31.999926420000065" class="text">other </text>
<text x="1127.99996476" y="1543.0000502700002" width="183.00000855999997" height="34.00002137000024" class="text">publications</text>
<text x="1316.00003928" y="1541.99998995" width="8.999950679999984" height="32.000054869999985" class="text">,
</text>
<text x="336.99998932" y="1567.00000793" width="90.00002028" height="32.99998674000017" class="text">showed </text>
<text x="440.99997956000004" y="1568.00004256" width="78.00002380000001" height="33.00011519000009" class="text">films </text>
<text x="530.9999842799999" y="1568.00004256" width="45.000017920000005" height="32.00005487000021" class="text">and </text>
<text x="596.0000015200001" y="1568.99994874" width="40.99999315999992" height="32.99996105000014" class="text">the </text>
<text x="656.999994" y="1570.00000906" width="134.00004367999998" height="34.00002137000001" class="text">Executive </text>
<text x="806.00003328" y="1571.00006938" width="122.99994835999996" height="33.00014088000012" class="text">Director</text>
<text x="934.0000476" y="1571.00006938" width="8.999950680000097" height="32.000080560000015" class="text">, </text>
<text x="961.0000085600001" y="1571.99997556" width="44.999986799999874" height="32.99998673999994" class="text">Mr. </text>
<text x="1020.9999754" y="1573.00003588" width="90.00005139999985" height="34.00004706000004" class="text">Haruyo </text>
<text x="1126.9999858" y="1573.9999163700002" width="134.00004367999986" height="33.99986723000006" class="text">Matsubara</text>
<text x="1269.99999572" y="1573.9999163700002" width="9.00004403999992" height="31.999926420000065" class="text">,
</text>
<text x="335.9999948" y="1601.99993548" width="73.99998347999997" height="39.99989517999984" class="text">spoke </text>
<text x="422.00000588" y="1601.99993548" width="36.99998395999995" height="39.99989517999984" class="text">at </text>
<text x="471.9999964" y="1601.99993548" width="122.00001608000002" height="39.99989517999984" class="text">Sheridan</text>
<text x="596.99998048" y="1601.99993548" width="12.000027599999953" height="39.99989517999984" class="text">, </text>
<text x="624.0000036800001" y="1601.99993548" width="45.99999687999991" height="39.99989517999984" class="text">Wyo</text>
<text x="673.00001524" y="1601.99993548" width="11.999965360000033" height="39.99989517999984" class="text">. </text>
<text x="704.9999954799999" y="1601.99993548" width="12.000012040000115" height="39.99989517999984" class="text">(</text>
<text x="721.99998012" y="1601.99993548" width="114.00004435999995" height="39.99989517999984" class="text">10/10/73</text>
<text x="840.99998152" y="1601.99993548" width="11.999980920000098" height="39.99989517999984" class="text">)</text>
<text x="857.00004944" y="1601.99993548" width="11.999965360000033" height="39.99989517999984" class="text">, </text>
<text x="884.0000104" y="1601.99993548" width="106.00001040000006" height="39.99989517999984" class="text">Redding</text>
<text x="993.00003548" y="1601.99993548" width="11.999980920000098" height="39.99989517999984" class="text">, </text>
<text x="1026.00004136" y="1601.99993548" width="71.99994775999994" height="39.99989517999984" class="text">Calif</text>
<text x="1101.0000037999998" y="1601.99993548" width="11.999965360000033" height="39.99989517999984" class="text">. </text>
<text x="1129.00003708" y="1601.99993548" width="11.999965360000033" height="39.99989517999984" class="text">(</text>
<text x="1144.00001712" y="1601.99993548" width="121.99998496000012" height="39.99989517999984" class="text">11/12/73</text>
<text x="1269.0000167599999" y="1601.99993548" width="11.999980920000098" height="39.99989517999984" class="text">)
</text>
<text x="334.00000576" y="1629.0000484099999" width="46.9999914" height="35.99998786999981" class="text">and </text>
<text x="401.0000276" y="1629.99995459" width="69.99998983999996" height="36.999894049999966" class="text">Boise</text>
<text x="477.00000012" y="1629.99995459" width="9.999976319999973" height="36.00001356000007" class="text">, </text>
<text x="510.000006" y="1629.99995459" width="19.99999932000003" height="36.00001356000007" class="text">Id</text>
<text x="537.9999926" y="1629.99995459" width="10.000022999999942" height="36.00001356000007" class="text">. </text>
<text x="585.0000151200001" y="1629.99995459" width="9.999976319999973" height="36.00001356000007" class="text">(</text>
<text x="598.99998508" y="1632.00004954" width="102.00001676" height="38.00010851000002" class="text">12/4/73</text>
<text x="708.00001016" y="1630.99998922" width="9.999976320000087" height="35.99998787000027" class="text">) </text>
<text x="730.00001408" y="1630.99998922" width="32.99999032000005" height="35.99998787000027" class="text">on </text>
<text x="778.99997896" y="1630.99998922" width="46.00004355999988" height="35.99998787000027" class="text">the </text>
<text x="840.0000025599999" y="1632.99995572" width="105.00004700000022" height="36.999894049999966" class="text">subject </text>
<text x="961.9999875199999" y="1632.00004954" width="26.99996096000018" height="35.99998787000004" class="text">of </text>
<text x="1004.00003744" y="1632.99995572" width="64.99993944000005" height="36.999894049999966" class="text">U.S.</text>
<text x="1071.0000126" y="1632.99995572" width="10.000023000000056" height="35.99998787000004" class="text">-</text>
<text x="1085.00002924" y="1632.99995572" width="73.99998348000008" height="35.99998787000004" class="text">Japan </text>
<text x="1178.9999809199999" y="1634.00001604" width="69.00001087999999" height="37.00004819000014" class="text">Trade</text>
<text x="1255.00000012" y="1634.00001604" width="10.000022999999828" height="35.99998787000004" class="text">.</text>
<text x="1266.00000208" y="1634.00001604" width="10.000023000000056" height="35.99998787000004" class="text">"
</text>
<text x="189.0000068" y="1776.0000010200001" width="39.00000412" height="29.999959920000038" class="text">The </text>
<text x="232.99999907999998" y="1776.0000010200001" width="133.99999700000004" height="29.999959920000038" class="text">undersigned </text>
<text x="377.99999804" y="1776.0000010200001" width="67.00002183999999" height="29.999959920000038" class="text">swear</text>
<text x="442.0000052" y="1776.0000010200001" width="8.999997360000009" height="29.999959920000038" class="text">(</text>
<text x="453.99998611999996" y="1776.0000010200001" width="8.999997360000066" height="29.999959920000038" class="text">s</text>
<text x="465.99999815999996" y="1776.0000010200001" width="9.000012920000074" height="29.999959920000038" class="text">) </text>
<text x="480.00001480000003" y="1776.0000010200001" width="22.000003919999983" height="29.999959920000038" class="text">or </text>
<text x="510.000006" y="1776.0000010200001" width="60.999992479999946" height="29.999959920000038" class="text">affirm</text>
<text x="574.00001316" y="1776.0000010200001" width="8.999997359999952" height="29.999959920000038" class="text">(</text>
<text x="585.99997852" y="1776.0000010200001" width="9.000012920000017" height="29.999959920000038" class="text">s</text>
<text x="598.00000612" y="1776.0000010200001" width="8.999997360000066" height="29.999959920000038" class="text">) </text>
<text x="613.00000172" y="1776.0000010200001" width="45.000017920000005" height="29.999959920000038" class="text">that </text>
<text x="662.00001328" y="1776.0000010200001" width="27.999986600000057" height="29.999959920000038" class="text">he </text>
<text x="698.99999724" y="1776.0000010200001" width="36.999999520000074" height="29.999959920000038" class="text">has </text>
<text x="744.99999412" y="1776.0000010200001" width="9.000012920000017" height="29.999959920000038" class="text">(</text>
<text x="754.00000704" y="1776.0000010200001" width="45.000017920000005" height="29.999959920000038" class="text">they </text>
<text x="808.9999546" y="1776.0000010200001" width="50.00003719999995" height="29.999959920000038" class="text">have</text>
<text x="862.0000064799999" y="1776.0000010200001" width="8.999966240000163" height="29.999959920000038" class="text">) </text>
<text x="880.0000167599999" y="1776.0000010200001" width="41.99995655999999" height="29.999959920000038" class="text">read </text>
<text x="934.0000476" y="1776.0000010200001" width="34.99994823999998" height="29.999959920000038" class="text">the </text>
<text x="976.00000416" y="1776.0000010200001" width="120.00002703999996" height="29.999959920000038" class="text">information </text>
<text x="1109.99995448" y="1776.0000010200001" width="34.000062639999896" height="29.999959920000038" class="text">set </text>
<text x="1152.99998336" y="1776.0000010200001" width="47.00002252000013" height="29.999959920000038" class="text">forth </text>
<text x="1213.00004356" y="1776.0000010200001" width="16.999937959999897" height="29.999959920000038" class="text">in </text>
<text x="1239.00004112" y="1776.0000010200001" width="41.99995655999987" height="29.999959920000038" class="text">this
</text>
<text x="146.999994224" y="1807.00004695" width="123.00000437600002" height="29.00007943000014" class="text">amendment </text>
<text x="275.00000232" y="1807.00004695" width="36.99999952000002" height="29.00007943000014" class="text">and </text>
<text x="320.00000468" y="1807.00004695" width="45.99999687999997" height="29.00007943000014" class="text">that </text>
<text x="373.00000988" y="1807.00004695" width="25.99996643999998" height="29.00007943000014" class="text">he </text>
<text x="407.00001028" y="1807.00004695" width="19.999999319999972" height="29.00007943000014" class="text">is </text>
<text x="438.99999052" y="1807.00004695" width="8.000033960000053" height="29.00007943000014" class="text">(</text>
<text x="443.99999424" y="1807.00004695" width="47.000022520000016" height="29.00007943000014" class="text">they </text>
<text x="500.99999308" y="1807.00004695" width="34.000031519999936" height="29.00007943000014" class="text">are</text>
<text x="537.0000136399999" y="1807.00004695" width="7.999987280000141" height="29.00007943000014" class="text">) </text>
<text x="552.00000924" y="1807.00004695" width="86.99997447999999" height="29.00007943000014" class="text">familiar </text>
<text x="644.000003" y="1807.00004695" width="45.999996880000026" height="29.00007943000014" class="text">with </text>
<text x="702.9999908799999" y="1807.00004695" width="34.00003152000011" height="29.00007943000014" class="text">the </text>
<text x="743.99998404" y="1807.00004695" width="91.00006148" height="29.00007943000014" class="text">contents </text>
<text x="847.00001088" y="1807.00004695" width="78.99995608000006" height="29.00007943000014" class="text">thereof </text>
<text x="934.0000476" y="1807.00004695" width="37.999962919999916" height="29.00007943000014" class="text">and </text>
<text x="976.99998312" y="1807.00004695" width="47.99998591999997" height="29.00007943000014" class="text">that </text>
<text x="1031.99997736" y="1807.00004695" width="48.00000148000004" height="29.00007943000014" class="text">such </text>
<text x="1089.00002288" y="1807.00004695" width="95.0000084400001" height="29.00007943000014" class="text">contents </text>
<text x="1193.99996096" y="1807.00004695" width="34.00007819999996" height="29.00007943000014" class="text">are </text>
<text x="1235.0000474800001" y="1807.00004695" width="22.000003919999926" height="29.00007943000014" class="text">in </text>
<text x="1263.9999663600001" y="1807.00004695" width="54.99999423999998" height="29.00007943000014" class="text">their
</text>
<text x="144.99999896" y="1840.000008" width="85.000001" height="31.000020239999913" class="text">entirety </text>
<text x="239.00001287999999" y="1840.000008" width="45.000002359999996" height="31.000020239999913" class="text">true </text>
<text x="290.99999243999997" y="1840.000008" width="39.00001968000004" height="31.000020239999913" class="text">and </text>
<text x="341.00001407999997" y="1840.000008" width="88.99996352" height="31.000020239999913" class="text">accurate </text>
<text x="440.00001616000003" y="1840.000008" width="21.999988359999975" height="31.000020239999913" class="text">to </text>
<text x="471.9999964" y="1840.000008" width="36.000005000000044" height="31.000020239999913" class="text">the </text>
<text x="513.00002068" y="1840.000008" width="46.999975839999934" height="31.000020239999913" class="text">best </text>
<text x="570.00001952" y="1840.000008" width="22.00000392000004" height="31.000020239999913" class="text">of </text>
<text x="601.0000208" y="1840.000008" width="31.999980240000014" height="31.000020239999913" class="text">his </text>
<text x="641.9999984" y="1840.000008" width="9.000012920000017" height="31.000020239999913" class="text">(</text>
<text x="651.99999028" y="1840.000008" width="51.00000059999991" height="31.000020239999913" class="text">their</text>
<text x="704.0000165199999" y="1840.000008" width="8.999997360000066" height="31.000020239999913" class="text">) </text>
<text x="717.9999864800001" y="1840.000008" width="115.99998671999992" height="31.000020239999913" class="text">knowledge </text>
<text x="843.0000328" y="1840.000008" width="39.99999864000006" height="31.000020239999913" class="text">and </text>
<text x="888.00000404" y="1840.000008" width="66.99997515999996" height="31.000020239999913" class="text">belief</text>
<text x="954.9999792" y="1840.000008" width="9.000044040000034" height="31.000020239999913" class="text">.
</text>
<text x="873.00000844" y="1907.99992229" width="113.99999768000009" height="77.99984954999991" class="text">H. </text>
<text x="971.0000315599999" y="1907.0000161100002" width="347.9999290400002" height="82.99997132000021" class="text">Matembara
</text>
<text x="172.0000066" y="1930.0000675899998" width="5.9999982399999965" height="23.000051479999684" class="text">(</text>
<text x="176.99999476" y="1930.0000675899998" width="45.999996880000026" height="23.000051479999684" class="text">Both </text>
<text x="231.00001004" y="1930.0000675899998" width="66.99999072000003" height="23.000051479999684" class="text">copies </text>
<text x="306.0000036" y="1930.0000675899998" width="20.999993840000002" height="23.000051479999684" class="text">of </text>
<text x="332.00000116" y="1930.0000675899998" width="37.99999403999999" height="23.000051479999684" class="text">this </text>
<text x="377.00000352" y="1930.0000675899998" width="110.99999856" height="23.000051479999684" class="text">amendment </text>
<text x="497.9999784" y="1930.0000675899998" width="49.00001156000002" height="23.000051479999684" class="text">shall </text>
<text x="552.9999882" y="1930.0000675899998" width="25.00001860000009" height="23.000051479999684" class="text">be </text>
<text x="585.99997852" y="1930.0000675899998" width="63.000028199999974" height="23.000051479999684" class="text">signed </text>
<text x="660.00000868" y="1930.0000675899998" width="31.999980240000014" height="23.000051479999684" class="text">and </text>
<text x="701.00000184" y="1930.0000675899998" width="56.00001988000008" height="23.000051479999684" class="text">sworn
</text>
<text x="883.00003144" y="1933.9999749" width="86.99994335999997" height="31.999926420000065" class="text">Haruvo </text>
<text x="987.0000061200001" y="1933.9999749" width="135.99998603999984" height="31.999926420000065" class="text">Matsubara</text>
<text x="1130.99997944" y="1933.9999749" width="9.000059599999986" height="29.999959920000038" class="text">, </text>
<text x="1158.00004932" y="1935.00003522" width="137.99994395999988" height="32.000080560000015" class="text">Executive </text>
<text x="1312.00004564" y="1935.00003522" width="42.99993552000001" height="29.999959920000038" class="text">Dir</text>
<text x="1361.99998948" y="1935.00003522" width="9.00004403999992" height="29.999959920000038" class="text">.
</text>
<text x="145.999996592" y="1955.9999660600001" width="18.000007167999996" height="23.999957660000064" class="text">to </text>
<text x="172.0000066" y="1955.9999660600001" width="57.99999335999999" height="23.999957660000064" class="text">before </text>
<text x="244.99999556" y="1955.9999660600001" width="7.000008319999978" height="23.999957660000064" class="text">a </text>
<text x="259.99999116" y="1955.9999660600001" width="63.00001264000002" height="23.999957660000064" class="text">notary </text>
<text x="332.99999568" y="1955.9999660600001" width="59.000019000000066" height="23.999957660000064" class="text">public </text>
<text x="403.00001664" y="1955.9999660600001" width="17.9999636" height="23.999957660000064" class="text">or </text>
<text x="429.0000142" y="1955.9999660600001" width="53.000005199999976" height="23.999957660000064" class="text">other </text>
<text x="486.00001304000006" y="1955.9999660600001" width="64.99997056000001" height="23.999957660000064" class="text">person </text>
<text x="559.99999652" y="1955.9999660600001" width="104.00000580000005" height="23.999957660000064" class="text">authorized </text>
<text x="671.9999896" y="1955.9999660600001" width="18.00001027999997" height="23.999957660000064" class="text">to </text>
<text x="702.9999908799999" y="1955.9999660600001" width="18.000010280000083" height="23.999957660000064" class="text">ad-
</text>
<text x="149.999999568" y="1980.99995835" width="79.00000587200003" height="23.999931970000034" class="text">minister </text>
<text x="235.9999982" y="1980.99995835" width="53.999999720000005" height="23.999931970000034" class="text">oaths </text>
<text x="298.99999528" y="1980.99995835" width="22.000003919999983" height="23.999931970000034" class="text">by </text>
<text x="329.00000204" y="1980.99995835" width="29.99999120000001" height="23.999931970000034" class="text">the </text>
<text x="369.00000067999997" y="1980.99995835" width="51.99997956000004" height="23.999931970000034" class="text">agent</text>
<text x="423.00001596" y="1980.99995835" width="6.999961639999981" height="23.999931970000034" class="text">, </text>
<text x="440.00001616000003" y="1980.99995835" width="13.99996995999993" height="23.999931970000034" class="text">if </text>
<text x="458.00001088000005" y="1980.99995835" width="30.999970159999975" height="23.999931970000034" class="text">the </text>
<text x="499.00000403999996" y="1980.99995835" width="96.9999974800001" height="23.999931970000034" class="text">registrant </text>
<text x="605.00001444" y="1980.99995835" width="18.00001027999997" height="23.999931970000034" class="text">is </text>
<text x="633.00000104" y="1980.99995835" width="18.00001027999997" height="23.999931970000034" class="text">an </text>
<text x="662.00001328" y="1980.99995835" width="101.99997008000003" height="23.999931970000034" class="text">individual</text>
<text x="763.0000044000001" y="1980.99995835" width="7.000008320000006" height="23.999931970000034" class="text">,
</text>
<text x="884.99998936" y="1985.0000198" width="75.00005579999993" height="29.999959920000038" class="text">Japan </text>
<text x="976.99998312" y="1983.9999594800001" width="72.00002556000004" height="28.999899600000163" class="text">Trade </text>
<text x="1065.9999622" y="1983.9999594800001" width="88.00000011999987" height="29.999959920000038" class="text">Center
</text>
<text x="146.999994224" y="2005.99995064" width="20.000008656000006" height="21.99999115999981" class="text">or </text>
<text x="172.0000066" y="2005.99995064" width="24.000008520000023" height="21.99999115999981" class="text">by </text>
<text x="208.0000116" y="2005.99995064" width="5.999982680000016" height="21.99999115999981" class="text">a </text>
<text x="226.99998528" y="2005.99995064" width="76.00000364000002" height="21.99999115999981" class="text">majority </text>
<text x="313.99999088" y="2005.99995064" width="20.000014880000037" height="21.99999115999981" class="text">of </text>
<text x="341.00001407999997" y="2005.99995064" width="51.999979559999986" height="21.99999115999981" class="text">those </text>
<text x="401.0000276" y="2005.99995064" width="78.99998720000002" height="21.99999115999981" class="text">partners</text>
<text x="484.9999874" y="2005.99995064" width="6.000029359999985" height="21.99999115999981" class="text">, </text>
<text x="499.00000403999996" y="2005.99995064" width="75.00000912000002" height="21.99999115999981" class="text">officers</text>
<text x="578.0000068" y="2005.99995064" width="5.999982680000016" height="21.99999115999981" class="text">, </text>
<text x="590.9999978000001" y="2005.99995064" width="87.00002115999996" height="21.99999115999981" class="text">directors </text>
<text x="687.99999528" y="2005.99995064" width="20.00001487999998" height="21.99999115999981" class="text">or
</text>
<text x="144.99999896" y="2033.00006357" width="79.99999728" height="22.000145299999986" class="text">persons </text>
<text x="232.00000456" y="2033.00006357" width="102.00000120000001" height="23.00005148000014" class="text">performing </text>
<text x="346.99999676" y="2032.00000325" width="68.00000080000001" height="21.999991160000036" class="text">similar </text>
<text x="423.99999492" y="2032.00000325" width="89.00002576000003" height="23.00002579000011" class="text">functions </text>
<text x="521.99997136" y="2030.99994293" width="38.00002515999995" height="21.999965470000234" class="text">who </text>
<text x="568.99999388" y="2030.99994293" width="27.999986599999943" height="21.999965470000234" class="text">are </text>
<text x="609.0000080799999" y="2030.99994293" width="16.999984640000093" height="21.999965470000234" class="text">in </text>
<text x="633.00000104" y="2030.99994293" width="31.000001279999992" height="21.999965470000234" class="text">the </text>
<text x="673.00001524" y="2030.99994293" width="64.00000716" height="22.99987165000016" class="text">United
</text>
<text x="146.999994224" y="2058.00005586" width="60.00000729600001" height="23.00002578999988" class="text">States</text>
<text x="209.00000612" y="2058.00005586" width="5.999982679999988" height="23.00002578999988" class="text">, </text>
<text x="224.00000171999997" y="2058.00005586" width="18.000010280000026" height="23.00002578999988" class="text">if </text>
<text x="247.00000015999998" y="2058.00005586" width="28.99999668000001" height="23.00002578999988" class="text">the </text>
<text x="286.00000428" y="2058.00005586" width="98.00000756000003" height="23.00002578999988" class="text">registrant </text>
<text x="390.00002564" y="2058.00005586" width="16.999984640000037" height="23.00002578999988" class="text">is </text>
<text x="420.00000127999994" y="2058.00005586" width="16.999984640000037" height="23.00002578999988" class="text">an </text>
<text x="449.00001352" y="2058.00005586" width="119.00000140000003" height="23.00002578999988" class="text">organization</text>
<text x="572.00000856" y="2058.00005586" width="5.999998240000082" height="23.00002578999988" class="text">.</text>
<text x="581.9999848799999" y="2058.00005586" width="5.999998240000082" height="23.00002578999988" class="text">)
</text>
<text x="883.00003144" y="2056.99999554" width="59.99996684000007" height="31.000020239999913" class="text">1737 </text>
<text x="962.99996648" y="2058.00005586" width="53.00005188" height="32.000080560000015" class="text">Post </text>
<text x="1034.99999204" y="2058.00005586" width="44.00000783999985" height="31.000020239999913" class="text">St.</text>
<text x="1083.99995692" y="2058.00005586" width="9.000059599999986" height="31.000020239999913" class="text">, </text>
<text x="1109.99995448" y="2058.00005586" width="44.00000783999985" height="31.000020239999913" class="text">San </text>
<text x="1171.9999726" y="2060.00002236" width="133.00006471999995" height="32.99998673999994" class="text">Francisco</text>
<text x="1313.0000246" y="2058.99996204" width="8.999950679999984" height="31.000020239999913" class="text">, </text>
<text x="1339.0000066" y="2060.00002236" width="74.99996243999999" height="32.000080560000015" class="text">Calif</text>
<text x="1421.99995632" y="2060.00002236" width="9.000044040000148" height="31.00002024000014" class="text">.
</text>
<text x="1251.00000648" y="2080.00004702" width="67.99995412000021" height="32.99998673999971" class="text">94115
</text>
<text x="150.999998756" y="2141.00002718" width="115.00000620400002" height="21.999965470000006" class="text">Subscribed </text>
<text x="278.00000144" y="2141.9999333600003" width="36.99998395999995" height="21.999991160000263" class="text">and </text>
<text x="326.99999744" y="2141.9999333600003" width="55.99998876000001" height="21.999991160000263" class="text">sworn </text>
<text x="397.99999735999995" y="2141.9999333600003" width="16.00002124000008" height="21.999991160000263" class="text">to </text>
<text x="427.0000096" y="2141.9999333600003" width="66.99997516000002" height="21.999991160000263" class="text">before </text>
<text x="508.99998036" y="2141.9999333600003" width="23.999992959999986" height="21.999991160000263" class="text">me </text>
<text x="545.00000092" y="2142.99999368" width="19.999999319999915" height="21.99999115999981" class="text">at
</text>
<text x="633.00000104" y="2133.00005842" width="40.999977599999966" height="32.00008056000024" class="text">San </text>
<text x="689.99999988" y="2133.00005842" width="138.00003732000005" height="32.00008056000024" class="text">Francisco</text>
<text x="832.99999424" y="2133.00005842" width="8.999966240000049" height="32.00008056000024" class="text">, </text>
<text x="859.99997076" y="2133.00005842" width="74.00007684000002" height="32.00008056000024" class="text">Calif</text>
<text x="939.00000464" y="2133.00005842" width="8.999966240000049" height="32.00008056000024" class="text">.
</text>
<text x="222.99999164000002" y="2205.00003416" width="58.00000891999997" height="28.000019109999812" class="text">11th
</text>
<text x="359.99998776" y="2207.0000006600003" width="58.00002447999998" height="29.999985610000294" class="text">July
</text>
<text x="709.9999991999999" y="2202.99991352" width="25.00001860000009" height="23.999931970000034" class="text">74</text>
<text x="743.0000050799999" y="2202.00003303" width="7.000008320000006" height="21.99999115999981" class="text">.
</text>
<text x="149.999999568" y="2216.99993592" width="39.000007232" height="20.99993084000016" class="text">this
</text>
<text x="265.00001044" y="2222.0000576899997" width="42.00000324000001" height="26.000052609999784" class="text">day </text>
<text x="312.99999636" y="2219.00003087" width="28.00001771999996" height="24.999992290000137" class="text">of
</text>
<text x="664.00000232" y="2216.00002974" width="22.00000392000004" height="23.000051480000366" class="text">19
</text>
<text x="957.9999938799999" y="2194.00003858" width="110.00000404000002" height="26.000052609999784" class="text">OFFICIAL </text>
<text x="1078.99999988" y="2191.00003745" width="58.000008920000255" height="23.00005147999991" class="text">SEAL
</text>
<text x="928.00001824" y="2220.99999737" width="80.00001283999995" height="26.999958790000164" class="text">KAZUO </text>
<text x="1027.99998372" y="2219.99993705" width="18.999989240000104" height="25.999898470000062" class="text">J. </text>
<text x="1057.9999749199999" y="2219.99993705" width="110.00000404000025" height="27.99999342000001" class="text">KATAOKA
</text>
<text x="914.0000016" y="2247.00004998" width="55.9999732" height="39.000014689999716" class="text">NOVA </text>
<text x="1119.00001408" y="2245.99998966" width="62.99998152000012" height="40.00004932000047" class="text">PUHARA
</text>
<text x="924.0000246" y="2275.00006909" width="36.00002055999994" height="21.99999115999981" class="text">SAN </text>
<text x="975.0000252" y="2274.00000877" width="110.99998300000016" height="23.99995766000029" class="text">FRANCISCO </text>
<text x="1097.0000101599999" y="2272.00004227" width="80.99999180000032" height="24.000086109999756" class="text">COUNTY
</text>
<text x="905.0000353600001" y="2299.0000010599997" width="26.99996095999984" height="26.000052609999784" class="text">My </text>
<text x="932.9999752800001" y="2299.0000010599997" width="95.9999873999999" height="26.99995878999971" class="text">Commission </text>
<text x="1030.9999983999999" y="2297.0000345599997" width="56.99995216000025" height="26.000052609999784" class="text">Expires </text>
<text x="1090.9999808" y="2294.99993961" width="39.99999864000006" height="25.999898470000517" class="text">Feb. </text>
<text x="1126.9999858" y="2294.00003343" width="22.999982879999834" height="24.000086109999756" class="text">13</text>
<text x="1148.00001076" y="2294.00003343" width="7.999987279999914" height="24.000086109999756" class="text">, </text>
<text x="1155.9999980399998" y="2294.00003343" width="36.999999520000074" height="26.000052609999784" class="text">1976</text>
<text x="1203.00002056" y="2292.0000669300002" width="7.999987280000141" height="24.00008611000021" class="text">:
</text>
<text x="149.00000193600002" y="2297.0000345599997" width="30.999991943999987" height="27.99999342000001" class="text">My </text>
<text x="185.99999212" y="2299.0000010599997" width="127.99999875999998" height="29.999959920000038" class="text">commission </text>
<text x="326.99999744" y="2300.0000613800003" width="76.99999815999996" height="30.000114060000215" class="text">expires
</text>
<text x="449.00001352" y="2286.0000389799998" width="119.00000140000003" height="32.00005486999953" class="text">February </text>
<text x="585.99997852" y="2283.9999440300003" width="28.000033280000025" height="30.999866099999963" class="text">13</text>
<text x="618.9999844" y="2283.9999440300003" width="8.999997359999952" height="30.999866099999963" class="text">, </text>
<text x="649.99998568" y="2283.9999440300003" width="53.00000519999992" height="32.99998674000062" class="text">1976
</text>
<text x="781.0000146799999" y="2348.99998564" width="19.999968200000126" height="20.999930839999706" class="text">22 </text>
<text x="808.9999546" y="2348.99998564" width="43.00002888000006" height="23.00002579000011" class="text">Peace </text>
<text x="861.00004308" y="2347.99995101" width="39.99999864000017" height="22.99989734000019" class="text">Plaza</text>
<text x="902.0000206799999" y="2345.9999845099996" width="5.999936000000162" height="20.999930839999706" class="text">, </text>
<text x="914.0000016" y="2345.9999845099996" width="24.000039639999954" height="20.999930839999706" class="text">Ste</text>
<text x="939.9999836" y="2345.9999845099996" width="6.000029360000099" height="20.999930839999706" class="text">. </text>
<text x="954.9999792" y="2344.99992419" width="25.999997559999997" height="21.99999115999981" class="text">204</text>
<text x="983.9999914399999" y="2344.99992419" width="6.000029360000099" height="20.99993084000016" class="text">, </text>
<text x="995.9999568" y="2344.99992419" width="27.000069880000183" height="22.99989734000019" class="text">San </text>
<text x="1030.9999983999999" y="2344.00001801" width="73.00002008000024" height="23.00002579000011" class="text">Francisco</text>
<text x="1105.99996084" y="2342.0000772" width="6.000044919999937" height="21.000084979999883" class="text">, </text>
<text x="1119.00001408" y="2342.0000772" width="29.999975640000002" height="22.000145299999986" class="text">CA. </text>
<text x="1152.99998336" y="2342.0000772" width="47.99998591999997" height="23.00005147999991" class="text">94115
</text>
</g>
</svg>
