<svg xmlns="http://www.w3.org/2000/svg">
<style>.text { font-size: 14px; font-family: Arial, sans-serif; }</style>
<g id="page-0" transform="translate(0, 0)">
<rect width="1556" height="2569" fill="none" stroke="black" />
<text x="148.00000430400002" y="115.0000005" width="48.000010816000014" height="23.999998763999997" class="text">Form </text>
<text x="202.99999232000002" y="115.999999164" width="33.000005879999975" height="24.000001333" class="text">DJ</text>
<text x="233.9999936" y="115.0000005" width="6.000013800000005" height="22.000004005000008" class="text">-</text>
<text x="241.00000192" y="115.999999164" width="34.999994920000006" height="23.00000266900001" class="text">307
</text>
<text x="1060.9999896000002" y="114.000004405" width="31.000047959999847" height="15.000003081000003" class="text">Bud </text>
<text x="1137.0000088000002" y="116.999995259" width="51.99999511999977" height="15.999999175999989" class="text">Jureau </text>
<text x="1199.00002692" y="116.999995259" width="30.99995459999991" height="15.999999175999989" class="text">No. </text>
<text x="1239.00004112" y="115.999999164" width="16.999937959999897" height="16.000001745000006" class="text">43</text>
<text x="1259.9999727200002" y="115.999999164" width="3.999993639999957" height="16.000001745000006" class="text">-</text>
<text x="1263.9999663600001" y="115.999999164" width="62.00000255999976" height="16.000001745000006" class="text">R226.5
</text>
<text x="1057.9999749199999" y="138.000003169" width="82.00006412000016" height="21.000007909999994" class="text">Approval </text>
<text x="1148.00001076" y="138.000003169" width="65.0000328000001" height="21.000007909999994" class="text">Expires </text>
<text x="1221.99999424" y="138.000003169" width="33.00000588000012" height="21.000007909999994" class="text">Oct</text>
<text x="1257.0000514" y="138.000003169" width="5.999935999999934" height="21.000007909999994" class="text">: </text>
<text x="1269.99999572" y="138.000003169" width="17.000031319999835" height="21.000007909999994" class="text">31</text>
<text x="1290.0000417200001" y="138.000003169" width="5.999951559999772" height="21.000007909999994" class="text">, </text>
<text x="1303.999965" y="138.000003169" width="45.000080159999925" height="21.000007909999994" class="text">1976
</text>
<text x="477.00000012" y="174.999999979" width="91.00001480000003" height="27.000002462999987" class="text">UNITED </text>
<text x="579.99999584" y="175.99999864300003" width="95.99998740000001" height="27.000002463000044" class="text">STATES </text>
<text x="684.9999806000001" y="177.999993402" width="174.0000111999999" height="27.999990851000007" class="text">DEPARTMENT </text>
<text x="865.0000211600001" y="176.999994738" width="31.99993355999993" height="24.999997428" class="text">OF </text>
<text x="909.000029" y="179.000010049" width="99.99998103999997" height="27.000012739" class="text">JUSTICE
</text>
<text x="588.9999932" y="207.999996995" width="154.00001188" height="23.999998763999997" class="text">WASHINGTON</text>
<text x="748.99998776" y="207.999996995" width="7.000008320000006" height="23.999998763999997" class="text">, </text>
<text x="765.9999724" y="207.999996995" width="53.00000519999992" height="23.999998763999997" class="text">D.C. </text>
<text x="826.9999648799999" y="207.999996995" width="60.00006020000012" height="23.999998763999997" class="text">20530
</text>
<text x="1065.9999622" y="181.000004808" width="123.0000417199999" height="32.00000862800002" class="text">RECEIVED
</text>
<text x="991.99996316" y="208.99999565899998" width="147.00000355999998" height="32.99999701599995" class="text">DEPARTMENT </text>
<text x="1141.9999814" y="200.999996071" width="29.000012239999933" height="25.999996092000004" class="text">OF </text>
<text x="1184.00003132" y="198.99999874300002" width="86.99994335999986" height="30.000003593000002" class="text">JUSTICE
</text>
<text x="469.00001284" y="276.0000012" width="154.99999084000007" height="51.00000636499996" class="text">AMENDMENT </text>
<text x="631.0000120000001" y="273.99998332" width="36.999983959999895" height="48.99998848499999" class="text">TO </text>
<text x="675.00000428" y="273.99998332" width="183.00000855999997" height="50.99998324400002" class="text">REGISTRATION </text>
<text x="866.9999790799999" y="271.00000788" width="156.00004760000024" height="51.00000122700001" class="text">STATEMENT </text>
<text x="1049.99998764" y="268.00000675" width="28.000033280000025" height="48.000000097000026" class="text">24 </text>
<text x="1115.00002044" y="268.00000675" width="63.9999604799998" height="50.000015407999996" class="text">2:30 </text>
<text x="1189.00000392" y="266.99999781" width="85.99994884000012" height="50.00000256300004" class="text">PH75
</text>
<text x="4.0000000196" y="263.99999668" width="2.9999998980000004" height="10.999993010999987" class="text">1
</text>
<text x="563.0000112" y="328.00000366" width="99.99998103999997" height="29.000002359999996" class="text">Pursuant </text>
<text x="673.99997864" y="326.99999471999996" width="14.999995600000034" height="26.999984479999966" class="text">to </text>
<text x="704.0000165199999" y="328.00000366" width="31.000001280000106" height="27.000010169999996" class="text">the </text>
<text x="746.99999872" y="330.00002154" width="79.99996615999987" height="29.00002804999997" class="text">Foreign </text>
<text x="840.99998152" y="330.9999791" width="75.00005579999993" height="28.999976670000024" class="text">Agents
</text>
<text x="525.0000016" y="358.00001496000004" width="135.99998603999995" height="27.000035860000025" class="text">Registration </text>
<text x="670.00000056" y="358.00001496000004" width="42.00000324000007" height="27.000035860000025" class="text">Act </text>
<text x="717.00000752" y="358.00001496000004" width="24.999971919999894" height="27.000035860000025" class="text">of </text>
<text x="750.99999236" y="358.00001496000004" width="46.99996027999998" height="27.000035860000025" class="text">1938</text>
<text x="800.00000392" y="358.00001496000004" width="7.999987279999914" height="27.000035860000025" class="text">, </text>
<text x="815.99996292" y="358.00001496000004" width="25.999997559999997" height="27.000035860000025" class="text">as </text>
<text x="851.0000045200001" y="358.00001496000004" width="92.99997271999985" height="27.000035860000025" class="text">amended</text>
<text x="945.0000495600001" y="358.00001496000004" width="7.999987279999914" height="27.000035860000025" class="text">.
</text>
<text x="1015.0000394" y="325.99998578" width="176.00000023999985" height="39.999972249999985" class="text">REGISTRATION </text>
<text x="1203.00002056" y="315.00001589000004" width="58.00000892000003" height="32.00000349000004" class="text">UNIT
</text>
<text x="1012.0000247199999" y="353.9999792" width="121.0000060000001" height="36.99997112" class="text">INTERNAL </text>
<text x="1141.0000024400001" y="346.99999369" width="124.0000206799998" height="37.999980059999984" class="text">SECURITY
</text>
<text x="1086.0000082000001" y="372.99999491999995" width="107.99995275999981" height="32.00000348999998" class="text">SECTION
</text>
<text x="1024.99996904" y="403.99998947" width="112.00003976000016" height="33.999995679999984" class="text">CRIMINAL </text>
<text x="1151.000041" y="395.99999502000003" width="103.99995912000009" height="33.00001243000003" class="text">DIVISION
</text>
<text x="150.999998756" y="442.00002091" width="22.999996884000012" height="25.000017979999996" class="text">1. </text>
<text x="187.00000219999998" y="444.00001310000005" width="60.99999248000003" height="26.000026920000096" class="text">Name </text>
<text x="259.99999116" y="444.00001310000005" width="18.000010280000026" height="25.000017980000052" class="text">of </text>
<text x="288.00000888" y="447.00001423" width="115.99998671999998" height="28.000019109999982" class="text">Registrant
</text>
<text x="765.9999724" y="451.99998186" width="20.000014879999867" height="27.99996772999998" class="text">2. </text>
<text x="802.00003964" y="451.99998186" width="134.99992928000006" height="27.99996772999998" class="text">Registration </text>
<text x="947.9999708800001" y="451.99998186" width="43.9999922799999" height="27.99996772999998" class="text">No.
</text>
<text x="176.99999476" y="522.00001679" width="66.00001176000004" height="33.00003812" class="text">Mrs. </text>
<text x="255.99999752" y="522.99997435" width="58.99998787999996" height="32.99996104999997" class="text">Rose </text>
<text x="332.99999568" y="524.0000089800001" width="74.99999356000006" height="33.00001243000008" class="text">Marie </text>
<text x="422.00000588" y="526.00000117" width="106.99997380000002" height="33.99999568000004" class="text">Fliegel
</text>
<text x="789.0000019600001" y="522.00001679" width="46.00004355999988" height="23.000000100000022" class="text">495
</text>
<text x="151.999996388" y="595.9999847199999" width="20.000010212000007" height="29.00000235999994" class="text">3. </text>
<text x="192.00000592" y="598.0000282899999" width="43.99999227999999" height="30.00001129999987" class="text">This </text>
<text x="247.99999468000001" y="598.99998585" width="118.00000687999997" height="30.999968859999967" class="text">amendment </text>
<text x="374.99999892" y="598.99998585" width="21.00000940000001" height="28.999976670000024" class="text">is </text>
<text x="407.99998924000005" y="600.99997804" width="50.00002164" height="30.999968859999967" class="text">filed </text>
<text x="464.99998808" y="600.00002048" width="19.99999932000003" height="29.00002804999997" class="text">to </text>
<text x="499.999983" y="602.00001267" width="120.00002704000002" height="31.000020240000026" class="text">accomplish </text>
<text x="631.0000120000001" y="602.00001267" width="32.99999031999994" height="29.000002360000053" class="text">the </text>
<text x="675.00000428" y="604.00000486" width="99.00000208000006" height="30.999994549999997" class="text">following </text>
<text x="784.0000293600001" y="605.0000138" width="102.9999957199999" height="31.000020240000026" class="text">indicated </text>
<text x="894.0000334" y="605.99999705" width="81.99997076" height="30.999994549999997" class="text">purpose </text>
<text x="987.0000061200001" y="605.99999705" width="19.999952639999947" height="28.999976670000024" class="text">or </text>
<text x="1019.00003304" y="607.99998924" width="93.99993611999992" height="30.999968859999967" class="text">purposes</text>
<text x="1115.00002044" y="607.00000599" width="7.999971719999849" height="29.00002804999997" class="text">:
</text>
<text x="291.99998696" y="689.00001975" width="27.000023199999987" height="25.00001797999994" class="text">To </text>
<text x="331.00000664" y="689.9999773100001" width="73.99999903999998" height="25.999975540000037" class="text">correct </text>
<text x="416.9999866" y="689.9999773100001" width="7.000008320000006" height="24.999992290000137" class="text">a </text>
<text x="434.99999688" y="690.99996056" width="115.99998672000004" height="25.999975540000037" class="text">deficiency </text>
<text x="561.0000066" y="690.99996056" width="18.99998923999999" height="24.999992290000023" class="text">in
</text>
<text x="763.99998336" y="693.00000413" width="8.000033959999996" height="28.00001911000004" class="text">☐ </text>
<text x="818.0000142" y="693.00000413" width="25.999982000000045" height="28.00001911000004" class="text">To </text>
<text x="851.9999834800001" y="693.99998738" width="48.00000147999992" height="29.000002360000053" class="text">give </text>
<text x="912.00004368" y="693.99998738" width="7.999987279999914" height="28.00001911000004" class="text">a </text>
<text x="929.9999606" y="693.99998738" width="26.000090919999934" height="28.00001911000004" class="text">10</text>
<text x="957.0000149199999" y="693.99998738" width="7.999987280000141" height="28.00001911000004" class="text">-</text>
<text x="964.00002324" y="693.99998738" width="34.99996379999993" height="28.00001911000004" class="text">day </text>
<text x="1010.9999524" y="693.99998738" width="65.99999619999994" height="28.00001911000004" class="text">notice </text>
<text x="1090.9999808" y="695.00002201" width="20.000045999999884" height="29.00005374" class="text">of </text>
<text x="1122.00002876" y="695.00002201" width="7.999971719999849" height="27.99999342000001" class="text">a </text>
<text x="1141.0000024400001" y="695.00002201" width="73.99998347999986" height="27.99999342000001" class="text">change </text>
<text x="1229.00000256" y="695.00002201" width="14.99999559999992" height="27.99999342000001" class="text">in </text>
<text x="1255.99997908" y="695.00002201" width="51.00000060000002" height="27.99999342000001" class="text">infor-
</text>
<text x="817.00003524" y="724.00002437" width="68.99991752000005" height="27.000035860000025" class="text">mation </text>
<text x="895.99999132" y="724.00002437" width="24.00003963999984" height="27.000035860000025" class="text">as </text>
<text x="928.99998164" y="725.00000762" width="88.00000011999998" height="27.000035860000025" class="text">required </text>
<text x="1027.99998372" y="725.00000762" width="25.000018599999976" height="27.000035860000025" class="text">by </text>
<text x="1063.00002532" y="725.00000762" width="77.00001371999997" height="27.000035860000025" class="text">Section </text>
<text x="1156.999977" y="725.99996518" width="7.999987280000141" height="26.99993310000002" class="text">2</text>
<text x="1167.9999789600001" y="725.99996518" width="7.999971719999849" height="26.99993310000002" class="text">(</text>
<text x="1175.99995068" y="725.99996518" width="8.000080640000078" height="26.99993310000002" class="text">b</text>
<text x="1189.00000392" y="725.99996518" width="7.999987279999914" height="26.99993310000002" class="text">) </text>
<text x="1203.99999952" y="725.99996518" width="25.00000303999991" height="26.99993310000002" class="text">of </text>
<text x="1233.9999751599998" y="725.99996518" width="35.00004160000003" height="26.99993310000002" class="text">the </text>
<text x="1277.999983" y="725.99996518" width="38.00005628000008" height="26.99993310000002" class="text">Act</text>
<text x="1316.00003928" y="725.99996518" width="7.999987279999914" height="26.99993310000002" class="text">.
</text>
<text x="304.99999352" y="746.0000155299999" width="6.000013800000033" height="21.00000790999991" class="text">✗ </text>
<text x="346.00000224" y="746.99997309" width="68.99999531999998" height="21.999965470000006" class="text">Initial </text>
<text x="423.99999492" y="748.0000334099999" width="108.99997839999997" height="23.00002578999988" class="text">Statement
</text>
<text x="346.99999676" y="812.0000403900001" width="146.99998800000003" height="27.00003586000014" class="text">Supplemental </text>
<text x="499.00000403999996" y="812.0000403900001" width="107.99999944000007" height="27.00003586000014" class="text">Statement
</text>
<text x="343.99999764" y="834.9999891100001" width="30.000006759999962" height="21.000007910000136" class="text">for
</text>
<text x="803.0000186" y="814.99996445" width="62.99998152000012" height="28.999976670000024" class="text">Other </text>
<text x="874.99996636" y="816.00002477" width="84.00000647999991" height="30.000036990000012" class="text">purpose </text>
<text x="968.99999584" y="816.00002477" width="7.999987280000028" height="28.00001911000004" class="text">(</text>
<text x="979.0000188399999" y="817.00000802" width="74.99996243999999" height="30.000036990000012" class="text">specify</text>
<text x="1060.9999896000002" y="817.00000802" width="7.999987279999914" height="28.00001911000004" class="text">)</text>
<text x="1071.0000126" y="817.00000802" width="7.999987279999914" height="28.00001911000004" class="text">.
</text>
<text x="292.99999704000004" y="902.0000229100001" width="24.000008519999938" height="25.999975540000037" class="text">To </text>
<text x="326.99999744" y="902.0000229100001" width="47.00000695999995" height="25.999975540000037" class="text">give </text>
<text x="384.00001184" y="902.99998047" width="67.99996968000005" height="26.999933099999907" class="text">notice </text>
<text x="462.99998348" y="902.99998047" width="19.00003591999996" height="25.999975540000037" class="text">of </text>
<text x="491.00001676" y="902.99998047" width="75.99998807999998" height="25.999975540000037" class="text">change </text>
<text x="578.0000068" y="902.99998047" width="14.999980039999969" height="25.999975540000037" class="text">in </text>
<text x="609.0000080799999" y="903.99996372" width="18.99997368000004" height="25.999975540000037" class="text">an
</text>
<text x="286.9999988" y="935.99996721" width="75.00000912000002" height="29.999959920000038" class="text">exhibit </text>
<text x="374.99999892" y="935.99996721" width="113.00000316" height="29.999959920000038" class="text">previously </text>
<text x="499.00000403999996" y="935.99996721" width="51.9999795600001" height="27.999942040000064" class="text">filed</text>
<text x="552.00000924" y="935.99996721" width="7.999987279999914" height="27.999942040000064" class="text">.
</text>
<text x="145.999996592" y="1022.00001673" width="24.999999927999994" height="27.000010169999996" class="text">4. </text>
<text x="185.99999212" y="1022.00001673" width="15.000011160000014" height="27.000010169999996" class="text">If </text>
<text x="212.99999975999998" y="1022.99999998" width="39.99999864000003" height="27.000035860000025" class="text">this </text>
<text x="260.99998568" y="1023.99998323" width="122.00000052000001" height="28.999976670000024" class="text">amendment </text>
<text x="394.00001928" y="1024.99996648" width="88.00000011999998" height="29.000002360000053" class="text">requires </text>
<text x="484.9999874" y="1024.99996648" width="34.99999491999995" height="27.999942040000064" class="text">the </text>
<text x="532.00000992" y="1024.99996648" width="53.00000520000003" height="26.99995879000005" class="text">filing </text>
<text x="594.99999144" y="1024.99996648" width="19.999999319999915" height="26.99995879000005" class="text">of </text>
<text x="625.99999272" y="1024.99996648" width="8.000033959999996" height="26.99995879000005" class="text">a </text>
<text x="645.99999204" y="1027.00001005" width="101.00000667999996" height="29.00000235999994" class="text">document </text>
<text x="755.99999608" y="1026.0000268" width="25.000018599999976" height="27.00003585999991" class="text">or </text>
<text x="785.9999872799999" y="1027.99996761" width="115.00005444000021" height="28.999976670000137" class="text">documents</text>
<text x="903.9999630400001" y="1027.00001005" width="8.000080639999851" height="27.00003585999991" class="text">, </text>
<text x="917.9999796799999" y="1029.00002793" width="73.00002008000013" height="29.00005374" class="text">please </text>
<text x="999.9999504399999" y="1027.99996761" width="43.00002888000006" height="26.999933100000135" class="text">list-
</text>
<text x="144.99999896" y="1194.99997057" width="25.000003039999996" height="26.999958789999937" class="text">5. </text>
<text x="184.9999976" y="1196.00003089" width="51.00000059999999" height="28.00001911000004" class="text">Each </text>
<text x="249.99998372000002" y="1196.00003089" width="46.000028000000015" height="27.000035860000025" class="text">item </text>
<text x="303.999999" y="1197.99999739" width="90.00002028" height="29.000002360000053" class="text">checked </text>
<text x="405.00000567999996" y="1197.00001414" width="62.00001812000005" height="27.000035860000025" class="text">above </text>
<text x="480.00001480000003" y="1197.99999739" width="46.999975839999934" height="26.999958790000164" class="text">must </text>
<text x="537.0000136399999" y="1197.99999739" width="24.99997192000012" height="26.999958790000164" class="text">be </text>
<text x="572.00000856" y="1200.00001527" width="106.00001040000006" height="28.999976670000024" class="text">explained </text>
<text x="684.9999806000001" y="1198.99995495" width="60.000013519999925" height="26.999933100000135" class="text">below </text>
<text x="759.00001076" y="1200.00001527" width="18.99998923999999" height="27.000035860000025" class="text">in </text>
<text x="789.0000019600001" y="1200.00001527" width="40.999977599999966" height="27.000035860000025" class="text">full </text>
<text x="836.00002448" y="1200.99999852" width="65.99999619999994" height="28.00001911000004" class="text">detail </text>
<text x="910.0000079600001" y="1201.99998177" width="89.99994247999985" height="29.000002360000053" class="text">together </text>
<text x="1008.00003108" y="1201.99998177" width="41.99995655999999" height="26.999958789999937" class="text">with</text>
<text x="1056.99999596" y="1201.99998177" width="7.999987280000141" height="26.999958789999937" class="text">, </text>
<text x="1072.99997052" y="1201.99998177" width="62.000002559999984" height="26.999958789999937" class="text">where </text>
<text x="1148.00001076" y="1203.99999965" width="117.99999132000016" height="28.999976670000024" class="text">appropriate</text>
<text x="1273.0000103999998" y="1203.00004209" width="7.999987280000141" height="27.000035860000025" class="text">,
</text>
<text x="184.00000308" y="1228.00003438" width="87.99998456000003" height="27.000035860000025" class="text">specific </text>
<text x="289.0000034" y="1229.00001763" width="96.99999747999999" height="27.000035860000025" class="text">reference </text>
<text x="401.0000276" y="1229.00001763" width="19.999952640000004" height="27.000035860000025" class="text">to </text>
<text x="438.99999052" y="1229.00001763" width="34.99999492000006" height="27.000035860000025" class="text">and </text>
<text x="484.9999874" y="1229.99997519" width="80.99999179999998" height="26.999933099999907" class="text">identity </text>
<text x="578.0000068" y="1229.99997519" width="25.99998199999993" height="26.999933099999907" class="text">of </text>
<text x="609.0000080799999" y="1229.99997519" width="33.99996928000007" height="26.999933099999907" class="text">the </text>
<text x="653.00000036" y="1230.99995844" width="44.99998679999999" height="27.99991634999992" class="text">item </text>
<text x="709.9999991999999" y="1230.99995844" width="14.999995600000148" height="26.999958789999937" class="text">in </text>
<text x="735.99999676" y="1230.99995844" width="34.99999491999995" height="26.999958789999937" class="text">the </text>
<text x="782.9999726" y="1233.00000201" width="124.00002067999992" height="29.000002359999826" class="text">registration </text>
<text x="918.9999586399999" y="1233.00000201" width="106.00001040000006" height="28.00001911000004" class="text">statement </text>
<text x="1032.99995632" y="1232.00001876" width="19.00008260000004" height="27.000035860000253" class="text">to </text>
<text x="1063.00002532" y="1233.00000201" width="63.99996048000003" height="27.000035860000025" class="text">which </text>
<text x="1138.99996672" y="1233.00000201" width="14.99999559999992" height="27.000035860000025" class="text">it </text>
<text x="1164.99996428" y="1233.00000201" width="89.00005687999987" height="27.000035860000025" class="text">pertains</text>
<text x="1255.00000012" y="1233.00000201" width="7.999987279999914" height="27.000035860000025" class="text">. </text>
<text x="1270.99997468" y="1233.99998526" width="16.000052359999927" height="26.999958789999937" class="text">If
</text>
<text x="185.99999212" y="1260.00003787" width="45.000017920000005" height="29.000079429999914" class="text">more </text>
<text x="244.99999556" y="1260.00003787" width="65.00000167999997" height="29.000079429999914" class="text">space </text>
<text x="314.99998539999996" y="1260.00003787" width="22.00000392000004" height="29.000079429999914" class="text">is </text>
<text x="346.00000224" y="1260.00003787" width="74.999978" height="29.000079429999914" class="text">needed</text>
<text x="425.99999951999996" y="1260.00003787" width="8.000018400000044" height="29.000079429999914" class="text">, </text>
<text x="440.99997956000004" y="1260.00003787" width="40.000014199999896" height="29.000079429999914" class="text">full </text>
<text x="488.99998104" y="1260.00003787" width="45.00001791999995" height="29.000079429999914" class="text">size </text>
<text x="545.00000092" y="1260.00003787" width="62.000002559999984" height="29.000079429999914" class="text">insert </text>
<text x="620.99997344" y="1260.00003787" width="69.00002644000006" height="29.000079429999914" class="text">sheets </text>
<text x="697.0000082" y="1260.00003787" width="42.000003239999955" height="29.000079429999914" class="text">may </text>
<text x="746.99999872" y="1260.00003787" width="22.00000392000004" height="29.000079429999914" class="text">be </text>
<text x="781.0000146799999" y="1260.00003787" width="48.99996488000011" height="29.000079429999914" class="text">used</text>
<text x="835.00004552" y="1260.00003787" width="7.999987280000028" height="29.000079429999914" class="text">.
</text>
<text x="178.99999936" y="1332.99999686" width="25.999997559999997" height="29.000079429999914" class="text">to </text>
<text x="224.00000171999997" y="1334.00003149" width="58.99998788000002" height="30.000114059999987" class="text">Item </text>
<text x="301.9999944" y="1334.00003149" width="28.000017720000017" height="29.000053740000112" class="text">15 </text>
<text x="346.99999676" y="1335.99999799" width="73.00000451999995" height="31.00002024000014" class="text">Short</text>
<text x="423.99999492" y="1334.99993767" width="7.999987279999971" height="28.999899599999935" class="text">-</text>
<text x="440.00001616000003" y="1334.99993767" width="58.999987879999935" height="28.999899599999935" class="text">Form </text>
<text x="513.00002068" y="1337.00005831" width="181.99998291999998" height="31.000020239999913" class="text">Registration </text>
<text x="713.99999284" y="1337.9999644900001" width="134.99997596000003" height="31.00002024000014" class="text">Statement </text>
<text x="865.0000211600001" y="1337.9999644900001" width="30.999970159999975" height="28.999925290000192" class="text">of </text>
<text x="910.0000079600001" y="1340.0000594399999" width="125.9999630399999" height="31.000020239999913" class="text">December </text>
<text x="1053.99998128" y="1339.00002481" width="27.000054320000118" height="29.00007943000014" class="text">17</text>
<text x="1085.00002924" y="1340.0000594399999" width="7.999987279999914" height="29.000053739999885" class="text">, </text>
<text x="1114.00004148" y="1340.0000594399999" width="55.99997320000011" height="29.000053739999885" class="text">1974</text>
<text x="1178.0000019600002" y="1340.0000594399999" width="7.999987279999914" height="29.000053739999885" class="text">:
</text>
<text x="543.9999752800001" y="1393.00007084" width="27.000023199999873" height="24.000086109999984" class="text">NO </text>
<text x="590.00001884" y="1393.00007084" width="136.99996499999997" height="24.000086109999984" class="text">DONATIONS
</text>
<text x="184.00000308" y="1785.0000557899998" width="38.99998856000002" height="31.000020239999913" class="text">The </text>
<text x="235.00000368" y="1785.0000557899998" width="130.99999788" height="31.000020239999913" class="text">undersigned </text>
<text x="377.99999804" y="1785.0000557899998" width="65.9999962" height="31.000020239999913" class="text">swear</text>
<text x="440.99997956000004" y="1785.0000557899998" width="9.00001291999996" height="31.000020239999913" class="text">(</text>
<text x="453.00000716000005" y="1785.0000557899998" width="8.999997359999952" height="31.000020239999913" class="text">s</text>
<text x="464.99998808" y="1785.0000557899998" width="8.999997360000066" height="31.000020239999913" class="text">) </text>
<text x="480.00001480000003" y="1785.0000557899998" width="22.000003919999983" height="31.000020239999913" class="text">or </text>
<text x="511.99999504" y="1785.0000557899998" width="60.00001351999998" height="31.000020239999913" class="text">affirm</text>
<text x="574.00001316" y="1785.0000557899998" width="8.999997359999952" height="31.000020239999913" class="text">(</text>
<text x="583.0000105199999" y="1785.0000557899998" width="9.000012920000131" height="31.000020239999913" class="text">s</text>
<text x="596.0000015200001" y="1785.0000557899998" width="9.000012919999904" height="31.000020239999913" class="text">) </text>
<text x="609.99998704" y="1785.0000557899998" width="47.000006960000064" height="31.000020239999913" class="text">that </text>
<text x="662.00001328" y="1785.0000557899998" width="27.999986600000057" height="31.000020239999913" class="text">he </text>
<text x="695.99998256" y="1785.0000557899998" width="39.00003523999999" height="31.000020239999913" class="text">has </text>
<text x="748.0000087999999" y="1785.0000557899998" width="9.000012920000131" height="31.000020239999913" class="text">(</text>
<text x="754.00000704" y="1785.0000557899998" width="45.999996880000026" height="31.000020239999913" class="text">they </text>
<text x="811.9999692800001" y="1785.0000557899998" width="47.0000225199999" height="31.000020239999913" class="text">have</text>
<text x="865.0000211600001" y="1785.0000557899998" width="8.999966239999935" height="31.000020239999913" class="text">) </text>
<text x="880.99999572" y="1785.0000557899998" width="43.000028879999945" height="31.000020239999913" class="text">read </text>
<text x="934.0000476" y="1785.0000557899998" width="34.99994823999998" height="31.000020239999913" class="text">the </text>
<text x="976.99998312" y="1785.0000557899998" width="121.00000599999998" height="31.000020239999913" class="text">information </text>
<text x="1112.00000576" y="1785.0000557899998" width="35.00004160000003" height="31.000020239999913" class="text">set </text>
<text x="1153.99996232" y="1785.0000557899998" width="48.000079280000136" height="31.000020239999913" class="text">forth </text>
<text x="1215.9999648799999" y="1785.0000557899998" width="17.00003132000029" height="31.000020239999913" class="text">in </text>
<text x="1243.99999816" y="1785.0000557899998" width="44.00000784000008" height="31.000020239999913" class="text">this
</text>
<text x="142.000004508" y="1816.0000760300002" width="121.99999585200001" height="29.00007943000014" class="text">amendment </text>
<text x="274.0000078" y="1816.0000760300002" width="33.00000588" height="29.00007943000014" class="text">and </text>
<text x="319.00001016" y="1816.0000760300002" width="45.999996880000026" height="29.00007943000014" class="text">that </text>
<text x="371.99998424" y="1816.0000760300002" width="26.00001311999995" height="29.00007943000014" class="text">he </text>
<text x="405.99998464000004" y="1816.0000760300002" width="20.000014879999924" height="29.00007943000014" class="text">is </text>
<text x="438.00001155999996" y="1816.0000760300002" width="7.999987280000084" height="29.00007943000014" class="text">(</text>
<text x="445.99999884000005" y="1816.0000760300002" width="43.99999227999996" height="29.00007943000014" class="text">they </text>
<text x="504.00000775999996" y="1816.0000760300002" width="29.99999120000001" height="29.00007943000014" class="text">are</text>
<text x="535.9999879999999" y="1816.0000760300002" width="7.999987280000141" height="29.00007943000014" class="text">) </text>
<text x="554.99997724" y="1816.0000760300002" width="86.00001108000004" height="29.00007943000014" class="text">familiar </text>
<text x="647.00001768" y="1816.0000760300002" width="41.99995655999999" height="29.00007943000014" class="text">with </text>
<text x="701.00000184" y="1816.0000760300002" width="32.99999032000005" height="29.00007943000014" class="text">the </text>
<text x="746.99999872" y="1816.0000760300002" width="90.99996811999995" height="29.00007943000014" class="text">contents </text>
<text x="848.9999688" y="1816.0000760300002" width="79.00004944" height="29.00007943000014" class="text">thereof </text>
<text x="935.00002656" y="1816.0000760300002" width="37.99996292000003" height="29.00007943000014" class="text">and </text>
<text x="979.0000188399999" y="1816.0000760300002" width="48.00000148000004" height="29.00007943000014" class="text">that </text>
<text x="1034.00002864" y="1816.0000760300002" width="47.99998591999997" height="29.00007943000014" class="text">such </text>
<text x="1094.99995888" y="1816.0000760300002" width="91.00003036000021" height="29.00007943000014" class="text">contents </text>
<text x="1200.0000058800001" y="1816.0000760300002" width="28.999996679999867" height="29.00007943000014" class="text">are </text>
<text x="1240.99998348" y="1816.0000760300002" width="17.000031319999835" height="29.00007943000014" class="text">in </text>
<text x="1269.99999572" y="1816.0000760300002" width="51.00000060000002" height="29.00007943000014" class="text">their
</text>
<text x="145.999996592" y="1846.9999421300001" width="79.99999416800003" height="28.999925290000192" class="text">entirety </text>
<text x="237.99998724" y="1846.9999421300001" width="42.00000324000001" height="28.999925290000192" class="text">true </text>
<text x="291.99998696" y="1846.9999421300001" width="34.00000040000003" height="28.999925290000192" class="text">and </text>
<text x="340.000004" y="1846.9999421300001" width="89.00001020000002" height="28.999925290000192" class="text">accurate </text>
<text x="440.99997956000004" y="1846.9999421300001" width="20.00001487999998" height="28.999925290000192" class="text">to </text>
<text x="469.9999918" y="1846.9999421300001" width="36.999999520000074" height="28.999925290000192" class="text">the </text>
<text x="511.99999504" y="1846.9999421300001" width="51.00001616000003" height="28.999925290000192" class="text">best </text>
<text x="570.9999984799999" y="1846.9999421300001" width="21.000024960000133" height="28.999925290000192" class="text">of </text>
<text x="599.99999516" y="1846.9999421300001" width="33.00000588" height="28.999925290000192" class="text">his </text>
<text x="644.000003" y="1846.9999421300001" width="7.999987280000028" height="28.999925290000192" class="text">(</text>
<text x="649.00000672" y="1846.9999421300001" width="53.00000520000003" height="28.999925290000192" class="text">their</text>
<text x="704.9999954799999" y="1846.9999421300001" width="8.000018400000044" height="28.999925290000192" class="text">) </text>
<text x="717.9999864800001" y="1846.9999421300001" width="119.00000139999986" height="28.999925290000192" class="text">knowledge </text>
<text x="843.0000328" y="1846.9999421300001" width="36.999983959999895" height="28.999925290000192" class="text">and </text>
<text x="894.0000334" y="1846.9999421300001" width="66.0000117599999" height="28.999925290000192" class="text">belief</text>
<text x="957.9999938799999" y="1846.9999421300001" width="7.999987280000141" height="28.999925290000192" class="text">.
</text>
<text x="862.0000064799999" y="1924.99994582" width="96.99996636000003" height="58.99988521" class="text">Rose </text>
<text x="969.9999748" y="1929.00000727" width="131.9999924000001" height="60.000073980000025" class="text">Marie
</text>
<text x="968.00001688" y="1982.00001867" width="154.0000118800001" height="151.99994592999974" class="text">marie </text>
<text x="1119.99997748" y="1996.00001538" width="230.00003107999987" height="157.00006769999982" class="text">Frigel
</text>
<text x="168.99999191999999" y="1937.00000172" width="5.999998240000025" height="23.00005148000014" class="text">(</text>
<text x="178.00000484" y="1937.00000172" width="42.00000324000001" height="23.00005148000014" class="text">Both </text>
<text x="232.00000456" y="1937.00000172" width="64.00000716000002" height="23.00005148000014" class="text">copies </text>
<text x="304.99999352" y="1937.00000172" width="22.00000392000004" height="23.00005148000014" class="text">of </text>
<text x="331.00000664" y="1937.00000172" width="38.99998856000002" height="23.00005148000014" class="text">this </text>
<text x="377.99999804" y="1937.00000172" width="110.99998300000004" height="23.00005148000014" class="text">amendment </text>
<text x="495.99998936000003" y="1937.00000172" width="49.00001156000002" height="23.00005148000014" class="text">shall </text>
<text x="552.9999882" y="1937.00000172" width="25.00001860000009" height="23.00005148000014" class="text">be </text>
<text x="585.99997852" y="1937.00000172" width="64.00000716" height="23.00005148000014" class="text">signed </text>
<text x="658.9999985999999" y="1937.00000172" width="36.99998396000012" height="23.00005148000014" class="text">and </text>
<text x="702.9999908799999" y="1937.00000172" width="55.00000980000016" height="23.00005148000014" class="text">sworn
</text>
<text x="144.99999896" y="1961.99999401" width="17.000000199999988" height="23.00005147999991" class="text">to </text>
<text x="167.9999974" y="1961.99999401" width="63.000012639999994" height="23.00005147999991" class="text">before </text>
<text x="244.99999556" y="1961.99999401" width="6.000013800000005" height="23.00005147999991" class="text">a </text>
<text x="258.99999664" y="1961.99999401" width="62.000002559999984" height="23.00005147999991" class="text">notary </text>
<text x="330.00001212" y="1961.99999401" width="62.00000256000004" height="23.00005147999991" class="text">public </text>
<text x="401.999991" y="1961.99999401" width="20.00001487999998" height="23.00005147999991" class="text">or </text>
<text x="429.99997759999997" y="1961.99999401" width="50.000037200000065" height="23.00005147999991" class="text">other </text>
<text x="486.99997643999995" y="1961.99999401" width="64.00000716000011" height="23.00005147999991" class="text">person </text>
<text x="561.99998556" y="1961.99999401" width="102.9999957199999" height="23.00005147999991" class="text">authorized </text>
<text x="673.99997864" y="1961.99999401" width="17.000046880000014" height="23.00005147999991" class="text">to </text>
<text x="704.0000165199999" y="1961.99999401" width="16.999984640000093" height="23.00005147999991" class="text">ad-
</text>
<text x="149.00000193600002" y="1988.0000466200001" width="80.000003504" height="24.00011180000024" class="text">minister </text>
<text x="235.00000368" y="1988.0000466200001" width="54.99999424000001" height="24.00011180000024" class="text">oaths </text>
<text x="293.99999156" y="1988.0000466200001" width="27.00000763999998" height="24.00011180000024" class="text">by </text>
<text x="329.00000204" y="1988.0000466200001" width="30.999985719999984" height="24.00011180000024" class="text">the </text>
<text x="367.9999906" y="1988.0000466200001" width="52.000010679999946" height="24.00011180000024" class="text">agent</text>
<text x="422.00000588" y="1988.0000466200001" width="7.000008320000006" height="24.00011180000024" class="text">, </text>
<text x="436.99998592" y="1988.0000466200001" width="13.000006560000031" height="24.00011180000024" class="text">if </text>
<text x="460.99999444" y="1988.0000466200001" width="27.00000763999998" height="24.00011180000024" class="text">the </text>
<text x="497.9999784" y="1988.0000466200001" width="97.00001304000006" height="24.00011180000024" class="text">registrant </text>
<text x="603.9999888" y="1988.0000466200001" width="18.00001027999997" height="24.00011180000024" class="text">is </text>
<text x="631.9999754" y="1988.0000466200001" width="18.00001027999997" height="24.00011180000024" class="text">an </text>
<text x="664.9999812799999" y="1988.0000466200001" width="98.00002312000015" height="24.00011180000024" class="text">individual</text>
<text x="761.99999432" y="1988.0000466200001" width="7.000008320000006" height="24.00011180000024" class="text">,
</text>
<text x="146.999994224" y="2011.99997859" width="18.000004055999995" height="23.00002578999988" class="text">or </text>
<text x="170.99999652" y="2011.99997859" width="25.000018600000033" height="23.00002578999988" class="text">by </text>
<text x="206.000007" y="2011.99997859" width="5.9999982399999965" height="23.00002578999988" class="text">a </text>
<text x="225.99999076000003" y="2011.99997859" width="76.99999815999999" height="23.00002578999988" class="text">majority </text>
<text x="314.99998539999996" y="2011.99997859" width="18.000010280000026" height="23.00002578999988" class="text">of </text>
<text x="340.000004" y="2011.99997859" width="52.00001068000006" height="23.00002578999988" class="text">those </text>
<text x="400.00000196" y="2011.99997859" width="82.00001743999997" height="23.00002578999988" class="text">partners</text>
<text x="484.00000844" y="2011.99997859" width="5.999982680000016" height="23.00002578999988" class="text">, </text>
<text x="497.9999784" y="2011.99997859" width="78.00002379999995" height="23.00002578999988" class="text">officers</text>
<text x="578.0000068" y="2011.99997859" width="5.999982680000016" height="23.00002578999988" class="text">, </text>
<text x="592.0000234400001" y="2011.99997859" width="89.99998915999993" height="23.00002578999988" class="text">directors </text>
<text x="691.99998892" y="2011.99997859" width="18.00001027999997" height="23.00002578999988" class="text">or
</text>
<text x="142.000004508" y="2038.0000312000002" width="81.99999721199998" height="24.00008611000021" class="text">persons </text>
<text x="229.00000544000002" y="2038.0000312000002" width="103.99999023999996" height="24.00008611000021" class="text">performing </text>
<text x="346.00000224" y="2038.0000312000002" width="68.99999531999998" height="24.00008611000021" class="text">similar </text>
<text x="420.99998024" y="2038.0000312000002" width="90.00000471999999" height="24.00008611000021" class="text">functions </text>
<text x="519.00000336" y="2038.0000312000002" width="40.99999315999992" height="24.00008611000021" class="text">who </text>
<text x="568.99999388" y="2038.0000312000002" width="27.999986599999943" height="24.00008611000021" class="text">are </text>
<text x="607.9999824399999" y="2038.0000312000002" width="14.000016640000013" height="24.00008611000021" class="text">in </text>
<text x="634.99999008" y="2038.0000312000002" width="31.000016840000058" height="24.00008611000021" class="text">the </text>
<text x="673.00001524" y="2038.0000312000002" width="62.999981520000006" height="24.00008611000021" class="text">United
</text>
<text x="146.999994224" y="2063.99992967" width="59.000012776000005" height="22.999871649999932" class="text">States</text>
<text x="208.0000116" y="2063.99992967" width="5.999982680000016" height="22.999871649999932" class="text">, </text>
<text x="224.00000171999997" y="2063.99992967" width="12.999991000000051" height="22.999871649999932" class="text">if </text>
<text x="245.99999007999998" y="2063.99992967" width="29.000012240000046" height="22.999871649999932" class="text">the </text>
<text x="285.00000976" y="2063.99992967" width="97.99997644000001" height="22.999871649999932" class="text">registrant </text>
<text x="390.99998904000006" y="2063.99992967" width="17.000000199999988" height="22.999871649999932" class="text">is </text>
<text x="418.00001224" y="2063.99992967" width="19.999999319999972" height="22.999871649999932" class="text">an </text>
<text x="447.00002448000004" y="2063.99992967" width="121.9999694" height="22.999871649999932" class="text">organization</text>
<text x="574.00001316" y="2063.99992967" width="5.999982680000016" height="22.999871649999932" class="text">.</text>
<text x="583.0000105199999" y="2063.99992967" width="5.999982680000016" height="22.999871649999932" class="text">)
</text>
<text x="579.00001688" y="2169.0000462900002" width="88.00000011999998" height="99.00008867000042" class="text">New </text>
<text x="666.00000692" y="2186.99995031" width="95.00000843999999" height="99.99996915999964" class="text">York
</text>
<text x="149.00000193600002" y="2147.00005513" width="117.99999754399997" height="24.000086109999756" class="text">Subscribed </text>
<text x="278.99999596000004" y="2145.99999481" width="34.000000399999976" height="21.999965470000006" class="text">and </text>
<text x="323.99999832" y="2147.00005513" width="60.00001352000004" height="23.00002579000011" class="text">sworn </text>
<text x="394.99998268" y="2147.00005513" width="20.00001487999998" height="21.999991160000263" class="text">to </text>
<text x="427.0000096" y="2147.00005513" width="64.00000716" height="21.999991160000263" class="text">before </text>
<text x="508.99998036" y="2147.99996131" width="23.999992959999986" height="21.99999115999981" class="text">me </text>
<text x="545.00000092" y="2147.99996131" width="19.999999319999915" height="21.99999115999981" class="text">at
</text>
<text x="759.99998972" y="2186.99995031" width="95.99998740000001" height="87.99993894999989" class="text">ny
</text>
<text x="938.00004124" y="2211.00006211" width="94.99991507999994" height="82.00006514000006" class="text">John </text>
<text x="1072.99997052" y="2214.00006324" width="141.00005199999987" height="83.00012546000016" class="text">Lisbl
</text>
<text x="145.999996592" y="2219.99993705" width="39.999995528" height="20.999930839999706" class="text">this
</text>
<text x="208.0000116" y="2216.99993592" width="45.999996880000026" height="35.99998787000004" class="text">21
</text>
<text x="265.00001044" y="2227.00002532" width="37.99997848000004" height="29.999959920000038" class="text">day </text>
<text x="314.99998539999996" y="2225.00005882" width="21.000009400000067" height="31.00002024000014" class="text">of
</text>
<text x="384.00001184" y="2269.0000411399997" width="223.99997059999993" height="110.9999904299998" class="text">Janary </text>
<text x="660.00000868" y="2258.0000455599998" width="86.99999004000006" height="105.00011661999952" class="text">175
</text>
<text x="924.0000246" y="2277.0000099" width="95.99998740000001" height="154.0000408799997" class="text">John
</text>
<text x="949.0000432" y="2244.99992934" width="5.999935999999934" height="22.999871650000387" class="text">(</text>
<text x="957.0000149199999" y="2244.99992934" width="66.00001176000023" height="22.999871650000387" class="text">Notary </text>
<text x="1034.99999204" y="2244.99992934" width="18.00001027999997" height="23.999931970000034" class="text">or </text>
<text x="1060.9999896000002" y="2244.00002316" width="48.99996487999988" height="23.00002579000011" class="text">other </text>
<text x="1119.99997748" y="2244.00002316" width="64.00005383999996" height="23.00002579000011" class="text">officer</text>
<text x="1185.99998924" y="2244.00002316" width="6.000029359999871" height="23.00002579000011" class="text">)
</text>
<text x="144.000001328" y="2300.0000613800003" width="34.000003512000006" height="26.00005261000024" class="text">My </text>
<text x="184.9999976" y="2302.00000219" width="124.00000512" height="27.99999342000001" class="text">commission </text>
<text x="323.0000038" y="2303.00006251" width="78.99998720000002" height="27.000112929999887" class="text">expires
</text>
<text x="642.99997736" y="2250.9999572899997" width="53.00000520000003" height="21.99999115999981" class="text">JOHN </text>
<text x="710.99997816" y="2250.0000511099997" width="48.000032600000054" height="21.99996546999955" class="text">LIEBL
</text>
<text x="541.00000728" y="2275.9999495800002" width="66.99997515999996" height="23.99993197000049" class="text">Notary </text>
<text x="618.00000544" y="2274.00000877" width="53.00000520000003" height="23.000051480000366" class="text">Public</text>
<text x="671.00001064" y="2272.00004227" width="7.000008320000006" height="21.000084980000338" class="text">, </text>
<text x="686.9999852" y="2272.00004227" width="45.000017920000005" height="21.999991160000263" class="text">State </text>
<text x="741.99997944" y="2269.99994732" width="19.000035920000073" height="20.99993084000016" class="text">of </text>
<text x="766.99999804" y="2269.99994732" width="36.00002055999994" height="22.99989734000019" class="text">New </text>
<text x="818.0000142" y="2269.0000411399997" width="39.00003523999999" height="23.000051479999456" class="text">York
</text>
<text x="517.00001432" y="2294.99993961" width="36.99998396000001" height="20.99993084000016" class="text">No. </text>
<text x="556.00000288" y="2294.00003343" width="104.99998475999996" height="21.99999115999981" class="text">31-2358850 </text>
<text x="671.00001064" y="2292.0000669300002" width="45.999996880000026" height="22.000119610000183" class="text">Qual</text>
<text x="715.99999744" y="2291.00000661" width="5.999982680000016" height="20.000024660000236" class="text">, </text>
<text x="730.99997748" y="2289.99997198" width="11.000001959999963" height="20.00002465999978" class="text">in </text>
<text x="754.999986" y="2289.99997198" width="34.00001596000004" height="21.99999115999981" class="text">New </text>
<text x="807.0000122399999" y="2289.0000658" width="37.99996292000003" height="21.99999115999981" class="text">York </text>
<text x="854.99999816" y="2288.00000548" width="36.00002056000005" height="21.99999115999981" class="text">Co.</text>
<text x="888.9999829999999" y="2286.99994516" width="6.000029360000099" height="19.99987052000006" class="text">"
</text>
<text x="533.99999896" y="2317.9999654" width="104.99998476000007" height="23.000025789999654" class="text">Commission </text>
<text x="651.00001132" y="2316.00002459" width="65.99999620000006" height="23.00005147999991" class="text">Expires </text>
<text x="726.99998384" y="2314.00005809" width="54.00003083999991" height="23.00005147999991" class="text">March </text>
<text x="791.00003768" y="2311.9999374500003" width="22.00000392000004" height="20.99993084000016" class="text">30</text>
<text x="814.00002056" y="2311.9999374500003" width="5.999935999999934" height="20.99993084000016" class="text">, </text>
<text x="830.9999585200001" y="2311.9999374500003" width="42.000049919999924" height="22.999871650000387" class="text">1975
</text>
</g>
</svg>
