<svg xmlns="http://www.w3.org/2000/svg">
<style>.text { font-size: 14px; font-family: Arial, sans-serif; }</style>
<g id="page-0" transform="translate(0, 0)">
<rect width="1558" height="2565" fill="none" stroke="black" />
<text x="1071.99995722" y="129.000003435" width="130.0000029800001" height="24.000002190000004" class="text">Budgeureau </text>
<text x="1210.00000976" y="124.000002765" width="37.0000071999998" height="20.000000115000006" class="text">No. </text>
<text x="1251.00004174" y="121.99999788000001" width="20.99998598000002" height="20.000000115000006" class="text">43</text>
<text x="1272.99999886" y="120.999999285" width="6.000029379999887" height="17.99999523000001" class="text">-</text>
<text x="1277.0000236399999" y="120.999999285" width="60.99996892000013" height="20.99999871" class="text">R226.5
</text>
<text x="1071.00000166" y="149.00000355" width="83.00001952000002" height="24.000002190000004" class="text">Approval </text>
<text x="1159.99997266" y="146.00000007" width="66.00004274000003" height="22.999995900000002" class="text">Expires </text>
<text x="1235.99999166" y="142.99999659" width="39.99996736000003" height="20.999998709999986" class="text">Oct. </text>
<text x="1281.00004842" y="141.999997995" width="18.99998138000001" height="21.999997304999994" class="text">31</text>
<text x="1302.0000344" y="140.9999994" width="7.000000519999958" height="20.000000115000006" class="text">, </text>
<text x="1317.99996214" y="140.9999994" width="43.999992139999904" height="21.999997305000008" class="text">1976
</text>
<text x="157.00000276" y="156.99999744000002" width="49.99999036" height="21.999997305000022" class="text">Form </text>
<text x="213.99999364" y="155.00000025" width="34.00001588000001" height="20.99999614500001" class="text">DJ</text>
<text x="244.00000032" y="154.00000422" width="7.000000520000015" height="20.000000115000006" class="text">-</text>
<text x="252.99998986000003" y="154.00000422" width="35.000018179999984" height="22.000007565000004" class="text">307
</text>
<text x="128.00000305400002" y="210.00000248999999" width="143.00001262599997" height="64.00000241999999" class="text">RECEIVED
</text>
<text x="73.000001194" y="250.00000272" width="152.000002166" height="61.999997535000006" class="text">DEPARTENT 
</text>
<text x="220.99999416" y="211.999997115" width="34.00000030000001" height="30.99998722500004" class="text">OF 
</text>
<text x="256.00001234" y="203.99999296500002" width="91.99997789999998" height="46.999995525" class="text">JUSTICE
</text>
<text x="493.99999886" y="205.00000182000002" width="93.99998249999999" height="30.000001455000017" class="text">UNITED </text>
<text x="595.9999997599999" y="203.00000463" width="95.00000038000007" height="29.99999889" class="text">STATES </text>
<text x="698.00000066" y="200.00000115" width="173.00002398000004" height="31.99999607999999" class="text">DEPARTMENT </text>
<text x="880.00004534" y="195.00000047999998" width="30.000006679999842" height="28.000004265" class="text">OF </text>
<text x="924.0000374800001" y="195.00000047999998" width="98.99994725999989" height="29.999998889999972" class="text">JUSTICE
</text>
<text x="605.00000488" y="231.00000889499998" width="154.00001143999998" height="28.000004264999973" class="text">WASHINGTON</text>
<text x="763.99999666" y="226.00000822500002" width="7.0000005200000714" height="22.000015259999998" class="text">, </text>
<text x="781.0000201800001" y="226.00000822500002" width="55.000017439999965" height="24.99999822000001" class="text">D.C. </text>
<text x="843.9999936999999" y="223.99999308" width="58.99996432000012" height="24.99999822000001" class="text">20530
</text>
<text x="488.00000064" y="293.0000013" width="153.00000913999992" height="31.000000049999983" class="text">AMENDMENT </text>
<text x="651.99997276" y="287.9999955" width="29.00000437999995" height="27.000010799999984" class="text">TO </text>
<text x="692.00000244" y="287.0000046" width="181.00004238000008" height="30.999994920000006" class="text">REGISTRATION </text>
<text x="885.99998124" y="281.9999988" width="150.99998896" height="30.99998979" class="text">STATEMENT
</text>
<text x="76.99999792999999" y="313.99998975" width="56.99999711200003" height="53.00000504999997" class="text">MAR </text>
<text x="139.00000498400001" y="298.0000071" width="30.99999651599998" height="46.00000975500001" class="text">22 </text>
<text x="195.99999898" y="284.00000624999996" width="79.99999704000004" height="60.00001316999996" class="text">153 </text>
<text x="269.9999978" y="264.9999996" width="95.00001595999998" height="63.99998959500002" class="text">PH'76
</text>
<text x="119.000004166" y="357.99999975000003" width="177.99999341399996" height="73.00000260000002" class="text">REGISTRATION </text>
<text x="300.00000448000003" y="312.00000795" width="62.99998909999999" height="43.00001910000003" class="text">UNIT
</text>
<text x="130.000004538" y="380.00000475" width="119.00000728199998" height="53.00000504999997" class="text">CRIMINAL 
</text>
<text x="254.99999446" y="349.00000470000003" width="103.99998991999999" height="48.99999015000003" class="text">DIVISION
</text>
<text x="585.0000212" y="349.99999560000003" width="98.99997841999993" height="31.00000005000004" class="text">Pursuant </text>
<text x="691.00000014" y="346.99999725000004" width="19.999983680000014" height="28.00000170000004" class="text">to </text>
<text x="721.00000682" y="346.99999725000004" width="33.99998472000004" height="30.00000915000004" class="text">the </text>
<text x="762.99999436" y="346.00000635000004" width="87.00004430000013" height="31.00000005000004" class="text">Foreign </text>
<text x="857.9999947399999" y="343.99999890000004" width="78.00003918000004" height="31.00000005000004" class="text">Agents
</text>
<text x="544.9999915200001" y="383.999994" width="138.00000579999994" height="34.99998929999998" class="text">Registration </text>
<text x="691.00000014" y="379.00001384999996" width="41.99998754000001" height="30.000009149999926" class="text">Act </text>
<text x="740.9999905" y="377.0000064" width="21.000001559999987" height="30.000009149999983" class="text">of </text>
<text x="769.99999488" y="376.00001549999996" width="48.99998805999985" height="31.00002569999998" class="text">1938</text>
<text x="820.0000319800001" y="373.99998239999996" width="9.000005119999969" height="28.999992599999985" class="text">, </text>
<text x="837.99996432" y="373.99998239999996" width="28.000079980000123" height="30.999974399999985" class="text">as </text>
<text x="871.00002464" y="373.00001714999996" width="91.99994673999993" height="33.00000749999998" class="text">amended</text>
<text x="968.0000452" y="369.00000225" width="8.99991164000005" height="28.99999260000004" class="text">.
</text>
<text x="788.00000512" y="467.00000819999997" width="25.00002634000009" height="29.000018249999926" class="text">2. </text>
<text x="825.00001232" y="466.0000173" width="136.00003235999998" height="32.00001660000004" class="text">Registration </text>
<text x="969.9999719" y="462.00002804999997" width="43.99999214000013" height="29.000018249999982" class="text">No.
</text>
<text x="1135.0000398" y="467.00000819999997" width="42.99995867999996" height="31.000000049999983" class="text">568
</text>
<text x="178.00000432" y="479.9999925" width="17.99999466" height="25.000003349999986" class="text">1. </text>
<text x="212.99999134" y="479.9999925" width="57.00000646000001" height="26.999985150000043" class="text">Name </text>
<text x="282.00000982" y="479.00002725" width="22.999990579999974" height="26.00001990000004" class="text">of </text>
<text x="309.99999632" y="479.00002725" width="116.99998866000004" height="27.000010799999984" class="text">Registrant
</text>
<text x="173.99999512" y="504.00000494999995" width="100.00001188000005" height="26.000019899999927" class="text">ITALIAN </text>
<text x="307.99999171999997" y="502.00002315" width="156.00000046000002" height="29.00001825000004" class="text">GOVERNMENT </text>
<text x="479.99999782000003" y="496.9999917" width="87.99999986000006" height="25.999994250000043" class="text">TRAVEL
</text>
<text x="600.00002454" y="492.00001155" width="91.99997789999998" height="25.999994249999986" class="text">OFFICE
</text>
<text x="173.99999512" y="550.99998765" width="41.000000820000025" height="29.000018249999926" class="text">630 </text>
<text x="249.00001182" y="550.99998765" width="73.99998324" height="30.999974400000042" class="text">Fifth </text>
<text x="343.0000099" y="549.99999675" width="61.99997122000002" height="30.999974400000042" class="text">Ave.
</text>
<text x="431.00000976" y="544.99999095" width="42.99998984000001" height="25.99996859999999" class="text">New </text>
<text x="493.99999886" y="543.00000915" width="58.99999548000005" height="28.000027349999982" class="text">York </text>
<text x="567.9999976800001" y="541.0000017" width="66.00001157999986" height="28.000001699999984" class="text">N.Y. </text>
<text x="650.0000149" y="537.9999776999999" width="72.99999651999997" height="26.99998514999993" class="text">10020
</text>
<text x="181.00001122" y="633.00001095" width="22.999990580000002" height="32.000016600000095" class="text">3. </text>
<text x="218.00000284" y="631.9999944" width="51.99999496000001" height="31.999990949999983" class="text">This </text>
<text x="274.00000700000004" y="631.0000035" width="124.99999147999995" height="33.999998400000095" class="text">amendment </text>
<text x="407.0000013" y="626.9999886" width="18.000010239999995" height="29.9999835000001" class="text">is </text>
<text x="437.00000798" y="626.9999886" width="48.99998806000002" height="31.999990950000097" class="text">filed </text>
<text x="497.00000576" y="624.99998115" width="17.999979080000003" height="29.9999835000001" class="text">to </text>
<text x="526.00001014" y="624.99998115" width="125.99996262000002" height="33.99999839999998" class="text">accomplish </text>
<text x="658.99997328" y="621.9999828" width="35.00004934000003" height="31.999990949999983" class="text">the </text>
<text x="700.00000526" y="620.9999918999999" width="104.99997664" height="33.000007499999924" class="text">following </text>
<text x="815.0000516399999" y="617.99999355" width="99.99998072000005" height="33.00000750000004" class="text">indicated </text>
<text x="922.00003288" y="614.9999952" width="82.99992603999999" height="33.000007499999924" class="text">purpose </text>
<text x="1015.00001308" y="613.0000134000001" width="23.000006159999998" height="32.000016600000095" class="text">or </text>
<text x="1045.00001976" y="611.9999712" width="98.99994726" height="31.999965299999985" class="text">purposes</text>
<text x="1140.9999912800001" y="610.00001505" width="9.999960679999731" height="30.000009149999983" class="text">:
</text>
<text x="273.00000470000003" y="721.00003095" width="9.000005119999969" height="27.000036449999925" class="text">☐ </text>
<text x="324.99999965999996" y="718.9999722" width="25.00001076000001" height="27.999976049999987" class="text">To </text>
<text x="363.99999588" y="718.9999722" width="74.00001440000005" height="29.999957849999987" class="text">correct </text>
<text x="447.99997096000004" y="715.9999738500001" width="9.000020699999993" height="26.999959500000045" class="text">a </text>
<text x="468.00001696" y="715.9999738500001" width="118.00000654000002" height="31.00000005000004" class="text">deficiency </text>
<text x="593.0000240200001" y="712.00001025" width="20.999985979999906" height="27.999976049999987" class="text">in
</text>
<text x="795.9999767799999" y="704.999997" width="9.000005120000083" height="26.999959500000045" class="text">☐ </text>
<text x="846.9999694400001" y="703.0000152" width="30.000006679999956" height="28.000001699999984" class="text">To </text>
<text x="887.0000458600001" y="701.999973" width="45.99991883999985" height="27.999976049999987" class="text">give </text>
<text x="943.99999" y="700.00001685" width="9.000005119999969" height="27.000036449999925" class="text">a </text>
<text x="964.9999759799999" y="700.00001685" width="20.000030420000144" height="29.00001825000004" class="text">10</text>
<text x="987.0000265799999" y="698.99997465" width="9.000005119999969" height="26.999959500000045" class="text">-</text>
<text x="996.0000316999999" y="698.99997465" width="38.99993390000009" height="29.00001825000004" class="text">day </text>
<text x="1041.9999661200002" y="698.0000350500001" width="68.00006291999989" height="30.000034800000094" class="text">notice </text>
<text x="1121.00003876" y="695.0000367" width="25.999981899999966" height="28.00007865000009" class="text">of </text>
<text x="1152.00001658" y="693.9999945000001" width="9.000005119999969" height="27.000036450000152" class="text">a </text>
<text x="1172.000047" y="693.9999945000001" width="74.99996995999982" height="29.999957849999987" class="text">change </text>
<text x="1259.99995338" y="690.99999615" width="16.000005639999927" height="26.99995949999993" class="text">in </text>
<text x="1289.9999600600001" y="689.9999796" width="52.000057279999965" height="28.999941299999932" class="text">infor-
</text>
<text x="848.00001848" y="732.00003345" width="69.99998961999995" height="29.00001825000004" class="text">mation </text>
<text x="929.99998896" y="729.00000945" width="25.000026339999977" height="27.00003645000004" class="text">as </text>
<text x="962.0000002400001" y="727.9999929" width="86.99995081999998" height="29.00001825000004" class="text">required </text>
<text x="1059.9999763600001" y="724.99999455" width="25.00002633999975" height="26.99995949999993" class="text">by </text>
<text x="1096.0000280000002" y="724.0000292999999" width="79.99995029999991" height="28.00005299999998" class="text">Section </text>
<text x="1189.0000082" y="721.00003095" width="7.999971660000028" height="25.999994249999986" class="text">2</text>
<text x="1198.99998446" y="721.00003095" width="8.00004955999998" height="25.999994249999986" class="text">(</text>
<text x="1207.00003402" y="721.00003095" width="7.9999560800001746" height="25.999994249999986" class="text">b</text>
<text x="1223.00003966" y="720.0000144" width="7.999971659999801" height="26.000019899999984" class="text">) </text>
<text x="1235.99999166" y="720.0000144" width="25.000010760000123" height="28.000001699999984" class="text">of </text>
<text x="1265.99999834" y="718.9999722" width="34.000031459999946" height="27.999976049999987" class="text">the </text>
<text x="1310.99996162" y="718.0000325999999" width="36.999991619999946" height="28.00005299999998" class="text">Act</text>
<text x="1349.99997342" y="715.9999738500001" width="8.00004955999998" height="25.9999942500001" class="text">.
</text>
<text x="378.99999922" y="770.99998635" width="73.00001209999999" height="22.99999589999993" class="text">Initial </text>
<text x="457.99999396000004" y="769.00000455" width="111.00000601999994" height="24.99997769999993" class="text">Statement
</text>
<text x="841.00001796" y="821.0000443499999" width="65.00000927999997" height="31.00007699999992" class="text">Other </text>
<text x="911.00000758" y="820.0000021500001" width="85.00002411999992" height="32.000016600000095" class="text">purpose </text>
<text x="1004.99995892" y="818.00002035" width="9.000005120000083" height="28.999992599999928" class="text">(</text>
<text x="1011.9999594400001" y="818.00002035" width="79.00007263999987" height="31.000051350000035" class="text">specify</text>
<text x="1098.0000326" y="815.99998725" width="8.999927220000018" height="29.00001825000004" class="text">)
</text>
<text x="348.99999254" y="838.9999831499999" width="9.999991840000007" height="29.999957849999987" class="text">☑ </text>
<text x="382.00000612" y="838.0000179" width="148.99998436000004" height="36.99999674999992" class="text">Supplemental </text>
<text x="537.999991" y="832.0000212" width="110.00000372" height="35.000014950000036" class="text">Statement
</text>
<text x="380.00000152" y="864.9999774" width="33.999984719999986" height="29.999957849999987" class="text">for </text>
<text x="425.99998268" y="864.0000378000001" width="89.00000216000001" height="32.000016600000095" class="text">period </text>
<text x="536.9999887" y="859.9999972500001" width="56.99999087999993" height="30.999974400000042" class="text">July </text>
<text x="611.0000031" y="858.0000411000001" width="43.99999214000002" height="29.00001825000004" class="text">1st </text>
<text x="675.9999968" y="855.99998235" width="26.999984200000085" height="29.999957849999987" class="text">75
</text>
<text x="547.0000117000001" y="889.0000155" width="48.99998805999985" height="27.999976049999987" class="text">Dec. </text>
<text x="615.0000278800001" y="886.99995675" width="55.999972999999954" height="27.999976049999987" class="text">31st </text>
<text x="691.00000014" y="884.99997495" width="25.00001076000001" height="27.999976049999987" class="text">75
</text>
<text x="332.00000018" y="926.00001225" width="24.99999518000004" height="27.999976049999987" class="text">To </text>
<text x="365.9999849" y="924.9999957" width="48.00000133999998" height="28.000001699999984" class="text">give </text>
<text x="423.00000694" y="924.0000304499999" width="68.99997174000003" height="28.999992599999928" class="text">notice </text>
<text x="500.99998380000005" y="921.0000321" width="25.00002633999992" height="27.000036449999925" class="text">of </text>
<text x="533.00001066" y="921.0000321" width="74.00001439999994" height="29.000018249999926" class="text">change </text>
<text x="615.9999834399999" y="918.00003375" width="20.00003042000003" height="27.000036449999925" class="text">in </text>
<text x="646.99999242" y="916.9999915499999" width="25.000026339999977" height="27.000010799999927" class="text">an
</text>
<text x="329.00000886" y="957.0000123000001" width="76.99997456000006" height="31.00000005000004" class="text">exhibit </text>
<text x="417.00000872" y="955.0000305" width="112.99997946000008" height="32.00001659999998" class="text">previously </text>
<text x="541.00001348" y="950.9999899500001" width="47.99998575999996" height="29.9999578500001" class="text">filed</text>
<text x="593.99997958" y="949.00000815" width="9.000005119999969" height="27.999976049999987" class="text">.
</text>
<text x="191.00000306" y="1051.00000335" width="25.00001075999998" height="29.00001825000004" class="text">4. </text>
<text x="231.00001716" y="1049.99996115" width="15.99997448000002" height="27.999976049999987" class="text">If </text>
<text x="253.99999216" y="1049.00002155" width="42.00001870000003" height="27.999976049999987" class="text">this </text>
<text x="306.0000027" y="1048.000005" width="124.00000476000002" height="32.000016600000095" class="text">amendment </text>
<text x="434.99998780000004" y="1043.99996445" width="87.99999985999995" height="31.00000005000004" class="text">requires </text>
<text x="528.99998588" y="1041.00004305" width="35.99998931999994" height="29.000018249999926" class="text">the </text>
<text x="573.9999959" y="1040.0000008499999" width="58.99999547999994" height="30.000034799999867" class="text">filing </text>
<text x="636.00001386" y="1038.00001905" width="26.99998419999997" height="28.99999260000004" class="text">of </text>
<text x="669.99999858" y="1037.0000025" width="9.000020699999936" height="27.000036449999925" class="text">a </text>
<text x="687.99997766" y="1035.9999859499999" width="107.00002798000003" height="29.99998349999987" class="text">document </text>
<text x="797.9999813799999" y="1032.99996195" width="25.99998190000008" height="28.999915649999934" class="text">or </text>
<text x="827.99998806" y="1032.00002235" width="116.00000194000006" height="31.00000005000004" class="text">documents</text>
<text x="945.9999946" y="1027.9999818000001" width="9.000020699999936" height="26.999959500000045" class="text">, </text>
<text x="964.0000204199999" y="1027.9999818000001" width="69.00001848" height="29.9999578500001" class="text">please </text>
<text x="1041.9999661200002" y="1026.00002565" width="43.999992139999904" height="29.00001825000004" class="text">list-
</text>
<text x="198.00000358" y="1221.9999862500001" width="21.000001560000015" height="31.000000050000153" class="text">5. </text>
<text x="231.9999883" y="1221.00004665" width="53.999999559999964" height="32.00001659999998" class="text">Each </text>
<text x="300.9999912" y="1218.9999879" width="46.000012319999996" height="31.000000049999926" class="text">item </text>
<text x="351.99999944" y="1218.00002265" width="90.99999118" height="33.00003314999981" class="text">checked </text>
<text x="455.99998936000003" y="1215.0000243" width="64.00003813999996" height="32.00001659999998" class="text">above </text>
<text x="528.99998588" y="1212.00002595" width="50.99999265999986" height="30.000034799999867" class="text">must </text>
<text x="584.00000332" y="1209.9999672000001" width="29.00000437999995" height="29.9999578500001" class="text">be </text>
<text x="619.0000059199999" y="1209.9999672000001" width="109.0000014200001" height="32.99995620000027" class="text">explained </text>
<text x="734.99999228" y="1206.00002925" width="62.99998909999988" height="31.000000049999926" class="text">below </text>
<text x="811.00001128" y="1203.9999705" width="16.999976779999997" height="28.999941300000046" class="text">in </text>
<text x="839.99996892" y="1203.00000525" width="39.00001180000004" height="30.000034800000094" class="text">full </text>
<text x="887.0000458600001" y="1201.9999887" width="65.99994925999988" height="32.00001659999998" class="text">detail </text>
<text x="961.00004468" y="1200.0000069" width="90.99997559999997" height="33.000033150000036" class="text">together </text>
<text x="1057.0000162000001" y="1197.00000855" width="48.00001692000001" height="30.000034800000094" class="text">with</text>
<text x="1105.9999886800001" y="1195.00002675" width="9.000020699999823" height="29.00001825000004" class="text">, </text>
<text x="1121.00003876" y="1195.00002675" width="63.99994465999998" height="32.00001659999998" class="text">where </text>
<text x="1198.0000289" y="1192.999968" width="118.99996209999995" height="32.99995620000004" class="text">appropriate</text>
<text x="1321.00001578" y="1189.00003005" width="9.000020699999823" height="29.00001825000004" class="text">,
</text>
<text x="236.9999998" y="1252.00002105" width="85.99999525999999" height="32.00001659999998" class="text">specific </text>
<text x="339.0000007" y="1249.0000227" width="99.00000958000004" height="32.00001660000021" class="text">reference </text>
<text x="453.00001362" y="1244.99998215" width="20.99998598000002" height="28.99999260000004" class="text">to </text>
<text x="489.00000294" y="1243.9999656" width="37.00000719999997" height="28.999941300000046" class="text">and </text>
<text x="537.999991" y="1243.00000035" width="81.0000149199999" height="30.999974399999928" class="text">identity </text>
<text x="631.99998908" y="1238.99998545" width="21.000001559999987" height="29.000018249999812" class="text">of </text>
<text x="659.9999911599999" y="1238.99998545" width="32.00001128000008" height="29.999957849999873" class="text">the </text>
<text x="702.999981" y="1238.0000202" width="48.000032499999975" height="30.000034800000094" class="text">item </text>
<text x="757.99999844" y="1235.9999871" width="21.000001559999987" height="29.9999578500001" class="text">in </text>
<text x="790.0000253000001" y="1235.00002185" width="32.999982419999924" height="30.000034799999867" class="text">the 
</text>
<text x="830.9999638" y="1234.0000052999999" width="127.00001165999993" height="32.99998184999981" class="text">registration </text>
<text x="971.0000209399999" y="1229.00002515" width="104.99997664" height="31.000000049999926" class="text">statement </text>
<text x="1082.99998252" y="1226.0000268000001" width="21.0000015600001" height="30.000060450000092" class="text">to </text>
<text x="1113.99996034" y="1224.9999846" width="64.00003814000002" height="30.999974400000156" class="text">which </text>
<text x="1187.0000036" y="1221.9999862500001" width="18.00002582000002" height="29.00001825000004" class="text">it </text>
<text x="1212.9999855" y="1221.9999862500001" width="90.00002003999998" height="32.00001660000021" class="text">pertains</text>
<text x="1303.9999611" y="1218.9999879" width="9.000005119999969" height="28.000001699999984" class="text">. 
</text>
<text x="1321.00001578" y="1218.00002265" width="16.000021220000008" height="28.00005299999998" class="text">If
</text>
<text x="238.00000210000002" y="1281.0000393" width="47.99998575999996" height="29.00001825000004" class="text">more </text>
<text x="296.00001086000003" y="1278.9999805500001" width="63.99999139999994" height="29.00001825000004" class="text">space </text>
<text x="369.9999941" y="1275.9999822" width="19.999983680000014" height="26.99995949999993" class="text">is </text>
<text x="400.00000078" y="1275.00001695" width="76.99997456000006" height="30.000034799999867" class="text">needed</text>
<text x="479.99999782000003" y="1272.0000186" width="8.000002819999963" height="25.9999942500001" class="text">, </text>
<text x="496.00000346" y="1272.0000186" width="36.00000490000002" height="28.00005299999998" class="text">full </text>
<text x="543.9999892200001" y="1269.9999598499999" width="45.00001001999988" height="28.99991564999982" class="text">size </text>
<text x="595.9999997599999" y="1268.0000037" width="65.99999600000001" height="28.000001699999984" class="text">insert </text>
<text x="671.00000088" y="1264.9999797" width="69.99998961999995" height="27.999976049999987" class="text">sheets 
</text>
<text x="751.0000135" y="1261.99998135" width="37.9999627599999" height="26.99995950000016" class="text">may </text>
<text x="797.9999813799999" y="1261.00004175" width="25.00002634000009" height="28.000078649999978" class="text">be </text>
<text x="830.9999638" y="1259.99999955" width="50.00003709999987" height="28.99999260000004" class="text">used</text>
<text x="885.99998124" y="1258.0000434" width="8.00004955999998" height="26.000019900000098" class="text">.
</text>
<text x="308.99999402" y="1397.9999493" width="62.00000238000001" height="35.99987759999999" class="text">Item </text>
<text x="397.9999806" y="1395.0000278999998" width="30.000006680000013" height="33.99999839999987" class="text">25 </text>
<text x="446.0000131" y="1392.99996915" width="9.99997626000004" height="32.99995620000004" class="text">(</text>
<text x="458.99999626" y="1392.99996915" width="10.000022999999999" height="32.99995620000004" class="text">b</text>
<text x="478.99999552" y="1391.9999526" width="10.000007419999974" height="32.99998185000004" class="text">) </text>
<text x="520.9999830600001" y="1391.0000643" width="87.99999985999989" height="37.00007370000026" class="text">should </text>
<text x="624.99998856" y="1387.9999890000001" width="63.9999914" height="36.00003149999998" class="text">have </text>
<text x="703.9999832999999" y="1385.0000676" width="56.00003532000005" height="35.00001494999992" class="text">been </text>
<text x="781.0000201800001" y="1383.00000885" width="118.00000653999996" height="37.9999363500001" class="text">answered </text>
<text x="931.99999356" y="1378.0000287" width="152.00005357999987" height="38.99997854999992" class="text">negatively
</text>
<text x="254.99999446" y="1798.9999938" width="43.00000541999995" height="31.999939650000215" class="text">The </text>
<text x="303.00001138000005" y="1796.99993505" width="133.99999659999997" height="34.999861049999936" class="text">undersigned </text>
<text x="448.99998884" y="1791.9999549" width="65.99999600000001" height="31.999939649999988" class="text">swear</text>
<text x="513.99998254" y="1789.0000335" width="9.000005119999969" height="29.00001825000004" class="text">(</text>
<text x="521.99998536" y="1789.0000335" width="9.000005120000083" height="29.00001825000004" class="text">s</text>
<text x="535.00001526" y="1789.0000335" width="8.999973960000034" height="29.00001825000004" class="text">) </text>
<text x="548.0000140000001" y="1787.9999913000001" width="29.00000437999995" height="30.000034800000094" class="text">or </text>
<text x="581.99999872" y="1786.99997475" width="61.00001565999992" height="31.999939649999988" class="text">affirm</text>
<text x="644.0000166799999" y="1785.0000699" width="8.999973960000034" height="29.000018249999812" class="text">(</text>
<text x="655.99999754" y="1784.00005335" width="9.000020699999936" height="29.000018249999812" class="text">s</text>
<text x="666.9999761" y="1784.00005335" width="9.000020699999936" height="29.000018249999812" class="text">) </text>
<text x="680.9999771399999" y="1783.00001115" width="49.000034800000094" height="31.00005134999992" class="text">that </text>
<text x="733.99998998" y="1781.9999946" width="28.000002079999945" height="31.000077000000147" class="text">he </text>
<text x="767.00001914" y="1780.9999524" width="41.99998754000001" height="30.999897449999935" class="text">has </text>
<text x="816.0000072" y="1779.0000732" width="9.000005119999969" height="29.00001825000004" class="text">(</text>
<text x="823.00000772" y="1778.000031" width="48.999988059999964" height="31.00005135000015" class="text">they </text>
<text x="878.99998072" y="1777.0000144500002" width="55.00003301999993" height="31.999939650000215" class="text">have</text>
<text x="934.00001374" y="1773.9999391499998" width="9.000005119999969" height="28.999864349999825" class="text">) </text>
<text x="948.0000147799999" y="1773.9999391499998" width="48.99998806000019" height="31.999939649999988" class="text">read </text>
<text x="1003.00003222" y="1772.0000343" width="37.000007199999914" height="31.00007699999992" class="text">the </text>
<text x="1045.00001976" y="1770.9999920999999" width="123.0000024599999" height="33.99997274999987" class="text">information </text>
<text x="1182.00002326" y="1766.00001195" width="33.99993797999991" height="31.00005134999992" class="text">set </text>
<text x="1223.00003966" y="1763.99997885" width="51.00000823999994" height="31.999939649999988" class="text">forth </text>
<text x="1284.0000241599998" y="1762.000074" width="18.000010240000165" height="31.000077000000147" class="text">in </text>
<text x="1312.99996622" y="1761.0000318" width="41.0000319799999" height="31.00005134999992" class="text">this
</text>
<text x="214.99999594000002" y="1829.0000286" width="123.00000245999996" height="32.000093549999974" class="text">amendment </text>
<text x="346.00000122" y="1824.0000484500001" width="36.00000490000002" height="28.00000170000021" class="text">and </text>
<text x="389.99997778" y="1823.0000062499998" width="48.00003250000003" height="28.99999260000004" class="text">that </text>
<text x="442.99999062" y="1820.9999731500002" width="26.000028639999982" height="28.00000170000021" class="text">he </text>
<text x="478.99999552" y="1819.99993095" width="20.99998598000002" height="27.999976049999987" class="text">is </text>
<text x="509.00000220000004" y="1819.0000683" width="9.000005119999969" height="27.000113400000146" class="text">(</text>
<text x="518.00000732" y="1819.0000683" width="42.99998984000001" height="29.00001825000004" class="text">they </text>
<text x="571.99997572" y="1817.00000955" width="33.000029160000054" height="27.999976049999987" class="text">are</text>
<text x="608.99998292" y="1815.999993" width="9.000005119999969" height="26.99995949999993" class="text">) </text>
<text x="626.00000644" y="1814.9999508" width="83.99997508000001" height="30.999897450000162" class="text">familiar </text>
<text x="717.00002878" y="1812.0000294" width="42.99998984000001" height="27.999976049999987" class="text">with 
</text>
<text x="773.00000178" y="1809.99997065" width="36.00000489999991" height="27.999976049999987" class="text">the </text>
<text x="818.9999829399999" y="1808.9999541" width="91.00006908" height="30.999923099999933" class="text">contents </text>
<text x="918.9999636599999" y="1804.9999905000002" width="77.00006803999997" height="30.00003480000032" class="text">thereof </text>
<text x="1004.00000336" y="1802.0000691" width="37.99996276000013" height="28.0001299500002" class="text">and </text>
<text x="1050.9999712400001" y="1801.00005255" width="45.00005676000001" height="29.00001825000004" class="text">that </text>
<text x="1103.99998408" y="1798.9999938" width="45.00005676000001" height="28.00000170000021" class="text">such </text>
<text x="1163.00004188" y="1796.99993505" width="90.99997559999997" height="29.999880900000107" class="text">contents </text>
<text x="1265.99999834" y="1794.0000136499998" width="30.99996224000006" height="29.000018249999812" class="text">are </text>
<text x="1307.00003032" y="1791.9999549" width="19.999936939999998" height="27.999976049999987" class="text">in 
</text>
<text x="1335.9999723800001" y="1790.9999127" width="52.000057279999965" height="28.999838700000055" class="text">their
</text>
<text x="219.00000514" y="1861.9999848" width="82.99998835999995" height="32.99995620000004" class="text">entirety </text>
<text x="312.00000092" y="1859.0000634" width="42.99998984000001" height="32.000093549999974" class="text">true </text>
<text x="362.99999358" y="1857.0000046500002" width="38.000009499999976" height="31.00005135000015" class="text">and </text>
<text x="410.0000082" y="1854.9999459" width="95.00001595999998" height="32.99995620000027" class="text">accurate </text>
<text x="514.99998484" y="1851.00000795" width="18.00002582000002" height="30.000034799999867" class="text">to </text>
<text x="543.9999892200001" y="1849.99996575" width="34.000031459999946" height="30.000034800000094" class="text">the </text>
<text x="586.0000235" y="1848.9999492" width="48.999988059999964" height="31.999939649999988" class="text">best </text>
<text x="644.99998782" y="1846.0000278" width="21.999988280000025" height="30.000034800000094" class="text">of </text>
<text x="673.99997662" y="1844.9999856" width="34.000031459999946" height="30.000034799999867" class="text">his </text>
<text x="715.0000086" y="1843.99996905" width="9.000005119999969" height="29.000018249999812" class="text">(</text>
<text x="723.00001142" y="1843.99996905" width="53.99996840000006" height="31.999939649999988" class="text">their</text>
<text x="775.99997752" y="1842.0000642" width="9.000067439999953" height="29.00001825000004" class="text">) 
</text>
<text x="792.0000299000001" y="1841.00004765" width="114.99995289999993" height="32.99998184999981" class="text">knowledge </text>
<text x="918.0000081" y="1836.99993015" width="37.99996276000002" height="30.999897449999935" class="text">and </text>
<text x="962.9999713799999" y="1835.0000253" width="66.00004274000014" height="31.00005134999992" class="text">belief</text>
<text x="1027.99996508" y="1832.9999665500002" width="9.000005119999969" height="28.99999260000004" class="text">.
</text>
<text x="890.0000060199999" y="1968.00007185" width="218.0000028400001" height="126.00000765000004" class="text">Som
</text>
<text x="936.9999894800001" y="1980.99995355" width="48.99998805999985" height="25.999917300000106" class="text">Dr.
</text>
<text x="245.99998934" y="1950.0000561" width="8.000002819999992" height="24.000038099999983" class="text">(</text>
<text x="252.00000314000002" y="1950.0000561" width="44.99999443999994" height="26.000096849999863" class="text">Both </text>
<text x="306.0000027" y="1947.99999735" width="67.00001387999998" height="26.99995949999993" class="text">copies </text>
<text x="380.99998824" y="1945.00007595" width="19.00001254" height="25.00005465000004" class="text">of </text>
<text x="409.0000059" y="1945.00007595" width="37.00000719999997" height="26.00009685000032" class="text">this </text>
<text x="454.00001592" y="1943.0000172000002" width="110.00000372" height="26.999959500000386" class="text">amendment </text>
<text x="570.0000178600001" y="1939.9999418999998" width="53.99996839999994" height="26.99995949999993" class="text">shall </text>
<text x="627.00000874" y="1937.0000205000001" width="26.99998419999997" height="25.000054650000266" class="text">be </text>
<text x="658.00001772" y="1937.0000205000001" width="66.99996714000008" height="26.99995950000016" class="text">signed </text>
<text x="733.99998998" y="1933.99991955" width="34.99998702000005" height="24.99990075000005" class="text">and </text>
<text x="776.99997982" y="1933.0000569" width="55.00003301999993" height="27.00011339999992" class="text">sworn
</text>
<text x="220.99999416" y="1975.9999734" width="21.00001714000001" height="24.000012449999986" class="text">to </text>
<text x="245.99998934" y="1974.99995685" width="64.00000697999997" height="24.99990075000005" class="text">before </text>
<text x="321.00000603999996" y="1972.00003545" width="7.000000520000015" height="21.999979350000103" class="text">a </text>
<text x="336.9999961" y="1972.00003545" width="63.00000468000002" height="25.00005465000004" class="text">notary </text>
<text x="408.0000036" y="1968.99996015" width="58.999995479999995" height="23.999884199999997" class="text">public </text>
<text x="477.99997764000005" y="1966.0000131" width="21.000001559999987" height="22.999995899999703" class="text">or </text>
<text x="504.00000628000004" y="1966.0000131" width="51.00000824" height="25.00005465000004" class="text">other </text>
<text x="560.99999716" y="1963.99998" width="66.00001157999998" height="24.99992640000005" class="text">person </text>
<text x="638.9999895999999" y="1961.0000329499999" width="102.00000090000003" height="27.00011339999992" class="text">authorized 
</text>
<text x="749.99999562" y="1956.0000528" width="17.0000235199999" height="22.999995900000158" class="text">to </text>
<text x="776.99997982" y="1955.00003625" width="21.000001559999873" height="22.999995900000158" class="text">ad-
</text>
<text x="227.99999468000001" y="2000.0000115" width="79.00001031999997" height="26.99995949999993" class="text">minister </text>
<text x="313.00000322" y="1996.9999362" width="55.00000186" height="25.999942949999877" class="text">oaths </text>
<text x="375.0000056" y="1995.00003135" width="21.9999727" height="25.00005464999981" class="text">by </text>
<text x="404.99998112000003" y="1994.0000148" width="31.00000897999996" height="24.000038099999756" class="text">the </text>
<text x="443.99999292" y="1992.9999725999999" width="55.999988580000036" height="25.99991729999988" class="text">agent</text>
<text x="499.99998150000005" y="1990.9999395" width="7.000000520000015" height="22.999867649999942" class="text">, </text>
<text x="513.99998254" y="1990.0000512000001" width="14.00000104000003" height="22.999995900000158" class="text">if </text>
<text x="535.9999864" y="1990.0000512000001" width="31.000008980000075" height="25.00005465000004" class="text">the </text>
<text x="574.9999982" y="1989.00003465" width="99.9999962999999" height="26.99995949999993" class="text">registrant 
</text>
<text x="680.9999771399999" y="1985.0000710499999" width="18.00002582000002" height="24.000038099999983" class="text">is </text>
<text x="708.0000080799999" y="1984.0000545" width="22.000003860000106" height="24.00003810000021" class="text">an 
</text>
<text x="738.00001476" y="1983.0000123" width="101.99995416000002" height="26.000071200000093" class="text">individual
</text>
<text x="225.00000336" y="2025.99995445" width="17.999994660000027" height="23.999884199999997" class="text">or </text>
<text x="251.00000084" y="2025.00006615" width="20.99998597999999" height="24.000012450000213" class="text">by </text>
<text x="282.99999654000004" y="2024.0000496" width="7.000000519999958" height="21.999979350000103" class="text">a </text>
<text x="305.0000004" y="2023.0000074" width="77.00000572000005" height="26.000071199999866" class="text">majority </text>
<text x="391.99999796" y="2019.9999321" width="20.99998598000002" height="23.99985855" class="text">of </text>
<text x="417.00000872" y="2019.00006945" width="56.99999088000004" height="25.00005465000004" class="text">those </text>
<text x="478.99999552" y="2017.0000107" width="80.99999933999999" height="26.000071200000093" class="text">partners</text>
<text x="563.00001734" y="2013.0000470999998" width="7.0000005200000714" height="22.000107599999865" class="text">, </text>
<text x="577.00001838" y="2013.0000470999998" width="74.99995437999996" height="25.00005465000004" class="text">officers</text>
<text x="654.99999524" y="2009.9999718" width="7.000000519999958" height="21.999979350000103" class="text">, 
</text>
<text x="668.99999628" y="2009.9999718" width="89.00000216000001" height="25.99991729999988" class="text">directors </text>
<text x="766.00001684" y="2006.0000338500001" width="20.999939240000117" height="23.000021550000156" class="text">or
</text>
<text x="220.99999416" y="2052.0000256499998" width="80.99999933999996" height="26.999959499999704" class="text">persons </text>
<text x="308.99999402" y="2048.99995035" width="103.99998992000002" height="27.99997604999976" class="text">performing </text>
<text x="423.00000694" y="2043.9999702" width="71.99999422000002" height="25.999942949999877" class="text">similar </text>
<text x="498.99997920000004" y="2042.00006535" width="94.00004482000003" height="28.000129949999973" class="text">functions </text>
<text x="598.0000043599999" y="2037.9999735000001" width="40.99998524" height="25.999942950000104" class="text">who </text>
<text x="644.99998782" y="2036.00006865" width="31.00000897999996" height="25.00005464999981" class="text">are 
</text>
<text x="685.0000019199999" y="2034.0000099" width="18.99998138000001" height="24.000038099999983" class="text">in </text>
<text x="709.99998152" y="2032.99999335" width="35.00003375999995" height="24.00003810000021" class="text">the 
</text>
<text x="753.99997366" y="2031.99995115" width="62.99998909999999" height="25.99991729999988" class="text">United
</text>
<text x="227.00000796" y="2074.000005" width="57.99999317999999" height="25.00005465000004" class="text">States</text>
<text x="286.99999016" y="2071.99994625" width="7.000000520000015" height="21.999979350000103" class="text">, </text>
<text x="306.0000027" y="2070.9999297" width="12.99998316" height="21.999979350000103" class="text">if </text>
<text x="325.99998638" y="2070.9999297" width="32.999998000000005" height="23.999884199999997" class="text">the </text>
<text x="365.9999849" y="2070.0000414" width="96.9999894" height="26.000071200000093" class="text">registrant </text>
<text x="469.00001926" y="2065.99994955" width="21.000001560000044" height="22.999995900000158" class="text">is </text>
<text x="500.99998380000005" y="2065.0000612500003" width="17.000023519999957" height="22.00010760000032" class="text">an </text>
<text x="527.99998358" y="2065.0000612500003" width="122.00003131999995" height="27.000087750000148" class="text">organization
</text>
<text x="652.99999064" y="2060.9999694000003" width="7.000000519999958" height="21.999979350000103" class="text">.</text>
<text x="660.9999934599999" y="2060.9999694000003" width="7.0000005200000714" height="21.999979350000103" class="text">)
</text>
<text x="1013.00000848" y="1977.0000155999999" width="92.0000246400001" height="28.000001699999757" class="text">Emilio </text>
<text x="1140.00002014" y="1973.9999403" width="100.99995185999978" height="28.000001699999984" class="text">Tommasi
</text>
<text x="929.0000334" y="2024.0000496" width="98.99993168000003" height="35.00001494999992" class="text">Italian </text>
<text x="1047.0000399399999" y="2019.00006945" width="92.99998020000021" height="35.00001494999992" class="text">Travel </text>
<text x="1150.9999519599999" y="2014.99995195" width="186.00008504000016" height="37.9999363500001" class="text">Commissioner
</text>
<text x="227.99999468000001" y="2184.00005565" width="125.00000706" height="73.00013085" class="text">Subscribed </text>
<text x="355.99999306" y="2174.999958" width="40.99998524" height="65.99993804999986" class="text">and </text>
<text x="398.99999848" y="2172.0000366" width="65.99999600000001" height="69.00001335000024" class="text">sworn </text>
<text x="478.99999552" y="2167.00005645" width="18.000010239999995" height="66.0000919500003" class="text">to </text>
<text x="503.00000398000003" y="2164.9999977" width="69.9999896199999" height="69.00001335000024" class="text">before </text>
<text x="586.99997906" y="2159.000001" width="27.000030939999988" height="65.99993804999986" class="text">me </text>
<text x="624.99998856" y="2156.99994225" width="26.99998419999997" height="65.99993804999986" class="text">at </text>
<text x="657.00001542" y="2155.0000374" width="113.99998176000008" height="72.00008865000018" class="text">Barca </text>
<text x="788.9999762599999" y="2146.99998195" width="170.00006382000004" height="76.99994054999979" class="text">nagonale </text>
<text x="962.0000002400001" y="2134.9999629" width="74.99996995999993" height="69.99990164999963" class="text">del </text>
<text x="1036.9999702" y="2128.99994055" width="111.00002160000008" height="70.99989254999991" class="text">Lavoro
</text>
<text x="289.99999706" y="2220.99997545" width="48.00000133999998" height="37.99996199999987" class="text">17</text>
<text x="340.99998972" y="2220.99997545" width="11.000009720000037" height="37.99996199999987" class="text">' </text>
<text x="456.99999166000003" y="2218.0000284" width="165.99999229999997" height="48.00005054999974" class="text">March </text>
<text x="733.99998998" y="2227.9999887" width="100.99999859999991" height="87.00002909999967" class="text">.1976 </text>
<text x="883.99997664" y="2220.99997545" width="150.99998896" height="88.99993395000001" class="text">Victoria </text>
<text x="1087.0000072999999" y="2212.0000317" width="164.00003444000004" height="89.99995049999961" class="text">Moscato
</text>
<text x="512.0000091" y="2298.00004425" width="198.99997471999995" height="58.00003650000008" class="text">3/30/76
</text>
<text x="235.9999975" y="2354.0000219999997" width="157.00000275999997" height="46.00001744999963" class="text">Reneral </text>
<text x="476.99997534000005" y="2354.0000219999997" width="14.000047779999989" height="48.00007619999951" class="text">3</text>
<text x="500.99998380000005" y="2354.0000219999997" width="14.000001039999972" height="48.00007619999951" class="text">/</text>
<text x="521.99998536" y="2355.0000385499998" width="44.0000077200001" height="48.00007619999951" class="text">30</text>
<text x="567.9999976800001" y="2355.0000385499998" width="14.000001039999916" height="48.00007619999951" class="text">/</text>
<text x="592.0000217200001" y="2356.9999434" width="52.99996609999994" height="49.99998104999986" class="text">78-
</text>
<text x="228.99999698000002" y="2229.0000309" width="42.999989839999984" height="21.00011670000049" class="text">this
</text>
<text x="351.00001272" y="2230.99993575" width="37.99997834000004" height="28.00000170000021" class="text">day </text>
<text x="398.99999848" y="2226.9999721500003" width="25.00001076000001" height="27.999976049999987" class="text">of
</text>
<text x="962.0000002400001" y="2236.0000698" width="90.99997560000008" height="35.000014949999695" class="text">VICTORIA </text>
<text x="1066.99997688" y="2230.0000474500002" width="71.00003865999997" height="33.999972750000325" class="text">MOSCA </text>
<text x="1140.00002014" y="2225.9999556000002" width="54.99993953999979" height="31.999939650000215" class="text">Pher </text>
<text x="1203.0000092399998" y="2223.00000855" width="67.0000138800001" height="32.99995620000027" class="text">officer</text>
<text x="1270.00002312" y="2219.0000706" width="9.999960679999958" height="29.000018250000267" class="text">)
</text>
<text x="904.0000070599999" y="2258.00004915" width="60.000013360000025" height="27.00011339999992" class="text">Notary </text>
<text x="976.9999568400001" y="2254.9999482000003" width="52.000057279999965" height="26.999959500000386" class="text">Public</text>
<text x="1031.0000343" y="2253.000069" width="7.999956079999947" height="24.000038099999983" class="text">, </text>
<text x="1047.0000399399999" y="2253.000069" width="44.9999632800002" height="27.00011339999992" class="text">State </text>
<text x="1103.99998408" y="2249.99996805" width="23.000006159999884" height="24.99990075000005" class="text">of </text>
<text x="1135.9999953600002" y="2248.9999515" width="36.00005163999981" height="24.99990075000005" class="text">New </text>
<text x="1187.99995916" y="2247.00004665" width="38.00005624000005" height="26.000071200000093" class="text">York
</text>
<text x="994.99998266" y="2270.99993085" width="34.99998702000005" height="19.99992059999977" class="text">No. </text>
<text x="1038.9999903799999" y="2270.0000425499998" width="99.00002516000018" height="24.00001244999976" class="text">31-8033845
</text>
<text x="924.0000374800001" y="2293.9999267499998" width="79.99996587999999" height="25.99991729999965" class="text">Qualified </text>
<text x="1017.0000332599999" y="2291.00000535" width="14.00000104000003" height="22.999995899999703" class="text">in </text>
<text x="1045.00001976" y="2289.9999887999998" width="35.000002600000016" height="23.00002154999993" class="text">New </text>
<text x="1096.9999835600001" y="2287.99993005" width="37.00000720000003" height="22.999867649999942" class="text">York </text>
<text x="1149.00004084" y="2287.00004175" width="59.99991987999988" height="25.00005465000004" class="text">County
</text>
<text x="901.0000313200001" y="2316.00006" width="102.00000089999992" height="29.000018249999812" class="text">Commission </text>
<text x="1019.0000378599999" y="2311.99996815" width="58.999964320000004" height="26.99995949999993" class="text">Expires </text>
<text x="1089.00002748" y="2310.0000633" width="53.99996840000017" height="28.000001699999757" class="text">March </text>
<text x="1156.00004136" y="2308.00000455" width="18.99998138000001" height="26.99995949999993" class="text">30</text>
<text x="1177.00002734" y="2306.9999623500003" width="7.999956079999947" height="24.99990075000005" class="text">, </text>
<text x="1196.99997986" y="2306.9999623500003" width="36.00003605999996" height="26.99993385000016" class="text">1976
</text>
<text x="234.00000848" y="2306.9999623500003" width="30.999993400000022" height="27.999976049999987" class="text">My </text>
<text x="271.00001568" y="2306.9999623500003" width="127.9999828" height="30.99989745000039" class="text">commission </text>
<text x="411.00002608" y="2304.00004095" width="81.99995490000003" height="28.99999260000004" class="text">expires
</text>
</g>
</svg>
