<svg xmlns="http://www.w3.org/2000/svg">
<style>.text { font-size: 14px; font-family: Arial, sans-serif; }</style>
<g id="page-0" transform="translate(0, 0)">
<rect width="1556" height="2569" fill="none" stroke="black" />
<text x="1142.9999603600002" y="116.999995259" width="26.000075359999755" height="15.999999175999989" class="text">MB
</text>
<text x="1130.99997944" y="156.99999576800002" width="64.00005383999996" height="32.00000092100002" class="text">Approval </text>
<text x="1200.99996928" y="158.000002139" width="48.00000148000004" height="31.99999835199999" class="text">Expires </text>
<text x="1254.00002116" y="156.99999576800002" width="30.999970159999975" height="29.999995886000022" class="text">Oct. </text>
<text x="1288.000006" y="156.99999576800002" width="17.000031320000062" height="29.999995886000022" class="text">31</text>
<text x="1302.00002264" y="156.99999576800002" width="8.999950679999984" height="29.999995886000022" class="text">, </text>
<text x="1312.00004564" y="158.000002139" width="31.999933560000045" height="30.000003593000002" class="text">1981
</text>
<text x="1046.9999729600002" y="187.00000963699998" width="135.00002264" height="34.000013662999976" class="text">CRIMINAL </text>
<text x="1191.0000396399998" y="190.00000305999998" width="121.00000600000021" height="34.000005955999995" class="text">DIVISION
</text>
<text x="475.00001108000004" y="185.99999298999998" width="91.99999375999994" height="27.99999085099998" class="text">UNITED </text>
<text x="579.99999584" y="185.99999298999998" width="93.9999828" height="27.99999085099998" class="text">STATES </text>
<text x="678.99999792" y="185.99999298999998" width="172.0000066" height="27.99999085099998" class="text">DEPARTMENT </text>
<text x="858.9999918" y="185.99999298999998" width="29.999991199999954" height="27.99999085099998" class="text">OF </text>
<text x="906.0000143200001" y="185.99999298999998" width="95.00000843999999" height="27.99999085099998" class="text">JUSTICE
</text>
<text x="587.00000416" y="216.999995247" width="152.99998624" height="23.000002668999997" class="text">WASHINGTON</text>
<text x="746.00001976" y="215.99999658299998" width="5.999982680000016" height="22.000004004999994" class="text">, </text>
<text x="763.0000044000001" y="215.000000488" width="54.00003083999991" height="22.000006574000025" class="text">D.C. </text>
<text x="824.0000435599999" y="215.000000488" width="59.99996684000007" height="22.000006574000025" class="text">20530
</text>
<text x="1098.9999525199999" y="246.99999884" width="4.000087000000121" height="15.999999175999989" class="text">1
</text>
<text x="1153.99996232" y="254.000002333" width="69.00001088000022" height="45.00000667400002" class="text">9:01</text>
<text x="1221.99999424" y="254.000002333" width="13.00005324000017" height="42.999993931999995" class="text">. </text>
<text x="1235.0000474800001" y="256.99998548" width="86.9999277999998" height="45.99997707900002" class="text">All'79
</text>
<text x="667.99999596" y="266.99999781" width="51.99997956000004" height="21.99999372900001" class="text">Form </text>
<text x="728.99998844" y="266.99999781" width="45.99999687999991" height="21.99999372900001" class="text">OBD</text>
<text x="782.9999726" y="266.99999781" width="6.000029360000099" height="21.99999372900001" class="text">-</text>
<text x="788.000023" y="266.99999781" width="19.9999681999999" height="21.99999372900001" class="text">68
</text>
<text x="667.000017" y="294.00000798" width="6.999961640000038" height="26.00000123000001" class="text">(</text>
<text x="675.00000428" y="294.00000798" width="35.99997387999997" height="26.00000123000001" class="text">Rev </text>
<text x="724.9999948000001" y="294.00000798" width="77.00004483999987" height="26.00000123000001" class="text">10-14-76</text>
<text x="804.99996096" y="294.00000798" width="7.00000832000012" height="26.00000123000001" class="text">)
</text>
<text x="653.00000036" y="317.99999133" width="88.0000001200001" height="23.99998334999998" class="text">Formerly </text>
<text x="752.9999813999999" y="317.00000808" width="31.000047960000188" height="24.00000904000001" class="text">DJ</text>
<text x="782.9999726" y="317.00000808" width="7.000008320000006" height="24.00000904000001" class="text">-</text>
<text x="791.00003768" y="317.00000808" width="34.999948240000094" height="24.00000904000001" class="text">307
</text>
<text x="723.00000576" y="339.99998249" width="31.000001279999992" height="19.99999896999998" class="text">for
</text>
<text x="1043.9999582799999" y="308.00000469" width="131.00002900000004" height="34.00002137000001" class="text">INTERNAL </text>
<text x="1182.999959" y="311.00000582" width="127.00005091999992" height="35.00000462000003" class="text">SECURITY
</text>
<text x="1122.99999216" y="335.00001485999996" width="102.99999572000002" height="31.00002023999997" class="text">SECTION
</text>
<text x="1049.99998764" y="361.99999934" width="182.0000451599999" height="33.00001242999997" class="text">REGISTRATION </text>
<text x="1241.99996244" y="362.99998259" width="58.00000892000003" height="32.00000348999998" class="text">UNIT
</text>
<text x="469.00001284" y="391.00000170000004" width="154.99999084000007" height="23.999983350000093" class="text">AMENDMENT </text>
<text x="633.00000104" y="391.00000170000004" width="27.00000763999992" height="23.999983350000093" class="text">TO </text>
<text x="671.9999896" y="391.00000170000004" width="182.00002959999995" height="23.999983350000093" class="text">REGISTRATION </text>
<text x="868.0000514000001" y="391.00000170000004" width="148.9999303599999" height="23.999983350000093" class="text">STATEMENT
</text>
<text x="565.9999792" y="454.00002543" width="99.00000207999994" height="28.00001911000004" class="text">Pursuant </text>
<text x="671.00001064" y="452.9999908" width="18.99998923999999" height="26.00000123000001" class="text">to </text>
<text x="702.9999908799999" y="454.00002543" width="29.999991200000068" height="27.000035860000025" class="text">the </text>
<text x="743.99998404" y="455.00000868" width="81.00003847999994" height="28.00001911000004" class="text">Foreign </text>
<text x="840.99998152" y="456.00001762" width="73.00002008000001" height="28.000019109999982" class="text">Agents
</text>
<text x="525.0000016" y="486.99998648" width="135.00000707999993" height="27.99999342000001" class="text">Registration </text>
<text x="671.00001064" y="486.00002892" width="40.99999316000003" height="26.000026919999982" class="text">Act </text>
<text x="719.0000121200001" y="486.00002892" width="23.999992959999872" height="26.000026919999982" class="text">of </text>
<text x="750.99999236" y="486.00002892" width="45.000017920000005" height="26.000026919999982" class="text">1938</text>
<text x="799.00002496" y="486.00002892" width="7.000008320000006" height="26.000026919999982" class="text">, </text>
<text x="818.0000142" y="486.00002892" width="23.999946280000017" height="26.000026919999982" class="text">as </text>
<text x="850.0000411200001" y="486.00002892" width="92.99995716000001" height="27.00003585999997" class="text">amended</text>
<text x="946.9999919200001" y="484.99999428999996" width="7.000008319999893" height="26.000001229999953" class="text">.
</text>
<text x="156.00000092000002" y="575.99998575" width="18.99998923999999" height="24.999992290000023" class="text">1. </text>
<text x="190.99999584" y="577.99997794" width="61.00000803999998" height="26.99998448000008" class="text">Name </text>
<text x="259.99999116" y="577.00002038" width="22.999998440000013" height="25.000017980000052" class="text">of </text>
<text x="288.00000888" y="579.00001257" width="117.99997576000004" height="27.000010169999996" class="text">Registrant
</text>
<text x="763.0000044000001" y="579.00001257" width="25.999997559999997" height="29.00000235999994" class="text">2. </text>
<text x="803.0000186" y="579.00001257" width="132.99997136000002" height="29.00000235999994" class="text">Registration </text>
<text x="946.9999919200001" y="579.00001257" width="40.99999316000003" height="29.00000235999994" class="text">No.
</text>
<text x="207.00000152" y="625.00001277" width="74.99999355999995" height="19.99999896999998" class="text">ARUBA </text>
<text x="298.99999528" y="627.00000496" width="105.00000031999997" height="21.999991159999922" class="text">TOURIST </text>
<text x="418.9999912" y="627.9999882100001" width="88.00000012000004" height="21.999991160000036" class="text">BUREAU
</text>
<text x="983.0000124800001" y="630.99998934" width="59.99996683999984" height="23.000000099999966" class="text">2987
</text>
<text x="156.00000092000002" y="728.999992" width="19.999999319999972" height="28.000019109999926" class="text">3. </text>
<text x="193.99999495999998" y="728.999992" width="47.00000696000001" height="28.000019109999926" class="text">This </text>
<text x="248.9999892" y="731.0000098800001" width="121.00000600000001" height="30.000036990000012" class="text">amendment </text>
<text x="380.99999716" y="729.9999752499999" width="15.99999011999995" height="27.99994203999995" class="text">is </text>
<text x="408.99999932" y="729.9999752499999" width="47.000022520000016" height="27.99994203999995" class="text">filed </text>
<text x="467.0000238" y="729.9999752499999" width="19.999952639999947" height="27.99994203999995" class="text">to </text>
<text x="499.00000403999996" y="731.9999931299999" width="124.00002067999998" height="28.999976669999796" class="text">accomplish </text>
<text x="633.00000104" y="731.0000098800001" width="31.9999802399999" height="27.99999342000001" class="text">the </text>
<text x="675.00000428" y="731.9999931299999" width="99.00000208000006" height="28.999976669999796" class="text">following </text>
<text x="786.9999506800001" y="731.9999931299999" width="99.00000207999994" height="27.999993419999782" class="text">indicated </text>
<text x="891.0000187200001" y="731.9999931299999" width="82.99994972000002" height="27.999993419999782" class="text">purpose </text>
<text x="987.9999850800001" y="732.9999763799999" width="20.000045999999884" height="28.000019109999926" class="text">or </text>
<text x="1015.0000394" y="732.9999763799999" width="96.99996636000003" height="28.000019109999926" class="text">purposes</text>
<text x="1115.00002044" y="732.9999763799999" width="7.999971719999849" height="28.000019109999926" class="text">:
</text>
<text x="297.00000624" y="824.00001922" width="24.999987480000016" height="27.000035860000025" class="text">To </text>
<text x="334.00000576" y="824.00001922" width="76.99999815999996" height="27.000035860000025" class="text">correct </text>
<text x="420.00000127999994" y="824.00001922" width="7.999987280000084" height="27.000035860000025" class="text">a </text>
<text x="438.00001155999996" y="824.00001922" width="111.99999308000008" height="27.000035860000025" class="text">deficiency </text>
<text x="563.9999901599999" y="824.00001922" width="15.00002672000005" height="27.000035860000025" class="text">in
</text>
<text x="814.9999995200001" y="824.00001922" width="31.00004795999996" height="28.000019109999926" class="text">To </text>
<text x="854.0000192" y="824.00001922" width="42.99993552000001" height="28.000019109999926" class="text">give </text>
<text x="910.99997136" y="824.00001922" width="7.999987279999914" height="28.000019109999926" class="text">a </text>
<text x="932.9999752800001" y="824.00001922" width="20.00006155999995" height="28.000019109999926" class="text">10</text>
<text x="954.9999792" y="824.00001922" width="7.999987280000028" height="28.000019109999926" class="text">-</text>
<text x="965.0000022" y="824.00001922" width="36.00002056000005" height="28.000019109999926" class="text">day </text>
<text x="1009.00001004" y="824.00001922" width="70.99996880000003" height="28.000019109999926" class="text">notice </text>
<text x="1090.00000184" y="824.00001922" width="19.999952639999947" height="28.000019109999926" class="text">of </text>
<text x="1120.99995644" y="824.00001922" width="8.000080640000078" height="28.000019109999926" class="text">a </text>
<text x="1142.9999603600002" y="824.00001922" width="74.00007684000002" height="28.000019109999926" class="text">change </text>
<text x="1226.99996684" y="824.00001922" width="20.000045999999884" height="28.000019109999926" class="text">in </text>
<text x="1258.99999376" y="824.00001922" width="50.00003719999995" height="28.000019109999926" class="text">infor-
</text>
<text x="817.00003524" y="852.0000126399999" width="68.99991752000005" height="27.00003585999991" class="text">mation </text>
<text x="896.99995472" y="852.0000126399999" width="24.00005520000002" height="27.00003585999991" class="text">as </text>
<text x="929.9999606" y="852.0000126399999" width="87.00002115999996" height="27.00003585999991" class="text">required </text>
<text x="1027.99998372" y="852.0000126399999" width="25.000018599999976" height="27.00003585999991" class="text">by </text>
<text x="1063.00002532" y="852.0000126399999" width="77.99997712000004" height="27.00003585999991" class="text">Section </text>
<text x="1156.999977" y="852.0000126399999" width="7.999987280000141" height="27.00003585999991" class="text">2</text>
<text x="1167.9999789600001" y="852.0000126399999" width="7.999971719999849" height="27.00003585999991" class="text">(</text>
<text x="1178.9999809199999" y="852.0000126399999" width="7.999971720000076" height="27.00003585999991" class="text">b</text>
<text x="1192.0000186" y="852.0000126399999" width="7.999987280000141" height="27.00003585999991" class="text">) </text>
<text x="1206.00003524" y="852.0000126399999" width="25.999997559999883" height="27.00003585999991" class="text">of </text>
<text x="1239.00004112" y="852.0000126399999" width="29.999975639999775" height="27.00003585999991" class="text">the </text>
<text x="1281.99996108" y="852.0000126399999" width="38.00007183999992" height="27.00003585999991" class="text">Act</text>
<text x="1318.9999606000001" y="852.0000126399999" width="8.000080639999851" height="27.00003585999991" class="text">.
</text>
<text x="348.9999858" y="880.00003175" width="68.00000080000001" height="23.00005147999991" class="text">Initial </text>
<text x="425.99999951999996" y="880.00003175" width="109.99998847999996" height="23.00005147999991" class="text">Statement
</text>
<text x="807.9999912" y="942.9999784099999" width="60.00006020000012" height="29.000002359999826" class="text">Other </text>
<text x="873.00000844" y="944.99999629" width="88.99997907999989" height="31.000020239999913" class="text">purpose </text>
<text x="969.9999748" y="944.00001304" width="7.999971719999962" height="28.99997666999991" class="text">(</text>
<text x="979.9999978" y="945.99997954" width="76.99999816000002" height="30.999943169999938" class="text">specify</text>
<text x="1061.9999685599998" y="944.99999629" width="8.000065080000013" height="28.99997666999991" class="text">)</text>
<text x="1072.99997052" y="944.99999629" width="8.000065080000013" height="28.99997666999991" class="text">.
</text>
<text x="347.99999128" y="945.99997954" width="147.99999808" height="29.999959919999924" class="text">Supplemental </text>
<text x="504.99998672" y="944.00001304" width="108.00001500000002" height="28.99997666999991" class="text">Statement
</text>
<text x="347.99999128" y="969.00003102" width="30.000006759999962" height="27.00003586000014" class="text">for </text>
<text x="389.0" y="969.00003102" width="7.999987279999971" height="27.00003586000014" class="text">6 </text>
<text x="420.00000127999994" y="969.9999885799999" width="69.99998984000007" height="27.000010169999996" class="text">month </text>
<text x="508.00000140000003" y="972.0000321499999" width="90.99998367999996" height="29.00005374" class="text">period </text>
<text x="616.0000163999999" y="972.0000321499999" width="88.00000011999998" height="29.00005374" class="text">ending
</text>
<text x="392.00001468000005" y="998.99999094" width="53.99998416" height="29.000002360000053" class="text">June </text>
<text x="465.99999815999996" y="998.99999094" width="25.000018600000033" height="28.00001911000004" class="text">29</text>
<text x="499.999983" y="998.99999094" width="8.000018400000044" height="26.99995879000005" class="text">, </text>
<text x="528.00001628" y="1001.00003451" width="71.99997888000007" height="29.000002360000053" class="text">1979. </text>
<text x="616.0000163999999" y="1001.99999207" width="64.00000716000011" height="28.999976670000024" class="text">Item </text>
<text x="695.99998256" y="1001.99999207" width="25.000018599999976" height="27.000010169999996" class="text">11</text>
<text x="726.99998384" y="1001.99999207" width="8.000033959999996" height="27.000010169999996" class="text">.
</text>
<text x="293.99999156" y="1034.99997881" width="29.00001223999999" height="26.999958789999823" class="text">To </text>
<text x="330.00001212" y="1034.99997881" width="44.99998679999999" height="26.999958789999823" class="text">give </text>
<text x="386.00000088" y="1034.99997881" width="68.99999531999998" height="26.999958789999823" class="text">notice </text>
<text x="464.99998808" y="1034.99997881" width="25.000003040000024" height="26.999958789999823" class="text">of </text>
<text x="493.99998476" y="1034.99997881" width="77.00001371999991" height="26.999958789999823" class="text">change </text>
<text x="583.0000105199999" y="1034.99997881" width="15.999974560000055" height="26.999958789999823" class="text">in </text>
<text x="609.99998704" y="1034.99997881" width="26.000028680000128" height="26.999958789999823" class="text">an
</text>
<text x="295.0000172" y="1066.9999823" width="74.999978" height="28.00001911000004" class="text">exhibit </text>
<text x="377.00000352" y="1066.9999823" width="116.99998124000001" height="28.00001911000004" class="text">previously </text>
<text x="504.99998672" y="1066.9999823" width="49.00001156000002" height="28.00001911000004" class="text">filed</text>
<text x="556.00000288" y="1066.9999823" width="7.999987279999914" height="28.00001911000004" class="text">,
</text>
<text x="150.999998756" y="1159.99996595" width="25.999996003999996" height="27.99994203999995" class="text">4. </text>
<text x="189.0000068" y="1159.99996595" width="20.999993839999973" height="27.99994203999995" class="text">If </text>
<text x="218.00000348000003" y="1159.99996595" width="38.99998855999996" height="27.99994203999995" class="text">this </text>
<text x="268.99998852" y="1159.99996595" width="121.00003712" height="27.99994203999995" class="text">amendment </text>
<text x="396.99998727999997" y="1159.99996595" width="88.00000012000004" height="27.99994203999995" class="text">requires </text>
<text x="488.99998104" y="1159.99996595" width="35.000041599999975" height="27.99994203999995" class="text">the </text>
<text x="535.0000246" y="1159.99996595" width="54.99999424000009" height="27.99994203999995" class="text">filing </text>
<text x="596.0000015200001" y="1159.99996595" width="25.999997559999883" height="27.99994203999995" class="text">of </text>
<text x="629.0000074" y="1159.99996595" width="7.999987280000028" height="27.99994203999995" class="text">a </text>
<text x="651.00001132" y="1159.99996595" width="101.99997007999991" height="27.99994203999995" class="text">document </text>
<text x="759.00001076" y="1159.99996595" width="25.999997559999883" height="27.99994203999995" class="text">or </text>
<text x="789.99998092" y="1159.99996595" width="113.00001871999996" height="27.99994203999995" class="text">documents</text>
<text x="909.000029" y="1159.99996595" width="7.999987279999914" height="27.99994203999995" class="text">, </text>
<text x="925.99996696" y="1159.99996595" width="68.00004747999992" height="27.99994203999995" class="text">please </text>
<text x="1002.9999651200001" y="1159.99996595" width="40.9999931599998" height="27.99994203999995" class="text">list-
</text>
<text x="154.00000409999998" y="1334.00003149" width="19.999991540000025" height="29.000053740000112" class="text">5. </text>
<text x="192.00000592" y="1334.00003149" width="51.999995119999994" height="29.000053740000112" class="text">Each </text>
<text x="255.000003" y="1334.00003149" width="45.999996880000026" height="29.000053740000112" class="text">item </text>
<text x="312.00000184000004" y="1334.00003149" width="85.99999551999991" height="29.000053740000112" class="text">checked </text>
<text x="412.000014" y="1334.00003149" width="57.999977799999954" height="29.000053740000112" class="text">above </text>
<text x="484.9999874" y="1334.00003149" width="49.00001155999996" height="29.000053740000112" class="text">must </text>
<text x="539.99998164" y="1334.00003149" width="28.000033280000025" height="29.000053740000112" class="text">be </text>
<text x="574.9999765599999" y="1334.00003149" width="104.00002136000012" height="29.000053740000112" class="text">explained </text>
<text x="691.99998892" y="1334.00003149" width="56.00001987999997" height="29.000053740000112" class="text">below </text>
<text x="766.99999804" y="1334.00003149" width="14.99999559999992" height="29.000053740000112" class="text">in </text>
<text x="796.00001028" y="1334.00003149" width="39.00003523999999" height="29.000053740000112" class="text">full </text>
<text x="843.0000328" y="1334.00003149" width="63.99996047999991" height="29.000053740000112" class="text">detail </text>
<text x="913.00002264" y="1334.00003149" width="93.99993612000003" height="29.000053740000112" class="text">together </text>
<text x="1012.0000247199999" y="1334.00003149" width="47.000022520000016" height="29.000053740000112" class="text">with</text>
<text x="1060.9999896000002" y="1334.00003149" width="7.999987279999914" height="29.000053740000112" class="text">, </text>
<text x="1075.9999852" y="1334.00003149" width="64.00005383999996" height="29.000053740000112" class="text">where </text>
<text x="1148.99998972" y="1334.00003149" width="123.00004172000013" height="29.000053740000112" class="text">appropriate</text>
<text x="1276.0000250800001" y="1334.00003149" width="7.999987279999914" height="29.000053740000112" class="text">,
</text>
<text x="190.99999584" y="1365.9999579100001" width="88.00000012000004" height="31.00002024000014" class="text">specific </text>
<text x="291.99998696" y="1365.9999579100001" width="100.00002772000005" height="31.00002024000014" class="text">reference </text>
<text x="405.99998464000004" y="1365.9999579100001" width="19.000035920000016" height="31.00002024000014" class="text">to </text>
<text x="442.0000052" y="1365.9999579100001" width="34.999994920000006" height="31.00002024000014" class="text">and </text>
<text x="489.99999112" y="1365.9999579100001" width="82.99999639999999" height="31.00002024000014" class="text">identity </text>
<text x="581.9999848799999" y="1365.9999579100001" width="22.00000392000004" height="31.00002024000014" class="text">of </text>
<text x="614.0000118" y="1365.9999579100001" width="31.999980240000014" height="31.00002024000014" class="text">the </text>
<text x="653.99997932" y="1365.9999579100001" width="50.00003719999995" height="31.00002024000014" class="text">item </text>
<text x="708.99998912" y="1365.9999579100001" width="23.000013999999965" height="31.00002024000014" class="text">in </text>
<text x="741.00000048" y="1365.9999579100001" width="35.99997387999997" height="31.00002024000014" class="text">the </text>
<text x="784.0000293600001" y="1365.9999579100001" width="126.99994199999992" height="31.00002024000014" class="text">registration </text>
<text x="924.0000246" y="1365.9999579100001" width="104.99993807999999" height="31.00002024000014" class="text">statement </text>
<text x="1034.99999204" y="1365.9999579100001" width="22.000003919999926" height="31.00002024000014" class="text">to </text>
<text x="1067.99999792" y="1365.9999579100001" width="59.99996684000007" height="31.00002024000014" class="text">which </text>
<text x="1141.0000024400001" y="1365.9999579100001" width="17.0000468799999" height="31.00002024000014" class="text">it </text>
<text x="1163.99998532" y="1365.9999579100001" width="94.00002947999997" height="31.00002024000014" class="text">pertains</text>
<text x="1258.99999376" y="1365.9999579100001" width="9.00004403999992" height="31.00002024000014" class="text">. </text>
<text x="1273.99998936" y="1365.9999579100001" width="18.99997368000004" height="31.00002024000014" class="text">If
</text>
<text x="193.00000044" y="1396.99997815" width="46.00001243999998" height="27.99999342000001" class="text">more </text>
<text x="248.9999892" y="1396.99997815" width="65.00000168" height="29.000053740000112" class="text">space </text>
<text x="323.0000038" y="1395.99994352" width="19.99999932000003" height="28.00001911000004" class="text">is </text>
<text x="352.00000048" y="1395.99994352" width="75.00000912000002" height="28.00001911000004" class="text">needed</text>
<text x="433.00000783999997" y="1395.00003734" width="7.999971720000076" height="28.00001911000004" class="text">, </text>
<text x="445.99999884000005" y="1395.00003734" width="40.00001420000001" height="28.00001911000004" class="text">full </text>
<text x="495.99998936000003" y="1395.00003734" width="43.00002888" height="28.00001911000004" class="text">size </text>
<text x="550.9999836000001" y="1395.00003734" width="63.000028199999974" height="29.000079429999914" class="text">insert </text>
<text x="625.00001376" y="1393.99997702" width="68.00000079999995" height="28.000019109999812" class="text">sheets </text>
<text x="702.00001192" y="1393.99997702" width="39.99996751999993" height="28.000019109999812" class="text">may </text>
<text x="750.0000134" y="1393.00007084" width="25.999997559999997" height="27.99999342000001" class="text">be </text>
<text x="782.9999726" y="1393.00007084" width="54.99999423999998" height="27.99999342000001" class="text">used</text>
<text x="839.00003916" y="1393.00007084" width="7.999971719999962" height="27.99999342000001" class="text">,
</text>
<text x="185.99999212" y="1426.00005758" width="90.00000471999999" height="32.000080560000015" class="text">During </text>
<text x="290.99999243999997" y="1426.00005758" width="45.00000236000005" height="32.000080560000015" class="text">the </text>
<text x="354.99999959999997" y="1426.00005758" width="41.00000872000004" height="32.000080560000015" class="text">six </text>
<text x="416.9999866" y="1426.00005758" width="73.00000452" height="32.000080560000015" class="text">month </text>
<text x="506.00001235999997" y="1426.00005758" width="133.99999700000006" height="32.000080560000015" class="text">reporting </text>
<text x="660.00000868" y="1426.00005758" width="84.99998544000005" height="32.000080560000015" class="text">period</text>
<text x="754.00000704" y="1426.00005758" width="8.999997360000066" height="32.000080560000015" class="text">, </text>
<text x="776.0000109599999" y="1426.00005758" width="34.99999492000018" height="32.000080560000015" class="text">we </text>
<text x="825.9999859200001" y="1426.00005758" width="55.99998875999995" height="32.000080560000015" class="text">have </text>
<text x="902.0000206799999" y="1426.00005758" width="102.00001676000011" height="32.000080560000015" class="text">engaged </text>
<text x="1027.99998372" y="1426.00005758" width="24.000055199999906" height="32.000080560000015" class="text">in </text>
<text x="1072.99997052" y="1426.00005758" width="41.0000709599999" height="32.000080560000015" class="text">the </text>
<text x="1133.9999941199999" y="1426.00005758" width="134.0000436800001" height="32.000080560000015" class="text">following </text>
<text x="1285.99995472" y="1426.00005758" width="151.00009056" height="32.000080560000015" class="text">activities</text>
<text x="1442.00000232" y="1426.00005758" width="8.999966239999821" height="32.000080560000015" class="text">:
</text>
<text x="247.00000015999998" y="1456.0000175" width="133.99999700000004" height="31.00002024000014" class="text">Educating </text>
<text x="398.99997632" y="1456.0000175" width="44.00000784000002" height="31.00002024000014" class="text">the </text>
<text x="460.99999444" y="1456.0000175" width="91.99999375999994" height="31.00002024000014" class="text">travel </text>
<text x="567.00000484" y="1456.0000175" width="74.99999356000001" height="31.00002024000014" class="text">trade </text>
<text x="656.999994" y="1456.0000175" width="44.00000783999997" height="31.00002024000014" class="text">and </text>
<text x="719.0000121200001" y="1456.0000175" width="136.99996499999997" height="31.00002024000014" class="text">consumers </text>
<text x="869.99999376" y="1456.0000175" width="29.000012239999933" height="31.00002024000014" class="text">on </text>
<text x="917.00001628" y="1456.0000175" width="43.99999228000013" height="31.00002024000014" class="text">the </text>
<text x="979.0000188399999" y="1456.0000175" width="121.99998495999989" height="31.00002024000014" class="text">island's </text>
<text x="1119.00001408" y="1456.0000175" width="102.00001676000011" height="31.00002024000014" class="text">tourist </text>
<text x="1239.00004112" y="1456.0000175" width="106.9999737999999" height="31.00002024000014" class="text">product</text>
<text x="1350.00000856" y="1456.0000175" width="8.999966240000049" height="31.00002024000014" class="text">.
</text>
<text x="190.99999584" y="1479.00006898" width="6.000013800000005" height="21.999991160000036" class="text">2</text>
<text x="207.00000152" y="1479.00006898" width="5.999998239999968" height="21.999991160000036" class="text">. </text>
<text x="247.00000015999998" y="1485.99997742" width="149.99998712" height="31.00002024000014" class="text">Projecting </text>
<text x="414.99999756" y="1485.99997742" width="43.99999227999996" height="31.00002024000014" class="text">the </text>
<text x="473.00000648" y="1485.99997742" width="90.9999836799999" height="31.00002024000014" class="text">proper </text>
<text x="579.99999584" y="1485.99997742" width="76.99999816000002" height="31.00002024000014" class="text">image </text>
<text x="670.00000056" y="1485.99997742" width="34.99999491999995" height="31.00002024000014" class="text">of </text>
<text x="719.0000121200001" y="1485.99997742" width="74.99994687999992" height="31.00002024000014" class="text">Aruba </text>
<text x="813.0000416" y="1485.99997742" width="101.99992339999994" height="31.00002024000014" class="text">through </text>
<text x="931.9999963199999" y="1485.99997742" width="165.00001383999995" height="31.00002024000014" class="text">advertising </text>
<text x="1115.00002044" y="1485.99997742" width="43.999992280000015" height="31.00002024000014" class="text">and </text>
<text x="1177.000023" y="1485.99997742" width="118.99997027999984" height="31.00002024000014" class="text">releases </text>
<text x="1313.999988" y="1485.99997742" width="28.00004884000009" height="31.00002024000014" class="text">to
</text>
<text x="245.99999007999998" y="1513.99999653" width="44.00000784000002" height="23.999957660000064" class="text">the </text>
<text x="312.00000184000004" y="1513.99999653" width="68.99999531999998" height="23.999957660000064" class="text">media</text>
<text x="388.00000547999997" y="1513.99999653" width="6.999977200000046" height="23.999957660000064" class="text">.
</text>
<text x="192.00000592" y="1543.0000502700002" width="5.9999982399999965" height="20.000024660000236" class="text">3</text>
<text x="206.000007" y="1543.0000502700002" width="5.9999982399999965" height="20.000024660000236" class="text">. </text>
<text x="244.99999556" y="1549.9999844" width="151.99999171999997" height="32.99998673999994" class="text">Continuous </text>
<text x="412.000014" y="1549.9999844" width="105.99997927999999" height="32.99998673999994" class="text">contact </text>
<text x="535.0000246" y="1549.9999844" width="57.99996224000006" height="32.99998673999994" class="text">with </text>
<text x="609.99998704" y="1549.9999844" width="94.00002947999997" height="32.99998673999994" class="text">travel </text>
<text x="721.00000116" y="1549.9999844" width="101.00000667999996" height="32.99998673999994" class="text">related </text>
<text x="841.99996048" y="1549.9999844" width="197.00002519999998" height="32.99998673999994" class="text">organizations </text>
<text x="1059.00004724" y="1549.9999844" width="8.999950679999984" height="32.99998673999994" class="text">(</text>
<text x="1070.0000336399999" y="1549.9999844" width="138.99992292000002" height="32.99998673999994" class="text">wholesale </text>
<text x="1225.99998788" y="1549.9999844" width="42.00004992000004" height="32.99998673999994" class="text">and </text>
<text x="1288.99998496" y="1549.9999844" width="88.0000001200001" height="32.99998673999994" class="text">retail
</text>
<text x="244.99999556" y="1579.99994432" width="91.99999376" height="29.999959920000038" class="text">travel </text>
<text x="354.00000508" y="1579.99994432" width="117.99999131999999" height="29.999959920000038" class="text">agencies</text>
<text x="479.00000472" y="1579.99994432" width="8.999997360000009" height="29.999959920000038" class="text">, </text>
<text x="502.99999768" y="1579.99994432" width="106.99998935999997" height="29.999959920000038" class="text">charter </text>
<text x="627.00001836" y="1579.99994432" width="135.99998604000007" height="29.999959920000038" class="text">companies</text>
<text x="770.0000127200001" y="1579.99994432" width="8.999966239999935" height="29.999959920000038" class="text">, </text>
<text x="793.999959" y="1579.99994432" width="93.00006608000001" height="29.999959920000038" class="text">travel </text>
<text x="902.9999996399999" y="1579.99994432" width="73.00000452000006" height="29.999959920000038" class="text">press</text>
<text x="983.0000124800001" y="1579.99994432" width="8.99995067999987" height="29.999959920000038" class="text">, </text>
<text x="1006.99995876" y="1579.99994432" width="122.00007832000006" height="29.999959920000038" class="text">airlines</text>
<text x="1136.0000453999999" y="1579.99994432" width="8.999950680000211" height="29.999959920000038" class="text">, </text>
<text x="1159.99999168" y="1579.99994432" width="91.99999376000005" height="29.999959920000038" class="text">cruise</text>
<text x="1255.99997908" y="1579.99994432" width="9.00004403999992" height="29.999959920000038" class="text">-</text>
<text x="1269.0000167599999" y="1579.99994432" width="55.99997320000011" height="29.999959920000038" class="text">ship </text>
<text x="1343.9999792" y="1579.99994432" width="124.0000206799998" height="29.999959920000038" class="text">companies
</text>
<text x="192.00000592" y="1607.00005725" width="5.9999982399999965" height="23.00005148000014" class="text">4</text>
<text x="208.0000116" y="1607.00005725" width="5.999982680000016" height="23.00005148000014" class="text">. </text>
<text x="247.99999468000001" y="1610.9999645599999" width="190.99999583999997" height="31.999926419999838" class="text">Dissemination </text>
<text x="458.99998983999996" y="1610.9999645599999" width="29.000012240000046" height="31.999926419999838" class="text">of </text>
<text x="506.99999132000005" y="1610.9999645599999" width="106.00001039999995" height="31.999926419999838" class="text">special </text>
<text x="629.0000074" y="1610.9999645599999" width="166.00002392" height="31.999926419999838" class="text">promotional </text>
<text x="811.0000058800001" y="1610.9999645599999" width="135.00000707999993" height="31.999926419999838" class="text">brochures</text>
<text x="954.00000024" y="1610.9999645599999" width="8.999966240000049" height="31.999926419999838" class="text">, </text>
<text x="982.00003352" y="1610.9999645599999" width="104.99995364000006" height="31.999926419999838" class="text">posters</text>
<text x="1090.9999808" y="1610.9999645599999" width="9.000044040000148" height="31.999926419999838" class="text">, </text>
<text x="1118.0000351200001" y="1610.9999645599999" width="73.00000451999972" height="31.999926419999838" class="text">films </text>
<text x="1207.9999776" y="1610.9999645599999" width="44.99998679999999" height="31.999926419999838" class="text">and </text>
<text x="1273.0000103999998" y="1610.9999645599999" width="165.99997724000013" height="31.999926419999838" class="text">photographs</text>
<text x="1442.99998128" y="1610.9999645599999" width="9.000044040000148" height="31.999926419999838" class="text">.
</text>
<text x="192.00000592" y="1635.99995685" width="5.9999982399999965" height="20.999930839999934" class="text">5</text>
<text x="208.0000116" y="1635.99995685" width="5.999982680000016" height="20.999930839999934" class="text">. </text>
<text x="247.00000015999998" y="1643.9999513000002" width="149.00000816000002" height="31.000020240000367" class="text">Organizing </text>
<text x="416.00000764" y="1643.0000451199999" width="40.99999316000003" height="29.000053739999885" class="text">and </text>
<text x="477.00000012" y="1643.9999513000002" width="148.00001364000002" height="31.000020240000367" class="text">conducting </text>
<text x="645.00002864" y="1643.0000451199999" width="166.9999406400001" height="31.000020239999913" class="text">educational </text>
<text x="828.0000372000001" y="1641.9999848" width="118.99995472" height="29.999959920000038" class="text">seminars </text>
<text x="967.00005348" y="1640.99992448" width="40.999977599999966" height="28.999899599999935" class="text">and </text>
<text x="1027.99998372" y="1640.99992448" width="73.00002007999979" height="28.999899599999935" class="text">audio </text>
<text x="1116.9999627999998" y="1640.99992448" width="91.99999376000005" height="29.999959920000038" class="text">visual </text>
<text x="1224.00004552" y="1640.99992448" width="198.99998312000002" height="30.999866099999963" class="text">presentations
</text>
<text x="247.99999468000001" y="1673.00000504" width="42.99999775999996" height="29.999959920000038" class="text">for </text>
<text x="308.00000819999997" y="1673.00000504" width="91.99999376000005" height="29.999959920000038" class="text">travel </text>
<text x="412.000014" y="1673.00000504" width="91.99999375999994" height="29.999959920000038" class="text">agents</text>
<text x="510.99998496" y="1673.00000504" width="8.999997359999952" height="29.999959920000038" class="text">, </text>
<text x="535.0000246" y="1673.00000504" width="106.99997380000002" height="29.999959920000038" class="text">private </text>
<text x="658.00001964" y="1673.00000504" width="77.99997712000004" height="29.999959920000038" class="text">clubs </text>
<text x="752.00000244" y="1673.00000504" width="43.000028879999945" height="29.999959920000038" class="text">and </text>
<text x="811.9999692800001" y="1673.00000504" width="91.00003035999987" height="29.999959920000038" class="text">groups</text>
<text x="906.9999932799999" y="1673.00000504" width="9.000044040000034" height="29.999959920000038" class="text">.
</text>
<text x="189.0000068" y="1697.99999733" width="5.999998240000025" height="21.00005929000008" class="text">6</text>
<text x="208.0000116" y="1697.99999733" width="5.999982680000016" height="21.00005929000008" class="text">. </text>
<text x="247.00000015999998" y="1702.99999065" width="133.00000248" height="28.00001911000004" class="text">Answering </text>
<text x="401.999991" y="1702.99999065" width="133.00003359999994" height="28.999925289999965" class="text">inquiries </text>
<text x="552.00000924" y="1701.00002415" width="29.000012239999933" height="26.999958789999937" class="text">on </text>
<text x="598.00000612" y="1701.00002415" width="42.00000324000007" height="26.999958789999937" class="text">the </text>
<text x="660.99998764" y="1701.00002415" width="88.00000011999998" height="28.00001911000004" class="text">island </text>
<text x="765.9999724" y="1699.99996383" width="42.99998219999998" height="26.999958790000164" class="text">and </text>
<text x="826.9999648799999" y="1699.99996383" width="43.00002888000017" height="26.999958790000164" class="text">its </text>
<text x="890.0000397599999" y="1699.99996383" width="147.0000035600001" height="28.999899599999935" class="text">facilities</text>
<text x="1045.999994" y="1697.99999733" width="7.999987279999914" height="26.999933099999907" class="text">.
</text>
<text x="190.99999584" y="1730.99998407" width="6.000013800000005" height="21.999991160000036" class="text">7</text>
<text x="206.000007" y="1730.99998407" width="5.9999982399999965" height="21.999991160000036" class="text">. </text>
<text x="247.00000015999998" y="1735.9999516999999" width="195.00000504" height="31.999926420000065" class="text">Participating </text>
<text x="460.99999444" y="1734.00001089" width="27.9999866" height="29.000079429999914" class="text">in </text>
<text x="508.99998036" y="1734.00001089" width="91.00001480000003" height="31.00002024000014" class="text">travel </text>
<text x="616.0000163999999" y="1732.99995057" width="73.99998348000008" height="31.000020239999913" class="text">shows</text>
<text x="695.99998256" y="1732.00004439" width="8.000033959999882" height="29.000053740000112" class="text">.
</text>
<text x="190.99999584" y="1760.0000635" width="6.000013800000005" height="20.000050350000038" class="text">8</text>
<text x="207.00000152" y="1760.0000635" width="5.999998239999968" height="20.000050350000038" class="text">. </text>
<text x="244.99999556" y="1768.00003226" width="180.00002500000005" height="32.99998673999971" class="text">Coordinating </text>
<text x="445.00001987999997" y="1768.00003226" width="136.99996499999997" height="32.99998673999971" class="text">marketing </text>
<text x="598.00000612" y="1768.00003226" width="106.00001039999995" height="32.99998673999971" class="text">efforts </text>
<text x="715.00001848" y="1768.00003226" width="65.00001723999992" height="32.99998673999971" class="text">with </text>
<text x="795.00003132" y="1768.00003226" width="88.99997908" height="32.99998673999971" class="text">hotels </text>
<text x="902.0000206799999" y="1768.00003226" width="45.99995020000017" height="32.99998673999971" class="text">and </text>
<text x="964.00002324" y="1768.00003226" width="75.9999413999999" height="32.99998673999971" class="text">other </text>
<text x="1057.9999749199999" y="1768.00003226" width="104.00005248000002" height="32.99998673999971" class="text">tourist </text>
<text x="1178.9999809199999" y="1768.00003226" width="105.00003144000016" height="32.99998673999971" class="text">service </text>
<text x="1301.00004368" y="1768.00003226" width="121.99998495999989" height="32.99998673999971" class="text">organiza-
</text>
<text x="1376.99998508" y="1774.00006021" width="75.00004024000009" height="19.000118480000083" class="text">tions</text>
<text x="1460.0000126" y="1774.00006021" width="4.999972600000092" height="19.000118480000083" class="text">.
</text>
<text x="196.00001512000003" y="1810.99995426" width="37.99997847999998" height="29.999959920000038" class="text">The </text>
<text x="244.00000104" y="1810.99995426" width="130.00000335999997" height="31.999926420000065" class="text">undersigned </text>
<text x="385.00000636000004" y="1808.99998776" width="62.99998151999995" height="31.00002024000014" class="text">swear</text>
<text x="447.99998788" y="1808.99998776" width="9.000012920000017" height="29.999959920000038" class="text">(</text>
<text x="457.0000008" y="1808.99998776" width="8.999997359999952" height="29.999959920000038" class="text">s</text>
<text x="471.00001743999997" y="1807.99992744" width="8.999997360000066" height="29.999959920000038" class="text">) </text>
<text x="486.99997643999995" y="1807.99992744" width="22.00000392000004" height="29.999959920000038" class="text">or </text>
<text x="517.00001432" y="1807.99992744" width="60.99999248000006" height="30.999866099999963" class="text">affirm</text>
<text x="579.99999584" y="1807.99992744" width="8.999997359999952" height="29.999959920000038" class="text">(</text>
<text x="592.0000234400001" y="1807.00004695" width="8.999997359999952" height="29.999985610000067" class="text">s</text>
<text x="603.9999888" y="1807.00004695" width="9.000012920000017" height="29.999985610000067" class="text">) </text>
<text x="620.00001004" y="1807.00004695" width="40.999977599999966" height="29.999985610000067" class="text">that </text>
<text x="667.99999596" y="1807.00004695" width="27.999986600000057" height="29.999985610000067" class="text">he </text>
<text x="706.00000556" y="1805.99998663" width="37.99997847999998" height="29.99998560999984" class="text">has </text>
<text x="761.00001536" y="1805.99998663" width="45.000017920000005" height="29.99998560999984" class="text">they </text>
<text x="817.00003524" y="1804.9999263099999" width="48.99996488000011" height="29.99995991999981" class="text">have </text>
<text x="883.00003144" y="1804.9999263099999" width="45.999950199999944" height="29.99995991999981" class="text">read </text>
<text x="940.99996256" y="1804.00002013" width="34.00006264000001" height="29.999959920000038" class="text">the </text>
<text x="983.0000124800001" y="1804.00002013" width="124.0000206799998" height="32.000080560000015" class="text">information </text>
<text x="1116.9999627999998" y="1802.9999598099998" width="34.00007820000019" height="29.99995991999981" class="text">set </text>
<text x="1159.99999168" y="1802.00005363" width="47.0000225199999" height="30.000114059999987" class="text">forth </text>
<text x="1219.99995852" y="1802.00005363" width="17.000031320000062" height="30.000114059999987" class="text">in </text>
<text x="1250.00004308" y="1802.00005363" width="41.99995655999987" height="31.000020239999913" class="text">this
</text>
<text x="151.999996388" y="1846.0000359500002" width="119.99999125200003" height="35.000081690000115" class="text">amendment </text>
<text x="281.99999507999996" y="1844.99997563" width="37.000015080000026" height="32.99996105000014" class="text">and </text>
<text x="329.00000204" y="1844.99997563" width="41.99998767999995" height="32.99996105000014" class="text">that </text>
<text x="380.99999716" y="1844.99997563" width="24.000008519999938" height="34.00002137000001" class="text">he </text>
<text x="416.00000764" y="1843.99991531" width="18.000010280000026" height="32.99996104999991" class="text">is </text>
<text x="445.00001987999997" y="1843.99991531" width="8.999966239999992" height="32.99996104999991" class="text">(</text>
<text x="453.00000716000005" y="1843.99991531" width="42.99998219999998" height="32.99996104999991" class="text">they </text>
<text x="510.99998496" y="1843.99991531" width="28.000033280000025" height="32.99996104999991" class="text">are</text>
<text x="543.9999752800001" y="1843.99991531" width="9.000012919999904" height="32.99996104999991" class="text">) </text>
<text x="559.99999652" y="1843.00003482" width="85.00003212000001" height="34.00004706000004" class="text">familiar </text>
<text x="653.99997932" y="1843.00003482" width="44.00000783999997" height="32.99998674000017" class="text">with </text>
<text x="708.99998912" y="1843.00003482" width="32.99999031999994" height="34.00004706000004" class="text">the </text>
<text x="754.00000704" y="1843.00003482" width="92.00004044000002" height="35.000107380000145" class="text">contents </text>
<text x="852.9999624400001" y="1841.9999745" width="79.00003387999982" height="34.00004706000004" class="text">thereof </text>
<text x="942.0000348799999" y="1841.00006832" width="32.99999032000005" height="33.00014088000012" class="text">and </text>
<text x="988.9999484800001" y="1841.00006832" width="42.00004991999981" height="33.00014088000012" class="text">that </text>
<text x="1042.00000036" y="1841.00006832" width="44.99998679999999" height="34.00002137000001" class="text">such </text>
<text x="1100.0000248400002" y="1841.00006832" width="92.99997271999973" height="35.000081690000115" class="text">contents </text>
<text x="1207.0000142" y="1838.99994768" width="28.999996680000095" height="32.99996105000014" class="text">are </text>
<text x="1246.0000494399999" y="1838.99994768" width="18.99997368000004" height="32.99996105000014" class="text">in </text>
<text x="1276.0000250800001" y="1838.99994768" width="55.000009799999816" height="32.99996105000014" class="text">their
</text>
<text x="153.000004912" y="1871.0000282400001" width="82.99999328799998" height="27.99999342000001" class="text">entirety </text>
<text x="245.99999007999998" y="1869.99996792" width="42.00001880000002" height="26.999933099999907" class="text">true </text>
<text x="298.99999528" y="1869.99996792" width="34.000000399999976" height="27.99999342000001" class="text">and </text>
<text x="344.99999216000003" y="1869.99996792" width="93.99999835999995" height="28.999899599999935" class="text">accurate </text>
<text x="447.99998788" y="1868.00002711" width="20.000014880000037" height="26.999958789999937" class="text">to </text>
<text x="478.00002575999997" y="1868.00002711" width="33.999969280000016" height="26.999958789999937" class="text">the </text>
<text x="519.99998232" y="1866.99996679" width="48.000032600000054" height="26.999958789999937" class="text">best </text>
<text x="576.99998116" y="1866.99996679" width="25.00001860000009" height="26.999958789999937" class="text">of </text>
<text x="607.00000348" y="1866.99996679" width="29.999991199999954" height="28.000019109999812" class="text">his </text>
<text x="651.99999028" y="1866.00006061" width="8.00001839999993" height="27.000112929999887" class="text">(</text>
<text x="660.00000868" y="1866.00006061" width="50.999969480000004" height="27.000112929999887" class="text">their</text>
<text x="710.99997816" y="1866.00006061" width="8.00003396000011" height="27.000112929999887" class="text">) </text>
<text x="724.9999948000001" y="1866.00006061" width="116.99996567999995" height="29.000053740000112" class="text">knowledge </text>
<text x="850.0000411200001" y="1863.99996566" width="37.999962919999916" height="26.999958790000164" class="text">and </text>
<text x="899.000006" y="1863.99996566" width="65.00001724000003" height="28.999925290000192" class="text">belief</text>
<text x="961.9999875199999" y="1863.0000594800001" width="7.999987280000141" height="27.000112930000114" class="text">.
</text>
<text x="179.99999388" y="1963.99993482" width="5.9999982399999965" height="21.99996546999978" class="text">(</text>
<text x="185.99999212" y="1963.99993482" width="45.000017920000005" height="21.99996546999978" class="text">Both </text>
<text x="243.00000652000003" y="1963.00005433" width="60.999992479999975" height="21.999991160000036" class="text">copies </text>
<text x="314.99998539999996" y="1963.00005433" width="20.000014880000037" height="21.999991160000036" class="text">of </text>
<text x="340.000004" y="1963.00005433" width="34.999994920000006" height="21.999991160000036" class="text">this </text>
<text x="386.00000088" y="1963.00005433" width="109.99998848000001" height="24.000111800000013" class="text">amendment </text>
<text x="504.00000775999996" y="1961.99999401" width="49.99999052000004" height="23.00005147999991" class="text">shall </text>
<text x="561.0000066" y="1960.9999336899998" width="24.00000852000005" height="21.99999115999981" class="text">be </text>
<text x="590.9999978000001" y="1960.9999336899998" width="65.00001723999992" height="21.99999115999981" class="text">signed </text>
<text x="667.000017" y="1960.0000275099999" width="34.99999492000006" height="21.99999115999981" class="text">and </text>
<text x="708.00001016" y="1960.0000275099999" width="54.99999424000009" height="21.99999115999981" class="text">sworn
</text>
<text x="156.00000092000002" y="1989.99998743" width="16.000005679999987" height="21.999965470000006" class="text">to </text>
<text x="181.00000396000002" y="1989.99998743" width="59.00000344" height="23.999931970000034" class="text">before </text>
<text x="252.9999984" y="1988.9999528" width="5.9999982399999965" height="21.999991160000036" class="text">a </text>
<text x="268.99998852" y="1988.9999528" width="61.00002360000002" height="23.999957660000064" class="text">notary </text>
<text x="339.00000948" y="1988.0000466200001" width="58.999987879999935" height="23.00005148000014" class="text">public </text>
<text x="409.99997828" y="1986.9999863" width="19.999999319999972" height="21.999991160000036" class="text">or </text>
<text x="436.00002252" y="1986.9999863" width="49.99999052000004" height="23.00005148000014" class="text">other </text>
<text x="491.99999571999996" y="1986.9999863" width="65.00001724000009" height="23.999931970000034" class="text">person </text>
<text x="567.00000484" y="1985.99992598" width="106.00001040000006" height="23.999931970000034" class="text">authorized </text>
<text x="678.00001896" y="1983.9999594800001" width="19.9999681999999" height="21.999965470000234" class="text">to </text>
<text x="708.99998912" y="1983.9999594800001" width="19.99999932000003" height="21.999965470000234" class="text">ad-
</text>
<text x="161.00000464" y="2015.00000541" width="74.99999356000001" height="23.00005148000014" class="text">minister </text>
<text x="245.99999007999998" y="2013.99994509" width="51.00001616000003" height="22.999897339999734" class="text">oaths </text>
<text x="306.0000036" y="2013.99994509" width="19.99998376000002" height="22.999897339999734" class="text">by </text>
<text x="335.9999948" y="2013.99994509" width="30.000006759999962" height="22.999897339999734" class="text">the </text>
<text x="377.00000352" y="2013.99994509" width="52.99997407999996" height="23.999957660000064" class="text">agent</text>
<text x="431.00000323999996" y="2013.00003891" width="5.999982680000016" height="23.00005148000014" class="text">, </text>
<text x="447.00002448000004" y="2013.00003891" width="12.999990999999909" height="23.00005148000014" class="text">if </text>
<text x="467.0000238" y="2013.00003891" width="29.999975640000002" height="23.00005148000014" class="text">the </text>
<text x="506.00001235999997" y="2013.00003891" width="99.00000208" height="24.99999228999991" class="text">registrant </text>
<text x="609.0000080799999" y="2011.99997859" width="19.99999932000003" height="23.00002578999988" class="text">is </text>
<text x="638.00002032" y="2011.99997859" width="21.999988359999975" height="23.00002578999988" class="text">an </text>
<text x="669.0000216" y="2013.00003891" width="99.99998104000008" height="24.99999228999991" class="text">individual</text>
<text x="772.00001732" y="2011.99997859" width="5.999982680000016" height="23.00002578999988" class="text">,
</text>
<text x="155.000001732" y="2042.9999988299999" width="20.999998508000004" height="23.00002578999988" class="text">or </text>
<text x="183.00000856" y="2042.9999988299999" width="19.99998376000002" height="23.999931969999807" class="text">by </text>
<text x="215.99998331999998" y="2041.99993851" width="6.000013800000005" height="22.999871649999932" class="text">a </text>
<text x="237.99998724" y="2041.99993851" width="75.00000912000002" height="23.999931970000034" class="text">majority </text>
<text x="323.0000038" y="2041.0000580199999" width="20.999993840000002" height="23.00005147999991" class="text">of </text>
<text x="347.99999128" y="2041.0000580199999" width="56.00000431999996" height="25.00001797999971" class="text">those </text>
<text x="407.99998924000005" y="2039.9999977000002" width="82.00000187999996" height="23.999957660000064" class="text">partners</text>
<text x="491.99999571999996" y="2038.99993738" width="5.999982680000016" height="22.999897339999734" class="text">, </text>
<text x="506.99999132000005" y="2038.99993738" width="74.9999935599999" height="23.999931969999807" class="text">officers</text>
<text x="585.99997852" y="2038.0000312000002" width="6.00004492000005" height="23.00002579000011" class="text">, </text>
<text x="599.99999516" y="2038.0000312000002" width="88.00000011999998" height="24.999992290000137" class="text">directors </text>
<text x="697.9999871599999" y="2036.9999708799999" width="21.000024960000133" height="23.00002578999988" class="text">or
</text>
<text x="154.00000409999998" y="2069.99995762" width="78.00000046000002" height="25.999898469999835" class="text">persons </text>
<text x="237.99998724" y="2069.00005144" width="105.00001588000003" height="26.00005261000001" class="text">performing </text>
<text x="354.99999959999997" y="2067.99999112" width="68.99999532000004" height="26.000052609999784" class="text">similar </text>
<text x="431.00000323999996" y="2066.99995649" width="88.99997908" height="25.999898470000062" class="text">functions </text>
<text x="528.00001628" y="2066.00005031" width="37.99996292000003" height="24.999992290000137" class="text">who </text>
<text x="574.9999765599999" y="2064.99998999" width="27.0000232000001" height="23.999931970000034" class="text">are </text>
<text x="614.0000118" y="2064.99998999" width="17.9999636" height="23.999931970000034" class="text">in </text>
<text x="640.00000936" y="2063.99992967" width="31.000001279999992" height="23.99993196999958" class="text">the </text>
<text x="682.0000126" y="2063.99992967" width="64.00000716" height="25.999898469999607" class="text">United
</text>
<text x="156.99999544" y="2093.0000091" width="61.00000804000004" height="23.000051480000366" class="text">States</text>
<text x="218.00000348000003" y="2093.0000091" width="5.99999823999994" height="23.000051480000366" class="text">, </text>
<text x="233.9999936" y="2093.0000091" width="13.000006559999974" height="23.000051480000366" class="text">if </text>
<text x="256.99999204" y="2091.99994878" width="30.00000676000002" height="22.99989734000019" class="text">the </text>
<text x="292.99999704000004" y="2091.99994878" width="97.99999200000002" height="22.99989734000019" class="text">registrant </text>
<text x="398.99997632" y="2091.99994878" width="17.000031320000005" height="22.99989734000019" class="text">is </text>
<text x="425.99999951999996" y="2091.99994878" width="21.000024960000076" height="22.99989734000019" class="text">an </text>
<text x="454.9999962" y="2091.99994878" width="123.00001060000005" height="24.999992290000137" class="text">organization</text>
<text x="579.00001688" y="2091.0000426" width="5.999998240000082" height="23.000051480000366" class="text">.</text>
<text x="588.9999932" y="2091.0000426" width="5.999998240000082" height="23.000051480000366" class="text">)
</text>
<text x="866.9999790799999" y="2019.00006686" width="76.00001920000022" height="27.000112930000114" class="text">Willy </text>
<text x="958.9999728399999" y="2019.00006686" width="95.00000843999999" height="28.000019109999812" class="text">Walter </text>
<text x="1071.0000126" y="2018.00000654" width="58.00002448000009" height="26.99995878999971" class="text">CHAI </text>
<text x="1151.000041" y="2018.00000654" width="7.999971720000076" height="26.99995878999971" class="text">(</text>
<text x="1162.0000274" y="2018.00000654" width="121.00000599999998" height="28.00001911000004" class="text">Director</text>
<text x="1288.99998496" y="2016.99994622" width="7.999971720000076" height="26.999958790000164" class="text">)
</text>
<text x="869.0000148" y="2080.9999531999997" width="107.99996832" height="23.999957659999836" class="text">October </text>
<text x="997.0000291199999" y="2080.00004702" width="5.999936000000162" height="23.00005147999991" class="text">9</text>
<text x="1015.0000394" y="2080.00004702" width="5.999936000000048" height="23.00005147999991" class="text">, </text>
<text x="1042.99997932" y="2078.9999867" width="55.00000980000004" height="23.00002579000011" class="text">1979
</text>
<text x="157.99998996" y="2175.9999804199997" width="118.00000688" height="25.000017979999484" class="text">Subscribed </text>
<text x="289.0000034" y="2175.9999804199997" width="35.99998943999998" height="25.000017979999484" class="text">and </text>
<text x="332.99999568" y="2175.9999804199997" width="61.99998700000003" height="25.000017979999484" class="text">sworn </text>
<text x="407.00001028" y="2175.9999804199997" width="18.000010280000026" height="25.000017979999484" class="text">to </text>
<text x="436.00002252" y="2175.9999804199997" width="66.99997515999996" height="25.000017979999484" class="text">before </text>
<text x="517.99999328" y="2175.9999804199997" width="23.000013999999965" height="25.000017979999484" class="text">me </text>
<text x="553.99999828" y="2175.9999804199997" width="18.99998923999999" height="25.000017979999484" class="text">at
</text>
<text x="636.99999468" y="2214.99996942" width="25.999997559999997" height="107.99996361000012" class="text">or </text>
<text x="693.00001456" y="2220.99999737" width="81.99997076" height="110.99999043000025" class="text">Joh
</text>
<text x="587.00000416" y="2172.9999536" width="58.00002447999998" height="53.00001139999995" class="text">New
</text>
<text x="156.99999544" y="2266.00001432" width="42.000003239999984" height="53.00001139999995" class="text">this </text>
<text x="220.00000808000001" y="2261.99995287" width="31.000001279999992" height="51.999951079999846" class="text">11 </text>
<text x="274.0000078" y="2258.99995174" width="39.99998307999999" height="53.0000114000004" class="text">day </text>
<text x="326.99999744" y="2255.99992492" width="21.999988359999975" height="51.9999510800003" class="text">of </text>
<text x="364.00001252" y="2253.9999841100002" width="193.9999794000001" height="62.00004048000028" class="text">October
</text>
<text x="153.000004912" y="2347.99995101" width="36.000001887999986" height="61.00000584999998" class="text">My </text>
<text x="198.00000416" y="2345.9999845099996" width="126.99998868" height="65.99994778999962" class="text">commission </text>
<text x="326.99999744" y="2341.00001688" width="88.00000011999998" height="64.00000698000031" class="text">expires </text>
<text x="434.00001792" y="2336.9999554299998" width="134.99997596000003" height="65.99997347999988" class="text">march </text>
<text x="596.99998048" y="2330.0000213000003" width="36.00002056000005" height="60.99998016000063" class="text">30</text>
<text x="631.9999754" y="2328.0000548000003" width="20.00001487999998" height="60.99998016000018" class="text">, </text>
<text x="660.00000868" y="2327.00002017" width="82.99999639999999" height="64.00000697999985" class="text">1979
</text>
<text x="1008.00003108" y="2153.99998926" width="65.99999619999983" height="23.999957659999836" class="text">FRANK </text>
<text x="1086.99998716" y="2150.99996244" width="88.99996351999994" height="24.999992290000137" class="text">BENDINE
</text>
<text x="925.99996696" y="2183.99994918" width="64.00005383999996" height="26.999958790000164" class="text">Notary </text>
<text x="1010.9999524" y="2180.00004187" width="45.00006460000009" height="26.00005261000024" class="text">vedic</text>
<text x="1060.9999896000002" y="2177.00001505" width="7.000008319999779" height="23.00002579000011" class="text">, </text>
<text x="1071.0000126" y="2175.9999804199997" width="48.99996488000011" height="25.999898469999607" class="text">State </text>
<text x="1130.99997944" y="2172.9999536" width="27.000069879999955" height="23.999931970000034" class="text">of </text>
<text x="1160.99997064" y="2172.00004742" width="39.99999864000006" height="26.00005261000024" class="text">New </text>
<text x="1218.0000161599999" y="2169.0000462900002" width="37.999962920000144" height="26.00005261000024" class="text">York
</text>
<text x="1020.000012" y="2200.99997271" width="37.999962919999916" height="23.00005147999991" class="text">No. </text>
<text x="1065.9999622" y="2199.0000062100003" width="99.00000208000006" height="26.00005261000024" class="text">03-8545250
</text>
<text x="931.0000329200001" y="2228.99996613" width="85.99994883999989" height="27.99999342000001" class="text">Qualified </text>
<text x="1030.000035" y="2225.00005882" width="13.999923279999848" height="24.00008611000021" class="text">in </text>
<text x="1056.000017" y="2223.9999985" width="126.99994199999992" height="29.000053740000112" class="text">Westchester </text>
<text x="1192.0000186" y="2219.00003087" width="67.99995412000021" height="27.99999342000001" class="text">County
</text>
<text x="946.9999919200001" y="2253.9999841100002" width="47.0000225199999" height="28.999925290000192" class="text">Term </text>
<text x="1005.99999536" y="2252.0000176099998" width="73.00000451999995" height="29.999959920000038" class="text">Expires </text>
<text x="1087.9999505600001" y="2250.0000511099997" width="58.000024479999865" height="30.00011405999976" class="text">March </text>
<text x="1156.999977" y="2247.00004998" width="21.000024960000246" height="28.000019109999812" class="text">30</text>
<text x="1180.00003768" y="2247.00004998" width="8.999966239999821" height="27.000112929999887" class="text">, </text>
<text x="1195.00003328" y="2245.99998966" width="20.999931599999854" height="28.000019110000267" class="text">19
</text>
<text x="957.0000149199999" y="2269.0000411399997" width="5.999951560000113" height="21.00008497999943" class="text">(</text>
<text x="964.00002324" y="2269.0000411399997" width="64.99993943999993" height="23.000051479999456" class="text">Notary </text>
<text x="1042.00000036" y="2267.99998082" width="19.999968199999785" height="21.99999115999981" class="text">or </text>
<text x="1070.0000336399999" y="2267.99998082" width="51.99999512000022" height="23.00005147999991" class="text">other </text>
<text x="1125.0000434400001" y="2267.00007464" width="67.99995411999976" height="23.00005147999991" class="text">officer</text>
<text x="1195.00003328" y="2264.999954" width="5.999935999999934" height="20.999930839999706" class="text">)
</text>
<text x="669.0000216" y="2255.99992492" width="84.99998544000005" height="46.999983449999945" class="text">1975
</text>
<text x="1141.9999814" y="2323.99999335" width="211.00004184" height="84.99993782000001" class="text">Reine
</text>
<text x="1324.99998996" y="2356.00007391" width="40.99999316000003" height="21.000084980000338" class="text">DOJ
</text>
</g>
</svg>
