<svg xmlns="http://www.w3.org/2000/svg">
<style>.text { font-size: 14px; font-family: Arial, sans-serif; }</style>
<g id="page-0" transform="translate(0, 0)">
<rect width="1758" height="2274" fill="none" stroke="black" />
<text x="92.00000056799999" y="152.00000645400002" width="57.00000318000002" height="31.000004832000016" class="text">U.S. </text>
<text x="151.99999734600001" y="152.00000645400002" width="148.99999847399997" height="33.000006024" class="text">Department </text>
<text x="303.0000021" y="149.99999844" width="29.000003160000006" height="30.99999801" class="text">of </text>
<text x="334.00001154" y="149.99999844" width="84.00000005999999" height="32.999996928000016" class="text">Justice
</text>
<text x="93.999999816" y="195.000004794" width="144.99999470399996" height="37.00000613400002" class="text">Washington</text>
<text x="245.00001336" y="192.000007554" width="9.999996240000002" height="33.000006024000015" class="text">, </text>
<text x="255.0000096" y="192.000007554" width="49.99999878" height="35.00001403800002" class="text">DC </text>
<text x="312.99999834" y="191.000004684" width="68.00000255999998" height="34.99999811999999" class="text">20530
</text>
<text x="879.99996798" y="141.000002172" width="160.99999572000013" height="35.000007215999986" class="text">Amendment </text>
<text x="1045.000029" y="139.00000098" width="23.999952299999904" height="32.00000088" class="text">to </text>
<text x="1077.99995682" y="139.00000098" width="149.00002835999976" height="35.000004942000004" class="text">Registration </text>
<text x="1240.000026" y="137.000002062" width="127.99998000000005" height="33.00000602399999" class="text">Statement
</text>
<text x="1424.99997402" y="121.999995396" width="42.999976799999786" height="17.999999357999997" class="text">OMB </text>
<text x="1475.00000796" y="121.999995396" width="29.99993597999992" height="17.999999357999997" class="text">No. </text>
<text x="1509.0000092399998" y="121.999995396" width="73.00001826000016" height="18.999995405999996" class="text">1105-0004
</text>
<text x="1427.00001546" y="148.999993296" width="74.99993663999999" height="23.999991564000013" class="text">Approval </text>
<text x="1503.99999354" y="148.000006344" width="59.99997743999984" height="24.00000975600001" class="text">Expires </text>
<text x="1569.99995466" y="145.99999833" width="35.0000571600001" height="24.00000293400001" class="text">Oct. </text>
<text x="1608.00000366" y="144.999993186" width="17.000000640000053" height="21.99999264600001" class="text">31</text>
<text x="1625.0000043" y="144.00000623399998" width="5.999983680000014" height="22.00001083799998" class="text">, </text>
<text x="1636.99997166" y="144.999993186" width="33.00005087999989" height="23.999991564000013" class="text">1986
</text>
<text x="884.99998368" y="183.00000219" width="107.99998751999999" height="34.00000889399999" class="text">Pursuant </text>
<text x="995.99996304" y="181.99999932" width="18.00005651999993" height="32.00000087999999" class="text">to </text>
<text x="1025.0000365199999" y="180.999994176" width="34.99995168000032" height="32.00000087999999" class="text">the </text>
<text x="1062.9999976200002" y="180.999994176" width="86.0000590799998" height="33.99999297599999" class="text">Foreign </text>
<text x="1159.0000002" y="180.000007224" width="79.00000193999995" height="34.00000889399999" class="text">Agents </text>
<text x="1240.99999398" y="179.00000208" width="146.0000365200001" height="34.00000889399999" class="text">Registration </text>
<text x="1395.00003804" y="176.999994066" width="40.999952940000185" height="32.00000087999999" class="text">Act </text>
<text x="1438.00001484" y="176.999994066" width="28.999985580000157" height="32.00000087999999" class="text">of </text>
<text x="1467.9999508199999" y="176.999994066" width="52.00007538" height="33.999992976000016" class="text">1938</text>
<text x="1520.0000261999999" y="176.000007114" width="8.999975520000135" height="32.000000880000016" class="text">, </text>
<text x="1534.000035" y="176.000007114" width="28.999967999999853" height="32.000000880000016" class="text">as </text>
<text x="1565.00002686" y="176.000007114" width="105.99994607999997" height="34.00000889399999" class="text">amended
</text>
<text x="96.999998688" y="321.9999918" width="23.999994492" height="30.999986639999918" class="text">1. </text>
<text x="132.00000486599998" y="321.9999918" width="77.99998649400001" height="30.999986639999918" class="text">Name </text>
<text x="217.9999989" y="321.9999918" width="23.99998746" height="30.999986639999918" class="text">of </text>
<text x="245.00001336" y="321.9999918" width="133.99998126" height="30.999986639999918" class="text">Registrant
</text>
<text x="898.0000245" y="315.99999732" width="25.99997615999996" height="33.999983879999945" class="text">2. </text>
<text x="932.0000257800001" y="315.99999732" width="152.99998817999983" height="37.99999535999996" class="text">Registration </text>
<text x="1090.99999764" y="313.00000008" width="53.99999376000005" height="36.00001236000003" class="text">No.
</text>
<text x="224.99998572" y="403.00000824" width="100.00001513999999" height="32.00000087999996" class="text">CHINA </text>
<text x="346.00001406" y="401.0000025" width="101.99998626000001" height="31.000009379999995" class="text">DAILY </text>
<text x="466.00002168" y="398.99999676" width="244.99997820000004" height="32.99999237999998" class="text">DISTRIBUTION </text>
<text x="737.99999676" y="395.00000802" width="77.99998122" height="31.000009379999995" class="text">CORP</text>
<text x="826.9999949400001" y="393.00000228" width="8.000007539999956" height="29.00000363999999" class="text">.
</text>
<text x="1026.0000045000002" y="388.9999908" width="82.9999617599999" height="30.999986639999975" class="text">3457
</text>
<text x="98.999997936" y="495.9999909" width="25.000002906000006" height="32.99999238000004" class="text">3. </text>
<text x="138.000004368" y="495.9999909" width="50.99999137200001" height="33.99998388" class="text">This </text>
<text x="194.999997" y="495.9999909" width="153.00002333999998" height="34.99999812000004" class="text">amendment </text>
<text x="354.99998958" y="494.0000079" width="18.000021360000062" height="33.00001512000006" class="text">is </text>
<text x="383.99999274" y="494.0000079" width="49.99999878" height="34.00000662000002" class="text">filed </text>
<text x="446.9999796" y="492.99999366000003" width="19.000042079999957" height="32.99999238000004" class="text">to </text>
<text x="477.99998903999995" y="492.99999366000003" width="137.00000826000007" height="34.99999812000004" class="text">accomplish </text>
<text x="628.99998852" y="492.00000216" width="38.000013840000065" height="32.99999238000004" class="text">the </text>
<text x="675.0000099" y="492.00000216" width="113.00000322000005" height="34.99999812000004" class="text">following </text>
<text x="795.9999855" y="491.00001066000004" width="113.00005596000005" height="35.00002086000006" class="text">indicated </text>
<text x="920.0000584200001" y="489.99999642" width="97.99992095999994" height="34.99999812000004" class="text">purpose </text>
<text x="1029.99994674" y="489.00000492000004" width="24.000057779999906" height="33.00001512000006" class="text">or </text>
<text x="1062.9999976200002" y="489.00000492000004" width="109.99999379999986" height="34.99999812000004" class="text">purposes</text>
<text x="1172.99999142" y="487.99999068" width="8.999993099999983" height="32.99999238000004" class="text">:
</text>
<text x="128.999998962" y="567.00000138" width="9.000005405999985" height="32.99999237999998" class="text">☑ </text>
<text x="173.00000351399999" y="566.00000988" width="28.999997886000017" height="33.000015119999944" class="text">To </text>
<text x="213.00000078" y="567.00000138" width="87.00000948000002" height="34.99999811999999" class="text">correct </text>
<text x="306.9999795" y="564.9999956400001" width="9.000010680000003" height="32.999992380000094" class="text">a </text>
<text x="327.9999927" y="566.00000988" width="124.00002017999998" height="35.00002085999995" class="text">deficiency </text>
<text x="462.00000911999996" y="564.00000414" width="18.99997176000005" height="33.000015119999944" class="text">in
</text>
<text x="887.00002512" y="556.99999542" width="8.99997552000002" height="32.99999237999998" class="text">☐ </text>
<text x="926.0000421000001" y="556.00000392" width="23.99995229999979" height="33.00001512000006" class="text">To </text>
<text x="961.99996176" y="556.00000392" width="48.000010079999925" height="34.00000662000002" class="text">give </text>
<text x="1023.0000126599999" y="554.99998968" width="8.99997552000002" height="32.99999237999998" class="text">a </text>
<text x="1043.00000514" y="554.99998968" width="17.99995104000004" height="32.99999237999998" class="text">10</text>
<text x="1065.99998946" y="554.99998968" width="8.999975519999907" height="32.99999237999998" class="text">-</text>
<text x="1077.99995682" y="554.99998968" width="42.00000881999995" height="33.999983879999945" class="text">day </text>
<text x="1125.9999669" y="554.99998968" width="75.00004211999999" height="34.99999811999999" class="text">notice </text>
<text x="1209.99998454" y="553.00000668" width="24.000057780000134" height="33.000015119999944" class="text">of </text>
<text x="1240.99999398" y="553.00000668" width="8.999975519999907" height="33.000015119999944" class="text">a </text>
<text x="1258.99994502" y="553.00000668" width="87.00002705999987" height="34.99999811999987" class="text">change </text>
<text x="1356.00002106" y="551.99999244" width="18.99991901999988" height="32.99999237999998" class="text">in </text>
<text x="1387.0000305" y="551.99999244" width="141.00000323999984" height="35.99998961999995" class="text">information </text>
<text x="1540.0000186799998" y="550.00000944" width="23.999952300000132" height="34.00000661999991" class="text">as </text>
<text x="1568.9999866800001" y="550.00000944" width="104.00002769999992" height="34.99999811999999" class="text">required
</text>
<text x="887.00002512" y="589.9999878" width="28.000000020000016" height="29.99999514000001" class="text">by </text>
<text x="926.0000421000001" y="589.9999878" width="87.99997745999985" height="31.99997813999994" class="text">Section </text>
<text x="1026.9999549" y="588.0000048" width="9.000098579999985" height="29.99999514000001" class="text">2</text>
<text x="1039.00004532" y="588.0000048" width="8.999975519999907" height="29.99999514000001" class="text">(</text>
<text x="1051.0000126799998" y="588.0000048" width="8.999975520000362" height="29.99999514000001" class="text">b</text>
<text x="1068.9999813" y="588.0000048" width="8.999975520000135" height="29.99999514000001" class="text">) </text>
<text x="1085.00001396" y="588.0000048" width="28.000000020000016" height="31.00000938000005" class="text">of </text>
<text x="1116.9999738000001" y="586.99999056" width="38.00006657999984" height="29.99999514000001" class="text">the </text>
<text x="1167.99997572" y="586.99999056" width="42.99997680000001" height="32.000000880000016" class="text">Act</text>
<text x="1209.99998454" y="586.0000218" width="8.999993099999983" height="30.000017879999973" class="text">.
</text>
<text x="173.00000351399999" y="628.9999974" width="6.999981546000015" height="24.99999215999992" class="text">☐ </text>
<text x="209.99999136" y="628.9999974" width="74.00000381999999" height="26.00000639999996" class="text">Initial </text>
<text x="289.99999644" y="628.9999974" width="129.99998627999997" height="26.999975160000076" class="text">Statement
</text>
<text x="173.00000351399999" y="704.99998812" width="9.999990966000013" height="33.99998388000006" class="text">☑ </text>
<text x="209.0000058" y="704.99998812" width="175.99999007999998" height="36.99998112000003" class="text">Supplemental </text>
<text x="389.999994" y="703.0000051200001" width="127.00001201999999" height="37.00002660000018" class="text">Statement </text>
<text x="524.00001042" y="701.0000221199999" width="32.99998056000004" height="35.000043600000026" class="text">for </text>
<text x="576.9999834600001" y="700.00000788" width="84.00003521999997" height="36.00001236000003" class="text">Oct. </text>
<text x="682.0000143" y="698.9999936400001" width="37.99996109999995" height="34.9999981200001" class="text">19</text>
<text x="726.9999798" y="697.9999794" width="10.000048979999974" height="33.99998388000006" class="text">, </text>
<text x="764.00002566" y="697.9999794" width="79.00000194000006" height="35.99996687999999" class="text">1984 </text>
<text x="890.00001696" y="695.9999964000001" width="9.999943499999858" height="33.99998388000006" class="text">☐ </text>
<text x="926.0000421000001" y="695.9999964000001" width="70.99997682000003" height="36.00001236000014" class="text">Other </text>
<text x="1005.0000440399999" y="694.9999821600001" width="96.00000258" height="35.9999668800001" class="text">purpose </text>
<text x="1110.9999901200001" y="692.9999991599999" width="10.000048979999974" height="33.999983879999945" class="text">(</text>
<text x="1124.99999892" y="694.0000134" width="73.00001825999993" height="36.000012359999914" class="text">specify</text>
<text x="1203.0000328800002" y="691.9999849200001" width="9.999943499999745" height="33.99998388000006" class="text">)</text>
<text x="1217.00004168" y="691.9999849200001" width="9.999943499999745" height="33.99998388000006" class="text">.
</text>
<text x="140.999997966" y="807.9999994799999" width="9.00000716400001" height="32.0000008799999" class="text">☐ </text>
<text x="176.99999322" y="806.99998524" width="29.000003160000006" height="32.000000880000016" class="text">To </text>
<text x="217.9999989" y="806.99998524" width="45.000000659999984" height="32.000000880000016" class="text">give </text>
<text x="276.00000522" y="806.99998524" width="73.00000068000003" height="33.99998388000006" class="text">notice </text>
<text x="361.99999398" y="805.00000224" width="23.000001899999972" height="32.000000880000016" class="text">of </text>
<text x="394.00000656000003" y="805.00000224" width="83.99998247999991" height="33.000015119999944" class="text">change </text>
<text x="485.99999657999996" y="803.9999879999999" width="23.000001900000086" height="32.0000008799999" class="text">in </text>
<text x="519.99999786" y="803.9999879999999" width="28.999967999999967" height="32.0000008799999" class="text">an </text>
<text x="558.0000117" y="803.9999879999999" width="90.99996929999998" height="33.999983879999945" class="text">exhibit </text>
<text x="658.00002684" y="803.00001924" width="126.99994170000002" height="34.0000293600001" class="text">previously </text>
<text x="795.00001752" y="800.99999076" width="51.000001920000045" height="33.999983879999945" class="text">filed</text>
<text x="847.99999056" y="800.000022" width="8.999993099999983" height="32.0000008799999" class="text">.
</text>
<text x="1362.99997272" y="819.0000196799999" width="27.000049620000027" height="34.000029359999985" class="text">U.S
</text>
<text x="1449.0000318" y="789.0000018" width="42.99997680000001" height="43.00002108000001" class="text">SEP </text>
<text x="1449.0000318" y="838.0000173599999" width="42.99997680000001" height="32.0000008799999" class="text">27
</text>
<text x="1607.00005326" y="822.00001692" width="30.999991860000137" height="65.00001599999996" class="text">INTE
</text>
<text x="102.999999948" y="912.99999384" width="30.999997133999997" height="33.00001512000006" class="text">4. </text>
<text x="143.000002488" y="911.9999796" width="18.00000202199999" height="32.999969639999904" class="text">If </text>
<text x="167.000004012" y="911.9999796" width="45.99999676799999" height="33.999983879999945" class="text">this </text>
<text x="219.99998760000003" y="911.9999796" width="153.00002334" height="35.99996687999999" class="text">amendment </text>
<text x="378.00000906" y="909.9999965999999" width="103.99999254" height="34.99999811999987" class="text">requires </text>
<text x="491.99999784" y="908.0000136" width="37.9999962600001" height="33.000015119999944" class="text">the </text>
<text x="538.00001922" y="908.0000136" width="63.99998999999991" height="34.99999811999999" class="text">filing </text>
<text x="611.9999878799999" y="906.99999936" width="25.000025760000085" height="33.000015119999944" class="text">of </text>
<text x="642.99999732" y="906.99999936" width="8.999975519999907" height="33.000015119999944" class="text">a </text>
<text x="664.00001052" y="906.99999936" width="128.99998314000004" height="34.99999811999999" class="text">document </text>
<text x="795.9999855" y="905.00001636" width="29.999988720000033" height="33.00001512000006" class="text">or </text>
<text x="833.99999934" y="905.00001636" width="132.00002771999993" height="36.00001236000003" class="text">documents</text>
<text x="966.9999774600001" y="902.9999878799999" width="8.99999309999987" height="32.999969639999904" class="text">, </text>
<text x="985.00005156" y="902.9999878799999" width="73.99998624" height="34.99999811999999" class="text">please </text>
<text x="1068.9999813" y="902.00001912" width="39.99998496000012" height="34.0000293600001" class="text">list-
</text>
<text x="1449.0000318" y="959.00001216" width="40.99995293999996" height="78.0000192" class="text">107 </text>
<text x="1450.99996776" y="1000.00000476" width="41.00004084000011" height="36.00001236000003" class="text">PH
</text>
<text x="108.99999945" y="1083.0000042" width="24.99999763199999" height="33.999983879999945" class="text">5. </text>
<text x="144.999994704" y="1083.0000042" width="57.000006696000014" height="36.0000123599998" class="text">Each </text>
<text x="216.99999576" y="1081.99998996" width="52.000005060000035" height="36.00001236000003" class="text">item </text>
<text x="278.99999706" y="1081.0000212" width="97.00000571999999" height="36.00001236000003" class="text">checked </text>
<text x="385.99999902" y="1080.00000696" width="74.99998937999999" height="36.00001236000003" class="text">above </text>
<text x="477.99998903999995" y="1078.99999272" width="56.000017619999994" height="36.0000123599998" class="text">must </text>
<text x="542.9999821800001" y="1077.99997848" width="31.000009439999985" height="34.99999811999987" class="text">be </text>
<text x="579.9999753" y="1077.99997848" width="122.99999946000003" height="35.999966879999874" class="text">explained </text>
<text x="713.00002374" y="1075.99999548" width="68.00000255999998" height="36.00001236000003" class="text">below </text>
<text x="795.9999855" y="1074.99998124" width="19.99999248000006" height="33.999983879999945" class="text">in </text>
<text x="829.9999867800001" y="1074.0000124800001" width="43.999997519999965" height="34.9999981200001" class="text">full </text>
<text x="879.0" y="1074.0000124800001" width="68.00000255999998" height="36.00001236000003" class="text">detail </text>
<text x="957.00003396" y="1072.99999824" width="104.99999567999987" height="36.00001236000003" class="text">together </text>
<text x="1070.00003718" y="1071.00001524" width="48.999978059999876" height="34.99999811999987" class="text">with</text>
<text x="1122.9999574800001" y="1071.00001524" width="10.000048979999747" height="34.0000293600001" class="text">, </text>
<text x="1141.00003158" y="1071.00001524" width="73.99998624" height="36.00001236000003" class="text">where </text>
<text x="1223.99999334" y="1070.000001" width="138.99997938" height="36.99998112000026" class="text">appropriate</text>
<text x="1368.000006" y="1068.000018" width="10.000048979999974" height="34.00002935999987" class="text">, </text>
<text x="1384.99998906" y="1068.000018" width="87.00002705999987" height="36.0000123599998" class="text">specific </text>
<text x="1484.0000010600002" y="1067.00000376" width="112.00003523999976" height="36.00001236000003" class="text">reference </text>
<text x="1605.00001182" y="1065.00002076" width="25.00002575999997" height="34.0000293600001" class="text">to </text>
<text x="1639.0000131" y="1065.00002076" width="42.99997680000001" height="36.00001236000003" class="text">and
</text>
<text x="144.000005628" y="1119.00001656" width="94.000003332" height="36.00001236000003" class="text">identity </text>
<text x="248.00000520000003" y="1116.9999880799999" width="24.999990599999933" height="33.999983879999945" class="text">of </text>
<text x="276.00000522" y="1116.9999880799999" width="38.999999400000036" height="34.99999811999987" class="text">the </text>
<text x="320.00000274" y="1116.9999880799999" width="53.999993759999995" height="35.999966879999874" class="text">item </text>
<text x="382.00000404" y="1116.00001932" width="19.000006919999976" height="34.0000293600001" class="text">in </text>
<text x="411.99999276" y="1115.00000508" width="38.999999400000036" height="34.99999811999987" class="text">the </text>
<text x="455.00000472" y="1115.00000508" width="137.00000825999996" height="37.000026599999956" class="text">registration </text>
<text x="606.0000042" y="1113.00002208" width="124.00002017999998" height="37.000026599999956" class="text">statement </text>
<text x="730.99999236" y="1110.9999936" width="19.99999248000006" height="33.999983879999945" class="text">to </text>
<text x="757.99997166" y="1110.9999936" width="72.00001512000006" height="36.00001236000003" class="text">which </text>
<text x="840.9999861599999" y="1109.99997936" width="19.00004208000007" height="33.999983879999945" class="text">it </text>
<text x="861.99999936" y="1109.99997936" width="101.99998626000001" height="35.999966879999874" class="text">pertains</text>
<text x="963.0000352200001" y="1107.99999636" width="9.999943499999858" height="33.999983879999945" class="text">. </text>
<text x="977.0000264399999" y="1107.99999636" width="18.99993660000007" height="33.999983879999945" class="text">If </text>
<text x="1003.00002018" y="1107.99999636" width="56.99996802000021" height="36.00001236000003" class="text">more </text>
<text x="1067.00004534" y="1106.99998212" width="68.99997053999982" height="35.999966879999874" class="text">space </text>
<text x="1144.9999914" y="1106.00001336" width="16.000032659999988" height="34.00002935999987" class="text">is </text>
<text x="1167.99997572" y="1106.00001336" width="87.00002705999987" height="36.0000123599998" class="text">needed</text>
<text x="1257.9999946199998" y="1103.99998488" width="10.000048980000201" height="33.999983879999945" class="text">, </text>
<text x="1272.00000342" y="1103.99998488" width="42.99997680000001" height="34.9999981200001" class="text">full </text>
<text x="1319.99999592" y="1103.00001612" width="39.99998496000012" height="34.9999981200001" class="text">size </text>
<text x="1368.000006" y="1103.00001612" width="73.00001826000016" height="36.00001236000003" class="text">insert </text>
<text x="1444.0000161" y="1102.00000188" width="74.99993663999999" height="36.0000123599998" class="text">sheets </text>
<text x="1531.9999935600001" y="1100.99998764" width="45.999968639999906" height="35.999966879999874" class="text">may </text>
<text x="1582.99999548" y="1100.00001888" width="30.99999185999991" height="34.00002935999987" class="text">be </text>
<text x="1619.9999886" y="1100.00001888" width="53.00002577999999" height="36.00001236000003" class="text">used</text>
<text x="1679.9999660400001" y="1099.00000464" width="10.000031399999898" height="33.999983879999945" class="text">.
</text>
<text x="152.99999872799998" y="1165.00005762" width="165.99998329200002" height="38.00006357999996" class="text">Pursuant </text>
<text x="344.00000778000003" y="1161.9999921600001" width="32.99999814" height="34.9999981200001" class="text">to </text>
<text x="401.99999651999997" y="1161.9999921600001" width="123.00003462000006" height="37.999995360000185" class="text">letter </text>
<text x="545.00002362" y="1159.00006314" width="97.99997370000006" height="36.00008058000003" class="text">dated </text>
<text x="671.00001492" y="1157.00001192" width="39.999984960000006" height="36.00001236000003" class="text">14 </text>
<text x="730.99999236" y="1157.00001192" width="60.00003018000007" height="37.000026599999956" class="text">May </text>
<text x="815.00001" y="1155.9999976800002" width="77.00003082" height="36.99998112000026" class="text">1984 </text>
<text x="915.99999312" y="1153.99994646" width="81.99999378000007" height="36.99995838000018" class="text">from </text>
<text x="1023.0000126599999" y="1152.99993222" width="54.999944160000155" height="36.9999128999998" class="text">the </text>
<text x="1096.9999813200002" y="1151.00001744" width="86.0000590799998" height="36.00001236000003" class="text">U.S. </text>
<text x="1203.0000328800002" y="1150.0000031999998" width="203.99999009999988" height="39.000009599999885" class="text">Department </text>
<text x="1430.99997528" y="1146.0000599399998" width="39.000016980000055" height="36.0000805799998" class="text">of </text>
<text x="1495.99996842" y="1146.0000599399998" width="138.99997938" height="38.00006357999973" class="text">Justice</text>
<text x="1644.99999678" y="1142.99999448" width="11.000016960000039" height="34.99999811999987" class="text">,
</text>
<text x="157.999996848" y="1201.00000176" width="57.00001021200001" height="36.9999811199998" class="text">the </text>
<text x="241.0000008" y="1199.99998752" width="216.99999576" height="40.00004658000012" class="text">information </text>
<text x="483.99997272" y="1197.0000585" width="163.00003715999998" height="39.000009599999885" class="text">required </text>
<text x="668.00002308" y="1193.9999930400002" width="104.99997810000002" height="39.00000960000011" class="text">under </text>
<text x="795.00001752" y="1191.99994182" width="98.99994168" height="37.99999535999996" class="text">items </text>
<text x="915.99999312" y="1190.0000497800002" width="39.99998495999989" height="37.99999535999996" class="text">14 </text>
<text x="963.0000352200001" y="1189.0000128" width="10.99999937999985" height="36.00008058000003" class="text">(</text>
<text x="980.99998626" y="1189.0000128" width="11.000016959999925" height="36.00008058000003" class="text">a</text>
<text x="1003.00002018" y="1189.0000128" width="10.999999379999963" height="36.00008058000003" class="text">) </text>
<text x="1039.99999572" y="1187.99999856" width="56.99998560000017" height="36.99998112000003" class="text">and </text>
<text x="1121.0000391" y="1186.9999843199998" width="39.99998495999989" height="36.99998112000003" class="text">15</text>
<text x="1167.99997572" y="1185.99994734" width="11.000016960000039" height="35.99994414000025" class="text">(</text>
<text x="1186.00003224" y="1185.99994734" width="11.000016960000039" height="35.99994414000025" class="text">b</text>
<text x="1207.99996068" y="1185.99994734" width="11.000016960000039" height="35.99994414000025" class="text">) </text>
<text x="1243.99998582" y="1184.9999331" width="61.00005090000013" height="36.9999811199998" class="text">are </text>
<text x="1325.9999796" y="1184.0000553" width="163.00003715999992" height="37.999995360000185" class="text">restated </text>
<text x="1509.9999772200001" y="1180.99998984" width="39.99998495999989" height="36.99998112000003" class="text">as
</text>
<text x="157.999996848" y="1229.99993718" width="142.999998972" height="30.99998664000009" class="text">follows</text>
<text x="329.00001342" y="1229.00005938" width="7.9999899599999935" height="29.000071859999935" class="text">:
</text>
<text x="238.00000896" y="1301.9999846399999" width="40.999988099999996" height="43.9999898399999" class="text">14</text>
<text x="286.00000146" y="1299.00005562" width="14.00000879999999" height="42.00007505999997" class="text">(</text>
<text x="303.0000021" y="1299.00005562" width="14.00000879999999" height="42.00007505999997" class="text">a</text>
<text x="322.99999457999996" y="1298.00001864" width="14.000008800000046" height="42.00007505999997" class="text">)
</text>
<text x="322.00000902" y="1331.9999343" width="101.00000070000004" height="29.999949660000084" class="text">Dated
</text>
<text x="1020.9999712199999" y="1325.00006202" width="138.00002898000002" height="32.00000088000024" class="text">Purpose
</text>
<text x="1348.99996392" y="1318.0000533" width="121.00002833999997" height="30.99998664000009" class="text">Amount</text>
<text x="1474.00005756" y="1316.00000208" width="7.999902060000068" height="28.000057620000007" class="text">'
</text>
<text x="586.00001172" y="1336.000014" width="85.00000320000004" height="37.99999535999996" class="text">From </text>
<text x="688.0000155600001" y="1331.9999343" width="88.99999817999992" height="36.9999811199998" class="text">Whom
</text>
<text x="260.00000772" y="1408.0000614599999" width="59.99999502000003" height="35.000066339999876" class="text">May </text>
<text x="351.00001218" y="1403.99998176" width="9.99999624000003" height="32.000000880000016" class="text">1</text>
<text x="373.00001094000004" y="1403.99998176" width="9.999996239999973" height="32.000000880000016" class="text">, </text>
<text x="407.99999778" y="1402.99994478" width="77.99999879999996" height="35.999944140000025" class="text">1984-
</text>
<text x="260.00000772" y="1439.0000481" width="64.00000758000004" height="34.00005209999995" class="text">Oct </text>
<text x="346.99999962" y="1436.99999688" width="36.99999312" height="33.000015119999944" class="text">31</text>
<text x="392.00000028" y="1436.99999688" width="9.999996239999973" height="32.000000880000016" class="text">, </text>
<text x="430.00001412" y="1435.99998264" width="77.99996364000003" height="33.00003786000002" class="text">1984
</text>
<text x="548.00001546" y="1402.00006698" width="103.99995737999996" height="36.00008058000003" class="text">China </text>
<text x="668.99997348" y="1401.00005274" width="103.00000698000008" height="36.00010331999988" class="text">Daily </text>
<text x="795.9999855" y="1400.00001576" width="38.000013840000065" height="35.000066339999876" class="text">of
</text>
<text x="548.99996586" y="1440.99994014" width="140.00005283999997" height="41.999938619999966" class="text">Beijing</text>
<text x="701.00000364" y="1435.99998264" width="12.000020099999915" height="36.99998112000003" class="text">, </text>
<text x="736.0000080599999" y="1434.9999456599999" width="96.99997056000007" height="40.99992438000004" class="text">China
</text>
<text x="920.0000584200001" y="1400.00001576" width="243.9999574799998" height="42.999952859999894" class="text">Subscription </text>
<text x="1186.00003224" y="1394.0000212799998" width="59.99997743999984" height="37.99997261999988" class="text">fee
</text>
<text x="918.0000169799999" y="1428.99995118" width="181.99995618000014" height="33.999892919999866" class="text">collected </text>
<text x="1125.9999669" y="1426.0000221599998" width="84.00001764000012" height="32.000000880000016" class="text">from
</text>
<text x="918.9999849599999" y="1472.0000632200001" width="185.00005350000015" height="42.00007505999997" class="text">newspaper </text>
<text x="1127.9999907600002" y="1464.00001752" width="53.999993759999825" height="36.99995837999995" class="text">sub-
</text>
<text x="920.0000584200001" y="1498.99994742" width="165.99992351999992" height="35.999944140000025" class="text">scribers</text>
<text x="1093.99998948" y="1497.99993318" width="10.000048979999974" height="32.000000880000016" class="text">, </text>
<text x="1128.99995874" y="1499.9999844" width="60.00008292000007" height="34.00005209999995" class="text">pur-
</text>
<text x="921.9999768" y="1530.9999483000001" width="98.9999944199999" height="27.999898440000152" class="text">suant </text>
<text x="1045.99999698" y="1529.0000562599998" width="34.99995167999987" height="27.000043379999852" class="text">to </text>
<text x="1107.0000303" y="1529.0000562599998" width="164.0000051400002" height="30.00010883999994" class="text">contract
</text>
<text x="1316.0000361" y="1529.0000562599998" width="11.000016960000039" height="34.00005209999995" class="text">$</text>
<text x="1336.99999656" y="1529.0000562599998" width="180.00003779999997" height="37.99999535999996" class="text">30,625.56
</text>
<text x="308.00000022" y="1503.00004986" width="10.9999818" height="37.000117560000035" class="text">[</text>
<text x="322.99999457999996" y="1503.00004986" width="11.000016960000039" height="37.000117560000035" class="text">$</text>
<text x="342.99998705999997" y="1503.00004986" width="178.99999950000006" height="37.000117560000035" class="text">45,664.60 </text>
<text x="544.0000029" y="1503.00004986" width="41.00000567999996" height="37.000117560000035" class="text">as </text>
<text x="603.99998034" y="1503.00004986" width="207.00001710000004" height="37.000117560000035" class="text">previously
</text>
<text x="322.99999457999996" y="1529.99993406" width="159.00000702000006" height="36.99998112000003" class="text">reported </text>
<text x="502.99999722" y="1529.0000562599998" width="59.99997744000001" height="35.000066339999876" class="text">was </text>
<text x="586.9999797" y="1529.0000562599998" width="160.99999572000002" height="37.00011755999981" class="text">actually
</text>
<text x="324.00001530000003" y="1562.9999491800002" width="158.99998943999992" height="33.99989292000032" class="text">received</text>
<text x="490.00000914000003" y="1562.9999491800002" width="9.999996239999973" height="33.99989292000032" class="text">, </text>
<text x="524.00001042" y="1562.9999491800002" width="62.00000130000001" height="33.99989292000032" class="text">but </text>
<text x="611.9999878799999" y="1562.9999491800002" width="9.999996240000087" height="33.99989292000032" class="text">a </text>
<text x="648.9999809999999" y="1562.9999491800002" width="140.00000010000008" height="33.99989292000032" class="text">portion
</text>
<text x="313.9999839" y="1600.00006674" width="68.00002014" height="37.00011755999981" class="text">was </text>
<text x="406.99999464" y="1600.00006674" width="56.9999856" height="38.00013179999996" class="text">for </text>
<text x="487.00001729999997" y="1600.00006674" width="137.99997624000002" height="39.000009599999885" class="text">advance </text>
<text x="655.9999854" y="1599.0000525" width="154.0000089" height="39.00003233999996" class="text">subscrip-
</text>
<text x="320.00000274" y="1632.99994542" width="104.99997810000002" height="35.9999441399998" class="text">tions </text>
<text x="442.00001664" y="1632.00006762" width="62.99996927999996" height="34.00005209999995" class="text">not </text>
<text x="528.0000229799999" y="1632.00006762" width="57.99998874000005" height="34.00005209999995" class="text">yet </text>
<text x="610.00001676" y="1632.00006762" width="118.99998689999995" height="36.00008058000003" class="text">earned</text>
<text x="738.9999999" y="1631.00005338" width="9.999996239999973" height="34.00005209999995" class="text">]
</text>
<text x="920.0000584200001" y="1605.00004698" width="224.99993297999993" height="41.000060820000044" class="text">Advertising </text>
<text x="1173.9999594" y="1599.0000525" width="118.00001891999977" height="37.99999535999996" class="text">income
</text>
<text x="921.9999768" y="1663.00005426" width="166.9999969800001" height="48.00006954000014" class="text">interest </text>
<text x="1110.00002214" y="1655.00000856" width="122.99994672000003" height="46.00001831999998" class="text">income </text>
<text x="1255.9999531800001" y="1647.99999984" width="14.000008799999932" height="41.000060820000044" class="text">A
</text>
<text x="1357.99995702" y="1598.00001552" width="158.0000038799999" height="37.99999535999996" class="text">7,685.00
</text>
<text x="1396.999974" y="1644.0000565799999" width="124.00000260000002" height="32.000000880000016" class="text">246.89
</text>
<text x="1319.99999592" y="1683.00006618" width="10.000048979999974" height="32.000000880000016" class="text">$</text>
<text x="1339.00002042" y="1682.00005194" width="181.0000057799998" height="36.00010331999988" class="text">38,557.45
</text>
<text x="248.99999076" y="1748.9999827200002" width="35.00000441999998" height="32.00000088000024" class="text">15 </text>
<text x="296.99998326" y="1748.9999827200002" width="9.000010679999946" height="32.00000088000024" class="text">(</text>
<text x="312.99999834" y="1748.9999827200002" width="9.000010680000003" height="32.00000088000024" class="text">b</text>
<text x="334.9999971" y="1749.99999696" width="9.00001068000006" height="32.000000880000016" class="text">)
</text>
<text x="327.00000714000004" y="1779.99994662" width="101.99998625999996" height="29.999949659999857" class="text">Dated
</text>
<text x="1173.9999594" y="1704.99999288" width="53.00002577999976" height="28.99993541999993" class="text">VOM
</text>
<text x="1014.9999875400001" y="1734.00006474" width="84.00003521999975" height="31.000123080000094" class="text">MT </text>
<text x="1099.99997316" y="1733.0000505" width="83.00006723999991" height="32.000000880000016" class="text">MONG
</text>
<text x="1028.99999634" y="1778.00005458" width="143.99999507999996" height="37.99999535999996" class="text">Purpose
</text>
<text x="602.0000092199999" y="1776.00000336" width="29.000020740000082" height="27.000020639999775" class="text">To </text>
<text x="657.00000612" y="1776.00000336" width="86.00000634000003" height="28.99993541999993" class="text">Whom
</text>
<text x="265.9999914" y="1855.9999373399999" width="66.00001386000002" height="32.99987867999971" class="text">May </text>
<text x="356.99999586" y="1855.9999373399999" width="9.000010680000003" height="32.99987867999971" class="text">1</text>
<text x="379.99999776" y="1855.0000595400002" width="9.000010680000003" height="33.00003786000025" class="text">, </text>
<text x="414.9999846" y="1849.99994286" width="79.00003709999993" height="29.999949660000084" class="text">1984-
</text>
<text x="269.00000082" y="1889.99998944" width="63.99998999999997" height="34.000052100000175" class="text">Oct </text>
<text x="356.00001030000004" y="1887.99993822" width="36.99999311999994" height="32.99987867999994" class="text">31</text>
<text x="401.00001096" y="1887.99993822" width="9.99999624000003" height="32.00000088000024" class="text">, </text>
<text x="438.99998963999997" y="1887.00006042" width="78.00001638000003" height="33.00003786000002" class="text">1984
</text>
<text x="558.0000117" y="1851.9999940799999" width="140.00000010000008" height="36.9999811199998" class="text">Various </text>
<text x="723.0000199799999" y="1853.00000832" width="56.99998560000006" height="34.00002935999987" class="text">sup-
</text>
<text x="926.0000421000001" y="1847.00001384" width="160.9999957199999" height="36.00008058000003" class="text">Printing </text>
<text x="1111.9999581" y="1845.9999996" width="101.00001827999995" height="36.9999811199998" class="text">costs</text>
<text x="1223.99999334" y="1844.99998536" width="10.000048980000201" height="34.9999299000001" class="text">,
</text>
<text x="555.00001986" y="1887.99993822" width="123.99994986000002" height="36.99995838000018" class="text">pliers </text>
<text x="702.99997476" y="1886.0000461799998" width="39.000016980000055" height="35.000066339999876" class="text">of </text>
<text x="767.9999679" y="1886.0000461799998" width="68.00005529999999" height="36.9999811199998" class="text">ser- </text>
<text x="927.00001008" y="1886.0000461799998" width="141.00000323999984" height="41.00006081999982" class="text">postage</text>
<text x="1077.99995682" y="1880.0000516999999" width="11.000016960000039" height="35.000066339999876" class="text">, </text>
<text x="1113.00001398" y="1880.0000516999999" width="122.99994672000003" height="40.00004657999989" class="text">distri-
</text>
<text x="556.99999098" y="1918.00004706" width="104.00002770000003" height="32.00000088000024" class="text">vices </text>
<text x="682.9999822799999" y="1915.99999584" width="59.000009460000115" height="30.99998664000009" class="text">and
</text>
<text x="926.0000421000001" y="1913.00006682" width="118.99998689999995" height="32.000000880000016" class="text">bution </text>
<text x="1073.9999970000001" y="1913.00006682" width="99.99996239999996" height="32.000000880000016" class="text">costs</text>
<text x="1184.00000838" y="1913.00006682" width="8.999975519999907" height="32.000000880000016" class="text">,
</text>
<text x="562.99997466" y="1953.9999912" width="161.00001329999998" height="34.9999299000001" class="text">material </text>
<text x="746.0000043" y="1951.00006218" width="58.00000632000001" height="33.000015119999944" class="text">and </text>
<text x="930.99995232" y="1951.00006218" width="222.0000466199998" height="36.00008058000003" class="text">advertising</text>
<text x="1164.0000158999999" y="1951.00006218" width="9.9999435000002" height="36.00008058000003" class="text">,
</text>
<text x="562.99997466" y="1994.00001504" width="118.00003649999996" height="39.00000960000011" class="text">taxing </text>
<text x="706.99998732" y="1989.99993534" width="142.00002396000002" height="39.999887400000034" class="text">authori-
</text>
<text x="927.00001008" y="1990.9999495799998" width="183.99998004000008" height="42.99995285999967" class="text">promotion </text>
<text x="1135.0000479" y="1983.00006306" width="59.999977440000066" height="37.000117560000035" class="text">and
</text>
<text x="559.99998282" y="2022.99995046" width="81.99999377999995" height="28.99993541999993" class="text">ties
</text>
<text x="929.00003394" y="2017.99999296" width="101.9999862599999" height="32.000000880000016" class="text">other </text>
<text x="1053.00005412" y="2016.9999787200002" width="140.99989776000007" height="33.00003786000025" class="text">similar
</text>
<text x="930.0000019199999" y="2057.0000025599998" width="161.99996370000008" height="33.000015119999716" class="text">expenses
</text>
<text x="559.99998282" y="2116.00004682" width="41.00000568000007" height="34.000052100000175" class="text">No </text>
<text x="627.99998538" y="2115.00000984" width="97.00000571999999" height="35.0000663400001" class="text">money </text>
<text x="748.99999614" y="2111.99994438" width="101.99998626000001" height="34.9999299000001" class="text">trans-
</text>
<text x="566.00001924" y="2143.99994526" width="115.99999505999995" height="29.999949659999857" class="text">mitted </text>
<text x="708.00000804" y="2142.00005322" width="35.99997239999993" height="28.000057620000007" class="text">to </text>
<text x="768.9999886200001" y="2142.00005322" width="60.00003017999995" height="30.00010883999994" class="text">the
</text>
<text x="565.0000160999999" y="2183.99999184" width="137.99995866000006" height="37.99999535999996" class="text">Foreign </text>
<text x="724.9999911" y="2182.9999776" width="184.00005036000005" height="39.00003233999996" class="text">Principal
</text>
<text x="822.99998238" y="2215.99999272" width="90.99996929999998" height="28.99993541999993" class="text">Formerly </text>
<text x="921.9999768" y="2213.9999414999997" width="49.00006596000003" height="27.999921179999546" class="text">OBD</text>
<text x="975.99997056" y="2213.0000637000003" width="8.000007539999956" height="26.000006400000075" class="text">-</text>
<text x="981.99995424" y="2212.00004946" width="25.00000818000001" height="26.000029139999697" class="text">68
</text>
<text x="1305.00003672" y="2051.00000808" width="10.999999379999963" height="35.0000663400001" class="text">$</text>
<text x="1322.00001978" y="2051.00000808" width="207.99994992000006" height="40.00002384000004" class="text">114,920.32
</text>
<text x="1571.00001054" y="2199.00004626" width="46.99993661999997" height="17.00010564000013" class="text">FORM </text>
<text x="1628.99996412" y="2198.00000928" width="36.000025139999934" height="16.999946460000046" class="text">CRM</text>
<text x="1670.99997294" y="2198.00000928" width="5.000033280000025" height="16.999946460000046" class="text">-</text>
<text x="1678.99999806" y="2198.00000928" width="24.000057780000134" height="16.999946460000046" class="text">158
</text>
<text x="1631.99995596" y="2220.99995022" width="38.00006657999984" height="18.99999767999998" class="text">AUG</text>
<text x="1675.00003824" y="2220.99995022" width="4.999927800000023" height="18.99999767999998" class="text">. </text>
<text x="1686.0000552000001" y="2220.99995022" width="17.000000640000053" height="18.99999767999998" class="text">82
</text>
</g>
<g id="page-1" transform="translate(0, 2294)">
<rect width="1758" height="2274" fill="none" stroke="black" />
<text x="156.00000639" y="111.00000021" width="43.999988729999984" height="30.99999801" class="text">The </text>
<text x="208.00000266" y="111.00000021" width="148.9999932" height="32.99999692799999" class="text">undersigned </text>
<text x="366.9999921" y="109.999995066" width="74.00000381999996" height="31.999991783999988" class="text">swear</text>
<text x="439.99997520000005" y="109.000001292" width="9.000045839999984" height="30.999998009999985" class="text">(</text>
<text x="449.00002104000004" y="109.000001292" width="8.999975519999964" height="30.999998009999985" class="text">s</text>
<text x="460.9999884" y="109.000001292" width="9.000028260000022" height="30.999998009999985" class="text">) </text>
<text x="480.00001290000006" y="109.000001292" width="21.999981179999907" height="30.999998009999985" class="text">or </text>
<text x="511.00002234" y="109.000001292" width="68.99995295999997" height="32.000003154" class="text">affirm</text>
<text x="585.00000858" y="107.999996148" width="8.99997552000002" height="30.99999801" class="text">(</text>
<text x="595.00000482" y="107.999996148" width="8.99997552000002" height="30.99999801" class="text">s</text>
<text x="607.00002492" y="107.999996148" width="8.99997552000002" height="30.99999801" class="text">) </text>
<text x="623.00000484" y="107.999996148" width="49.99998119999998" height="30.99999801" class="text">that </text>
<text x="675.0000099" y="107.999996148" width="34.99996925999994" height="30.99999801" class="text">he </text>
<text x="713.00002374" y="107.00000010000001" width="43.999997519999965" height="30.99999801" class="text">has </text>
<text x="764.99997606" y="107.00000010000001" width="9.000045839999984" height="30.99999801" class="text">(</text>
<text x="774.0000219" y="107.00000010000001" width="46.99997178000001" height="30.99999801" class="text">they </text>
<text x="827.99999808" y="107.00000010000001" width="56.00001762000011" height="30.99999801" class="text">have</text>
<text x="885.99995166" y="105.99999495600001" width="9.000081000000137" height="30.999995736000002" class="text">) </text>
<text x="901.9999843200001" y="105.99999495600001" width="51.00000191999993" height="30.999995736000002" class="text">read </text>
<text x="960.00004338" y="105.99999495600001" width="38.99991150000005" height="30.999995736000002" class="text">the </text>
<text x="1006.99996242" y="105.99999495600001" width="144.00001266000004" height="32.999996928" class="text">information </text>
<text x="1161.99999204" y="105.000001182" width="39.00001697999983" height="30.99999801" class="text">set </text>
<text x="1201.0000090199999" y="105.000001182" width="56.999985599999945" height="32.000003154" class="text">forth </text>
<text x="1272.00000342" y="103.999996038" width="16.999983059999977" height="30.99999801" class="text">in </text>
<text x="1302.0000273" y="103.999996038" width="45.99998621999998" height="30.99999801" class="text">this </text>
<text x="1350.0000373799999" y="103.999996038" width="153.99995616000024" height="32.999996928" class="text">amendment </text>
<text x="1511.0000331" y="102.99999999" width="39.99998495999989" height="32.00000088" class="text">and </text>
<text x="1563.0000029999999" y="102.00000394199999" width="50.000033940000094" height="31.000004831999988" class="text">that </text>
<text x="1616.00002878" y="102.00000394199999" width="28.000000020000016" height="31.000004831999988" class="text">he </text>
<text x="1653.0000219" y="102.00000394199999" width="17.000000639999826" height="31.000004831999988" class="text">is
</text>
<text x="96.999998688" y="144.999993186" width="9.000000131999997" height="29.999992866000014" class="text">(</text>
<text x="107.00000196" y="144.999993186" width="45.999996767999974" height="29.999992866000014" class="text">they </text>
<text x="162.000005892" y="144.999993186" width="34.999997388000025" height="30.999998010000013" class="text">are</text>
<text x="199.99999512" y="144.00000623399998" width="9.000010680000003" height="30.000011057999984" class="text">) </text>
<text x="215.00000706" y="144.00000623399998" width="97.99999127999999" height="31.000004831999988" class="text">familiar </text>
<text x="317.0000109" y="144.00000623399998" width="51.999987480000016" height="30.000011057999984" class="text">with </text>
<text x="379.99999776" y="143.00000108999998" width="38.00001384000001" height="29.99999968799999" class="text">the </text>
<text x="428.00000784" y="143.00000108999998" width="101.99998626000007" height="31.000004831999988" class="text">contents </text>
<text x="538.9999872" y="143.00000108999998" width="92.00004276000004" height="31.000004831999988" class="text">thereof </text>
<text x="633.00000108" y="141.99999822" width="46.999989360000086" height="30.000001962000013" class="text">and </text>
<text x="689.0000186999999" y="141.99999822" width="48.9999780600001" height="30.000001962000013" class="text">that </text>
<text x="740.9999885999999" y="141.99999822" width="57.99998874000005" height="30.999998010000013" class="text">such </text>
<text x="812.0000181600001" y="141.000002172" width="103.00000697999997" height="31.000007105999998" class="text">contents </text>
<text x="923.00005026" y="141.000002172" width="33.99998370000003" height="30.000001962" class="text">are </text>
<text x="964.9999536000001" y="139.999997028" width="22.00001633999989" height="30.000001962" class="text">in </text>
<text x="997.9999869000001" y="139.999997028" width="59.99997743999984" height="30.000001962" class="text">their </text>
<text x="1065.00002148" y="139.999997028" width="91.99993728000004" height="30.000001962" class="text">entirety </text>
<text x="1169.99999958" y="139.00000098" width="50.000033940000094" height="29.999999688000017" class="text">true </text>
<text x="1223.99999334" y="139.00000098" width="47.0000421000002" height="29.999999688000017" class="text">and </text>
<text x="1277.9999871" y="139.00000098" width="101.99998626000001" height="32.00000088" class="text">accurate </text>
<text x="1387.99999848" y="137.99999811" width="22.00001634000023" height="30.000001962000013" class="text">to </text>
<text x="1418.00002236" y="137.99999811" width="42.000026400000024" height="30.000001962000013" class="text">the </text>
<text x="1463.0000406" y="137.99999811" width="54.99994416000027" height="30.000001962000013" class="text">best </text>
<text x="1526.0000098799999" y="137.99999811" width="22.000016340000002" height="30.99999801" class="text">of </text>
<text x="1554.0000099" y="137.000002062" width="34.99996926000017" height="30.000001961999985" class="text">his </text>
<text x="1597.99995468" y="137.000002062" width="9.000098579999985" height="30.000001961999985" class="text">(</text>
<text x="1610.9999954999998" y="137.000002062" width="50.00003394000032" height="30.000001961999985" class="text">their</text>
<text x="1662.9999654" y="137.000002062" width="9.00008099999991" height="30.000001961999985" class="text">)
</text>
<text x="95.999997306" y="180.999994176" width="134.000021694" height="33.99999297599999" class="text">knowledge </text>
<text x="236.99998824000002" y="177.99999921" width="48.00001007999995" height="32.00000087999999" class="text">and </text>
<text x="293.99999141999996" y="176.999994066" width="74.00002140000004" height="32.999987832000016" class="text">belief</text>
<text x="365.0000034" y="175.00000197" width="9.999996239999973" height="30.000008783999988" class="text">.
</text>
<text x="923.00005026" y="199.00000490399998" width="100.99991280000006" height="30.000011057999984" class="text">CHINA </text>
<text x="1045.000029" y="199.00000490399998" width="100.99993038000002" height="30.000011057999984" class="text">DAILY </text>
<text x="1166.0000397600002" y="199.00000490399998" width="243.0000070799997" height="30.000011057999984" class="text">DISTRIBUTION </text>
<text x="1438.99998282" y="199.00000490399998" width="75.00005969999984" height="30.000011057999984" class="text">CORP</text>
<text x="1526.0000098799999" y="199.00000490399998" width="8.999975520000135" height="30.000011057999984" class="text">.
</text>
<text x="921.0000088200001" y="275.99999622" width="39.999984960000006" height="36.00001236000003" class="text">By</text>
<text x="958.99996992" y="274.00001322" width="77.0000835599999" height="37.00002660000004" class="text">:.
</text>
<text x="981.99995424" y="315.00000582" width="124.00002017999998" height="38.000018100000034" class="text">Young </text>
<text x="1127.9999907600002" y="313.99999157999997" width="58.000041479999936" height="37.00000385999999" class="text">Kee</text>
<text x="1195.00002534" y="313.00000008" width="10.999999379999963" height="37.00000385999999" class="text">, </text>
<text x="1227.9999531600001" y="313.99999157999997" width="186.00002147999976" height="38.99998685999998" class="text">President </text>
<text x="1438.99998282" y="312.00000858000004" width="11.000016960000039" height="37.00000386000005" class="text">&amp; </text>
<text x="1475.99997594" y="312.00000858000004" width="160.99999572000002" height="39.000009600000055" class="text">Director
</text>
<text x="986.99996994" y="289.99999092" width="32.00008290000005" height="83.99999094" class="text">X.
</text>
<text x="115.000005984" y="291.99999666" width="5.999987196000006" height="20.99998068000002" class="text">(</text>
<text x="122.999997702" y="291.99999666" width="32.00000554799999" height="20.99998068000002" class="text">Both </text>
<text x="162.000005892" y="291.99999666" width="46.99999990800001" height="20.99998068000002" class="text">copies </text>
<text x="211.99999764" y="291.99999666" width="14.999994359999988" height="21.999994920000006" class="text">of </text>
<text x="230.00001899999998" y="291.00000516000006" width="25.99997615999999" height="21.00000342000004" class="text">this </text>
<text x="258.00000144" y="291.00000516000006" width="88.99999817999998" height="21.00000342000004" class="text">amendment </text>
<text x="351.99999773999997" y="291.00000516000006" width="36.00000756000003" height="21.00000342000004" class="text">shall </text>
<text x="393.00000342" y="291.00000516000006" width="14.999994360000017" height="21.00000342000004" class="text">be </text>
<text x="411.0000072" y="291.00000516000006" width="46.99998935999997" height="22.000017660000026" class="text">signed </text>
<text x="463.99998024" y="289.99999092" width="26.99999687999997" height="21.000003419999985" class="text">and </text>
<text x="494.99998968" y="289.99999092" width="43.000029540000014" height="21.000003419999985" class="text">sworn </text>
<text x="542.9999821800001" y="289.99999092" width="11.000016959999925" height="21.000003419999985" class="text">to </text>
<text x="559.99998282" y="289.99999092" width="48.00001008000004" height="21.000003419999985" class="text">before </text>
<text x="610.9999847400001" y="289.99999092" width="6.000036420000015" height="21.000003419999985" class="text">a </text>
<text x="623.00000484" y="289.99999092" width="46.99998935999997" height="21.999994920000006" class="text">notary </text>
<text x="672.99998604" y="288.99999942000005" width="46.99998935999997" height="21.00000342000004" class="text">public </text>
<text x="723.0000199799999" y="288.99999942000005" width="17.000000640000053" height="21.00000342000004" class="text">or </text>
<text x="741.99999174" y="288.99999942000005" width="39.999984960000006" height="21.00000342000004" class="text">other
</text>
<text x="98.000001828" y="315.00000582" width="47.999994258000015" height="20.00001192000002" class="text">person </text>
<text x="151.99999734600001" y="315.00000582" width="78.00002165399997" height="21.000003419999985" class="text">authorized </text>
<text x="238.00000896" y="313.99999157999997" width="10.9999818" height="19.999989179999943" class="text">to </text>
<text x="255.99999515999997" y="313.99999157999997" width="79.00000194" height="19.999989179999943" class="text">administer </text>
<text x="341.00001594" y="313.00000008" width="40.999988099999996" height="19.99998918" class="text">oaths </text>
<text x="387.00000216" y="313.00000008" width="14.99999435999996" height="19.99998918" class="text">by </text>
<text x="407.99999778" y="313.00000008" width="22.000016340000002" height="19.99998918" class="text">the </text>
<text x="433.99999152" y="313.00000008" width="42.000008820000005" height="19.99998918" class="text">agent</text>
<text x="474.99999719999994" y="313.00000008" width="5.999983680000071" height="19.99998918" class="text">, </text>
<text x="485.99999657999996" y="313.00000008" width="8.000025119999975" height="19.99998918" class="text">if </text>
<text x="499.00000223999996" y="313.00000008" width="22.999984320000067" height="21.000003419999985" class="text">the </text>
<text x="527.00000226" y="312.00000858000004" width="73.00001826000005" height="20.00001192000002" class="text">registrant </text>
<text x="603.99998034" y="312.00000858000004" width="11.000016960000039" height="20.00001192000002" class="text">is </text>
<text x="620.000013" y="312.00000858000004" width="17.999968620000004" height="20.00001192000002" class="text">an </text>
<text x="642.99999732" y="312.00000858000004" width="79.00000193999995" height="21.000003419999985" class="text">individual</text>
<text x="720.99999612" y="310.99999434" width="5.999983680000014" height="19.999989179999943" class="text">, </text>
<text x="730.99999236" y="310.99999434" width="15.000011940000036" height="19.999989179999943" class="text">or </text>
<text x="750.99998484" y="310.99999434" width="15.000011940000036" height="19.999989179999943" class="text">by </text>
<text x="771.00003006" y="310.99999434" width="5.999983680000014" height="19.999989179999943" class="text">a
</text>
<text x="99.999999318" y="339.00000647999997" width="60.00000205200001" height="21.000003419999985" class="text">majority </text>
<text x="164.99999949" y="337.99999224000004" width="14.999985570000007" height="21.00000342000004" class="text">of </text>
<text x="182.99999448" y="337.99999224000004" width="40.000020120000016" height="21.00000342000004" class="text">those </text>
<text x="228.00001272" y="337.99999224000004" width="59.99999502" height="21.00000342000004" class="text">partners</text>
<text x="288.00000774" y="337.99999224000004" width="5.999983679999957" height="21.00000342000004" class="text">, </text>
<text x="298.99998954" y="337.00000073999996" width="52.00002264" height="21.000003419999985" class="text">officers</text>
<text x="351.00001218" y="337.00000073999996" width="5.999983680000014" height="21.000003419999985" class="text">, </text>
<text x="361.99999398" y="337.00000073999996" width="62.999986860000035" height="21.000003419999985" class="text">directors </text>
<text x="430.00001412" y="336.00000924" width="16.999965480000014" height="21.000003419999985" class="text">or </text>
<text x="446.9999796" y="336.00000924" width="58.000006319999954" height="21.000003419999985" class="text">persons </text>
<text x="511.00002234" y="336.00000924" width="77.99998122" height="23.00000915999999" class="text">performing </text>
<text x="596.0000079600001" y="334.99999499999996" width="52.00002264" height="21.000003419999985" class="text">similar </text>
<text x="651.0000224400001" y="334.99999499999996" width="68.99995295999986" height="22.999986419999914" class="text">functions </text>
<text x="720.99999612" y="334.0000035" width="29.999988720000033" height="21.000003419999985" class="text">who </text>
<text x="756.00000054" y="334.0000035" width="24.00000504000002" height="21.000003419999985" class="text">are
</text>
<text x="98.999997936" y="358.00000416" width="13.000002144000007" height="21.00000342000004" class="text">in </text>
<text x="117.99999958200002" y="358.00000416" width="24.00000152399997" height="21.00000342000004" class="text">the </text>
<text x="145.999996086" y="358.00000416" width="47.99999777399998" height="21.00000342000004" class="text">United </text>
<text x="200.99999825999998" y="358.00000416" width="42.000008820000005" height="21.00000342000004" class="text">States</text>
<text x="245.99999892" y="358.00000416" width="6.000018840000024" height="21.00000342000004" class="text">, </text>
<text x="255.0000096" y="358.00000416" width="10.9999818" height="21.00000342000004" class="text">if </text>
<text x="271.0000071" y="358.00000416" width="23.99998746" height="21.00000342000004" class="text">the </text>
<text x="298.00000398000003" y="358.00000416" width="73.99998623999994" height="21.00000342000004" class="text">registrant </text>
<text x="376.00000278" y="358.00000416" width="12.00000252000001" height="21.00000342000004" class="text">is </text>
<text x="394.00000656000003" y="358.00000416" width="17.000000639999996" height="21.00000342000004" class="text">an </text>
<text x="416.99999088" y="358.00000416" width="94.99999943999995" height="21.00000342000004" class="text">organization</text>
<text x="512.99999346" y="358.00000416" width="6.000001259999976" height="21.00000342000004" class="text">.</text>
<text x="518.99999472" y="358.00000416" width="6.000036420000015" height="21.00000342000004" class="text">)
</text>
<text x="611.9999878799999" y="414.9999972" width="58.00000632000001" height="30.999986639999975" class="text">New </text>
<text x="696.0000231" y="414.9999972" width="78.99994919999995" height="30.999986639999975" class="text">York</text>
<text x="788.0000131200001" y="414.9999972" width="8.99999309999987" height="30.999986639999975" class="text">, </text>
<text x="815.00001" y="414.9999972" width="87.99994230000004" height="30.999986639999975" class="text">N.Y.
</text>
<text x="98.000001828" y="427.0000089" width="132.00001717199999" height="29.000003640000045" class="text">Subscribed </text>
<text x="243.00000708" y="427.0000089" width="43.99997994" height="29.000003640000045" class="text">and </text>
<text x="300.00001026" y="427.0000089" width="66.99998183999998" height="29.000003640000045" class="text">sworn </text>
<text x="379.99999776" y="427.0000089" width="21.000013200000012" height="29.000003640000045" class="text">to </text>
<text x="412.99997832" y="427.0000089" width="74.00003897999994" height="29.000003640000045" class="text">before </text>
<text x="507.99997776000004" y="427.0000089" width="33.00003329999987" height="29.000003640000045" class="text">me </text>
<text x="546.99999474" y="427.0000089" width="28.00001759999998" height="29.000003640000045" class="text">at</text>
<text x="575.00001234" y="427.0000089" width="8.00000754000007" height="29.000003640000045" class="text">.
</text>
<text x="179.99998506" y="484.00000194" width="60.00003018000001" height="37.00000385999999" class="text">20
</text>
<text x="101.000002458" y="495.9999909" width="42.00000003000001" height="25.999983659999998" class="text">this
</text>
<text x="927.00001008" y="535.0000005" width="177.99999635999984" height="179.00000208000006" class="text">hap </text>
<text x="1124.99999892" y="511.99999134" width="76.99997808000012" height="165.99999887999996" class="text">J. </text>
<text x="1201.0000090199999" y="502.99999962" width="200.00003028000015" height="181.00000782" class="text">Wen
</text>
<text x="278.99999706" y="502.99999962" width="48.00001008000004" height="43.99998984000001" class="text">day </text>
<text x="330.99998454" y="499.00001088000005" width="32.000030159999994" height="42.00000684000008" class="text">of </text>
<text x="389.999994" y="495.9999909" width="182.99997689999998" height="49.99998432000001" class="text">September
</text>
<text x="713.00002374" y="497.00000514000004" width="13.999956060000045" height="34.00000662000008" class="text">, </text>
<text x="728.00000052" y="494.99999940000004" width="94.99998186000005" height="47.00000982000006" class="text">19_84
</text>
<text x="1136.99996628" y="526.00000878" width="10.000048979999974" height="34.00000662000002" class="text">(</text>
<text x="1147.00001526" y="526.00000878" width="80.99993790000008" height="36.00001236000003" class="text">Notary </text>
<text x="1238.0000021399999" y="524.99999454" width="25.000008180000123" height="33.999983879999945" class="text">or </text>
<text x="1272.00000342" y="524.99999454" width="62.00000130000012" height="35.99998961999995" class="text">other </text>
<text x="1339.9999884" y="524.99999454" width="75.00004211999999" height="35.99998961999995" class="text">officer</text>
<text x="1418.99999034" y="522.9999888" width="10.000048979999974" height="33.999983879999945" class="text">)
</text>
<text x="1011.00002772" y="572.0000043599999" width="45.000018239999804" height="29.999995139999896" class="text">LAP </text>
<text x="1068.0000133199999" y="572.0000043599999" width="20.99996046000024" height="28.000012139999967" class="text">J. </text>
<text x="1090.0000296599999" y="575.0000015999999" width="83.9999297400002" height="31.000009379999938" class="text">WONG
</text>
<text x="898.99999248" y="598.99997952" width="76.99997808" height="34.99997538000002" class="text">Notary </text>
<text x="988.0000433999999" y="598.99997952" width="68.00000255999998" height="32.99996964000002" class="text">Public</text>
<text x="1056.0000459599999" y="599.99999376" width="9.9999435000002" height="32.000000880000016" class="text">, </text>
<text x="1073.9999970000001" y="601.0000080000001" width="56.00001761999988" height="33.00001512000006" class="text">State </text>
<text x="1141.00003158" y="602.0000222399999" width="25.000008180000123" height="33.000015119999944" class="text">of </text>
<text x="1170.99996756" y="602.999991" width="46.000074120000136" height="32.99996964000002" class="text">New </text>
<text x="1232.99996886" y="605.0000194800001" width="51.00000191999993" height="34.0000293600001" class="text">York
</text>
<text x="994.00002708" y="621.00001992" width="42.00002639999991" height="26.00000639999996" class="text">No. </text>
<text x="1043.00000514" y="624.0000171600001" width="143.00002710000012" height="28.000034880000044" class="text">31-4794046
</text>
<text x="916.9999611" y="646.9999808399999" width="106.00005155999997" height="29.999972399999933" class="text">Qualified </text>
<text x="1029.99994674" y="649.00000932" width="21.000065939999786" height="27.999989400000004" class="text">in </text>
<text x="1059.9999882000002" y="649.99997808" width="45.999986219999755" height="28.999958160000006" class="text">New </text>
<text x="1122.9999574800001" y="653.0000208" width="50.00003393999987" height="30.000017879999973" class="text">York </text>
<text x="1186.00003224" y="655.0000038" width="77.99994605999973" height="29.00000363999993" class="text">County
</text>
<text x="1392.0000462" y="668.000007" width="79.99996991999978" height="267.999996" class="text">of
</text>
<text x="98.000001828" y="602.999991" width="46.99999287599999" height="32.000000880000016" class="text">My </text>
<text x="150.999994206" y="602.999991" width="140.99999093399998" height="32.000000880000016" class="text">commission </text>
<text x="306.9999795" y="602.999991" width="93.00001074" height="32.000000880000016" class="text">expires</text>
<text x="399.99999024" y="602.999991" width="9.000010680000003" height="32.000000880000016" class="text">.
</text>
<text x="871.9999956" y="681.0000102" width="145.00001580000003" height="62.99998751999999" class="text">Commission </text>
<text x="1034.00001204" y="681.0000102" width="77.99994605999996" height="62.99998751999999" class="text">Expirew </text>
<text x="1125.9999669" y="681.0000102" width="47.000024520000125" height="62.99998751999999" class="text">York </text>
<text x="1201.0000090199999" y="681.0000102" width="65.99996112000008" height="62.99998751999999" class="text">ounty </text>
<text x="1283.99997078" y="681.0000102" width="47.00004209999997" height="62.99998751999999" class="text">15
</text>
</g>
</svg>
