<svg xmlns="http://www.w3.org/2000/svg">
<style>.text { font-size: 14px; font-family: Arial, sans-serif; }</style>
<g id="page-0" transform="translate(0, 0)">
<rect width="1756" height="2277" fill="none" stroke="black" />
<text x="134.99999812" y="148.000006539" width="52.00000656" height="34.00000916399999" class="text">U.S. </text>
<text x="192.00000396" y="152.000007885" width="151.99999216" height="37.00000903499999" class="text">Department </text>
<text x="350.99999160000004" y="153.00000936" width="24.000007079999932" height="33.00000996600001" class="text">of </text>
<text x="387.00001100000003" y="154.999991817" width="80.99999535999996" height="33.999993225" class="text">Justice
</text>
<text x="136.000001488" y="191.00000165400002" width="128.00000615199997" height="33.00000996600002" class="text">Washington </text>
<text x="277.99999859999997" y="191.00000165400002" width="52.00000656000003" height="31.000009293000033" class="text">D.C. </text>
<text x="340.00000372" y="192.00000312900002" width="64.00000132000002" height="32.00001076800004" class="text">20530
</text>
<text x="1541.9999676" y="169.999995726" width="41.00000111999998" height="15.000003909000014" class="text">OMB </text>
<text x="1587.99995044" y="170.999997201" width="28.000069720000056" height="15.000006186000007" class="text">No. </text>
<text x="1621.9999912" y="171.999996399" width="66.00003263999997" height="17.000004582000003" class="text">105-0004
</text>
<text x="909.99999188" y="169.999995726" width="142.00002871999993" height="34.99999242300001" class="text">Amendment </text>
<text x="1058.9999634" y="169.999995726" width="23.000087999999778" height="31.000000185000005" class="text">to </text>
<text x="1093.0000041600001" y="172.999997874" width="133.00003703999982" height="33.00000085800002" class="text">Registration </text>
<text x="1241.99997568" y="176.999996943" width="102.00001692000001" height="33.999990948000004" class="text">Statment
</text>
<text x="909.00000256" y="211.00000838399998" width="107.0000162" height="35.00001063899998" class="text">Pursuant </text>
<text x="1021.00000048" y="210.000006909" width="18.000000919999934" height="31.000009293000005" class="text">to </text>
<text x="1048.9999824000001" y="212.000007582" width="36.00000183999987" height="33.00000996599999" class="text">the </text>
<text x="1093.0000041600001" y="214.00000825499998" width="80.99999535999996" height="34.00000916399998" class="text">Foreign </text>
<text x="1185.00005764" y="215.999990712" width="73.99992964000012" height="33.999990948000004" class="text">Agents </text>
<text x="1268.99996828" y="218.99999286000002" width="134.00000879999993" height="33.999993225" class="text">Registration </text>
<text x="1416.99996804" y="220.999993533" width="36.00000183999987" height="32.99999174999999" class="text">Act </text>
<text x="1456.99997984" y="221.99999273100002" width="22.9999826400001" height="32.99999175000002" class="text">of </text>
<text x="1487.9999824000001" y="222.999994206" width="52.00004167999987" height="32.99999174999999" class="text">1938</text>
<text x="1537.99995764" y="221.99999273100002" width="10.000086360000068" height="30.999991077000004" class="text">, </text>
<text x="1554.9999868" y="223.999993404" width="25.000049079999826" height="31.999990274999988" class="text">as </text>
<text x="1582.99996872" y="226.999995552" width="105.00005512000007" height="34.99999242299998" class="text">amended
</text>
<text x="133.000005432" y="290.00001789000004" width="65.99999400799999" height="30.000021480000044" class="text">Privacy </text>
<text x="205.0000056" y="290.00001789000004" width="31.000002559999984" height="28.000018530000034" class="text">Act </text>
<text x="244.00001052000002" y="292.99998816" width="87.99997327999998" height="29.999975940000013" class="text">Statement</text>
<text x="331.00001204" y="292.00002084" width="8.999991679999994" height="27.000005670000007" class="text">. </text>
<text x="345.00000300000005" y="294.00002379" width="50.99999967999992" height="29.000008620000017" class="text">Every </text>
<text x="404.00000504" y="298.00000692000003" width="99.9999856" height="31.000011570000026" class="text">registration </text>
<text x="512.00002812" y="298.99999701" width="85.9999770799999" height="29.99999871" class="text">statement</text>
<text x="598.0000051999999" y="298.99999701" width="8.999991680000107" height="26.99998290000002" class="text">, </text>
<text x="611.99999616" y="300.99999996" width="48.00001415999998" height="28.99998585000003" class="text">short </text>
<text x="662.99999584" y="302.00001282000005" width="42.00000799999998" height="27.999995760000047" class="text">form </text>
<text x="714.00001308" y="305.00000586" width="100.99999247999995" height="29.99999871" class="text">registration </text>
<text x="822.00000104" y="307.00000881" width="87.99999084000001" height="30.000021479999987" class="text">statement</text>
<text x="908.0000308000001" y="307.00000881" width="8.999991679999766" height="27.000005670000007" class="text">, </text>
<text x="922.00002176" y="310.99999194000003" width="122.99995067999998" height="30.99998880000004" class="text">supplemental </text>
<text x="1046.00004956" y="312.99999489000004" width="86.99996639999995" height="29.999998710000057" class="text">statement</text>
<text x="1132.00002664" y="312.99999489000004" width="9.000009239999827" height="26.99998290000002" class="text">, </text>
<text x="1145.00004584" y="314.99999784" width="61.99989976000006" height="28.999985849999973" class="text">exhibit</text>
<text x="1208.0000402800001" y="314.99999784" width="8.999991679999766" height="26.999982899999964" class="text">, </text>
<text x="1219.9999647999998" y="317.99999088" width="107.99998796000023" height="29.999975939999956" class="text">amendment</text>
<text x="1326.999981" y="317.99999088" width="8.999991679999994" height="27.000005670000007" class="text">, </text>
<text x="1339.9999826399999" y="321.00000669" width="123.00005604000012" height="30.000021480000044" class="text">dissemination </text>
<text x="1469.9999814799999" y="323.00000964000003" width="57.000023400000146" height="28.99998585000003" class="text">report</text>
<text x="1527.00000488" y="323.00000964000003" width="9.000009240000054" height="27.000005670000007" class="text">, </text>
<text x="1540.00002408" y="323.99997695999997" width="41.999955320000026" height="27.999972989999947" class="text">copy </text>
<text x="1587.99995044" y="325.00001259" width="21.000021559999823" height="28.000018529999977" class="text">of </text>
<text x="1612.0000102000001" y="327.00001554" width="76.99998539999979" height="30.000021479999987" class="text">political</text>
<text x="129.999997084" y="319.00000374" width="103.99999731599999" height="30.999988799999983" class="text">propaganda </text>
<text x="240.99998988000002" y="317.99999088" width="20.000014679999964" height="27.000005670000007" class="text">or </text>
<text x="268.00000004" y="319.99999383" width="46.99998972000003" height="29.000008620000017" class="text">other </text>
<text x="322.00002036" y="321.99999678" width="90.99999391999995" height="29.000008620000017" class="text">document </text>
<text x="415.99998224" y="323.00000964000003" width="21.00000399999999" height="28.000018530000034" class="text">or </text>
<text x="445.00002372" y="325.99997991" width="102.99998867999994" height="29.999975939999956" class="text">information </text>
<text x="559.00001784" y="327.00001554" width="36.999973599999976" height="28.000018529999977" class="text">filed </text>
<text x="604.00001136" y="327.99998286" width="40.00001180000004" height="27.999972989999947" class="text">with </text>
<text x="653.0000324" y="329.99998581" width="23.99995439999998" height="28.999985849999973" class="text">the </text>
<text x="689.00001668" y="331.99998876" width="73.9999998799999" height="29.999975939999956" class="text">Attorney </text>
<text x="770.9999838" y="333.99999171" width="73.00002812000002" height="29.999975940000013" class="text">General </text>
<text x="846.99999744" y="335.00000457000004" width="57.00002339999992" height="28.99998585000003" class="text">under </text>
<text x="909.00000256" y="335.99999465999997" width="31.00002011999993" height="28.999985849999973" class="text">this </text>
<text x="948.0000425999999" y="337.00000752" width="27.999964360000035" height="29.000031390000004" class="text">act </text>
<text x="982.9999497599999" y="337.00000752" width="11.000058120000062" height="27.000028439999994" class="text">is </text>
<text x="1003.0000171199999" y="337.00000752" width="8.999991679999994" height="27.000028439999994" class="text">a 
</text>
<text x="1021.00000048" y="339.00001047" width="54.99997451999991" height="29.000031390000004" class="text">public </text>
<text x="1083.99999492" y="341.00001342" width="54.000002759999916" height="29.000031390000004" class="text">record </text>
<text x="1147.99997868" y="342.00000351" width="42.00006068000016" height="29.00000861999996" class="text">open </text>
<text x="1197.99995392" y="342.00000351" width="16.00003984" height="27.000005670000007" class="text">to </text>
<text x="1219.9999647999998" y="343.99998369" width="58.00001272000031" height="28.99998585000003" class="text">public </text>
<text x="1286.9999692" y="347.99998959" width="106.00002688000018" height="30.999988799999983" class="text">examination</text>
<text x="1397.00000604" y="346.99999949999994" width="9.000009239999827" height="27.00000566999995" class="text">, </text>
<text x="1407.9999588" y="349.99999254" width="93.00002524000001" height="29.99999871" class="text">inspection </text>
<text x="1510.99996504" y="351.00000539999996" width="31.000002559999984" height="27.999995759999933" class="text">and </text>
<text x="1548.0000440000001" y="353.00000835" width="70.99990899999989" height="29.999998709999943" class="text">copying </text>
<text x="1626.00000116" y="353.99999844" width="58.000012720000086" height="28.99998585000003" class="text">during</text>
<text x="128.999995472" y="343.99998369" width="29.00000284800001" height="29.999998710000057" class="text">the </text>
<text x="165.00000433600002" y="343.99998369" width="56.99999530399998" height="28.99998585000003" class="text">posted </text>
<text x="228.99999511999997" y="346.99999949999994" width="80.00000604000005" height="31.00001156999997" class="text">business </text>
<text x="312.00000424" y="347.99998959" width="51.99998899999997" height="28.999985849999973" class="text">hours </text>
<text x="371.99999560000003" y="349.99999254" width="21.00000399999999" height="28.999985849999973" class="text">of </text>
<text x="398.9999882" y="351.00000539999996" width="30.000013239999987" height="29.999998709999943" class="text">the </text>
<text x="432.00000452" y="353.99999844" width="110.00000172000006" height="32.00000166000001" class="text">Registration </text>
<text x="549.00000172" y="355.0000113" width="40.99998356000003" height="29.99999871" class="text">Unit </text>
<text x="597.00001588" y="355.0000113" width="16.000004719999993" height="29.000031390000004" class="text">in </text>
<text x="622.0000122800001" y="359.00001719999995" width="103.99997799999994" height="32.00000165999995" class="text">Washington</text>
<text x="728.00000404" y="358.00000434000003" width="8.999991679999994" height="28.000018530000034" class="text">, </text>
<text x="743.9999912000001" y="360.00000729" width="40.99998355999992" height="30.000021479999987" class="text">D.C. </text>
<text x="790.99999848" y="361.00002014999995" width="35.99998427999992" height="30.00002147999993" class="text">One </text>
<text x="837.9999882" y="361.99998747" width="40.00001180000004" height="29.99999871" class="text">copy </text>
<text x="885.0000481599999" y="361.99998747" width="18.00000092000016" height="27.99999575999999" class="text">is </text>
<text x="910.9999636399999" y="365.99999337" width="120.00001783999994" height="32.00000166000001" class="text">automatically 
</text>
<text x="1038.00002964" y="367.99999632000004" width="80.00000604000002" height="30.99998880000004" class="text">provided </text>
<text x="1125.9999678" y="367.99999632000004" width="17.000011600000107" height="27.999995760000047" class="text">to </text>
<text x="1151.99998864" y="369.99999927000005" width="25.000031519999993" height="28.99998585000003" class="text">the </text>
<text x="1187.00000116" y="372.00000222" width="81.99996712000006" height="30.999988799999983" class="text">Secretary </text>
<text x="1280.0000264" y="372.00000222" width="17.00002915999994" height="28.000018529999977" class="text">of </text>
<text x="1303.99999836" y="374.00000517" width="44.00000419999992" height="28.999985849999973" class="text">State </text>
<text x="1354.9999453599999" y="376.00000812" width="80.00002360000008" height="30.000021479999987" class="text">pursuant </text>
<text x="1439.99995068" y="376.99997544" width="16.00003984" height="28.99998585000003" class="text">to </text>
<text x="1466.99994328" y="378.99997839" width="63.000099799999816" height="29.99997594000007" class="text">Section </text>
<text x="1540.00002408" y="378.99997839" width="8.999991679999994" height="27.99997299000006" class="text">6</text>
<text x="1551.9999486000002" y="378.99997839" width="9.000009239999827" height="27.99997299000006" class="text">(</text>
<text x="1559.99996852" y="378.99997839" width="9.000009240000054" height="27.99997299000006" class="text">b</text>
<text x="1571.00002664" y="380.00001402000004" width="9.000009239999827" height="28.000018530000034" class="text">) </text>
<text x="1584.00004584" y="380.00001402000004" width="19.999944440000036" height="28.000018530000034" class="text">of </text>
<text x="1609.99996132" y="381.9999942" width="28.000069720000056" height="28.99998585000003" class="text">the </text>
<text x="1648.00001204" y="382.99998429" width="31.999991879999925" height="29.999975940000013" class="text">Act</text>
<text x="1679.0000146" y="382.99998429" width="9.000009240000054" height="27.999972990000003" class="text">,</text>
<text x="128.000006152" y="370.99998936" width="33.999989836" height="27.00000566999995" class="text">and </text>
<text x="166.999997024" y="372.00000222" width="59.00001257599999" height="26.999982899999964" class="text">copies </text>
<text x="231.9999982" y="372.99999231" width="19.999997120000018" height="25.999992810000037" class="text">of </text>
<text x="255.00001595999998" y="374.99999526" width="40.99998356000003" height="27.999995760000047" class="text">such </text>
<text x="300.99999879999996" y="376.99997544" width="96.99998252" height="28.99998585000003" class="text">documents </text>
<text x="406.0000188" y="378.99997839" width="26.999992599999985" height="27.99997299000006" class="text">are </text>
<text x="441.00001376000006" y="380.99998134000003" width="80.99997779999995" height="28.99998585000003" class="text">routinely </text>
<text x="532.00002524" y="381.9999942" width="44.999993519999975" height="27.99999575999999" class="text">made </text>
<text x="582.9999898" y="383.99999715" width="79.00003428000002" height="28.99998585000003" class="text">available </text>
<text x="667.0000058" y="383.99999715" width="14.999962719999871" height="25.99999280999998" class="text">to </text>
<text x="692.0000022" y="386.0000001" width="49.00000347999992" height="27.99999575999999" class="text">other </text>
<text x="743.9999912000001" y="388.00000305000003" width="77.00003807999997" height="28.999985850000087" class="text">agencies</text>
<text x="822.9999728" y="388.00000305000003" width="8.00001992" height="26.000015580000024" class="text">, </text>
<text x="835.00000268" y="392.00000895000005" width="109.00002996" height="30.000021480000044" class="text">departments </text>
<text x="952.00005256" y="392.00000895000005" width="29.999925440000084" height="26.999982900000077" class="text">and </text>
<text x="993.00003612" y="394.99997922" width="82.99993887999995" height="28.999985849999973" class="text">Congress 
</text>
<text x="1082.0000513999998" y="396.99998217" width="79.99990068000011" height="28.999985849999973" class="text">pursuant </text>
<text x="1165.99996204" y="396.99998217" width="16.00005740000006" height="25.999992810000037" class="text">to </text>
<text x="1191.00001112" y="399.99999798" width="63.99996620000002" height="29.000008620000017" class="text">Section </text>
<text x="1264.99995832" y="398.99998512" width="8.000019920000113" height="25.999992810000037" class="text">6</text>
<text x="1275.00004468" y="398.99998512" width="7.999914559999979" height="25.999992810000037" class="text">(</text>
<text x="1282.99995924" y="399.99999798" width="8.000019920000113" height="25.99999280999998" class="text">c</text>
<text x="1290.99997916" y="399.99999798" width="8.000019920000113" height="25.99999280999998" class="text">) </text>
<text x="1306.00004724" y="399.99999798" width="19.999944440000036" height="25.99999280999998" class="text">of </text>
<text x="1330.00000164" y="402.00000093" width="27.0000101600001" height="27.000005670000007" class="text">the </text>
<text x="1363.9999546000001" y="402.99999102000004" width="31.000002559999757" height="27.999995760000047" class="text">Act</text>
<text x="1397.99999536" y="402.99999102000004" width="8.000019919999886" height="26.000015580000024" class="text">. </text>
<text x="1410.00002524" y="404.00000387999995" width="58.999984479999966" height="27.000028439999937" class="text">Finally</text>
<text x="1473.0000196800002" y="404.00000387999995" width="8.000019919999886" height="25.999992809999924" class="text">, </text>
<text x="1483.00000068" y="406.00000682999996" width="26.999992599999814" height="27.000028439999937" class="text">the </text>
<text x="1518.0000132" y="408.00000977999997" width="77.9999571599999" height="29.000031389999947" class="text">Attorney </text>
<text x="1603.0000185200001" y="410.00001273" width="78.99992892" height="29.000031389999947" class="text">Genreral</text>
<text x="128.000006152" y="400.99998807000003" width="82.999988048" height="28.99998585000003" class="text">transmits </text>
<text x="215.00000416" y="400.99998807000003" width="19.999997120000018" height="25.999992810000037" class="text">an </text>
<text x="240.99998988000002" y="404.00000387999995" width="64.00000131999994" height="29.00000861999996" class="text">annual </text>
<text x="305.99999808" y="404.99999397" width="59.00000203999997" height="28.000018529999977" class="text">report </text>
<text x="367.00001388" y="404.99999397" width="14.999980280000045" height="26.999982899999964" class="text">to </text>
<text x="389.99999651999997" y="406.99999692" width="26.99999260000004" height="28.000018529999977" class="text">the </text>
<text x="424.99999148" y="408.00000977999997" width="83.00002668000002" height="27.999995759999933" class="text">Congress </text>
<text x="513.99997164" y="408.99999987" width="20.000014679999936" height="27.000005670000007" class="text">on </text>
<text x="541.00001692" y="411.00000282" width="27.000010159999988" height="28.000018530000034" class="text">the </text>
<text x="575.99999432" y="413.00000577000003" width="131.99999503999993" height="29.000008620000017" class="text">Administration </text>
<text x="714.00001308" y="414.00001863" width="19.99999711999999" height="26.000015579999967" class="text">of </text>
<text x="739.00000948" y="416.00002157999995" width="26.99999260000004" height="28.00001852999992" class="text">the </text>
<text x="772.99999756" y="416.9999889" width="31.000002560000098" height="27.99999575999999" class="text">Act </text>
<text x="806.00001388" y="418.00002452999996" width="55.999998960000084" height="28.00001852999992" class="text">which </text>
<text x="869.99998008" y="418.99999185" width="35.00001251999993" height="27.99999575999999" class="text">lists </text>
<text x="909.99999188" y="420.00000471" width="26.999992599999928" height="27.000005670000007" class="text">the </text>
<text x="943.00004332" y="422.00000766" width="58.999984479999966" height="29.000008620000017" class="text">names 
</text>
<text x="1006.00003776" y="422.00000766" width="19.999961999999755" height="27.000028439999994" class="text">of </text>
<text x="1029.00003796" y="422.99999775000003" width="22.99998263999987" height="26.99998290000002" class="text">all </text>
<text x="1057.9999740800001" y="424.00001061" width="54.000002759999916" height="27.99999575999999" class="text">agents </text>
<text x="1119.99999676" y="426.00001356" width="30.000030800000104" height="27.99999575999999" class="text">and </text>
<text x="1156.99997036" y="427.00000365000005" width="26.99999260000027" height="28.000018530000034" class="text">the </text>
<text x="1190.00003936" y="427.00000365000005" width="55.999946279999904" height="27.000005670000064" class="text">nature</text>
<text x="1248.00003452" y="428.00001650999997" width="7.999932119999812" height="26.000015579999967" class="text">, </text>
<text x="1258.00001552" y="430.00001946" width="68.9999654799999" height="28.000018529999977" class="text">sources </text>
<text x="1333.00003984" y="431.00000955" width="30.999914760000138" height="28.000018529999977" class="text">and </text>
<text x="1370.00001344" y="432.99998973" width="68.99996548000013" height="28.99998585000003" class="text">content </text>
<text x="1442.00001712" y="432.99998973" width="19.999944440000036" height="25.99999280999998" class="text">of </text>
<text x="1464.0000280000002" y="434.99999268" width="30.000030799999877" height="27.99999575999999" class="text">the </text>
<text x="1496.00000232" y="436.99999563" width="76.99998540000001" height="28.99998585000003" class="text">political </text>
<text x="1576.99999768" y="439.99998867" width="103.00000623999995" height="29.999975940000013" class="text">propaganda</text>
<text x="125.99999941600001" y="429.0000066" width="118.00001110400001" height="29.000008620000017" class="text">disseminated </text>
<text x="251.99999532" y="430.00001946" width="22.000010879999962" height="27.000028439999937" class="text">or </text>
<text x="282.00000855999997" y="431.99997687" width="95.00000388000007" height="27.99997299000006" class="text">distributed </text>
<text x="384.00000792" y="432.99998973" width="23.999989520000042" height="25.99999280999998" class="text">by </text>
<text x="415.99998224" y="433.99997982" width="43.00001487999998" height="26.99998290000002" class="text">them</text>
<text x="463.00000708" y="433.99997982" width="7.999984799999993" height="24.99997995000001" class="text">. </text>
<text x="479.99998356" y="434.99999268" width="35.000012519999984" height="25.99999280999998" class="text">This </text>
<text x="526.00000152" y="436.99999563" width="54.99997452000002" height="26.99998290000002" class="text">report </text>
<text x="588.0000242" y="436.99999563" width="14.999962719999985" height="24.99997995000001" class="text">is </text>
<text x="611.99999616" y="439.99998867" width="75.99999607999996" height="27.999972990000003" class="text">available </text>
<text x="698.00002592" y="439.99998867" width="14.999962719999985" height="25.00000271999994" class="text">to </text>
<text x="723.00000476" y="441.99999162" width="29.999978120000037" height="27.00000566999995" class="text">the </text>
<text x="759.99997836" y="443.00000448" width="55.999998960000084" height="26.99998290000002" class="text">public</text>
<text x="815.9999773200001" y="443.00000448" width="8.000019919999886" height="24.99997995000001" class="text">.
</text>
<text x="124.99999780400002" y="484.00000802999995" width="59.000003796" height="29.00000861999996" class="text">Public </text>
<text x="189.9999902" y="485.99998820999997" width="88.99999772000001" height="29.999998709999943" class="text">Reporting </text>
<text x="287.99999716" y="489.00002679" width="60.00000891999997" height="30.000021479999987" class="text">Burden</text>
<text x="353.99999468" y="487.99999116" width="9.000009239999997" height="26.999982899999964" class="text">. </text>
<text x="366.00000700000004" y="489.99999411" width="53.99998519999997" height="28.999985849999973" class="text">Public </text>
<text x="430.00000832" y="491.99999706" width="80.99997780000001" height="28.99998585000003" class="text">reporting </text>
<text x="517.9999816" y="494.99999010000005" width="61.000050920000035" height="29.99997594000007" class="text">burden </text>
<text x="586.0000279999999" y="494.99999010000005" width="27.99996436000015" height="27.99997299000006" class="text">for </text>
<text x="618.99997408" y="496.00000295999996" width="30.00003079999999" height="28.999985849999973" class="text">this </text>
<text x="658.00001412" y="498.00000590999997" width="85.00000532000001" height="30.000021479999987" class="text">collection </text>
<text x="752.00001112" y="500.00000886" width="20.999986440000043" height="29.00000861999996" class="text">of </text>
<text x="774.9999937599999" y="502.00001181" width="106.00004444000001" height="31.00001156999997" class="text">information </text>
<text x="887.9999809999999" y="502.00001181" width="17.000011599999993" height="27.000005670000007" class="text">is </text>
<text x="909.00000256" y="504.99998208" width="85.00000532000001" height="29.999975940000013" class="text">estimated </text>
<text x="1002.0000278" y="504.99998208" width="15.999952039999926" height="26.99998290000002" class="text">to </text>
<text x="1025.9999997599998" y="507.99999789" width="66.0000326400002" height="29.99999871" class="text">average </text>
<text x="1098.99995764" y="508.99998797999996" width="24.000077319999946" height="28.999985849999973" class="text">1.5 </text>
<text x="1128.9999884400002" y="508.99998797999996" width="54.000002759999916" height="27.999972989999947" class="text">hours </text>
<text x="1187.00000116" y="510.99999092999997" width="31.999991880000152" height="28.999985849999973" class="text">per </text>
<text x="1223.000003" y="512.9999938799999" width="77.9999571599999" height="29.9999759399999" class="text">response</text>
<text x="1303.99999836" y="512.00000379" width="8.999991679999994" height="26.999982900000077" class="text">, </text>
<text x="1315.00003892" y="514.99999683" width="83.99992820000011" height="29.999975940000013" class="text">including </text>
<text x="1407.9999588" y="516.00000969" width="27.000010159999874" height="28.000018529999977" class="text">the </text>
<text x="1439.99995068" y="516.9999997799999" width="42.00006067999993" height="27.999972989999947" class="text">time </text>
<text x="1485.00004956" y="518.00001264" width="27.999981919999982" height="28.000018530000034" class="text">for </text>
<text x="1517.00004144" y="520.00001559" width="87.9999206" height="30.000021479999987" class="text">reviewing </text>
<text x="1612.0000102000001" y="522.99998586" width="63.99998375999985" height="29.99999871" class="text">instruc-</text>
<text x="127.000002784" y="512.00000379" width="43.000002588" height="28.99998585000003" class="text">tions</text>
<text x="169.000002004" y="510.99999092999997" width="8.999993435999983" height="26.99998290000002" class="text">, </text>
<text x="182.00000540000002" y="514.00000674" width="84.99998775999995" height="29.999998710000057" class="text">searching </text>
<text x="275.99998484" y="516.00000969" width="69.00001816000002" height="28.999985849999973" class="text">existing </text>
<text x="355.00000156" y="516.9999997799999" width="36.00000184000004" height="27.999972989999947" class="text">data </text>
<text x="398.9999882" y="518.99997996" width="68.00004640000003" height="28.99998585000003" class="text">sources</text>
<text x="465.99999260000004" y="518.99997996" width="9.000009239999883" height="26.99998290000002" class="text">, </text>
<text x="479.00001180000004" y="520.99998291" width="85.0000053199999" height="28.999985849999973" class="text">gathering </text>
<text x="570.99999504" y="522.00001854" width="31.00002011999993" height="28.000018530000034" class="text">and </text>
<text x="616.00000612" y="524.99998881" width="102.00001692000001" height="29.999998709999943" class="text">maintaining </text>
<text x="725.0000185199999" y="526.00000167" width="27.99996436000015" height="27.99999575999999" class="text">the </text>
<text x="759.99997836" y="526.99999176" width="33.99998807999998" height="28.999985849999973" class="text">data </text>
<text x="804.99997188" y="528.00000462" width="61.000050920000035" height="27.999995760000047" class="text">needed</text>
<text x="868.000019" y="528.99999471" width="9.000009240000054" height="26.99998290000002" class="text">, </text>
<text x="885.0000481599999" y="530.00000757" width="30.999897200000078" height="27.99999575999999" class="text">and </text>
<text x="924.9999546" y="532.00001052" width="98.00000695999995" height="29.999998710000057" class="text">completing </text>
<text x="1030.00000972" y="534.00001347" width="36.00000183999987" height="29.000031390000004" class="text">and 
</text>
<text x="1070.99999328" y="536.00001642" width="87.00005420000002" height="30.00002147999993" class="text">reviewing </text>
<text x="1165.99996204" y="537.0000065099999" width="27.0000101600001" height="28.000018529999977" class="text">the </text>
<text x="1200.00002036" y="538.99998669" width="88.00002596000013" height="29.999998710000057" class="text">collection </text>
<text x="1297.00005556" y="538.99998669" width="19.999944440000036" height="26.999982899999964" class="text">of </text>
<text x="1321.99998172" y="542.99999259" width="106.00004444000001" height="30.999988799999983" class="text">information</text>
<text x="1429.99996968" y="542.0000025" width="9.000009240000054" height="27.000005670000064" class="text">. </text>
<text x="1442.00001712" y="544.00000545" width="45.9999652800002" height="29.000008620000017" class="text">Send </text>
<text x="1497.9999634" y="546.9999984899999" width="87.0000541999998" height="29.99999871" class="text">comments </text>
<text x="1594.9999986" y="549.00000144" width="84.00001599999996" height="30.000021479999987" class="text">regarding</text>
<text x="124.99999780400002" y="540.99998964" width="34.00000212799996" height="29.99999871" class="text">this </text>
<text x="164.00000096800002" y="542.99999259" width="64.00000483199997" height="30.999988799999983" class="text">burden </text>
<text x="233.9999944" y="544.00000545" width="77.00002052000002" height="31.000011570000083" class="text">estimate </text>
<text x="317.99999284" y="544.99999554" width="22.00001087999999" height="28.99998585000003" class="text">or </text>
<text x="342.99998924" y="546.0000084000001" width="32.000009439999985" height="29.999998710000114" class="text">any </text>
<text x="381.99999416" y="546.9999984899999" width="48.00001415999998" height="29.99999871" class="text">other </text>
<text x="439.0" y="549.00000144" width="55.99999896000003" height="30.000021479999987" class="text">aspect </text>
<text x="503.00001888" y="549.00000144" width="18.00000091999999" height="28.000018530000034" class="text">of </text>
<text x="526.00000152" y="551.00000439" width="31.99999188000004" height="30.000021479999987" class="text">this </text>
<text x="566.99998508" y="553.00000734" width="87.99999084000001" height="30.999988799999983" class="text">collection </text>
<text x="662.00002408" y="553.00000734" width="20.99998643999993" height="28.000018530000034" class="text">of </text>
<text x="687.99999224" y="556.9999904700001" width="107.0000162" height="32.000001660000066" class="text">information</text>
<text x="797.0000046399999" y="555.99997761" width="9.000009240000054" height="27.999972989999947" class="text">, </text>
<text x="812.00002004" y="558.99999342" width="80.99994268" height="30.999988799999983" class="text">including 
</text>
<text x="904.0000208399999" y="562.99999932" width="103.99997800000006" height="32.000001660000066" class="text">suggestions </text>
<text x="1012.99998056" y="562.99999932" width="29.000059039999996" height="28.99998585000003" class="text">for </text>
<text x="1048.9999824000001" y="565.00000227" width="76.99998539999979" height="30.999988799999983" class="text">reducing </text>
<text x="1133.00001596" y="565.99999236" width="34.00004076000005" height="28.99998585000003" class="text">this </text>
<text x="1173.99999952" y="567.99999531" width="61.00003335999986" height="29.999975940000013" class="text">burden </text>
<text x="1242.9999474400001" y="567.99999531" width="17.000029159999713" height="27.99997299000006" class="text">to </text>
<text x="1272.00000648" y="569.99999826" width="49.00000348000003" height="29.999975940000013" class="text">Chief</text>
<text x="1321.00000996" y="569.99999826" width="8.999991679999994" height="27.999995759999933" class="text">, </text>
<text x="1333.00003984" y="573.00001407" width="108.99997727999994" height="32.00002443000005" class="text">Registration </text>
<text x="1450.0000370399998" y="573.99998139" width="44.00002176000021" height="28.99998585000003" class="text">Unit</text>
<text x="1491.99999236" y="573.99998139" width="8.999991679999994" height="27.999972989999947" class="text">, </text>
<text x="1505.99998332" y="576.9999972" width="83.00004424000008" height="30.999988799999983" class="text">Criminal </text>
<text x="1595.99997036" y="578.99997738" width="74.00005256000009" height="30.999966029999996" class="text">Division</text>
<text x="1675.00000464" y="578.99997738" width="9.000009240000054" height="27.99997299000006" class="text">,</text>
<text x="123.999994436" y="567.00000522" width="43.000002588000015" height="28.99998585000003" class="text">U.S. </text>
<text x="169.000002004" y="569.99999826" width="111.99999967600002" height="31.00001156999997" class="text">Department </text>
<text x="284.99999408" y="569.00000817" width="17.000011599999993" height="27.00000566999995" class="text">of </text>
<text x="307.00000496" y="570.99996558" width="59.00000204000003" height="28.99996307999993" class="text">Justice</text>
<text x="368.99999252" y="570.99996558" width="9.0000268" height="26.999960129999977" class="text">, </text>
<text x="379.99999796000003" y="574.99997148" width="103.00002380000001" height="30.999966029999996" class="text">Washington</text>
<text x="488.00000348" y="573.99998139" width="9.000009239999997" height="26.999982900000077" class="text">, </text>
<text x="499.99998067999996" y="576.00002988" width="44.99999352000003" height="29.000031390000117" class="text">D.C. </text>
<text x="546.0000162" y="576.9999972" width="53.99998519999997" height="28.99998585000003" class="text">20530</text>
<text x="600.99999072" y="576.9999972" width="8.99999167999988" height="26.999982900000077" class="text">; </text>
<text x="613.9999923600001" y="578.99997738" width="31.00000255999987" height="28.999963080000043" class="text">and </text>
<text x="653.0000324" y="578.99997738" width="15.999987160000046" height="27.99997299000006" class="text">to </text>
<text x="674.00000128" y="580.0000130100001" width="27.999981920000096" height="27.999995760000047" class="text">the </text>
<text x="705.99999316" y="581.0000031" width="57.00002339999992" height="28.999985849999916" class="text">Office </text>
<text x="770.00001204" y="581.9999931899999" width="20.999986440000043" height="28.00001852999992" class="text">of </text>
<text x="795.9999802" y="585.000009" width="105.9999742" height="31.000034339999957" class="text">Information </text>
<text x="908.0000308000001" y="585.99999909" width="31.00000255999987" height="29.000008619999903" class="text">and </text>
<text x="945.0000044" y="588.00002481" width="98.99999628000012" height="30.000044250000087" class="text">Regulatory </text>
<text x="1052.99999236" y="589.99998222" width="59.999956240000074" height="28.99998585000003" class="text">Affairs</text>
<text x="1116.99995856" y="589.99998222" width="9.000009239999827" height="26.999982899999964" class="text">, 
</text>
<text x="1128.00001668" y="592.00003071" width="57.00004095999998" height="29.000031390000004" class="text">Office </text>
<text x="1192.9999722" y="592.00003071" width="16.00003984" height="27.00002844000005" class="text">of </text>
<text x="1217.00003196" y="596.00003661" width="116.99999720000028" height="31.00003434000007" class="text">Management </text>
<text x="1336.99994444" y="597.00000393" width="32.00009724000006" height="29.000008620000017" class="text">and </text>
<text x="1376.99995624" y="598.99998411" width="64.00007155999992" height="29.999975940000013" class="text">Budget</text>
<text x="1441.0000278" y="597.99999402" width="9.000009239999827" height="27.00002844000005" class="text">, </text>
<text x="1450.0000370399998" y="601.99999992" width="107.99998796000023" height="31.00003434000007" class="text">Washington</text>
<text x="1559.99996852" y="601.0000098300001" width="9.000009240000054" height="27.00002844000005" class="text">, </text>
<text x="1571.00002664" y="602.9999900099999" width="44.99999352000009" height="29.000008619999903" class="text">D.C. </text>
<text x="1617.9999812400001" y="604.0000256400001" width="58.00001271999986" height="29.000054160000104" class="text">20503</text>
<text x="1672.9999557600001" y="604.0000256400001" width="8.999991679999994" height="27.00002844000005" class="text">.
</text>
<text x="125.99999941600001" y="622.99997397" width="20.000004144000002" height="34.99994916000003" class="text">1. </text>
<text x="156.999994952" y="625.0000224600001" width="68.00000776799996" height="36.000007560000086" class="text">Name </text>
<text x="233.9999944" y="626.99997987" width="24.999996399999986" height="34.999949159999915" class="text">of </text>
<text x="266.00000384" y="630.99998577" width="118.99999340000005" height="37.99996496999995" class="text">Registrant
</text>
<text x="909.99999188" y="642.9999807" width="24.00005976" height="30.99994326000001" class="text">2. </text>
<text x="943.00004332" y="645.0000291900001" width="137.9999309599998" height="32.99999175000005" class="text">Registration </text>
<text x="1091.0000430799998" y="645.0000291900001" width="43.999916400000075" height="31.00003434000007" class="text">No.
</text>
<text x="240.99998988000002" y="686.0000099700001" width="124.00001023999997" height="32.99999175000005" class="text">ARNOLD </text>
<text x="391.99999271999997" y="684.99997434" width="9.000009240000054" height="28.99998585000003" class="text">&amp; </text>
<text x="430.99999764" y="690.0000158700001" width="122.00001403999994" height="32.99999175000005" class="text">PORTER
</text>
<text x="1239.00004284" y="707.99999688" width="77.9999571599999" height="32.99999175000005" class="text">1750
</text>
<text x="122.00000174799999" y="796.00001283" width="20.00000414400003" height="36.00000755999986" class="text">3. </text>
<text x="155.000002264" y="797.00000292" width="43.999997175999994" height="36.00000755999997" class="text">This </text>
<text x="205.99999492" y="801.0000088200001" width="141.00000428000004" height="37.999987740000165" class="text">amendment </text>
<text x="352.99998780000004" y="802.99996623" width="20.000014679999936" height="35.999939250000125" class="text">is </text>
<text x="384.99999724" y="804.00002463" width="47.00000727999998" height="36.00000755999997" class="text">filed </text>
<text x="445.00002372" y="804.9999919500001" width="19.99999711999999" height="35.0000174700001" class="text">to </text>
<text x="479.00001180000004" y="809.99998794" width="121.99997891999999" height="38.99995506000005" class="text">accomplish </text>
<text x="615.0000167999999" y="810.99997803" width="34.999977400000034" height="35.99996202" class="text">the </text>
<text x="658.99998588" y="813.99999384" width="106.0000444399999" height="37.99998773999994" class="text">following </text>
<text x="779.9999930399999" y="817.99997697" width="98.00000696000006" height="37.99996496999995" class="text">indicated </text>
<text x="887.9999809999999" y="821.0000155500001" width="91.00006416000008" height="37.99998774000005" class="text">purpose </text>
<text x="990.99996968" y="821.99998287" width="27.000010159999874" height="34.99994916000014" class="text">or </text>
<text x="1025.0000280000002" y="824.99999868" width="103.99996044" height="37.999964970000065" class="text">purposes</text>
<text x="1128.00001668" y="824.99999868" width="10.999952760000042" height="33.999959070000045" class="text">:
</text>
<text x="152.999997284" y="863.99997651" width="10.00000207200003" height="31.999956120000093" class="text">☐ </text>
<text x="189.9999902" y="866.99999232" width="25.00001395999999" height="33.999981840000146" class="text">To </text>
<text x="225.00000271999997" y="869.00001804" width="82.00000224000004" height="35.00001746999999" class="text">correct </text>
<text x="318.99999972" y="869.00001804" width="9.999998559999995" height="32.000001660000066" class="text">a </text>
<text x="340.99999304" y="873.00002394" width="113.99999412" height="36.000007560000086" class="text">deficiency </text>
<text x="465.99999260000004" y="874.00001403" width="20.000014679999992" height="32.99999175000005" class="text">in
</text>
<text x="934.00005164" y="886.00000896" width="24.99994371999992" height="35.000017469999875" class="text">To </text>
<text x="970.00005348" y="886.00000896" width="47.999926359999904" height="33.99998183999992" class="text">give </text>
<text x="1030.00000972" y="886.99999905" width="9.999981000000162" height="32.999991749999936" class="text">a </text>
<text x="1057.9999740800001" y="887.99996637" width="18.99999023999976" height="33.99995906999993" class="text">10</text>
<text x="1076.99996432" y="887.99996637" width="10.000068800000008" height="32.99999175000005" class="text">-</text>
<text x="1088.9999942" y="889.00002477" width="34.00004076000005" height="34.00005014999999" class="text">day </text>
<text x="1137.99999768" y="891.9999722700001" width="67.99997615999996" height="35.999939250000125" class="text">notice </text>
<text x="1218.00000372" y="893.00003067" width="24.999943720000147" height="35.00004024000009" class="text">of </text>
<text x="1251.99995668" y="891.9999722700001" width="10.000068800000008" height="32.99999175000005" class="text">a </text>
<text x="1277.9999775200001" y="894.99998808" width="76.99996783999973" height="34.99994916000003" class="text">change </text>
<text x="1369.00004168" y="894.99998808" width="13.000001639999937" height="32.99999175000005" class="text">in </text>
<text x="1400.0000442399999" y="898.9999939799999" width="129.99999884" height="36.00000755999986" class="text">information </text>
<text x="1544.00003404" y="901.0000196999999" width="25.999915480000027" height="34.00002737999989" class="text">as </text>
<text x="1577.99996944" y="902.9999998799999" width="93.9999969999999" height="36.00000755999986" class="text">required
</text>
<text x="891.99999096" y="914.99999481" width="26.99999260000004" height="31.00001156999997" class="text">by </text>
<text x="931.0000134400001" y="915.9999849000001" width="80.00002359999985" height="30.99996603000011" class="text">Section </text>
<text x="1026.99997152" y="915.9999849000001" width="8.999991679999994" height="28.99998585000003" class="text">2</text>
<text x="1042.0000396" y="917.0000433" width="8.999991679999994" height="29.000076929999977" class="text">(</text>
<text x="1049.99995416" y="917.0000433" width="9.000009240000054" height="29.000076929999977" class="text">b</text>
<text x="1065.00002224" y="917.0000433" width="9.000009240000054" height="29.000076929999977" class="text">) </text>
<text x="1083.99999492" y="918.00001062" width="23.00000019999993" height="28.99998585000003" class="text">of </text>
<text x="1116.99995856" y="919.9999908000001" width="34.00004075999982" height="30.99996603000011" class="text">the </text>
<text x="1159.0000368" y="921.00002643" width="41.9999553199998" height="31.000011570000083" class="text">Act</text>
<text x="1200.99999212" y="919.9999908000001" width="8.999991679999994" height="29.00000862000013" class="text">.
</text>
<text x="188.00001156" y="926.0000224199999" width="7.999984799999993" height="26.000038349999954" class="text">☐ </text>
<text x="218.99999656" y="930.00002832" width="69.00000060000002" height="29.000008620000017" class="text">Initial </text>
<text x="297.99999572" y="932.99997582" width="114.00001168" height="29.999975940000127" class="text">Statement
</text>
<text x="187.00000468" y="999.99999495" width="8.999991679999994" height="29.999975940000013" class="text">☐ </text>
<text x="217.99998968" y="1003.00001076" width="156.00001967999998" height="32.99999175000005" class="text">Supplemental </text>
<text x="384.99999724" y="1005.9999810300001" width="112.00001547999995" height="32.99999175000005" class="text">Statement </text>
<text x="506.00000439999997" y="1004.99999094" width="33.99998807999998" height="29.999975940000013" class="text">for
</text>
<text x="892.99996272" y="1016.9999858699999" width="11.000058119999949" height="34.999949159999915" class="text">☐ </text>
<text x="928.9999645600001" y="1020.99999177" width="67.00000439999997" height="37.99996496999995" class="text">Other </text>
<text x="1003.99998888" y="1024.9999976699999" width="88.00004351999996" height="39.00002336999978" class="text">purpose </text>
<text x="1106.0000058" y="1024.9999976699999" width="10.999952760000042" height="35.00004023999975" class="text">(</text>
<text x="1116.99995856" y="1028.00001348" width="77.00009075999992" height="38.0000560499999" class="text">specify</text>
<text x="1194.00004932" y="1028.00001348" width="10.999952760000042" height="35.0000174700001" class="text">)
</text>
<text x="148.999999616" y="1100.0000286" width="10.000000315999984" height="32.00000165999995" class="text">☐ </text>
<text x="182.99999472" y="1102.00000878" width="24.999996400000015" height="32.999991749999936" class="text">To </text>
<text x="222.99998896" y="1102.9999761" width="42.00002556000004" height="32.999991749999936" class="text">give </text>
<text x="278.99998792" y="1105.99999191" width="67.00002195999997" height="35.0000174700001" class="text">notice </text>
<text x="356.00000844" y="1106.999982" width="24.999978839999983" height="33.999981840000146" class="text">of </text>
<text x="391.99999271999997" y="1107.99997209" width="75.00004188000008" height="33.999981840000146" class="text">change </text>
<text x="479.00001180000004" y="1109.00000772" width="18.999972679999985" height="32.999991749999936" class="text">in </text>
<text x="510.00001435999997" y="1109.99999781" width="27.99998192000004" height="32.999991749999936" class="text">an </text>
<text x="548.0000124" y="1111.99997799" width="80.99999536000007" height="33.99998183999992" class="text">exhibit </text>
<text x="637.99999944" y="1115.9999611199999" width="110.99997348" height="35.9999392499999" class="text">previously </text>
<text x="766.9999738399999" y="1117.00001952" width="49.000003480000146" height="34.000050150000106" class="text">filed</text>
<text x="817.99999108" y="1115.9999611199999" width="10.000033680000001" height="31.999933349999765" class="text">.
</text>
<text x="106.99999864" y="1198.99993554" width="30.000006216000003" height="32.999991749999936" class="text">4. </text>
<text x="142.999995212" y="1197.99996822" width="20.00000414400003" height="30.999897720000035" class="text">If </text>
<text x="170.999994692" y="1200.00006225" width="39.000010188000005" height="32.00000165999995" class="text">this </text>
<text x="219.99998588000003" y="1203.99999984" width="139.00002563999996" height="34.99997193000013" class="text">amendment </text>
<text x="368.00000320000004" y="1206.9999473399998" width="89.99996947999995" height="34.999971929999674" class="text">requires </text>
<text x="470.00000256000004" y="1208.0000512800002" width="31.999991879999982" height="33.000128370000084" class="text">the </text>
<text x="517.0000098400001" y="1209.00004137" width="55.99999895999986" height="32.999991749999936" class="text">filing </text>
<text x="586.99999976" y="1211.00002155" width="22.99998263999987" height="32.00002442999994" class="text">of </text>
<text x="618.00000232" y="1211.00002155" width="9.999980999999934" height="31.00003433999973" class="text">a </text>
<text x="642.00002696" y="1214.9999363700001" width="114.99996587999999" height="34.999949159999915" class="text">document </text>
<text x="761.00002036" y="1216.00006308" width="29.999978120000037" height="33.00012836999986" class="text">or </text>
<text x="795.00000844" y="1219.00001058" width="123.99997512000004" height="34.999949159999915" class="text">documents</text>
<text x="918.0000118" y="1218.00002049" width="9.999963440000101" height="31.00001156999997" class="text">, </text>
<text x="940.0000226799999" y="1220.99999076" width="66.00001508000014" height="33.99998183999992" class="text">please </text>
<text x="1018.9999515999999" y="1221.99995808" width="37.000078959999996" height="32.00000165999995" class="text">list-
</text>
<text x="228.99999511999997" y="1250.0000449200002" width="80.00000604000005" height="29.000054160000218" class="text">None</text>
<text x="320.0000066" y="1249.00005483" width="8.000002359999996" height="26.0001066599998" class="text">.
</text>
<text x="109.999994696" y="1366.9999784099998" width="19.000000775999993" height="32.99999174999971" class="text">5. </text>
<text x="136.000001488" y="1368.99995859" width="53.999988712000004" height="33.999981840000146" class="text">Each </text>
<text x="203.99999872" y="1369.99992591" width="46.99998972" height="32.999991749999936" class="text">item </text>
<text x="261.99999388000003" y="1373.0000328" width="88.00002595999996" height="34.99997193000013" class="text">checked </text>
<text x="363.99999324" y="1374.9999902099999" width="62.99999444000002" height="33.99998183999992" class="text">above </text>
<text x="443.00000996" y="1376.99994762" width="49.99999279999997" height="33.99995907000016" class="text">must </text>
<text x="501.99999444" y="1377.99993771" width="24.000007079999932" height="32.99999175000016" class="text">be </text>
<text x="537.99999628" y="1381.00002183" width="106.99999863999994" height="36.000075870000046" class="text">explained </text>
<text x="654.99997592" y="1383.00000201" width="60.00000892000003" height="34.9999719299999" class="text">below </text>
<text x="734.0000102" y="1383.00000201" width="18.99997268000004" height="32.00002442999994" class="text">in </text>
<text x="766.0000020800001" y="1384.99995942" width="40.99998355999992" height="33.999981840000146" class="text">full </text>
<text x="810.9999956" y="1387.00005345" width="66.00003263999997" height="35.00008578000006" class="text">detail </text>
<text x="882.99998172" y="1389.00003363" width="94.99998632000006" height="35.00010855000005" class="text">together </text>
<text x="986.9999597199999" y="1390.99999104" width="47.00005996000027" height="33.99998183999992" class="text">with</text>
<text x="1036.99995252" y="1390.99999104" width="10.000068800000008" height="32.00000165999995" class="text">, </text>
<text x="1052.99999236" y="1393.99993854" width="71.00001436000002" height="34.999949159999915" class="text">where </text>
<text x="1134.99995948" y="1396.00005534" width="125.99998888000005" height="35.00010854999982" class="text">appropriate</text>
<text x="1263.99998656" y="1396.00005534" width="9.999963439999874" height="32.00002442999994" class="text">, </text>
<text x="1279.0000546400001" y="1399.00000284" width="87.9999206" height="33.99998183999992" class="text">specific </text>
<text x="1379.00002268" y="1403.0000542799999" width="99.99996804000011" height="36.000075870000046" class="text">reference </text>
<text x="1491.0000206" y="1403.0000542799999" width="19.999944440000036" height="33.00012836999986" class="text">to </text>
<text x="1522.00002316" y="1405.00003446" width="41.999955320000026" height="33.999981840000146" class="text">and </text>
<text x="1573.99995948" y="1406.99999187" width="83.00004424000008" height="34.99994916000014" class="text">identity</text>
<text x="103.999997316" y="1404.00004437" width="25.999999767999995" height="36.000075870000046" class="text">of </text>
<text x="141.000002524" y="1405.00003446" width="30.999995536" height="36.000075870000046" class="text">the </text>
<text x="184.99999092" y="1406.00002455" width="44.99999352000003" height="36.00009864000003" class="text">item </text>
<text x="247.0000136" y="1406.00002455" width="12.999984080000047" height="33.999981840000146" class="text">in </text>
<text x="275.99998484" y="1407.99998196" width="34.00002319999999" height="35.999939250000125" class="text">the </text>
<text x="318.99999972" y="1411.00006608" width="126.99999575999999" height="38.0000332799998" class="text">registration </text>
<text x="458.99999712" y="1415.0000036699998" width="109.00002996" height="38.000056049999785" class="text">statement </text>
<text x="577.99999052" y="1415.0000036699998" width="20.000014679999936" height="34.999971929999674" class="text">to </text>
<text x="609.9999823999999" y="1417.99995117" width="68.00002884000003" height="36.99992934000011" class="text">which </text>
<text x="687.00002048" y="1416.99996108" width="19.999997120000103" height="33.99995907000016" class="text">it </text>
<text x="716.00000928" y="1420.0000452" width="90.99997636" height="36.000075870000046" class="text">pertains</text>
<text x="806.00001388" y="1420.0000452" width="11.000005440000109" height="34.00009568999985" class="text">. 
</text>
<text x="822.9999728" y="1421.00003529" width="20.000014679999936" height="33.99998183999992" class="text">If </text>
<text x="858.00000288" y="1422.9999927000001" width="52.99996075999991" height="35.999939250000125" class="text">more </text>
<text x="919.9999553199999" y="1425.99996297" width="62.99999444000002" height="36.99992934000011" class="text">space </text>
<text x="993.00003612" y="1424.99997288" width="19.999944440000036" height="33.999981840000146" class="text">is </text>
<text x="1021.00000048" y="1428.000057" width="81.99996711999995" height="37.00006596000003" class="text">needed</text>
<text x="1105.00003404" y="1428.000057" width="10.999952760000042" height="34.00011846000007" class="text">, </text>
<text x="1125.9999678" y="1430.00001441" width="39.99999423999998" height="36.000075870000046" class="text">full </text>
<text x="1173.0000102000001" y="1431.0000045000002" width="40.99998355999992" height="35.999939250000125" class="text">size </text>
<text x="1227.9999847200002" y="1432.99996191" width="62.99999443999991" height="35.9999392499999" class="text">insert </text>
<text x="1302.00003728" y="1434.99994209" width="67.00000440000008" height="36.99992934000011" class="text">sheets </text>
<text x="1384.99997616" y="1437.0000361200002" width="40.00001180000004" height="36.00007587000027" class="text">may </text>
<text x="1437.00001784" y="1438.00002621" width="27.0000101600001" height="36.000075870000046" class="text">be </text>
<text x="1473.99999144" y="1439.0000163" width="49.99999279999997" height="35.99996202000011" class="text">used</text>
<text x="1526.00003312" y="1439.0000163" width="10.999952760000042" height="33.99998183999992" class="text">.
</text>
<text x="230.99999131999996" y="1461.00004875" width="72.00002124000005" height="39.00002336999978" class="text">This </text>
<text x="323.999999" y="1465.99995366" width="189.0000008799999" height="41.9999708700002" class="text">amendment </text>
<text x="533.99998632" y="1466.9999437499998" width="39.99999424000009" height="36.99992933999988" class="text">to </text>
<text x="600.0000014" y="1473.99996546" width="242.99998607999999" height="42.99996095999995" class="text">Registrant's </text>
<text x="864.99999836" y="1479.9999970800002" width="245.00001740000005" height="41.9999708700002" class="text">Registration </text>
<text x="1134.99995948" y="1486.0000286999998" width="184.00000160000013" height="40.99998077999976" class="text">Statement </text>
<text x="1343.9999926" y="1487.00001879" width="40.00001180000004" height="37.00006596000003" class="text">is </text>
<text x="1405.00004352" y="1488.9999762" width="39.99999423999998" height="38.000033280000025" class="text">to</text>
<text x="222.99998896" y="1504.0000097099999" width="187.00000468000002" height="48.9999925799998" class="text">terminate </text>
<text x="429.00000144" y="1505.99996712" width="63.00001200000003" height="45.99990846000014" class="text">the 
</text>
<text x="517.0000098400001" y="1512.99998883" width="268.99998936" height="50.99994998999978" class="text">registrations </text>
<text x="803.00002836" y="1514.9999690099999" width="62.99999444000002" height="44.99994113999992" class="text">for </text>
<text x="885.0000481599999" y="1518.00005313" width="61.99991732000001" height="46.00004508000006" class="text">the </text>
<text x="971.0000252400001" y="1522.9999580400001" width="183.00001227999985" height="48.999992580000026" class="text">following </text>
<text x="1178.00000948" y="1527.00003225" width="143.99997224000003" height="47.00003516999982" class="text">foreign </text>
<text x="1340.9999544" y="1533.00006387" width="208.00006136000002" height="49.00012919999995" class="text">principals</text>
<text x="223.99999584" y="1529.99997975" width="40.00001179999998" height="36.99992933999988" class="text">of </text>
<text x="289.00000404" y="1530.99996984" width="54.99999207999997" height="35.9999392499999" class="text">the </text>
<text x="368.00000320000004" y="1537.00000146" width="209.00001555999995" height="41.000003549999974" class="text">Registrant </text>
<text x="595.00001968" y="1537.99999155" width="40.00001180000004" height="35.999962019999884" class="text">as </text>
<text x="658.00001412" y="1539.99994896" width="40.00001180000004" height="36.99992933999988" class="text">of </text>
<text x="721.00000856" y="1543.0000330799999" width="123.99997512000004" height="39.00002337000001" class="text">August </text>
<text x="868.000019" y="1544.00002317" width="40.00001180000015" height="36.000075870000046" class="text">14</text>
<text x="914.0000018400001" y="1544.00002317" width="10.999952759999928" height="34.99997193000013" class="text">, </text>
<text x="949.00001436" y="1546.9999706699998" width="80.99999535999996" height="36.99992933999988" class="text">1990</text>
<text x="1039.9999907200001" y="1546.9999706699998" width="11.000040559999889" height="34.999971929999674" class="text">:
</text>
<text x="573.99998056" y="1609.00001658" width="145.00001424000004" height="41.99997086999997" class="text">Hyundai </text>
<text x="736.99999572" y="1611.9999640800002" width="103.99997800000006" height="40.00001346000022" class="text">Motor </text>
<text x="862.0000128400001" y="1617.0000283799998" width="145.00001423999993" height="41.99999363999996" class="text">Company
</text>
<text x="570.99999504" y="1643.9999885099999" width="123.99999267999988" height="39.000046139999995" class="text">Korean </text>
<text x="718.00002304" y="1647.00007263" width="141.0000042800001" height="39.000046139999995" class="text">Foreign </text>
<text x="886.00001992" y="1649.00003004" width="98.99999628" height="37.0000659599998" class="text">Trade </text>
<text x="1008.9999706" y="1655.00006166" width="223.99999584" height="41.00011739999991" class="text">Association
</text>
<text x="899.0000391200001" y="1933.00003908" width="36.99997359999986" height="198.00008712" class="text">REGISTRATION
</text>
<text x="927.00000348" y="1936.99997667" width="35.00003007999999" height="123.99997797000015" class="text">SECTION
</text>
<text x="957.0000342799999" y="1869.00001299" width="38.99993468000014" height="144.0000302399999" class="text">INTERNAL </text>
<text x="953.00002432" y="2023.00003521" width="37.99994536000008" height="137.00003130000005" class="text">SECURITY
</text>
<text x="1044.99997244" y="1763.0000387999999" width="37.00007895999988" height="32.99999174999971" class="text">90 </text>
<text x="1043.00001136" y="1846.9999805399998" width="36.999973599999976" height="46.000045079999836" class="text">AUG </text>
<text x="1042.0000396" y="1894.00001571" width="36.00000183999987" height="26.99996013000009" class="text">15 </text>
<text x="1039.9999907200001" y="1976.00000004" width="35.99998427999981" height="46.000045079999836" class="text">A8</text>
<text x="1039.9999907200001" y="1991.0000335500001" width="35.00001251999993" height="11.000095920000149" class="text">:</text>
<text x="1039.0000014" y="2030.00005692" width="36.000001840000095" height="40.00001345999999" class="text">33
</text>
<text x="1132.00002664" y="1886.00000391" width="37.999945359999856" height="138.99998871000003" class="text">CRIMINAL </text>
<text x="1128.9999884400002" y="2019.99995109" width="36.99997359999975" height="120.99989385000003" class="text">DIVISION
</text>
<text x="1163.00004676" y="1832.9999371200001" width="36.999973599999976" height="77.99991012000032" class="text">DEPT</text>
<text x="1164.0000185200001" y="1842.00007563" width="32.999963639999805" height="10.000105829999939" class="text">. </text>
<text x="1163.00004676" y="1881.99995247" width="33.99993539999991" height="36.99992933999988" class="text">OF </text>
<text x="1158.00004748" y="2011.99993929" width="36.999973599999976" height="112.99988205" class="text">JUSTICE
</text>
<text x="1192.9999722" y="1957.0000517100002" width="35.000012520000155" height="141.00008274000015" class="text">RECEIVED
</text>
<text x="1522.00002316" y="2139.00000138" width="42.99994463999997" height="16.999990920000073" class="text">FORM </text>
<text x="1576.99999768" y="2140.99995879" width="31.999974319999865" height="17.99995824000007" class="text">CRM</text>
<text x="1617.00000948" y="2140.99995879" width="4.000009959999943" height="16.000000830000317" class="text">-</text>
<text x="1621.9999912" y="2141.99994888" width="20.000049799999942" height="16.999990920000073" class="text">158
</text>
<text x="1594.0000092799999" y="2162.99999124" width="46.99995460000014" height="17.99995824000007" class="text">SEP.88
</text>
</g>
<g id="page-1" transform="translate(0, 2297)">
<rect width="1756" height="2277" fill="none" stroke="black" />
<text x="1137.99999768" y="261.99999936" width="1.999943519999988" height="7.999989030000023" class="text">•
</text>
<text x="161.999995988" y="160.999993836" width="38.999999651999985" height="30.999991076999976" class="text">The </text>
<text x="212.00000108" y="160.999993836" width="134.99999812000004" height="30.999991076999976" class="text">undersigned </text>
<text x="359.00001152" y="160.999993836" width="61.99998756000002" height="30.999991076999976" class="text">swear</text>
<text x="424.99999148" y="160.999993836" width="9.0000268" height="30.999991076999976" class="text">(</text>
<text x="434.00001828" y="160.999993836" width="8.999991679999994" height="30.999991076999976" class="text">s</text>
<text x="447.00001992" y="160.999993836" width="9.000009239999997" height="30.999991076999976" class="text">) </text>
<text x="459.99998644" y="160.999993836" width="28.99998880000004" height="30.999991076999976" class="text">or </text>
<text x="494.99999896" y="160.999993836" width="69.00001815999991" height="30.999991076999976" class="text">affirm</text>
<text x="566.99998508" y="160.999993836" width="9.000009240000054" height="30.999991076999976" class="text">(</text>
<text x="577.00001876" y="160.999993836" width="9.00000923999994" height="30.999991076999976" class="text">s</text>
<text x="588.99999596" y="160.999993836" width="9.00000923999994" height="30.999991076999976" class="text">) </text>
<text x="605.0000006800001" y="160.999993836" width="44.00000419999992" height="30.999991076999976" class="text">that </text>
<text x="656.0000003600001" y="160.999993836" width="24.000024639999992" height="30.999991076999976" class="text">he </text>
<text x="689.9999884399999" y="160.999993836" width="38.0000156000001" height="30.999991076999976" class="text">has </text>
<text x="737.99996748" y="160.999993836" width="9.000061920000007" height="30.999991076999976" class="text">(</text>
<text x="747.0000294" y="160.999993836" width="42.999979759999974" height="30.999991076999976" class="text">they </text>
<text x="802.00000392" y="160.999993836" width="49.99997523999991" height="30.999991076999976" class="text">have</text>
<text x="855.99998912" y="160.999993836" width="9.00000923999994" height="30.999991076999976" class="text">) </text>
<text x="869.99998008" y="160.999993836" width="48.00003172000004" height="30.999991076999976" class="text">read </text>
<text x="927.00000348" y="160.999993836" width="34.00004075999993" height="30.999991076999976" class="text">the </text>
<text x="970.00005348" y="160.999993836" width="129.9999988400001" height="30.999991076999976" class="text">information </text>
<text x="1111.99997684" y="160.999993836" width="35.00001251999993" height="30.999991076999976" class="text">set </text>
<text x="1152.9999604" y="160.999993836" width="52.000041680000095" height="30.999991076999976" class="text">forth </text>
<text x="1213.99999376" y="160.999993836" width="23.00000019999993" height="30.999991076999976" class="text">in </text>
<text x="1245.99998564" y="160.999993836" width="40.00001180000004" height="30.999991076999976" class="text">this </text>
<text x="1294.99998912" y="160.999993836" width="134.00000879999993" height="30.999991076999976" class="text">amendment </text>
<text x="1438.00000716" y="160.999993836" width="34.00004076000005" height="30.999991076999976" class="text">and </text>
<text x="1485.00004956" y="160.999993836" width="41.999955320000026" height="30.999991076999976" class="text">that </text>
<text x="1536.00001412" y="160.999993836" width="27.99996435999992" height="30.999991076999976" class="text">he </text>
<text x="1572.00001596" y="160.999993836" width="17.000011600000107" height="30.999991076999976" class="text">is </text>
<text x="1599.9999803199998" y="160.999993836" width="8.999991679999994" height="30.999991076999976" class="text">(</text>
<text x="1608.9999719999998" y="160.999993836" width="43.0000500000001" height="30.999991076999976" class="text">they
</text>
<text x="103.000000972" y="197.00000367299998" width="36.999998184000006" height="36.00000983699999" class="text">are</text>
<text x="141.000002524" y="197.00000367299998" width="10.000002072000001" height="36.00000983699999" class="text">) </text>
<text x="158.99999993199998" y="197.00000367299998" width="88.999985428" height="36.00000983699999" class="text">familiar </text>
<text x="256.9999946" y="197.00000367299998" width="43.00001488000004" height="36.00000983699999" class="text">with </text>
<text x="313.99998288" y="197.00000367299998" width="36.00003695999999" height="36.00000983699999" class="text">the </text>
<text x="360.99999016" y="197.00000367299998" width="92.00000080000007" height="36.00000983699999" class="text">contents </text>
<text x="463.00000708" y="197.00000367299998" width="76.99998539999996" height="36.00000983699999" class="text">thereof </text>
<text x="551.99996968" y="197.00000367299998" width="36.000054519999935" height="36.00000983699999" class="text">and </text>
<text x="600.0000014" y="197.00000367299998" width="44.999993519999975" height="36.00000983699999" class="text">that </text>
<text x="653.0000324" y="197.00000367299998" width="44.999993519999975" height="36.00000983699999" class="text">such </text>
<text x="707.99998936" y="197.00000367299998" width="93.00002524000001" height="36.00000983699999" class="text">contents </text>
<text x="815.00000556" y="197.00000367299998" width="31.000002560000098" height="36.00000983699999" class="text">are </text>
<text x="859.0000273200001" y="197.00000367299998" width="13.999990959999877" height="36.00000983699999" class="text">in </text>
<text x="886.99999168" y="197.00000367299998" width="49.99999279999997" height="36.00000983699999" class="text">their </text>
<text x="950.99997544" y="197.00000367299998" width="82.00007248000009" height="36.00000983699999" class="text">entirety </text>
<text x="1047.00002132" y="197.00000367299998" width="40.99998355999992" height="36.00000983699999" class="text">true </text>
<text x="1097.99998588" y="197.00000367299998" width="40.00001180000004" height="36.00000983699999" class="text">and </text>
<text x="1146.99998936" y="197.00000367299998" width="94.99998632000006" height="36.00000983699999" class="text">accurate </text>
<text x="1249.9999956" y="197.00000367299998" width="21.00003912000011" height="36.00000983699999" class="text">to </text>
<text x="1284.0000363600002" y="197.00000367299998" width="31.000002559999757" height="36.00000983699999" class="text">the </text>
<text x="1324.00004816" y="197.00000367299998" width="46.99995459999991" height="36.00000983699999" class="text">best </text>
<text x="1378.00003336" y="197.00000367299998" width="27.000010159999874" height="36.00000983699999" class="text">of </text>
<text x="1410.00002524" y="197.00000367299998" width="31.000002559999984" height="36.00000983699999" class="text">his </text>
<text x="1455.0000187599999" y="197.00000367299998" width="9.999980999999934" height="36.00000983699999" class="text">(</text>
<text x="1464.0000280000002" y="197.00000367299998" width="49.000003479999805" height="36.00000983699999" class="text">their</text>
<text x="1515.99996432" y="197.00000367299998" width="10.000068800000008" height="36.00000983699999" class="text">) </text>
<text x="1532.99997592" y="197.00000367299998" width="119.00004607999995" height="36.00000983699999" class="text">knowledge
</text>
<text x="104.999998928" y="222.999994206" width="37.00000696400002" height="27.999991205999976" class="text">and </text>
<text x="153.999998896" y="222.999994206" width="64.999997664" height="27.999991205999976" class="text">belief</text>
<text x="221.99999964" y="220.999993533" width="6.999995479999967" height="25.999990532999988" class="text">.
</text>
<text x="1008.9999706" y="275.00000715" width="74.00005255999997" height="67.000000914" class="text">lun
</text>
<text x="1182.9999912" y="296.00000397" width="88.00004351999996" height="77.00001111" class="text">May
</text>
<text x="964.99994884" y="314.99999784" width="158.00008612" height="49.99998267000001" class="text">William </text>
<text x="1133.99998772" y="317.00000079" width="49.00000348000003" height="44.999986680000006" class="text">D. </text>
<text x="1199.00003104" y="321.00000669" width="121.99997891999988" height="46.999989630000016" class="text">Rogers
</text>
<text x="122.00000174799999" y="341.00001342" width="5.000001036000015" height="19.000016640000013" class="text">(</text>
<text x="128.000006152" y="341.00001342" width="20.999993464" height="19.000016640000013" class="text">All </text>
<text x="151.000004596" y="341.00001342" width="42.00000624399999" height="19.000016640000013" class="text">copies </text>
<text x="198.99999943999998" y="341.00001342" width="13.99999096000002" height="19.000016640000013" class="text">of </text>
<text x="216.00001104" y="341.00001342" width="22.999982640000013" height="19.000016640000013" class="text">this </text>
<text x="243.00000364000002" y="341.00001342" width="79.99998847999998" height="19.000016640000013" class="text">amendment </text>
<text x="327.00000208" y="341.00001342" width="32.99998119999998" height="19.000016640000013" class="text">shall </text>
<text x="361.99999704" y="341.00001342" width="16.99999403999999" height="19.000016640000013" class="text">be </text>
<text x="384.00000792" y="341.00001342" width="41.99999044000003" height="19.000016640000013" class="text">signed </text>
<text x="430.00000832" y="341.00001342" width="24.000007080000046" height="19.000016640000013" class="text">and </text>
<text x="461.9999826399999" y="341.00001342" width="37.99999804000004" height="19.000016640000013" class="text">sworn </text>
<text x="506.00000439999997" y="341.00001342" width="9.999981000000048" height="19.000016640000013" class="text">to </text>
<text x="524.00000532" y="341.00001342" width="40.000011799999925" height="19.000016640000013" class="text">before </text>
<text x="569.9999706" y="341.00001342" width="5.000051960000064" height="19.000016640000013" class="text">a </text>
<text x="582.00000048" y="341.00001342" width="42.99999731999992" height="19.000016640000013" class="text">notary </text>
<text x="629.99997952" y="341.00001342" width="40.000011799999925" height="19.000016640000013" class="text">public </text>
<text x="676.00001504" y="341.00001342" width="16.99995892000004" height="19.000016640000013" class="text">or </text>
<text x="696.00001216" y="341.00001342" width="36.000001840000095" height="19.000016640000013" class="text">other </text>
<text x="734.0000102" y="341.00001342" width="44.999993519999975" height="19.000016640000013" class="text">person
</text>
<text x="103.999997316" y="363.00002309999996" width="71.00000909199998" height="22.00000967999995" class="text">authorized </text>
<text x="182.00000540000002" y="363.00002309999996" width="11.999994759999964" height="22.00000967999995" class="text">to </text>
<text x="200.99999563999998" y="363.00002309999996" width="73.00001055999999" height="22.00000967999995" class="text">administer </text>
<text x="277.99999859999997" y="363.00002309999996" width="37.99999804000004" height="22.00000967999995" class="text">oaths </text>
<text x="318.99999972" y="363.00002309999996" width="20.000014679999992" height="22.00000967999995" class="text">by </text>
<text x="342.99998924" y="363.00002309999996" width="20.000014679999992" height="22.00000967999995" class="text">the </text>
<text x="368.00000320000004" y="363.00002309999996" width="38.00001559999998" height="22.00000967999995" class="text">ugent</text>
<text x="406.0000188" y="363.00002309999996" width="5.999988599999995" height="22.00000967999995" class="text">, </text>
<text x="417.999996" y="363.00002309999996" width="8.999991679999994" height="22.00000967999995" class="text">if </text>
<text x="430.00000832" y="363.00002309999996" width="22.99998264000004" height="22.00000967999995" class="text">the </text>
<text x="458.99999712" y="363.00002309999996" width="65.00000820000002" height="22.00000967999995" class="text">registrant </text>
<text x="530.00001148" y="363.00002309999996" width="9.00000923999994" height="22.00000967999995" class="text">is </text>
<text x="546.0000162" y="363.00002309999996" width="16.999958919999926" height="22.00000967999995" class="text">an </text>
<text x="569.9999706" y="363.00002309999996" width="70.00004260000003" height="22.00000967999995" class="text">individual</text>
<text x="636.999975" y="363.00002309999996" width="6.000023720000058" height="22.00000967999995" class="text">, </text>
<text x="647.0000086800001" y="363.00002309999996" width="16.999958919999926" height="22.00000967999995" class="text">or </text>
<text x="669.00001956" y="363.00002309999996" width="16.999958919999926" height="22.00000967999995" class="text">by </text>
<text x="689.9999884399999" y="363.00002309999996" width="6.000023720000058" height="22.00000967999995" class="text">a </text>
<text x="707.0000176000001" y="363.00002309999996" width="54.000002759999916" height="22.00000967999995" class="text">majority </text>
<text x="766.0000020800001" y="363.00002309999996" width="17.000011599999993" height="22.00000967999995" class="text">of
</text>
<text x="103.000000972" y="386.0000001" width="36.999998184000006" height="24.000012630000015" class="text">those </text>
<text x="143.99999858" y="386.0000001" width="53.00000465999997" height="24.000012630000015" class="text">partners</text>
<text x="198.99999943999998" y="386.0000001" width="6.999995480000024" height="24.000012630000015" class="text">, </text>
<text x="208.999998" y="386.0000001" width="48.99998592000003" height="24.000012630000015" class="text">officers</text>
<text x="256.00000528000004" y="386.0000001" width="6.999995479999939" height="24.000012630000015" class="text">, </text>
<text x="266.00000384" y="386.0000001" width="59.999991360000024" height="24.000012630000015" class="text">directors </text>
<text x="328.99999828" y="386.0000001" width="12.99998407999999" height="24.000012630000015" class="text">or </text>
<text x="348.00000608" y="386.0000001" width="50.99998212000003" height="24.000012630000015" class="text">persons </text>
<text x="399.99999507999996" y="386.0000001" width="75.00000675999996" height="24.000012630000015" class="text">performing </text>
<text x="481.000008" y="386.0000001" width="47.00000727999998" height="24.000012630000015" class="text">similar </text>
<text x="528.9999870400001" y="386.0000001" width="62.000022679999915" height="24.000012630000015" class="text">functions </text>
<text x="593.99999524" y="386.0000001" width="24.000007080000046" height="24.000012630000015" class="text">who </text>
<text x="622.99998404" y="386.0000001" width="24.000024640000106" height="24.000012630000015" class="text">are </text>
<text x="647.99998044" y="386.0000001" width="14.000043640000058" height="24.000012630000015" class="text">in </text>
<text x="665.99998136" y="386.0000001" width="19.99999711999999" height="24.000012630000015" class="text">the </text>
<text x="689.9999884399999" y="386.0000001" width="44.000021760000095" height="24.000012630000015" class="text">United </text>
<text x="739.00000948" y="386.0000001" width="36.999973599999976" height="24.000012630000015" class="text">States</text>
<text x="777.00000752" y="386.0000001" width="6.999995479999939" height="24.000012630000015" class="text">,
</text>
<text x="104.999998928" y="408.00000977999997" width="9.000005728000005" height="19.000016639999956" class="text">if </text>
<text x="120.99999838" y="408.00000977999997" width="19.000000776000007" height="19.000016639999956" class="text">the </text>
<text x="148.999999616" y="408.00000977999997" width="61.99999458400001" height="19.000016639999956" class="text">registrant </text>
<text x="218.99999656" y="408.00000977999997" width="9.000009239999997" height="19.000016639999956" class="text">is </text>
<text x="238.00000436" y="408.00000977999997" width="13.99999096000002" height="19.000016639999956" class="text">an </text>
<text x="257.99998392000003" y="408.00000977999997" width="83.00000911999996" height="19.000016639999956" class="text">organization</text>
<text x="342.99998924" y="408.00000977999997" width="5.000016840000001" height="19.000016639999956" class="text">.</text>
<text x="350.99999160000004" y="408.00000977999997" width="5.000016839999944" height="19.000016639999956" class="text">)
</text>
<text x="103.999997316" y="471.99999032999995" width="122.000012284" height="29.999998709999943" class="text">Subscribed </text>
<text x="238.99999368000002" y="471.99999032999995" width="37.99999804000001" height="29.999998709999943" class="text">and </text>
<text x="291.00000024" y="471.99999032999995" width="62.999994439999966" height="29.999998709999943" class="text">sworn </text>
<text x="369.99998184" y="471.99999032999995" width="17.000029160000054" height="29.999998709999943" class="text">to </text>
<text x="401.00000196" y="471.99999032999995" width="67.00000439999997" height="29.999998709999943" class="text">before </text>
<text x="488.00000348" y="471.99999032999995" width="27.99998192000004" height="29.999998709999943" class="text">me </text>
<text x="528.00001528" y="471.99999032999995" width="22.000010880000104" height="29.999998709999943" class="text">at
</text>
<text x="631.00002152" y="496.00000295999996" width="340.9999754799999" height="91.00000898999997" class="text">Washington</text>
<text x="1015.0000469999999" y="489.99999411" width="25.99991548000014" height="83.99998728000003" class="text">, </text>
<text x="1061.00001228" y="489.00002679" width="94.99998632000006" height="86.00003576999995" class="text">D.C</text>
<text x="1173.99999952" y="487.00002384" width="26.000020839999934" height="84.00003281999994" class="text">;
</text>
<text x="103.000000972" y="540.00002232" width="44.00000595600001" height="56.000014290000024" class="text">this </text>
<text x="158.99999993199998" y="542.0000025" width="96.000016028" height="56.99998161000008" class="text">14th </text>
<text x="281.00000168" y="544.00000545" width="41.00001867999998" height="56.000014290000024" class="text">day </text>
<text x="331.9999838" y="544.00000545" width="20.000014679999992" height="54.000011340000015" class="text">of </text>
<text x="477.99996980000003" y="556.9999904700001" width="211.00004688" height="82.9999971900001" class="text">August </text>
<text x="723.00000476" y="557.9999805599999" width="107.00001619999989" height="80.99997146999993" class="text">1990 </text>
<text x="961.00004424" y="538.00001937" width="187.99990620000005" height="60.00002019000004" class="text">Latitia </text>
<text x="1253.0000338" y="536.00001642" width="17.00001159999988" height="58.00001723999998" class="text">n</text>
<text x="1293.0000456" y="536.00001642" width="16.999906239999973" height="58.00001723999998" class="text">. </text>
<text x="1321.00000996" y="569.99999826" width="180.99996340000007" height="100.00001087999999" class="text">Dyson
</text>
<text x="101.00000126" y="666.99999333" width="48.999999968" height="86.99998031999996" class="text">My </text>
<text x="160.0000033" y="666.99999333" width="134.99998934" height="89.00000604000002" class="text">commission </text>
<text x="295.99999952" y="665.0000359200001" width="93.99999699999995" height="89.00000604000002" class="text">expires </text>
<text x="420.99999908" y="663.99997752" width="148.99997151999997" height="89.99999613" class="text">May </text>
<text x="568.00002708" y="662.00002011" width="64.99999063999996" height="88.00003872000002" class="text">14</text>
<text x="629.99997952" y="661.00003002" width="27.000010159999988" height="87.00004863000004" class="text">, </text>
<text x="672.9999768399999" y="661.00003002" width="99.00004896000007" height="88.00001595000003" class="text">1994
</text>
<text x="1132.00002664" y="573.00001407" width="9.000009239999827" height="32.99999175000005" class="text">(</text>
<text x="1142.00000764" y="573.00001407" width="75.99999608000007" height="32.99999175000005" class="text">Notary </text>
<text x="1230.00005116" y="573.00001407" width="23.99995439999998" height="32.99999175000005" class="text">or </text>
<text x="1267.0000247599999" y="573.00001407" width="54.99995696000019" height="32.99999175000005" class="text">other </text>
<text x="1335.99997268" y="573.00001407" width="69.00007084000003" height="32.99999175000005" class="text">officer</text>
<text x="1409.0000534800001" y="573.00001407" width="8.999991679999994" height="32.99999175000005" class="text">)
</text>
</g>
</svg>
