<svg xmlns="http://www.w3.org/2000/svg">
<style>.text { font-size: 14px; font-family: Arial, sans-serif; }</style>
<g id="page-0" transform="translate(0, 0)">
<rect width="1756" height="2277" fill="none" stroke="black" />
<text x="848.9999936400001" y="109.999996029" width="180.00004432000003" height="34.999992422999995" class="text">Dissemination </text>
<text x="1042.0000396" y="108.999996831" width="87.99993816000006" height="32.99999174999999" class="text">Report
</text>
<text x="1491.99999236" y="102.00000244499999" width="43.000049999999874" height="17.00000458199999" class="text">OMB </text>
<text x="1540.00002408" y="102.00000244499999" width="27.99996436000015" height="17.00000458199999" class="text">No. </text>
<text x="1572.99998772" y="102.00000244499999" width="74.00005256000009" height="17.00000458199999" class="text">1105-0006
</text>
<text x="57.999998672" y="112.99999817700001" width="56.999997060000005" height="31.000000185000005" class="text">U.S. </text>
<text x="119.99999676799999" y="112.99999817700001" width="146.99999639199999" height="33.00000085800001" class="text">Department </text>
<text x="272.99999932000003" y="111.999996702" width="23.999989519999986" height="31.000000185000005" class="text">of </text>
<text x="303.99998432" y="111.999996702" width="69.00001815999997" height="31.999999383000002" class="text">Justic
</text>
<text x="54.999997348" y="149.000008014" width="150.999997572" height="32.00001076800001" class="text">Washington</text>
<text x="210.00000488" y="147.000007341" width="7.999984799999993" height="29.000008620000017" class="text">, </text>
<text x="226.0000096" y="147.000007341" width="64.99999064000002" height="31.000009293000005" class="text">D.C. </text>
<text x="296.99998884" y="146.000005866" width="71.00001436000002" height="31.000007015999998" class="text">20530
</text>
<text x="62.999999708000004" y="227.99999475" width="177.99999017200003" height="31.999992552000037" class="text">INSTRUCTIONS</text>
<text x="238.99999368000002" y="227.99999475" width="8.999991679999965" height="31.999992552000037" class="text">: </text>
<text x="248.99999224" y="227.99999475" width="70.00000748" height="31.999992552000037" class="text">Report </text>
<text x="328.99999828" y="227.99999475" width="49.99999279999997" height="31.999992552000037" class="text">must </text>
<text x="378.00001932" y="227.99999475" width="22.99998264000004" height="31.999992552000037" class="text">be </text>
<text x="407.99999744" y="227.99999475" width="98.99997872" height="31.999992552000037" class="text">submitted </text>
<text x="513.99997164" y="227.99999475" width="18.0000536" height="31.999992552000037" class="text">in </text>
<text x="537.99999628" y="227.99999475" width="89.99998703999995" height="31.999992552000037" class="text">duplicate </text>
<text x="635.0000314800001" y="227.99999475" width="18.000000919999934" height="31.999992552000037" class="text">to </text>
<text x="658.00001412" y="227.99999475" width="31.000002560000098" height="31.999992552000037" class="text">the </text>
<text x="694.00001596" y="227.99999475" width="118.99999339999988" height="31.999992552000037" class="text">Registration </text>
<text x="819.99998728" y="227.99999475" width="51.999988999999914" height="31.999992552000037" class="text">Unit</text>
<text x="869.00000832" y="227.99999475" width="8.999991679999994" height="31.999992552000037" class="text">, </text>
<text x="878.99997176" y="227.99999475" width="80.99999535999996" height="31.999992552000037" class="text">Internal </text>
<text x="963.99997708" y="227.99999475" width="80.00002360000008" height="31.999992552000037" class="text">Security </text>
<text x="1049.99995416" y="227.99999475" width="71.00001436000002" height="31.999992552000037" class="text">Section</text>
<text x="1124.99997848" y="227.99999475" width="9.000009240000054" height="31.999992552000037" class="text">, </text>
<text x="1137.0000259199999" y="227.99999475" width="89.99998704000018" height="31.999992552000037" class="text">Criminal </text>
<text x="1228.99995648" y="227.99999475" width="83.00006179999991" height="31.999992552000037" class="text">Division</text>
<text x="1313.9999618" y="227.99999475" width="9.000009240000054" height="31.999992552000037" class="text">, </text>
<text x="1325.0000199199999" y="227.99999475" width="126.99996064000015" height="31.999992552000037" class="text">Department </text>
<text x="1450.0000370399998" y="227.99999475" width="22.999982640000326" height="31.999992552000037" class="text">of </text>
<text x="1477.00002964" y="227.99999475" width="67.00000439999985" height="31.999992552000037" class="text">Justice</text>
<text x="1544.00003404" y="227.99999475" width="8.999991680000221" height="31.999992552000037" class="text">, </text>
<text x="1553.0000257200002" y="227.99999475" width="87.99993815999983" height="31.999992552000037" class="text">Washing-
</text>
<text x="59.00000204" y="259.99999641" width="35.999996572" height="36.000003005999986" class="text">ton</text>
<text x="94.999998612" y="259.99999641" width="10.000000315999998" height="36.000003005999986" class="text">, </text>
<text x="103.000000972" y="259.99999641" width="52.00000129199999" height="36.000003005999986" class="text">D.C. </text>
<text x="160.0000033" y="259.99999641" width="67.00001318000002" height="36.000003005999986" class="text">20530. </text>
<text x="230.99999131999996" y="259.99999641" width="36.00000184000001" height="36.000003005999986" class="text">The </text>
<text x="275.00001308000003" y="259.99999641" width="77.99997472000001" height="36.000003005999986" class="text">original </text>
<text x="359.99998328" y="259.99999641" width="45.00002863999998" height="36.000003005999986" class="text">must </text>
<text x="411.00000052" y="259.99999641" width="25.999985719999984" height="36.000003005999986" class="text">be </text>
<text x="441.00001376000006" y="259.99999641" width="62.99997687999996" height="36.000003005999986" class="text">signed </text>
<text x="512.9999998799999" y="259.99999641" width="19.999997120000103" height="36.000003005999986" class="text">by </text>
<text x="542.0000062400001" y="259.99999641" width="19.99999711999999" height="36.000003005999986" class="text">or </text>
<text x="564.99998888" y="259.99999641" width="26.99999260000004" height="36.000003005999986" class="text">on </text>
<text x="598.99997696" y="259.99999641" width="62.000022679999915" height="36.000003005999986" class="text">behalf </text>
<text x="667.99999512" y="259.99999641" width="19.99999711999999" height="36.000003005999986" class="text">of </text>
<text x="691.0000304399999" y="259.99999641" width="28.99995368000009" height="36.000003005999986" class="text">the </text>
<text x="725.0000185199999" y="259.99999641" width="99.99996804" height="36.000003005999986" class="text">registrant</text>
<text x="822.00000104" y="259.99999641" width="9.999980999999934" height="36.000003005999986" class="text">. </text>
<text x="835.00000268" y="259.99999641" width="31.000020120000045" height="36.000003005999986" class="text">All </text>
<text x="871.0000045200001" y="259.99999641" width="55.99999895999997" height="36.000003005999986" class="text">items </text>
<text x="931.0000134400001" y="259.99999641" width="13.999990959999877" height="36.000003005999986" class="text">in </text>
<text x="957.0000342799999" y="259.99999641" width="34.99992472000008" height="36.000003005999986" class="text">this </text>
<text x="994.9999796400001" y="259.99999641" width="47.00005995999993" height="36.000003005999986" class="text">form </text>
<text x="1053.9999641200002" y="259.99999641" width="52.00004167999987" height="36.000003005999986" class="text">must </text>
<text x="1105.00003404" y="259.99999641" width="26.99999260000004" height="36.000003005999986" class="text">be </text>
<text x="1136.0000366" y="259.99999641" width="91.99994812000023" height="36.000003005999986" class="text">answered</text>
<text x="1228.99995648" y="259.99999641" width="10.000086360000068" height="36.000003005999986" class="text">, </text>
<text x="1244.0000245600002" y="259.99999641" width="62.99999443999991" height="36.000003005999986" class="text">unless </text>
<text x="1308.00000832" y="259.99999641" width="35.999984280000035" height="36.000003005999986" class="text">the </text>
<text x="1348.00000256" y="259.99999641" width="71.00001436000002" height="36.000003005999986" class="text">answer </text>
<text x="1421.99994976" y="259.99999641" width="13.000019199999997" height="36.000003005999986" class="text">is </text>
<text x="1441.0000278" y="259.99999641" width="9.999980999999934" height="36.000003005999986" class="text">"</text>
<text x="1450.0000370399998" y="259.99999641" width="53.0000134400002" height="36.000003005999986" class="text">none</text>
<text x="1501.99997336" y="259.99999641" width="10.000068800000008" height="36.000003005999986" class="text">" </text>
<text x="1514.999975" y="259.99999641" width="26.99999260000004" height="36.000003005999986" class="text">or </text>
<text x="1541.9999676" y="259.99999641" width="9.999981000000162" height="36.000003005999986" class="text">"</text>
<text x="1550.99997684" y="259.99999641" width="36.999973599999976" height="36.000003005999986" class="text">not </text>
<text x="1593.00003752" y="259.99999641" width="46.99995459999991" height="36.000003005999986" class="text">appli-
</text>
<text x="62.999999708000004" y="286.00001199" width="50.00000333599999" height="28.000018530000034" class="text">cable</text>
<text x="114.000004656" y="286.00001199" width="7.999997091999987" height="28.000018530000034" class="text">,</text>
<text x="123.00000511600001" y="286.00001199" width="7.999995335999984" height="28.000018530000034" class="text">" </text>
<text x="137.000004856" y="286.00001199" width="14.99998905999999" height="28.000018530000034" class="text">in </text>
<text x="156.999994952" y="286.00001199" width="62.00000160799999" height="29.000008620000017" class="text">which </text>
<text x="228.99999511999997" y="284.99999913" width="39.00000492000001" height="27.99999575999999" class="text">case </text>
<text x="276.99999172" y="284.99999913" width="42.00000799999998" height="27.99999575999999" class="text">such </text>
<text x="325.9999952" y="284.99999913" width="21.000004000000047" height="27.99999575999999" class="text">an </text>
<text x="356.99999776" y="284.99999913" width="47.000007280000034" height="27.99999575999999" class="text">entry </text>
<text x="414.0000036" y="284.99999913" width="44.999993519999975" height="28.999985849999973" class="text">shall </text>
<text x="465.99999260000004" y="283.99998627" width="20.999986439999986" height="27.999972990000003" class="text">be </text>
<text x="499.00000892" y="283.99998627" width="49.00000347999992" height="27.999972990000003" class="text">made </text>
<text x="553.99998344" y="283.99998627" width="15.999987159999932" height="27.999972990000003" class="text">in </text>
<text x="577.99999052" y="283.99998627" width="33.000016319999986" height="27.999972990000003" class="text">the </text>
<text x="618.00000232" y="283.99998627" width="110.99997348" height="28.99998585000003" class="text">appropriate </text>
<text x="737.99996748" y="282.99999618" width="55.00002719999998" height="27.99999575999999" class="text">space</text>
<text x="795.00000844" y="282.99999618" width="8.00001992" height="27.99999575999999" class="text">. </text>
<text x="806.00001388" y="282.99999618" width="15.999987160000046" height="27.99999575999999" class="text">If </text>
<text x="824.9999865599999" y="282.99999618" width="103.99997800000017" height="28.99998585" class="text">additional </text>
<text x="932.00000276" y="281.99998332" width="53.000013439999975" height="27.999972990000032" class="text">space </text>
<text x="990.99996968" y="281.99998332" width="15.000068080000005" height="27.999972990000032" class="text">is </text>
<text x="1011.0000370399999" y="281.99998332" width="71.99998612000002" height="27.999972990000032" class="text">needed </text>
<text x="1092.0000324" y="281.99998332" width="26.99999260000004" height="27.999972990000032" class="text">for </text>
<text x="1124.00000672" y="281.99998332" width="36.00000183999987" height="28.99998585" class="text">any </text>
<text x="1164.99999028" y="280.99999323" width="44.00002175999998" height="27.999995759999962" class="text">item</text>
<text x="1212.00005024" y="280.99999323" width="7.999914559999752" height="27.999995759999962" class="text">, </text>
<text x="1223.000003" y="280.99999323" width="56.00005164000004" height="27.999995759999962" class="text">attach </text>
<text x="1290.99997916" y="280.99999323" width="136.0000752399999" height="29.99999870999997" class="text">supplemental </text>
<text x="1429.99996968" y="280.00000314" width="56.00005164000004" height="27.99999575999999" class="text">sheet </text>
<text x="1488.99995416" y="280.00000314" width="108.0000933199999" height="27.99999575999999" class="text">identifying </text>
<text x="1603.0000185200001" y="280.00000314" width="40.00001179999981" height="29.00000861999999" class="text">each
</text>
<text x="62.999999708000004" y="309.99997908" width="41.99999921999999" height="20.99997404999999" class="text">item</text>
<text x="109.999994696" y="309.99997908" width="6.000002647999992" height="20.99997404999999" class="text">.
</text>
<text x="80.99999711599999" y="378.00001107" width="22.000003856000006" height="30.000021480000044" class="text">1. </text>
<text x="113.000003044" y="380.00001402000004" width="75.99999783600002" height="32.00002443000005" class="text">Name </text>
<text x="200.99999563999998" y="378.99997839" width="21.999993320000016" height="29.99997594000007" class="text">of </text>
<text x="228.99999511999997" y="380.99998134000003" width="123.99999268000008" height="31.99997889000008" class="text">registrant
</text>
<text x="160.0000033" y="430.00001946" width="104.00000433999998" height="29.000031389999947" class="text">Daniel </text>
<text x="283.00001543999997" y="430.00001946" width="32.999981200000036" height="30.000021479999987" class="text">J. </text>
<text x="333.99999756" y="429.0000066" width="118.00000408" height="29.000008620000017" class="text">Edelman</text>
<text x="457.99997268" y="429.0000066" width="8.000019920000057" height="29.000008620000017" class="text">, </text>
<text x="490.00001724" y="429.0000066" width="65.99996240000002" height="29.000008620000017" class="text">Inc.
</text>
<text x="1195.00002108" y="376.99997544" width="23.999971960000266" height="31.99995611999998" class="text">2. </text>
<text x="1226.0000412" y="376.99997544" width="153.99995323999997" height="33.99995906999999" class="text">Registration </text>
<text x="1389.9999754399998" y="376.00000812" width="53.0000134400002" height="32.000024429999996" class="text">No.
</text>
<text x="1300.99996016" y="425.00000070000004" width="61.00003336000009" height="30.99998880000004" class="text">3634
</text>
<text x="78.00000281599999" y="487.00002384" width="24.999998156000004" height="34.000027380000006" class="text">3. </text>
<text x="111.999999676" y="487.00002384" width="85.00000356399998" height="34.000027380000006" class="text">Nature </text>
<text x="208.999998" y="485.99998820999997" width="31.000002559999984" height="34.00000460999996" class="text">of </text>
<text x="247.99998535999998" y="485.99998820999997" width="103.00000624000006" height="34.00000460999996" class="text">material </text>
<text x="356.99999776" y="485.99998820999997" width="10.000016119999998" height="34.00000460999996" class="text">(</text>
<text x="374.00000936" y="485.99998820999997" width="9.999998559999995" height="34.00000460999996" class="text">A </text>
<text x="401.00000196" y="485.99998820999997" width="85.00000532000001" height="34.00000460999996" class="text">concise </text>
<text x="494.99999896" y="485.00002089" width="96.99998252000006" height="34.00000461000002" class="text">account </text>
<text x="600.99999072" y="485.00002089" width="24.99997884000004" height="34.00000461000002" class="text">of </text>
<text x="633.00001772" y="485.00002089" width="38.99998736000009" height="34.00000461000002" class="text">the </text>
<text x="678.0000112399999" y="485.00002089" width="76.00001364000013" height="34.00000461000002" class="text">nature </text>
<text x="763.00001656" y="484.00000802999995" width="30.99994988000003" height="34.00002737999995" class="text">of </text>
<text x="799.0000184" y="484.00000802999995" width="34.999959839999974" height="34.00002737999995" class="text">the </text>
<text x="846.0000081200001" y="484.00000802999995" width="142.00004627999988" height="34.999994699999945" class="text">propaganda </text>
<text x="1004.99996064" y="484.00000802999995" width="97.00003519999984" height="34.999994699999945" class="text">material </text>
<text x="1109.0000440000001" y="483.00001794" width="51.99993631999973" height="34.00000461000002" class="text">filed</text>
<text x="1163.00004676" y="483.00001794" width="9.999963440000101" height="34.00000461000002" class="text">)
</text>
<text x="157.99999832" y="530.99999766" width="174.99999236" height="27.00000566999995" class="text">Newsletter
</text>
<text x="75.999997836" y="582.9999832799999" width="27.99999948" height="29.9999759399999" class="text">4. </text>
<text x="119.99999676799999" y="584.00001891" width="52.00000129200001" height="31.00001156999997" class="text">Title </text>
<text x="185.99999780000002" y="584.00001891" width="21.999993319999987" height="30.000044249999974" class="text">of </text>
<text x="221.99999964" y="585.99999909" width="100.00002072000001" height="32.00002442999994" class="text">material</text>
<text x="321.00001348" y="585.000009" width="8.999991679999994" height="29.99999871" class="text">, </text>
<text x="337.00000064" y="585.000009" width="16.99999403999999" height="29.99999871" class="text">if </text>
<text x="366.00000700000004" y="585.99999909" width="41.999990439999976" height="30.000021479999987" class="text">any
</text>
<text x="904.0000208399999" y="582.9999832799999" width="23.999954400000206" height="30.999966029999882" class="text">5. </text>
<text x="939.00003336" y="582.9999832799999" width="78.99994647999995" height="31.999978889999966" class="text">Name </text>
<text x="1024.00003868" y="581.9999931899999" width="28.99995368000009" height="30.999988799999983" class="text">of </text>
<text x="1060.00004052" y="581.9999931899999" width="81.99996711999984" height="30.999988799999983" class="text">foreign </text>
<text x="1158.00004748" y="581.9999931899999" width="110.99992080000015" height="32.999991749999936" class="text">principal </text>
<text x="1275.00004468" y="581.0000031" width="28.99995368000009" height="30.999988799999983" class="text">on </text>
<text x="1315.00003892" y="581.0000031" width="80.99999535999996" height="30.999988799999983" class="text">whose </text>
<text x="1405.00004352" y="581.0000031" width="83.99991064000005" height="32.00000165999995" class="text">behalf </text>
<text x="1492.9999641200002" y="580.0000130100001" width="44.99999351999986" height="31.000011570000083" class="text">this </text>
<text x="1553.0000257200002" y="580.0000130100001" width="99.99996803999989" height="31.000011570000083" class="text">material
</text>
<text x="939.00003336" y="617.00001066" width="49.00002103999998" height="28.99998585000003" class="text">was </text>
<text x="998.00001784" y="617.00001066" width="140.99995160000003" height="31.000011570000083" class="text">transmitted</text>
<text x="1143.99996872" y="615.99997503" width="8.000019920000113" height="29.000008620000017" class="text">.
</text>
<text x="161.000006668" y="674.00001504" width="207.99998585199998" height="34.00005014999999" class="text">Perspectives
</text>
<text x="950.99997544" y="667.99998342" width="155.0000303600001" height="34.999971930000015" class="text">Malaysian </text>
<text x="1125.9999678" y="666.99999333" width="68.0000815200001" height="35.0000174700001" class="text">Palm </text>
<text x="1209.00001204" y="666.0000032400001" width="53.000013439999975" height="34.00002738000012" class="text">Oil </text>
<text x="1276.9999882" y="666.0000032400001" width="155.00004792000004" height="36.000007560000086" class="text">Promotion </text>
<text x="1451.99998056" y="665.0000359200001" width="120.00003539999989" height="36.000007560000086" class="text">Council
</text>
<text x="78.99999916" y="753.99997365" width="24.000001811999994" height="26.999960129999977" class="text">6. </text>
<text x="114.000004656" y="753.99997365" width="86.99999098399998" height="28.99998585000003" class="text">Means </text>
<text x="210.9999942" y="752.99998356" width="25.00001395999999" height="26.99996013000009" class="text">of </text>
<text x="244.99999984000002" y="752.99998356" width="152.99998147999995" height="28.99998585000003" class="text">transmission
</text>
<text x="607.99996864" y="751.0000261499999" width="22.00001087999999" height="28.99998585000003" class="text">7. </text>
<text x="642.99999872" y="751.0000261499999" width="71.99998612000002" height="28.99998585000003" class="text">Dates </text>
<text x="725.99999028" y="751.0000261499999" width="28.00003460000005" height="28.99998585000003" class="text">of </text>
<text x="759.99997836" y="751.0000261499999" width="152.00006240000005" height="28.99998585000003" class="text">transmission
</text>
<text x="1132.00002664" y="752.99998356" width="28.999953679999862" height="32.000001660000066" class="text">8. </text>
<text x="1173.0000102000001" y="752.99998356" width="67.00000439999985" height="32.000001660000066" class="text">Total </text>
<text x="1248.00003452" y="752.99998356" width="74.99993651999989" height="32.000001660000066" class="text">copies </text>
<text x="1330.9999909599999" y="752.99998356" width="143.99997224000003" height="32.000001660000066" class="text">transmitted </text>
<text x="1483.00000068" y="752.99998356" width="8.999991679999994" height="32.000001660000066" class="text">·
</text>
<text x="162.99999935600002" y="804.00002463" width="66.999985084" height="26.000038349999954" class="text">Mail
</text>
<text x="644.99999492" y="808.0000305299999" width="85.99997708000012" height="36.999997649999955" class="text">April </text>
<text x="750.99998668" y="804.9999919500001" width="26.99999260000004" height="35.0000174700001" class="text">10</text>
<text x="785.9999992" y="804.00002463" width="11.000005439999882" height="34.00005014999999" class="text">, </text>
<text x="817.99999108" y="804.00002463" width="70.99996168000007" height="36.99999765000007" class="text">1991
</text>
<text x="1177.00002016" y="802.99996623" width="83.99992819999989" height="35.999939250000125" class="text">8,100
</text>
<text x="78.00000281599999" y="854.99997462" width="25.999994500000014" height="27.999995759999933" class="text">9. </text>
<text x="115.999997344" y="854.99997462" width="49.000006992000024" height="27.999995759999933" class="text">List </text>
<text x="173.000001428" y="854.99997462" width="121.00001945200003" height="28.999985849999916" class="text">addresses </text>
<text x="303.00001256" y="854.0000073000001" width="58.999984479999966" height="28.000018530000034" class="text">from </text>
<text x="371.99999560000003" y="854.0000073000001" width="69.00001816000002" height="28.000018530000034" class="text">which </text>
<text x="457.00000092000005" y="854.0000073000001" width="44.999993519999975" height="29.00000862000013" class="text">this </text>
<text x="519.9999953600001" y="853.00001721" width="96.99998252" height="28.000018530000034" class="text">material </text>
<text x="624.00002604" y="853.00001721" width="47.999979040000085" height="28.000018530000034" class="text">was </text>
<text x="681.9999685199999" y="853.00001721" width="142.00002872000005" height="30.000044249999974" class="text">transmitted</text>
<text x="828.00002476" y="852.00002712" width="7.999967240000046" height="27.999995760000047" class="text">: </text>
<text x="906.9999536799999" y="850.9999914900001" width="39.00002248000021" height="29.999975940000013" class="text">10. </text>
<text x="955.99995716" y="850.9999914900001" width="51.00006991999999" height="29.999975940000013" class="text">List </text>
<text x="1016.00001876" y="850.9999914900001" width="66.00003263999986" height="29.999975940000013" class="text">states </text>
<text x="1092.0000324" y="850.9999914900001" width="46.99993704000008" height="29.999975940000013" class="text">and </text>
<text x="1146.99998936" y="850.9999914900001" width="125.99998888000005" height="29.999975940000013" class="text">territories </text>
<text x="1280.99999816" y="850.9999914900001" width="27.99998192000021" height="29.999975940000013" class="text">of </text>
<text x="1312.00001828" y="850.9999914900001" width="39.0000224800001" height="29.999975940000013" class="text">the </text>
<text x="1362.99996528" y="850.9999914900001" width="84.00003356000002" height="29.999975940000013" class="text">United </text>
<text x="1457.9999516" y="850.9999914900001" width="75.99999607999985" height="29.999975940000013" class="text">States </text>
<text x="1540.00002408" y="850.9999914900001" width="22.00001087999999" height="29.999975940000013" class="text">to </text>
<text x="1572.99998772" y="850.9999914900001" width="75.00002431999997" height="29.999975940000013" class="text">which
</text>
<text x="961.00004424" y="887.99996637" width="99.99996804" height="30.999943260000123" class="text">material </text>
<text x="1069.0000322" y="886.99999905" width="49.00000348000003" height="29.00000862000013" class="text">was </text>
<text x="1128.00001668" y="887.99996637" width="140.99995160000003" height="30.999943260000123" class="text">transmitted</text>
<text x="1273.99995" y="886.00000896" width="8.000037480000174" height="28.99998585000003" class="text">:
</text>
<text x="165.99999365600002" y="940.9999648500001" width="115.00000802400001" height="26.99996013000009" class="text">Edelman </text>
<text x="303.00001256" y="939.9999975300001" width="99.9999856" height="26.99996013000009" class="text">Public </text>
<text x="423.00001284" y="939.9999975300001" width="152.00000972000004" height="28.000018530000034" class="text">Relations
</text>
<text x="168.000000392" y="976.9999724099999" width="63.99999780799999" height="28.99998585000003" class="text">1420 </text>
<text x="251.99999532" y="976.9999724099999" width="8.000002360000025" height="28.99998585000003" class="text">K </text>
<text x="285.99998339999996" y="976.9999724099999" width="101.00002760000007" height="28.99998585000003" class="text">Street</text>
<text x="394.00000647999997" y="976.9999724099999" width="8.000002360000053" height="28.99998585000003" class="text">, </text>
<text x="426.99998768" y="976.9999724099999" width="26.000003280000044" height="28.99998585000003" class="text">NW
</text>
<text x="169.000002004" y="1009.99996416" width="60.99998243600001" height="26.99993735999999" class="text">10th </text>
<text x="249.99999912" y="1009.99996416" width="85.99999463999998" height="26.99993735999999" class="text">Floor
</text>
<text x="958.00000604" y="1004.99999094" width="50.99996455999997" height="29.999975940000013" class="text">All </text>
<text x="1027.99994328" y="1004.00000085" width="28.00008727999989" height="29.999975940000013" class="text">50 </text>
<text x="1078.00004144" y="1004.00000085" width="98.00000696000006" height="32.000001660000066" class="text">states </text>
<text x="1197.99995392" y="1003.00001076" width="51.00006991999999" height="31.000011570000083" class="text">and </text>
<text x="1267.99999652" y="1001.99997513" width="47.000042399999984" height="29.999975940000127" class="text">the </text>
<text x="1335.99997268" y="1001.99997513" width="134.00000879999993" height="31.999956120000093" class="text">District </text>
<text x="1491.99999236" y="999.99999495" width="32.999963639999805" height="29.999975940000013" class="text">of </text>
<text x="1542.9999569200002" y="999.99999495" width="134.00000879999993" height="32.000001660000066" class="text">Columbia
</text>
<text x="161.000006668" y="1049.0000103" width="171.999984012" height="35.00004024000009" class="text">Washington</text>
<text x="340.99999304" y="1046.9999618099998" width="9.0000268" height="31.99993334999988" class="text">, </text>
<text x="369.99998184" y="1046.9999618099998" width="35.00003007999999" height="32.999991749999936" class="text">DC </text>
<text x="443.99998172000005" y="1040.00000841" width="80.99999535999996" height="27.00002844000005" class="text">20005
</text>
<text x="66.999997376" y="1094.9999870699999" width="39.000004919999995" height="29.999975939999786" class="text">11. </text>
<text x="120.99999838" y="1094.9999870699999" width="73.00000177999999" height="32.00002442999994" class="text">Types </text>
<text x="202.00000252" y="1093.9999969799999" width="27.99998192000001" height="29.999975939999786" class="text">of </text>
<text x="237.00001504" y="1093.9999969799999" width="120.99998959999999" height="32.00000165999995" class="text">recipients </text>
<text x="368.99999252" y="1092.0000395700001" width="9.0000268" height="30.0000442500002" class="text">(</text>
<text x="381.99999416" y="1092.0000395700001" width="48.00001415999998" height="30.0000442500002" class="text">Give </text>
<text x="441.99998552" y="1092.0000395700001" width="90.00003972000002" height="32.00002443000017" class="text">number </text>
<text x="541.00001692" y="1090.99998117" width="27.999981919999982" height="29.999975940000013" class="text">of
</text>
<text x="909.00000256" y="1089.99999108" width="37.999962919999916" height="32.999991749999936" class="text">12. </text>
<text x="962.00003356" y="1089.99999108" width="47.99990880000007" height="32.999991749999936" class="text">List </text>
<text x="1015.0000469999999" y="1089.99999108" width="87.99992060000011" height="32.999991749999936" class="text">names </text>
<text x="1114.0000257200002" y="1089.99999108" width="41.99997287999986" height="32.999991749999936" class="text">and </text>
<text x="1169.0000002400002" y="1089.99999108" width="121.00000715999977" height="32.999991749999936" class="text">addresses </text>
<text x="1304.99997012" y="1089.99999108" width="25.000031519999993" height="32.999991749999936" class="text">of </text>
<text x="1340.9999544" y="1089.99999108" width="95.00009167999997" height="32.999991749999936" class="text">persons </text>
<text x="1450.0000370399998" y="1089.99999108" width="24.999926160000086" height="32.999991749999936" class="text">or </text>
<text x="1486.00002132" y="1089.99999108" width="167.9999617599999" height="32.999991749999936" class="text">organizations
</text>
<text x="68.000000744" y="1130.99999463" width="161.99998369600002" height="33.99998183999992" class="text">organizations </text>
<text x="238.99999368000002" y="1130.00000454" width="18.000000919999962" height="32.00000165999995" class="text">in </text>
<text x="274.0000062" y="1129.00001445" width="50.99998212000003" height="32.00000165999995" class="text">each </text>
<text x="338.00000752" y="1129.00001445" width="64.99999064000002" height="32.00000165999995" class="text">group</text>
<text x="405.00001191999996" y="1129.00001445" width="8.99999168000005" height="32.00000165999995" class="text">)
</text>
<text x="957.0000342799999" y="1125.99999864" width="114.9999307600001" height="33.99995906999993" class="text">receiving </text>
<text x="1084.99998424" y="1125.99999864" width="34.00004076000005" height="33.99995906999993" class="text">100 </text>
<text x="1134.99995948" y="1125.99999864" width="76.0000136399999" height="33.99995906999993" class="text">copies </text>
<text x="1223.000003" y="1125.99999864" width="25.000031519999993" height="33.99995906999993" class="text">or </text>
<text x="1260.99994836" y="1125.99999864" width="58.000012720000086" height="33.99995906999993" class="text">more</text>
<text x="1321.99998172" y="1125.99999864" width="9.999980999999934" height="33.99995906999993" class="text">:
</text>
<text x="979.00004516" y="1265.00005566" width="9.999981000000048" height="35.00008578000006" class="text">N</text>
<text x="999.99997892" y="1265.00005566" width="9.999963440000101" height="35.00008578000006" class="text">/</text>
<text x="1013.99996988" y="1265.00005566" width="10.000068800000008" height="35.00008578000006" class="text">A
</text>
<text x="68.999997088" y="1194.9999979499999" width="110.99999455199999" height="29.000054159999763" class="text">Libraries
</text>
<text x="64.99999942000001" y="1231.99992729" width="82.999996828" height="33.99995906999993" class="text">Public </text>
<text x="156.00000563199998" y="1228.9999797900002" width="95.99998968800003" height="33.99998184000037" class="text">officials </text>
<text x="272.00001" y="1225.0000422" width="9.999998559999995" height="30.0000442500002" class="text">✗
</text>
<text x="240.00000056" y="1247.99992812" width="6.0000061600000265" height="20.99990574000003" class="text">X
</text>
<text x="66.999997376" y="1268.00000316" width="150.999992304" height="32.99999175000016" class="text">Newspapers
</text>
<text x="68.999997088" y="1295.99995338" width="64.000008344" height="26.99996013000009" class="text">Press </text>
<text x="145.00000019200002" y="1295.99995338" width="95.00000036799997" height="26.99996013000009" class="text">services </text>
<text x="250.99998844" y="1293.9999732" width="27.999999480000014" height="24.999979950000125" class="text">of
</text>
<text x="96.999996568" y="1332.00002925" width="151.999995672" height="31.000034339999957" class="text">associations
</text>
<text x="68.999997088" y="1366.0000110899998" width="153.999991872" height="29.00007692999975" class="text">Educational
</text>
<text x="99.000003304" y="1399.99997016" width="142.99999345599997" height="26.999937359999876" class="text">institutions
</text>
<text x="293.00001399999996" y="1317.99998583" width="5.999988599999995" height="19.999938420000035" class="text">X
</text>
<text x="71.000002068" y="1437.0000361200002" width="62.000003363999994" height="32.00000166000018" class="text">Civic </text>
<text x="141.000002524" y="1440.99997371" width="89.99998879599997" height="32.00000166000018" class="text">groups
</text>
<text x="66.000001032" y="1474.9999555499999" width="76.99999417999999" height="43.99995104999971" class="text">Other </text>
<text x="151.000004596" y="1472.99997537" width="12.999996372000027" height="40.99998077999999" class="text">(</text>
<text x="165.00000433600002" y="1472.99997537" width="74.99999622399997" height="42.99996095999995" class="text">specify</text>
<text x="241.99999676" y="1471.0000179600002" width="13.000019199999997" height="41.0000035500002" class="text">) </text>
<text x="256.9999946" y="1471.0000179600002" width="134.00000880000005" height="44.000087670000084" class="text">Consumer</text>
<text x="396.999992" y="1468.00007046" width="13.000001639999994" height="41.000140169999895" class="text">/</text>
<text x="413.00001427999996" y="1468.00007046" width="85.99999464000007" height="44.000087670000084" class="text">Trade </text>
<text x="521.0000198" y="1465.99995366" width="148.99997151999992" height="44.99991837000016" class="text">magazines</text>
<text x="672.00000508" y="1463.00000616" width="13.000001639999937" height="40.99998077999999" class="text">, </text>
<text x="703.0000076399999" y="1462.0000388400001" width="187.99999400000013" height="46.00004508000006" class="text">Newsletters
</text>
<text x="85.999998152" y="1499.9999355" width="64.000003076" height="37.99989665999988" class="text">Food </text>
<text x="173.000001428" y="1499.9999355" width="218.99999129199998" height="38.99988675000009" class="text">manufacturers</text>
<text x="396.999992" y="1496.999988" width="9.999998559999995" height="35.999939250000125" class="text">, </text>
<text x="426.99998768" y="1496.999988" width="124.00001023999994" height="38.000033280000025" class="text">Medical</text>
<text x="551.99996968" y="1495.99999791" width="10.000033680000001" height="35.999939250000125" class="text">/</text>
<text x="564.0000171199999" y="1495.99999791" width="154.99997768000014" height="38.00003328000025" class="text">Nutrition </text>
<text x="736.99999572" y="1495.00003059" width="222.99997139999994" height="39.00004614000022" class="text">professionals
</text>
<text x="68.000000744" y="1542.00004299" width="42.999995564" height="34.00009569000008" class="text">13. </text>
<text x="122.00000174799999" y="1542.00004299" width="19.000000776000007" height="34.00009569000008" class="text">If </text>
<text x="151.999993916" y="1542.00004299" width="39.00000316400002" height="34.00009569000008" class="text">the </text>
<text x="207.99999112" y="1540.9999390500002" width="98.00000696000001" height="33.99998184000037" class="text">material </text>
<text x="312.00000424" y="1540.9999390500002" width="138.99997295999998" height="34.99997193000013" class="text">transmitted </text>
<text x="463.9999964" y="1539.99994896" width="48.00003172000004" height="33.99998183999992" class="text">was </text>
<text x="521.99999156" y="1539.99994896" width="10.000033680000001" height="33.99998183999992" class="text">a </text>
<text x="548.0000124" y="1539.99994896" width="43.99996908000014" height="33.99998183999992" class="text">film </text>
<text x="606.00002512" y="1539.99994896" width="24.999996399999986" height="33.99998183999992" class="text">or </text>
<text x="640.99998496" y="1539.99994896" width="60.99999824000008" height="33.99998183999992" class="text">radio </text>
<text x="714.99998484" y="1538.99995887" width="24.999996399999986" height="33.99995906999993" class="text">or </text>
<text x="750.99998668" y="1538.99995887" width="117.00003231999995" height="33.99995906999993" class="text">television </text>
<text x="878.0" y="1538.99995887" width="70.00004259999992" height="33.99995906999993" class="text">script</text>
<text x="946.9999654799999" y="1538.99995887" width="10.000068800000008" height="33.99995906999993" class="text">, </text>
<text x="963.99997708" y="1538.99995887" width="85.99997708000001" height="34.99994916000014" class="text">furnish </text>
<text x="1062.99997336" y="1537.99999155" width="38.00005071999999" height="33.999981840000146" class="text">the </text>
<text x="1114.0000257200002" y="1537.99999155" width="113.99995899999999" height="33.999981840000146" class="text">following </text>
<text x="1240.0000146" y="1537.99999155" width="143.9999898000001" height="35.999962019999884" class="text">information</text>
<text x="1385.99996548" y="1537.00000146" width="10.000068800000008" height="33.99998183999992" class="text">:
</text>
<text x="882.99998172" y="1600.00003746" width="56.000051639999924" height="31.00003433999973" class="text">Date </text>
<text x="953.99999608" y="1600.00003746" width="27.999981920000096" height="31.00003433999973" class="text">or </text>
<text x="986.9999597199999" y="1600.00003746" width="66.0000326400002" height="31.00003433999973" class="text">dates </text>
<text x="1065.00002224" y="1600.00003746" width="121.00000716" height="31.00003433999973" class="text">broadcast </text>
<text x="1191.99998288" y="1600.00003746" width="29.00005903999977" height="31.00003433999973" class="text">or </text>
<text x="1227.00001296" y="1600.00003746" width="82.99993887999995" height="31.00003433999973" class="text">shown
</text>
<text x="68.000000744" y="1609.00001658" width="76.99999944800001" height="33.999981840000146" class="text">Name </text>
<text x="156.00000563199998" y="1609.00001658" width="24.99999288800001" height="33.999981840000146" class="text">of </text>
<text x="190.99999708" y="1609.00001658" width="80.00000604000002" height="34.99994916000014" class="text">station</text>
<text x="272.00001" y="1608.00002649" width="9.999998559999995" height="33.99995907000016" class="text">, </text>
<text x="292.00000712" y="1609.00001658" width="147.99996464000003" height="36.000075870000046" class="text">organization</text>
<text x="445.99999548" y="1608.00002649" width="10.000033680000001" height="33.99995907000016" class="text">, </text>
<text x="461.9999826399999" y="1608.00002649" width="29.0000063600001" height="35.00008578000006" class="text">or </text>
<text x="495.99997071999996" y="1607.00005917" width="93.00002524000001" height="34.00011846000007" class="text">theater </text>
<text x="597.00001588" y="1607.00005917" width="67.99999372000002" height="34.00011846000007" class="text">using
</text>
<text x="73.999998124" y="1641.00001824" width="8.00000236000001" height="29.000054159999763" class="text">(</text>
<text x="80.99999711599999" y="1641.00001824" width="108.99999308400002" height="31.00001156999997" class="text">including </text>
<text x="203.0000094" y="1640.00005092" width="37.999980480000005" height="29.000054159999763" class="text">city </text>
<text x="253.00000219999998" y="1640.00005092" width="46.000000399999976" height="30.000044249999974" class="text">and </text>
<text x="310.00000804" y="1639.0000608300002" width="52.99999587999997" height="29.000054160000218" class="text">state</text>
<text x="368.99999252" y="1639.0000608300002" width="8.000019920000057" height="29.000054160000218" class="text">)
</text>
<text x="1384.0000044" y="1596.99995334" width="124.0000278" height="26.99996013000009" class="text">Estimated </text>
<text x="1521.0000513999998" y="1599.00004737" width="134.99998056000004" height="28.00006406999978" class="text">attendance
</text>
<text x="1415.0000069599998" y="1636.9999668" width="9.000009240000281" height="32.99999175000016" class="text">(</text>
<text x="1428.00002616" y="1636.9999668" width="33.99993539999991" height="32.99999175000016" class="text">for </text>
<text x="1470.99995324" y="1636.9999668" width="48.000031719999924" height="32.99999175000016" class="text">film</text>
<text x="1523.99998424" y="1636.9999668" width="8.999991679999994" height="32.99999175000016" class="text">(</text>
<text x="1533.9999476799999" y="1636.9999668" width="9.000009240000281" height="32.99999175000016" class="text">s</text>
<text x="1546.99996688" y="1636.9999668" width="8.999991679999994" height="32.99999175000016" class="text">)</text>
<text x="1557.00003568" y="1636.9999668" width="9.000009239999827" height="32.99999175000016" class="text">)
</text>
<text x="210.9999942" y="1764.99999621" width="8.000002359999996" height="29.000054160000218" class="text">N</text>
<text x="230.99999131999996" y="1764.99999621" width="8.000002360000053" height="29.000054160000218" class="text">/</text>
<text x="244.99999984000002" y="1765.9999863" width="8.000002359999968" height="28.999940310000056" class="text">A
</text>
<text x="878.99997176" y="1829.0000223" width="48.00003172000004" height="202.00002470999993" class="text">REGISTRATION </text>
<text x="875.99998624" y="1893.0000256199999" width="38.0000156000001" height="48.9999925799998" class="text">UNI
</text>
<text x="909.99999188" y="1828.00003221" width="44.00000419999992" height="118.00006020000001" class="text">SECTION
</text>
<text x="941.9999662" y="1758.99996459" width="46.00008819999994" height="137.99999862000004" class="text">INTERNAL </text>
<text x="935.0000234" y="1911.0000066300001" width="45.99998284000003" height="137.00003130000005" class="text">SECURITY
</text>
<text x="1024.00003868" y="1660.9999566600002" width="54.000002759999916" height="41.9999708700002" class="text">91 </text>
<text x="1018.9999515999999" y="1737.00004599" width="54.0000905600001" height="46.00004508000006" class="text">MAY </text>
<text x="1015.0000469999999" y="1789.99997616" width="52.99990808000018" height="31.00001156999997" class="text">20 </text>
<text x="1011.0000370399999" y="1864.99996155" width="54.99997451999991" height="48.999992580000026" class="text">P1 </text>
<text x="1007.00002708" y="1918.99999566" width="53.00001344000009" height="40.99998077999999" class="text">58
</text>
<text x="1119.99999676" y="1780.99999704" width="41.999955320000026" height="136.00004121000006" class="text">CRIMINAL </text>
<text x="1112.9999486000002" y="1917.00003825" width="42.000060679999706" height="121.00000769999997" class="text">DIVISION
</text>
<text x="1151.99998864" y="1732.00000446" width="39.00002247999987" height="73.99999529999991" class="text">DEPT</text>
<text x="1151.99998864" y="1740.9999835800002" width="35.00001251999993" height="11.999926620000224" class="text">. </text>
<text x="1148.99995044" y="1780.00000695" width="37.00007895999988" height="33.99995906999993" class="text">OF </text>
<text x="1142.00000764" y="1909.0000264500002" width="41.999955320000254" height="110.0000484000002" class="text">JUSTICE
</text>
<text x="1178.9999812400001" y="1853.0000121599999" width="36.99997359999975" height="140.99994612" class="text">RECEIVED
</text>
<text x="73.999998124" y="1933.00003908" width="40.999997608" height="41.99997086999997" class="text">14. </text>
<text x="119.99999676799999" y="1933.00003908" width="64.999994152" height="41.99997086999997" class="text">Have </text>
<text x="194.99998948" y="1933.00003908" width="48.000014160000006" height="41.99997086999997" class="text">two </text>
<text x="253.00000219999998" y="1933.00003908" width="78.99998160000001" height="41.99997086999997" class="text">copies </text>
<text x="340.00000372" y="1933.00003908" width="30.99998499999998" height="41.99997086999997" class="text">of </text>
<text x="377.00001244000003" y="1933.00003908" width="41.999990439999976" height="41.99997086999997" class="text">this </text>
<text x="436.99998624" y="1933.00003908" width="102.00003447999995" height="41.99997086999997" class="text">material </text>
<text x="542.0000062400001" y="1933.00003908" width="57.99999515999991" height="41.99997086999997" class="text">been </text>
<text x="616.00000612" y="1933.00003908" width="53.99998519999997" height="41.99997086999997" class="text">filed </text>
<text x="680.99999676" y="1933.00003908" width="49.999975240000026" height="41.99997086999997" class="text">with </text>
<text x="741.00000568" y="1933.00003908" width="42.00000800000009" height="41.99997086999997" class="text">the </text>
<text x="792.00002292" y="1933.00003908" width="152.99998147999997" height="41.99997086999997" class="text">Department </text>
<text x="953.99999608" y="1933.00003908" width="31.000020120000045" height="41.99997086999997" class="text">of </text>
<text x="988.0000544" y="1933.00003908" width="82.99993887999995" height="41.99997086999997" class="text">Justine</text>
<text x="1075.999975" y="1933.00003908" width="12.000029880000056" height="41.99997086999997" class="text">?
</text>
<text x="1245.00001388" y="1925.00005005" width="40.99998355999992" height="30.0000442500002" class="text">No </text>
<text x="1294.0000173600001" y="1924.00005996" width="8.999991679999994" height="28.000086840000222" class="text">☐
</text>
<text x="73.00000178" y="1999.00002258" width="37.999994528" height="37.00006596000003" class="text">15. </text>
<text x="123.00000511600001" y="1999.00002258" width="52.00000129199998" height="37.00006596000003" class="text">Has </text>
<text x="182.00000540000002" y="1999.00002258" width="46.999989719999945" height="37.00006596000003" class="text">this </text>
<text x="241.99999676" y="1999.00002258" width="103.00000624000006" height="37.00006596000003" class="text">material </text>
<text x="350.99999160000004" y="1999.00002258" width="57.00000583999997" height="37.00006596000003" class="text">been </text>
<text x="424.99999148" y="1999.00002258" width="85.99999464000001" height="37.00006596000003" class="text">labeled </text>
<text x="521.0000198" y="1999.00002258" width="26.999992599999928" height="37.00006596000003" class="text">as </text>
<text x="560.00000716" y="1999.00002258" width="102.99998868" height="37.00006596000003" class="text">required </text>
<text x="676.00001504" y="1999.00002258" width="27.999964360000035" height="37.00006596000003" class="text">by </text>
<text x="714.99998484" y="1999.00002258" width="42.00000799999998" height="37.00006596000003" class="text">the </text>
<text x="765.00003032" y="1999.00002258" width="37.99999804000004" height="37.00006596000003" class="text">act</text>
<text x="803.00002836" y="1999.00002258" width="10.999952760000042" height="37.00006596000003" class="text">? </text>
<text x="846.0000081200001" y="1999.00002258" width="42.99994463999997" height="37.00006596000003" class="text">Yes </text>
<text x="899.0000391200001" y="1999.00002258" width="10.999952759999928" height="37.00006596000003" class="text">☑
</text>
<text x="970.00005348" y="1992.9999909599999" width="43.99991639999996" height="28.999917539999842" class="text">No </text>
<text x="1022.99996156" y="1993.99998105" width="8.000019919999886" height="28.999940310000056" class="text">☐
</text>
<text x="68.999997088" y="2066.99998626" width="59.999998383999994" height="32.00002442999971" class="text">Date </text>
<text x="141.000002524" y="2067.99995358" width="29.00000284800001" height="31.000011569999742" class="text">of </text>
<text x="175.99999924" y="2070.00007038" width="75.99999608000002" height="32.00002443000017" class="text">report
</text>
<text x="366.00000700000004" y="2063.00004867" width="75.99997851999996" height="30.0000442500002" class="text">Name </text>
<text x="452.00000164" y="2063.00004867" width="47.000007280000034" height="30.0000442500002" class="text">and </text>
<text x="510.99998612" y="2063.00004867" width="44.00002175999998" height="30.0000442500002" class="text">title
</text>
<text x="1017.9999798399999" y="2067.99995358" width="124.0000278" height="36.99992933999988" class="text">Signature
</text>
<text x="142.999995212" y="2128.00004208" width="123.99999794799999" height="29.000054160000218" class="text">5-10-91
</text>
<text x="384.00000792" y="2129.99999949" width="78.99999916000002" height="33.99995906999993" class="text">Robin </text>
<text x="485.00001796" y="2129.00003217" width="137.99996607999998" height="32.999991749999936" class="text">Matthews</text>
<text x="629.00000776" y="2128.00004208" width="8.999991679999994" height="32.00000166000018" class="text">, </text>
<text x="658.00001412" y="2128.00004208" width="121.99997891999999" height="34.00011846000052" class="text">Account </text>
<text x="799.9999901599999" y="2125.99994805" width="153.00003416000004" height="32.99999175000039" class="text">Executive
</text>
<text x="1033.00004792" y="2213.999964" width="137.99991339999997" height="169.00003296" class="text">Robin </text>
<text x="1200.99999212" y="2202.00003738" width="71.00001436000002" height="163.9999914299999" class="text">S. </text>
<text x="1272.99997824" y="2197.9999631700002" width="329.00006852" height="182.9999397600002" class="text">Matthews
</text>
<text x="775.99998308" y="2194.00002558" width="87.00000151999996" height="27.00009675000001" class="text">Formerly </text>
<text x="873.9999900400001" y="2192.00006817" width="44.00002175999998" height="27.00009675000001" class="text">OBD</text>
<text x="927.00000348" y="2192.00006817" width="7.000048160000006" height="26.0001066599998" class="text">-</text>
<text x="932.00000276" y="2192.00006817" width="23.99995439999998" height="27.00009675000001" class="text">69
</text>
<text x="1532.0000041600001" y="2185.0000464600002" width="43.00003243999981" height="16.999990920000073" class="text">FORM </text>
<text x="1585.99998936" y="2185.0000464600002" width="32.99996364000003" height="18.000117630000204" class="text">CRM</text>
<text x="1625.0000294" y="2184.00005637" width="4.999981720000051" height="17.000127539999994" class="text">-</text>
<text x="1630.00001112" y="2184.00005637" width="22.00001087999999" height="17.000127539999994" class="text">159
</text>
<text x="1595.99997036" y="2208.000069" width="29.000059039999996" height="17.00012754000045" class="text">FEB</text>
<text x="1629.00003936" y="2208.000069" width="4.999981719999823" height="17.00012754000045" class="text">. </text>
<text x="1639.00002036" y="2206.99994229" width="15.999934479999865" height="16.999990920000073" class="text">84
</text>
</g>
</svg>
