<svg xmlns="http://www.w3.org/2000/svg">
<style>.text { font-size: 14px; font-family: Arial, sans-serif; }</style>
<g id="page-0" transform="translate(0, 0)">
<rect width="1756" height="2277" fill="none" stroke="black" />
<text x="886.00001992" y="164.999995182" width="165.00001136000003" height="32.99999174999999" class="text">Dissemination </text>
<text x="1062.99997336" y="164.999995182" width="83.00004423999985" height="29.999991878999992" class="text">Report
</text>
<text x="1524.9999559999999" y="146.000005866" width="40.00001180000004" height="16.000003106999998" class="text">OMB </text>
<text x="1571.00002664" y="146.000005866" width="27.999981919999982" height="16.000003106999998" class="text">No. </text>
<text x="1604.99996204" y="147.000007341" width="67.99999372000025" height="17.000004582000003" class="text">1105-0006
</text>
<text x="1442.00001712" y="171.999996399" width="63.99996620000002" height="20.999987711999978" class="text">Approval </text>
<text x="1512.00004216" y="171.999996399" width="51.99993631999996" height="20.999987711999978" class="text">Expires </text>
<text x="1571.00002664" y="169.999995726" width="35.00003007999999" height="18.99998703899999" class="text">Nov. </text>
<text x="1613.99997128" y="169.999995726" width="13.999990960000105" height="18.99998703899999" class="text">30</text>
<text x="1631.9999722" y="169.999995726" width="4.999981720000051" height="18.99998703899999" class="text">, </text>
<text x="1644.99997384" y="169.999995726" width="31.000020120000045" height="19.999988513999995" class="text">1993
</text>
<text x="104.999998928" y="169.999995726" width="52.99999939200001" height="32.99999174999999" class="text">U.S. </text>
<text x="164.00000096800002" y="169.999995726" width="148.99999259199998" height="32.99999174999999" class="text">Department </text>
<text x="322.00002036" y="169.999995726" width="23.999989519999986" height="32.99999174999999" class="text">of </text>
<text x="358.00000464" y="169.999995726" width="37.99999803999998" height="32.99999174999999" class="text">Jus
</text>
<text x="103.999997316" y="215.000007453" width="129.99999708399997" height="35.00000836199999" class="text">Washington</text>
<text x="238.99999368000002" y="212.000007582" width="9.999998559999995" height="31.000009292999977" class="text">, </text>
<text x="256.00000528000004" y="212.000007582" width="40.999983559999976" height="33.00000996599999" class="text">DC </text>
<text x="307.99999428" y="211.00000838399998" width="72.99999299999996" height="33.000009965999965" class="text">20530
</text>
<text x="104.999998928" y="312.99999489000004" width="163.99999043199998" height="27.999995760000047" class="text">INSTRUCTIONS</text>
<text x="271.00000312000003" y="311.99998203" width="7.999984799999993" height="26.99998290000002" class="text">: </text>
<text x="282.00000855999997" y="311.99998203" width="62.99999444000008" height="27.99999575999999" class="text">Report </text>
<text x="355.00000156" y="310.99999194000003" width="41.99999044000003" height="27.000005670000007" class="text">must </text>
<text x="402.00000884" y="310.99999194000003" width="19.99999711999999" height="27.000005670000007" class="text">be </text>
<text x="433.0000114" y="310.99999194000003" width="81.99998467999995" height="29.000008620000017" class="text">submitted </text>
<text x="526.99999084" y="309.99997908" width="15.000015400000052" height="26.99998290000002" class="text">in </text>
<text x="550.9999979199999" y="309.99997908" width="78.99998160000007" height="26.99998290000002" class="text">duplicate </text>
<text x="640.99998496" y="309.99997908" width="15.000015400000052" height="26.99998290000002" class="text">to </text>
<text x="665.0000096" y="308.99998899" width="26.99999260000004" height="27.000005670000007" class="text">the </text>
<text x="698.00002592" y="309.99997908" width="109.99998416000005" height="28.99998585000003" class="text">Registration </text>
<text x="815.9999773200001" y="307.99997613" width="41.00003623999987" height="26.99998290000002" class="text">Unit</text>
<text x="859.0000273200001" y="307.99997613" width="7.999967239999933" height="26.99998290000002" class="text">, </text>
<text x="873.00001828" y="307.99997613" width="71.99998612000002" height="26.99998290000002" class="text">Internal </text>
<text x="949.99998612" y="307.99997613" width="72.00000367999985" height="27.999972990000003" class="text">Security </text>
<text x="1034.0000196800002" y="307.00000881" width="66.00003263999997" height="27.000005670000007" class="text">Section</text>
<text x="1101.9999958399999" y="307.00000881" width="8.000019920000113" height="27.000005670000007" class="text">, </text>
<text x="1116.99995856" y="307.00000881" width="80.99999535999996" height="29.00000861999996" class="text">Criminal </text>
<text x="1205.99997384" y="306.00001872" width="74.00005256000009" height="27.00002844000005" class="text">Division</text>
<text x="1285.99999744" y="305.00000586" width="8.000019920000113" height="27.00000566999995" class="text">, </text>
<text x="1295.99996088" y="306.00001872" width="114.00006436000012" height="29.000031390000004" class="text">Department </text>
<text x="1415.0000069599998" y="305.00000586" width="18.999972680000155" height="27.00000566999995" class="text">of </text>
<text x="1439.99995068" y="305.00000586" width="58.000012720000086" height="28.000018529999977" class="text">Justice</text>
<text x="1501.99997336" y="304.00001577" width="8.000019919999886" height="27.000028439999994" class="text">, </text>
<text x="1514.999975" y="305.00000586" width="103.00000624000018" height="29.00000861999996" class="text">Washington</text>
<text x="1622.9999629600002" y="303.00000291" width="8.000019919999886" height="27.00000566999995" class="text">, </text>
<text x="1634.99999284" y="303.00000291" width="46.99995460000014" height="27.00000566999995" class="text">D.C.
</text>
<text x="106.99999864" y="342.00000351" width="63.999996052" height="26.000015580000024" class="text">20530. </text>
<text x="177.99999544" y="341.00001342" width="32.99999876000001" height="26.000015580000024" class="text">The </text>
<text x="218.99999656" y="341.00001342" width="70.99999680000002" height="27.00002844000005" class="text">original </text>
<text x="299.00000259999996" y="340.00000056" width="40.00001180000004" height="26.000015580000024" class="text">must </text>
<text x="346.99999920000005" y="340.00000056" width="19.00000779999999" height="26.000015580000024" class="text">be </text>
<text x="376.00000556" y="340.00000056" width="54.99999208000003" height="26.000015580000024" class="text">signed </text>
<text x="439.99997176000005" y="339.00001047" width="19.00002535999994" height="26.000015579999967" class="text">by </text>
<text x="468.99997812000004" y="339.00001047" width="19.00002535999994" height="26.000015579999967" class="text">or </text>
<text x="494.0000272" y="339.00001047" width="23.99995439999998" height="26.000015579999967" class="text">on </text>
<text x="526.00000152" y="339.00001047" width="56.999988280000025" height="27.000028439999994" class="text">behalf </text>
<text x="588.0000242" y="337.99999761" width="18.99997268000004" height="26.000015579999967" class="text">of </text>
<text x="613.0000206" y="337.99999761" width="29.999978120000037" height="26.000015579999967" class="text">the </text>
<text x="649.00000488" y="337.99999761" width="85.99999463999995" height="28.000018529999977" class="text">registrant</text>
<text x="734.99999952" y="337.00000752" width="6.999977919999992" height="26.000015579999967" class="text">. </text>
<text x="750.99998668" y="337.00000752" width="26.000020840000047" height="26.000015579999967" class="text">All </text>
<text x="784.000003" y="337.00000752" width="50.99999967999997" height="27.000028439999994" class="text">items </text>
<text x="841.99999816" y="335.99999465999997" width="13.999990959999991" height="26.000015579999967" class="text">in </text>
<text x="864.99999836" y="335.99999465999997" width="32.999946080000086" height="26.000015579999967" class="text">this </text>
<text x="906.9999536799999" y="335.99999465999997" width="40.00001180000004" height="26.000015579999967" class="text">form </text>
<text x="958.99999536" y="335.00000457000004" width="43.00003244000004" height="26.000015580000024" class="text">must </text>
<text x="1009.9999423600001" y="335.00000457000004" width="19.00009560000001" height="26.000015580000024" class="text">be </text>
<text x="1035.9999632" y="335.00000457000004" width="84.00003356000002" height="27.999995760000047" class="text">answered</text>
<text x="1121.99995784" y="333.99999171" width="7.000030600000173" height="26.000015580000024" class="text">, </text>
<text x="1133.00001596" y="333.99999171" width="57.999995160000026" height="26.000015580000024" class="text">unless </text>
<text x="1200.00002036" y="333.99999171" width="26.000020839999934" height="26.99998290000002" class="text">the </text>
<text x="1236.99999396" y="333.00000162000003" width="62.000005120000196" height="25.999992810000037" class="text">answer </text>
<text x="1308.00000832" y="333.00000162000003" width="9.999963440000101" height="25.999992810000037" class="text">is </text>
<text x="1327.99995276" y="333.00000162000003" width="7.000048159999778" height="25.999992810000037" class="text">"</text>
<text x="1339.00001088" y="331.99998876" width="46.99995459999991" height="25.999970039999994" class="text">none</text>
<text x="1384.99997616" y="331.99998876" width="7.000048160000006" height="25.999970039999994" class="text">" </text>
<text x="1405.00004352" y="331.99998876" width="18.999972680000155" height="25.999970039999994" class="text">or </text>
<text x="1432.00003612" y="331.99998876" width="6.999942800000099" height="25.999970039999994" class="text">"</text>
<text x="1443.99996064" y="331.99998876" width="29.000059040000224" height="25.999970039999994" class="text">not </text>
<text x="1481.0000396" y="331.99998876" width="89.99998703999995" height="27.999972990000003" class="text">applicable</text>
<text x="1572.00001596" y="330.99999867" width="6.999925240000039" height="25.999992810000037" class="text">,</text>
<text x="1578.9999412" y="330.99999867" width="7.000048160000006" height="25.999992810000037" class="text">" </text>
<text x="1595.99997036" y="330.99999867" width="13.999990960000105" height="26.99998290000002" class="text">in </text>
<text x="1618.999953" y="329.99998581" width="54.00000276000014" height="25.999970039999994" class="text">which
</text>
<text x="106.00000229599999" y="370.99998936" width="36.00000359600003" height="25.999970039999937" class="text">case </text>
<text x="152.999997284" y="370.99998936" width="39.000006676" height="27.00000566999995" class="text">such </text>
<text x="200.99999563999998" y="369.99999927000005" width="24.00000707999999" height="26.000015580000024" class="text">an </text>
<text x="233.00000508000002" y="369.99999927000005" width="44.99999351999995" height="26.000015580000024" class="text">entry </text>
<text x="287.99999716" y="369.00000918" width="43.999986639999975" height="25.99999280999998" class="text">shall </text>
<text x="340.00000372" y="369.00000918" width="19.00000779999999" height="25.99999280999998" class="text">be </text>
<text x="373.00000248" y="369.00000918" width="46.00000040000003" height="25.99999280999998" class="text">made </text>
<text x="426.99998768" y="367.99999632000004" width="14.000026080000055" height="25.999992810000037" class="text">in </text>
<text x="452.99999096000005" y="367.99999632000004" width="24.999978839999983" height="25.999992810000037" class="text">the </text>
<text x="486.99997904" y="367.99999632000004" width="105.00000244000006" height="27.999995760000047" class="text">appropriate </text>
<text x="602.99998692" y="367.00000623" width="47.00000727999998" height="25.99999280999998" class="text">space</text>
<text x="653.0000324" y="367.00000623" width="6.999977919999992" height="25.99999280999998" class="text">. </text>
<text x="667.99999512" y="365.99999337" width="15.000015399999938" height="25.999992810000037" class="text">If </text>
<text x="691.0000304399999" y="367.00000623" width="90.99995880000006" height="27.99999575999999" class="text">additional </text>
<text x="790.00000916" y="365.00002605" width="49.99999279999997" height="26.000015579999967" class="text">space </text>
<text x="851.0000074" y="365.00002605" width="9.999963440000101" height="26.000015579999967" class="text">is </text>
<text x="873.00001828" y="365.00002605" width="59.999956240000074" height="27.000028439999994" class="text">needed </text>
<text x="946.9999654799999" y="363.99999042" width="25.000031519999993" height="25.999992810000037" class="text">for </text>
<text x="979.00004516" y="363.99999042" width="33.99993540000003" height="25.999992810000037" class="text">any </text>
<text x="1022.99996156" y="363.99999042" width="34.00004076000005" height="26.99998290000002" class="text">item</text>
<text x="1064.00005048" y="363.00002309999996" width="6.999942799999872" height="26.000015579999967" class="text">, </text>
<text x="1075.999975" y="363.00002309999996" width="52.000041680000095" height="26.000015579999967" class="text">attach </text>
<text x="1137.99999768" y="363.00002309999996" width="125.99998888000005" height="28.00001852999992" class="text">supplemental </text>
<text x="1267.99999652" y="361.99998747" width="49.99997524000014" height="26.999982899999964" class="text">sheet </text>
<text x="1326.999981" y="361.99998747" width="94.99996876" height="27.99999575999999" class="text">identifying </text>
<text x="1432.00003612" y="360.00000729" width="40.00001180000004" height="26.000015579999967" class="text">each </text>
<text x="1482.00001136" y="360.00000729" width="37.999962919999916" height="26.000015579999967" class="text">item</text>
<text x="1523.99998424" y="360.00000729" width="7.000048160000006" height="26.000015579999967" class="text">.
</text>
<text x="108.000002008" y="427.00000365000005" width="62.999992684000006" height="26.000015580000024" class="text">Privacy </text>
<text x="184.00000160000002" y="426.00001356" width="28.999988799999983" height="26.000015580000024" class="text">Act </text>
<text x="217.99998968" y="427.00000365000005" width="88.00000840000001" height="28.000018530000034" class="text">Statement</text>
<text x="307.00000496" y="426.00001356" width="6.999977919999992" height="26.000015580000024" class="text">. </text>
<text x="321.00001348" y="425.00000070000004" width="49.99997523999997" height="26.000015580000024" class="text">Every </text>
<text x="381.99999416" y="426.00001356" width="99.00001383999995" height="27.99999575999999" class="text">registration </text>
<text x="492.00001344000003" y="425.00000070000004" width="85.00000531999996" height="28.000018530000034" class="text">statement</text>
<text x="577.00001876" y="424.00001061" width="6.999995480000052" height="25.99999280999998" class="text">, </text>
<text x="588.99999596" y="424.00001061" width="47.00000727999998" height="27.000028439999994" class="text">short </text>
<text x="642.00002696" y="422.99999775000003" width="43.99995151999997" height="26.000015580000024" class="text">form </text>
<text x="694.00001596" y="422.99999775000003" width="98.99997871999994" height="28.000018530000034" class="text">registration </text>
<text x="804.0000001200001" y="422.99999775000003" width="84.99995263999995" height="28.000018530000034" class="text">statement</text>
<text x="888.99995276" y="422.00000766" width="7.000048159999892" height="25.99999280999998" class="text">, </text>
<text x="900.99998264" y="422.00000766" width="121.99997891999999" height="27.99999575999999" class="text">supplemental </text>
<text x="1030.00000972" y="420.9999948" width="88.00002596000013" height="27.999995760000047" class="text">statement</text>
<text x="1118.00003568" y="420.00000471" width="6.999942799999872" height="25.99999280999998" class="text">, </text>
<text x="1129.99997776" y="420.00000471" width="61.00003335999986" height="25.99999280999998" class="text">exhibit</text>
<text x="1194.00004932" y="418.99999185" width="6.999942799999872" height="25.999992810000037" class="text">, </text>
<text x="1204.00003032" y="420.00000471" width="108.9999597200001" height="27.999995759999933" class="text">amendment</text>
<text x="1312.99999004" y="418.99999185" width="7.000048160000006" height="25.999992810000037" class="text">, </text>
<text x="1325.0000199199999" y="418.99999185" width="125.99998888000005" height="27.99999575999999" class="text">dissemination </text>
<text x="1459.00002872" y="418.00002452999996" width="55.999946279999904" height="27.000028439999937" class="text">report</text>
<text x="1515.99996432" y="416.9999889" width="7.000030600000173" height="25.99999280999998" class="text">, </text>
<text x="1527.9999942" y="416.9999889" width="44.00002175999998" height="25.99999280999998" class="text">copy </text>
<text x="1576.99999768" y="416.9999889" width="18.999972679999928" height="25.99999280999998" class="text">of </text>
<text x="1603.0000185200001" y="416.9999889" width="76.99998539999979" height="27.99999575999999" class="text">political
</text>
<text x="106.99999864" y="455.9999895" width="101.99999936" height="26.99998290000002" class="text">propaganda </text>
<text x="218.99999656" y="454.99999941" width="19.00000779999999" height="25.99999280999998" class="text">or </text>
<text x="244.99999984000002" y="454.99999941" width="47.000007280000005" height="25.99999280999998" class="text">other </text>
<text x="299.00000259999996" y="454.99999941" width="92.00000080000007" height="27.999995759999933" class="text">document </text>
<text x="395.00001336" y="453.99998655" width="18.99999023999999" height="25.99997004000005" class="text">or </text>
<text x="422.00000596" y="453.99998655" width="103.99999555999995" height="27.999972990000003" class="text">information </text>
<text x="537.0000069600001" y="452.99999646" width="38.00001559999998" height="25.999992809999924" class="text">filed </text>
<text x="582.9999898" y="452.99999646" width="37.99999804000004" height="26.999982899999964" class="text">with </text>
<text x="629.99997952" y="451.9999836" width="30.00003079999999" height="25.999970039999994" class="text">the </text>
<text x="667.99999512" y="451.9999836" width="77.00002052000002" height="26.999982899999964" class="text">Attorney </text>
<text x="752.00001112" y="451.00001627999995" width="72.99997543999996" height="27.00000566999995" class="text">General </text>
<text x="831.99998204" y="451.00001627999995" width="53.00006611999993" height="26.00001557999991" class="text">under </text>
<text x="890.0000298799999" y="451.00001627999995" width="32.999963640000146" height="27.00000566999995" class="text">this </text>
<text x="931.0000134400001" y="449.99998065" width="26.00002083999982" height="25.999970039999994" class="text">act </text>
<text x="967.00001528" y="449.99998065" width="9.999981000000048" height="25.999970039999994" class="text">is </text>
<text x="986.9999597199999" y="449.99998065" width="7.000048160000119" height="25.999970039999994" class="text">a </text>
<text x="1003.99998888" y="449.99998065" width="54.99997452000002" height="26.999982899999964" class="text">public </text>
<text x="1066.99998332" y="449.00001333" width="57.000023400000146" height="26.000015579999967" class="text">record </text>
<text x="1133.99998772" y="449.00001333" width="40.00001180000004" height="26.000015579999967" class="text">open </text>
<text x="1185.00005764" y="449.00001333" width="12.99989628000003" height="27.000005670000007" class="text">to </text>
<text x="1205.99997384" y="447.99997770000004" width="58.000012720000086" height="25.99997004000005" class="text">public </text>
<text x="1272.00000648" y="447.99997770000004" width="111.00002616000006" height="27.99997299000006" class="text">examination</text>
<text x="1384.0000044" y="447.00001038" width="7.000048159999778" height="26.000015579999967" class="text">, </text>
<text x="1397.00000604" y="447.99997770000004" width="90.99997636000012" height="27.99997299000006" class="text">inspection </text>
<text x="1497.9999634" y="445.99999752" width="33.00006899999994" height="25.999992810000037" class="text">and </text>
<text x="1540.00002408" y="445.99999752" width="67.99997616000019" height="25.999992810000037" class="text">copying </text>
<text x="1617.00000948" y="445.99999752" width="59.999956240000074" height="27.000005670000007" class="text">during
</text>
<text x="106.00000229599999" y="484.00000802999995" width="27.000003136000004" height="27.00000566999995" class="text">the </text>
<text x="142.999995212" y="484.00000802999995" width="55.000014908000026" height="28.00001852999992" class="text">posted </text>
<text x="207.99999112" y="483.00001794" width="75.00002431999997" height="27.000028439999994" class="text">business </text>
<text x="291.00000024" y="483.00001794" width="51.99998899999997" height="28.000018530000034" class="text">hours </text>
<text x="350.99999160000004" y="482.00000508" width="18.99999023999993" height="27.000005670000007" class="text">of </text>
<text x="376.00000556" y="482.00000508" width="26.99999260000004" height="27.000005670000007" class="text">the </text>
<text x="412.0000074" y="482.00000508" width="106.99999864" height="28.000018529999977" class="text">Registration </text>
<text x="531.0000008" y="481.00001499" width="40.99998356000003" height="27.000028439999994" class="text">Unit </text>
<text x="580.00000428" y="481.00001499" width="9.999981000000048" height="27.000028439999994" class="text">in </text>
<text x="602.99998692" y="481.00001499" width="102.00001692000001" height="29.000031390000004" class="text">Washington</text>
<text x="710.99997488" y="480.00000213" width="8.000019920000113" height="27.000005670000007" class="text">, </text>
<text x="725.99999028" y="480.00000213" width="42.00000799999998" height="27.000005670000007" class="text">D.C. </text>
<text x="770.00001204" y="480.00000213" width="37.99999804000004" height="27.000005670000007" class="text">One </text>
<text x="817.99999108" y="479.00001204" width="41.0000362400001" height="27.000028439999994" class="text">copy </text>
<text x="869.00000832" y="479.00001204" width="19.999944440000036" height="27.000028439999994" class="text">of </text>
<text x="892.99996272" y="479.00001204" width="49.00000348000003" height="27.000028439999994" class="text">every </text>
<text x="953.99999608" y="479.00001204" width="37.99996292000003" height="27.999995760000047" class="text">such </text>
<text x="1000.99995068" y="479.00001204" width="93.00002524000001" height="29.000031390000004" class="text">document </text>
<text x="1101.00002408" y="477.99999918" width="9.999980999999934" height="26.99998290000002" class="text">is </text>
<text x="1119.99999676" y="477.99999918" width="120.00001784000006" height="28.999985849999973" class="text">automatically </text>
<text x="1253.0000338" y="477.00000909" width="78.99992892" height="29.000031389999947" class="text">provided </text>
<text x="1339.9999826399999" y="475.99999622999997" width="14.999962719999985" height="26.999982899999964" class="text">to </text>
<text x="1363.9999546000001" y="475.99999622999997" width="32.00007967999977" height="26.999982899999964" class="text">the </text>
<text x="1400.0000442399999" y="475.99999622999997" width="85.00000532000013" height="28.999985849999973" class="text">Secretary </text>
<text x="1496.00000232" y="475.00000614" width="18.999972679999928" height="27.000028439999937" class="text">of </text>
<text x="1522.99999492" y="475.00000614" width="40.00001180000004" height="27.000028439999937" class="text">State </text>
<text x="1573.99995948" y="475.00000614" width="79.00003428000014" height="29.00000861999996" class="text">pursuant </text>
<text x="1658.9999647999998" y="473.99999327999996" width="15.00006808000012" height="26.999982899999964" class="text">to
</text>
<text x="104.999998928" y="512.00000379" width="66.999999132" height="26.999982900000077" class="text">Section </text>
<text x="179.99999164" y="510.99999092999997" width="8.00001992" height="26.99998290000002" class="text">6</text>
<text x="190.99999708" y="510.99999092999997" width="8.000002359999968" height="26.99998290000002" class="text">(</text>
<text x="198.99999943999998" y="510.99999092999997" width="8.000002360000025" height="26.99998290000002" class="text">b</text>
<text x="212.00000108" y="510.99999092999997" width="7.999984800000021" height="26.99998290000002" class="text">) </text>
<text x="221.99999964" y="510.99999092999997" width="19.99999711999999" height="26.99998290000002" class="text">of </text>
<text x="247.99998535999998" y="510.99999092999997" width="26.00002083999999" height="26.99998290000002" class="text">the </text>
<text x="284.00000475999997" y="510.99999092999997" width="30.999985000000038" height="26.99998290000002" class="text">Act</text>
<text x="314.99998976" y="510.99999092999997" width="8.000002359999996" height="26.99998290000002" class="text">, </text>
<text x="324.99998832" y="510.00000084" width="30.000013239999987" height="26.999982899999964" class="text">and </text>
<text x="366.00000700000004" y="510.00000084" width="57.00000583999997" height="26.999982899999964" class="text">copies </text>
<text x="426.99998768" y="510.00000084" width="20.000032239999996" height="26.999982899999964" class="text">of </text>
<text x="452.99999096000005" y="510.00000084" width="35.99998427999998" height="27.99999575999999" class="text">such </text>
<text x="499.99998067999996" y="510.00000084" width="97.00003520000001" height="28.999985849999973" class="text">documents </text>
<text x="602.99998692" y="508.99998797999996" width="26.99999260000004" height="27.999972989999947" class="text">are </text>
<text x="638.9999887600001" y="507.99999789" width="77.00002051999991" height="27.99999575999999" class="text">routinely </text>
<text x="728.9999758" y="507.99999789" width="45.00004620000004" height="27.99999575999999" class="text">made </text>
<text x="781.99998924" y="506.99998502999995" width="77.00003808000008" height="27.999972989999947" class="text">available </text>
<text x="866.0000228" y="506.99998502999995" width="15.999987159999932" height="26.999982899999964" class="text">to </text>
<text x="888.99995276" y="506.99998502999995" width="50.00008059999993" height="27.999972989999947" class="text">other </text>
<text x="943.00004332" y="505.99999494" width="75.99990827999989" height="27.999995760000047" class="text">agencies</text>
<text x="1021.9999897999999" y="505.99999494" width="8.000019920000113" height="26.99998290000002" class="text">, </text>
<text x="1030.9999814799999" y="505.99999494" width="111.00002616000006" height="28.99998585000003" class="text">departments </text>
<text x="1150.99999932" y="504.99998208" width="30.000030800000104" height="26.99998290000002" class="text">and </text>
<text x="1190.00003936" y="504.99998208" width="85.99997707999978" height="28.99998585000003" class="text">Congress </text>
<text x="1280.99999816" y="503.99999199" width="80.99999536000018" height="27.999995760000047" class="text">pursuant </text>
<text x="1365.00003172" y="502.99997913" width="14.999962719999985" height="26.99998290000002" class="text">to </text>
<text x="1391.0000525599999" y="502.99997913" width="62.99999444000014" height="26.99998290000002" class="text">Section </text>
<text x="1464.9999997599998" y="502.99997913" width="8.00001992000034" height="26.99998290000002" class="text">6</text>
<text x="1475.99995252" y="502.99997913" width="8.000019919999886" height="26.99998290000002" class="text">(</text>
<text x="1483.99997244" y="502.99997913" width="8.000019920000113" height="26.99998290000002" class="text">c</text>
<text x="1491.99999236" y="502.99997913" width="8.000019919999886" height="26.99998290000002" class="text">) </text>
<text x="1505.0000115599998" y="502.00001181" width="18.999972680000155" height="27.000005670000007" class="text">of </text>
<text x="1530.0000430799998" y="502.00001181" width="26.99999260000027" height="27.000005670000007" class="text">the </text>
<text x="1567.00001668" y="502.00001181" width="30.000030799999877" height="27.000005670000007" class="text">Act</text>
<text x="1597.00004748" y="502.00001181" width="7.999914559999979" height="27.000005670000007" class="text">. </text>
<text x="1609.99996132" y="502.00001181" width="62.00000511999997" height="28.000018530000034" class="text">Finally</text>
<text x="1672.9999557600001" y="500.99997618" width="8.000019919999886" height="26.99998290000002" class="text">,
</text>
<text x="106.99999864" y="540.99998964" width="26.000006791999994" height="25.99999280999998" class="text">the </text>
<text x="145.00000019200002" y="540.99998964" width="72.99998948799998" height="27.999995760000047" class="text">Attorney </text>
<text x="229.99998444000002" y="540.00002232" width="72.00002124" height="27.00002844000005" class="text">General </text>
<text x="307.99999428" y="540.00002232" width="80.99999536000001" height="28.00001852999992" class="text">transmits </text>
<text x="396.999992" y="538.99998669" width="18.99999023999999" height="25.999992810000094" class="text">an </text>
<text x="425.99999836" y="538.99998669" width="62.99997688000002" height="26.999982899999964" class="text">annual </text>
<text x="494.0000272" y="538.00001937" width="53.99998519999997" height="26.000015579999967" class="text">report </text>
<text x="553.99998344" y="538.00001937" width="14.000043639999944" height="26.000015579999967" class="text">to </text>
<text x="577.00001876" y="537.0000065099999" width="29.999978120000037" height="26.000015579999967" class="text">the </text>
<text x="613.9999923600001" y="538.00001937" width="85.0000053199999" height="28.000018530000034" class="text">Congress </text>
<text x="705.99999316" y="536.00001642" width="19.00002535999988" height="26.000015579999967" class="text">on </text>
<text x="736.99999572" y="536.00001642" width="26.000020839999934" height="26.000015579999967" class="text">the </text>
<text x="770.00001204" y="536.00001642" width="134.99998055999993" height="27.000028439999994" class="text">Administration </text>
<text x="914.0000018400001" y="535.00000356" width="18.999972679999928" height="26.000015580000024" class="text">of </text>
<text x="939.00003336" y="535.00000356" width="25.999915480000027" height="26.000015580000024" class="text">the </text>
<text x="976.00000696" y="534.00001347" width="30.000030800000104" height="26.000015580000024" class="text">Act </text>
<text x="1011.0000370399999" y="534.00001347" width="54.99997451999991" height="26.000015580000024" class="text">which </text>
<text x="1078.00004144" y="534.00001347" width="33.99993540000014" height="27.00002844000005" class="text">lists </text>
<text x="1118.00003568" y="533.00000061" width="29.999942999999803" height="26.00001558000008" class="text">the </text>
<text x="1152.9999604" y="533.00000061" width="58.00001271999986" height="26.00001558000008" class="text">names </text>
<text x="1222.00001368" y="533.00000061" width="17.000029160000167" height="26.00001558000008" class="text">of </text>
<text x="1245.00001388" y="532.00001052" width="22.000010879999763" height="26.000015580000024" class="text">all </text>
<text x="1276.0000164399999" y="532.00001052" width="54.99997452000002" height="26.000015580000024" class="text">agents </text>
<text x="1338.00003912" y="532.00001052" width="89.00001527999984" height="28.000018530000034" class="text">registered </text>
<text x="1437.00001784" y="530.99999766" width="53.000013439999975" height="26.000015579999967" class="text">under </text>
<text x="1495.00003056" y="530.99999766" width="29.99992543999997" height="27.00000566999995" class="text">the </text>
<text x="1532.0000041600001" y="530.00000757" width="32.999963639999805" height="26.000015579999967" class="text">Act</text>
<text x="1564.9999678" y="530.00000757" width="7.000048160000006" height="26.000015579999967" class="text">, </text>
<text x="1578.9999412" y="530.00000757" width="27.00011552000001" height="26.000015579999967" class="text">the </text>
<text x="1616.00002016" y="530.00000757" width="58.00001271999986" height="27.000028439999994" class="text">foreign
</text>
<text x="106.99999864" y="572.00002398" width="88.99999771999998" height="30.000021479999987" class="text">principals </text>
<text x="207.0000018" y="570.99996558" width="34.99999495999998" height="27.999972989999947" class="text">they </text>
<text x="255.00001595999998" y="570.99996558" width="81.99998468000001" height="29.999975940000013" class="text">represent</text>
<text x="338.00000752" y="569.99999826" width="8.000002359999996" height="27.999995759999933" class="text">, </text>
<text x="350.99999160000004" y="569.99999826" width="31.000002559999984" height="27.999995759999933" class="text">and </text>
<text x="391.0000034" y="569.99999826" width="27.999999479999985" height="29.000008620000017" class="text">the </text>
<text x="429.00000144" y="569.00000817" width="57.00000584000003" height="28.000018530000034" class="text">nature</text>
<text x="486.00000728000003" y="569.00000817" width="8.000019919999943" height="28.000018530000034" class="text">, </text>
<text x="499.00000892" y="569.00000817" width="71.99998612000002" height="30.000021479999987" class="text">sources </text>
<text x="577.99999052" y="567.99999531" width="31.000020120000045" height="27.99997299000006" class="text">and </text>
<text x="620.99998784" y="567.99999531" width="66.00003263999997" height="29.999975940000013" class="text">content </text>
<text x="696.00001216" y="567.00000522" width="15.999987159999932" height="28.000018530000034" class="text">of </text>
<text x="721.99998032" y="567.00000522" width="24.000024639999992" height="28.000018530000034" class="text">the </text>
<text x="756.99999284" y="567.00000522" width="76.00001364000002" height="29.999998710000114" class="text">political </text>
<text x="840.9999737200001" y="565.99999236" width="103.0000589199999" height="29.999975940000013" class="text">propaganda </text>
<text x="953.00002432" y="565.00000227" width="117.99996895999993" height="28.99998585000003" class="text">disseminated </text>
<text x="1082.0000513999998" y="563.99998941" width="20.999916200000143" height="27.99997299000006" class="text">or </text>
<text x="1110.00001576" y="563.99998941" width="94.99998632000006" height="29.999975940000013" class="text">distributed </text>
<text x="1215.9999548399999" y="562.99999932" width="20.00004980000017" height="27.999995760000047" class="text">by </text>
<text x="1245.00001388" y="562.99999932" width="43.00003244000004" height="28.99998585000003" class="text">them</text>
<text x="1291.99995092" y="561.99998646" width="8.000019919999886" height="27.999972989999947" class="text">. </text>
<text x="1307.000019" y="561.99998646" width="40.00001180000004" height="27.999972989999947" class="text">This </text>
<text x="1357.0000118" y="561.99998646" width="53.000013439999975" height="28.999985849999916" class="text">report </text>
<text x="1421.99994976" y="560.99999637" width="11.000058120000176" height="27.999995759999933" class="text">is </text>
<text x="1442.99998888" y="560.99999637" width="76.99998539999979" height="29.99999871" class="text">available </text>
<text x="1533.9999476799999" y="559.99998351" width="11.000058120000176" height="27.999972989999947" class="text">to </text>
<text x="1559.99996852" y="559.99998351" width="23.00000019999993" height="27.999972989999947" class="text">the </text>
<text x="1594.0000092799999" y="559.99998351" width="55.999963839999964" height="28.99998585000003" class="text">public</text>
<text x="1651.00005024" y="558.99999342" width="7.999914559999752" height="27.999995760000047" class="text">.
</text>
<text x="108.99999835199999" y="625.0000224600001" width="55.00000261600003" height="26.000038350000068" class="text">Public </text>
<text x="170.999994692" y="625.0000224600001" width="89.00000298800003" height="28.000018530000034" class="text">Reporting </text>
<text x="264.00000764" y="623.99996406" width="60.99998068000002" height="26.999960129999977" class="text">Burden</text>
<text x="331.00001204" y="622.99997397" width="6.9999954799999955" height="25.999970039999994" class="text">. </text>
<text x="341.99998236" y="622.99997397" width="55.00000964000003" height="25.999970039999994" class="text">Public </text>
<text x="406.99999056" y="622.99997397" width="79.99998848000001" height="27.999995760000047" class="text">reporting </text>
<text x="494.0000272" y="622.00000665" width="60.99998068000002" height="25.999970039999994" class="text">burden </text>
<text x="562.9999751199999" y="622.00000665" width="26.000020840000047" height="27.00002844000005" class="text">for </text>
<text x="593.99999524" y="621.0000165600001" width="28.999988799999983" height="26.000038350000068" class="text">this </text>
<text x="631.99999328" y="622.00000665" width="84.00001599999996" height="28.000018530000034" class="text">collection </text>
<text x="725.99999028" y="619.99995816" width="19.000025359999995" height="25.999970039999994" class="text">of </text>
<text x="750.99998668" y="621.0000165600001" width="100.00002071999995" height="27.999995760000047" class="text">information </text>
<text x="859.0000273200001" y="618.99999084" width="14.999962719999985" height="25.999970039999994" class="text">is </text>
<text x="882.99998172" y="619.99995816" width="80.00002359999985" height="27.999927449999973" class="text">estimated </text>
<text x="971.0000252400001" y="618.99999084" width="13.999990959999877" height="25.999970039999994" class="text">to </text>
<text x="993.00003612" y="618.00000075" width="65.99992728000007" height="25.999970039999994" class="text">average </text>
<text x="1066.99998332" y="618.00000075" width="15.000068079999892" height="25.999970039999994" class="text">.5 </text>
<text x="1088.9999942" y="618.00000075" width="49.99997524000014" height="27.00002844000005" class="text">hours </text>
<text x="1142.9999794" y="617.00001066" width="33.00006899999994" height="26.000038350000068" class="text">per </text>
<text x="1182.00001944" y="617.00001066" width="73.99994719999995" height="27.00002844000005" class="text">response</text>
<text x="1259.9999765999999" y="617.00001066" width="7.000048160000006" height="26.000038350000068" class="text">, </text>
<text x="1272.99997824" y="617.00001066" width="83.00004423999985" height="27.999995760000047" class="text">including </text>
<text x="1361.00002176" y="615.99997503" width="26.000020839999934" height="25.99999280999998" class="text">the </text>
<text x="1396.00003428" y="615.99997503" width="38.999934680000024" height="26.999960129999977" class="text">time </text>
<text x="1442.00001712" y="614.99998494" width="24.999926160000086" height="25.999970039999994" class="text">for </text>
<text x="1473.0000196800002" y="614.99998494" width="85.0000053199999" height="26.999960129999977" class="text">reviewing </text>
<text x="1566.00004492" y="614.99998494" width="103.99997800000006" height="28.000018530000034" class="text">instructions</text>
<text x="1672.9999557600001" y="613.99999485" width="7.000048159999778" height="25.999970039999994" class="text">,
</text>
<text x="108.000002008" y="654.00000831" width="82.99999507200002" height="27.999995759999933" class="text">searching </text>
<text x="203.99999872" y="653.00001822" width="69.00000060000002" height="27.00000566999995" class="text">existing </text>
<text x="281.00000168" y="651.99998259" width="32.99998119999998" height="25.99997003999988" class="text">data </text>
<text x="324.99998832" y="653.00001822" width="69.00001815999997" height="27.999995759999933" class="text">sources</text>
<text x="396.00000267999997" y="650.9999925" width="6.999995480000052" height="25.99997003999988" class="text">, </text>
<text x="408.99998676" y="651.99998259" width="83.00002668000002" height="28.00001852999992" class="text">gathering </text>
<text x="501.99999444" y="650.9999925" width="33.000016319999986" height="27.000028439999937" class="text">and </text>
<text x="548.0000124" y="650.9999925" width="99.99996804" height="28.00001852999992" class="text">maintaining </text>
<text x="658.99998588" y="649.0000350900001" width="26.000020839999934" height="26.000061120000055" class="text">the </text>
<text x="692.99997396" y="649.0000350900001" width="37.99999804000004" height="26.000061120000055" class="text">data </text>
<text x="741.00000568" y="649.0000350900001" width="62.99999444000014" height="28.000018530000034" class="text">needed</text>
<text x="806.99998564" y="647.99997669" width="6.999995480000052" height="25.999970039999994" class="text">, </text>
<text x="822.00000104" y="647.99997669" width="29.00000635999993" height="25.999970039999994" class="text">and </text>
<text x="862.9999846" y="647.99997669" width="100.99999248000006" height="28.000018530000034" class="text">completing </text>
<text x="972.9999863200001" y="646.9999866" width="29.000041479999936" height="27.00002844000005" class="text">and </text>
<text x="1015.0000469999999" y="646.9999866" width="86.99994884" height="27.999995760000047" class="text">reviewing </text>
<text x="1111.00000508" y="645.0000291900001" width="26.000020839999934" height="26.000038350000068" class="text">the </text>
<text x="1146.99998936" y="646.0000192800001" width="85.99997708000001" height="28.000018530000034" class="text">collection </text>
<text x="1245.99998564" y="643.99997079" width="18.999972679999928" height="25.999970039999994" class="text">of </text>
<text x="1272.99997824" y="645.0000291900001" width="103.00000623999995" height="28.000018530000034" class="text">information</text>
<text x="1379.00002268" y="642.9999807" width="6.999942799999872" height="25.999970039999994" class="text">. </text>
<text x="1396.00003428" y="642.9999807" width="43.999916400000075" height="25.999970039999994" class="text">Send </text>
<text x="1447.9999706" y="642.9999807" width="93.9999969999999" height="27.999995760000047" class="text">comments </text>
<text x="1550.99997684" y="642.00001338" width="87.00005420000002" height="28.000018530000034" class="text">regarding </text>
<text x="1644.00000208" y="641.0000232900001" width="32.99996364000003" height="26.000038350000068" class="text">this
</text>
<text x="106.99999864" y="682.99999416" width="58.999995016000014" height="27.000005670000064" class="text">burden </text>
<text x="177.00000612" y="682.99999416" width="71.99998612000002" height="28.99998585000003" class="text">estimate </text>
<text x="257.99998392000003" y="682.00002684" width="23.00001775999999" height="27.00002844000005" class="text">or </text>
<text x="284.99999408" y="682.00002684" width="31.000002559999984" height="28.000018530000034" class="text">any </text>
<text x="325.9999952" y="680.99996844" width="46.00000040000003" height="26.999960129999977" class="text">other </text>
<text x="379.99999796000003" y="680.99996844" width="55.99999895999997" height="27.99995021999996" class="text">aspect </text>
<text x="445.00002372" y="679.99997835" width="18.999972679999985" height="26.999960129999977" class="text">of </text>
<text x="470.00000256000004" y="679.99997835" width="31.00002011999993" height="26.999960129999977" class="text">this </text>
<text x="508.99998991999996" y="679.99997835" width="87.00000152000007" height="28.99998585000003" class="text">collection </text>
<text x="606.99999688" y="679.00001103" width="18.99997268000004" height="27.00002844000005" class="text">of </text>
<text x="633.00001772" y="679.00001103" width="103.99997800000006" height="29.000008620000017" class="text">information</text>
<text x="739.99998124" y="678.00002094" width="8.00001992" height="27.00002844000005" class="text">, </text>
<text x="752.9999828800001" y="678.00002094" width="84.0000335599999" height="28.999985849999916" class="text">including </text>
<text x="848.00002188" y="676.99996254" width="101.99996424000005" height="27.99992744999986" class="text">suggestions </text>
<text x="958.99999536" y="675.99997245" width="26.000020840000047" height="26.999937359999876" class="text">for </text>
<text x="994.00000788" y="675.99997245" width="75.00002432000008" height="28.999985849999916" class="text">reducing </text>
<text x="1076.99996432" y="675.00000513" width="34.00004076000005" height="27.000028439999937" class="text">this </text>
<text x="1115.9999868" y="675.00000513" width="63.99996620000002" height="28.999985849999916" class="text">burden </text>
<text x="1187.9999729200001" y="674.00001504" width="15.000068079999892" height="27.000028439999937" class="text">to </text>
<text x="1215.9999548399999" y="674.00001504" width="50.00008060000005" height="27.000028439999937" class="text">Chief</text>
<text x="1266.00003544" y="674.00001504" width="7.999914559999979" height="27.000028439999937" class="text">, </text>
<text x="1281.99998748" y="674.00001504" width="106.00002687999995" height="28.999985849999916" class="text">Registration </text>
<text x="1396.00003428" y="673.0000249499999" width="40.999983560000146" height="27.99999575999982" class="text">Unit</text>
<text x="1438.99997892" y="671.9999893199999" width="8.000019919999886" height="26.999960129999863" class="text">, </text>
<text x="1452.99996988" y="673.0000249499999" width="86.00008244000014" height="29.000054159999877" class="text">Criminal </text>
<text x="1540.9999958399999" y="671.9999893199999" width="79.00003428000014" height="29.000008619999903" class="text">Division</text>
<text x="1622.9999629600002" y="670.9999992300001" width="8.000019919999886" height="27.00002844000005" class="text">, </text>
<text x="1636.99995392" y="670.9999992300001" width="42.00006067999993" height="28.000018530000034" class="text">U.S.
</text>
<text x="106.99999864" y="711.0000126900001" width="110.00000172" height="28.000018530000034" class="text">Department </text>
<text x="223.99999584" y="710.0000226" width="19.00000780000002" height="26.000038349999954" class="text">of </text>
<text x="250.99998844" y="710.0000226" width="56.00001652" height="27.000028439999937" class="text">Justice</text>
<text x="311.00001492" y="708.9999642" width="6.999977919999992" height="25.999970039999994" class="text">, </text>
<text x="325.9999952" y="710.0000226" width="100.99999248" height="27.999995759999933" class="text">Washington</text>
<text x="433.0000114" y="707.99999688" width="6.9999603600000455" height="25.999970039999994" class="text">, </text>
<text x="445.99999548" y="707.99999688" width="40.99998356000003" height="25.999970039999994" class="text">D.C. </text>
<text x="497.00001272" y="707.99999688" width="53.00001344000009" height="27.00002844000005" class="text">20530</text>
<text x="551.99996968" y="707.00000679" width="7.000048160000006" height="26.000038350000068" class="text">; </text>
<text x="566.99998508" y="707.00000679" width="29.000006360000043" height="26.000038350000068" class="text">and </text>
<text x="606.99999688" y="707.00000679" width="13.999990959999991" height="26.000038350000068" class="text">to </text>
<text x="633.00001772" y="707.00000679" width="25.999968160000094" height="26.000038350000068" class="text">the </text>
<text x="669.9999913199999" y="706.0000167" width="55.999998960000084" height="26.000038349999954" class="text">Office </text>
<text x="736.00002396" y="706.0000167" width="18.999972679999928" height="26.000038349999954" class="text">of </text>
<text x="759.99997836" y="706.0000167" width="107.0000162" height="27.999995759999933" class="text">Information </text>
<text x="877.00002824" y="704.99998107" width="32.99996364000003" height="25.999970039999994" class="text">and </text>
<text x="915.99994536" y="704.99998107" width="102.00003447999995" height="28.000018530000034" class="text">Regulatory </text>
<text x="1029.00003796" y="703.99999098" width="59.99995623999985" height="27.00002844000005" class="text">Affairs</text>
<text x="1091.0000430799998" y="703.00000089" width="6.999942800000099" height="26.000038350000068" class="text">, </text>
<text x="1106.99999512" y="703.00000089" width="56.00005164000004" height="26.000038350000068" class="text">Office </text>
<text x="1173.0000102000001" y="702.00003357" width="18.999972679999928" height="26.000061120000055" class="text">of </text>
<text x="1197.99995392" y="703.00000089" width="119.00004607999995" height="27.999995760000047" class="text">Management </text>
<text x="1324.00004816" y="700.99997517" width="32.99996364000003" height="25.999970039999994" class="text">and </text>
<text x="1367.99996456" y="700.99997517" width="62.99999443999991" height="27.999950220000073" class="text">Budget</text>
<text x="1430.999959" y="699.99998508" width="7.000048160000006" height="25.999970039999994" class="text">, </text>
<text x="1446.0000270799999" y="700.99997517" width="102.00001692000023" height="27.999950220000073" class="text">Washington</text>
<text x="1553.0000257200002" y="698.99999499" width="6.999942799999872" height="25.999970040000107" class="text">, </text>
<text x="1567.00001668" y="698.99999499" width="44.99999352000009" height="25.999970040000107" class="text">D.C. </text>
<text x="1617.00000948" y="698.99999499" width="57.00002339999992" height="27.000005670000064" class="text">20503</text>
<text x="1672.9999557600001" y="698.00002767" width="7.000048159999778" height="26.000038350000068" class="text">.
</text>
<text x="119.99999676799999" y="771.0000328799999" width="27.999999480000014" height="30.000044249999974" class="text">1. </text>
<text x="156.999994952" y="771.0000328799999" width="69.00001464799999" height="30.000044249999974" class="text">Name </text>
<text x="238.99999368000002" y="772.0000002" width="22.000010879999962" height="31.000011570000083" class="text">of </text>
<text x="272.99999932000003" y="772.0000002" width="107.99998795999994" height="30.000044250000087" class="text">registrant
</text>
<text x="139.999999156" y="813.99999384" width="124.00000848399998" height="33.99998183999992" class="text">Qubec </text>
<text x="287.99999716" y="813.00000375" width="206.00003003999996" height="35.00001746999999" class="text">Government </text>
<text x="512.9999998799999" y="810.99997803" width="105.99997420000011" height="33.99998183999992" class="text">House
</text>
<text x="1232.99996644" y="765.99996858" width="25.000049080000053" height="32.999991749999936" class="text">2. </text>
<text x="1264.99995832" y="765.99996858" width="138.0000187600001" height="35.99993925000001" class="text">Registration </text>
<text x="1411.99998632" y="764.0000111700001" width="49.99997523999991" height="35.00004024000009" class="text">No.
</text>
<text x="1365.00003172" y="801.9999761400001" width="85.0000053199999" height="26.99996013000009" class="text">1787
</text>
<text x="122.00000174799999" y="874.00001403" width="30.999995536" height="33.99998184000003" class="text">3. </text>
<text x="156.999994952" y="874.00001403" width="78.00000632800001" height="35.000040239999976" class="text">Nature </text>
<text x="247.99998535999998" y="873.00002394" width="25.000013960000047" height="34.00005014999999" class="text">of </text>
<text x="284.99999408" y="873.00002394" width="89.00001527999996" height="36.000007560000086" class="text">material </text>
<text x="384.99999724" y="871.9999655400001" width="10.000016119999998" height="33.99998184000003" class="text">(</text>
<text x="398.9999882" y="871.9999655400001" width="9.999998559999995" height="33.99998184000003" class="text">A </text>
<text x="422.00000596" y="871.9999655400001" width="86.99998395999995" height="34.99994916000014" class="text">concise </text>
<text x="517.0000098400001" y="871.9999655400001" width="93.9999969999999" height="35.999939250000125" class="text">account </text>
<text x="618.99997408" y="870.9999754500001" width="26.000020839999934" height="33.99995907000016" class="text">of </text>
<text x="653.0000324" y="870.9999754500001" width="31.99997431999998" height="33.99995907000016" class="text">the </text>
<text x="692.99997396" y="870.00000813" width="77.00003807999997" height="33.99998184000003" class="text">nature </text>
<text x="779.00000372" y="870.00000813" width="24.9999964000001" height="33.99998184000003" class="text">of </text>
<text x="810.0000238399999" y="870.00000813" width="34.99995984000009" height="33.99998184000003" class="text">the </text>
<text x="857.00001356" y="870.00000813" width="133.9999561200001" height="36.00000755999997" class="text">propaganda </text>
<text x="1008.9999706" y="869.00001804" width="94.99998632000018" height="36.000007560000086" class="text">material </text>
<text x="1115.00001504" y="867.99995964" width="45.99996527999974" height="33.999959070000045" class="text">filed</text>
<text x="1164.0000185200001" y="867.99995964" width="9.999980999999934" height="33.999959070000045" class="text">)
</text>
<text x="141.000002524" y="951.00000237" width="187.999995756" height="36.999997649999955" class="text">Political</text>
<text x="333.99999756" y="950.00003505" width="9.999998559999995" height="35.000040239999976" class="text">, </text>
<text x="368.99999252" y="950.00003505" width="164.00000448000003" height="36.999997649999955" class="text">economic</text>
<text x="541.00001692" y="948.99997665" width="9.999980999999934" height="34.999971930000015" class="text">, </text>
<text x="580.99997604" y="948.99997665" width="159.00000520000003" height="35.99993925000001" class="text">cultural </text>
<text x="766.0000020800001" y="947.9999865599999" width="53.99998519999997" height="34.999949159999915" class="text">and </text>
<text x="844.99998368" y="947.9999865599999" width="185.00002603999997" height="36.999997649999955" class="text">touristic </text>
<text x="1051.00003128" y="946.9999964699999" width="80.99999535999996" height="35.000017469999875" class="text">news </text>
<text x="1155.9999986" y="946.0000291499999" width="85.99997708000001" height="35.000040239999976" class="text">from </text>
<text x="1260.99994836" y="946.0000291499999" width="123.00005604000012" height="36.00000755999997" class="text">Qubec
</text>
<text x="123.00000511600001" y="1005.9999810300001" width="30.999993779999983" height="29.00000862000013" class="text">4. </text>
<text x="165.00000433600002" y="1007.00001666" width="43.99999366399999" height="30.000044250000087" class="text">Title </text>
<text x="220.99999276" y="1007.00001666" width="27.999999480000014" height="28.99998585000003" class="text">of </text>
<text x="263.00000076" y="1008.00000675" width="88.99999772000001" height="29.999975940000013" class="text">material</text>
<text x="351.99999848" y="1008.00000675" width="7.999984799999993" height="28.99998585000003" class="text">, </text>
<text x="371.99999560000003" y="1008.00000675" width="16.99999403999999" height="28.99998585000003" class="text">if </text>
<text x="399.99999507999996" y="1008.00000675" width="36.999991160000036" height="28.99998585000003" class="text">any
</text>
<text x="141.000002524" y="1053.99998352" width="124.00001199600004" height="32.999991749999936" class="text">QUEBEC </text>
<text x="287.99999716" y="1052.99999343" width="121.99999648" height="32.999991749999936" class="text">UPDATE</text>
<text x="417.999996" y="1050.99996771" width="8.999991679999994" height="30.999966029999996" class="text">, </text>
<text x="450.9999772" y="1050.99996771" width="62.000022679999915" height="31.999933349999992" class="text">VOL </text>
<text x="532.999997" y="1049.99997762" width="62.00002268000003" height="32.000001660000066" class="text">XII</text>
<text x="604.00001136" y="1049.99997762" width="9.00000923999994" height="30.99994326000001" class="text">, </text>
<text x="636.999975" y="1049.0000103" width="66.00003263999997" height="32.00002443000005" class="text">No.
</text>
<text x="147.999996248" y="1089.99999108" width="10.000002072000001" height="35.000017469999875" class="text">(</text>
<text x="161.999995988" y="1089.99999108" width="144.00000209200002" height="35.000017469999875" class="text">Atlanta</text>
<text x="312.99999356" y="1089.99999108" width="9.999998559999995" height="35.000017469999875" class="text">)
</text>
<text x="941.9999662" y="1004.00000085" width="29.00005904000011" height="32.000001660000066" class="text">5. </text>
<text x="994.9999796400001" y="1003.00001076" width="69.00007083999992" height="32.99999175000005" class="text">Name </text>
<text x="1070.99999328" y="1003.00001076" width="23.99995439999998" height="32.000001660000066" class="text">of </text>
<text x="1101.9999958399999" y="1003.00001076" width="76.00001364000013" height="34.000027380000006" class="text">foreign </text>
<text x="1185.00005764" y="1001.99997513" width="107.99998796" height="33.999981840000146" class="text">principal </text>
<text x="1294.0000173600001" y="1000.99998504" width="28.999953679999862" height="32.00000165999995" class="text">on </text>
<text x="1330.9999909599999" y="1000.99998504" width="71.00001436000002" height="33.99998183999992" class="text">whose </text>
<text x="1410.00002524" y="999.99999495" width="71.00001436000002" height="33.99995906999993" class="text">behalf </text>
<text x="1488.99995416" y="999.00002763" width="40.00001180000004" height="32.00002442999994" class="text">this </text>
<text x="1540.00002408" y="999.00002763" width="91.99994812" height="34.00005014999988" class="text">material </text>
<text x="1634.99999284" y="997.99996923" width="45.00001107999992" height="32.999991749999936" class="text">was
</text>
<text x="997.00004608" y="1031.00002929" width="123.99992244000009" height="27.000028439999937" class="text">transmitted</text>
<text x="1127.00004492" y="1029.00000357" width="6.999942800000099" height="25.000002719999998" class="text">.
</text>
<text x="1260.99994836" y="1046.9999618099998" width="123.00005604000012" height="34.9999491599998" class="text">Qubec </text>
<text x="1406.0000152799998" y="1045.0000044" width="207.9999560000001" height="35.00004024000009" class="text">Government
</text>
<text x="658.99998588" y="1170.000018" width="13.999990959999877" height="25.99997003999988" class="text">7. </text>
<text x="683.0000105199999" y="1170.000018" width="65.99996240000007" height="26.99996013000009" class="text">Dates </text>
<text x="761.00002036" y="1169.00002791" width="23.99995439999998" height="25.999970040000107" class="text">of </text>
<text x="793.99996644" y="1169.00002791" width="142.00004628" height="28.000064070000008" class="text">transmission
</text>
<text x="124.99999780400002" y="1178.0000298" width="26.00000679199998" height="29.000076929999977" class="text">6. </text>
<text x="157.99999832" y="1178.0000298" width="80.00000603999999" height="31.000034339999957" class="text">Means </text>
<text x="249.99999912" y="1176.00004962" width="22.000010879999962" height="29.00005415999999" class="text">of </text>
<text x="279.99999479999997" y="1176.00004962" width="144.00000736000004" height="31.000011570000197" class="text">transmission
</text>
<text x="138.999997544" y="1220.99999076" width="84.999998296" height="30.000044249999974" class="text">Mail
</text>
<text x="1168.00002848" y="1171.00000809" width="23.99995439999998" height="31.000034339999957" class="text">8. </text>
<text x="1203.000041" y="1171.00000809" width="54.000002759999916" height="32.00002442999994" class="text">Total </text>
<text x="1263.99998656" y="1170.000018" width="74.00005256000009" height="31.000034339999957" class="text">copies </text>
<text x="1348.9999918800002" y="1170.000018" width="124.99999955999988" height="32.999991749999936" class="text">transmitted
</text>
<text x="1366.9999752400001" y="1213.9999690500001" width="57.00004095999998" height="26.99996013000009" class="text">200
</text>
<text x="828.00002476" y="1217.00005317" width="75.99999607999996" height="27.00009675000001" class="text">June </text>
<text x="928.9999645600001" y="1216.00006308" width="39.00002247999987" height="27.00009675000001" class="text">91
</text>
<text x="123.999994436" y="1278.99996246" width="29.000002847999994" height="26.99996013000009" class="text">9. </text>
<text x="161.999995988" y="1278.99996246" width="42.00000273200001" height="27.999950219999846" class="text">List </text>
<text x="217.99998968" y="1278.99996246" width="108.00000552" height="28.999917539999842" class="text">addresses </text>
<text x="335.99999376" y="1277.0000050499998" width="55.00000964000003" height="26.999960129999636" class="text">from </text>
<text x="401.00000196" y="1277.0000050499998" width="66.00003264000003" height="26.999960129999636" class="text">which </text>
<text x="488.00000348" y="1277.0000050499998" width="89.00001528000001" height="29.00007692999975" class="text">material </text>
<text x="584.9999859999999" y="1276.00001496" width="46.0000355200001" height="28.000086839999994" class="text">was </text>
<text x="638.9999887600001" y="1276.00001496" width="124.99999955999999" height="29.00005415999999" class="text">transmitted</text>
<text x="768.9999876" y="1274.00003478" width="8.00001992" height="27.000073980000025" class="text">:
</text>
<text x="141.000002524" y="1327.99995504" width="120.00000203599998" height="34.999949159999915" class="text">Qubec </text>
<text x="286.99999028" y="1327.99995504" width="206.00001247999995" height="34.999949159999915" class="text">Government </text>
<text x="512.9999998799999" y="1325.9999976299998" width="100.99999248000017" height="34.999971929999674" class="text">House
</text>
<text x="142.00000589200002" y="1358.99998938" width="58.99998974799996" height="30.000044249999974" class="text">230 </text>
<text x="222.99998896" y="1358.99998938" width="185.00000848000002" height="32.00002443000017" class="text">Peachtree </text>
<text x="433.0000114" y="1357.0000092" width="118.99995828000004" height="32.00000165999995" class="text">Street </text>
<text x="575.99999432" y="1356.00004188" width="82.99999156000001" height="32.00002443000017" class="text">N.W.
</text>
<text x="141.000002524" y="1399.00000284" width="143.99999155600003" height="38.000056049999785" class="text">Atlanta</text>
<text x="292.00000712" y="1397.00002266" width="9.999998559999995" height="35.00008578000006" class="text">, </text>
<text x="330.00000516" y="1397.00002266" width="38.99998735999998" height="36.00007586999982" class="text">GA </text>
<text x="392.9999996" y="1396.00005534" width="101.99999936" height="37.00006596000003" class="text">30303
</text>
<text x="946.9999654799999" y="1273.00006746" width="44.00000420000015" height="28.000086839999994" class="text">10. </text>
<text x="997.00004608" y="1271.9999407500002" width="42.999944640000194" height="27.999927450000087" class="text">List </text>
<text x="1057.9999740800001" y="1271.9999407500002" width="60.00006159999998" height="27.999927450000087" class="text">states </text>
<text x="1132.00002664" y="1270.99995066" width="40.00001180000004" height="27.999927450000087" class="text">and </text>
<text x="1186.0000294" y="1270.99995066" width="116.99997964000022" height="28.999917539999842" class="text">territories </text>
<text x="1317.0" y="1269.99998334" width="26.000020839999934" height="27.999950219999846" class="text">of </text>
<text x="1354.9999453599999" y="1269.99998334" width="32.00009724000006" height="28.999940310000056" class="text">the </text>
<text x="1401.00003356" y="1269.99998334" width="73.99992963999989" height="30.000044249999974" class="text">United </text>
<text x="1496.00000232" y="1268.00000316" width="62.99999443999991" height="29.00005415999999" class="text">States </text>
<text x="1576.0000259199999" y="1268.00000316" width="17.000011600000107" height="28.000064070000008" class="text">to </text>
<text x="1611.00003844" y="1267.00003584" width="67.00000440000008" height="29.000076929999977" class="text">which
</text>
<text x="1002.0000278" y="1308.00001662" width="89.00001527999984" height="30.0000442500002" class="text">material </text>
<text x="1098.99995764" y="1307.0000493" width="43.000049999999874" height="28.000086839999994" class="text">was </text>
<text x="1155.9999986" y="1307.0000493" width="124.0000278" height="30.0000442500002" class="text">transmitted</text>
<text x="1285.0000081199998" y="1304.9999324999999" width="8.000037480000174" height="27.999927450000087" class="text">:
</text>
<text x="1052.0000206" y="1358.99998938" width="143.00000047999993" height="38.000056049999785" class="text">Georgia
</text>
<text x="110.99999630800001" y="1590.0000682500001" width="40.99999760799999" height="32.00000166000018" class="text">11. </text>
<text x="165.99999365600002" y="1588.99994154" width="61.00002282400001" height="32.99999175000016" class="text">Types </text>
<text x="240.99998988000002" y="1588.99994154" width="23.000017759999963" height="32.00000165999995" class="text">of </text>
<text x="272.99999932000003" y="1588.99994154" width="111.00000859999994" height="33.99998183999992" class="text">recipients </text>
<text x="397.99998131999996" y="1586.99998413" width="9.000009240000054" height="32.00002442999994" class="text">(</text>
<text x="404.00000504" y="1586.99998413" width="54.99999207999997" height="32.999991749999936" class="text">Give </text>
<text x="465.99999260000004" y="1586.99998413" width="87.99999084000001" height="33.999981840000146" class="text">number </text>
<text x="566.00001332" y="1585.99999404" width="23.99997196000004" height="32.00000165999995" class="text">of </text>
<text x="597.00001588" y="1585.99999404" width="157.0000090000001" height="33.99998183999992" class="text">organizations
</text>
<text x="162.99999935600002" y="1619.99997588" width="16.000002963999975" height="28.99991754000007" class="text">in </text>
<text x="197.00000323999998" y="1621.99993329" width="47.000007280000034" height="30.99987495000005" class="text">each </text>
<text x="257.99998392000003" y="1623.0000599999998" width="66.00001507999997" height="30.000044249999746" class="text">group</text>
<text x="328.00000896" y="1623.0000599999998" width="8.999991679999994" height="29.000054159999763" class="text">)
</text>
<text x="946.9999654799999" y="1578.99997233" width="48.000014160000205" height="33.99998183999992" class="text">12. </text>
<text x="999.00000716" y="1578.99997233" width="44.99999352000009" height="33.99998183999992" class="text">List </text>
<text x="1060.00004052" y="1578.99997233" width="71.9999861199999" height="33.99998183999992" class="text">names </text>
<text x="1151.99998864" y="1578.99997233" width="39.00002247999987" height="33.99998183999992" class="text">and </text>
<text x="1209.00001204" y="1578.99997233" width="113.99995899999999" height="33.99998183999992" class="text">addresses </text>
<text x="1339.00001088" y="1578.99997233" width="24.999943720000147" height="33.99998183999992" class="text">of </text>
<text x="1378.00003336" y="1578.99997233" width="91.99994811999977" height="33.99998183999992" class="text">persons </text>
<text x="1488.99995416" y="1578.99997233" width="25.000049080000053" height="33.99998183999992" class="text">or </text>
<text x="1533.9999476799999" y="1578.99997233" width="150.00006620000022" height="33.99998183999992" class="text">organizations
</text>
<text x="997.00004608" y="1617.0000283799998" width="103.99997800000006" height="32.99999174999971" class="text">receiving </text>
<text x="1119.000025" y="1616.00003829" width="31.999974319999865" height="31.000034339999957" class="text">100 </text>
<text x="1165.99996204" y="1616.00003829" width="72.00000368000019" height="32.99999175000016" class="text">copies </text>
<text x="1246.9999574" y="1615.0000482" width="29.00005903999977" height="31.00001156999997" class="text">or </text>
<text x="1290.99997916" y="1615.0000482" width="51.00006991999999" height="32.00000166000018" class="text">more</text>
<text x="1345.9999536799999" y="1613.9999442600001" width="8.999991679999994" height="30.999897720000263" class="text">:
</text>
<text x="352.99998780000004" y="1666.0000209599998" width="6.000023719999945" height="21.00006512999994" class="text">8
</text>
<text x="328.00000896" y="1702.9999503000001" width="35.99998427999998" height="24.00001263000013" class="text">26
</text>
<text x="351.99999848" y="1735.9999420499998" width="7.000013039999999" height="23.99987600999998" class="text">5
</text>
<text x="114.000004656" y="1688.00005341" width="102.000006384" height="28.00006406999978" class="text">Libraries
</text>
<text x="110.99999630800001" y="1720.00007784" width="70.00000221199998" height="26.000129430000015" class="text">Public </text>
<text x="195.99999635999998" y="1720.00007784" width="92.00000080000004" height="28.000086839999767" class="text">officials</text>
<text x="289.99999336" y="1718.99995113" width="6.9999954799999955" height="25.999970040000107" class="text">.
</text>
<text x="110.99999630800001" y="1759.99993191" width="139.000002812" height="32.999991749999936" class="text">Newspapers
</text>
<text x="111.999999676" y="1787.00002866" width="62.000003363999994" height="24.999979949999897" class="text">Press </text>
<text x="182.99999472" y="1787.00002866" width="92.99999012000004" height="27.00009675000001" class="text">services </text>
<text x="287.99999716" y="1786.00006134" width="23.00001775999999" height="25.00000272000011" class="text">of
</text>
<text x="137.999994176" y="1823.999958" width="137.00001890400003" height="31.000034339999957" class="text">associations
</text>
<text x="113.000003044" y="1854.9999923399998" width="136.999996076" height="30.000044249999974" class="text">Educational
</text>
<text x="138.999997544" y="1886.999994" width="127.99999561599998" height="26.999960129999863" class="text">institutions
</text>
<text x="115.999997344" y="1920.99997584" width="56.000000716" height="25.999970040000107" class="text">Civic </text>
<text x="210.9999942" y="1927.00000746" width="78.99999916000002" height="30.000044249999974" class="text">groups
</text>
<text x="114.999995732" y="1959.00000912" width="66.00000278799999" height="32.00000165999995" class="text">Other </text>
<text x="194.00000015999998" y="1959.99999921" width="9.000009240000026" height="32.00000165999995" class="text">(</text>
<text x="202.00000252" y="1959.99999921" width="77.99999227999996" height="32.00000165999995" class="text">specify</text>
<text x="282.00000855999997" y="1959.99999921" width="8.99999168000005" height="32.00000165999995" class="text">)
</text>
<text x="1049.99995416" y="1834.00006383" width="61.00005091999992" height="27.00009675000001" class="text">NIL
</text>
<text x="346.00000988" y="1871.9999832600001" width="37.99999803999998" height="25.999992810000094" class="text">55
</text>
<text x="328.00000896" y="1944.9999656999998" width="162.99998004000003" height="28.999917539999842" class="text">business </text>
<text x="515.9999854" y="1945.99995579" width="158.99998763999997" height="29.999907630000052" class="text">concerns
</text>
<text x="346.00000988" y="1987.99992666" width="148.00001731999998" height="39.99985407000008" class="text">general </text>
<text x="512.00002812" y="1985.99996925" width="126.99996064000004" height="40.00001345999999" class="text">public
</text>
<text x="1044.00000068" y="2033.99999451" width="43.00003243999981" height="33.99998183999992" class="text">15 </text>
<text x="1025.9999997599998" y="2168.00005554" width="53.99998520000008" height="120.00004037999997" class="text">P39
</text>
<text x="1186.0000294" y="2113.99999866" width="56.99991804000024" height="146.99997774000008" class="text">RECEIVED
</text>
<text x="1563.00000672" y="2131.99997967" width="43.000049999999874" height="16.999990919999618" class="text">FORM </text>
<text x="1618.999953" y="2131.99997967" width="34.00004076000005" height="16.999990919999618" class="text">CRM</text>
<text x="1657.9999930400002" y="2131.99997967" width="4.999981719999823" height="16.999990919999618" class="text">-</text>
<text x="1662.99997476" y="2131.99997967" width="22.00001087999999" height="16.999990919999618" class="text">159
</text>
<text x="1627.99996224" y="2155.0000022100003" width="29.000041479999936" height="16.000000830000317" class="text">SEP</text>
<text x="1657.00000372" y="2155.0000022100003" width="4.000009959999943" height="16.000000830000317" class="text">. </text>
<text x="1666.00001296" y="2155.0000022100003" width="18.000000920000048" height="16.000000830000317" class="text">89
</text>
</g>
<g id="page-1" transform="translate(0, 2297)">
<rect width="1756" height="2277" fill="none" stroke="black" />
<text x="106.00000229599999" y="170.999997201" width="45.000002300000006" height="32.00000166000001" class="text">13. </text>
<text x="160.0000033" y="170.999997201" width="17.99999213999999" height="32.00000166000001" class="text">If </text>
<text x="184.99999092" y="169.999995726" width="36.00000184000001" height="31.99999255200001" class="text">the </text>
<text x="237.00001504" y="169.999995726" width="91.99998324" height="32.99999174999999" class="text">material </text>
<text x="335.99999376" y="169.999995726" width="123.99999267999999" height="33.999993225" class="text">transmitted </text>
<text x="472.99998808000004" y="167.999995053" width="44.00002176000004" height="31.99999255199998" class="text">was </text>
<text x="526.99999084" y="167.999995053" width="8.999991679999994" height="31.99999255199998" class="text">a </text>
<text x="553.99998344" y="167.999995053" width="42.00000799999998" height="31.99999255199998" class="text">film </text>
<text x="609.00001064" y="166.999995855" width="24.000007079999932" height="31.99999255200001" class="text">or </text>
<text x="644.99999492" y="166.999995855" width="54.00000276000003" height="31.99999255200001" class="text">radio </text>
<text x="716.00000928" y="166.999995855" width="23.000000200000045" height="31.99999255200001" class="text">or </text>
<text x="748.99997292" y="166.999995855" width="109.00002996" height="33.999993225" class="text">television </text>
<text x="868.000019" y="165.99999438" width="68.99996548000001" height="32.99999174999999" class="text">script</text>
<text x="936.99998448" y="164.999995182" width="8.999991680000107" height="31.99999255199998" class="text">, </text>
<text x="957.0000342799999" y="164.999995182" width="76.00001364000013" height="32.99999174999999" class="text">furnish </text>
<text x="1044.99997244" y="163.999993707" width="37.00007895999988" height="31.999990274999988" class="text">the </text>
<text x="1093.0000041600001" y="164.999995182" width="102.99998867999989" height="33.999993225" class="text">following </text>
<text x="1213.000022" y="163.999993707" width="130.9999706000001" height="33.999990947999976" class="text">information</text>
<text x="1345.9999536799999" y="161.999993034" width="8.999991679999994" height="31.999990274999988" class="text">:
</text>
<text x="940.99999444" y="228.99998484" width="50.99996455999997" height="23.999978475000006" class="text">Date </text>
<text x="1004.99996064" y="227.99999475" width="26.999992599999928" height="23.999989860000028" class="text">or </text>
<text x="1040.99996248" y="227.99999475" width="57.00002339999992" height="24.99998905800001" class="text">dates </text>
<text x="1111.99997684" y="227.99999475" width="111.00002616000006" height="25.999990533000016" class="text">broadcast </text>
<text x="1231.99999468" y="226.999995552" width="71.00001436000002" height="25.999990533000016" class="text">shown
</text>
<text x="106.00000229599999" y="237.99998673" width="68.000000744" height="29.999980494" class="text">Name </text>
<text x="187.00000468" y="237.99998673" width="21.999993320000016" height="29.999980494" class="text">of </text>
<text x="220.99999276" y="237.99998673" width="70.00000748000002" height="30.99997969200001" class="text">station</text>
<text x="294.99999264" y="236.99999663999998" width="8.999991679999994" height="29.999989602" class="text">, </text>
<text x="312.99999356" y="236.99999663999998" width="139.99999740000004" height="30.999991076999976" class="text">organization</text>
<text x="456.00002916" y="236.99999663999998" width="8.999991679999994" height="29.999989602" class="text">, </text>
<text x="472.99998808000004" y="236.99999663999998" width="28.000034599999935" height="29.999989602" class="text">or </text>
<text x="508.00001816" y="236.00000655000002" width="82.99999155999996" height="30.00000098700002" class="text">theater </text>
<text x="595.99999144" y="236.00000655000002" width="60.00000892000003" height="30.00000098700002" class="text">using
</text>
<text x="108.000002008" y="273.00000420000003" width="8.999998704000006" height="31.000011570000055" class="text">(</text>
<text x="119.99999676799999" y="273.00000420000003" width="102.00000287200001" height="32.00000166000004" class="text">including </text>
<text x="233.9999944" y="272.00001411" width="38.00001559999998" height="31.000011569999998" class="text">city </text>
<text x="283.00001543999997" y="272.00001411" width="43.99998664000003" height="31.000011569999998" class="text">and </text>
<text x="341.99998236" y="272.00001411" width="48.00001415999998" height="31.000011569999998" class="text">state</text>
<text x="394.00000647999997" y="272.00001411" width="8.99999168000005" height="31.000011569999998" class="text">)
</text>
<text x="1405.00004352" y="223.999993404" width="110.99992079999993" height="25.999990533000016" class="text">Estimated </text>
<text x="1530.0000430799998" y="223.999993404" width="117.99996896000016" height="25.999990533000016" class="text">attendance
</text>
<text x="1455.99999052" y="261.00000927" width="8.000037480000174" height="28.000018530000034" class="text">(</text>
<text x="1466.99994328" y="261.00000927" width="33.00006899999994" height="28.000018530000034" class="text">for </text>
<text x="1508.0000322" y="261.00000927" width="44.99999352000009" height="29.000008620000017" class="text">film</text>
<text x="1559.99996852" y="259.99999641" width="8.000019920000113" height="27.99999575999999" class="text">(</text>
<text x="1567.9999884400002" y="259.99999641" width="8.000037479999719" height="27.99999575999999" class="text">s</text>
<text x="1578.9999412" y="259.99999641" width="8.000037479999946" height="27.99999575999999" class="text">)</text>
<text x="1589.99999932" y="259.99999641" width="8.000037480000174" height="27.99999575999999" class="text">)
</text>
<text x="535.00001076" y="341.00001342" width="9.999963439999988" height="32.000024429999996" class="text">N</text>
<text x="553.99998344" y="340.00000056" width="10.000033679999888" height="32.000024429999996" class="text">/</text>
<text x="569.9999706" y="340.00000056" width="10.000033680000001" height="32.000024429999996" class="text">A
</text>
<text x="108.000002008" y="510.99999092999997" width="47.00000025599999" height="29.999975939999956" class="text">14. </text>
<text x="157.99999832" y="510.00000084" width="58.00001272" height="29.99999871" class="text">Have </text>
<text x="228.0000058" y="510.00000084" width="37.99999803999998" height="29.99999871" class="text">two </text>
<text x="275.99998484" y="510.00000084" width="75.00000676000002" height="32.00000166000001" class="text">copies </text>
<text x="359.99998328" y="508.99998797999996" width="27.999999480000042" height="29.999975939999956" class="text">of </text>
<text x="396.00000267999997" y="508.99998797999996" width="38.00001560000004" height="30.999988799999983" class="text">this </text>
<text x="452.99999096000005" y="508.99998797999996" width="89.9999870399999" height="31.999978889999966" class="text">material </text>
<text x="549.00000172" y="506.99998502999995" width="50.99999967999997" height="29.999975939999956" class="text">been </text>
<text x="618.00000232" y="506.99998502999995" width="44.999993519999975" height="30.999988799999983" class="text">filed </text>
<text x="676.9999868" y="505.99999494" width="48.000031719999924" height="29.999998710000057" class="text">with </text>
<text x="741.00000568" y="505.99999494" width="33.99998807999998" height="30.99998880000004" class="text">the </text>
<text x="784.99997476" y="505.99999494" width="139.99997984000004" height="32.000001660000066" class="text">Department </text>
<text x="930.00004168" y="503.99999199" width="27.999964360000035" height="29.999998710000057" class="text">of </text>
<text x="964.99994884" y="503.99999199" width="76.00001364000002" height="32.000001660000066" class="text">Justice</text>
<text x="1043.00001136" y="502.99997913" width="9.000009240000054" height="29.999975940000013" class="text">?
</text>
<text x="1092.0000324" y="498.00000590999997" width="32.99994607999997" height="26.000015580000024" class="text">Yes </text>
<text x="1146.0000175999999" y="496.99999305" width="6.999942800000099" height="25.99999280999998" class="text">
</text>
<text x="1199.00003104" y="496.00000295999996" width="36.00000183999987" height="24.000012630000015" class="text">No </text>
<text x="1249.9999956" y="494.99999010000005" width="7.000048160000006" height="23.999989860000028" class="text">
</text>
<text x="108.000002008" y="577.99998729" width="43.000002588" height="30.999988800000096" class="text">15. </text>
<text x="168.000000392" y="577.99998729" width="44.000000688" height="31.999978889999966" class="text">Has </text>
<text x="225.00000271999997" y="576.9999972" width="39.00000492000001" height="30.999988799999983" class="text">this </text>
<text x="281.00000168" y="576.9999972" width="87.99999083999995" height="32.99999175000005" class="text">material </text>
<text x="377.00001244000003" y="576.00002988" width="51.99998899999997" height="31.00003434000007" class="text">been </text>
<text x="445.00002372" y="576.00002988" width="76.99996784000001" height="33.00003729000002" class="text">labeled </text>
<text x="537.0000069600001" y="574.99997148" width="23.00000019999993" height="30.999966029999996" class="text">as </text>
<text x="569.9999706" y="574.99997148" width="95.00003900000002" height="32.99996897999995" class="text">required </text>
<text x="680.000025" y="573.99998139" width="21.999958200000037" height="30.999988799999983" class="text">by </text>
<text x="714.99998484" y="573.99998139" width="35.00003007999999" height="30.999988799999983" class="text">the </text>
<text x="757.99998216" y="573.99998139" width="35.999984280000035" height="30.999988799999983" class="text">act</text>
<text x="793.99996644" y="573.00001407" width="9.000061920000007" height="31.00001156999997" class="text">?
</text>
<text x="846.99999744" y="569.00000817" width="32.99996363999992" height="32.000001660000066" class="text">Yes </text>
<text x="896.0000009199999" y="569.00000817" width="8.999991679999994" height="32.000001660000066" class="text"> </text>
<text x="953.99999608" y="567.99999531" width="35.0000300800001" height="31.99997889000008" class="text">No </text>
<text x="1015.0000469999999" y="567.99999531" width="8.999991680000107" height="31.99997889000008" class="text">7
</text>
<text x="108.99999835199999" y="642.00001338" width="50.00000157999999" height="28.99998585000003" class="text">Date </text>
<text x="173.000001428" y="642.9999807" width="25.000008692000023" height="27.999995760000047" class="text">of </text>
<text x="205.99999492" y="645.0000291900001" width="72.00000367999996" height="30.000044250000087" class="text">report
</text>
<text x="397.99998131999996" y="637.00001739" width="66.00001508000003" height="26.000038350000068" class="text">Name </text>
<text x="476.99999804" y="635.99998176" width="37.99999803999998" height="23.99994431999994" class="text">and </text>
<text x="530.00001148" y="634.99999167" width="39.99995911999997" height="24.000012630000015" class="text">title
</text>
<text x="1048.00001064" y="637.00001739" width="107.99998796" height="32.999991749999936" class="text">Signature
</text>
<text x="1194.00004932" y="691.99999605" width="58.999984479999966" height="79.99995861000002" class="text">to </text>
<text x="1280.99999816" y="691.99999605" width="152.9999814800001" height="79.99995861000002" class="text">Soul
</text>
<text x="101.999997604" y="711.0000126900001" width="67.00000440000001" height="39.00002337000012" class="text">July </text>
<text x="193.00001084" y="707.99999688" width="10.99998788000002" height="36.000007560000086" class="text">9</text>
<text x="210.9999942" y="707.99999688" width="11.000005439999995" height="36.000007560000086" class="text">, </text>
<text x="246.00000672000002" y="707.00000679" width="65.0000082" height="39.00002337000001" class="text">1991
</text>
<text x="411.00000052" y="704.99998107" width="50.99998211999991" height="35.9999392499999" class="text">Leo </text>
<text x="479.00001180000004" y="703.99999098" width="69.00000059999991" height="36.00000755999997" class="text">Par</text>
<text x="553.99998344" y="703.99999098" width="10.000033679999888" height="36.00000755999997" class="text">, </text>
<text x="584.00001424" y="703.99999098" width="132.99998435999998" height="37.99998773999994" class="text">Delegate </text>
<text x="739.00000948" y="703.00000089" width="118.9999934" height="37.99996496999995" class="text">general
</text>
</g>
</svg>
