<svg xmlns="http://www.w3.org/2000/svg">
<style>.text { font-size: 14px; font-family: Arial, sans-serif; }</style>
<g id="page-0" transform="translate(0, 0)">
<rect width="1756" height="2277" fill="none" stroke="black" />
<text x="886.99999168" y="138.000003174" width="164.00003960000004" height="32.999998581" class="text">Dissemination </text>
<text x="1065.00002224" y="138.000003174" width="76.99998540000001" height="31.999999383000002" class="text">Report
</text>
<text x="103.000000972" y="140.999996214" width="53.99999398000001" height="33.999993225" class="text">U.S. </text>
<text x="162.99999935600002" y="140.999996214" width="150.999983524" height="33.999993225" class="text">Department </text>
<text x="322.00002036" y="140.999996214" width="24.99997884000004" height="33.999993225" class="text">of </text>
<text x="356.00000844" y="140.999996214" width="81.99998468000001" height="33.999993225" class="text">Jusunce
</text>
<text x="103.999997316" y="181.999999764" width="133.00001772399997" height="32.99999174999999" class="text">Washington</text>
<text x="240.00000056" y="178.999997616" width="9.999998560000023" height="29.999989602" class="text">, </text>
<text x="256.9999946" y="178.999997616" width="39.00000492000004" height="30.999991077000004" class="text">DC </text>
<text x="312.00000424" y="177.99999841800002" width="65.00000820000002" height="30.999991077000004" class="text">20530
</text>
<text x="1521.0000513999998" y="122.000000067" width="41.999955320000254" height="19.99999762200001" class="text">OMB </text>
<text x="1567.9999884400002" y="122.000000067" width="29.00005903999977" height="19.99999762200001" class="text">No. </text>
<text x="1600.99995208" y="122.000000067" width="70.00004260000014" height="19.99999762200001" class="text">1105-0006
</text>
<text x="1439.99995068" y="147.000007341" width="64.00007155999992" height="21.00000592800002" class="text">Approval </text>
<text x="1509.99999328" y="147.000007341" width="49.99997524000014" height="21.00000592800002" class="text">Expires </text>
<text x="1568.99997776" y="145.000006668" width="35.00001251999993" height="19.000005255000005" class="text">Nov. </text>
<text x="1612.0000102000001" y="145.000006668" width="13.999990959999877" height="19.000005255000005" class="text">30</text>
<text x="1627.99996224" y="145.000006668" width="5.0000870799999575" height="19.000005255000005" class="text">, </text>
<text x="1639.99999212" y="145.000006668" width="31.999974320000092" height="20.000006729999996" class="text">1993
</text>
<text x="106.99999864" y="282.99999618" width="164.00000448000003" height="30.999988799999983" class="text">INSTRUCTIONS</text>
<text x="268.99998936" y="282.99999618" width="9.000009239999997" height="30.999988799999983" class="text">: </text>
<text x="283.00001543999997" y="282.99999618" width="60.99998068000002" height="30.999988799999983" class="text">Report </text>
<text x="356.99999776" y="282.99999618" width="39.999994240000035" height="30.999988799999983" class="text">must </text>
<text x="401.00000196" y="282.99999618" width="22.00001087999999" height="30.999988799999983" class="text">be </text>
<text x="430.00000832" y="282.99999618" width="88.99999772000001" height="30.999988799999983" class="text">submitted </text>
<text x="526.00000152" y="282.99999618" width="16.999976479999987" height="30.999988799999983" class="text">in </text>
<text x="550.0000261600001" y="282.99999618" width="81.99996711999995" height="30.999988799999983" class="text">duplicate </text>
<text x="642.00002696" y="282.99999618" width="11.99997719999999" height="30.999988799999983" class="text">to </text>
<text x="667.0000058" y="282.99999618" width="25.99996815999998" height="30.999988799999983" class="text">the </text>
<text x="696.99998392" y="282.99999618" width="111.00002616000006" height="30.999988799999983" class="text">Registration </text>
<text x="815.00000556" y="282.99999618" width="42.999997320000034" height="30.999988799999983" class="text">Unit</text>
<text x="857.00001356" y="282.99999618" width="9.000009240000054" height="30.999988799999983" class="text">, </text>
<text x="869.99998008" y="282.99999618" width="73.00006324000003" height="30.999988799999983" class="text">Internal </text>
<text x="949.00001436" y="282.99999618" width="76.00001364000013" height="30.999988799999983" class="text">Security </text>
<text x="1034.0000196800002" y="282.99999618" width="64.9999379599999" height="30.999988799999983" class="text">Section</text>
<text x="1101.9999958399999" y="282.99999618" width="9.000009240000054" height="30.999988799999983" class="text">, </text>
<text x="1116.99995856" y="282.99999618" width="80.00002359999985" height="30.999988799999983" class="text">Criminal </text>
<text x="1203.000041" y="282.99999618" width="74.99993652000012" height="30.999988799999983" class="text">Division</text>
<text x="1281.99998748" y="282.99999618" width="8.999991679999994" height="30.999988799999983" class="text">, </text>
<text x="1295.99996088" y="282.99999618" width="109.00008264000007" height="30.999988799999983" class="text">Department </text>
<text x="1411.99998632" y="282.99999618" width="18.999972679999928" height="30.999988799999983" class="text">of </text>
<text x="1438.99997892" y="282.99999618" width="56.00005163999981" height="30.999988799999983" class="text">Justice</text>
<text x="1499.00004052" y="282.99999618" width="8.999991679999994" height="30.999988799999983" class="text">, </text>
<text x="1513.00003148" y="282.99999618" width="104.99994976000016" height="30.999988799999983" class="text">Washington</text>
<text x="1617.00000948" y="282.99999618" width="8.999991679999994" height="30.999988799999983" class="text">, </text>
<text x="1631.9999722" y="282.99999618" width="44.99999352000009" height="30.999988799999983" class="text">D.C.
</text>
<text x="106.99999864" y="310.99999194000003" width="64.99999942" height="32.99999174999999" class="text">20530. </text>
<text x="175.000006408" y="310.99999194000003" width="37.99998399200001" height="32.99999174999999" class="text">The </text>
<text x="218.99999656" y="310.99999194000003" width="72.00000368000002" height="32.99999174999999" class="text">original </text>
<text x="300.99999879999996" y="310.99999194000003" width="42.999997320000034" height="32.99999174999999" class="text">must </text>
<text x="348.00000608" y="310.99999194000003" width="19.00000779999999" height="32.99999174999999" class="text">be </text>
<text x="374.00000936" y="310.99999194000003" width="59.00000204000003" height="32.99999174999999" class="text">signed </text>
<text x="439.99997176000005" y="310.99999194000003" width="19.00002535999994" height="32.99999174999999" class="text">by </text>
<text x="470.00000256000004" y="310.99999194000003" width="18.999972679999985" height="32.99999174999999" class="text">or </text>
<text x="495.99997071999996" y="310.99999194000003" width="18.000000920000048" height="32.99999174999999" class="text">on </text>
<text x="526.00000152" y="310.99999194000003" width="58.000012720000086" height="32.99999174999999" class="text">behalf </text>
<text x="588.99999596" y="310.99999194000003" width="18.99997268000004" height="32.99999174999999" class="text">of </text>
<text x="611.99999616" y="310.99999194000003" width="28.999988799999983" height="32.99999174999999" class="text">the </text>
<text x="647.99998044" y="310.99999194000003" width="88.00004352000008" height="32.99999174999999" class="text">registrant</text>
<text x="736.99999572" y="310.99999194000003" width="9.00000923999994" height="32.99999174999999" class="text">. </text>
<text x="748.99997292" y="310.99999194000003" width="34.00004076000005" height="32.99999174999999" class="text">All </text>
<text x="784.99997476" y="310.99999194000003" width="52.00004167999998" height="32.99999174999999" class="text">items </text>
<text x="840.00000196" y="310.99999194000003" width="18.000000920000048" height="32.99999174999999" class="text">in </text>
<text x="866.99999456" y="310.99999194000003" width="29.00000635999993" height="32.99999174999999" class="text">this </text>
<text x="908.0000308000001" y="310.99999194000003" width="41.99995531999991" height="32.99999174999999" class="text">form </text>
<text x="961.00004424" y="310.99999194000003" width="42.99994464000008" height="32.99999174999999" class="text">must </text>
<text x="1007.99999884" y="310.99999194000003" width="18.999972679999928" height="32.99999174999999" class="text">be </text>
<text x="1033.00004792" y="310.99999194000003" width="84.99998776000007" height="32.99999174999999" class="text">answered</text>
<text x="1123.00003496" y="310.99999194000003" width="8.999991679999994" height="32.99999174999999" class="text">, </text>
<text x="1137.0000259199999" y="310.99999194000003" width="54.99995696000019" height="32.99999174999999" class="text">unless </text>
<text x="1200.00002036" y="310.99999194000003" width="24.99992615999986" height="32.99999174999999" class="text">the </text>
<text x="1231.00002292" y="310.99999194000003" width="66.00003263999997" height="32.99999174999999" class="text">answer </text>
<text x="1307.000019" y="310.99999194000003" width="11.999942079999983" height="32.99999174999999" class="text">is </text>
<text x="1325.0000199199999" y="310.99999194000003" width="9.000009240000281" height="32.99999174999999" class="text">“</text>
<text x="1336.99994444" y="310.99999194000003" width="47.000059960000044" height="32.99999174999999" class="text">none</text>
<text x="1384.0000044" y="310.99999194000003" width="8.999991679999994" height="32.99999174999999" class="text">" </text>
<text x="1400.0000442399999" y="310.99999194000003" width="23.999971960000266" height="32.99999174999999" class="text">or </text>
<text x="1427.0000544" y="310.99999194000003" width="8.999991679999994" height="32.99999174999999" class="text">"</text>
<text x="1438.99997892" y="310.99999194000003" width="31.999974319999865" height="32.99999174999999" class="text">not </text>
<text x="1475.99995252" y="310.99999194000003" width="90.00009239999986" height="32.99999174999999" class="text">applicable</text>
<text x="1568.99997776" y="310.99999194000003" width="8.999991679999994" height="32.99999174999999" class="text">,</text>
<text x="1575.0000366" y="310.99999194000003" width="9.000009240000054" height="32.99999174999999" class="text">” </text>
<text x="1593.00003752" y="310.99999194000003" width="13.000019199999997" height="32.99999174999999" class="text">in </text>
<text x="1616.00002016" y="310.99999194000003" width="53.000031000000035" height="32.99999174999999" class="text">which
</text>
<text x="106.00000229599999" y="341.00001342" width="37.99999628400002" height="27.00002844000005" class="text">case </text>
<text x="156.00000563199998" y="341.00001342" width="37.000005208000005" height="27.00002844000005" class="text">such </text>
<text x="203.0000094" y="341.00001342" width="19.999979559999986" height="28.000018529999977" class="text">an </text>
<text x="233.00000508000002" y="340.00000056" width="46.999989719999945" height="27.00000566999995" class="text">entry </text>
<text x="291.00000024" y="340.00000056" width="42.99999731999998" height="27.00000566999995" class="text">shall </text>
<text x="340.99999304" y="340.00000056" width="19.99999711999999" height="27.00000566999995" class="text">be </text>
<text x="376.00000556" y="340.00000056" width="41.99999044000003" height="27.00000566999995" class="text">made </text>
<text x="427.99999456" y="339.00001047" width="15.999987160000046" height="27.000028439999994" class="text">in </text>
<text x="452.99999096000005" y="339.00001047" width="26.00002083999999" height="27.000028439999994" class="text">the </text>
<text x="490.00001724" y="339.00001047" width="101.99996424000011" height="27.000028439999994" class="text">appropriate </text>
<text x="600.0000014" y="339.00001047" width="51.99998900000003" height="28.000018529999977" class="text">space</text>
<text x="651.9999904" y="337.99999761" width="8.00001992" height="27.00000566999995" class="text">. </text>
<text x="669.00001956" y="337.99999761" width="14.999962719999985" height="27.00000566999995" class="text">If </text>
<text x="692.0000022" y="337.99999761" width="92.00000079999995" height="27.00000566999995" class="text">additional </text>
<text x="788.99998472" y="337.99999761" width="49.00000347999992" height="27.00000566999995" class="text">space </text>
<text x="849.9999654" y="337.99999761" width="15.000032959999999" height="27.00000566999995" class="text">is </text>
<text x="873.00001828" y="337.00000752" width="62.99999444000002" height="27.000028439999994" class="text">needed </text>
<text x="946.9999654799999" y="337.00000752" width="26.00002084000016" height="27.000028439999994" class="text">for </text>
<text x="981.0000062400001" y="337.00000752" width="30.000030799999877" height="27.000028439999994" class="text">any </text>
<text x="1021.00000048" y="337.00000752" width="37.99996292000003" height="27.000028439999994" class="text">item</text>
<text x="1062.99997336" y="337.00000752" width="8.000019919999886" height="27.000028439999994" class="text">, </text>
<text x="1075.999975" y="335.99999465999997" width="52.000041680000095" height="27.00000566999995" class="text">attach </text>
<text x="1137.99999768" y="337.00000752" width="120.99998960000016" height="29.000031390000004" class="text">supplemental </text>
<text x="1267.99999652" y="335.99999465999997" width="48.000031719999924" height="28.000018529999977" class="text">sheet </text>
<text x="1321.99998172" y="335.00000457000004" width="97.00003519999996" height="27.00002844000005" class="text">identifying </text>
<text x="1428.99999792" y="335.00000457000004" width="39.00004004000016" height="27.00002844000005" class="text">each </text>
<text x="1478.9999907200001" y="335.00000457000004" width="39.00002247999987" height="27.00002844000005" class="text">item</text>
<text x="1522.00002316" y="333.99999171" width="8.000019919999886" height="26.99998290000002" class="text">.
</text>
<text x="106.00000229599999" y="398.0000178" width="65.999995764" height="32.000024429999996" class="text">Privacy </text>
<text x="182.00000540000002" y="398.0000178" width="32.99999875999998" height="32.000024429999996" class="text">Act </text>
<text x="218.99999656" y="398.0000178" width="88.99999772000001" height="32.000024429999996" class="text">Statement</text>
<text x="307.99999428" y="398.0000178" width="9.000009239999997" height="32.000024429999996" class="text">. </text>
<text x="318.99999972" y="398.0000178" width="55.99999895999997" height="32.000024429999996" class="text">Every </text>
<text x="384.00000792" y="398.0000178" width="101.00001004" height="32.000024429999996" class="text">registration </text>
<text x="490.999989" y="398.0000178" width="89.00001527999996" height="32.000024429999996" class="text">statement</text>
<text x="577.00001876" y="398.0000178" width="9.00000923999994" height="32.000024429999996" class="text">, </text>
<text x="589.99998528" y="398.0000178" width="50.00002791999998" height="32.000024429999996" class="text">short </text>
<text x="644.99999492" y="398.0000178" width="42.00002556000004" height="32.000024429999996" class="text">form </text>
<text x="692.0000022" y="398.0000178" width="100.99999247999995" height="32.000024429999996" class="text">registration </text>
<text x="801.0000146" y="398.0000178" width="87.99993816000006" height="32.000024429999996" class="text">statement</text>
<text x="891.00000164" y="398.0000178" width="9.000009239999827" height="32.000024429999996" class="text">, </text>
<text x="904.9999925999999" y="398.0000178" width="119.00004608000006" height="32.000024429999996" class="text">supplemental </text>
<text x="1027.99994328" y="398.0000178" width="88.00004351999996" height="32.000024429999996" class="text">statement</text>
<text x="1115.00001504" y="398.0000178" width="8.999991679999994" height="32.000024429999996" class="text">, </text>
<text x="1127.00004492" y="398.0000178" width="64.99993796000012" height="32.000024429999996" class="text">exhibit</text>
<text x="1191.00001112" y="398.0000178" width="9.000009240000054" height="32.000024429999996" class="text">, </text>
<text x="1201.99996388" y="398.0000178" width="110.00005439999995" height="32.000024429999996" class="text">amendment</text>
<text x="1309.99995184" y="398.0000178" width="9.000009240000054" height="32.000024429999996" class="text">, </text>
<text x="1321.99998172" y="398.0000178" width="125.00001711999994" height="32.000024429999996" class="text">dissemination </text>
<text x="1459.00002872" y="398.0000178" width="54.000002759999916" height="32.000024429999996" class="text">report</text>
<text x="1510.99996504" y="398.0000178" width="9.000009239999827" height="32.000024429999996" class="text">, </text>
<text x="1522.99999492" y="398.0000178" width="40.99998355999992" height="32.000024429999996" class="text">copy </text>
<text x="1575.0000366" y="398.0000178" width="18.000000920000048" height="32.000024429999996" class="text">of </text>
<text x="1597.00004748" y="398.0000178" width="75.99990828000023" height="32.000024429999996" class="text">political
</text>
<text x="108.000002008" y="425.00000070000004" width="100.99999599200001" height="30.99998880000004" class="text">propaganda </text>
<text x="219.99998588000003" y="425.00000070000004" width="17.00002915999997" height="30.99998880000004" class="text">or </text>
<text x="244.00001052000002" y="425.00000070000004" width="49.00000347999995" height="30.99998880000004" class="text">other </text>
<text x="300.00000948" y="425.00000070000004" width="88.99998016" height="30.99998880000004" class="text">document </text>
<text x="396.00000267999997" y="425.00000070000004" width="21.999993320000044" height="30.99998880000004" class="text">or </text>
<text x="420.99999908" y="425.00000070000004" width="105.00000243999995" height="30.99998880000004" class="text">information </text>
<text x="537.99999628" y="425.00000070000004" width="37.00002628000004" height="30.99998880000004" class="text">filed </text>
<text x="584.00001424" y="425.00000070000004" width="36.999973599999976" height="30.99998880000004" class="text">with </text>
<text x="633.9999894800001" y="425.00000070000004" width="27.000010159999874" height="30.99998880000004" class="text">the </text>
<text x="667.99999512" y="425.00000070000004" width="75.00002431999997" height="30.99998880000004" class="text">Attorney </text>
<text x="754.99999664" y="425.00000070000004" width="71.00001436000002" height="30.99998880000004" class="text">General </text>
<text x="833.99997824" y="425.00000070000004" width="51.00006991999987" height="30.99998880000004" class="text">under </text>
<text x="888.99995276" y="425.00000070000004" width="36.00000183999998" height="30.99998880000004" class="text">this </text>
<text x="928.9999645600001" y="425.00000070000004" width="31.00000255999987" height="30.99998880000004" class="text">act </text>
<text x="966.0000435200001" y="425.00000070000004" width="10.999952759999928" height="30.99998880000004" class="text">is </text>
<text x="985.9999879600001" y="425.00000070000004" width="8.999991679999994" height="30.99998880000004" class="text">a </text>
<text x="1003.99998888" y="425.00000070000004" width="53.99998520000008" height="30.99998880000004" class="text">public </text>
<text x="1066.0000115599998" y="425.00000070000004" width="57.99999516000025" height="30.99998880000004" class="text">record </text>
<text x="1133.99998772" y="425.00000070000004" width="40.00001180000004" height="30.99998880000004" class="text">open </text>
<text x="1181.00003012" y="425.00000070000004" width="16.999923800000033" height="30.99998880000004" class="text">to </text>
<text x="1209.00001204" y="425.00000070000004" width="53.99998520000008" height="30.99998880000004" class="text">public </text>
<text x="1271.00003472" y="425.00000070000004" width="106.99999864000006" height="30.99998880000004" class="text">examination</text>
<text x="1382.00004332" y="425.00000070000004" width="9.000009239999827" height="30.99998880000004" class="text">, </text>
<text x="1397.00000604" y="425.00000070000004" width="91.99994812" height="30.99998880000004" class="text">inspection </text>
<text x="1496.9999740800001" y="425.00000070000004" width="31.999991879999925" height="30.99998880000004" class="text">and </text>
<text x="1536.99998588" y="425.00000070000004" width="67.00000440000008" height="30.99998880000004" class="text">copying </text>
<text x="1613.99997128" y="425.00000070000004" width="61.00003336000009" height="30.99998880000004" class="text">during
</text>
<text x="108.99999835199999" y="453.99998655" width="25.999999767999995" height="30.999988799999983" class="text">the </text>
<text x="139.999999156" y="453.99998655" width="60.00000716400001" height="30.999988799999983" class="text">posted </text>
<text x="210.00000488" y="453.99998655" width="75.99997851999996" height="30.999988799999983" class="text">business </text>
<text x="292.00000712" y="453.99998655" width="48.99998591999997" height="30.999988799999983" class="text">hours </text>
<text x="351.99999848" y="453.99998655" width="17.999983359999987" height="30.999988799999983" class="text">of </text>
<text x="378.99999108" y="453.99998655" width="27.00002772000005" height="30.999988799999983" class="text">the </text>
<text x="413.00001427999996" y="453.99998655" width="104.99996732" height="30.999988799999983" class="text">Registration </text>
<text x="530.00001148" y="453.99998655" width="39.99995911999997" height="30.999988799999983" class="text">Unit </text>
<text x="580.00000428" y="453.99998655" width="11.999977200000103" height="30.999988799999983" class="text">in </text>
<text x="604.00001136" y="453.99998655" width="103.99997799999994" height="30.999988799999983" class="text">Washington</text>
<text x="711.9999993199999" y="453.99998655" width="9.000009240000054" height="30.999988799999983" class="text">, </text>
<text x="725.99999028" y="453.99998655" width="40.99998355999992" height="30.999988799999983" class="text">D.C. </text>
<text x="772.0000258" y="453.99998655" width="39.99999423999998" height="30.999988799999983" class="text">One </text>
<text x="815.9999773200001" y="453.99998655" width="43.00004999999999" height="30.999988799999983" class="text">copy </text>
<text x="869.00000832" y="453.99998655" width="21.999993320000044" height="30.999988799999983" class="text">of </text>
<text x="894.00003984" y="453.99998655" width="49.00000348000003" height="30.999988799999983" class="text">every </text>
<text x="953.99999608" y="453.99998655" width="40.999983560000146" height="30.999988799999983" class="text">such </text>
<text x="1002.0000278" y="453.99998655" width="90.00000460000001" height="30.999988799999983" class="text">document </text>
<text x="1101.00002408" y="453.99998655" width="11.99992452000015" height="30.999988799999983" class="text">is </text>
<text x="1120.99996852" y="453.99998655" width="123.00005604000012" height="30.999988799999983" class="text">automatically </text>
<text x="1249.9999956" y="453.99998655" width="83.00004424000008" height="30.999988799999983" class="text">provided </text>
<text x="1338.00003912" y="453.99998655" width="16.999906239999746" height="30.999988799999983" class="text">to </text>
<text x="1362.99996528" y="453.99998655" width="26.000020839999934" height="30.999988799999983" class="text">the </text>
<text x="1398.99996712" y="453.99998655" width="82.00007247999997" height="30.999988799999983" class="text">Secretary </text>
<text x="1491.99999236" y="453.99998655" width="22.00001087999999" height="30.999988799999983" class="text">of </text>
<text x="1521.0000513999998" y="453.99998655" width="41.999955320000254" height="30.999988799999983" class="text">State </text>
<text x="1569.99994952" y="453.99998655" width="80.00002359999985" height="30.999988799999983" class="text">pursuant </text>
<text x="1653.99998308" y="453.99998655" width="18.999972680000155" height="30.999988799999983" class="text">to
</text>
<text x="108.99999835199999" y="483.00001794" width="61.00000702000001" height="31.000034340000013" class="text">Section </text>
<text x="180.99999852" y="483.00001794" width="8.999991680000022" height="31.000034340000013" class="text">6</text>
<text x="193.00001084" y="483.00001794" width="8.999991680000022" height="31.000034340000013" class="text">(</text>
<text x="198.99999943999998" y="483.00001794" width="8.999991680000022" height="31.000034340000013" class="text">b</text>
<text x="212.00000108" y="483.00001794" width="8.999991679999994" height="31.000034340000013" class="text">) </text>
<text x="223.99999584" y="483.00001794" width="16.99999404000002" height="31.000034340000013" class="text">of </text>
<text x="246.00000672000002" y="483.00001794" width="26.00000327999996" height="31.000034340000013" class="text">the </text>
<text x="282.00000855999997" y="483.00001794" width="31.999974320000035" height="31.000034340000013" class="text">Act</text>
<text x="313.99998288" y="483.00001794" width="9.000009239999997" height="31.000034340000013" class="text">, </text>
<text x="325.9999952" y="483.00001794" width="31.000002559999984" height="31.000034340000013" class="text">and </text>
<text x="363.00000392" y="483.00001794" width="57.999995160000026" height="31.000034340000013" class="text">copies </text>
<text x="429.00000144" y="483.00001794" width="16.99999403999999" height="31.000034340000013" class="text">of </text>
<text x="454.99998716" y="483.00001794" width="33.99998808000004" height="31.000034340000013" class="text">such </text>
<text x="499.00000892" y="483.00001794" width="98.00000695999995" height="31.000034340000013" class="text">documents </text>
<text x="600.99999072" y="483.00001794" width="26.999992599999928" height="31.000034340000013" class="text">are </text>
<text x="636.00000324" y="483.00001794" width="78.99998160000007" height="31.000034340000013" class="text">routinely </text>
<text x="727.00001472" y="483.00001794" width="49.999992800000086" height="31.000034340000013" class="text">made </text>
<text x="781.99998924" y="483.00001794" width="75.00002431999997" height="31.000034340000013" class="text">available </text>
<text x="868.000019" y="483.00001794" width="10.999952760000042" height="31.000034340000013" class="text">to </text>
<text x="891.00000164" y="483.00001794" width="45.00001107999992" height="31.000034340000013" class="text">other </text>
<text x="943.00004332" y="483.00001794" width="76.9999853999999" height="31.000034340000013" class="text">agencies</text>
<text x="1021.00000048" y="483.00001794" width="9.00000923999994" height="31.000034340000013" class="text">, </text>
<text x="1033.00004792" y="483.00001794" width="109.99993147999999" height="31.000034340000013" class="text">departments </text>
<text x="1146.99998936" y="483.00001794" width="31.999991880000152" height="31.000034340000013" class="text">and </text>
<text x="1190.00003936" y="483.00001794" width="83.99991063999983" height="31.000034340000013" class="text">Congress </text>
<text x="1276.9999882" y="483.00001794" width="80.00002360000008" height="31.000034340000013" class="text">pursuant </text>
<text x="1361.99999352" y="483.00001794" width="17.00002915999994" height="31.000034340000013" class="text">to </text>
<text x="1385.99996548" y="483.00001794" width="64.00007155999992" height="31.000034340000013" class="text">Section </text>
<text x="1460.9999897999999" y="483.00001794" width="8.999991679999994" height="31.000034340000013" class="text">6</text>
<text x="1469.9999814799999" y="483.00001794" width="9.000009240000281" height="31.000034340000013" class="text">(</text>
<text x="1479.99996248" y="483.00001794" width="8.999991679999994" height="31.000034340000013" class="text">c</text>
<text x="1488.99995416" y="483.00001794" width="9.000009240000054" height="31.000034340000013" class="text">) </text>
<text x="1500.00001228" y="483.00001794" width="23.99997196000004" height="31.000034340000013" class="text">of </text>
<text x="1527.9999942" y="483.00001794" width="26.99999260000004" height="31.000034340000013" class="text">the </text>
<text x="1562.00003496" y="483.00001794" width="31.000002559999984" height="31.000034340000013" class="text">Act</text>
<text x="1590.99998864" y="483.00001794" width="8.999991679999766" height="31.000034340000013" class="text">. </text>
<text x="1607.00002848" y="483.00001794" width="59.999956240000074" height="31.000034340000013" class="text">Finally</text>
<text x="1666.00001296" y="483.00001794" width="8.999991679999994" height="31.000034340000013" class="text">,
</text>
<text x="106.00000229599999" y="512.9999938799999" width="27.99999421200002" height="32.999991749999936" class="text">the </text>
<text x="145.00000019200002" y="512.9999938799999" width="73.99999636799998" height="32.999991749999936" class="text">Attorney </text>
<text x="229.99998444000002" y="512.9999938799999" width="73.00002812" height="32.999991749999936" class="text">General </text>
<text x="309.00000116" y="512.9999938799999" width="80.99999535999996" height="32.999991749999936" class="text">transmits </text>
<text x="396.00000267999997" y="512.9999938799999" width="19.00000779999999" height="32.999991749999936" class="text">an </text>
<text x="425.99999836" y="512.9999938799999" width="60.00000892000003" height="32.999991749999936" class="text">annual </text>
<text x="492.00001344000003" y="512.9999938799999" width="55.999998959999914" height="32.999991749999936" class="text">report </text>
<text x="553.99998344" y="512.9999938799999" width="19.00002535999988" height="32.999991749999936" class="text">to </text>
<text x="577.00001876" y="512.9999938799999" width="29.000006360000043" height="32.999991749999936" class="text">the </text>
<text x="616.00000612" y="512.9999938799999" width="80.99997780000001" height="32.999991749999936" class="text">Congress </text>
<text x="705.00000384" y="512.9999938799999" width="23.99997196000004" height="32.999991749999936" class="text">on </text>
<text x="736.99999572" y="512.9999938799999" width="29.000006360000043" height="32.999991749999936" class="text">the </text>
<text x="770.9999838" y="512.9999938799999" width="137.0000470000001" height="32.999991749999936" class="text">Administration </text>
<text x="913.0000125199999" y="512.9999938799999" width="24.999943720000147" height="32.999991749999936" class="text">of </text>
<text x="943.00004332" y="512.9999938799999" width="23.000000200000045" height="32.999991749999936" class="text">the </text>
<text x="976.00000696" y="512.9999938799999" width="32.99996364000003" height="32.999991749999936" class="text">Act </text>
<text x="1009.9999423600001" y="512.9999938799999" width="58.00001271999997" height="32.999991749999936" class="text">which </text>
<text x="1078.00004144" y="512.9999938799999" width="36.9999736000002" height="32.999991749999936" class="text">lists </text>
<text x="1120.99996852" y="512.9999938799999" width="27.999981919999982" height="32.999991749999936" class="text">the </text>
<text x="1155.0000092799999" y="512.9999938799999" width="58.999984480000194" height="32.999991749999936" class="text">names </text>
<text x="1221.0000419199998" y="512.9999938799999" width="18.999972680000155" height="32.999991749999936" class="text">of </text>
<text x="1244.0000245600002" y="512.9999938799999" width="23.99997195999981" height="32.999991749999936" class="text">all </text>
<text x="1273.99995" y="512.9999938799999" width="57.00004095999998" height="32.999991749999936" class="text">agents </text>
<text x="1342.00004908" y="512.9999938799999" width="82.99993887999995" height="32.999991749999936" class="text">registered </text>
<text x="1436.00004608" y="512.9999938799999" width="50.99996456000008" height="32.999991749999936" class="text">under </text>
<text x="1496.00000232" y="512.9999938799999" width="23.99997195999981" height="32.999991749999936" class="text">the </text>
<text x="1530.0000430799998" y="512.9999938799999" width="32.99996364000026" height="32.999991749999936" class="text">Act</text>
<text x="1560.99995784" y="512.9999938799999" width="8.999991679999994" height="32.999991749999936" class="text">, </text>
<text x="1575.0000366" y="512.9999938799999" width="28.99995368000009" height="32.999991749999936" class="text">the </text>
<text x="1612.0000102000001" y="512.9999938799999" width="58.999984479999966" height="32.999991749999936" class="text">foreign
</text>
<text x="106.99999864" y="542.0000025" width="87.99999084000001" height="27.000005670000064" class="text">principals </text>
<text x="205.0000056" y="542.0000025" width="37.99999804000001" height="27.999995760000047" class="text">they </text>
<text x="254.00000908" y="540.99998964" width="82.99999155999998" height="26.999982899999964" class="text">represent</text>
<text x="337.00000064" y="540.99998964" width="8.000002360000053" height="26.999982899999964" class="text">, </text>
<text x="352.99998780000004" y="540.99998964" width="30.000013239999987" height="26.999982899999964" class="text">and </text>
<text x="394.00000647999997" y="540.99998964" width="26.99999260000004" height="26.999982899999964" class="text">the </text>
<text x="426.99998768" y="540.99998964" width="58.000030279999976" height="27.999995760000047" class="text">nature</text>
<text x="488.99997524" y="540.00002232" width="8.000037479999946" height="27.00002844000005" class="text">, </text>
<text x="501.00002268" y="540.00002232" width="67.99997616000002" height="27.00002844000005" class="text">sources </text>
<text x="580.99997604" y="540.00002232" width="31.000020120000045" height="27.00002844000005" class="text">and </text>
<text x="620.00001608" y="540.00002232" width="67.99997615999996" height="27.00002844000005" class="text">content </text>
<text x="696.00001216" y="540.00002232" width="18.99997268000004" height="27.00002844000005" class="text">of </text>
<text x="721.00000856" y="538.99998669" width="26.99999260000004" height="26.999982899999964" class="text">the </text>
<text x="757.99998216" y="538.99998669" width="75.99999608000007" height="26.999982899999964" class="text">political </text>
<text x="840.9999737200001" y="538.99998669" width="104.0000306799999" height="26.999982899999964" class="text">propaganda </text>
<text x="954.9999853999999" y="538.99998669" width="114.00004680000018" height="27.999995760000047" class="text">disseminated </text>
<text x="1078.00004144" y="538.00001937" width="24.999926160000086" height="27.00002844000005" class="text">or </text>
<text x="1109.0000440000001" y="538.00001937" width="94.99998631999983" height="27.00002844000005" class="text">distributed </text>
<text x="1213.99999376" y="537.0000065099999" width="19.999962000000096" height="27.00000566999995" class="text">by </text>
<text x="1241.99997568" y="537.0000065099999" width="44.99999351999986" height="27.00000566999995" class="text">them</text>
<text x="1290.0000074" y="537.0000065099999" width="8.000019920000113" height="27.00000566999995" class="text">. </text>
<text x="1308.9999800800001" y="537.0000065099999" width="36.99997359999975" height="27.00000566999995" class="text">This </text>
<text x="1354.9999453599999" y="537.0000065099999" width="56.00005164000004" height="27.00000566999995" class="text">report </text>
<text x="1418.0000451600001" y="537.0000065099999" width="14.999962719999985" height="27.00000566999995" class="text">is </text>
<text x="1441.0000278" y="537.0000065099999" width="77.9999571599999" height="28.000018529999977" class="text">available </text>
<text x="1527.9999942" y="536.00001642" width="14.999962720000212" height="27.000028439999994" class="text">to </text>
<text x="1555.99995856" y="536.00001642" width="28.00008727999989" height="27.000028439999994" class="text">the </text>
<text x="1587.99995044" y="536.00001642" width="57.999995160000026" height="27.000028439999994" class="text">public</text>
<text x="1647.0000402800001" y="536.00001642" width="7.999914559999752" height="27.000028439999994" class="text">.
</text>
<text x="106.99999864" y="596.00003661" width="54.999997347999994" height="31.00003434000007" class="text">Public </text>
<text x="168.000000392" y="596.00003661" width="88.00000488800003" height="31.00003434000007" class="text">Reporting </text>
<text x="265.00001452000004" y="596.00003661" width="61.999987559999965" height="31.00003434000007" class="text">Burden</text>
<text x="331.9999838" y="596.00003661" width="9.000009239999997" height="31.00003434000007" class="text">. </text>
<text x="342.99998924" y="596.00003661" width="54.00000276000003" height="31.00003434000007" class="text">Public </text>
<text x="406.0000188" y="596.00003661" width="81.99998467999995" height="31.00003434000007" class="text">reporting </text>
<text x="495.99997071999996" y="596.00003661" width="57.00004095999998" height="31.00003434000007" class="text">burden </text>
<text x="560.99997892" y="596.00003661" width="27.000045279999995" height="31.00003434000007" class="text">for </text>
<text x="591.9999814800001" y="596.00003661" width="32.00004455999988" height="31.00003434000007" class="text">this </text>
<text x="631.99999328" y="596.00003661" width="87.99999084000001" height="31.00003434000007" class="text">collection </text>
<text x="723.99999408" y="596.00003661" width="24.000007080000046" height="31.00003434000007" class="text">of </text>
<text x="747.0000294" y="596.00003661" width="103.99997799999994" height="31.00003434000007" class="text">information </text>
<text x="859.99999908" y="596.00003661" width="11.99997719999999" height="31.00003434000007" class="text">is </text>
<text x="879.9999610799999" y="596.00003661" width="84.00001600000007" height="31.00003434000007" class="text">estimated </text>
<text x="971.9999969999999" y="596.00003661" width="10.999952760000042" height="31.00003434000007" class="text">to </text>
<text x="991.999959" y="596.00003661" width="69.00005327999997" height="31.00003434000007" class="text">average </text>
<text x="1071.99996504" y="596.00003661" width="9.000009239999827" height="31.00003434000007" class="text">5 </text>
<text x="1087.00003312" y="596.00003661" width="51.99993632000019" height="31.00003434000007" class="text">hours </text>
<text x="1142.9999794" y="596.00003661" width="31.000020120000045" height="31.00003434000007" class="text">per </text>
<text x="1178.00000948" y="596.00003661" width="79.00003427999991" height="31.00003434000007" class="text">response</text>
<text x="1258.00001552" y="596.00003661" width="9.000009239999827" height="31.00003434000007" class="text">, </text>
<text x="1267.99999652" y="596.00003661" width="81.99996711999984" height="31.00003434000007" class="text">including </text>
<text x="1357.9999835600001" y="596.00003661" width="26.000020839999934" height="31.00003434000007" class="text">the </text>
<text x="1393.9999854" y="596.00003661" width="39.0000224800001" height="31.00003434000007" class="text">time </text>
<text x="1434.99996896" y="596.00003661" width="28.000069720000056" height="31.00003434000007" class="text">for </text>
<text x="1470.99995324" y="596.00003661" width="86.00008244000014" height="31.00003434000007" class="text">reviewing </text>
<text x="1563.99997848" y="596.00003661" width="103.00000624000018" height="31.00003434000007" class="text">instructions</text>
<text x="1667.99995648" y="596.00003661" width="9.000009240000054" height="31.00003434000007" class="text">,
</text>
<text x="106.99999864" y="626.99997987" width="83.99999844000001" height="26.999960129999863" class="text">searching </text>
<text x="202.00000252" y="626.99997987" width="72.00000367999996" height="27.999995759999933" class="text">existing </text>
<text x="278.99998792" y="626.0000125500001" width="39.00000491999998" height="27.00002844000005" class="text">data </text>
<text x="325.9999952" y="626.0000125500001" width="67.00000440000002" height="27.00002844000005" class="text">sources</text>
<text x="396.999992" y="626.0000125500001" width="8.000019919999943" height="27.00002844000005" class="text">, </text>
<text x="409.99999364" y="626.0000125500001" width="84.00003355999996" height="28.000018530000034" class="text">gathering </text>
<text x="503.99999064" y="625.0000224600001" width="29.999995679999927" height="27.00002844000005" class="text">and </text>
<text x="549.00000172" y="625.0000224600001" width="100.99999247999995" height="27.00002844000005" class="text">maintaining </text>
<text x="658.99998588" y="623.99996406" width="26.000020839999934" height="26.999960129999977" class="text">the </text>
<text x="696.00001216" y="623.99996406" width="32.99996364000003" height="26.999960129999977" class="text">data </text>
<text x="741.99997744" y="623.99996406" width="62.99999444000002" height="26.999960129999977" class="text">needed</text>
<text x="806.99998564" y="623.99996406" width="8.00001992" height="26.999960129999977" class="text">, </text>
<text x="819.99998728" y="623.99996406" width="35.00003007999999" height="26.999960129999977" class="text">and </text>
<text x="862.9999846" y="623.99996406" width="103.00005892000013" height="27.999927449999973" class="text">completing </text>
<text x="971.0000252400001" y="622.99997397" width="29.999925439999856" height="26.99993735999999" class="text">and </text>
<text x="1015.0000469999999" y="622.99997397" width="87.99992060000011" height="27.999995760000047" class="text">reviewing </text>
<text x="1110.00001576" y="622.00000665" width="26.000020839999934" height="27.00002844000005" class="text">the </text>
<text x="1146.99998936" y="622.00000665" width="86.99996640000018" height="27.00002844000005" class="text">collection </text>
<text x="1244.0000245600002" y="622.00000665" width="18.999972679999928" height="27.00002844000005" class="text">of </text>
<text x="1272.99997824" y="622.00000665" width="101.00004516000013" height="28.000018530000034" class="text">information</text>
<text x="1379.99999444" y="621.0000165600001" width="8.000019920000113" height="27.00002844000005" class="text">. </text>
<text x="1394.99995716" y="621.0000165600001" width="41.00008892000005" height="27.00002844000005" class="text">Send </text>
<text x="1446.0000270799999" y="621.0000165600001" width="90.99995880000006" height="27.00002844000005" class="text">comments </text>
<text x="1546.99996688" y="619.99995816" width="84.00001599999996" height="26.99993735999999" class="text">regarding </text>
<text x="1642.000041" y="619.99995816" width="29.99992543999997" height="26.99993735999999" class="text">this
</text>
<text x="108.99999835199999" y="654.00000831" width="60.00000365200002" height="32.00000165999995" class="text">burden </text>
<text x="179.00000232" y="654.00000831" width="70.99999680000002" height="32.00000165999995" class="text">estimate </text>
<text x="261.99999388000003" y="654.00000831" width="19.00000779999999" height="32.00000165999995" class="text">or </text>
<text x="287.99999716" y="654.00000831" width="31.000002559999984" height="32.00000165999995" class="text">any </text>
<text x="325.9999952" y="654.00000831" width="48.00001415999998" height="32.00000165999995" class="text">other </text>
<text x="380.99998727999997" y="654.00000831" width="60.00002648000009" height="32.00000165999995" class="text">aspect </text>
<text x="443.99998172000005" y="654.00000831" width="23.00005288" height="32.00000165999995" class="text">of </text>
<text x="470.99999188" y="654.00000831" width="33.99998807999998" height="32.00000165999995" class="text">this </text>
<text x="512.00002812" y="654.00000831" width="85.9999770799999" height="32.00000165999995" class="text">collection </text>
<text x="607.99996864" y="654.00000831" width="18.000000920000048" height="32.00000165999995" class="text">of </text>
<text x="629.99997952" y="654.00000831" width="109.00002996" height="32.00000165999995" class="text">information</text>
<text x="741.99997744" y="654.00000831" width="9.000009240000054" height="32.00000165999995" class="text">, </text>
<text x="756.99999284" y="654.00000831" width="80.99999535999996" height="32.00000165999995" class="text">including </text>
<text x="848.00002188" y="654.00000831" width="105.9999742" height="32.00000165999995" class="text">suggestions </text>
<text x="962.00003356" y="654.00000831" width="26.99999260000004" height="32.00000165999995" class="text">for </text>
<text x="991.999959" y="654.00000831" width="79.00003427999991" height="32.00000165999995" class="text">reducing </text>
<text x="1079.0000132" y="654.00000831" width="31.999991879999925" height="32.00000165999995" class="text">this </text>
<text x="1119.000025" y="654.00000831" width="59.999956240000074" height="32.00000165999995" class="text">burden </text>
<text x="1191.00001112" y="654.00000831" width="13.000019199999997" height="32.00000165999995" class="text">to </text>
<text x="1213.99999376" y="654.00000831" width="52.00004167999987" height="32.00000165999995" class="text">Chief</text>
<text x="1267.0000247599999" y="654.00000831" width="8.999991679999994" height="32.00000165999995" class="text">, </text>
<text x="1279.0000546400001" y="654.00000831" width="107.99998795999977" height="32.00000165999995" class="text">Registration </text>
<text x="1396.00003428" y="654.00000831" width="40.999983560000146" height="32.00000165999995" class="text">Unit</text>
<text x="1439.99995068" y="654.00000831" width="8.999991679999994" height="32.00000165999995" class="text">, </text>
<text x="1455.0000187599999" y="654.00000831" width="82.99993888000017" height="32.00000165999995" class="text">Criminal </text>
<text x="1544.00003404" y="654.00000831" width="73.99994720000018" height="32.00000165999995" class="text">Division</text>
<text x="1621.9999912" y="654.00000831" width="8.999991679999994" height="32.00000165999995" class="text">, </text>
<text x="1636.99995392" y="654.00000831" width="42.00006067999993" height="32.00000165999995" class="text">U.S.
</text>
<text x="106.99999864" y="682.99999416" width="110.99999104" height="31.000011570000083" class="text">Department </text>
<text x="222.99998896" y="682.99999416" width="22.00001088000002" height="31.000011570000083" class="text">of </text>
<text x="248.99999224" y="682.99999416" width="62.00002268" height="31.000011570000083" class="text">Justice</text>
<text x="311.00001492" y="682.99999416" width="8.999991679999994" height="31.000011570000083" class="text">, </text>
<text x="322.00002036" y="682.99999416" width="104.99996732" height="31.000011570000083" class="text">Washington</text>
<text x="432.00000452" y="682.99999416" width="9.000009240000054" height="31.000011570000083" class="text">, </text>
<text x="445.99999548" y="682.99999416" width="44.00002175999998" height="31.000011570000083" class="text">D.C. </text>
<text x="497.00001272" y="682.99999416" width="50.99999967999997" height="31.000011570000083" class="text">20530</text>
<text x="553.00001168" y="682.99999416" width="8.999991680000107" height="31.000011570000083" class="text">; </text>
<text x="568.00002708" y="682.99999416" width="31.99997431999998" height="31.000011570000083" class="text">and </text>
<text x="606.00002512" y="682.99999416" width="15.999987160000046" height="31.000011570000083" class="text">to </text>
<text x="629.99997952" y="682.99999416" width="32.00004455999999" height="31.000011570000083" class="text">the </text>
<text x="667.99999512" y="682.99999416" width="57.00002339999992" height="31.000011570000083" class="text">Office </text>
<text x="734.99999952" y="682.99999416" width="17.9999833600001" height="31.000011570000083" class="text">of </text>
<text x="759.99997836" y="682.99999416" width="109.00002996" height="31.000011570000083" class="text">Information </text>
<text x="878.0" y="682.99999416" width="31.99999188000004" height="31.000011570000083" class="text">and </text>
<text x="915.99994536" y="682.99999416" width="100.00007340000002" height="31.000011570000083" class="text">Regulatory </text>
<text x="1025.0000280000002" y="682.99999416" width="62.00000511999974" height="31.000011570000083" class="text">Affairs</text>
<text x="1088.9999942" y="682.99999416" width="8.999991679999994" height="31.000011570000083" class="text">, </text>
<text x="1101.9999958399999" y="682.99999416" width="57.000040960000206" height="31.000011570000083" class="text">Office </text>
<text x="1169.0000002400002" y="682.99999416" width="22.000010879999763" height="31.000011570000083" class="text">of </text>
<text x="1194.00004932" y="682.99999416" width="119.99991247999992" height="31.000011570000083" class="text">Management </text>
<text x="1321.00000996" y="682.99999416" width="30.000030800000104" height="31.000011570000083" class="text">and </text>
<text x="1363.9999546000001" y="682.99999416" width="66.00001507999991" height="31.000011570000083" class="text">Budget</text>
<text x="1427.0000544" y="682.99999416" width="8.999991679999994" height="31.000011570000083" class="text">, </text>
<text x="1438.00000716" y="682.99999416" width="108.9999597200001" height="31.000011570000083" class="text">Washington</text>
<text x="1548.0000440000001" y="682.99999416" width="8.999991679999994" height="31.000011570000083" class="text">, </text>
<text x="1558.000025" y="682.99999416" width="40.00001180000004" height="31.000011570000083" class="text">DC</text>
<text x="1597.00004748" y="682.99999416" width="9.000009240000054" height="31.000011570000083" class="text">. </text>
<text x="1612.99999952" y="682.99999416" width="54.99995695999996" height="31.000011570000083" class="text">20503</text>
<text x="1669.00005116" y="682.99999416" width="8.999991679999994" height="31.000011570000083" class="text">.
</text>
<text x="120.99999838" y="741.99995595" width="28.000001236000003" height="29.999953169999912" class="text">1. </text>
<text x="157.99999832" y="744.00000444" width="69.00001816000002" height="32.00000165999995" class="text">Name </text>
<text x="240.00000056" y="744.00000444" width="21.999993320000044" height="29.999975940000013" class="text">of </text>
<text x="274.0000062" y="745.99996185" width="107.99998796000006" height="31.999933349999992" class="text">registrant
</text>
<text x="1233.9999557600001" y="740.99998863" width="22.000010879999763" height="28.999985849999916" class="text">2. </text>
<text x="1267.0000247599999" y="740.99998863" width="134.99998056000004" height="30.999966029999996" class="text">Registration </text>
<text x="1412.9999580800002" y="739.9999985400001" width="50.00008059999982" height="28.99998585000003" class="text">No.
</text>
<text x="468.99997812000004" y="781.0000020900001" width="96.00001076000001" height="29.000008620000017" class="text">JETRO</text>
<text x="575.99999432" y="780.0000120000001" width="8.00001992" height="28.999985850000144" class="text">-</text>
<text x="591.00000972" y="780.0000120000001" width="57.999995160000026" height="28.999985850000144" class="text">San </text>
<text x="671.00001576" y="781.0000020900001" width="184.00000160000002" height="31.00003434000007" class="text">Francisco
</text>
<text x="1479.99996248" y="780.0000120000001" width="8.000019920000113" height="28.999985850000144" class="text">#</text>
<text x="1500.00001228" y="780.0000120000001" width="76.0000136399999" height="28.999985850000144" class="text">1813
</text>
<text x="125.99999941600001" y="845.9999955000001" width="25.000005179999988" height="33.999981840000146" class="text">3. </text>
<text x="161.000006668" y="845.9999955000001" width="77.99998701200002" height="33.999981840000146" class="text">Nature </text>
<text x="247.0000136" y="845.9999955000001" width="25.99998572000004" height="33.999981840000146" class="text">of </text>
<text x="286.99999028" y="845.9999955000001" width="90.00002216000001" height="33.999981840000146" class="text">material </text>
<text x="387.99998276" y="845.9999955000001" width="9.999998559999938" height="33.999981840000146" class="text">(</text>
<text x="397.99998131999996" y="845.9999955000001" width="10.000016120000055" height="33.999981840000146" class="text">A </text>
<text x="424.99999148" y="845.9999955000001" width="81.99998468000001" height="33.999981840000146" class="text">concise </text>
<text x="519.00000604" y="845.9999955000001" width="94.00001455999995" height="33.999981840000146" class="text">account </text>
<text x="620.99998784" y="845.9999955000001" width="26.000020840000047" height="33.999981840000146" class="text">of </text>
<text x="656.0000003600001" y="845.9999955000001" width="31.999991879999925" height="33.999981840000146" class="text">the </text>
<text x="700.0000221199999" y="845.9999955000001" width="70.99996168000007" height="33.999981840000146" class="text">nature </text>
<text x="781.99998924" y="845.9999955000001" width="24.999996399999986" height="33.999981840000146" class="text">of </text>
<text x="813.0000093599999" y="845.9999955000001" width="35.00001252000004" height="33.999981840000146" class="text">the </text>
<text x="859.0000273200001" y="845.9999955000001" width="134.99998055999993" height="33.999981840000146" class="text">propaganda </text>
<text x="1011.0000370399999" y="845.9999955000001" width="94.99996876000012" height="33.999981840000146" class="text">material </text>
<text x="1116.99995856" y="845.9999955000001" width="47.000059960000044" height="33.999981840000146" class="text">filed</text>
<text x="1165.99996204" y="845.9999955000001" width="10.000086360000068" height="33.999981840000146" class="text">)
</text>
<text x="468.00000636" y="897.00003657" width="161.99997316000002" height="29.000076929999977" class="text">Economic </text>
<text x="656.99998968" y="897.00003657" width="8.00001992" height="29.000076929999977" class="text">&amp; </text>
<text x="694.00001596" y="897.00003657" width="162.99999759999992" height="29.000076929999977" class="text">Cultural </text>
<text x="882.99998172" y="897.00003657" width="219.99998587999994" height="29.000076929999977" class="text">Information
</text>
<text x="124.99999780400002" y="979.0000209" width="31.000007827999966" height="30.000044249999974" class="text">4. </text>
<text x="166.999997024" y="979.99998822" width="43.999997175999994" height="31.00001156999997" class="text">Title </text>
<text x="222.99998896" y="979.99998822" width="27.999999480000014" height="28.99998585000003" class="text">of </text>
<text x="265.00001452000004" y="982.00003671" width="88.99998015999995" height="31.00003434000007" class="text">material</text>
<text x="353.99999468" y="982.00003671" width="8.000002359999996" height="29.00005415999999" class="text">, </text>
<text x="370.99998872" y="982.00003671" width="16.999994040000047" height="29.00005415999999" class="text">if </text>
<text x="396.999992" y="983.99999412" width="42.00000799999998" height="29.999975940000013" class="text">any
</text>
<text x="943.00004332" y="982.00003671" width="28.999953679999862" height="31.00003434000007" class="text">5. </text>
<text x="994.9999796400001" y="982.00003671" width="67.00000439999997" height="32.000001660000066" class="text">Name </text>
<text x="1073.00004216" y="980.99997831" width="21.999905519999857" height="30.99994326000001" class="text">of </text>
<text x="1100.0000523200001" y="980.99997831" width="79.99990067999988" height="30.99994326000001" class="text">foreign </text>
<text x="1185.00005764" y="980.99997831" width="103.99996044" height="32.00000165999995" class="text">principal </text>
<text x="1294.0000173600001" y="979.99998822" width="27.99996435999992" height="31.00001156999997" class="text">on </text>
<text x="1330.00000164" y="979.99998822" width="72.00000367999996" height="31.00001156999997" class="text">whose </text>
<text x="1407.9999588" y="979.99998822" width="73.00008079999998" height="32.000001660000066" class="text">behalf </text>
<text x="1488.99995416" y="979.0000209" width="39.00004003999993" height="31.00003434000007" class="text">this </text>
<text x="1539.0000523200001" y="979.0000209" width="91.99993055999994" height="31.00003434000007" class="text">material </text>
<text x="1634.00002108" y="979.0000209" width="44.00002176000021" height="31.00003434000007" class="text">was
</text>
<text x="994.00000788" y="1011.00002256" width="127.99994995999998" height="26.000038350000068" class="text">transmitted</text>
<text x="1128.00001668" y="1008.99999684" width="6.999942799999872" height="25.000002719999998" class="text">.
</text>
<text x="322.00002036" y="1073.9999902499999" width="143.99997224000003" height="36.00000755999986" class="text">Bridges </text>
<text x="493.00000276" y="1072.00003284" width="10.000016120000055" height="34.00005014999988" class="text">&amp; </text>
<text x="530.00001148" y="1072.00003284" width="164.00000448000003" height="36.99999764999984" class="text">Barriers
</text>
<text x="1191.99998288" y="1073.9999902499999" width="97.00003519999996" height="37.99996496999984" class="text">JETRO</text>
<text x="1294.99998912" y="1073.00000016" width="11.000058119999949" height="35.000017469999875" class="text">-</text>
<text x="1317.99997176" y="1074.9999803399999" width="92.0000534799999" height="36.99999764999984" class="text">Tokyo
</text>
<text x="123.00000511600001" y="1151.00006967" width="30.999993779999983" height="29.000076929999977" class="text">6. </text>
<text x="161.000006668" y="1151.00006967" width="76.000008372" height="29.000076929999977" class="text">Means </text>
<text x="248.99999224" y="1151.00006967" width="22.00001088000002" height="29.000076929999977" class="text">of </text>
<text x="282.00000855999997" y="1151.00006967" width="141.99999360000004" height="29.000076929999977" class="text">transmission
</text>
<text x="658.00001412" y="1153.00002708" width="18.99997268000004" height="31.000034340000184" class="text">7. </text>
<text x="685.00000672" y="1153.00002708" width="65.99997996000002" height="31.000034340000184" class="text">Dates </text>
<text x="763.00001656" y="1153.00002708" width="21.999958200000037" height="31.000034340000184" class="text">of </text>
<text x="795.00000844" y="1153.00002708" width="144.00002492" height="31.000034340000184" class="text">transmission
</text>
<text x="1168.00002848" y="1153.00002708" width="23.99995439999998" height="32.00000166000018" class="text">8. </text>
<text x="1203.000041" y="1153.00002708" width="55.99994628000013" height="32.00000166000018" class="text">Total </text>
<text x="1267.0000247599999" y="1152.00003699" width="71.99998612000013" height="32.00006996999991" class="text">copies </text>
<text x="1348.00000256" y="1153.00002708" width="129.0000270800001" height="34.000050150000106" class="text">transmitted
</text>
<text x="323.999999" y="1204.99996716" width="82.00001980000002" height="26.999937360000104" class="text">Mail
</text>
<text x="775.99998308" y="1206.9999473399998" width="97.00003519999996" height="29.999907629999825" class="text">March </text>
<text x="903.00004908" y="1206.9999473399998" width="75.99999607999996" height="29.999907629999825" class="text">1991
</text>
<text x="1290.99997916" y="1203.99999984" width="60.00006159999998" height="25.999970040000107" class="text">One
</text>
<text x="123.00000511600001" y="1254.99994983" width="30.999993779999983" height="28.99991754000007" class="text">9. </text>
<text x="160.0000033" y="1254.99994983" width="45.99999162" height="28.99991754000007" class="text">List </text>
<text x="216.00001104" y="1254.99994983" width="109.99998416" height="28.99991754000007" class="text">addresses </text>
<text x="335.99999376" y="1254.99994983" width="55.00000964000003" height="28.99991754000007" class="text">from </text>
<text x="402.99999816" y="1254.99994983" width="65.00000819999997" height="28.99991754000007" class="text">which </text>
<text x="488.00000348" y="1254.99994983" width="89.99998704000001" height="28.99991754000007" class="text">material </text>
<text x="586.0000279999999" y="1254.99994983" width="44.99999352000009" height="28.99991754000007" class="text">was </text>
<text x="642.00002696" y="1254.99994983" width="124.99994687999992" height="28.99991754000007" class="text">transmitted</text>
<text x="772.0000258" y="1254.99994983" width="7.999967239999933" height="28.99991754000007" class="text">:
</text>
<text x="949.00001436" y="1252.99999242" width="40.99998356000003" height="25.99997003999988" class="text">10. </text>
<text x="998.00001784" y="1252.99999242" width="44.00002175999998" height="25.99997003999988" class="text">List </text>
<text x="1057.00000232" y="1252.00000233" width="62.00002268000003" height="25.99997003999988" class="text">states </text>
<text x="1133.99998772" y="1252.00000233" width="36.999973599999976" height="25.99997003999988" class="text">and </text>
<text x="1187.00000116" y="1252.00000233" width="113.99995899999999" height="27.99992744999986" class="text">territories </text>
<text x="1316.00002824" y="1251.0000122400002" width="23.99995439999998" height="25.999970040000107" class="text">of </text>
<text x="1353.9999736" y="1251.0000122400002" width="33.00006899999994" height="25.999970040000107" class="text">the </text>
<text x="1402.00000532" y="1251.0000122400002" width="71.99998612000013" height="25.999970040000107" class="text">United </text>
<text x="1495.00003056" y="1251.0000122400002" width="65.99992728000007" height="26.999937360000104" class="text">States </text>
<text x="1573.99995948" y="1250.0000449200002" width="19.000078040000062" height="25.999970040000107" class="text">to </text>
<text x="1607.00002848" y="1250.0000449200002" width="67.00000439999985" height="25.999970040000107" class="text">which
</text>
<text x="1006.00003776" y="1284.99999408" width="88.99990991999982" height="26.99996013000009" class="text">material </text>
<text x="1100.0000523200001" y="1284.99999408" width="42.99992707999991" height="26.99996013000009" class="text">was </text>
<text x="1155.0000092799999" y="1284.99999408" width="125.99998888000005" height="26.99996013000009" class="text">transmitted</text>
<text x="1285.0000081199998" y="1284.99999408" width="8.000037480000174" height="26.99996013000009" class="text">:
</text>
<text x="325.9999952" y="1350.99997758" width="96.00001076000001" height="28.999917539999842" class="text">JETRO</text>
<text x="432.00000452" y="1350.99997758" width="7.999967240000046" height="28.999917539999842" class="text">-</text>
<text x="447.99999168" y="1350.99997758" width="58.00001271999997" height="28.999917539999842" class="text">San </text>
<text x="526.99999084" y="1350.99997758" width="185.0000084799999" height="28.999917539999842" class="text">Francisco
</text>
<text x="327.00000208" y="1390.00000095" width="57.999995160000026" height="33.99995906999993" class="text">360 </text>
<text x="407.99999744" y="1390.00000095" width="78.99998160000001" height="33.99995906999993" class="text">Post </text>
<text x="510.00001435999997" y="1390.00000095" width="62.999994439999966" height="33.99995906999993" class="text">St.</text>
<text x="577.99999052" y="1390.00000095" width="10.000033680000001" height="33.99995906999993" class="text">, </text>
<text x="616.9999778800001" y="1390.00000095" width="98.00000695999995" height="33.99995906999993" class="text">Suite </text>
<text x="737.99996748" y="1390.00000095" width="63.00004711999998" height="33.99995906999993" class="text">501
</text>
<text x="322.00002036" y="1422.9999927000001" width="57.99997760000002" height="31.000011570000197" class="text">San </text>
<text x="406.0000188" y="1422.9999927000001" width="182.00000539999996" height="31.000011570000197" class="text">Francisco</text>
<text x="597.00001588" y="1422.9999927000001" width="9.000009240000054" height="31.000011570000197" class="text">, </text>
<text x="631.99999328" y="1422.9999927000001" width="40.00001180000004" height="31.000011570000197" class="text">CA </text>
<text x="714.99998484" y="1418.99994126" width="103.00000623999995" height="27.999950220000073" class="text">94108
</text>
<text x="1106.99999512" y="1377.99993771" width="120.99998960000016" height="25.999970040000107" class="text">OREGON
</text>
<text x="114.999995732" y="1568.0000358000002" width="41.99999922000001" height="32.99999175000016" class="text">11. </text>
<text x="168.000000392" y="1568.0000358000002" width="62.99999092799996" height="32.99999175000016" class="text">Types </text>
<text x="244.00001052000002" y="1568.0000358000002" width="23.999989519999957" height="32.99999175000016" class="text">of </text>
<text x="277.99999859999997" y="1568.0000358000002" width="108.00000552" height="32.99999175000016" class="text">recipients </text>
<text x="399.99999507999996" y="1568.0000358000002" width="8.99999168000005" height="32.99999175000016" class="text">(</text>
<text x="407.99999744" y="1568.0000358000002" width="50.99999967999997" height="32.99999175000016" class="text">Give </text>
<text x="470.99999188" y="1568.0000358000002" width="87.00000152000001" height="32.99999175000016" class="text">number </text>
<text x="566.99998508" y="1568.0000358000002" width="24.000024639999992" height="32.99999175000016" class="text">of </text>
<text x="600.0000014" y="1568.0000358000002" width="157.99998075999997" height="32.99999175000016" class="text">organizations
</text>
<text x="165.00000433600002" y="1600.00003746" width="17.99999038399997" height="31.00003433999973" class="text">in </text>
<text x="194.99998948" y="1602.9999849600001" width="55.00000964" height="32.99999175000016" class="text">each </text>
<text x="261.00000456" y="1603.9999750499999" width="64.99999064000002" height="32.00002442999994" class="text">group</text>
<text x="328.99999828" y="1603.9999750499999" width="10.000016119999998" height="29.999907630000052" class="text">)
</text>
<text x="952.00005256" y="1566.00005562" width="42.999927080000134" height="34.00011846000007" class="text">12. </text>
<text x="998.00001784" y="1566.00005562" width="49.99999279999997" height="34.00011846000007" class="text">List </text>
<text x="1058.9999634" y="1566.00005562" width="77.00007319999986" height="34.00011846000007" class="text">names </text>
<text x="1151.99998864" y="1566.00005562" width="39.00002247999987" height="34.00011846000007" class="text">and </text>
<text x="1209.00001204" y="1566.00005562" width="113.99995899999999" height="34.00011846000007" class="text">addresses </text>
<text x="1339.00001088" y="1566.00005562" width="24.999943720000147" height="34.00011846000007" class="text">of </text>
<text x="1379.00002268" y="1566.00005562" width="91.99993055999994" height="34.00011846000007" class="text">persons </text>
<text x="1485.00004956" y="1566.00005562" width="24.99994371999992" height="34.00011846000007" class="text">or </text>
<text x="1530.0000430799998" y="1566.00005562" width="149.99996084000009" height="34.00011846000007" class="text">organizations
</text>
<text x="999.00000716" y="1600.00003746" width="102.99998867999989" height="32.000001659999725" class="text">receiving </text>
<text x="1118.00003568" y="1600.00003746" width="36.99997359999975" height="32.000001659999725" class="text">100 </text>
<text x="1164.99999028" y="1600.00003746" width="71.00001436000002" height="32.000001659999725" class="text">copies </text>
<text x="1246.9999574" y="1600.00003746" width="29.00005903999977" height="32.000001659999725" class="text">or </text>
<text x="1289.00001808" y="1600.00003746" width="53.000031000000035" height="32.000001659999725" class="text">more</text>
<text x="1344.99998192" y="1600.00003746" width="8.999991679999994" height="32.000001659999725" class="text">:
</text>
<text x="114.999995732" y="1667.99997837" width="104.000000828" height="26.99996013000009" class="text">Libraries
</text>
<text x="117.000000712" y="1700.9999701200002" width="67.99999020799999" height="26.99996013000009" class="text">Public </text>
<text x="198.99999943999998" y="1700.9999701200002" width="90.99999392000004" height="26.99996013000009" class="text">officials</text>
<text x="292.00000712" y="1700.9999701200002" width="8.000002359999996" height="26.99996013000009" class="text">.
</text>
<text x="114.999995732" y="1741.99997367" width="138.00000646799998" height="32.00000165999995" class="text">Newspapers</text>
<text x="257.99998392000003" y="1740.9999835800002" width="9.00000923999994" height="30.0000442500002" class="text">.
</text>
<text x="114.999995732" y="1767.99994371" width="59.000007307999994" height="22.999885919999997" class="text">Press </text>
<text x="189.00000088000002" y="1767.99994371" width="93.00000767999995" height="24.0000126299999" class="text">services </text>
<text x="289.99999336" y="1766.99995362" width="26.000003279999987" height="23.000022539999918" class="text">of
</text>
<text x="141.000002524" y="1802.00006217" width="136.99999607599997" height="26.000106660000256" class="text">associations
</text>
<text x="115.999997344" y="1838.99999151" width="135.99999797600003" height="28.999940310000056" class="text">Educational
</text>
<text x="141.000002524" y="1870.99999317" width="125.99999063599998" height="25.99997003999988" class="text">institutions
</text>
<text x="119.00000569199999" y="1904.99997501" width="59.999996628000005" height="25.00000272000011" class="text">Civic </text>
<text x="213.99999728" y="1911.9999739500001" width="80.00002360000002" height="26.999937360000104" class="text">groups
</text>
<text x="119.00000569199999" y="1944.9999656999998" width="64.99999590800003" height="34.999949159999915" class="text">Other </text>
<text x="197.00000323999998" y="1943.9999983799999" width="8.999991680000022" height="32.99999174999971" class="text">(</text>
<text x="207.0000018" y="1945.99995579" width="72.99999299999996" height="34.999949159999915" class="text">specify</text>
<text x="285.99998339999996" y="1944.9999656999998" width="9.000009240000054" height="32.99999174999971" class="text">)
</text>
<text x="1065.00002224" y="1696.00006521" width="46.99995460000014" height="47.00003517000005" class="text">91 </text>
<text x="1082.0000513999998" y="1773.99997533" width="48.999898120000125" height="52.9999301700002" class="text">APR </text>
<text x="1096.00004236" y="1829.0000223" width="47.99992636000002" height="49.99998267000001" class="text">-9 </text>
<text x="1111.99997684" y="1895.9999731199998" width="48.000031719999924" height="47.00001239999983" class="text">A11</text>
<text x="1124.00000672" y="1917.00003825" width="40.99998355999992" height="20.000075039999956" class="text">:</text>
<text x="1127.00004492" y="1948.00007259" width="44.99999352000009" height="38.00005605000001" class="text">20
</text>
<text x="1213.000022" y="1869.00001299" width="8.999991679999994" height="31.00001156999997" class="text">N</text>
<text x="1237.99996572" y="1869.00001299" width="8.999991679999994" height="31.00001156999997" class="text">/</text>
<text x="1257.00004376" y="1868.0000456700002" width="8.999991679999994" height="31.000034340000184" class="text">A
</text>
<text x="368.99999252" y="1934.00002917" width="141.99999360000004" height="44.00008766999986" class="text">College
</text>
<text x="1563.00000672" y="2121.0000203699997" width="41.9999553199998" height="16.999990919999618" class="text">FORM </text>
<text x="1616.00002016" y="2121.0000203699997" width="32.999963639999805" height="16.999990919999618" class="text">CRM</text>
<text x="1654.9999548399999" y="2121.0000203699997" width="5.0000870799999575" height="16.999990919999618" class="text">-</text>
<text x="1660.0000419199998" y="2121.0000203699997" width="19.999962000000096" height="16.999990919999618" class="text">159
</text>
<text x="1627.99996224" y="2144.00004291" width="28.00006971999983" height="16.000000829999863" class="text">SEP</text>
<text x="1657.00000372" y="2143.00007559" width="4.000009959999943" height="15.000033509999867" class="text">. </text>
<text x="1667.99995648" y="2143.00007559" width="13.999990960000105" height="16.000023600000077" class="text">89
</text>
</g>
<g id="page-1" transform="translate(0, 2297)">
<rect width="1756" height="2277" fill="none" stroke="black" />
<text x="114.000004656" y="144.00000519300002" width="40.99999760799999" height="34.00000916400002" class="text">13. </text>
<text x="164.00000096800002" y="143.000005995" width="18.000004431999997" height="32.000008491" class="text">If </text>
<text x="188.00001156" y="143.000005995" width="35.99998428000001" height="32.000008491" class="text">the </text>
<text x="240.99998988000002" y="145.000006668" width="92.00000079999998" height="34.00000916399999" class="text">material </text>
<text x="340.00000372" y="148.000006539" width="123.00000336" height="35.00000836199999" class="text">transmitted </text>
<text x="476.99999804" y="148.000006539" width="44.99999352000003" height="33.000007688999986" class="text">was </text>
<text x="533.99998632" y="148.000006539" width="8.999991679999994" height="32.00000849099999" class="text">a </text>
<text x="557.00002164" y="149.000008014" width="42.999979759999974" height="33.00000996599999" class="text">film </text>
<text x="611.99999616" y="149.000008014" width="28.999988799999983" height="32.00001076800001" class="text">or </text>
<text x="649.00000488" y="151.00000868700002" width="56.999988280000025" height="34.00001144100003" class="text">radio </text>
<text x="718.00002304" y="150.000007212" width="29.000006360000043" height="32.00000849100002" class="text">or </text>
<text x="756.00002108" y="152.000007885" width="104.99994976000005" height="34.000009164000005" class="text">television </text>
<text x="877.00002824" y="153.00000936" width="63.99996620000002" height="34.00001144100001" class="text">script</text>
<text x="940.99999444" y="153.00000936" width="8.999991679999994" height="32.00001076800001" class="text">, </text>
<text x="961.00004424" y="153.99999261899998" width="74.99991895999995" height="32.999994026999985" class="text">furnish </text>
<text x="1051.00003128" y="153.99999261899998" width="33.99995295999997" height="31.99999255199998" class="text">the </text>
<text x="1097.00001412" y="155.999991015" width="103.00000623999995" height="33.999990948000004" class="text">following </text>
<text x="1218.00000372" y="158.999993163" width="125.99998888000005" height="34.99999242300001" class="text">information</text>
<text x="1349.9999636399998" y="157.999991688" width="8.999991680000221" height="31.999990275000002" class="text">:
</text>
<text x="109.999994696" y="211.00000838399998" width="69.00000762399999" height="31.000009292999977" class="text">Name </text>
<text x="185.99999780000002" y="212.000007582" width="27.999999479999985" height="31.000009292999977" class="text">of </text>
<text x="220.99999276" y="213.00000678" width="73.99999988000002" height="32.00000849099999" class="text">station</text>
<text x="299.00000259999996" y="213.00000678" width="8.99999168000005" height="30.000007818" class="text">, </text>
<text x="314.99998976" y="215.999990712" width="142.00001116000004" height="32.99999174999999" class="text">organization</text>
<text x="457.99997268" y="215.000007453" width="9.000061920000064" height="30.000007817999972" class="text">, </text>
<text x="476.99999804" y="215.999990712" width="27.999981919999982" height="29.999989602" class="text">or </text>
<text x="512.9999998799999" y="216.999992187" width="78.00000984000008" height="30.999991077000004" class="text">theater </text>
<text x="600.0000014" y="218.99999286000002" width="60.00000892000003" height="31.99999255200001" class="text">using
</text>
<text x="111.999999676" y="243.00000548999998" width="7.999997091999987" height="28.999997234999995" class="text">(</text>
<text x="119.99999676799999" y="245.00000844" width="100.99999599200001" height="31.000000185000005" class="text">including </text>
<text x="238.00000436" y="245.00000844" width="37.00000872000004" height="29.00001772799999" class="text">city </text>
<text x="289.99999336" y="245.00000844" width="38.00001559999998" height="29.00001772799999" class="text">and </text>
<text x="343.99999612" y="247.00001139" width="47.000007280000034" height="30.000019202999994" class="text">state</text>
<text x="396.00000267999997" y="245.99999853" width="8.000002360000053" height="29.000006342999995" class="text">)
</text>
<text x="943.00004332" y="215.999990712" width="52.999925640000015" height="24.999989057999983" class="text">Date </text>
<text x="1007.99999884" y="216.999992187" width="26.99999260000004" height="24.999989057999983" class="text">or </text>
<text x="1043.00001136" y="217.99999138500002" width="58.999984479999966" height="25.999988255999995" class="text">dates </text>
<text x="1110.00001576" y="218.99999286000002" width="112.99998724000011" height="26.999989731" class="text">broadcast </text>
<text x="1231.00002292" y="219.999992058" width="73.99994719999995" height="26.999989731" class="text">shown
</text>
<text x="1406.0000152799998" y="222.999994206" width="107.99998796000023" height="28.99999268099998" class="text">Estimated </text>
<text x="1530.0000430799998" y="224.999994879" width="118.99994072000004" height="28.999992681000037" class="text">attendance
</text>
<text x="1454.000047" y="257.99999346" width="7.999914559999979" height="27.999995759999962" class="text">(</text>
<text x="1464.9999997599998" y="259.99999641" width="32.99996364000026" height="29.99999870999997" class="text">for </text>
<text x="1509.99999328" y="259.99999641" width="40.999983560000146" height="29.000008620000017" class="text">film</text>
<text x="1558.000025" y="259.99999641" width="8.000019919999886" height="27.99999575999999" class="text">(</text>
<text x="1566.00004492" y="259.99999641" width="7.999914559999979" height="27.99999575999999" class="text">s</text>
<text x="1576.99999768" y="259.99999641" width="8.000019919999886" height="27.99999575999999" class="text">)</text>
<text x="1589.00002756" y="261.00000927" width="8.000019919999886" height="28.000018530000034" class="text">)
</text>
<text x="101.999997604" y="380.00001402000004" width="202.99999359599997" height="40.00001346000005" class="text">University </text>
<text x="328.99999828" y="380.99998134000003" width="39.99999423999998" height="36.99999765000001" class="text">of </text>
<text x="387.99998276" y="382.99998429" width="124.00004536" height="37.99996496999995" class="text">Oregon</text>
<text x="519.00000604" y="382.99998429" width="11.000005439999995" height="34.9999947" class="text">, </text>
<text x="559.00001784" y="386.0000001" width="117.99996895999993" height="38.00001051000004" class="text">Eugene</text>
<text x="683.0000105199999" y="386.0000001" width="11.000005440000109" height="34.99999470000006" class="text">, </text>
<text x="718.00002304" y="388.00000305000003" width="38.99996980000003" height="36.00000756000003" class="text">OR
</text>
<text x="1012.99998056" y="386.0000001" width="119.00004607999995" height="34.99999470000006" class="text">3/8/91
</text>
<text x="1506.99995508" y="388.99999314" width="34.00004075999982" height="27.000005670000007" class="text">30
</text>
<text x="108.000002008" y="485.99998820999997" width="47.00000025599999" height="32.00000165999995" class="text">14. </text>
<text x="157.99999832" y="485.99998820999997" width="54.99999208" height="32.00000165999995" class="text">Have </text>
<text x="228.0000058" y="485.99998820999997" width="37.99999803999998" height="29.999998709999943" class="text">two </text>
<text x="275.99998484" y="487.00002384" width="75.00000676000002" height="31.000034339999957" class="text">copies </text>
<text x="361.99999704" y="487.00002384" width="22.00001087999999" height="30.000021479999987" class="text">of </text>
<text x="392.9999996" y="487.99999116" width="41.00001867999998" height="29.999998709999943" class="text">this </text>
<text x="448.99998100000005" y="489.99999411" width="90.0000397199999" height="32.00000165999995" class="text">material </text>
<text x="549.00000172" y="491.00000697" width="50.99999967999997" height="32.00000166000001" class="text">been </text>
<text x="615.0000167999999" y="491.99999706" width="47.999979040000085" height="32.00000165999995" class="text">filed </text>
<text x="672.9999768399999" y="491.99999706" width="49.00000348000003" height="30.999988799999983" class="text">with </text>
<text x="737.99996748" y="491.99999706" width="34.000058319999994" height="29.99999871" class="text">the </text>
<text x="781.00001748" y="494.99999010000005" width="140.00003252" height="32.99999175000005" class="text">Department </text>
<text x="932.00000276" y="494.00000001" width="21.99999331999993" height="29.99999871" class="text">of </text>
<text x="966.0000435200001" y="496.00000295999996" width="71.99998612000002" height="32.00000165999995" class="text">Justice</text>
<text x="1039.9999907200001" y="494.99999010000005" width="8.999991679999994" height="29.99997594000007" class="text">?
</text>
<text x="1088.9999942" y="494.99999010000005" width="38.00005071999999" height="34.9999947" class="text">Yes </text>
<text x="1139.9999412" y="494.00000001" width="9.000009240000054" height="32.99999174999999" class="text">☐ </text>
<text x="1195.00002108" y="492.99998715000004" width="36.9999736000002" height="32.99999174999999" class="text">No </text>
<text x="1239.00004284" y="492.99998715000004" width="8.999991679999994" height="32.99999174999999" class="text">✗
</text>
<text x="106.99999864" y="553.00000734" width="43.000002588" height="32.00002443000005" class="text">15. </text>
<text x="165.00000433600002" y="553.00000734" width="46.999996743999986" height="30.999988799999983" class="text">Has </text>
<text x="223.99999584" y="553.00000734" width="36.00000184000004" height="30.000021479999987" class="text">this </text>
<text x="281.00000168" y="555.00001029" width="89.99998703999995" height="32.00002442999994" class="text">material </text>
<text x="377.00001244000003" y="555.99997761" width="54.99999207999997" height="31.999978889999966" class="text">been </text>
<text x="443.00000996" y="556.9999904700001" width="81.99996712000001" height="32.000001660000066" class="text">labeled </text>
<text x="537.99999628" y="556.9999904700001" width="22.00001087999999" height="29.999998710000114" class="text">as </text>
<text x="570.99999504" y="558.99999342" width="94.99998631999995" height="32.000001660000066" class="text">required </text>
<text x="679.00000056" y="558.99999342" width="21.999993320000044" height="29.99999871" class="text">by </text>
<text x="716.00000928" y="558.99999342" width="34.00000564000004" height="29.99999871" class="text">the </text>
<text x="757.99998216" y="559.99998351" width="35.00001252000004" height="29.999975940000013" class="text">act</text>
<text x="795.9999802" y="559.99998351" width="8.999991679999994" height="29.999975940000013" class="text">?
</text>
<text x="846.0000081200001" y="555.99997761" width="31.999991879999925" height="29.999975940000013" class="text">Yes </text>
<text x="908.0000308000001" y="555.00001029" width="8.999991679999766" height="28.000018530000034" class="text">☑ </text>
<text x="950.99997544" y="557.9999805599999" width="38.000050720000104" height="29.9999759399999" class="text">No
</text>
<text x="103.000000972" y="621.0000165600001" width="53.00000465999999" height="32.000001660000066" class="text">Date </text>
<text x="169.000002004" y="622.00000665" width="26.999994355999974" height="28.99998585000003" class="text">of </text>
<text x="202.00000252" y="626.99997987" width="73.00001056000002" height="32.999991749999936" class="text">report
</text>
<text x="1042.0000396" y="633.00001149" width="106.99991083999998" height="32.00000165999995" class="text">Signature
</text>
<text x="394.00000647999997" y="621.0000165600001" width="67.00000440000002" height="27.00002844000005" class="text">Name </text>
<text x="475.0000018399999" y="619.99995816" width="38.99996980000009" height="24.99997995000001" class="text">and </text>
<text x="526.99999084" y="621.0000165600001" width="39.000022479999984" height="24.99997995000001" class="text">title
</text>
<text x="492.00001344000003" y="669.0000418200001" width="60.99999823999991" height="37.00006596000014" class="text">Mr. </text>
<text x="577.99999052" y="674.00001504" width="181.00001608000002" height="40.00001345999999" class="text">Shigefumi </text>
<text x="783.00001368" y="675.99997245" width="77.99995716000001" height="37.99996496999995" class="text">Iino</text>
<text x="866.99999456" y="675.00000513" width="11.000005439999995" height="35.000040239999976" class="text">,
</text>
<text x="490.999989" y="706.0000167" width="120.00001783999994" height="35.000017469999875" class="text">Deputy </text>
<text x="636.00000324" y="706.0000167" width="163.99998691999997" height="34.000027380000006" class="text">Director </text>
<text x="821.00002928" y="707.99999688" width="143.99991955999997" height="34.99997193000013" class="text">General
</text>
<text x="1317.0" y="712.00000278" width="188.99998331999996" height="111.99998303999996" class="text">Sun
</text>
<text x="143.99999858" y="696.99996927" width="124.99999077999996" height="37.99996496999995" class="text">4/1/91
</text>
</g>
</svg>
