<svg xmlns="http://www.w3.org/2000/svg">
<style>.text { font-size: 14px; font-family: Arial, sans-serif; }</style>
<g id="page-0" transform="translate(0, 0)">
<rect width="1756" height="2277" fill="none" stroke="black" />
<text x="882.0000099599999" y="140.999996214" width="165.00001136000014" height="34.999992422999995" class="text">Dissemination </text>
<text x="1060.00004052" y="143.000005995" width="77.9999571599999" height="33.00000996600001" class="text">Report
</text>
<text x="96.000000224" y="137.00000397600002" width="54.000001004" height="31.00000018500002" class="text">U.S. </text>
<text x="157.99999832" y="137.00000397600002" width="149.99999596" height="31.00000018500002" class="text">Department </text>
<text x="317.99999284" y="137.00000397600002" width="22.00001087999999" height="31.00000018500002" class="text">of </text>
<text x="351.99999848" y="137.00000397600002" width="81.00001292000002" height="31.00000018500002" class="text">Justice
</text>
<text x="97.999999936" y="178.999997616" width="130.99999518399997" height="30.999991077000004" class="text">Washington</text>
<text x="230.99999131999996" y="177.99999841800002" width="8.000002360000053" height="28.999990404000016" class="text">, </text>
<text x="247.99998535999998" y="176.999996943" width="42.00000800000004" height="28.999990404000016" class="text">DC </text>
<text x="304.99999119999995" y="176.999996943" width="67.00000440000008" height="30.999991077000004" class="text">20530
</text>
<text x="1518.0000132" y="126.00000141299999" width="42.99994463999997" height="16.00000538399999" class="text">OMB </text>
<text x="1564.9999678" y="126.00000141299999" width="26.99999260000004" height="16.00000538399999" class="text">No. </text>
<text x="1602.00004676" y="127.000000611" width="65.99990972" height="17.000004582000003" class="text">1105-0006
</text>
<text x="1436.00004608" y="152.000007885" width="63.99996620000002" height="19.00000525499999" class="text">Approval </text>
<text x="1506.99995508" y="152.000007885" width="52.00004167999987" height="19.00000525499999" class="text">Expires </text>
<text x="1564.9999678" y="151.00000868700002" width="39.0000224800001" height="19.00000525500002" class="text">Nov. </text>
<text x="1608.0000002400002" y="151.00000868700002" width="14.999962719999985" height="19.00000525500002" class="text">30</text>
<text x="1626.00000116" y="151.00000868700002" width="4.999981720000051" height="19.00000525500002" class="text">, </text>
<text x="1639.00002036" y="151.00000868700002" width="31.000002559999984" height="19.00000525500002" class="text">1993
</text>
<text x="96.999996568" y="278.99999027999996" width="164.00000799199998" height="27.999995759999962" class="text">INSTRUCTIONS</text>
<text x="261.99999388000003" y="278.00000019000004" width="6.999995479999939" height="25.999992810000037" class="text">: </text>
<text x="275.00001308000003" y="278.00000019000004" width="62.999994439999966" height="25.999992810000037" class="text">Report </text>
<text x="348.00000608" y="278.00000019000004" width="39.99997668000003" height="25.999992810000037" class="text">must </text>
<text x="396.00000267999997" y="278.00000019000004" width="19.00000779999999" height="25.999992810000037" class="text">be </text>
<text x="424.99999148" y="278.99999027999996" width="85.99999464000001" height="26.999982899999964" class="text">submitted </text>
<text x="519.00000604" y="278.99999027999996" width="13.999990959999991" height="25.999992809999952" class="text">in </text>
<text x="544.00000244" y="278.99999027999996" width="78.99998159999996" height="25.999992809999952" class="text">duplicate </text>
<text x="633.00001772" y="278.99999027999996" width="14.999962719999985" height="25.999992809999952" class="text">to </text>
<text x="656.99998968" y="280.00000314" width="30.00003079999999" height="25.99999281000001" class="text">the </text>
<text x="694.00001596" y="280.00000314" width="105.99997419999988" height="25.99999281000001" class="text">Registration </text>
<text x="810.0000238399999" y="280.00000314" width="43.99996908000014" height="25.99999281000001" class="text">Unit</text>
<text x="851.99997916" y="280.00000314" width="7.000048160000119" height="25.99999281000001" class="text">, </text>
<text x="864.00000904" y="280.99999323" width="72.00000367999996" height="26.999982899999992" class="text">Internal </text>
<text x="943.00004332" y="280.99999323" width="73.99994719999995" height="25.99999280999998" class="text">Security </text>
<text x="1026.99997152" y="280.99999323" width="66.0000326400002" height="25.99999280999998" class="text">Section</text>
<text x="1096.00004236" y="280.99999323" width="6.999925240000039" height="25.99999280999998" class="text">, </text>
<text x="1110.00001576" y="281.99998332" width="81.99996712000006" height="25.999970039999994" class="text">Criminal </text>
<text x="1196.99998216" y="281.99998332" width="78.00006252000003" height="25.999970039999994" class="text">Division</text>
<text x="1277.9999775200001" y="281.99998332" width="7.000030599999718" height="25.999970039999994" class="text">, </text>
<text x="1290.99997916" y="282.99999618" width="111.99999791999994" height="26.999982899999964" class="text">Department </text>
<text x="1406.99998704" y="282.99999618" width="18.999972679999928" height="25.99999280999998" class="text">of </text>
<text x="1433.99997964" y="282.99999618" width="60.00007916000004" height="25.99999280999998" class="text">Justice</text>
<text x="1494.0000588" y="282.99999618" width="6.999925240000039" height="25.99999280999998" class="text">, </text>
<text x="1509.00002152" y="283.99998627" width="102.00001692000001" height="26.99998290000002" class="text">Washington</text>
<text x="1616.00002016" y="283.99998627" width="6.999942800000099" height="25.999992810000037" class="text">, </text>
<text x="1630.00001112" y="283.99998627" width="41.999955320000026" height="25.999992810000037" class="text">D.C.
</text>
<text x="99.000003304" y="304.00001577" width="63.999996052000014" height="25.00002549000004" class="text">20530. </text>
<text x="168.000000392" y="304.00001577" width="32.00000592800001" height="25.00002549000004" class="text">The </text>
<text x="207.99999112" y="305.00000586" width="75.00002431999997" height="26.000015580000024" class="text">original </text>
<text x="289.99999336" y="305.00000586" width="41.999990439999976" height="25.000002719999998" class="text">must </text>
<text x="338.00000752" y="305.00000586" width="22.999982639999985" height="25.000002719999998" class="text">be </text>
<text x="367.00001388" y="305.00000586" width="55.99999896000003" height="25.000002719999998" class="text">signed </text>
<text x="434.00001828" y="305.00000586" width="18.99997268000004" height="25.000002719999998" class="text">by </text>
<text x="461.00001088" y="305.00000586" width="22.999982639999985" height="25.000002719999998" class="text">or </text>
<text x="488.00000348" y="306.00001872" width="22.99998264000004" height="25.00002549000004" class="text">on </text>
<text x="519.00000604" y="306.00001872" width="58.00001271999997" height="25.00002549000004" class="text">behalf </text>
<text x="580.99997604" y="306.00001872" width="23.000035320000052" height="25.00002549000004" class="text">of </text>
<text x="607.99996864" y="306.00001872" width="25.00004907999994" height="25.00002549000004" class="text">the </text>
<text x="642.00002696" y="306.00001872" width="87.99997327999995" height="25.00002549000004" class="text">registrant</text>
<text x="730.00000024" y="306.00001872" width="6.999995480000052" height="25.00002549000004" class="text">. </text>
<text x="746.00000496" y="307.00000881" width="28.000017040000102" height="25.000025489999985" class="text">All </text>
<text x="781.00001748" y="307.00000881" width="47.999979040000085" height="25.000025489999985" class="text">items </text>
<text x="835.00000268" y="307.00000881" width="13.999990960000105" height="25.000025489999985" class="text">in </text>
<text x="859.99999908" y="307.00000881" width="31.99999188000004" height="25.000025489999985" class="text">this </text>
<text x="900.0000108799999" y="307.00000881" width="40.999983560000146" height="25.000025489999985" class="text">form </text>
<text x="955.99995716" y="307.00000881" width="41.00008891999994" height="25.000025489999985" class="text">must </text>
<text x="1000.99995068" y="307.99997613" width="23.000088000000005" height="24.99997995000001" class="text">be </text>
<text x="1031.99995324" y="307.99997613" width="80.99999536000018" height="24.99997995000001" class="text">answered</text>
<text x="1118.00003568" y="307.99997613" width="6.999942799999872" height="24.99997995000001" class="text">, </text>
<text x="1128.00001668" y="307.99997613" width="59.999956240000074" height="24.99997995000001" class="text">unless </text>
<text x="1195.00002108" y="307.99997613" width="24.99994371999992" height="24.99997995000001" class="text">the </text>
<text x="1228.99995648" y="308.99998899" width="64.00008911999998" height="25.999992810000037" class="text">answer </text>
<text x="1299.9999708399998" y="308.99998899" width="13.999990960000105" height="25.000002719999998" class="text">is </text>
<text x="1322.99997104" y="308.99998899" width="7.0000305999999455" height="25.000002719999998" class="text">"</text>
<text x="1333.00003984" y="308.99998899" width="44.99999352000009" height="25.000002719999998" class="text">none</text>
<text x="1379.99999444" y="308.99998899" width="7.000048160000006" height="25.000002719999998" class="text">" </text>
<text x="1398.99996712" y="308.99998899" width="19.000078040000062" height="25.000002719999998" class="text">or </text>
<text x="1424.99998796" y="308.99998899" width="7.000048160000006" height="25.000002719999998" class="text">"</text>
<text x="1437.00001784" y="308.99998899" width="31.000020120000045" height="25.000002719999998" class="text">not </text>
<text x="1473.99999144" y="309.99997908" width="89.99998703999995" height="25.99999280999998" class="text">applicable</text>
<text x="1567.9999884400002" y="309.99997908" width="7.000048159999778" height="24.99997995000001" class="text">,</text>
<text x="1572.99998772" y="309.99997908" width="7.000048159999778" height="24.99997995000001" class="text">" </text>
<text x="1589.99999932" y="309.99997908" width="13.999990960000105" height="24.99997995000001" class="text">in </text>
<text x="1611.00003844" y="309.99997908" width="56.99991804000001" height="24.99997995000001" class="text">which
</text>
<text x="97.999999936" y="339.00001047" width="36.99999818399999" height="32.00000166000001" class="text">case </text>
<text x="147.999996248" y="339.00001047" width="34.99999847199999" height="32.00000166000001" class="text">such </text>
<text x="193.00001084" y="339.00001047" width="23.000000200000017" height="32.00000166000001" class="text">an </text>
<text x="226.0000096" y="339.00001047" width="43.999986639999975" height="32.00000166000001" class="text">entry </text>
<text x="279.99999479999997" y="339.00001047" width="47.000007280000034" height="32.00000166000001" class="text">shall </text>
<text x="330.00000516" y="339.00001047" width="23.999989519999986" height="32.00000166000001" class="text">be </text>
<text x="365.00000012" y="339.00001047" width="47.000007280000034" height="32.00000166000001" class="text">made </text>
<text x="417.999996" y="339.00001047" width="16.99999403999999" height="32.00000166000001" class="text">in </text>
<text x="443.00000996" y="339.00001047" width="27.999981919999982" height="32.00000166000001" class="text">the </text>
<text x="481.99999732000003" y="339.00001047" width="105.00000244" height="32.00000166000001" class="text">appropriate </text>
<text x="593.99999524" y="339.00001047" width="49.00000348000003" height="32.00000166000001" class="text">space</text>
<text x="644.99999492" y="339.00001047" width="9.000009240000054" height="32.00000166000001" class="text">. </text>
<text x="662.99999584" y="339.00001047" width="11.000005439999995" height="32.00000166000001" class="text">If </text>
<text x="681.9999685199999" y="339.00001047" width="98.00002452000001" height="32.00000166000001" class="text">additional </text>
<text x="781.99998924" y="339.00001047" width="49.99999279999997" height="32.00000166000001" class="text">space </text>
<text x="840.00000196" y="339.00001047" width="19.00002536000011" height="32.00000166000001" class="text">is </text>
<text x="864.99999836" y="339.00001047" width="62.99997688000019" height="32.00000166000001" class="text">needed </text>
<text x="940.0000226799999" y="339.00001047" width="27.999964360000035" height="32.00000166000001" class="text">for </text>
<text x="973.99995808" y="339.00001047" width="33.00006899999994" height="32.00000166000001" class="text">any </text>
<text x="1015.0000469999999" y="339.00001047" width="37.9999453600002" height="32.00000166000001" class="text">item</text>
<text x="1053.9999641200002" y="339.00001047" width="9.000009239999827" height="32.00000166000001" class="text">, </text>
<text x="1070.00002152" y="339.00001047" width="49.99997523999991" height="32.00000166000001" class="text">attach </text>
<text x="1130.99994952" y="339.00001047" width="124.0000278" height="32.00000166000001" class="text">supplemental </text>
<text x="1262.00002548" y="339.00001047" width="45.99998284000003" height="32.00000166000001" class="text">sheet </text>
<text x="1318.99996108" y="339.00001047" width="96.00004587999979" height="32.00000166000001" class="text">identifying </text>
<text x="1425.9999597199999" y="339.00001047" width="37.00007896000011" height="32.00000166000001" class="text">each </text>
<text x="1475.99995252" y="339.00001047" width="36.00008963999994" height="32.00000166000001" class="text">item</text>
<text x="1514.999975" y="339.00001047" width="9.000009240000054" height="32.00000166000001" class="text">.
</text>
<text x="96.000000224" y="390.00000600000004" width="66.99999913200001" height="26.000015580000024" class="text">Privacy </text>
<text x="170.999994692" y="390.99999609" width="33.000004028000006" height="27.000005670000007" class="text">Act </text>
<text x="208.999998" y="390.99999609" width="91.00001148000001" height="25.99997004000005" class="text">Statement</text>
<text x="300.99999879999996" y="390.99999609" width="6.999995480000052" height="25.99997004000005" class="text">. </text>
<text x="311.00001492" y="390.99999609" width="53.99998519999997" height="25.99997004000005" class="text">Every </text>
<text x="373.00000248" y="392.00000895000005" width="101.99999935999995" height="26.999982900000077" class="text">registration </text>
<text x="485.00001796" y="392.00000895000005" width="85.99997708000006" height="26.000015580000024" class="text">statement</text>
<text x="570.99999504" y="392.00000895000005" width="6.999995479999939" height="26.000015580000024" class="text">, </text>
<text x="584.00001424" y="392.99999904" width="45.99996527999997" height="27.00000566999995" class="text">short </text>
<text x="636.00000324" y="392.99999904" width="42.999997320000034" height="25.99999280999998" class="text">form </text>
<text x="687.99999224" y="392.99999904" width="98.99999628" height="25.99999280999998" class="text">registration </text>
<text x="797.0000046399999" y="394.0000119" width="88.00004351999996" height="27.000005670000007" class="text">statement</text>
<text x="886.00001992" y="394.0000119" width="6.999942799999985" height="26.000015579999967" class="text">, </text>
<text x="899.0000391200001" y="394.99997922" width="121.99996135999993" height="27.999972990000003" class="text">supplemental </text>
<text x="1021.9999897999999" y="394.99997922" width="89.99998704000018" height="26.999982899999964" class="text">statement</text>
<text x="1111.99997684" y="394.99997922" width="7.000048160000006" height="25.999970039999994" class="text">, </text>
<text x="1124.00000672" y="394.99997922" width="63.99996620000002" height="25.999970039999994" class="text">exhibit</text>
<text x="1187.00000116" y="394.99997922" width="7.000048160000006" height="25.999970039999994" class="text">, </text>
<text x="1200.00002036" y="396.99998217" width="108.9999597200001" height="27.999972990000003" class="text">amendment</text>
<text x="1308.9999800800001" y="396.00001485" width="7.000048159999778" height="26.000015579999967" class="text">, </text>
<text x="1321.00000996" y="396.99998217" width="122.99995067999998" height="27.999972990000003" class="text">dissemination </text>
<text x="1455.0000187599999" y="396.99998217" width="53.0000134400002" height="25.999992810000037" class="text">report</text>
<text x="1509.99999328" y="396.99998217" width="7.000048160000006" height="25.999992810000037" class="text">, </text>
<text x="1521.0000513999998" y="396.99998217" width="42.999927080000134" height="25.999992810000037" class="text">copy </text>
<text x="1573.99995948" y="396.99998217" width="19.000078040000062" height="25.999992810000037" class="text">of </text>
<text x="1595.99997036" y="398.0000178" width="76.99998540000024" height="27.00002844000005" class="text">political
</text>
<text x="96.000000224" y="418.99999185" width="106.000002296" height="26.999982899999964" class="text">propaganda </text>
<text x="208.999998" y="420.00000471" width="19.99999711999996" height="27.999995759999933" class="text">or </text>
<text x="238.00000436" y="420.00000471" width="45.00001107999998" height="27.000005670000007" class="text">other </text>
<text x="291.00000024" y="420.00000471" width="88.99999772000001" height="27.000005670000007" class="text">document </text>
<text x="387.99998276" y="420.00000471" width="20.000014679999992" height="27.000005670000007" class="text">or </text>
<text x="413.00001427999996" y="420.9999948" width="104.99996732" height="27.999995760000047" class="text">information </text>
<text x="530.00001148" y="420.9999948" width="36.999973599999976" height="26.99998290000002" class="text">filed </text>
<text x="575.00002256" y="420.9999948" width="38.99996980000003" height="26.99998290000002" class="text">with </text>
<text x="624.00002604" y="420.9999948" width="25.99996815999998" height="26.99998290000002" class="text">the </text>
<text x="660.00001032" y="422.00000766" width="76.99998540000001" height="27.99999575999999" class="text">Attorney </text>
<text x="745.00001564" y="422.00000766" width="76.00001364000002" height="27.000028439999994" class="text">General </text>
<text x="824.9999865599999" y="422.00000766" width="50.99999968000009" height="27.000028439999994" class="text">under </text>
<text x="882.99998172" y="422.00000766" width="34.00004075999982" height="27.000028439999994" class="text">this </text>
<text x="922.00002176" y="422.00000766" width="31.000002559999984" height="27.000028439999994" class="text">act </text>
<text x="958.99999536" y="422.99999775000003" width="9.999963439999988" height="26.99998290000002" class="text">is </text>
<text x="980.0000169199999" y="422.99999775000003" width="8.00003748000006" height="26.99998290000002" class="text">a </text>
<text x="994.9999796400001" y="422.99999775000003" width="57.000040959999865" height="26.99998290000002" class="text">public </text>
<text x="1061.00001228" y="422.99999775000003" width="55.99994628000013" height="26.99998290000002" class="text">record </text>
<text x="1127.00004492" y="422.99999775000003" width="41.999955320000254" height="26.99998290000002" class="text">open </text>
<text x="1177.00002016" y="422.99999775000003" width="14.999962719999985" height="26.99998290000002" class="text">to </text>
<text x="1200.00002036" y="424.00001061" width="57.00002339999992" height="27.99999575999999" class="text">public </text>
<text x="1264.99995832" y="424.00001061" width="109.00006508000024" height="27.000028439999994" class="text">examination</text>
<text x="1376.99995624" y="424.00001061" width="8.000019919999886" height="27.000028439999994" class="text">, </text>
<text x="1389.9999754399998" y="425.00000070000004" width="92.00003592000007" height="28.000018530000034" class="text">inspection </text>
<text x="1492.9999641200002" y="425.00000070000004" width="31.000020119999817" height="26.99998290000002" class="text">and </text>
<text x="1530.0000430799998" y="425.00000070000004" width="70.99990900000012" height="26.99998290000002" class="text">copying </text>
<text x="1611.00003844" y="425.00000070000004" width="56.99991804000001" height="26.99998290000002" class="text">during
</text>
<text x="96.999996568" y="445.00000743" width="26.00000854800001" height="26.000015579999967" class="text">the </text>
<text x="131.000000452" y="445.00000743" width="57.000011107999995" height="26.000015579999967" class="text">posted </text>
<text x="195.99999635999998" y="445.99999752" width="79.99998848000004" height="25.999992810000037" class="text">business </text>
<text x="282.00000855999997" y="445.99999752" width="50.99998212000003" height="25.999992810000037" class="text">hours </text>
<text x="342.99998924" y="445.99999752" width="19.00000779999999" height="25.999992810000037" class="text">of </text>
<text x="367.00001388" y="447.00001038" width="25.99998572000004" height="27.000005670000007" class="text">the </text>
<text x="401.00000196" y="447.99997770000004" width="112.99996967999999" height="27.99997299000006" class="text">Registration </text>
<text x="519.9999953600001" y="447.00001038" width="44.00002175999987" height="26.000015579999967" class="text">Unit </text>
<text x="569.9999706" y="447.00001038" width="14.000043640000058" height="26.000015579999967" class="text">in </text>
<text x="595.99999144" y="449.00001333" width="104.0000306799999" height="27.000005670000007" class="text">Washington</text>
<text x="703.0000076399999" y="447.99997770000004" width="6.999995480000052" height="25.99997004000005" class="text">, </text>
<text x="716.00000928" y="447.99997770000004" width="45.000011080000036" height="25.99997004000005" class="text">D.C. </text>
<text x="765.00003032" y="449.00001333" width="35.999984280000035" height="27.000005670000007" class="text">One </text>
<text x="810.9999956" y="449.00001333" width="42.00000799999998" height="26.000015579999967" class="text">copy </text>
<text x="862.9999846" y="449.00001333" width="19.000025359999995" height="26.000015579999967" class="text">of </text>
<text x="885.0000481599999" y="449.00001333" width="50.99996456000008" height="26.000015579999967" class="text">every </text>
<text x="946.9999654799999" y="449.99998065" width="35.999984280000035" height="26.999982899999964" class="text">such </text>
<text x="994.9999796400001" y="449.99998065" width="92.00005347999979" height="25.999970039999994" class="text">document </text>
<text x="1093.0000041600001" y="449.99998065" width="13.999990959999877" height="25.999970039999994" class="text">is </text>
<text x="1115.00001504" y="451.9999836" width="121.99997891999988" height="27.999972990000003" class="text">automatically </text>
<text x="1248.00003452" y="451.00001627999995" width="76.0000136399999" height="26.00001557999991" class="text">provided </text>
<text x="1334.0000291600002" y="451.00001627999995" width="14.999962719999985" height="26.00001557999991" class="text">to </text>
<text x="1357.9999835600001" y="451.9999836" width="30.000030799999877" height="26.999982899999964" class="text">the </text>
<text x="1396.00003428" y="451.9999836" width="83.99992820000011" height="25.999970039999994" class="text">Secretary </text>
<text x="1488.99995416" y="451.9999836" width="19.000078040000062" height="25.999970039999994" class="text">of </text>
<text x="1514.999975" y="451.9999836" width="42.00006068000016" height="25.999970039999994" class="text">State </text>
<text x="1563.99997848" y="452.99999646" width="81.99996712000006" height="25.999992809999924" class="text">pursuant </text>
<text x="1652.000022" y="452.99999646" width="13.999990960000105" height="25.999992809999924" class="text">to
</text>
<text x="97.999999936" y="473.00000319" width="64.99999942000002" height="27.00000566999995" class="text">Section </text>
<text x="170.999994692" y="473.00000319" width="8.000007627999992" height="27.00000566999995" class="text">6</text>
<text x="182.00000540000002" y="473.99999327999996" width="7.999984799999993" height="26.999982899999964" class="text">(</text>
<text x="189.9999902" y="473.99999327999996" width="8.00001992" height="26.999982899999964" class="text">b</text>
<text x="200.99999563999998" y="473.99999327999996" width="8.000002360000025" height="26.999982899999964" class="text">) </text>
<text x="213.99999728" y="473.99999327999996" width="19.00000780000002" height="26.999982899999964" class="text">of </text>
<text x="237.00001504" y="473.99999327999996" width="30.99998499999998" height="26.999982899999964" class="text">the </text>
<text x="272.00001" y="473.99999327999996" width="31.00000256000004" height="26.999982899999964" class="text">Act</text>
<text x="303.99998432" y="473.99999327999996" width="8.00001992" height="26.999982899999964" class="text">, </text>
<text x="317.00000352" y="473.99999327999996" width="29.99999568000004" height="26.999982899999964" class="text">and </text>
<text x="358.00000464" y="475.00000614" width="55.99999896000003" height="27.99999575999999" class="text">copies </text>
<text x="419.00000288" y="475.00000614" width="19.99999711999999" height="27.000028439999937" class="text">of </text>
<text x="443.99998172000005" y="475.00000614" width="37.00002627999993" height="27.000028439999937" class="text">such </text>
<text x="492.00001344000003" y="477.00000909" width="96.99998251999995" height="29.000031389999947" class="text">documents </text>
<text x="595.00001968" y="475.99999622999997" width="25.99996815999998" height="26.999982899999964" class="text">are </text>
<text x="631.00002152" y="475.99999622999997" width="79.99995335999995" height="26.999982899999964" class="text">routinely </text>
<text x="723.99999408" y="477.00000909" width="42.00000800000009" height="27.99999575999999" class="text">made </text>
<text x="772.99999756" y="477.00000909" width="78.00000983999996" height="27.000028439999994" class="text">available </text>
<text x="860.9999708400001" y="477.00000909" width="10.000033680000001" height="27.000028439999994" class="text">to </text>
<text x="883.99997104" y="477.99999918" width="46.00007063999999" height="28.000018529999977" class="text">other </text>
<text x="935.0000234" y="477.99999918" width="78.99994647999995" height="26.99998290000002" class="text">agencies</text>
<text x="1013.99996988" y="477.99999918" width="8.000019919999886" height="26.99998290000002" class="text">, </text>
<text x="1026.99997152" y="480.00000213" width="110.00005439999995" height="28.99998585000003" class="text">departments </text>
<text x="1142.9999794" y="479.00001204" width="30.000030800000104" height="27.000028439999994" class="text">and </text>
<text x="1185.00005764" y="479.00001204" width="82.99993887999995" height="27.000028439999994" class="text">Congress </text>
<text x="1275.00004468" y="480.00000213" width="78.99992892" height="28.000018529999977" class="text">pursuant </text>
<text x="1361.00002176" y="480.00000213" width="9.999980999999934" height="27.000005670000007" class="text">to </text>
<text x="1383.00003264" y="480.00000213" width="64.99993796000012" height="27.000005670000007" class="text">Section </text>
<text x="1456.99997984" y="480.00000213" width="8.000019919999886" height="27.000005670000007" class="text">6</text>
<text x="1466.99994328" y="481.00001499" width="8.000019919999886" height="27.000028439999994" class="text">(</text>
<text x="1475.99995252" y="481.00001499" width="8.000019919999886" height="27.000028439999994" class="text">c</text>
<text x="1486.00002132" y="481.00001499" width="8.000037479999946" height="27.000028439999994" class="text">) </text>
<text x="1500.00001228" y="481.00001499" width="14.999962719999985" height="27.000028439999994" class="text">of </text>
<text x="1522.00002316" y="481.00001499" width="26.00002084000016" height="27.000028439999994" class="text">the </text>
<text x="1557.00003568" y="481.00001499" width="30.99991475999991" height="27.000028439999994" class="text">Act</text>
<text x="1589.00002756" y="481.00001499" width="8.000019919999886" height="27.000028439999994" class="text">. </text>
<text x="1602.00004676" y="482.00000508" width="61.999899759999835" height="28.000018529999977" class="text">Finally</text>
<text x="1665.0000412" y="482.00000508" width="7.999914560000207" height="27.000005670000007" class="text">,
</text>
<text x="94.000002268" y="502.99997913" width="29.99999216799999" height="25.999970039999994" class="text">the </text>
<text x="132.00000382" y="502.99997913" width="76.99999418000002" height="25.999970039999994" class="text">Attorney </text>
<text x="217.00000036" y="503.99999199" width="76.00001363999996" height="26.99998290000002" class="text">General </text>
<text x="297.99999572" y="503.99999199" width="82.00000224000001" height="25.999992810000037" class="text">transmits </text>
<text x="387.99998276" y="503.99999199" width="19.00000779999999" height="25.999992810000037" class="text">an </text>
<text x="416.99998912" y="503.99999199" width="62.999994439999966" height="25.999992810000037" class="text">annual </text>
<text x="485.00001796" y="504.99998208" width="56.99998828000008" height="25.999970039999994" class="text">report </text>
<text x="548.0000124" y="504.99998208" width="13.999990960000105" height="25.999970039999994" class="text">to </text>
<text x="570.99999504" y="504.99998208" width="26.000020839999934" height="25.999970039999994" class="text">the </text>
<text x="607.99996864" y="504.99998208" width="81.00004804000002" height="25.999970039999994" class="text">Congress </text>
<text x="696.00001216" y="504.99998208" width="23.99997196000004" height="25.999970039999994" class="text">on </text>
<text x="727.00001472" y="505.99999494" width="29.999978120000037" height="26.99998290000002" class="text">the </text>
<text x="763.99998832" y="506.99998502999995" width="136.00002255999982" height="26.999982899999964" class="text">Administration </text>
<text x="908.0000308000001" y="505.99999494" width="18.999972679999928" height="25.999992810000037" class="text">of </text>
<text x="932.00000276" y="505.99999494" width="26.000003279999987" height="25.999992810000037" class="text">the </text>
<text x="968.9999588" y="505.99999494" width="30.00004836000005" height="25.999992810000037" class="text">Act </text>
<text x="1004.99996064" y="506.99998502999995" width="55.000079880000044" height="25.999970039999937" class="text">which </text>
<text x="1067.99995508" y="506.99998502999995" width="37.00007895999988" height="25.999970039999937" class="text">lists </text>
<text x="1111.99997684" y="506.99998502999995" width="26.000020839999934" height="25.999970039999937" class="text">the </text>
<text x="1146.99998936" y="506.99998502999995" width="58.000012720000086" height="25.999970039999937" class="text">names </text>
<text x="1212.00005024" y="506.99998502999995" width="18.999972679999928" height="25.999970039999937" class="text">of </text>
<text x="1239.00004284" y="506.99998502999995" width="21.999905519999857" height="25.999970039999937" class="text">all </text>
<text x="1267.0000247599999" y="507.99999789" width="57.000023400000146" height="25.99999280999998" class="text">agents </text>
<text x="1333.00003984" y="507.99999789" width="85.00000532000013" height="25.99999280999998" class="text">registered </text>
<text x="1427.0000544" y="507.99999789" width="53.99998520000008" height="25.99999280999998" class="text">under </text>
<text x="1488.99995416" y="507.99999789" width="26.000020839999934" height="25.99999280999998" class="text">the </text>
<text x="1522.00002316" y="508.99998797999996" width="33.99993540000014" height="26.999982899999964" class="text">Act</text>
<text x="1555.99995856" y="508.99998797999996" width="7.000048160000006" height="25.999970039999937" class="text">, </text>
<text x="1568.99997776" y="508.99998797999996" width="26.000020839999934" height="25.999970039999937" class="text">the </text>
<text x="1606.00005672" y="508.99998797999996" width="62.99999444000014" height="25.999970039999937" class="text">foreign
</text>
<text x="94.999998612" y="538.00001937" width="90.99999918800002" height="32.000024429999996" class="text">principals </text>
<text x="197.00000323999998" y="538.00001937" width="36.00000184000004" height="32.000024429999996" class="text">they </text>
<text x="244.99999984000002" y="538.00001937" width="83.99999843999998" height="32.000024429999996" class="text">represent</text>
<text x="328.99999828" y="538.00001937" width="9.000009239999997" height="32.000024429999996" class="text">, </text>
<text x="341.99998236" y="538.00001937" width="32.00002699999999" height="32.000024429999996" class="text">and </text>
<text x="386.00000411999997" y="538.00001937" width="27.000010159999988" height="32.000024429999996" class="text">the </text>
<text x="417.999996" y="538.00001937" width="56.00001652000003" height="32.000024429999996" class="text">nature</text>
<text x="479.99998356" y="538.00001937" width="8.99999168000005" height="32.000024429999996" class="text">, </text>
<text x="492.00001344000003" y="538.00001937" width="68.99996547999996" height="32.000024429999996" class="text">sources </text>
<text x="568.00002708" y="538.00001937" width="32.99996364000003" height="32.000024429999996" class="text">and </text>
<text x="609.9999823999999" y="538.00001937" width="71.00001436000014" height="32.000024429999996" class="text">content </text>
<text x="687.99999224" y="538.00001937" width="17.000011599999993" height="32.000024429999996" class="text">of </text>
<text x="714.00001308" y="538.00001937" width="27.99996435999992" height="32.000024429999996" class="text">the </text>
<text x="752.00001112" y="538.00001937" width="76.00001364000002" height="32.000024429999996" class="text">political </text>
<text x="835.00000268" y="538.00001937" width="101.9999818" height="32.000024429999996" class="text">propaganda </text>
<text x="945.9999761600001" y="538.00001937" width="119.00004607999983" height="32.000024429999996" class="text">disseminated </text>
<text x="1074.00003148" y="538.00001937" width="23.99995439999998" height="32.000024429999996" class="text">or </text>
<text x="1103.9999569200002" y="538.00001937" width="93.9999969999999" height="32.000024429999996" class="text">distributed </text>
<text x="1209.00001204" y="538.00001937" width="22.00001087999999" height="32.000024429999996" class="text">by </text>
<text x="1240.0000146" y="538.00001937" width="44.00002176000021" height="32.000024429999996" class="text">them</text>
<text x="1285.99999744" y="538.00001937" width="8.999991679999994" height="32.000024429999996" class="text">. </text>
<text x="1304.99997012" y="538.00001937" width="35.999984280000035" height="32.000024429999996" class="text">This </text>
<text x="1349.9999636399998" y="538.00001937" width="59.00008984000033" height="32.000024429999996" class="text">report </text>
<text x="1415.99999628" y="538.00001937" width="12.000029880000056" height="32.000024429999996" class="text">is </text>
<text x="1434.99996896" y="538.00001937" width="79.00003428000014" height="32.000024429999996" class="text">available </text>
<text x="1522.99999492" y="538.00001937" width="18.00000091999982" height="32.000024429999996" class="text">to </text>
<text x="1554.00001504" y="538.00001937" width="26.999992599999814" height="32.000024429999996" class="text">the </text>
<text x="1585.99998936" y="538.00001937" width="56.00005164000004" height="32.000024429999996" class="text">public</text>
<text x="1644.00000208" y="538.00001937" width="8.999991679999994" height="32.000024429999996" class="text">.
</text>
<text x="94.999998612" y="586.99996641" width="57.99999867199999" height="26.999982899999964" class="text">Public </text>
<text x="160.0000033" y="588.00002481" width="87.99998205999998" height="28.00004130000002" class="text">Reporting </text>
<text x="254.00000908" y="588.00002481" width="63.99998375999999" height="27.00002844000005" class="text">Burden</text>
<text x="321.00001348" y="588.00002481" width="7.999984799999993" height="27.00002844000005" class="text">. </text>
<text x="332.99999068" y="589.0000149" width="57.00000583999997" height="28.000018530000034" class="text">Public </text>
<text x="396.999992" y="589.0000149" width="80.00000603999996" height="27.00002844000005" class="text">reporting </text>
<text x="485.00001796" y="589.0000149" width="58.99998448000002" height="27.00002844000005" class="text">burden </text>
<text x="553.00001168" y="589.0000149" width="26.99999260000004" height="27.00002844000005" class="text">for </text>
<text x="586.0000279999999" y="589.99998222" width="30.999949880000145" height="26.999982899999964" class="text">this </text>
<text x="622.99998404" y="589.99998222" width="87.00001908000002" height="26.999982899999964" class="text">collection </text>
<text x="716.9999986" y="589.99998222" width="19.99999711999999" height="26.999982899999964" class="text">of </text>
<text x="739.99998124" y="592.00003071" width="105.00000244" height="29.000031390000004" class="text">information </text>
<text x="853.9999929200001" y="590.99997231" width="10.000016119999941" height="26.999982899999964" class="text">is </text>
<text x="875.00001448" y="590.99997231" width="80.99994268" height="26.999982899999964" class="text">estimated </text>
<text x="963.99997708" y="592.00003071" width="16.000039839999886" height="28.00004130000002" class="text">to </text>
<text x="988.0000544" y="592.00003071" width="63.99996620000002" height="27.00002844000005" class="text">average </text>
<text x="1057.9999740800001" y="592.00003071" width="15.000068079999892" height="27.00002844000005" class="text">.5 </text>
<text x="1080.9999742799998" y="592.00003071" width="53.0000134400002" height="27.00002844000005" class="text">hours </text>
<text x="1137.99999768" y="593.0000208" width="31.000002560000212" height="28.000018530000034" class="text">per </text>
<text x="1173.99999952" y="593.0000208" width="75.00002431999997" height="27.00002844000005" class="text">response</text>
<text x="1251.99995668" y="593.0000208" width="8.000019919999886" height="27.00002844000005" class="text">, </text>
<text x="1262.99999724" y="593.0000208" width="84.00003356000002" height="27.00002844000005" class="text">including </text>
<text x="1356.0000224799999" y="593.99998812" width="23.00000020000016" height="26.999982899999964" class="text">the </text>
<text x="1388.99998612" y="593.99998812" width="36.000001840000095" height="26.999982899999964" class="text">time </text>
<text x="1433.99997964" y="593.99998812" width="26.000020839999934" height="26.999982899999964" class="text">for </text>
<text x="1461.99996156" y="593.99998812" width="87.00005420000002" height="26.999982899999964" class="text">reviewing </text>
<text x="1558.000025" y="596.00003661" width="104.99994975999994" height="28.00004130000002" class="text">instructions</text>
<text x="1662.99997476" y="594.99997821" width="8.000019920000113" height="26.999982899999964" class="text">,
</text>
<text x="94.999998612" y="621.0000165600001" width="84.99999302799999" height="32.000001660000066" class="text">searching </text>
<text x="190.99999708" y="621.0000165600001" width="69.00000060000002" height="32.000001660000066" class="text">existing </text>
<text x="269.99999624" y="621.0000165600001" width="37.99999804000004" height="32.000001660000066" class="text">data </text>
<text x="314.99998976" y="621.0000165600001" width="69.00001815999997" height="32.000001660000066" class="text">sources</text>
<text x="386.00000411999997" y="621.0000165600001" width="9.000009240000054" height="32.000001660000066" class="text">, </text>
<text x="397.99998131999996" y="621.0000165600001" width="87.00003664000002" height="32.000001660000066" class="text">gathering </text>
<text x="494.99999896" y="621.0000165600001" width="31.999991879999982" height="32.000001660000066" class="text">and </text>
<text x="537.99999628" y="621.0000165600001" width="102.00001692000001" height="32.000001660000066" class="text">maintaining </text>
<text x="653.0000324" y="621.0000165600001" width="27.999964360000035" height="32.000001660000066" class="text">the </text>
<text x="685.99997848" y="621.0000165600001" width="37.00002628000004" height="32.000001660000066" class="text">data </text>
<text x="734.99999952" y="621.0000165600001" width="60.00000892000003" height="32.000001660000066" class="text">needed</text>
<text x="799.0000184" y="621.0000165600001" width="8.999991679999994" height="32.000001660000066" class="text">, </text>
<text x="815.00000556" y="621.0000165600001" width="27.999981919999982" height="32.000001660000066" class="text">and </text>
<text x="855.99998912" y="621.0000165600001" width="98.99999627999989" height="32.000001660000066" class="text">completing </text>
<text x="964.99994884" y="621.0000165600001" width="32.000097239999945" height="32.000001660000066" class="text">and </text>
<text x="1008.9999706" y="621.0000165600001" width="88.00004352000008" height="32.000001660000066" class="text">reviewing </text>
<text x="1102.9999676" y="621.0000165600001" width="27.999981919999982" height="32.000001660000066" class="text">the </text>
<text x="1141.0000358799998" y="621.0000165600001" width="85.99997708000024" height="32.000001660000066" class="text">collection </text>
<text x="1236.00000464" y="621.0000165600001" width="23.99997195999981" height="32.000001660000066" class="text">of </text>
<text x="1262.99999724" y="621.0000165600001" width="108.99997727999994" height="32.000001660000066" class="text">information</text>
<text x="1371.00000276" y="621.0000165600001" width="8.999991679999994" height="32.000001660000066" class="text">. </text>
<text x="1385.99996548" y="621.0000165600001" width="47.00004240000021" height="32.000001660000066" class="text">Send </text>
<text x="1442.00001712" y="621.0000165600001" width="89.99998704000018" height="32.000001660000066" class="text">comments </text>
<text x="1545.0000058" y="621.0000165600001" width="85.0000053199999" height="32.000001660000066" class="text">regarding </text>
<text x="1639.00002036" y="621.0000165600001" width="31.000002559999984" height="32.000001660000066" class="text">this
</text>
<text x="96.999996568" y="643.99997079" width="61.000001752" height="25.999970039999994" class="text">burden </text>
<text x="168.000000392" y="645.0000291900001" width="72.99998948800001" height="27.00002844000005" class="text">estimate </text>
<text x="250.99998844" y="645.0000291900001" width="19.000007799999963" height="26.000038350000068" class="text">or </text>
<text x="276.99999172" y="645.0000291900001" width="29.000006359999986" height="26.000038350000068" class="text">any </text>
<text x="315.99999664" y="645.0000291900001" width="47.00000727999998" height="26.000038350000068" class="text">other </text>
<text x="369.99998184" y="645.0000291900001" width="57.00000584000003" height="26.000038350000068" class="text">aspect </text>
<text x="434.99999004" y="645.0000291900001" width="19.000025360000052" height="26.000038350000068" class="text">of </text>
<text x="459.99998644" y="646.0000192800001" width="32.000027000000046" height="26.000061120000055" class="text">this </text>
<text x="499.99998067999996" y="646.0000192800001" width="87.00001908000007" height="26.000061120000055" class="text">collection </text>
<text x="598.99997696" y="646.0000192800001" width="19.000025359999995" height="26.000061120000055" class="text">of </text>
<text x="624.00002604" y="646.9999866" width="105.9999742" height="27.00002844000005" class="text">information</text>
<text x="732.99998576" y="646.9999866" width="6.999995480000052" height="25.999970039999994" class="text">, </text>
<text x="746.00000496" y="646.9999866" width="82.99999156000013" height="25.999970039999994" class="text">including </text>
<text x="837.9999882" y="646.9999866" width="105.00005512000007" height="25.999970039999994" class="text">suggestions </text>
<text x="949.99998612" y="647.99997669" width="30.000030799999877" height="25.999970039999994" class="text">for </text>
<text x="988.0000544" y="647.99997669" width="74.99991896000006" height="25.999970039999994" class="text">reducing </text>
<text x="1073.00004216" y="647.99997669" width="28.999953679999862" height="25.999970039999994" class="text">this </text>
<text x="1114.0000257200002" y="647.99997669" width="60.99994555999979" height="25.999970039999994" class="text">burden </text>
<text x="1182.9999912" y="649.0000350900001" width="13.999990959999877" height="26.000061120000055" class="text">to </text>
<text x="1209.00001204" y="649.0000350900001" width="50.99996455999985" height="26.000061120000055" class="text">Chief</text>
<text x="1260.99994836" y="649.0000350900001" width="7.000048160000006" height="26.000061120000055" class="text">, </text>
<text x="1273.99995" y="649.0000350900001" width="110.00005440000018" height="26.000061120000055" class="text">Registration </text>
<text x="1389.9999754399998" y="650.00000241" width="44.00000420000015" height="27.000028439999937" class="text">Unit</text>
<text x="1434.99996896" y="650.00000241" width="7.000048160000006" height="26.000038349999954" class="text">, </text>
<text x="1447.9999706" y="650.00000241" width="82.00007247999974" height="26.000038349999954" class="text">Criminal </text>
<text x="1536.00001412" y="650.00000241" width="77.9999571599999" height="26.000038349999954" class="text">Division</text>
<text x="1617.00000948" y="650.00000241" width="7.000048160000006" height="26.000038349999954" class="text">, </text>
<text x="1633.00004932" y="650.9999925" width="40.99998355999992" height="27.000028439999937" class="text">U.S.
</text>
<text x="96.000000224" y="673.0000249499999" width="111.999990896" height="26.00003834999984" class="text">Department </text>
<text x="212.9999904" y="674.00001504" width="19.00000779999999" height="27.000028439999937" class="text">of </text>
<text x="240.00000056" y="674.00001504" width="59.00000203999997" height="26.000038349999954" class="text">Justice</text>
<text x="302.00000568" y="674.00001504" width="6.9999954799999955" height="26.000038349999954" class="text">, </text>
<text x="313.99998288" y="674.00001504" width="105.00002" height="26.000038349999954" class="text">Washington</text>
<text x="424.00000216" y="674.00001504" width="6.9999954799999955" height="26.000038349999954" class="text">, </text>
<text x="437.99999312" y="674.00001504" width="45.00002864000004" height="26.000038349999954" class="text">D.C. </text>
<text x="488.00000348" y="675.00000513" width="53.00001344000003" height="25.99997003999988" class="text">20530</text>
<text x="544.00000244" y="675.00000513" width="6.999995479999939" height="25.99997003999988" class="text">; </text>
<text x="559.00001784" y="675.00000513" width="32.99996364000003" height="25.99997003999988" class="text">and </text>
<text x="598.99997696" y="675.00000513" width="14.000043639999944" height="25.99997003999988" class="text">to </text>
<text x="624.9999978" y="675.00000513" width="24.999996399999986" height="25.99997003999988" class="text">the </text>
<text x="660.9999996399999" y="675.00000513" width="57.00002340000003" height="25.99997003999988" class="text">Office </text>
<text x="728.00000404" y="675.00000513" width="19.000025359999995" height="25.99997003999988" class="text">of </text>
<text x="754.99999664" y="675.99997245" width="105.99997420000011" height="25.999970039999994" class="text">Information </text>
<text x="871.0000045200001" y="675.99997245" width="29.000006359999816" height="25.999970039999994" class="text">and </text>
<text x="910.9999636399999" y="675.99997245" width="98.00000696000006" height="25.999970039999994" class="text">Regulatory </text>
<text x="1018.9999515999999" y="676.99996254" width="65.00004332000015" height="25.999970039999994" class="text">Affairs</text>
<text x="1084.99998424" y="676.99996254" width="7.000048160000006" height="25.999970039999994" class="text">, </text>
<text x="1097.00001412" y="676.99996254" width="57.00002339999992" height="25.999970039999994" class="text">Office </text>
<text x="1164.0000185200001" y="676.99996254" width="18.999972679999928" height="25.999970039999994" class="text">of </text>
<text x="1190.00003936" y="678.00002094" width="120.99998959999994" height="27.00002844000005" class="text">Management </text>
<text x="1317.99997176" y="678.00002094" width="29.000059039999996" height="26.000038350000068" class="text">and </text>
<text x="1357.9999835600001" y="678.00002094" width="67.00000439999985" height="26.000038350000068" class="text">Budget</text>
<text x="1424.99998796" y="678.00002094" width="7.000048160000006" height="26.000038350000068" class="text">, </text>
<text x="1437.00001784" y="678.00002094" width="104.99994975999994" height="26.000038350000068" class="text">Washington</text>
<text x="1548.0000440000001" y="679.00001103" width="6.999942799999872" height="25.99999280999998" class="text">, </text>
<text x="1560.99995784" y="679.00001103" width="42.00006068000016" height="25.99999280999998" class="text">D.C. </text>
<text x="1608.0000002400002" y="679.00001103" width="58.00001271999986" height="25.99999280999998" class="text">20503</text>
<text x="1665.0000412" y="679.00001103" width="6.999925240000039" height="25.99999280999998" class="text">.
</text>
<text x="108.000002008" y="735.0000253200001" width="29.999992168000006" height="32.99999175000005" class="text">1. </text>
<text x="147.999996248" y="735.0000253200001" width="67.000007912" height="32.00002443000005" class="text">Name </text>
<text x="227.00001648000003" y="735.9999926400001" width="24.999978839999983" height="31.000011570000083" class="text">of </text>
<text x="257.99998392000003" y="739.0000084499999" width="115.00001855999994" height="34.00002737999989" class="text">registrant
</text>
<text x="1224.9999465199999" y="740.99998863" width="24.000077320000173" height="32.00002442999994" class="text">2. </text>
<text x="1258.9999872800001" y="740.99998863" width="134.00000879999993" height="33.99998183999992" class="text">Registration </text>
<text x="1402.99997708" y="739.9999985400001" width="51.00006991999999" height="32.99999175000005" class="text">No.
</text>
<text x="1254.99997732" y="795.00002274" width="72.99997544000007" height="27.999995760000047" class="text">4533
</text>
<text x="160.0000033" y="797.99999301" width="219.99999466000003" height="36.00003032999996" class="text">International </text>
<text x="399.99999507999996" y="799.00002864" width="171.99998928000002" height="36.000007560000086" class="text">Registries</text>
<text x="575.00002256" y="797.99999301" width="9.999963439999874" height="33.99998183999992" class="text">, </text>
<text x="606.99999688" y="799.00002864" width="69.99998991999996" height="35.000017469999875" class="text">Inc.
</text>
<text x="110.99999630800001" y="837.0000163799999" width="29.000002847999994" height="31.000034339999843" class="text">3. </text>
<text x="147.999996248" y="837.9999837" width="78.000013352" height="32.00000165999995" class="text">Nature </text>
<text x="236.00000816" y="837.9999837" width="23.999989520000042" height="31.00001156999997" class="text">of </text>
<text x="275.99998484" y="838.99997379" width="92.00001836000001" height="32.00000165999995" class="text">material </text>
<text x="377.00001244000003" y="838.99997379" width="8.999991679999937" height="30.999943260000123" class="text">(</text>
<text x="388.99998964" y="838.99997379" width="8.999991679999937" height="30.999943260000123" class="text">A </text>
<text x="414.0000036" y="838.99997379" width="85.00000532000001" height="30.999943260000123" class="text">concise </text>
<text x="508.00001816" y="841.0000222799999" width="92.99997256" height="32.99999175000005" class="text">account </text>
<text x="611.99999616" y="840.00003219" width="23.000035320000052" height="31.000034339999843" class="text">of </text>
<text x="644.99999492" y="840.00003219" width="29.999978120000037" height="31.000034339999843" class="text">the </text>
<text x="689.9999884399999" y="841.0000222799999" width="72.00000368000008" height="32.000024429999826" class="text">nature </text>
<text x="774.0000220000001" y="841.0000222799999" width="21.999958199999924" height="31.000034339999957" class="text">of </text>
<text x="806.00001388" y="841.0000222799999" width="34.99995984000009" height="31.000034339999957" class="text">the </text>
<text x="848.9999936400001" y="842.99997969" width="136.99999432000004" height="32.99999175000005" class="text">propaganda </text>
<text x="1003.99998888" y="842.99997969" width="93.00002524000001" height="32.000001660000066" class="text">material </text>
<text x="1105.00003404" y="842.99997969" width="47.99992636000002" height="30.99996603000011" class="text">filed</text>
<text x="1158.00004748" y="842.99997969" width="9.000009240000054" height="30.99996603000011" class="text">)
</text>
<text x="160.0000033" y="898.00000389" width="61.999996339999996" height="31.00001156999997" class="text">Ship </text>
<text x="240.99998988000002" y="898.00000389" width="204.00003384" height="31.00001156999997" class="text">Registration
</text>
<text x="501.00002268" y="901.0000196999999" width="152.99998148000003" height="32.00000165999995" class="text">Corporate </text>
<text x="674.99997304" y="899.99998407" width="153.00005172" height="32.00002442999994" class="text">Formation
</text>
<text x="110.99999630800001" y="970.00001901" width="31.99999890399998" height="31.00001156999997" class="text">4. </text>
<text x="150.000001228" y="970.00001901" width="48.00000889200001" height="31.00001156999997" class="text">Title </text>
<text x="208.999998" y="971.0000090999999" width="29.000006359999986" height="30.00004424999986" class="text">of </text>
<text x="250.99998844" y="972.99998928" width="90.00000459999998" height="32.00002442999994" class="text">material</text>
<text x="340.00000372" y="971.9999991899999" width="9.000009239999997" height="28.999985849999916" class="text">, </text>
<text x="356.00000844" y="972.99998928" width="22.999982639999985" height="29.00000862000013" class="text">if </text>
<text x="383.00000104000003" y="974.00002491" width="37.99999803999998" height="30.000044250000087" class="text">any
</text>
<text x="935.0000234" y="976.00000509" width="28.999953679999976" height="31.000034339999843" class="text">5. </text>
<text x="986.9999597199999" y="976.00000509" width="67.00000440000031" height="31.000034339999843" class="text">Name </text>
<text x="1065.00002224" y="976.9999724099999" width="22.00001087999999" height="30.99994326000001" class="text">of </text>
<text x="1092.0000324" y="976.9999724099999" width="80.00000604000002" height="30.99994326000001" class="text">foreign </text>
<text x="1177.00002016" y="976.9999724099999" width="107.99998795999977" height="30.99994326000001" class="text">principal </text>
<text x="1290.99997916" y="976.9999724099999" width="22.00001087999999" height="30.99994326000001" class="text">on </text>
<text x="1321.99998172" y="978.00003081" width="71.00001436000002" height="32.000001660000066" class="text">whose </text>
<text x="1400.0000442399999" y="978.00003081" width="77.99995716000012" height="31.00003434000007" class="text">behalf </text>
<text x="1481.0000396" y="978.00003081" width="36.999973599999976" height="31.00003434000007" class="text">this </text>
<text x="1533.9999476799999" y="979.0000209" width="92.00005348000013" height="32.00002443000005" class="text">material </text>
<text x="1629.00003936" y="979.0000209" width="43.999916400000075" height="31.00003434000007" class="text">was
</text>
<text x="153.999998896" y="1015.00002846" width="138.00000822400003" height="28.00001852999992" class="text">Liberian </text>
<text x="311.00001492" y="1015.00002846" width="137.99996608000004" height="28.00001852999992" class="text">Maritime </text>
<text x="468.99997812000004" y="1015.00002846" width="47.00000727999998" height="28.00001852999992" class="text">Law
</text>
<text x="984.0000268800001" y="1005.9999810300001" width="127.99994995999998" height="27.999950220000073" class="text">transmitted</text>
<text x="1119.99999676" y="1005.9999810300001" width="8.000019920000113" height="27.999950220000073" class="text">.
</text>
<text x="156.00000563199998" y="1052.00002611" width="136.00000148800004" height="32.999991749999936" class="text">Liberian </text>
<text x="312.99999356" y="1053.99998352" width="134.99999812" height="33.99998183999992" class="text">Maritime </text>
<text x="470.00000256000004" y="1056.99999933" width="188.0000115599999" height="35.0000174700001" class="text">Regulations
</text>
<text x="985.0000162" y="1050.99996771" width="98.99997872000006" height="26.999960129999863" class="text">Bureau </text>
<text x="1103.9999569200002" y="1050.99996771" width="35.00001251999993" height="26.999960129999863" class="text">of </text>
<text x="1155.9999986" y="1050.99996771" width="135.99995231999992" height="26.999960129999863" class="text">Maritime </text>
<text x="1312.00001828" y="1050.99996771" width="117.9999514000001" height="26.999960129999863" class="text">Affairs
</text>
<text x="984.0000268800001" y="1089.99999108" width="137.99993095999992" height="32.00000165999995" class="text">Republic </text>
<text x="1138.99996944" y="1089.00000099" width="38.00005071999999" height="30.000021479999987" class="text">of </text>
<text x="1191.00001112" y="1089.00000099" width="118.99994072000004" height="32.00000165999995" class="text">Liberia
</text>
<text x="109.999994696" y="1137.00002625" width="29.000002847999994" height="27.00002844000005" class="text">6. </text>
<text x="147.999996248" y="1137.00002625" width="77.00000647199997" height="27.00002844000005" class="text">Means </text>
<text x="235.00000128000002" y="1137.00002625" width="24.999996400000015" height="27.00002844000005" class="text">of </text>
<text x="269.99999624" y="1137.00002625" width="141.00000428000004" height="27.00002844000005" class="text">transmission
</text>
<text x="647.0000086800001" y="1140.99996384" width="18.999972679999928" height="30.999966029999996" class="text">7. </text>
<text x="674.99997304" y="1143.0000578699999" width="66.00003263999997" height="33.000060059999896" class="text">Dates </text>
<text x="752.9999828800001" y="1143.0000578699999" width="22.000010879999877" height="32.00006996999991" class="text">of </text>
<text x="784.99997476" y="1145.0000380499998" width="143.00000048000015" height="34.00005014999988" class="text">transmission
</text>
<text x="1156.99997036" y="1151.00006967" width="25.000049080000053" height="37.0000659599998" class="text">8. </text>
<text x="1194.00004932" y="1151.00006967" width="53.99998520000008" height="37.0000659599998" class="text">Total </text>
<text x="1254.99997732" y="1151.00006967" width="75.00002431999997" height="37.0000659599998" class="text">copies </text>
<text x="1338.00003912" y="1151.00006967" width="129.99999884" height="37.0000659599998" class="text">transmitted
</text>
<text x="1200.99999212" y="1168.00006059" width="5.999953480000158" height="21.00006512999994" class="text">1 </text>
<text x="1258.00001552" y="1176.00004962" width="138.00001875999988" height="31.000011570000197" class="text">Liberian </text>
<text x="1416.99996804" y="1174.9999229100001" width="49.000003479999805" height="28.999917540000297" class="text">Law
</text>
<text x="153.999998896" y="1194.9999979499999" width="118.00001110399998" height="37.000043189999815" class="text">Regular </text>
<text x="287.99999716" y="1192.00005045" width="73.99999987999996" height="36.00007586999982" class="text">Mail
</text>
<text x="674.99997304" y="1194.9999979499999" width="66.00003263999997" height="34.999949159999915" class="text">July </text>
<text x="759.0000066" y="1194.0000306299999" width="36.999973599999976" height="32.99999174999971" class="text">25</text>
<text x="799.9999901599999" y="1193.00004054" width="8.999991680000107" height="32.99999175000016" class="text">, </text>
<text x="835.00000268" y="1193.00004054" width="66.99995172000001" height="33.99998183999992" class="text">1991
</text>
<text x="1260.99994836" y="1211.00002155" width="131.00007596" height="32.00002442999994" class="text">Liberian </text>
<text x="1414.0000352000002" y="1211.99998887" width="188.99998331999996" height="32.000001659999725" class="text">Regulations
</text>
<text x="109.999994696" y="1236.99999159" width="30.00000446" height="23.000022539999918" class="text">9. </text>
<text x="150.000001228" y="1236.99999159" width="44.99998825200001" height="23.000022539999918" class="text">List </text>
<text x="202.00000252" y="1238.999949" width="110.00000172" height="24.999979949999897" class="text">addresses </text>
<text x="325.9999952" y="1237.99995891" width="51.000017240000034" height="23.000022539999918" class="text">from </text>
<text x="388.99998964" y="1238.999949" width="68.00001128000002" height="22.999885919999997" class="text">which </text>
<text x="477.99996980000003" y="1238.999949" width="90.00005727999996" height="22.999885919999997" class="text">material </text>
<text x="575.99999432" y="1239.99993909" width="46.00001796000004" height="22.999885919999997" class="text">was </text>
<text x="629.99997952" y="1241.00004303" width="127.00001332" height="24.999979949999897" class="text">transmitted</text>
<text x="761.99999212" y="1239.99993909" width="6.000006159999998" height="22.999885919999997" class="text">:
</text>
<text x="937.9999562400001" y="1241.00004303" width="43.00004999999999" height="24.999979949999897" class="text">10. </text>
<text x="986.9999597199999" y="1241.00004303" width="46.000088200000164" height="24.999979949999897" class="text">List </text>
<text x="1047.00002132" y="1242.0000331200001" width="62.00002268000003" height="25.999970040000107" class="text">states </text>
<text x="1123.00003496" y="1242.0000331200001" width="38.999917119999964" height="24.999979950000125" class="text">and </text>
<text x="1179.999953" y="1242.0000331200001" width="111.00002616000006" height="24.999979950000125" class="text">territories </text>
<text x="1306.00004724" y="1243.0000232099999" width="24.99994371999992" height="25.99997003999988" class="text">of </text>
<text x="1344.99998192" y="1243.0000232099999" width="31.999974320000092" height="25.000002719999884" class="text">the </text>
<text x="1393.9999854" y="1243.0000232099999" width="71.9999861199999" height="25.000002719999884" class="text">United </text>
<text x="1486.00002132" y="1243.0000232099999" width="64.99995551999996" height="25.000002719999884" class="text">States </text>
<text x="1563.99997848" y="1244.0000133" width="18.99999023999999" height="25.999992810000094" class="text">to </text>
<text x="1599.9999803199998" y="1244.0000133" width="69.00007084000026" height="25.00000272000011" class="text">which
</text>
<text x="991.999959" y="1277.9999723699998" width="89.00001527999984" height="27.999927449999632" class="text">material </text>
<text x="1091.0000430799998" y="1277.9999723699998" width="41.99997288000009" height="26.999960129999636" class="text">was </text>
<text x="1146.0000175999999" y="1278.99996246" width="121.9999789200001" height="28.999917539999842" class="text">transmitted</text>
<text x="1276.0000164399999" y="1278.99996246" width="8.00001992000034" height="26.99996013000009" class="text">:
</text>
<text x="985.9999879600001" y="1346.00007267" width="99.99996803999977" height="29.000076929999977" class="text">Boston</text>
<text x="1093.99997592" y="1346.00007267" width="8.000019919999886" height="29.000076929999977" class="text">, </text>
<text x="1123.00003496" y="1346.00007267" width="223.9999958400001" height="29.000076929999977" class="text">Massachusetts
</text>
<text x="156.00000563199998" y="1342.99998855" width="101.99997828800005" height="27.999950219999846" class="text">Reston </text>
<text x="281.00000168" y="1342.99998855" width="222.0000172" height="27.999950219999846" class="text">International </text>
<text x="521.0000198" y="1342.99998855" width="103.00000623999995" height="27.999950219999846" class="text">Center
</text>
<text x="160.0000033" y="1381.00002183" width="98.99998749999997" height="32.00000165999995" class="text">Reston</text>
<text x="266.99999316" y="1381.00002183" width="8.99999168000005" height="32.00000165999995" class="text">, </text>
<text x="294.99999264" y="1381.00002183" width="137.00001188" height="32.00000165999995" class="text">Virginia </text>
<text x="468.00000636" y="1376.99994762" width="172.00000684000003" height="26.999937360000104" class="text">22091-5363
</text>
<text x="99.000003304" y="1547.99996076" width="39.99999423999999" height="30.999897720000035" class="text">11. </text>
<text x="151.999993916" y="1547.99996076" width="64.00001712400001" height="30.999897720000035" class="text">Types </text>
<text x="228.0000058" y="1548.99992808" width="21.999993320000016" height="30.99987495000005" class="text">of </text>
<text x="263.00000076" y="1548.99992808" width="106.99998108" height="30.99987495000005" class="text">recipients </text>
<text x="383.00000104000003" y="1548.99992808" width="8.999991679999937" height="30.99987495000005" class="text">(</text>
<text x="391.99999271999997" y="1548.99992808" width="53.000031000000035" height="30.99987495000005" class="text">Give </text>
<text x="457.00000092000005" y="1550.0000547900001" width="87.00000151999996" height="32.00000166000018" class="text">number </text>
<text x="555.99997964" y="1550.0000547900001" width="23.00005288" height="31.000034340000184" class="text">of </text>
<text x="584.9999859999999" y="1551.00004488" width="159.00000520000015" height="32.999991749999936" class="text">organizations
</text>
<text x="148.999999616" y="1578.99997233" width="16.00000472000002" height="30.000044249999974" class="text">in </text>
<text x="182.99999472" y="1580.99995251" width="50.99999968" height="30.999897719999808" class="text">each </text>
<text x="248.99999224" y="1584.00003663" width="64.00000132" height="32.00002442999994" class="text">group</text>
<text x="317.00000352" y="1583.0000465399999" width="8.999991679999994" height="29.000054159999763" class="text">)
</text>
<text x="935.0000234" y="1553.99999238" width="49.00000348000003" height="34.99997193000013" class="text">12. </text>
<text x="988.0000544" y="1554.9999597" width="45.9999652800002" height="35.999939250000125" class="text">List </text>
<text x="1047.00002132" y="1554.9999597" width="73.99994719999995" height="34.999949159999915" class="text">names </text>
<text x="1138.99996944" y="1554.9999597" width="40.00001180000004" height="34.999949159999915" class="text">and </text>
<text x="1197.99995392" y="1556.99993988" width="114.0000643599999" height="36.99992933999988" class="text">addresses </text>
<text x="1327.99995276" y="1555.9999497899998" width="26.000020839999934" height="34.999949159999915" class="text">of </text>
<text x="1370.00001344" y="1556.99993988" width="89.00001528000007" height="35.999939250000125" class="text">persons </text>
<text x="1474.9999632" y="1556.99993988" width="26.00002084000016" height="34.99997193000013" class="text">or </text>
<text x="1521.0000513999998" y="1559.00003391" width="150.99991504000013" height="37.00006596000003" class="text">organizations
</text>
<text x="989.0000261600001" y="1586.99998413" width="102.00001691999978" height="33.999981840000146" class="text">receiving </text>
<text x="1106.0000058" y="1585.99999404" width="36.999973599999976" height="32.00000165999995" class="text">100 </text>
<text x="1152.9999604" y="1585.99999404" width="75.0000243200002" height="32.00000165999995" class="text">copies </text>
<text x="1241.00000392" y="1586.99998413" width="22.9999826400001" height="32.00002442999994" class="text">or </text>
<text x="1280.0000264" y="1586.99998413" width="49.99997523999991" height="32.00002442999994" class="text">more</text>
<text x="1334.0000291600002" y="1586.99998413" width="8.999991679999766" height="32.00002442999994" class="text">:
</text>
<text x="1280.99999816" y="1716.99997095" width="49.99999279999997" height="30.000021480000214" class="text">--N</text>
<text x="1339.00001088" y="1716.99997095" width="8.999991679999994" height="28.99991754000007" class="text">/</text>
<text x="1353.00000184" y="1716.99997095" width="8.999991679999994" height="28.99991754000007" class="text">A-
</text>
<text x="96.999996568" y="1643.9999885099999" width="106.00001283200001" height="26.99996013000009" class="text">Libraries
</text>
<text x="96.999996568" y="1677.99994758" width="70.00000045600001" height="26.99996013000009" class="text">Public </text>
<text x="182.99999472" y="1677.99994758" width="89.00001527999999" height="26.99996013000009" class="text">officials
</text>
<text x="99.000003304" y="1716.00000363" width="134.99999109599997" height="31.000034340000184" class="text">Newspapers
</text>
<text x="99.000003304" y="1742.9999637600001" width="57.999991648000005" height="24.00001263000013" class="text">Press </text>
<text x="170.000005372" y="1743.9999310800001" width="90.99999918799998" height="24.999979950000125" class="text">services </text>
<text x="275.00001308000003" y="1743.9999310800001" width="21.999975759999984" height="23.99985324000022" class="text">of
</text>
<text x="124.99999780400002" y="1779.00003963" width="133.99999299599995" height="25.99997003999988" class="text">associations
</text>
<text x="97.999999936" y="1814.99997888" width="137.00000134400003" height="28.99991754000007" class="text">Educational
</text>
<text x="123.00000511600001" y="1845.99999045" width="127.999983324" height="24.999979950000125" class="text">institutions
</text>
<text x="101.00000126" y="1881.99995247" width="56.99999706" height="25.999992809999867" class="text">Civic </text>
<text x="195.99999635999998" y="1886.00000391" width="79.00001672000005" height="23.999989859999914" class="text">groups</text>
<text x="275.00001308000003" y="1886.00000391" width="5.999988599999995" height="23.000022539999918" class="text">.
</text>
<text x="96.000000224" y="1918.99999566" width="68.00000074400002" height="33.99995906999993" class="text">Other </text>
<text x="179.00000232" y="1918.99999566" width="9.999998560000023" height="32.00000165999995" class="text">(</text>
<text x="189.00000088000002" y="1919.99998575" width="77.00000295999996" height="32.999991749999936" class="text">specify</text>
<text x="266.99999316" y="1919.99998575" width="9.999998560000051" height="32.00000165999995" class="text">)-
</text>
<text x="1061.99998404" y="1656.00005175" width="41.99997288000009" height="46.00004508000006" class="text">AUG </text>
<text x="1067.99995508" y="1701.99996021" width="41.00008892000005" height="32.00000165999995" class="text">14 </text>
<text x="1076.99996432" y="1780.00000695" width="43.00003244000004" height="41.99997086999997" class="text">A11</text>
<text x="1083.00002316" y="1798.99997805" width="37.99994536000008" height="15.000033509999867" class="text">:</text>
<text x="1083.99999492" y="1830.99997971" width="40.99998355999992" height="35.9999392499999" class="text">20
</text>
<text x="333.99999756" y="1911.9999739500001" width="169.00002132000003" height="31.00001156999997" class="text">Individual </text>
<text x="526.00000152" y="1911.9999739500001" width="9.000009240000054" height="31.00001156999997" class="text">(</text>
<text x="546.99998796" y="1911.9999739500001" width="8.999991679999994" height="31.00001156999997" class="text">1</text>
<text x="562.9999751199999" y="1911.9999739500001" width="9.000009240000054" height="31.00001156999997" class="text">)
</text>
<text x="1549.00001576" y="2105.00001954" width="42.99994463999997" height="16.999990919999618" class="text">FORM </text>
<text x="1603.99999028" y="2106.00000963" width="32.99996364000003" height="17.99998100999983" class="text">CRM</text>
<text x="1644.00000208" y="2106.00000963" width="4.999981719999823" height="16.999990920000073" class="text">-</text>
<text x="1648.00001204" y="2106.00000963" width="21.00003912000011" height="16.999990920000073" class="text">159
</text>
<text x="1613.99997128" y="2128.00004208" width="30.000030800000104" height="16.999990920000073" class="text">SEP</text>
<text x="1644.00000208" y="2128.00004208" width="4.000009959999943" height="16.000000830000317" class="text">. </text>
<text x="1654.9999548399999" y="2128.00004208" width="15.00006808000012" height="16.000000830000317" class="text">89
</text>
</g>
<g id="page-1" transform="translate(0, 2297)">
<rect width="1756" height="2277" fill="none" stroke="black" />
<text x="94.999998612" y="140.999996214" width="42.999995564" height="29.999998709999986" class="text">13. </text>
<text x="146.00000356" y="140.999996214" width="16.999995796000007" height="29.999998709999986" class="text">If </text>
<text x="173.000001428" y="141.999997689" width="32.999993492000016" height="30.000000986999993" class="text">the </text>
<text x="222.99998896" y="143.000005995" width="94.00001456000001" height="31.000009293000005" class="text">material </text>
<text x="322.00002036" y="144.00000519300002" width="126.99996064000004" height="32.00000849100002" class="text">transmitted </text>
<text x="463.00000708" y="143.000005995" width="42.99999731999998" height="30.000007818" class="text">was </text>
<text x="517.0000098400001" y="144.00000519300002" width="8.99999167999988" height="30.000007818000014" class="text">a </text>
<text x="542.0000062400001" y="144.00000519300002" width="44.00002175999987" height="30.000007818000014" class="text">film </text>
<text x="600.99999072" y="144.00000519300002" width="21.99999331999993" height="30.000007818000014" class="text">or </text>
<text x="633.9999894800001" y="145.000006668" width="57.000040959999865" height="31.00000929299999" class="text">radio </text>
<text x="703.9999794" y="145.000006668" width="28.00003460000005" height="30.000007817999986" class="text">or </text>
<text x="739.99998124" y="146.000005866" width="105.00000244" height="32.000008491" class="text">television </text>
<text x="862.0000128400001" y="146.000005866" width="64.00001887999997" height="30.000007818" class="text">script</text>
<text x="924.9999546" y="146.000005866" width="9.000097040000014" height="30.000007818" class="text">, </text>
<text x="946.9999654799999" y="147.000007341" width="78.00006252000026" height="31.000009293000005" class="text">furnish </text>
<text x="1035.9999632" y="147.000007341" width="34.00005832000011" height="30.00001009500002" class="text">the </text>
<text x="1084.99998424" y="148.000006539" width="106.00002687999995" height="32.00000849099999" class="text">following </text>
<text x="1201.99996388" y="149.000008014" width="133.00003703999982" height="32.00001076800001" class="text">information</text>
<text x="1338.00003912" y="148.000006539" width="8.999991679999994" height="30.000007818" class="text">:
</text>
<text x="94.000002268" y="207.00000703799998" width="67.99999371999999" height="31.000009292999977" class="text">Name </text>
<text x="175.000006408" y="207.00000703799998" width="21.999996831999994" height="30.000010094999965" class="text">of </text>
<text x="208.999998" y="209.000007711" width="69.99998992000002" height="32.00001076799998" class="text">station</text>
<text x="283.00001543999997" y="208.000006236" width="8.99999168000005" height="30.000007817999972" class="text">, </text>
<text x="303.99998432" y="210.000006909" width="137.00002944000005" height="32.00000849099999" class="text">organization</text>
<text x="445.00002372" y="209.000007711" width="8.99999168000005" height="30.000010094999993" class="text">, </text>
<text x="461.00001088" y="210.000006909" width="27.999964360000035" height="30.000007818" class="text">or </text>
<text x="499.99998067999996" y="211.00000838399998" width="78.00000984000002" height="32.00001076799998" class="text">theater </text>
<text x="586.99999976" y="212.000007582" width="60.99998067999991" height="31.000009292999977" class="text">using
</text>
<text x="94.999998612" y="239.99998968" width="8.000002359999996" height="27.999982098000004" class="text">(</text>
<text x="103.000000972" y="241.99999262999998" width="105.99999702800001" height="29.999985047999985" class="text">including </text>
<text x="222.99998896" y="241.00000254" width="36.00000183999998" height="27.99999575999999" class="text">city </text>
<text x="272.00001" y="241.00000254" width="43.99998664000003" height="27.99999575999999" class="text">and </text>
<text x="331.00001204" y="241.99999262999998" width="47.00000727999998" height="28.999985849999973" class="text">state</text>
<text x="384.00000792" y="241.99999262999998" width="7.999984799999993" height="27.999984374999997" class="text">)
</text>
<text x="930.00004168" y="210.000006909" width="51.999936320000074" height="27.000007947" class="text">Date </text>
<text x="997.00004608" y="210.000006909" width="24.99994371999992" height="27.000007947" class="text">or </text>
<text x="1031.99995324" y="210.000006909" width="56.00005164000004" height="27.000007947" class="text">dates </text>
<text x="1098.99995764" y="210.000006909" width="114.0000643599999" height="27.000007947" class="text">broadcast </text>
<text x="1222.00001368" y="210.000006909" width="72.00000368000019" height="27.000007947" class="text">shown
</text>
<text x="1393.9999854" y="211.00000838399998" width="111.00002615999983" height="25.000007273999984" class="text">Estimated </text>
<text x="1517.00004144" y="211.00000838399998" width="117.9999514000001" height="25.000007273999984" class="text">attendance
</text>
<text x="1442.00001712" y="247.00001139" width="8.999991679999994" height="30.000019202999994" class="text">(</text>
<text x="1455.0000187599999" y="248.99999157" width="33.99993540000014" height="31.999999382999988" class="text">for </text>
<text x="1496.9999740800001" y="248.99999157" width="43.000049999999874" height="31.000000184999976" class="text">film</text>
<text x="1544.00003404" y="248.99999157" width="8.999991680000221" height="29.99999870999997" class="text">(</text>
<text x="1553.0000257200002" y="248.99999157" width="9.000009239999827" height="29.99999870999997" class="text">s</text>
<text x="1564.9999678" y="248.99999157" width="8.999991679999994" height="29.99999870999997" class="text">)</text>
<text x="1576.0000259199999" y="248.99999157" width="8.999991679999994" height="29.99999870999997" class="text">)
</text>
<text x="759.99997836" y="363.99999042" width="49.00000348000003" height="27.999995760000047" class="text">--N</text>
<text x="815.9999773200001" y="363.00002309999996" width="8.000019919999886" height="27.000028439999994" class="text">/</text>
<text x="833.00000648" y="363.00002309999996" width="7.999967240000046" height="27.000028439999994" class="text">A-
</text>
<text x="96.000000224" y="481.00001499" width="46.000005668000014" height="32.00000166000001" class="text">14. </text>
<text x="145.00000019200002" y="482.00000508" width="55.000006127999995" height="32.99999174999999" class="text">Have </text>
<text x="212.00000108" y="482.00000508" width="42.00000800000001" height="32.000024429999996" class="text">two </text>
<text x="266.00000384" y="482.00000508" width="70.99999680000002" height="32.000024429999996" class="text">copies </text>
<text x="350.00001984" y="483.00001794" width="22.999982639999985" height="33.00003729000002" class="text">of </text>
<text x="383.00000104000003" y="483.00001794" width="34.99999495999998" height="32.000001660000066" class="text">this </text>
<text x="436.99998624" y="484.00000802999995" width="92.00000080000007" height="32.99999174999999" class="text">material </text>
<text x="537.99999628" y="484.00000802999995" width="51.99998900000003" height="32.00002442999994" class="text">been </text>
<text x="602.99998692" y="484.00000802999995" width="48.00003172000004" height="32.00002442999994" class="text">filed </text>
<text x="662.99999584" y="484.00000802999995" width="47.00000727999998" height="32.00002442999994" class="text">with </text>
<text x="727.00001472" y="485.00002089" width="32.99996364000003" height="32.000024429999996" class="text">the </text>
<text x="772.0000258" y="485.99998820999997" width="137.99996608000004" height="34.00000460999996" class="text">Department </text>
<text x="918.0000118" y="485.99998820999997" width="23.99995439999998" height="32.00000165999995" class="text">of </text>
<text x="954.9999853999999" y="485.99998820999997" width="74.0000525600002" height="32.00000165999995" class="text">Justice</text>
<text x="1030.9999814799999" y="485.99998820999997" width="9.000009240000281" height="32.00000165999995" class="text">?
</text>
<text x="1082.0000513999998" y="482.00000508" width="34.99990716000025" height="29.000008620000017" class="text">Yes </text>
<text x="1125.9999678" y="481.00001499" width="8.000019920000113" height="27.000028439999994" class="text">
</text>
<text x="1185.00005764" y="482.00000508" width="38.999917119999964" height="27.000005670000007" class="text">No </text>
<text x="1236.99999396" y="480.00000213" width="8.000019920000113" height="26.000015579999967" class="text">
</text>
<text x="92.99999890000001" y="546.0000084000001" width="47.00000025599999" height="29.999998710000114" class="text">15. </text>
<text x="155.000002264" y="546.9999984899999" width="47.00000025600002" height="29.99999871" class="text">Has </text>
<text x="208.999998" y="546.9999984899999" width="41.999990440000005" height="29.99999871" class="text">this </text>
<text x="266.99999316" y="549.00000144" width="92.99999012" height="32.000001660000066" class="text">material </text>
<text x="366.00000700000004" y="549.00000144" width="50.99998211999997" height="30.999988799999983" class="text">been </text>
<text x="432.00000452" y="550.0000143" width="81.99996712000001" height="32.00000165999995" class="text">labeled </text>
<text x="526.99999084" y="550.0000143" width="22.00001087999999" height="29.99999871" class="text">as </text>
<text x="560.00000716" y="551.00000439" width="93.99999700000001" height="32.00002442999994" class="text">required </text>
<text x="665.99998136" y="551.00000439" width="28.00003460000005" height="30.000021479999987" class="text">by </text>
<text x="705.00000384" y="551.00000439" width="34.00000564000004" height="30.000021479999987" class="text">the </text>
<text x="752.00001112" y="552.00001725" width="33.999988080000094" height="31.00003434000007" class="text">act</text>
<text x="784.99997476" y="552.00001725" width="8.999991679999994" height="29.99999871" class="text">?
</text>
<text x="833.99997824" y="548.00001135" width="34.00004075999993" height="27.999995760000047" class="text">Yes </text>
<text x="882.99998172" y="546.9999984899999" width="8.00001992" height="26.000015579999967" class="text">
</text>
<text x="940.99999444" y="546.9999984899999" width="36.99997360000009" height="26.000015579999967" class="text">No </text>
<text x="991.999959" y="546.9999984899999" width="7.000048160000006" height="26.000015579999967" class="text">
</text>
<text x="90.999999188" y="613.00002753" width="51.999996023999984" height="30.000044250000087" class="text">Date </text>
<text x="157.99999832" y="614.99998494" width="26.999992599999985" height="28.99998585000003" class="text">of </text>
<text x="194.00000015999998" y="618.99999084" width="72.00000367999999" height="32.00002443000005" class="text">report
</text>
<text x="1034.0000196800002" y="622.00000665" width="108.99995971999988" height="33.99998184000003" class="text">Signature
</text>
<text x="87.999997864" y="654.9999984" width="101.99999233600002" height="32.00002442999994" class="text">August </text>
<text x="212.00000108" y="653.00001822" width="8.999991679999994" height="29.00005415999999" class="text">9</text>
<text x="233.00000508000002" y="651.99998259" width="8.999991679999965" height="29.000008619999903" class="text">, </text>
<text x="264.00000764" y="651.99998259" width="68.99998304000002" height="30.999966029999882" class="text">1991
</text>
<text x="384.99999724" y="612.00003744" width="65.99997995999996" height="25.000071030000072" class="text">Name </text>
<text x="465.00002084" y="613.00002753" width="38.99996980000003" height="26.000061120000055" class="text">and </text>
<text x="517.0000098400001" y="613.00002753" width="38.99996979999992" height="25.000002719999998" class="text">title
</text>
<text x="430.99999764" y="651.99998259" width="151.00000284000004" height="26.999960129999863" class="text">Archibald </text>
<text x="602.99998692" y="650.9999925" width="36.000001840000095" height="24.999979949999897" class="text">N. </text>
<text x="660.00001032" y="653.00001822" width="115.99997275999999" height="27.00000566999995" class="text">Stewart
</text>
<text x="499.99998067999996" y="686.0000099700001" width="152.00000972000004" height="26.000038350000068" class="text">President
</text>
<text x="1242.9999474400001" y="703.00000089" width="50.00009815999988" height="133.00000263000004" class="text">M </text>
<text x="1347.0000308" y="694.0000217700001" width="49.99997523999991" height="133.00002540000014" class="text">M
</text>
<text x="1434.99996896" y="735.0000253200001" width="297.0000766400001" height="158.99999544000002" class="text">Alausant
</text>
</g>
</svg>
