<svg xmlns="http://www.w3.org/2000/svg">
<style>.text { font-size: 14px; font-family: Arial, sans-serif; }</style>
<g id="page-0" transform="translate(0, 0)">
<rect width="1556" height="2569" fill="none" stroke="black" />
<text x="1191.0000396399998" y="123.000000088" width="64.99993944000016" height="19.999998970000007" class="text">O.M.B. </text>
<text x="1257.0000514" y="122.00000399299999" width="32.99999032000005" height="20.000001538999996" class="text">No. </text>
<text x="1306.99997968" y="119.99999895799999" width="17.0000468799999" height="17.999996503999995" class="text">43</text>
<text x="1323.0000476" y="119.99999895799999" width="4.999957040000027" height="17.999996503999995" class="text">-</text>
<text x="1331.99999828" y="119.99999895799999" width="44.99998679999999" height="20.000001538999996" class="text">R0435
</text>
<text x="1192.0000186" y="151.99999731" width="80.00001284000018" height="23.999998763999997" class="text">Approval </text>
<text x="1274.99995276" y="150.000002551" width="62.00001812000005" height="23.999998763999983" class="text">Expires </text>
<text x="1338.0000432" y="147.999997516" width="67.99993855999992" height="23.00000266900001" class="text">October </text>
<text x="1409.9999754" y="146.000002757" width="39.00003523999999" height="22.000004004999994" class="text">194I
</text>
<text x="524.00002264" y="164.00000696799998" width="86.99997447999999" height="27.000010169999968" class="text">UNITED </text>
<text x="620.99997344" y="159.999996898" width="89.00002575999997" height="26.999999894000013" class="text">STATES </text>
<text x="717.00000752" y="155.999997104" width="160.9999735199999" height="28.99999722199999" class="text">DEPARTMENT </text>
<text x="884.99998936" y="150.000002551" width="29.999975640000002" height="25.000007703999998" class="text">OF </text>
<text x="925.99996696" y="147.999997516" width="93.0000660799999" height="27.999998558000016" class="text">JUSTICE
</text>
<text x="647.99999664" y="191.99999781900001" width="133.00001804" height="30.000003593000002" class="text">WASHINGTON</text>
<text x="782.9999726" y="187.00000963699998" width="8.000065080000013" height="24.000019315999992" class="text">, </text>
<text x="797.99995264" y="187.00000963699998" width="44.00000784000008" height="27.00001273899997" class="text">D.C. </text>
<text x="848.9999688" y="184.999994326" width="50.00003719999995" height="26.999992187000004" class="text">20530
</text>
<text x="623.0000247199999" y="254.000002333" width="190.0000168800001" height="36.00001099099998" class="text">DISSEMINATION </text>
<text x="822.9999712399999" y="247.99999750400002" width="106.00001040000006" height="32.99999701600001" class="text">REPORT</text>
<text x="931.9999963199999" y="244.000005417" width="8.999966240000049" height="29.000004929" class="text">.
</text>
<text x="149.999999568" y="311.00000582" width="169.000010592" height="33.00001243000003" class="text">INSTRUCTIONS</text>
<text x="320.9999992" y="305.99998681" width="9.000012920000017" height="26.999984480000023" class="text">: </text>
<text x="337.99998383999997" y="305.00000356" width="64.00000716000005" height="29.000002359999996" class="text">Report </text>
<text x="416.9999866" y="302.99998568" width="43.000028879999945" height="29.000002359999996" class="text">must </text>
<text x="465.99999815999996" y="300.99999349" width="20.999978279999993" height="27.99999342000001" class="text">be </text>
<text x="496.99999944" y="300.99999349" width="86.00001107999992" height="30.999994549999997" class="text">submitted </text>
<text x="598.00000612" y="296.99998342000004" width="11.000001959999963" height="26.999984480000023" class="text">in </text>
<text x="621.99999908" y="296.99998342000004" width="82.00001743999997" height="29.99998561000001" class="text">duplicate </text>
<text x="715.00001848" y="292.99999904" width="15.99995899999999" height="27.000010169999996" class="text">to </text>
<text x="741.00000048" y="292.99999904" width="31.999980240000014" height="29.000002359999996" class="text">the </text>
<text x="784.0000293600001" y="292.00001579" width="110.00000403999991" height="31.000020240000026" class="text">Registration </text>
<text x="903.9999630400001" y="288.00000572" width="43.000028879999945" height="27.99999342000001" class="text">Unit</text>
<text x="945.0000495600001" y="286.00001353" width="8.99995067999987" height="27.000010169999996" class="text">, </text>
<text x="961.0000085600001" y="286.00001353" width="73.99998347999997" height="29.00002804999997" class="text">Internal </text>
<text x="1043.9999582799999" y="283.99999565" width="72.00002556000027" height="29.99999331700002" class="text">Security </text>
<text x="1123.99997112" y="280.99999452000003" width="67.00006851999979" height="29.99998561000004" class="text">Section</text>
<text x="1192.9999975599999" y="279.00000233" width="9.000044040000148" height="26.999997324999953" class="text">. </text>
<text x="1210.00002888" y="279.00000233" width="80.00001284000018" height="30.00000873099998" class="text">Criminal </text>
<text x="1298.000029" y="276.0000012" width="73.00000451999995" height="30.000001024" class="text">Division</text>
<text x="1372.99999144" y="273.00000007" width="9.00004403999992" height="26.999999894000013" class="text">. </text>
<text x="1386.00002912" y="273.00000007" width="30.999954600000137" height="27.999995988999984" class="text">De-
</text>
<text x="149.999999568" y="334.00000592" width="85.999998632" height="29.000002359999996" class="text">partment </text>
<text x="240.00000740000002" y="330.9999791" width="23.999992959999986" height="26.999984480000023" class="text">of </text>
<text x="268.99998852" y="330.00002154" width="62.00001811999999" height="27.00003585999997" class="text">Justice</text>
<text x="332.00000116" y="328.00000366" width="8.00000283999998" height="25.000017979999996" class="text">, </text>
<text x="342.0000086" y="328.00000366" width="111.99997751999996" height="30.00001130000004" class="text">Washington</text>
<text x="454.9999962" y="323.99999359000003" width="7.999987280000028" height="24.999992290000023" class="text">, </text>
<text x="467.0000238" y="323.99999359000003" width="49.99999051999998" height="27.99999342000001" class="text">D.C. 
</text>
<text x="521.99997136" y="322.0000014" width="59.00005011999997" height="27.999993419999953" class="text">20530. </text>
<text x="588.9999932" y="319.99998352" width="33.00000588" height="26.999984480000023" class="text">The </text>
<text x="629.0000074" y="319.00000027" width="71.99999444000002" height="27.999993419999953" class="text">original </text>
<text x="706.99998452" y="315.99999914" width="43.000028879999945" height="26.00000123000001" class="text">must </text>
<text x="759.00001076" y="313.99998125999997" width="18.99998923999999" height="25.99997553999998" class="text">be </text>
<text x="784.0000293600001" y="313.99998125999997" width="59.999966839999956" height="27.99996772999998" class="text">signed </text>
<text x="850.0000411200001" y="311.00000582" width="23.999946279999904" height="26.00000123000001" class="text">by </text>
<text x="880.99999572" y="309.99999688" width="20.00004600000011" height="26.00000123000001" class="text">or </text>
<text x="909.000029" y="309.00001363" width="18.99998923999999" height="26.00000123000001" class="text">on </text>
<text x="935.00002656" y="309.00001363" width="59.999966839999956" height="28.000019109999982" class="text">behalf </text>
<text x="998.0000080799999" y="305.99998681" width="23.999946280000017" height="26.00000123000001" class="text">of </text>
<text x="1024.99996904" y="305.99998681" width="25.99999756000011" height="26.999984480000023" class="text">the </text>
<text x="1056.000017" y="305.00000356" width="89.99995803999991" height="29.000002359999996" class="text">registrant</text>
<text x="1144.00001712" y="302.00000243" width="7.999987279999914" height="24.999992290000023" class="text">. </text>
<text x="1156.999977" y="302.00000243" width="25.999982000000045" height="26.999984479999966" class="text">All </text>
<text x="1189.99998288" y="300.00001024" width="47.99998591999997" height="27.000010169999996" class="text">items </text>
<text x="1240.99998348" y="297.99999235999996" width="14.99999559999992" height="24.999992289999966" class="text">in </text>
<text x="1262.9999874" y="297.99999235999996" width="32.00002691999998" height="26.999984479999966" class="text">this </text>
<text x="1303.999965" y="296.00000017" width="43.000028879999945" height="26.00000123000001" class="text">form </text>
<text x="1357.00001688" y="294.99999123" width="38.99994188000005" height="26.999984479999966" class="text">must </text>
<text x="1402.99996708" y="292.99999904" width="18.999989239999877" height="26.000001229999953" class="text">be
</text>
<text x="150.999998756" y="355.99999708" width="84.999999444" height="29.000002360000053" class="text">answered</text>
<text x="236.99999272000002" y="353.00002164000006" width="8.00000283999998" height="25.000017980000052" class="text">, </text>
<text x="251.00000936" y="353.00002164000006" width="53.99998415999997" height="28.00001911000004" class="text">unless </text>
<text x="311.00000732" y="351.00002945" width="30.000006759999962" height="27.00003585999997" class="text">the </text>
<text x="348.9999858" y="349.99999482000004" width="64.00000716000005" height="27.999993420000067" class="text">answer </text>
<text x="420.99998024" y="346.99999369" width="10.000022999999942" height="24.999992290000023" class="text">is </text>
<text x="440.00001616000003" y="346.99999369" width="7.999971719999962" height="24.999992290000023" class="text">"</text>
<text x="447.99998788" y="346.99999369" width="45.000033479999956" height="27.000010169999996" class="text">none
</text>
<text x="495.0000104" y="345.00000150000005" width="7.999987279999971" height="25.000017980000052" class="text">" </text>
<text x="510.99998496" y="344.00001825" width="19.999999319999915" height="26.000026919999982" class="text">or </text>
<text x="537.0000136399999" y="344.00001825" width="7.999987280000141" height="25.000017979999996" class="text">"</text>
<text x="545.00000092" y="344.00001825" width="33.00000588" height="27.000010169999996" class="text">not </text>
<text x="583.0000105199999" y="343.00000931" width="90.99996812000006" height="29.000028050000026" class="text">applicable</text>
<text x="677.00000888" y="338.99999924" width="7.999971720000076" height="25.000017980000052" class="text">.</text>
<text x="682.0000126" y="338.99999924" width="7.999987280000028" height="25.000017980000052" class="text">" </text>
<text x="699.9999762" y="337.99999030000004" width="15.000042280000002" height="24.999992290000023" class="text">in </text>
<text x="721.99998012" y="337.99999030000004" width="53.00000519999992" height="27.99999342000001" class="text">which </text>
<text x="786.9999506800001" y="335.99999811" width="35.00005715999987" height="26.999984479999966" class="text">case </text>
<text x="829.00001616" y="335.00001485999996" width="41.9999565600001" height="27.00001016999994" class="text">such </text>
<text x="879.0000378000001" y="332.99997128999996" width="18.999989239999877" height="25.99997553999998" class="text">an </text>
<text x="909.000029" y="332.00001373000003" width="42.99993552000001" height="26.00002692000004" class="text">entry </text>
<text x="961.0000085600001" y="330.9999791" width="45.999950199999944" height="26.999984480000023" class="text">shall </text>
<text x="1009.99997344" y="328.99998691" width="24.00005520000002" height="26.999984480000023" class="text">be </text>
<text x="1042.99997932" y="328.00000366" width="43.00002888000017" height="27.000010169999996" class="text">made </text>
<text x="1092.00003756" y="325.99998578" width="14.99999559999992" height="24.999992289999966" class="text">in </text>
<text x="1114.00004148" y="325.99998578" width="28.999918880000223" height="26.999984479999966" class="text">the </text>
<text x="1148.99998972" y="325.00000253" width="105.00003143999993" height="29.000002359999996" class="text">appropriate 
</text>
<text x="1258.0000148" y="320.99999246" width="51.999995119999994" height="26.999984479999966" class="text">space</text>
<text x="1309.00003096" y="319.00000027" width="7.999987280000141" height="24.999992289999966" class="text">. </text>
<text x="1320.99999632" y="319.00000027" width="14.99999559999992" height="24.999992289999966" class="text">If </text>
<text x="1339.99998556" y="319.00000027" width="76.00003476000006" height="27.999993419999953" class="text">addition-
</text>
<text x="151.999996388" y="380.00000611999997" width="20.000010212000007" height="26.99998447999991" class="text">al </text>
<text x="174.99999016" y="378.99999718" width="51.999995119999994" height="27.000010169999996" class="text">space </text>
<text x="232.99999907999998" y="377.00000499000004" width="14.999995600000034" height="25.000017980000052" class="text">is </text>
<text x="254.00000848000002" y="377.00000499000004" width="62.99999707999996" height="28.00001911000004" class="text">needed </text>
<text x="324.99999284" y="374.99998711" width="29.00001223999999" height="26.999984480000023" class="text">for </text>
<text x="358.99999324000004" y="372.99999491999995" width="35.99998943999998" height="26.000001229999953" class="text">any </text>
<text x="401.999991" y="371.99998597999996" width="36.99999951999996" height="26.99998447999991" class="text">item</text>
<text x="440.99997956000004" y="371.00000273" width="8.00003395999994" height="24.999992289999966" class="text">, </text>
<text x="451.99998152000006" y="371.00000273" width="55.00000979999999" height="27.99999342000001" class="text">attach </text>
<text x="515.00000972" y="369.00001054" width="126.99998868" height="30.000011299999983" class="text">supplemental 
</text>
<text x="645.00002864" y="364.00001722" width="45.999996880000026" height="26.000026919999982" class="text">sheet </text>
<text x="697.9999871599999" y="362.99998259" width="99.99996548000001" height="28.999976670000024" class="text">identifying </text>
<text x="802.00003964" y="358.99999820999994" width="39.99992084000007" height="26.000026919999982" class="text">each </text>
<text x="854.0000192" y="358.00001496000004" width="36.999999520000074" height="27.000035860000025" class="text">item</text>
<text x="892.99996108" y="355.99999708" width="8.000080640000078" height="25.000017979999996" class="text">,
</text>
<text x="1042.00000036" y="392.00001064" width="21.00002496000002" height="23.000000100000022" class="text">2. </text>
<text x="1074.0000272799998" y="391.00000170000004" width="148.9999459200003" height="26.000026920000096" class="text">REGISTRATION </text>
<text x="1230.99996048" y="387.00001732" width="31.000047960000074" height="23.000000099999966" class="text">NO</text>
<text x="1263.9999663600001" y="385.99998268999997" width="7.000008319999779" height="21.000007910000022" class="text">.
</text>
<text x="94.00000147200001" y="417.99998617999995" width="16.999998643999987" height="17.99998108999995" class="text">1. </text>
<text x="124.999994972" y="417.99998617999995" width="54.99999890800001" height="19.99999896999998" class="text">NAME </text>
<text x="187.99999672" y="415.99999399" width="30.00000676000002" height="19.99999896999998" class="text">OF </text>
<text x="224.99999624" y="415.00001074" width="130.99999788" height="21.000007910000022" class="text">REGISTRANT
</text>
<text x="1170.00001468" y="444.00001310000005" width="66.99997516000008" height="30.00001130000004" class="text">2278
</text>
<text x="137.0000039" y="474.99998196" width="92.00000154000003" height="38.99998899999997" class="text">World </text>
<text x="248.9999892" y="472.00000652" width="128.00001432000002" height="38.99998900000003" class="text">Zionist </text>
<text x="390.99998904000006" y="469.00000539" width="223.00002275999998" height="42.000015820000044" class="text">Organization</text>
<text x="618.00000544" y="463.00000313000004" width="11.000001959999963" height="36.00001356000007" class="text">-</text>
<text x="631.9999754" y="463.00000313000004" width="147.00000355999998" height="38.99998900000003" class="text">American </text>
<text x="799.00002496" y="458.99999306" width="124.00002068000003" height="39.00001469" class="text">Section</text>
<text x="931.0000329200001" y="456.00001762" width="11.00000195999985" height="36.000039249999986" class="text">, </text>
<text x="946.9999919200001" y="456.00001762" width="74.99996243999988" height="39.00001469" class="text">Inc.
</text>
<text x="96.00000296" y="515.99998884" width="19.000000131999997" height="24.999992290000023" class="text">3. </text>
<text x="127.00000112800001" y="515.00000559" width="85.99999863199997" height="26.999984480000023" class="text">NATURE </text>
<text x="221.0000026" y="512.00000446" width="27.9999866" height="25.000017979999996" class="text">OF </text>
<text x="256.99999204" y="512.00000446" width="107.00002047999999" height="28.00001911000004" class="text">MATERIAL </text>
<text x="369.9999952" y="507.99999439" width="8.00000283999998" height="24.00000904000001" class="text">(</text>
<text x="381.99999168" y="507.99999439" width="8.000033959999996" height="24.00000904000001" class="text">A </text>
<text x="400.00000196" y="507.99999439" width="73.00000452" height="26.999984479999966" class="text">consise </text>
<text x="479.00000472" y="506.0000022" width="70.99999992000005" height="26.999984480000023" class="text">account </text>
<text x="559.0000175600001" y="503.00000107000005" width="18.99998923999999" height="23.999983350000093" class="text">of </text>
<text x="583.9999894800001" y="503.00000107000005" width="28.00003327999991" height="26.000026920000096" class="text">the </text>
<text x="614.0000118" y="502.00001782" width="61.99997143999997" height="27.00003585999997" class="text">nature </text>
<text x="684.0000172" y="499.99997425" width="18.999973679999925" height="23.99998334999998" class="text">of </text>
<text x="708.99998912" y="499.00001669" width="28.000033280000025" height="25.000017979999996" class="text">the </text>
<text x="743.99998404" y="499.00001669" width="103.00002684000003" height="28.00001911000004" class="text">propaganda </text>
<text x="858.00001284" y="495.99998987000004" width="74.9999624400001" height="26.999984480000023" class="text">material
</text>
<text x="138.000001532" y="595.00000147" width="94.00000302800001" height="35.99998787000004" class="text">Press </text>
<text x="252.00000387999998" y="592.00000034" width="124.00000512000005" height="37.0000225" class="text">Release
</text>
<text x="796.99998924" y="611.99997362" width="18.99997368000004" height="21.999965470000006" class="text">5. </text>
<text x="819.99995656" y="611.00001606" width="56.00006655999994" height="21.999991160000036" class="text">NAME </text>
<text x="884.99998936" y="609.9999814299999" width="28.000033280000025" height="23.000000099999966" class="text">OF </text>
<text x="921.00000992" y="608.99999818" width="89.99994247999996" height="24.00000904000001" class="text">FOREIGN </text>
<text x="1021.99995436" y="607.00000599" width="109.00002508000011" height="24.99999228999991" class="text">PRINCIPAL </text>
<text x="1141.9999814" y="602.99999592" width="25.000018599999976" height="21.999991159999922" class="text">ON </text>
<text x="1174.99998728" y="602.99999592" width="64.00005384000019" height="23.99998334999998" class="text">WHOSE </text>
<text x="1247.9999917999999" y="600.99997804" width="84.99998544000005" height="23.99995765999995" class="text">BEHALF </text>
<text x="1340.99996452" y="598.99998585" width="43.000028879999945" height="23.00000010000008" class="text">THIS
</text>
<text x="819.99995656" y="630.0000060899999" width="107.00008272000002" height="24.000009039999895" class="text">MATERIAL </text>
<text x="934.0000476" y="627.00000496" width="39.99992084000007" height="21.999991159999922" class="text">WAS </text>
<text x="983.0000124800001" y="625.99999602" width="139.00001627999995" height="25.000017980000052" class="text">TRANSMITTED</text>
<text x="1126.9999858" y="621.00002839" width="7.000008319999779" height="20.000050350000038" class="text">.
</text>
<text x="96.00000296" y="630.99998934" width="19.999997764000014" height="17.999981090000006" class="text">4. </text>
<text x="129.99999558" y="630.99998934" width="61.00000026000001" height="19.99997327999995" class="text">TITLE </text>
<text x="199.9999932" y="628.99999715" width="25.999997560000025" height="17.999981090000006" class="text">OF </text>
<text x="232.99999907999998" y="628.99999715" width="107.00000492000001" height="21.000007910000022" class="text">MATERIAL</text>
<text x="346.00000224" y="625.99999602" width="5.000003719999995" height="18.000006780000035" class="text">. </text>
<text x="357.00000420000003" y="625.99999602" width="17.00000019999993" height="18.000006780000035" class="text">IF </text>
<text x="387.00001096" y="625.99999602" width="39.99999864" height="19.99999896999998" class="text">ANY
</text>
<text x="144.000001328" y="716.0000299200001" width="181.99998603200004" height="37.00004819000014" class="text">Solidarity </text>
<text x="346.00000224" y="710.00000197" width="127.99998320000003" height="35.00000461999991" class="text">Seminar </text>
<text x="495.99998936000003" y="704.99995727" width="29.00001223999999" height="31.99997780000001" class="text">in </text>
<text x="550.9999836000001" y="703.9999997100001" width="165.00001383999995" height="36.99997112000017" class="text">Jerusalem
</text>
<text x="894.0000334" y="696.00000526" width="91.99999376000005" height="35.99998786999993" class="text">World </text>
<text x="1008.00003108" y="693.99998738" width="123.99992731999998" height="36.999971120000055" class="text">Zionist </text>
<text x="1152.99998336" y="689.9999773100001" width="216.00001443999986" height="38.99998900000003" class="text">Organization
</text>
<text x="104.000002688" y="756.00002786" width="19.99999309600001" height="21.99999116000015" class="text">6. </text>
<text x="132.000003292" y="756.00002786" width="71.99998354799999" height="24.000034730000152" class="text">MEANS </text>
<text x="210.00000063999997" y="754.9999675400001" width="26.999992080000055" height="21.99999116000015" class="text">OF </text>
<text x="247.00000015999998" y="754.9999675400001" width="143.99998888000007" height="23.99995765999995" class="text">TRANSMISSION
</text>
<text x="601.99999976" y="742.00000546" width="21.000024959999905" height="21.000007910000022" class="text">7. </text>
<text x="636.0000157200001" y="741.0000479" width="66.99997515999985" height="22.000068230000124" class="text">DATES </text>
<text x="708.99998912" y="739.00000433" width="32.00001136000003" height="21.000007910000136" class="text">OF </text>
<text x="748.0000087999999" y="736.99996076" width="143.99998888000016" height="24.999992290000023" class="text">TRANSMISSION
</text>
<text x="1108.00001212" y="725.99996518" width="21.99998835999986" height="19.999947590000033" class="text">8. </text>
<text x="1144.00001712" y="725.99996518" width="63.99996048000003" height="21.999965469999893" class="text">TOTAL </text>
<text x="1218.99997956" y="724.00002437" width="73.00002008000001" height="21.999991160000036" class="text">COPIES </text>
<text x="1301.00004368" y="722.99996405" width="139.99999523999986" height="23.999931970000034" class="text">TRANSMITTED
</text>
<text x="144.99999896" y="835.9999723599999" width="75.00000912000002" height="29.999959919999924" class="text">Mail
</text>
<text x="697.0000082" y="823.00003597" width="73.99998347999997" height="33.00006381000003" class="text">Feb. </text>
<text x="793.999959" y="820.00000915" width="29.000012239999933" height="31.000020240000026" class="text">19</text>
<text x="832.00003084" y="818.99997452" width="9.999929640000005" height="29.999985610000067" class="text">, </text>
<text x="865.0000211600001" y="818.99997452" width="73.99998347999997" height="32.999986740000054" class="text">1991
</text>
<text x="1159.99999168" y="809.0000135700001" width="50.00003719999995" height="27.99999342000001" class="text">120
</text>
<text x="800.9999828800001" y="855.99999702" width="29.999975640000002" height="23.000025789999995" class="text">10. </text>
<text x="841.99996048" y="855.0000394599999" width="47.0000225199999" height="23.00005147999991" class="text">LIST </text>
<text x="896.99995472" y="852.9999958899999" width="78.00007047999998" height="22.999974409999936" class="text">STATES </text>
<text x="982.00003352" y="850.9999523199999" width="42.99993552000001" height="22.999948719999907" class="text">AND </text>
<text x="1031.99997736" y="849.9999947599999" width="139.00001627999995" height="25.999975539999923" class="text">TERRITORIES </text>
<text x="1177.000023" y="845.99998469" width="27.99993991999986" height="22.99994872000002" class="text">OF </text>
<text x="1214.00002252" y="845.00002713" width="38.99994188000005" height="23.00005147999991" class="text">THE </text>
<text x="1261.00002948" y="844.00004388" width="78.99995607999995" height="24.00003473000004" class="text">UNITED </text>
<text x="1346.00001492" y="841.00001706" width="75.9999413999999" height="23.000025789999995" class="text">STATES </text>
<text x="1431.99997932" y="838.9999991799999" width="24.000039640000068" height="22.999974409999936" class="text">TO
</text>
<text x="843.0000328" y="874.0000038000001" width="60.99993024000014" height="21.99999116000015" class="text">WHICH </text>
<text x="914.0000016" y="871.99996023" width="106.99997380000002" height="22.99994872000002" class="text">MATERIAL </text>
<text x="1031.99997736" y="869.0000361699999" width="35.00004160000003" height="21.00000790999991" class="text">WAS </text>
<text x="1075.9999852" y="867.9999758499999" width="141.0000520000001" height="23.99993196999992" class="text">TRANSMITTED
</text>
<text x="1222.9999732" y="863.00000822" width="6.000029359999871" height="18.99996434000002" class="text">:
</text>
<text x="105.999999508" y="874.9999870500001" width="16.999998643999987" height="18.99999003000005" class="text">9. </text>
<text x="139.999998352" y="874.0000038000001" width="44.00000472799999" height="20.000024660000122" class="text">LIST </text>
<text x="190.99999584" y="873.00002055" width="117.00001235999997" height="23.00002579000011" class="text">ADDRESSES </text>
<text x="318.00001564" y="869.0000361699999" width="50.999985039999956" height="20.000024659999895" class="text">FROM </text>
<text x="381.99999168" y="867.9999758499999" width="60.99999248" height="21.999991159999922" class="text">WHICH </text>
<text x="456.00002184" y="866.0000093499999" width="40.99997760000002" height="20.99998221999988" class="text">THIS </text>
<text x="506.00001235999997" y="864.99997472" width="104.99998476000002" height="22.999974409999936" class="text">MATERIAL </text>
<text x="621.99999908" y="860.99996465" width="38.0000096" height="19.999947590000033" class="text">WAS
</text>
<text x="140.99999598399998" y="892.99996814" width="140.99999909599998" height="21.999965470000006" class="text">TRANSMITTED</text>
<text x="286.00000428" y="888.99998376" width="4.999988159999987" height="17.000023529999908" class="text">:
</text>
<text x="153.000004912" y="958.0000354399999" width="50.99998192799998" height="31.000020239999913" class="text">110 </text>
<text x="221.99999712" y="955.9999918699999" width="71.99999444000002" height="31.000020239999913" class="text">East </text>
<text x="317.00000556" y="953.99997399" width="70.00000540000002" height="30.999943169999938" class="text">59th </text>
<text x="409.99997828" y="952.00000749" width="105.00003143999999" height="31.000020240000026" class="text">Street
</text>
<text x="149.00000193600002" y="988.99997861" width="52.99999586399997" height="29.999959920000038" class="text">New </text>
<text x="224.00000171999997" y="987.99999536" width="69.99998984000004" height="31.000020240000026" class="text">York</text>
<text x="307.00001368" y="987.00001211" width="7.999971719999962" height="28.999976670000024" class="text">, </text>
<text x="332.99999568" y="984.00001098" width="38.99998856000002" height="32.000003489999926" class="text">NY </text>
<text x="390.99998904000006" y="983.0000277299999" width="91.00003035999993" height="33.000063809999915" class="text">10022
</text>
<text x="924.999988" y="972.0000321499999" width="178.00005151999994" height="38.00003143999993" class="text">Throughout </text>
<text x="1126.0000224" y="967.9999707" width="48.99996487999988" height="34.99992755000005" class="text">the </text>
<text x="1195.00003328" y="966.99998745" width="128.9999932799999" height="36.99997112000017" class="text">country
</text>
<text x="99.999999712" y="1065.0000158" width="28.000000604000007" height="21.000007910000022" class="text">11. </text>
<text x="144.000001328" y="1063.99995548" width="65.99999931199997" height="21.999965470000006" class="text">TYPES </text>
<text x="217.00000896" y="1062.00001467" width="26.99999208" height="20.00002466000001" class="text">OF </text>
<text x="252.9999984" y="1062.00001467" width="124.00000512" height="23.00005147999991" class="text">RECIPIENTS </text>
<text x="388.00000547999997" y="1058.00003029" width="4.999988159999987" height="19.000067100000024" class="text">(</text>
<text x="394.99998268" y="1058.00003029" width="41.00003984" height="20.000050350000038" class="text">Oive </text>
<text x="443.99999424" y="1056.99996997" width="66.00001176" height="21.999991160000036" class="text">number </text>
<text x="517.99999328" y="1055.00000347" width="19.99999932000003" height="18.999964339999906" class="text">of </text>
<text x="541.99998624" y="1055.00000347" width="125.00003075999996" height="23.00002578999988" class="text">organisations </text>
<text x="675.99998324" y="1051.00001909" width="15.000042280000002" height="19.000041409999994" class="text">in </text>
<text x="699.9999762" y="1051.00001909" width="40.00001420000001" height="20.00002466000001" class="text">each
</text>
<text x="806.00003328" y="1045.99997439" width="31.99993355999993" height="21.999991160000036" class="text">12. </text>
<text x="848.9999688" y="1044.99999114" width="45.00006459999997" height="21.999991160000036" class="text">LIST </text>
<text x="902.0000206799999" y="1043.00002464" width="67.9999541200001" height="22.000042540000095" class="text">NAMES </text>
<text x="979.0000188399999" y="1041.00000676" width="40.99999316000003" height="21.000007909999795" class="text">AND </text>
<text x="1027.99998372" y="1040.00002351" width="113.99999767999998" height="24.000009039999895" class="text">ADDRESSES </text>
<text x="1149.99996868" y="1036.00003913" width="30.000069000000167" height="21.000007910000022" class="text">OF </text>
<text x="1185.99998924" y="1034.99997881" width="93.00005051999983" height="22.999974409999936" class="text">PERSONS </text>
<text x="1284.00001236" y="1031.99997768" width="29.999975640000002" height="20.999930840000047" class="text">OR </text>
<text x="1320.00003292" y="1031.99997768" width="164.99999828" height="25.999975539999923" class="text">ORGANIZATIONS
</text>
<text x="848.9999688" y="1065.0000158" width="113.00001871999984" height="24.000009040000123" class="text">RECEIVING </text>
<text x="972.9999894800001" y="1061.0000314200001" width="29.00001223999982" height="21.00000791000025" class="text">100 </text>
<text x="1009.00001004" y="1059.9999711" width="73.99998348000008" height="22.99994872000002" class="text">COPIES </text>
<text x="1086.99998716" y="1056.99996997" width="27.00005431999989" height="20.999930839999934" class="text">OR </text>
<text x="1119.00001408" y="1056.99996997" width="62.000002559999984" height="22.99997441000005" class="text">MORE</text>
<text x="1180.00003768" y="1055.00000347" width="6.999914959999842" height="20.00002466000001" class="text">:
</text>
<text x="146.999994224" y="1161.00002627" width="109.00000329599999" height="21.999991160000036" class="text">LIBRARIES</text>
<text x="258.00000212" y="1157.99999945" width="5.000003719999995" height="17.999981089999892" class="text">,
</text>
<text x="146.999994224" y="1222.99998968" width="77.00000749599997" height="21.999991160000036" class="text">PUBLIC </text>
<text x="232.99999907999998" y="1221.00002318" width="113.99999768" height="23.00002578999988" class="text">OFFICIALS</text>
<text x="347.99999128" y="1217.0000388" width="6.0000137999999765" height="19.000041409999994" class="text">.
</text>
<text x="148.00000430400002" y="1286.00001341" width="134.99998529599998" height="24.000034730000152" class="text">NEWSPAPERS
</text>
<text x="366.00000156" y="1289.0000145400002" width="48.000017040000046" height="27.999993420000237" class="text">130
</text>
<text x="150.999998756" y="1345.00002707" width="62.99999552400001" height="21.00008498000011" class="text">PRESS </text>
<text x="221.99999712" y="1342.9999321199998" width="101.00000668000001" height="20.999930839999706" class="text">SERVICES </text>
<text x="329.00000204" y="1340.0000594399999" width="28.99999667999998" height="19.000118479999855" class="text">OF
</text>
<text x="151.999996388" y="1365.9999579100001" width="146.00000437200003" height="23.000025790000336" class="text">ASSOCIATIONS
</text>
<text x="153.000004912" y="1427.99999839" width="147.999994968" height="23.00002579000011" class="text">EDUCATIONAL
</text>
<text x="151.999996388" y="1449.9999895499998" width="145.000009852" height="24.99999228999991" class="text">INSTITUTIONS
</text>
<text x="156.99999544" y="1510.9999697100002" width="51.00001616" height="20.99993084000016" class="text">CIVIC </text>
<text x="219.00001355999999" y="1509.9999350800001" width="83.99997536000004" height="21.999991160000263" class="text">GROUPS</text>
<text x="307.00001368" y="1507.0000624" width="4.9999881600000435" height="19.000118480000083" class="text">,
</text>
<text x="156.00000092000002" y="1573.00003588" width="69.99998984000001" height="25.000017980000166" class="text">OTHER </text>
<text x="235.9999982" y="1571.00006938" width="7.000008320000035" height="22.000145299999986" class="text">(</text>
<text x="244.00000104" y="1571.00006938" width="65.00000168" height="24.000086109999984" class="text">specify</text>
<text x="312.99999636" y="1568.99994874" width="7.000008320000006" height="21.999965470000006" class="text">)</text>
<text x="321.99999372" y="1568.99994874" width="7.000008320000006" height="21.999965470000006" class="text">.
</text>
<text x="117.999997544" y="1699.0000576500001" width="30.00000676000002" height="23.000025790000336" class="text">13. </text>
<text x="160.00001011999998" y="1697.99999733" width="17.999994720000018" height="21.999965470000234" class="text">IF </text>
<text x="190.99999584" y="1696.9999627" width="39.00000412" height="22.99989733999996" class="text">THE </text>
<text x="237.99998724" y="1696.00005652" width="106.00001040000001" height="24.99999228999991" class="text">MATERIAL </text>
<text x="357.00000420000003" y="1693.0000297" width="143.99998888" height="26.000052609999784" class="text">TRANSMITTED </text>
<text x="504.99998672" y="1688.0000620700002" width="38.99998856000008" height="22.000119610000183" class="text">WAS </text>
<text x="553.99999828" y="1687.0000274400002" width="7.000008320000006" height="21.00008498000011" class="text">A </text>
<text x="576.0000021999999" y="1685.99996712" width="44.999971240000036" height="21.999991160000036" class="text">FILM </text>
<text x="631.0000120000001" y="1684.00000062" width="27.99998659999983" height="21.999991160000036" class="text">OR </text>
<text x="667.000017" y="1684.00000062" width="60.99999248000006" height="23.999931970000034" class="text">RADIO </text>
<text x="737.0000224" y="1680.99999949" width="31.999980240000014" height="21.999991160000036" class="text">OR </text>
<text x="776.0000109599999" y="1680.99999949" width="122.00001608000002" height="24.99999228999991" class="text">TELEVISION </text>
<text x="906.9999932799999" y="1676.99993804" width="75.00004024000009" height="23.999957659999836" class="text">SCRIPT</text>
<text x="984.9999548400001" y="1674.99997154" width="7.000008319999893" height="20.999930839999934" class="text">, </text>
<text x="998.99998704" y="1674.00006536" width="82.0000485600001" height="23.00002579000011" class="text">FURNISH </text>
<text x="1097.0000101599999" y="1671.9999447199998" width="36.000020560000166" height="22.999871649999704" class="text">THE </text>
<text x="1144.00001712" y="1671.0000642300001" width="117.00001236000003" height="25.000017980000166" class="text">FOLLOWING </text>
<text x="1269.0000167599999" y="1666.9999770900001" width="136.99996499999997" height="26.00005261000024" class="text">INFORMATION</text>
<text x="1409.9999754" y="1663.00006978" width="7.000008320000006" height="21.00008498000011" class="text">:
</text>
<text x="1272.0000314400002" y="1752.9999752299998" width="108.99993171999972" height="31.000020239999913" class="text">ESTIMATED </text>
<text x="1394.99999536" y="1749.9999484100001" width="136.9999650000002" height="31.999900730000036" class="text">ATTENDANCE
</text>
<text x="1279.00003976" y="1771.99993957" width="23.999961840000196" height="21.99999115999981" class="text">for </text>
<text x="1310.00000992" y="1771.00003339" width="43.00001332000011" height="21.999965470000006" class="text">flass</text>
<text x="1357.99999584" y="1769.9999987600002" width="6.000029359999871" height="20.99993084000016" class="text">)
</text>
<text x="869.99999376" y="1762.0000043100001" width="59.999966839999956" height="23.000025790000336" class="text">DATE </text>
<text x="935.99998996" y="1760.0000635" width="25.999997559999883" height="21.999991160000036" class="text">OR </text>
<text x="971.0000315599999" y="1760.0000635" width="70.00000540000008" height="24.000111800000013" class="text">DATES </text>
<text x="1046.9999729600002" y="1757.99994286" width="123.0000417199999" height="24.99999228999991" class="text">BROADCAST
</text>
<text x="870.9999727200001" y="1782.0000289700001" width="30.000069000000053" height="21.00008498000011" class="text">OR </text>
<text x="909.000029" y="1780.99999434" width="64.99993944000005" height="23.999957660000064" class="text">SHOWN
</text>
<text x="160.00001011999998" y="1779.99993402" width="60.99999248" height="21.999991160000036" class="text">NAME </text>
<text x="226.99998528" y="1777.99996752" width="30.00000675999999" height="20.999930839999934" class="text">OF </text>
<text x="264.00000036" y="1777.00006134" width="87.00000560000001" height="22.000119610000183" class="text">STATION</text>
<text x="354.00000508" y="1774.99996639" width="6.999977199999989" height="20.000024660000236" class="text">, </text>
<text x="366.99999608" y="1774.99996639" width="154.00001187999993" height="25.00001797999994" class="text">ORGANIZATION</text>
<text x="526.00001168" y="1769.9999987600002" width="6.999961640000038" height="20.000050350000038" class="text">, </text>
<text x="539.00001824" y="1769.9999987600002" width="26.999960959999953" height="21.999991160000036" class="text">OR </text>
<text x="578.0000068" y="1768.9999384399998" width="97.99997643999995" height="23.999957659999836" class="text">THEATER </text>
<text x="682.99999156" y="1766.0000657599999" width="62.000002559999984" height="22.000119609999956" class="text">USING
</text>
<text x="174.99999016" y="1802.9999598099998" width="84.00000648" height="24.99999228999991" class="text">including </text>
<text x="266.99999948" y="1801.0000189999998" width="33.00000588" height="23.999957659999836" class="text">City </text>
<text x="313.99999088" y="1799.0000524999998" width="29.000012240000046" height="24.000086109999756" class="text">and </text>
<text x="349.99999588000003" y="1797.9999921800002" width="50.00000607999999" height="23.00002579000011" class="text">State</text>
<text x="397.99999735999995" y="1796.99993186" width="7.000008320000006" height="21.999965470000006" class="text">)
</text>
<text x="848.9999688" y="1966.99996164" width="39.00003523999999" height="173.99993709" class="text">REGISTRATION </text>
<text x="857.00004944" y="2038.0000312000002" width="33.99996928000007" height="60.00007398000025" class="text">UNEY
</text>
<text x="876.0000231199999" y="1961.99999401" width="36.999999520000074" height="99.9999948499999" class="text">SECTION
</text>
<text x="902.9999996399999" y="1902.99995466" width="36.99998396000001" height="123.99992681999993" class="text">INTERNAL </text>
<text x="907.9999566800001" y="2011.99997859" width="36.000020559999825" height="95.00002721999999" class="text">SECURI
</text>
<text x="976.00000416" y="1805.99998663" width="36.00002055999994" height="26.999958789999937" class="text">91 </text>
<text x="977.99994652" y="1880.00005732" width="38.00007184000003" height="41.999990130000015" class="text">FEB </text>
<text x="980.99997676" y="1926.00000614" width="36.00000499999999" height="32.99998673999994" class="text">26 </text>
<text x="983.9999914399999" y="1996.00001538" width="36.99998396000012" height="46.00007727000002" class="text">P1</text>
<text x="984.9999548400001" y="2007.0000109599998" width="35.00005715999987" height="12.00005589999978" class="text">:</text>
<text x="986.0000271600001" y="2042.9999988299999" width="36.999999520000074" height="40.00004931999979" class="text">03
</text>
<text x="1060.9999896000002" y="1905.99995579" width="35.000041599999804" height="119.99999381999987" class="text">CRIMINAL </text>
<text x="1064.00000428" y="2027.00003562" width="34.99994823999987" height="107.00005742999997" class="text">DIVISION
</text>
<text x="1086.99998716" y="1861.99999916" width="33.99996927999996" height="67.00000810999995" class="text">DEPT </text>
<text x="1090.00000184" y="1907.0000161100002" width="32.00002691999998" height="35.99998787000004" class="text">OF </text>
<text x="1092.00003756" y="2019.00006686" width="35.9999272" height="98.0000283500001" class="text">JUSTICE
</text>
<text x="1119.00001408" y="1968.00002196" width="30.99995459999991" height="124.0001066499999" class="text">RECEIVED
</text>
<text x="1266.00000208" y="2171.0000127900003" width="25.999997559999883" height="15.99996321000026" class="text">NO
</text>
<text x="135.99999382000001" y="2205.9999403399997" width="31.000009059999996" height="31.99992641999961" class="text">14. </text>
<text x="174.99999016" y="2205.00003416" width="60.00001351999998" height="31.000020239999685" class="text">HAVE </text>
<text x="247.00000015999998" y="2203.9999738399997" width="39.00000412" height="31.99992641999961" class="text">TWO </text>
<text x="292.99999704000004" y="2202.99991352" width="76.00000363999993" height="32.99996104999991" class="text">COPIES </text>
<text x="377.00000352" y="2200.99997271" width="28.99998112000003" height="31.000020239999685" class="text">OF </text>
<text x="414.99999756" y="2200.00006653" width="43.00001332000005" height="31.000020239999685" class="text">THIS </text>
<text x="464.00000912" y="2199.0000062100003" width="110.00000403999996" height="32.00008056000024" class="text">MATERIAL </text>
<text x="581.00002148" y="2197.0000654" width="54.99999424000009" height="32.00008056000024" class="text">BEEN </text>
<text x="645.99999204" y="2196.00000508" width="62.99999707999996" height="31.999926420000065" class="text">FILED </text>
<text x="717.9999864800001" y="2194.00003858" width="47.0000225199999" height="32.00008055999979" class="text">WITH </text>
<text x="778.0" y="2192.99997826" width="39.00003523999999" height="31.000020239999685" class="text">THE </text>
<text x="824.0000435599999" y="2191.99994363" width="145.99993124000014" height="33.99989292000009" class="text">DEPARTMENT </text>
<text x="976.99998312" y="2189.00007095" width="29.000012239999933" height="32.00008056000024" class="text">OF </text>
<text x="1013.0000036800001" y="2188.00001063" width="83.00002751999989" height="32.00008055999979" class="text">JUSTICE</text>
<text x="1098.9999525199999" y="2186.00006982" width="10.000023000000056" height="30.000139750000017" class="text">? </text>
<text x="1126.9999858" y="2186.00006982" width="44.00000783999985" height="32.00008056000024" class="text">YES </text>
<text x="1180.00003768" y="2185.0000095" width="9.999945199999956" height="29.999959920000038" class="text">✓
</text>
<text x="872.00002948" y="2233.00005327" width="38.99994188000005" height="18.999990029999935" class="text">YES
</text>
<text x="990.99999976" y="2230.00002645" width="29.000012239999933" height="20.00002465999978" class="text">NO
</text>
<text x="135.99999382000001" y="2249.00001648" width="30.000014539999995" height="20.999930839999706" class="text">15. </text>
<text x="176.00000024" y="2247.9999561600002" width="41.00000872000001" height="19.99987052000006" class="text">HAS </text>
<text x="229.00000544000002" y="2247.00004998" width="41.999987679999975" height="21.000084979999883" class="text">THIS </text>
<text x="278.00000144" y="2245.99998966" width="107.00000492000004" height="20.99993084000016" class="text">MATERIAL </text>
<text x="394.00001928" y="2244.00002316" width="53.99996859999999" height="21.00005929000008" class="text">BEEN </text>
<text x="458.99998983999996" y="2242.99998853" width="97.00001304000006" height="21.99999115999981" class="text">LABELED </text>
<text x="568.00001492" y="2239.9999617099998" width="24.00000852000005" height="20.00002465999978" class="text">AS </text>
<text x="594.99999144" y="2239.9999617099998" width="104.99998475999996" height="21.99999115999981" class="text">REQUIRED </text>
<text x="706.00000556" y="2236.9999605800003" width="24.999971920000007" height="20.000024660000236" class="text">BY </text>
<text x="744.99999412" y="2236.0000544" width="40.000014199999896" height="20.00002465999978" class="text">THE </text>
<text x="789.0000019600001" y="2234.9999940800003" width="43.000028879999945" height="20.000024660000236" class="text">ACT</text>
<text x="836.9999878799999" y="2233.9999337599997" width="4.999972600000092" height="18.99996433999968" class="text">!
</text>
<text x="961.9999875199999" y="2289.99997198" width="114.99996108000005" height="26.99995878999971" class="text">SIGNATURE
</text>
<text x="1087.9999505600001" y="2366.00000917" width="126.00007195999979" height="176.99993821999988" class="text">For
</text>
<text x="137.0000039" y="2302.00000219" width="55.00000202000001" height="18.999964340000133" class="text">DATE </text>
<text x="201.9999978" y="2300.99996756" width="26.000013120000006" height="17.999929710000288" class="text">OF </text>
<text x="237.99998724" y="2300.99996756" width="85.00001656" height="20.000050350000492" class="text">REPORT
</text>
<text x="351.00000596" y="2297.0000345599997" width="56.000004320000016" height="18.000058159999753" class="text">NAME </text>
<text x="418.00001224" y="2295.99997424" width="40.999977599999966" height="18.999964340000133" class="text">AND </text>
<text x="465.99999815999996" y="2294.99993961" width="62.99998152000006" height="18.999990029999935" class="text">TITLE
</text>
<text x="1136.0000453999999" y="2356.00007391" width="86.99992780000025" height="87.00003277000042" class="text">all </text>
<text x="1236.9999898400001" y="2350.99995214" width="51.99999511999977" height="83.99987749999991" class="text">C. </text>
<text x="1281.99996108" y="2350.00004596" width="121.00000599999998" height="88.00009309000006" class="text">Blo
</text>
<text x="138.000001532" y="2377.0000047500002" width="131.99999706800003" height="40.00004932000047" class="text">2/21/91
</text>
<text x="358.99999324000004" y="2367.99997567" width="57.00001439999994" height="39.000014689999716" class="text">Sam </text>
<text x="429.0000142" y="2366.00000917" width="40.999977599999966" height="37.999954369999614" class="text">E. </text>
<text x="482.9999828" y="2364.00004267" width="91.99999375999994" height="38.999988999999914" class="text">Bloch </text>
<text x="596.99998048" y="2361.00004154" width="52.00002624000001" height="37.00004819000014" class="text">Dir</text>
<text x="656.999994" y="2358.9999209000002" width="11.000001959999963" height="35.99998787000004" class="text">. </text>
<text x="684.9999806000001" y="2358.00004041" width="40.00001420000001" height="37.00004819000014" class="text">of </text>
<text x="739.00001144" y="2356.99998009" width="223.99995504000003" height="43.99998232000007" class="text">Publications
</text>
<text x="1346.99999388" y="2400.00003054" width="36.999999520000074" height="15.00005702999988" class="text">form
</text>
</g>
</svg>
