<svg xmlns="http://www.w3.org/2000/svg">
<style>.text { font-size: 14px; font-family: Arial, sans-serif; }</style>
<g id="page-0" transform="translate(0, 0)">
<rect width="1758" height="2274" fill="none" stroke="black" />
<text x="1525.0000419" y="129.99999789" width="42.99997680000001" height="16.000002714000004" class="text">OMB </text>
<text x="1574.9999703600001" y="129.99999789" width="27.0000496199998" height="16.000002714000004" class="text">No. </text>
<text x="1608.99997164" y="129.99999789" width="67.99998498000014" height="16.999996488000008" class="text">1105-0006
</text>
<text x="889.0000489800001" y="147.0000012" width="160.9999957199999" height="31.000004832000002" class="text">Dissemination </text>
<text x="1065.00002148" y="148.000006344" width="79.00000193999995" height="30.000011058000027" class="text">Report
</text>
<text x="101.999996808" y="155.00000142000002" width="51.000001919999974" height="32.000000880000016" class="text">U.S. </text>
<text x="162.000005892" y="155.00000142000002" width="146.99997988799998" height="33.99999979800002" class="text">Department </text>
<text x="322.00000902" y="152.999993406" width="22.99998432000001" height="31.999991783999988" class="text">of </text>
<text x="356.00001030000004" y="152.999993406" width="80.99997305999995" height="32.99999692799999" class="text">Justice
</text>
<text x="101.000002458" y="196.000007664" width="132.00000838199998" height="33.000006024000015" class="text">Washington</text>
<text x="236.99998824000002" y="192.999994506" width="9.000010679999974" height="28.999987722000014" class="text">, </text>
<text x="250.99999703999998" y="192.000007554" width="42.999994379999976" height="30.000008784000016" class="text">DC </text>
<text x="305.99999393999997" y="192.000007554" width="68.00000256000004" height="31.000013928000016" class="text">20530
</text>
<text x="99.999999318" y="294.0000024" width="164.000003382" height="27.99998940000006" class="text">INSTRUCTIONS</text>
<text x="267.00001212" y="293.0000109" width="6.999986820000004" height="26.000006400000018" class="text">: </text>
<text x="281.00000334" y="293.0000109" width="60.00001260000005" height="26.99999790000004" class="text">Report </text>
<text x="354.99998958" y="291.99999666" width="38.00001384000001" height="25.999983660000055" class="text">must </text>
<text x="398.00000154" y="291.99999666" width="23.999987459999943" height="25.999983660000055" class="text">be </text>
<text x="426.99998711999996" y="291.99999666" width="86.00000634000008" height="28.000012140000024" class="text">submitted </text>
<text x="525.00003114" y="291.00000516000006" width="13.999956059999931" height="26.000006400000075" class="text">in </text>
<text x="549.99998658" y="291.00000516000006" width="80.00002266000001" height="27.99998940000006" class="text">duplicate </text>
<text x="638.99998476" y="289.99999092" width="14.000008800000046" height="26.000006400000018" class="text">to </text>
<text x="661.99996908" y="289.99999092" width="26.000046480000037" height="26.000006400000018" class="text">the </text>
<text x="696.99999108" y="289.99999092" width="108.00002268000003" height="27.999989400000004" class="text">Registration </text>
<text x="815.00001" y="288.99999942000005" width="39.999984960000006" height="25.999983660000055" class="text">Unit</text>
<text x="856.99998366" y="288.99999942000005" width="7.00000440000008" height="25.999983660000055" class="text">, </text>
<text x="870.0000244800001" y="288.00000792" width="71.99994479999987" height="27.000020640000002" class="text">Internal </text>
<text x="949.9999943999999" y="288.00000792" width="73.00001826000005" height="28.000012139999967" class="text">Security </text>
<text x="1032.99995616" y="286.99999368000005" width="63.00007475999996" height="26.000006400000075" class="text">Section</text>
<text x="1102.0000146" y="286.99999368000005" width="6.999951660000079" height="26.000006400000075" class="text">, </text>
<text x="1114.99994994" y="286.99999368000005" width="82.00009926000007" height="27.999989400000004" class="text">Criminal </text>
<text x="1203.0000328800002" y="286.00000217999997" width="77.99994605999973" height="26.999997899999926" class="text">Division</text>
<text x="1283.99997078" y="286.00000217999997" width="7.000057140000081" height="26.00000639999996" class="text">, </text>
<text x="1296.0000436199998" y="286.00000217999997" width="111.99994734000006" height="27.999989399999947" class="text">Department </text>
<text x="1415.0000305199999" y="285.00001068" width="18.999936599999955" height="26.999997899999983" class="text">of </text>
<text x="1439.9999507999999" y="283.99999644" width="59.00000946000023" height="25.999983659999998" class="text">Justice</text>
<text x="1501.9999521" y="283.99999644" width="7.0000571399998535" height="25.999983659999998" class="text">, </text>
<text x="1514.0000425199999" y="283.99999644" width="104.99997810000013" height="28.000012140000024" class="text">Washington</text>
<text x="1624.0000363200002" y="283.00000494" width="6.9999516599998515" height="26.00000639999996" class="text">, </text>
<text x="1638.00004512" y="283.00000494" width="40.99995293999996" height="26.00000639999996" class="text">D.C.
</text>
<text x="102.999999948" y="321.9999918" width="64.00000406400001" height="26.999997899999983" class="text">20530. </text>
<text x="174.000006654" y="321.0000003" width="32.999992865999985" height="26.000006400000018" class="text">The </text>
<text x="215.00000706" y="321.0000003" width="70.99999440000002" height="26.999997899999983" class="text">original </text>
<text x="294.99999456" y="320.0000088" width="42.999994379999976" height="26.00000639999996" class="text">must </text>
<text x="342.0000015" y="320.0000088" width="24.00000504000002" height="26.00000639999996" class="text">be </text>
<text x="371.99999022" y="320.0000088" width="57.00000318000002" height="26.999997899999983" class="text">signed </text>
<text x="435.00001224000005" y="318.99999456" width="24.000005039999962" height="25.999983659999998" class="text">by </text>
<text x="466.99997207999996" y="318.99999456" width="19.000024499999995" height="25.999983659999998" class="text">or </text>
<text x="493.00000098000004" y="318.99999456" width="18.9999893399999" height="25.999983659999998" class="text">on </text>
<text x="521.00001858" y="318.99999456" width="57.99998874000005" height="26.999997899999983" class="text">behalf </text>
<text x="586.9999797" y="318.00000306" width="19.000024499999995" height="26.00000639999996" class="text">of </text>
<text x="610.9999847400001" y="318.00000306" width="30.000041460000034" height="26.00000639999996" class="text">the </text>
<text x="648.0000306000001" y="318.00000306" width="86.99995674000002" height="28.000012139999967" class="text">registrant</text>
<text x="733.9999842" y="316.99998882" width="7.000004399999966" height="25.99998365999994" class="text">. </text>
<text x="750.00001686" y="316.99998882" width="25.999976160000074" height="25.99998365999994" class="text">All </text>
<text x="782.99999742" y="316.99998882" width="51.000001920000045" height="26.999997899999983" class="text">items </text>
<text x="839.9999830200001" y="315.99999732" width="15.000011939999922" height="26.00000639999996" class="text">in </text>
<text x="863.9999880600001" y="315.99999732" width="32.999980559999926" height="26.00000639999996" class="text">this </text>
<text x="904.99997616" y="315.99999732" width="39.999984960000006" height="26.999997899999926" class="text">form </text>
<text x="960.00004338" y="315.00000582" width="40.999935359999995" height="26.00000639999996" class="text">must </text>
<text x="1008.00003588" y="315.00000582" width="18.99991901999988" height="26.00000639999996" class="text">be </text>
<text x="1037.00000388" y="315.00000582" width="81.00004338000008" height="28.000012139999967" class="text">answered</text>
<text x="1121.0000391" y="313.99999157999997" width="6.999951660000079" height="25.999983659999998" class="text">, </text>
<text x="1136.0000158799999" y="313.99999157999997" width="56.9999680200001" height="25.999983659999998" class="text">unless </text>
<text x="1198.99998516" y="313.00000008" width="30.00002388000007" height="26.00000639999996" class="text">the </text>
<text x="1234.0000423200001" y="313.00000008" width="65.99996111999985" height="26.99999790000004" class="text">answer </text>
<text x="1305.99998712" y="313.00000008" width="14.000008799999932" height="26.00000639999996" class="text">is </text>
<text x="1328.9999714399999" y="312.00000858000004" width="7.000057140000308" height="26.000006400000075" class="text">"</text>
<text x="1339.9999884" y="312.00000858000004" width="42.99997680000001" height="26.000006400000075" class="text">none</text>
<text x="1385.99995704" y="312.00000858000004" width="7.000057140000081" height="26.000006400000075" class="text">" </text>
<text x="1401.9999897" y="312.00000858000004" width="24.000057779999906" height="26.000006400000075" class="text">or </text>
<text x="1432.99999914" y="312.00000858000004" width="6.9999516599998515" height="26.000006400000075" class="text">"</text>
<text x="1444.9999665" y="312.00000858000004" width="29.00009105999993" height="26.99999790000004" class="text">not </text>
<text x="1477.9999998" y="312.00000858000004" width="95.00005218000001" height="28.000012140000024" class="text">applicable</text>
<text x="1574.9999703600001" y="310.99999434" width="7.0000571399998535" height="25.999983659999998" class="text">,</text>
<text x="1579.00003566" y="310.00000284000004" width="6.999951660000079" height="26.000006400000018" class="text">" </text>
<text x="1597.00000428" y="310.00000284000004" width="14.999959200000148" height="26.000006400000018" class="text">in </text>
<text x="1622.0000124599999" y="310.00000284000004" width="51.99995232000015" height="26.000006400000018" class="text">which
</text>
<text x="101.000002458" y="348.9999897" width="37.999990986000014" height="26.99999790000004" class="text">case </text>
<text x="150.999994206" y="348.9999897" width="36.99999839399999" height="27.999989400000004" class="text">such </text>
<text x="197.99998884000001" y="347.99999820000005" width="20.000010059999994" height="26.99999790000004" class="text">an </text>
<text x="228.00001272" y="347.99999820000005" width="46.99998936" height="26.99999790000004" class="text">entry </text>
<text x="284.99999832" y="347.0000067" width="45.99998622000004" height="26.999997899999983" class="text">shall </text>
<text x="334.9999971" y="347.0000067" width="24.99999059999999" height="26.999997899999983" class="text">be </text>
<text x="370.00000152" y="347.0000067" width="44.99998307999999" height="28.000012139999967" class="text">made </text>
<text x="426.99998711999996" y="345.99999246000004" width="9.99999624000003" height="26.99999790000004" class="text">in </text>
<text x="449.99997144" y="345.99999246000004" width="27.00004961999997" height="26.99999790000004" class="text">the </text>
<text x="487.00001729999997" y="345.99999246000004" width="102.99995424000008" height="29.000003640000045" class="text">appropriate </text>
<text x="602.0000092199999" y="345.00000095999997" width="47.999992500000076" height="26.999997899999983" class="text">space</text>
<text x="650.00000172" y="344.00000946" width="8.000025120000032" height="27.000020640000002" class="text">. </text>
<text x="665.99998164" y="344.00000946" width="15.000029519999998" height="27.000020640000002" class="text">If </text>
<text x="689.99998668" y="344.00000946" width="91.00003961999994" height="28.000012140000024" class="text">additional </text>
<text x="791.00002254" y="342.99999522" width="47.99999249999996" height="26.99999790000004" class="text">space </text>
<text x="850.9999824" y="342.99999522" width="9.999996239999973" height="26.99999790000004" class="text">is </text>
<text x="873.00001632" y="342.99999522" width="59.999977440000066" height="27.999989400000004" class="text">needed </text>
<text x="947.00000256" y="342.00000372" width="27.00003203999995" height="26.999997899999983" class="text">for </text>
<text x="980.99998626" y="342.00000372" width="31.000009439999985" height="26.999997899999983" class="text">any </text>
<text x="1020.00000324" y="340.99998948" width="39.00003456000002" height="26.99999790000004" class="text">item</text>
<text x="1062.9999976200002" y="340.99998948" width="8.000007539999842" height="26.99999790000004" class="text">, </text>
<text x="1076.00003844" y="340.99998948" width="50.999984339999855" height="26.99999790000004" class="text">attach </text>
<text x="1141.99999956" y="340.99998948" width="120.0000603599999" height="28.99998089999997" class="text">supplemental </text>
<text x="1271.0000354400001" y="339.00000647999997" width="47.99999249999996" height="26.999997899999926" class="text">sheet </text>
<text x="1325.0000292" y="339.00000647999997" width="99.99994482000011" height="29.00000363999993" class="text">identifying </text>
<text x="1435.0000229999998" y="337.99999224000004" width="37.99996110000029" height="26.99999790000004" class="text">each </text>
<text x="1484.0000010600002" y="337.99999224000004" width="39.99998495999989" height="27.999989400000004" class="text">item</text>
<text x="1526.99997786" y="337.00000073999996" width="8.00000754000007" height="26.999997899999926" class="text">.
</text>
<text x="104.99999743800001" y="404.99999124000004" width="63.00000795599999" height="26.99999790000004" class="text">Privacy </text>
<text x="176.99999322" y="403.99999973999996" width="34.00000127999999" height="26.999997899999983" class="text">Act </text>
<text x="215.00000706" y="404.99999124000004" width="90.99998687999997" height="28.999980900000025" class="text">Statement</text>
<text x="305.00000838" y="403.00000824" width="7.9999899599999935" height="26.999997899999983" class="text">. </text>
<text x="317.0000109" y="403.00000824" width="51.999987480000016" height="26.999997899999983" class="text">Every </text>
<text x="378.99999462" y="403.00000824" width="101.99998626000001" height="29.00000363999999" class="text">registration </text>
<text x="489.000006" y="403.00000824" width="86.00000634000003" height="29.00000363999999" class="text">statement</text>
<text x="575.00001234" y="401.0000025" width="8.00000754000007" height="26.999997899999983" class="text">, </text>
<text x="588.00000042" y="401.0000025" width="49.00001322000003" height="26.999997899999983" class="text">short </text>
<text x="638.99998476" y="401.0000025" width="46.00002138000002" height="26.999997899999983" class="text">form </text>
<text x="692.00001054" y="401.0000025" width="102.00000383999998" height="29.00000363999999" class="text">registration </text>
<text x="802.00002192" y="400.000011" width="88.99994544000003" height="29.00000363999993" class="text">statement</text>
<text x="887.9999755199999" y="398.99999676" width="8.000025120000146" height="26.999997899999983" class="text">, </text>
<text x="901.9999843200001" y="398.99999676" width="124.00002018000009" height="27.999989399999947" class="text">supplemental </text>
<text x="1028.00002836" y="398.99999676" width="90.00001889999999" height="29.00000363999999" class="text">statement</text>
<text x="1118.00004726" y="396.99999102000004" width="7.999919639999916" height="26.99999790000004" class="text">, </text>
<text x="1132.0000560600001" y="396.99999102000004" width="59.99997743999984" height="26.99999790000004" class="text">exhibit</text>
<text x="1193.99995188" y="396.99999102000004" width="8.000025120000146" height="26.99999790000004" class="text">, </text>
<text x="1204.00000086" y="396.99999102000004" width="110.99997936" height="28.999980900000025" class="text">amendment</text>
<text x="1314.99998022" y="395.99999951999996" width="8.00000754000007" height="26.999997899999926" class="text">, </text>
<text x="1328.00002104" y="395.99999951999996" width="124.99997057999985" height="29.00000363999993" class="text">dissemination </text>
<text x="1461.00001674" y="395.00000802" width="54.999944159999814" height="26.999997899999983" class="text">report</text>
<text x="1517.9999847600002" y="393.99999377999995" width="8.000025119999691" height="26.999997899999926" class="text">, </text>
<text x="1529.9999697" y="393.99999377999995" width="42.00000881999995" height="26.999997899999926" class="text">copy </text>
<text x="1582.0000275" y="393.99999377999995" width="18.999919020000107" height="26.999997899999926" class="text">of </text>
<text x="1605.9999798000001" y="393.99999377999995" width="76.00001009999983" height="29.00000363999993" class="text">political
</text>
<text x="102.999999948" y="433.99999488" width="103.999999572" height="29.99999514000001" class="text">propaganda </text>
<text x="215.00000706" y="433.00000338" width="20.000010060000022" height="28.000012139999967" class="text">or </text>
<text x="240.00001524" y="433.00000338" width="47.99999249999999" height="28.000012139999967" class="text">other </text>
<text x="295.9999977" y="433.00000338" width="90.00000132000002" height="29.99999514000001" class="text">document </text>
<text x="394.99999212" y="431.99998913999997" width="17.000000639999996" height="27.999989400000004" class="text">or </text>
<text x="418.0000116" y="431.99998913999997" width="105.99999881999997" height="29.99999514000001" class="text">information </text>
<text x="532.99998594" y="430.99999764" width="41.00000568000007" height="27.999989400000004" class="text">filed </text>
<text x="579.9999753" y="430.99999764" width="42.00000882000006" height="29.000003640000045" class="text">with </text>
<text x="631.99998036" y="430.00000614000004" width="23.00000190000003" height="28.00001214000008" class="text">the </text>
<text x="665.00003124" y="430.00000614000004" width="75.99995735999994" height="29.000003640000045" class="text">Attorney </text>
<text x="751.99998798" y="430.00000614000004" width="73.99998624" height="29.999995140000067" class="text">General </text>
<text x="830.99998992" y="428.9999919" width="53.99999376000005" height="27.999989400000004" class="text">under </text>
<text x="892.00004082" y="428.9999919" width="31.000009439999985" height="28.999980900000025" class="text">this </text>
<text x="929.00003394" y="428.00000040000003" width="28.999967999999967" height="27.99998940000006" class="text">act </text>
<text x="963.99998562" y="428.00000040000003" width="14.999976780000111" height="27.99998940000006" class="text">is </text>
<text x="986.0000195399999" y="428.00000040000003" width="8.00000754000007" height="27.99998940000006" class="text">a </text>
<text x="1002.0000522" y="428.00000040000003" width="53.999993759999825" height="29.000003640000045" class="text">public </text>
<text x="1067.00004534" y="427.0000089" width="55.999912140000106" height="28.000012140000024" class="text">record </text>
<text x="1133.99997444" y="427.0000089" width="38.000066580000066" height="28.000012140000024" class="text">open </text>
<text x="1181.99998452" y="427.0000089" width="16.000032659999988" height="28.000012140000024" class="text">to </text>
<text x="1209.99998454" y="425.99999466" width="56.00001761999988" height="27.99998940000006" class="text">public </text>
<text x="1271.0000354400001" y="425.99999466" width="108.99993791999987" height="29.00000363999999" class="text">examination</text>
<text x="1385.99995704" y="425.00000316" width="8.000025119999918" height="28.000012139999967" class="text">, </text>
<text x="1398.00004746" y="425.99999466" width="92.99999316000003" height="29.999995140000067" class="text">inspection </text>
<text x="1500.9999841200001" y="423.99998892" width="33.00005087999989" height="27.99998940000006" class="text">and </text>
<text x="1540.0000186799998" y="423.99998892" width="70.00002642000027" height="27.99998940000006" class="text">copying </text>
<text x="1621.00004448" y="423.99998892" width="55.999912140000106" height="28.999980900000025" class="text">during
</text>
<text x="102.999999948" y="460.00000128" width="27.000000396000004" height="26.999997899999983" class="text">the </text>
<text x="135.99999984599998" y="460.00000128" width="58.99999715400003" height="28.000012140000024" class="text">posted </text>
<text x="204.99999323999998" y="459.00000977999997" width="75.00000696000001" height="27.000020640000002" class="text">business </text>
<text x="286.99998702" y="459.00000977999997" width="53.000008200000025" height="28.000012139999967" class="text">hours </text>
<text x="348.00002034" y="457.99999554" width="18.999971759999994" height="26.999997899999983" class="text">of </text>
<text x="373.00001094000004" y="457.99999554" width="26.99997929999995" height="26.999997899999983" class="text">the </text>
<text x="409.00000092" y="457.99999554" width="106.99998438000006" height="29.00000363999999" class="text">Registration </text>
<text x="527.00000226" y="457.00000403999996" width="41.00000567999996" height="26.999997899999926" class="text">Unit </text>
<text x="576.00001548" y="457.00000403999996" width="14.999976779999997" height="26.999997899999926" class="text">in </text>
<text x="602.0000092199999" y="457.00000403999996" width="102.99998940000012" height="29.00000363999993" class="text">Washington</text>
<text x="708.00000804" y="455.9999898" width="8.000007539999956" height="26.999997899999983" class="text">, </text>
<text x="726.0000118199999" y="455.9999898" width="42.99997680000013" height="26.999997899999983" class="text">D.C. </text>
<text x="770.0000093399999" y="455.9999898" width="36.99999312000011" height="27.999989399999947" class="text">One </text>
<text x="818.00000184" y="454.99999829999996" width="41.00000568000007" height="26.999997899999926" class="text">copy </text>
<text x="869.00000376" y="454.99999829999996" width="18.99997175999988" height="26.999997899999926" class="text">of </text>
<text x="893.0000087999999" y="454.99999829999996" width="48.99996048000003" height="26.999997899999926" class="text">every </text>
<text x="954.00004212" y="454.0000068" width="35.99993724000001" height="26.999997899999983" class="text">such </text>
<text x="1000.0000283400001" y="454.99999829999996" width="93.99996113999998" height="29.00000363999993" class="text">document </text>
<text x="1099.0000227599999" y="452.99999255999995" width="14.999959200000148" height="26.999997899999926" class="text">is </text>
<text x="1124.00003094" y="454.0000068" width="119.9999548799999" height="29.00000363999999" class="text">automatically </text>
<text x="1255.00000278" y="452.00000106" width="75.00004211999999" height="26.999997899999983" class="text">provided </text>
<text x="1342.0000122600002" y="452.00000106" width="14.99997677999977" height="26.999997899999983" class="text">to </text>
<text x="1367.00003802" y="452.00000106" width="25.999976160000188" height="26.999997899999983" class="text">the </text>
<text x="1402.9999576799999" y="452.00000106" width="84.0000352200002" height="29.00000363999999" class="text">Secretary </text>
<text x="1497.99999228" y="451.00000956" width="19.999992480000174" height="27.000020640000002" class="text">of </text>
<text x="1525.0000419" y="451.00000956" width="38.9999290799999" height="28.000012140000024" class="text">State </text>
<text x="1576.00004382" y="449.99999532" width="77.99992847999988" height="27.999989399999947" class="text">pursuant </text>
<text x="1659.9999735600002" y="449.99999532" width="19.999992479999946" height="26.999997899999983" class="text">to
</text>
<text x="102.999999948" y="486.99999918000003" width="64.00000406400001" height="26.000006400000075" class="text">Section </text>
<text x="176.99999322" y="486.00000767999995" width="7.000004399999995" height="26.00000639999996" class="text">6</text>
<text x="187.99999259999998" y="486.00000767999995" width="7.000004400000023" height="26.00000639999996" class="text">(</text>
<text x="194.999997" y="486.00000767999995" width="7.000004399999995" height="26.00000639999996" class="text">b</text>
<text x="208.00000266" y="486.00000767999995" width="7.000004399999995" height="26.00000639999996" class="text">) </text>
<text x="219.99998760000003" y="486.00000767999995" width="19.000006919999947" height="26.00000639999996" class="text">of </text>
<text x="245.99999892" y="486.00000767999995" width="25.00000818000001" height="26.00000639999996" class="text">the </text>
<text x="278.99999706" y="486.00000767999995" width="29.999988719999976" height="26.00000639999996" class="text">Act</text>
<text x="310.0000065" y="486.00000767999995" width="7.000004400000023" height="26.00000639999996" class="text">, </text>
<text x="322.00000902" y="484.99999344" width="32.99998055999998" height="25.999983660000055" class="text">and </text>
<text x="361.00000842000003" y="484.99999344" width="57.99998873999999" height="25.999983660000055" class="text">copies </text>
<text x="426.00000156" y="484.99999344" width="19.000006920000033" height="25.999983660000055" class="text">of </text>
<text x="449.99997144" y="484.99999344" width="39.00003455999996" height="26.99999790000004" class="text">such </text>
<text x="499.00000223999996" y="484.99999344" width="96.00000258" height="27.99998940000006" class="text">documents </text>
<text x="600.00002052" y="484.00000194" width="28.999967999999967" height="26.99999790000004" class="text">are </text>
<text x="634.0000218" y="483.00001044" width="80.99997306" height="27.000020640000002" class="text">routinely </text>
<text x="730.00002438" y="483.00001044" width="43.999997519999965" height="26.000006400000018" class="text">made </text>
<text x="778.99998486" y="481.9999962" width="79.00000193999995" height="26.99999790000004" class="text">available </text>
<text x="867.00003264" y="481.9999962" width="12.999935339999979" height="26.000006400000018" class="text">to </text>
<text x="889.0000489800001" y="481.9999962" width="46.99993661999986" height="26.99999790000004" class="text">other </text>
<text x="941.0000013" y="481.00000470000003" width="78.00005154000007" height="26.99999790000004" class="text">agencies</text>
<text x="1020.00000324" y="481.00000470000003" width="6.999951659999965" height="26.000006400000075" class="text">, </text>
<text x="1031.0000201999999" y="481.00000470000003" width="113.00000322000005" height="28.00001214000008" class="text">departments </text>
<text x="1150.99997508" y="479.99999046" width="30.00004145999992" height="25.999983659999998" class="text">and </text>
<text x="1187.9999682" y="479.99999046" width="86.00005908000003" height="27.999989400000004" class="text">Congress </text>
<text x="1280.99997894" y="478.99999896" width="79.00000194000017" height="26.99999790000004" class="text">pursuant </text>
<text x="1364.99999658" y="478.99999896" width="14.999976779999997" height="26.000006400000075" class="text">to </text>
<text x="1390.00002234" y="478.00000746" width="63.999937260000024" height="26.000006400000018" class="text">Section </text>
<text x="1464.00000858" y="478.00000746" width="6.9999516599998515" height="26.000006400000018" class="text">6</text>
<text x="1475.00000796" y="478.00000746" width="6.999951660000079" height="26.000006400000018" class="text">(</text>
<text x="1484.99995146" y="478.00000746" width="7.000057140000081" height="26.000006400000018" class="text">c</text>
<text x="1492.99997658" y="478.00000746" width="7.0000571399998535" height="26.000006400000018" class="text">) </text>
<text x="1503.99999354" y="478.00000746" width="24.00004019999983" height="26.000006400000018" class="text">of </text>
<text x="1532.99996154" y="476.99999322" width="26.000081639999962" height="25.999983659999998" class="text">the </text>
<text x="1565.99999484" y="476.99999322" width="30.00004145999992" height="25.999983659999998" class="text">Act</text>
<text x="1597.00000428" y="476.99999322" width="7.000039560000005" height="25.999983659999998" class="text">. </text>
<text x="1610.9999954999998" y="476.99999322" width="59.999977440000066" height="25.999983659999998" class="text">Finally</text>
<text x="1675.00003824" y="476.00000172000006" width="6.9999516599998515" height="26.000006400000075" class="text">,
</text>
<text x="101.999996808" y="515.00001132" width="30.000008057999977" height="26.00000639999996" class="text">the </text>
<text x="138.999993444" y="515.00001132" width="76.99999917599999" height="28.000012139999967" class="text">Attorney </text>
<text x="224.00000016" y="513.9999970800001" width="74.99998937999999" height="26.99999790000004" class="text">General </text>
<text x="301.99998138" y="513.9999970800001" width="85.00002078" height="27.999989400000118" class="text">transmits </text>
<text x="394.99999212" y="513.00000558" width="19.000006919999976" height="26.00000639999996" class="text">an </text>
<text x="423.00000972000004" y="513.00000558" width="62.99998685999992" height="26.99999790000004" class="text">annual </text>
<text x="491.99999784" y="511.99999134" width="52.000005060000035" height="25.999983660000055" class="text">report </text>
<text x="552.00002802" y="511.99999134" width="13.999991220000084" height="25.999983660000055" class="text">to </text>
<text x="578.0000041799999" y="510.99999984" width="25.000008180000123" height="26.00000639999996" class="text">the </text>
<text x="610.9999847400001" y="511.99999134" width="86.00000633999991" height="27.999989400000004" class="text">Congress </text>
<text x="703.9999954799999" y="510.99999984" width="22.000016340000002" height="26.00000639999996" class="text">on </text>
<text x="733.9999842" y="510.00000834" width="29.000020739999968" height="26.000006400000018" class="text">the </text>
<text x="771.00003006" y="510.99999984" width="130.9999542600001" height="27.999989400000004" class="text">Administration </text>
<text x="915.00002514" y="508.9999941" width="18.99991901999988" height="25.999983659999998" class="text">of </text>
<text x="938.9999774400001" y="508.9999941" width="25.999976160000074" height="25.999983659999998" class="text">the </text>
<text x="975.99997056" y="508.9999941" width="29.00007347999997" height="26.999997899999983" class="text">Act </text>
<text x="1011.00002772" y="508.0000026" width="54.99996174" height="26.000006400000018" class="text">which </text>
<text x="1077.99995682" y="508.0000026" width="34.00000127999988" height="26.000006400000018" class="text">lists </text>
<text x="1118.00004726" y="508.0000026" width="29.999935980000146" height="26.999997899999983" class="text">the </text>
<text x="1152.9999989399998" y="507.0000111" width="57.99995358000024" height="26.00000639999996" class="text">names </text>
<text x="1221.0000015" y="507.0000111" width="19.00002449999988" height="26.00000639999996" class="text">of </text>
<text x="1244.9999538" y="507.0000111" width="26.00008164000019" height="26.00000639999996" class="text">all </text>
<text x="1275.99994566" y="505.99999686" width="53.00002577999976" height="26.000006400000018" class="text">agents </text>
<text x="1339.00002042" y="505.99999686" width="88.99994543999992" height="26.999997899999983" class="text">registered </text>
<text x="1436.99995896" y="505.00000536" width="52.00005779999992" height="26.00000639999996" class="text">under </text>
<text x="1497.99999228" y="505.00000536" width="25.999993740000036" height="26.00000639999996" class="text">the </text>
<text x="1534.9999854" y="505.00000536" width="28.99998557999993" height="26.999997899999983" class="text">Act</text>
<text x="1565.99999484" y="503.99999112" width="7.000057140000081" height="25.999983659999998" class="text">, </text>
<text x="1579.00003566" y="503.99999112" width="28.999967999999853" height="25.999983659999998" class="text">the </text>
<text x="1614.99995532" y="503.99999112" width="62.00000130000012" height="25.999983659999998" class="text">foreign
</text>
<text x="101.999996808" y="546.9999894599999" width="88.00000207199999" height="30.99998663999986" class="text">principals </text>
<text x="200.99999825999998" y="545.99999796" width="35.99998998000004" height="29.00000363999993" class="text">they </text>
<text x="248.00000520000003" y="545.99999796" width="86.00000633999997" height="30.999986639999975" class="text">represent</text>
<text x="334.9999971" y="545.00000646" width="7.9999899599999935" height="29.00000363999993" class="text">, </text>
<text x="348.00002034" y="545.00000646" width="31.999977419999993" height="29.99999514000001" class="text">and </text>
<text x="389.999994" y="543.99999222" width="29.000003160000006" height="28.99998089999997" class="text">the </text>
<text x="426.99998711999996" y="543.99999222" width="53.0000257800001" height="30.999986639999975" class="text">nature</text>
<text x="484.99999344" y="543.00000072" width="8.000007540000013" height="29.00000363999993" class="text">, </text>
<text x="500.00000538" y="543.99999222" width="66.00001386000002" height="30.999986639999975" class="text">sources </text>
<text x="573.9999916200001" y="542.00000922" width="34.00000127999999" height="29.000003640000045" class="text">and </text>
<text x="618.99999228" y="542.00000922" width="66.00001385999997" height="30.00001788000003" class="text">content </text>
<text x="693.99999924" y="540.99999498" width="17.000000640000053" height="29.00000363999999" class="text">of </text>
<text x="718.00000428" y="540.99999498" width="29.000020739999968" height="29.00000363999999" class="text">the </text>
<text x="754.00002942" y="540.99999498" width="79.99996992000001" height="30.999986639999975" class="text">political </text>
<text x="837.99999432" y="540.00000348" width="105.99999881999997" height="29.99999514000001" class="text">propaganda </text>
<text x="950.9999448" y="538.99998924" width="121.00002834000009" height="30.999986639999975" class="text">disseminated </text>
<text x="1079.00003028" y="537.99999774" width="22.000016340000002" height="29.000003640000045" class="text">or </text>
<text x="1107.99999828" y="537.99999774" width="96.00000258" height="30.99998664000003" class="text">distributed </text>
<text x="1215.00001782" y="535.999992" width="22.000016340000002" height="28.999980900000025" class="text">by </text>
<text x="1244.9999538" y="535.999992" width="46.000074120000136" height="28.999980900000025" class="text">them</text>
<text x="1291.9999783199999" y="535.999992" width="8.000025120000146" height="28.999980900000025" class="text">. </text>
<text x="1308.0000285600001" y="535.0000005" width="40.99993535999988" height="29.000003640000045" class="text">This </text>
<text x="1354.9999651800001" y="535.0000005" width="56.00001761999988" height="29.999995140000067" class="text">report </text>
<text x="1418.99999034" y="534.000009" width="17.000000640000053" height="29.00000363999999" class="text">is </text>
<text x="1444.9999665" y="535.0000005" width="76.00001010000005" height="31.00000938000005" class="text">available </text>
<text x="1531.9999935600001" y="532.99999476" width="17.000000639999826" height="29.000003640000045" class="text">to </text>
<text x="1557.99996972" y="532.99999476" width="30.00004145999992" height="29.000003640000045" class="text">the </text>
<text x="1594.99996284" y="532.99999476" width="56.999985599999945" height="30.99998664000003" class="text">public</text>
<text x="1653.9999722999999" y="532.00000326" width="8.000025120000146" height="29.00000363999999" class="text">.
</text>
<text x="102.999999948" y="598.99997952" width="57.00000142200001" height="27.999989400000004" class="text">Public </text>
<text x="166.00000263" y="598.99997952" width="89.00000696999999" height="29.999972400000047" class="text">Reporting </text>
<text x="262.99999956" y="598.00001076" width="62.00000130000001" height="27.999989400000004" class="text">Burden</text>
<text x="327.9999927" y="596.9999965200001" width="8.000025119999975" height="27.999989400000118" class="text">. </text>
<text x="341.00001594" y="596.9999965200001" width="56.9999856" height="27.999989400000118" class="text">Public </text>
<text x="404.0000028" y="596.9999965200001" width="80.99999064000002" height="29.999995140000124" class="text">reporting </text>
<text x="491.99999784" y="595.99998228" width="60.00003017999995" height="27.999989400000004" class="text">burden </text>
<text x="561.00000354" y="595.99998228" width="22.999984320000067" height="27.999989400000004" class="text">for </text>
<text x="590.99999226" y="595.99998228" width="33.00003330000004" height="27.999989400000004" class="text">this </text>
<text x="630.00000924" y="595.99998228" width="86.99997431999986" height="29.999972400000047" class="text">collection </text>
<text x="726.0000118199999" y="595.00001352" width="14.999976779999997" height="28.00001214000008" class="text">of </text>
<text x="744.99998358" y="595.00001352" width="105.99999881999997" height="30.000017879999973" class="text">information </text>
<text x="856.99998366" y="593.99999928" width="17.000000640000053" height="27.999989400000004" class="text">is </text>
<text x="879.0" y="593.99999928" width="84.00003522000009" height="29.99999514000001" class="text">estimated </text>
<text x="969.0000188999999" y="592.9999850400001" width="17.000000640000053" height="27.999989400000004" class="text">to </text>
<text x="994.99999506" y="592.9999850400001" width="64.00004274000003" height="27.999989400000004" class="text">average </text>
<text x="1065.00002148" y="592.9999850400001" width="15.999927179999986" height="28.999980900000082" class="text">.5 </text>
<text x="1088.9999737800001" y="592.0000162800001" width="50.999984339999855" height="28.00001214000008" class="text">hours </text>
<text x="1144.9999914" y="592.0000162800001" width="30.99999185999991" height="28.00001214000008" class="text">per </text>
<text x="1181.99998452" y="592.0000162800001" width="73.99996866000015" height="29.00002638000001" class="text">response</text>
<text x="1260.00001848" y="591.00000204" width="8.000025119999918" height="28.000012139999967" class="text">, </text>
<text x="1272.00000342" y="591.00000204" width="82.99996176000013" height="29.000003640000045" class="text">including </text>
<text x="1361.00005434" y="591.00000204" width="27.999894540000014" height="29.000003640000045" class="text">the </text>
<text x="1396.00000602" y="589.9999878" width="39.00001697999983" height="27.999989400000004" class="text">time </text>
<text x="1439.9999507999999" y="589.9999878" width="26.00008164000019" height="27.999989400000004" class="text">for </text>
<text x="1472.9999841000001" y="589.9999878" width="87.99997745999985" height="29.99999514000001" class="text">reviewing </text>
<text x="1565.99999484" y="589.9999878" width="106.00005155999997" height="29.99999514000001" class="text">instructions</text>
<text x="1675.00003824" y="588.0000048" width="7.999919639999916" height="28.00001214000008" class="text">,
</text>
<text x="104.00000133" y="627.9999831599999" width="82.99998813000002" height="29.00000363999993" class="text">searching </text>
<text x="197.99998884000001" y="627.9999831599999" width="72.00001512" height="29.00000363999993" class="text">existing </text>
<text x="275.00000208" y="626.00000016" width="38.999981820000016" height="27.000020640000002" class="text">data </text>
<text x="322.00000902" y="626.00000016" width="70.99999439999999" height="27.999989400000004" class="text">sources</text>
<text x="393.00000342" y="624.99998592" width="8.000007540000013" height="26.999975159999963" class="text">, </text>
<text x="406.00000908000004" y="626.00000016" width="84.00000005999999" height="29.00000363999993" class="text">gathering </text>
<text x="500.00000538" y="624.0000171600001" width="29.99998872000009" height="27.000020640000002" class="text">and </text>
<text x="545.00002362" y="624.99998592" width="104.99997810000002" height="29.00000363999993" class="text">maintaining </text>
<text x="658.00002684" y="623.00000292" width="25.99997615999996" height="27.000020640000002" class="text">the </text>
<text x="693.99999924" y="623.00000292" width="35.00000441999998" height="27.000020640000002" class="text">data </text>
<text x="740.00002062" y="621.99998868" width="62.99996928000007" height="27.999989400000004" class="text">needed</text>
<text x="805.9999817400001" y="621.99998868" width="8.000025119999918" height="26.999975159999963" class="text">, </text>
<text x="819.00002256" y="621.99998868" width="34.99996925999994" height="26.999975159999963" class="text">and </text>
<text x="861.99999936" y="621.99998868" width="101.00003586000014" height="29.00000363999993" class="text">completing </text>
<text x="972.00001074" y="620.0000056800001" width="31.000009439999985" height="27.000020640000002" class="text">and </text>
<text x="1014.0000195599999" y="621.00001992" width="85.99995360000014" height="29.00000363999993" class="text">reviewing </text>
<text x="1110.9999901200001" y="618.99999144" width="27.0000496199998" height="26.999975159999963" class="text">the </text>
<text x="1147.9999832400001" y="618.99999144" width="87.00002705999987" height="29.000003640000045" class="text">collection </text>
<text x="1244.9999538" y="618.00002268" width="20.000097960000176" height="27.000020640000002" class="text">of </text>
<text x="1272.9999538200002" y="618.00002268" width="105.00010115999976" height="29.000003640000045" class="text">information</text>
<text x="1381.0000468199999" y="617.00000844" width="7.999902060000068" height="27.000020640000002" class="text">. </text>
<text x="1395.00003804" y="617.00000844" width="44.999912759999916" height="27.999989400000004" class="text">Send </text>
<text x="1449.99999978" y="617.00000844" width="90.99996929999998" height="29.00000363999993" class="text">comments </text>
<text x="1554.0000099" y="615.9999942000001" width="82.99996176000013" height="29.000003640000045" class="text">regarding </text>
<text x="1647.9999886199998" y="614.99997996" width="33.00003330000027" height="27.999989400000004" class="text">this
</text>
<text x="101.999996808" y="655.0000038" width="64.000005822" height="30.000017879999973" class="text">burden </text>
<text x="174.99999573" y="655.0000038" width="73.99999503000001" height="32.0000008799999" class="text">estimate </text>
<text x="255.0000096" y="653.99998956" width="21.999981179999963" height="29.999972399999933" class="text">or </text>
<text x="281.9999889" y="653.99998956" width="34.00000127999999" height="30.999986639999975" class="text">any </text>
<text x="320.9999883" y="653.0000208" width="52.000022640000054" height="30.000017879999973" class="text">other </text>
<text x="378.99999462" y="653.0000208" width="56.00001762000005" height="31.000032120000014" class="text">aspect </text>
<text x="442.00001664" y="652.00000656" width="19.999992479999946" height="30.000017879999973" class="text">of </text>
<text x="466.00002168" y="652.00000656" width="35.00000442000004" height="30.000017879999973" class="text">this </text>
<text x="507.99997776000004" y="652.00000656" width="87.00002705999992" height="32.0000008799999" class="text">collection </text>
<text x="603.00001236" y="650.9999923199999" width="21.999981179999963" height="29.999972399999933" class="text">of </text>
<text x="627.99998538" y="650.9999923199999" width="108.00002267999992" height="32.0000008799999" class="text">information</text>
<text x="737.99999676" y="649.99997808" width="9.000028259999908" height="29.999972399999933" class="text">, </text>
<text x="750.99998484" y="649.99997808" width="87.00000948000002" height="31.999955399999976" class="text">including </text>
<text x="843.99999558" y="649.99997808" width="108.00002268000003" height="31.999955399999976" class="text">suggestions </text>
<text x="958.00000194" y="647.99999508" width="25.99997615999996" height="29.999972399999933" class="text">for </text>
<text x="991.00003524" y="647.99999508" width="76.99997807999989" height="30.999986639999975" class="text">reducing </text>
<text x="1077.99995682" y="646.9999808399999" width="30.00004145999992" height="29.999972399999933" class="text">this </text>
<text x="1119.99996564" y="646.9999808399999" width="59.00002704000008" height="29.999972399999933" class="text">burden </text>
<text x="1189.00004166" y="646.00001208" width="16.999983059999977" height="30.000017879999973" class="text">to </text>
<text x="1212.99997638" y="646.00001208" width="53.00002577999999" height="30.000017879999973" class="text">Chief</text>
<text x="1266.00000216" y="646.00001208" width="8.999993099999983" height="30.000017879999973" class="text">, </text>
<text x="1280.99997894" y="646.00001208" width="109.0000434000001" height="32.000000880000016" class="text">Registration </text>
<text x="1398.9999978600001" y="644.99999784" width="39.00001697999983" height="30.000017879999973" class="text">Unit</text>
<text x="1439.9999507999999" y="644.99999784" width="9.000081000000137" height="30.000017879999973" class="text">, </text>
<text x="1452.99999162" y="644.99999784" width="86.00005908000003" height="32.000000880000016" class="text">Criminal </text>
<text x="1543.00001052" y="643.9999836" width="81.00002580000023" height="32.0000008799999" class="text">Division</text>
<text x="1625.99997228" y="643.0000148400001" width="8.999975519999907" height="30.000017880000087" class="text">, </text>
<text x="1641.00003696" y="643.0000148400001" width="42.99997680000001" height="30.000017880000087" class="text">U.S.
</text>
<text x="104.00000133" y="682.9999932" width="111.00000573" height="29.999972399999933" class="text">Department </text>
<text x="219.99998760000003" y="681.99997896" width="20.000027639999985" height="27.999989400000004" class="text">of </text>
<text x="245.99999892" y="681.99997896" width="60.99998058" height="28.999958160000006" class="text">Justice</text>
<text x="308.00000022" y="681.0000102" width="7.9999899599999935" height="27.999989400000004" class="text">, </text>
<text x="322.00000902" y="681.99997896" width="102.99997182000004" height="29.999972400000047" class="text">Washington</text>
<text x="428.00000784" y="679.99999596" width="7.9999899599999935" height="27.999989400000004" class="text">, </text>
<text x="442.99996703999994" y="679.99999596" width="44.00005026000002" height="27.999989400000004" class="text">D.C. </text>
<text x="494.00002169999993" y="679.99999596" width="53.99999376000005" height="29.000003640000045" class="text">20530</text>
<text x="551.0000073" y="678.99998172" width="8.00000754000007" height="27.999989400000118" class="text">; </text>
<text x="563.9999953800001" y="678.99998172" width="32.999980559999926" height="27.999989400000118" class="text">and </text>
<text x="605.00000106" y="678.99998172" width="15.999979919999987" height="27.999989400000118" class="text">to </text>
<text x="630.00000924" y="678.99998172" width="26.999996879999912" height="27.999989400000118" class="text">the </text>
<text x="667.00000236" y="678.0000129599999" width="57.999988739999935" height="28.00003487999993" class="text">Office </text>
<text x="731.9999955000001" y="678.0000129599999" width="21.0000131999999" height="28.00003487999993" class="text">of </text>
<text x="761.00003382" y="678.0000129599999" width="105.99999881999997" height="30.000017879999973" class="text">Information </text>
<text x="879.0" y="676.99999872" width="28.000017600000092" height="29.000003640000045" class="text">and </text>
<text x="915.99999312" y="676.99999872" width="99.99996240000007" height="30.000017880000087" class="text">Regulatory </text>
<text x="1028.00002836" y="675.00001572" width="62.000001299999894" height="29.00000363999993" class="text">Affairs</text>
<text x="1091.99996562" y="675.00001572" width="8.00000754000007" height="28.000034880000044" class="text">, </text>
<text x="1105.99997442" y="675.00001572" width="53.999976179999976" height="29.00000363999993" class="text">Office </text>
<text x="1172.00004102" y="674.0000014799999" width="19.999992479999946" height="27.99998939999989" class="text">of </text>
<text x="1195.9999757399999" y="675.00001572" width="121.0000283400002" height="30.000017879999973" class="text">Management </text>
<text x="1325.9999796" y="672.9999872400001" width="31.000009439999985" height="27.999989400000118" class="text">and </text>
<text x="1367.00003802" y="672.9999872400001" width="65.99996112000008" height="29.999972400000047" class="text">Budget</text>
<text x="1432.99999914" y="672.00001848" width="8.000025120000146" height="28.000034880000044" class="text">, </text>
<text x="1447.0000079400002" y="672.00001848" width="102.99995423999985" height="29.00000363999993" class="text">Washington</text>
<text x="1554.0000099" y="671.00000424" width="8.000025120000146" height="27.99998939999989" class="text">, </text>
<text x="1568.0000187" y="671.00000424" width="43.99994478000008" height="27.99998939999989" class="text">D.C. </text>
<text x="1619.9999886" y="671.00000424" width="55.00004964000004" height="29.00000363999993" class="text">20503</text>
<text x="1676.9999566200001" y="669.9999899999999" width="8.000025119999691" height="27.99998939999989" class="text">.
</text>
<text x="116.9999982" y="742.0000147200001" width="23.999999766000002" height="31.000032120000014" class="text">1. </text>
<text x="152.99999872799998" y="742.99998348" width="68.999995152" height="32.0000008799999" class="text">Name </text>
<text x="235.00001712000002" y="742.99998348" width="23.99998745999997" height="30.999986639999975" class="text">of </text>
<text x="265.9999914" y="743.99999772" width="110.00001137999999" height="32.000000880000016" class="text">registrant
</text>
<text x="144.999994704" y="778.99999584" width="93.99999981599998" height="26.999975159999963" class="text">JETRO </text>
<text x="264.0000027" y="778.99999584" width="135.00000198000004" height="27.999989400000004" class="text">Atlanta
</text>
<text x="1235.0000103" y="736.00002024" width="23.999934720000056" height="31.000032120000014" class="text">2. </text>
<text x="1268.0000436" y="736.00002024" width="136.9999379400001" height="34.000029359999985" class="text">Registration </text>
<text x="1418.99999034" y="732.99997752" width="45.00001823999992" height="32.99996964000002" class="text">No.
</text>
<text x="1255.9999531800001" y="773.0000013599999" width="81.00004337999985" height="26.00000639999996" class="text">4069
</text>
<text x="117.99999958200002" y="841.0000146000001" width="28.999999643999985" height="32.00000088000013" class="text">3. </text>
<text x="155.00000325" y="841.0000146000001" width="76.00000130999999" height="33.00001512000017" class="text">Nature </text>
<text x="245.00001336" y="840.0000003600001" width="22.99998431999998" height="32.00000088000013" class="text">of </text>
<text x="284.99999832" y="840.0000003600001" width="86.9999919" height="32.00000088000013" class="text">material </text>
<text x="385.99999902" y="840.0000003600001" width="8.999993099999983" height="32.00000088000013" class="text">(</text>
<text x="394.99999212" y="838.99998612" width="9.000010680000003" height="32.000000880000016" class="text">A </text>
<text x="421.00000344" y="838.99998612" width="83.00001450000002" height="32.000000880000016" class="text">concise </text>
<text x="514.99998216" y="838.99998612" width="96.00000258000011" height="33.99998388000006" class="text">account </text>
<text x="617.99998914" y="838.0000173599999" width="23.999987459999943" height="32.0000008799999" class="text">of </text>
<text x="648.9999809999999" y="838.0000173599999" width="36.00002514000005" height="32.0000008799999" class="text">the </text>
<text x="693.99999924" y="838.0000173599999" width="71.9999975400001" height="32.0000008799999" class="text">nature </text>
<text x="778.00001688" y="837.0000031200001" width="24.00000504000002" height="32.00000088000013" class="text">of </text>
<text x="810.99999744" y="837.0000031200001" width="36.99999312" height="32.00000088000013" class="text">the </text>
<text x="853.99999182" y="837.0000031200001" width="137.00004342" height="33.00001512000017" class="text">propaganda </text>
<text x="1011.00002772" y="835.99998888" width="96.00000257999989" height="32.99996964000002" class="text">material </text>
<text x="1113.00001398" y="835.99998888" width="46.99993661999997" height="32.99996964000002" class="text">filed</text>
<text x="1162.99994244" y="835.0000201199999" width="9.000098579999985" height="32.0000008799999" class="text">)
</text>
<text x="144.999994704" y="886.00001868" width="95.00002053600002" height="33.00001512000006" class="text">Iwate</text>
<text x="250.00001147999998" y="886.00001868" width="8.999993100000012" height="33.00001512000006" class="text">, </text>
<text x="284.99999832" y="885.00000444" width="76.99999566000002" height="33.000015119999944" class="text">fast </text>
<text x="383.99999274" y="885.00000444" width="76.99999566000002" height="33.000015119999944" class="text">food</text>
<text x="470.99998464" y="885.00000444" width="9.000028260000079" height="33.000015119999944" class="text">, </text>
<text x="501.99999407999996" y="883.9999902" width="98.99999442000012" height="32.99996964000002" class="text">green </text>
<text x="628.99998852" y="883.9999902" width="56.000017619999994" height="32.99996964000002" class="text">tea</text>
<text x="695.00000238" y="883.9999902" width="8.999993099999983" height="32.99996964000002" class="text">, </text>
<text x="733.00001622" y="883.9999902" width="216.99997817999986" height="34.99999811999999" class="text">intelligent </text>
<text x="972.99997872" y="883.0000214400001" width="182.00006166000003" height="35.000043600000026" class="text">buildings</text>
<text x="1164.0000158999999" y="882.0000072" width="8.999975520000135" height="33.00001512000006" class="text">, </text>
<text x="1195.9999757399999" y="882.0000072" width="178.99996434000013" height="34.99999811999999" class="text">effective </text>
<text x="1401.9999897" y="880.99999296" width="138.0000289799998" height="34.99999811999999" class="text">concept</text>
<text x="1549.99996218" y="879.99997872" width="9.00008099999991" height="32.999969639999904" class="text">,
</text>
<text x="146.999999226" y="915.99999108" width="170.99999723399998" height="32.000000880000016" class="text">interview </text>
<text x="342.0000015" y="915.99999108" width="77.99998122" height="32.000000880000016" class="text">with </text>
<text x="446.00002920000003" y="915.99999108" width="136.99999068000005" height="32.000000880000016" class="text">Gerhard </text>
<text x="605.00000106" y="915.99999108" width="142.99997436" height="32.000000880000016" class="text">Winkler</text>
<text x="757.0000212599999" y="915.99999108" width="8.999975520000135" height="32.000000880000016" class="text">, </text>
<text x="787.00000998" y="915.99999108" width="59.000009460000115" height="32.000000880000016" class="text">DIY </text>
<text x="870.99997488" y="915.99999108" width="121.00002833999997" height="32.000000880000016" class="text">market
</text>
<text x="116.9999982" y="971.0000011200001" width="33.999996006" height="27.000020640000002" class="text">4. </text>
<text x="158.99999998799998" y="972.0000153599999" width="46.999996392000014" height="28.000034879999816" class="text">Title </text>
<text x="221.99999387999998" y="972.0000153599999" width="19.99999248000003" height="27.00002063999989" class="text">of </text>
<text x="258.00000144" y="973.9999983600001" width="93.99999629999996" height="29.000003640000045" class="text">material</text>
<text x="349.99999146" y="972.99998412" width="8.000025120000032" height="26.999975160000076" class="text">, </text>
<text x="368.99999838" y="972.99998412" width="14.99999435999996" height="26.999975160000076" class="text">if </text>
<text x="398.00000154" y="973.9999983600001" width="38.99998181999996" height="27.999989400000118" class="text">any
</text>
<text x="941.0000013" y="971.0000011200001" width="28.999985580000043" height="32.00000088000013" class="text">5. </text>
<text x="994.00002708" y="969.99998688" width="68.99997054000016" height="32.99996964000013" class="text">Name </text>
<text x="1070.00003718" y="969.99998688" width="23.999952300000132" height="32.000000880000016" class="text">of </text>
<text x="1101.00004662" y="969.99998688" width="75.99990462000005" height="33.99998388000006" class="text">foreign </text>
<text x="1187.9999682" y="969.0000181199999" width="104.00001011999984" height="34.00002935999987" class="text">principal </text>
<text x="1297.0000116" y="968.00000388" width="23.999952299999904" height="32.000000880000016" class="text">on </text>
<text x="1330.0000449" y="968.00000388" width="73.99998624" height="33.99998388000006" class="text">whose </text>
<text x="1412.00003868" y="966.9999896400001" width="70.99999439999988" height="32.99996964000013" class="text">behalf </text>
<text x="1489.99998474" y="966.00002088" width="41.00004084000011" height="32.000000880000016" class="text">this </text>
<text x="1542.00004254" y="966.00002088" width="92.99990525999988" height="34.00002935999987" class="text">material </text>
<text x="1636.99997166" y="965.00000664" width="45.99998621999998" height="32.00000088000013" class="text">was
</text>
<text x="994.00002708" y="998.0000217600001" width="127.0000120200001" height="28.000034880000044" class="text">transmitted</text>
<text x="1124.99999892" y="995.99999328" width="7.000057140000081" height="26.00000639999996" class="text">.
</text>
<text x="143.000002488" y="1020.00001668" width="97.999998312" height="31.000032120000014" class="text">Focus </text>
<text x="265.9999914" y="1021.99999968" width="96.00000258" height="30.999986639999975" class="text">Japan
</text>
<text x="140.999997966" y="1049.00002032" width="162.00000413400002" height="27.000020640000002" class="text">November </text>
<text x="325.99998641999997" y="1046.9999918400001" width="80.00002266000007" height="26.999975160000076" class="text">1992
</text>
<text x="974.0000345999999" y="1065.99998952" width="98.99999442000012" height="35.9999668800001" class="text">Japan </text>
<text x="1096.00003092" y="1065.99998952" width="161.99996369999985" height="35.9999668800001" class="text">External </text>
<text x="1280.00001096" y="1064.00000652" width="98.99999442000012" height="34.99999811999987" class="text">Trade </text>
<text x="1401.9999897" y="1064.00000652" width="237.00002339999992" height="36.0000123599998" class="text">Organization
</text>
<text x="144.999994704" y="1083.0000042" width="58.99999539600003" height="26.000006399999847" class="text">Vol</text>
<text x="210.99999449999999" y="1081.99998996" width="7.000004400000023" height="26.000006400000075" class="text">. </text>
<text x="248.99999076" y="1081.99998996" width="32.99999814" height="26.000006400000075" class="text">19</text>
<text x="291.99998514" y="1081.99998996" width="7.000004400000023" height="26.000006400000075" class="text">, </text>
<text x="325.99998641999997" y="1081.99998996" width="63.00002202000002" height="26.99997515999985" class="text">No. </text>
<text x="407.99999778" y="1080.00000696" width="35.99998997999995" height="24.99999215999992" class="text">11
</text>
<text x="119.00000272199999" y="1137.0" width="28.999997886000003" height="26.000006400000075" class="text">6. </text>
<text x="155.00000325" y="1137.0" width="78.00000759" height="27.000020640000002" class="text">Means </text>
<text x="245.00001336" y="1135.99998576" width="23.99998746000003" height="26.000006400000075" class="text">of </text>
<text x="277.99999392" y="1137.0" width="143.00000952" height="27.999989400000004" class="text">transmission
</text>
<text x="140.999997966" y="1170.0000151200002" width="83.99998775400002" height="27.00002064000023" class="text">U.S. </text>
<text x="250.99999703999998" y="1169.00000088" width="71.00001198000001" height="27.000020640000002" class="text">mail
</text>
<text x="658.00002684" y="1132.99998852" width="13.99999121999997" height="26.000006400000075" class="text">7. </text>
<text x="682.0000143" y="1132.99998852" width="65.99996112000008" height="26.999975160000076" class="text">Dates </text>
<text x="760.0000130999999" y="1132.00001976" width="24.00000504000002" height="26.000006400000075" class="text">of </text>
<text x="791.99997294" y="1132.99998852" width="143.00004467999997" height="27.999989400000004" class="text">transmission
</text>
<text x="692.00001054" y="1167.99998664" width="161.0000133000001" height="29.99997240000016" class="text">11-10-92 </text>
<text x="893.9999592" y="1166.9999496599999" width="163.00003716000003" height="27.999898439999924" class="text">11-12-92
</text>
<text x="1169.0000491800001" y="1134.00000276" width="21.99991086" height="30.00001787999986" class="text">8. </text>
<text x="1201.9999770000002" y="1134.00000276" width="55.000049639999816" height="32.000000880000016" class="text">Total </text>
<text x="1268.0000436" y="1132.99998852" width="69.99992094000004" height="32.000000880000016" class="text">copies </text>
<text x="1350.0000373799999" y="1132.00001976" width="125.99993856000015" height="33.000015119999944" class="text">transmitted
</text>
<text x="1200.00004104" y="1164.0000206400002" width="59.999977440000066" height="24.999969420000298" class="text">213
</text>
<text x="946.00003458" y="1234.00001688" width="43.999944779999964" height="29.000071860000162" class="text">10. </text>
<text x="997.9999869000001" y="1234.00001688" width="45.999968639999906" height="29.999949659999857" class="text">List </text>
<text x="1057.99996434" y="1233.0000026399998" width="62.00000130000012" height="28.9999354199997" class="text">states </text>
<text x="1130.00001462" y="1233.0000026399998" width="42.000026400000024" height="29.999949659999857" class="text">and </text>
<text x="1187.9999682" y="1233.0000026399998" width="114.00005910000004" height="30.999986639999634" class="text">territories </text>
<text x="1317.00000408" y="1230.99995142" width="25.99997615999996" height="28.9999354199997" class="text">of </text>
<text x="1353.00002922" y="1230.99995142" width="36.99999312" height="28.9999354199997" class="text">the </text>
<text x="1405.99994952" y="1229.99993718" width="73.00001825999993" height="29.999949659999857" class="text">United </text>
<text x="1500.9999841200001" y="1229.99993718" width="65.99997869999993" height="30.99998664000009" class="text">States </text>
<text x="1580.00000364" y="1229.00005938" width="16.000032659999988" height="29.000071859999935" class="text">to </text>
<text x="1613.00003694" y="1229.00005938" width="68.99995295999997" height="31.000123080000094" class="text">which
</text>
<text x="1002.0000522" y="1266.00001776" width="92.99990525999988" height="28.00003487999993" class="text">material </text>
<text x="1099.99997316" y="1265.0000035199998" width="44.00005025999985" height="26.000006399999847" class="text">was </text>
<text x="1155.00004038" y="1265.0000035199998" width="126.99999443999991" height="27.000020639999775" class="text">transmitted</text>
<text x="1288.99998648" y="1263.99998928" width="7.0000571399998535" height="26.000006399999847" class="text">:
</text>
<text x="119.00000272199999" y="1238.99999712" width="28.999997886000003" height="27.000043379999852" class="text">9. </text>
<text x="156.999995466" y="1238.99999712" width="45.000005934" height="28.000057620000007" class="text">List </text>
<text x="211.99999764" y="1238.99999712" width="110.99999693999996" height="28.99993541999993" class="text">addresses </text>
<text x="334.00001154" y="1236.9999458999998" width="52.999990620000005" height="26.99988419999977" class="text">from </text>
<text x="398.00000154" y="1236.9999458999998" width="69.99999125999994" height="28.9999354199997" class="text">which </text>
<text x="485.99999657999996" y="1236.9999458999998" width="93.99997872" height="28.9999354199997" class="text">material </text>
<text x="585.00000858" y="1235.00005386" width="40.999988099999996" height="27.000043379999852" class="text">was </text>
<text x="638.99998476" y="1235.00005386" width="127.0000120200001" height="29.000071859999935" class="text">transmitted</text>
<text x="768.9999886200001" y="1234.00001688" width="8.000025119999918" height="27.000020640000002" class="text">:
</text>
<text x="148.000000608" y="1285.0000154400002" width="52.99999765199999" height="27.00002064000023" class="text">245 </text>
<text x="224.99998572" y="1285.0000154400002" width="180.00000263999996" height="29.000071860000162" class="text">Peachtree </text>
<text x="428.00000784" y="1284.0000012" width="117.00001577999996" height="28.999935420000156" class="text">Center </text>
<text x="570.99999978" y="1282.9999869600001" width="117.00001578000001" height="28.999935420000156" class="text">Avenue
</text>
<text x="142.00000110599998" y="1324.00004778" width="141.999994074" height="35.000066339999876" class="text">Marquis </text>
<text x="310.0000065" y="1321.99999656" width="54.99999690000004" height="34.00005209999995" class="text">One </text>
<text x="389.00000844" y="1320.99998232" width="96.99998813999997" height="33.99991566000017" class="text">Tower</text>
<text x="494.99998968" y="1319.9999453399998" width="9.000028260000022" height="32.00000087999979" class="text">, </text>
<text x="529.9999941000001" y="1319.9999453399998" width="98.9999944199999" height="33.999892919999866" class="text">Suite </text>
<text x="654.99998226" y="1318.0000533" width="78.00003396" height="34.00005209999995" class="text">2208
</text>
<text x="144.000005628" y="1357.9999406999998" width="136.99999771199998" height="33.999892919999866" class="text">Atlanta</text>
<text x="293.99999141999996" y="1355.00001168" width="9.00001068000006" height="30.99996390000001" class="text">, </text>
<text x="327.9999927" y="1355.00001168" width="35.000022" height="32.00000087999979" class="text">GA </text>
<text x="389.999994" y="1353.99999744" width="97.99999127999996" height="33.000015119999944" class="text">30303
</text>
<text x="977.0000264399999" y="1348.0000029599998" width="34.000001280000106" height="27.000020639999775" class="text">AL</text>
<text x="1023.0000126599999" y="1346.99998872" width="8.000007539999956" height="27.00004338000008" class="text">, </text>
<text x="1056.0000459599999" y="1346.99998872" width="39.99998496000012" height="27.00004338000008" class="text">FL</text>
<text x="1104.00003846" y="1346.99998872" width="7.999919639999916" height="27.00004338000008" class="text">, </text>
<text x="1138.00003974" y="1345.99995174" width="38.99991150000005" height="26.99988419999977" class="text">GA</text>
<text x="1184.9999763600001" y="1345.99995174" width="8.000007539999842" height="26.99988419999977" class="text">, </text>
<text x="1218.99997764" y="1345.99995174" width="39.00001697999983" height="27.999898439999924" class="text">SC
</text>
<text x="105.99999882" y="1546.0000027199999" width="41.000000406" height="32.00000087999979" class="text">11. </text>
<text x="161.00000451" y="1546.0000027199999" width="65.99998749" height="34.00005209999995" class="text">Types </text>
<text x="238.00000896" y="1544.9999884800002" width="24.00000504000002" height="32.000000880000016" class="text">of </text>
<text x="271.0000071" y="1544.9999884800002" width="112.00000008" height="34.000052100000175" class="text">recipients </text>
<text x="394.99999212" y="1542.99993726" width="9.000010680000003" height="32.000000880000016" class="text">(</text>
<text x="401.99999651999997" y="1542.99993726" width="51.999987480000016" height="32.000000880000016" class="text">Give </text>
<text x="463.99998024" y="1542.99993726" width="88.99999818000003" height="33.99991566000017" class="text">number </text>
<text x="565.0000160999999" y="1542.00005946" width="22.999984320000067" height="32.000000880000016" class="text">of </text>
<text x="595.00000482" y="1542.00005946" width="156.99998316000006" height="34.000052100000175" class="text">organizations
</text>
<text x="157.999996848" y="1576.99998936" width="17.99999323200001" height="34.00005209999995" class="text">in </text>
<text x="191.00000202" y="1579.00001784" width="49.00001322" height="34.00002935999987" class="text">each </text>
<text x="253.99998888000002" y="1580.99993262" width="68.00002013999998" height="34.9999299000001" class="text">group</text>
<text x="322.99999457999996" y="1580.99993262" width="9.99999624000003" height="31.999864439999783" class="text">)
</text>
<text x="947.9999529600001" y="1536.00006498" width="44.00005025999985" height="35.0000663400001" class="text">12. </text>
<text x="994.99999506" y="1536.00006498" width="48.00001008000004" height="35.0000663400001" class="text">List </text>
<text x="1059.9999882000002" y="1536.00006498" width="75.00005969999984" height="35.0000663400001" class="text">names </text>
<text x="1150.99997508" y="1536.00006498" width="39.99998496000012" height="35.0000663400001" class="text">and </text>
<text x="1209.99998454" y="1536.00006498" width="113.99997120000012" height="35.0000663400001" class="text">addresses </text>
<text x="1339.9999884" y="1536.00006498" width="25.99997615999996" height="35.0000663400001" class="text">of </text>
<text x="1381.99999722" y="1536.00006498" width="88.99996301999977" height="35.0000663400001" class="text">persons </text>
<text x="1486.9999929" y="1536.00006498" width="25.99997615999996" height="35.0000663400001" class="text">or </text>
<text x="1531.9999935600001" y="1536.00006498" width="157.0000534799999" height="35.0000663400001" class="text">organizations
</text>
<text x="994.99999506" y="1572.00000912" width="107.99996994000003" height="33.000015119999944" class="text">receiving </text>
<text x="1116.9999738000001" y="1570.99999488" width="36.00002513999971" height="30.99998664000009" class="text">100 </text>
<text x="1167.00000774" y="1570.99999488" width="71.9999448000001" height="33.00001512000017" class="text">copies </text>
<text x="1248.00005112" y="1569.9999806399999" width="28.999967999999853" height="30.99998663999986" class="text">or </text>
<text x="1291.9999783199999" y="1569.9999806399999" width="51.00000192000016" height="32.000000880000016" class="text">more</text>
<text x="1347.00004554" y="1568.99994366" width="8.999975520000135" height="30.99996390000024" class="text">:
</text>
<text x="570.99999978" y="1636.00001088" width="36.99999312" height="24.99999215999992" class="text">15
</text>
<text x="572.0000205" y="1669.00004874" width="35.99997240000005" height="24.999992160000147" class="text">29
</text>
<text x="572.9999709" y="1701.00004962" width="38.000013840000065" height="23.00010012000007" class="text">12
</text>
<text x="108.99999945" y="1642.00000536" width="102.99999819" height="27.000020640000002" class="text">Libraries
</text>
<text x="108.99999945" y="1675.00002048" width="68.99999690999998" height="28.000034880000158" class="text">Public </text>
<text x="194.999997" y="1675.00002048" width="88.99999817999998" height="28.000034880000158" class="text">officials
</text>
<text x="107.99999806800001" y="1713.00001584" width="138.00000085199997" height="32.000000880000016" class="text">Newspapers
</text>
<text x="108.99999945" y="1740.0000592200001" width="60.999998160000004" height="27.00004338000008" class="text">Press </text>
<text x="179.99998506" y="1740.0000592200001" width="93.00001073999996" height="27.00004338000008" class="text">services </text>
<text x="284.99999832" y="1738.000008" width="23.00000190000003" height="24.99999215999992" class="text">of
</text>
<text x="134.99999846400002" y="1776.00000336" width="137.99999733599995" height="30.99998664000009" class="text">associations
</text>
<text x="109.99999555800001" y="1808.00000424" width="138.000009642" height="29.999949659999857" class="text">Educational
</text>
<text x="132.999993942" y="1838.99999088" width="130.000005618" height="26.000006400000075" class="text">institutions
</text>
<text x="108.99999945" y="1870.99999176" width="60.999998160000004" height="24.999992160000147" class="text">Civic </text>
<text x="205.99999638" y="1876.99998624" width="79.00000193999998" height="27.99992118" class="text">groups</text>
<text x="286.99998702" y="1876.99998624" width="8.000007540000013" height="27.99992118" class="text">.
</text>
<text x="104.99999743800001" y="1911.0000156" width="71.99999578199998" height="35.000066339999876" class="text">Other </text>
<text x="188.99999574" y="1911.0000156" width="9.999996240000002" height="33.00001512000017" class="text">(</text>
<text x="198.99999198" y="1913.9999446200002" width="74.00000381999996" height="35.99994414000025" class="text">specify</text>
<text x="276.00000522" y="1913.00006682" width="9.99999624000003" height="33.00001512000017" class="text">)
</text>
<text x="572.9999709" y="1759.0000569" width="37.00004586" height="26.000006399999847" class="text">11
</text>
<text x="1300.00000344" y="1802.00000976" width="51.99995231999992" height="201.0000652199999" class="text">REGISTRATION </text>
<text x="1317.99997206" y="1876.99998624" width="41.00004084000011" height="65.00003874000004" class="text">UNIT
</text>
<text x="1336.0000285800002" y="1792.99994982" width="45.999968639999906" height="116.00001455999995" class="text">SECTION
</text>
<text x="1359.99998088" y="1730.9999992799999" width="51.00000191999993" height="143.00005794000003" class="text">INTERNAL </text>
<text x="1371.9999482399999" y="1878.00000048" width="50.000033940000094" height="139.99999247999995" class="text">SECURITY
</text>
<text x="1421.99998218" y="1614.99998472" width="44.00005026000008" height="41.999938619999966" class="text">92 </text>
<text x="1426.00004748" y="1677.9999495" width="46.9999366200002" height="59.99989931999994" class="text">NOV </text>
<text x="1432.00003116" y="1723.99999056" width="45.000018240000145" height="34.00005209999995" class="text">16 </text>
<text x="1438.00001484" y="1784.00004906" width="42.99999438000009" height="33.00003786000002" class="text">AM </text>
<text x="1441.99997466" y="1822.00002168" width="42.00002640000025" height="15.000031679999893" class="text">7</text>
<text x="1443.00004812" y="1836.00006186" width="41.999903339999946" height="15.00005441999997" class="text">: </text>
<text x="1444.9999665" y="1878.00000048" width="44.00005025999985" height="33.000015119999944" class="text">54
</text>
<text x="1495.00000044" y="1728.99994806" width="48.9999780600001" height="143.99993573999996" class="text">CRIMINAL </text>
<text x="1506.99998538" y="1873.0000202400001" width="47.99999250000019" height="133.99999800000023" class="text">DIVISION
</text>
<text x="1528.00003374" y="1675.00002048" width="45.000018240000145" height="81.99996246" class="text">DEPT</text>
<text x="1535.99995338" y="1683.00006618" width="38.00004899999976" height="14.000017439999965" class="text">. </text>
<text x="1537.00002684" y="1721.00006154" width="40.99993536000011" height="35.000066339999876" class="text">OF </text>
<text x="1542.00004254" y="1861.9999318199998" width="48.9999604799998" height="124.99993805999998" class="text">JUSTICE
</text>
<text x="1566.99996282" y="1799.99998128" width="50.999984339999855" height="149.99993022000012" class="text">RECEIVED
</text>
<text x="572.9999709" y="1823.0000586600001" width="36.00002514000005" height="22.000063140000066" class="text">35
</text>
<text x="569.99997906" y="1857.9999885599998" width="43.000029540000014" height="26.000006399999847" class="text">44
</text>
<text x="572.0000205" y="1898.0000123999998" width="40.999988099999996" height="24.999992159999692" class="text">67
</text>
<text x="1566.99996282" y="2078.00005146" width="43.000082280000015" height="17.99998344000005" class="text">FORM </text>
<text x="1621.00004448" y="2078.00005146" width="35.99991965999993" height="17.99998344000005" class="text">CRM</text>
<text x="1661.99999742" y="2078.00005146" width="5.000015699999949" height="17.99998344000005" class="text">-</text>
<text x="1667.00001312" y="2078.00005146" width="19.999992480000174" height="17.99998344000005" class="text">159
</text>
<text x="1633.00002942" y="2102.0000066400003" width="28.000000020000243" height="17.99996070000043" class="text">SEP</text>
<text x="1661.0000294400002" y="2102.0000066400003" width="4.999927799999796" height="17.99996070000043" class="text">. </text>
<text x="1673.00001438" y="2102.0000066400003" width="13.999991220000084" height="17.99996070000043" class="text">89
</text>
</g>
<g id="page-1" transform="translate(0, 2294)">
<rect width="1758" height="2274" fill="none" stroke="black" />
<text x="109.99999555800001" y="176.999994066" width="44.00000630999999" height="32.999987832000016" class="text">13. </text>
<text x="162.999994968" y="176.000007114" width="16.99999009199999" height="31.000013927999987" class="text">If </text>
<text x="191.00000202" y="176.000007114" width="30.999991859999966" height="32.000000880000016" class="text">the </text>
<text x="241.0000008" y="176.000007114" width="88.99999817999998" height="33.000006024000015" class="text">material </text>
<text x="339.99999522" y="173.99999910000003" width="123.00001703999999" height="34.00000207200003" class="text">transmitted </text>
<text x="474.99999719999994" y="172.000007004" width="43.99999752000008" height="33.00000602399999" class="text">was </text>
<text x="531.0000148199999" y="171.00000186" width="8.999975520000135" height="31.000004832000002" class="text">a </text>
<text x="556.99999098" y="171.00000186" width="41.00000568000007" height="33.00000374999999" class="text">film </text>
<text x="614.9999973" y="169.99999899" width="22.000016340000002" height="30.999998009999985" class="text">or </text>
<text x="650.00000172" y="169.99999899" width="53.99999375999994" height="32.999996928" class="text">radio </text>
<text x="719.9999753999999" y="168.000006894" width="22.000016340000116" height="31.000004832000002" class="text">or </text>
<text x="751.99998798" y="168.000006894" width="108.99999065999998" height="33.00000602399999" class="text">television </text>
<text x="871.9999956" y="167.00000175" width="66.00001385999985" height="33.00000374999999" class="text">script</text>
<text x="937.0000414799999" y="164.999993736" width="8.999993100000097" height="30.99999573599999" class="text">, </text>
<text x="960.00004338" y="164.999993736" width="76.99996049999993" height="31.999991784000002" class="text">furnish </text>
<text x="1050.0000447" y="164.000006784" width="34.000001280000106" height="31.000004832000002" class="text">the </text>
<text x="1096.00003092" y="164.000006784" width="105.9999460800002" height="33.00000602399999" class="text">following </text>
<text x="1214.00004984" y="161.99999877" width="133.99996368000006" height="34.00000207199999" class="text">information</text>
<text x="1348.99996392" y="160.000006674" width="8.999993099999983" height="31.000004831999973" class="text">:
</text>
<text x="944.99996112" y="227.000005674" width="50.00003393999998" height="25.00000580400001" class="text">Date </text>
<text x="1009.00000386" y="226.00000053" width="27.000049619999913" height="24.000000660000012" class="text">or </text>
<text x="1045.000029" y="226.00000053" width="56.999985599999945" height="25.99999275600001" class="text">dates </text>
<text x="1113.00001398" y="224.999995386" width="113.99997119999989" height="26.999995626000015" class="text">broadcast </text>
<text x="1235.9999607" y="223.000005564" width="70.9999944000001" height="26.00001094800001" class="text">shown
</text>
<text x="108.99999945" y="243.99999534" width="70.00000005" height="32.999990105999984" class="text">Name </text>
<text x="187.99999259999998" y="243.00000383999998" width="28.000000020000016" height="31.000011653999962" class="text">of </text>
<text x="224.99998572" y="243.00000383999998" width="71.00001197999998" height="33.00000374999996" class="text">station</text>
<text x="298.00000398000003" y="242.00001233999998" width="8.999975519999964" height="31.00000710599997" class="text">, </text>
<text x="318.99998202" y="242.00001233999998" width="139.00001454" height="33.00001739399997" class="text">organization</text>
<text x="460.00002041999994" y="239.99998386" width="8.999993100000097" height="30.99998891399997" class="text">, </text>
<text x="480.00001290000006" y="239.99998386" width="24.000005039999962" height="30.99998891399997" class="text">or </text>
<text x="514.99998216" y="239.99998386" width="79.00000194000006" height="32.999978735999974" class="text">theater </text>
<text x="603.99998034" y="239.0000151" width="57.99998874000005" height="33.00001512" class="text">using
</text>
<text x="112.00000008" y="276.99998772" width="9.999996239999987" height="29.99997239999999" class="text">(</text>
<text x="121.99999632" y="276.99998772" width="102.99998940000002" height="32.99999237999998" class="text">including </text>
<text x="241.99998636" y="275.00000472" width="36.00000756" height="32.000000880000016" class="text">city </text>
<text x="291.99998514" y="274.00001322" width="38.999999400000036" height="32.000000880000044" class="text">and </text>
<text x="346.99999962" y="272.99999898" width="47.99999250000002" height="32.00000087999999" class="text">state</text>
<text x="396.9999984" y="271.99998474" width="9.99999624000003" height="29.99997240000002" class="text">)
</text>
<text x="1410.0000148200002" y="219.999992406" width="108.99993791999987" height="25.999992755999983" class="text">Estimated </text>
<text x="1532.99996154" y="219.000005454" width="121.0000107599999" height="26.999997899999983" class="text">attendance
</text>
<text x="1460.00004876" y="255.9999843" width="8.999975519999907" height="29.99998377" class="text">(</text>
<text x="1469.00002428" y="255.9999843" width="34.000001280000106" height="29.99998377" class="text">for </text>
<text x="1514.99999292" y="255.9999843" width="42.99997680000001" height="29.99998377" class="text">film</text>
<text x="1562.00003502" y="255.9999843" width="8.999975519999907" height="29.99998377" class="text">(</text>
<text x="1571.00001054" y="255.9999843" width="8.999993099999983" height="29.99998377" class="text">s</text>
<text x="1582.99999548" y="255.00001554" width="8.999975519999907" height="30.000020153999998" class="text">)</text>
<text x="1594.99996284" y="255.00001554" width="9.00008099999991" height="30.000020153999998" class="text">)
</text>
<text x="1099.0000227599999" y="492.00000216" width="34.999951680000095" height="32.99999238000004" class="text">Yes </text>
<text x="1139.99995812" y="491.00001066000004" width="9.000098579999985" height="31.00000938000005" class="text">
</text>
<text x="1201.9999770000002" y="491.00001066000004" width="39.00001697999983" height="28.00001214000008" class="text">No
</text>
<text x="115.99999506" y="510.99999984" width="44.00000631" height="32.99999237999998" class="text">14. </text>
<text x="163.999998108" y="510.00000834" width="55.999989492000026" height="32.000000880000016" class="text">Have </text>
<text x="231.00000455999998" y="508.9999941" width="43.99999752000002" height="32.00000087999996" class="text">two </text>
<text x="283.00000962" y="508.9999941" width="73.99998624" height="32.999992379999924" class="text">copies </text>
<text x="368.00001282" y="507.0000111" width="22.99998432000001" height="31.000009379999938" class="text">of </text>
<text x="399.99999024" y="507.0000111" width="38.00001384000001" height="33.000015119999944" class="text">this </text>
<text x="459.00001728" y="505.99999686" width="89.99994857999997" height="32.99999238000004" class="text">material </text>
<text x="555.99997026" y="505.00000536" width="52.00002264" height="33.000015119999944" class="text">been </text>
<text x="624.00002556" y="503.99999112" width="45.999968639999906" height="32.99999238000004" class="text">filed </text>
<text x="682.0000143" y="502.99999962" width="48.99997805999999" height="32.99999237999998" class="text">with </text>
<text x="744.99998358" y="502.00000812" width="34.00000127999999" height="32.000000880000016" class="text">the </text>
<text x="790.00000182" y="500.99999388" width="140.99995050000007" height="32.99999237999998" class="text">Department </text>
<text x="938.9999774400001" y="499.00001088000005" width="22.000016340000002" height="31.00000938000005" class="text">of </text>
<text x="974.0000345999999" y="499.00001088000005" width="70.9999944000001" height="33.00001512" class="text">Justice</text>
<text x="1046.9999473799999" y="497.00000514000004" width="9.000098579999985" height="31.000009379999995" class="text">?
</text>
<text x="116.9999982" y="576.00001584" width="39.99999726600001" height="31.000009379999938" class="text">15. </text>
<text x="173.00000351399999" y="575.0000015999999" width="48.00000480600002" height="32.0000008799999" class="text">Has </text>
<text x="231.00000455999998" y="575.0000015999999" width="36.99999312" height="32.0000008799999" class="text">this </text>
<text x="288.99999329999997" y="573.9999873600001" width="91.00000446000001" height="31.999978140000053" class="text">material </text>
<text x="385.99999902" y="573.0000186" width="52.00000505999998" height="32.00002361999998" class="text">been </text>
<text x="450.99999216000003" y="573.0000186" width="80.0000226599999" height="33.000015119999944" class="text">labeled </text>
<text x="541.0000110599999" y="570.99999012" width="28.99996800000008" height="30.999986639999975" class="text">as </text>
<text x="576.00001548" y="570.99999012" width="94.99999944000001" height="32.000000880000016" class="text">required </text>
<text x="685.9999741199999" y="570.00002136" width="22.000033920000078" height="31.000032120000014" class="text">by </text>
<text x="720.99999612" y="569.00000712" width="35.00000441999998" height="31.000009379999938" class="text">the </text>
<text x="767.9999679" y="569.00000712" width="32.00003016000005" height="31.000009379999938" class="text">act</text>
<text x="804.00001062" y="567.99999288" width="8.99997552000002" height="30.999986639999975" class="text">?
</text>
<text x="853.99999182" y="561.9999984" width="33.999983699999916" height="29.00000363999993" class="text">Yes </text>
<text x="913.0000012800001" y="561.0000069" width="8.000007539999956" height="29.000003640000045" class="text"> </text>
<text x="960.9999937800001" y="561.0000069" width="36.99999312" height="30.000017879999973" class="text">No </text>
<text x="1011.9999957" y="559.99999266" width="8.000007539999956" height="29.00000363999993" class="text">
</text>
<text x="1054.9999725" y="628.9999974" width="107.00001954000004" height="30.999986639999975" class="text">Signature
</text>
<text x="116.9999982" y="639.00000336" width="51.000007194000005" height="29.000003640000045" class="text">Date </text>
<text x="180.99998820000002" y="640.99998636" width="22.000016340000002" height="29.00000363999993" class="text">of </text>
<text x="210.99999449999999" y="643.0000148400001" width="72.00001512000003" height="30.000017880000087" class="text">report
</text>
<text x="102.999999948" y="679.99999596" width="162.99999145200002" height="30.000017879999973" class="text">11-12-92
</text>
<text x="401.99999651999997" y="633.99997764" width="70.00000884000008" height="26.999975159999963" class="text">Name </text>
<text x="483.00000473999995" y="633.00000888" width="41.000005680000015" height="27.99998939999989" class="text">and </text>
<text x="536.9999985000001" y="631.99999464" width="39.00001697999994" height="26.99997515999985" class="text">title
</text>
<text x="426.00000156" y="676.99999872" width="160.99997814000005" height="32.000000880000016" class="text">Yasumasa </text>
<text x="616.00000044" y="672.9999872400001" width="137.00000825999996" height="32.00000088000013" class="text">Iwasaki
</text>
<text x="426.00000156" y="708.9999996" width="178.99999950000006" height="32.000000880000016" class="text">Executive </text>
<text x="631.00002996" y="706.00000236" width="155.99998001999995" height="32.00000088000013" class="text">Director
</text>
<text x="1114.99994994" y="707.99998536" width="41.00004083999988" height="74.00000771999999" class="text">is </text>
<text x="1265.0000517600001" y="707.0000166" width="167.99994737999987" height="75.00002196000003" class="text">was
</text>
</g>
</svg>
