<svg xmlns="http://www.w3.org/2000/svg">
<style>.text { font-size: 14px; font-family: Arial, sans-serif; }</style>
<g id="page-0" transform="translate(0, 0)">
<rect width="1758" height="2274" fill="none" stroke="black" />
<text x="870.99997488" y="157.99999866" width="165.00007859999994" height="30.999998009999985" class="text">Dissemination </text>
<text x="1048.00002084" y="159.00000153" width="79.00000193999995" height="31.000004831999988" class="text">Report
</text>
<text x="1509.0000092399998" y="137.000002062" width="40.999952940000185" height="17.000005583999993" class="text">OMB </text>
<text x="1554.9999778800002" y="137.000002062" width="27.0000496199998" height="17.000005583999993" class="text">No. </text>
<text x="1588.99997916" y="137.000002062" width="67.99998497999991" height="18.00000163199998" class="text">1105-0006
</text>
<text x="1424.99997402" y="164.999993736" width="67.00003457999992" height="23.999991564" class="text">Approval </text>
<text x="1495.00000044" y="164.000006784" width="53.99999376000005" height="24.000009755999997" class="text">Expires </text>
<text x="1554.0000099" y="163.00000164" width="39.99998496000012" height="24.000000659999984" class="text">Nov. </text>
<text x="1597.00000428" y="160.999993626" width="16.000032659999988" height="21.99999264599998" class="text">30</text>
<text x="1614.99995532" y="160.999993626" width="6.000089160000016" height="21.99999264599998" class="text">, </text>
<text x="1627.99999614" y="160.999993626" width="31.999977420000278" height="23.999991564" class="text">1993
</text>
<text x="95.999997306" y="169.99999899" width="48.000008322" height="32.999996928" class="text">U.S. </text>
<text x="151.99999734600001" y="168.999993846" width="146.999992194" height="32.999996928" class="text">Department </text>
<text x="308.99998578" y="167.00000175" width="24.00000504000002" height="31.000004832000002" class="text">of </text>
<text x="344.00000778000003" y="167.00000175" width="77.99998121999994" height="33.00000374999999" class="text">Justice
</text>
<text x="90.999999186" y="211.99999218600001" width="132.00001541400002" height="32.99999010600001" class="text">Washington</text>
<text x="226.999992" y="207.999992076" width="9.000010680000031" height="28.99998999600001" class="text">, </text>
<text x="241.0000008" y="207.999992076" width="42.999994379999976" height="29.999992866000014" class="text">DC </text>
<text x="298.00000398000003" y="207.000005124" width="68.00000255999998" height="32.00000315400001" class="text">20530
</text>
<text x="92.00000056799999" y="307.99999710000003" width="163.99999459199998" height="28.999980900000025" class="text">INSTRUCTIONS</text>
<text x="257.00001588000003" y="305.99999136" width="6.999986819999947" height="26.000006400000018" class="text">: </text>
<text x="270.00000396" y="305.99999136" width="59.99999501999997" height="27.999989400000004" class="text">Report </text>
<text x="342.99998705999997" y="304.99999986" width="40.000020120000045" height="26.999997899999983" class="text">must </text>
<text x="387.00000216" y="304.00000836000004" width="24.00000504000002" height="26.000006400000018" class="text">be </text>
<text x="418.0000116" y="304.00000836000004" width="84.99998562000002" height="28.000012140000024" class="text">submitted </text>
<text x="514.99998216" y="302.99999412" width="10.000048980000088" height="26.000006400000018" class="text">in </text>
<text x="535.99997778" y="302.99999412" width="80.00002266000001" height="27.999989400000004" class="text">duplicate </text>
<text x="625.99999668" y="301.00001111999995" width="15.000029520000112" height="26.00000639999996" class="text">to </text>
<text x="648.9999809999999" y="301.00001111999995" width="29.999988720000033" height="26.00000639999996" class="text">the </text>
<text x="685.9999741199999" y="301.00001111999995" width="105.99999882000009" height="28.000012139999967" class="text">Registration </text>
<text x="802.00002192" y="299.00000538" width="39.999984960000006" height="26.000006400000018" class="text">Unit</text>
<text x="843.99999558" y="299.00000538" width="6.999986820000004" height="26.000006400000018" class="text">, </text>
<text x="856.99998366" y="299.00000538" width="73.00001825999993" height="27.999989400000004" class="text">Internal </text>
<text x="937.0000414799999" y="297.99999114" width="69.99992094000004" height="27.999989400000004" class="text">Security </text>
<text x="1015.9999555200001" y="296.99999964" width="67.00003458000003" height="28.000012139999967" class="text">Section</text>
<text x="1085.99998194" y="296.00000814000003" width="7.000039560000005" height="26.000006400000018" class="text">, </text>
<text x="1099.0000227599999" y="296.00000814000003" width="84.99998562000019" height="28.000012140000024" class="text">Criminal </text>
<text x="1190.9999600400001" y="294.9999939" width="74.00009172" height="27.999989400000004" class="text">Division</text>
<text x="1268.0000436" y="293.0000109" width="6.9999516599998515" height="26.000006400000018" class="text">, </text>
<text x="1280.99997894" y="294.0000024" width="112.00003524000022" height="27.99998940000006" class="text">Department </text>
<text x="1396.999974" y="291.99999666" width="19.00002449999988" height="25.999983660000055" class="text">of </text>
<text x="1424.00002362" y="291.99999666" width="59.999977440000066" height="28.000012140000024" class="text">Justice</text>
<text x="1484.0000010600002" y="291.00000516000006" width="7.000039559999777" height="26.000006400000075" class="text">, </text>
<text x="1498.99996026" y="291.00000516000006" width="101.99998626000001" height="27.99998940000006" class="text">Washington</text>
<text x="1605.9999798000001" y="288.99999942000005" width="7.0000571399998535" height="25.999983660000055" class="text">, </text>
<text x="1619.9999886" y="288.99999942000005" width="39.99998496000012" height="25.999983660000055" class="text">D.C.
</text>
<text x="95.00000119799999" y="334.99999499999996" width="63.99999878999999" height="27.999989399999947" class="text">20530. </text>
<text x="166.00000263" y="334.0000035" width="32.99998934999999" height="26.00000639999996" class="text">The </text>
<text x="204.99999323999998" y="334.0000035" width="73.00000068000003" height="28.000012139999967" class="text">original </text>
<text x="286.99998702" y="331.99999776" width="40.000020120000045" height="26.999997899999983" class="text">must </text>
<text x="330.99998454" y="331.99999776" width="24.000005039999962" height="26.00000639999996" class="text">be </text>
<text x="361.00000842000003" y="331.99999776" width="57.99998873999999" height="27.999989399999947" class="text">signed </text>
<text x="424.99998084000003" y="331.00000626" width="24.0000402" height="26.999997899999983" class="text">by </text>
<text x="456.99997584" y="329.99999202" width="19.000024499999995" height="25.99998365999994" class="text">or </text>
<text x="483.00000473999995" y="329.99999202" width="18.999989340000013" height="25.99998365999994" class="text">on </text>
<text x="511.00002234" y="329.99999202" width="56.999985599999945" height="27.999989399999947" class="text">behalf </text>
<text x="576.00001548" y="329.00000052" width="18.999989339999956" height="26.999997899999983" class="text">of </text>
<text x="600.9999885000001" y="328.00000902" width="26.00002889999996" height="26.00000639999996" class="text">the </text>
<text x="634.0000218" y="328.00000902" width="88.99999817999992" height="28.000012139999967" class="text">registrant</text>
<text x="723.0000199799999" y="326.99999478" width="7.00000440000008" height="25.999983660000055" class="text">. </text>
<text x="737.00002878" y="326.99999478" width="28.99996800000008" height="26.999997899999983" class="text">All </text>
<text x="773.00000118" y="326.00000328" width="46.99998935999997" height="26.999997899999983" class="text">items </text>
<text x="826.9999949400001" y="324.99998904" width="13.999991219999856" height="25.999983659999998" class="text">in </text>
<text x="849.99997926" y="324.99998904" width="32.99998056000004" height="25.999983659999998" class="text">this </text>
<text x="892.00004082" y="324.99998904" width="39.99998496000012" height="27.999989400000004" class="text">form </text>
<text x="947.9999529600001" y="323.99999754" width="39.00001697999994" height="27.999989399999947" class="text">must </text>
<text x="991.00003524" y="323.00000604" width="23.999952300000132" height="26.000006400000018" class="text">be </text>
<text x="1020.9999712199999" y="323.00000604" width="84.00003521999997" height="28.000012140000024" class="text">answered</text>
<text x="1107.99999828" y="321.9999918" width="6.999951660000079" height="25.99998365999994" class="text">, </text>
<text x="1119.0000152399998" y="321.9999918" width="57.99993600000016" height="27.999989399999947" class="text">unless </text>
<text x="1187.00000022" y="321.0000003" width="25.00002575999997" height="26.000006400000018" class="text">the </text>
<text x="1218.99997764" y="321.0000003" width="64.99999314000002" height="27.999989400000004" class="text">answer 
</text>
<text x="1289.99995446" y="318.99999456" width="15.00008226" height="25.999983659999998" class="text">is </text>
<text x="1313.0000442599999" y="318.99999456" width="6.999951660000079" height="25.999983659999998" class="text">"</text>
<text x="1323.9999557400001" y="318.99999456" width="44.00005025999985" height="27.999989399999947" class="text">none</text>
<text x="1370.00002986" y="318.00000306" width="6.9999516599998515" height="26.00000639999996" class="text">" </text>
<text x="1387.0000305" y="318.00000306" width="23.999952299999904" height="26.00000639999996" class="text">or </text>
<text x="1415.0000305199999" y="318.00000306" width="6.999951660000079" height="26.00000639999996" class="text">"</text>
<text x="1429.00003932" y="318.00000306" width="29.99993597999992" height="26.999997899999926" class="text">not </text>
<text x="1463.0000406" y="318.00000306" width="89.99991341999998" height="28.000012139999967" class="text">applicable</text>
<text x="1557.99996972" y="315.99999732" width="7.0000571399998535" height="26.00000639999996" class="text">,</text>
<text x="1563.0000029999999" y="315.99999732" width="6.999951660000079" height="26.00000639999996" class="text">" </text>
<text x="1580.9999540400001" y="315.99999732" width="14.000008799999932" height="26.00000639999996" class="text">in </text>
<text x="1604.00004384" y="315.99999732" width="54.99996173999989" height="27.999989400000004" class="text">which
</text>
<text x="92.999996676" y="363.99999864" width="38.000006807999995" height="29.000003640000045" class="text">case </text>
<text x="143.000002488" y="363.00000714000004" width="36.99998257199999" height="26.99999790000004" class="text">such </text>
<text x="189.99999888" y="363.00000714000004" width="19.999992480000003" height="28.00001214000008" class="text">an </text>
<text x="219.99998760000003" y="363.00000714000004" width="47.00002451999998" height="29.000003640000045" class="text">entry </text>
<text x="277.99999392" y="361.00000140000003" width="42.999994379999976" height="28.00001214000008" class="text">shall </text>
<text x="327.9999927" y="361.00000140000003" width="20.000027639999985" height="26.99999790000004" class="text">be </text>
<text x="359.00000214" y="360.00000989999995" width="45.99998621999998" height="28.000012139999967" class="text">made </text>
<text x="416.00000532" y="360.00000989999995" width="10.999981799999944" height="27.000020640000002" class="text">in </text>
<text x="439.99997520000005" y="358.99999566" width="26.000046479999924" height="26.99999790000004" class="text">the </text>
<text x="477.00002106" y="358.99999566" width="101.99998626000001" height="29.000003640000045" class="text">appropriate </text>
<text x="586.9999797" y="358.00000416" width="49.000013219999914" height="29.00000363999999" class="text">space</text>
<text x="638.99998476" y="356.99998992" width="8.000025120000032" height="26.99999790000004" class="text">. </text>
<text x="651.9999728399999" y="355.99999842" width="19.00004208000007" height="26.999997899999983" class="text">If </text>
<text x="675.99997788" y="356.99998992" width="95.00005218000001" height="28.999980900000025" class="text">additional </text>
<text x="775.99999302" y="355.00000692" width="49.00001322000003" height="29.00000363999999" class="text">space </text>
<text x="837.99999432" y="353.99999268" width="9.999996239999973" height="26.999997899999983" class="text">is </text>
<text x="860.00002824" y="353.99999268" width="58.999956719999886" height="29.00000363999999" class="text">needed </text>
<text x="933.9999441599999" y="353.00000118" width="26.00009922000004" height="28.000012140000024" class="text">for </text>
<text x="969.0000188999999" y="352.00000968" width="28.999968000000194" height="27.000020640000002" class="text">any </text>
<text x="1006.99996242" y="352.00000968" width="39.00003456000013" height="29.00000363999999" class="text">item</text>
<text x="1050.0000447" y="350.99999544" width="7.999919639999916" height="26.99999790000004" class="text">, </text>
<text x="1062.0000296399999" y="350.99999544" width="52.99992030000021" height="27.999989400000004" class="text">attach </text>
<text x="1124.00003094" y="350.99999544" width="124.99997058000008" height="29.99999514000001" class="text">supplemental </text>
<text x="1254.0000348" y="348.9999897" width="48.9999604799998" height="28.999980900000025" class="text">sheet </text>
<text x="1313.0000442599999" y="347.99999820000005" width="96.00000258" height="29.000003640000045" class="text">identifying 
</text>
<text x="1418.99999034" y="345.99999246000004" width="38.00006657999984" height="27.99998940000006" class="text">each </text>
<text x="1469.00002428" y="345.99999246000004" width="39.000016980000055" height="29.000003640000045" class="text">item</text>
<text x="1509.0000092399998" y="345.00000095999997" width="8.000025120000146" height="26.999997899999983" class="text">.
</text>
<text x="95.999997306" y="420.00000018000003" width="65.000007204" height="29.000003640000045" class="text">Privacy </text>
<text x="170.999998992" y="419.00000867999995" width="31.000002408" height="26.999997899999926" class="text">Act </text>
<text x="205.99999638" y="419.00000867999995" width="90.99998688000002" height="29.00000363999993" class="text">Statement</text>
<text x="295.9999977" y="417.00000293999994" width="7.9999899599999935" height="26.999997899999926" class="text">. </text>
<text x="308.00000022" y="417.99999444" width="51.99998747999996" height="29.000003640000045" class="text">Every </text>
<text x="370.00000152" y="417.00000293999994" width="99.00001200000003" height="29.00000363999993" class="text">registration </text>
<text x="479.00000976" y="414.9999972" width="87.99997745999997" height="27.999989400000004" class="text">statement</text>
<text x="566.00001924" y="414.0000057" width="7.999972380000031" height="26.999997899999983" class="text">, </text>
<text x="576.00001548" y="414.0000057" width="49.99998119999998" height="29.00000363999999" class="text">short </text>
<text x="631.00002996" y="412.99999146" width="42.99997680000001" height="27.999989400000004" class="text">form </text>
<text x="679.99999044" y="412.99999146" width="98.99999442000001" height="28.99998089999997" class="text">registration </text>
<text x="791.00002254" y="411.00000846" width="84.99998561999996" height="28.000012140000024" class="text">statement</text>
<text x="877.0000288800001" y="409.99999422" width="7.999954799999955" height="26.99999790000004" class="text">, </text>
<text x="890.99996736" y="409.99999422" width="120.00006036000002" height="29.99999514000001" class="text">supplemental </text>
<text x="1017.0000114000001" y="409.00000272" width="85.99995359999991" height="29.00000363999999" class="text">statement</text>
<text x="1104.00003846" y="406.99999698000005" width="7.999919639999916" height="26.99999790000004" class="text">, </text>
<text x="1116.0000234" y="406.99999698000005" width="60.999927840000055" height="29.000003640000045" class="text">exhibit</text>
<text x="1178.99999268" y="406.00000547999997" width="8.000007539999842" height="26.999997899999983" class="text">, </text>
<text x="1189.9999920599998" y="406.00000547999997" width="110.99997936" height="29.00000363999999" class="text">amendment</text>
<text x="1300.9999714199998" y="403.99999973999996" width="8.00000754000007" height="26.999997899999983" class="text">, </text>
<text x="1313.0000442599999" y="404.99999124000004" width="122.99994672000025" height="29.999995140000067" class="text">dissemination </text>
<text x="1447.0000079400002" y="403.00000824" width="54.999944159999814" height="29.00000363999999" class="text">report</text>
<text x="1503.00002556" y="401.99999399999996" width="8.00000754000007" height="26.999997899999983" class="text">, </text>
<text x="1512.99996906" y="401.99999399999996" width="45.00000066000007" height="29.00000363999999" class="text">copy </text>
<text x="1565.00002686" y="401.0000025" width="18.999919020000107" height="26.999997899999983" class="text">of </text>
<text x="1588.99997916" y="401.0000025" width="76.00001009999983" height="29.00000363999999" class="text">political
</text>
<text x="95.999997306" y="446.00000658" width="102.999994674" height="29.000003640000045" class="text">propaganda </text>
<text x="205.99999638" y="444.00000084" width="20.000010059999994" height="26.99999790000004" class="text">or </text>
<text x="235.00001712000002" y="444.00000084" width="44.999983079999964" height="28.000012139999967" class="text">other </text>
<text x="288.00000774" y="444.00000084" width="90.00000132000002" height="29.00000363999999" class="text">document </text>
<text x="382.00000404" y="441.9999951" width="19.999992479999946" height="26.999997899999983" class="text">or </text>
<text x="411.0000072" y="441.9999951" width="103.99997495999992" height="27.999989400000004" class="text">information </text>
<text x="522.9999897" y="441.0000036" width="36.99999312" height="28.000012140000024" class="text">filed </text>
<text x="569.00001108" y="439.99998936" width="39.999984960000006" height="27.999989399999947" class="text">with </text>
<text x="617.99998914" y="438.99999786" width="26.00002889999996" height="26.999997899999983" class="text">the </text>
<text x="654.0000142800001" y="438.99999786" width="76.99997807999989" height="29.00000363999999" class="text">Attorney </text>
<text x="740.00002062" y="438.00000636" width="70.99997682000003" height="29.00000363999999" class="text">General </text>
<text x="819.00002256" y="436.99999212" width="52.999973039999986" height="28.999980900000025" class="text">under </text>
<text x="877.0000288800001" y="436.00000062" width="32.999980559999926" height="26.999997899999983" class="text">this </text>
<text x="916.9999611" y="436.00000062" width="26.000081639999962" height="27.999989400000004" class="text">act </text>
<text x="949.9999943999999" y="435.00000912" width="14.999959200000262" height="26.99999790000004" class="text">is </text>
<text x="974.0000345999999" y="435.00000912" width="7.99991964000003" height="26.99999790000004" class="text">a </text>
<text x="989.00001138" y="435.00000912" width="53.00002577999987" height="29.000003640000045" class="text">public </text>
<text x="1053.00005412" y="433.99999488" width="54.99994416000004" height="27.999989400000004" class="text">record </text>
<text x="1119.0000152399998" y="433.00000338" width="40.99993536000011" height="28.000012139999967" class="text">open </text>
<text x="1169.0000491800001" y="431.99998913999997" width="15.999927179999986" height="26.999997899999926" class="text">to </text>
<text x="1195.00002534" y="433.00000338" width="53.999976179999976" height="29.000003640000045" class="text">public 
</text>
<text x="1257.00002664" y="431.99998913999997" width="107.99996994000003" height="28.99998089999997" class="text">examination</text>
<text x="1370.99999784" y="430.00000614000004" width="8.00000754000007" height="26.99999790000004" class="text">, </text>
<text x="1381.99999722" y="430.00000614000004" width="90.99998688000005" height="29.000003640000045" class="text">inspection </text>
<text x="1484.0000010600002" y="428.00000040000003" width="30.000041459999693" height="26.99999790000004" class="text">and </text>
<text x="1523.99998602" y="428.00000040000003" width="73.00001825999993" height="27.99998940000006" class="text">copying </text>
<text x="1602.00001998" y="427.0000089" width="57.99995358000024" height="28.000012140000024" class="text">during
</text>
<text x="96.999998688" y="470.99999873999997" width="27.000002154" height="26.00000639999996" class="text">the </text>
<text x="127.99999582199999" y="470.99999873999997" width="56.000001798" height="27.999989399999947" class="text">posted </text>
<text x="197.00000328000002" y="470.00000724" width="75.99999251999995" height="28.000012140000024" class="text">business </text>
<text x="278.99999706" y="468.999993" width="51.00000191999999" height="27.999989400000004" class="text">hours </text>
<text x="339.99999522" y="468.0000015" width="19.000006919999976" height="26.000006400000018" class="text">of </text>
<text x="364.00000026" y="468.0000015" width="25.999993740000036" height="26.000006400000018" class="text">the </text>
<text x="399.00000468" y="468.0000015" width="108.00000509999995" height="28.000012140000024" class="text">Registration </text>
<text x="517.00000602" y="465.99999576000005" width="39.999984960000006" height="26.000006400000075" class="text">Unit </text>
<text x="563.9999953800001" y="465.00000425999997" width="15.000011939999922" height="26.00000639999996" class="text">in </text>
<text x="589.00000356" y="465.99999576000005" width="104.99999567999998" height="27.99998940000006" class="text">Washington</text>
<text x="696.99999108" y="463.99999002000004" width="7.000004399999966" height="25.999983660000055" class="text">, </text>
<text x="710.99999988" y="463.99999002000004" width="43.99997994" height="27.99998940000006" class="text">D.C. </text>
<text x="758.9999923800001" y="462.99999851999996" width="36.999993119999885" height="26.00000639999996" class="text">One </text>
<text x="805.00001376" y="462.99999851999996" width="43.999997519999965" height="27.999989399999947" class="text">copy </text>
<text x="856.99998366" y="462.00000702" width="19.000024499999995" height="26.000006400000018" class="text">of </text>
<text x="881.0000238599999" y="462.00000702" width="49.99992846000009" height="28.000012140000024" class="text">every </text>
<text x="941.0000013" y="460.99999277999996" width="36.000025139999934" height="25.99998365999994" class="text">such </text>
<text x="989.99997936" y="460.99999277999996" width="89.00005091999992" height="27.999989399999947" class="text">document </text>
<text x="1087.00003782" y="459.00000977999997" width="14.000008799999932" height="26.00000639999996" class="text">is </text>
<text x="1108.99996626" y="459.00000977999997" width="120.00004278000006" height="27.000020640000002" class="text">automatically 
</text>
<text x="1238.99995254" y="457.99999554" width="79.0000195199998" height="27.999989399999947" class="text">provided </text>
<text x="1325.9999796" y="455.9999898" width="14.999976780000225" height="25.99998365999994" class="text">to </text>
<text x="1351.99995576" y="455.9999898" width="26.00009922000004" height="25.99998365999994" class="text">the </text>
<text x="1387.0000305" y="455.9999898" width="83.99992973999974" height="27.999989399999947" class="text">Secretary </text>
<text x="1481.00000922" y="454.99999829999996" width="19.00002449999988" height="26.00000639999996" class="text">of </text>
<text x="1506.99998538" y="454.0000068" width="41.00004083999988" height="26.00000639999996" class="text">State </text>
<text x="1559.00004318" y="454.0000068" width="81.99999378000007" height="28.000012139999967" class="text">pursuant </text>
<text x="1645.99996476" y="452.99999255999995" width="14.00000880000016" height="25.99998365999994" class="text">to
</text>
<text x="95.999997306" y="499.00001088000005" width="64.00000406400001" height="28.00001214000008" class="text">Section </text>
<text x="169.99999761" y="497.99999664" width="6.999995609999985" height="26.00000639999996" class="text">6</text>
<text x="180.99998820000002" y="497.99999664" width="7.000004399999966" height="26.00000639999996" class="text">(</text>
<text x="187.99999259999998" y="497.99999664" width="7.000004400000023" height="26.00000639999996" class="text">b</text>
<text x="198.99999198" y="497.99999664" width="7.000004399999995" height="26.00000639999996" class="text">) </text>
<text x="210.99999449999999" y="497.00000514000004" width="19.000024499999995" height="26.000006400000075" class="text">of </text>
<text x="235.00001712000002" y="497.00000514000004" width="25.99997615999999" height="26.000006400000075" class="text">the </text>
<text x="270.00000396" y="497.00000514000004" width="28.999985579999986" height="26.000006400000075" class="text">Act</text>
<text x="300.00001026" y="495.9999909" width="6.999969239999984" height="25.999983659999998" class="text">, </text>
<text x="312.00001278" y="495.9999909" width="34.00000127999999" height="25.999983659999998" class="text">and </text>
<text x="351.00001218" y="495.9999909" width="57.99998873999999" height="27.999989400000004" class="text">copies </text>
<text x="416.00000532" y="494.99999940000004" width="19.000006920000033" height="26.000006400000018" class="text">of </text>
<text x="440.99999591999995" y="494.99999940000004" width="38.000013840000065" height="26.99999790000004" class="text">such </text>
<text x="484.99999344" y="494.99999940000004" width="96.00000258" height="27.99998940000006" class="text">documents </text>
<text x="589.99997154" y="492.99999366000003" width="27.000049620000027" height="25.999983660000055" class="text">are </text>
<text x="624.99999354" y="492.99999366000003" width="80.00000508000005" height="27.99998940000006" class="text">routinely </text>
<text x="716.9999835599999" y="491.00001066000004" width="43.000029540000014" height="27.000020640000002" class="text">made </text>
<text x="767.0000175" y="491.00001066000004" width="77.99998122" height="28.00001214000008" class="text">available </text>
<text x="853.99999182" y="489.99999642" width="13.99999121999997" height="26.00000639999996" class="text">to </text>
<text x="876.00000816" y="489.00000492000004" width="47.99999249999996" height="26.99999790000004" class="text">other </text>
<text x="927.99996048" y="489.00000492000004" width="79.00000193999995" height="28.00001214000008" class="text">agencies</text>
<text x="1006.99996242" y="487.99999068" width="7.000057139999967" height="25.999983659999998" class="text">, </text>
<text x="1019.0000528400001" y="487.99999068" width="111.99992975999999" height="27.999989400000004" class="text">departments </text>
<text x="1136.0000158799999" y="486.00000767999995" width="30.0000238800003" height="26.00000639999996" class="text">and </text>
<text x="1176.99995124" y="486.00000767999995" width="81.00004337999985" height="28.000012139999967" class="text">Congress </text>
<text x="1266.00000216" y="484.99999344" width="79.00001952000025" height="27.99998940000006" class="text">pursuant </text>
<text x="1351.00000536" y="484.00000194" width="13.999991220000084" height="26.000006400000018" class="text">to </text>
<text x="1376.00001354" y="484.00000194" width="62.99996927999996" height="28.000012140000024" class="text">Section 
</text>
<text x="1449.0000318" y="481.9999962" width="6.999951660000079" height="26.000006400000018" class="text">6</text>
<text x="1460.00004876" y="481.9999962" width="6.999951660000079" height="26.000006400000018" class="text">(</text>
<text x="1467.9999508199999" y="481.9999962" width="7.000057140000081" height="26.000006400000018" class="text">c</text>
<text x="1477.9999998" y="481.9999962" width="6.9999516599998515" height="26.000006400000018" class="text">) </text>
<text x="1489.99998474" y="481.9999962" width="19.00002449999988" height="26.000006400000018" class="text">of </text>
<text x="1514.0000425199999" y="481.9999962" width="25.99997615999996" height="26.99999790000004" class="text">the </text>
<text x="1548.9999942" y="481.00000470000003" width="33.00003330000004" height="26.000006400000075" class="text">Act</text>
<text x="1582.0000275" y="481.00000470000003" width="6.999951660000079" height="26.000006400000075" class="text">. </text>
<text x="1593.99999486" y="481.00000470000003" width="59.00002704000008" height="28.00001214000008" class="text">Finally
</text>
<text x="1656.99996414" y="479.99999046" width="7.000057140000081" height="25.999983659999998" class="text">,
</text>
<text x="95.00000119799999" y="527.00000028" width="30.000001026000007" height="26.000006400000018" class="text">the </text>
<text x="132.999993942" y="527.00000028" width="71.99999929799998" height="27.999989399999947" class="text">Attorney </text>
<text x="217.9999989" y="526.00000878" width="71.99999754000001" height="28.000012140000024" class="text">General </text>
<text x="294.99999456" y="524.99999454" width="82.00001136000003" height="27.999989399999947" class="text">transmits </text>
<text x="384.99999588" y="522.9999888" width="19.000006920000033" height="25.99998365999994" class="text">an </text>
<text x="413.99999904" y="522.9999888" width="59.999977440000066" height="26.999997899999983" class="text">annual </text>
<text x="479.00000976" y="522.9999888" width="56.99996801999998" height="27.999989399999947" class="text">report </text>
<text x="542.00003178" y="521.0000058" width="13.999938480000083" height="26.000006400000018" class="text">to </text>
<text x="565.0000160999999" y="521.0000058" width="29.999988720000033" height="26.000006400000018" class="text">the </text>
<text x="602.0000092199999" y="521.0000058" width="81.99999378000007" height="28.000012140000024" class="text">Congress </text>
<text x="693.99999924" y="519.00000006" width="19.000024499999995" height="26.000006400000018" class="text">on </text>
<text x="720.99999612" y="519.00000006" width="29.999988720000033" height="26.000006400000018" class="text">the </text>
<text x="757.99997166" y="519.00000006" width="132.0000453" height="29.000003640000045" class="text">Administration </text>
<text x="901.9999843200001" y="516.99999432" width="19.000024499999995" height="25.999983659999998" class="text">of </text>
<text x="927.00001008" y="516.0000028200001" width="25.99997615999996" height="26.000006400000075" class="text">the </text>
<text x="960.00004338" y="516.0000028200001" width="33.99998370000003" height="26.000006400000075" class="text">Act </text>
<text x="998.99995488" y="516.0000028200001" width="54.00009923999994" height="28.00001214000008" class="text">which </text>
<text x="1062.0000296399999" y="515.00001132" width="35.99991966000016" height="27.000020640000002" class="text">lists </text>
<text x="1105.99997442" y="513.9999970800001" width="26.00008164000019" height="26.000006400000075" class="text">the </text>
<text x="1141.99999956" y="513.9999970800001" width="58.000041479999936" height="27.999989400000118" class="text">names </text>
<text x="1206.9999927" y="513.00000558" width="19.00002450000011" height="26.00000639999996" class="text">of </text>
<text x="1229.99997702" y="513.00000558" width="25.999976160000188" height="26.99999790000004" class="text">all </text>
<text x="1260.99998646" y="513.00000558" width="58.000041480000164" height="28.000012139999967" class="text">agents </text>
<text x="1323.9999557400001" y="511.99999134" width="89.00005091999992" height="27.999989400000004" class="text">registered 
</text>
<text x="1421.99998218" y="510.99999984" width="53.00002577999999" height="27.999989400000004" class="text">under </text>
<text x="1481.00000922" y="510.00000834" width="28.99996800000008" height="26.99999790000004" class="text">the </text>
<text x="1517.9999847600002" y="508.9999941" width="33.000033299999814" height="25.999983659999998" class="text">Act</text>
<text x="1551.00001806" y="508.9999941" width="6.999951660000079" height="25.999983659999998" class="text">, </text>
<text x="1565.00002686" y="508.9999941" width="25.0000257600002" height="26.999997899999983" class="text">the </text>
<text x="1597.00000428" y="508.9999941" width="62.99996928000019" height="27.999989399999947" class="text">foreign
</text>
<text x="96.999998688" y="558.00000966" width="88.999987632" height="30.000017880000087" class="text">principals </text>
<text x="192.99999072" y="556.00000392" width="38.99999940000001" height="29.000003640000045" class="text">they </text>
<text x="241.0000008" y="556.00000392" width="86.00000634000003" height="29.99999514000001" class="text">represent</text>
<text x="325.00000086" y="553.99999818" width="7.9999899599999935" height="27.999989400000004" class="text">, </text>
<text x="342.0000015" y="553.99999818" width="31.999995000000013" height="27.999989400000004" class="text">and </text>
<text x="381.0000009" y="553.99999818" width="28.000000020000016" height="29.000003640000045" class="text">the </text>
<text x="416.00000532" y="553.00000668" width="57.000003179999965" height="29.00000363999993" class="text">nature</text>
<text x="476.00000034" y="551.99999244" width="7.999972380000031" height="27.999989400000004" class="text">, </text>
<text x="490.00000914000003" y="551.99999244" width="66.99998183999998" height="29.99999514000001" class="text">sources </text>
<text x="565.0000160999999" y="551.00000094" width="30.999991860000137" height="29.00000363999993" class="text">and </text>
<text x="607.00002492" y="550.00000944" width="66.99998184000003" height="29.00000363999993" class="text">content </text>
<text x="682.0000143" y="548.9999952" width="20.99996046000001" height="27.99998939999989" class="text">of </text>
<text x="709.00001118" y="548.9999952" width="26.999996879999912" height="29.00000363999993" class="text">the </text>
<text x="743.99998044" y="548.0000037" width="75.0000421200001" height="29.00000363999993" class="text">political </text>
<text x="827.99999808" y="546.9999894599999" width="104.00002770000015" height="30.99998663999986" class="text">propaganda </text>
<text x="943.99999314" y="545.00000646" width="113.99997119999989" height="31.000009379999938" class="text">disseminated </text>
<text x="1068.9999813" y="543.00000072" width="19.999992480000174" height="27.999989400000004" class="text">or </text>
<text x="1096.9999813200002" y="543.00000072" width="96.00000257999977" height="29.99999514000001" class="text">distributed </text>
<text x="1203.0000328800002" y="540.99999498" width="19.999992479999946" height="27.999989400000004" class="text">by </text>
<text x="1232.0000184599999" y="540.99999498" width="43.99992720000023" height="29.99999514000001" class="text">them</text>
<text x="1280.00001096" y="540.00000348" width="8.000025119999918" height="28.000012140000024" class="text">. </text>
<text x="1294.00001976" y="540.00000348" width="39.99998496000012" height="29.99999514000001" class="text">This 
</text>
<text x="1344.0000536999999" y="538.99998924" width="53.99999376000005" height="29.99999514000001" class="text">report </text>
<text x="1405.99994952" y="537.99999774" width="15.00008226" height="27.999989400000004" class="text">is </text>
<text x="1430.0000073" y="537.99999774" width="76.99997807999989" height="29.99999514000001" class="text">available </text>
<text x="1517.9999847600002" y="535.999992" width="14.99997677999977" height="27.999989400000004" class="text">to </text>
<text x="1543.00001052" y="535.999992" width="28.000000020000016" height="28.999980900000025" class="text">the </text>
<text x="1580.9999540400001" y="535.999992" width="57.00009107999995" height="29.99999514000001" class="text">public</text>
<text x="1638.00004512" y="534.000009" width="7.999919639999916" height="28.000012139999967" class="text">.
</text>
<text x="98.000001828" y="608.0000167200001" width="54.999996899999985" height="28.000034880000044" class="text">Public </text>
<text x="160.00000137" y="608.0000167200001" width="87.00001827000003" height="28.000034880000044" class="text">Reporting </text>
<text x="253.00000332000002" y="607.00000248" width="60.99998058" height="27.999989400000118" class="text">Burden</text>
<text x="320.00000274" y="605.0000194800001" width="7.000004400000023" height="26.00000640000019" class="text">. </text>
<text x="330.99998454" y="605.99998824" width="56.000017619999994" height="27.99998939999989" class="text">Public </text>
<text x="395.99999526" y="605.0000194800001" width="80.00000508" height="28.000034880000044" class="text">reporting </text>
<text x="483.00000473999995" y="604.0000052400001" width="60.999998160000075" height="27.999989400000118" class="text">burden </text>
<text x="552.00002802" y="602.999991" width="25.99997615999996" height="26.999975160000076" class="text">for </text>
<text x="583.99998786" y="602.0000222399999" width="29.000020739999968" height="26.00000639999996" class="text">this </text>
<text x="617.99998914" y="602.0000222399999" width="87.00000948000002" height="28.000034879999816" class="text">collection </text>
<text x="716.00001558" y="601.0000080000001" width="14.000008800000046" height="26.00000640000019" class="text">of </text>
<text x="736.0000080599999" y="601.0000080000001" width="103.99997496000015" height="27.999989400000118" class="text">information </text>
<text x="849.00001128" y="598.99997952" width="9.999996240000087" height="25.999960920000035" class="text">is </text>
<text x="867.99998304" y="598.99997952" width="79.99996992000013" height="27.999989400000004" class="text">estimated </text>
<text x="957.00003396" y="598.00001076" width="14.999976779999997" height="26.000006400000075" class="text">to </text>
<text x="980.0000358599999" y="598.00001076" width="65.9999611200002" height="27.999989400000004" class="text">average </text>
<text x="1054.00000452" y="596.9999965200001" width="14.000008799999932" height="26.000006400000075" class="text">.5 </text>
<text x="1074.99996498" y="596.9999965200001" width="51.00000191999993" height="27.999989400000118" class="text">hours </text>
<text x="1133.00000646" y="595.99998228" width="29.999935980000146" height="25.999960920000035" class="text">per </text>
<text x="1167.99997572" y="595.99998228" width="78.00003395999988" height="27.999989400000004" class="text">response</text>
<text x="1246.00000968" y="593.99999928" width="6.999951660000079" height="26.00000639999996" class="text">, </text>
<text x="1258.99994502" y="595.00001352" width="80.00007540000001" height="28.00001214000008" class="text">including </text>
<text x="1347.00004554" y="592.9999850400001" width="25.999976160000188" height="25.99998366000011" class="text">the </text>
<text x="1381.99999722" y="592.9999850400001" width="39.000034559999904" height="25.99998366000011" class="text">time </text>
<text x="1427.99996586" y="592.0000162800001" width="25.999993740000036" height="26.000006400000075" class="text">for </text>
<text x="1458.9999753" y="592.0000162800001" width="87.0000270600001" height="28.00001214000008" class="text">reviewing </text>
<text x="1549.99996218" y="591.00000204" width="107.00000195999996" height="28.000012139999967" class="text">instructions</text>
<text x="1656.99996414" y="589.9999878" width="7.000057140000081" height="25.999983659999998" class="text">,
</text>
<text x="95.00000119799999" y="637.00002036" width="86.99999014200002" height="29.00000363999993" class="text">searching </text>
<text x="189.99999888" y="636.00000612" width="70.00000883999999" height="29.00000363999993" class="text">existing </text>
<text x="271.0000071" y="634.99999188" width="34.99998683999996" height="27.999989400000004" class="text">data </text>
<text x="313.9999839" y="633.99997764" width="67.00001699999996" height="27.999989400000004" class="text">sources</text>
<text x="384.99999588" y="633.00000888" width="8.000007540000013" height="27.000020640000002" class="text">, </text>
<text x="398.00000154" y="633.00000888" width="84.00000005999999" height="29.00000363999993" class="text">gathering </text>
<text x="491.99999784" y="631.99999464" width="29.999988720000033" height="27.99998939999989" class="text">and </text>
<text x="538.00001922" y="630.9999804" width="99.99996239999996" height="27.999989400000004" class="text">maintaining </text>
<text x="647.00000988" y="630.00001164" width="25.99997615999996" height="27.999989400000118" class="text">the </text>
<text x="684.000003" y="628.9999974" width="32.999980559999926" height="26.999975160000076" class="text">data </text>
<text x="730.00002438" y="628.9999974" width="62.99996928000007" height="29.00000363999993" class="text">needed</text>
<text x="795.00001752" y="627.9999831599999" width="7.999972380000031" height="26.99997515999985" class="text">, </text>
<text x="808.0000056" y="627.0000144" width="29.999988720000033" height="27.000020640000002" class="text">and </text>
<text x="850.9999824" y="627.0000144" width="98.0000440199999" height="29.000003640000045" class="text">completing </text>
<text x="958.99996992" y="624.99998592" width="30.000041460000034" height="26.999975159999963" class="text">and </text>
<text x="1000.0000283400001" y="624.99998592" width="90.99996929999986" height="29.00000363999993" class="text">reviewing </text>
<text x="1097.9999493" y="624.0000171600001" width="26.000081639999962" height="28.000034880000044" class="text">the </text>
<text x="1135.0000479" y="623.00000292" width="86.99992158000009" height="27.999989400000004" class="text">collection </text>
<text x="1232.0000184599999" y="621.99998868" width="19.00002450000011" height="26.999975159999963" class="text">of </text>
<text x="1260.99998646" y="621.99998868" width="104.00001012000007" height="29.00000363999993" class="text">information</text>
<text x="1368.000006" y="620.0000056800001" width="8.00000754000007" height="27.000020640000002" class="text">. 
</text>
<text x="1382.9999652" y="620.0000056800001" width="41.00005842000019" height="29.000003640000045" class="text">Send </text>
<text x="1433.9999671199998" y="618.99999144" width="95.00003460000016" height="27.999989400000004" class="text">comments </text>
<text x="1537.9999772400001" y="618.00002268" width="83.00006723999991" height="29.000003640000045" class="text">regarding </text>
<text x="1631.99995596" y="615.9999942000001" width="30.00004145999992" height="26.999975160000076" class="text">this
</text>
<text x="95.00000119799999" y="662.9999812799999" width="60.000002052" height="26.999975159999963" class="text">burden </text>
<text x="166.00000263" y="662.00001252" width="72.00000632999999" height="27.000020640000002" class="text">estimate </text>
<text x="248.99999076" y="660.99999828" width="19.000006919999976" height="26.00000639999996" class="text">or </text>
<text x="275.00000208" y="660.99999828" width="30.000006299999995" height="27.000020640000002" class="text">any </text>
<text x="313.9999839" y="659.99998404" width="48.00001007999998" height="26.999975159999963" class="text">other </text>
<text x="368.99999838" y="659.99998404" width="57.000003179999965" height="27.999989400000004" class="text">aspect </text>
<text x="433.99999152" y="659.00001528" width="19.000024500000052" height="27.000020640000002" class="text">of </text>
<text x="457.99999656" y="658.00000104" width="29.000020739999968" height="26.000006400000075" class="text">this </text>
<text x="495.99999281999993" y="658.00000104" width="90.99998688000011" height="27.999989400000004" class="text">collection </text>
<text x="595.00000482" y="656.9999868" width="18.999971760000108" height="26.999975159999963" class="text">of </text>
<text x="618.99999228" y="656.9999868" width="104.00002769999992" height="27.999989400000004" class="text">information</text>
<text x="729.00000366" y="655.0000038" width="7.000004399999966" height="26.00000639999996" class="text">, </text>
<text x="741.99999174" y="655.0000038" width="83.00001450000002" height="27.99998939999989" class="text">including </text>
<text x="835.00000248" y="653.99998956" width="105.00004841999998" height="27.999989400000004" class="text">suggestions </text>
<text x="947.00000256" y="652.00000656" width="25.99997615999996" height="26.00000639999996" class="text">for </text>
<text x="980.99998626" y="652.00000656" width="75.00005969999984" height="27.99998939999989" class="text">reducing </text>
<text x="1067.00004534" y="650.9999923199999" width="32.99992782000004" height="26.99997515999985" class="text">this </text>
<text x="1107.0000303" y="649.99997808" width="60.99994542000013" height="26.999975159999963" class="text">burden </text>
<text x="1175.99998326" y="649.00000932" width="14.999976780000225" height="26.00000639999996" class="text">to 
</text>
<text x="1201.9999770000002" y="649.00000932" width="52.00005779999992" height="27.999989400000004" class="text">Chief</text>
<text x="1254.0000348" y="647.99999508" width="6.9999516599998515" height="26.00000639999996" class="text">, </text>
<text x="1266.99997014" y="647.99999508" width="110.00001137999993" height="26.999975159999963" class="text">Registration </text>
<text x="1382.9999652" y="646.00001208" width="44.00005026000008" height="27.000020640000002" class="text">Unit</text>
<text x="1424.99997402" y="646.00001208" width="7.0000571399998535" height="26.00000639999996" class="text">, </text>
<text x="1441.99997466" y="646.00001208" width="82.00001136000014" height="27.999989400000004" class="text">Criminal </text>
<text x="1529.00000172" y="644.99999784" width="79.99996992000001" height="27.999989400000004" class="text">Division</text>
<text x="1610.0000451" y="643.9999836" width="6.9999516599998515" height="25.99996091999992" class="text">, </text>
<text x="1624.0000363200002" y="643.0000148400001" width="43.99994477999985" height="27.000020640000002" class="text">U.S.
</text>
<text x="95.999997306" y="691.00001616" width="108.99999593399998" height="27.000020640000002" class="text">Department </text>
<text x="213.00000078" y="688.99998768" width="18.999989340000013" height="26.000006400000075" class="text">of </text>
<text x="240.00001524" y="690.0000019199999" width="58.99997429999999" height="27.99998939999989" class="text">Justice</text>
<text x="300.00001026" y="688.00001892" width="6.999969239999984" height="26.00000639999996" class="text">, </text>
<text x="315.00000462" y="688.00001892" width="101.00000069999999" height="27.000020640000002" class="text">Washington</text>
<text x="421.99998899999997" y="687.00000468" width="7.000004400000023" height="26.00000639999996" class="text">, </text>
<text x="435.00001224000005" y="687.00000468" width="40.99998809999994" height="27.999989400000004" class="text">D.C. </text>
<text x="485.99999657999996" y="685.99999044" width="52.999990620000005" height="27.999989400000004" class="text">20530</text>
<text x="541.0000110599999" y="685.00002168" width="7.00000440000008" height="26.000006400000075" class="text">; </text>
<text x="555.99997026" y="685.00002168" width="29.00003831999993" height="26.000006400000075" class="text">and </text>
<text x="596.0000079600001" y="684.00000744" width="14.000008799999932" height="26.00000639999996" class="text">to </text>
<text x="621.99998412" y="684.00000744" width="26.000046480000037" height="26.00000639999996" class="text">the </text>
<text x="654.99998226" y="684.00000744" width="58.000041479999936" height="27.999989400000004" class="text">Office </text>
<text x="721.99999926" y="682.9999932" width="18.999989339999956" height="26.00000639999996" class="text">of </text>
<text x="748.99999614" y="682.9999932" width="107.99998751999999" height="27.999989400000004" class="text">Information </text>
<text x="864.9999912" y="681.0000102" width="30.000041460000148" height="26.000006400000075" class="text">and </text>
<text x="906.0000496200001" y="681.0000102" width="97.99992095999994" height="27.999989400000004" class="text">Regulatory </text>
<text x="1014.9999875400001" y="679.99999596" width="61.000050899999906" height="27.999989400000004" class="text">Affairs</text>
<text x="1079.9999806800001" y="678.0000129599999" width="7.0000571399998535" height="26.00000639999996" class="text">, </text>
<text x="1091.99996562" y="678.99998172" width="58.000041479999936" height="27.999989400000118" class="text">Office </text>
<text x="1159.0000002" y="676.99999872" width="19.00002450000011" height="26.000006400000075" class="text">of </text>
<text x="1184.9999763600001" y="676.99999872" width="121.0000107599999" height="29.000003640000045" class="text">Management </text>
<text x="1309.99994694" y="675.00001572" width="33.00003330000004" height="26.00000639999996" class="text">and 
</text>
<text x="1353.00002922" y="675.00001572" width="63.999937260000024" height="28.000034880000044" class="text">Budget</text>
<text x="1418.00002236" y="674.0000014799999" width="6.999951660000079" height="26.00000639999996" class="text">, </text>
<text x="1429.00003932" y="674.0000014799999" width="104.99999567999998" height="27.99998939999989" class="text">Washington</text>
<text x="1540.0000186799998" y="672.00001848" width="6.999951660000306" height="26.00000639999996" class="text">, </text>
<text x="1552.99995402" y="672.00001848" width="45.00000066000007" height="27.000020640000002" class="text">D.C. </text>
<text x="1604.00004384" y="672.00001848" width="52.999920299999985" height="28.000034880000044" class="text">20503</text>
<text x="1659.0000055799999" y="671.00000424" width="6.999951660000079" height="26.00000639999996" class="text">.
</text>
<text x="110.99999693999999" y="748.99997796" width="26.00000604600001" height="28.99995816000012" class="text">1. </text>
<text x="149.000003748" y="748.99997796" width="66.00000331199999" height="28.99995816000012" class="text">Name </text>
<text x="231.00000455999998" y="749.9999922" width="19.999992480000003" height="29.00000363999993" class="text">of </text>
<text x="262.99999956" y="749.9999922" width="108.00000510000001" height="29.00000363999993" class="text">registrant
</text>
<text x="142.00000110599998" y="793.9999820400001" width="221.999999154" height="33.99998388000006" class="text">International </text>
<text x="379.99999776" y="791.9999990399999" width="169.99998882000006" height="33.999983879999945" class="text">Registries</text>
<text x="556.99999098" y="790.00001604" width="9.000028260000022" height="31.000032120000014" class="text">, </text>
<text x="589.00000356" y="790.00001604" width="66.99998184000003" height="33.000015119999944" class="text">Inc.
</text>
<text x="1221.9999694800001" y="738.0000032400001" width="22.000016339999775" height="30.000017880000087" class="text">2. </text>
<text x="1252.00001094" y="738.0000032400001" width="135.9999875399999" height="33.00001512000006" class="text">Registration </text>
<text x="1401.0000393" y="736.00002024" width="46.999919039999895" height="32.000000880000016" class="text">No.
</text>
<text x="1237.00003416" y="775.9999986" width="70.9999944000001" height="26.000006400000075" class="text">4533
</text>
<text x="115.000005984" y="850.00000632" width="24.999990600000004" height="33.000015119999944" class="text">3. </text>
<text x="150.999994206" y="850.00000632" width="73.99999151400002" height="34.9999981200001" class="text">Nature </text>
<text x="238.00000896" y="847.99997784" width="24.00000504000002" height="32.99996964000013" class="text">of </text>
<text x="276.00000522" y="847.99997784" width="92.0000076" height="33.999983879999945" class="text">material </text>
<text x="377.00000592000004" y="847.00000908" width="8.999993099999983" height="33.000015119999944" class="text">(</text>
<text x="387.00000216" y="847.00000908" width="8.999993099999983" height="33.000015119999944" class="text">A </text>
<text x="411.99999276" y="847.00000908" width="82.99999692" height="34.9999981200001" class="text">concise </text>
<text x="507.00000977999997" y="845.99999484" width="96.99997056000001" height="34.9999981200001" class="text">account </text>
<text x="607.00002492" y="844.0000118400001" width="24.999955440000008" height="33.00001512000017" class="text">of </text>
<text x="641.9999766" y="844.0000118400001" width="33.00003330000004" height="34.000029359999985" class="text">the </text>
<text x="685.9999741199999" y="844.0000118400001" width="74.00003898" height="34.9999981200001" class="text">nature </text>
<text x="768.9999886200001" y="841.99998336" width="24.00000504000002" height="32.99996964000002" class="text">of </text>
<text x="805.00001376" y="841.99998336" width="31.99997742000005" height="32.99996964000002" class="text">the </text>
<text x="847.99999056" y="841.99998336" width="133.99996367999995" height="35.99996687999999" class="text">propaganda </text>
<text x="998.99995488" y="840.0000003600001" width="95.00003460000005" height="34.9999981200001" class="text">material </text>
<text x="1105.0000064399999" y="838.0000173599999" width="45.00000066000007" height="34.000029359999985" class="text">filed</text>
<text x="1155.99999078" y="838.0000173599999" width="8.99999310000021" height="33.000015119999944" class="text">)
</text>
<text x="781.9999767" y="901.00000488" width="45.00001824000003" height="32.000000880000016" class="text">--N</text>
<text x="832.00001064" y="899.99999064" width="9.999996239999973" height="30.999986639999975" class="text">/</text>
<text x="846.99998742" y="899.99999064" width="9.999996239999973" height="30.999986639999975" class="text">A</text>
<text x="863.9999880600001" y="899.00002188" width="79.00005467999983" height="33.000015119999944" class="text">-----
</text>
<text x="113.000001462" y="975.0000126000001" width="33.999997764" height="27.000020640000002" class="text">4. </text>
<text x="156.00000639" y="975.0000126000001" width="42.999985589999994" height="27.000020640000002" class="text">Title </text>
<text x="215.00000706" y="975.99998136" width="25.00000818000001" height="26.999975160000076" class="text">of </text>
<text x="252.00001776000002" y="976.9999956" width="92.99997557999998" height="27.999989400000118" class="text">material</text>
<text x="342.99998705999997" y="975.99998136" width="8.000025120000032" height="26.999975160000076" class="text">, </text>
<text x="363.0000147" y="975.99998136" width="14.999994360000017" height="26.999975160000076" class="text">if </text>
<text x="388.0000053" y="976.9999956" width="37.99999625999999" height="26.999975160000076" class="text">any
</text>
<text x="932.99999376" y="971.0000011200001" width="28.999967999999967" height="30.99998664000009" class="text">5. </text>
<text x="985.00005156" y="971.0000011200001" width="66.99992910000014" height="33.00001512000006" class="text">Name </text>
<text x="1056.99999636" y="969.0000181199999" width="28.99998557999993" height="31.0000321199999" class="text">of </text>
<text x="1090.0000296599999" y="969.0000181199999" width="76.00001010000028" height="32.000000880000016" class="text">foreign </text>
<text x="1175.99998326" y="968.00000388" width="104.00002770000015" height="33.000015119999944" class="text">principal </text>
<text x="1283.99997078" y="966.9999896400001" width="28.000000020000016" height="32.000000880000016" class="text">on </text>
<text x="1319.99999592" y="966.9999896400001" width="72.0000502800001" height="32.99996964000013" class="text">whose </text>
<text x="1398.9999978600001" y="966.00002088" width="71.99996237999972" height="33.00001512000006" class="text">behalf </text>
<text x="1475.00000796" y="963.9999924" width="42.99997680000024" height="32.0000008799999" class="text">this </text>
<text x="1529.00000172" y="963.9999924" width="92.00004276000004" height="33.000015119999944" class="text">material </text>
<text x="1624.0000363200002" y="962.0000094000001" width="43.99994477999985" height="32.00000088000013" class="text">was
</text>
<text x="983.0000277" y="998.99999052" width="128.99993039999993" height="27.99998939999989" class="text">transmitted</text>
<text x="1116.0000234" y="998.99999052" width="8.00000754000007" height="27.99998939999989" class="text">.
</text>
<text x="1241.99996196" y="1058.00001204" width="67.99998497999991" height="24.000023399999918" class="text">None
</text>
<text x="143.000002488" y="1072.99999824" width="68.999995152" height="23.999977919999992" class="text">None
</text>
<text x="115.000005984" y="1141.99998024" width="28.999999644" height="25.99996091999992" class="text">6. </text>
<text x="150.999994206" y="1141.99998024" width="78.000004074" height="27.999989400000004" class="text">Means </text>
<text x="241.0000008" y="1140.0000654599999" width="24.00000504000002" height="26.00007461999985" class="text">of </text>
<text x="273.99999894" y="1140.99994326" width="138.99997938" height="28.99993541999993" class="text">transmission
</text>
<text x="650.00000172" y="1140.0000654599999" width="18.000021360000005" height="32.00006909999979" class="text">7. </text>
<text x="675.0000099" y="1140.0000654599999" width="66.99998184000003" height="34.00005209999995" class="text">Dates </text>
<text x="754.00002942" y="1139.00005122" width="22.999984319999953" height="32.00006910000002" class="text">of </text>
<text x="787.00000998" y="1139.00005122" width="140.99995050000007" height="34.00005209999995" class="text">transmission
</text>
<text x="1161.00002406" y="1135.000017" width="18.999919020000107" height="32.000000880000016" class="text">8. </text>
<text x="1190.9999600400001" y="1135.000017" width="56.00001761999988" height="34.0000293600001" class="text">Total </text>
<text x="1255.00000278" y="1132.99998852" width="72.0000502800001" height="32.99996964000002" class="text">copies </text>
<text x="1339.00002042" y="1132.00001976" width="125.99993855999992" height="34.99999811999987" class="text">transmitted
</text>
<text x="337.99998894" y="1189.0000128" width="45.00001824000003" height="29.000071859999935" class="text">--N</text>
<text x="392.00000028" y="1189.0000128" width="7.9999899599999935" height="29.000071859999935" class="text">/</text>
<text x="406.99999464" y="1189.0000128" width="7.9999899599999935" height="29.000071859999935" class="text">A-
</text>
<text x="685.9999741199999" y="1187.99999856" width="24.00000504000002" height="22.00006313999984" class="text">TV
</text>
<text x="846.0000194400001" y="1180.99998984" width="32.999980559999926" height="29.999972399999933" class="text">-N</text>
<text x="887.9999755199999" y="1180.99998984" width="8.999993100000097" height="29.999972399999933" class="text">/</text>
<text x="902.9999523" y="1180.99998984" width="9.00008099999991" height="29.999972399999933" class="text">A-
</text>
<text x="1187.9999682" y="1174.99999536" width="69.00005843999998" height="23.999977919999992" class="text">None
</text>
<text x="115.99999506" y="1244.9999916" width="28.999999643999985" height="32.000000880000016" class="text">9. </text>
<text x="154.000001868" y="1244.9999916" width="47.999999532000004" height="33.00003785999979" class="text">List </text>
<text x="210.99999449999999" y="1244.9999916" width="104.99999568000001" height="34.00005209999995" class="text">addresses </text>
<text x="329.00001342" y="1242.9999403799998" width="54.999979319999966" height="32.00000087999979" class="text">from </text>
<text x="393.00000342" y="1242.9999403799998" width="67.99998498000002" height="33.999892919999866" class="text">which </text>
<text x="480.99998088" y="1242.00006258" width="88.00003020000003" height="34.00005209999995" class="text">material </text>
<text x="579.9999753" y="1241.00004834" width="41.00000568000007" height="32.000000880000016" class="text">was </text>
<text x="634.9999897800001" y="1241.00004834" width="119.00003963999995" height="34.00005209999995" class="text">transmitted</text>
<text x="761.00003382" y="1240.0000113600001" width="8.999975519999907" height="32.000000880000016" class="text">:
</text>
<text x="938.9999774400001" y="1231.9999884000001" width="41.000058419999846" height="28.999935420000156" class="text">10. </text>
<text x="989.99997936" y="1230.99995142" width="41.00004083999988" height="27.999898439999924" class="text">List </text>
<text x="1048.00002084" y="1230.99995142" width="62.00000130000012" height="28.9999354199997" class="text">states </text>
<text x="1122.00000708" y="1229.00005938" width="42.00000881999995" height="28.000057620000007" class="text">and </text>
<text x="1176.99995124" y="1229.00005938" width="115.99999506000017" height="30.000108840000166" class="text">territories </text>
<text x="1309.99994694" y="1225.99999392" width="20.000097959999948" height="27.00004338000008" class="text">of </text>
<text x="1345.99997208" y="1225.99999392" width="30.000041460000148" height="27.00004338000008" class="text">the </text>
<text x="1393.00001418" y="1225.99999392" width="76.00001009999983" height="28.99993541999993" class="text">United </text>
<text x="1486.9999929" y="1223.9999427" width="65.99996111999985" height="28.999935420000156" class="text">States </text>
<text x="1566.99996282" y="1223.0000648999999" width="18.000056519999816" height="27.000043379999852" class="text">to </text>
<text x="1600.99994652" y="1223.0000648999999" width="66.00006659999985" height="29.000071859999707" class="text">which
</text>
<text x="992.0000032199999" y="1263.99998928" width="93.00001074" height="27.999921179999774" class="text">material </text>
<text x="1093.0000215" y="1262.9999523000001" width="39.99998495999989" height="27.999898440000152" class="text">was </text>
<text x="1144.9999914" y="1261.99993806" width="127.00001201999999" height="28.999935420000156" class="text">transmitted</text>
<text x="1275.99994566" y="1259.00000904" width="7.0000571399998535" height="26.000006400000075" class="text">:
</text>
<text x="676.9999986" y="1466.9999465399999" width="39.99998495999989" height="39.99988739999981" class="text">'92 </text>
<text x="678.00001932" y="1382.99993286" width="40.999988099999996" height="38.99987316000011" class="text">JUL </text>
<text x="678.99996972" y="1329.00000528" width="39.00003456000002" height="30.99998664000009" class="text">15 </text>
<text x="679.99999044" y="1278.00000672" width="39.99998495999989" height="111.00005706000024" class="text">P22
</text>
<text x="435.9999978" y="1389.99994158" width="49.99999877999994" height="29.999949660000084" class="text">--N</text>
<text x="499.00000223999996" y="1389.0000637800001" width="8.000007540000013" height="29.000071860000162" class="text">/</text>
<text x="512.99999346" y="1389.0000637800001" width="8.000025119999918" height="29.000071860000162" class="text">A-
</text>
<text x="1285.00004424" y="1376.0000605799999" width="43.999927199999775" height="28.000057620000007" class="text">--N</text>
<text x="1336.99999656" y="1376.0000605799999" width="8.000025120000146" height="28.000057620000007" class="text">/</text>
<text x="1353.9999972" y="1376.0000605799999" width="8.00000754000007" height="28.000057620000007" class="text">A-
</text>
<text x="105.99999882" y="1544.9999884800002" width="41.000000406" height="34.000052100000175" class="text">11. </text>
<text x="161.00000451" y="1544.9999884800002" width="62.00001009000002" height="34.000052100000175" class="text">Types </text>
<text x="236.00000268000002" y="1542.99993726" width="23.000001899999972" height="32.000000880000016" class="text">of </text>
<text x="267.99999768" y="1542.99993726" width="110.99999694000002" height="34.9999299000001" class="text">recipients </text>
<text x="393.00000342" y="1541.0000224799999" width="8.999993099999983" height="32.000000880000016" class="text">(</text>
<text x="399.99999024" y="1541.0000224799999" width="51.000001920000045" height="34.0000293600001" class="text">Give </text>
<text x="462.00000911999996" y="1540.00000824" width="87.99997746000008" height="34.00002935999987" class="text">number </text>
<text x="561.00000354" y="1538.999994" width="24.00000504000002" height="33.000015119999944" class="text">of </text>
<text x="593.00001612" y="1538.999994" width="151.99996746" height="34.99992989999987" class="text">organizations
</text>
<text x="158.99999998799998" y="1574.00006034" width="16.99999009200002" height="30.00010883999994" class="text">in </text>
<text x="191.00000202" y="1575.99995238" width="49.00001322" height="32.000000880000016" class="text">each </text>
<text x="257.00001588000003" y="1576.99998936" width="61.99996613999997" height="32.00000087999979" class="text">group</text>
<text x="322.99999457999996" y="1575.99995238" width="9.00001068000006" height="29.999949660000084" class="text">)
</text>
<text x="528.0000229799999" y="1587.0000635400002" width="68.99995296000009" height="23.00007738000022" class="text">None
</text>
<text x="941.99996928" y="1530.9999483000001" width="48.00001008000004" height="33.00001512000017" class="text">12. </text>
<text x="991.00003524" y="1529.99993406" width="48.00001008000004" height="32.999878680000165" class="text">List </text>
<text x="1054.00000452" y="1529.99993406" width="70.00002642000004" height="34.9999299000001" class="text">names </text>
<text x="1142.99994996" y="1529.0000562599998" width="38.00006657999984" height="33.00003785999979" class="text">and </text>
<text x="1203.0000328800002" y="1529.0000562599998" width="110.0000113799997" height="35.000066339999876" class="text">addresses </text>
<text x="1331.99996328" y="1527.0000050400001" width="24.000057780000134" height="33.00001512000017" class="text">of </text>
<text x="1370.00002986" y="1527.0000050400001" width="87.99997745999985" height="35.0000663400001" class="text">persons </text>
<text x="1480.00004124" y="1525.9999908" width="24.999902699999893" height="33.00003786000002" class="text">or </text>
<text x="1520.0000261999999" y="1525.9999908" width="152.99998818000017" height="34.9999299000001" class="text">organizations
</text>
<text x="991.00003524" y="1566.00001464" width="102.99995424000008" height="34.0000293600001" class="text">receiving </text>
<text x="1113.99998196" y="1565.0000004" width="31.99997742000005" height="32.000000880000016" class="text">100 </text>
<text x="1159.0000002" y="1565.0000004" width="72.0000502800001" height="34.00005209999995" class="text">copies </text>
<text x="1243.00001784" y="1563.99998616" width="22.99998431999984" height="33.00003785999979" class="text">or </text>
<text x="1283.0000028" y="1562.9999491800002" width="50.000033940000094" height="32.000000880000016" class="text">more</text>
<text x="1336.0000285800002" y="1562.9999491800002" width="8.999993099999983" height="32.000000880000016" class="text">:
</text>
<text x="1297.0000116" y="1647.99999984" width="36.000025139999934" height="28.999935420000156" class="text">-N</text>
<text x="1340.9999563800002" y="1646.9999856" width="8.000007539999842" height="27.99992118" class="text">/</text>
<text x="1354.9999651800001" y="1646.9999856" width="8.000007539999842" height="27.99992118" class="text">A-
</text>
<text x="108.99999945" y="1636.00001088" width="101.99999504999998" height="23.999955180000143" class="text">Libraries
</text>
<text x="107.00000196" y="1670.9999407799999" width="69.99999125999999" height="26.999884199999997" class="text">Public </text>
<text x="194.999997" y="1670.0000629800002" width="88.99999817999998" height="28.000057620000234" class="text">officials
</text>
<text x="107.00000196" y="1708.0000583400001" width="138.0000114" height="32.000000880000016" class="text">Newspapers
</text>
<text x="107.99999806800001" y="1735.99997952" width="60.999998159999976" height="27.00004338000008" class="text">Press </text>
<text x="182.99999448" y="1734.99994254" width="88.99999817999998" height="26.000006400000075" class="text">services </text>
<text x="283.99999518" y="1734.00006474" width="22.99998432000001" height="25.000128600000153" class="text">of
</text>
<text x="132.999993942" y="1766.9999434200001" width="138.99999871799997" height="26.000006400000302" class="text">associations
</text>
<text x="112.00000008" y="1799.99998128" width="136.00000512000003" height="27.000043379999852" class="text">Educational
</text>
<text x="137.000002986" y="1831.99998216" width="123.99999029400001" height="27.000043379999852" class="text">institutions
</text>
<text x="113.000001462" y="1866.0000115199998" width="55.999994765999986" height="23.999955179999915" class="text">Civic </text>
<text x="206.99999952" y="1869.9999775200001" width="79.9999875" height="26.00002914000015" class="text">groups
</text>
<text x="109.99999555800001" y="1905.00002112" width="66.99999766199998" height="34.00002935999987" class="text">Other </text>
<text x="189.99999888" y="1904.0000068800002" width="8.999993100000012" height="32.00000088000024" class="text">(</text>
<text x="197.99998884000001" y="1905.00002112" width="78.00001637999998" height="33.000015119999944" class="text">specify</text>
<text x="278.99999706" y="1905.00002112" width="9.000010680000003" height="32.00000087999979" class="text">)
</text>
<text x="1557.99996972" y="2060.00006802" width="42.99997680000001" height="17.000082900000052" class="text">FORM </text>
<text x="1613.00003694" y="2060.00006802" width="32.99992782000004" height="17.000082900000052" class="text">CRM</text>
<text x="1653.0000219" y="2059.00005378" width="5.000015699999949" height="17.00010564000013" class="text">-</text>
<text x="1656.99996414" y="2059.00005378" width="19.999992480000174" height="17.00010564000013" class="text">159
</text>
<text x="1624.0000363200002" y="2079.9999435" width="28.99998557999993" height="17.999960699999974" class="text">SEP</text>
<text x="1653.0000219" y="2080.99998048" width="5.000015699999949" height="17.99998344000005" class="text">. </text>
<text x="1664.99998926" y="2080.99998048" width="13.000040820000095" height="17.99998344000005" class="text">89
</text>
</g>
<g id="page-1" transform="translate(0, 2294)">
<rect width="1758" height="2274" fill="none" stroke="black" />
<text x="93.999999816" y="173.99999910000003" width="40.999998648000016" height="32.000000880000016" class="text">13. </text>
<text x="139.999996584" y="173.99999910000003" width="22.99999838400001" height="32.000000880000016" class="text">If </text>
<text x="168.999996228" y="173.99999910000003" width="35.999997011999994" height="32.99999692800003" class="text">the </text>
<text x="221.00000832" y="172.99999395600003" width="91.99999001999998" height="31.99999178400003" class="text">material </text>
<text x="320.00000274" y="172.99999395600003" width="123.99998501999994" height="33.999992976000016" class="text">transmitted </text>
<text x="456.99997584" y="172.000007004" width="45.000018239999974" height="32.000009976" class="text">was </text>
<text x="511.00002234" y="172.000007004" width="8.99997552000002" height="32.000009976" class="text">a </text>
<text x="538.00001922" y="172.000007004" width="41.99995607999995" height="33.00000602399999" class="text">film </text>
<text x="593.00001612" y="171.00000186" width="24.00000504000002" height="32.00000087999999" class="text">or </text>
<text x="628.99998852" y="171.00000186" width="53.99999375999994" height="32.00000087999999" class="text">radio </text>
<text x="699.99998292" y="171.00000186" width="23.000037059999954" height="32.00000087999999" class="text">or </text>
<text x="733.00001622" y="171.00000186" width="108.99999065999998" height="33.999999798000005" class="text">television </text>
<text x="852.00000312" y="169.99999899" width="69.00000570000009" height="32.00000087999999" class="text">script</text>
<text x="916.9999611" y="169.99999899" width="9.000081000000137" height="32.00000087999999" class="text">, </text>
<text x="941.0000013" y="168.999993846" width="76.00001010000005" height="31.999991784000002" class="text">furnish </text>
<text x="1028.99999634" y="168.999993846" width="36.99999312" height="31.999991784000002" class="text">the </text>
<text x="1076.99998884" y="168.999993846" width="102.99995424000008" height="33.99999297599999" class="text">following </text>
<text x="1198.00001718" y="168.999993846" width="125.99993856000015" height="33.99999297599999" class="text">information</text>
<text x="1330.0000449" y="167.00000175" width="8.999975520000135" height="32.00000087999999" class="text">:
</text>
<text x="923.00005026" y="227.9999949" width="49.99992845999998" height="23.999987016000006" class="text">Date </text>
<text x="986.99996994" y="227.000005674" width="27.000049619999913" height="24.000000660000012" class="text">or </text>
<text x="1023.0000126599999" y="227.000005674" width="56.99996802000021" height="25.00000580400001" class="text">dates </text>
<text x="1090.99999764" y="227.000005674" width="110.99997936000022" height="26.00001094800001" class="text">broadcast </text>
<text x="1212.00002598" y="226.00000053" width="73.00001826000016" height="25.99999275600001" class="text">shown
</text>
<text x="89.00000169600001" y="236.99998662" width="67.99999376999999" height="30.999986639999975" class="text">Name </text>
<text x="169.99999761" y="236.99998662" width="21.99998997" height="30.999986639999975" class="text">of </text>
<text x="200.99999825999998" y="236.99998662" width="71.99999753999998" height="30.999986639999975" class="text">station</text>
<text x="278.99999706" y="236.99998662" width="9.000010680000003" height="30.999986639999975" class="text">, </text>
<text x="295.9999977" y="236.99998662" width="137.99999382" height="30.999986639999975" class="text">organization</text>
<text x="440.99999591999995" y="236.99998662" width="8.999975520000078" height="30.999986639999975" class="text">, </text>
<text x="456.99997584" y="236.99998662" width="29.000020739999968" height="30.999986639999975" class="text">or </text>
<text x="493.00000098000004" y="236.99998662" width="77.99999880000001" height="30.999986639999975" class="text">theater </text>
<text x="580.99999602" y="236.99998662" width="59.00000946" height="30.999986639999975" class="text">using
</text>
<text x="92.00000056799999" y="272.99999898" width="9.000001890000007" height="30.999986640000003" class="text">(</text>
<text x="102.999999948" y="272.99999898" width="102.999996432" height="33.00001512" class="text">including </text>
<text x="219.00000204" y="271.99998474" width="36.99999311999997" height="30.999986640000003" class="text">city </text>
<text x="267.00001212" y="271.00001598" width="39.99996737999999" height="31.000032120000014" class="text">and </text>
<text x="322.99999457999996" y="271.00001598" width="48.00001008000004" height="31.000032120000014" class="text">state</text>
<text x="373.9999965" y="271.00001598" width="9.000010680000003" height="31.000032120000014" class="text">)
</text>
<text x="1385.99995704" y="223.999992516" width="112.00003523999999" height="24.999987612000012" class="text">Estimated </text>
<text x="1509.9999772200001" y="223.999992516" width="120.0000603599999" height="24.999987612000012" class="text">attendance
</text>
<text x="1438.00001484" y="260.99998727999997" width="8.000025119999918" height="27.999989399999947" class="text">(</text>
<text x="1446.0000399599999" y="260.99998727999997" width="34.000001280000106" height="27.999989399999947" class="text">for </text>
<text x="1491.00004062" y="259.99999578" width="40.999952940000185" height="28.000012139999995" class="text">film</text>
<text x="1539.0000507" y="259.99999578" width="7.999919640000144" height="28.000012139999995" class="text">(</text>
<text x="1546.9999703400001" y="259.99999578" width="8.00000754000007" height="28.000012139999995" class="text">s</text>
<text x="1560.99996156" y="259.99999578" width="8.000025120000146" height="28.000012139999995" class="text">)</text>
<text x="1569.99995466" y="259.99999578" width="8.00000754000007" height="28.000012139999995" class="text">)
</text>
<text x="799.99999806" y="336.00000924" width="39.00001697999994" height="28.000012139999967" class="text">--N</text>
<text x="849.00001128" y="334.0000035" width="8.99997552000002" height="26.999997899999983" class="text">/</text>
<text x="863.00002008" y="334.0000035" width="8.99997552000002" height="26.999997899999983" class="text">A
</text>
<text x="93.999999816" y="503.99999112" width="45.999996768" height="32.00000087999996" class="text">14. </text>
<text x="143.000002488" y="503.99999112" width="54.99998635200001" height="32.99999238000004" class="text">Have </text>
<text x="209.99999136" y="502.99999962" width="42.000026400000024" height="32.000000880000016" class="text">two </text>
<text x="264.0000027" y="502.99999962" width="70.99999439999999" height="32.000000880000016" class="text">copies </text>
<text x="348.00002034" y="502.00000812" width="22.99998432000001" height="32.000000880000016" class="text">of </text>
<text x="377.00000592000004" y="502.00000812" width="41.00000567999996" height="32.000000880000016" class="text">this </text>
<text x="435.00001224000005" y="502.00000812" width="87.99997745999997" height="34.00000662000002" class="text">material </text>
<text x="531.0000148199999" y="500.99999388" width="53.99999376000005" height="32.00000087999996" class="text">been </text>
<text x="602.0000092199999" y="500.99999388" width="42.99997680000013" height="32.00000087999996" class="text">filed </text>
<text x="658.00002684" y="500.00000238" width="50.99998433999997" height="32.000000880000016" class="text">with </text>
<text x="721.99999926" y="500.00000238" width="32.99998056000004" height="32.000000880000016" class="text">the </text>
<text x="767.0000175" y="500.00000238" width="137.99995865999995" height="34.000006619999965" class="text">Department </text>
<text x="913.0000012800001" y="499.00001088000005" width="24.00004019999983" height="32.00000088000007" class="text">of </text>
<text x="949.0000264199999" y="499.00001088000005" width="73.99998624" height="33.00001512" class="text">Justice</text>
<text x="1026.0000045000002" y="497.99999664" width="8.999975519999907" height="32.00000087999996" class="text">?
</text>
<text x="1074.99996498" y="489.99999642" width="35.0000571600001" height="24.999992160000033" class="text">Yes </text>
<text x="1124.00003094" y="489.99999642" width="6.999951660000079" height="24.999992160000033" class="text">
</text>
<text x="1181.99998452" y="492.00000216" width="33.99998370000003" height="26.99999790000004" class="text">No </text>
<text x="1232.99996886" y="489.99999642" width="8.000025119999918" height="26.00000639999996" class="text">
</text>
<text x="1429.00003932" y="500.99999388" width="48.99996048000003" height="29.00000363999993" class="text">--N</text>
<text x="1486.9999929" y="500.99999388" width="8.000007539999842" height="29.00000363999993" class="text">/</text>
<text x="1498.99996026" y="500.99999388" width="31.000009439999985" height="29.00000363999993" class="text">A--
</text>
<text x="95.00000119799999" y="566.00000988" width="39.99999726600002" height="31.000009379999938" class="text">15. </text>
<text x="151.99999734600001" y="566.00000988" width="44.00000279399998" height="31.000009379999938" class="text">Has </text>
<text x="209.0000058" y="566.00000988" width="38.999999400000036" height="32.000000880000016" class="text">this </text>
<text x="265.00000584000003" y="564.9999956400001" width="88.00001261999995" height="30.99998664000009" class="text">material </text>
<text x="361.00000842000003" y="564.9999956400001" width="51.999969899999996" height="30.99998664000009" class="text">been </text>
<text x="428.9999934" y="564.9999956400001" width="76.99999566000002" height="32.000000880000016" class="text">labeled </text>
<text x="521.00001858" y="564.00000414" width="22.999984320000067" height="31.000009379999938" class="text">as </text>
<text x="555.99997026" y="564.00000414" width="92.00006034" height="31.000009379999938" class="text">required </text>
<text x="658.9999772399999" y="564.00000414" width="28.000017600000092" height="31.000009379999938" class="text">by </text>
<text x="699.0000149399999" y="564.00000414" width="34.99996926000006" height="31.000009379999938" class="text">the </text>
<text x="743.00001246" y="562.9999899000001" width="35.99997240000005" height="30.99998664000009" class="text">act</text>
<text x="778.00001688" y="562.9999899000001" width="8.999993099999983" height="30.99998664000009" class="text">?
</text>
<text x="830.99998992" y="556.99999542" width="36.00004272000001" height="24.000000659999955" class="text">Yes </text>
<text x="881.0000238599999" y="554.99998968" width="6.999951659999965" height="21.99999491999995" class="text">
</text>
<text x="933.9999441599999" y="556.00000392" width="38.000066580000066" height="23.00000915999999" class="text">No </text>
<text x="986.0000195399999" y="556.00000392" width="5.999983680000014" height="23.00000915999999" class="text">
</text>
<text x="1311.0000204" y="567.00000138" width="26.999944140000025" height="29.00000363999993" class="text">-N</text>
<text x="1345.99997208" y="566.00000988" width="8.99999310000021" height="28.000012139999967" class="text">/</text>
<text x="1359.99998088" y="566.00000988" width="8.999975519999907" height="28.000012139999967" class="text">A-
</text>
<text x="92.00000056799999" y="630.9999804" width="52.999994136" height="28.99995816000012" class="text">Date </text>
<text x="156.00000639" y="633.00000888" width="24.99998181000001" height="27.99998939999989" class="text">of </text>
<text x="188.99999574" y="634.99999188" width="71.99999754000001" height="29.000003640000045" class="text">report
</text>
<text x="382.00000404" y="627.0000144" width="65.99999628" height="24.999992160000147" class="text">Name </text>
<text x="457.99999656" y="626.00000016" width="39.00001698" height="24.99999215999992" class="text">and </text>
<text x="510.00000162" y="626.00000016" width="42.99997680000007" height="24.99999215999992" class="text">title
</text>
<text x="1028.99999634" y="626.00000016" width="104.00001011999984" height="29.00000363999993" class="text">Signature
</text>
<text x="1020.00000324" y="722.0000028000001" width="71.99996238000006" height="142.99998972000014" class="text">ST
</text>
<text x="1458.00000732" y="748.0000092" width="183.0000296400001" height="161.9999874" class="text">Hewan
</text>
<text x="115.000005984" y="726.99998304" width="63.999993516" height="30.99998663999986" class="text">July </text>
<text x="202.0000014" y="725.00000004" width="29.000003159999977" height="30.99998664000009" class="text">13</text>
<text x="236.99998824000002" y="723.9999858" width="9.000010679999974" height="29.00000363999993" class="text">, </text>
<text x="273.99999894" y="723.9999858" width="63.00000444" height="30.99998664000009" class="text">1992
</text>
<text x="387.00000216" y="723.9999858" width="148.00002522" height="32.0000008799999" class="text">Archibald </text>
<text x="552.99997842" y="723.0000170400001" width="38.00001383999995" height="30.0000178800002" class="text">N. </text>
<text x="608.99999604" y="723.0000170400001" width="114.99999191999996" height="32.00000088000013" class="text">Stewart</text>
<text x="730.99999236" y="722.0000028000001" width="9.000028260000022" height="30.000017879999973" class="text">, </text>
<text x="761.00003382" y="722.0000028000001" width="152.99991785999998" height="30.99998664000009" class="text">President
</text>
</g>
</svg>
