<svg xmlns="http://www.w3.org/2000/svg">
<style>.text { font-size: 14px; font-family: Arial, sans-serif; }</style>
<g id="page-0" transform="translate(0, 0)">
<rect width="1756" height="2277" fill="none" stroke="black" />
<text x="891.00000164" y="138.000003174" width="161.99999072000003" height="31.000000185000005" class="text">Dissemination </text>
<text x="1070.00002152" y="138.000003174" width="77.9999571599999" height="29.000006342999995" class="text">Report
</text>
<text x="103.000000972" y="138.000003174" width="53.00000465999999" height="31.000000185000005" class="text">U.S. </text>
<text x="162.99999935600002" y="138.000003174" width="151.999990404" height="31.000000185000005" class="text">Department </text>
<text x="320.0000066" y="138.000003174" width="29.000006359999986" height="31.000000185000005" class="text">of </text>
<text x="359.00001152" y="138.000003174" width="80.99996024000006" height="31.000000185000005" class="text">Justice
</text>
<text x="106.99999864" y="178.999997616" width="131.00000572" height="32.99999174999999" class="text">Washington</text>
<text x="240.00000056" y="176.999996943" width="8.999991680000022" height="29.999989602" class="text">, </text>
<text x="259.99999768000004" y="176.999996943" width="37.99999803999998" height="29.999989602" class="text">DC </text>
<text x="310.00000804" y="176.999996943" width="68.99998303999996" height="31.999990275000016" class="text">20530
</text>
<text x="1530.0000430799998" y="122.999999265" width="41.99997288000009" height="15.999996276000005" class="text">OMB </text>
<text x="1576.0000259199999" y="122.999999265" width="30.000030800000104" height="15.999996276000005" class="text">No. </text>
<text x="1612.99999952" y="122.999999265" width="66.00001507999991" height="15.999996276000005" class="text">1105-0006
</text>
<text x="1446.99999884" y="147.000007341" width="66.00003263999997" height="19.00000525500002" class="text">Approval </text>
<text x="1518.99998496" y="147.000007341" width="50.99996456000008" height="19.00000525500002" class="text">Expires </text>
<text x="1577.99996944" y="146.000005866" width="35.00003007999999" height="19.000005255000005" class="text">Nov. </text>
<text x="1621.00001944" y="146.000005866" width="13.999973400000044" height="19.000005255000005" class="text">30</text>
<text x="1639.00002036" y="146.000005866" width="4.999981720000051" height="19.000005255000005" class="text">, </text>
<text x="1651.00005024" y="146.000005866" width="31.999974320000092" height="19.000005255000005" class="text">1993
</text>
<text x="104.999998928" y="278.00000019000004" width="164.99999731199998" height="27.000005670000036" class="text">INSTRUCTIONS</text>
<text x="269.99999624" y="278.00000019000004" width="8.000002359999996" height="27.000005670000036" class="text">: </text>
<text x="284.00000475999997" y="278.00000019000004" width="64.00000132000002" height="27.000005670000036" class="text">Report </text>
<text x="358.00000464" y="278.00000019000004" width="40.99998356000003" height="27.000005670000036" class="text">must </text>
<text x="405.00001191999996" y="278.00000019000004" width="18.999990240000045" height="27.000005670000036" class="text">be </text>
<text x="432.00000452" y="278.00000019000004" width="89.99998704000001" height="27.000005670000036" class="text">submitted </text>
<text x="530.00001148" y="278.00000019000004" width="14.999962719999985" height="27.000005670000036" class="text">in </text>
<text x="553.00001168" y="278.00000019000004" width="80.00000604000002" height="27.000005670000036" class="text">duplicate </text>
<text x="642.99999872" y="278.00000019000004" width="15.000015399999938" height="27.000005670000036" class="text">to </text>
<text x="667.0000058" y="278.00000019000004" width="27.000010159999988" height="27.000005670000036" class="text">the </text>
<text x="701.9999832000001" y="278.00000019000004" width="108.00004063999984" height="27.000005670000036" class="text">Registration </text>
<text x="817.99999108" y="278.00000019000004" width="42.00000799999998" height="27.000005670000036" class="text">Unit</text>
<text x="860.9999708400001" y="278.00000019000004" width="8.000037479999946" height="27.000005670000036" class="text">, </text>
<text x="875.00001448" y="278.00000019000004" width="71.9999509999999" height="27.000005670000036" class="text">Internal </text>
<text x="955.99995716" y="278.00000019000004" width="71.99998612000002" height="27.000005670000036" class="text">Security </text>
<text x="1039.0000014" y="278.00000019000004" width="62.99999443999991" height="27.000005670000036" class="text">Section</text>
<text x="1106.99999512" y="278.00000019000004" width="8.000019920000113" height="27.000005670000036" class="text">, </text>
<text x="1118.00003568" y="278.00000019000004" width="86.99996639999995" height="27.000005670000036" class="text">Criminal </text>
<text x="1205.99997384" y="278.00000019000004" width="80.00002360000008" height="27.000005670000036" class="text">Division</text>
<text x="1288.0000463200001" y="278.00000019000004" width="7.999914559999752" height="27.000005670000036" class="text">, </text>
<text x="1303.0000090400001" y="278.00000019000004" width="109.99994904000005" height="27.000005670000036" class="text">Department </text>
<text x="1416.99996804" y="278.00000019000004" width="20.000049799999942" height="27.000005670000036" class="text">of </text>
<text x="1442.00001712" y="278.00000019000004" width="58.99996692000013" height="27.000005670000036" class="text">Justice</text>
<text x="1504.00002224" y="278.00000019000004" width="8.000019920000113" height="27.000005670000036" class="text">, </text>
<text x="1518.0000132" y="278.00000019000004" width="104.99994976000016" height="27.000005670000036" class="text">Washington</text>
<text x="1625.0000294" y="278.00000019000004" width="8.000019920000113" height="27.000005670000036" class="text">, </text>
<text x="1640.99996388" y="278.00000019000004" width="43.0000500000001" height="27.000005670000036" class="text">D.C.
</text>
<text x="108.000002008" y="305.00000586" width="60.999999996000014" height="28.000018529999977" class="text">20530. </text>
<text x="177.99999544" y="305.00000586" width="34.99999496000001" height="28.000018529999977" class="text">The </text>
<text x="219.99998588000003" y="305.00000586" width="73.00002811999994" height="28.000018529999977" class="text">original </text>
<text x="299.00000259999996" y="305.00000586" width="43.99998664000003" height="28.000018529999977" class="text">must </text>
<text x="349.00001296" y="305.00000586" width="19.999979559999986" height="28.000018529999977" class="text">be </text>
<text x="378.00001932" y="305.00000586" width="54.99999208000003" height="28.000018529999977" class="text">signed </text>
<text x="439.99997176000005" y="305.00000586" width="21.00003911999994" height="28.000018529999977" class="text">by </text>
<text x="472.00001632" y="305.00000586" width="19.999997120000046" height="28.000018529999977" class="text">or </text>
<text x="494.99999896" y="305.00000586" width="26.00002083999999" height="28.000018529999977" class="text">on </text>
<text x="528.00001528" y="305.00000586" width="58.00001271999997" height="28.000018529999977" class="text">behalf </text>
<text x="591.9999814800001" y="305.00000586" width="21.000039119999883" height="28.000018529999977" class="text">of </text>
<text x="616.00000612" y="305.00000586" width="26.99999260000004" height="28.000018529999977" class="text">the </text>
<text x="651.00001864" y="305.00000586" width="89.99998703999995" height="28.000018529999977" class="text">registrant</text>
<text x="741.00000568" y="305.00000586" width="7.999967240000046" height="28.000018529999977" class="text">. </text>
<text x="752.9999828800001" y="305.00000586" width="28.000034599999935" height="28.000018529999977" class="text">All </text>
<text x="790.99999848" y="305.00000586" width="46.00001795999992" height="28.000018529999977" class="text">items </text>
<text x="844.99998368" y="305.00000586" width="15.999987160000046" height="28.000018529999977" class="text">in </text>
<text x="871.9999762799999" y="305.00000586" width="31.000072800000112" height="28.000018529999977" class="text">this </text>
<text x="909.99999188" y="305.00000586" width="43.00003243999993" height="28.000018529999977" class="text">form </text>
<text x="963.0000053199999" y="305.00000586" width="43.000032440000155" height="28.000018529999977" class="text">must </text>
<text x="1012.0000087999999" y="305.00000586" width="21.00003912000011" height="28.000018529999977" class="text">be </text>
<text x="1039.9999907200001" y="305.00000586" width="80.9999777999999" height="28.000018529999977" class="text">answered</text>
<text x="1127.00004492" y="305.00000586" width="7.999914559999979" height="28.000018529999977" class="text">, </text>
<text x="1139.9999412" y="305.00000586" width="57.00004095999998" height="28.000018529999977" class="text">unless </text>
<text x="1204.00003032" y="305.00000586" width="26.99999260000004" height="28.000018529999977" class="text">the </text>
<text x="1237.99996572" y="305.00000586" width="66.00003263999997" height="28.000018529999977" class="text">answer </text>
<text x="1308.9999800800001" y="305.00000586" width="17.00001159999988" height="28.000018529999977" class="text">is </text>
<text x="1331.99996272" y="305.00000586" width="8.000019919999886" height="28.000018529999977" class="text">"</text>
<text x="1345.9999536799999" y="305.00000586" width="42.00006068000016" height="28.000018529999977" class="text">none</text>
<text x="1388.00001436" y="305.00000586" width="8.000019919999886" height="28.000018529999977" class="text">" </text>
<text x="1406.0000152799998" y="305.00000586" width="21.00003912000011" height="28.000018529999977" class="text">or </text>
<text x="1434.99996896" y="305.00000586" width="8.000019920000113" height="28.000018529999977" class="text">"</text>
<text x="1447.9999706" y="305.00000586" width="29.000059039999996" height="28.000018529999977" class="text">not </text>
<text x="1483.00000068" y="305.00000586" width="92.00003591999985" height="28.000018529999977" class="text">applicable</text>
<text x="1577.99996944" y="305.00000586" width="8.000019919999886" height="28.000018529999977" class="text">,</text>
<text x="1582.99996872" y="305.00000586" width="8.000019920000113" height="28.000018529999977" class="text">" </text>
<text x="1603.0000185200001" y="305.00000586" width="9.999980999999934" height="28.000018529999977" class="text">in </text>
<text x="1622.9999629600002" y="305.00000586" width="55.00007987999993" height="28.000018529999977" class="text">which
</text>
<text x="108.000002008" y="333.99999171" width="35.999996572000015" height="28.99998585000003" class="text">case </text>
<text x="152.999997284" y="333.99999171" width="41.000002875999996" height="28.99998585000003" class="text">such </text>
<text x="205.0000056" y="333.99999171" width="16.99999403999999" height="28.99998585000003" class="text">an </text>
<text x="233.00000508000002" y="333.99999171" width="45.99998284" height="28.99998585000003" class="text">entry </text>
<text x="289.00000404" y="333.99999171" width="44.999993519999975" height="28.99998585000003" class="text">shall </text>
<text x="341.99998236" y="333.99999171" width="20.000014679999992" height="28.99998585000003" class="text">be </text>
<text x="374.00000936" y="333.99999171" width="45.99998284000003" height="28.99998585000003" class="text">made </text>
<text x="430.00000832" y="333.99999171" width="15.000015399999995" height="28.99998585000003" class="text">in </text>
<text x="456.00002916" y="333.99999171" width="27.99996435999998" height="28.99998585000003" class="text">the </text>
<text x="490.999989" y="333.99999171" width="105.00000244" height="28.99998585000003" class="text">appropriate </text>
<text x="606.00002512" y="333.99999171" width="47.99997903999997" height="28.99998585000003" class="text">space</text>
<text x="658.00001412" y="333.99999171" width="7.999967240000046" height="28.99998585000003" class="text">. </text>
<text x="674.00000128" y="333.99999171" width="11.000005439999995" height="28.99998585000003" class="text">If </text>
<text x="694.00001596" y="333.99999171" width="92.99997255999995" height="28.99998585000003" class="text">additional </text>
<text x="793.99996644" y="333.99999171" width="49.00002103999998" height="28.99998585000003" class="text">space </text>
<text x="851.99997916" y="333.99999171" width="17.000029160000054" height="28.99998585000003" class="text">is </text>
<text x="877.00002824" y="333.99999171" width="60.99992800000007" height="28.99998585000003" class="text">needed </text>
<text x="952.00005256" y="333.99999171" width="27.99996435999992" height="28.99998585000003" class="text">for </text>
<text x="984.0000268800001" y="333.99999171" width="33.99995295999986" height="28.99998585000003" class="text">any </text>
<text x="1027.99994328" y="333.99999171" width="38.00006827999982" height="28.99998585000003" class="text">item</text>
<text x="1066.99998332" y="333.99999171" width="8.000019920000113" height="28.99998585000003" class="text">, </text>
<text x="1079.99998496" y="333.99999171" width="52.000041680000095" height="28.99998585000003" class="text">attach </text>
<text x="1145.00004584" y="333.99999171" width="124.99999955999988" height="28.99998585000003" class="text">supplemental </text>
<text x="1275.00004468" y="333.99999171" width="49.00000348000003" height="28.99998585000003" class="text">sheet </text>
<text x="1331.99996272" y="333.99999171" width="97.00003519999996" height="28.99998585000003" class="text">identifying </text>
<text x="1438.00000716" y="333.99999171" width="39.99999423999998" height="28.99998585000003" class="text">each </text>
<text x="1488.99995416" y="333.99999171" width="37.00007895999988" height="28.99998585000003" class="text">item</text>
<text x="1531.0000324" y="333.99999171" width="8.000019920000113" height="28.99998585000003" class="text">.
</text>
<text x="108.000002008" y="390.00000600000004" width="63.999996052" height="28.000018530000034" class="text">Privacy </text>
<text x="184.00000160000002" y="390.00000600000004" width="31.000002559999984" height="28.000018530000034" class="text">Act </text>
<text x="219.99998588000003" y="390.00000600000004" width="90.00002215999999" height="28.000018530000034" class="text">Statement</text>
<text x="310.00000804" y="390.00000600000004" width="7.999984799999993" height="28.000018530000034" class="text">. </text>
<text x="322.00002036" y="390.00000600000004" width="51.99998899999997" height="28.000018530000034" class="text">Every </text>
<text x="383.00000104000003" y="390.00000600000004" width="100.00002072000001" height="28.000018530000034" class="text">registration </text>
<text x="494.99999896" y="390.00000600000004" width="87.00000152000001" height="28.000018530000034" class="text">statement</text>
<text x="580.99997604" y="390.00000600000004" width="8.00001992" height="28.000018530000034" class="text">, </text>
<text x="591.9999814800001" y="390.00000600000004" width="50.000045479999926" height="28.000018530000034" class="text">short </text>
<text x="647.0000086800001" y="390.00000600000004" width="42.00000799999998" height="28.000018530000034" class="text">form </text>
<text x="696.00001216" y="390.00000600000004" width="99.99996804" height="28.000018530000034" class="text">registration </text>
<text x="810.0000238399999" y="390.00000600000004" width="85.00000532000013" height="28.000018530000034" class="text">statement</text>
<text x="895.00002916" y="390.00000600000004" width="8.00001992" height="28.000018530000034" class="text">, </text>
<text x="905.9999819200001" y="390.00000600000004" width="123.00005604" height="28.000018530000034" class="text">supplemental </text>
<text x="1035.9999632" y="390.00000600000004" width="85.00000532000013" height="28.000018530000034" class="text">statement</text>
<text x="1121.99995784" y="390.00000600000004" width="8.000019920000113" height="28.000018530000034" class="text">, </text>
<text x="1137.0000259199999" y="390.00000600000004" width="62.99999444000014" height="28.000018530000034" class="text">exhibit</text>
<text x="1196.99998216" y="390.00000600000004" width="8.000019920000113" height="28.000018530000034" class="text">, </text>
<text x="1208.0000402800001" y="390.00000600000004" width="112.99996967999982" height="28.000018530000034" class="text">amendment</text>
<text x="1317.99997176" y="390.00000600000004" width="8.000019919999886" height="28.000018530000034" class="text">, </text>
<text x="1331.99996272" y="390.00000600000004" width="123.00005603999989" height="28.000018530000034" class="text">dissemination </text>
<text x="1463.00003868" y="390.00000600000004" width="58.999984479999966" height="28.000018530000034" class="text">report</text>
<text x="1522.00002316" y="390.00000600000004" width="8.000019919999886" height="28.000018530000034" class="text">, </text>
<text x="1532.0000041600001" y="390.00000600000004" width="44.000021759999754" height="28.000018530000034" class="text">copy </text>
<text x="1584.00004584" y="390.00000600000004" width="19.999944440000036" height="28.000018530000034" class="text">of </text>
<text x="1606.00005672" y="390.00000600000004" width="78.99992892" height="28.000018530000034" class="text">political
</text>
<text x="106.99999864" y="418.00002452999996" width="103.00000624" height="27.000028439999937" class="text">propaganda </text>
<text x="219.99998588000003" y="418.00002452999996" width="20.000014679999964" height="27.000028439999937" class="text">or </text>
<text x="244.99999984000002" y="418.00002452999996" width="49.00002104000001" height="27.000028439999937" class="text">other </text>
<text x="297.99999572" y="418.00002452999996" width="92.00000079999995" height="27.000028439999937" class="text">document </text>
<text x="397.99998131999996" y="418.00002452999996" width="20.00001468000005" height="27.000028439999937" class="text">or </text>
<text x="424.00000216" y="418.00002452999996" width="104.99998488000006" height="27.000028439999937" class="text">information </text>
<text x="541.00001692" y="418.00002452999996" width="36.999973599999976" height="27.000028439999937" class="text">filed </text>
<text x="584.9999859999999" y="418.00002452999996" width="40.00001180000004" height="27.000028439999937" class="text">with </text>
<text x="633.9999894800001" y="418.00002452999996" width="27.000010159999874" height="27.000028439999937" class="text">the </text>
<text x="669.00001956" y="418.00002452999996" width="78.99998159999996" height="27.000028439999937" class="text">Attorney </text>
<text x="756.00002108" y="418.00002452999996" width="74.99997164000001" height="27.000028439999937" class="text">General </text>
<text x="835.999992" y="418.00002452999996" width="50.99999967999997" height="27.000028439999937" class="text">under </text>
<text x="896.9999726799999" y="418.00002452999996" width="30.000030800000104" height="27.000028439999937" class="text">this </text>
<text x="936.99998448" y="418.00002452999996" width="26.99999260000004" height="27.000028439999937" class="text">act </text>
<text x="970.00005348" y="418.00002452999996" width="9.999963439999874" height="27.000028439999937" class="text">is </text>
<text x="989.99999792" y="418.00002452999996" width="8.00001992" height="27.000028439999937" class="text">a </text>
<text x="1003.99998888" y="418.00002452999996" width="57.999995160000026" height="27.000028439999937" class="text">public </text>
<text x="1071.99996504" y="418.00002452999996" width="55.00007987999993" height="27.000028439999937" class="text">record </text>
<text x="1137.99999768" y="418.00002452999996" width="41.999955320000026" height="27.000028439999937" class="text">open </text>
<text x="1187.9999729200001" y="418.00002452999996" width="15.000068079999892" height="27.000028439999937" class="text">to </text>
<text x="1210.9999731199998" y="418.00002452999996" width="57.000023400000146" height="27.000028439999937" class="text">public </text>
<text x="1276.0000164399999" y="418.00002452999996" width="108.9999597200001" height="27.000028439999937" class="text">examination</text>
<text x="1389.9999754399998" y="418.00002452999996" width="8.000019920000113" height="27.000028439999937" class="text">, </text>
<text x="1401.00003356" y="418.00002452999996" width="91.99993056000017" height="27.000028439999937" class="text">inspection </text>
<text x="1503.00005048" y="418.00002452999996" width="29.99992543999997" height="27.000028439999937" class="text">and </text>
<text x="1542.9999569200002" y="418.00002452999996" width="69.00005327999997" height="27.000028439999937" class="text">copying </text>
<text x="1621.9999912" y="418.00002452999996" width="57.00002339999992" height="27.000028439999937" class="text">during
</text>
<text x="106.99999864" y="445.99999752" width="26.99999786800001" height="27.000005670000007" class="text">the </text>
<text x="138.999997544" y="445.99999752" width="60.000001895999986" height="27.000005670000007" class="text">posted </text>
<text x="208.999998" y="445.99999752" width="75.00000675999996" height="27.000005670000007" class="text">business </text>
<text x="292.00000712" y="445.99999752" width="50.99998211999997" height="27.000005670000007" class="text">hours </text>
<text x="351.99999848" y="445.99999752" width="18.99999023999999" height="27.000005670000007" class="text">of </text>
<text x="377.00001244000003" y="445.99999752" width="26.999992599999985" height="27.000005670000007" class="text">the </text>
<text x="413.00001427999996" y="445.99999752" width="110.00001928000006" height="27.000005670000007" class="text">Registration </text>
<text x="530.00001148" y="445.99999752" width="41.99997287999997" height="27.000005670000007" class="text">Unit </text>
<text x="579.00003252" y="445.99999752" width="14.999962719999985" height="27.000005670000007" class="text">in </text>
<text x="606.00002512" y="445.99999752" width="103.00000623999995" height="27.000005670000007" class="text">Washington</text>
<text x="714.00001308" y="445.99999752" width="7.999967239999933" height="27.000005670000007" class="text">, </text>
<text x="728.9999758" y="445.99999752" width="43.00004999999999" height="27.000005670000007" class="text">D.C. </text>
<text x="775.99998308" y="445.99999752" width="35.00001252000004" height="27.000005670000007" class="text">One </text>
<text x="822.00000104" y="445.99999752" width="40.99998355999992" height="27.000005670000007" class="text">copy </text>
<text x="873.00001828" y="445.99999752" width="18.99997268000004" height="27.000005670000007" class="text">of </text>
<text x="896.9999726799999" y="445.99999752" width="48.00003172000004" height="27.000005670000007" class="text">every </text>
<text x="957.0000342799999" y="445.99999752" width="36.99997360000009" height="27.000005670000007" class="text">such </text>
<text x="1003.0000171199999" y="445.99999752" width="94.99996876" height="27.000005670000007" class="text">document </text>
<text x="1102.9999676" y="445.99999752" width="15.00006808000012" height="27.000005670000007" class="text">is </text>
<text x="1127.00004492" y="445.99999752" width="120.99998960000016" height="27.000005670000007" class="text">automatically </text>
<text x="1255.99996664" y="445.99999752" width="79.00003427999991" height="27.000005670000007" class="text">provided </text>
<text x="1343.00002084" y="445.99999752" width="15.999934480000093" height="27.000005670000007" class="text">to </text>
<text x="1371.99997452" y="445.99999752" width="26.000020839999934" height="27.000005670000007" class="text">the </text>
<text x="1406.99998704" y="445.99999752" width="80.99999536000018" height="27.000005670000007" class="text">Secretary </text>
<text x="1499.00004052" y="445.99999752" width="19.99994443999981" height="27.000005670000007" class="text">of </text>
<text x="1526.00003312" y="445.99999752" width="38.999934680000024" height="27.000005670000007" class="text">State </text>
<text x="1577.99996944" y="445.99999752" width="79.00003427999991" height="27.000005670000007" class="text">pursuant </text>
<text x="1662.000003" y="445.99999752" width="14.999962719999985" height="27.000005670000007" class="text">to
</text>
<text x="108.99999835199999" y="473.99999327999996" width="62.999999708000004" height="26.999982899999964" class="text">Section </text>
<text x="179.00000232" y="473.99999327999996" width="8.000002359999996" height="26.999982899999964" class="text">6</text>
<text x="192.00000396" y="473.99999327999996" width="8.000002360000025" height="26.999982899999964" class="text">(</text>
<text x="200.99999563999998" y="473.99999327999996" width="8.000002360000025" height="26.999982899999964" class="text">b</text>
<text x="210.9999942" y="473.99999327999996" width="8.000002359999996" height="26.999982899999964" class="text">) </text>
<text x="225.00000271999997" y="473.99999327999996" width="19.00000780000005" height="26.999982899999964" class="text">of </text>
<text x="247.0000136" y="473.99999327999996" width="26.999992599999985" height="26.999982899999964" class="text">the </text>
<text x="282.00000855999997" y="473.99999327999996" width="31.999974320000035" height="26.999982899999964" class="text">Act</text>
<text x="313.99998288" y="473.99999327999996" width="8.000037480000003" height="26.999982899999964" class="text">, </text>
<text x="328.00000896" y="473.99999327999996" width="29.999995679999984" height="26.999982899999964" class="text">and </text>
<text x="365.00000012" y="473.99999327999996" width="57.00000584000003" height="26.999982899999964" class="text">copies </text>
<text x="430.00000832" y="473.99999327999996" width="19.999997119999932" height="26.999982899999964" class="text">of </text>
<text x="454.00001540000005" y="473.99999327999996" width="38.99998735999992" height="26.999982899999964" class="text">such </text>
<text x="503.00001888" y="473.99999327999996" width="96.99998251999995" height="26.999982899999964" class="text">documents </text>
<text x="606.00002512" y="473.99999327999996" width="25.99996815999998" height="26.999982899999964" class="text">are </text>
<text x="640.99998496" y="473.99999327999996" width="78.00000984000008" height="26.999982899999964" class="text">routinely </text>
<text x="730.00000024" y="473.99999327999996" width="45.99998284000003" height="26.999982899999964" class="text">made </text>
<text x="783.00001368" y="473.99999327999996" width="78.99999916000002" height="26.999982899999964" class="text">available </text>
<text x="866.99999456" y="473.99999327999996" width="15.999987160000046" height="26.999982899999964" class="text">to </text>
<text x="894.00003984" y="473.99999327999996" width="46.999954600000024" height="26.999982899999964" class="text">other </text>
<text x="945.0000044" y="473.99999327999996" width="80.00002360000019" height="26.999982899999964" class="text">agencies</text>
<text x="1024.00003868" y="473.99999327999996" width="7.999914559999979" height="26.999982899999964" class="text">, </text>
<text x="1038.00002964" y="473.99999327999996" width="109.99994903999982" height="26.999982899999964" class="text">departments </text>
<text x="1154.00003752" y="473.99999327999996" width="29.999925440000197" height="26.999982899999964" class="text">and </text>
<text x="1191.99998288" y="473.99999327999996" width="85.99999464000007" height="26.999982899999964" class="text">Congress </text>
<text x="1282.99995924" y="473.99999327999996" width="82.00007247999997" height="26.999982899999964" class="text">pursuant </text>
<text x="1367.99996456" y="473.99999327999996" width="15.000068079999892" height="26.999982899999964" class="text">to </text>
<text x="1393.9999854" y="473.99999327999996" width="62.99999443999991" height="26.999982899999964" class="text">Section </text>
<text x="1466.99994328" y="473.99999327999996" width="8.000019919999886" height="26.999982899999964" class="text">6</text>
<text x="1478.0000014" y="473.99999327999996" width="8.000019920000113" height="26.999982899999964" class="text">(</text>
<text x="1486.00002132" y="473.99999327999996" width="8.000037479999946" height="26.999982899999964" class="text">c</text>
<text x="1496.9999740800001" y="473.99999327999996" width="8.000037479999719" height="26.999982899999964" class="text">) </text>
<text x="1506.99995508" y="473.99999327999996" width="20.000049799999942" height="26.999982899999964" class="text">of </text>
<text x="1532.0000041600001" y="473.99999327999996" width="26.999992599999814" height="26.999982899999964" class="text">the </text>
<text x="1567.00001668" y="473.99999327999996" width="31.999991879999925" height="26.999982899999964" class="text">Act</text>
<text x="1599.00000856" y="473.99999327999996" width="8.000019920000113" height="26.999982899999964" class="text">. </text>
<text x="1612.99999952" y="473.99999327999996" width="57.999995160000026" height="26.999982899999964" class="text">Finally</text>
<text x="1675.00000464" y="473.99999327999996" width="8.000019920000113" height="26.999982899999964" class="text">,
</text>
<text x="106.99999864" y="502.99997913" width="26.99999786800001" height="26.99998290000002" class="text">the </text>
<text x="143.99999858" y="502.99997913" width="75.99998730000002" height="26.99998290000002" class="text">Attorney </text>
<text x="228.0000058" y="502.99997913" width="72.00000368000002" height="26.99998290000002" class="text">General </text>
<text x="307.00000496" y="502.99997913" width="80.99997780000001" height="26.99998290000002" class="text">transmits </text>
<text x="396.999992" y="502.99997913" width="19.99999711999999" height="26.99998290000002" class="text">an </text>
<text x="426.99998768" y="502.99997913" width="63.00002955999997" height="26.99998290000002" class="text">annual </text>
<text x="495.99997071999996" y="502.99997913" width="55.00002719999998" height="26.99998290000002" class="text">report </text>
<text x="557.9999934" y="502.99997913" width="15.000015399999938" height="26.99998290000002" class="text">to </text>
<text x="582.9999898" y="502.99997913" width="26.999992599999928" height="26.99998290000002" class="text">the </text>
<text x="616.9999778800001" y="502.99997913" width="83.00004423999985" height="26.99998290000002" class="text">Congress </text>
<text x="705.99999316" y="502.99997913" width="24.99997884000004" height="26.99998290000002" class="text">on </text>
<text x="739.99998124" y="502.99997913" width="25.00004907999994" height="26.99998290000002" class="text">the </text>
<text x="774.0000220000001" y="502.99997913" width="134.99998055999993" height="26.99998290000002" class="text">Administration </text>
<text x="918.0000118" y="502.99997913" width="19.999944440000036" height="26.99998290000002" class="text">of </text>
<text x="945.0000044" y="502.99997913" width="26.999992599999928" height="26.99998290000002" class="text">the </text>
<text x="980.0000169199999" y="502.99997913" width="29.999925440000197" height="26.99998290000002" class="text">Act </text>
<text x="1016.00001876" y="502.99997913" width="54.99997451999991" height="26.99998290000002" class="text">which </text>
<text x="1079.0000132" y="502.99997913" width="36.000001840000095" height="26.99998290000002" class="text">lists </text>
<text x="1121.99995784" y="502.99997913" width="26.99999260000004" height="26.99998290000002" class="text">the </text>
<text x="1159.0000368" y="502.99997913" width="56.999918039999784" height="26.99998290000002" class="text">names </text>
<text x="1223.99997476" y="502.99997913" width="18.999972680000155" height="26.99998290000002" class="text">of </text>
<text x="1248.00003452" y="502.99997913" width="27.000010159999874" height="26.99998290000002" class="text">all </text>
<text x="1277.9999775200001" y="502.99997913" width="55.00006231999987" height="26.99998290000002" class="text">agents </text>
<text x="1343.00002084" y="502.99997913" width="85.99997708000001" height="26.99998290000002" class="text">registered </text>
<text x="1439.99995068" y="502.99997913" width="55.00007987999993" height="26.99998290000002" class="text">under </text>
<text x="1500.00001228" y="502.99997913" width="26.99999260000004" height="26.99998290000002" class="text">the </text>
<text x="1535.00004236" y="502.99997913" width="31.000002559999984" height="26.99998290000002" class="text">Act</text>
<text x="1567.00001668" y="502.99997913" width="8.000019919999886" height="26.99998290000002" class="text">, </text>
<text x="1581.00000764" y="502.99997913" width="26.99999260000027" height="26.99998290000002" class="text">the </text>
<text x="1616.00002016" y="502.99997913" width="62.00002268000003" height="26.99998290000002" class="text">foreign
</text>
<text x="104.999998928" y="532.00001052" width="93.00001119200002" height="29.999998710000057" class="text">principals </text>
<text x="207.0000018" y="532.00001052" width="37.00000872000001" height="29.999998710000057" class="text">they </text>
<text x="253.00000219999998" y="532.00001052" width="87.00000152000001" height="29.999998710000057" class="text">represent</text>
<text x="337.00000064" y="532.00001052" width="9.000009239999997" height="29.999998710000057" class="text">, </text>
<text x="350.99999160000004" y="532.00001052" width="34.00000563999998" height="29.999998710000057" class="text">and </text>
<text x="396.00000267999997" y="532.00001052" width="24.999996400000043" height="29.999998710000057" class="text">the </text>
<text x="429.00000144" y="532.00001052" width="57.00000584000003" height="29.999998710000057" class="text">nature</text>
<text x="490.00001724" y="532.00001052" width="8.99999168000005" height="29.999998710000057" class="text">, </text>
<text x="501.00002268" y="532.00001052" width="68.99994792000001" height="29.999998710000057" class="text">sources </text>
<text x="579.00003252" y="532.00001052" width="33.99998807999998" height="29.999998710000057" class="text">and </text>
<text x="620.99998784" y="532.00001052" width="69.00000059999991" height="29.999998710000057" class="text">content </text>
<text x="696.00001216" y="532.00001052" width="22.00001087999999" height="29.999998710000057" class="text">of </text>
<text x="725.99999028" y="532.00001052" width="24.999996399999986" height="29.999998710000057" class="text">the </text>
<text x="759.0000066" y="532.00001052" width="78.00000983999996" height="29.999998710000057" class="text">political </text>
<text x="842.99998748" y="532.00001052" width="106.00002688000006" height="29.999998710000057" class="text">propaganda </text>
<text x="957.0000342799999" y="532.00001052" width="116.99999720000005" height="29.999998710000057" class="text">disseminated </text>
<text x="1087.00003312" y="532.00001052" width="16.99992380000026" height="29.999998710000057" class="text">or </text>
<text x="1112.9999486000002" y="532.00001052" width="96.00006343999985" height="29.999998710000057" class="text">distributed </text>
<text x="1218.00000372" y="532.00001052" width="22.00001087999999" height="29.999998710000057" class="text">by </text>
<text x="1249.00002384" y="532.00001052" width="41.999955320000026" height="29.999998710000057" class="text">them</text>
<text x="1297.00005556" y="532.00001052" width="8.999991679999994" height="29.999998710000057" class="text">. </text>
<text x="1313.9999618" y="532.00001052" width="39.00004004000016" height="29.999998710000057" class="text">This </text>
<text x="1360.00005" y="532.00001052" width="58.999966919999906" height="29.999998710000057" class="text">report </text>
<text x="1423.0000268800002" y="532.00001052" width="16.999923799999806" height="29.999998710000057" class="text">is </text>
<text x="1450.0000370399998" y="532.00001052" width="75.99999608000007" height="29.999998710000057" class="text">available </text>
<text x="1539.0000523200001" y="532.00001052" width="10.999952759999815" height="29.999998710000057" class="text">to </text>
<text x="1560.99995784" y="532.00001052" width="30.000030800000104" height="29.999998710000057" class="text">the </text>
<text x="1599.00000856" y="532.00001052" width="57.00002339999992" height="29.999998710000057" class="text">public</text>
<text x="1657.00000372" y="532.00001052" width="9.000009240000054" height="29.999998710000057" class="text">.
</text>
<text x="104.999998928" y="585.99999909" width="58.00000042800002" height="27.00000566999995" class="text">Public </text>
<text x="170.999994692" y="585.99999909" width="87.99999610799998" height="27.00000566999995" class="text">Reporting </text>
<text x="264.00000764" y="585.99999909" width="64.99999064000002" height="27.00000566999995" class="text">Burden</text>
<text x="331.00001204" y="585.99999909" width="8.000002359999996" height="27.00000566999995" class="text">. </text>
<text x="342.99998924" y="585.99999909" width="58.00001272000003" height="27.00000566999995" class="text">Public </text>
<text x="407.99999744" y="585.99999909" width="80.00000603999996" height="27.00000566999995" class="text">reporting </text>
<text x="495.99997071999996" y="585.99999909" width="59.00003716000003" height="27.00000566999995" class="text">burden </text>
<text x="562.9999751199999" y="585.99999909" width="28.00003460000005" height="27.00000566999995" class="text">for </text>
<text x="597.00001588" y="585.99999909" width="30.999967439999978" height="27.00000566999995" class="text">this </text>
<text x="633.9999894800001" y="585.99999909" width="87.0000190799999" height="27.00000566999995" class="text">collection </text>
<text x="728.00000404" y="585.99999909" width="19.99999711999999" height="27.00000566999995" class="text">of </text>
<text x="754.0000248800001" y="585.99999909" width="101.99996423999994" height="27.00000566999995" class="text">information </text>
<text x="864.99999836" y="585.99999909" width="10.000016120000055" height="27.00000566999995" class="text">is </text>
<text x="882.0000099599999" y="585.99999909" width="82.99993888000006" height="27.00000566999995" class="text">estimated </text>
<text x="973.99995808" y="585.99999909" width="16.00003984" height="27.00000566999995" class="text">to </text>
<text x="999.00000716" y="585.99999909" width="63.99996620000002" height="27.00000566999995" class="text">average </text>
<text x="1069.0000322" y="585.99999909" width="14.999962719999985" height="27.00000566999995" class="text">.5 </text>
<text x="1091.0000430799998" y="585.99999909" width="52.99992564000013" height="27.00000566999995" class="text">hours </text>
<text x="1148.99995044" y="585.99999909" width="31.000002559999984" height="27.00000566999995" class="text">per </text>
<text x="1185.00005764" y="585.99999909" width="74.99991895999983" height="27.00000566999995" class="text">response</text>
<text x="1262.99999724" y="585.99999909" width="8.000037479999946" height="27.00000566999995" class="text">, </text>
<text x="1272.99997824" y="585.99999909" width="85.00000532000013" height="27.00000566999995" class="text">including </text>
<text x="1366.9999752400001" y="585.99999909" width="27.000010159999874" height="27.00000566999995" class="text">the </text>
<text x="1400.0000442399999" y="585.99999909" width="36.000001840000095" height="27.00000566999995" class="text">time </text>
<text x="1443.99996064" y="585.99999909" width="26.99999260000004" height="27.00000566999995" class="text">for </text>
<text x="1477.00002964" y="585.99999909" width="82.99993887999995" height="27.00000566999995" class="text">reviewing </text>
<text x="1568.99997776" y="585.99999909" width="105.00005511999984" height="27.00000566999995" class="text">instructions</text>
<text x="1672.9999557600001" y="585.99999909" width="8.000019919999886" height="27.00000566999995" class="text">,
</text>
<text x="106.00000229599999" y="615.99997503" width="87.000008544" height="29.999975940000013" class="text">searching </text>
<text x="202.00000252" y="615.99997503" width="67.99999371999996" height="29.999975940000013" class="text">existing </text>
<text x="278.99998792" y="615.99997503" width="39.00000491999998" height="29.999975940000013" class="text">data </text>
<text x="328.00000896" y="615.99997503" width="68.99998304000002" height="29.999975940000013" class="text">sources</text>
<text x="396.999992" y="615.99997503" width="9.0000268" height="29.999975940000013" class="text">, </text>
<text x="412.0000074" y="615.99997503" width="83.99996331999995" height="29.999975940000013" class="text">gathering </text>
<text x="504.99997995999996" y="615.99997503" width="30.000030800000047" height="29.999975940000013" class="text">and </text>
<text x="548.0000124" y="615.99997503" width="103.00000624000006" height="29.999975940000013" class="text">maintaining </text>
<text x="660.9999996399999" y="615.99997503" width="30.00003079999999" height="29.999975940000013" class="text">the </text>
<text x="700.0000221199999" y="615.99997503" width="33.999988080000094" height="29.999975940000013" class="text">data </text>
<text x="743.9999912000001" y="615.99997503" width="64.00001887999997" height="29.999975940000013" class="text">needed</text>
<text x="810.9999956" y="615.99997503" width="8.999991679999994" height="29.999975940000013" class="text">, </text>
<text x="826.000011" y="615.99997503" width="29.999978120000037" height="29.999975940000013" class="text">and </text>
<text x="864.00000904" y="615.99997503" width="103.00000623999995" height="29.999975940000013" class="text">completing </text>
<text x="975.0000352000001" y="615.99997503" width="33.99993539999991" height="29.999975940000013" class="text">and </text>
<text x="1017.9999798399999" y="615.99997503" width="85.99997708000024" height="29.999975940000013" class="text">reviewing </text>
<text x="1114.0000257200002" y="615.99997503" width="29.999942999999803" height="29.999975940000013" class="text">the </text>
<text x="1152.9999604" y="615.99997503" width="87.00005420000002" height="29.999975940000013" class="text">collection </text>
<text x="1248.00003452" y="615.99997503" width="22.000010879999763" height="29.999975940000013" class="text">of </text>
<text x="1277.9999775200001" y="615.99997503" width="105.00005511999984" height="29.999975940000013" class="text">information</text>
<text x="1384.0000044" y="615.99997503" width="8.999991679999994" height="29.999975940000013" class="text">. </text>
<text x="1401.00003356" y="615.99997503" width="42.99992707999991" height="29.999975940000013" class="text">Send </text>
<text x="1451.99998056" y="615.99997503" width="94.99998632000006" height="29.999975940000013" class="text">comments </text>
<text x="1554.9999868" y="615.99997503" width="83.00004424000008" height="29.999975940000013" class="text">regarding </text>
<text x="1648.00001204" y="615.99997503" width="35.000012520000155" height="29.999975940000013" class="text">this
</text>
<text x="103.999997316" y="642.9999807" width="65.000004688" height="25.999970039999994" class="text">burden </text>
<text x="179.99999164" y="642.9999807" width="70.99999680000002" height="25.999970039999994" class="text">estimate </text>
<text x="261.99999388000003" y="642.9999807" width="19.00000779999999" height="25.999970039999994" class="text">or </text>
<text x="287.99999716" y="642.9999807" width="29.000006359999986" height="25.999970039999994" class="text">any </text>
<text x="327.00000208" y="642.9999807" width="47.00000727999998" height="25.999970039999994" class="text">other </text>
<text x="380.99998727999997" y="642.9999807" width="57.00000584000003" height="25.999970039999994" class="text">aspect </text>
<text x="445.99999548" y="642.9999807" width="19.000025359999995" height="25.999970039999994" class="text">of </text>
<text x="470.00000256000004" y="642.9999807" width="33.000016319999986" height="25.999970039999994" class="text">this </text>
<text x="510.99998612" y="642.9999807" width="91.00002903999996" height="25.999970039999994" class="text">collection </text>
<text x="609.9999823999999" y="642.9999807" width="19.00002536000011" height="25.999970039999994" class="text">of </text>
<text x="635.0000314800001" y="642.9999807" width="102.99993599999993" height="25.999970039999994" class="text">information</text>
<text x="743.00001944" y="642.9999807" width="6.999995480000052" height="25.999970039999994" class="text">, </text>
<text x="756.00002108" y="642.9999807" width="83.99998087999995" height="25.999970039999994" class="text">including </text>
<text x="848.9999936400001" y="642.9999807" width="105.00000243999989" height="25.999970039999994" class="text">suggestions </text>
<text x="962.00003356" y="642.9999807" width="29.99992543999997" height="25.999970039999994" class="text">for </text>
<text x="994.9999796400001" y="642.9999807" width="79.00005183999986" height="25.999970039999994" class="text">reducing </text>
<text x="1080.9999742799998" y="642.9999807" width="33.000051440000334" height="25.999970039999994" class="text">this </text>
<text x="1120.99996852" y="642.9999807" width="65.00006087999986" height="25.999970039999994" class="text">burden </text>
<text x="1194.00004932" y="642.9999807" width="13.999990960000105" height="25.999970039999994" class="text">to </text>
<text x="1219.9999647999998" y="642.9999807" width="51.000069920000215" height="25.999970039999994" class="text">Chief</text>
<text x="1271.00003472" y="642.9999807" width="6.999942800000099" height="25.999970039999994" class="text">, </text>
<text x="1285.0000081199998" y="642.9999807" width="109.99994904000005" height="25.999970039999994" class="text">Registration </text>
<text x="1401.00003356" y="642.9999807" width="44.00000419999992" height="25.999970039999994" class="text">Unit</text>
<text x="1445.00003776" y="642.9999807" width="6.999942800000099" height="25.999970039999994" class="text">, </text>
<text x="1459.00002872" y="642.9999807" width="81.99996711999984" height="25.999970039999994" class="text">Criminal </text>
<text x="1546.99996688" y="642.9999807" width="78.0000625199998" height="25.999970039999994" class="text">Division</text>
<text x="1626.9999729200001" y="642.9999807" width="7.000048159999778" height="25.999970039999994" class="text">, </text>
<text x="1644.99997384" y="642.9999807" width="40.00001180000004" height="25.999970039999994" class="text">U.S.
</text>
<text x="103.999997316" y="671.9999893199999" width="112.000013724" height="28.00001852999992" class="text">Department </text>
<text x="226.0000096" y="671.9999893199999" width="14.999980280000017" height="28.00001852999992" class="text">of </text>
<text x="249.99999912" y="671.9999893199999" width="57.99999516" height="28.00001852999992" class="text">Justice</text>
<text x="312.00000424" y="671.9999893199999" width="8.000002359999996" height="28.00001852999992" class="text">, </text>
<text x="325.9999952" y="671.9999893199999" width="104.00001312" height="28.00001852999992" class="text">Washington</text>
<text x="432.00000452" y="671.9999893199999" width="7.999967240000046" height="28.00001852999992" class="text">, </text>
<text x="447.00001992" y="671.9999893199999" width="45.99998283999997" height="28.00001852999992" class="text">D.C. </text>
<text x="495.99997071999996" y="671.9999893199999" width="53.000031000000035" height="28.00001852999992" class="text">20530</text>
<text x="555.00000788" y="671.9999893199999" width="7.999967239999933" height="28.00001852999992" class="text">; </text>
<text x="568.00002708" y="671.9999893199999" width="32.99996364000003" height="28.00001852999992" class="text">and </text>
<text x="609.00001064" y="671.9999893199999" width="15.999987159999932" height="28.00001852999992" class="text">to </text>
<text x="635.0000314800001" y="671.9999893199999" width="26.999992599999928" height="28.00001852999992" class="text">the </text>
<text x="671.00001576" y="671.9999893199999" width="57.99996004000002" height="28.00001852999992" class="text">Office </text>
<text x="736.00002396" y="671.9999893199999" width="20.999968879999983" height="28.00001852999992" class="text">of </text>
<text x="763.00001656" y="671.9999893199999" width="105.99999176000006" height="28.00001852999992" class="text">Information </text>
<text x="879.9999610799999" y="671.9999893199999" width="31.000002559999984" height="28.00001852999992" class="text">and </text>
<text x="919.9999553199999" y="671.9999893199999" width="100.00007340000002" height="28.00001852999992" class="text">Regulatory </text>
<text x="1029.00003796" y="671.9999893199999" width="62.99999443999991" height="28.00001852999992" class="text">Affairs</text>
<text x="1093.0000041600001" y="671.9999893199999" width="8.000019919999886" height="28.00001852999992" class="text">, </text>
<text x="1107.99996688" y="671.9999893199999" width="57.9999951599998" height="28.00001852999992" class="text">Office </text>
<text x="1173.99999952" y="671.9999893199999" width="20.000049799999942" height="28.00001852999992" class="text">of </text>
<text x="1197.99995392" y="671.9999893199999" width="121.00000716" height="28.00001852999992" class="text">Management </text>
<text x="1327.99995276" y="671.9999893199999" width="31.000002559999984" height="28.00001852999992" class="text">and </text>
<text x="1370.00001344" y="671.9999893199999" width="64.99995551999996" height="28.00001852999992" class="text">Budget</text>
<text x="1432.00003612" y="671.9999893199999" width="7.999914559999979" height="28.00001852999992" class="text">, </text>
<text x="1445.00003776" y="671.9999893199999" width="107.99998796000023" height="28.00001852999992" class="text">Washington</text>
<text x="1554.9999868" y="671.9999893199999" width="8.000019920000113" height="28.00001852999992" class="text">, </text>
<text x="1572.00001596" y="671.9999893199999" width="39.0000224800001" height="28.00001852999992" class="text">D.C. </text>
<text x="1617.9999812400001" y="671.9999893199999" width="54.99997452000002" height="28.00001852999992" class="text">20503</text>
<text x="1675.00000464" y="671.9999893199999" width="8.000019920000113" height="28.00001852999992" class="text">.
</text>
<text x="122.00000174799999" y="732.00000951" width="24.000001812000022" height="31.00003434000007" class="text">1. </text>
<text x="156.00000563199998" y="734.00003523" width="71.00001084800004" height="33.00006006000001" class="text">Name </text>
<text x="240.00000056" y="734.00003523" width="24.00000707999999" height="31.000034339999957" class="text">of </text>
<text x="271.00000312000003" y="736.99998273" width="113.99999412" height="33.99998184000003" class="text">registrant
</text>
<text x="179.00000232" y="779.00002191" width="82.00000223999999" height="27.999995760000047" class="text">JETRO</text>
<text x="268.00000004" y="777.99998628" width="7.000013040000056" height="25.99999280999998" class="text">, </text>
<text x="297.99999572" y="777.99998628" width="117.00001475999994" height="28.000018530000034" class="text">Atlanta
</text>
<text x="1236.99999396" y="732.99997683" width="23.99995439999998" height="30.99994326000001" class="text">2. </text>
<text x="1270.0000453999999" y="732.99997683" width="137.9999134000002" height="32.99999175000005" class="text">Registration </text>
<text x="1416.99996804" y="732.00000951" width="48.0000317199997" height="31.00003434000007" class="text">No.
</text>
<text x="1295.99996088" y="776.99999619" width="70.00004260000014" height="27.00002844000005" class="text">4069
</text>
<text x="119.99999676799999" y="834.99996789" width="31.000007828000008" height="32.999991749999936" class="text">3. </text>
<text x="156.00000563199998" y="834.99996789" width="78.99999564800004" height="32.999991749999936" class="text">Nature </text>
<text x="247.99998535999998" y="834.99996789" width="24.000024639999992" height="32.999991749999936" class="text">of </text>
<text x="284.99999408" y="834.99996789" width="93.00002523999996" height="32.999991749999936" class="text">material </text>
<text x="387.00001100000003" y="834.99996789" width="8.999991679999937" height="32.999991749999936" class="text">(</text>
<text x="399.99999507999996" y="834.99996789" width="8.99999168000005" height="32.999991749999936" class="text">A </text>
<text x="422.00000596" y="834.99996789" width="88.00000839999996" height="32.999991749999936" class="text">concise </text>
<text x="515.9999854" y="834.99996789" width="96.00001076000001" height="32.999991749999936" class="text">account </text>
<text x="620.99998784" y="834.99996789" width="24.000007079999932" height="32.999991749999936" class="text">of </text>
<text x="651.00001864" y="834.99996789" width="37.99999804000004" height="32.999991749999936" class="text">the </text>
<text x="694.9999877199999" y="834.99996789" width="73.00001056000008" height="32.999991749999936" class="text">nature </text>
<text x="781.99998924" y="834.99996789" width="24.000024639999992" height="32.999991749999936" class="text">of </text>
<text x="813.0000093599999" y="834.99996789" width="37.99999804000004" height="32.999991749999936" class="text">the </text>
<text x="860.9999708400001" y="834.99996789" width="134.00000880000005" height="32.999991749999936" class="text">propaganda </text>
<text x="1012.0000087999999" y="834.99996789" width="94.99998632000006" height="32.999991749999936" class="text">material </text>
<text x="1119.000025" y="834.99996789" width="44.00002175999998" height="32.999991749999936" class="text">filed</text>
<text x="1169.0000002400002" y="834.99996789" width="9.000009239999827" height="32.999991749999936" class="text">)
</text>
<text x="179.00000232" y="885.00001887" width="184.99999092" height="36.999997649999955" class="text">Information </text>
<text x="380.99998727999997" y="885.00001887" width="34.99999496000004" height="36.999997649999955" class="text">on </text>
<text x="437.99999312" y="885.00001887" width="79.99998847999996" height="36.999997649999955" class="text">JETRO</text>
<text x="524.00000532" y="885.00001887" width="11.000005439999995" height="36.999997649999955" class="text">, </text>
<text x="555.00000788" y="885.00001887" width="150.99998528000003" height="36.999997649999955" class="text">Atlanta's </text>
<text x="728.9999758" y="885.00001887" width="170.0000633200001" height="36.999997649999955" class="text">activities</text>
<text x="904.9999925999999" y="885.00001887" width="10.999952760000042" height="36.999997649999955" class="text">; </text>
<text x="936.99998448" y="885.00001887" width="183.00001227999996" height="36.999997649999955" class="text">information </text>
<text x="1139.9999412" y="885.00001887" width="34.00005832000011" height="36.999997649999955" class="text">on </text>
<text x="1195.99999284" y="885.00001887" width="48.00003172000015" height="36.999997649999955" class="text">the </text>
<text x="1267.0000247599999" y="885.00001887" width="133.00001948" height="36.999997649999955" class="text">Japanese </text>
<text x="1416.99996804" y="885.00001887" width="118.00007431999984" height="36.999997649999955" class="text">economy</text>
<text x="1540.9999958399999" y="885.00001887" width="10.99995276000027" height="36.999997649999955" class="text">.
</text>
<text x="119.99999676799999" y="964.9999774800001" width="36.99999818400002" height="28.000018530000034" class="text">4. </text>
<text x="161.999995988" y="966.00003588" width="47.00000201200001" height="28.000018530000034" class="text">Title </text>
<text x="223.99999584" y="966.00003588" width="26.000003280000016" height="28.000018530000034" class="text">of </text>
<text x="261.99999388000003" y="967.9999932899999" width="94.00001455999995" height="29.9999759399999" class="text">material</text>
<text x="355.00000156" y="967.0000032" width="8.000002359999996" height="27.999995760000047" class="text">, </text>
<text x="374.00000936" y="967.9999932899999" width="16.999994040000047" height="27.99999575999982" class="text">if </text>
<text x="399.99999507999996" y="967.9999932899999" width="39.99997668000009" height="27.99999575999982" class="text">any
</text>
<text x="177.00000612" y="1012.9999799699999" width="103.99999556000003" height="24.999979949999897" class="text">Yutori </text>
<text x="313.99998288" y="1013.9999700599999" width="54.00002032000003" height="28.999985849999916" class="text">Vol</text>
<text x="371.99999560000003" y="1012.9999799699999" width="8.999991679999937" height="27.000005669999837" class="text">. </text>
<text x="422.00000596" y="1012.9999799699999" width="6.9999954799999955" height="24.999979949999897" class="text">3
</text>
<text x="945.9999761600001" y="968.99998338" width="29.000059039999996" height="32.00002442999994" class="text">5. </text>
<text x="998.00001784" y="968.99998338" width="64.99995551999996" height="32.00002442999994" class="text">Name </text>
<text x="1075.00000324" y="968.99998338" width="23.99995439999998" height="32.00002442999994" class="text">of </text>
<text x="1105.00003404" y="968.99998338" width="76.99998540000001" height="32.00002442999994" class="text">foreign </text>
<text x="1188.99996224" y="968.99998338" width="108.0000933199999" height="32.00002442999994" class="text">principal </text>
<text x="1298.00002732" y="968.99998338" width="28.999953679999862" height="32.00002442999994" class="text">on </text>
<text x="1330.00000164" y="968.99998338" width="75.00004188000003" height="32.00002442999994" class="text">whose </text>
<text x="1414.0000352000002" y="968.99998338" width="68.9999654799999" height="32.00002442999994" class="text">behalf </text>
<text x="1491.99999236" y="968.99998338" width="40.99998355999992" height="32.00002442999994" class="text">this </text>
<text x="1544.00003404" y="968.99998338" width="90.99995880000006" height="32.00002442999994" class="text">material </text>
<text x="1638.00003104" y="968.99998338" width="44.99999352000009" height="32.00002442999994" class="text">was
</text>
<text x="999.00000716" y="996.0000118199999" width="124.9999995600001" height="27.000028439999937" class="text">transmitted</text>
<text x="1129.99997776" y="996.0000118199999" width="7.000048159999778" height="24.000012630000015" class="text">.
</text>
<text x="483.00002176000004" y="1013.9999700599999" width="58.99998448000002" height="30.999943259999895" class="text">No.
</text>
<text x="577.99999052" y="1009.99996416" width="6.000023720000058" height="21.999964139999975" class="text">5
</text>
<text x="1056.00003056" y="1052.00002611" width="85.0000053199999" height="35.000040239999976" class="text">Japan </text>
<text x="1163.00004676" y="1052.00002611" width="134.99998056000004" height="35.000040239999976" class="text">External </text>
<text x="1315.00003892" y="1052.00002611" width="85.0000053199999" height="35.000040239999976" class="text">Trade </text>
<text x="1415.99999628" y="1052.00002611" width="208.00006136000002" height="35.000040239999976" class="text">Organization
</text>
<text x="122.00000174799999" y="1130.99999463" width="29.00000284800001" height="25.99997003999988" class="text">6. </text>
<text x="156.999994952" y="1130.99999463" width="78.00000632800001" height="25.99997003999988" class="text">Means </text>
<text x="247.99998535999998" y="1130.99999463" width="24.000024639999992" height="25.99997003999988" class="text">of </text>
<text x="279.99999479999997" y="1130.99999463" width="143.00001804000004" height="25.99997003999988" class="text">transmission
</text>
<text x="660.9999996399999" y="1131.99996195" width="15.000015400000052" height="26.999937359999876" class="text">7. </text>
<text x="685.99997848" y="1131.99996195" width="65.00000820000002" height="26.999937359999876" class="text">Dates </text>
<text x="761.00002036" y="1131.99996195" width="24.99997884000004" height="26.999937359999876" class="text">of </text>
<text x="795.9999802" y="1131.99996195" width="141.9999760400001" height="26.999937359999876" class="text">transmission
</text>
<text x="1169.9999719999998" y="1137.00002625" width="24.000077320000173" height="32.00000165999995" class="text">8. </text>
<text x="1205.00000208" y="1137.00002625" width="55.999946279999904" height="32.00000165999995" class="text">Total </text>
<text x="1268.99996828" y="1137.00002625" width="71.9999861199999" height="32.999991749999936" class="text">copies </text>
<text x="1349.9999636399998" y="1135.99996785" width="129.00002708000034" height="32.99999175000016" class="text">transmitted
</text>
<text x="175.000006408" y="1182.9999347100002" width="72.000007192" height="25.999970040000107" class="text">U.S. </text>
<text x="264.00000764" y="1181.99994462" width="65.99999752000002" height="24.999979949999897" class="text">Mail
</text>
<text x="710.00000312" y="1185.00002874" width="85.99997708000001" height="30.000021479999987" class="text">March </text>
<text x="819.00001552" y="1184.00006142" width="25.99996815999998" height="28.000086839999994" class="text">30</text>
<text x="855.00001736" y="1184.00006142" width="7.999967239999933" height="28.000086839999994" class="text">, </text>
<text x="888.99995276" y="1182.9999347100002" width="64.00007155999992" height="28.999917540000297" class="text">1992
</text>
<text x="1217.00003196" y="1181.99994462" width="42.99994463999997" height="25.99997003999988" class="text">250
</text>
<text x="120.99999838" y="1233.000054" width="29.00000284800001" height="27.00009675000001" class="text">9. </text>
<text x="158.99999993199998" y="1233.000054" width="46.00000566800003" height="27.00009675000001" class="text">List </text>
<text x="213.99999728" y="1233.000054" width="110.99999104" height="27.00009675000001" class="text">addresses </text>
<text x="335.99999376" y="1233.000054" width="52.99999588000003" height="27.00009675000001" class="text">from </text>
<text x="399.99999507999996" y="1233.000054" width="67.00003952000009" height="27.00009675000001" class="text">which </text>
<text x="486.99997904" y="1233.000054" width="90.00003971999996" height="27.00009675000001" class="text">material </text>
<text x="586.0000279999999" y="1233.000054" width="42.99997976000009" height="27.00009675000001" class="text">was </text>
<text x="640.99998496" y="1233.000054" width="125.99998887999993" height="27.00009675000001" class="text">transmitted</text>
<text x="770.9999838" y="1233.000054" width="8.00001992" height="27.00009675000001" class="text">:
</text>
<text x="949.00001436" y="1234.0000440899998" width="44.00002175999998" height="28.000086839999767" class="text">10. </text>
<text x="999.00000716" y="1234.0000440899998" width="44.00000419999992" height="28.000086839999767" class="text">List </text>
<text x="1057.00000232" y="1234.0000440899998" width="62.99999443999991" height="28.000086839999767" class="text">states </text>
<text x="1133.99998772" y="1234.0000440899998" width="40.00001180000004" height="28.000086839999767" class="text">and </text>
<text x="1188.99996224" y="1234.0000440899998" width="113.00007503999996" height="28.000086839999767" class="text">territories </text>
<text x="1321.00000996" y="1234.0000440899998" width="19.999944440000036" height="28.000086839999767" class="text">of </text>
<text x="1353.00000184" y="1234.0000440899998" width="36.99997359999975" height="28.000086839999767" class="text">the </text>
<text x="1403.99994884" y="1234.0000440899998" width="74.00005256000009" height="28.000086839999767" class="text">United </text>
<text x="1500.00001228" y="1234.0000440899998" width="62.00002268000003" height="28.000086839999767" class="text">States </text>
<text x="1577.99996944" y="1234.0000440899998" width="17.00002915999994" height="28.000086839999767" class="text">to </text>
<text x="1611.00003844" y="1234.0000440899998" width="69.99993724000001" height="28.000086839999767" class="text">which
</text>
<text x="1004.99996064" y="1267.00003584" width="92.00005348000002" height="25.999992810000094" class="text">material </text>
<text x="1101.00002408" y="1267.00003584" width="44.99999351999986" height="25.999992810000094" class="text">was </text>
<text x="1158.00004748" y="1267.00003584" width="122.99995067999998" height="25.999992810000094" class="text">transmitted</text>
<text x="1288.0000463200001" y="1267.00003584" width="6.999942799999872" height="25.999992810000094" class="text">:
</text>
<text x="179.99999164" y="1287.99994158" width="45.00001107999998" height="28.99991754000007" class="text">245 </text>
<text x="246.00000672000002" y="1287.99994158" width="152.99998148" height="28.99991754000007" class="text">Peachtree </text>
<text x="419.9999922" y="1287.99994158" width="101.00002760000001" height="28.99991754000007" class="text">Center </text>
<text x="539.00002072" y="1287.99994158" width="70.99996167999996" height="28.99991754000007" class="text">Ave.
</text>
<text x="175.000006408" y="1325.9999976299998" width="119.99998623200003" height="33.99998183999992" class="text">Marquis </text>
<text x="317.00000352" y="1325.00000754" width="50.000010359999976" height="32.99999175000016" class="text">One </text>
<text x="387.00001100000003" y="1325.00000754" width="85.99997708000001" height="33.99998183999992" class="text">Tower</text>
<text x="476.00002628" y="1323.0000501299999" width="8.999991679999994" height="32.00002442999971" class="text">, </text>
<text x="508.99998991999996" y="1324.0000174499999" width="80.00000604000002" height="33.999959069999704" class="text">Suite </text>
<text x="613.9999923600001" y="1322.00006004" width="60.99998067999991" height="32.99999175000016" class="text">2208
</text>
<text x="177.00000612" y="1356.00004188" width="117.99998652000002" height="28.000086839999994" class="text">Atlanta</text>
<text x="303.00001256" y="1356.00004188" width="8.000002359999996" height="28.000086839999994" class="text">, </text>
<text x="330.00000516" y="1356.00004188" width="37.00000871999998" height="28.000086839999994" class="text">GA </text>
<text x="404.00000504" y="1353.99992508" width="83.99999843999996" height="26.99996013000009" class="text">30303
</text>
<text x="989.0000261600001" y="1355.00005179" width="32.999963639999805" height="29.000054160000218" class="text">GA</text>
<text x="1026.99997152" y="1355.00005179" width="8.000019920000113" height="29.000054160000218" class="text">, </text>
<text x="1056.00003056" y="1355.00005179" width="32.99996364000003" height="29.000054160000218" class="text">AL</text>
<text x="1097.00001412" y="1355.00005179" width="8.000019919999886" height="29.000054160000218" class="text">, </text>
<text x="1129.99997776" y="1355.00005179" width="26.000020839999934" height="29.000054160000218" class="text">SC</text>
<text x="1165.99996204" y="1355.00005179" width="8.000037480000174" height="29.000054160000218" class="text">, </text>
<text x="1195.00002108" y="1355.00005179" width="32.99996364000026" height="29.000054160000218" class="text">FL
</text>
<text x="109.999994696" y="1539.99994896" width="39.000004919999995" height="30.999897720000035" class="text">11. </text>
<text x="164.00000096800002" y="1539.99994896" width="64.00000483199997" height="30.999897720000035" class="text">Types </text>
<text x="238.00000436" y="1539.99994896" width="27.999999479999985" height="30.999897720000035" class="text">of </text>
<text x="274.0000062" y="1539.99994896" width="106.99998108" height="30.999897720000035" class="text">recipients </text>
<text x="394.00000647999997" y="1539.99994896" width="8.99999168000005" height="30.999897720000035" class="text">(</text>
<text x="404.00000504" y="1539.99994896" width="52.00002411999998" height="30.999897720000035" class="text">Give </text>
<text x="468.00000636" y="1539.99994896" width="87.00000152000001" height="30.999897720000035" class="text">number </text>
<text x="566.99998508" y="1539.99994896" width="23.000000200000045" height="30.999897720000035" class="text">of </text>
<text x="597.00001588" y="1539.99994896" width="154.99999523999998" height="30.999897720000035" class="text">organizations
</text>
<text x="158.99999993199998" y="1570.9999833000002" width="21.99999858800001" height="30.000044249999974" class="text">in </text>
<text x="195.99999635999998" y="1572.99994071" width="49.00000348000003" height="30.999897719999808" class="text">each </text>
<text x="258.9999908" y="1575.0000347399998" width="67.00000440000002" height="31.000011569999742" class="text">group</text>
<text x="328.00000896" y="1575.0000347399998" width="8.999991679999994" height="28.000064070000008" class="text">)
</text>
<text x="948.0000425999999" y="1540.9999390500002" width="45.99996528000008" height="32.99999175000016" class="text">12. </text>
<text x="1002.0000278" y="1540.9999390500002" width="42.99994463999997" height="32.99999175000016" class="text">List </text>
<text x="1058.9999634" y="1540.9999390500002" width="75.99999607999985" height="32.99999175000016" class="text">names </text>
<text x="1152.9999604" y="1540.9999390500002" width="38.00005071999999" height="32.99999175000016" class="text">and </text>
<text x="1213.000022" y="1540.9999390500002" width="109.99994904000005" height="32.99999175000016" class="text">addresses </text>
<text x="1342.00004908" y="1540.9999390500002" width="23.99995439999998" height="32.99999175000016" class="text">of </text>
<text x="1379.00002268" y="1540.9999390500002" width="93.99999700000012" height="32.99999175000016" class="text">persons </text>
<text x="1490.00003128" y="1540.9999390500002" width="24.99994371999992" height="32.99999175000016" class="text">or </text>
<text x="1532.99997592" y="1540.9999390500002" width="154.0000586000001" height="32.99999175000016" class="text">organizations
</text>
<text x="997.00004608" y="1590.0000682500001" width="108.9999597200001" height="48.00002526000003" class="text">receiving </text>
<text x="1115.9999868" y="1587.99995145" width="40.99998355999992" height="48.00000249000004" class="text">100 </text>
<text x="1167.00005672" y="1586.99998413" width="76.99996784000018" height="48.999992580000026" class="text">copies </text>
<text x="1249.9999956" y="1584.00003663" width="26.99999260000004" height="47.00003517000005" class="text">or </text>
<text x="1290.0000074" y="1584.00003663" width="53.99998520000008" height="48.00002526000003" class="text">more</text>
<text x="1345.9999536799999" y="1582.00005645" width="14.000096320000239" height="46.00004508000006" class="text">:
</text>
<text x="110.99999630800001" y="1636.9999668" width="105.000014732" height="25.99997003999988" class="text">Libraries
</text>
<text x="333.99999756" y="1625.00001741" width="29.999995679999984" height="23.000022540000145" class="text">10
</text>
<text x="108.99999835199999" y="1669.99995855" width="70.000003968" height="25.999970040000107" class="text">Public </text>
<text x="194.00000015999998" y="1669.99995855" width="91.99998323999998" height="26.999960129999863" class="text">officials </text>
<text x="317.00000352" y="1668.99996846" width="29.000006359999986" height="25.99997003999988" class="text">50
</text>
<text x="109.999994696" y="1710.99993933" width="136.000012024" height="32.999991749999936" class="text">Newspapers </text>
<text x="322.99999212" y="1702.9999503000001" width="7.000013039999999" height="24.00001263000013" class="text">1
</text>
<text x="113.000003044" y="1738.00003608" width="55.99999896000001" height="25.999970040000107" class="text">Press </text>
<text x="184.00000160000002" y="1738.00003608" width="92.99999012" height="25.999970040000107" class="text">services </text>
<text x="286.99999028" y="1738.00003608" width="24.000024639999992" height="25.999970040000107" class="text">of
</text>
<text x="355.00000156" y="1750.99995279" width="119.00001096000005" height="29.999907630000052" class="text">lawyers
</text>
<text x="526.99999084" y="1743.9999310800001" width="28.00001703999999" height="25.999970040000107" class="text">16
</text>
<text x="136.000001488" y="1770.00003774" width="139.00001159200002" height="23.999989859999914" class="text">associations
</text>
<text x="368.00000320000004" y="1779.00003963" width="84.99998776000001" height="27.000096749999784" class="text">banks </text>
<text x="510.99998612" y="1779.00003963" width="24.000024639999992" height="27.000096749999784" class="text">20
</text>
<text x="110.99999630800001" y="1805.9999997599998" width="137.999995932" height="27.999950219999846" class="text">Educational
</text>
<text x="136.000001488" y="1838.99999151" width="126.99999927199997" height="25.000002719999884" class="text">institutions </text>
<text x="320.0000066" y="1838.99999151" width="31.999991879999982" height="25.000002719999884" class="text">33
</text>
<text x="111.999999676" y="1871.9999832600001" width="58.999995016" height="25.00000272000034" class="text">Civic
</text>
<text x="210.00000488" y="1879.99997229" width="78.99999916000002" height="33.99998183999992" class="text">groups </text>
<text x="313.99998288" y="1875.00006738" width="38.00001559999998" height="31.000034339999957" class="text">48
</text>
<text x="108.99999835199999" y="1910.00001654" width="68.999997088" height="31.000034339999957" class="text">Other </text>
<text x="189.9999902" y="1910.00001654" width="9.000009239999969" height="31.000034339999957" class="text">(</text>
<text x="202.00000252" y="1911.0000066300001" width="72.00000367999996" height="32.00002443000017" class="text">specify</text>
<text x="279.99999479999997" y="1911.0000066300001" width="9.000009240000054" height="31.000034340000184" class="text">) </text>
<text x="317.00000352" y="1911.0000066300001" width="34.99999495999998" height="31.000034340000184" class="text">65
</text>
<text x="1058.9999634" y="1665.00003087" width="43.00003243999981" height="47.00003516999982" class="text">MAY </text>
<text x="1064.00005048" y="1714.00002345" width="41.999955320000026" height="32.99999175000016" class="text">-8 </text>
<text x="1069.0000322" y="1795.00004046" width="42.99994463999997" height="52.00007669999991" class="text">P3</text>
<text x="1074.00003148" y="1811.0000412900001" width="39.999994240000206" height="14.000043420000111" class="text">:</text>
<text x="1074.00003148" y="1842.00007563" width="42.999927080000134" height="38.00005605000024" class="text">36
</text>
<text x="1563.00000672" y="2088.00002862" width="44.99999352000009" height="16.000000829999863" class="text">FORM </text>
<text x="1618.999953" y="2088.00002862" width="34.00004076000005" height="16.000000829999863" class="text">CRM</text>
<text x="1658.9999647999998" y="2088.00002862" width="4.00000996000017" height="16.000000829999863" class="text">-</text>
<text x="1662.99997476" y="2088.00002862" width="21.00003912000011" height="16.000000829999863" class="text">159
</text>
<text x="1629.00003936" y="2109.99994722" width="28.99995368000009" height="16.00002360000053" class="text">SEP</text>
<text x="1657.9999930400002" y="2109.99994722" width="4.000009959999943" height="16.00002360000053" class="text">. </text>
<text x="1667.99995648" y="2111.00005116" width="15.00006808000012" height="17.00012754000045" class="text">89
</text>
</g>
<g id="page-1" transform="translate(0, 2297)">
<rect width="1756" height="2277" fill="none" stroke="black" />
<text x="104.999998928" y="145.000006668" width="46.000005668" height="36.00000983699999" class="text">13. </text>
<text x="156.999994952" y="145.000006668" width="21.000000487999984" height="36.00000983699999" class="text">If </text>
<text x="185.99999780000002" y="145.000006668" width="31.000002559999984" height="36.00000983699999" class="text">the </text>
<text x="238.99999368000002" y="145.000006668" width="90.00000459999998" height="36.00000983699999" class="text">material </text>
<text x="339.0000144" y="145.000006668" width="122.99996823999993" height="36.00000983699999" class="text">transmitted </text>
<text x="475.0000018399999" y="145.000006668" width="46.00001796000009" height="36.00000983699999" class="text">was </text>
<text x="531.0000008" y="145.000006668" width="10.000016120000055" height="36.00000983699999" class="text">a </text>
<text x="553.00001168" y="145.000006668" width="42.99997976000009" height="36.00000983699999" class="text">film </text>
<text x="611.99999616" y="145.000006668" width="26.99999260000004" height="36.00000983699999" class="text">or </text>
<text x="647.0000086800001" y="145.000006668" width="53.99998519999997" height="36.00000983699999" class="text">radio </text>
<text x="716.9999986" y="145.000006668" width="26.99999260000004" height="36.00000983699999" class="text">or </text>
<text x="750.99998668" y="145.000006668" width="111.99999791999994" height="36.00000983699999" class="text">television </text>
<text x="871.9999762799999" y="145.000006668" width="69.00001816000008" height="36.00000983699999" class="text">script</text>
<text x="941.9999662" y="145.000006668" width="10.000086359999955" height="36.00000983699999" class="text">, </text>
<text x="959.99996712" y="145.000006668" width="78.00006252000014" height="36.00000983699999" class="text">furnish </text>
<text x="1049.99995416" y="145.000006668" width="36.00000183999987" height="36.00000983699999" class="text">the </text>
<text x="1097.00001412" y="145.000006668" width="107.99998796" height="36.00000983699999" class="text">following </text>
<text x="1215.9999548399999" y="145.000006668" width="133.00003704000028" height="36.00000983699999" class="text">information</text>
<text x="1352.00001252" y="145.000006668" width="9.999981000000162" height="36.00000983699999" class="text">:
</text>
<text x="946.9999654799999" y="203.000005692" width="52.000041680000095" height="25.000007273999984" class="text">Date </text>
<text x="1011.0000370399999" y="203.000005692" width="27.999964360000035" height="25.000007273999984" class="text">or </text>
<text x="1046.00004956" y="203.000005692" width="58.999984479999966" height="25.000007273999984" class="text">dates </text>
<text x="1115.9999868" y="203.000005692" width="114.00006436000012" height="25.000007273999984" class="text">broadcast </text>
<text x="1236.99999396" y="203.000005692" width="74.00003500000003" height="25.000007273999984" class="text">shown
</text>
<text x="108.000002008" y="203.000005692" width="71.000000312" height="31.000009293000005" class="text">Name </text>
<text x="189.9999902" y="202.000004217" width="20.000014679999992" height="29.000006342999995" class="text">of </text>
<text x="221.99999964" y="203.000005692" width="71.00001435999997" height="30.000007818" class="text">station</text>
<text x="300.99999879999996" y="203.000005692" width="8.000002360000053" height="29.00000861999999" class="text">, </text>
<text x="314.99998976" y="204.00000488999999" width="142.99998291999998" height="31.000007015999984" class="text">organization</text>
<text x="463.00000708" y="204.00000488999999" width="7.999984799999993" height="29.00000861999999" class="text">, </text>
<text x="479.00001180000004" y="204.00000488999999" width="25.999968159999924" height="29.00000861999999" class="text">or </text>
<text x="515.9999854" y="206.000005563" width="77.00002052000002" height="31.000009293000005" class="text">theater </text>
<text x="604.00001136" y="207.00000703799998" width="60.99999823999997" height="31.000009292999977" class="text">using
</text>
<text x="108.000002008" y="237.99998673" width="8.999998704000006" height="30.99997969200001" class="text">(</text>
<text x="118.00000408" y="237.99998673" width="106.99999863999997" height="30.99997969200001" class="text">including </text>
<text x="238.99999368000002" y="237.99998673" width="35.000012519999956" height="30.99997969200001" class="text">city </text>
<text x="285.99998339999996" y="237.99998673" width="44.00002176000004" height="30.99997969200001" class="text">and </text>
<text x="343.99999612" y="237.99998673" width="47.999996599999974" height="30.99997969200001" class="text">state</text>
<text x="396.999992" y="237.99998673" width="9.0000268" height="30.99997969200001" class="text">)
</text>
<text x="1410.00002524" y="207.00000703799998" width="111.00002615999983" height="28.000009421999977" class="text">Estimated </text>
<text x="1536.99998588" y="208.000006236" width="119.00004607999995" height="28.000007144999984" class="text">attendance
</text>
<text x="1460.9999897999999" y="241.00000254" width="8.000019920000113" height="28.999994958000002" class="text">(</text>
<text x="1472.00004792" y="241.00000254" width="32.999963639999805" height="28.999994958000002" class="text">for </text>
<text x="1515.99996432" y="241.99999262999998" width="43.00003244000004" height="28.999985849999973" class="text">film</text>
<text x="1562.00003496" y="241.99999262999998" width="7.999914559999979" height="28.999985849999973" class="text">(</text>
<text x="1571.00002664" y="241.99999262999998" width="7.999914559999979" height="28.999985849999973" class="text">s</text>
<text x="1581.9999794" y="241.99999262999998" width="8.000019919999886" height="28.999985849999973" class="text">)</text>
<text x="1591.9999604" y="241.99999262999998" width="8.000019919999886" height="28.999985849999973" class="text">)
</text>
<text x="108.000002008" y="477.99999918" width="48.99999294400001" height="34.00000460999996" class="text">14. </text>
<text x="156.00000563199998" y="477.99999918" width="56.99998476800002" height="34.00000460999996" class="text">Have </text>
<text x="228.0000058" y="477.99999918" width="38.99998735999998" height="34.00000460999996" class="text">two </text>
<text x="277.99999859999997" y="477.99999918" width="75.99999608000002" height="34.00000460999996" class="text">copies </text>
<text x="363.00000392" y="477.99999918" width="24.99997884000004" height="34.00000460999996" class="text">of </text>
<text x="395.00001336" y="477.99999918" width="42.999979759999974" height="34.00000460999996" class="text">this </text>
<text x="454.00001540000005" y="477.99999918" width="89.99998703999995" height="34.00000460999996" class="text">material </text>
<text x="553.99998344" y="477.99999918" width="52.00004167999998" height="34.00000460999996" class="text">been </text>
<text x="620.99998784" y="477.99999918" width="44.999993519999975" height="34.00000460999996" class="text">filed </text>
<text x="680.99999676" y="477.99999918" width="44.00002175999987" height="34.00000460999996" class="text">with </text>
<text x="741.99997744" y="477.99999918" width="34.00000564000004" height="34.00000460999996" class="text">the </text>
<text x="784.99997476" y="477.99999918" width="138.99999051999987" height="34.00000460999996" class="text">Department </text>
<text x="934.00005164" y="477.99999918" width="24.99994371999992" height="34.00000460999996" class="text">of </text>
<text x="968.9999588" y="477.99999918" width="74.00005255999997" height="34.00000460999996" class="text">Justice</text>
<text x="1047.00002132" y="477.99999918" width="9.999980999999934" height="34.00000460999996" class="text">?
</text>
<text x="1097.00001412" y="473.00000319" width="35.00001251999993" height="25.000025489999928" class="text">Yes </text>
<text x="1150.99999932" y="473.99999327999996" width="7.000048160000006" height="24.999979949999954" class="text">
</text>
<text x="1200.99999212" y="471.99999032999995" width="38.00005072000022" height="22.999976999999944" class="text">No </text>
<text x="1254.99997732" y="473.00000319" width="5.999971039999991" height="23.000022539999975" class="text">
</text>
<text x="106.99999864" y="538.99998669" width="44.000005955999995" height="27.999995760000047" class="text">15. </text>
<text x="166.999997024" y="538.99998669" width="48.000007135999994" height="27.999995760000047" class="text">Has </text>
<text x="223.99999584" y="540.00002232" width="40.00001179999998" height="28.00001852999992" class="text">this </text>
<text x="284.99999408" y="540.00002232" width="88.00000839999996" height="28.00001852999992" class="text">material </text>
<text x="383.00000104000003" y="540.99998964" width="49.000003479999975" height="28.999985849999916" class="text">been </text>
<text x="448.99998100000005" y="540.99998964" width="75.00002431999997" height="27.999995760000047" class="text">labeled </text>
<text x="539.00002072" y="540.99998964" width="25.999968160000094" height="27.999995760000047" class="text">as </text>
<text x="577.99999052" y="542.0000025" width="89.00001528000007" height="29.00000862000013" class="text">required </text>
<text x="681.9999685199999" y="542.0000025" width="26.000020840000047" height="27.999995760000047" class="text">by </text>
<text x="721.00000856" y="542.0000025" width="35.00001252000004" height="27.999995760000047" class="text">the </text>
<text x="766.9999738399999" y="542.0000025" width="33.000016319999986" height="27.999995760000047" class="text">act</text>
<text x="802.00000392" y="542.0000025" width="8.000019919999886" height="27.999995760000047" class="text">?
</text>
<text x="848.9999936400001" y="540.00002232" width="37.99999803999992" height="27.00002844000005" class="text">Yes </text>
<text x="909.99999188" y="540.99998964" width="8.00001992" height="26.999982899999964" class="text">
</text>
<text x="957.0000342799999" y="538.00001937" width="36.000001840000095" height="22.000009680000062" class="text">No </text>
<text x="1007.99999884" y="538.00001937" width="5.999971039999991" height="22.000009680000062" class="text">
</text>
<text x="104.999998928" y="605.00001573" width="51.99999602400001" height="28.00001852999992" class="text">Date </text>
<text x="173.000001428" y="606.99997314" width="25.000008692000023" height="26.999960129999863" class="text">of </text>
<text x="205.99999492" y="610.99997904" width="72.00000367999996" height="29.999975940000013" class="text">report
</text>
<text x="1052.0000206" y="613.00002753" width="107.00001620000012" height="32.00002443000005" class="text">Signature
</text>
<text x="108.99999835199999" y="646.9999866" width="52.999997636" height="31.000011570000083" class="text">May </text>
<text x="185.99999780000002" y="646.0000192800001" width="8.000002359999968" height="29.000008620000017" class="text">4</text>
<text x="203.0000094" y="645.0000291900001" width="7.999984799999993" height="29.000054160000104" class="text">, </text>
<text x="233.9999944" y="645.0000291900001" width="67.00000439999997" height="31.00003434000007" class="text">1992
</text>
<text x="397.99998131999996" y="605.00001573" width="68.00001128000008" height="25.000002719999884" class="text">Name </text>
<text x="479.99998356" y="605.00001573" width="35.000012519999984" height="25.000002719999884" class="text">and </text>
<text x="532.00002524" y="605.00001573" width="39.99995911999997" height="25.000002719999884" class="text">title
</text>
<text x="405.00001191999996" y="643.99997079" width="136.00000500000004" height="26.999960129999977" class="text">Yasumasa </text>
<text x="562.9999751199999" y="643.99997079" width="116.00002544000006" height="26.999960129999977" class="text">Iwasaki
</text>
<text x="406.99999056" y="678.00002094" width="151.00000283999998" height="27.00002844000005" class="text">Executive </text>
<text x="577.99999052" y="678.00002094" width="138.00001876" height="27.00002844000005" class="text">Director
</text>
<text x="1096.00004236" y="703.00000089" width="204.99991780000005" height="77.99997842999994" class="text">Alur
</text>
</g>
</svg>
