<svg xmlns="http://www.w3.org/2000/svg">
<style>.text { font-size: 14px; font-family: Arial, sans-serif; }</style>
<g id="page-0" transform="translate(0, 0)">
<rect width="1756" height="2277" fill="none" stroke="black" />
<text x="910.9999636399999" y="145.000006668" width="165.00001136000003" height="30.000007817999986" class="text">Dissemination </text>
<text x="1088.00000488" y="147.000007341" width="79.00005183999997" height="29.000008620000017" class="text">Report
</text>
<text x="127.000002784" y="143.000005995" width="52.99998885599999" height="29.000008620000003" class="text">U.S. </text>
<text x="187.00000468" y="143.000005995" width="151.00000284" height="29.000008620000003" class="text">Department </text>
<text x="346.00000988" y="143.000005995" width="21.999993320000044" height="29.000008620000003" class="text">of </text>
<text x="381.99999416" y="143.000005995" width="77.99999227999996" height="29.000008620000003" class="text">Justice
</text>
<text x="125.99999941600001" y="186.00000111" width="131.99998450400003" height="33.999993225" class="text">Washington</text>
<text x="261.00000456" y="184.99999963500002" width="8.999991679999994" height="31.999990275000016" class="text">, </text>
<text x="278.99998792" y="184.99999963500002" width="41.00001867999998" height="32.99999175000002" class="text">DC </text>
<text x="335.00000444" y="184.000000437" width="67.99999372000002" height="32.99999174999999" class="text">20530
</text>
<text x="1550.00000508" y="135.000003303" width="39.99999423999998" height="16.000005384000005" class="text">OMB </text>
<text x="1597.00004748" y="135.000003303" width="27.0000101600001" height="16.000005384000005" class="text">No. </text>
<text x="1630.99998288" y="135.000003303" width="67.00000440000008" height="16.000005384000005" class="text">1105-0006
</text>
<text x="1466.99994328" y="158.999993163" width="65.00006088000009" height="19.999997621999995" class="text">Approval </text>
<text x="1536.99998588" y="158.999993163" width="53.000013439999975" height="19.999997621999995" class="text">Expires </text>
<text x="1595.99997036" y="158.999993163" width="36.000001840000095" height="19.999997621999995" class="text">Nov. </text>
<text x="1639.00002036" y="158.999993163" width="14.999962719999985" height="19.999997621999995" class="text">30</text>
<text x="1656.00003196" y="158.999993163" width="5.999971040000219" height="19.999997621999995" class="text">, </text>
<text x="1670.00002292" y="158.999993163" width="29.99992543999997" height="19.999997621999995" class="text">1993
</text>
<text x="127.000002784" y="283.99998627" width="162.99999057600002" height="26.99998290000002" class="text">INSTRUCTIONS</text>
<text x="293.00001399999996" y="282.99999618" width="6.999995480000052" height="25.000002719999998" class="text">: </text>
<text x="305.99999808" y="282.99999618" width="62.999994439999966" height="25.000002719999998" class="text">Report </text>
<text x="378.00001932" y="282.99999618" width="40.99998356000003" height="25.000002719999998" class="text">must </text>
<text x="423.00001284" y="283.99998627" width="22.999982639999985" height="24.99997995000001" class="text">be </text>
<text x="454.99998716" y="283.99998627" width="85.00000531999996" height="24.99997995000001" class="text">submitted </text>
<text x="550.0000261600001" y="283.99998627" width="13.999990959999877" height="24.99997995000001" class="text">in </text>
<text x="573.0000087999999" y="284.99999913" width="83.99998088000007" height="25.99999280999998" class="text">duplicate </text>
<text x="665.0000096" y="284.99999913" width="13.999990959999991" height="25.000002719999998" class="text">to </text>
<text x="687.99999224" y="284.99999913" width="28.00001703999999" height="25.000002719999998" class="text">the </text>
<text x="723.00000476" y="287.00000208" width="107.00001619999989" height="27.000005670000007" class="text">Registration </text>
<text x="840.00000196" y="286.00001199" width="41.000036239999986" height="25.000002719999998" class="text">Unit</text>
<text x="882.99998172" y="286.00001199" width="7.000048159999892" height="25.000002719999998" class="text">, </text>
<text x="894.00003984" y="286.00001199" width="72.99997543999996" height="25.000002719999998" class="text">Internal </text>
<text x="972.9999863200001" y="287.00000208" width="74.00003500000003" height="25.99999280999998" class="text">Security </text>
<text x="1056.00003056" y="287.00000208" width="67.00000440000008" height="25.000002719999998" class="text">Section</text>
<text x="1128.00001668" y="287.00000208" width="6.999942799999872" height="25.000002719999998" class="text">, </text>
<text x="1141.0000358799998" y="288.00001494" width="81.99996712000029" height="26.000015580000024" class="text">Criminal </text>
<text x="1227.00001296" y="288.00001494" width="79.00003427999991" height="25.000002720000055" class="text">Division</text>
<text x="1308.00000832" y="288.00001494" width="7.0000305999999455" height="25.000002720000055" class="text">, </text>
<text x="1318.99996108" y="290.00001789000004" width="114.00004680000006" height="27.000005670000064" class="text">Department </text>
<text x="1436.00004608" y="289.00000503" width="22.9999826400001" height="25.000002719999998" class="text">of </text>
<text x="1461.99996156" y="289.00000503" width="61.00003336000009" height="25.000002719999998" class="text">Justice</text>
<text x="1524.9999559999999" y="289.00000503" width="7.000048160000233" height="25.000002719999998" class="text">, </text>
<text x="1536.00001412" y="290.99998521" width="103.99997799999983" height="26.999982899999964" class="text">Washington</text>
<text x="1644.99997384" y="290.00001789000004" width="7.000048160000006" height="25.000002720000055" class="text">, </text>
<text x="1657.9999930400002" y="290.00001789000004" width="43.00003243999981" height="25.000002720000055" class="text">D.C.
</text>
<text x="128.000006152" y="310.99999194000003" width="62.99999092800002" height="27.000005670000007" class="text">20530. </text>
<text x="197.00000323999998" y="310.99999194000003" width="33.99998807999998" height="27.000005670000007" class="text">The </text>
<text x="238.00000436" y="311.99998203" width="73.00001056000002" height="26.99998290000002" class="text">original </text>
<text x="321.00001348" y="311.99998203" width="41.999990439999976" height="26.99998290000002" class="text">must </text>
<text x="368.00000320000004" y="311.99998203" width="21.99999331999993" height="26.99998290000002" class="text">be </text>
<text x="398.9999882" y="312.99999489000004" width="53.000013439999975" height="27.999995760000047" class="text">signed </text>
<text x="463.00000708" y="312.99999489000004" width="18.999990240000045" height="26.99998290000002" class="text">by </text>
<text x="492.00001344000003" y="312.99999489000004" width="20.000014679999992" height="26.99998290000002" class="text">or </text>
<text x="519.00000604" y="312.99999489000004" width="20.000014679999936" height="26.99998290000002" class="text">on </text>
<text x="544.9999742" y="312.99999489000004" width="61.000050920000035" height="26.99998290000002" class="text">behalf </text>
<text x="611.00000684" y="312.99999489000004" width="20.00001468000005" height="26.99998290000002" class="text">of </text>
<text x="636.00000324" y="313.99998497999997" width="26.99999260000004" height="27.999972989999947" class="text">the </text>
<text x="671.00001576" y="313.99998497999997" width="88.9999626" height="26.999982899999964" class="text">registrant</text>
<text x="759.99997836" y="313.99998497999997" width="8.00001992" height="26.999982899999964" class="text">. </text>
<text x="774.9999937599999" y="313.99998497999997" width="26.000020840000047" height="26.999982899999964" class="text">All </text>
<text x="810.0000238399999" y="313.99998497999997" width="49.000003480000146" height="26.999982899999964" class="text">items </text>
<text x="866.99999456" y="314.99999784" width="10.000033680000001" height="26.999982899999964" class="text">in </text>
<text x="891.00000164" y="314.99999784" width="30.000048359999937" height="26.999982899999964" class="text">this </text>
<text x="931.0000134400001" y="314.99999784" width="41.99997287999997" height="26.999982899999964" class="text">form </text>
<text x="985.9999879600001" y="314.99999784" width="40.999983559999805" height="26.999982899999964" class="text">must </text>
<text x="1031.99995324" y="314.99999784" width="20.000067360000003" height="26.999982899999964" class="text">be </text>
<text x="1058.9999634" y="315.99998793" width="85.0000053199999" height="27.999972989999947" class="text">answered</text>
<text x="1146.0000175999999" y="315.99998793" width="8.000019920000113" height="26.999982899999964" class="text">, </text>
<text x="1159.0000368" y="315.99998793" width="57.9999951599998" height="26.999982899999964" class="text">unless </text>
<text x="1222.00001368" y="315.99998793" width="27.0000101600001" height="26.999982899999964" class="text">the </text>
<text x="1259.9999765999999" y="317.00000079" width="61.00003336000009" height="27.99999575999999" class="text">answer </text>
<text x="1330.9999909599999" y="317.00000079" width="9.999963440000101" height="26.999982899999964" class="text">is </text>
<text x="1352.00001252" y="317.00000079" width="8.000037480000174" height="26.999982899999964" class="text">"</text>
<text x="1363.9999546000001" y="317.00000079" width="45.000098879999996" height="26.999982899999964" class="text">none</text>
<text x="1407.9999588" y="317.00000079" width="8.000037479999946" height="26.999982899999964" class="text">" </text>
<text x="1425.9999597199999" y="317.00000079" width="20.000067360000003" height="26.999982899999964" class="text">or </text>
<text x="1454.000047" y="317.00000079" width="7.999914559999979" height="26.999982899999964" class="text">"</text>
<text x="1466.99994328" y="317.00000079" width="30.000030800000104" height="26.999982899999964" class="text">not </text>
<text x="1501.99997336" y="317.99999088" width="93.00002524000001" height="27.000005670000007" class="text">applicable</text>
<text x="1597.00004748" y="317.99999088" width="7.999914559999979" height="27.000005670000007" class="text">,</text>
<text x="1600.99995208" y="317.99999088" width="8.000019919999886" height="27.000005670000007" class="text">" </text>
<text x="1618.999953" y="317.99999088" width="15.000068079999892" height="27.000005670000007" class="text">in </text>
<text x="1643.00003032" y="317.99999088" width="53.99998520000008" height="27.000005670000007" class="text">which
</text>
<text x="125.99999941600001" y="339.00001047" width="39.99999424000001" height="26.000015579999967" class="text">case </text>
<text x="174.00000304" y="339.00001047" width="37.99999804000001" height="26.000015579999967" class="text">such </text>
<text x="225.00000271999997" y="339.00001047" width="19.00000780000005" height="26.000015579999967" class="text">an </text>
<text x="251.99999532" y="340.00000056" width="49.00000347999995" height="26.000015580000024" class="text">entry </text>
<text x="311.00001492" y="340.00000056" width="42.999979759999974" height="26.000015580000024" class="text">shall </text>
<text x="361.99999704" y="340.00000056" width="18.99999023999999" height="26.000015580000024" class="text">be </text>
<text x="395.00001336" y="340.00000056" width="43.999986639999975" height="26.000015580000024" class="text">made </text>
<text x="448.99998100000005" y="340.00000056" width="15.000015399999938" height="26.000015580000024" class="text">in </text>
<text x="475.0000018399999" y="341.00001342" width="26.000020840000047" height="27.00002844000005" class="text">the </text>
<text x="510.00001435999997" y="341.00001342" width="103.99997800000011" height="26.000015580000024" class="text">appropriate </text>
<text x="625.9999695600001" y="341.00001342" width="46.00003551999998" height="26.000015580000024" class="text">space</text>
<text x="674.99997304" y="341.00001342" width="6.999995479999939" height="26.000015580000024" class="text">. </text>
<text x="691.0000304399999" y="341.00001342" width="13.999973400000044" height="26.000015580000024" class="text">If </text>
<text x="712.99998864" y="342.00000351" width="95.00002144000007" height="27.000005670000007" class="text">additional </text>
<text x="812.00002004" y="342.00000351" width="49.999992800000086" height="26.000015580000024" class="text">space </text>
<text x="873.00001828" y="342.00000351" width="13.999973400000044" height="26.000015580000024" class="text">is </text>
<text x="894.00003984" y="342.00000351" width="64.99995551999996" height="26.000015580000024" class="text">needed </text>
<text x="968.9999588" y="343.00001637" width="26.00002084000016" height="27.00002844000005" class="text">for </text>
<text x="1004.99996064" y="343.00001637" width="29.00005904000011" height="26.000015580000024" class="text">any </text>
<text x="1046.00004956" y="343.00001637" width="36.999973599999976" height="26.000015580000024" class="text">item</text>
<text x="1085.9999559999999" y="343.00001637" width="7.000048160000233" height="26.000015580000024" class="text">, </text>
<text x="1101.9999958399999" y="343.00001637" width="49.00000348000003" height="26.000015580000024" class="text">attach </text>
<text x="1164.0000185200001" y="345.00001932000004" width="121.99997891999988" height="28.000018530000034" class="text">supplemental </text>
<text x="1290.99997916" y="343.99998369" width="49.99997523999991" height="25.999992810000037" class="text">sheet </text>
<text x="1349.9999636399998" y="343.99998369" width="95.00007412000014" height="25.999992810000037" class="text">identifying </text>
<text x="1454.000047" y="345.00001932000004" width="40.00001180000004" height="27.00002844000005" class="text">each </text>
<text x="1505.0000115599998" y="345.00001932000004" width="37.99994536000031" height="26.000015580000024" class="text">item</text>
<text x="1545.99999512" y="345.00001932000004" width="7.000030600000173" height="26.000015580000024" class="text">.
</text>
<text x="124.99999780400002" y="394.99997922" width="67.00000615599997" height="26.999982899999964" class="text">Privacy </text>
<text x="200.99999563999998" y="396.00001485" width="34.00000564000004" height="28.000018529999977" class="text">Act </text>
<text x="238.99999368000002" y="396.99998217" width="91.00001147999998" height="27.999972990000003" class="text">Statement</text>
<text x="328.99999828" y="396.00001485" width="8.000002359999996" height="27.000005670000007" class="text">. </text>
<text x="340.00000372" y="396.00001485" width="52.99999588000003" height="27.000005670000007" class="text">Every </text>
<text x="402.00000884" y="398.0000178" width="102.99997111999994" height="29.000008620000017" class="text">registration </text>
<text x="512.9999998799999" y="398.0000178" width="89.00001528000007" height="28.000018529999977" class="text">statement</text>
<text x="598.99997696" y="398.0000178" width="8.00001992" height="27.00002844000005" class="text">, </text>
<text x="613.0000206" y="398.0000178" width="47.99997903999997" height="27.00002844000005" class="text">short </text>
<text x="663.9999676" y="398.0000178" width="42.00002556000004" height="27.00002844000005" class="text">form </text>
<text x="716.00000928" y="399.99999798" width="103.99997800000006" height="29.000008620000017" class="text">registration </text>
<text x="826.000011" y="398.99998512" width="86.00002976000007" height="26.99998290000002" class="text">statement</text>
<text x="912.00004076" y="398.99998512" width="7.999914559999866" height="26.99998290000002" class="text">, </text>
<text x="926.00003172" y="400.99998807000003" width="120.99998960000005" height="28.99998585000003" class="text">supplemental </text>
<text x="1052.99999236" y="400.99998807000003" width="85.0000053199999" height="27.999995760000047" class="text">statement</text>
<text x="1138.99996944" y="400.99998807000003" width="8.000019919999886" height="26.99998290000002" class="text">, </text>
<text x="1151.99998864" y="400.99998807000003" width="61.00003335999986" height="26.99998290000002" class="text">exhibit</text>
<text x="1214.99998308" y="400.99998807000003" width="8.000019920000113" height="26.99998290000002" class="text">, </text>
<text x="1226.0000412" y="402.99999102000004" width="109.99993147999999" height="28.99998585000003" class="text">amendment</text>
<text x="1335.99997268" y="402.00000093" width="8.000019920000113" height="27.000005670000007" class="text">, </text>
<text x="1348.9999918800002" y="402.99999102000004" width="121.99996135999982" height="28.99998585000003" class="text">dissemination </text>
<text x="1482.00001136" y="402.99999102000004" width="55.99994628000013" height="26.99998290000002" class="text">report</text>
<text x="1539.0000523200001" y="402.99999102000004" width="7.999914559999979" height="26.99998290000002" class="text">, </text>
<text x="1549.00001576" y="402.99999102000004" width="45.99998284000003" height="26.99998290000002" class="text">copy </text>
<text x="1599.9999803199998" y="402.99999102000004" width="20.00004980000017" height="26.99998290000002" class="text">of </text>
<text x="1625.0000294" y="404.00000387999995" width="75.99999608000007" height="27.999995759999933" class="text">political
</text>
<text x="125.99999941600001" y="425.00000070000004" width="107.00000566400001" height="28.99998585000003" class="text">propaganda </text>
<text x="238.99999368000002" y="424.00001061" width="19.99999711999996" height="27.000028439999994" class="text">or </text>
<text x="268.00000004" y="424.00001061" width="44.000004200000035" height="27.000028439999994" class="text">other </text>
<text x="321.00001348" y="426.00001356" width="92.00000079999995" height="29.000031390000004" class="text">document </text>
<text x="417.999996" y="425.00000070000004" width="19.99999711999999" height="26.99998290000002" class="text">or </text>
<text x="443.00000996" y="426.00001356" width="105.00000243999995" height="29.000031390000004" class="text">information </text>
<text x="559.00001784" y="426.00001356" width="37.99999803999992" height="27.99999575999999" class="text">filed </text>
<text x="605.0000006800001" y="426.00001356" width="39.000022479999984" height="27.000028439999994" class="text">with </text>
<text x="654.00000416" y="426.00001356" width="26.000020840000047" height="27.000028439999994" class="text">the </text>
<text x="689.00001668" y="427.00000365000005" width="77.9999571599999" height="28.000018530000034" class="text">Attorney </text>
<text x="774.9999937599999" y="427.00000365000005" width="76.00001364000002" height="27.000005670000064" class="text">General </text>
<text x="855.00001736" y="427.00000365000005" width="50.99996456000008" height="27.000005670000064" class="text">under </text>
<text x="913.0000125199999" y="428.00001650999997" width="33.99995295999997" height="28.000018529999977" class="text">this </text>
<text x="952.00005256" y="428.00001650999997" width="30.999897199999964" height="27.000028439999937" class="text">act </text>
<text x="989.0000261600001" y="428.00001650999997" width="9.999980999999934" height="27.000028439999937" class="text">is </text>
<text x="1009.9999423600001" y="428.00001650999997" width="8.000037479999833" height="27.000028439999937" class="text">a </text>
<text x="1024.00003868" y="428.00001650999997" width="58.00001271999986" height="27.000028439999937" class="text">public </text>
<text x="1091.0000430799998" y="429.0000066" width="55.99994628000013" height="28.000018529999977" class="text">record </text>
<text x="1155.0000092799999" y="429.0000066" width="40.00001180000004" height="27.000005670000007" class="text">open </text>
<text x="1206.9999456" y="429.0000066" width="15.000068079999892" height="27.000005670000007" class="text">to </text>
<text x="1230.00005116" y="430.00001946" width="56.999918039999784" height="28.000018529999977" class="text">public </text>
<text x="1295.99996088" y="431.00000955" width="107.99998796" height="29.000008620000017" class="text">examination</text>
<text x="1406.99998704" y="430.00001946" width="8.000019919999886" height="27.000028439999937" class="text">, </text>
<text x="1420.00000624" y="431.99997687" width="92.00003592000007" height="28.999985849999973" class="text">inspection </text>
<text x="1522.99999492" y="431.00000955" width="31.000020120000045" height="27.000005670000064" class="text">and </text>
<text x="1559.99996852" y="431.00000955" width="71.00001436000002" height="27.000005670000064" class="text">copying </text>
<text x="1640.99996388" y="431.99997687" width="58.00001271999986" height="26.99998290000002" class="text">during
</text>
<text x="127.000002784" y="449.99998065" width="26.99999611199999" height="26.999982899999964" class="text">the </text>
<text x="160.0000033" y="451.00001627999995" width="58.99999326" height="28.00001852999992" class="text">posted </text>
<text x="228.99999511999997" y="451.00001627999995" width="74.99998920000004" height="27.00000566999995" class="text">business </text>
<text x="311.00001492" y="451.00001627999995" width="52.99997831999997" height="27.00000566999995" class="text">hours </text>
<text x="371.99999560000003" y="451.9999836" width="19.00000779999999" height="26.999982899999964" class="text">of </text>
<text x="396.999992" y="451.9999836" width="27.000010159999988" height="26.999982899999964" class="text">the </text>
<text x="433.0000114" y="452.99999646" width="111.99996279999999" height="28.999985849999973" class="text">Registration </text>
<text x="550.9999979199999" y="452.99999646" width="40.999983560000146" height="26.999982899999964" class="text">Unit </text>
<text x="600.0000014" y="452.99999646" width="15.000015399999938" height="26.999982899999964" class="text">in </text>
<text x="625.9999695600001" y="454.99999941" width="103.00000623999995" height="28.999985849999973" class="text">Washington</text>
<text x="732.0000140000001" y="453.99998655" width="7.999967239999933" height="26.999982899999964" class="text">, </text>
<text x="746.00000496" y="453.99998655" width="46.99998972000003" height="26.999982899999964" class="text">D.C. </text>
<text x="793.99996644" y="453.99998655" width="37.00002628000004" height="26.999982899999964" class="text">One </text>
<text x="841.99999816" y="454.99999941" width="40.99998356000003" height="27.999995759999933" class="text">copy </text>
<text x="892.99996272" y="454.99999941" width="19.000078040000062" height="26.99998290000002" class="text">of </text>
<text x="917.0000224799999" y="454.99999941" width="49.000021040000206" height="26.99998290000002" class="text">every </text>
<text x="973.99995808" y="454.99999941" width="41.000088919999826" height="26.99998290000002" class="text">such </text>
<text x="1025.0000280000002" y="457.00000236" width="88.99999772000001" height="28.99998585000003" class="text">document </text>
<text x="1124.00000672" y="455.9999895" width="9.999980999999934" height="26.99998290000002" class="text">is </text>
<text x="1143.99996872" y="457.99999245000004" width="120.99998959999994" height="28.99998585000003" class="text">automatically </text>
<text x="1276.0000164399999" y="457.99999245000004" width="76.99998540000024" height="27.99997299000006" class="text">provided </text>
<text x="1363.9999546000001" y="457.99999245000004" width="16.000039839999772" height="26.99998290000002" class="text">to </text>
<text x="1388.00001436" y="457.99999245000004" width="26.999992599999814" height="26.99998290000002" class="text">the </text>
<text x="1424.99998796" y="459.99999540000005" width="83.00004424000008" height="28.99998585000003" class="text">Secretary </text>
<text x="1518.99998496" y="459.00000531" width="20.00006736000023" height="27.000028439999994" class="text">of </text>
<text x="1546.99996688" y="459.00000531" width="40.00001179999981" height="27.000028439999994" class="text">State </text>
<text x="1599.00000856" y="459.99999540000005" width="77.99995716000012" height="28.000018530000034" class="text">pursuant </text>
<text x="1681.9999474400001" y="459.99999540000005" width="15.000068079999892" height="27.000005670000064" class="text">to
</text>
<text x="128.000006152" y="477.99999918" width="63.99999780799999" height="26.000015579999967" class="text">Section </text>
<text x="202.00000252" y="477.99999918" width="6.9999954799999955" height="26.000015579999967" class="text">6</text>
<text x="212.9999904" y="479.00001204" width="6.999995480000024" height="26.000015580000024" class="text">(</text>
<text x="219.99998588000003" y="479.00001204" width="7.000030600000002" height="26.000015580000024" class="text">b</text>
<text x="230.99999131999996" y="479.00001204" width="7.000013040000027" height="26.000015580000024" class="text">) </text>
<text x="241.99999676" y="479.00001204" width="24.00000707999999" height="26.000015580000024" class="text">of </text>
<text x="266.99999316" y="479.00001204" width="26.00002083999999" height="26.000015580000024" class="text">the </text>
<text x="302.00000568" y="479.00001204" width="32.99999875999998" height="26.000015580000024" class="text">Act</text>
<text x="335.00000444" y="479.00001204" width="6.999977919999992" height="26.000015580000024" class="text">, </text>
<text x="346.99999920000005" y="479.00001204" width="29.00000635999993" height="26.000015580000024" class="text">and </text>
<text x="386.00000411999997" y="480.00000213" width="57.99997760000008" height="27.000005670000007" class="text">copies </text>
<text x="450.9999772" y="480.00000213" width="19.000025360000052" height="26.000015579999967" class="text">of </text>
<text x="475.0000018399999" y="480.00000213" width="35.00001252000004" height="26.000015579999967" class="text">such </text>
<text x="519.9999953600001" y="482.00000508" width="100.00002071999995" height="28.000018529999977" class="text">documents </text>
<text x="624.9999978" y="481.00001499" width="26.000020840000047" height="26.000015580000024" class="text">are </text>
<text x="658.99998588" y="481.00001499" width="80.99999535999996" height="26.000015580000024" class="text">routinely </text>
<text x="750.99998668" y="482.00000508" width="48.00003172000004" height="27.000005670000007" class="text">made </text>
<text x="802.00000392" y="482.00000508" width="80.99997780000001" height="26.000015579999967" class="text">available </text>
<text x="888.99995276" y="482.00000508" width="14.000096320000011" height="26.000015579999967" class="text">to </text>
<text x="914.0000018400001" y="483.00001794" width="47.00004239999987" height="27.000028439999994" class="text">other </text>
<text x="966.0000435200001" y="483.00001794" width="77.99995716000001" height="26.000015580000024" class="text">agencies</text>
<text x="1044.99997244" y="483.00001794" width="7.000048160000006" height="26.000015580000024" class="text">, </text>
<text x="1057.00000232" y="485.00002089" width="110.00005439999995" height="28.000018529999977" class="text">departments </text>
<text x="1173.99999952" y="484.00000802999995" width="29.000041479999936" height="26.00001557999991" class="text">and </text>
<text x="1213.99999376" y="484.00000802999995" width="81.99996711999984" height="26.00001557999991" class="text">Congress </text>
<text x="1303.0000090400001" y="485.00002089" width="81.99996711999984" height="27.000028439999937" class="text">pursuant </text>
<text x="1388.00001436" y="485.00002089" width="14.999962719999985" height="26.000015579999967" class="text">to </text>
<text x="1412.9999580800002" y="485.00002089" width="62.99999443999991" height="26.000015579999967" class="text">Section </text>
<text x="1487.00001064" y="485.00002089" width="7.000048160000006" height="26.000015579999967" class="text">6</text>
<text x="1496.9999740800001" y="485.99998820999997" width="7.000048159999778" height="25.999992809999924" class="text">(</text>
<text x="1506.99995508" y="485.99998820999997" width="7.000048160000006" height="25.999992809999924" class="text">c</text>
<text x="1514.999975" y="485.99998820999997" width="7.000048160000006" height="25.999992809999924" class="text">) </text>
<text x="1530.0000430799998" y="485.99998820999997" width="18.999972680000155" height="25.999992809999924" class="text">of </text>
<text x="1551.9999486000002" y="485.99998820999997" width="25.000049079999826" height="25.999992809999924" class="text">the </text>
<text x="1589.00002756" y="485.99998820999997" width="28.99995368000009" height="25.999992809999924" class="text">Act</text>
<text x="1618.999953" y="485.99998820999997" width="7.000048160000006" height="25.999992809999924" class="text">. </text>
<text x="1630.00001112" y="487.00002384" width="62.99999444000014" height="27.000028439999937" class="text">Finally</text>
<text x="1694.99996664" y="487.00002384" width="7.000030600000173" height="26.000015579999967" class="text">,
</text>
<text x="124.99999780400002" y="506.99998502999995" width="27.99999947999997" height="27.999972989999947" class="text">the </text>
<text x="164.00000096800002" y="507.99999789" width="76.99998891199999" height="28.999985849999973" class="text">Attorney </text>
<text x="248.99999224" y="507.99999789" width="72.00002124" height="27.99999575999999" class="text">General </text>
<text x="327.00000208" y="508.99998797999996" width="80.99999536000001" height="28.999985849999973" class="text">transmits </text>
<text x="419.00000288" y="508.99998797999996" width="16.99999403999999" height="27.999972989999947" class="text">an </text>
<text x="445.99999548" y="508.99998797999996" width="62.00002268000003" height="27.999972989999947" class="text">annual </text>
<text x="514.99999608" y="510.00000084" width="53.000031000000035" height="28.999985849999973" class="text">report </text>
<text x="575.99999432" y="510.00000084" width="15.999987160000046" height="27.99999575999999" class="text">to </text>
<text x="600.99999072" y="510.00000084" width="28.00001703999999" height="27.99999575999999" class="text">the </text>
<text x="637.99999944" y="510.00000084" width="81.99998468000001" height="27.99999575999999" class="text">Congress </text>
<text x="728.9999758" y="510.99999092999997" width="19.99999711999999" height="28.999985849999973" class="text">on </text>
<text x="757.99998216" y="510.99999092999997" width="29.000006360000043" height="27.999972989999947" class="text">the </text>
<text x="792.00002292" y="512.00000379" width="136.9999416400001" height="29.999998710000057" class="text">Administration </text>
<text x="940.0000226799999" y="512.00000379" width="15.999934480000093" height="27.999995760000104" class="text">of </text>
<text x="963.0000053199999" y="512.00000379" width="26.999992600000155" height="27.999995760000104" class="text">the </text>
<text x="1000.99995068" y="512.00000379" width="31.000002559999984" height="27.999995760000104" class="text">Act </text>
<text x="1034.99999144" y="512.00000379" width="54.99997452000002" height="27.999995760000104" class="text">which </text>
<text x="1101.00002408" y="512.9999938799999" width="35.00001251999993" height="27.999972989999947" class="text">lists </text>
<text x="1142.00000764" y="512.9999938799999" width="26.99999260000027" height="27.999972989999947" class="text">the </text>
<text x="1177.00002016" y="512.9999938799999" width="59.99997379999991" height="27.999972989999947" class="text">names </text>
<text x="1245.00001388" y="512.9999938799999" width="17.00001159999988" height="27.999972989999947" class="text">of </text>
<text x="1267.0000247599999" y="514.00000674" width="22.9999826400001" height="28.000018530000034" class="text">all </text>
<text x="1298.00002732" y="514.00000674" width="58.999984479999966" height="28.000018530000034" class="text">agents </text>
<text x="1362.99996528" y="514.00000674" width="85.00000532000013" height="28.000018530000034" class="text">registered </text>
<text x="1456.99997984" y="514.99999683" width="57.999995160000026" height="27.999972990000003" class="text">under </text>
<text x="1519.9999742799998" y="514.99999683" width="26.99999260000027" height="27.999972990000003" class="text">the </text>
<text x="1558.000025" y="514.99999683" width="27.99996435999992" height="27.999972990000003" class="text">Act</text>
<text x="1586.99997868" y="514.99999683" width="8.000019920000113" height="27.999972990000003" class="text">, </text>
<text x="1600.99995208" y="514.99999683" width="28.000087280000116" height="27.999972990000003" class="text">the </text>
<text x="1636.99995392" y="516.00000969" width="62.0000226799998" height="28.000018529999977" class="text">foreign
</text>
<text x="127.000002784" y="540.99998964" width="86.999994496" height="32.00000166000001" class="text">principals </text>
<text x="222.99998896" y="540.99998964" width="38.00001559999998" height="32.00000166000001" class="text">they </text>
<text x="271.00000312000003" y="540.99998964" width="89.99998703999995" height="32.00000166000001" class="text">represent</text>
<text x="356.99999776" y="540.99998964" width="9.000009240000054" height="32.00000166000001" class="text">, </text>
<text x="373.00000248" y="540.99998964" width="33.00001632000004" height="32.00000166000001" class="text">and </text>
<text x="412.0000074" y="540.99998964" width="27.999964360000035" height="32.00000166000001" class="text">the </text>
<text x="450.00000543999994" y="540.99998964" width="55.99999896000003" height="32.00000166000001" class="text">nature</text>
<text x="508.00001816" y="540.99998964" width="8.99999168000005" height="32.00000166000001" class="text">, </text>
<text x="519.00000604" y="540.99998964" width="69.99998991999996" height="32.00000166000001" class="text">sources </text>
<text x="600.0000014" y="540.99998964" width="33.000016319999986" height="32.00000166000001" class="text">and </text>
<text x="642.00002696" y="540.99998964" width="67.00000439999997" height="32.00000166000001" class="text">content </text>
<text x="716.00000928" y="540.99998964" width="16.999976479999987" height="32.00000166000001" class="text">of </text>
<text x="741.99997744" y="540.99998964" width="28.00003460000005" height="32.00000166000001" class="text">the </text>
<text x="779.9999930399999" y="540.99998964" width="75.99999608000007" height="32.00000166000001" class="text">political </text>
<text x="862.9999846" y="540.99998964" width="105.9999742" height="32.00000166000001" class="text">propaganda </text>
<text x="973.99995808" y="540.99998964" width="119.00004608000006" height="32.00000166000001" class="text">disseminated </text>
<text x="1101.9999958399999" y="540.99998964" width="23.99997196000004" height="32.00000166000001" class="text">or </text>
<text x="1132.00002664" y="540.99998964" width="94.00001455999995" height="32.00000166000001" class="text">distributed </text>
<text x="1236.00000464" y="540.99998964" width="23.99997195999981" height="32.00000166000001" class="text">by </text>
<text x="1267.99999652" y="540.99998964" width="44.00002175999998" height="32.00000166000001" class="text">them</text>
<text x="1313.9999618" y="540.99998964" width="9.000009240000054" height="32.00000166000001" class="text">. </text>
<text x="1329.00002988" y="540.99998964" width="40.99998355999992" height="32.00000166000001" class="text">This </text>
<text x="1378.00003336" y="540.99998964" width="54.99997452000002" height="32.00000166000001" class="text">report </text>
<text x="1443.99996064" y="540.99998964" width="12.000029880000056" height="32.00000166000001" class="text">is </text>
<text x="1463.00003868" y="540.99998964" width="78.99992892" height="32.00000166000001" class="text">available </text>
<text x="1555.99995856" y="540.99998964" width="12.000029880000056" height="32.00000166000001" class="text">to </text>
<text x="1576.0000259199999" y="540.99998964" width="32.99994607999997" height="32.00000166000001" class="text">the </text>
<text x="1617.9999812400001" y="540.99998964" width="52.00004167999987" height="32.00000166000001" class="text">public</text>
<text x="1671.99996644" y="540.99998964" width="9.000009240000054" height="32.00000166000001" class="text">.
</text>
<text x="124.99999780400002" y="589.0000149" width="54.000004515999976" height="26.000015579999967" class="text">Public </text>
<text x="189.9999902" y="589.99998222" width="87.00000152000001" height="26.999982899999964" class="text">Reporting </text>
<text x="286.99999028" y="589.99998222" width="61.00001579999997" height="25.99999280999998" class="text">Burden</text>
<text x="350.00001984" y="589.99998222" width="6.999977919999992" height="25.99999280999998" class="text">. </text>
<text x="365.00000012" y="590.99997231" width="54.00000276000003" height="26.999982899999964" class="text">Public </text>
<text x="425.99999836" y="590.99997231" width="84.00001599999996" height="25.999970039999994" class="text">reporting </text>
<text x="515.9999854" y="590.99997231" width="60.00000892000003" height="25.999970039999994" class="text">burden </text>
<text x="584.00001424" y="592.00003071" width="25.999968159999867" height="27.00002844000005" class="text">for </text>
<text x="616.00000612" y="592.00003071" width="28.999988799999983" height="26.000038350000068" class="text">this </text>
<text x="654.00000416" y="592.00003071" width="87.99997327999995" height="26.000038350000068" class="text">collection </text>
<text x="747.0000294" y="592.00003071" width="18.99997268000004" height="26.000038350000068" class="text">of </text>
<text x="772.0000258" y="593.99998812" width="105.00000244" height="27.999995760000047" class="text">information </text>
<text x="883.99997104" y="593.0000208" width="10.000068800000008" height="26.000015579999967" class="text">is </text>
<text x="903.00004908" y="593.99998812" width="80.99997780000001" height="26.999982899999964" class="text">estimated </text>
<text x="993.00003612" y="593.99998812" width="13.999990959999991" height="25.99999280999998" class="text">to </text>
<text x="1015.0000469999999" y="593.99998812" width="65.99992727999995" height="25.99999280999998" class="text">average </text>
<text x="1088.9999942" y="593.99998812" width="14.999962720000212" height="25.99999280999998" class="text">.5 </text>
<text x="1114.0000257200002" y="594.99997821" width="45.00001107999992" height="26.999982899999964" class="text">hours </text>
<text x="1168.00002848" y="594.99997821" width="29.99992543999997" height="25.999970039999994" class="text">per </text>
<text x="1203.000041" y="594.99997821" width="76.99998540000001" height="25.999970039999994" class="text">response</text>
<text x="1284.0000363600002" y="594.99997821" width="6.999942799999872" height="25.999970039999994" class="text">, </text>
<text x="1294.0000173600001" y="596.00003661" width="82.99993887999995" height="27.00002844000005" class="text">including </text>
<text x="1385.99996548" y="596.00003661" width="26.00002084000016" height="26.000038350000068" class="text">the </text>
<text x="1415.99999628" y="596.00003661" width="40.99998355999992" height="26.000038350000068" class="text">time </text>
<text x="1463.00003868" y="596.00003661" width="25.999915480000027" height="26.000038350000068" class="text">for </text>
<text x="1492.9999641200002" y="597.00000393" width="87.00007175999963" height="27.000005670000064" class="text">reviewing </text>
<text x="1587.99995044" y="597.99999402" width="108.0000933199999" height="27.999995760000047" class="text">instructions</text>
<text x="1694.99996664" y="597.00000393" width="7.000030600000173" height="26.000038350000068" class="text">,
</text>
<text x="125.99999941600001" y="618.99999084" width="86.999990984" height="26.999960129999977" class="text">searching </text>
<text x="219.99998588000003" y="619.99995816" width="70.00000748" height="27.999927449999973" class="text">existing </text>
<text x="300.99999879999996" y="619.99995816" width="34.99999496000004" height="26.99993735999999" class="text">data </text>
<text x="348.00000608" y="619.99995816" width="67.00000439999997" height="26.99993735999999" class="text">sources</text>
<text x="415.00001047999996" y="619.99995816" width="8.000002360000053" height="26.99993735999999" class="text">, </text>
<text x="430.99999764" y="621.0000165600001" width="86.00001220000007" height="27.999995760000047" class="text">gathering </text>
<text x="521.99999156" y="621.0000165600001" width="33.99998807999998" height="27.00002844000005" class="text">and </text>
<text x="566.99998508" y="621.0000165600001" width="104.00003068000001" height="27.00002844000005" class="text">maintaining </text>
<text x="680.000025" y="621.0000165600001" width="25.99996815999998" height="27.00002844000005" class="text">the </text>
<text x="716.00000928" y="622.00000665" width="34.00000564000004" height="28.000018530000034" class="text">data </text>
<text x="761.99999212" y="622.00000665" width="62.99999443999991" height="27.00002844000005" class="text">needed</text>
<text x="828.00002476" y="622.00000665" width="7.999967240000046" height="27.00002844000005" class="text">, </text>
<text x="840.9999737200001" y="622.00000665" width="35.00001251999993" height="27.00002844000005" class="text">and </text>
<text x="883.99997104" y="622.00000665" width="101.00004516000001" height="27.00002844000005" class="text">completing </text>
<text x="994.00000788" y="622.99997397" width="31.00002012000016" height="26.99993735999999" class="text">and </text>
<text x="1035.9999632" y="622.99997397" width="85.99999464000007" height="26.99993735999999" class="text">reviewing </text>
<text x="1133.99998772" y="622.99997397" width="27.99996435999992" height="26.99993735999999" class="text">the </text>
<text x="1167.00005672" y="623.99996406" width="86.99994884000012" height="27.999927449999973" class="text">collection </text>
<text x="1267.0000247599999" y="623.99996406" width="19.999944440000036" height="26.999960129999977" class="text">of </text>
<text x="1291.99995092" y="623.99996406" width="105.00005512000007" height="26.999960129999977" class="text">information</text>
<text x="1402.99997708" y="623.99996406" width="8.000019919999886" height="26.999960129999977" class="text">. </text>
<text x="1418.0000451600001" y="623.99996406" width="41.9999553199998" height="26.999960129999977" class="text">Send </text>
<text x="1469.9999814799999" y="625.0000224600001" width="93.00002524000024" height="28.000018530000034" class="text">comments </text>
<text x="1572.99998772" y="625.0000224600001" width="84.00001599999996" height="27.00002844000005" class="text">regarding </text>
<text x="1665.0000412" y="625.0000224600001" width="33.99993539999991" height="27.00002844000005" class="text">this
</text>
<text x="124.99999780400002" y="646.9999866" width="63.00001375599997" height="27.00002844000005" class="text">burden </text>
<text x="194.99998948" y="647.99997669" width="77.00002051999996" height="28.000018530000034" class="text">estimate </text>
<text x="278.99998792" y="647.99997669" width="20.000014679999936" height="26.999960129999977" class="text">or </text>
<text x="305.99999808" y="647.99997669" width="29.999995679999984" height="26.999960129999977" class="text">any </text>
<text x="343.99999612" y="647.99997669" width="49.00000348000003" height="26.999960129999977" class="text">other </text>
<text x="402.00000884" y="647.99997669" width="54.99999208000003" height="26.999960129999977" class="text">aspect </text>
<text x="465.99999260000004" y="649.0000350900001" width="15.000015399999938" height="27.00002844000005" class="text">of </text>
<text x="488.00000348" y="649.0000350900001" width="33.99998808000004" height="27.00002844000005" class="text">this </text>
<text x="531.0000008" y="649.0000350900001" width="85.99997708000012" height="27.00002844000005" class="text">collection </text>
<text x="627.0000115600001" y="649.0000350900001" width="19.99999711999999" height="27.00002844000005" class="text">of </text>
<text x="654.00000416" y="650.00000241" width="102.99998868" height="27.999995759999933" class="text">information</text>
<text x="759.99997836" y="650.00000241" width="8.00001992" height="27.000028439999937" class="text">, </text>
<text x="774.0000220000001" y="650.00000241" width="82.9999915599999" height="27.000028439999937" class="text">including </text>
<text x="869.00000832" y="650.9999925" width="102.00001692000012" height="28.00001852999992" class="text">suggestions </text>
<text x="979.00004516" y="650.9999925" width="26.99999260000004" height="27.000028439999937" class="text">for </text>
<text x="1013.99996988" y="650.9999925" width="75.99999608000007" height="27.000028439999937" class="text">reducing </text>
<text x="1097.99998588" y="650.9999925" width="34.00004076000005" height="27.000028439999937" class="text">this </text>
<text x="1139.9999412" y="651.99998259" width="60.00007916000004" height="28.00001852999992" class="text">burden </text>
<text x="1208.0000402800001" y="651.99998259" width="18.999972679999928" height="26.999960129999863" class="text">to </text>
<text x="1236.00000464" y="651.99998259" width="49.99999279999997" height="26.999960129999863" class="text">Chief</text>
<text x="1286.9999692" y="651.99998259" width="8.000019920000113" height="26.999960129999863" class="text">, </text>
<text x="1300.99996016" y="653.00001822" width="106.99999864000006" height="27.999995759999933" class="text">Registration </text>
<text x="1415.99999628" y="653.00001822" width="41.999955320000026" height="27.00000566999995" class="text">Unit</text>
<text x="1460.00000048" y="653.00001822" width="8.000037480000174" height="27.00000566999995" class="text">, </text>
<text x="1473.99999144" y="653.00001822" width="85.0000053199999" height="27.00000566999995" class="text">Criminal </text>
<text x="1562.00003496" y="654.00000831" width="77.9999571599999" height="27.999995759999933" class="text">Division</text>
<text x="1643.00003032" y="654.00000831" width="8.000019920000113" height="27.00002844000005" class="text">, </text>
<text x="1657.9999930400002" y="654.00000831" width="41.9999553199998" height="27.00002844000005" class="text">U.S.
</text>
<text x="124.99999780400002" y="675.99997245" width="111.00001035599998" height="26.999937359999876" class="text">Department </text>
<text x="241.99999676" y="675.00000513" width="19.00000779999999" height="25.000002719999998" class="text">of </text>
<text x="266.99999316" y="675.00000513" width="61.00001580000003" height="25.000002719999998" class="text">Justice</text>
<text x="331.00001204" y="675.00000513" width="6.9999954799999955" height="25.000002719999998" class="text">, </text>
<text x="345.00000300000005" y="675.99997245" width="102.99998867999994" height="25.999970039999994" class="text">Washington</text>
<text x="452.99999096000005" y="675.99997245" width="6.999995479999939" height="24.99997995000001" class="text">, </text>
<text x="465.99999260000004" y="675.99997245" width="42.99999731999992" height="24.99997995000001" class="text">D.C. </text>
<text x="517.0000098400001" y="675.99997245" width="51.00001723999992" height="24.99997995000001" class="text">20530</text>
<text x="573.0000087999999" y="675.99997245" width="6.999995480000052" height="24.99997995000001" class="text">; </text>
<text x="586.99999976" y="675.99997245" width="31.99997431999998" height="24.99997995000001" class="text">and </text>
<text x="627.99998332" y="675.99997245" width="14.000043640000058" height="24.99997995000001" class="text">to </text>
<text x="653.0000324" y="676.99996254" width="28.999936119999916" height="24.99997995000001" class="text">the </text>
<text x="687.99999224" y="676.99996254" width="58.00001271999997" height="24.99997995000001" class="text">Office </text>
<text x="754.0000248800001" y="676.99996254" width="22.999982639999985" height="24.99997995000001" class="text">of </text>
<text x="783.00001368" y="679.00001103" width="104.99996731999988" height="27.00002844000005" class="text">Information </text>
<text x="896.0000009199999" y="678.00002094" width="31.999974320000206" height="25.000002719999998" class="text">and </text>
<text x="937.9999562400001" y="678.00002094" width="100.00007340000002" height="25.000002719999998" class="text">Regulatory </text>
<text x="1048.00001064" y="679.00001103" width="62.00000511999997" height="25.99999280999998" class="text">Affairs</text>
<text x="1112.9999486000002" y="679.00001103" width="7.000048159999778" height="25.000002719999998" class="text">, </text>
<text x="1124.99997848" y="679.00001103" width="58.000012720000086" height="25.000002719999998" class="text">Office </text>
<text x="1191.99998288" y="679.00001103" width="18.99999023999976" height="25.000002719999998" class="text">of </text>
<text x="1218.9999930400002" y="680.99996844" width="119.00004607999995" height="26.999960129999977" class="text">Management </text>
<text x="1344.99998192" y="679.99997835" width="31.999974320000092" height="24.99997995000001" class="text">and </text>
<text x="1385.99996548" y="679.99997835" width="64.00007155999992" height="24.99997995000001" class="text">Budget</text>
<text x="1451.0000088" y="679.99997835" width="6.999942800000099" height="24.99997995000001" class="text">, </text>
<text x="1464.0000280000002" y="682.00002684" width="107.99998795999977" height="27.00002844000005" class="text">Washington</text>
<text x="1572.99998772" y="680.99996844" width="7.000048159999778" height="24.99997995000001" class="text">, </text>
<text x="1589.00002756" y="680.99996844" width="42.99994463999997" height="24.99997995000001" class="text">D.C. </text>
<text x="1636.99995392" y="682.00002684" width="55.00007987999993" height="26.000038350000068" class="text">20503</text>
<text x="1693.00000556" y="682.00002684" width="6.999942799999872" height="25.000002719999998" class="text">.
</text>
<text x="137.000004856" y="735.9999926400001" width="28.99998880000001" height="32.000001660000066" class="text">1. </text>
<text x="174.00000304" y="735.9999926400001" width="70.00000748000002" height="31.000011570000083" class="text">Name </text>
<text x="256.00000528000004" y="736.99998273" width="22.999982639999985" height="30.99996603000011" class="text">of </text>
<text x="289.00000404" y="739.0000084499999" width="113.99999412" height="32.00000165999984" class="text">registrant
</text>
<text x="175.99999924" y="777.99998628" width="78.00000984000002" height="26.99996013000009" class="text">JETRO </text>
<text x="272.99999932000003" y="779.00002191" width="48.00001415999998" height="27.000028439999937" class="text">New </text>
<text x="348.00000608" y="780.0000120000001" width="61.99998756000002" height="28.000018530000034" class="text">York
</text>
<text x="1253.0000338" y="743.0000143499999" width="23.99995439999998" height="31.000011569999856" class="text">2. </text>
<text x="1285.99999744" y="743.0000143499999" width="138.0000187600001" height="31.000011569999856" class="text">Registration </text>
<text x="1432.00003612" y="743.0000143499999" width="47.99992636000002" height="31.000011569999856" class="text">No.
</text>
<text x="1297.00005556" y="784.9999852200001" width="67.99997615999996" height="27.000005670000064" class="text">1643
</text>
<text x="138.999997544" y="836.0000262899999" width="29.00000284800001" height="31.000034339999843" class="text">3. </text>
<text x="175.99999924" y="837.0000163799999" width="78.00000984000002" height="32.000024429999826" class="text">Nature </text>
<text x="264.00000764" y="837.0000163799999" width="23.999989520000042" height="31.000034339999843" class="text">of </text>
<text x="303.99998432" y="838.99997379" width="92.00001835999996" height="32.999991749999936" class="text">material </text>
<text x="405.00001191999996" y="837.9999837" width="8.99999168000005" height="31.00001156999997" class="text">(</text>
<text x="416.99998912" y="837.9999837" width="9.000009239999997" height="31.00001156999997" class="text">A </text>
<text x="441.99998552" y="838.99997379" width="85.00000532000001" height="32.00000165999995" class="text">concise </text>
<text x="535.99998252" y="840.00003219" width="93.00002524000001" height="33.000060059999896" class="text">account </text>
<text x="640.0000132" y="838.99997379" width="22.999982639999985" height="30.999943260000123" class="text">of </text>
<text x="667.99999512" y="840.00003219" width="35.999984280000035" height="32.000001660000066" class="text">the </text>
<text x="712.99998864" y="840.00003219" width="73.00001056000008" height="31.000034339999843" class="text">nature </text>
<text x="802.00000392" y="840.00003219" width="21.99999331999993" height="31.000034339999843" class="text">of </text>
<text x="830.99999272" y="841.0000222799999" width="33.000016319999986" height="32.000024429999826" class="text">the </text>
<text x="873.9999900400001" y="841.9999896" width="139.99997983999992" height="32.999991749999936" class="text">propaganda </text>
<text x="1029.00003796" y="842.99997969" width="96.99992983999982" height="32.99999175000005" class="text">material </text>
<text x="1134.99995948" y="841.9999896" width="46.000070640000104" height="31.000011570000083" class="text">filed</text>
<text x="1182.9999912" y="842.99997969" width="8.999991679999994" height="30.99996603000011" class="text">)
</text>
<text x="170.000005372" y="883.99998324" width="169.999998348" height="30.999966029999996" class="text">newsletter </text>
<text x="363.00000392" y="886.00000896" width="134.0000088" height="32.00000165999984" class="text">focusing </text>
<text x="519.00000604" y="886.00000896" width="27.999981919999982" height="29.999975940000013" class="text">on </text>
<text x="568.99999884" y="886.99999905" width="69.99998992000008" height="30.99996603000011" class="text">U.S.</text>
<text x="640.99998496" y="886.99999905" width="9.00000923999994" height="29.999975940000127" class="text">-</text>
<text x="656.99998968" y="887.99996637" width="79.00003428000002" height="30.999943260000123" class="text">Japan </text>
<text x="761.99999212" y="889.00002477" width="98.00000695999995" height="32.000001660000066" class="text">issues
</text>
<text x="134.99999812" y="968.99998338" width="38.000003308000004" height="29.999975940000013" class="text">4. </text>
<text x="177.00000612" y="968.99998338" width="47.999996599999974" height="28.999985849999916" class="text">Title </text>
<text x="238.99999368000002" y="971.0000090999999" width="27.00001015999996" height="30.00004424999986" class="text">of </text>
<text x="276.99999172" y="972.99998928" width="95.00000388000001" height="30.999966029999996" class="text">material</text>
<text x="369.99998184" y="971.9999991899999" width="9.000009239999997" height="28.000018530000034" class="text">, </text>
<text x="386.00000411999997" y="972.99998928" width="21.999993320000044" height="29.00000862000013" class="text">if </text>
<text x="415.99998224" y="974.00002491" width="37.00000872000004" height="29.000054159999877" class="text">any
</text>
<text x="961.00004424" y="979.0000209" width="30.999914760000024" height="34.00005014999988" class="text">5. </text>
<text x="1011.0000370399999" y="979.0000209" width="67.99997616000007" height="34.00005014999988" class="text">Name </text>
<text x="1088.00000488" y="979.0000209" width="24.999943720000147" height="34.00005014999988" class="text">of </text>
<text x="1116.99995856" y="979.0000209" width="80.99999535999996" height="34.00005014999988" class="text">foreign </text>
<text x="1206.9999456" y="979.0000209" width="103.00000623999995" height="34.00005014999988" class="text">principal </text>
<text x="1316.00002824" y="979.0000209" width="24.999926160000086" height="34.00005014999988" class="text">on </text>
<text x="1347.0000308" y="979.0000209" width="75.99999608000007" height="34.00005014999988" class="text">whose </text>
<text x="1427.0000544" y="979.0000209" width="75.99999608000007" height="34.00005014999988" class="text">behalf </text>
<text x="1508.0000322" y="979.0000209" width="37.999962919999916" height="34.00005014999988" class="text">this </text>
<text x="1558.99999676" y="979.0000209" width="90.99997635999989" height="34.00005014999988" class="text">material </text>
<text x="1652.99999376" y="979.0000209" width="44.00002175999998" height="34.00005014999988" class="text">was
</text>
<text x="1013.99996988" y="1007.00001666" width="124.0000278" height="27.999995760000047" class="text">transmitted</text>
<text x="1142.9999794" y="1007.00001666" width="8.000019919999886" height="27.999995760000047" class="text">.
</text>
<text x="177.00000612" y="1053.99998352" width="95.99999320000003" height="32.999991749999936" class="text">Inside</text>
<text x="279.99999479999997" y="1053.99998352" width="9.000009240000054" height="30.999966029999882" class="text">/</text>
<text x="292.00000712" y="1056.00000924" width="121.99999648" height="34.00002738000012" class="text">Outside </text>
<text x="435.99999692" y="1056.99999933" width="77.99997472000001" height="32.00000166000018" class="text">Japan
</text>
<text x="1017.9999798399999" y="1061.99999532" width="78.00006252000003" height="34.9999719299999" class="text">Japan </text>
<text x="1120.99996852" y="1061.99999532" width="136.0000752399999" height="33.99998183999992" class="text">External </text>
<text x="1279.0000546400001" y="1064.00002104" width="78.99992892" height="35.0000174700001" class="text">Trade </text>
<text x="1380.9999662" y="1065.99997845" width="202.00000251999995" height="36.000007560000086" class="text">Organization
</text>
<text x="137.999994176" y="1135.00000053" width="27.999999480000014" height="25.00000272000011" class="text">6. </text>
<text x="175.000006408" y="1135.99996785" width="77.99999579199999" height="25.999970040000107" class="text">Means </text>
<text x="264.00000764" y="1135.99996785" width="22.99998264000004" height="24.999979950000125" class="text">of </text>
<text x="299.00000259999996" y="1137.00002625" width="137.99998364000004" height="27.00002844000005" class="text">transmission
</text>
<text x="173.000001428" y="1185.00002874" width="95.99998793199998" height="35.00008578000006" class="text">public </text>
<text x="289.99999336" y="1185.00002874" width="101.99999935999995" height="35.00008578000006" class="text">postal </text>
<text x="413.00001427999996" y="1185.00002874" width="115.9999727600001" height="35.00008578000006" class="text">service
</text>
<text x="672.9999768399999" y="1138.99998366" width="19.00002536000011" height="27.000005670000064" class="text">7. </text>
<text x="700.99999388" y="1138.99998366" width="65.00000820000002" height="27.000005670000064" class="text">Dates </text>
<text x="775.99998308" y="1138.99998366" width="25.000031519999993" height="27.000005670000064" class="text">of </text>
<text x="810.9999956" y="1138.99998366" width="142.00002871999993" height="27.000005670000064" class="text">transmission
</text>
<text x="723.99999408" y="1185.00002874" width="155.99996699999997" height="33.99995907000016" class="text">September </text>
<text x="901.9999544" y="1184.00006142" width="9.00000923999994" height="32.00002443000017" class="text">1
</text>
<text x="1185.00005764" y="1144.00004796" width="21.999887960000024" height="29.00005415999999" class="text">8. </text>
<text x="1221.0000419199998" y="1144.00004796" width="52.99990808000007" height="29.00005415999999" class="text">Total </text>
<text x="1284.0000363600002" y="1144.00004796" width="72.99997543999984" height="29.00005415999999" class="text">copies </text>
<text x="1366.00000348" y="1144.00004796" width="125.99998888000005" height="29.00005415999999" class="text">transmitted
</text>
<text x="1241.00000392" y="1184.00006142" width="52.000041680000095" height="30.0000442500002" class="text">342
</text>
<text x="137.999994176" y="1236.99999159" width="29.00000284800001" height="26.99996013000009" class="text">9. </text>
<text x="175.99999924" y="1236.99999159" width="41.999990440000005" height="26.99996013000009" class="text">List </text>
<text x="230.99999131999996" y="1238.999949" width="110.99999104000003" height="28.99991754000007" class="text">addresses </text>
<text x="353.99999468" y="1238.999949" width="52.99999588000003" height="27.999927450000087" class="text">from </text>
<text x="416.99998912" y="1238.999949" width="68.00002883999997" height="26.99996013000009" class="text">which </text>
<text x="501.99999444" y="1241.00004303" width="92.00000079999995" height="29.00005415999999" class="text">material </text>
<text x="600.99999072" y="1239.99993909" width="46.00001796000004" height="26.99996013000009" class="text">was </text>
<text x="654.99997592" y="1242.0000331200001" width="126.00004156" height="29.000054160000218" class="text">transmitted</text>
<text x="788.0000129599999" y="1241.00004303" width="7.999967240000046" height="27.000073979999797" class="text">:
</text>
<text x="170.999994692" y="1291.0000257000002" width="66.00002034799999" height="25.999970040000107" class="text">1221 </text>
<text x="257.99998392000003" y="1293.0000058800001" width="101.00002759999995" height="27.999950220000073" class="text">Avenue </text>
<text x="377.00001244000003" y="1293.0000058800001" width="33.99998807999998" height="25.999970040000107" class="text">of </text>
<text x="433.0000114" y="1293.0000058800001" width="47.999996599999974" height="25.999970040000107" class="text">the </text>
<text x="499.00000892" y="1294.99996329" width="136.99999431999993" height="27.999927450000087" class="text">Americas
</text>
<text x="169.000002004" y="1325.9999976299998" width="67.00000615599998" height="26.999960129999636" class="text">44th </text>
<text x="256.9999946" y="1325.9999976299998" width="83.99999844000001" height="25.99997003999988" class="text">floor
</text>
<text x="170.999994692" y="1363.00006359" width="44.000009468" height="29.000076929999977" class="text">New </text>
<text x="238.99999368000002" y="1364.00003091" width="63.000012" height="29.000054160000218" class="text">York</text>
<text x="312.99999356" y="1364.00003091" width="8.00001992" height="29.000054160000218" class="text">, </text>
<text x="340.00000372" y="1364.00003091" width="37.00000872000004" height="29.000054160000218" class="text">NY </text>
<text x="413.00001427999996" y="1363.00006359" width="79.99998848000001" height="28.000086840000222" class="text">10020
</text>
<text x="963.99997708" y="1241.00004303" width="44.999993519999975" height="26.0001066599998" class="text">10. </text>
<text x="1012.0000087999999" y="1241.00004303" width="46.99995460000014" height="26.0001066599998" class="text">List </text>
<text x="1075.00000324" y="1242.0000331200001" width="61.00003335999986" height="27.00009675000001" class="text">states </text>
<text x="1147.99997868" y="1242.0000331200001" width="40.999983560000146" height="25.999970040000107" class="text">and </text>
<text x="1204.00003032" y="1242.0000331200001" width="113.99994144000016" height="25.999970040000107" class="text">territories </text>
<text x="1333.00003984" y="1243.0000232099999" width="23.99997196000004" height="25.99997003999988" class="text">of </text>
<text x="1371.00000276" y="1243.0000232099999" width="32.99994607999997" height="25.99997003999988" class="text">the </text>
<text x="1419.00001692" y="1243.0000232099999" width="76.0000136399999" height="25.99997003999988" class="text">United </text>
<text x="1512.00004216" y="1243.0000232099999" width="65.99992728000007" height="25.99997003999988" class="text">States </text>
<text x="1590.99998864" y="1244.0000133" width="18.999972679999928" height="25.999992810000094" class="text">to </text>
<text x="1626.9999729200001" y="1244.0000133" width="67.9999937199998" height="25.999992810000094" class="text">which
</text>
<text x="1016.99999052" y="1277.0000050499998" width="94.00001455999995" height="27.999950219999846" class="text">material </text>
<text x="1118.00003568" y="1277.0000050499998" width="42.99994463999974" height="27.999950219999846" class="text">was </text>
<text x="1172.00003844" y="1277.0000050499998" width="122.99995067999998" height="27.999950219999846" class="text">transmitted</text>
<text x="1303.0000090400001" y="1277.0000050499998" width="8.000019919999886" height="27.999950219999846" class="text">:
</text>
<text x="958.99999536" y="1312.9999443" width="156.00001968000015" height="29.999907630000052" class="text">Washinton</text>
<text x="1124.99997848" y="1312.9999443" width="9.000009240000054" height="29.999907630000052" class="text">, </text>
<text x="1150.99999932" y="1312.9999443" width="37.999962920000144" height="29.999907630000052" class="text">DC </text>
<text x="1224.9999465199999" y="1312.9999443" width="171.00008776000004" height="27.999950219999846" class="text">California </text>
<text x="1447.9999706" y="1316.00002842" width="134.00000879999993" height="30.0000442500002" class="text">Deleware
</text>
<text x="963.99997708" y="1341.9999984600001" width="45.99996528000008" height="25.00000272000011" class="text">New </text>
<text x="1034.0000196800002" y="1343.99995587" width="63.99996619999979" height="25.99997003999988" class="text">York
</text>
<text x="1223.000003" y="1349.00002017" width="138.00001875999988" height="30.000044249999974" class="text">Colorodo </text>
<text x="1447.9999706" y="1352.99995776" width="204.00005139999985" height="32.00002442999971" class="text">Pennsylvania
</text>
<text x="961.00004424" y="1383.9999693299999" width="139.00000808000016" height="32.00000165999995" class="text">Virginia
</text>
<text x="1222.00001368" y="1384.99995942" width="118.99994072000004" height="29.999907630000052" class="text">Georgia </text>
<text x="1445.00003776" y="1382.0000119200001" width="123.99994000000015" height="26.99996013000009" class="text">Florida
</text>
<text x="961.00004424" y="1415.0000036699998" width="136.99994163999997" height="30.000044249999746" class="text">Maryland
</text>
<text x="1223.000003" y="1415.99999376" width="138.00001875999988" height="27.999950219999846" class="text">Illinios </text>
<text x="1446.99999884" y="1416.99996108" width="169.0000213200001" height="27.999927450000087" class="text">Conneticut
</text>
<text x="964.99994884" y="1447.00000533" width="82.00007248000009" height="25.999970040000107" class="text">Texas
</text>
<text x="1221.0000419199998" y="1453.00003695" width="49.9999928000002" height="34.00009569000008" class="text">New </text>
<text x="1294.0000173600001" y="1455.9999844499998" width="97.00003519999973" height="34.999949159999915" class="text">Jersey </text>
<text x="1446.99999884" y="1449.99995283" width="80.99999535999996" height="26.999960129999863" class="text">North </text>
<text x="1550.99997684" y="1450.99994292" width="138.00001875999988" height="26.99996013000009" class="text">Carolina
</text>
<text x="967.00001528" y="1481.99997726" width="130.99997059999998" height="26.999960129999863" class="text">Tennesse
</text>
<text x="1218.9999930400002" y="1485.0000613799998" width="209.0000331199999" height="31.00003433999973" class="text">Massachusets
</text>
<text x="125.99999941600001" y="1545.99998058" width="35.00000725199999" height="31.000011570000197" class="text">11. </text>
<text x="175.99999924" y="1545.99998058" width="67.00000440000002" height="31.000011570000197" class="text">Types </text>
<text x="254.00000908" y="1545.99998058" width="21.999975760000012" height="31.000011570000197" class="text">of </text>
<text x="284.99999408" y="1545.99998058" width="111.00000859999994" height="31.000011570000197" class="text">recipients </text>
<text x="408.99998676" y="1545.99998058" width="9.000009239999997" height="31.000011570000197" class="text">(</text>
<text x="419.00000288" y="1545.99998058" width="53.999985200000026" height="31.000011570000197" class="text">Give </text>
<text x="479.00001180000004" y="1545.99998058" width="87.00000151999996" height="31.000011570000197" class="text">number </text>
<text x="577.99999052" y="1545.99998058" width="29.000006360000043" height="31.000011570000197" class="text">of </text>
<text x="613.0000206" y="1545.99998058" width="154.99997768000003" height="31.000011570000197" class="text">organizations
</text>
<text x="173.000001428" y="1577.00001492" width="20.000009411999997" height="32.999991749999936" class="text">in </text>
<text x="205.99999492" y="1578.99997233" width="52.99999587999997" height="33.99998183999992" class="text">each </text>
<text x="272.99999932000003" y="1580.99995251" width="64.00000131999997" height="32.999991749999936" class="text">group</text>
<text x="338.00000752" y="1580.99995251" width="9.999998559999995" height="30.999897719999808" class="text">)
</text>
<text x="961.00004424" y="1544.99999049" width="46.999954600000024" height="30.000021480000214" class="text">12. </text>
<text x="1012.0000087999999" y="1545.99998058" width="48.00003172000015" height="31.000011570000197" class="text">List </text>
<text x="1076.99996432" y="1547.99996076" width="70.00002504000008" height="32.00002443000017" class="text">names </text>
<text x="1167.00005672" y="1546.9999706699998" width="37.99994536000008" height="29.999907629999825" class="text">and </text>
<text x="1227.00001296" y="1548.99992808" width="108.99995971999988" height="31.99986504000003" class="text">addresses </text>
<text x="1356.0000224799999" y="1547.99996076" width="22.000010880000218" height="29.999907630000052" class="text">of </text>
<text x="1392.99999608" y="1550.0000547900001" width="90.99997635999989" height="32.00000166000018" class="text">persons </text>
<text x="1500.99998404" y="1550.0000547900001" width="27.999981919999982" height="30.000044249999974" class="text">or </text>
<text x="1542.9999569200002" y="1551.00004488" width="153.00008683999977" height="32.00002442999994" class="text">organizations
</text>
<text x="1013.99996988" y="1583.0000465399999" width="102.99998868000011" height="32.00000165999995" class="text">receiving </text>
<text x="1133.99998772" y="1582.00005645" width="34.00004076000005" height="30.000044249999974" class="text">100 </text>
<text x="1181.00003012" y="1582.00005645" width="69.99993724000001" height="30.000044249999974" class="text">copies </text>
<text x="1264.99995832" y="1583.0000465399999" width="22.00001087999999" height="31.00003433999973" class="text">or </text>
<text x="1304.99997012" y="1583.0000465399999" width="49.99997523999991" height="30.000044249999974" class="text">more</text>
<text x="1357.9999835600001" y="1583.0000465399999" width="8.999991679999994" height="30.000044249999974" class="text">:
</text>
<text x="1186.0000294" y="1740.9999835800002" width="67.99997616000019" height="24.999979950000125" class="text">NONE
</text>
<text x="122.00000174799999" y="1640.00005092" width="106.00000405200001" height="26.0001066599998" class="text">Libraries
</text>
<text x="124.99999780400002" y="1674.00000999" width="70.99999855599997" height="32.00000166000018" class="text">Public </text>
<text x="207.99999112" y="1674.00000999" width="92.00001836000001" height="32.00000166000018" class="text">officials </text>
<text x="309.00000116" y="1674.00000999" width="30.000013239999987" height="32.00000166000018" class="text">15
</text>
<text x="119.00000569199999" y="1718.99995113" width="140.99999198800003" height="43.999951049999936" class="text">Newspapers </text>
<text x="289.99999336" y="1710.99993933" width="47.00000727999998" height="37.99989665999988" class="text">280
</text>
<text x="120.99999838" y="1741.99997367" width="60.00000014" height="25.99997003999988" class="text">Press </text>
<text x="195.99999635999998" y="1741.99997367" width="93.00000768000004" height="25.99997003999988" class="text">services </text>
<text x="299.00000259999996" y="1741.99997367" width="23.999989520000042" height="25.99997003999988" class="text">of
</text>
<text x="146.00000356" y="1774.99996542" width="141.9999936" height="27.999950220000073" class="text">associations
</text>
<text x="119.00000569199999" y="1806.99996708" width="139.99998510799998" height="25.999970040000107" class="text">Educational
</text>
<text x="147.000006928" y="1840.9999489200002" width="126.99999927199997" height="25.999970040000107" class="text">institutions </text>
<text x="310.00000804" y="1836.00002124" width="6.9999954799999955" height="23.99998986000014" class="text">5
</text>
<text x="122.00000174799999" y="1875.00006738" width="61.99999985200003" height="27.00009675000001" class="text">Civic
</text>
<text x="218.99999656" y="1878.9999822" width="83.00000912000002" height="27.99992744999986" class="text">groups
</text>
<text x="119.00000569199999" y="1913.9999541299999" width="70.99998450800003" height="32.99999174999971" class="text">Other </text>
<text x="203.0000094" y="1912.99996404" width="8.999991679999994" height="32.999991749999936" class="text">(</text>
<text x="212.9999904" y="1912.99996404" width="75.00000676000002" height="32.999991749999936" class="text">specify</text>
<text x="292.00000712" y="1912.99996404" width="8.999991679999937" height="32.999991749999936" class="text">) </text>
<text x="305.99999808" y="1912.99996404" width="116.00000788" height="34.999949159999915" class="text">Private </text>
<text x="445.00002372" y="1912.99996404" width="150.99996772000003" height="34.999949159999915" class="text">Companies </text>
<text x="613.9999923600001" y="1911.0000066300001" width="37.00002627999993" height="32.99999175000016" class="text">42
</text>
<text x="1358.99995532" y="1807.99995717" width="36.00000183999987" height="78.99990021000008" class="text">CANAL </text>
<text x="1356.0000224799999" y="1938.99993408" width="36.000001840000095" height="117.99992358000009" class="text">SECURITY </text>
<text x="1352.00001252" y="2057.00001705" width="36.999973599999976" height="105.0000296400001" class="text">SECTION
</text>
<text x="1388.99998612" y="1794.00005037" width="36.999973599999976" height="79.00003683000023" class="text">D.O.J. </text>
<text x="1384.99997616" y="1912.99996404" width="38.00005072000022" height="113.99998598999991" class="text">CRIMINAL </text>
<text x="1379.99999444" y="2027.9999401199998" width="38.00005072000022" height="105.00000686999988" class="text">DIVISION
</text>
<text x="1451.99998056" y="1759.99993191" width="43.000049999999874" height="40.99998077999999" class="text">92 </text>
<text x="1448.99994236" y="1821.0000105" width="44.00002176000021" height="55.00002419999987" class="text">SEP </text>
<text x="1446.0000270799999" y="1869.00001299" width="42.999927080000134" height="32.999991749999936" class="text">10 </text>
<text x="1442.99998888" y="1929.9999549600002" width="43.00003244000004" height="32.00000166000018" class="text">AM </text>
<text x="1438.00000716" y="2031.00002424" width="45.99996527999997" height="89.99997336000001" class="text">10:26
</text>
<text x="1509.99999328" y="1979.99993763" width="57.99999516000025" height="199.99993068000003" class="text">RECEIVED
</text>
<text x="1571.00002664" y="2098.99998792" width="44.00002175999998" height="18.999948329999825" class="text">FORM </text>
<text x="1626.00000116" y="2098.99998792" width="32.999963639999805" height="17.99998100999983" class="text">CRM</text>
<text x="1666.00001296" y="2098.99998792" width="4.999981720000051" height="16.999990920000073" class="text">-</text>
<text x="1670.00002292" y="2098.99998792" width="19.999944440000036" height="16.999990920000073" class="text">159
</text>
<text x="1638.00003104" y="2120.00003028" width="27.000010159999874" height="16.000000829999863" class="text">SEP</text>
<text x="1666.9999847200002" y="2120.00003028" width="4.000009959999943" height="16.000000829999863" class="text">. </text>
<text x="1675.99999396" y="2120.00003028" width="14.999962719999985" height="16.000000829999863" class="text">89
</text>
</g>
<g id="page-1" transform="translate(0, 2297)">
<rect width="1756" height="2277" fill="none" stroke="black" />
<text x="110.99999630800001" y="139.99999701599998" width="45.000009323999976" height="32.00000165999998" class="text">13. </text>
<text x="161.000006668" y="139.99999701599998" width="17.999995651999996" height="32.00000165999998" class="text">If </text>
<text x="189.9999902" y="139.99999701599998" width="36.000019399999985" height="32.00000165999998" class="text">the </text>
<text x="241.99999676" y="139.99999701599998" width="92.00000080000001" height="32.00000165999998" class="text">material </text>
<text x="340.00000372" y="139.99999701599998" width="128.00000264" height="32.00000165999998" class="text">transmitted </text>
<text x="479.00001180000004" y="139.99999701599998" width="44.00002175999998" height="32.00000165999998" class="text">was </text>
<text x="535.00001076" y="139.99999701599998" width="8.999991679999994" height="32.00000165999998" class="text">a </text>
<text x="557.9999934" y="139.99999701599998" width="42.999997320000034" height="32.00000165999998" class="text">film </text>
<text x="616.9999778800001" y="139.99999701599998" width="23.000035319999938" height="32.00000165999998" class="text">or </text>
<text x="649.00000488" y="139.99999701599998" width="58.000012720000086" height="32.00000165999998" class="text">radio </text>
<text x="723.00000476" y="139.99999701599998" width="24.000024639999992" height="32.00000165999998" class="text">or </text>
<text x="756.00002108" y="139.99999701599998" width="105.99999176000006" height="32.00000165999998" class="text">television </text>
<text x="877.00002824" y="139.99999701599998" width="67.00000439999997" height="32.00000165999998" class="text">script</text>
<text x="945.0000044" y="139.99999701599998" width="8.999991679999994" height="32.00000165999998" class="text">, </text>
<text x="963.99997708" y="139.99999701599998" width="76.00001364000013" height="32.00000165999998" class="text">furnish </text>
<text x="1053.9999641200002" y="139.99999701599998" width="36.00000183999987" height="32.00000165999998" class="text">the </text>
<text x="1101.9999958399999" y="139.99999701599998" width="102.00003448000007" height="32.00000165999998" class="text">following </text>
<text x="1219.9999647999998" y="139.99999701599998" width="133.00003704000028" height="32.00000165999998" class="text">information</text>
<text x="1353.9999736" y="139.99999701599998" width="8.999991679999994" height="32.00000165999998" class="text">:
</text>
<text x="949.00001436" y="198.000002871" width="50.99996455999997" height="23.000006600999995" class="text">Date </text>
<text x="1012.99998056" y="198.000002871" width="29.000059039999996" height="23.000006600999995" class="text">or </text>
<text x="1049.99995416" y="198.000002871" width="57.00004095999998" height="24.00000579899998" class="text">dates </text>
<text x="1119.000025" y="197.00000367299998" width="111.99999791999994" height="23.000006600999967" class="text">broadcast </text>
<text x="1240.0000146" y="197.00000367299998" width="72.99997544000007" height="23.000006600999967" class="text">shown
</text>
<text x="109.999994696" y="206.000005563" width="69.00000762399999" height="32.00000849099999" class="text">Name </text>
<text x="193.00001084" y="206.000005563" width="23.999989520000014" height="32.00000849099999" class="text">of </text>
<text x="226.0000096" y="206.000005563" width="70.99997924000002" height="32.00000849099999" class="text">station</text>
<text x="303.00001256" y="206.000005563" width="8.999991679999994" height="32.00000849099999" class="text">, </text>
<text x="321.00001348" y="206.000005563" width="139.99999739999998" height="32.00000849099999" class="text">organization</text>
<text x="463.00000708" y="206.000005563" width="9.000009239999997" height="32.00000849099999" class="text">, </text>
<text x="479.99998356" y="206.000005563" width="29.000006359999986" height="32.00000849099999" class="text">or </text>
<text x="517.0000098400001" y="206.000005563" width="74.99997164000001" height="32.00000849099999" class="text">theater </text>
<text x="606.00002512" y="206.000005563" width="58.999984479999966" height="32.00000849099999" class="text">using
</text>
<text x="113.000003044" y="239.99998968" width="8.999998703999992" height="30.999981969000004" class="text">(</text>
<text x="123.999994436" y="239.99998968" width="102.000015164" height="30.999981969000004" class="text">including </text>
<text x="244.99999984000002" y="238.99999959" width="34.99999495999995" height="30.999993353999997" class="text">city </text>
<text x="292.00000712" y="238.99999959" width="39.999976679999975" height="30.999993353999997" class="text">and </text>
<text x="346.99999920000005" y="238.99999959" width="46.000000399999976" height="30.999993353999997" class="text">state</text>
<text x="402.00000884" y="238.99999959" width="8.999991679999994" height="30.999993353999997" class="text">)
</text>
<text x="1411.99998632" y="199.000004346" width="110.0000368399999" height="26.000006471999995" class="text">Estimated </text>
<text x="1535.00004236" y="199.000004346" width="118.99994072000004" height="26.000006471999995" class="text">attendance
</text>
<text x="1460.00000048" y="234.99999369" width="9.000009240000054" height="29.999987325000006" class="text">(</text>
<text x="1472.00004792" y="234.99999369" width="34.99990716000002" height="29.999987325000006" class="text">for </text>
<text x="1518.99998496" y="234.99999369" width="39.00004004000016" height="29.999987325000006" class="text">film</text>
<text x="1562.00003496" y="234.99999369" width="8.999991679999994" height="29.999987325000006" class="text">(</text>
<text x="1573.99995948" y="234.99999369" width="9.000009240000054" height="29.999987325000006" class="text">s</text>
<text x="1584.00004584" y="234.99999369" width="8.999991679999994" height="29.999987325000006" class="text">)</text>
<text x="1594.9999986" y="234.99999369" width="8.999991679999994" height="29.999987325000006" class="text">)
</text>
<text x="1098.99995764" y="465.99998148" width="34.00005831999988" height="21.99998690999996" class="text">Yes </text>
<text x="1151.99998864" y="465.00001416" width="6.000058839999838" height="22.000009680000005" class="text">
</text>
<text x="1204.00003032" y="465.99998148" width="37.99994536000008" height="22.999977" class="text">No
</text>
<text x="115.999997344" y="473.99999327999996" width="47.000002012000024" height="32.99999174999999" class="text">14. </text>
<text x="162.99999935600002" y="473.99999327999996" width="55.99999720399998" height="32.99999174999999" class="text">Have </text>
<text x="233.00000508000002" y="473.99999327999996" width="42.00000800000001" height="32.99999174999999" class="text">two </text>
<text x="284.00000475999997" y="473.99999327999996" width="73.99999988000002" height="32.99999174999999" class="text">copies </text>
<text x="367.00001388" y="473.99999327999996" width="23.999989520000042" height="32.99999174999999" class="text">of </text>
<text x="401.00000196" y="473.99999327999996" width="36.99999115999998" height="32.99999174999999" class="text">this </text>
<text x="457.99997268" y="473.99999327999996" width="92.00005348000008" height="32.99999174999999" class="text">material </text>
<text x="553.00001168" y="473.99999327999996" width="55.999998960000084" height="32.99999174999999" class="text">been </text>
<text x="622.0000122800001" y="473.99999327999996" width="49.99999279999997" height="32.99999174999999" class="text">filed </text>
<text x="680.99999676" y="473.99999327999996" width="47.00000727999998" height="32.99999174999999" class="text">with </text>
<text x="743.9999912000001" y="473.99999327999996" width="37.99999803999992" height="32.99999174999999" class="text">the </text>
<text x="790.00000916" y="473.99999327999996" width="138.9999554000001" height="32.99999174999999" class="text">Department </text>
<text x="937.9999562400001" y="473.99999327999996" width="24.000077319999946" height="32.99999174999999" class="text">of </text>
<text x="971.9999969999999" y="473.99999327999996" width="76.00001364000013" height="32.99999174999999" class="text">Justice</text>
<text x="1051.00003128" y="473.99999327999996" width="9.000009240000054" height="32.99999174999999" class="text">?
</text>
<text x="117.000000712" y="540.00002232" width="40.999997608" height="32.000024429999996" class="text">15. </text>
<text x="175.000006408" y="540.00002232" width="45.99998635200001" height="32.000024429999996" class="text">Has </text>
<text x="229.99998444000002" y="540.00002232" width="41.00001868000001" height="32.000024429999996" class="text">this </text>
<text x="289.00000404" y="540.00002232" width="87.00000151999996" height="32.000024429999996" class="text">material </text>
<text x="384.99999724" y="540.00002232" width="51.99998899999997" height="32.000024429999996" class="text">been </text>
<text x="450.9999772" y="540.00002232" width="80.00002359999996" height="32.000024429999996" class="text">labeled </text>
<text x="542.0000062400001" y="540.00002232" width="22.999982639999985" height="32.000024429999996" class="text">as </text>
<text x="579.00003252" y="540.00002232" width="92.99997256000006" height="32.000024429999996" class="text">required </text>
<text x="685.99997848" y="540.00002232" width="23.00005288" height="32.000024429999996" class="text">by </text>
<text x="723.00000476" y="540.00002232" width="31.999991879999925" height="32.000024429999996" class="text">the </text>
<text x="770.00001204" y="540.00002232" width="31.000002559999984" height="32.000024429999996" class="text">act</text>
<text x="803.00002836" y="540.00002232" width="8.999991679999994" height="32.000024429999996" class="text">?
</text>
<text x="851.99997916" y="533.00000061" width="34.00004076000005" height="47.00001240000006" class="text">Yes </text>
<text x="903.00004908" y="533.00000061" width="13.999973399999817" height="47.00001240000006" class="text"> </text>
<text x="955.99995716" y="533.00000061" width="43.00004999999999" height="47.00001240000006" class="text">No </text>
<text x="1006.00003776" y="533.00000061" width="13.999990959999877" height="47.00001240000006" class="text">
</text>
<text x="111.999999676" y="606.00000582" width="52.00000129200002" height="31.000034339999957" class="text">Date </text>
<text x="177.00000612" y="606.99997314" width="26.999992600000013" height="29.9999759399999" class="text">of </text>
<text x="210.9999942" y="609.99998895" width="72.00002123999997" height="31.00001156999997" class="text">repori
</text>
<text x="1052.99999236" y="605.00001573" width="106.00004444000001" height="30.000044249999974" class="text">Signature
</text>
<text x="402.00000884" y="601.99999992" width="70.99997924000002" height="27.00002844000005" class="text">Name </text>
<text x="481.99999732000003" y="601.99999992" width="39.000022479999984" height="27.00002844000005" class="text">and </text>
<text x="535.00001076" y="601.99999992" width="40.99998356000003" height="27.00002844000005" class="text">title
</text>
<text x="434.99999004" y="643.99997079" width="127.00001332000005" height="29.999975940000013" class="text">Hiroaki </text>
<text x="580.00000428" y="642.9999807" width="64.00001888000008" height="27.999995760000047" class="text">Sato
</text>
<text x="436.99998624" y="676.99996254" width="136.00002255999993" height="28.999985849999916" class="text">Director</text>
<text x="582.00000048" y="676.99996254" width="7.999984799999993" height="27.99992744999986" class="text">, </text>
<text x="613.0000206" y="678.00002094" width="129.99999884" height="30.000044249999974" class="text">Research </text>
<text x="766.9999738399999" y="678.00002094" width="51.000017240000034" height="28.000018530000034" class="text">and </text>
<text x="835.00000268" y="679.00001103" width="136.00002256000016" height="29.000008620000017" class="text">Planning
</text>
<text x="1230.00005116" y="719.99999181" width="245.99990135999997" height="149.99999355" class="text">Plato
</text>
<text x="111.999999676" y="678.00002094" width="83.99999668399998" height="32.00000165999995" class="text">Sept. </text>
<text x="218.99999656" y="675.99997245" width="9.000009239999997" height="28.999985849999916" class="text">1</text>
<text x="236.00000816" y="675.00000513" width="8.999991680000022" height="28.999985849999916" class="text">, </text>
<text x="266.99999316" y="675.00000513" width="68.00001128000002" height="31.000034339999957" class="text">1992
</text>
</g>
</svg>
