<svg xmlns="http://www.w3.org/2000/svg">
<style>.text { font-size: 14px; font-family: Arial, sans-serif; }</style>
<g id="page-0" transform="translate(0, 0)">
<rect width="1756" height="2277" fill="none" stroke="black" />
<text x="882.99998172" y="124.00000073999999" width="179.99999163999996" height="33.00000085799999" class="text">Dissemination </text>
<text x="1075.00000324" y="124.999999938" width="88.00004351999996" height="31.999999383000002" class="text">Report
</text>
<text x="89.999997576" y="126.00000141299999" width="60.000003652000004" height="30.00000098699998" class="text">U.S. </text>
<text x="151.999993916" y="126.00000141299999" width="147.00000868399997" height="32.00000165999998" class="text">Department </text>
<text x="303.99998432" y="124.999999938" width="27.999999479999985" height="29.99999871" class="text">of </text>
<text x="337.00000064" y="124.999999938" width="85.00000532000001" height="31.00000018499999" class="text">Justice
</text>
<text x="89.999997576" y="164.999995182" width="146.000010584" height="32.99999174999999" class="text">Washington</text>
<text x="244.00001052000002" y="163.999993707" width="8.999991679999965" height="30.999991076999976" class="text">, </text>
<text x="258.9999908" y="162.999994509" width="65.00000820000002" height="31.99999255200001" class="text">D.C. </text>
<text x="328.99999828" y="162.999994509" width="70.99999679999996" height="32.99999174999999" class="text">20530
</text>
<text x="1527.00000488" y="122.000000067" width="44.00002175999998" height="18.999996147000004" class="text">OMB </text>
<text x="1576.0000259199999" y="122.000000067" width="30.000030800000104" height="18.999996147000004" class="text">No. </text>
<text x="1609.99996132" y="122.000000067" width="74.00005256000009" height="18.999996147000004" class="text">1105-0006
</text>
<text x="1452.99996988" y="148.000006539" width="64.00007155999992" height="24.000005799000007" class="text">Approval </text>
<text x="1522.99999492" y="147.000007341" width="50.99996455999985" height="24.000008076000015" class="text">Expires </text>
<text x="1580.0000358799998" y="146.000005866" width="36.9999736000002" height="24.000005799000007" class="text">Nov. </text>
<text x="1622.9999629600002" y="145.000006668" width="13.00001919999977" height="22.000007402999998" class="text">30</text>
<text x="1640.99996388" y="145.000006668" width="6.000076400000125" height="22.000007402999998" class="text">, </text>
<text x="1651.00005024" y="145.000006668" width="33.99993539999991" height="24.000008076" class="text">1986
</text>
<text x="92.000002556" y="247.00001139" width="175.99999748399998" height="29.000020004999982" class="text">INSTRUCTIONS</text>
<text x="268.99998936" y="247.00001139" width="8.000002360000053" height="29.000020004999982" class="text">: </text>
<text x="281.00000168" y="247.00001139" width="70.99999679999996" height="29.000020004999982" class="text">Report </text>
<text x="359.00001152" y="247.00001139" width="47.99997904000003" height="29.000020004999982" class="text">must </text>
<text x="408.99998676" y="247.00001139" width="26.000003279999987" height="29.000020004999982" class="text">be </text>
<text x="436.99998624" y="247.00001139" width="102.00003447999995" height="29.000020004999982" class="text">submitted </text>
<text x="544.00000244" y="247.00001139" width="16.999976479999987" height="29.000020004999982" class="text">in </text>
<text x="568.99999884" y="247.00001139" width="89.99998704000006" height="29.000020004999982" class="text">duplicate </text>
<text x="665.99998136" y="247.00001139" width="17.00002915999994" height="29.000020004999982" class="text">to </text>
<text x="689.00001668" y="247.00001139" width="32.99996363999992" height="29.000020004999982" class="text">the </text>
<text x="725.0000185199999" y="247.00001139" width="120.99998960000016" height="29.000020004999982" class="text">Registration </text>
<text x="851.0000074" y="247.00001139" width="48.00003172000015" height="29.000020004999982" class="text">Unit</text>
<text x="900.99998264" y="247.00001139" width="8.00001992" height="29.000020004999982" class="text">, </text>
<text x="909.00000256" y="247.00001139" width="85.00000532000001" height="29.000020004999982" class="text">Internal </text>
<text x="995.99996896" y="247.00001139" width="78.00006251999991" height="29.000020004999982" class="text">Security </text>
<text x="1083.00002316" y="247.00001139" width="69.99993724000001" height="29.000020004999982" class="text">Section</text>
<text x="1155.9999986" y="247.00001139" width="8.000019920000113" height="29.000020004999982" class="text">, </text>
<text x="1168.00002848" y="247.00001139" width="92.99991987999988" height="29.000020004999982" class="text">Criminal </text>
<text x="1259.9999765999999" y="247.00001139" width="85.00000532000013" height="29.000020004999982" class="text">Division</text>
<text x="1347.0000308" y="247.00001139" width="7.999914559999752" height="29.000020004999982" class="text">, </text>
<text x="1358.99995532" y="247.00001139" width="125.00001711999994" height="29.000020004999982" class="text">Department </text>
<text x="1485.00004956" y="247.00001139" width="25.999915480000027" height="29.000020004999982" class="text">of </text>
<text x="1514.00000324" y="247.00001139" width="66.00003263999974" height="29.000020004999982" class="text">Justice</text>
<text x="1578.9999412" y="247.00001139" width="8.000037479999946" height="29.000020004999982" class="text">, </text>
<text x="1589.99999932" y="247.00001139" width="85.00000532000013" height="29.000020004999982" class="text">Washing-
</text>
<text x="90.999999188" y="275.99999724" width="31.000002559999984" height="30.99998880000004" class="text">ton</text>
<text x="124.99999780400002" y="275.99999724" width="8.999998703999992" height="30.99998880000004" class="text">, </text>
<text x="136.000001488" y="275.99999724" width="52.99999939200001" height="30.99998880000004" class="text">D.C. </text>
<text x="190.99999708" y="275.99999724" width="66.99998684000002" height="30.99998880000004" class="text">20530. </text>
<text x="261.00000456" y="275.99999724" width="39.99999423999998" height="30.99998880000004" class="text">The </text>
<text x="303.99998432" y="275.99999724" width="77.00000295999996" height="30.99998880000004" class="text">original </text>
<text x="389.99999651999997" y="275.99999724" width="46.99998972000003" height="30.99998880000004" class="text">must </text>
<text x="439.99997176000005" y="275.99999724" width="28.000034599999935" height="30.99998880000004" class="text">be </text>
<text x="472.99998808000004" y="275.99999724" width="60.99999823999991" height="30.99998880000004" class="text">signed </text>
<text x="542.9999779999999" y="275.99999724" width="22.000010880000104" height="30.99998880000004" class="text">by </text>
<text x="570.99999504" y="275.99999724" width="22.00001087999999" height="30.99998880000004" class="text">or </text>
<text x="598.99997696" y="275.99999724" width="22.00001087999999" height="30.99998880000004" class="text">on </text>
<text x="625.9999695600001" y="275.99999724" width="68.00004639999997" height="30.99998880000004" class="text">behalf </text>
<text x="694.9999877199999" y="275.99999724" width="22.000010880000104" height="30.99998880000004" class="text">of </text>
<text x="721.00000856" y="275.99999724" width="29.999978120000037" height="30.99998880000004" class="text">the </text>
<text x="757.99998216" y="275.99999724" width="100.00002072000007" height="30.99998880000004" class="text">registrant</text>
<text x="853.9999929200001" y="275.99999724" width="8.99999167999988" height="30.99998880000004" class="text">. </text>
<text x="866.99999456" y="275.99999724" width="30.99994988000003" height="30.99998880000004" class="text">All </text>
<text x="904.9999925999999" y="275.99999724" width="56.00005164000004" height="30.99998880000004" class="text">items </text>
<text x="962.00003356" y="275.99999724" width="18.99997268000004" height="30.99998880000004" class="text">in </text>
<text x="986.9999597199999" y="275.99999724" width="39.00004003999993" height="30.99998880000004" class="text">this </text>
<text x="1030.9999814799999" y="275.99999724" width="44.99999352000009" height="30.99998880000004" class="text">form </text>
<text x="1087.00003312" y="275.99999724" width="47.99992636000002" height="30.99998880000004" class="text">must </text>
<text x="1141.0000358799998" y="275.99999724" width="23.999954400000206" height="30.99998880000004" class="text">be </text>
<text x="1169.0000002400002" y="275.99999724" width="93.9999969999999" height="30.99998880000004" class="text">answered</text>
<text x="1266.00003544" y="275.99999724" width="9.000009240000054" height="30.99998880000004" class="text">, </text>
<text x="1277.9999775200001" y="275.99999724" width="65.0000433199998" height="30.99998880000004" class="text">unless </text>
<text x="1347.0000308" y="275.99999724" width="31.999991879999925" height="30.99998880000004" class="text">the </text>
<text x="1383.00003264" y="275.99999724" width="71.00001436000002" height="30.99998880000004" class="text">answer </text>
<text x="1457.9999516" y="275.99999724" width="19.000078040000062" height="30.99998880000004" class="text">is </text>
<text x="1477.00002964" y="275.99999724" width="8.999991679999994" height="30.99998880000004" class="text">"</text>
<text x="1491.99999236" y="275.99999724" width="48.000031719999924" height="30.99998880000004" class="text">none</text>
<text x="1541.9999676" y="275.99999724" width="9.000009240000054" height="30.99998880000004" class="text">" </text>
<text x="1558.000025" y="275.99999724" width="19.999944440000036" height="30.99998880000004" class="text">or </text>
<text x="1578.9999412" y="275.99999724" width="9.000009240000054" height="30.99998880000004" class="text">"</text>
<text x="1589.99999932" y="275.99999724" width="36.000001840000095" height="30.99998880000004" class="text">not </text>
<text x="1627.99996224" y="275.99999724" width="51.00005235999993" height="30.99998880000004" class="text">appli-
</text>
<text x="92.000002556" y="304.00001577" width="50.99999265599999" height="29.000008620000017" class="text">cable</text>
<text x="143.99999858" y="304.00001577" width="7.999995335999984" height="29.000008620000017" class="text">,</text>
<text x="150.000001228" y="304.00001577" width="7.999997092000001" height="29.000008620000017" class="text">” </text>
<text x="169.000002004" y="304.00001577" width="10.999989635999981" height="29.000008620000017" class="text">in </text>
<text x="190.99999708" y="304.00001577" width="57.99999516" height="29.000008620000017" class="text">which </text>
<text x="256.00000528000004" y="304.00001577" width="40.999983559999976" height="29.000008620000017" class="text">case </text>
<text x="305.99999808" y="304.00001577" width="44.00002175999998" height="29.000008620000017" class="text">such </text>
<text x="353.99999468" y="304.00001577" width="26.000003280000044" height="29.000008620000017" class="text">an </text>
<text x="387.00001100000003" y="304.00001577" width="48.99998591999997" height="29.000008620000017" class="text">entry </text>
<text x="443.00000996" y="304.00001577" width="51.00001723999998" height="29.000008620000017" class="text">shall </text>
<text x="497.99998448" y="304.00001577" width="19.999997119999932" height="29.000008620000017" class="text">be </text>
<text x="532.00002524" y="304.00001577" width="47.00000727999998" height="29.000008620000017" class="text">made </text>
<text x="586.0000279999999" y="304.00001577" width="14.999962720000099" height="29.000008620000017" class="text">in </text>
<text x="611.00000684" y="304.00001577" width="29.000006360000043" height="29.000008620000017" class="text">the </text>
<text x="647.99998044" y="304.00001577" width="113.00003992000006" height="29.000008620000017" class="text">appropriate </text>
<text x="770.00001204" y="304.00001577" width="51.99998900000003" height="29.000008620000017" class="text">space</text>
<text x="824.9999865599999" y="304.00001577" width="8.000019920000113" height="29.000008620000017" class="text">. </text>
<text x="837.00001644" y="304.00001577" width="16.9999764800001" height="29.000008620000017" class="text">If </text>
<text x="855.99998912" y="304.00001577" width="105.00005511999996" height="29.000008620000017" class="text">additional </text>
<text x="966.0000435200001" y="304.00001577" width="49.99997523999991" height="29.000008620000017" class="text">space </text>
<text x="1024.00003868" y="304.00001577" width="14.999962719999985" height="29.000008620000017" class="text">is </text>
<text x="1044.00000068" y="304.00001577" width="75.99999607999985" height="29.000008620000017" class="text">needed </text>
<text x="1124.00000672" y="304.00001577" width="28.999953679999862" height="29.000008620000017" class="text">for </text>
<text x="1159.0000368" y="304.00001577" width="36.999956039999915" height="29.000008620000017" class="text">any </text>
<text x="1200.99999212" y="304.00001577" width="40.999983560000146" height="29.000008620000017" class="text">item</text>
<text x="1245.99998564" y="304.00001577" width="8.000019920000113" height="29.000008620000017" class="text">, </text>
<text x="1257.00004376" y="304.00001577" width="58.999984479999966" height="29.000008620000017" class="text">attach </text>
<text x="1324.00004816" y="304.00001577" width="138.99999051999998" height="29.000008620000017" class="text">supplemental </text>
<text x="1464.9999997599998" y="304.00001577" width="56.00005164000004" height="29.000008620000017" class="text">sheet </text>
<text x="1523.99998424" y="304.00001577" width="112.99996968000005" height="29.000008620000017" class="text">identifying </text>
<text x="1639.00002036" y="304.00001577" width="44.99999352000009" height="29.000008620000017" class="text">each
</text>
<text x="89.999997576" y="329.99998581" width="45.00000054399999" height="20.99999681999998" class="text">item</text>
<text x="139.999999156" y="329.99998581" width="6.000004404000009" height="20.99999681999998" class="text">.
</text>
<text x="106.99999864" y="399.99999798" width="24.000001811999994" height="32.00000165999995" class="text">1. </text>
<text x="142.00000589200002" y="402.00000093" width="77.999979988" height="34.00000460999996" class="text">Name </text>
<text x="227.00001648000003" y="402.00000093" width="24.999978839999983" height="32.00000165999995" class="text">of </text>
<text x="258.9999908" y="404.99999397" width="125.00001712" height="34.999994699999945" class="text">registrant
</text>
<text x="1227.00001296" y="402.00000093" width="24.99994371999992" height="34.00000460999996" class="text">2. </text>
<text x="1260.99994836" y="402.00000093" width="150.00004863999993" height="36.00000755999997" class="text">Registration </text>
<text x="1424.0000162000001" y="400.99998807000003" width="49.00000348000003" height="33.99998184000003" class="text">No.
</text>
<text x="238.00000436" y="465.00001416" width="132.99998435999998" height="33.000037289999966" class="text">Robinson</text>
<text x="379.99999796000003" y="465.00001416" width="8.999991679999994" height="33.000037289999966" class="text">, </text>
<text x="408.99998676" y="465.00001416" width="68.00001127999997" height="33.000037289999966" class="text">Lake</text>
<text x="481.99999732000003" y="465.00001416" width="8.999991679999994" height="33.000037289999966" class="text">, </text>
<text x="510.99998612" y="465.00001416" width="90.00000460000001" height="33.000037289999966" class="text">Lerer </text>
<text x="620.99998784" y="465.00001416" width="8.999991679999994" height="33.000037289999966" class="text">&amp; </text>
<text x="649.9999942" y="465.00001416" width="169.99999308000008" height="33.000037289999966" class="text">Montgomery
</text>
<text x="1392.99999608" y="453.99998655" width="67.00000439999985" height="23.99996709000004" class="text">3911
</text>
<text x="106.00000229599999" y="502.99997913" width="23.99999478800001" height="30.99998880000004" class="text">3. </text>
<text x="141.000002524" y="502.99997913" width="82.999993316" height="30.99998880000004" class="text">Nature </text>
<text x="238.99999368000002" y="502.99997913" width="27.999999479999957" height="30.99998880000004" class="text">of </text>
<text x="276.99999172" y="502.99997913" width="101.00002759999995" height="30.99998880000004" class="text">material </text>
<text x="386.00000411999997" y="502.99997913" width="9.000009240000054" height="30.99998880000004" class="text">(</text>
<text x="402.00000884" y="502.99997913" width="8.999991679999994" height="30.99998880000004" class="text">A </text>
<text x="429.00000144" y="502.99997913" width="83.9999984399999" height="30.99998880000004" class="text">concise </text>
<text x="524.00000532" y="502.99997913" width="96.00001076000001" height="30.99998880000004" class="text">account </text>
<text x="625.9999695600001" y="502.99997913" width="29.00000635999993" height="30.99998880000004" class="text">of </text>
<text x="662.00002408" y="502.99997913" width="36.00000183999998" height="30.99998880000004" class="text">the </text>
<text x="707.0000176000001" y="502.99997913" width="75.99999607999996" height="30.99998880000004" class="text">nature </text>
<text x="793.99996644" y="502.99997913" width="28.00003460000005" height="30.99998880000004" class="text">of </text>
<text x="826.99998276" y="502.99997913" width="37.00002628000004" height="30.99998880000004" class="text">the </text>
<text x="871.0000045200001" y="502.99997913" width="142.99996535999992" height="30.99998880000004" class="text">propaganda </text>
<text x="1030.00000972" y="502.99997913" width="99.99996804000011" height="30.99998880000004" class="text">material </text>
<text x="1139.9999412" y="502.99997913" width="49.00002104000009" height="30.99998880000004" class="text">filed</text>
<text x="1191.99998288" y="502.99997913" width="9.000009239999827" height="30.99998880000004" class="text">)
</text>
<text x="68.000000744" y="553.00000734" width="170.999992936" height="34.9999947" class="text">Background </text>
<text x="256.00000528000004" y="553.00000734" width="185.00000848000002" height="34.9999947" class="text">information</text>
<text x="450.00000543999994" y="551.00000439" width="8.99999168000005" height="32.999991749999936" class="text">, </text>
<text x="481.000008" y="551.00000439" width="81.99996711999995" height="32.999991749999936" class="text">press </text>
<text x="582.9999898" y="551.00000439" width="116.00000788" height="34.9999947" class="text">release </text>
<text x="721.99998032" y="550.0000143" width="47.00000728000009" height="33.000014520000036" class="text">and </text>
<text x="790.99999848" y="550.0000143" width="62.99999444000002" height="33.000014520000036" class="text">copy </text>
<text x="877.00002824" y="549.00000144" width="29.999925439999856" height="32.99999175000005" class="text">of </text>
<text x="926.00003172" y="550.0000143" width="152.00000971999987" height="35.00001746999999" class="text">Executive </text>
<text x="1101.9999958399999" y="548.00001135" width="115.00003612" height="34.00000461000002" class="text">Summary </text>
<text x="1240.0000146" y="548.00001135" width="67.99999372000002" height="33.000014520000036" class="text">from </text>
<text x="1320.0000382" y="546.9999984899999" width="89.99998703999995" height="32.999991749999936" class="text">Dept. </text>
<text x="1425.9999597199999" y="546.9999984899999" width="37.00007896000011" height="32.999991749999936" class="text">of </text>
<text x="1481.0000396" y="546.9999984899999" width="131.99995992000004" height="34.99999469999989" class="text">Commerce
</text>
<text x="103.000000972" y="605.00001573" width="27.99999948" height="30.000044249999974" class="text">4. </text>
<text x="145.00000019200002" y="606.00000582" width="53.000009928" height="31.000034339999957" class="text">Title </text>
<text x="212.9999904" y="606.00000582" width="22.00001088000002" height="29.9999759399999" class="text">of </text>
<text x="248.99999224" y="606.99997314" width="100.00002071999998" height="32.00000165999995" class="text">material</text>
<text x="348.00000608" y="606.99997314" width="8.999991679999994" height="29.9999759399999" class="text">, </text>
<text x="367.00001388" y="606.99997314" width="16.99999403999999" height="29.9999759399999" class="text">if </text>
<text x="391.0000034" y="606.99997314" width="43.00001487999998" height="29.9999759399999" class="text">any
</text>
<text x="932.99997452" y="606.99997314" width="25.000031519999993" height="33.99995906999993" class="text">5. </text>
<text x="970.00005348" y="606.99997314" width="78.99992892000012" height="33.99995906999993" class="text">Name </text>
<text x="1057.9999740800001" y="606.99997314" width="25.000049079999826" height="33.99995906999993" class="text">of </text>
<text x="1089.99996596" y="606.99997314" width="86.00008243999991" height="33.99995906999993" class="text">foreign </text>
<text x="1186.0000294" y="606.99997314" width="114.9999307600001" height="33.99995906999993" class="text">principal </text>
<text x="1308.9999800800001" y="606.99997314" width="26.000020839999706" height="33.99995906999993" class="text">on </text>
<text x="1348.00000256" y="606.99997314" width="79.00005183999997" height="33.99995906999993" class="text">whose </text>
<text x="1438.00000716" y="606.99997314" width="83.00004423999985" height="33.99995906999993" class="text">behalf </text>
<text x="1528.99996596" y="606.99997314" width="43.000049999999874" height="33.99995906999993" class="text">this </text>
<text x="1586.99997868" y="606.99997314" width="102.00001692000001" height="33.99995906999993" class="text">material
</text>
<text x="101.00000126" y="654.00000831" width="203.99998993999995" height="36.00000755999997" class="text">unofficially </text>
<text x="323.999999" y="654.00000831" width="100.99999248" height="36.00000755999997" class="text">called </text>
<text x="445.00002372" y="654.00000831" width="9.999963439999988" height="36.00000755999997" class="text">"</text>
<text x="461.00001088" y="654.00000831" width="136.99999431999993" height="36.00000755999997" class="text">Commerce </text>
<text x="616.00000612" y="654.00000831" width="168.99996864000002" height="36.00000755999997" class="text">Department</text>
<text x="786.99998852" y="654.00000831" width="10.000016119999941" height="36.00000755999997" class="text">"
</text>
<text x="971.0000252400001" y="638.00000748" width="49.99997523999991" height="28.000018530000034" class="text">was </text>
<text x="1027.99994328" y="637.00001739" width="143.00001804" height="28.99998585000003" class="text">transmitted</text>
<text x="1173.99999952" y="634.99999167" width="8.000019919999886" height="26.999960129999977" class="text">.
</text>
<text x="238.00000436" y="687.00000006" width="101.99999936" height="31.000011570000083" class="text">packet
</text>
<text x="979.00004516" y="679.99997835" width="131.99995991999992" height="28.99998585000003" class="text">Canadian </text>
<text x="1130.99994952" y="679.00001103" width="101.00004516000013" height="27.00002844000005" class="text">Forest </text>
<text x="1258.00001552" y="679.00001103" width="167.99994419999985" height="29.000008620000017" class="text">Industries </text>
<text x="1442.00001712" y="678.00002094" width="120.99998960000016" height="27.00002844000005" class="text">Council
</text>
<text x="35.000000228" y="602.9999900099999" width="1.9999979560000014" height="9.000001889999908" class="text">.
</text>
<text x="106.00000229599999" y="776.99999619" width="26.000001523999998" height="28.000018530000034" class="text">6. </text>
<text x="139.999999156" y="776.99999619" width="88.000006644" height="28.99998585000003" class="text">Means </text>
<text x="238.00000436" y="776.0000061000001" width="26.000003279999987" height="27.999995760000047" class="text">of </text>
<text x="269.99999624" y="776.99999619" width="153.00001660000004" height="29.999975940000127" class="text">transmission
</text>
<text x="637.99999944" y="773.99998038" width="20.000014679999936" height="28.000018530000034" class="text">7. </text>
<text x="669.00001956" y="773.99998038" width="74.99997164000001" height="28.000018530000034" class="text">Dates </text>
<text x="754.0000248800001" y="775.00001601" width="25.999968159999867" height="29.00005415999999" class="text">of </text>
<text x="790.00000916" y="776.0000061000001" width="156.9999563199999" height="30.000044250000087" class="text">transmission
</text>
<text x="700.0000221199999" y="821.99998287" width="87.99999084000001" height="32.99999175000005" class="text">April </text>
<text x="806.99998564" y="821.0000155500001" width="28.00001703999999" height="32.00002443000005" class="text">30</text>
<text x="846.0000081200001" y="820.00002546" width="9.00000923999994" height="31.000034339999957" class="text">, </text>
<text x="878.0" y="820.00002546" width="65.00004332000003" height="32.99999175000005" class="text">1992
</text>
<text x="1164.0000185200001" y="776.99999619" width="28.999953679999862" height="32.000001660000066" class="text">8. </text>
<text x="1205.00000208" y="776.99999619" width="63.99996620000002" height="32.000001660000066" class="text">Total </text>
<text x="1276.0000164399999" y="776.99999619" width="78.99992892" height="32.000001660000066" class="text">copies </text>
<text x="1366.9999752400001" y="776.99999619" width="138.0000363199997" height="32.000001660000066" class="text">transmitted
</text>
<text x="1374.0000234000001" y="814.99996116" width="33.99993539999991" height="26.99993735999999" class="text">36
</text>
<text x="241.99999676" y="821.0000155500001" width="65.00000820000002" height="29.00000862000013" class="text">mail
</text>
<text x="103.999997316" y="878.99998725" width="28.000006503999984" height="29.999975940000013" class="text">9. </text>
<text x="142.999995212" y="878.99998725" width="46.999994988000026" height="29.999975940000013" class="text">List </text>
<text x="197.00000323999998" y="878.99998725" width="124.00001024000002" height="29.999975940000013" class="text">addresses </text>
<text x="331.00001204" y="878.99998725" width="55.99999896000003" height="29.999975940000013" class="text">from </text>
<text x="396.00000267999997" y="878.99998725" width="74.99998920000002" height="29.999975940000013" class="text">which </text>
<text x="483.00002176000004" y="878.99998725" width="44.99999351999992" height="29.999975940000013" class="text">this </text>
<text x="544.00000244" y="878.99998725" width="98.99999628" height="29.999975940000013" class="text">material </text>
<text x="651.00001864" y="878.99998725" width="45.99996527999997" height="29.999975940000013" class="text">was </text>
<text x="709.00003136" y="878.99998725" width="137.99996608000004" height="29.999975940000013" class="text">transmitted</text>
<text x="853.0000036" y="878.99998725" width="9.000009240000054" height="29.999975940000013" class="text">:
</text>
<text x="240.99998988000002" y="926.0000224199999" width="65.0000082" height="30.00004424999986" class="text">1667 </text>
<text x="327.00000208" y="926.0000224199999" width="8.999991679999994" height="30.00004424999986" class="text">K </text>
<text x="359.99998328" y="926.0000224199999" width="101.99999935999995" height="30.00004424999986" class="text">Street</text>
<text x="468.00000636" y="926.0000224199999" width="8.999991679999994" height="30.00004424999986" class="text">, </text>
<text x="494.0000272" y="926.0000224199999" width="70.99996168000007" height="30.00004424999986" class="text">N.W.
</text>
<text x="240.99998988000002" y="958.00002408" width="80.00002359999999" height="27.999995760000047" class="text">Suite </text>
<text x="340.99999304" y="958.00002408" width="46.99998972000003" height="27.999995760000047" class="text">900
</text>
<text x="233.9999944" y="997.99996923" width="174.00000304000002" height="34.99994916000003" class="text">Washington</text>
<text x="415.00001047999996" y="995.00002173" width="9.999981000000048" height="31.000034339999957" class="text">, </text>
<text x="441.99998552" y="995.00002173" width="73.99999988000002" height="32.999991749999936" class="text">D.C. </text>
<text x="566.99998508" y="988.99999011" width="80.00002360000008" height="26.999960129999977" class="text">20006
</text>
<text x="932.99997452" y="877.9999971599999" width="42.00006068000005" height="28.999985849999916" class="text">10. </text>
<text x="988.0000544" y="877.9999971599999" width="45.9999652800002" height="28.999985849999916" class="text">List </text>
<text x="1044.99997244" y="877.9999971599999" width="69.0000532800002" height="28.999985849999916" class="text">states </text>
<text x="1120.99996852" y="877.9999971599999" width="44.99999351999986" height="28.999985849999916" class="text">and </text>
<text x="1177.00002016" y="877.9999971599999" width="123.99993999999992" height="28.999985849999916" class="text">territories </text>
<text x="1312.99999004" y="877.9999971599999" width="26.000020839999934" height="28.999985849999916" class="text">of </text>
<text x="1347.0000308" y="877.9999971599999" width="36.999973599999976" height="28.999985849999916" class="text">the </text>
<text x="1393.9999854" y="877.9999971599999" width="84.00001599999996" height="28.999985849999916" class="text">United </text>
<text x="1491.99999236" y="877.9999971599999" width="71.9999861199999" height="28.999985849999916" class="text">States </text>
<text x="1576.0000259199999" y="877.9999971599999" width="19.999944440000036" height="28.999985849999916" class="text">to </text>
<text x="1608.9999719999998" y="877.9999971599999" width="71.00003192000008" height="28.999985849999916" class="text">which
</text>
<text x="989.99999792" y="911.999979" width="103.99997799999994" height="29.999975940000127" class="text">material </text>
<text x="1097.00001412" y="911.999979" width="50.99996455999985" height="29.999975940000127" class="text">was </text>
<text x="1154.00003752" y="911.999979" width="143.9999898000001" height="29.999975940000127" class="text">transmitted</text>
<text x="1302.00003728" y="911.999979" width="8.999991679999994" height="29.999975940000127" class="text">:
</text>
<text x="976.00000696" y="960.9999715800001" width="170.99998240000002" height="32.99999175000005" class="text">Washington</text>
<text x="1155.0000092799999" y="960.00000426" width="9.000009240000281" height="32.00002442999994" class="text">, </text>
<text x="1183.9999629600002" y="959.00001417" width="70.00004259999992" height="32.99999175000005" class="text">D.C. </text>
<text x="1336.99994444" y="958.00002408" width="140.00008520000006" height="31.00003434000007" class="text">Michigan </text>
<text x="1563.00000672" y="956.9999656800001" width="117.99996895999993" height="30.999943260000123" class="text">Georgia
</text>
<text x="976.00000696" y="993.99996333" width="140.99995160000014" height="33.999959070000045" class="text">Maryland
</text>
<text x="1339.00001088" y="985.9999743000001" width="134.99998056000004" height="25.999970040000107" class="text">Illinois
</text>
<text x="976.00000696" y="1021.9999818599999" width="45.999982839999916" height="26.999960129999977" class="text">New </text>
<text x="1048.00001064" y="1021.9999818599999" width="63.99996620000002" height="26.999960129999977" class="text">York
</text>
<text x="1338.00003912" y="1019.00003436" width="85.99997708000001" height="24.000012630000015" class="text">Maine
</text>
<text x="976.00000696" y="1061.00000523" width="103.00000624000006" height="29.999975940000013" class="text">Oregon
</text>
<text x="1336.99994444" y="1054.99997361" width="154.00007615999994" height="26.99996013000009" class="text">Wisconsin
</text>
<text x="973.99995808" y="1098.00000288" width="174.00002059999986" height="32.999991749999936" class="text">Washington
</text>
<text x="1338.00003912" y="1092.0000395700001" width="154.99992500000008" height="28.000018530000034" class="text">Minnesota
</text>
<text x="935.0000234" y="1121.99999274" width="40.00001180000004" height="35.000017469999875" class="text">12. </text>
<text x="986.9999597199999" y="1121.99999274" width="46.000088200000164" height="35.000017469999875" class="text">List </text>
<text x="1044.99997244" y="1121.99999274" width="84.00001600000019" height="35.000017469999875" class="text">names </text>
<text x="1141.0000358799998" y="1121.99999274" width="44.99999352000009" height="35.000017469999875" class="text">and </text>
<text x="1200.99999212" y="1121.99999274" width="120.00001784000006" height="35.000017469999875" class="text">addresses </text>
<text x="1334.0000291600002" y="1121.99999274" width="26.000020839999934" height="35.000017469999875" class="text">of </text>
<text x="1366.9999752400001" y="1121.99999274" width="102.00003447999984" height="35.000017469999875" class="text">persons </text>
<text x="1481.0000396" y="1121.99999274" width="25.999915480000027" height="35.000017469999875" class="text">or </text>
<text x="1518.99998496" y="1121.99999274" width="170.99998240000014" height="35.000017469999875" class="text">organizations
</text>
<text x="985.9999879600001" y="1153.00002708" width="114.00006436000001" height="30.0000442500002" class="text">receiving </text>
<text x="1111.99997684" y="1154.0000171699999" width="38.00005071999999" height="30.000044249999974" class="text">100 </text>
<text x="1160.9999803199998" y="1154.0000171699999" width="78.00006252000026" height="30.000044249999974" class="text">copies </text>
<text x="1250.99996736" y="1154.0000171699999" width="28.000087280000116" height="30.000044249999974" class="text">or </text>
<text x="1291.99995092" y="1154.0000171699999" width="58.00001271999986" height="30.000044249999974" class="text">more</text>
<text x="1352.00001252" y="1155.00000726" width="9.000009240000054" height="29.999975940000013" class="text">:
</text>
<text x="89.999997576" y="1123.99997292" width="39.999999508" height="30.99996602999977" class="text">11. </text>
<text x="147.000006928" y="1122.99998283" width="70.999982752" height="32.00000165999995" class="text">Types </text>
<text x="228.99999511999997" y="1122.99998283" width="21.999993320000044" height="30.99994325999978" class="text">of </text>
<text x="259.99999768000004" y="1122.99998283" width="120.00000028" height="32.999991749999936" class="text">recipients </text>
<text x="392.9999996" y="1121.99999274" width="9.000009239999997" height="31.00001156999997" class="text">(</text>
<text x="406.99999056" y="1121.99999274" width="49.00003859999998" height="32.00000165999995" class="text">Give </text>
<text x="465.00002084" y="1121.99999274" width="92.99997256" height="32.999991749999936" class="text">number </text>
<text x="569.9999706" y="1119.99996702" width="22.000010880000104" height="30.999966029999996" class="text">of
</text>
<text x="90.999999188" y="1159.0000587000002" width="160.999996132" height="33.00006006000012" class="text">organizations </text>
<text x="264.00000764" y="1156.99996467" width="16.999994040000047" height="30.999966029999996" class="text">in </text>
<text x="296.99998884" y="1156.99996467" width="50.00001036000003" height="30.999966029999996" class="text">each </text>
<text x="356.99999776" y="1156.99996467" width="69.00000060000002" height="32.99999175000016" class="text">group</text>
<text x="430.00000832" y="1155.99997458" width="8.999991679999994" height="30.99994326000001" class="text">)
</text>
<text x="327.00000208" y="1285.9999841699998" width="29.000006359999986" height="26.999960129999863" class="text">36
</text>
<text x="90.999999188" y="1222.9999481700002" width="109.99999645199998" height="28.999917540000297" class="text">Libraries
</text>
<text x="92.000002556" y="1258.00003395" width="73.99999110000002" height="28.000064070000008" class="text">Public </text>
<text x="179.99999164" y="1258.00003395" width="94.00001455999998" height="29.000054159999763" class="text">officials
</text>
<text x="89.999997576" y="1296.99994347" width="148.99999610400002" height="32.99999175000016" class="text">Newspapers
</text>
<text x="92.000002556" y="1325.00000754" width="62.99999970799999" height="25.99997003999988" class="text">Press </text>
<text x="165.99999365600002" y="1325.00000754" width="100.00001018399996" height="28.000064070000008" class="text">services </text>
<text x="274.0000062" y="1324.0000174499999" width="27.999999480000042" height="25.99997003999988" class="text">of
</text>
<text x="119.99999676799999" y="1357.99999929" width="148.99999259199998" height="26.999960129999863" class="text">associations
</text>
<text x="87.00000152" y="1396.00005534" width="157.00000900000003" height="31.000034339999957" class="text">Educational
</text>
<text x="118.00000408" y="1426.99993029" width="140.99998671999998" height="25.999970040000107" class="text">institutions
</text>
<text x="92.000002556" y="1465.99995366" width="64.00000307599998" height="32.99999175000016" class="text">Civic </text>
<text x="162.99999935600002" y="1469.00003778" width="86.999999764" height="32.999991749999936" class="text">groups
</text>
<text x="87.999997864" y="1499.9999355" width="77.99999579200002" height="34.999949159999915" class="text">Other </text>
<text x="175.000006408" y="1499.9999355" width="9.999984511999997" height="32.99999175000016" class="text">(</text>
<text x="188.00001156" y="1502.0000295300001" width="75.99999607999999" height="35.00008578000029" class="text">specify</text>
<text x="266.99999316" y="1502.0000295300001" width="9.999998560000051" height="32.99999175000016" class="text">) </text>
<text x="279.99999479999997" y="1502.0000295300001" width="9.999998560000051" height="32.99999175000016" class="text">.
</text>
<text x="92.99999890000001" y="1568.0000358000002" width="38.000001551999986" height="37.000065960000256" class="text">13. </text>
<text x="142.999995212" y="1568.0000358000002" width="21.000005756000036" height="37.000065960000256" class="text">If </text>
<text x="173.000001428" y="1568.0000358000002" width="35.999996572000015" height="37.000065960000256" class="text">the </text>
<text x="225.00000271999997" y="1568.0000358000002" width="101.99999936000003" height="37.000065960000256" class="text">material </text>
<text x="337.00000064" y="1568.0000358000002" width="139.00002564" height="37.000065960000256" class="text">transmitted </text>
<text x="488.00000348" y="1568.0000358000002" width="47.000007280000034" height="37.000065960000256" class="text">was </text>
<text x="546.0000162" y="1568.0000358000002" width="11.000005439999995" height="37.000065960000256" class="text">a </text>
<text x="569.9999706" y="1568.0000358000002" width="45.00004619999993" height="37.000065960000256" class="text">film </text>
<text x="625.9999695600001" y="1568.0000358000002" width="27.00006283999994" height="37.000065960000256" class="text">or </text>
<text x="665.0000096" y="1568.0000358000002" width="55.99999895999997" height="37.000065960000256" class="text">radio </text>
<text x="736.99999572" y="1568.0000358000002" width="26.99999260000004" height="37.000065960000256" class="text">or </text>
<text x="772.0000258" y="1568.0000358000002" width="118.00000407999994" height="37.000065960000256" class="text">television </text>
<text x="904.9999925999999" y="1568.0000358000002" width="71.00001436000002" height="37.000065960000256" class="text">script</text>
<text x="971.0000252400001" y="1568.0000358000002" width="10.999952759999928" height="37.000065960000256" class="text">, </text>
<text x="989.99999792" y="1568.0000358000002" width="84.0000335599999" height="37.000065960000256" class="text">furnish </text>
<text x="1089.99996596" y="1568.0000358000002" width="37.00007895999988" height="37.000065960000256" class="text">the </text>
<text x="1137.99999768" y="1568.0000358000002" width="115.00003612" height="37.000065960000256" class="text">following </text>
<text x="1263.99998656" y="1568.0000358000002" width="147.99999976000004" height="37.000065960000256" class="text">information</text>
<text x="1415.0000069599998" y="1568.0000358000002" width="10.999952760000042" height="37.000065960000256" class="text">:
</text>
<text x="904.0000208399999" y="1634.99998662" width="58.000012720000086" height="33.99995907000016" class="text">Date </text>
<text x="979.00004516" y="1634.99998662" width="25.999915480000027" height="33.99995907000016" class="text">or </text>
<text x="1012.0000087999999" y="1635.99997671" width="62.99999444000014" height="33.999981840000146" class="text">dates </text>
<text x="1087.00003312" y="1636.9999668" width="119.99991248000015" height="35.999939250000125" class="text">broadcast </text>
<text x="1215.9999548399999" y="1636.9999668" width="31.000002560000212" height="33.99998183999992" class="text">of </text>
<text x="1254.99997732" y="1636.9999668" width="78.00006252000003" height="33.99998183999992" class="text">shown
</text>
<text x="87.999997864" y="1636.9999668" width="76.00000310400003" height="32.99999175000016" class="text">Name </text>
<text x="177.99999544" y="1636.9999668" width="24.000007080000017" height="32.99999175000016" class="text">of </text>
<text x="212.00000108" y="1636.9999668" width="75.99999608000002" height="32.99999175000016" class="text">station</text>
<text x="294.00002088" y="1636.9999668" width="8.999991679999994" height="32.99999175000016" class="text">, </text>
<text x="312.99999356" y="1636.9999668" width="151.00000283999998" height="32.99999175000016" class="text">organization</text>
<text x="465.99999260000004" y="1636.9999668" width="9.000009239999883" height="32.99999175000016" class="text">, </text>
<text x="485.00001796" y="1636.9999668" width="23.999971959999982" height="32.99999175000016" class="text">or </text>
<text x="517.9999816" y="1636.9999668" width="89.99998704000006" height="32.99999175000016" class="text">theater </text>
<text x="620.00001608" y="1636.9999668" width="63.99996620000002" height="32.99999175000016" class="text">using
</text>
<text x="92.000002556" y="1670.99992587" width="8.999998704000006" height="29.999907630000052" class="text">(</text>
<text x="104.999998928" y="1670.99992587" width="108.999998352" height="31.999865039999804" class="text">including </text>
<text x="228.0000058" y="1669.99995855" width="34.99999495999998" height="29.999907630000052" class="text">city </text>
<text x="275.99998484" y="1668.99996846" width="43.00001487999998" height="29.999907629999825" class="text">and </text>
<text x="331.9999838" y="1668.99996846" width="54.000020319999976" height="29.999907629999825" class="text">state</text>
<text x="388.99998964" y="1667.99997837" width="8.999991679999937" height="30.000044249999974" class="text">)
</text>
<text x="1407.9999588" y="1629.99994509" width="125.99998887999982" height="27.999950220000073" class="text">Estimated </text>
<text x="1548.0000440000001" y="1629.99994509" width="134.99998056000004" height="27.999950220000073" class="text">attendance
</text>
<text x="1442.99998888" y="1668.99996846" width="8.999991679999994" height="32.999991749999936" class="text">(</text>
<text x="1451.99998056" y="1668.99996846" width="38.00005071999999" height="32.999991749999936" class="text">for </text>
<text x="1499.00004052" y="1668.99996846" width="43.999916400000075" height="32.999991749999936" class="text">film</text>
<text x="1551.9999486000002" y="1668.99996846" width="9.000009239999827" height="32.999991749999936" class="text">(</text>
<text x="1562.00003496" y="1668.99996846" width="8.999991679999994" height="32.999991749999936" class="text">s</text>
<text x="1572.99998772" y="1668.99996846" width="8.999991679999994" height="32.999991749999936" class="text">)</text>
<text x="1585.0000175999999" y="1668.99996846" width="8.999991679999994" height="32.999991749999936" class="text">)
</text>
<text x="1191.00001112" y="1690.00003359" width="79.00003427999991" height="45.00007776000007" class="text">VE
</text>
<text x="1073.00004216" y="1668.99996846" width="42.99994463999997" height="32.999991749999936" class="text">-5 </text>
<text x="1085.9999559999999" y="1796.99999787" width="49.00000348000003" height="71.00002502999996" class="text">0:35
</text>
<text x="89.999997576" y="1961.99995662" width="38.999997895999996" height="39.00002337000001" class="text">14. </text>
<text x="142.00000589200002" y="1961.99995662" width="66.99999210799999" height="39.00002337000001" class="text">Have </text>
<text x="216.00001104" y="1961.99995662" width="44.999993519999975" height="39.00002337000001" class="text">two </text>
<text x="275.00001308000003" y="1961.99995662" width="76.99998539999996" height="39.00002337000001" class="text">copies </text>
<text x="359.00001152" y="1961.99995662" width="27.999999480000042" height="39.00002337000001" class="text">of </text>
<text x="391.99999271999997" y="1961.99995662" width="42.999997320000034" height="39.00002337000001" class="text">this </text>
<text x="456.00002916" y="1961.99995662" width="97.99995428000005" height="39.00002337000001" class="text">material </text>
<text x="562.00000336" y="1961.99995662" width="58.999984479999966" height="39.00002337000001" class="text">been </text>
<text x="635.0000314800001" y="1961.99995662" width="47.99997903999986" height="39.00002337000001" class="text">filed </text>
<text x="696.00001216" y="1961.99995662" width="52.99996076000002" height="39.00002337000001" class="text">with </text>
<text x="763.00001656" y="1961.99995662" width="38.99998736000009" height="39.00002337000001" class="text">the </text>
<text x="813.0000093599999" y="1961.99995662" width="155.99994944000002" height="39.00002337000001" class="text">Department </text>
<text x="975.0000352000001" y="1961.99995662" width="29.99992543999997" height="39.00002337000001" class="text">of </text>
<text x="1012.0000087999999" y="1961.99995662" width="80.00002360000008" height="39.00002337000001" class="text">Justice</text>
<text x="1097.00001412" y="1961.99995662" width="10.999952760000042" height="39.00002337000001" class="text">? </text>
<text x="1138.99996944" y="1961.99995662" width="44.99999352000009" height="39.00002337000001" class="text">Yes
</text>
<text x="1263.99998656" y="1956.00006162" width="45.99996527999997" height="28.000064070000008" class="text">No </text>
<text x="1317.99997176" y="1956.00006162" width="8.000019919999886" height="28.000064070000008" class="text">☐
</text>
<text x="89.999997576" y="2029.00006683" width="38.999997895999996" height="38.0000332799998" class="text">15. </text>
<text x="142.00000589200002" y="2029.00006683" width="49.99999806799997" height="38.0000332799998" class="text">Has </text>
<text x="198.99999943999998" y="2029.00006683" width="48.000014160000006" height="38.0000332799998" class="text">this </text>
<text x="259.99999768000004" y="2029.00006683" width="100.99999247999995" height="38.0000332799998" class="text">material </text>
<text x="368.00000320000004" y="2029.00006683" width="57.99999515999997" height="38.0000332799998" class="text">been </text>
<text x="437.99999312" y="2029.00006683" width="90.99999392000007" height="38.0000332799998" class="text">labeled </text>
<text x="539.00002072" y="2029.00006683" width="27.999964360000035" height="38.0000332799998" class="text">as </text>
<text x="579.00003252" y="2029.00006683" width="101.99996424000005" height="38.0000332799998" class="text">required </text>
<text x="689.9999884399999" y="2029.00006683" width="35.00003007999999" height="38.0000332799998" class="text">by </text>
<text x="734.99999952" y="2029.00006683" width="37.00002628000004" height="38.0000332799998" class="text">the </text>
<text x="781.99998924" y="2029.00006683" width="37.99999804000004" height="38.0000332799998" class="text">act</text>
<text x="821.00002928" y="2029.00006683" width="10.999952759999928" height="38.0000332799998" class="text">? </text>
<text x="862.0000128400001" y="2029.00006683" width="46.99998971999992" height="38.0000332799998" class="text">Yes
</text>
<text x="990.99996968" y="2024.99999262" width="40.00001179999981" height="27.999927450000087" class="text">No </text>
<text x="1040.99996248" y="2024.99999262" width="8.000019920000113" height="27.999927450000087" class="text">☐
</text>
<text x="89.000001232" y="2095.00005033" width="58.000005696" height="32.999991749999936" class="text">Date </text>
<text x="160.0000033" y="2096.00004042" width="28.999997580000013" height="32.00002442999994" class="text">of </text>
<text x="193.00001084" y="2097.00000774" width="77.99999228000004" height="32.999991749999936" class="text">report
</text>
<text x="1040.99996248" y="2097.99999783" width="120.99998959999994" height="37.00006596000003" class="text">Signature
</text>
<text x="134.99999812" y="2179.00001484" width="180.99999852000002" height="87.00004863000004" class="text">5/1/92
</text>
<text x="387.00001100000003" y="2090.99997612" width="70.99996167999996" height="26.99996013000009" class="text">Name </text>
<text x="468.00000636" y="2090.99997612" width="46.999989719999974" height="26.99996013000009" class="text">and </text>
<text x="528.9999870400001" y="2090.99997612" width="42.00000799999998" height="26.99996013000009" class="text">title
</text>
<text x="391.99999271999997" y="2123.00000055" width="67.00000440000002" height="26.99996013000009" class="text">Mark </text>
<text x="476.00002628" y="2123.00000055" width="103.00000624" height="26.99996013000009" class="text">Helmke
</text>
<text x="392.9999996" y="2158.9999398" width="151.00000283999998" height="28.999940310000056" class="text">Executive </text>
<text x="564.0000171199999" y="2156.99995962" width="67.00000440000008" height="27.999927450000087" class="text">Vice </text>
<text x="651.00001864" y="2156.99995962" width="152.9999814800001" height="28.999917539999842" class="text">President </text>
<text x="824.9999865599999" y="2155.0000022100003" width="8.000019920000113" height="26.99996013000009" class="text">&amp; </text>
<text x="855.99998912" y="2155.0000022100003" width="119.00004608000006" height="29.000054160000218" class="text">General
</text>
<text x="526.00000152" y="2190.9999414599997" width="123.99999267999999" height="26.999960129999636" class="text">Manager
</text>
<text x="793.99996644" y="2225.0000599200002" width="87.00007175999997" height="29.000054160000218" class="text">Formerly </text>
<text x="891.00000164" y="2222.99994312" width="44.00002175999998" height="26.999937359999876" class="text">OBD</text>
<text x="945.0000044" y="2221.9999758" width="7.000048160000006" height="25.99997003999988" class="text">-</text>
<text x="949.99998612" y="2221.9999758" width="23.99997196000004" height="25.99997003999988" class="text">69
</text>
</g>
</svg>
