<svg xmlns="http://www.w3.org/2000/svg">
<style>.text { font-size: 14px; font-family: Arial, sans-serif; }</style>
<g id="page-0" transform="translate(0, 0)">
<rect width="1756" height="2277" fill="none" stroke="black" />
<text x="887.9999809999999" y="140.999996214" width="164.00003960000004" height="33.999993225" class="text">Dissemination </text>
<text x="1066.0000115599998" y="141.999997689" width="81.99996712000006" height="32.000001659999995" class="text">Report
</text>
<text x="108.99999835199999" y="137.00000397600002" width="50.00000157999999" height="31.00000018500002" class="text">U.S. </text>
<text x="166.999997024" y="138.999995541" width="150.999995816" height="32.99999175000001" class="text">Department </text>
<text x="323.999999" y="138.000003174" width="24.00000707999999" height="31.000000185000005" class="text">of </text>
<text x="363.99999324" y="138.999995541" width="77.00002052000008" height="31.99999255200001" class="text">Justice
</text>
<text x="106.99999864" y="181.999999764" width="128.00000264000002" height="32.99999174999999" class="text">Washington</text>
<text x="240.00000056" y="179.999999091" width="8.999991680000022" height="29.999991878999992" class="text">, </text>
<text x="256.9999946" y="178.999997616" width="37.99999804000004" height="30.999991077000004" class="text">DC </text>
<text x="312.00000424" y="178.999997616" width="67.99999372000002" height="31.999990274999988" class="text">20530
</text>
<text x="1526.00003312" y="126.00000141299999" width="40.00001180000004" height="17.00000458199999" class="text">OMB </text>
<text x="1572.99998772" y="126.00000141299999" width="26.999992599999814" height="17.00000458199999" class="text">No. </text>
<text x="1608.0000002400002" y="126.00000141299999" width="67.9999937199998" height="18.000006056999993" class="text">1105-0006
</text>
<text x="1443.99996064" y="151.00000868700002" width="62.99999444000014" height="20.000006730000024" class="text">Approval </text>
<text x="1514.00000324" y="151.00000868700002" width="50.99996455999985" height="21.000005928000007" class="text">Expires </text>
<text x="1572.99998772" y="150.000007212" width="36.999973599999976" height="20.000004453000003" class="text">Nov. </text>
<text x="1615.0000484" y="150.000007212" width="14.999962719999985" height="20.000004453000003" class="text">30</text>
<text x="1633.00004932" y="150.000007212" width="5.999971039999991" height="20.000004453000003" class="text">, </text>
<text x="1644.99997384" y="150.000007212" width="33.00006900000017" height="20.000004453000003" class="text">1993
</text>
<text x="106.00000229599999" y="281.99998332" width="161.99999774399998" height="26.99998290000002" class="text">INSTRUCTIONS</text>
<text x="268.00000004" y="281.99998332" width="7.99998480000005" height="26.99998290000002" class="text">: </text>
<text x="282.00000855999997" y="281.99998332" width="64.00000132000002" height="26.99998290000002" class="text">Report </text>
<text x="356.99999776" y="281.99998332" width="39.999994240000035" height="26.99998290000002" class="text">must </text>
<text x="402.99999816" y="281.99998332" width="19.00000779999999" height="26.99998290000002" class="text">be </text>
<text x="430.00000832" y="281.99998332" width="85.99997708000001" height="26.99998290000002" class="text">submitted </text>
<text x="528.9999870400001" y="281.99998332" width="10.000033679999888" height="26.99998290000002" class="text">in </text>
<text x="550.9999979199999" y="281.99998332" width="80.99999536000007" height="26.99998290000002" class="text">duplicate </text>
<text x="640.99998496" y="281.99998332" width="15.000015400000052" height="26.99998290000002" class="text">to </text>
<text x="662.99999584" y="281.99998332" width="26.999992599999928" height="26.99998290000002" class="text">the </text>
<text x="698.00002592" y="281.99998332" width="107.99998796" height="26.99998290000002" class="text">Registration </text>
<text x="817.0000193200001" y="281.99998332" width="42.00000799999998" height="26.99998290000002" class="text">Unit</text>
<text x="855.99998912" y="281.99998332" width="8.00001992" height="26.99998290000002" class="text">, </text>
<text x="871.0000045200001" y="281.99998332" width="70.99996167999996" height="26.99998290000002" class="text">Internal </text>
<text x="950.99997544" y="281.99998332" width="71.99998612000002" height="26.99998290000002" class="text">Security </text>
<text x="1034.99999144" y="281.99998332" width="62.00002268000003" height="26.99998290000002" class="text">Section</text>
<text x="1101.9999958399999" y="281.99998332" width="8.000019920000113" height="26.99998290000002" class="text">, </text>
<text x="1114.0000257200002" y="281.99998332" width="85.99999463999984" height="26.99998290000002" class="text">Criminal </text>
<text x="1201.99996388" y="281.99998332" width="79.00003427999991" height="26.99998290000002" class="text">Division</text>
<text x="1282.99995924" y="281.99998332" width="8.000019920000113" height="26.99998290000002" class="text">, </text>
<text x="1297.00005556" y="281.99998332" width="110.9999032400001" height="26.99998290000002" class="text">Department </text>
<text x="1412.9999580800002" y="281.99998332" width="19.000078039999835" height="26.99998290000002" class="text">of </text>
<text x="1437.00001784" y="281.99998332" width="62.99999443999991" height="26.99998290000002" class="text">Justice</text>
<text x="1499.00004052" y="281.99998332" width="7.999914559999979" height="26.99998290000002" class="text">, </text>
<text x="1513.00003148" y="281.99998332" width="104.99994976000016" height="26.99998290000002" class="text">Washington</text>
<text x="1620.00003012" y="281.99998332" width="7.9999321200000395" height="26.99998290000002" class="text">, </text>
<text x="1636.99995392" y="281.99998332" width="42.00006067999993" height="26.99998290000002" class="text">D.C.
</text>
<text x="104.999998928" y="309.99997908" width="65.00000644400001" height="27.99999575999999" class="text">20530. </text>
<text x="177.99999544" y="309.99997908" width="31.000002560000013" height="27.99999575999999" class="text">The </text>
<text x="217.00000036" y="309.99997908" width="72.99999300000002" height="27.99999575999999" class="text">original </text>
<text x="300.99999879999996" y="309.99997908" width="39.00000492000004" height="27.99999575999999" class="text">must </text>
<text x="346.00000988" y="309.99997908" width="19.999997120000046" height="27.99999575999999" class="text">be </text>
<text x="374.99999868" y="309.99997908" width="54.00000276000003" height="27.99999575999999" class="text">signed </text>
<text x="441.00001376000006" y="309.99997908" width="19.999997119999932" height="27.99999575999999" class="text">by </text>
<text x="468.99997812000004" y="309.99997908" width="19.99999711999999" height="27.99999575999999" class="text">or </text>
<text x="493.00000276" y="309.99997908" width="20.99996888000004" height="27.99999575999999" class="text">on </text>
<text x="524.99997708" y="309.99997908" width="58.00001271999997" height="27.99999575999999" class="text">behalf </text>
<text x="588.99999596" y="309.99997908" width="20.99998643999993" height="27.99999575999999" class="text">of </text>
<text x="613.0000206" y="309.99997908" width="26.99999260000004" height="27.99999575999999" class="text">the </text>
<text x="647.99998044" y="309.99997908" width="87.00001908000002" height="27.99999575999999" class="text">registrant</text>
<text x="734.99999952" y="309.99997908" width="8.00001992" height="27.99999575999999" class="text">. </text>
<text x="752.00001112" y="309.99997908" width="25.999968160000094" height="27.99999575999999" class="text">All </text>
<text x="788.0000129599999" y="309.99997908" width="45.99996528000008" height="27.99999575999999" class="text">items </text>
<text x="844.00001192" y="309.99997908" width="9.999981000000048" height="27.99999575999999" class="text">in </text>
<text x="864.99999836" y="309.99997908" width="31.000002559999984" height="27.99999575999999" class="text">this </text>
<text x="906.9999536799999" y="309.99997908" width="39.00002248000021" height="27.99999575999999" class="text">form </text>
<text x="962.00003356" y="309.99997908" width="37.99994535999997" height="27.99999575999999" class="text">must </text>
<text x="1008.9999706" y="309.99997908" width="21.000039119999997" height="27.99999575999999" class="text">be </text>
<text x="1038.00002964" y="309.99997908" width="80.00000604000002" height="27.99999575999999" class="text">answered</text>
<text x="1121.99995784" y="309.99997908" width="8.000019920000113" height="27.99999575999999" class="text">, </text>
<text x="1134.99995948" y="309.99997908" width="60.00006159999998" height="27.99999575999999" class="text">unless </text>
<text x="1201.99996388" y="309.99997908" width="26.00002084000016" height="27.99999575999999" class="text">the </text>
<text x="1236.00000464" y="309.99997908" width="61.00005091999992" height="27.99999575999999" class="text">answer </text>
<text x="1308.00000832" y="309.99997908" width="10.999952760000042" height="27.99999575999999" class="text">is </text>
<text x="1329.00002988" y="309.99997908" width="7.999914559999979" height="27.99999575999999" class="text">"</text>
<text x="1343.00002084" y="309.99997908" width="41.999955320000026" height="27.99999575999999" class="text">none</text>
<text x="1384.99997616" y="309.99997908" width="8.000019920000113" height="27.99999575999999" class="text">" </text>
<text x="1402.99997708" y="309.99997908" width="21.00003912000011" height="27.99999575999999" class="text">or </text>
<text x="1429.99996968" y="309.99997908" width="8.000037479999946" height="27.99999575999999" class="text">"</text>
<text x="1442.99998888" y="309.99997908" width="31.999974319999865" height="27.99999575999999" class="text">not </text>
<text x="1479.99996248" y="309.99997908" width="92.0000534799999" height="27.99999575999999" class="text">applicable</text>
<text x="1575.0000366" y="309.99997908" width="7.9999321200000395" height="27.99999575999999" class="text">,</text>
<text x="1577.99996944" y="309.99997908" width="8.000019919999886" height="27.99999575999999" class="text">" </text>
<text x="1595.99997036" y="309.99997908" width="15.00006808000012" height="27.99999575999999" class="text">in </text>
<text x="1621.00001944" y="309.99997908" width="51.99993632000019" height="27.99999575999999" class="text">which
</text>
<text x="106.00000229599999" y="337.00000752" width="36.00000359600003" height="28.000018529999977" class="text">case </text>
<text x="151.000004596" y="337.00000752" width="38.99998560400002" height="28.000018529999977" class="text">such </text>
<text x="200.00000632" y="337.00000752" width="20.999986439999986" height="28.000018529999977" class="text">an </text>
<text x="231.9999982" y="337.00000752" width="43.99998664000003" height="28.000018529999977" class="text">entry </text>
<text x="287.99999716" y="337.00000752" width="43.999986639999975" height="28.000018529999977" class="text">shall </text>
<text x="338.00000752" y="337.00000752" width="21.00000399999999" height="28.000018529999977" class="text">be </text>
<text x="374.99999868" y="337.00000752" width="41.99999044000003" height="28.000018529999977" class="text">made </text>
<text x="424.99999148" y="337.00000752" width="16.99999403999999" height="28.000018529999977" class="text">in </text>
<text x="450.9999772" y="337.00000752" width="28.00003460000005" height="28.000018529999977" class="text">the </text>
<text x="490.999989" y="337.00000752" width="102.00001692000001" height="28.000018529999977" class="text">appropriate </text>
<text x="602.99998692" y="337.00000752" width="46.00001796000004" height="28.000018529999977" class="text">space</text>
<text x="651.9999904" y="337.00000752" width="8.00001992" height="28.000018529999977" class="text">. </text>
<text x="665.99998136" y="337.00000752" width="15.999987159999932" height="28.000018529999977" class="text">If </text>
<text x="689.9999884399999" y="337.00000752" width="93.00002524000013" height="28.000018529999977" class="text">additional </text>
<text x="788.0000129599999" y="337.00000752" width="51.99998900000003" height="28.000018529999977" class="text">space </text>
<text x="848.00002188" y="337.00000752" width="15.999987160000046" height="28.000018529999977" class="text">is </text>
<text x="871.9999762799999" y="337.00000752" width="63.00004712000009" height="28.000018529999977" class="text">needed </text>
<text x="945.9999761600001" y="337.00000752" width="29.000059039999996" height="28.000018529999977" class="text">for </text>
<text x="980.0000169199999" y="337.00000752" width="31.000020120000045" height="28.000018529999977" class="text">any </text>
<text x="1024.00003868" y="337.00000752" width="36.000001840000095" height="28.000018529999977" class="text">item</text>
<text x="1064.00005048" y="337.00000752" width="7.999914559999979" height="28.000018529999977" class="text">, </text>
<text x="1079.0000132" y="337.00000752" width="49.00000348000003" height="28.000018529999977" class="text">attach </text>
<text x="1138.99996944" y="337.00000752" width="123.00005603999989" height="28.000018529999977" class="text">supplemental </text>
<text x="1272.00000648" y="337.00000752" width="45.9999652800002" height="28.000018529999977" class="text">sheet </text>
<text x="1324.00004816" y="337.00000752" width="98.99997872000017" height="28.000018529999977" class="text">identifying </text>
<text x="1432.00003612" y="337.00000752" width="40.00001180000004" height="28.000018529999977" class="text">each </text>
<text x="1486.00002132" y="337.00000752" width="36.00000183999987" height="28.000018529999977" class="text">item</text>
<text x="1526.00003312" y="337.00000752" width="7.999914559999979" height="28.000018529999977" class="text">.
</text>
<text x="104.999998928" y="396.00001485" width="65.999995764" height="29.000008620000017" class="text">Privacy </text>
<text x="177.99999544" y="396.00001485" width="32.99999876000001" height="29.000008620000017" class="text">Act </text>
<text x="218.99999656" y="396.00001485" width="88.99999772000001" height="29.000008620000017" class="text">Statement</text>
<text x="304.99999119999995" y="396.00001485" width="8.000002360000053" height="29.000008620000017" class="text">. </text>
<text x="317.00000352" y="396.00001485" width="53.99998519999997" height="29.000008620000017" class="text">Every </text>
<text x="379.99999796000003" y="396.00001485" width="101.99999936" height="29.000008620000017" class="text">registration </text>
<text x="492.00001344000003" y="396.00001485" width="85.99997707999995" height="29.000008620000017" class="text">statement</text>
<text x="577.00001876" y="396.00001485" width="7.999967239999933" height="29.000008620000017" class="text">, </text>
<text x="588.99999596" y="396.00001485" width="49.00000348000003" height="29.000008620000017" class="text">short </text>
<text x="640.99998496" y="396.00001485" width="42.000025559999926" height="29.000008620000017" class="text">form </text>
<text x="691.0000304399999" y="396.00001485" width="99.99996804000011" height="29.000008620000017" class="text">registration </text>
<text x="802.00000392" y="396.00001485" width="88.99999772000001" height="29.000008620000017" class="text">statement</text>
<text x="887.9999809999999" y="396.00001485" width="8.00001992" height="29.000008620000017" class="text">, </text>
<text x="901.9999544" y="396.00001485" width="121.00000716" height="29.000008620000017" class="text">supplemental </text>
<text x="1026.99997152" y="396.00001485" width="89.99998704000018" height="29.000008620000017" class="text">statement</text>
<text x="1116.99995856" y="396.00001485" width="8.000019919999886" height="29.000008620000017" class="text">, </text>
<text x="1128.00001668" y="396.00001485" width="62.00002268000003" height="29.000008620000017" class="text">exhibit</text>
<text x="1191.99998288" y="396.00001485" width="8.000037479999946" height="29.000008620000017" class="text">, </text>
<text x="1200.99999212" y="396.00001485" width="112.99996968000005" height="29.000008620000017" class="text">amendment</text>
<text x="1311.00002896" y="396.00001485" width="7.9999321200000395" height="29.000008620000017" class="text">, </text>
<text x="1326.999981" y="396.00001485" width="124.0000278" height="29.000008620000017" class="text">dissemination </text>
<text x="1455.99999052" y="396.00001485" width="56.00005164000004" height="29.000008620000017" class="text">report</text>
<text x="1514.00000324" y="396.00001485" width="8.000019919999886" height="29.000008620000017" class="text">, </text>
<text x="1526.00003312" y="396.00001485" width="42.999944640000194" height="29.000008620000017" class="text">copy </text>
<text x="1577.99996944" y="396.00001485" width="17.00002915999994" height="29.000008620000017" class="text">of </text>
<text x="1599.9999803199998" y="396.00001485" width="76.00001364000013" height="29.000008620000017" class="text">political
</text>
<text x="101.00000126" y="424.00001061" width="106.00000054" height="27.99999575999999" class="text">propaganda </text>
<text x="213.99999728" y="424.00001061" width="21.00000400000002" height="27.99999575999999" class="text">or </text>
<text x="243.00000364000002" y="424.00001061" width="47.9999966" height="27.99999575999999" class="text">other </text>
<text x="295.99999952" y="424.00001061" width="92.99999012" height="27.99999575999999" class="text">document </text>
<text x="394.00000647999997" y="424.00001061" width="21.00000399999999" height="27.99999575999999" class="text">or </text>
<text x="420.99999908" y="424.00001061" width="102.00003448000001" height="27.99999575999999" class="text">information </text>
<text x="537.0000069600001" y="424.00001061" width="36.999973599999976" height="27.99999575999999" class="text">filed </text>
<text x="579.00003252" y="424.00001061" width="41.999955320000026" height="27.99999575999999" class="text">with </text>
<text x="631.99999328" y="424.00001061" width="22.999982639999985" height="27.99999575999999" class="text">the </text>
<text x="665.99998136" y="424.00001061" width="75.99999607999996" height="27.99999575999999" class="text">Attorney </text>
<text x="750.99998668" y="424.00001061" width="75.00002431999997" height="27.99999575999999" class="text">General </text>
<text x="826.99998276" y="424.00001061" width="54.00005543999998" height="27.99999575999999" class="text">under </text>
<text x="886.99999168" y="424.00001061" width="31.99999188000004" height="27.99999575999999" class="text">this </text>
<text x="928.9999645600001" y="424.00001061" width="29.000041479999936" height="27.99999575999999" class="text">act </text>
<text x="964.99994884" y="424.00001061" width="10.000086360000068" height="27.99999575999999" class="text">is </text>
<text x="985.0000162" y="424.00001061" width="8.00001992" height="27.99999575999999" class="text">a </text>
<text x="1002.0000278" y="424.00001061" width="55.99994628000013" height="27.99999575999999" class="text">public </text>
<text x="1065.00002224" y="424.00001061" width="56.99993560000007" height="27.99999575999999" class="text">record </text>
<text x="1130.99994952" y="424.00001061" width="42.00006068000016" height="27.99999575999999" class="text">open </text>
<text x="1182.9999912" y="424.00001061" width="11.000058119999949" height="27.99999575999999" class="text">to </text>
<text x="1205.99997384" y="424.00001061" width="56.00005164000004" height="27.99999575999999" class="text">public </text>
<text x="1268.99996828" y="424.00001061" width="109.00006508000001" height="27.99999575999999" class="text">examination</text>
<text x="1383.00003264" y="424.00001061" width="8.000019919999886" height="27.99999575999999" class="text">, </text>
<text x="1393.9999854" y="424.00001061" width="93.00002524000001" height="27.99999575999999" class="text">inspection </text>
<text x="1495.00003056" y="424.00001061" width="31.000002559999984" height="27.99999575999999" class="text">and </text>
<text x="1537.99995764" y="424.00001061" width="69.00007084000003" height="27.99999575999999" class="text">copying </text>
<text x="1613.99997128" y="424.00001061" width="62.00002268000003" height="27.99999575999999" class="text">during
</text>
<text x="101.999997604" y="451.00001627999995" width="27.99999948" height="28.00001852999992" class="text">the </text>
<text x="141.000002524" y="451.00001627999995" width="56.00000071599999" height="28.00001852999992" class="text">posted </text>
<text x="205.0000056" y="451.00001627999995" width="78.99999915999996" height="28.00001852999992" class="text">business </text>
<text x="286.99999028" y="451.00001627999995" width="51.00001723999998" height="28.00001852999992" class="text">hours </text>
<text x="348.00000608" y="451.00001627999995" width="19.999997120000046" height="28.00001852999992" class="text">of </text>
<text x="373.00000248" y="451.00001627999995" width="29.000006360000043" height="28.00001852999992" class="text">the </text>
<text x="407.99999744" y="451.00001627999995" width="106.99999863999994" height="28.00001852999992" class="text">Registration </text>
<text x="528.00001528" y="451.00001627999995" width="40.00001180000004" height="28.00001852999992" class="text">Unit </text>
<text x="575.99999432" y="451.00001627999995" width="15.000015399999938" height="28.00001852999992" class="text">in </text>
<text x="600.0000014" y="451.00001627999995" width="103.99997800000006" height="28.00001852999992" class="text">Washington</text>
<text x="709.00003136" y="451.00001627999995" width="7.999967240000046" height="28.00001852999992" class="text">, </text>
<text x="721.00000856" y="451.00001627999995" width="45.99996527999997" height="28.00001852999992" class="text">D.C. </text>
<text x="767.99999828" y="451.00001627999995" width="40.00001180000004" height="28.00001852999992" class="text">One </text>
<text x="815.00000556" y="451.00001627999995" width="42.999997320000034" height="28.00001852999992" class="text">copy </text>
<text x="869.99998008" y="451.00001627999995" width="15.000068079999892" height="28.00001852999992" class="text">of </text>
<text x="895.00002916" y="451.00001627999995" width="46.99993703999996" height="28.00001852999992" class="text">every </text>
<text x="950.99997544" y="451.00001627999995" width="38.000050720000104" height="28.00001852999992" class="text">such </text>
<text x="999.00000716" y="451.00001627999995" width="89.99998703999995" height="28.00001852999992" class="text">document </text>
<text x="1096.00004236" y="451.00001627999995" width="15.999934480000093" height="28.00001852999992" class="text">is </text>
<text x="1121.99995784" y="451.00001627999995" width="118.00005676" height="28.00001852999992" class="text">automatically </text>
<text x="1250.99996736" y="451.00001627999995" width="76.0000136399999" height="28.00001852999992" class="text">provided </text>
<text x="1335.99997268" y="451.00001627999995" width="17.000029160000167" height="28.00001852999992" class="text">to </text>
<text x="1361.99999352" y="451.00001627999995" width="27.999981919999755" height="28.00001852999992" class="text">the </text>
<text x="1401.00003356" y="451.00001627999995" width="82.99993887999995" height="28.00001852999992" class="text">Secretary </text>
<text x="1492.9999641200002" y="451.00001627999995" width="20.000067359999775" height="28.00001852999992" class="text">of </text>
<text x="1521.0000513999998" y="451.00001627999995" width="41.999955320000254" height="28.00001852999992" class="text">State </text>
<text x="1571.00002664" y="451.00001627999995" width="81.99996712000006" height="28.00001852999992" class="text">pursuant </text>
<text x="1656.00003196" y="451.00001627999995" width="15.999934480000093" height="28.00001852999992" class="text">to
</text>
<text x="103.999997316" y="475.99999622999997" width="64.000003076" height="24.99997995000001" class="text">Section </text>
<text x="177.99999544" y="475.99999622999997" width="6.9999954799999955" height="24.99997995000001" class="text">6</text>
<text x="189.9999902" y="475.99999622999997" width="7.0000130399999705" height="24.99997995000001" class="text">(</text>
<text x="198.00001012" y="475.99999622999997" width="6.9999954799999955" height="24.99997995000001" class="text">b</text>
<text x="210.00000488" y="475.99999622999997" width="6.9999954799999955" height="24.99997995000001" class="text">) </text>
<text x="221.99999964" y="475.99999622999997" width="18.999990240000017" height="24.99997995000001" class="text">of </text>
<text x="246.00000672000002" y="475.99999622999997" width="24.999996400000015" height="24.99997995000001" class="text">the </text>
<text x="281.00000168" y="475.99999622999997" width="29.000006359999986" height="24.99997995000001" class="text">Act</text>
<text x="312.99999356" y="475.99999622999997" width="7.000013039999999" height="24.99997995000001" class="text">, </text>
<text x="324.99998832" y="475.99999622999997" width="27.999999480000042" height="24.99997995000001" class="text">and </text>
<text x="361.99999704" y="475.99999622999997" width="59.00000204000003" height="24.99997995000001" class="text">copies </text>
<text x="426.99998768" y="475.99999622999997" width="19.00000779999999" height="24.99997995000001" class="text">of </text>
<text x="450.00000543999994" y="475.99999622999997" width="36.99997360000009" height="24.99997995000001" class="text">such </text>
<text x="495.99997071999996" y="475.99999622999997" width="92.00005348000002" height="24.99997995000001" class="text">document </text>
<text x="636.999975" y="475.99999622999997" width="77.00003808000008" height="24.99997995000001" class="text">routinely </text>
<text x="728.00000404" y="475.99999622999997" width="44.999993519999975" height="24.99997995000001" class="text">made </text>
<text x="779.00000372" y="475.99999622999997" width="76.99998540000001" height="24.99997995000001" class="text">available </text>
<text x="864.99999836" y="475.99999622999997" width="13.999973400000044" height="24.99997995000001" class="text">to </text>
<text x="888.99995276" y="475.99999622999997" width="45.000098879999996" height="24.99997995000001" class="text">other </text>
<text x="940.99999444" y="475.99999622999997" width="79.00003427999991" height="24.99997995000001" class="text">agencies</text>
<text x="1018.9999515999999" y="475.99999622999997" width="7.000048159999892" height="24.99997995000001" class="text">, </text>
<text x="1030.00000972" y="475.99999622999997" width="113.99995899999999" height="24.99997995000001" class="text">departments </text>
<text x="1177.00002016" y="477.00000909" width="8.000037479999946" height="27.000028439999994" class="text">| </text>
<text x="1186.0000294" y="477.00000909" width="85.00000532000013" height="27.000028439999994" class="text">Congress </text>
<text x="1280.0000264" y="477.00000909" width="78.99992892" height="27.000028439999994" class="text">pursuant </text>
<text x="1363.9999546000001" y="477.00000909" width="15.000068079999892" height="27.000028439999994" class="text">to </text>
<text x="1388.00001436" y="477.00000909" width="64.99995551999996" height="27.000028439999994" class="text">Section </text>
<text x="1460.9999897999999" y="477.00000909" width="8.000019920000113" height="27.000028439999994" class="text">6</text>
<text x="1470.99995324" y="477.00000909" width="8.000037480000174" height="27.000028439999994" class="text">(</text>
<text x="1478.9999907200001" y="477.00000909" width="8.000019919999886" height="27.000028439999994" class="text">c</text>
<text x="1490.00003128" y="477.00000909" width="7.9999321200000395" height="27.000028439999994" class="text">) </text>
<text x="1503.00005048" y="477.00000909" width="19.999944440000036" height="27.000028439999994" class="text">of </text>
<text x="1530.0000430799998" y="477.00000909" width="22.999982640000326" height="27.000028439999994" class="text">the </text>
<text x="1560.99995784" y="477.00000909" width="35.00001251999993" height="27.000028439999994" class="text">Act</text>
<text x="1593.00003752" y="477.00000909" width="7.999914559999979" height="27.000028439999994" class="text">. </text>
<text x="1608.9999719999998" y="477.00000909" width="58.00001272000031" height="27.000028439999994" class="text">Finally</text>
<text x="1670.99999468" y="477.00000909" width="8.000019919999886" height="27.000028439999994" class="text">,
</text>
<text x="101.999997604" y="506.99998502999995" width="27.99999948" height="28.999985849999973" class="text">the </text>
<text x="139.999999156" y="506.99998502999995" width="77.000001204" height="28.999985849999973" class="text">Attorney </text>
<text x="226.0000096" y="506.99998502999995" width="70.99997924000002" height="28.999985849999973" class="text">General </text>
<text x="305.99999808" y="506.99998502999995" width="81.00001292000002" height="28.999985849999973" class="text">transmits </text>
<text x="394.00000647999997" y="506.99998502999995" width="19.999997120000046" height="28.999985849999973" class="text">an </text>
<text x="423.00001284" y="506.99998502999995" width="63.99996620000002" height="28.999985849999973" class="text">annual </text>
<text x="488.99997524" y="506.99998502999995" width="58.00001271999997" height="28.999985849999973" class="text">report </text>
<text x="550.0000261600001" y="506.99998502999995" width="16.999958919999926" height="28.999985849999973" class="text">to </text>
<text x="577.99999052" y="506.99998502999995" width="24.999996399999986" height="28.999985849999973" class="text">the </text>
<text x="611.99999616" y="506.99998502999995" width="82.00001980000002" height="28.999985849999973" class="text">Congress </text>
<text x="703.0000076399999" y="506.99998502999995" width="20.999986440000043" height="28.999985849999973" class="text">on </text>
<text x="734.99999952" y="506.99998502999995" width="24.000007080000046" height="28.999985849999973" class="text">the </text>
<text x="770.9999838" y="506.99998502999995" width="129.00002707999988" height="28.999985849999973" class="text">Administration </text>
<text x="914.0000018400001" y="506.99998502999995" width="14.999962719999985" height="28.999985849999973" class="text">of </text>
<text x="936.00001272" y="506.99998502999995" width="28.99993612000003" height="28.999985849999973" class="text">the </text>
<text x="971.9999969999999" y="506.99998502999995" width="32.999963640000146" height="28.999985849999973" class="text">Act </text>
<text x="1007.99999884" y="506.99998502999995" width="54.99997452000002" height="28.999985849999973" class="text">which </text>
<text x="1071.99996504" y="506.99998502999995" width="36.000001840000095" height="28.999985849999973" class="text">lists </text>
<text x="1116.99995856" y="506.99998502999995" width="28.00008727999989" height="28.999985849999973" class="text">the </text>
<text x="1152.9999604" y="506.99998502999995" width="59.0000898400001" height="28.999985849999973" class="text">names </text>
<text x="1215.9999548399999" y="506.99998502999995" width="22.000010880000218" height="28.999985849999973" class="text">of </text>
<text x="1242.9999474400001" y="506.99998502999995" width="22.000010879999763" height="28.999985849999973" class="text">all </text>
<text x="1271.00003472" y="506.99998502999995" width="58.999966919999906" height="28.999985849999973" class="text">agents </text>
<text x="1335.99997268" y="506.99998502999995" width="85.99997708000001" height="28.999985849999973" class="text">registered </text>
<text x="1434.99996896" y="506.99998502999995" width="51.000052360000154" height="28.999985849999973" class="text">under </text>
<text x="1494.0000588" y="506.99998502999995" width="27.99996435999992" height="28.999985849999973" class="text">the </text>
<text x="1527.9999942" y="506.99998502999995" width="34.00004076000005" height="28.999985849999973" class="text">Act</text>
<text x="1562.00003496" y="506.99998502999995" width="7.999914559999979" height="28.999985849999973" class="text">, </text>
<text x="1573.99995948" y="506.99998502999995" width="29.000059040000224" height="28.999985849999973" class="text">the </text>
<text x="1609.99996132" y="506.99998502999995" width="62.99999444000014" height="28.999985849999973" class="text">foreign
</text>
<text x="101.999997604" y="536.00001642" width="88.99999947600001" height="30.00002147999993" class="text">principals </text>
<text x="203.99999872" y="536.00001642" width="36.99999116000001" height="30.00002147999993" class="text">they </text>
<text x="251.99999532" y="536.00001642" width="80.99999535999999" height="30.00002147999993" class="text">represent</text>
<text x="333.99999756" y="536.00001642" width="8.999991679999994" height="30.00002147999993" class="text">, </text>
<text x="348.00000608" y="536.00001642" width="30.000013239999987" height="30.00002147999993" class="text">and </text>
<text x="387.99998276" y="536.00001642" width="30.000013239999987" height="30.00002147999993" class="text">the </text>
<text x="425.99999836" y="536.00001642" width="57.00002340000003" height="30.00002147999993" class="text">nature</text>
<text x="483.99999352" y="536.00001642" width="9.000009239999997" height="30.00002147999993" class="text">, </text>
<text x="499.00000892" y="536.00001642" width="67.99997615999996" height="30.00002147999993" class="text">sources </text>
<text x="577.00001876" y="536.00001642" width="29.999978120000037" height="30.00002147999993" class="text">and </text>
<text x="615.0000167999999" y="536.00001642" width="68.99996548000013" height="30.00002147999993" class="text">content </text>
<text x="689.9999884399999" y="536.00001642" width="22.00001087999999" height="30.00002147999993" class="text">of </text>
<text x="719.99998412" y="536.00001642" width="25.000031519999993" height="30.00002147999993" class="text">the </text>
<text x="752.9999828800001" y="536.00001642" width="78.00000983999996" height="30.00002147999993" class="text">political </text>
<text x="837.00001644" y="536.00001642" width="106.00002688000006" height="30.00002147999993" class="text">propaganda </text>
<text x="950.99997544" y="536.00001642" width="116.9999796400001" height="30.00002147999993" class="text">disseminated </text>
<text x="1080.9999742799998" y="536.00001642" width="17.000011600000107" height="30.00002147999993" class="text">or </text>
<text x="1106.99999512" y="536.00001642" width="97.00003519999996" height="30.00002147999993" class="text">distributed </text>
<text x="1212.00005024" y="536.00001642" width="21.999905520000084" height="30.00002147999993" class="text">by </text>
<text x="1242.9999474400001" y="536.00001642" width="44.000021759999754" height="30.00002147999993" class="text">them</text>
<text x="1290.99997916" y="536.00001642" width="8.999991679999766" height="30.00002147999993" class="text">. </text>
<text x="1308.00000832" y="536.00001642" width="39.0000224800001" height="30.00002147999993" class="text">This </text>
<text x="1353.9999736" y="536.00001642" width="58.999984480000194" height="30.00002147999993" class="text">report </text>
<text x="1416.99996804" y="536.00001642" width="17.00001159999988" height="30.00002147999993" class="text">is </text>
<text x="1443.99996064" y="536.00001642" width="76.0000136399999" height="30.00002147999993" class="text">available </text>
<text x="1532.99997592" y="536.00001642" width="11.000058119999949" height="30.00002147999993" class="text">to </text>
<text x="1554.9999868" y="536.00001642" width="30.000030799999877" height="30.00002147999993" class="text">the </text>
<text x="1593.00003752" y="536.00001642" width="56.999935599999844" height="30.00002147999993" class="text">public</text>
<text x="1651.00005024" y="536.00001642" width="8.999991679999766" height="30.00002147999993" class="text">.
</text>
<text x="101.999997604" y="593.0000208" width="56.000000716" height="30.000021479999987" class="text">Public </text>
<text x="164.00000096800002" y="593.0000208" width="87.99999435199999" height="30.000021479999987" class="text">Reporting </text>
<text x="261.00000456" y="593.0000208" width="62.99999444000002" height="30.000021479999987" class="text">Burden</text>
<text x="328.00000896" y="593.0000208" width="8.999991679999994" height="30.000021479999987" class="text">. </text>
<text x="339.0000144" y="593.0000208" width="55.99999896000003" height="30.000021479999987" class="text">Public </text>
<text x="402.99999816" y="593.0000208" width="80.99999535999996" height="30.000021479999987" class="text">reporting </text>
<text x="488.99997524" y="593.0000208" width="64.00003643999992" height="30.000021479999987" class="text">burden </text>
<text x="559.00001784" y="593.0000208" width="25.999968159999867" height="30.000021479999987" class="text">for </text>
<text x="588.99999596" y="593.0000208" width="31.000020120000045" height="30.000021479999987" class="text">this </text>
<text x="627.0000115600001" y="593.0000208" width="87.99997327999995" height="30.000021479999987" class="text">collection </text>
<text x="723.99999408" y="593.0000208" width="17.000011599999993" height="30.000021479999987" class="text">of </text>
<text x="747.0000294" y="593.0000208" width="102.99993599999993" height="30.000021479999987" class="text">information </text>
<text x="858.00000288" y="593.0000208" width="11.000005439999995" height="30.000021479999987" class="text">is </text>
<text x="877.00002824" y="593.0000208" width="82.99993887999995" height="30.000021479999987" class="text">estimated </text>
<text x="967.00001528" y="593.0000208" width="17.000011600000107" height="30.000021479999987" class="text">to </text>
<text x="990.99996968" y="593.0000208" width="66.00003263999997" height="30.000021479999987" class="text">average </text>
<text x="1071.99996504" y="593.0000208" width="9.000009239999827" height="30.000021479999987" class="text">5 </text>
<text x="1085.9999559999999" y="593.0000208" width="51.00006991999999" height="30.000021479999987" class="text">hours </text>
<text x="1143.99996872" y="593.0000208" width="30.000030800000104" height="30.000021479999987" class="text">per </text>
<text x="1177.00002016" y="593.0000208" width="76.99998540000001" height="30.000021479999987" class="text">response</text>
<text x="1254.99997732" y="593.0000208" width="9.000009240000054" height="30.000021479999987" class="text">, </text>
<text x="1267.0000247599999" y="593.0000208" width="82.99993887999995" height="30.000021479999987" class="text">including </text>
<text x="1358.99995532" y="593.0000208" width="24.000077319999946" height="30.000021479999987" class="text">the </text>
<text x="1392.00002432" y="593.0000208" width="41.999955320000026" height="30.000021479999987" class="text">time </text>
<text x="1439.99995068" y="593.0000208" width="25.000049079999826" height="30.000021479999987" class="text">for </text>
<text x="1468.00003796" y="593.0000208" width="86.99994883999989" height="30.000021479999987" class="text">reviewing </text>
<text x="1560.99995784" y="593.0000208" width="108.00009332000013" height="30.000021479999987" class="text">instructions</text>
<text x="1669.00005116" y="593.0000208" width="8.999991679999994" height="30.000021479999987" class="text">,
</text>
<text x="99.999999648" y="618.99999084" width="89.00000123200002" height="28.000018530000034" class="text">searching </text>
<text x="198.99999943999998" y="618.99999084" width="67.99999371999999" height="28.000018530000034" class="text">existing </text>
<text x="277.99999859999997" y="618.99999084" width="32.00000944000004" height="28.000018530000034" class="text">data </text>
<text x="322.99999212" y="618.99999084" width="65.99999752000002" height="28.000018530000034" class="text">sources</text>
<text x="392.9999996" y="618.99999084" width="8.000002359999996" height="28.000018530000034" class="text">, </text>
<text x="406.0000188" y="618.99999084" width="84.9999702" height="28.000018530000034" class="text">gathering </text>
<text x="499.00000892" y="618.99999084" width="31.000002559999984" height="28.000018530000034" class="text">and </text>
<text x="546.0000162" y="618.99999084" width="101.99996423999994" height="28.000018530000034" class="text">maintaining </text>
<text x="658.00001412" y="618.99999084" width="26.99999260000004" height="28.000018530000034" class="text">the </text>
<text x="692.0000022" y="618.99999084" width="36.00000183999998" height="28.000018530000034" class="text">data </text>
<text x="734.99999952" y="618.99999084" width="62.99999444000002" height="28.000018530000034" class="text">needed</text>
<text x="804.0000001200001" y="618.99999084" width="8.000019919999886" height="28.000018530000034" class="text">, </text>
<text x="817.99999108" y="618.99999084" width="31.000002560000098" height="28.000018530000034" class="text">and </text>
<text x="859.99999908" y="618.99999084" width="98.99999628" height="28.000018530000034" class="text">completing </text>
<text x="967.99998704" y="618.99999084" width="32.99996364000003" height="28.000018530000034" class="text">and </text>
<text x="1011.0000370399999" y="618.99999084" width="87.99992060000011" height="28.000018530000034" class="text">reviewing </text>
<text x="1106.99999512" y="618.99999084" width="27.99996435999992" height="28.000018530000034" class="text">the </text>
<text x="1142.9999794" y="618.99999084" width="85.99997708000001" height="28.000018530000034" class="text">collection </text>
<text x="1245.00001388" y="618.99999084" width="14.999962719999758" height="28.000018530000034" class="text">of </text>
<text x="1267.99999652" y="618.99999084" width="105.00005512000007" height="28.000018530000034" class="text">information</text>
<text x="1375.0000127199999" y="618.99999084" width="8.000019920000113" height="28.000018530000034" class="text">. </text>
<text x="1392.00002432" y="618.99999084" width="42.99994463999997" height="28.000018530000034" class="text">Send </text>
<text x="1443.99996064" y="618.99999084" width="92.00005348000013" height="28.000018530000034" class="text">comments </text>
<text x="1545.99999512" y="618.99999084" width="87.00005420000002" height="28.000018530000034" class="text">regarding </text>
<text x="1640.99996388" y="618.99999084" width="33.00006899999994" height="28.000018530000034" class="text">this
</text>
<text x="103.000000972" y="647.99997669" width="62.00000336400002" height="28.000018530000034" class="text">burden </text>
<text x="173.000001428" y="647.99997669" width="71.00000909200003" height="28.000018530000034" class="text">estimate </text>
<text x="253.00000219999998" y="647.99997669" width="21.00000399999999" height="28.000018530000034" class="text">or </text>
<text x="281.00000168" y="647.99997669" width="32.99998119999998" height="28.000018530000034" class="text">any </text>
<text x="321.00001348" y="647.99997669" width="47.99997903999997" height="28.000018530000034" class="text">other </text>
<text x="374.99999868" y="647.99997669" width="58.00001272000003" height="28.000018530000034" class="text">aspect </text>
<text x="443.00000996" y="647.99997669" width="14.999962719999985" height="28.000018530000034" class="text">of </text>
<text x="463.9999964" y="647.99997669" width="31.99997431999998" height="28.000018530000034" class="text">this </text>
<text x="504.99997995999996" y="647.99997669" width="89.00001528000001" height="28.000018530000034" class="text">collection </text>
<text x="604.00001136" y="647.99997669" width="16.999976479999987" height="28.000018530000034" class="text">of </text>
<text x="627.99998332" y="647.99997669" width="106.00002688000006" height="28.000018530000034" class="text">information</text>
<text x="736.00002396" y="647.99997669" width="7.999967240000046" height="28.000018530000034" class="text">, </text>
<text x="750.99998668" y="647.99997669" width="82.99999156000001" height="28.000018530000034" class="text">including </text>
<text x="841.99999816" y="647.99997669" width="107.99998796" height="28.000018530000034" class="text">suggestions </text>
<text x="953.99999608" y="647.99997669" width="28.999953679999976" height="28.000018530000034" class="text">for </text>
<text x="989.0000261600001" y="647.99997669" width="77.9999571599999" height="28.000018530000034" class="text">reducing </text>
<text x="1075.999975" y="647.99997669" width="31.000020120000045" height="28.000018530000034" class="text">this </text>
<text x="1116.99995856" y="647.99997669" width="58.00001271999986" height="28.000018530000034" class="text">burden </text>
<text x="1188.99996224" y="647.99997669" width="10.000068800000008" height="28.000018530000034" class="text">to </text>
<text x="1214.99998308" y="647.99997669" width="47.000042399999984" height="28.000018530000034" class="text">Chief</text>
<text x="1262.00002548" y="647.99997669" width="8.000019919999886" height="28.000018530000034" class="text">, </text>
<text x="1273.99995" y="647.99997669" width="112.00001548" height="28.000018530000034" class="text">Registration </text>
<text x="1394.99995716" y="647.99997669" width="39.0000224800001" height="28.000018530000034" class="text">Unit</text>
<text x="1436.00004608" y="647.99997669" width="7.999914559999979" height="28.000018530000034" class="text">, </text>
<text x="1451.0000088" y="647.99997669" width="81.99996712000006" height="28.000018530000034" class="text">Criminal </text>
<text x="1540.00002408" y="647.99997669" width="77.99995716000012" height="28.000018530000034" class="text">Division</text>
<text x="1621.00001944" y="647.99997669" width="8.000019920000113" height="28.000018530000034" class="text">, </text>
<text x="1636.99995392" y="647.99997669" width="40.00001180000004" height="28.000018530000034" class="text">U.S.
</text>
<text x="99.999999648" y="675.00000513" width="112.999990752" height="28.00001852999992" class="text">Department </text>
<text x="217.99998968" y="675.00000513" width="20.000014679999992" height="28.00001852999992" class="text">of </text>
<text x="243.00000364000002" y="675.00000513" width="60.99998067999999" height="28.00001852999992" class="text">Justice</text>
<text x="304.99999119999995" y="675.00000513" width="8.000002360000053" height="28.00001852999992" class="text">, </text>
<text x="321.00001348" y="675.00000513" width="104.99998488" height="28.00001852999992" class="text">Washington</text>
<text x="427.99999456" y="675.00000513" width="8.000002359999996" height="28.00001852999992" class="text">, </text>
<text x="445.00002372" y="675.00000513" width="38.999969799999974" height="28.00001852999992" class="text">D.C. </text>
<text x="490.999989" y="675.00000513" width="55.00002719999998" height="28.00001852999992" class="text">20530</text>
<text x="548.0000124" y="675.00000513" width="7.999967240000046" height="28.00001852999992" class="text">; </text>
<text x="560.99997892" y="675.00000513" width="33.000016319999986" height="28.00001852999992" class="text">and </text>
<text x="602.00001516" y="675.00000513" width="15.999987160000046" height="28.00001852999992" class="text">to </text>
<text x="627.99998332" y="675.00000513" width="26.99999260000004" height="28.00001852999992" class="text">the </text>
<text x="663.9999676" y="675.00000513" width="58.00001271999997" height="28.00001852999992" class="text">Office </text>
<text x="728.9999758" y="675.00000513" width="21.000039119999997" height="28.00001852999992" class="text">of </text>
<text x="756.00002108" y="675.00000513" width="104.99994976000005" height="28.00001852999992" class="text">Information </text>
<text x="873.00001828" y="675.00000513" width="31.000002559999984" height="28.00001852999992" class="text">and </text>
<text x="913.0000125199999" y="675.00000513" width="100.99995736000005" height="28.00001852999992" class="text">Regulatory </text>
<text x="1021.9999897999999" y="675.00000513" width="62.99999444000014" height="28.00001852999992" class="text">Affairs</text>
<text x="1085.9999559999999" y="675.00000513" width="8.000019920000113" height="28.00001852999992" class="text">, </text>
<text x="1101.00002408" y="675.00000513" width="58.000012720000086" height="28.00001852999992" class="text">Office </text>
<text x="1167.00005672" y="675.00000513" width="19.999944440000036" height="28.00001852999992" class="text">of </text>
<text x="1191.00001112" y="675.00000513" width="121.00000716" height="28.00001852999992" class="text">Management </text>
<text x="1317.0" y="675.00000513" width="35.00001251999993" height="28.00001852999992" class="text">and </text>
<text x="1362.99996528" y="675.00000513" width="65.00006088000009" height="28.00001852999992" class="text">Budget</text>
<text x="1424.99998796" y="675.00000513" width="8.000019920000113" height="28.00001852999992" class="text">, </text>
<text x="1438.00000716" y="675.00000513" width="107.99998796" height="28.00001852999992" class="text">Washington</text>
<text x="1548.0000440000001" y="675.00000513" width="7.999914559999979" height="28.00001852999992" class="text">, </text>
<text x="1564.9999678" y="675.00000513" width="39.0000224800001" height="28.00001852999992" class="text">D.C. </text>
<text x="1611.00003844" y="675.00000513" width="58.999984479999966" height="28.00001852999992" class="text">20503</text>
<text x="1667.99995648" y="675.00000513" width="8.000037479999946" height="28.00001852999992" class="text">.
</text>
<text x="114.000004656" y="734.00003523" width="28.000001236000017" height="30.000044249999974" class="text">1. </text>
<text x="151.000004596" y="735.9999926400001" width="68.99998128400003" height="32.000001660000066" class="text">Name </text>
<text x="230.99999131999996" y="735.9999926400001" width="27.999999480000014" height="29.999975940000127" class="text">of </text>
<text x="266.00000384" y="739.0000084499999" width="108.99999484" height="32.999991749999936" class="text">registrant
</text>
<text x="157.99999832" y="777.99998628" width="82.00000223999999" height="26.99996013000009" class="text">JETRO </text>
<text x="256.00000528000004" y="777.99998628" width="47.00000727999998" height="26.99996013000009" class="text">New </text>
<text x="328.00000896" y="777.99998628" width="64.99999064000002" height="26.99996013000009" class="text">York
</text>
<text x="1231.00002292" y="739.0000084499999" width="23.99995439999998" height="32.00000165999984" class="text">2. </text>
<text x="1262.00002548" y="739.0000084499999" width="136.9999416400001" height="34.00002737999989" class="text">Registration </text>
<text x="1410.999997" y="738.00004113" width="49.99999279999997" height="32.00002443000005" class="text">No.
</text>
<text x="1260.99994836" y="781.0000020900001" width="67.00000440000008" height="28.000018530000034" class="text">1643
</text>
<text x="114.999995732" y="840.00003219" width="31.000007828000008" height="34.00005014999988" class="text">3. </text>
<text x="151.000004596" y="840.00003219" width="77.99999052399997" height="34.00005014999988" class="text">Nature </text>
<text x="241.99999676" y="840.00003219" width="24.999996399999986" height="34.00005014999988" class="text">of </text>
<text x="277.99999859999997" y="840.00003219" width="95.00000388000001" height="34.00005014999988" class="text">material </text>
<text x="378.99999108" y="840.00003219" width="9.999998560000051" height="34.00005014999988" class="text">(</text>
<text x="391.99999271999997" y="840.00003219" width="10.000016120000055" height="34.00005014999988" class="text">A </text>
<text x="415.99998224" y="840.00003219" width="86.00001220000001" height="34.00005014999988" class="text">concise </text>
<text x="508.99998991999996" y="840.00003219" width="95.00002144000007" height="34.00005014999988" class="text">account </text>
<text x="611.99999616" y="840.00003219" width="26.000003279999987" height="34.00005014999988" class="text">of </text>
<text x="644.99999492" y="840.00003219" width="34.00000564000004" height="34.00005014999988" class="text">the </text>
<text x="685.99997848" y="840.00003219" width="76.00001364000002" height="34.00005014999988" class="text">nature </text>
<text x="772.99999756" y="840.00003219" width="24.999996399999986" height="34.00005014999988" class="text">of </text>
<text x="804.0000001200001" y="840.00003219" width="38.999987359999864" height="34.00005014999988" class="text">the </text>
<text x="848.9999936400001" y="840.00003219" width="140.00003252" height="34.00005014999988" class="text">propaganda </text>
<text x="1002.0000278" y="840.00003219" width="98.00002452000012" height="34.00005014999988" class="text">material </text>
<text x="1107.99996688" y="840.00003219" width="47.00004239999976" height="34.00005014999988" class="text">filed</text>
<text x="1156.99997036" y="840.00003219" width="10.000086360000068" height="34.00005014999988" class="text">)
</text>
<text x="171.99999806" y="886.00000896" width="171.99999806" height="33.99998183999992" class="text">Newsletter </text>
<text x="359.00001152" y="886.00000896" width="50.99998212000003" height="33.99998183999992" class="text">for </text>
<text x="430.00000832" y="886.00000896" width="132.99996679999992" height="33.99998183999992" class="text">Japanese </text>
<text x="582.00000048" y="886.00000896" width="121.00000715999988" height="33.99998183999992" class="text">Economy </text>
<text x="723.00000476" y="886.00000896" width="47.99997903999997" height="33.99998183999992" class="text">and </text>
<text x="790.99999848" y="886.00000896" width="136.000005" height="33.99998183999992" class="text">Business
</text>
<text x="111.999999676" y="970.00001901" width="38.000001552" height="31.00001156999997" class="text">4. </text>
<text x="156.00000563199998" y="970.00001901" width="48.999999968000026" height="30.000021479999873" class="text">Title </text>
<text x="217.00000036" y="970.00001901" width="23.000000199999988" height="29.000054159999877" class="text">of </text>
<text x="253.00000219999998" y="972.99998928" width="90.99999392000001" height="32.00002442999994" class="text">material</text>
<text x="346.00000988" y="971.9999991899999" width="8.999991679999994" height="28.999985849999916" class="text">, </text>
<text x="363.00000392" y="972.99998928" width="17.999983359999987" height="29.00000862000013" class="text">if </text>
<text x="391.0000034" y="975.000015" width="37.99999803999998" height="31.00003434000007" class="text">any
</text>
<text x="153.999998896" y="1020.00000168" width="82.000009264" height="34.00002737999989" class="text">Focus </text>
<text x="259.99999768000004" y="1020.00000168" width="78.00000983999996" height="34.00002737999989" class="text">Japan </text>
<text x="363.00000392" y="1020.00000168" width="9.999998559999995" height="34.00002737999989" class="text">(</text>
<text x="378.00001932" y="1020.00000168" width="149.99999595999998" height="34.00002737999989" class="text">September </text>
<text x="553.00001168" y="1020.00000168" width="65.99996240000007" height="34.00002737999989" class="text">1993</text>
<text x="622.0000122800001" y="1020.00000168" width="9.999980999999934" height="34.00002737999989" class="text">)
</text>
<text x="937.9999562400001" y="974.00002491" width="29.000059039999883" height="32.00000165999995" class="text">5. </text>
<text x="986.9999597199999" y="974.00002491" width="70.00004260000014" height="32.00000165999995" class="text">Name </text>
<text x="1064.00005048" y="974.00002491" width="22.99998263999987" height="32.00000165999995" class="text">of </text>
<text x="1093.0000041600001" y="974.00002491" width="77.9999571599999" height="32.00000165999995" class="text">foreign </text>
<text x="1182.00001944" y="974.00002491" width="103.99997800000006" height="32.00000165999995" class="text">principal </text>
<text x="1290.99997916" y="974.00002491" width="24.000059759999886" height="32.00000165999995" class="text">on </text>
<text x="1322.99997104" y="974.00002491" width="75.00002431999997" height="32.00000165999995" class="text">whose </text>
<text x="1406.0000152799998" y="974.00002491" width="71.00001436000025" height="32.00000165999995" class="text">behalf </text>
<text x="1483.99997244" y="974.00002491" width="40.99998355999992" height="32.00000165999995" class="text">this </text>
<text x="1536.00001412" y="974.00002491" width="90.99995880000006" height="32.00000165999995" class="text">material </text>
<text x="1631.9999722" y="974.00002491" width="40.999983560000146" height="32.00000165999995" class="text">was
</text>
<text x="988.0000544" y="1001.99997513" width="125.99997132000021" height="25.999970040000107" class="text">transmitted</text>
<text x="1120.99996852" y="1001.99997513" width="7.000048160000006" height="25.999970040000107" class="text">.
</text>
<text x="946.9999654799999" y="1054.99997361" width="79.00003427999991" height="30.999966029999996" class="text">Japan </text>
<text x="1048.9999824000001" y="1056.99999933" width="141.00005695999994" height="32.999991749999936" class="text">External </text>
<text x="1208.0000402800001" y="1056.99999933" width="82.99993887999995" height="32.00000166000018" class="text">Trade </text>
<text x="1308.9999800800001" y="1057.99998942" width="203.0000620799999" height="32.99999175000016" class="text">Organization
</text>
<text x="114.999995732" y="1135.99996785" width="29.00000284800001" height="25.999970040000107" class="text">6. </text>
<text x="150.000001228" y="1135.99996785" width="78.99999389199996" height="25.999970040000107" class="text">Means </text>
<text x="238.00000436" y="1135.99996785" width="23.999989520000042" height="25.999970040000107" class="text">of </text>
<text x="271.00000312000003" y="1135.99996785" width="142.00001115999993" height="25.999970040000107" class="text">transmission
</text>
<text x="649.00000488" y="1135.99996785" width="18.99999023999999" height="26.99996013000009" class="text">7. </text>
<text x="674.99997304" y="1135.99996785" width="67.00000439999997" height="26.99996013000009" class="text">Dates </text>
<text x="752.9999828800001" y="1137.00002625" width="24.999996399999986" height="27.00002844000005" class="text">of </text>
<text x="784.000003" y="1138.00001634" width="143.00000048000004" height="29.000008620000017" class="text">transmission
</text>
<text x="1160.00000856" y="1141.99993116" width="23.999954400000206" height="30.99994326000001" class="text">8. </text>
<text x="1195.00002108" y="1141.99993116" width="54.00000276000014" height="30.99994326000001" class="text">Total </text>
<text x="1260.99994836" y="1141.99993116" width="69.00005327999997" height="31.999933349999992" class="text">copies </text>
<text x="1340.9999544" y="1140.99996384" width="125.00001711999994" height="31.99995611999998" class="text">transmitted
</text>
<text x="152.999997284" y="1185.00002874" width="69.00000235600001" height="27.000073980000025" class="text">Mail
</text>
<text x="649.9999942" y="1189.99995642" width="120.00001784000006" height="29.999907630000052" class="text">October </text>
<text x="795.00000844" y="1188.99996633" width="8.00001992" height="27.99992744999986" class="text">1</text>
<text x="812.00002004" y="1188.99996633" width="7.999967240000046" height="27.99992744999986" class="text">, </text>
<text x="846.0000081200001" y="1189.99995642" width="63.999983759999964" height="28.999917539999842" class="text">1993
</text>
<text x="1254.99997732" y="1189.99995642" width="53.000031000000035" height="27.999950220000073" class="text">317
</text>
<text x="113.000003044" y="1238.999949" width="30.999995536000014" height="27.999927450000087" class="text">9. </text>
<text x="150.000001228" y="1238.999949" width="48.00000889200001" height="27.999927450000087" class="text">List </text>
<text x="207.99999112" y="1238.999949" width="109.0000124" height="27.999927450000087" class="text">addresses </text>
<text x="330.00000516" y="1238.999949" width="50.99998211999997" height="27.999927450000087" class="text">from </text>
<text x="391.99999271999997" y="1238.999949" width="65.99997996000002" height="27.999927450000087" class="text">which </text>
<text x="476.99999804" y="1238.999949" width="93.99999700000006" height="27.999927450000087" class="text">material </text>
<text x="577.99999052" y="1238.999949" width="44.000021760000095" height="27.999927450000087" class="text">was </text>
<text x="631.00002152" y="1238.999949" width="123.99997511999993" height="27.999927450000087" class="text">transmitted</text>
<text x="759.99997836" y="1238.999949" width="8.00001992" height="27.999927450000087" class="text">:
</text>
<text x="936.99998448" y="1237.99995891" width="44.000021760000095" height="27.999927450000087" class="text">10. </text>
<text x="986.9999597199999" y="1237.99995891" width="48.00003172000015" height="27.999927450000087" class="text">List </text>
<text x="1048.00001064" y="1237.99995891" width="59.999956240000074" height="27.999927450000087" class="text">states </text>
<text x="1121.99995784" y="1237.99995891" width="39.99999423999998" height="27.999927450000087" class="text">and </text>
<text x="1181.00003012" y="1237.99995891" width="110.99992079999993" height="27.999927450000087" class="text">territories </text>
<text x="1307.000019" y="1237.99995891" width="26.000020839999934" height="27.999927450000087" class="text">of </text>
<text x="1344.99998192" y="1237.99995891" width="33.00005144000011" height="27.999927450000087" class="text">the </text>
<text x="1393.9999854" y="1237.99995891" width="75.99999607999985" height="27.999927450000087" class="text">United </text>
<text x="1491.0000206" y="1237.99995891" width="62.000005120000196" height="27.999927450000087" class="text">States </text>
<text x="1564.9999678" y="1237.99995891" width="21.00002156000005" height="27.999927450000087" class="text">to </text>
<text x="1602.00004676" y="1237.99995891" width="67.99997615999996" height="27.999927450000087" class="text">which
</text>
<text x="993.00003612" y="1274.00003478" width="92.99991987999988" height="27.000073980000025" class="text">material </text>
<text x="1091.0000430799998" y="1274.00003478" width="45.99998284000003" height="27.000073980000025" class="text">was </text>
<text x="1146.0000175999999" y="1274.00003478" width="125.00001712000017" height="27.000073980000025" class="text">transmitted</text>
<text x="1277.9999775200001" y="1274.00003478" width="8.000019919999886" height="27.000073980000025" class="text">:
</text>
<text x="137.000004856" y="1289.00006829" width="80.999984824" height="27.00009675000001" class="text">JETRO </text>
<text x="235.00000128000002" y="1289.00006829" width="49.9999928" height="27.00009675000001" class="text">New </text>
<text x="309.00000116" y="1289.00006829" width="61.999987559999965" height="27.00009675000001" class="text">York
</text>
<text x="136.000001488" y="1322.00006004" width="67.000007912" height="26.00010666000003" class="text">1221 </text>
<text x="222.99998896" y="1322.00006004" width="97.00001764000001" height="26.00010666000003" class="text">Avenue </text>
<text x="341.99998236" y="1322.00006004" width="29.000006359999986" height="26.00010666000003" class="text">of </text>
<text x="394.00000647999997" y="1322.00006004" width="47.99997904000003" height="26.00010666000003" class="text">the </text>
<text x="461.00001088" y="1322.00006004" width="132.99998435999998" height="26.00010666000003" class="text">Americas
</text>
<text x="134.99999812" y="1356.00004188" width="46.000000400000005" height="27.00009675000001" class="text">New </text>
<text x="200.99999563999998" y="1356.00004188" width="65.99999752" height="27.00009675000001" class="text">York</text>
<text x="275.00001308000003" y="1356.00004188" width="8.00000235999994" height="27.00009675000001" class="text">, </text>
<text x="303.99998432" y="1356.00004188" width="35.00003007999999" height="27.00009675000001" class="text">NY </text>
<text x="379.99999796000003" y="1355.00005179" width="77.00000296000002" height="26.00010666000003" class="text">10020
</text>
<text x="926.00003172" y="1325.9999976299998" width="192.99999328" height="27.999950219999846" class="text">Connecticut </text>
<text x="1150.99999932" y="1322.00006004" width="45.99998284000003" height="22.000032450000162" class="text">New </text>
<text x="1221.0000419199998" y="1324.0000174499999" width="63.99996620000002" height="23.999989859999914" class="text">York </text>
<text x="1322.99997104" y="1324.0000174499999" width="221.00006299999995" height="23.999989859999914" class="text">Massachusetts
</text>
<text x="923.9999652799999" y="1363.00006359" width="170.99998240000002" height="32.999991749999936" class="text">Washington </text>
<text x="1115.9999868" y="1364.00003091" width="35.00001251999993" height="32.999991749999936" class="text">DC </text>
<text x="1186.0000294" y="1365.000021" width="135.99995232000015" height="33.99998183999992" class="text">Maryland </text>
<text x="1357.0000118" y="1358.99998938" width="80.99999535999996" height="25.99997003999988" class="text">North </text>
<text x="1464.9999997599998" y="1360.9999467900002" width="134.00000880000016" height="27.999927450000087" class="text">Carolina
</text>
<text x="927.00000348" y="1398.00001275" width="202.99997428000006" height="32.999991749999936" class="text">Pennsylvania </text>
<text x="1164.99999028" y="1398.00001275" width="48.000031719999924" height="31.000034340000184" class="text">New </text>
<text x="1240.0000146" y="1399.99997016" width="96.99992984000005" height="32.99999175000016" class="text">Jersey </text>
<text x="1373.00005164" y="1400.99996025" width="139.99997983999992" height="32.999991749999936" class="text">Kentucky
</text>
<text x="927.9999752400001" y="1430.00001441" width="150.00006619999976" height="32.999991749999936" class="text">Tennessee </text>
<text x="1116.99995856" y="1431.99999459" width="134.00000879999993" height="32.999991749999936" class="text">Virginia </text>
<text x="1290.0000074" y="1426.99993029" width="119.00004608000017" height="25.999970040000107" class="text">Florida </text>
<text x="1446.0000270799999" y="1430.00001441" width="118.99994072000004" height="28.000064070000008" class="text">Vermont
</text>
<text x="923.9999652799999" y="1464.99998634" width="46.000088200000164" height="33.99998183999992" class="text">New </text>
<text x="994.00000788" y="1468.00007046" width="136.99994163999997" height="36.000075870000046" class="text">Hampshie </text>
<text x="1160.9999803199998" y="1466.9999437499998" width="71.99998612000013" height="32.999991749999936" class="text">West </text>
<text x="1250.99996736" y="1466.9999437499998" width="136.0000752399999" height="32.999991749999936" class="text">Virginia </text>
<text x="1425.9999597199999" y="1466.9999437499998" width="137.00004700000022" height="32.999991749999936" class="text">Delaware
</text>
<text x="927.00000348" y="1493.00005041" width="80.00002359999996" height="26.000106660000256" class="text">Rhode </text>
<text x="1030.9999814799999" y="1495.00003059" width="99.99996804000011" height="26.99996013000009" class="text">Island
</text>
<text x="936.99998448" y="1544.99999049" width="44.000021760000095" height="33.99995906999993" class="text">12. </text>
<text x="988.0000544" y="1544.99999049" width="44.99999352000009" height="33.99995906999993" class="text">List </text>
<text x="1048.9999824000001" y="1545.99998058" width="71.9999861199999" height="33.99998183999992" class="text">names </text>
<text x="1141.0000358799998" y="1545.99998058" width="38.99991712000019" height="33.99998183999992" class="text">and </text>
<text x="1199.00003104" y="1546.9999706699998" width="108.99997727999994" height="34.999971929999674" class="text">addresses </text>
<text x="1327.99995276" y="1546.9999706699998" width="25.000049080000053" height="33.99998183999992" class="text">of </text>
<text x="1369.00004168" y="1546.9999706699998" width="90.99995879999983" height="33.99998183999992" class="text">persons </text>
<text x="1473.99999144" y="1546.9999706699998" width="25.000049080000053" height="33.99998183999992" class="text">or </text>
<text x="1518.99998496" y="1548.99992808" width="153.99997080000026" height="35.999939250000125" class="text">organizations
</text>
<text x="985.9999879600001" y="1584.00003663" width="102.0000169199999" height="37.000065960000256" class="text">receiving </text>
<text x="1105.00003404" y="1584.00003663" width="36.00000183999987" height="37.000065960000256" class="text">100 </text>
<text x="1150.99999932" y="1584.00003663" width="73.99994719999995" height="37.000065960000256" class="text">copies </text>
<text x="1236.00000464" y="1584.00003663" width="27.999981919999982" height="37.000065960000256" class="text">or </text>
<text x="1280.0000264" y="1584.00003663" width="53.000013439999975" height="37.000065960000256" class="text">more</text>
<text x="1333.00003984" y="1584.00003663" width="10.999952760000042" height="37.000065960000256" class="text">:
</text>
<text x="99.000003304" y="1545.99998058" width="39.99999423999999" height="32.00000165999995" class="text">11. </text>
<text x="153.999998896" y="1545.99998058" width="64.999997664" height="32.00000165999995" class="text">Types </text>
<text x="227.00001648000003" y="1545.99998058" width="28.99998880000001" height="32.00000165999995" class="text">of </text>
<text x="264.00000764" y="1545.99998058" width="106.99998108" height="32.00000165999995" class="text">recipients </text>
<text x="384.99999724" y="1545.99998058" width="9.00000923999994" height="32.00000165999995" class="text">(</text>
<text x="396.00000267999997" y="1545.99998058" width="51.000017240000034" height="32.00000165999995" class="text">Give </text>
<text x="454.00001540000005" y="1545.99998058" width="87.99999084000001" height="32.00000165999995" class="text">number </text>
<text x="553.00001168" y="1545.99998058" width="28.999988800000096" height="32.00000165999995" class="text">of </text>
<text x="584.9999859999999" y="1545.99998058" width="156.99999144000003" height="32.00000165999995" class="text">organizations
</text>
<text x="148.999999616" y="1578.00000501" width="20.000002388000013" height="33.00001451999992" class="text">in </text>
<text x="182.00000540000002" y="1578.99997233" width="52.99999588" height="32.999991749999936" class="text">each </text>
<text x="247.0000136" y="1580.99995251" width="65.99997996000002" height="32.999991749999936" class="text">group</text>
<text x="317.00000352" y="1580.99995251" width="9.999998559999995" height="30.999897719999808" class="text">)
</text>
<text x="1009.9999423600001" y="1666.0000209599998" width="68.00009907999981" height="25.99997003999988" class="text">None
</text>
<text x="272.00001" y="1626.99999759" width="28.999988799999983" height="25.999970040000107" class="text">10
</text>
<text x="99.000003304" y="1642.99999842" width="106.000002296" height="25.999970040000335" class="text">Libraries
</text>
<text x="307.00000496" y="1666.0000209599998" width="8.999991679999994" height="31.00003433999973" class="text">7 </text>
<text x="339.0000144" y="1666.0000209599998" width="49.999975240000026" height="32.000001659999725" class="text">Org</text>
<text x="394.00000647999997" y="1665.00003087" width="8.99999168000005" height="31.00001156999997" class="text">. </text>
<text x="425.99999836" y="1665.00003087" width="28.999988799999983" height="31.00001156999997" class="text">34
</text>
<text x="96.999996568" y="1677.99994758" width="73.999998124" height="27.999927450000087" class="text">Public </text>
<text x="182.00000540000002" y="1677.99994758" width="102.99998868" height="27.999927450000087" class="text">officials_
</text>
<text x="287.99999716" y="1700.0000028000002" width="11.000005439999939" height="32.00002443000017" class="text">7 </text>
<text x="321.00001348" y="1702.9999503000001" width="52.99999587999997" height="33.999981840000146" class="text">Mag</text>
<text x="378.00001932" y="1704.00005424" width="10.999970320000045" height="32.00000166000018" class="text">.
</text>
<text x="426.99998768" y="1694.9999385" width="27.00002772000005" height="24.00001263000013" class="text">30
</text>
<text x="99.000003304" y="1715.0000135399998" width="134.99999109599997" height="32.000001659999725" class="text">Newspapers
</text>
<text x="101.00000126" y="1743.9999310800001" width="55.999993692000004" height="25.999970040000107" class="text">Press </text>
<text x="171.99999806" y="1743.9999310800001" width="89.99999582000004" height="25.999970040000107" class="text">services </text>
<text x="275.00001308000003" y="1743.9999310800001" width="23.99998951999993" height="25.999970040000107" class="text">of
</text>
<text x="445.99999548" y="1764.0000061199999" width="6.999995480000052" height="24.0000126299999" class="text">5
</text>
<text x="125.99999941600001" y="1778.00004954" width="133.99999826400003" height="26.0001066599998" class="text">associations
</text>
<text x="99.000003304" y="1812.0000313799999" width="139.00000105599997" height="25.99997003999988" class="text">Educational
</text>
<text x="419.9999922" y="1832.9999371200001" width="34.000023200000044" height="25.999970040000107" class="text">45
</text>
<text x="123.00000511600001" y="1845.99999045" width="125.999987124" height="25.99997003999988" class="text">institutions
</text>
<text x="101.00000126" y="1878.9999822" width="56.99999706" height="25.999970040000107" class="text">Civic
</text>
<text x="286.99999028" y="1872.9999505800001" width="203.00002695999996" height="32.99999175000016" class="text">Associations </text>
<text x="526.99999084" y="1865.9999288699998" width="31.000002559999984" height="23.999853239999766" class="text">33
</text>
<text x="197.00000323999998" y="1885.00003659" width="79.99998848000004" height="28.000086839999994" class="text">groups
</text>
<text x="96.999996568" y="1916.00004816" width="68.00000776800002" height="32.00000165999995" class="text">Other </text>
<text x="177.99999544" y="1916.00004816" width="10.000016119999998" height="30.000044249999974" class="text">(</text>
<text x="188.00001156" y="1917.00003825" width="74.99998919999999" height="32.00000165999995" class="text">specify</text>
<text x="265.00001452000004" y="1917.00003825" width="9.999998559999995" height="30.000044249999974" class="text">)-
</text>
<text x="284.00000475999997" y="1903.9999849199999" width="120.00000028000005" height="32.000001659999725" class="text">Private </text>
<text x="422.00000596" y="1902.99999483" width="50.99998212000003" height="30.000044249999974" class="text">cos</text>
<text x="479.00001180000004" y="1902.99999483" width="8.999991679999937" height="30.000044249999974" class="text">. </text>
<text x="508.99998991999996" y="1902.99999483" width="46.99998972000003" height="30.000044249999974" class="text">130</text>
<text x="562.9999751199999" y="1902.99999483" width="9.000009240000054" height="30.000044249999974" class="text">, </text>
<text x="591.9999814800001" y="1904.99997501" width="121.00000715999988" height="31.000034340000184" class="text">Private </text>
<text x="734.99999952" y="1903.9999849199999" width="78.99998160000007" height="30.000044249999974" class="text">indiv</text>
<text x="823.99999724" y="1904.99997501" width="9.000009240000054" height="29.999907630000052" class="text">. </text>
<text x="855.00001736" y="1904.99997501" width="27.999964360000035" height="29.999907630000052" class="text">30
</text>
<text x="1303.0000090400001" y="1726.99994016" width="39.00004003999993" height="145.9999876500001" class="text">ISTRATION </text>
<text x="1308.00000832" y="1806.99996708" width="35.999984280000035" height="66.99997359000008" class="text">UNIT
</text>
<text x="1505.0000115599998" y="1805.00000967" width="37.99994536000031" height="131.99996699999997" class="text">DIVISION
</text>
<text x="1530.0000430799998" y="1795.00004046" width="49.99999279999997" height="129.00001950000023" class="text">JUSTICE
</text>
<text x="1545.99999512" y="2097.00000774" width="43.00003244000004" height="17.99995824000007" class="text">FORM </text>
<text x="1602.00004676" y="2097.99999783" width="31.999974319999865" height="17.99995824000007" class="text">CRM</text>
<text x="1642.000041" y="2097.99999783" width="4.999999280000111" height="17.99995824000007" class="text">-</text>
<text x="1647.0000402800001" y="2097.99999783" width="19.999944440000036" height="17.99995824000007" class="text">159
</text>
<text x="1609.99996132" y="2120.00003028" width="29.000059039999996" height="19.000084949999746" class="text">SEP</text>
<text x="1639.99999212" y="2120.00003028" width="4.999981720000051" height="19.000084949999746" class="text">. </text>
<text x="1651.00005024" y="2120.00003028" width="16.999906239999973" height="19.000084949999746" class="text">89
</text>
</g>
<g id="page-1" transform="translate(0, 2297)">
<rect width="1756" height="2277" fill="none" stroke="black" />
<text x="109.999994696" y="146.000005866" width="44.00000419999999" height="31.000007015999998" class="text">13. </text>
<text x="162.99999935600002" y="146.000005866" width="16.999992283999973" height="31.000007015999998" class="text">If </text>
<text x="190.99999708" y="145.000006668" width="35.000012519999984" height="31.00000929299999" class="text">the </text>
<text x="240.99998988000002" y="146.000005866" width="92.00000079999998" height="33.000007689" class="text">material </text>
<text x="340.00000372" y="145.000006668" width="123.00000336" height="33.00000996599999" class="text">transmitted </text>
<text x="479.00001180000004" y="144.00000519300002" width="39.99999423999998" height="32.00000849100002" class="text">was </text>
<text x="531.0000008" y="143.000005995" width="8.999991679999994" height="31.000009293000005" class="text">a </text>
<text x="557.00002164" y="143.000005995" width="40.99998355999992" height="31.000009293000005" class="text">film </text>
<text x="613.9999923600001" y="143.000005995" width="22.99998263999987" height="31.000009293000005" class="text">or </text>
<text x="649.9999942" y="141.999997689" width="53.99998520000008" height="31.00000018499999" class="text">radio </text>
<text x="719.99998412" y="141.999997689" width="21.99999331999993" height="31.00000018499999" class="text">or </text>
<text x="750.99998668" y="141.999997689" width="109.99998416000005" height="33.00000085799999" class="text">television </text>
<text x="875.99998624" y="140.999996214" width="65.99997996000002" height="31.00000018499999" class="text">script</text>
<text x="940.0000226799999" y="140.999996214" width="8.999991680000107" height="31.00000018499999" class="text">, </text>
<text x="959.99996712" y="139.99999701599998" width="76.99998540000013" height="31.000000184999976" class="text">furnish </text>
<text x="1048.9999824000001" y="139.99999701599998" width="35.00001251999993" height="31.000000184999976" class="text">the </text>
<text x="1094.9999476799999" y="139.99999701599998" width="107.00001620000012" height="32.999994026999985" class="text">following </text>
<text x="1213.99999376" y="138.999995541" width="134.00000879999993" height="32.99999175000001" class="text">information</text>
<text x="1348.9999918800002" y="138.000003174" width="8.999991679999994" height="31.000000185000005" class="text">:
</text>
<text x="941.9999662" y="205.000006365" width="51.00006991999999" height="26.00000874899999" class="text">Date </text>
<text x="1007.00002708" y="204.00000488999999" width="27.999964360000035" height="26.000006471999967" class="text">or </text>
<text x="1044.00000068" y="204.00000488999999" width="57.9999951599998" height="28.000007144999984" class="text">dates </text>
<text x="1111.00000508" y="204.00000488999999" width="111.99999792000017" height="28.000007144999984" class="text">broadcast </text>
<text x="1235.00003288" y="203.000005692" width="68.99996548000013" height="28.000009422000005" class="text">shown
</text>
<text x="108.99999835199999" y="213.00000678" width="68.999997088" height="32.00000849099999" class="text">Name </text>
<text x="189.00000088000002" y="213.00000678" width="23.000000199999988" height="32.00000849099999" class="text">of </text>
<text x="221.99999964" y="213.00000678" width="70.00000748000002" height="32.00000849099999" class="text">station</text>
<text x="297.99999572" y="213.00000678" width="9.000009239999997" height="32.00000849099999" class="text">, </text>
<text x="315.99999664" y="213.00000678" width="141.00000428000004" height="32.00000849099999" class="text">organization</text>
<text x="457.99997268" y="213.00000678" width="9.000061920000064" height="32.00000849099999" class="text">, </text>
<text x="476.00002628" y="213.00000678" width="28.999953679999976" height="32.00000849099999" class="text">or </text>
<text x="512.9999998799999" y="213.00000678" width="78.99998160000018" height="32.00000849099999" class="text">theater </text>
<text x="600.0000014" y="213.00000678" width="60.00000892000003" height="32.00000849099999" class="text">using
</text>
<text x="111.999999676" y="250.00000443" width="8.999998703999992" height="32.000013044999974" class="text">(</text>
<text x="123.00000511600001" y="250.00000443" width="100.99999072399999" height="34.00001371799999" class="text">including </text>
<text x="240.99998988000002" y="248.99999157" width="37.000008719999954" height="31.999999382999988" class="text">city </text>
<text x="289.99999336" y="248.00000147999998" width="41.00001867999998" height="32.00001076799998" class="text">and </text>
<text x="341.99998236" y="248.00000147999998" width="51.000017240000034" height="32.00001076799998" class="text">state</text>
<text x="396.999992" y="247.00001139" width="9.0000268" height="32.000003937" class="text">)
</text>
<text x="1405.00004352" y="200.00000354399998" width="111.99999791999994" height="26.000006471999967" class="text">Estimated </text>
<text x="1531.0000324" y="199.000004346" width="120.99998959999994" height="26.000006471999995" class="text">attendance
</text>
<text x="1455.99999052" y="236.99999663999998" width="9.000009239999827" height="29.999989602" class="text">(</text>
<text x="1468.00003796" y="236.99999663999998" width="29.99992543999997" height="29.999989602" class="text">for </text>
<text x="1509.99999328" y="236.99999663999998" width="44.00002176000021" height="29.999989602" class="text">film</text>
<text x="1558.000025" y="236.99999663999998" width="8.999991679999994" height="29.999989602" class="text">(</text>
<text x="1567.00001668" y="236.99999663999998" width="9.000009239999827" height="29.999989602" class="text">s</text>
<text x="1578.9999412" y="236.99999663999998" width="9.000009240000054" height="29.999989602" class="text">)</text>
<text x="1587.99995044" y="236.99999663999998" width="9.0000970399999" height="29.999989602" class="text">)
</text>
<text x="114.000004656" y="485.99998820999997" width="43.999993664" height="30.999988799999983" class="text">14. </text>
<text x="161.999995988" y="485.99998820999997" width="55.999993692000004" height="32.00000165999995" class="text">Have </text>
<text x="230.99999131999996" y="485.00002089" width="40.00001180000007" height="31.000034339999957" class="text">two </text>
<text x="283.00001543999997" y="485.00002089" width="71.99998612000002" height="32.000024429999996" class="text">copies </text>
<text x="366.00000700000004" y="484.00000802999995" width="22.999982639999985" height="31.00001156999997" class="text">of </text>
<text x="397.99998131999996" y="484.00000802999995" width="40.00001180000004" height="31.00001156999997" class="text">this </text>
<text x="454.00001540000005" y="484.00000802999995" width="92.99997255999995" height="32.99999174999999" class="text">material </text>
<text x="555.99997964" y="483.00001794" width="51.000017240000034" height="31.000034340000013" class="text">been </text>
<text x="622.99998404" y="483.00001794" width="45.000011080000036" height="32.000001660000066" class="text">filed </text>
<text x="680.000025" y="482.00000508" width="48.999950799999965" height="30.99998880000004" class="text">with </text>
<text x="743.00001944" y="482.00000508" width="33.999988080000094" height="30.99998880000004" class="text">the </text>
<text x="788.0000129599999" y="482.00000508" width="136.9999416400001" height="32.99999174999999" class="text">Department </text>
<text x="934.00005164" y="481.00001499" width="24.99994371999992" height="31.000034340000013" class="text">of </text>
<text x="967.99998704" y="481.00001499" width="75.00002431999997" height="32.00000166000001" class="text">Justice</text>
<text x="1044.99997244" y="480.00000213" width="8.999991680000221" height="30.999988799999983" class="text">?
</text>
<text x="1092.0000324" y="475.99999622999997" width="35.999984280000035" height="28.00001852999992" class="text">Yes </text>
<text x="1150.00002756" y="475.99999622999997" width="8.000019919999886" height="28.00001852999992" class="text">
</text>
<text x="1199.00003104" y="471.99999032999995" width="40.00001180000004" height="24.0000126299999" class="text">No </text>
<text x="1253.0000338" y="471.99999032999995" width="6.999942799999872" height="24.0000126299999" class="text">
</text>
<text x="110.99999630800001" y="552.00001725" width="44.00000595599998" height="31.00003434000007" class="text">15. </text>
<text x="171.99999806" y="552.00001725" width="44.00001298000001" height="31.00003434000007" class="text">Has </text>
<text x="228.99999511999997" y="551.00000439" width="39.00000492000001" height="30.999988799999983" class="text">this </text>
<text x="284.99999408" y="551.00000439" width="88.00000839999996" height="30.999988799999983" class="text">material </text>
<text x="380.99998727999997" y="551.00000439" width="52.000024120000035" height="30.999988799999983" class="text">been </text>
<text x="448.99998100000005" y="551.00000439" width="77.00002051999991" height="32.00002442999994" class="text">labeled </text>
<text x="541.00001692" y="550.0000143" width="23.00000019999993" height="31.000034339999957" class="text">as </text>
<text x="573.99998056" y="550.0000143" width="95.00003900000002" height="31.000034339999957" class="text">required </text>
<text x="683.99998228" y="549.00000144" width="22.00001087999999" height="30.999988799999983" class="text">by </text>
<text x="718.9999948000001" y="549.00000144" width="35.00003007999999" height="30.999988799999983" class="text">the </text>
<text x="761.99999212" y="549.00000144" width="36.00000183999998" height="30.999988799999983" class="text">act</text>
<text x="797.99999396" y="549.00000144" width="8.999991679999994" height="30.999988799999983" class="text">?
</text>
<text x="848.00002188" y="546.0000084000001" width="34.99995984000009" height="29.999998710000114" class="text">Yes </text>
<text x="910.9999636399999" y="544.99999554" width="8.000019920000113" height="27.999995760000047" class="text"> </text>
<text x="957.0000342799999" y="544.00000545" width="36.000001840000095" height="29.99999871" class="text">No </text>
<text x="1007.00002708" y="542.99999259" width="8.000019919999886" height="27.999995760000047" class="text">[</text>
<text x="1021.9999897999999" y="542.99999259" width="8.000019920000113" height="27.999995760000047" class="text">]
</text>
<text x="1049.99995416" y="613.00002753" width="104.00008335999996" height="29.000008620000017" class="text">Signature
</text>
<text x="111.999999676" y="617.00001066" width="49.99999631199999" height="30.000044250000087" class="text">Date </text>
<text x="175.99999924" y="618.00000075" width="24.999996399999986" height="28.000018530000034" class="text">of </text>
<text x="208.999998" y="621.0000165600001" width="72.00000368000002" height="30.000044250000087" class="text">repori
</text>
<text x="113.000003044" y="653.00001822" width="69.00000235600002" height="29.00005415999999" class="text">Oct. </text>
<text x="207.99999112" y="651.99998259" width="8.00001992" height="28.00001852999992" class="text">1</text>
<text x="223.99999584" y="651.99998259" width="8.000002359999996" height="28.00001852999992" class="text">, </text>
<text x="256.00000528000004" y="650.9999925" width="62.999994439999966" height="28.999985849999916" class="text">1993
</text>
<text x="399.99999507999996" y="610.99997904" width="67.00003952000009" height="24.99997995000001" class="text">Name </text>
<text x="481.99999732000003" y="609.99998895" width="39.000022479999984" height="23.00002254000003" class="text">and </text>
<text x="533.99998632" y="609.99998895" width="39.000022479999984" height="23.00002254000003" class="text">title
</text>
<text x="405.00001191999996" y="651.99998259" width="119.99996516000004" height="32.00002442999994" class="text">Michiro </text>
<text x="544.00000244" y="653.00001822" width="123.99999267999999" height="32.00000165999995" class="text">Hayashi
</text>
<text x="405.00001191999996" y="684.99997434" width="139.99996228000003" height="29.999975940000013" class="text">Director</text>
<text x="550.0000261600001" y="683.99998425" width="7.999967239999933" height="27.999995760000047" class="text">, </text>
<text x="580.99997604" y="683.99998425" width="100.00002072000007" height="28.99998585000003" class="text">Public </text>
<text x="700.99999388" y="683.99998425" width="120.0000354" height="29.999975940000013" class="text">Affairs
</text>
<text x="1118.00003568" y="686.0000099700001" width="10.999952760000042" height="39.00002337000001" class="text">J
</text>
<text x="1129.99997776" y="712.00000278" width="156.9999914399998" height="94.99999212" class="text">Micii </text>
<text x="1330.00000164" y="715.9999859100001" width="158.99995252000008" height="94.99996935000001" class="text">Hay
</text>
</g>
</svg>
