<svg xmlns="http://www.w3.org/2000/svg">
<style>.text { font-size: 14px; font-family: Arial, sans-serif; }</style>
<g id="page-0" transform="translate(0, 0)">
<rect width="1756" height="2277" fill="none" stroke="black" />
<text x="873.9999900400001" y="143.000005995" width="162.99996248000002" height="32.000008491" class="text">Dissemination </text>
<text x="1051.00003128" y="144.00000519300002" width="81.9999846799999" height="32.00000849100002" class="text">Report
</text>
<text x="1510.99996504" y="122.000000067" width="40.999983560000146" height="19.99999762200001" class="text">OMB </text>
<text x="1558.99999676" y="120.999998592" width="26.000020839999934" height="17.999994672" class="text">No. </text>
<text x="1593.00003752" y="120.999998592" width="67.00000439999985" height="19.999995345000002" class="text">1105-0006
</text>
<text x="1428.99999792" y="150.000007212" width="66.00003263999997" height="24.00000579900002" class="text">Approval </text>
<text x="1496.9999740800001" y="149.000008014" width="54.99997452000002" height="24.000008076" class="text">Expires </text>
<text x="1558.99999676" y="147.000007341" width="38.00005071999999" height="24.000008076000015" class="text">Nov. </text>
<text x="1599.00000856" y="146.000005866" width="17.000011600000107" height="22.00000512600002" class="text">30</text>
<text x="1617.00000948" y="145.000006668" width="7.000048160000006" height="22.000007402999998" class="text">, </text>
<text x="1630.00001112" y="146.000005866" width="32.99996364000003" height="24.000005799000007" class="text">1993
</text>
<text x="97.999999936" y="154.999991817" width="52.00000129200001" height="41.999993639999985" class="text">U.S. </text>
<text x="156.00000563199998" y="154.999991817" width="144.00000384800003" height="42.99999511499999" class="text">Department </text>
<text x="307.99999428" y="153.00000936" width="30.000013239999987" height="41.000012658" class="text">of </text>
<text x="346.00000988" y="153.00000936" width="83.99999844000001" height="42.000011856" class="text">Justice
</text>
<text x="92.99999890000001" y="200.00000354399998" width="129.99999006" height="37.00000903499998" class="text">Washington</text>
<text x="228.0000058" y="195.00000300000002" width="9.999998559999995" height="32.00000849100002" class="text">, </text>
<text x="241.99999676" y="195.00000300000002" width="42.999997320000034" height="33.00000996600002" class="text">DC </text>
<text x="297.99999572" y="193.000002327" width="70.00000748000002" height="34.000009164000005" class="text">20530
</text>
<text x="94.000002268" y="298.99999701" width="164.99998853199997" height="29.99999871" class="text">INSTRUCTIONS</text>
<text x="259.99999768000004" y="296.99999406" width="8.00000235999994" height="26.99998290000002" class="text">: </text>
<text x="275.00001308000003" y="296.99999406" width="57.999977599999966" height="28.99998585000003" class="text">Report </text>
<text x="343.99999612" y="296.00000397" width="42.00000799999998" height="29.000008620000017" class="text">must </text>
<text x="391.0000034" y="294.99999111" width="19.99999711999999" height="26.99998290000002" class="text">be </text>
<text x="422.00000596" y="294.99999111" width="86.00001220000001" height="28.999985849999973" class="text">submitted </text>
<text x="515.9999854" y="294.00002379" width="15.000015399999938" height="28.000018529999977" class="text">in </text>
<text x="539.99999248" y="294.00002379" width="78.99998160000007" height="29.000008620000017" class="text">duplicate </text>
<text x="629.99997952" y="292.00002084" width="15.000015399999938" height="27.000005670000007" class="text">to </text>
<text x="654.99997592" y="292.00002084" width="28.000034599999935" height="27.000005670000007" class="text">the </text>
<text x="687.00002048" y="292.00002084" width="106.99994595999999" height="29.000008620000017" class="text">Registration </text>
<text x="806.00001388" y="290.00001789000004" width="40.99998356000003" height="29.000008620000017" class="text">Unit</text>
<text x="844.99998368" y="289.00000503" width="8.00001992" height="27.000005670000007" class="text">, </text>
<text x="859.0000273200001" y="290.00001789000004" width="71.99998612000002" height="29.000008620000017" class="text">Internal </text>
<text x="939.00003336" y="289.00000503" width="72.99997543999996" height="29.000008620000017" class="text">Security </text>
<text x="1018.9999515999999" y="288.00001494" width="67.00000439999997" height="29.000008620000017" class="text">Section</text>
<text x="1088.00000488" y="286.00001199" width="8.000037479999946" height="27.000005670000007" class="text">, </text>
<text x="1102.9999676" y="286.00001199" width="83.00006179999991" height="28.000018530000034" class="text">Criminal </text>
<text x="1191.99998288" y="284.99999913" width="75.0000418799998" height="27.99999575999999" class="text">Division</text>
<text x="1272.00000648" y="283.99998627" width="8.000019920000113" height="26.99998290000002" class="text">, </text>
<text x="1285.99999744" y="283.99998627" width="110.0000368399999" height="28.99998585000003" class="text">Department </text>
<text x="1401.00003356" y="281.99998332" width="18.999972679999928" height="26.99998290000002" class="text">of </text>
<text x="1425.9999597199999" y="281.99998332" width="59.0000898400001" height="27.999972990000032" class="text">Justice</text>
<text x="1487.9999824000001" y="280.99999323" width="8.000019919999886" height="26.999982899999992" class="text">, </text>
<text x="1500.99998404" y="280.99999323" width="103.00000623999995" height="27.999995759999962" class="text">Washington</text>
<text x="1609.99996132" y="280.00000314" width="8.000019920000113" height="27.00000566999998" class="text">, </text>
<text x="1621.00001944" y="278.99999027999996" width="41.999955320000026" height="27.999995759999962" class="text">D.C.
</text>
<text x="97.999999936" y="327.99998286" width="63.000006732" height="28.999985849999973" class="text">20530. </text>
<text x="168.000000392" y="327.00001554" width="30.00000972800001" height="27.00000566999995" class="text">The </text>
<text x="207.99999112" y="327.00001554" width="70.99999680000002" height="29.00000861999996" class="text">original </text>
<text x="289.00000404" y="325.00001259" width="41.00000111999998" height="28.000018529999977" class="text">must </text>
<text x="333.99999756" y="325.00001259" width="25.999985719999984" height="28.000018529999977" class="text">be </text>
<text x="366.00000700000004" y="325.00001259" width="52.99999587999997" height="29.00000861999996" class="text">signed </text>
<text x="430.00000832" y="323.00000964000003" width="18.99997268000004" height="27.000005670000007" class="text">by </text>
<text x="459.99998644" y="323.00000964000003" width="19.000025360000052" height="27.000005670000007" class="text">or </text>
<text x="486.99997904" y="321.99999678" width="19.00002535999994" height="27.000005670000007" class="text">on </text>
<text x="512.9999998799999" y="323.00000964000003" width="60.00000892000003" height="28.99998585000003" class="text">behalf </text>
<text x="577.99999052" y="321.00000669" width="20.000014679999936" height="26.99998290000002" class="text">of </text>
<text x="604.00001136" y="321.00000669" width="27.000010159999988" height="26.99998290000002" class="text">the </text>
<text x="638.9999887600001" y="321.00000669" width="85.0000053199999" height="28.99998585000003" class="text">registrant</text>
<text x="725.0000185199999" y="319.00000374" width="7.999967240000046" height="26.99998290000002" class="text">. </text>
<text x="739.00000948" y="319.00000374" width="31.000002559999984" height="26.99998290000002" class="text">All </text>
<text x="774.9999937599999" y="319.00000374" width="47.00000728000009" height="28.999985849999973" class="text">items </text>
<text x="830.0000209599999" y="317.99999088" width="15.99998716000016" height="27.000005670000007" class="text">in </text>
<text x="855.00001736" y="317.00000079" width="30.000030799999877" height="26.999982899999964" class="text">this </text>
<text x="895.00002916" y="317.00000079" width="41.99995531999991" height="28.999985849999973" class="text">form </text>
<text x="950.99997544" y="315.99998793" width="39.99999424000009" height="27.999972989999947" class="text">must </text>
<text x="997.00004608" y="314.99999784" width="18.99997268000004" height="26.999982899999964" class="text">be </text>
<text x="1024.00003868" y="314.99999784" width="83.99992820000011" height="27.99999575999999" class="text">answered</text>
<text x="1111.00000508" y="313.99998497999997" width="8.000019920000113" height="26.999982899999964" class="text">, </text>
<text x="1123.00003496" y="313.99998497999997" width="56.99991804000001" height="28.999985849999973" class="text">unless </text>
<text x="1187.00000116" y="312.99999489000004" width="30.000030799999877" height="26.99998290000002" class="text">the </text>
<text x="1223.99997476" y="312.99999489000004" width="62.00002268000003" height="29.000008620000017" class="text">answer </text>
<text x="1294.99998912" y="310.99999194000003" width="14.999962719999985" height="27.000005670000007" class="text">is </text>
<text x="1316.00002824" y="310.99999194000003" width="8.000019920000113" height="27.000005670000007" class="text">"
</text>
<text x="1329.00002988" y="310.99999194000003" width="45.9999828399998" height="29.000008620000017" class="text">none</text>
<text x="1373.00005164" y="309.99997908" width="7.999914559999979" height="26.99998290000002" class="text">" </text>
<text x="1389.9999754399998" y="309.99997908" width="25.000031519999993" height="26.99998290000002" class="text">or </text>
<text x="1419.00001692" y="309.99997908" width="8.000037479999946" height="26.99998290000002" class="text">"</text>
<text x="1432.00003612" y="309.99997908" width="29.99992543999997" height="27.99999575999999" class="text">not </text>
<text x="1466.99994328" y="308.99998899" width="90.00009240000009" height="27.999995760000047" class="text">applicable</text>
<text x="1559.99996852" y="307.99997613" width="8.000019920000113" height="26.99998290000002" class="text">,</text>
<text x="1566.00004492" y="307.99997613" width="7.999914559999979" height="26.99998290000002" class="text">" </text>
<text x="1584.00004584" y="307.00000881" width="14.999962719999985" height="27.000005670000007" class="text">in </text>
<text x="1608.0000002400002" y="307.00000881" width="54.000002759999916" height="28.000018530000034" class="text">which
</text>
<text x="94.999998612" y="356.00000139" width="38.99999789600001" height="30.000021480000044" class="text">case </text>
<text x="143.99999858" y="355.0000113" width="40.00000302000001" height="29.000031390000004" class="text">such </text>
<text x="193.00001084" y="355.0000113" width="20.999986440000015" height="29.000031390000004" class="text">an </text>
<text x="225.00000271999997" y="353.99999844" width="44.999993520000004" height="28.99998585000003" class="text">entry </text>
<text x="276.99999172" y="353.99999844" width="47.999996599999974" height="30.000021480000044" class="text">shall </text>
<text x="331.00001204" y="353.00000835" width="20.999986439999986" height="27.99999575999999" class="text">be </text>
<text x="363.00000392" y="351.99999549" width="47.99999660000003" height="28.999985849999973" class="text">made </text>
<text x="419.00000288" y="351.00000539999996" width="11.000005439999995" height="27.999995759999933" class="text">in </text>
<text x="445.00002372" y="351.00000539999996" width="25.99996815999998" height="27.999995759999933" class="text">the </text>
<text x="479.00001180000004" y="351.00000539999996" width="102.99998868" height="29.999998709999943" class="text">appropriate </text>
<text x="591.00000972" y="349.99999254" width="51.000017240000034" height="29.99999871" class="text">space</text>
<text x="642.00002696" y="347.99998959" width="7.999967239999933" height="27.99999575999999" class="text">. </text>
<text x="656.0000003600001" y="347.99998959" width="16.999976479999873" height="27.99999575999999" class="text">If </text>
<text x="680.99999676" y="347.99998959" width="92.00000079999995" height="29.99999871" class="text">additional </text>
<text x="779.00000372" y="346.99999949999994" width="51.00001723999992" height="29.999998709999943" class="text">space </text>
<text x="837.9999882" y="345.99998664000003" width="17.000029160000054" height="27.999995760000047" class="text">is </text>
<text x="862.9999846" y="345.99998664000003" width="63.00004712000009" height="29.999998710000057" class="text">needed </text>
<text x="936.00001272" y="343.99998369" width="27.999964360000035" height="27.999995760000047" class="text">for </text>
<text x="968.9999588" y="343.99998369" width="31.000020120000045" height="27.999995760000047" class="text">any </text>
<text x="1008.9999706" y="343.00001637" width="42.00006068000005" height="29.00003139000006" class="text">item</text>
<text x="1051.00003128" y="343.00001637" width="7.9999321200000395" height="28.000018530000034" class="text">, </text>
<text x="1067.99995508" y="343.00001637" width="50.00008060000005" height="30.000021479999987" class="text">attach </text>
<text x="1129.99997776" y="342.00000351" width="121.99997891999988" height="31.00001156999997" class="text">supplemental 
</text>
<text x="1258.00001552" y="340.00000056" width="49.99999279999997" height="29.00000861999996" class="text">sheet </text>
<text x="1315.00003892" y="340.00000056" width="96.99994740000011" height="30.000021479999987" class="text">identifying </text>
<text x="1424.0000162000001" y="337.99999761" width="37.999945359999856" height="30.000021479999987" class="text">each </text>
<text x="1472.00004792" y="337.00000752" width="36.999973599999976" height="29.000031390000004" class="text">item</text>
<text x="1513.00003148" y="337.00000752" width="8.000019919999886" height="28.000018529999977" class="text">.
</text>
<text x="97.999999936" y="414.00001863" width="63.999996052" height="30.000021479999987" class="text">Privacy </text>
<text x="174.00000304" y="413.00000577000003" width="31.000002560000013" height="28.000018530000034" class="text">Act </text>
<text x="210.9999942" y="413.00000577000003" width="89.00001528000001" height="30.000021480000044" class="text">Statement</text>
<text x="297.99999572" y="411.00000282" width="8.000002359999996" height="28.000018530000034" class="text">. </text>
<text x="310.00000804" y="411.00000282" width="55.99999896000003" height="29.000008620000017" class="text">Every </text>
<text x="374.99999868" y="411.00000282" width="97.99998940000006" height="30.000021479999987" class="text">registration </text>
<text x="483.99999352" y="408.99999987" width="85.00000532000001" height="30.000021479999987" class="text">statement</text>
<text x="568.99999884" y="408.00000977999997" width="8.00001992" height="27.999995759999933" class="text">, </text>
<text x="580.99997604" y="408.00000977999997" width="47.00000727999998" height="29.999998709999943" class="text">short </text>
<text x="633.9999894800001" y="406.99999692" width="40.99998355999992" height="30.000021479999987" class="text">form </text>
<text x="683.99998228" y="406.99999692" width="102.00001692000001" height="30.000021479999987" class="text">registration </text>
<text x="793.99996644" y="404.99999397" width="85.99999463999995" height="29.99999871" class="text">statement</text>
<text x="879.9999610799999" y="404.00000387999995" width="8.00001992" height="27.999995759999933" class="text">, </text>
<text x="891.99999096" y="404.00000387999995" width="120.99998960000005" height="31.00001156999997" class="text">supplemental </text>
<text x="1020.0000287199999" y="402.00000093" width="87.99993816000017" height="29.99999871" class="text">statement</text>
<text x="1106.99999512" y="400.99998807000003" width="8.000019920000113" height="27.999995760000047" class="text">, </text>
<text x="1116.99995856" y="400.99998807000003" width="62.99999443999991" height="29.999998710000057" class="text">exhibit</text>
<text x="1182.9999912" y="399.99999798" width="8.000019919999886" height="27.99999575999999" class="text">, </text>
<text x="1191.00001112" y="399.99999798" width="112.99998724000011" height="29.999998709999943" class="text">amendment</text>
<text x="1303.0000090400001" y="398.0000178" width="8.000019919999886" height="28.000018529999977" class="text">, </text>
<text x="1317.0" y="398.0000178" width="121.9999789200001" height="31.000011570000026" class="text">dissemination </text>
<text x="1448.99994236" y="396.99998217" width="53.000031000000035" height="29.999975940000013" class="text">report</text>
<text x="1505.0000115599998" y="394.99997922" width="8.000019920000113" height="27.999972990000003" class="text">, </text>
<text x="1518.99998496" y="394.99997922" width="39.00004004000016" height="28.999985849999973" class="text">copy </text>
<text x="1564.9999678" y="394.99997922" width="21.00002156000005" height="28.999985849999973" class="text">of </text>
<text x="1590.99998864" y="394.99997922" width="75.99999608000007" height="29.999953170000026" class="text">political
</text>
<text x="96.000000224" y="441.99999162" width="104.99999541599998" height="29.999975940000013" class="text">propaganda </text>
<text x="207.99999112" y="439.99998867" width="21.00000399999996" height="27.999972990000003" class="text">or </text>
<text x="237.00001504" y="441.00000152999996" width="47.99997904000003" height="29.999998709999943" class="text">other </text>
<text x="289.99999336" y="439.99998867" width="90.00000460000001" height="29.999975940000013" class="text">document </text>
<text x="388.99998964" y="437.99998572000004" width="16.00002227999994" height="27.99997299000006" class="text">or </text>
<text x="411.00000052" y="437.99998572000004" width="106.00000932000006" height="29.99997594000007" class="text">information </text>
<text x="526.00000152" y="435.99998277000003" width="38.00001559999998" height="27.99997299000006" class="text">filed </text>
<text x="573.99998056" y="435.99998277000003" width="36.00000183999987" height="28.99998585000003" class="text">with </text>
<text x="620.99998784" y="434.99999268" width="28.00001703999999" height="27.99999575999999" class="text">the </text>
<text x="658.99998588" y="434.99999268" width="76.0000136399999" height="29.99999871" class="text">Attorney </text>
<text x="741.99997744" y="433.99997982" width="73.99999988000013" height="29.99997594000007" class="text">General </text>
<text x="822.00000104" y="432.99998973" width="53.000013439999975" height="29.999998709999943" class="text">under </text>
<text x="881.0000382" y="431.99997687" width="32.999963640000146" height="28.999985849999973" class="text">this </text>
<text x="919.9999553199999" y="431.00000955" width="27.000010159999988" height="28.000018529999977" class="text">act </text>
<text x="953.99999608" y="431.00000955" width="16.00005740000006" height="28.000018529999977" class="text">is </text>
<text x="976.00000696" y="430.00001946" width="8.000019920000113" height="28.000018529999977" class="text">a </text>
<text x="991.999959" y="431.00000955" width="57.000023400000146" height="30.000021479999987" class="text">public </text>
<text x="1057.9999740800001" y="430.00001946" width="54.000002759999916" height="30.000021479999987" class="text">record </text>
<text x="1120.99996852" y="428.00001650999997" width="44.00002175999998" height="29.000031389999947" class="text">open </text>
<text x="1173.0000102000001" y="428.00001650999997" width="15.999952039999926" height="28.000018529999977" class="text">to </text>
<text x="1196.99998216" y="428.00001650999997" width="54.99997452000002" height="29.999998709999943" class="text">public </text>
<text x="1262.00002548" y="427.00000365000005" width="108.99997727999994" height="30.000021480000044" class="text">examination
</text>
<text x="1374.0000234000001" y="425.00000070000004" width="8.000019919999886" height="28.000018530000034" class="text">, </text>
<text x="1384.99997616" y="425.00000070000004" width="92.00005348000013" height="28.99998585000003" class="text">inspection </text>
<text x="1485.00004956" y="424.00001061" width="31.999991879999925" height="29.000031390000004" class="text">and </text>
<text x="1527.00000488" y="424.00001061" width="72.00000367999996" height="29.99999871" class="text">copying </text>
<text x="1606.00005672" y="422.99999775000003" width="58.999984479999966" height="29.999998710000057" class="text">during
</text>
<text x="96.999996568" y="469.00002006" width="26.999997867999994" height="27.000028439999994" class="text">the </text>
<text x="133.999996508" y="469.00002006" width="55.00000437200001" height="29.000031390000004" class="text">posted </text>
<text x="198.99999943999998" y="467.99998443" width="75.00000675999999" height="28.99998585000003" class="text">business </text>
<text x="281.00000168" y="467.00001711" width="52.99999587999997" height="29.000031389999947" class="text">hours </text>
<text x="341.99998236" y="465.99998148" width="19.00000779999999" height="26.99998290000002" class="text">of </text>
<text x="367.00001388" y="465.00001416" width="26.999992599999985" height="27.000028439999937" class="text">the </text>
<text x="402.99999816" y="465.00001416" width="107.00001619999995" height="28.000018529999977" class="text">Registration </text>
<text x="521.99999156" y="463.00001120999997" width="37.00002628000004" height="27.000028439999937" class="text">Unit </text>
<text x="570.99999504" y="463.00001120999997" width="9.999980999999934" height="27.000028439999937" class="text">in </text>
<text x="593.99999524" y="463.00001120999997" width="102.00001692000001" height="29.000031389999947" class="text">Washington</text>
<text x="701.9999832000001" y="461.00000826" width="8.000019919999886" height="27.000028439999994" class="text">, </text>
<text x="716.9999986" y="461.00000826" width="42.00000799999998" height="28.000018530000034" class="text">D.C. </text>
<text x="761.00002036" y="459.99999540000005" width="37.99999804000004" height="27.000005670000064" class="text">One </text>
<text x="808.99998184" y="459.99999540000005" width="40.99998355999992" height="28.99998585000003" class="text">copy </text>
<text x="859.99999908" y="459.00000531" width="19.999961999999982" height="27.000028439999994" class="text">of </text>
<text x="883.99997104" y="459.00000531" width="50.00008060000005" height="27.99999575999999" class="text">every </text>
<text x="940.99999444" y="457.99999245000004" width="41.99995531999991" height="27.99997299000006" class="text">such </text>
<text x="991.999959" y="457.99999245000004" width="89.00001527999984" height="28.99998585000003" class="text">document </text>
<text x="1088.00000488" y="455.9999895" width="14.999962719999985" height="26.99998290000002" class="text">is </text>
<text x="1111.00000508" y="455.9999895" width="121.99996136000004" height="28.999985849999973" class="text">automatically </text>
<text x="1244.0000245600002" y="454.99999941" width="74.99993651999989" height="28.999985849999973" class="text">provided 
</text>
<text x="1330.9999909599999" y="452.99999646" width="14.999962719999985" height="26.999982899999964" class="text">to </text>
<text x="1354.9999453599999" y="452.99999646" width="27.000097960000176" height="26.999982899999964" class="text">the </text>
<text x="1392.00002432" y="452.99999646" width="80.99999536000018" height="28.999985849999973" class="text">Secretary </text>
<text x="1483.99997244" y="451.00001627999995" width="19.000078040000062" height="27.00000566999995" class="text">of </text>
<text x="1510.99996504" y="451.00001627999995" width="42.00006068000016" height="28.00001852999992" class="text">State </text>
<text x="1562.00003496" y="451.00001627999995" width="81.99996712000006" height="29.00000861999996" class="text">pursuant </text>
<text x="1649.9999731199998" y="449.00001333" width="15.00006808000012" height="27.000005670000007" class="text">to
</text>
<text x="99.999999648" y="498.00000590999997" width="62.99999970800002" height="28.999985849999973" class="text">Section </text>
<text x="170.999994692" y="496.99999305" width="8.000007627999992" height="27.000005670000007" class="text">6</text>
<text x="184.00000160000002" y="496.99999305" width="8.000002359999968" height="27.000005670000007" class="text">(</text>
<text x="189.9999902" y="496.99999305" width="8.00001992" height="27.000005670000007" class="text">b</text>
<text x="203.0000094" y="496.99999305" width="7.999984799999993" height="27.000005670000007" class="text">) </text>
<text x="217.00000036" y="496.00000295999996" width="14.999997839999992" height="26.999982899999964" class="text">of </text>
<text x="238.99999368000002" y="496.00000295999996" width="26.00002084000002" height="26.999982899999964" class="text">the </text>
<text x="272.00001" y="496.00000295999996" width="33.99998808000004" height="28.000018529999977" class="text">Act</text>
<text x="303.00001256" y="494.99999010000005" width="8.000002359999996" height="27.000005670000064" class="text">, </text>
<text x="315.99999664" y="494.99999010000005" width="30.000013239999987" height="27.000005670000064" class="text">and </text>
<text x="356.99999776" y="494.99999010000005" width="57.00000584000003" height="29.000008620000074" class="text">copies </text>
<text x="417.999996" y="494.00000001" width="19.99999711999999" height="26.99998290000002" class="text">of </text>
<text x="443.99998172000005" y="494.00000001" width="37.00002627999993" height="28.000018530000034" class="text">such </text>
<text x="490.999989" y="492.99998715000004" width="93.00002524000001" height="27.99997299000006" class="text">documents </text>
<text x="593.99999524" y="491.99999706" width="26.99999260000004" height="27.99999575999999" class="text">are </text>
<text x="627.0000115600001" y="491.99999706" width="80.00000604000002" height="28.99998585000003" class="text">routinely </text>
<text x="719.99998412" y="489.99999411" width="46.99998971999992" height="27.99999575999999" class="text">made </text>
<text x="768.9999876" y="489.99999411" width="79.00003427999991" height="28.999985849999973" class="text">available </text>
<text x="858.00000288" y="487.99999116" width="10.000016119999941" height="26.999982899999964" class="text">to </text>
<text x="881.0000382" y="487.99999116" width="45.99996528000008" height="27.999995759999933" class="text">other </text>
<text x="931.0000134400001" y="487.99999116" width="76.9999853999999" height="28.999985849999973" class="text">agencies</text>
<text x="1009.9999423600001" y="485.99998820999997" width="8.000037479999833" height="26.999982899999964" class="text">, </text>
<text x="1022.99996156" y="487.00002384" width="111.99999791999994" height="29.000031389999947" class="text">departments </text>
<text x="1138.99996944" y="485.00002089" width="31.000002559999757" height="28.000018529999977" class="text">and </text>
<text x="1178.9999812400001" y="485.00002089" width="85.0000053199999" height="29.000031389999947" class="text">Congress </text>
<text x="1268.99996828" y="483.00001794" width="78.00006252000003" height="28.000018530000034" class="text">pursuant </text>
<text x="1353.9999736" y="482.00000508" width="15.00006808000012" height="27.000005670000007" class="text">to </text>
<text x="1376.99995624" y="482.00000508" width="65.00006087999986" height="29.000008620000017" class="text">Section </text>
<text x="1451.0000088" y="481.00001499" width="8.000019920000113" height="27.000028439999994" class="text">6</text>
<text x="1460.9999897999999" y="481.00001499" width="8.000019920000113" height="27.000028439999994" class="text">(</text>
<text x="1469.00000972" y="481.00001499" width="8.000019920000113" height="27.000028439999994" class="text">c
</text>
<text x="1479.99996248" y="480.00000213" width="8.000019920000113" height="27.000005670000007" class="text">) </text>
<text x="1492.9999641200002" y="480.00000213" width="20.000067359999775" height="27.000005670000007" class="text">of </text>
<text x="1515.99996432" y="480.00000213" width="31.000002560000212" height="27.000005670000007" class="text">the </text>
<text x="1550.99997684" y="480.00000213" width="31.000002559999984" height="28.000018529999977" class="text">Act</text>
<text x="1582.99996872" y="479.00001204" width="8.000019920000113" height="27.000028439999994" class="text">. </text>
<text x="1595.99997036" y="479.00001204" width="62.00002268000026" height="27.999995760000047" class="text">Finally</text>
<text x="1657.9999930400002" y="477.99999918" width="8.000019919999886" height="26.99998290000002" class="text">,
</text>
<text x="96.999996568" y="528.00000462" width="28.000001236000017" height="27.999995760000047" class="text">the </text>
<text x="136.000001488" y="528.00000462" width="76.99998891199999" height="29.999998710000057" class="text">Attorney </text>
<text x="217.99998968" y="526.99999176" width="75.00002431999997" height="29.999998709999943" class="text">General </text>
<text x="295.99999952" y="526.00000167" width="82.00001979999996" height="29.99999871" class="text">transmits </text>
<text x="387.99998276" y="523.99999872" width="21.00000399999999" height="27.999995760000047" class="text">an </text>
<text x="415.99998224" y="523.99999872" width="61.99998756000002" height="29.99999871" class="text">annual </text>
<text x="483.99999352" y="522.99998586" width="53.00001344000009" height="29.99999871" class="text">report </text>
<text x="544.9999742" y="522.00001854" width="17.000029160000054" height="28.000018530000034" class="text">to </text>
<text x="571.99998436" y="522.00001854" width="23.000035320000052" height="29.000031390000004" class="text">the </text>
<text x="605.0000006800001" y="520.99998291" width="86.00002975999985" height="28.999985849999973" class="text">Congress </text>
<text x="696.00001216" y="520.00001559" width="20.999986440000043" height="28.000018529999977" class="text">on </text>
<text x="725.0000185199999" y="520.00001559" width="26.99999260000004" height="29.00000861999996" class="text">the </text>
<text x="761.99999212" y="520.00001559" width="133.00003704000005" height="30.999988799999983" class="text">Administration </text>
<text x="906.9999536799999" y="516.9999997799999" width="16.000039840000227" height="27.999972989999947" class="text">of </text>
<text x="928.9999645600001" y="516.9999997799999" width="28.00006971999983" height="27.999972989999947" class="text">the </text>
<text x="967.00001528" y="516.00000969" width="31.99999188000004" height="28.000018529999977" class="text">Act </text>
<text x="1002.0000278" y="516.00000969" width="54.99997452000002" height="30.000021479999987" class="text">which </text>
<text x="1066.99998332" y="514.99999683" width="33.00006900000017" height="27.999972990000003" class="text">lists </text>
<text x="1107.99996688" y="514.00000674" width="29.00005903999977" height="28.000018530000034" class="text">the </text>
<text x="1143.99996872" y="514.00000674" width="59.00007228000004" height="28.99998585000003" class="text">names </text>
<text x="1210.9999731199998" y="512.9999938799999" width="20.00004980000017" height="27.999972989999947" class="text">of </text>
<text x="1232.99996644" y="512.9999938799999" width="24.000077319999946" height="27.999972989999947" class="text">all </text>
<text x="1263.99998656" y="512.9999938799999" width="57.999995160000026" height="29.9999759399999" class="text">agents </text>
<text x="1329.00002988" y="512.00000379" width="86.99996639999995" height="29.999998710000057" class="text">registered </text>
<text x="1421.99994976" y="510.99999092999997" width="58.000012720000086" height="29.999975939999956" class="text">under 
</text>
<text x="1487.00001064" y="508.99998797999996" width="28.999953679999862" height="27.999972989999947" class="text">the </text>
<text x="1519.9999742799998" y="508.99998797999996" width="33.000051440000334" height="27.999972989999947" class="text">Act</text>
<text x="1553.0000257200002" y="507.99999789" width="7.999932119999812" height="27.99999575999999" class="text">, </text>
<text x="1567.9999884400002" y="507.99999789" width="29.00005903999977" height="27.99999575999999" class="text">the </text>
<text x="1600.99995208" y="507.99999789" width="64.00008911999998" height="29.99999871" class="text">foreign
</text>
<text x="96.999996568" y="559.99998351" width="92.99999363200001" height="31.999978889999966" class="text">principals </text>
<text x="198.00001012" y="557.9999805599999" width="37.99999803999998" height="30.999988799999983" class="text">they </text>
<text x="246.00000672000002" y="557.9999805599999" width="82.00000223999999" height="31.999978889999966" class="text">represent</text>
<text x="328.00000896" y="555.99997761" width="8.999991679999994" height="29.999975940000013" class="text">, </text>
<text x="343.99999612" y="555.99997761" width="30.000013239999987" height="29.999975940000013" class="text">and </text>
<text x="383.00000104000003" y="555.00001029" width="30.00001323999993" height="30.000021479999987" class="text">the </text>
<text x="422.00000596" y="555.00001029" width="50.99998212000003" height="32.00002442999994" class="text">nature</text>
<text x="477.99996980000003" y="553.99997466" width="9.000009239999997" height="29.999975940000013" class="text">, </text>
<text x="494.0000272" y="553.99997466" width="64.99999064000008" height="31.99995611999998" class="text">sources </text>
<text x="568.00002708" y="553.00000734" width="33.99998807999998" height="32.00002443000005" class="text">and </text>
<text x="609.9999823999999" y="552.00001725" width="70.00004260000014" height="32.000001660000066" class="text">content </text>
<text x="685.99997848" y="551.00000439" width="17.00002915999994" height="30.000021479999987" class="text">of </text>
<text x="710.00000312" y="550.0000143" width="29.999978120000037" height="29.99999871" class="text">the </text>
<text x="748.00000116" y="550.0000143" width="74.99997164000001" height="32.00000165999995" class="text">political </text>
<text x="828.9999965200001" y="549.00000144" width="106.00002687999995" height="32.99999175000005" class="text">propaganda </text>
<text x="943.00004332" y="546.9999984899999" width="116.99999720000005" height="32.999991749999936" class="text">disseminated </text>
<text x="1073.00004216" y="544.99999554" width="16.999923800000033" height="30.999988799999983" class="text">or </text>
<text x="1100.0000523200001" y="544.99999554" width="95.99994051999988" height="32.000001660000066" class="text">distributed </text>
<text x="1204.00003032" y="542.99999259" width="22.00001087999999" height="30.999988799999983" class="text">by </text>
<text x="1236.00000464" y="542.0000025" width="41.99997288000009" height="31.000011570000083" class="text">them
</text>
<text x="1281.99998748" y="540.99998964" width="8.999991679999994" height="29.99999871" class="text">. </text>
<text x="1300.99996016" y="540.99998964" width="33.00006900000017" height="30.999988799999983" class="text">This </text>
<text x="1345.9999536799999" y="540.99998964" width="54.00009055999999" height="32.00000166000001" class="text">report </text>
<text x="1409.0000534800001" y="538.99998669" width="16.999906239999746" height="29.999998710000057" class="text">is </text>
<text x="1432.00003612" y="538.99998669" width="80.99999535999996" height="30.99998880000004" class="text">available </text>
<text x="1519.9999742799998" y="538.00001937" width="17.000011600000107" height="30.000021480000044" class="text">to </text>
<text x="1548.0000440000001" y="537.0000065099999" width="25.9999154799998" height="30.000021479999987" class="text">the </text>
<text x="1581.9999794" y="537.0000065099999" width="54.99997452000002" height="32.00002442999994" class="text">public</text>
<text x="1639.00002036" y="536.00001642" width="8.999991679999994" height="30.00002147999993" class="text">.
</text>
<text x="103.000000972" y="613.99999485" width="53.99999398000001" height="31.000011570000083" class="text">Public </text>
<text x="160.0000033" y="613.99999485" width="90.99998514" height="31.000011570000083" class="text">Reporting </text>
<text x="257.99998392000003" y="612.00003744" width="60.00000891999997" height="30.000044250000087" class="text">Burden</text>
<text x="322.99999212" y="610.99997904" width="8.00001992" height="28.99998585000003" class="text">. </text>
<text x="337.00000064" y="610.99997904" width="54.99999207999997" height="30.999966029999882" class="text">Public </text>
<text x="397.99998131999996" y="610.99997904" width="82.00000224000001" height="30.999966029999882" class="text">reporting </text>
<text x="483.99999352" y="609.99998895" width="62.00002268000003" height="31.00001156999997" class="text">burden </text>
<text x="555.99997964" y="608.00003154" width="24.000024639999992" height="29.00005415999999" class="text">for </text>
<text x="584.00001424" y="608.00003154" width="33.99998807999998" height="29.00005415999999" class="text">this </text>
<text x="624.9999978" y="608.00003154" width="82.99999156000001" height="31.000034339999957" class="text">collection </text>
<text x="716.00000928" y="606.00000582" width="21.999958200000037" height="29.000008619999903" class="text">of </text>
<text x="741.99997744" y="606.00000582" width="102.00003448000007" height="31.000034339999957" class="text">information </text>
<text x="851.99997916" y="605.00001573" width="11.000005439999995" height="30.000044249999974" class="text">is </text>
<text x="869.99998008" y="605.00001573" width="84.00001599999996" height="31.000034339999957" class="text">estimated </text>
<text x="961.00004424" y="602.9999900099999" width="16.999923800000147" height="29.000008619999903" class="text">to </text>
<text x="982.9999497599999" y="602.9999900099999" width="67.00000440000008" height="30.999966029999882" class="text">average </text>
<text x="1057.00000232" y="601.99999992" width="14.999962719999985" height="28.99998585000003" class="text">.5 </text>
<text x="1082.0000513999998" y="601.99999992" width="47.999926360000245" height="31.00003434000007" class="text">hours </text>
<text x="1137.0000259199999" y="601.0000098300001" width="28.99993612000003" height="28.99998585000003" class="text">per </text>
<text x="1173.99999952" y="601.0000098300001" width="75.99999607999985" height="31.000011570000083" class="text">response</text>
<text x="1250.99996736" y="600.0000197400001" width="8.000019920000113" height="29.000054160000104" class="text">, </text>
<text x="1263.99998656" y="600.0000197400001" width="83.00004424000008" height="31.000011570000083" class="text">including </text>
<text x="1353.00000184" y="597.99999402" width="26.000020839999934" height="28.99998585000003" class="text">the </text>
<text x="1384.99997616" y="597.99999402" width="40.99998355999992" height="30.999988799999983" class="text">time </text>
<text x="1430.999959" y="597.00000393" width="25.000031519999993" height="29.000008620000017" class="text">for </text>
<text x="1463.00003868" y="597.00000393" width="86.99996639999995" height="31.000011570000083" class="text">reviewing </text>
<text x="1554.9999868" y="596.00003661" width="107.00001620000012" height="31.00003434000007" class="text">instructions</text>
<text x="1662.99997476" y="593.99998812" width="8.000019920000113" height="28.99998585000003" class="text">,
</text>
<text x="99.000003304" y="642.9999807" width="83.99999141599999" height="28.99998585000003" class="text">searching </text>
<text x="194.00000015999998" y="642.00001338" width="67.99999372000005" height="28.99998585000003" class="text">existing </text>
<text x="272.00001" y="639.99996489" width="33.99998808000004" height="26.99993735999999" class="text">data </text>
<text x="318.99999972" y="639.99996489" width="67.00000439999997" height="28.99998585000003" class="text">sources</text>
<text x="386.00000411999997" y="638.99999757" width="8.000002359999996" height="26.999960129999977" class="text">, </text>
<text x="402.00000884" y="638.99999757" width="83.99999844000001" height="29.000008620000017" class="text">gathering </text>
<text x="493.00000276" y="637.00001739" width="35.000012519999984" height="27.999995760000047" class="text">and </text>
<text x="537.99999628" y="637.00001739" width="106.00002688000006" height="30.000044250000087" class="text">maintaining </text>
<text x="651.00001864" y="634.99999167" width="25.99996815999998" height="26.999960129999977" class="text">the </text>
<text x="687.99999224" y="634.00000158" width="35.00001252000004" height="27.999995760000047" class="text">data </text>
<text x="734.0000102" y="634.00000158" width="59.99995623999996" height="28.99998585000003" class="text">needed</text>
<text x="799.0000184" y="633.00001149" width="7.999967239999933" height="27.000005670000064" class="text">, </text>
<text x="812.00002004" y="631.99997586" width="29.999978120000037" height="26.999960129999977" class="text">and </text>
<text x="851.99997916" y="631.99997586" width="101.00004516000001" height="28.99998585000003" class="text">completing </text>
<text x="963.0000053199999" y="629.99999568" width="30.000030800000104" height="27.000005670000064" class="text">and </text>
<text x="1004.99996064" y="629.99999568" width="89.99998703999984" height="28.999985849999916" class="text">reviewing </text>
<text x="1101.9999958399999" y="627.9999699599999" width="26.00002084000016" height="26.999960129999863" class="text">the </text>
<text x="1138.99996944" y="627.9999699599999" width="87.00007175999986" height="28.999985849999916" class="text">collection </text>
<text x="1236.00000464" y="626.0000125500001" width="18.999972679999928" height="27.00002844000005" class="text">of 
</text>
<text x="1264.99995832" y="626.0000125500001" width="104.00008336000019" height="29.999975940000013" class="text">information</text>
<text x="1371.99997452" y="623.99996406" width="8.000019919999886" height="26.999960129999977" class="text">. </text>
<text x="1387.0000426" y="623.99996406" width="40.999983560000146" height="27.999927449999973" class="text">Send </text>
<text x="1438.00000716" y="623.99996406" width="94.99996876" height="28.99998585000003" class="text">comments </text>
<text x="1541.9999676" y="622.00000665" width="83.00006179999991" height="28.99998585000003" class="text">regarding </text>
<text x="1636.99995392" y="619.99995816" width="31.000002559999984" height="26.99993735999999" class="text">this
</text>
<text x="99.999999648" y="670.9999992300001" width="60.000003652000004" height="28.99998585000003" class="text">burden </text>
<text x="170.999994692" y="670.0000091400001" width="72.00000894800002" height="28.99998585000003" class="text">estimate </text>
<text x="250.99998844" y="669.0000418200001" width="20.00001468000002" height="27.00002844000005" class="text">or </text>
<text x="277.99999859999997" y="667.99998342" width="31.00000256000004" height="26.999960129999977" class="text">any </text>
<text x="320.0000066" y="667.99998342" width="44.999993519999975" height="28.99998585000003" class="text">other </text>
<text x="369.99998184" y="666.99999333" width="59.00001960000003" height="27.999995760000047" class="text">aspect </text>
<text x="434.99999004" y="666.0000032400001" width="19.000025360000052" height="27.000005670000064" class="text">of </text>
<text x="459.99998644" y="666.0000032400001" width="30.00003079999999" height="27.999995760000047" class="text">this </text>
<text x="499.99998067999996" y="666.0000032400001" width="87.00001908000007" height="28.99998585000003" class="text">collection </text>
<text x="597.00001588" y="663.99997752" width="18.99999023999999" height="26.999960129999977" class="text">of </text>
<text x="622.0000122800001" y="663.99997752" width="105.00000243999989" height="28.99998585000003" class="text">information</text>
<text x="730.00000024" y="662.00002011" width="7.999967240000046" height="27.00002844000005" class="text">, </text>
<text x="743.9999912000001" y="662.00002011" width="82.9999915599999" height="29.000008620000017" class="text">including </text>
<text x="837.9999882" y="661.00003002" width="102.00003447999995" height="29.000054160000104" class="text">suggestions </text>
<text x="949.00001436" y="659.0000043" width="26.000020840000047" height="27.00002844000005" class="text">for </text>
<text x="984.0000268800001" y="659.0000043" width="74.99993652" height="29.000008620000017" class="text">reducing </text>
<text x="1067.99995508" y="657.00002412" width="34.00004075999982" height="27.00002844000005" class="text">this </text>
<text x="1106.0000058" y="657.00002412" width="63.99996619999979" height="29.000054160000104" class="text">burden </text>
<text x="1178.00000948" y="655.99998849" width="14.999962719999985" height="26.999960129999977" class="text">to </text>
<text x="1205.99997384" y="655.99998849" width="49.99999279999997" height="29.000008620000017" class="text">Chief</text>
<text x="1255.99996664" y="654.9999984" width="8.000019920000113" height="27.00002844000005" class="text">, 
</text>
<text x="1267.99999652" y="654.9999984" width="110.00003684000012" height="29.9999759399999" class="text">Registration </text>
<text x="1385.99996548" y="653.00001822" width="41.00008892000005" height="29.00005415999999" class="text">Unit</text>
<text x="1428.99999792" y="651.99998259" width="8.000019920000113" height="26.999960129999863" class="text">, </text>
<text x="1443.99996064" y="651.99998259" width="82.00007247999997" height="28.00001852999992" class="text">Criminal </text>
<text x="1532.99997592" y="650.9999925" width="78.00006252000003" height="28.999985849999916" class="text">Division</text>
<text x="1612.99999952" y="650.00000241" width="8.000019919999886" height="27.000028439999937" class="text">, </text>
<text x="1626.9999729200001" y="649.0000350900001" width="42.00007823999999" height="28.000018530000034" class="text">U.S.
</text>
<text x="101.999997604" y="698.99999499" width="108.999996596" height="29.999953169999912" class="text">Department </text>
<text x="216.00001104" y="696.99996927" width="19.99999711999999" height="26.999960129999863" class="text">of </text>
<text x="241.99999676" y="696.99996927" width="59.00000203999997" height="28.999985849999916" class="text">Justice</text>
<text x="303.00001256" y="695.99997918" width="8.000002359999996" height="26.999937359999876" class="text">, </text>
<text x="317.00000352" y="695.99997918" width="101.99999936" height="28.999985849999916" class="text">Washington</text>
<text x="424.99999148" y="694.0000217700001" width="8.00001992" height="27.00002844000005" class="text">, </text>
<text x="436.99998624" y="694.0000217700001" width="35.00003007999999" height="27.00002844000005" class="text">DC</text>
<text x="472.99998808000004" y="694.0000217700001" width="8.000019919999943" height="27.00002844000005" class="text">. </text>
<text x="488.99997524" y="694.0000217700001" width="52.00004167999998" height="28.99998585000003" class="text">20530</text>
<text x="544.00000244" y="692.99996337" width="7.999967240000046" height="26.999960129999977" class="text">; </text>
<text x="559.00001784" y="691.99999605" width="29.999978119999923" height="26.999960129999977" class="text">and </text>
<text x="602.00001516" y="691.99999605" width="9.999981000000048" height="26.999960129999977" class="text">to </text>
<text x="624.9999978" y="691.99999605" width="26.000020840000047" height="28.000018530000034" class="text">the </text>
<text x="660.00001032" y="691.0000059600001" width="55.99999895999997" height="28.000018530000034" class="text">Office </text>
<text x="725.99999028" y="690.0000158700001" width="20.000014679999936" height="27.00002844000005" class="text">of </text>
<text x="754.0000248800001" y="690.0000158700001" width="105.00000244" height="28.99998585000003" class="text">Information </text>
<text x="869.99998008" y="687.99999015" width="30.000030799999877" height="26.999960129999977" class="text">and </text>
<text x="909.00000256" y="687.99999015" width="98.00002452000001" height="28.99998585000003" class="text">Regulatory </text>
<text x="1020.0000287199999" y="686.0000099700001" width="58.99998448000008" height="27.999995760000047" class="text">Affairs</text>
<text x="1083.99999492" y="684.99997434" width="8.000037479999946" height="26.999960129999977" class="text">, </text>
<text x="1097.99998588" y="684.99997434" width="56.00005164000004" height="28.99998585000003" class="text">Office </text>
<text x="1160.9999803199998" y="683.99998425" width="20.00004980000017" height="26.999960129999977" class="text">of </text>
<text x="1187.9999729200001" y="683.99998425" width="119.00004607999995" height="29.999975940000013" class="text">Management 
</text>
<text x="1315.00003892" y="682.00002684" width="29.99994300000003" height="28.000018530000034" class="text">and </text>
<text x="1357.9999835600001" y="682.00002684" width="62.0000226799998" height="29.000008620000017" class="text">Budget</text>
<text x="1420.999978" y="679.99997835" width="8.000019919999886" height="26.999960129999977" class="text">, </text>
<text x="1433.99997964" y="680.99996844" width="106.00004444000001" height="28.99998585000003" class="text">Washington</text>
<text x="1542.9999569200002" y="679.00001103" width="8.000019919999886" height="27.00002844000005" class="text">, </text>
<text x="1557.00003568" y="678.00002094" width="41.99997287999986" height="28.000018530000034" class="text">D.C. </text>
<text x="1607.00002848" y="678.00002094" width="53.999985199999855" height="28.999985849999916" class="text">20503</text>
<text x="1661.00001368" y="676.99996254" width="8.000037480000174" height="26.999960129999977" class="text">.
</text>
<text x="111.999999676" y="759.00001518" width="29.000002847999994" height="31.00001156999997" class="text">1. </text>
<text x="151.999993916" y="760.9999953600001" width="65.999995764" height="32.99999175000005" class="text">Name </text>
<text x="230.99999131999996" y="760.0000052700001" width="24.00002464000002" height="31.00003434000007" class="text">of </text>
<text x="261.99999388000003" y="761.9999626800001" width="110.00000172" height="32.99999175000005" class="text">registrant
</text>
<text x="1223.99997476" y="749.99996775" width="26.000020839999934" height="34.999949159999915" class="text">2. </text>
<text x="1255.99996664" y="748.99997766" width="138.99999051999998" height="37.99996496999995" class="text">Registration </text>
<text x="1406.0000152799998" y="744.99999453" width="48.00003172000015" height="33.99998183999992" class="text">No.
</text>
<text x="137.000004856" y="813.00000375" width="118.00001110399998" height="37.99998774000005" class="text">Qubec </text>
<text x="278.99998792" y="810.99997803" width="204.00003384000001" height="38.99997782999992" class="text">Government </text>
<text x="506.00000439999997" y="806.9999721300001" width="103.00000624000006" height="36.99999765000007" class="text">House
</text>
<text x="1380.9999662" y="789.99998121" width="79.00003427999991" height="28.999985849999916" class="text">1787
</text>
<text x="118.00000408" y="863.99997651" width="24.99999113199999" height="33.99998183999992" class="text">3. </text>
<text x="153.999998896" y="863.99997651" width="75.99998554400003" height="35.99996202" class="text">Nature </text>
<text x="240.00000056" y="861.9999963299999" width="26.000003279999987" height="33.99998183999992" class="text">of </text>
<text x="281.00000168" y="861.9999963299999" width="87.99999083999995" height="35.000017469999875" class="text">material </text>
<text x="379.99999796000003" y="861.00000624" width="9.999998559999938" height="34.00002737999989" class="text">(</text>
<text x="391.0000034" y="861.00000624" width="9.999998559999995" height="34.00002737999989" class="text">A </text>
<text x="417.999996" y="861.00000624" width="81.00001292000002" height="36.00000755999997" class="text">concise </text>
<text x="512.00002812" y="860.00003892" width="93.99999700000001" height="36.00000755999997" class="text">account </text>
<text x="611.00000684" y="857.9999904299999" width="24.999996399999986" height="33.99995906999993" class="text">of </text>
<text x="642.99999872" y="857.9999904299999" width="37.99999804000004" height="35.000017469999875" class="text">the </text>
<text x="689.00001668" y="857.9999904299999" width="70.99996167999996" height="36.00000755999986" class="text">nature </text>
<text x="774.0000220000001" y="856.0000330199999" width="24.999996399999986" height="34.00005014999988" class="text">of </text>
<text x="806.99998564" y="856.0000330199999" width="33.000016319999986" height="34.00005014999988" class="text">the </text>
<text x="851.99997916" y="856.0000330199999" width="134.00000880000016" height="37.000065959999915" class="text">propaganda </text>
<text x="1004.99996064" y="854.0000073000001" width="93.99999700000001" height="36.00003033000007" class="text">material </text>
<text x="1106.99999512" y="852.00002712" width="44.00000419999992" height="35.00001746999999" class="text">filed</text>
<text x="1159.0000368" y="852.00002712" width="9.999963440000101" height="34.00005014999999" class="text">)
</text>
<text x="134.99999812" y="914.99999481" width="203.0000094" height="40.99998077999999" class="text">Newsletter </text>
<text x="365.00000012" y="911.999979" width="203.00002696" height="41.000003549999974" class="text">containing </text>
<text x="589.99998528" y="909.0000315" width="145.00001423999993" height="40.00001345999999" class="text">general </text>
<text x="759.0000066" y="906.0000156899999" width="223.99994315999993" height="41.000003549999974" class="text">information </text>
<text x="1003.99998888" y="902.9999998799999" width="58.999984479999966" height="39.000023369999894" class="text">and </text>
<text x="1085.9999559999999" y="902.0000097899999" width="82.0000724800002" height="39.000023369999894" class="text">news </text>
<text x="1195.00002108" y="899.99998407" width="33.99993540000014" height="36.999997649999955" class="text">on </text>
<text x="1251.99995668" y="898.9999939799999" width="126.00007668000012" height="38.999955059999934" class="text">Qubec </text>
<text x="1400.0000442399999" y="897.00003657" width="58.999984480000194" height="38.00005605000001" class="text">and </text>
<text x="1486.00002132" y="895.9999781700001" width="58.999984479999966" height="38.99995506000016" class="text">the
</text>
<text x="136.000001488" y="946.9999964699999" width="200.999999152" height="39.999990690000004" class="text">activities </text>
<text x="363.00000392" y="943.9999806599999" width="39.00000492000004" height="36.00000755999986" class="text">of </text>
<text x="424.00000216" y="943.9999806599999" width="61.00001579999997" height="37.99996496999995" class="text">the </text>
<text x="506.99997616" y="943.00001334" width="122.0000316" height="39.000046139999995" class="text">Qubec </text>
<text x="656.0000003600001" y="940.9999648500001" width="199.99998875999995" height="39.999945150000144" class="text">Government </text>
<text x="877.00002824" y="938.00001735" width="122.99995067999998" height="39.00002337000012" class="text">Office </text>
<text x="1026.99997152" y="935.00000154" width="33.00006900000017" height="36.000007560000086" class="text">in </text>
<text x="1087.00003312" y="935.00000154" width="143.0000180400002" height="39.000023369999894" class="text">Chicago</text>
<text x="1237.99996572" y="932.99997582" width="10.000068800000008" height="35.99993925000001" class="text">.
</text>
<text x="115.999997344" y="996.9999791399999" width="35.000007252" height="30.999943259999895" class="text">4. </text>
<text x="161.000006668" y="996.9999791399999" width="44.99998825200001" height="30.999943259999895" class="text">Title </text>
<text x="218.99999656" y="996.9999791399999" width="21.999993320000016" height="30.999943259999895" class="text">of </text>
<text x="257.99998392000003" y="996.9999791399999" width="88.00002595999996" height="30.999943259999895" class="text">material</text>
<text x="346.99999920000005" y="996.9999791399999" width="9.00000923999994" height="30.999943259999895" class="text">, </text>
<text x="365.00000012" y="996.9999791399999" width="19.00000779999999" height="30.999943259999895" class="text">if </text>
<text x="391.0000034" y="996.9999791399999" width="39.00000491999998" height="30.999943259999895" class="text">any
</text>
<text x="936.00001272" y="989.9999574300001" width="31.99997431999998" height="32.99999175000005" class="text">5. </text>
<text x="986.9999597199999" y="988.99999011" width="67.00000440000031" height="33.99998184000003" class="text">Name </text>
<text x="1062.99997336" y="988.00000002" width="25.000031519999993" height="32.99999175000005" class="text">of </text>
<text x="1093.99997592" y="988.00000002" width="76.99998540000001" height="35.00001746999999" class="text">foreign </text>
<text x="1181.00003012" y="987.00000993" width="104.99996732" height="36.000007560000086" class="text">principal </text>
<text x="1290.99997916" y="983.99999412" width="25.000049079999826" height="32.99999175000005" class="text">on </text>
<text x="1321.00000996" y="983.99999412" width="75.99999608000007" height="33.999959070000045" class="text">whose </text>
<text x="1401.00003356" y="983.0000268" width="75.99999608000007" height="35.00004024000009" class="text">behalf </text>
<text x="1479.99996248" y="982.00003671" width="43.00003244000004" height="35.00004024000009" class="text">this </text>
<text x="1533.9999476799999" y="980.99997831" width="91.00008172000003" height="34.99994916000003" class="text">material </text>
<text x="1627.99996224" y="979.99998822" width="43.00003244000004" height="35.000017469999875" class="text">was
</text>
<text x="988.0000544" y="1016.0000185499999" width="126.99996064000015" height="30.00004424999986" class="text">transmitted</text>
<text x="1118.00003568" y="1013.9999700599999" width="7.999932119999812" height="26.999960129999863" class="text">.
</text>
<text x="136.000001488" y="1049.99997762" width="125.00000307199997" height="36.000007560000086" class="text">QUEBEC </text>
<text x="282.00000855999997" y="1048.00002021" width="123.00000336" height="36.00000755999997" class="text">UPDATE</text>
<text x="411.00000052" y="1045.0000044" width="9.999998559999995" height="32.99999175000005" class="text">, </text>
<text x="447.00001992" y="1045.0000044" width="61.99996999999996" height="35.00004024000009" class="text">VOL </text>
<text x="528.00001528" y="1043.0000242200001" width="42.99997976000009" height="34.00002738000012" class="text">93</text>
<text x="575.99999432" y="1041.99998859" width="10.000033679999888" height="32.999991749999936" class="text">, </text>
<text x="609.9999823999999" y="1041.99998859" width="62.99999444000002" height="34.9999719299999" class="text">No. </text>
<text x="698.99999768" y="1040.00000841" width="33.99998807999998" height="34.00002737999989" class="text">14
</text>
<text x="1169.9999719999998" y="1039.00004109" width="125.99998888000005" height="41.000071859999935" class="text">Qubec </text>
<text x="1317.99997176" y="1036.00002528" width="208.0000613599998" height="43.00002927000014" class="text">Government
</text>
<text x="143.99999858" y="1085.99998518" width="12.000007051999972" height="36.99997488000008" class="text">(</text>
<text x="160.0000033" y="1085.99998518" width="140.00000618" height="40.00001345999999" class="text">Chicago</text>
<text x="307.00000496" y="1082.99996937" width="11.999994759999993" height="36.99999764999984" class="text">)
</text>
<text x="119.00000569199999" y="1164.9999536999999" width="28.999990556000014" height="25.99997003999988" class="text">6. </text>
<text x="155.000002264" y="1164.9999536999999" width="78.00000281600003" height="27.99992744999986" class="text">Means </text>
<text x="246.00000672000002" y="1162.99999629" width="19.00000780000002" height="25.99997003999988" class="text">of </text>
<text x="275.00001308000003" y="1162.99999629" width="142.99998291999998" height="28.999985849999803" class="text">transmission
</text>
<text x="656.0000003600001" y="1157.99995476" width="15.000015399999938" height="26.99996013000009" class="text">7. </text>
<text x="680.99999676" y="1157.99995476" width="64.00001887999997" height="28.999940310000056" class="text">Dates </text>
<text x="756.00002108" y="1155.99997458" width="24.999996399999986" height="26.99996013000009" class="text">of </text>
<text x="790.99999848" y="1155.99997458" width="143.00005316" height="28.99998585000003" class="text">transmission
</text>
<text x="1160.00000856" y="1155.99997458" width="26.000020839999934" height="33.999981840000146" class="text">8. </text>
<text x="1199.00003104" y="1155.99997458" width="54.99997452000002" height="36.000007560000086" class="text">Total </text>
<text x="1262.00002548" y="1155.00000726" width="73.99994719999995" height="36.00003033000007" class="text">copies </text>
<text x="1347.0000308" y="1153.00002708" width="125.00001711999994" height="37.000065960000256" class="text">transmitted</text>
<text x="1473.99999144" y="1151.00006967" width="11.000058119999949" height="34.00005014999988" class="text">.
</text>
<text x="138.999997544" y="1216.00006308" width="79.999999016" height="30.0000442500002" class="text">Mail
</text>
<text x="694.9999877199999" y="1211.99998887" width="144.00004248000005" height="34.999949159999915" class="text">October </text>
<text x="864.99999836" y="1211.00002155" width="36.99995604000003" height="32.999991749999936" class="text">31</text>
<text x="912.00004076" y="1211.00002155" width="9.00000923999994" height="32.999991749999936" class="text">, </text>
<text x="949.00001436" y="1210.00003146" width="77.9999571599999" height="33.99998183999992" class="text">1993
</text>
<text x="1384.99997616" y="1197.99996822" width="58.000012720000086" height="27.999950220000073" class="text">790
</text>
<text x="119.99999676799999" y="1269.99998334" width="31.000007828000008" height="27.999950219999846" class="text">9. </text>
<text x="160.0000033" y="1269.99998334" width="43.999995420000005" height="30.000044249999974" class="text">List </text>
<text x="215.00000416" y="1268.99999325" width="107.99998796" height="31.000034339999957" class="text">addresses </text>
<text x="335.99999376" y="1267.00003584" width="51.000017240000034" height="30.000044249999974" class="text">from </text>
<text x="399.99999507999996" y="1266.00004575" width="64.00000132000002" height="30.000044249999974" class="text">which </text>
<text x="483.99999352" y="1265.00005566" width="89.99998704000006" height="30.0000442500002" class="text">material </text>
<text x="580.00000428" y="1263.99995172" width="44.00002175999998" height="29.999907630000052" class="text">was </text>
<text x="635.0000314800001" y="1262.9999616300001" width="127.99998507999987" height="31.000034340000184" class="text">transmitted</text>
<text x="766.9999738399999" y="1260.00001413" width="8.00001992" height="28.000086839999994" class="text">:
</text>
<text x="940.0000226799999" y="1259.00002404" width="44.00000420000015" height="29.00005415999999" class="text">10. </text>
<text x="994.00000788" y="1258.00003395" width="44.000021760000095" height="29.000054159999763" class="text">List </text>
<text x="1052.0000206" y="1257.00006663" width="63.99996620000002" height="29.000076929999977" class="text">states </text>
<text x="1129.99997776" y="1255.9999399199999" width="35.99998427999981" height="29.999907629999825" class="text">and </text>
<text x="1183.9999629600002" y="1254.99994983" width="114.0000643599999" height="30.99987495000005" class="text">territories </text>
<text x="1311.00002896" y="1252.99999242" width="25.999915480000027" height="27.999950219999846" class="text">of </text>
<text x="1348.9999918800002" y="1252.00000233" width="33.00005143999988" height="29.000054159999763" class="text">the </text>
<text x="1400.0000442399999" y="1252.00000233" width="68.99996548000013" height="30.000044249999974" class="text">United </text>
<text x="1490.00003128" y="1250.0000449200002" width="62.99999444000014" height="30.0000442500002" class="text">States </text>
<text x="1571.00002664" y="1247.99992812" width="15.999952039999926" height="27.999927450000087" class="text">to </text>
<text x="1606.00005672" y="1247.99992812" width="64.99993796000012" height="29.999907630000052" class="text">which
</text>
<text x="998.00001784" y="1291.0000257000002" width="89.00001527999984" height="29.000054160000218" class="text">material </text>
<text x="1097.00001412" y="1290.0000583800002" width="41.999955320000026" height="29.000076930000205" class="text">was </text>
<text x="1151.99998864" y="1289.00006829" width="125.99998888000005" height="30.000044249999974" class="text">transmitted</text>
<text x="1281.99998748" y="1285.9999841699998" width="8.000019919999886" height="26.999960129999863" class="text">:
</text>
<text x="139.999999156" y="1358.99998938" width="123.00000160399998" height="36.99992933999988" class="text">Qubec </text>
<text x="285.99998339999996" y="1356.00004188" width="207.00001936" height="39.000046139999995" class="text">Government </text>
<text x="513.99997164" y="1351.99996767" width="120.00001784000006" height="36.99992933999988" class="text">Office
</text>
<text x="967.99998704" y="1348.00003008" width="161.0000014000002" height="38.000033280000025" class="text">Illinois</text>
<text x="1137.99999768" y="1347.00003999" width="10.999952760000042" height="37.00004319000004" class="text">, </text>
<text x="1170.99996132" y="1347.00003999" width="165.00001135999992" height="39.00002337000001" class="text">Michigan</text>
<text x="1348.9999918800002" y="1344.9999459599999" width="11.000058119999949" height="36.99992933999988" class="text">, </text>
<text x="1382.00004332" y="1344.9999459599999" width="79.99991823999994" height="38.99988674999986" class="text">Ohio</text>
<text x="1474.9999632" y="1343.99995587" width="11.000058120000176" height="36.999906569999894" class="text">, </text>
<text x="1513.00003148" y="1342.99998855" width="76.99996783999995" height="38.00005605000001" class="text">Iowa</text>
<text x="1597.00004748" y="1342.99998855" width="10.99995276000027" height="36.99992933999988" class="text">,
</text>
<text x="141.000002524" y="1392.99997122" width="209.000017316" height="39.000046139999995" class="text">Prudential </text>
<text x="368.00000320000004" y="1390.00000095" width="101.99999936" height="36.000075870000046" class="text">Plaza</text>
<text x="477.99996980000003" y="1389.00003363" width="10.000033679999945" height="35.00010855000005" class="text">, </text>
<text x="517.9999816" y="1388.0000435400002" width="95.00003900000002" height="36.00007587000027" class="text">Suite </text>
<text x="636.999975" y="1387.00005345" width="82.00001980000013" height="37.00004319000004" class="text">4300
</text>
<text x="962.00003356" y="1383.9999693299999" width="184.99995579999995" height="40.99998077999999" class="text">Wisconsin</text>
<text x="1160.00000856" y="1381.00002183" width="12.000029880000056" height="37.00006596000003" class="text">, </text>
<text x="1191.99998288" y="1381.00002183" width="191.0000497599999" height="40.99998077999999" class="text">Minnesota</text>
<text x="1389.9999754399998" y="1376.99994762" width="12.000029880000056" height="36.99990657000012" class="text">, </text>
<text x="1420.999978" y="1376.99994762" width="170.00001064000003" height="40.99998077999999" class="text">Missouri
</text>
<text x="146.00000356" y="1425.99996297" width="54.99999207999997" height="30.999897720000035" class="text">180 </text>
<text x="222.99998896" y="1424.99997288" width="97.00001764000001" height="32.00000166000018" class="text">North </text>
<text x="349.00001296" y="1422.9999927000001" width="138.99999051999998" height="32.99999175000016" class="text">Stetson </text>
<text x="513.99997164" y="1421.00003529" width="122.00003159999994" height="32.99999174999971" class="text">Street
</text>
<text x="967.00001528" y="1418.99994126" width="166.00000067999997" height="38.99990951999985" class="text">Nebraska</text>
<text x="1138.99996944" y="1415.99999376" width="11.000058119999949" height="34.99997193000013" class="text">, </text>
<text x="1173.0000102000001" y="1415.99999376" width="45.99998284000003" height="36.99992934000011" class="text">N. </text>
<text x="1236.99999396" y="1415.0000036699998" width="121.99996136000004" height="38.000056049999785" class="text">Dakota</text>
<text x="1370.00001344" y="1413.0000234899999" width="10.999952760000042" height="35.000085779999836" class="text">, </text>
<text x="1403.99994884" y="1412.00005617" width="166.00000068000008" height="38.00005605000001" class="text">S.Dakota
</text>
<text x="147.000006928" y="1465.99995366" width="135.00000163199996" height="42.99996095999995" class="text">Chicago</text>
<text x="292.00000712" y="1463.00000616" width="11.99997719999999" height="39.000023370000235" class="text">, </text>
<text x="333.99999756" y="1462.0000388400001" width="29.000006359999986" height="40.00001345999999" class="text">IL </text>
<text x="387.99998276" y="1461.00004875" width="107.0000162" height="42.00010748999989" class="text">60601
</text>
<text x="972.9999863200001" y="1452.00006963" width="138.99999051999998" height="37.000065960000256" class="text">Indiana</text>
<text x="1118.00003568" y="1449.99995283" width="9.999980999999934" height="33.99995906999993" class="text">, </text>
<text x="1155.0000092799999" y="1449.99995283" width="165.0000289200002" height="36.99992934000011" class="text">Kentucky</text>
<text x="1329.00002988" y="1447.00000533" width="9.999980999999934" height="33.999981840000146" class="text">, </text>
<text x="1361.99999352" y="1447.00000533" width="123.00005603999989" height="35.999939250000125" class="text">Kansas
</text>
<text x="114.000004656" y="1580.99995251" width="38.99999262799999" height="34.9999719299999" class="text">11. </text>
<text x="164.00000096800002" y="1579.99996242" width="67.99999723199997" height="33.99998183999992" class="text">Types </text>
<text x="240.00000056" y="1578.99997233" width="25.000013960000047" height="32.999991749999936" class="text">of </text>
<text x="275.00001308000003" y="1578.99997233" width="106.99998108" height="35.999939250000125" class="text">recipients </text>
<text x="396.00000267999997" y="1576.00002483" width="10.000016120000055" height="32.99999175000016" class="text">(</text>
<text x="406.99999056" y="1577.00001492" width="47.999996599999974" height="34.9999719299999" class="text">Give </text>
<text x="468.00000636" y="1576.00002483" width="85.99997708000006" height="35.000085779999836" class="text">number </text>
<text x="566.99998508" y="1574.0000674199998" width="24.9999964000001" height="34.00011845999984" class="text">of </text>
<text x="595.00001968" y="1574.0000674199998" width="159.9999769599999" height="37.0000659599998" class="text">organizations
</text>
<text x="162.99999935600002" y="1609.00001658" width="17.999999163999973" height="30.000044249999974" class="text">in </text>
<text x="194.99998948" y="1610.9999967600002" width="50.000010360000005" height="31.000034340000184" class="text">each </text>
<text x="261.00000456" y="1612.99995417" width="62.99999444000002" height="32.00000165999995" class="text">group</text>
<text x="327.00000208" y="1612.99995417" width="9.999998559999995" height="29.999907630000052" class="text">)
</text>
<text x="944.00003264" y="1569.99999321" width="49.999975240000026" height="39.00002337000001" class="text">12. </text>
<text x="999.99997892" y="1569.0000031200002" width="44.000021760000095" height="38.00003328000025" class="text">List </text>
<text x="1060.00004052" y="1569.0000031200002" width="70.99990899999989" height="40.00001346000022" class="text">names </text>
<text x="1146.99998936" y="1568.0000358000002" width="43.0000500000001" height="39.00004614000022" class="text">and </text>
<text x="1206.9999456" y="1568.0000358000002" width="110.00005439999995" height="40.00001345999999" class="text">addresses </text>
<text x="1338.00003912" y="1566.00005562" width="20.999916199999916" height="38.0000332799998" class="text">of </text>
<text x="1375.0000127199999" y="1566.00005562" width="91.99993056000017" height="40.00001346000022" class="text">persons </text>
<text x="1481.0000396" y="1563.9999615899999" width="27.999981919999982" height="37.99991943000009" class="text">or </text>
<text x="1527.9999942" y="1563.9999615899999" width="152.00000971999998" height="41.00000354999975" class="text">organizations
</text>
<text x="994.9999796400001" y="1601.00002755" width="107.99998795999988" height="33.99998183999992" class="text">receiving </text>
<text x="1118.00003568" y="1599.00004737" width="31.999991879999925" height="32.00000165999995" class="text">100 </text>
<text x="1164.99999028" y="1599.00004737" width="71.00001436000002" height="34.00011846000007" class="text">copies </text>
<text x="1249.00002384" y="1598.00005728" width="22.99998263999987" height="32.00000165999995" class="text">or </text>
<text x="1288.0000463200001" y="1598.00005728" width="54.000002759999916" height="34.00009569000008" class="text">more</text>
<text x="1344.99998192" y="1596.99995334" width="8.999991679999994" height="32.00002443000017" class="text">:
</text>
<text x="1076.99996432" y="1831.9999698000001" width="59.00007228000004" height="27.9999502200003" class="text">NIL
</text>
<text x="113.000003044" y="1675.99999017" width="102.000001116" height="26.99996013000009" class="text">Libraries
</text>
<text x="351.99999848" y="1669.99995855" width="36.999991160000036" height="25.999970040000107" class="text">80
</text>
<text x="113.000003044" y="1708.9999819200002" width="70.99999855600002" height="26.99996013000009" class="text">Public </text>
<text x="197.00000323999998" y="1707.99999183" width="87.99999084000004" height="26.99996013000009" class="text">officials</text>
<text x="291.00000024" y="1706.00003442" width="6.9999954799999955" height="25.00000272000011" class="text">, </text>
<text x="349.00001296" y="1705.00004433" width="42.999979759999974" height="26.00010666000003" class="text">80
</text>
<text x="113.000003044" y="1747.0000152" width="136.999996076" height="31.00001156999997" class="text">Newspapers </text>
<text x="351.99999848" y="1738.00003608" width="36.999991160000036" height="25.999970040000107" class="text">40
</text>
<text x="115.999997344" y="1778.00004954" width="59.000009064" height="29.000054159999763" class="text">Press </text>
<text x="187.00000468" y="1777.0000594500002" width="89.99998704000004" height="30.0000442500002" class="text">services </text>
<text x="289.00000404" y="1774.99996542" width="24.999978839999983" height="26.99996013000009" class="text">of
</text>
<text x="138.999997544" y="1810.0000512" width="136.00001553600003" height="28.000064070000008" class="text">associations </text>
<text x="371.99999560000003" y="1805.9999997599998" width="37.99999803999998" height="26.999960129999863" class="text">50
</text>
<text x="115.999997344" y="1844.00003304" width="135.99999797600003" height="27.00009675000001" class="text">Educational
</text>
<text x="141.000002524" y="1875.00006738" width="125.99999063599998" height="27.00009675000001" class="text">institutions </text>
<text x="353.99999468" y="1872.9999505800001" width="60.00000892000003" height="27.999927450000087" class="text">250
</text>
<text x="115.999997344" y="1910.00001654" width="61.000008776" height="25.99997003999988" class="text">Civic </text>
<text x="213.99999728" y="1913.9999541299999" width="75.99999608000002" height="25.99997003999988" class="text">groups
</text>
<text x="373.00000248" y="1907.00006904" width="39.00000492000004" height="25.000116570000046" class="text">50
</text>
<text x="118.00000408" y="1952.9999774999999" width="64.99999064" height="40.00001345999999" class="text">Other </text>
<text x="194.99998948" y="1951.9999874100001" width="12.000012319999996" height="38.00003328000025" class="text">(</text>
<text x="203.0000094" y="1951.9999874100001" width="63.999983759999964" height="40.00001345999999" class="text">spect </text>
<text x="332.99999068" y="1950.00003" width="226.00002716000006" height="41.99997086999974" class="text">individuals </text>
<text x="584.00001424" y="1945.99995579" width="54.99997452000002" height="40.00001345999999" class="text">and</text>
<text x="651.00001864" y="1944.9999656999998" width="11.99997719999999" height="37.99989665999988" class="text">/</text>
<text x="662.00002408" y="1943.9999983799999" width="42.999979759999974" height="39.00002336999978" class="text">or </text>
<text x="728.00000404" y="1943.9999983799999" width="240.99995475999992" height="42.99996095999995" class="text">institutions
</text>
<text x="151.000004596" y="1985.99996925" width="200.999993884" height="43.99995105000016" class="text">interested </text>
<text x="376.00000556" y="1984.0000118399998" width="39.00000491999998" height="41.99999363999996" class="text">in </text>
<text x="439.0" y="1984.0000118399998" width="223.99999584" height="42.99996095999995" class="text">francophone </text>
<text x="694.00001596" y="1982.0000316599999" width="11.99997719999999" height="41.99997086999997" class="text">(</text>
<text x="707.99998936" y="1983.00002175" width="186.00005048000003" height="44.000087670000084" class="text">qubcois</text>
<text x="900.0000108799999" y="1981.00006434" width="12.00002988000017" height="42.000130260000105" class="text">)
</text>
<text x="146.00000356" y="2017.99997091" width="206.99998424000003" height="36.999906569999894" class="text">activities
</text>
<text x="1361.99999352" y="1899.00005724" width="62.99999443999991" height="201.00003461999995" class="text">REGISTRATION </text>
<text x="1385.99996548" y="1977.99995745" width="48.00001416000009" height="66.99995081999987" class="text">UNIT
</text>
<text x="1402.99997708" y="1892.00003553" width="52.00004167999987" height="119.00002752" class="text">SECTION
</text>
<text x="1420.00000624" y="1826.00005203" width="55.99994628000013" height="145.9999876500001" class="text">INTERNAL </text>
<text x="1438.00000716" y="1977.99995745" width="56.00005164000004" height="145.00002032999987" class="text">SECURITY
</text>
<text x="1483.99997244" y="1708.9999819200002" width="48.00003172000015" height="44.999941140000374" class="text">93 </text>
<text x="1488.99995416" y="1771.0000278300001" width="50.00009816000011" height="57.99997170000006" class="text">DEC</text>
<text x="1497.9999634" y="1795.00004046" width="44.00000419999992" height="16.999990920000073" class="text">-</text>
<text x="1500.00001228" y="1821.0000105" width="44.00002175999998" height="16.999990920000073" class="text">2 </text>
<text x="1503.00005048" y="1884.0000465" width="47.99992636000002" height="45.00005499000008" class="text">PM </text>
<text x="1510.99996504" y="1914.99994422" width="44.00002175999998" height="16.999990920000073" class="text">4</text>
<text x="1512.00004216" y="1932.0000489899999" width="43.999916400000075" height="17.00010476999978" class="text">: </text>
<text x="1514.00000324" y="1982.0000316599999" width="48.000031719999924" height="45.00005498999985" class="text">20
</text>
<text x="1555.99995856" y="1818.000063" width="56.00005164000004" height="148.00010444999998" class="text">CRIMINAL </text>
<text x="1573.99995948" y="1966.00003083" width="55.00007988000016" height="137.99999862000004" class="text">DIVISION</text>
<text x="1587.99995044" y="1763.0000387999999" width="52.00004167999987" height="88.0000387199998" class="text">DEPT</text>
<text x="1599.00000856" y="1772.00001792" width="41.999955320000026" height="16.999990920000073" class="text">. </text>
<text x="1600.99995208" y="1815.99996897" width="44.99999352000009" height="41.99999363999996" class="text">OF 
</text>
<text x="1607.00002848" y="1954.99993491" width="54.99997452000002" height="126.99990270000012" class="text">JUSTICE</text>
<text x="1630.99998288" y="1886.00000391" width="54.000002759999916" height="150.0000618600002" class="text">RECEIVED
</text>
<text x="1564.9999678" y="2111.00005116" width="42.00006068000016" height="19.0000849500002" class="text">FORM </text>
<text x="1620.00003012" y="2109.99994722" width="32.99996364000003" height="16.999990920000528" class="text">CRM</text>
<text x="1660.0000419199998" y="2109.99994722" width="4.999999280000111" height="16.999990920000528" class="text">-</text>
<text x="1663.9999465199999" y="2109.99994722" width="19.00007804000029" height="17.999981010000283" class="text">159
</text>
<text x="1629.00003936" y="2133.99993708" width="31.000002559999757" height="17.99995824000007" class="text">SEP</text>
<text x="1660.0000419199998" y="2132.99996976" width="4.999999280000111" height="17.99998100999983" class="text">. </text>
<text x="1669.00005116" y="2132.99996976" width="16.999906239999973" height="17.99998100999983" class="text">89
</text>
</g>
<g id="page-1" transform="translate(0, 2297)">
<rect width="1756" height="2277" fill="none" stroke="black" />
<text x="127.000002784" y="138.000003174" width="41.99999922000001" height="32.999998581" class="text">13. </text>
<text x="175.000006408" y="138.999995541" width="18.999993751999995" height="33.999990948000004" class="text">If </text>
<text x="203.99999872" y="138.999995541" width="33.000016319999986" height="32.99999175000001" class="text">the </text>
<text x="255.00001595999998" y="140.999996214" width="90.99999392000001" height="34.999992422999995" class="text">material </text>
<text x="353.99999468" y="140.999996214" width="123.99997512000004" height="33.999993225" class="text">transmitted </text>
<text x="492.00001344000003" y="140.999996214" width="41.999972879999916" height="33.00000085799999" class="text">was </text>
<text x="548.0000124" y="140.999996214" width="9.000009240000054" height="33.00000085799999" class="text">a </text>
<text x="571.99998436" y="141.999997689" width="37.99999803999992" height="33.00000085799999" class="text">film </text>
<text x="625.9999695600001" y="141.999997689" width="24.00002463999988" height="33.00000085799999" class="text">or </text>
<text x="662.99999584" y="143.000005995" width="55.00002719999998" height="34.000009164000005" class="text">radio </text>
<text x="730.9999720000001" y="143.000005995" width="25.00004907999994" height="33.00000996600001" class="text">or </text>
<text x="765.00003032" y="145.000006668" width="109.99998416000005" height="35.000010638999996" class="text">television </text>
<text x="886.99999168" y="146.000005866" width="67.00000439999997" height="35.000008362" class="text">script</text>
<text x="953.99999608" y="145.000006668" width="9.00000923999994" height="33.00000996599999" class="text">, </text>
<text x="972.9999863200001" y="146.000005866" width="75.00002431999997" height="35.000008362" class="text">furnish </text>
<text x="1061.99998404" y="146.000005866" width="39.00004003999993" height="33.000007689" class="text">the </text>
<text x="1109.0000440000001" y="147.000007341" width="104.99994975999994" height="34.000009164000005" class="text">following </text>
<text x="1227.00001296" y="148.000006539" width="131.99994235999998" height="34.00000916399999" class="text">information</text>
<text x="1362.99996528" y="148.000006539" width="9.000009240000054" height="33.000007688999986" class="text">:
</text>
<text x="123.999994436" y="207.00000703799998" width="67.00000264400002" height="33.000009965999965" class="text">Name </text>
<text x="205.0000056" y="206.000005563" width="22.00001088000002" height="31.000009293000005" class="text">of </text>
<text x="237.00001504" y="208.000006236" width="70.99997924000002" height="33.00000996599999" class="text">station</text>
<text x="312.99999356" y="207.00000703799998" width="9.0000268" height="31.000009292999977" class="text">, </text>
<text x="331.9999838" y="210.000006909" width="138.00001876000005" height="34.000009164000005" class="text">organization</text>
<text x="475.0000018399999" y="209.000007711" width="8.99999168000005" height="31.000009292999977" class="text">, </text>
<text x="492.00001344000003" y="209.000007711" width="23.999971959999982" height="31.000009292999977" class="text">or </text>
<text x="526.99999084" y="211.00000838399998" width="79.00003428000002" height="33.000009965999965" class="text">theater </text>
<text x="616.00000612" y="212.000007582" width="57.999995160000026" height="33.00000996599999" class="text">using
</text>
<text x="124.99999780400002" y="238.99999959" width="8.999998703999992" height="30.999993353999997" class="text">(</text>
<text x="136.000001488" y="241.00000254" width="102.00000287199998" height="32.99999630400001" class="text">including </text>
<text x="250.99998844" y="239.99998968" width="38.00001560000001" height="30.999981969000004" class="text">city </text>
<text x="300.00000948" y="239.99998968" width="43.999986639999975" height="30.999981969000004" class="text">and </text>
<text x="359.00001152" y="239.99998968" width="47.99997904000003" height="30.999981969000004" class="text">state</text>
<text x="411.00000052" y="239.99998968" width="8.999991679999994" height="30.999981969000004" class="text">)
</text>
<text x="954.9999853999999" y="210.000006909" width="53.00001344000009" height="29.00000861999999" class="text">Date </text>
<text x="1020.0000287199999" y="210.000006909" width="27.999981920000096" height="29.00000861999999" class="text">or </text>
<text x="1055.0000588" y="211.00000838399998" width="61.99989976000006" height="29.00000861999999" class="text">dates </text>
<text x="1125.9999678" y="212.000007582" width="111.00002616000006" height="31.000009292999977" class="text">broadcast </text>
<text x="1249.00002384" y="212.000007582" width="71.00001436000002" height="29.00000861999999" class="text">shown
</text>
<text x="1418.0000451600001" y="210.000006909" width="108.99995971999988" height="26.000006471999995" class="text">Estimated </text>
<text x="1542.9999569200002" y="212.000007582" width="120.00001783999983" height="27.000007946999972" class="text">attendance
</text>
<text x="1468.00003796" y="248.00000147999998" width="8.999991679999994" height="31.000009292999977" class="text">(</text>
<text x="1482.00001136" y="248.00000147999998" width="30.000030800000104" height="31.000009292999977" class="text">for </text>
<text x="1524.9999559999999" y="248.00000147999998" width="41.00008892000005" height="31.000009292999977" class="text">film</text>
<text x="1571.00002664" y="248.99999157" width="9.000009239999827" height="31.000000184999976" class="text">(</text>
<text x="1580.0000358799998" y="248.99999157" width="8.999991680000221" height="31.000000184999976" class="text">s</text>
<text x="1591.9999604" y="248.99999157" width="8.999991679999994" height="31.000000184999976" class="text">)</text>
<text x="1602.00004676" y="248.99999157" width="8.999991679999994" height="31.000000184999976" class="text">)
</text>
<text x="891.00000164" y="278.99999027999996" width="9.000009239999827" height="32.999991749999964" class="text">N</text>
<text x="918.0000118" y="278.99999027999996" width="8.999991679999994" height="32.999991749999964" class="text">/</text>
<text x="934.00005164" y="278.99999027999996" width="8.999991679999994" height="32.999991749999964" class="text">A
</text>
<text x="123.999994436" y="477.00000909" width="44.00000595600001" height="31.00001156999997" class="text">14. </text>
<text x="171.99999806" y="477.00000909" width="56.00000774" height="31.00001156999997" class="text">Have </text>
<text x="240.99998988000002" y="477.99999918" width="40.00001180000001" height="32.00000165999995" class="text">two </text>
<text x="293.00001399999996" y="477.99999918" width="71.99998612000002" height="30.999988799999983" class="text">copies </text>
<text x="376.00000556" y="477.99999918" width="22.99998264000004" height="30.999988799999983" class="text">of </text>
<text x="407.99999744" y="477.99999918" width="39.99999423999998" height="30.999988799999983" class="text">this </text>
<text x="463.9999964" y="479.00001204" width="93.00002524000001" height="32.00000166000001" class="text">material </text>
<text x="566.00001332" y="479.00001204" width="49.99999279999997" height="31.000034339999957" class="text">been </text>
<text x="633.00001772" y="479.00001204" width="44.999993519999975" height="31.000034339999957" class="text">filed
</text>
<text x="752.9999828800001" y="483.00001794" width="34.00000563999993" height="33.00003729000002" class="text">the </text>
<text x="793.99996644" y="483.00001794" width="140.00008520000006" height="33.00003729000002" class="text">Department </text>
<text x="943.00004332" y="483.00001794" width="23.999971959999925" height="33.00003729000002" class="text">of </text>
<text x="976.99999628" y="483.00001794" width="75.99999608000007" height="33.00003729000002" class="text">Justice</text>
<text x="1056.00003056" y="483.00001794" width="8.999991679999994" height="33.00003729000002" class="text">?
</text>
<text x="1105.00003404" y="481.00001499" width="36.999973599999976" height="29.999998710000057" class="text">Yes </text>
<text x="1155.9999986" y="480.00000213" width="8.999991679999994" height="28.000018529999977" class="text">
</text>
<text x="1209.9999837999999" y="481.00001499" width="34.000040760000275" height="27.000028439999994" class="text">No </text>
<text x="1258.9999872800001" y="481.00001499" width="8.000037479999719" height="27.000028439999994" class="text">
</text>
<text x="120.99999838" y="542.99999259" width="44.000005956000024" height="30.999988799999983" class="text">15. </text>
<text x="182.00000540000002" y="544.00000545" width="44.00000419999998" height="31.000011570000083" class="text">Has </text>
<text x="238.99999368000002" y="544.00000545" width="39.00000491999995" height="31.000011570000083" class="text">this </text>
<text x="294.99999264" y="546.0000084000001" width="89.00001527999996" height="33.00001452000015" class="text">material </text>
<text x="391.0000034" y="546.9999984899999" width="52.000006559999974" height="32.00000165999995" class="text">been </text>
<text x="459.99998644" y="548.00001135" width="75.99999608000002" height="33.000014520000036" class="text">labeled </text>
<text x="546.0000162" y="546.9999984899999" width="29.000006360000043" height="30.999988799999983" class="text">as </text>
<text x="582.00000048" y="549.00000144" width="94.00001455999995" height="32.99999175000005" class="text">required </text>
<text x="691.0000304399999" y="549.00000144" width="21.999958200000037" height="30.999988799999983" class="text">by </text>
<text x="725.99999028" y="549.00000144" width="35.00003007999999" height="30.999988799999983" class="text">the </text>
<text x="768.9999876" y="550.0000143" width="35.99998427999992" height="32.00000165999995" class="text">act</text>
<text x="808.00001008" y="550.0000143" width="9.000009240000054" height="31.000034339999957" class="text">?
</text>
<text x="857.00001356" y="544.99999554" width="35.99994916000003" height="26.999982899999964" class="text">Yes </text>
<text x="909.00000256" y="544.00000545" width="8.000019919999886" height="25.000025489999985" class="text">
</text>
<text x="963.99997708" y="544.99999554" width="36.999973599999976" height="26.000015579999967" class="text">No
</text>
<text x="119.00000569199999" y="609.99998895" width="53.999995736" height="32.999991749999936" class="text">Date </text>
<text x="180.99999852" y="609.99998895" width="29.000006360000015" height="29.9999759399999" class="text">of </text>
<text x="218.99999656" y="614.99998494" width="70.00000748000002" height="32.99999175000005" class="text">report
</text>
<text x="407.99999744" y="610.99997904" width="69.00000059999996" height="28.99998585000003" class="text">Name </text>
<text x="488.00000348" y="609.99998895" width="38.999987360000034" height="27.000005670000064" class="text">and </text>
<text x="539.00002072" y="610.99997904" width="38.99996980000003" height="27.999995760000047" class="text">title
</text>
<text x="1057.00000232" y="618.00000075" width="106.00004444000001" height="32.99999175000005" class="text">Signature
</text>
<text x="142.999995212" y="687.00000006" width="160.99998910800002" height="36.99999765000007" class="text">11/24/93
</text>
<text x="425.99999836" y="687.00000006" width="80.99997780000001" height="35.0000174700001" class="text">Reed </text>
<text x="532.00002524" y="688.99998024" width="122.99995067999998" height="36.99999765000007" class="text">Scowen</text>
<text x="662.00002408" y="687.99999015" width="9.999981000000048" height="34.999971930000015" class="text">, </text>
<text x="696.00001216" y="690.0000158700001" width="164.99995868000008" height="36.99999765000007" class="text">Delegate </text>
<text x="886.00001992" y="691.0000059600001" width="144.99996155999986" height="36.99999765000007" class="text">General
</text>
<text x="1240.0000146" y="718.0000343999999" width="197.99999256" height="130.00000958999988" class="text">redtrom
</text>
<text x="1405.00004352" y="2176.00006734" width="25.999915480000027" height="27.00009675000001" class="text">U.B</text>
<text x="1432.00003612" y="2176.00006734" width="6.999942800000099" height="26.000129430000015" class="text">. </text>
<text x="1441.0000278" y="2177.00003466" width="36.999973599999976" height="27.00009675000001" class="text">GPO</text>
<text x="1478.9999907200001" y="2177.00003466" width="7.0000305999999455" height="25.99997003999988" class="text">: </text>
<text x="1491.99999236" y="2179.00001484" width="103.00000623999995" height="29.000076929999977" class="text">1992-312-332</text>
<text x="1599.00000856" y="2179.00001484" width="7.000048160000006" height="25.99997003999988" class="text">/</text>
<text x="1608.0000002400002" y="2179.99998216" width="48.0000317199997" height="27.999927450000087" class="text">61637
</text>
</g>
</svg>
