<svg xmlns="http://www.w3.org/2000/svg">
<style>.text { font-size: 14px; font-family: Arial, sans-serif; }</style>
<g id="page-0" transform="translate(0, 0)">
<rect width="1756" height="2277" fill="none" stroke="black" />
<text x="877.00002824" y="143.000005995" width="162.99996248000014" height="34.000009164000005" class="text">Dissemination </text>
<text x="1051.00003128" y="144.00000519300002" width="79.99991823999994" height="33.000007689000014" class="text">Report
</text>
<text x="1454.000047" y="129.000001284" width="5.999953479999931" height="19.000005255000005" class="text">_ </text>
<text x="1512.00004216" y="127.000000611" width="42.99994463999997" height="19.99999762200001" class="text">OMB </text>
<text x="1558.99999676" y="126.00000141299999" width="27.999981919999982" height="19.999997621999995" class="text">No. </text>
<text x="1594.9999986" y="124.999999938" width="66.00001507999991" height="21.999996018000004" class="text">1105-0006
</text>
<text x="1429.99996968" y="151.00000868700002" width="62.99999444000014" height="22.000007403000012" class="text">Approval </text>
<text x="1500.00001228" y="150.000007212" width="50.99996456000008" height="22.00000512600002" class="text">Expires </text>
<text x="1558.99999676" y="149.000008014" width="36.999973599999976" height="22.000007402999998" class="text">Nov. </text>
<text x="1600.99995208" y="148.000006539" width="15.00006808000012" height="20.000004453000003" class="text">30</text>
<text x="1618.999953" y="148.000006539" width="6.000076399999898" height="20.000004453000003" class="text">, </text>
<text x="1630.99998288" y="148.000006539" width="31.000020120000045" height="21.000005927999993" class="text">1993
</text>
<text x="99.000003304" y="151.00000868700002" width="49.99999631199999" height="34.00001144100003" class="text">U.S. </text>
<text x="155.000002264" y="151.00000868700002" width="150.99999581600002" height="35.00001063900001" class="text">Department </text>
<text x="313.99998288" y="148.000006539" width="23.00001775999999" height="32.00000849099999" class="text">of </text>
<text x="350.00001984" y="148.000006539" width="79.99998848000001" height="34.00000916399999" class="text">Justice
</text>
<text x="96.999996568" y="195.00000300000002" width="126.999999272" height="37.00001131200003" class="text">Washington</text>
<text x="228.99999511999997" y="192.00000312900002" width="9.999998560000051" height="33.00000996600002" class="text">, </text>
<text x="244.00001052000002" y="192.00000312900002" width="42.99997976" height="35.00001063900004" class="text">DC </text>
<text x="296.99998884" y="191.00000165400002" width="69.00001816000002" height="35.00001063900001" class="text">20530
</text>
<text x="97.999999936" y="292.00002084" width="160.99999086399998" height="28.000018529999977" class="text">INSTRUCTIONS</text>
<text x="259.99999768000004" y="290.99998521" width="6.999995479999939" height="25.999970039999994" class="text">: </text>
<text x="272.99999932000003" y="290.99998521" width="62.999994439999966" height="26.999982899999964" class="text">Report </text>
<text x="346.00000988" y="290.00001789000004" width="39.99999423999998" height="26.000015580000024" class="text">must </text>
<text x="389.99999651999997" y="290.00001789000004" width="24.000007080000046" height="26.000015580000024" class="text">be </text>
<text x="419.9999922" y="290.00001789000004" width="86.00001219999996" height="28.000018530000034" class="text">submitted </text>
<text x="517.0000098400001" y="289.00000503" width="13.999990959999877" height="25.999992810000037" class="text">in </text>
<text x="537.99999628" y="289.00000503" width="84.00001600000007" height="27.99999575999999" class="text">duplicate </text>
<text x="629.00000776" y="288.00001494" width="15.000015400000052" height="26.000015580000024" class="text">to </text>
<text x="654.99997592" y="288.00001494" width="26.000020840000047" height="26.000015580000024" class="text">the </text>
<text x="689.00001668" y="288.00001494" width="105.99999175999994" height="28.000018530000034" class="text">Registration </text>
<text x="804.99997188" y="287.00000208" width="40.00001180000004" height="25.99999280999998" class="text">Unit</text>
<text x="846.99999744" y="287.00000208" width="6.999995480000052" height="25.99999280999998" class="text">, </text>
<text x="859.0000273200001" y="286.00001199" width="73.99994719999995" height="27.000005670000007" class="text">Internal </text>
<text x="940.0000226799999" y="286.00001199" width="71.99998612000002" height="28.000018530000034" class="text">Security </text>
<text x="1022.99996156" y="284.99999913" width="62.99999443999991" height="25.99999280999998" class="text">Section</text>
<text x="1092.0000324" y="284.99999913" width="6.999925240000039" height="25.99999280999998" class="text">, </text>
<text x="1105.00003404" y="284.99999913" width="82.99993888000017" height="27.99999575999999" class="text">Criminal </text>
<text x="1194.00004932" y="283.99998627" width="73.99994719999995" height="26.99998290000002" class="text">Division</text>
<text x="1273.99995" y="282.99999618" width="7.000048160000006" height="25.99999280999998" class="text">, </text>
<text x="1286.9999692" y="283.99998627" width="109.00006508000001" height="27.999972990000003" class="text">Department </text>
<text x="1402.99997708" y="281.99998332" width="18.999972679999928" height="25.999970039999994" class="text">of </text>
<text x="1427.0000544" y="281.99998332" width="59.999956240000074" height="25.999970039999994" class="text">Justice</text>
<text x="1488.99995416" y="281.99998332" width="7.000048160000006" height="25.999970039999994" class="text">, </text>
<text x="1501.99997336" y="281.99998332" width="104.00008335999996" height="27.999972990000032" class="text">Washington</text>
<text x="1608.9999719999998" y="280.99999323" width="7.000048160000233" height="25.99999280999998" class="text">, </text>
<text x="1622.9999629600002" y="280.99999323" width="44.00002175999998" height="25.99999280999998" class="text">D.C.
</text>
<text x="96.999996568" y="319.99999383" width="64.0000101" height="27.999972990000003" class="text">20530. </text>
<text x="168.000000392" y="319.00000374" width="32.999995247999976" height="26.000015580000024" class="text">The </text>
<text x="208.999998" y="319.00000374" width="70.99999679999996" height="26.99998290000002" class="text">original </text>
<text x="289.00000404" y="317.99999088" width="42.999979759999974" height="25.999970039999994" class="text">must </text>
<text x="337.00000064" y="317.99999088" width="19.00000779999999" height="25.999970039999994" class="text">be </text>
<text x="366.00000700000004" y="317.99999088" width="54.99999207999997" height="27.000005670000007" class="text">signed </text>
<text x="430.00000832" y="317.00000079" width="18.99997268000004" height="26.000015580000024" class="text">by </text>
<text x="458.99999712" y="317.00000079" width="18.99997268000004" height="26.000015580000024" class="text">or </text>
<text x="483.99999352" y="317.00000079" width="24.00002464000005" height="26.000015580000024" class="text">on </text>
<text x="512.00002812" y="317.00000079" width="60.99998067999991" height="26.999982899999964" class="text">behalf </text>
<text x="577.99999052" y="315.99998793" width="19.000025359999995" height="25.999970039999937" class="text">of </text>
<text x="602.99998692" y="315.99998793" width="26.000020840000047" height="25.999970039999937" class="text">the </text>
<text x="638.9999887600001" y="315.99998793" width="86.00002975999985" height="27.999972989999947" class="text">registrant</text>
<text x="725.0000185199999" y="314.99999784" width="6.999995480000166" height="25.99999280999998" class="text">. </text>
<text x="739.99998124" y="314.99999784" width="28.00001703999999" height="25.99999280999998" class="text">All </text>
<text x="774.9999937599999" y="314.99999784" width="49.99999279999997" height="26.999982899999964" class="text">items </text>
<text x="828.9999965200001" y="313.99998497999997" width="13.999990959999877" height="25.999970039999937" class="text">in </text>
<text x="855.00001736" y="313.99998497999997" width="32.99996363999992" height="25.999970039999937" class="text">this </text>
<text x="894.00003984" y="313.99998497999997" width="42.99994463999997" height="26.999982899999964" class="text">form </text>
<text x="949.00001436" y="312.99999489000004" width="44.00002175999998" height="25.999992810000037" class="text">must </text>
<text x="997.00004608" y="312.99999489000004" width="18.99997268000004" height="25.999992810000037" class="text">be </text>
<text x="1025.9999997599998" y="312.99999489000004" width="80.99999536000018" height="27.999995760000047" class="text">answered</text>
<text x="1111.99997684" y="311.99998203" width="7.000048160000006" height="25.999970039999994" class="text">, </text>
<text x="1123.00003496" y="311.99998203" width="55.99994628000013" height="26.99998290000002" class="text">unless </text>
<text x="1187.9999729200001" y="310.99999194000003" width="26.000020839999934" height="25.999992810000037" class="text">the </text>
<text x="1223.000003" y="310.99999194000003" width="62.99999443999991" height="25.999992810000037" class="text">answer </text>
<text x="1294.0000173600001" y="310.99999194000003" width="14.999962719999985" height="27.000005670000007" class="text">is </text>
<text x="1315.00003892" y="309.99997908" width="6.999942800000099" height="25.99999280999998" class="text">"</text>
<text x="1330.00000164" y="309.99997908" width="44.00002176000021" height="25.99999280999998" class="text">none</text>
<text x="1371.99997452" y="309.99997908" width="7.000048160000006" height="25.99999280999998" class="text">" </text>
<text x="1392.00002432" y="309.99997908" width="18.999972679999928" height="25.99999280999998" class="text">or </text>
<text x="1419.00001692" y="309.99997908" width="6.999942799999872" height="25.99999280999998" class="text">"</text>
<text x="1430.999959" y="308.99998899" width="30.000030799999877" height="25.999992810000037" class="text">not </text>
<text x="1468.00003796" y="309.99997908" width="89.99998703999995" height="27.99999575999999" class="text">applicable</text>
<text x="1562.00003496" y="307.99997613" width="6.999942800000099" height="25.99999280999998" class="text">,</text>
<text x="1564.9999678" y="307.99997613" width="7.000048160000006" height="25.99999280999998" class="text">" </text>
<text x="1582.99996872" y="307.99997613" width="14.000078759999951" height="25.99999280999998" class="text">in </text>
<text x="1606.00005672" y="307.99997613" width="54.99995695999996" height="25.99999280999998" class="text">which
</text>
<text x="96.000000224" y="349.99999254" width="37.999996284000005" height="26.999982899999964" class="text">case </text>
<text x="146.00000356" y="349.99999254" width="36.99999115999998" height="27.99999575999999" class="text">such </text>
<text x="193.00001084" y="349.00000244999995" width="19.999979560000014" height="27.00000566999995" class="text">an </text>
<text x="222.99998896" y="349.00000244999995" width="47.00000727999998" height="27.00000566999995" class="text">entry </text>
<text x="281.00000168" y="347.99998959" width="41.00001867999998" height="26.999982899999964" class="text">shall </text>
<text x="331.00001204" y="347.99998959" width="19.999979560000043" height="26.999982899999964" class="text">be </text>
<text x="361.99999704" y="347.99998959" width="46.00000040000003" height="27.99999575999999" class="text">made </text>
<text x="419.00000288" y="346.99999949999994" width="11.000005439999995" height="27.00000566999995" class="text">in </text>
<text x="443.00000996" y="346.99999949999994" width="25.999968160000037" height="27.00000566999995" class="text">the </text>
<text x="479.99998356" y="346.99999949999994" width="102.00001692000006" height="29.00000861999996" class="text">appropriate </text>
<text x="589.99998528" y="345.99998664000003" width="49.00000348000003" height="27.999995760000047" class="text">space</text>
<text x="642.00002696" y="345.00001932000004" width="7.999967239999933" height="27.00002844000005" class="text">. </text>
<text x="654.99997592" y="345.00001932000004" width="19.000025359999995" height="27.00002844000005" class="text">If </text>
<text x="679.00000056" y="345.99998664000003" width="95.00002144000007" height="28.99998585000003" class="text">additional </text>
<text x="779.9999930399999" y="343.99998369" width="48.00003172000004" height="26.99998290000002" class="text">space </text>
<text x="840.9999737200001" y="343.99998369" width="10.000033679999888" height="26.99998290000002" class="text">is </text>
<text x="862.9999846" y="343.99998369" width="59.00003716000003" height="27.999995760000047" class="text">needed </text>
<text x="934.00005164" y="343.00001637" width="26.999992599999928" height="27.00002844000005" class="text">for </text>
<text x="967.99998704" y="343.00001637" width="34.00004076000005" height="28.000018530000034" class="text">any </text>
<text x="1011.0000370399999" y="342.00000351" width="37.9999453600002" height="27.000005670000007" class="text">item</text>
<text x="1049.99995416" y="342.00000351" width="8.000019920000113" height="27.000005670000007" class="text">, </text>
<text x="1066.0000115599998" y="342.00000351" width="52.00002412000026" height="28.000018530000034" class="text">attach </text>
<text x="1128.00001668" y="342.00000351" width="123.99993999999992" height="29.00000861999996" class="text">supplemental </text>
<text x="1258.00001552" y="340.00000056" width="48.000031719999924" height="27.00000566999995" class="text">sheet </text>
<text x="1312.00001828" y="340.00000056" width="97.00003520000018" height="29.00000861999996" class="text">identifying </text>
<text x="1423.0000268800002" y="339.00001047" width="36.99997359999975" height="27.000028439999994" class="text">each </text>
<text x="1472.00004792" y="337.99999761" width="34.99990716000002" height="27.00000566999995" class="text">item</text>
<text x="1512.00004216" y="337.99999761" width="7.999932119999812" height="27.00000566999995" class="text">.
</text>
<text x="99.000003304" y="406.99999692" width="64.99999766400002" height="28.999985849999973" class="text">Privacy </text>
<text x="170.999994692" y="406.00000682999996" width="34.00001090800001" height="27.000028439999937" class="text">Act </text>
<text x="208.999998" y="406.00000682999996" width="91.00001148000001" height="27.999995759999933" class="text">Statement</text>
<text x="299.00000259999996" y="404.99999397" width="8.000002360000053" height="26.999982899999964" class="text">. </text>
<text x="311.00001492" y="404.99999397" width="52.99997831999997" height="26.999982899999964" class="text">Every </text>
<text x="373.00000248" y="404.99999397" width="99.00001384000001" height="28.999985849999973" class="text">registration </text>
<text x="481.000008" y="404.00000387999995" width="88.9999626" height="29.00000861999996" class="text">statement</text>
<text x="568.99999884" y="402.99999102000004" width="8.00001992" height="26.99998290000002" class="text">, </text>
<text x="579.00003252" y="402.99999102000004" width="49.999975240000026" height="26.99998290000002" class="text">short </text>
<text x="633.9999894800001" y="402.99999102000004" width="42.99999731999992" height="27.999995760000047" class="text">form </text>
<text x="683.0000105199999" y="402.99999102000004" width="101.99996424000005" height="28.99998585000003" class="text">registration </text>
<text x="793.99996644" y="402.00000093" width="85.99999463999995" height="29.000008620000017" class="text">statement</text>
<text x="879.9999610799999" y="400.99998807000003" width="8.00001992" height="26.99998290000002" class="text">, </text>
<text x="894.00003984" y="400.99998807000003" width="119.99993003999998" height="28.99998585000003" class="text">supplemental </text>
<text x="1020.0000287199999" y="399.99999798" width="85.99997708000012" height="29.000008620000017" class="text">statement</text>
<text x="1106.99999512" y="398.99998512" width="8.000019920000113" height="26.99998290000002" class="text">, </text>
<text x="1119.000025" y="398.99998512" width="60.999927999999954" height="27.999995760000047" class="text">exhibit</text>
<text x="1182.00001944" y="398.0000178" width="8.000019920000113" height="27.00002844000005" class="text">, </text>
<text x="1192.9999722" y="398.99998512" width="111.00002616000006" height="28.999985849999973" class="text">amendment</text>
<text x="1303.99999836" y="396.99998217" width="8.000019919999886" height="26.999982899999964" class="text">, </text>
<text x="1316.00002824" y="398.0000178" width="122.99995068000021" height="29.000008620000017" class="text">dissemination </text>
<text x="1450.0000370399998" y="396.00001485" width="54.99997452000002" height="27.000005670000007" class="text">report</text>
<text x="1504.00002224" y="396.00001485" width="8.000019920000113" height="27.000005670000007" class="text">, </text>
<text x="1515.99996432" y="396.00001485" width="44.99999352000009" height="28.000018529999977" class="text">copy </text>
<text x="1567.9999884400002" y="394.99997922" width="18.99999023999976" height="26.999982899999964" class="text">of </text>
<text x="1591.9999604" y="396.00001485" width="75.99999608000007" height="29.000008620000017" class="text">political
</text>
<text x="96.999996568" y="436.99999563" width="103.99999907199998" height="30.99998880000004" class="text">propaganda </text>
<text x="210.00000488" y="435.99998277000003" width="19.999979560000014" height="28.99998585000003" class="text">or </text>
<text x="237.00001504" y="435.99998277000003" width="46.000000399999976" height="28.99998585000003" class="text">other </text>
<text x="285.99998339999996" y="435.99998277000003" width="95.00000388000001" height="30.99998880000004" class="text">document </text>
<text x="387.99998276" y="434.99999268" width="15.000015399999995" height="28.99998585000003" class="text">or </text>
<text x="411.00000052" y="434.99999268" width="106.99998107999994" height="30.99998880000004" class="text">information </text>
<text x="528.00001528" y="433.99997982" width="36.00000183999998" height="29.99997594000007" class="text">filed </text>
<text x="573.0000087999999" y="432.99998973" width="40.00001180000004" height="28.99998585000003" class="text">with </text>
<text x="620.00001608" y="432.99998973" width="28.999988799999983" height="28.99998585000003" class="text">the </text>
<text x="658.99998588" y="432.99998973" width="77.00003807999997" height="30.999988799999983" class="text">Attorney </text>
<text x="741.00000568" y="431.99997687" width="74.99997164000013" height="29.999975940000013" class="text">General </text>
<text x="822.00000104" y="431.00000955" width="51.99998900000003" height="29.000008620000017" class="text">under </text>
<text x="881.0000382" y="431.00000955" width="33.99993540000014" height="29.000008620000017" class="text">this </text>
<text x="921.00005" y="431.00000955" width="29.99992543999997" height="30.000021479999987" class="text">act </text>
<text x="953.00002432" y="430.00001946" width="17.000029160000054" height="29.000031389999947" class="text">is </text>
<text x="976.00000696" y="430.00001946" width="8.000019920000113" height="29.000031389999947" class="text">a </text>
<text x="993.00003612" y="430.00001946" width="53.000013439999975" height="29.000031389999947" class="text">public </text>
<text x="1057.9999740800001" y="430.00001946" width="54.000002759999916" height="30.000021479999987" class="text">record </text>
<text x="1124.00000672" y="429.0000066" width="40.99998355999992" height="29.000008620000017" class="text">open </text>
<text x="1170.99996132" y="429.0000066" width="15.000068079999892" height="29.000008620000017" class="text">to </text>
<text x="1195.99999284" y="428.00001650999997" width="58.000012720000086" height="29.000031389999947" class="text">public </text>
<text x="1259.9999765999999" y="428.00001650999997" width="111.00002616000006" height="29.999998709999943" class="text">examination</text>
<text x="1374.0000234000001" y="427.00000365000005" width="8.000019919999886" height="28.99998585000003" class="text">, </text>
<text x="1384.99997616" y="427.00000365000005" width="92.00005348000013" height="30.000021480000044" class="text">inspection </text>
<text x="1486.00002132" y="426.00001356" width="32.999963639999805" height="29.000031390000004" class="text">and </text>
<text x="1526.00003312" y="426.00001356" width="69.99993724000001" height="31.000034340000013" class="text">copying </text>
<text x="1604.99996204" y="425.00000070000004" width="58.999984479999966" height="28.99998585000003" class="text">during
</text>
<text x="96.000000224" y="465.00001416" width="27.99999421199999" height="28.000018529999977" class="text">the </text>
<text x="132.00000382" y="465.00001416" width="55.00000086" height="29.000031389999947" class="text">posted </text>
<text x="198.99999943999998" y="464.0000013" width="75.00000675999999" height="29.000008620000017" class="text">business </text>
<text x="283.00001543999997" y="464.0000013" width="50.99998212000003" height="29.000008620000017" class="text">hours </text>
<text x="341.99998236" y="463.00001120999997" width="20.000014679999992" height="28.000018529999977" class="text">of </text>
<text x="368.99999252" y="463.00001120999997" width="25.00001395999999" height="28.000018529999977" class="text">the </text>
<text x="402.00000884" y="463.00001120999997" width="108.00000551999995" height="30.000021479999987" class="text">Registration </text>
<text x="519.00000604" y="461.99999835" width="43.999969079999914" height="28.000018529999977" class="text">Unit </text>
<text x="566.99998508" y="461.99999835" width="15.000015400000052" height="28.000018529999977" class="text">in </text>
<text x="595.00001968" y="461.99999835" width="103.00000623999995" height="30.000021479999987" class="text">Washington</text>
<text x="700.99999388" y="461.00000826" width="8.000037479999946" height="28.000018530000034" class="text">, </text>
<text x="716.9999986" y="461.00000826" width="40.99998355999992" height="29.000031390000004" class="text">D.C. </text>
<text x="763.00001656" y="459.99999540000005" width="36.999973599999976" height="28.000018530000034" class="text">One </text>
<text x="810.0000238399999" y="459.99999540000005" width="38.999969800000144" height="28.000018530000034" class="text">copy </text>
<text x="859.99999908" y="459.99999540000005" width="19.999961999999982" height="28.99998585000003" class="text">of </text>
<text x="886.00001992" y="459.00000531" width="45.99998284000003" height="27.99999575999999" class="text">every </text>
<text x="940.99999444" y="459.00000531" width="40.00001180000004" height="27.99999575999999" class="text">such </text>
<text x="990.99996968" y="459.00000531" width="93.00002524000001" height="29.99999871" class="text">document </text>
<text x="1088.00000488" y="457.99999245000004" width="15.999952040000153" height="27.99997299000006" class="text">is </text>
<text x="1111.99997684" y="457.99999245000004" width="119.00004607999995" height="29.99997594000007" class="text">automatically </text>
<text x="1242.9999474400001" y="457.00000236" width="76.0000136399999" height="29.999998709999943" class="text">provided </text>
<text x="1327.99995276" y="455.9999895" width="19.000078040000062" height="27.99997299000006" class="text">to </text>
<text x="1353.9999736" y="455.9999895" width="26.99999260000004" height="27.99997299000006" class="text">the </text>
<text x="1392.00002432" y="455.9999895" width="83.99992820000011" height="29.999975940000013" class="text">Secretary </text>
<text x="1483.99997244" y="454.99999941" width="20.000049799999942" height="27.999995759999933" class="text">of </text>
<text x="1513.00003148" y="454.99999941" width="41.999955320000026" height="27.999995759999933" class="text">State </text>
<text x="1563.00000672" y="454.99999941" width="80.99999535999996" height="29.999998709999943" class="text">pursuant </text>
<text x="1648.00001204" y="453.99998655" width="15.999934479999865" height="27.999972990000003" class="text">to
</text>
<text x="99.000003304" y="491.99999706" width="62.99999268399999" height="26.99998290000002" class="text">Section </text>
<text x="171.99999806" y="491.00000697" width="7.999993579999995" height="27.000005670000007" class="text">6</text>
<text x="182.99999472" y="491.00000697" width="8.000002360000025" height="27.000005670000007" class="text">(</text>
<text x="190.99999708" y="491.00000697" width="8.000002359999968" height="27.000005670000007" class="text">b</text>
<text x="202.00000252" y="491.00000697" width="8.000002359999996" height="27.000005670000007" class="text">) </text>
<text x="215.00000416" y="491.00000697" width="18.99999023999999" height="27.000005670000007" class="text">of </text>
<text x="238.00000436" y="491.00000697" width="26.000003279999987" height="27.000005670000007" class="text">the </text>
<text x="274.0000062" y="491.00000697" width="30.99998499999998" height="27.000005670000007" class="text">Act</text>
<text x="304.99999119999995" y="489.99999411" width="8.000002360000053" height="26.99998290000002" class="text">, </text>
<text x="314.99998976" y="489.99999411" width="30.000013240000044" height="26.99998290000002" class="text">and </text>
<text x="355.00000156" y="489.99999411" width="58.00001271999997" height="26.99998290000002" class="text">copies </text>
<text x="416.99998912" y="489.99999411" width="19.99999711999999" height="26.99998290000002" class="text">of </text>
<text x="443.00000996" y="489.99999411" width="36.00000184000004" height="27.99999575999999" class="text">such </text>
<text x="490.00001724" y="489.99999411" width="96.99998252000006" height="28.999985849999973" class="text">documents </text>
<text x="593.00000592" y="487.99999116" width="27.000010159999988" height="26.999982899999964" class="text">are </text>
<text x="629.00000776" y="487.99999116" width="76.99998540000001" height="27.999995759999933" class="text">routinely </text>
<text x="718.9999948000001" y="487.99999116" width="44.999993519999975" height="27.999995759999933" class="text">made </text>
<text x="772.0000258" y="487.00002384" width="76.99996784000007" height="28.000018529999977" class="text">available </text>
<text x="855.99998912" y="487.00002384" width="15.999987159999932" height="27.000028439999937" class="text">to </text>
<text x="878.99997176" y="485.99998820999997" width="49.999992800000086" height="26.999982899999964" class="text">other </text>
<text x="932.99997452" y="485.99998820999997" width="75.99999607999996" height="27.999995759999933" class="text">agencies</text>
<text x="1008.9999706" y="485.99998820999997" width="8.00001992" height="26.999982899999964" class="text">, </text>
<text x="1021.00000048" y="485.99998820999997" width="111.00002615999995" height="28.999985849999973" class="text">departments </text>
<text x="1142.00000764" y="485.00002089" width="31.000002560000212" height="28.000018529999977" class="text">and </text>
<text x="1179.999953" y="485.00002089" width="82.00007247999997" height="29.000031389999947" class="text">Congress </text>
<text x="1271.00003472" y="484.00000802999995" width="78.99992891999977" height="29.00000861999996" class="text">pursuant </text>
<text x="1354.9999453599999" y="483.00001794" width="15.00006808000012" height="27.000028439999994" class="text">to </text>
<text x="1379.00002268" y="483.00001794" width="64.9999379599999" height="27.000028439999994" class="text">Section </text>
<text x="1451.99998056" y="482.00000508" width="8.000019919999886" height="27.000005670000007" class="text">6</text>
<text x="1463.00003868" y="482.00000508" width="7.999914559999979" height="27.000005670000007" class="text">(</text>
<text x="1470.99995324" y="482.00000508" width="8.000037480000174" height="27.000005670000007" class="text">c</text>
<text x="1482.00001136" y="482.00000508" width="8.000019920000113" height="27.000005670000007" class="text">) </text>
<text x="1495.00003056" y="482.00000508" width="18.999972680000155" height="27.000005670000007" class="text">of </text>
<text x="1517.00004144" y="482.00000508" width="26.99999260000004" height="27.000005670000007" class="text">the </text>
<text x="1553.0000257200002" y="482.00000508" width="31.000020119999817" height="27.000005670000007" class="text">Act</text>
<text x="1585.0000175999999" y="481.00001499" width="8.000019920000113" height="27.000028439999994" class="text">. </text>
<text x="1597.00004748" y="481.00001499" width="61.999917319999895" height="27.000028439999994" class="text">Finally</text>
<text x="1660.0000419199998" y="481.00001499" width="7.999914560000207" height="27.000028439999994" class="text">,
</text>
<text x="96.999996568" y="522.00001854" width="28.000001236000017" height="28.000018530000034" class="text">the </text>
<text x="136.000001488" y="522.00001854" width="72.999996512" height="30.000021480000044" class="text">Attorney </text>
<text x="217.99998968" y="520.99998291" width="75.00002431999997" height="28.999985849999973" class="text">General </text>
<text x="295.99999952" y="520.99998291" width="82.00001979999996" height="29.999975939999956" class="text">transmits </text>
<text x="388.99998964" y="520.00001559" width="16.00002227999994" height="28.000018529999977" class="text">an </text>
<text x="415.99998224" y="520.00001559" width="61.99998756000002" height="29.00000861999996" class="text">annual </text>
<text x="483.99999352" y="518.99997996" width="53.00001344000009" height="27.999972990000003" class="text">report </text>
<text x="544.9999742" y="518.99997996" width="17.000029160000054" height="27.999972990000003" class="text">to </text>
<text x="568.00002708" y="518.00001264" width="26.99999260000004" height="28.000018530000034" class="text">the </text>
<text x="605.0000006800001" y="518.99997996" width="82.9999915599999" height="29.999953170000026" class="text">Congress </text>
<text x="696.00001216" y="518.00001264" width="20.999986440000043" height="28.99998585000003" class="text">on </text>
<text x="725.0000185199999" y="516.9999997799999" width="26.99999260000004" height="27.999972989999947" class="text">the </text>
<text x="763.00001656" y="516.9999997799999" width="132.0000126000001" height="29.00000861999996" class="text">Administration </text>
<text x="906.9999536799999" y="516.00000969" width="16.000039840000227" height="28.000018529999977" class="text">of </text>
<text x="928.9999645600001" y="516.00000969" width="28.00006971999983" height="28.000018529999977" class="text">the </text>
<text x="967.00001528" y="516.00000969" width="31.99999188000004" height="28.999985849999973" class="text">Act </text>
<text x="1002.0000278" y="514.99999683" width="54.99997452000002" height="27.999972990000003" class="text">which </text>
<text x="1066.99998332" y="514.99999683" width="34.00004076000005" height="27.999972990000003" class="text">lists </text>
<text x="1107.99996688" y="514.99999683" width="29.00005903999977" height="29.000008620000017" class="text">the </text>
<text x="1143.99996872" y="514.00000674" width="59.00007228000004" height="28.000018530000034" class="text">names </text>
<text x="1212.00005024" y="514.00000674" width="14.999962719999985" height="28.000018530000034" class="text">of </text>
<text x="1232.99996644" y="514.00000674" width="24.000077319999946" height="28.99998585000003" class="text">all </text>
<text x="1263.99998656" y="512.9999938799999" width="53.99998520000008" height="27.999972989999947" class="text">agents </text>
<text x="1329.00002988" y="512.9999938799999" width="87.99993816000006" height="29.9999759399999" class="text">registered </text>
<text x="1421.99994976" y="512.00000379" width="58.000012720000086" height="27.999995760000104" class="text">under </text>
<text x="1487.00001064" y="512.00000379" width="23.99995439999998" height="27.999995760000104" class="text">the </text>
<text x="1519.9999742799998" y="510.99999092999997" width="33.000051440000334" height="27.999972989999947" class="text">Act</text>
<text x="1553.0000257200002" y="510.99999092999997" width="7.999932119999812" height="27.999972989999947" class="text">, </text>
<text x="1566.00004492" y="510.99999092999997" width="31.000002559999984" height="27.999972989999947" class="text">the </text>
<text x="1600.99995208" y="510.99999092999997" width="64.00008911999998" height="28.999985849999973" class="text">foreign
</text>
<text x="94.999998612" y="552.00001725" width="93.00001294799999" height="29.99999871" class="text">principals </text>
<text x="194.99998948" y="551.00000439" width="39.00000491999998" height="28.00001852999992" class="text">they </text>
<text x="243.00000364000002" y="551.00000439" width="85.99999463999998" height="30.000021479999987" class="text">represent</text>
<text x="330.00000516" y="550.0000143" width="8.000002359999996" height="27.999995759999933" class="text">, </text>
<text x="343.99999612" y="550.0000143" width="32.000009439999985" height="29.000031390000004" class="text">and </text>
<text x="383.00000104000003" y="549.00000144" width="27.999999479999985" height="28.000018530000034" class="text">the </text>
<text x="417.999996" y="549.00000144" width="57.000005839999915" height="28.99998585000003" class="text">nature</text>
<text x="477.99996980000003" y="548.00001135" width="8.000037480000003" height="27.999995760000047" class="text">, </text>
<text x="490.999989" y="549.00000144" width="71.9999861199999" height="30.000021479999987" class="text">sources </text>
<text x="570.99999504" y="548.00001135" width="29.999995679999984" height="29.000031390000004" class="text">and </text>
<text x="609.00001064" y="548.00001135" width="69.99998991999996" height="29.99999871" class="text">content </text>
<text x="683.99998228" y="546.9999984899999" width="21.000021559999936" height="28.999985849999916" class="text">of </text>
<text x="710.99997488" y="546.0000084000001" width="26.99999260000004" height="27.999995760000047" class="text">the </text>
<text x="748.99997292" y="546.0000084000001" width="76.0000136399999" height="29.00000862000013" class="text">political </text>
<text x="830.0000209599999" y="546.0000084000001" width="104.00003068000012" height="29.999998710000114" class="text">propaganda </text>
<text x="945.0000044" y="544.99999554" width="113.9999590000001" height="29.99999871" class="text">disseminated </text>
<text x="1070.99999328" y="542.99999259" width="20.000049799999942" height="27.999995760000047" class="text">or </text>
<text x="1098.99995764" y="542.99999259" width="96.00006343999985" height="29.999998710000114" class="text">distributed </text>
<text x="1205.00000208" y="542.0000025" width="19.99994443999981" height="27.999995760000047" class="text">by </text>
<text x="1233.9999557600001" y="542.0000025" width="47.00004239999976" height="29.00000862000013" class="text">them</text>
<text x="1281.99998748" y="540.99998964" width="8.000019919999886" height="27.999995760000047" class="text">. </text>
<text x="1299.9999708399998" y="540.99998964" width="35.00003007999999" height="27.999995760000047" class="text">This </text>
<text x="1345.9999536799999" y="540.99998964" width="57.999995160000026" height="29.99999871" class="text">report </text>
<text x="1411.99998632" y="540.00002232" width="9.999963439999874" height="28.00001852999992" class="text">is </text>
<text x="1436.00004608" y="540.00002232" width="77.99995716000012" height="30.000021479999987" class="text">available </text>
<text x="1522.99999492" y="538.99998669" width="16.00005740000006" height="27.999995760000047" class="text">to </text>
<text x="1548.0000440000001" y="538.99998669" width="26.999992599999814" height="27.999995760000047" class="text">the </text>
<text x="1582.99996872" y="538.00001937" width="55.0000623200001" height="29.00003139000006" class="text">public</text>
<text x="1639.99999212" y="538.00001937" width="8.000019920000113" height="28.000018530000034" class="text">.
</text>
<text x="99.999999648" y="606.99997314" width="51.999994267999995" height="27.999995759999933" class="text">Public </text>
<text x="161.000006668" y="606.99997314" width="87.99998557200001" height="29.9999759399999" class="text">Reporting </text>
<text x="256.9999946" y="606.00000582" width="62.000005120000026" height="29.000008619999903" class="text">Burden</text>
<text x="322.00002036" y="605.00001573" width="7.999984799999993" height="28.00001852999992" class="text">. </text>
<text x="335.00000444" y="605.00001573" width="56.99998827999997" height="28.00001852999992" class="text">Public </text>
<text x="397.99998131999996" y="605.00001573" width="82.00000224000001" height="30.000044249999974" class="text">reporting </text>
<text x="483.99999352" y="604.0000256400001" width="62.00002268000003" height="27.999995760000047" class="text">burden </text>
<text x="551.99996968" y="602.9999900099999" width="28.000034599999935" height="28.00001852999992" class="text">for </text>
<text x="586.99999976" y="602.9999900099999" width="26.99999260000004" height="28.00001852999992" class="text">this </text>
<text x="620.99998784" y="602.9999900099999" width="87.00000151999996" height="29.9999759399999" class="text">collection </text>
<text x="716.00000928" y="601.99999992" width="20.00001468000005" height="28.000018530000034" class="text">of </text>
<text x="739.99998124" y="601.99999992" width="104.00003068000001" height="28.99998585000003" class="text">information </text>
<text x="853.0000036" y="601.0000098300001" width="9.999980999999934" height="27.999995760000047" class="text">is </text>
<text x="871.0000045200001" y="601.0000098300001" width="84.99995263999995" height="28.99998585000003" class="text">estimated </text>
<text x="961.00004424" y="600.0000197400001" width="14.999962719999985" height="27.999995760000047" class="text">to </text>
<text x="985.9999879600001" y="600.0000197400001" width="63.9999661999999" height="27.999995760000047" class="text">average </text>
<text x="1056.00003056" y="600.0000197400001" width="14.999962719999985" height="29.000054160000104" class="text">.5 </text>
<text x="1079.99998496" y="598.99998411" width="49.9999928000002" height="28.000018530000034" class="text">hours </text>
<text x="1136.0000366" y="598.99998411" width="28.99995368000009" height="28.000018530000034" class="text">per </text>
<text x="1170.99996132" y="598.99998411" width="78.00006252000003" height="29.999975940000013" class="text">response</text>
<text x="1249.00002384" y="597.99999402" width="8.000019919999886" height="27.999995760000047" class="text">, </text>
<text x="1259.9999765999999" y="597.99999402" width="84.00001600000019" height="28.99998585000003" class="text">including </text>
<text x="1349.9999636399998" y="597.00000393" width="28.000069720000283" height="27.999995760000047" class="text">the </text>
<text x="1384.0000044" y="597.00000393" width="37.999945359999856" height="27.999995760000047" class="text">time </text>
<text x="1430.999959" y="597.00000393" width="25.000031519999993" height="27.999995760000047" class="text">for </text>
<text x="1461.99996156" y="597.00000393" width="86.00008244000014" height="29.99999871" class="text">reviewing </text>
<text x="1554.00001504" y="596.00003661" width="106.00002687999972" height="30.000044250000087" class="text">instructions</text>
<text x="1661.00001368" y="594.99997821" width="8.000037480000174" height="27.999972989999947" class="text">,
</text>
<text x="96.999996568" y="635.99998176" width="87.00000503200002" height="29.000008620000017" class="text">searching </text>
<text x="194.99998948" y="634.99999167" width="67.00000440000002" height="28.000018530000034" class="text">existing </text>
<text x="272.99999932000003" y="634.00000158" width="34.99999495999998" height="27.00002844000005" class="text">data </text>
<text x="315.99999664" y="634.00000158" width="67.00000440000002" height="28.99998585000003" class="text">sources</text>
<text x="387.00001100000003" y="633.00001149" width="8.000002359999996" height="27.000005670000064" class="text">, </text>
<text x="399.99999507999996" y="634.00000158" width="83.99999844000001" height="28.99998585000003" class="text">gathering </text>
<text x="494.0000272" y="631.99997586" width="29.999978120000037" height="26.999960129999977" class="text">and </text>
<text x="539.00002072" y="631.99997586" width="100.99999248000006" height="28.99998585000003" class="text">maintaining </text>
<text x="649.00000488" y="630.99998577" width="25.99996815999998" height="26.999960129999863" class="text">the </text>
<text x="685.99997848" y="629.99999568" width="33.0000163200001" height="27.000005670000064" class="text">data </text>
<text x="732.0000140000001" y="629.99999568" width="62.99999443999991" height="27.999995759999933" class="text">needed</text>
<text x="797.0000046399999" y="629.00002836" width="7.999967240000046" height="27.000028439999937" class="text">, </text>
<text x="810.0000238399999" y="629.00002836" width="34.99995984000009" height="27.000028439999937" class="text">and </text>
<text x="853.0000036" y="629.00002836" width="97.99997183999994" height="29.000008619999903" class="text">completing </text>
<text x="961.00004424" y="627.9999699599999" width="29.999925440000084" height="26.999960129999863" class="text">and </text>
<text x="1002.0000278" y="627.9999699599999" width="90.99997636000012" height="28.999985849999916" class="text">reviewing </text>
<text x="1100.0000523200001" y="626.0000125500001" width="25.9999154799998" height="27.00002844000005" class="text">the </text>
<text x="1137.0000259199999" y="626.99997987" width="86.99994884000012" height="28.999985849999916" class="text">collection </text>
<text x="1233.9999557600001" y="625.0000224600001" width="19.000078039999835" height="27.00002844000005" class="text">of </text>
<text x="1262.99999724" y="625.0000224600001" width="103.99997800000006" height="28.99998585000003" class="text">information</text>
<text x="1370.00001344" y="623.99996406" width="8.000019920000113" height="26.999960129999977" class="text">. </text>
<text x="1384.99997616" y="623.99996406" width="40.99998355999992" height="27.999927449999973" class="text">Send </text>
<text x="1436.00004608" y="623.99996406" width="94.99998632000006" height="28.99998585000003" class="text">comments </text>
<text x="1540.00002408" y="622.99997397" width="82.99993888000017" height="28.99998585000003" class="text">regarding </text>
<text x="1634.00002108" y="621.0000165600001" width="31.999991880000152" height="27.00002844000005" class="text">this
</text>
<text x="96.999996568" y="666.0000032400001" width="63.000006732" height="30.0000214800001" class="text">burden </text>
<text x="166.999997024" y="666.0000032400001" width="76.00000661600001" height="30.0000214800001" class="text">estimate </text>
<text x="250.99998844" y="665.0000359200001" width="21.000021559999965" height="29.000054160000104" class="text">or </text>
<text x="276.99999172" y="663.99997752" width="31.000002559999984" height="27.999995760000047" class="text">any </text>
<text x="315.99999664" y="663.99997752" width="47.999996599999974" height="27.999995760000047" class="text">other </text>
<text x="373.00000248" y="662.99998743" width="53.999985200000026" height="27.999995760000047" class="text">aspect </text>
<text x="436.99998624" y="662.99998743" width="16.00000472000005" height="27.999995760000047" class="text">of </text>
<text x="459.99998644" y="662.99998743" width="31.00000256000004" height="27.999995760000047" class="text">this </text>
<text x="501.99999444" y="662.99998743" width="86.00002975999996" height="29.999975940000013" class="text">collection </text>
<text x="595.99999144" y="662.00002011" width="20.000014679999936" height="29.000008620000017" class="text">of </text>
<text x="622.0000122800001" y="662.00002011" width="105.99999175999994" height="30.000044250000087" class="text">information</text>
<text x="730.9999720000001" y="659.99997162" width="8.000037479999946" height="27.999995760000047" class="text">, </text>
<text x="746.00000496" y="661.00003002" width="84.00001599999996" height="30.000044250000087" class="text">including </text>
<text x="837.9999882" y="659.99997162" width="103.99997800000006" height="29.999975940000013" class="text">suggestions </text>
<text x="949.99998612" y="658.00001421" width="23.000000200000045" height="28.000018530000034" class="text">for </text>
<text x="982.9999497599999" y="659.0000043" width="74.00005256000009" height="29.999975940000013" class="text">reducing </text>
<text x="1066.99998332" y="657.00002412" width="35.00001251999993" height="27.999995760000047" class="text">this </text>
<text x="1107.99996688" y="657.00002412" width="62.00000511999974" height="29.000054160000104" class="text">burden </text>
<text x="1178.9999812400001" y="655.99998849" width="16.000039839999772" height="28.000018530000034" class="text">to </text>
<text x="1205.00000208" y="655.99998849" width="52.00004167999987" height="28.000018530000034" class="text">Chief</text>
<text x="1254.99997732" y="655.99998849" width="8.000019920000113" height="28.000018530000034" class="text">, </text>
<text x="1268.99996828" y="655.99998849" width="109.00006508000001" height="29.9999759399999" class="text">Registration </text>
<text x="1385.99996548" y="654.00000831" width="44.99999352000009" height="27.999995759999933" class="text">Unit</text>
<text x="1428.00002616" y="654.00000831" width="8.000019919999886" height="27.999995759999933" class="text">, </text>
<text x="1442.99998888" y="654.00000831" width="83.00004423999985" height="28.999985849999916" class="text">Criminal </text>
<text x="1532.99997592" y="654.00000831" width="76.99998540000001" height="30.000044249999974" class="text">Division</text>
<text x="1612.99999952" y="653.00001822" width="8.000019919999886" height="27.999995759999933" class="text">, </text>
<text x="1629.00003936" y="651.99998259" width="40.99998355999992" height="28.00001852999992" class="text">U.S.
</text>
<text x="99.999999648" y="694.0000217700001" width="107.999991472" height="30.000044250000087" class="text">Department </text>
<text x="212.9999904" y="692.99996337" width="20.00001468000002" height="27.999927449999973" class="text">of </text>
<text x="238.00000436" y="692.99996337" width="62.999994439999966" height="29.999975940000013" class="text">Justice</text>
<text x="303.99998432" y="691.99999605" width="8.00001992" height="28.000018530000034" class="text">, </text>
<text x="314.99998976" y="692.99996337" width="101.99999936" height="29.999975940000013" class="text">Washington</text>
<text x="424.00000216" y="691.0000059600001" width="8.000002359999996" height="28.000018530000034" class="text">, </text>
<text x="435.99999692" y="691.0000059600001" width="45.00001107999998" height="28.000018530000034" class="text">D.C. </text>
<text x="488.99997524" y="691.0000059600001" width="52.00004167999998" height="28.99998585000003" class="text">20530</text>
<text x="544.00000244" y="690.0000158700001" width="7.999967240000046" height="27.999995760000047" class="text">; </text>
<text x="557.9999934" y="690.0000158700001" width="31.000002559999984" height="27.999995760000047" class="text">and </text>
<text x="598.0000051999999" y="690.0000158700001" width="15.000015400000052" height="27.999995760000047" class="text">to </text>
<text x="622.99998404" y="690.0000158700001" width="28.00003460000005" height="28.99998585000003" class="text">the </text>
<text x="660.00001032" y="688.99998024" width="54.99997452000002" height="27.99995021999996" class="text">Office </text>
<text x="725.99999028" y="688.99998024" width="21.000039119999997" height="27.99995021999996" class="text">of </text>
<text x="752.00001112" y="688.99998024" width="107.00001620000012" height="29.999975940000013" class="text">Information </text>
<text x="869.00000832" y="687.00000006" width="32.99994607999997" height="27.999995760000047" class="text">and </text>
<text x="909.99999188" y="687.99999015" width="94.99996876" height="29.999975940000013" class="text">Regulatory </text>
<text x="1017.9999798399999" y="686.0000099700001" width="64.00007155999992" height="28.99998585000003" class="text">Affairs</text>
<text x="1082.0000513999998" y="686.0000099700001" width="7.999914560000207" height="27.999995760000047" class="text">, </text>
<text x="1093.0000041600001" y="684.99997434" width="58.999984479999966" height="27.99995021999996" class="text">Office </text>
<text x="1163.00004676" y="684.99997434" width="16.999906239999973" height="27.99995021999996" class="text">of </text>
<text x="1187.9999729200001" y="684.99997434" width="121.00000716" height="29.999975940000013" class="text">Management </text>
<text x="1313.9999618" y="683.99998425" width="31.000020120000045" height="28.99998585000003" class="text">and </text>
<text x="1353.9999736" y="682.99999416" width="66.00003263999997" height="28.99998585000003" class="text">Budget</text>
<text x="1420.999978" y="682.99999416" width="8.000019919999886" height="27.999995760000047" class="text">, </text>
<text x="1434.99996896" y="682.99999416" width="102.99998868000011" height="29.999975940000013" class="text">Washington</text>
<text x="1540.9999958399999" y="682.00002684" width="8.000019920000113" height="28.000018530000034" class="text">, </text>
<text x="1557.00003568" y="682.00002684" width="45.00001107999992" height="29.000008620000017" class="text">D.C. </text>
<text x="1604.99996204" y="680.99996844" width="58.000012720000086" height="27.99995021999996" class="text">20503</text>
<text x="1662.000003" y="680.99996844" width="8.000019919999886" height="27.99995021999996" class="text">.
</text>
<text x="114.000004656" y="751.0000261499999" width="25.9999945" height="28.99998585000003" class="text">1. </text>
<text x="147.999996248" y="752.99998356" width="71.000000312" height="30.999943260000123" class="text">Name </text>
<text x="229.99998444000002" y="751.99999347" width="26.00002084000002" height="28.99998585000003" class="text">of </text>
<text x="261.99999388000003" y="753.99997365" width="113.00000479999994" height="30.999966029999996" class="text">registrant
</text>
<text x="1223.99997476" y="747.0000202499999" width="24.000059760000113" height="31.000034339999843" class="text">2. </text>
<text x="1257.00004376" y="747.0000202499999" width="134.00000879999993" height="34.00005014999988" class="text">Registration </text>
<text x="1403.99994884" y="744.00000444" width="44.99999352000009" height="32.999991749999936" class="text">No.
</text>
<text x="1262.99999724" y="797.99999301" width="77.9999571599999" height="33.99998183999992" class="text">2985
</text>
<text x="150.000001228" y="808.9999978500001" width="53.00000817200001" height="33.999981840000146" class="text">Far </text>
<text x="229.99998444000002" y="808.0000305299999" width="78.00000983999999" height="35.00004023999986" class="text">East </text>
<text x="333.99999756" y="808.0000305299999" width="97.00000008" height="36.000030329999845" class="text">Trade </text>
<text x="454.00001540000005" y="806.9999721300001" width="139.99997983999992" height="35.999939250000125" class="text">Service</text>
<text x="604.00001136" y="804.9999919500001" width="9.999981000000048" height="33.99995907000016" class="text">, </text>
<text x="642.99999872" y="804.9999919500001" width="76.99998540000001" height="36.000007560000086" class="text">Inc.
</text>
<text x="114.000004656" y="856.0000330199999" width="28.999990555999986" height="32.00000165999995" class="text">3. </text>
<text x="151.000004596" y="856.0000330199999" width="77.000001204" height="33.000060059999896" class="text">Nature </text>
<text x="240.99998988000002" y="854.99997462" width="23.000017759999963" height="32.00000165999995" class="text">of </text>
<text x="276.99999172" y="854.99997462" width="92.00000079999995" height="33.99995906999993" class="text">material </text>
<text x="378.00001932" y="854.0000073000001" width="8.99999168000005" height="32.00002443000005" class="text">(</text>
<text x="387.99998276" y="854.0000073000001" width="9.000009239999997" height="32.00002443000005" class="text">A </text>
<text x="417.999996" y="854.0000073000001" width="77.99997471999995" height="32.00002443000005" class="text">concise </text>
<text x="506.99997616" y="854.0000073000001" width="97.00003520000001" height="33.999981840000146" class="text">account </text>
<text x="611.00000684" y="853.00001721" width="24.000024640000106" height="32.00000165999995" class="text">of </text>
<text x="642.00002696" y="853.00001721" width="34.999959839999974" height="32.99999175000005" class="text">the </text>
<text x="689.00001668" y="852.00002712" width="69.99998991999996" height="32.000001660000066" class="text">nature </text>
<text x="770.9999838" y="852.00002712" width="24.000024639999992" height="32.000001660000066" class="text">of </text>
<text x="802.00000392" y="852.00002712" width="33.99998807999998" height="33.00006006000001" class="text">the </text>
<text x="846.99999744" y="852.00002712" width="138.00001876" height="34.00005014999999" class="text">propaganda </text>
<text x="999.99997892" y="850.9999914900001" width="97.00003520000007" height="33.99998184000003" class="text">material </text>
<text x="1101.9999958399999" y="850.0000014000001" width="48.00003172000015" height="32.00002443000005" class="text">filed</text>
<text x="1155.9999986" y="849.00001131" width="8.999991679999994" height="32.00000165999995" class="text">)
</text>
<text x="147.999996248" y="919.00000071" width="98.00001047200001" height="41.00000355000009" class="text">Trade </text>
<text x="272.00001" y="918.00001062" width="175.99998168000002" height="43.000029269999914" class="text">promotion </text>
<text x="476.00002628" y="914.99999481" width="57.99996003999996" height="41.99997086999997" class="text">for </text>
<text x="560.00000716" y="914.00000472" width="118.00000407999994" height="42.00003917999993" class="text">Taiwan</text>
<text x="685.99997848" y="911.999979" width="13.000019199999997" height="40.00001345999999" class="text">, </text>
<text x="721.99998032" y="911.999979" width="124.00002780000011" height="42.99996096000007" class="text">R.O.C.
</text>
<text x="108.99999835199999" y="991.0000158299999" width="40.000001264000005" height="31.00001156999997" class="text">4. </text>
<text x="153.999998896" y="991.0000158299999" width="46.00000742400002" height="31.00001156999997" class="text">Title </text>
<text x="216.00001104" y="991.0000158299999" width="21.999993319999987" height="31.00001156999997" class="text">of </text>
<text x="251.99999532" y="991.0000158299999" width="93.00000768000004" height="31.00001156999997" class="text">material</text>
<text x="343.99999612" y="991.0000158299999" width="8.99999168000005" height="31.00001156999997" class="text">, </text>
<text x="358.00000464" y="991.0000158299999" width="23.999989520000042" height="31.00001156999997" class="text">if </text>
<text x="388.99998964" y="991.0000158299999" width="35.000012519999984" height="31.00001156999997" class="text">any
</text>
<text x="934.00005164" y="988.99999011" width="30.999897199999964" height="33.99998184000003" class="text">5. </text>
<text x="982.9999497599999" y="988.99999011" width="68.0000815200001" height="36.00000755999997" class="text">Name </text>
<text x="1060.00004052" y="988.00000002" width="24.99994371999992" height="35.00001746999999" class="text">of </text>
<text x="1092.0000324" y="988.00000002" width="77.99993959999983" height="36.000007560000086" class="text">foreign </text>
<text x="1174.99997128" y="987.00000993" width="107.00001620000012" height="36.000007560000086" class="text">principal </text>
<text x="1288.0000463200001" y="984.99998421" width="24.99994371999992" height="33.99998184000003" class="text">on </text>
<text x="1318.99996108" y="984.99998421" width="75.99999607999985" height="36.00000755999997" class="text">whose </text>
<text x="1398.99996712" y="983.99999412" width="75.99999607999985" height="36.000007560000086" class="text">behalf </text>
<text x="1479.99996248" y="983.0000268" width="38.00005071999999" height="34.00005014999999" class="text">this </text>
<text x="1532.0000041600001" y="983.0000268" width="94.99996876" height="36.00003033000007" class="text">material </text>
<text x="1625.0000294" y="982.00003671" width="44.00002176000021" height="35.00004024000009" class="text">was
</text>
<text x="985.9999879600001" y="1013.9999700599999" width="128.00003776000005" height="25.99997003999988" class="text">transmitted</text>
<text x="1116.99995856" y="1012.9999799699999" width="7.000048160000006" height="24.999979949999897" class="text">.
</text>
<text x="151.000004596" y="1088.00003367" width="100.99999072400001" height="39.00002337000001" class="text">Doing </text>
<text x="272.99999932000003" y="1085.99998518" width="160.00001207999998" height="37.999964970000065" class="text">Business </text>
<text x="454.99998716" y="1082.99996937" width="78.99999915999996" height="36.99999764999984" class="text">with </text>
<text x="564.99998888" y="1082.00000205" width="113.00002235999989" height="38.99997782999981" class="text">Taiwan
</text>
<text x="991.999959" y="1074.9999803399999" width="57.999995160000026" height="33.99998183999992" class="text">Far </text>
<text x="1076.99996432" y="1073.9999902499999" width="78.00004495999997" height="33.99998183999992" class="text">East </text>
<text x="1183.9999629600002" y="1073.9999902499999" width="98.99999627999978" height="36.00000755999986" class="text">Trade </text>
<text x="1303.99999836" y="1073.00000016" width="139.99996227999986" height="35.000017469999875" class="text">Service</text>
<text x="1455.0000187599999" y="1072.00003284" width="9.999980999999934" height="34.00005014999988" class="text">, </text>
<text x="1492.9999641200002" y="1072.00003284" width="80.99999535999973" height="36.00000755999986" class="text">Inc.
</text>
<text x="997.00004608" y="1118.00000961" width="119.99991248000015" height="44.000019360000124" class="text">Taipei</text>
<text x="1120.99996852" y="1114.9999938" width="13.000019199999997" height="41.0000035500002" class="text">, </text>
<text x="1159.0000368" y="1114.9999938" width="121.99996135999982" height="44.000019360000124" class="text">Taiwan</text>
<text x="1290.0000074" y="1111.99997799" width="13.000001640000164" height="41.000003549999974" class="text">, </text>
<text x="1321.99998172" y="1111.99997799" width="126.99996063999993" height="43.999951049999936" class="text">R.O.C.
</text>
<text x="114.999995732" y="1160.00004879" width="29.00000284800001" height="27.000028439999824" class="text">6. </text>
<text x="152.999997284" y="1160.00004879" width="75.99999783599998" height="28.000086839999994" class="text">Means </text>
<text x="240.00000056" y="1159.0000587000002" width="25.000013960000047" height="27.00009675000024" class="text">of </text>
<text x="271.00000312000003" y="1159.0000587000002" width="143.00000047999998" height="28.000064070000235" class="text">transmission
</text>
<text x="651.00001864" y="1154.0000171699999" width="13.999990959999991" height="26.00003834999984" class="text">7. </text>
<text x="674.99997304" y="1154.0000171699999" width="64.00003644000003" height="27.000028439999824" class="text">Dates </text>
<text x="752.9999828800001" y="1153.00002708" width="24.000024639999992" height="26.000038350000068" class="text">of </text>
<text x="785.9999992" y="1153.00002708" width="138.99995539999998" height="27.00002844000005" class="text">transmission
</text>
<text x="1158.00004748" y="1155.99997458" width="23.99997196000004" height="32.00000166000018" class="text">8. </text>
<text x="1192.9999722" y="1155.99997458" width="56.00005164000004" height="33.999981840000146" class="text">Total </text>
<text x="1257.00004376" y="1155.00000726" width="71.99998612000013" height="33.999981840000146" class="text">copies </text>
<text x="1338.00003912" y="1155.00000726" width="128.99990415999991" height="33.999981840000146" class="text">transmitted
</text>
<text x="151.999993916" y="1224.00007488" width="34.00000388400002" height="37.00006596000003" class="text">By </text>
<text x="215.00000416" y="1226.00003229" width="79.99998848000001" height="38.000033280000025" class="text">mail</text>
<text x="299.00000259999996" y="1225.0000422" width="11.000005440000052" height="37.00004319000004" class="text">/</text>
<text x="317.99999284" y="1225.0000422" width="34.99999496000004" height="37.00004319000004" class="text">in </text>
<text x="377.00001244000003" y="1227.00002238" width="120.00000027999994" height="39.00002337000001" class="text">person
</text>
<text x="750.00001492" y="1217.00005317" width="8.999991679999994" height="32.999991749999936" class="text">N</text>
<text x="774.0000220000001" y="1217.00005317" width="8.999991679999994" height="32.999991749999936" class="text">/</text>
<text x="792.99999468" y="1217.00005317" width="9.000009240000054" height="32.999991749999936" class="text">A
</text>
<text x="1187.00000116" y="1213.9999690500001" width="10.999952760000042" height="39.000046139999995" class="text">2 </text>
<text x="1222.00001368" y="1216.00006308" width="122.99996824000004" height="41.000140169999895" class="text">copies
</text>
<text x="114.999995732" y="1260.00001413" width="32.000011196" height="25.00000272000011" class="text">9. </text>
<text x="156.00000563199998" y="1260.00001413" width="42.999993808" height="25.999970040000107" class="text">List </text>
<text x="208.999998" y="1260.00001413" width="108.00000552" height="26.999960129999863" class="text">addresses </text>
<text x="330.00000516" y="1258.00003395" width="52.99999588000003" height="24.999979949999897" class="text">from </text>
<text x="395.00001336" y="1258.00003395" width="64.99997307999996" height="26.00010666000003" class="text">which </text>
<text x="481.000008" y="1258.00003395" width="87.99999084000001" height="27.000073980000025" class="text">material </text>
<text x="575.99999432" y="1255.9999399199999" width="46.00001796000004" height="24.999979949999897" class="text">was </text>
<text x="633.9999894800001" y="1255.9999399199999" width="123.00000335999994" height="25.99997003999988" class="text">transmitted</text>
<text x="763.99998832" y="1254.99994983" width="6.999995479999939" height="24.999979950000125" class="text">:
</text>
<text x="937.9999562400001" y="1253.99998251" width="46.00007063999999" height="26.99996013000009" class="text">10. </text>
<text x="988.0000544" y="1252.99999242" width="45.9999652800002" height="26.999960129999863" class="text">List </text>
<text x="1047.00002132" y="1252.99999242" width="59.99997379999991" height="28.999917539999842" class="text">states </text>
<text x="1124.00000672" y="1252.00000233" width="37.999945359999856" height="26.999960129999863" class="text">and </text>
<text x="1179.999953" y="1252.00000233" width="111.00002616000006" height="29.000054159999763" class="text">territories </text>
<text x="1308.00000832" y="1250.0000449200002" width="25.000031519999993" height="27.00009675000001" class="text">of </text>
<text x="1343.9999926" y="1250.0000449200002" width="34.00004076000005" height="27.00009675000001" class="text">the </text>
<text x="1394.99995716" y="1250.0000449200002" width="71.00001436000002" height="29.000054160000218" class="text">United </text>
<text x="1486.00002132" y="1249.00005483" width="63.99998375999985" height="29.00005415999999" class="text">States </text>
<text x="1564.9999678" y="1247.99992812" width="20.000049799999942" height="26.999937360000104" class="text">to </text>
<text x="1603.0000185200001" y="1247.99992812" width="67.99997615999996" height="28.99991754000007" class="text">which
</text>
<text x="994.9999796400001" y="1286.99997426" width="89.00001527999996" height="27.999950220000073" class="text">material </text>
<text x="1091.0000430799998" y="1286.99997426" width="42.999944640000194" height="27.999950220000073" class="text">was </text>
<text x="1148.99995044" y="1286.99997426" width="122.00008428000001" height="27.999950220000073" class="text">transmitted</text>
<text x="1276.9999882" y="1286.99997426" width="8.000019919999886" height="27.999950220000073" class="text">:
</text>
<text x="150.000001228" y="1325.9999976299998" width="60.999992972" height="34.999971929999674" class="text">Far </text>
<text x="233.00000508000002" y="1325.00000754" width="79.99998847999998" height="33.99998183999992" class="text">East </text>
<text x="339.0000144" y="1324.0000174499999" width="95.99997564" height="33.999959069999704" class="text">Trade </text>
<text x="461.00001088" y="1323.0000501299999" width="138.99999051999998" height="35.00010854999982" class="text">Service</text>
<text x="609.9999823999999" y="1320.9999333300002" width="8.999991680000107" height="32.99999175000016" class="text">, </text>
<text x="651.00001864" y="1320.9999333300002" width="78.99998159999996" height="34.99994916000037" class="text">Inc.
</text>
<text x="155.000002264" y="1366.0000110899998" width="57.99998813600001" height="39.000046139999995" class="text">555 </text>
<text x="230.99999131999996" y="1365.000021" width="203.00002696000004" height="41.0000035500002" class="text">Montgomery </text>
<text x="463.00000708" y="1360.9999467900002" width="116.00002544" height="38.99988675000009" class="text">Street</text>
<text x="586.99999976" y="1358.99998938" width="11.99997719999999" height="36.99992933999988" class="text">, </text>
<text x="624.9999978" y="1358.99998938" width="98.00000696000006" height="40.00001345999999" class="text">Suite </text>
<text x="746.00000496" y="1357.0000092" width="62.99997688000008" height="39.00002337000001" class="text">603
</text>
<text x="152.999997284" y="1396.00005534" width="52.99999763600002" height="35.00010854999982" class="text">San </text>
<text x="233.9999944" y="1395.00006525" width="179.00001987999997" height="38.00005605000001" class="text">Francisco</text>
<text x="424.99999148" y="1391.99998113" width="9.999998559999995" height="33.99998183999992" class="text">, </text>
<text x="461.9999826399999" y="1390.99999104" width="37.99999804000004" height="34.999949159999915" class="text">CA </text>
<text x="544.00000244" y="1390.99999104" width="203.99999872" height="38.000033280000025" class="text">94111-2564
</text>
<text x="106.00000229599999" y="1574.0000674199998" width="41.000004632000014" height="32.00002442999971" class="text">11. </text>
<text x="161.000006668" y="1572.99994071" width="61.999982292" height="32.999991749999936" class="text">Types </text>
<text x="236.00000816" y="1572.99994071" width="22.999982639999985" height="32.000001659999725" class="text">of </text>
<text x="268.99998936" y="1572.99994071" width="105.00002" height="33.99998183999992" class="text">recipients </text>
<text x="388.99998964" y="1570.9999833000002" width="8.999991679999937" height="32.00002443000017" class="text">(</text>
<text x="399.99999507999996" y="1570.9999833000002" width="50.99998212000003" height="32.00002443000017" class="text">Give </text>
<text x="461.9999826399999" y="1570.9999833000002" width="88.00004352000013" height="33.999981840000146" class="text">number </text>
<text x="560.99997892" y="1569.99999321" width="24.000007079999932" height="32.999991749999936" class="text">of </text>
<text x="593.00000592" y="1569.99999321" width="155.99996699999997" height="33.99998183999992" class="text">organizations
</text>
<text x="156.00000563199998" y="1601.00002755" width="17.999997408000013" height="28.000086839999994" class="text">in </text>
<text x="188.00001156" y="1602.9999849600001" width="49.9999928" height="30.0000442500002" class="text">each </text>
<text x="251.99999532" y="1604.9999423699999" width="65.99999752" height="29.999907630000052" class="text">group</text>
<text x="321.00001348" y="1604.9999423699999" width="8.999991679999994" height="27.99992744999986" class="text">)
</text>
<text x="937.9999562400001" y="1562.9999715000001" width="48.00003172000004" height="31.000034340000184" class="text">12. </text>
<text x="990.99996968" y="1562.9999715000001" width="44.99999351999986" height="32.00000166000018" class="text">List </text>
<text x="1055.0000588" y="1561.99998141" width="68.99994792000007" height="31.00001156999997" class="text">names </text>
<text x="1145.00004584" y="1561.99998141" width="38.99991712000019" height="31.00001156999997" class="text">and </text>
<text x="1204.00003032" y="1561.99998141" width="108.9999597200001" height="32.999991749999936" class="text">addresses </text>
<text x="1329.00002988" y="1561.00001409" width="27.999981919999982" height="31.000034339999957" class="text">of </text>
<text x="1369.00004168" y="1560.0000240000002" width="90.99995879999983" height="32.00000165999995" class="text">persons </text>
<text x="1479.99996248" y="1560.0000240000002" width="22.00001087999999" height="31.000034340000184" class="text">or </text>
<text x="1522.99999492" y="1560.0000240000002" width="149.99996084000009" height="32.99999175000016" class="text">organizations
</text>
<text x="989.99999792" y="1595.9999632499998" width="103.00000624000006" height="32.00000165999995" class="text">receiving </text>
<text x="1112.9999486000002" y="1595.9999632499998" width="33.00006899999971" height="32.00000165999995" class="text">100 </text>
<text x="1159.0000368" y="1595.9999632499998" width="71.9999861199999" height="32.00000165999995" class="text">copies </text>
<text x="1241.99997568" y="1595.9999632499998" width="22.99998263999987" height="32.00000165999995" class="text">or </text>
<text x="1282.99995924" y="1595.9999632499998" width="53.99998520000008" height="32.00000165999995" class="text">more</text>
<text x="1339.00001088" y="1595.9999632499998" width="8.999991679999994" height="32.00000165999995" class="text">;
</text>
<text x="1002.0000278" y="1726.99994016" width="9.999980999999934" height="32.00000165999995" class="text">N</text>
<text x="1027.99994328" y="1725.99997284" width="10.000086360000068" height="32.00002443000017" class="text">/</text>
<text x="1047.00002132" y="1724.99998275" width="9.999980999999934" height="32.00000166000018" class="text">A
</text>
<text x="106.00000229599999" y="1668.99996846" width="105.99999878400001" height="26.99996013000009" class="text">Libraries
</text>
<text x="108.000002008" y="1715.0000135399998" width="67.999997232" height="42.99996095999995" class="text">Public </text>
<text x="189.9999902" y="1716.00000363" width="88.00000839999996" height="42.99996095999995" class="text">officials
</text>
<text x="104.999998928" y="1739.99999349" width="140.00000091200002" height="32.99999175000016" class="text">Newspapers
</text>
<text x="106.99999864" y="1769.00007042" width="61.000001752" height="26.0001066599998" class="text">Press </text>
<text x="177.00000612" y="1770.00003774" width="60.00000892" height="24.999979949999897" class="text">servi
</text>
<text x="133.000005432" y="1804.0000195799998" width="132.00000908800004" height="30.000044249999746" class="text">associations
</text>
<text x="106.99999864" y="1848.99996072" width="140.00001496" height="41.99999363999996" class="text">Educational
</text>
<text x="133.000005432" y="1872.9999505800001" width="126.99999224800004" height="32.99999175000016" class="text">institutions
</text>
<text x="108.000002008" y="1907.00006904" width="60.999999996000014" height="29.00005415999999" class="text">Civic
</text>
<text x="207.0000018" y="1910.00001654" width="77.00000295999996" height="38.0000332799998" class="text">groups
</text>
<text x="108.000002008" y="1943.00000829" width="64.99999942" height="34.999949159999915" class="text">Other </text>
<text x="187.00000468" y="1943.00000829" width="9.999998559999995" height="34.999949159999915" class="text">(</text>
<text x="198.00001012" y="1943.00000829" width="75.99999607999996" height="34.999949159999915" class="text">specify</text>
<text x="272.99999932000003" y="1943.00000829" width="10.000016119999941" height="34.999949159999915" class="text">)
</text>
<text x="160.0000033" y="1979.99993763" width="118.99998462000002" height="43.99995105000016" class="text">Import</text>
<text x="289.00000404" y="1977.99995745" width="11.999994759999936" height="41.9999708700002" class="text">/</text>
<text x="303.00001256" y="1978.9999475400002" width="120.00000028" height="43.99995105000016" class="text">Export</text>
<text x="425.99999836" y="1976.99999013" width="11.999994759999993" height="41.99999363999996" class="text">.
</text>
<text x="295.99999952" y="1965.00004074" width="53.000013439999975" height="153.00000936000015" class="text">CRIMINAL </text>
<text x="286.99999028" y="1805.00000967" width="50.000010359999976" height="135.00005112000008" class="text">DIVISION
</text>
<text x="359.99998328" y="1789.99997616" width="49.00000348000003" height="44.99991836999993" class="text">Hd </text>
<text x="366.00000700000004" y="1918.00002834" width="54.99999207999997" height="104.00003954999988" class="text">9-330 </text>
<text x="376.00000556" y="1962.99994671" width="48.99998592000003" height="36.99992933999988" class="text">SE
</text>
<text x="430.99999764" y="1951.0000200900001" width="52.99999587999997" height="139.9999788" class="text">INTERNAL </text>
<text x="417.999996" y="1805.00000967" width="52.99999587999997" height="138.99998871000025" class="text">SECURITY
</text>
<text x="463.00000708" y="1864.99996155" width="40.99998356000003" height="119.99990376000005" class="text">SECTION
</text>
<text x="490.00001724" y="1943.9999983799999" width="50.99999968000003" height="203.0000147999997" class="text">REGISTRATION </text>
<text x="483.99999352" y="1725.99997284" width="40.99998356000003" height="64.00002609000012" class="text">UNIT
</text>
<text x="1555.99995856" y="2108.99995713" width="42.00007823999999" height="16.999990920000073" class="text">FORM </text>
<text x="1611.00003844" y="2108.99995713" width="32.99996364000003" height="16.999990920000073" class="text">CRM</text>
<text x="1649.9999731199998" y="2107.99996704" width="4.999981720000051" height="16.999990919999618" class="text">-</text>
<text x="1656.00003196" y="2107.99996704" width="18.999972680000155" height="16.999990919999618" class="text">159
</text>
<text x="1621.9999912" y="2129.99999949" width="29.000059039999996" height="17.99995824000007" class="text">SEP</text>
<text x="1651.00005024" y="2129.99999949" width="4.999981719999823" height="17.99995824000007" class="text">. </text>
<text x="1660.0000419199998" y="2129.99999949" width="16.99992380000026" height="17.99995824000007" class="text">89
</text>
</g>
<g id="page-1" transform="translate(0, 2297)">
<rect width="1756" height="2277" fill="none" stroke="black" />
<text x="106.99999864" y="131.000001957" width="45.99999864399999" height="36.00000072899999" class="text">13. </text>
<text x="160.0000033" y="131.000001957" width="20.999995219999988" height="36.00000072899999" class="text">If </text>
<text x="190.99999708" y="131.000001957" width="29.999995679999984" height="36.00000072899999" class="text">the </text>
<text x="236.00000816" y="131.000001957" width="92.00000080000001" height="36.00000072899999" class="text">material </text>
<text x="337.00000064" y="131.000001957" width="124.00001024" height="36.00000072899999" class="text">transmitted </text>
<text x="474.00001252000004" y="131.000001957" width="45.99998284000003" height="36.00000072899999" class="text">was </text>
<text x="528.9999870400001" y="131.000001957" width="10.000033679999888" height="36.00000072899999" class="text">a </text>
<text x="553.99998344" y="131.000001957" width="42.00000799999998" height="36.00000072899999" class="text">film </text>
<text x="607.99996864" y="131.000001957" width="27.000062840000055" height="36.00000072899999" class="text">or </text>
<text x="645.99998424" y="131.000001957" width="57.00002339999992" height="36.00000072899999" class="text">radio </text>
<text x="712.99998864" y="131.000001957" width="26.99999260000004" height="36.00000072899999" class="text">or </text>
<text x="752.00001112" y="131.000001957" width="105.99999176000006" height="36.00000072899999" class="text">television </text>
<text x="866.99999456" y="131.000001957" width="70.99996168000007" height="36.00000072899999" class="text">script</text>
<text x="934.00005164" y="131.000001957" width="9.999980999999934" height="36.00000072899999" class="text">, </text>
<text x="955.99995716" y="131.000001957" width="78.00006252000014" height="36.00000072899999" class="text">furnish </text>
<text x="1046.00004956" y="131.000001957" width="36.00000183999987" height="36.00000072899999" class="text">the </text>
<text x="1093.0000041600001" y="131.000001957" width="103.99997799999983" height="36.00000072899999" class="text">following </text>
<text x="1212.00005024" y="131.000001957" width="127.9999323999998" height="36.00000072899999" class="text">information</text>
<text x="1348.00000256" y="131.000001957" width="9.999981000000162" height="36.00000072899999" class="text">:
</text>
<text x="943.00004332" y="193.000002327" width="49.99999279999997" height="29.000008620000017" class="text">Date </text>
<text x="1004.99996064" y="193.000002327" width="28.000087280000002" height="30.000007818" class="text">or </text>
<text x="1039.9999907200001" y="192.00000312900002" width="62.00000511999974" height="29.000008620000017" class="text">dates </text>
<text x="1111.00000508" y="192.00000312900002" width="111.0000086" height="31.000009293000033" class="text">broadcast </text>
<text x="1233.9999557600001" y="191.00000165400002" width="71.0000143599998" height="29.000008620000017" class="text">shown
</text>
<text x="108.99999835199999" y="197.00000367299998" width="67.000000888" height="31.000009292999977" class="text">Name </text>
<text x="189.00000088000002" y="197.00000367299998" width="21.999993319999987" height="31.000009292999977" class="text">of </text>
<text x="220.99999276" y="197.00000367299998" width="73.00002812000002" height="31.000009292999977" class="text">station</text>
<text x="299.00000259999996" y="197.00000367299998" width="8.99999168000005" height="31.000009292999977" class="text">, </text>
<text x="315.99999664" y="197.00000367299998" width="138.99999051999998" height="31.000009292999977" class="text">organization</text>
<text x="457.00000092000005" y="197.00000367299998" width="8.999991679999994" height="31.000009292999977" class="text">, </text>
<text x="476.99999804" y="197.00000367299998" width="24.000024639999992" height="31.000009292999977" class="text">or </text>
<text x="512.00002812" y="197.00000367299998" width="78.99998159999996" height="31.000009292999977" class="text">theater </text>
<text x="600.0000014" y="197.00000367299998" width="58.99998448000008" height="31.000009292999977" class="text">using
</text>
<text x="109.999994696" y="234.0000036" width="9.000010995999986" height="31.999999383000016" class="text">(</text>
<text x="119.00000569199999" y="234.0000036" width="102.99999394800001" height="34.00000005600003" class="text">including </text>
<text x="238.99999368000002" y="232.99999074" width="36.99999116000001" height="31.999985721" class="text">city </text>
<text x="287.99999716" y="232.99999074" width="36.99999115999998" height="31.999985721" class="text">and </text>
<text x="340.00000372" y="232.99999074" width="50.99999968000003" height="32.999987196000006" class="text">state</text>
<text x="395.00001336" y="232.00000065" width="8.999991679999994" height="31.999997106000023" class="text">)
</text>
<text x="1405.00004352" y="191.00000165400002" width="111.99999791999994" height="31.000009293000033" class="text">Estimated </text>
<text x="1528.99996596" y="191.00000165400002" width="120.00001783999983" height="31.000009293000033" class="text">attendance
</text>
<text x="1454.000047" y="225.99999407700003" width="8.999991679999994" height="29.99999187900005" class="text">(</text>
<text x="1466.99994328" y="225.99999407700003" width="30.000030800000104" height="29.99999187900005" class="text">for </text>
<text x="1513.00003148" y="226.999995552" width="38.99991712000019" height="29.99999187900002" class="text">film</text>
<text x="1558.99999676" y="226.999995552" width="8.999991680000221" height="29.99999187900002" class="text">(</text>
<text x="1567.9999884400002" y="226.999995552" width="9.000009239999827" height="29.99999187900002" class="text">s</text>
<text x="1580.0000358799998" y="227.99999475" width="8.999991680000221" height="29.99999187900002" class="text">)</text>
<text x="1589.00002756" y="227.99999475" width="9.000009240000054" height="29.99999187900002" class="text">)
</text>
<text x="106.99999864" y="314.99999784" width="10.000002072000001" height="33.00001451999998" class="text">N</text>
<text x="131.000000452" y="313.99998497999997" width="10.000002072000001" height="32.99999174999999" class="text">/</text>
<text x="150.000001228" y="313.99998497999997" width="10.000002072000001" height="32.99999174999999" class="text">A
</text>
<text x="110.99999630800001" y="467.99998443" width="49.000006991999996" height="34.00000460999996" class="text">14. </text>
<text x="158.99999993199998" y="467.99998443" width="58.99998974800002" height="34.00000460999996" class="text">Have </text>
<text x="228.0000058" y="467.99998443" width="44.00000419999998" height="34.00000460999996" class="text">two </text>
<text x="282.00000855999997" y="467.99998443" width="71.99998612000002" height="34.00000460999996" class="text">copies </text>
<text x="363.00000392" y="467.99998443" width="24.99997884000004" height="34.00000460999996" class="text">of </text>
<text x="394.00000647999997" y="467.99998443" width="37.99999804000004" height="34.00000460999996" class="text">this </text>
<text x="454.99998716" y="467.99998443" width="89.00001528000001" height="34.00000460999996" class="text">material </text>
<text x="548.0000124" y="467.99998443" width="54.00000276000003" height="34.00000460999996" class="text">been </text>
<text x="615.0000167999999" y="467.99998443" width="51.99998900000014" height="34.00000460999996" class="text">filed </text>
<text x="676.9999868" y="467.99998443" width="48.000031719999924" height="34.00000460999996" class="text">with </text>
<text x="737.99996748" y="467.99998443" width="34.000058319999994" height="34.00000460999996" class="text">the </text>
<text x="781.00001748" y="467.99998443" width="140.00003252" height="34.00000460999996" class="text">Department </text>
<text x="931.0000134400001" y="467.99998443" width="24.99994371999992" height="34.00000460999996" class="text">of </text>
<text x="966.0000435200001" y="467.99998443" width="74.99991895999995" height="34.00000460999996" class="text">Justice</text>
<text x="1043.00001136" y="467.99998443" width="9.999981000000162" height="34.00000460999996" class="text">?
</text>
<text x="1092.0000324" y="459.99999540000005" width="35.00001251999993" height="25.000002720000055" class="text">Yes </text>
<text x="1141.0000358799998" y="459.99999540000005" width="6.999942800000099" height="25.000002720000055" class="text">
</text>
<text x="1197.99995392" y="465.99998148" width="39.00004003999993" height="35.99996202" class="text">No </text>
<text x="1249.00002384" y="467.99998443" width="11.999924519999922" height="34.9999947" class="text">
</text>
<text x="108.99999835199999" y="535.00000356" width="42.999995564" height="32.99999174999999" class="text">15. </text>
<text x="168.000000392" y="535.00000356" width="45.999996888" height="32.99999174999999" class="text">Has </text>
<text x="223.99999584" y="535.00000356" width="42.00000799999998" height="32.99999174999999" class="text">this </text>
<text x="282.00000855999997" y="535.00000356" width="89.99998704000006" height="32.99999174999999" class="text">material </text>
<text x="381.99999416" y="535.00000356" width="51.00001723999998" height="32.99999174999999" class="text">been </text>
<text x="445.00002372" y="535.00000356" width="79.99995336" height="32.99999174999999" class="text">labeled </text>
<text x="537.0000069600001" y="535.00000356" width="23.999971959999925" height="32.99999174999999" class="text">as </text>
<text x="573.99998056" y="535.00000356" width="93.00002524000001" height="32.99999174999999" class="text">required </text>
<text x="679.00000056" y="535.00000356" width="24.000007079999932" height="32.99999174999999" class="text">by </text>
<text x="716.00000928" y="535.00000356" width="34.00000564000004" height="32.99999174999999" class="text">the </text>
<text x="761.00002036" y="535.00000356" width="37.99999804000004" height="32.99999174999999" class="text">act</text>
<text x="799.0000184" y="535.00000356" width="8.999991679999994" height="32.99999174999999" class="text">?
</text>
<text x="846.0000081200001" y="528.00000462" width="32.99996363999992" height="25.999992810000037" class="text">Yes </text>
<text x="891.99999096" y="526.99999176" width="7.000048160000119" height="26.000015579999967" class="text">
</text>
<text x="953.00002432" y="526.99999176" width="36.99997360000009" height="26.000015579999967" class="text">No
</text>
<text x="1048.00001064" y="601.0000098300001" width="106.00002687999995" height="33.000014520000036" class="text">Signature
</text>
<text x="108.000002008" y="601.99999992" width="53.99999398" height="32.000001660000066" class="text">Date </text>
<text x="175.000006408" y="602.9999900099999" width="23.000003712000023" height="29.9999759399999" class="text">of </text>
<text x="207.99999112" y="606.99997314" width="70.00000747999997" height="32.999991749999936" class="text">report
</text>
<text x="398.9999882" y="597.99999402" width="69.99998992000002" height="27.999995760000047" class="text">Name </text>
<text x="479.00001180000004" y="597.00000393" width="36.999973599999976" height="26.000038350000068" class="text">and </text>
<text x="530.00001148" y="597.00000393" width="41.99997287999997" height="26.000038350000068" class="text">title
</text>
<text x="104.999998928" y="637.00001739" width="84.00000195200002" height="32.999991749999936" class="text">Dec. </text>
<text x="215.00000416" y="635.99998176" width="8.999991679999994" height="30.999966029999996" class="text">1</text>
<text x="237.00001504" y="634.99999167" width="8.999991680000022" height="30.999966029999882" class="text">, </text>
<text x="274.0000062" y="634.99999167" width="78.99998160000007" height="32.000001660000066" class="text">1993
</text>
<text x="537.99999628" y="637.00001739" width="123.00000335999994" height="38.000033280000025" class="text">Robert </text>
<text x="685.00000672" y="635.99998176" width="38.99998735999998" height="34.9999719299999" class="text">Y. </text>
<text x="745.00001564" y="638.00000748" width="81.99996711999995" height="36.00000755999997" class="text">Wang
</text>
<text x="103.999997316" y="670.9999992300001" width="164.00000272399996" height="35.0000174700001" class="text">November </text>
<text x="289.00000404" y="671.9999893199999" width="124.00001023999994" height="34.9999719299999" class="text">Report </text>
<text x="537.99999628" y="665.0000359200001" width="163.99998692000008" height="30.000044250000087" class="text">Director
</text>
<text x="426.99998768" y="764.0000111700001" width="104.00001311999995" height="121.00003047000007" class="text">for
</text>
<text x="1128.9999884400002" y="735.9999926400001" width="192.9999932799999" height="170.9999903700001" class="text">Jou
</text>
<text x="1402.99997708" y="2145.000033" width="6.000076400000125" height="21.00006512999971" class="text">*</text>
<text x="1414.0000352000002" y="2145.000033" width="23.99997195999981" height="21.00006512999971" class="text">U.S</text>
<text x="1438.99997892" y="2145.000033" width="6.000058839999838" height="21.00006512999971" class="text">. </text>
<text x="1446.99999884" y="2145.000033" width="36.000001840000095" height="21.00006512999971" class="text">GPO</text>
<text x="1485.00004956" y="2145.000033" width="5.999971039999991" height="21.00006512999971" class="text">: </text>
<text x="1497.9999634" y="2146.00002309" width="106.99999863999983" height="22.000055219999922" class="text">1992-312-332</text>
<text x="1607.00002848" y="2146.00002309" width="5.999971039999991" height="21.000065130000166" class="text">/</text>
<text x="1613.99997128" y="2146.00002309" width="49.00000348000003" height="21.000065130000166" class="text">61637
</text>
</g>
</svg>
