<svg xmlns="http://www.w3.org/2000/svg">
<style>.text { font-size: 14px; font-family: Arial, sans-serif; }</style>
<g id="page-0" transform="translate(0, 0)">
<rect width="1758" height="2274" fill="none" stroke="black" />
<text x="874.9999874399999" y="135.00000087" width="165.0000082800001" height="34.000002072000015" class="text">Dissemination </text>
<text x="1048.99998882" y="137.000002062" width="81.99999378000007" height="33.00000602399999" class="text">Report
</text>
<text x="93.999999816" y="135.999996918" width="55.00000393200001" height="32.00000087999999" class="text">U.S. </text>
<text x="152.99999872799998" y="135.999996918" width="148.99998265200003" height="32.00000087999999" class="text">Department </text>
<text x="312.00001278" y="135.999996918" width="22.999984319999953" height="32.00000087999999" class="text">of </text>
<text x="348.00002034" y="135.999996918" width="77.99998122" height="32.00000087999999" class="text">Justice
</text>
<text x="93.999999816" y="177.99999921" width="130.000000344" height="32.00000087999999" class="text">Washington</text>
<text x="228.99999828" y="176.000007114" width="7.999989960000022" height="29.000005913999985" class="text">, </text>
<text x="247.00001964000003" y="175.00000197" width="37.99997867999994" height="30.000008783999988" class="text">DC </text>
<text x="300.00001026" y="175.00000197" width="65.99999628" height="30.999995736000017" class="text">20530
</text>
<text x="1509.9999772200001" y="119.00000043000001" width="41.00004083999988" height="18.00000163200002" class="text">OMB </text>
<text x="1557.99996972" y="119.00000043000001" width="28.000017600000092" height="18.00000163200002" class="text">No. </text>
<text x="1591.999971" y="119.00000043000001" width="68.00000256000021" height="18.00000163200002" class="text">1105-0006
</text>
<text x="1427.99996586" y="143.00000108999998" width="63.00007475999996" height="21.00000569399998" class="text">Approval </text>
<text x="1497.99999228" y="141.99999822" width="51.999969899999996" height="18.999997680000007" class="text">Expires </text>
<text x="1556.00005134" y="141.99999822" width="38.99991150000005" height="20.000002824000006" class="text">Nov. </text>
<text x="1599.99999612" y="141.000002172" width="13.999991219999856" height="19.000006775999992" class="text">30</text>
<text x="1617.99994716" y="141.000002172" width="5.0000332800002525" height="19.000006775999992" class="text">, </text>
<text x="1630.00003758" y="141.000002172" width="31.999959839999974" height="19.000006775999992" class="text">1993
</text>
<text x="95.00000119799999" y="275.99999622" width="160.99999396199996" height="29.99999514000001" class="text">INSTRUCTIONS</text>
<text x="257.00001588000003" y="275.99999622" width="8.999975519999964" height="29.99999514000001" class="text">: </text>
<text x="270.00000396" y="275.99999622" width="64.00000757999999" height="29.99999514000001" class="text">Report </text>
<text x="342.99998705999997" y="275.99999622" width="42.000008820000005" height="29.99999514000001" class="text">must </text>
<text x="388.0000053" y="275.99999622" width="21.999981179999963" height="29.99999514000001" class="text">be </text>
<text x="418.99999716" y="275.99999622" width="86.9999919" height="29.99999514000001" class="text">submitted </text>
<text x="511.99999031999994" y="275.99999622" width="17.000000640000053" height="29.99999514000001" class="text">in </text>
<text x="538.00001922" y="275.99999622" width="79.99996992000001" height="29.99999514000001" class="text">duplicate </text>
<text x="625.99999668" y="275.99999622" width="17.000000640000053" height="29.99999514000001" class="text">to </text>
<text x="650.00000172" y="275.99999622" width="29.999988720000033" height="29.99999514000001" class="text">the </text>
<text x="688.0000155600001" y="275.99999622" width="105.99999881999986" height="29.99999514000001" class="text">Registration </text>
<text x="801.00001878" y="275.99999622" width="42.00000882000006" height="29.99999514000001" class="text">Unit</text>
<text x="844.99999872" y="275.99999622" width="8.999993099999983" height="29.99999514000001" class="text">, </text>
<text x="856.99998366" y="275.99999622" width="75.0000421200001" height="29.99999514000001" class="text">Internal </text>
<text x="938.0000094599999" y="275.99999622" width="70.00002642000015" height="29.99999514000001" class="text">Security </text>
<text x="1017.99997938" y="275.99999622" width="67.00003457999992" height="29.99999514000001" class="text">Section</text>
<text x="1088.0000058" y="275.99999622" width="8.999975520000135" height="29.99999514000001" class="text">, </text>
<text x="1102.0000146" y="275.99999622" width="81.0000258" height="29.99999514000001" class="text">Criminal </text>
<text x="1192.0000335" y="275.99999622" width="71.99994479999987" height="29.99999514000001" class="text">Division</text>
<text x="1268.0000436" y="275.99999622" width="8.999975519999907" height="29.99999514000001" class="text">, </text>
<text x="1285.00004424" y="275.99999622" width="108.99993791999987" height="29.99999514000001" class="text">Department </text>
<text x="1396.00000602" y="275.99999622" width="22.000016340000002" height="29.99999514000001" class="text">of </text>
<text x="1426.00004748" y="275.99999622" width="56.999985599999945" height="29.99999514000001" class="text">Justice</text>
<text x="1484.0000010600002" y="275.99999622" width="8.999975519999907" height="29.99999514000001" class="text">, </text>
<text x="1500.00003372" y="275.99999622" width="99.99996240000019" height="29.99999514000001" class="text">Washington</text>
<text x="1604.00004384" y="275.99999622" width="8.999993099999983" height="29.99999514000001" class="text">, </text>
<text x="1621.00004448" y="275.99999622" width="39.99998496000012" height="29.99999514000001" class="text">D.C.
</text>
<text x="92.999996676" y="304.00000836000004" width="65.000000172" height="31.00000938000005" class="text">20530. </text>
<text x="164.99999949" y="304.00000836000004" width="33.99999249000001" height="31.00000938000005" class="text">The </text>
<text x="204.99999323999998" y="304.00000836000004" width="74.00000382000002" height="31.00000938000005" class="text">original </text>
<text x="288.99999329999997" y="304.00000836000004" width="41.000005680000015" height="31.00000938000005" class="text">must </text>
<text x="332.00000526" y="304.00000836000004" width="21.999998759999983" height="31.00000938000005" class="text">be </text>
<text x="361.00000842000003" y="304.00000836000004" width="57.99998873999999" height="31.00000938000005" class="text">signed </text>
<text x="428.9999934" y="304.00000836000004" width="17.000035800000035" height="31.00000938000005" class="text">by </text>
<text x="456.99997584" y="304.00000836000004" width="17.000000640000053" height="31.00000938000005" class="text">or </text>
<text x="484.99999344" y="304.00000836000004" width="17.00000063999994" height="31.00000938000005" class="text">on </text>
<text x="511.99999031999994" y="304.00000836000004" width="57.99998874000005" height="31.00000938000005" class="text">behalf </text>
<text x="578.0000041799999" y="304.00000836000004" width="17.000000640000053" height="31.00000938000005" class="text">of </text>
<text x="600.00002052" y="304.00000836000004" width="25.99997615999996" height="31.00000938000005" class="text">the </text>
<text x="634.0000218" y="304.00000836000004" width="87.99997745999997" height="31.00000938000005" class="text">registrant</text>
<text x="723.99998796" y="304.00000836000004" width="9.000028260000022" height="31.00000938000005" class="text">. </text>
<text x="737.99999676" y="304.00000836000004" width="26.99997929999995" height="31.00000938000005" class="text">All </text>
<text x="771.9999804600001" y="304.00000836000004" width="47.00004209999997" height="31.00000938000005" class="text">items </text>
<text x="825.99997422" y="304.00000836000004" width="17.000053380000054" height="31.00000938000005" class="text">in </text>
<text x="850.9999824" y="304.00000836000004" width="31.99997742000005" height="31.00000938000005" class="text">this </text>
<text x="890.99996736" y="304.00000836000004" width="39.999984960000006" height="31.00000938000005" class="text">form </text>
<text x="946.00003458" y="304.00000836000004" width="42.99997680000001" height="31.00000938000005" class="text">must </text>
<text x="992.0000032199999" y="304.00000836000004" width="23.999952300000132" height="31.00000938000005" class="text">be </text>
<text x="1020.00000324" y="304.00000836000004" width="85.00000319999992" height="31.00000938000005" class="text">answered</text>
<text x="1107.99999828" y="304.00000836000004" width="8.999975520000135" height="31.00000938000005" class="text">, </text>
<text x="1119.0000152399998" y="304.00000836000004" width="59.00000946000023" height="31.00000938000005" class="text">unless </text>
<text x="1181.99998452" y="304.00000836000004" width="30.99999185999991" height="31.00000938000005" class="text">the </text>
<text x="1220.00003352" y="304.00000836000004" width="62.99996927999996" height="31.00000938000005" class="text">answer </text>
<text x="1292.9999463000001" y="304.00000836000004" width="11.000016959999812" height="31.00000938000005" class="text">is </text>
<text x="1313.0000442599999" y="304.00000836000004" width="8.999975520000135" height="31.00000938000005" class="text">"</text>
<text x="1323.9999557400001" y="304.00000836000004" width="43.00008227999979" height="31.00000938000005" class="text">none</text>
<text x="1368.000006" y="304.00000836000004" width="8.999975519999907" height="31.00000938000005" class="text">" </text>
<text x="1385.99995704" y="304.00000836000004" width="22.00003391999985" height="31.00000938000005" class="text">or </text>
<text x="1415.0000305199999" y="304.00000836000004" width="8.99999310000021" height="31.00000938000005" class="text">"</text>
<text x="1426.00004748" y="304.00000836000004" width="31.000009439999985" height="31.00000938000005" class="text">not </text>
<text x="1464.99995898" y="304.00000836000004" width="91.00009236000005" height="31.00000938000005" class="text">applicable</text>
<text x="1557.99996972" y="304.00000836000004" width="8.999993099999983" height="31.00000938000005" class="text">,</text>
<text x="1562.00003502" y="304.00000836000004" width="8.999975519999907" height="31.00000938000005" class="text">" </text>
<text x="1580.9999540400001" y="304.00000836000004" width="11.000016959999812" height="31.00000938000005" class="text">in </text>
<text x="1602.00001998" y="304.00000836000004" width="53.000025780000215" height="31.00000938000005" class="text">which
</text>
<text x="92.999996676" y="331.00000626" width="39.00000818999999" height="29.999995140000067" class="text">case </text>
<text x="142.00000110599998" y="331.00000626" width="37.999983954000015" height="29.999995140000067" class="text">such </text>
<text x="192.99999072" y="331.00000626" width="17.000000639999996" height="29.999995140000067" class="text">an </text>
<text x="219.00000204" y="331.00000626" width="48.00001008000001" height="29.999995140000067" class="text">entry </text>
<text x="276.99999077999996" y="331.00000626" width="43.00001196000005" height="29.999995140000067" class="text">shall </text>
<text x="327.00000714000004" y="331.00000626" width="21.999998759999983" height="29.999995140000067" class="text">be </text>
<text x="363.0000147" y="331.00000626" width="42.99999438000003" height="29.999995140000067" class="text">made </text>
<text x="416.99999088" y="331.00000626" width="11.000016960000039" height="29.999995140000067" class="text">in </text>
<text x="438.99998963999997" y="331.00000626" width="30.00002388000007" height="29.999995140000067" class="text">the </text>
<text x="477.99998903999995" y="331.00000626" width="100.00001513999996" height="29.999995140000067" class="text">appropriate </text>
<text x="589.00000356" y="331.00000626" width="51.000001920000045" height="29.999995140000067" class="text">space</text>
<text x="640.00000548" y="331.00000626" width="8.999975519999907" height="29.999995140000067" class="text">. </text>
<text x="654.99998226" y="331.00000626" width="17.000035799999978" height="29.999995140000067" class="text">If </text>
<text x="678.99996972" y="331.00000626" width="92.00006034" height="29.999995140000067" class="text">additional </text>
<text x="778.00001688" y="331.00000626" width="46.999989360000086" height="29.999995140000067" class="text">space </text>
<text x="835.00000248" y="331.00000626" width="17.00000063999994" height="29.999995140000067" class="text">is </text>
<text x="857.9999868" y="331.00000626" width="63.000022020000074" height="29.999995140000067" class="text">needed </text>
<text x="930.99995232" y="331.00000626" width="30.000041460000034" height="29.999995140000067" class="text">for </text>
<text x="966.00002706" y="331.00000626" width="29.999935980000032" height="29.999995140000067" class="text">any </text>
<text x="1008.00003588" y="331.00000626" width="38.999911499999826" height="29.999995140000067" class="text">item</text>
<text x="1048.00002084" y="331.00000626" width="8.999975520000135" height="29.999995140000067" class="text">, </text>
<text x="1062.9999976200002" y="331.00000626" width="50.00001635999979" height="29.999995140000067" class="text">attach </text>
<text x="1125.9999669" y="331.00000626" width="122.00008422000019" height="29.999995140000067" class="text">supplemental </text>
<text x="1255.00000278" y="331.00000626" width="47.000024520000125" height="29.999995140000067" class="text">sheet </text>
<text x="1308.99997896" y="331.00000626" width="99.00001199999997" height="29.999995140000067" class="text">identifying </text>
<text x="1415.9999985" y="331.00000626" width="42.99997680000001" height="29.999995140000067" class="text">each </text>
<text x="1469.99999226" y="331.00000626" width="36.000025139999934" height="29.999995140000067" class="text">item</text>
<text x="1509.9999772200001" y="331.00000626" width="8.999975519999907" height="29.999995140000067" class="text">.
</text>
<text x="95.00000119799999" y="387.9999993" width="65.00000017200001" height="31.000009379999995" class="text">Privacy </text>
<text x="169.99999761" y="387.9999993" width="29.999997509999986" height="31.000009379999995" class="text">Act </text>
<text x="208.00000266" y="387.9999993" width="90.99998688" height="31.000009379999995" class="text">Statement</text>
<text x="294.99999456" y="387.9999993" width="8.999993099999983" height="31.000009379999995" class="text">. </text>
<text x="308.99998578" y="387.9999993" width="54.000028920000034" height="31.000009379999995" class="text">Every </text>
<text x="368.99999838" y="387.9999993" width="101.99998625999996" height="31.000009379999995" class="text">registration </text>
<text x="477.99998903999995" y="387.9999993" width="88.99999818000003" height="31.000009379999995" class="text">statement</text>
<text x="563.9999953800001" y="387.9999993" width="8.999975519999907" height="31.000009379999995" class="text">, </text>
<text x="576.9999834600001" y="387.9999993" width="47.00004209999997" height="31.000009379999995" class="text">short </text>
<text x="628.99998852" y="387.9999993" width="41.00000567999996" height="31.000009379999995" class="text">form </text>
<text x="678.99996972" y="387.9999993" width="101.00003586000003" height="31.000009379999995" class="text">registration </text>
<text x="792.9999936600001" y="387.9999993" width="83.0000144999999" height="31.000009379999995" class="text">statement</text>
<text x="877.0000288800001" y="387.9999993" width="8.999922779999906" height="31.000009379999995" class="text">, </text>
<text x="890.00001696" y="387.9999993" width="124.0000025999999" height="31.000009379999995" class="text">supplemental </text>
<text x="1019.0000528400001" y="387.9999993" width="83.9999121599999" height="31.000009379999995" class="text">statement</text>
<text x="1104.00003846" y="387.9999993" width="8.999975519999907" height="31.000009379999995" class="text">, </text>
<text x="1116.0000234" y="387.9999993" width="62.99996928000019" height="31.000009379999995" class="text">exhibit</text>
<text x="1178.0000247" y="387.9999993" width="8.999975519999907" height="31.000009379999995" class="text">, </text>
<text x="1189.00004166" y="387.9999993" width="112.99998563999998" height="31.000009379999995" class="text">amendment</text>
<text x="1299.00003546" y="387.9999993" width="8.99999310000021" height="31.000009379999995" class="text">, </text>
<text x="1311.0000204" y="387.9999993" width="122.9999467199998" height="31.000009379999995" class="text">dissemination </text>
<text x="1447.0000079400002" y="387.9999993" width="54.999944159999814" height="31.000009379999995" class="text">report</text>
<text x="1500.9999841200001" y="387.9999993" width="8.999993099999983" height="31.000009379999995" class="text">, </text>
<text x="1512.00000108" y="387.9999993" width="44.00005026000008" height="31.000009379999995" class="text">copy </text>
<text x="1563.0000029999999" y="387.9999993" width="19.999992480000174" height="31.000009379999995" class="text">of </text>
<text x="1585.9999873200002" y="387.9999993" width="79.00000193999972" height="31.000009379999995" class="text">political
</text>
<text x="95.00000119799999" y="414.9999972" width="103.99999078200001" height="29.00000363999999" class="text">propaganda </text>
<text x="209.0000058" y="414.9999972" width="14.999994360000017" height="29.00000363999999" class="text">or </text>
<text x="233.9999964" y="414.9999972" width="46.0000038" height="29.00000363999999" class="text">other </text>
<text x="284.99999832" y="414.9999972" width="93.00001074000005" height="29.00000363999999" class="text">document </text>
<text x="385.99999902" y="414.9999972" width="15.000011939999979" height="29.00000363999999" class="text">or </text>
<text x="407.99999778" y="414.9999972" width="106.99998437999994" height="29.00000363999999" class="text">information </text>
<text x="525.99998154" y="414.9999972" width="35.000021999999944" height="29.00000363999999" class="text">filed </text>
<text x="570.99999978" y="414.9999972" width="37.99999625999999" height="29.00000363999999" class="text">with </text>
<text x="617.99998914" y="414.9999972" width="28.000000019999902" height="29.00000363999999" class="text">the </text>
<text x="652.99999356" y="414.9999972" width="76.00001009999994" height="29.00000363999999" class="text">Attorney </text>
<text x="738.9999999" y="414.9999972" width="75.00000695999995" height="29.00000363999999" class="text">General </text>
<text x="816.9999987" y="414.9999972" width="54.99999690000004" height="29.00000363999999" class="text">under </text>
<text x="874.9999874399999" y="414.9999972" width="32.99998056000004" height="29.00000363999999" class="text">this </text>
<text x="913.99995168" y="414.9999972" width="30.000041460000034" height="29.00000363999999" class="text">act </text>
<text x="952.00001826" y="414.9999972" width="11.000016960000039" height="29.00000363999999" class="text">is </text>
<text x="972.99997872" y="414.9999972" width="8.00000754000007" height="29.00000363999999" class="text">a </text>
<text x="986.99996994" y="414.9999972" width="58.00005906000001" height="29.00000363999999" class="text">public </text>
<text x="1053.00005412" y="414.9999972" width="55.999912140000106" height="29.00000363999999" class="text">record </text>
<text x="1116.9999738000001" y="414.9999972" width="41.00005841999996" height="29.00000363999999" class="text">open </text>
<text x="1169.0000491800001" y="414.9999972" width="14.999959199999921" height="29.00000363999999" class="text">to </text>
<text x="1193.99995188" y="414.9999972" width="54.000099240000054" height="29.00000363999999" class="text">public </text>
<text x="1258.99994502" y="414.9999972" width="106.00005155999997" height="29.00000363999999" class="text">examination</text>
<text x="1368.000006" y="414.9999972" width="8.00000754000007" height="29.00000363999999" class="text">, </text>
<text x="1384.00003866" y="414.9999972" width="86.99992157999986" height="29.00000363999999" class="text">inspection </text>
<text x="1484.99995146" y="414.9999972" width="28.000017600000092" height="29.00000363999999" class="text">and </text>
<text x="1520.0000261999999" y="414.9999972" width="73.99996866000015" height="29.00000363999999" class="text">copying </text>
<text x="1604.00004384" y="414.9999972" width="53.99999376000005" height="29.00000363999999" class="text">during
</text>
<text x="93.999999816" y="441.9999951" width="27.999996503999995" height="29.00000363999999" class="text">the </text>
<text x="130.000000344" y="441.9999951" width="55.000000416000006" height="29.00000363999999" class="text">posted </text>
<text x="197.00000328000002" y="441.9999951" width="74.99998937999996" height="29.00000363999999" class="text">business </text>
<text x="280.0000002" y="441.9999951" width="49.99999878" height="29.00000363999999" class="text">hours </text>
<text x="339.00000966" y="441.9999951" width="17.000000640000053" height="29.00000363999999" class="text">of </text>
<text x="363.0000147" y="441.9999951" width="28.999985579999986" height="29.00000363999999" class="text">the </text>
<text x="398.00000154" y="441.9999951" width="109.99997622000001" height="29.00000363999999" class="text">Registration </text>
<text x="517.00000602" y="441.9999951" width="41.00000567999996" height="29.00000363999999" class="text">Unit </text>
<text x="568.0000079399999" y="441.9999951" width="9.999996239999973" height="29.00000363999999" class="text">in </text>
<text x="589.00000356" y="441.9999951" width="103.00000697999997" height="29.00000363999999" class="text">Washington</text>
<text x="696.0000231" y="441.9999951" width="7.999972379999917" height="29.00000363999999" class="text">, </text>
<text x="712.00000302" y="441.9999951" width="42.000026400000024" height="29.00000363999999" class="text">D.C. </text>
<text x="761.00003382" y="441.9999951" width="36.99997554000004" height="29.00000363999999" class="text">One </text>
<text x="805.9999817400001" y="441.9999951" width="41.00000567999996" height="29.00000363999999" class="text">copy </text>
<text x="854.99999496" y="441.9999951" width="21.000013200000012" height="29.00000363999999" class="text">of </text>
<text x="881.9999918399999" y="441.9999951" width="48.99996048000014" height="29.00000363999999" class="text">every </text>
<text x="941.0000013" y="441.9999951" width="36.000025139999934" height="29.00000363999999" class="text">such </text>
<text x="988.0000433999999" y="441.9999951" width="92.9999052600001" height="29.00000363999999" class="text">document </text>
<text x="1085.99998194" y="441.9999951" width="15.000064679999923" height="29.00000363999999" class="text">is </text>
<text x="1107.99999828" y="441.9999951" width="119.99995488000013" height="29.00000363999999" class="text">automatically </text>
<text x="1240.99999398" y="441.9999951" width="75.00004211999999" height="29.00000363999999" class="text">provided </text>
<text x="1325.0000292" y="441.9999951" width="16.999983060000204" height="29.00000363999999" class="text">to </text>
<text x="1351.00000536" y="441.9999951" width="25.99997615999996" height="29.00000363999999" class="text">the </text>
<text x="1387.99999848" y="441.9999951" width="84.0000176399999" height="29.00000363999999" class="text">Secretary </text>
<text x="1481.99995962" y="441.9999951" width="19.999992479999946" height="29.00000363999999" class="text">of </text>
<text x="1506.99998538" y="441.9999951" width="44.000032680000004" height="29.00000363999999" class="text">State </text>
<text x="1559.00004318" y="441.9999951" width="79.00000194000017" height="29.00000363999999" class="text">pursuant </text>
<text x="1644.0000288" y="441.9999951" width="17.000000640000053" height="29.00000363999999" class="text">to
</text>
<text x="96.999998688" y="468.999993" width="62.00000129999998" height="27.999989400000004" class="text">Section </text>
<text x="167.000004012" y="468.999993" width="7.99999171799999" height="27.999989400000004" class="text">6</text>
<text x="177.99999635999998" y="468.999993" width="7.999989960000022" height="27.999989400000004" class="text">(</text>
<text x="186.99998946000002" y="468.999993" width="8.000007539999984" height="27.999989400000004" class="text">b</text>
<text x="197.99998884000001" y="468.999993" width="8.000007539999984" height="27.999989400000004" class="text">) </text>
<text x="211.99999764" y="468.999993" width="19.999992480000003" height="27.999989400000004" class="text">of </text>
<text x="233.9999964" y="468.999993" width="28.000017600000035" height="27.999989400000004" class="text">the </text>
<text x="269.00000082" y="468.999993" width="31.999994999999956" height="27.999989400000004" class="text">Act</text>
<text x="301.99998138" y="468.999993" width="8.000025119999975" height="27.999989400000004" class="text">, </text>
<text x="312.99999834" y="468.999993" width="31.000009440000042" height="27.999989400000004" class="text">and </text>
<text x="351.99999773999997" y="468.999993" width="54.99999690000004" height="27.999989400000004" class="text">copies </text>
<text x="416.00000532" y="468.999993" width="17.000000639999996" height="27.999989400000004" class="text">of </text>
<text x="439.99997520000005" y="468.999993" width="37.00004585999994" height="27.999989400000004" class="text">such </text>
<text x="484.99999344" y="468.999993" width="98.00002644000006" height="27.999989400000004" class="text">documents </text>
<text x="589.99997154" y="468.999993" width="27.000049620000027" height="27.999989400000004" class="text">are </text>
<text x="624.00002556" y="468.999993" width="79.9999699199999" height="27.999989400000004" class="text">routinely </text>
<text x="713.99999172" y="468.999993" width="47.00004209999997" height="27.999989400000004" class="text">made </text>
<text x="764.99997606" y="468.999993" width="78.00005154000007" height="27.999989400000004" class="text">available </text>
<text x="849.99997926" y="468.999993" width="17.00005337999994" height="27.999989400000004" class="text">to </text>
<text x="874.9999874399999" y="468.999993" width="49.00001322000003" height="27.999989400000004" class="text">other </text>
<text x="929.00003394" y="468.999993" width="74.9999366400001" height="27.999989400000004" class="text">agencies</text>
<text x="1006.99996242" y="468.999993" width="8.000025120000146" height="27.999989400000004" class="text">, </text>
<text x="1017.0000114000001" y="468.999993" width="113.00000321999994" height="27.999989400000004" class="text">departments </text>
<text x="1136.0000158799999" y="468.999993" width="30.999991860000137" height="27.999989400000004" class="text">and </text>
<text x="1175.99998326" y="468.999993" width="82.99996176000013" height="27.999989400000004" class="text">Congress </text>
<text x="1265.0000517600001" y="468.999993" width="80.99992031999977" height="27.999989400000004" class="text">pursuant </text>
<text x="1350.0000373799999" y="468.999993" width="14.999959200000148" height="27.999989400000004" class="text">to </text>
<text x="1373.99998968" y="468.999993" width="64.99999314000002" height="27.999989400000004" class="text">Section </text>
<text x="1447.0000079400002" y="468.999993" width="8.000007539999842" height="27.999989400000004" class="text">6</text>
<text x="1458.00000732" y="468.999993" width="8.000025120000146" height="27.999989400000004" class="text">(</text>
<text x="1466.00003244" y="468.999993" width="8.000025119999918" height="27.999989400000004" class="text">c</text>
<text x="1477.9999998" y="468.999993" width="8.000025119999918" height="27.999989400000004" class="text">) </text>
<text x="1489.0000167599999" y="468.999993" width="19.999992479999946" height="27.999989400000004" class="text">of </text>
<text x="1511.0000331" y="468.999993" width="28.999985579999702" height="27.999989400000004" class="text">the </text>
<text x="1548.9999942" y="468.999993" width="33.00003330000004" height="27.999989400000004" class="text">Act</text>
<text x="1577.9999622" y="468.999993" width="8.000025120000146" height="27.999989400000004" class="text">. </text>
<text x="1591.00000302" y="468.999993" width="60.99994542000013" height="27.999989400000004" class="text">Finally</text>
<text x="1653.9999722999999" y="468.999993" width="8.000025120000146" height="27.999989400000004" class="text">,
</text>
<text x="95.999997306" y="497.99999664" width="25.999999013999997" height="30.99998664000003" class="text">the </text>
<text x="130.000000344" y="497.99999664" width="79.999991016" height="30.99998664000003" class="text">Attorney </text>
<text x="216.99999576" y="497.99999664" width="71.00001198000001" height="30.99998664000003" class="text">General </text>
<text x="294.99999456" y="497.99999664" width="79.00000194" height="30.99998664000003" class="text">transmits </text>
<text x="382.00000404" y="497.99999664" width="21.999998759999983" height="30.99998664000003" class="text">an </text>
<text x="413.99999904" y="497.99999664" width="59.999977440000066" height="30.99998664000003" class="text">annual </text>
<text x="479.00000976" y="497.99999664" width="56.99996801999998" height="30.99998664000003" class="text">report </text>
<text x="542.9999821800001" y="497.99999664" width="14.000008799999932" height="30.99998664000003" class="text">to </text>
<text x="566.99998722" y="497.99999664" width="26.000028900000075" height="30.99998664000003" class="text">the </text>
<text x="600.9999885000001" y="497.99999664" width="84.0000176399999" height="30.99998664000003" class="text">Congress </text>
<text x="692.00001054" y="497.99999664" width="21.999981180000077" height="30.99998664000003" class="text">on </text>
<text x="719.9999753999999" y="497.99999664" width="27.000049620000027" height="30.99998664000003" class="text">the </text>
<text x="756.00000054" y="497.99999664" width="134.99996682000005" height="30.99998664000003" class="text">Administration </text>
<text x="898.99999248" y="497.99999664" width="24.00005778000002" height="30.99998664000003" class="text">of </text>
<text x="927.00001008" y="497.99999664" width="27.00003203999995" height="30.99998664000003" class="text">the </text>
<text x="960.00004338" y="497.99999664" width="30.999991860000023" height="30.99998664000003" class="text">Act </text>
<text x="997.0000189200001" y="497.99999664" width="53.99999375999971" height="30.99998664000003" class="text">which </text>
<text x="1062.9999976200002" y="497.99999664" width="33.000033299999814" height="30.99998664000003" class="text">lists </text>
<text x="1107.0000303" y="497.99999664" width="26.999944140000025" height="30.99998664000003" class="text">the </text>
<text x="1141.99999956" y="497.99999664" width="56.00001761999988" height="30.99998664000003" class="text">names </text>
<text x="1206.9999927" y="497.99999664" width="19.00002450000011" height="30.99998664000003" class="text">of </text>
<text x="1234.0000423200001" y="497.99999664" width="22.99998431999984" height="30.99998664000003" class="text">all </text>
<text x="1258.99994502" y="497.99999664" width="58.00005906000001" height="30.99998664000003" class="text">agents </text>
<text x="1327.00005306" y="497.99999664" width="84.99998561999996" height="30.99998664000003" class="text">registered </text>
<text x="1419.99995832" y="497.99999664" width="54.000099240000054" height="30.99998664000003" class="text">under </text>
<text x="1481.99995962" y="497.99999664" width="27.0000496199998" height="30.99998664000003" class="text">the </text>
<text x="1514.99999292" y="497.99999664" width="34.99996925999994" height="30.99998664000003" class="text">Act</text>
<text x="1548.0000262199999" y="497.99999664" width="8.999993099999983" height="30.99998664000003" class="text">, </text>
<text x="1563.0000029999999" y="497.99999664" width="23.999952300000132" height="30.99998664000003" class="text">the </text>
<text x="1599.99999612" y="497.99999664" width="59.999977440000066" height="30.99998664000003" class="text">foreign
</text>
<text x="95.999997306" y="527.00000028" width="89.99998901400001" height="26.999997899999983" class="text">principals </text>
<text x="194.999997" y="527.00000028" width="33.00001571999999" height="27.999989399999947" class="text">they </text>
<text x="240.00001524" y="526.00000878" width="85.99997117999996" height="26.999997899999983" class="text">represent</text>
<text x="322.99999457999996" y="526.00000878" width="7.99998996000005" height="26.999997899999983" class="text">, </text>
<text x="339.00000966" y="526.00000878" width="29.999988720000033" height="26.999997899999983" class="text">and </text>
<text x="379.99999776" y="526.00000878" width="26.999996880000026" height="26.999997899999983" class="text">the </text>
<text x="416.99999088" y="526.00000878" width="53.999993759999995" height="28.000012140000024" class="text">nature</text>
<text x="474.99999719999994" y="524.99999454" width="8.000007540000013" height="26.999997899999983" class="text">, </text>
<text x="487.00001729999997" y="524.99999454" width="68.00000255999998" height="26.999997899999983" class="text">sources </text>
<text x="566.99998722" y="524.99999454" width="29.000020740000082" height="26.999997899999983" class="text">and </text>
<text x="606.0000042" y="524.99999454" width="68.00000255999998" height="26.999997899999983" class="text">content </text>
<text x="682.9999822799999" y="524.99999454" width="15.000029520000112" height="26.999997899999983" class="text">of </text>
<text x="706.99998732" y="524.99999454" width="26.999996880000026" height="27.999989399999947" class="text">the </text>
<text x="743.99998044" y="524.00000304" width="76.00001010000005" height="26.999997899999983" class="text">political </text>
<text x="824.0000031" y="524.00000304" width="108.9999906600001" height="26.999997899999983" class="text">propaganda </text>
<text x="938.0000094599999" y="524.00000304" width="116.99996304000013" height="28.000012140000024" class="text">disseminated </text>
<text x="1063.99994802" y="522.9999888" width="25.0000257600002" height="26.999997899999983" class="text">or </text>
<text x="1094.99995746" y="522.9999888" width="95.00003459999994" height="26.999997899999983" class="text">distributed </text>
<text x="1200.00004104" y="522.9999888" width="19.999992479999946" height="27.999989399999947" class="text">by </text>
<text x="1232.0000184599999" y="521.9999973" width="40.999935360000336" height="26.999997899999983" class="text">them</text>
<text x="1275.99994566" y="521.9999973" width="8.000025119999918" height="26.999997899999983" class="text">. </text>
<text x="1294.9999877399998" y="521.9999973" width="36.99997554000015" height="26.999997899999983" class="text">This </text>
<text x="1340.9999563800002" y="521.9999973" width="56.00001761999988" height="26.999997899999983" class="text">report </text>
<text x="1404.00003114" y="521.9999973" width="14.999959200000148" height="26.999997899999983" class="text">is </text>
<text x="1427.00001546" y="521.9999973" width="77.99992847999988" height="27.999989400000004" class="text">available </text>
<text x="1514.0000425199999" y="521.0000058" width="14.999959200000148" height="26.99999790000004" class="text">to </text>
<text x="1540.99996908" y="521.0000058" width="27.000049620000027" height="26.99999790000004" class="text">the </text>
<text x="1577.9999622" y="521.0000058" width="53.00002577999999" height="26.99999790000004" class="text">public</text>
<text x="1636.00002126" y="521.0000058" width="8.00000754000007" height="26.99999790000004" class="text">.
</text>
<text x="93.999999816" y="579.99998184" width="56.99999439" height="29.999972400000047" class="text">Public </text>
<text x="156.00000639" y="579.99998184" width="89.00000696999999" height="29.999972400000047" class="text">Reporting </text>
<text x="253.00000332000002" y="579.99998184" width="59.99999501999997" height="29.999972400000047" class="text">Burden</text>
<text x="317.0000109" y="579.99998184" width="8.999975519999964" height="29.999972400000047" class="text">. </text>
<text x="330.99998454" y="579.99998184" width="53.00000819999997" height="29.999972400000047" class="text">Public </text>
<text x="392.00000028" y="579.99998184" width="80.00000508000005" height="29.999972400000047" class="text">reporting </text>
<text x="482.0000016" y="579.99998184" width="60.00003017999995" height="29.999972400000047" class="text">burden </text>
<text x="548.00001546" y="579.99998184" width="25.999976160000074" height="29.999972400000047" class="text">for </text>
<text x="578.0000041799999" y="579.99998184" width="35.000004420000096" height="29.999972400000047" class="text">this </text>
<text x="616.00000044" y="579.99998184" width="87.99999503999993" height="29.999972400000047" class="text">collection </text>
<text x="713.00002374" y="579.99998184" width="17.000000640000053" height="29.999972400000047" class="text">of </text>
<text x="736.0000080599999" y="579.99998184" width="103.00000698000008" height="29.999972400000047" class="text">information </text>
<text x="846.99998742" y="579.99998184" width="10.999999379999963" height="29.999972400000047" class="text">is </text>
<text x="866.00001192" y="579.99998184" width="83.0000144999999" height="29.999972400000047" class="text">estimated </text>
<text x="955.9999780799999" y="579.99998184" width="17.000000640000053" height="29.999972400000047" class="text">to </text>
<text x="980.0000358599999" y="579.99998184" width="65.9999611200002" height="29.999972400000047" class="text">average </text>
<text x="1051.9999806600001" y="579.99998184" width="17.000000639999826" height="29.999972400000047" class="text">.5 </text>
<text x="1074.99996498" y="579.99998184" width="51.00000191999993" height="29.999972400000047" class="text">hours </text>
<text x="1128.99995874" y="579.99998184" width="30.00004145999992" height="29.999972400000047" class="text">per </text>
<text x="1166.0000397600002" y="579.99998184" width="76.99997807999989" height="29.999972400000047" class="text">response</text>
<text x="1243.99998582" y="579.99998184" width="8.999975520000135" height="29.999972400000047" class="text">, </text>
<text x="1257.9999946199998" y="579.99998184" width="81.99999378000007" height="29.999972400000047" class="text">including </text>
<text x="1348.00001352" y="579.99998184" width="25.000008180000123" height="29.999972400000047" class="text">the </text>
<text x="1381.0000468199999" y="579.99998184" width="36.99997554000015" height="29.999972400000047" class="text">time </text>
<text x="1424.00002362" y="579.99998184" width="25.99997615999996" height="29.999972400000047" class="text">for </text>
<text x="1458.9999753" y="579.99998184" width="85.00000320000004" height="29.999972400000047" class="text">reviewing </text>
<text x="1551.99998604" y="579.99998184" width="103.00005972000008" height="29.999972400000047" class="text">instructions</text>
<text x="1655.0000457600001" y="579.99998184" width="8.999975519999907" height="29.999972400000047" class="text">,
</text>
<text x="95.00000119799999" y="608.99998548" width="83.99999830200001" height="24.99999215999992" class="text">searching </text>
<text x="189.99999888" y="608.99998548" width="70.00000883999999" height="26.00000639999996" class="text">existing </text>
<text x="267.00001212" y="608.0000167200001" width="35.99998998000001" height="25.000037640000073" class="text">data </text>
<text x="312.99999834" y="608.0000167200001" width="68.00000255999998" height="25.000037640000073" class="text">sources</text>
<text x="382.00000404" y="608.0000167200001" width="7.000004399999966" height="25.000037640000073" class="text">, </text>
<text x="398.00000154" y="608.0000167200001" width="81.00000821999998" height="26.00000639999996" class="text">gathering </text>
<text x="490.00000914000003" y="607.00000248" width="28.999985579999986" height="24.99999215999992" class="text">and </text>
<text x="534.0000066599999" y="607.00000248" width="103.00000698000008" height="24.99999215999992" class="text">maintaining </text>
<text x="645.9999891599999" y="607.00000248" width="25.000025760000085" height="24.99999215999992" class="text">the </text>
<text x="679.99999044" y="607.00000248" width="38.00001383999995" height="26.00000639999996" class="text">data </text>
<text x="728.00000052" y="605.99998824" width="60.999980580000056" height="24.99999215999992" class="text">needed</text>
<text x="794.0000143799999" y="605.99998824" width="7.00000440000008" height="24.99999215999992" class="text">, </text>
<text x="808.0000056" y="605.99998824" width="28.00001759999998" height="24.99999215999992" class="text">and </text>
<text x="847.99999056" y="605.99998824" width="98.00004402000002" height="24.99999215999992" class="text">completing </text>
<text x="958.00000194" y="605.0000194800001" width="31.99997742000005" height="25.000037640000073" class="text">and </text>
<text x="997.9999869000001" y="605.0000194800001" width="89.00005091999992" height="25.000037640000073" class="text">reviewing </text>
<text x="1096.00003092" y="605.0000194800001" width="25.000008180000123" height="25.000037640000073" class="text">the </text>
<text x="1133.00000646" y="605.0000194800001" width="85.9999711800001" height="26.00000640000019" class="text">collection </text>
<text x="1229.99997702" y="604.0000052400001" width="19.00002450000011" height="24.999992160000147" class="text">of </text>
<text x="1255.9999531800001" y="604.0000052400001" width="106.00005155999997" height="24.999992160000147" class="text">information</text>
<text x="1364.0000461799998" y="604.0000052400001" width="6.999951660000306" height="24.999992160000147" class="text">. </text>
<text x="1379.99997336" y="604.0000052400001" width="41.00005841999996" height="24.999992160000147" class="text">Send </text>
<text x="1432.99999914" y="604.0000052400001" width="92.00004276000004" height="26.00000639999996" class="text">comments </text>
<text x="1532.99996154" y="602.999991" width="87.0000270600001" height="24.99999215999992" class="text">regarding </text>
<text x="1628.99996412" y="602.999991" width="31.000009440000213" height="24.99999215999992" class="text">this
</text>
<text x="95.00000119799999" y="636.00000612" width="61.99999426800001" height="30.99998663999986" class="text">burden </text>
<text x="163.999998108" y="636.00000612" width="77.00000269200001" height="30.99998663999986" class="text">estimate </text>
<text x="245.99999892" y="636.00000612" width="24.00000504000002" height="30.99998663999986" class="text">or </text>
<text x="271.0000071" y="636.00000612" width="34.99998683999996" height="30.99998663999986" class="text">any </text>
<text x="312.00001278" y="636.00000612" width="51.00000191999999" height="30.99998663999986" class="text">other </text>
<text x="364.00000026" y="636.00000612" width="62.99998685999998" height="30.99998663999986" class="text">aspect </text>
<text x="428.9999934" y="636.00000612" width="23.00001947999999" height="30.99998663999986" class="text">of </text>
<text x="455.00000472" y="636.00000612" width="32.000012579999975" height="30.99998663999986" class="text">this </text>
<text x="494.00002169999993" y="636.00000612" width="91.99999002000004" height="30.99998663999986" class="text">collection </text>
<text x="593.9999841" y="636.00000612" width="19.000024499999995" height="30.99998663999986" class="text">of </text>
<text x="616.00000044" y="636.00000612" width="107.99998751999999" height="30.99998663999986" class="text">information</text>
<text x="724.9999911" y="636.00000612" width="8.999993099999983" height="30.99998663999986" class="text">, </text>
<text x="741.99999174" y="636.00000612" width="80.99999063999996" height="30.99998663999986" class="text">including </text>
<text x="832.99997862" y="636.00000612" width="105.00003083999991" height="30.99998663999986" class="text">suggestions </text>
<text x="947.00000256" y="636.00000612" width="25.00000818000001" height="30.99998663999986" class="text">for </text>
<text x="980.99998626" y="636.00000612" width="75.00005969999984" height="30.99998663999986" class="text">reducing </text>
<text x="1062.0000296399999" y="636.00000612" width="31.9999598400002" height="30.99998663999986" class="text">this </text>
<text x="1105.99997442" y="636.00000612" width="63.00007476000019" height="30.99998663999986" class="text">burden </text>
<text x="1173.9999594" y="636.00000612" width="18.000074099999892" height="30.99998663999986" class="text">to </text>
<text x="1201.0000090199999" y="636.00000612" width="48.99996048000003" height="30.99998663999986" class="text">Chief</text>
<text x="1252.00001094" y="636.00000612" width="8.999975519999907" height="30.99998663999986" class="text">, </text>
<text x="1266.00000216" y="636.00000612" width="104.99999568000021" height="30.99998663999986" class="text">Registration </text>
<text x="1382.9999652" y="636.00000612" width="39.99998496000012" height="30.99998663999986" class="text">Unit</text>
<text x="1424.99997402" y="636.00000612" width="8.999993099999756" height="30.99998663999986" class="text">, </text>
<text x="1439.9999507999999" y="636.00000612" width="83.00006724000013" height="30.99998663999986" class="text">Criminal </text>
<text x="1529.9999697" y="636.00000612" width="75.00004211999999" height="30.99998663999986" class="text">Division</text>
<text x="1608.00000366" y="636.00000612" width="8.999993099999983" height="30.99998663999986" class="text">, </text>
<text x="1622.9999804400002" y="636.00000612" width="45.00000065999984" height="30.99998663999986" class="text">U.S.
</text>
<text x="93.999999816" y="662.00001252" width="109.00000472400002" height="30.000017880000087" class="text">Department </text>
<text x="209.0000058" y="662.00001252" width="21.999998759999983" height="30.000017880000087" class="text">of </text>
<text x="236.99998824000002" y="662.00001252" width="59.00000945999997" height="30.000017880000087" class="text">Justice</text>
<text x="296.99998326" y="662.00001252" width="9.000010679999946" height="30.000017880000087" class="text">, </text>
<text x="312.99999834" y="662.00001252" width="99.99997998000003" height="30.000017880000087" class="text">Washington</text>
<text x="416.99999088" y="662.00001252" width="9.000010680000003" height="30.000017880000087" class="text">, </text>
<text x="433.99999152" y="662.00001252" width="39.99998496000006" height="30.000017880000087" class="text">D.C. </text>
<text x="483.00000473999995" y="662.00001252" width="53.99999376000011" height="30.000017880000087" class="text">20530</text>
<text x="536.9999985000001" y="662.00001252" width="8.999975519999907" height="30.000017880000087" class="text">; </text>
<text x="551.0000073" y="662.00001252" width="34.00000127999999" height="30.000017880000087" class="text">and </text>
<text x="596.0000079600001" y="662.00001252" width="11.000016959999925" height="30.000017880000087" class="text">to </text>
<text x="620.000013" y="662.00001252" width="24.00000504000002" height="30.000017880000087" class="text">the </text>
<text x="655.9999854" y="662.00001252" width="53.99999375999994" height="30.000017880000087" class="text">Office </text>
<text x="719.00000742" y="662.00001252" width="21.999981179999963" height="30.000017880000087" class="text">of </text>
<text x="747.00002502" y="662.00001252" width="103.99995738000007" height="30.000017880000087" class="text">Information </text>
<text x="863.9999880600001" y="662.00001252" width="29.999971139999957" height="30.000017880000087" class="text">and </text>
<text x="904.99997616" y="662.00001252" width="96.00000258" height="30.000017880000087" class="text">Regulatory </text>
<text x="1012.99996368" y="662.00001252" width="63.000074760000075" height="30.000017880000087" class="text">Affairs</text>
<text x="1076.99998884" y="662.00001252" width="8.999993099999983" height="30.000017880000087" class="text">, </text>
<text x="1090.0000296599999" y="662.00001252" width="59.00002704000008" height="30.000017880000087" class="text">Office </text>
<text x="1158.00003222" y="662.00001252" width="17.000000639999826" height="30.000017880000087" class="text">of </text>
<text x="1181.99998452" y="662.00001252" width="118.99998689999984" height="30.000017880000087" class="text">Management </text>
<text x="1306.9999551" y="662.00001252" width="34.000001280000106" height="30.000017880000087" class="text">and </text>
<text x="1348.99996392" y="662.00001252" width="66.00006659999985" height="30.000017880000087" class="text">Budget</text>
<text x="1413.00000666" y="662.00001252" width="8.999975519999907" height="30.000017880000087" class="text">, </text>
<text x="1427.99996586" y="662.00001252" width="104.99999567999998" height="30.000017880000087" class="text">Washington</text>
<text x="1535.99995338" y="662.00001252" width="9.00008099999991" height="30.000017880000087" class="text">, </text>
<text x="1549.99996218" y="662.00001252" width="43.000082280000015" height="30.000017880000087" class="text">D.C. </text>
<text x="1597.99995468" y="662.00001252" width="58.00005906000001" height="30.000017880000087" class="text">20503</text>
<text x="1656.00001374" y="662.00001252" width="8.999975519999907" height="30.000017880000087" class="text">.
</text>
<text x="107.99999806800001" y="720.0000197999999" width="28.00000177799997" height="30.000017879999973" class="text">1. </text>
<text x="145.999996086" y="722.0000028000001" width="68.000007834" height="32.00000088000013" class="text">Name </text>
<text x="226.999992" y="722.0000028000001" width="21.99999876000001" height="30.000017879999973" class="text">of </text>
<text x="260.99999328" y="725.00000004" width="109.00000824" height="33.000015119999944" class="text">registrant
</text>
<text x="1218.99997764" y="720.99998856" width="22.000016340000002" height="29.999972400000047" class="text">2. </text>
<text x="1249.00000152" y="720.99998856" width="135.9999875399999" height="32.99996964000002" class="text">Registration </text>
<text x="1398.00004746" y="719.0000055600001" width="46.99991904000012" height="32.00000088000013" class="text">No.
</text>
<text x="1271.0000354400001" y="755.99998668" width="80.99992031999977" height="30.999986639999975" class="text">3911
</text>
<text x="93.999999816" y="774.99998436" width="161.99999534399996" height="35.99996687999999" class="text">Robinson</text>
<text x="264.0000027" y="774.99998436" width="9.99999624000003" height="35.99996687999999" class="text">, </text>
<text x="300.00001026" y="774.99998436" width="77.99999880000001" height="35.99996687999999" class="text">Lake</text>
<text x="385.99999902" y="774.99998436" width="9.999996239999973" height="35.99996687999999" class="text">, </text>
<text x="421.99998899999997" y="774.99998436" width="99.99999756000005" height="35.99996687999999" class="text">Lerer </text>
<text x="548.00001546" y="774.99998436" width="9.999996239999973" height="35.99996687999999" class="text">&amp; </text>
<text x="588.00000042" y="774.99998436" width="203.99997252000003" height="35.99996687999999" class="text">Montgomery</text>
<text x="799.99999806" y="774.99998436" width="9.999996239999973" height="35.99996687999999" class="text">/</text>
<text x="820.99999368" y="774.99998436" width="51.000001920000045" height="35.99996687999999" class="text">The </text>
<text x="896.99996862" y="774.99998436" width="117.00005093999994" height="35.99996687999999" class="text">Sawyer </text>
<text x="1040.9999637" y="774.99998436" width="121.99997873999996" height="35.99996687999999" class="text">Miller
</text>
<text x="108.99999945" y="821.00000268" width="28.000003535999994" height="39.0000096" class="text">3. </text>
<text x="145.999996086" y="821.00000268" width="75.000012234" height="39.0000096" class="text">Nature </text>
<text x="233.9999964" y="819.99998844" width="21.999998759999983" height="39.00000960000011" class="text">of </text>
<text x="271.0000071" y="819.99998844" width="90.00000132000002" height="39.00000960000011" class="text">material </text>
<text x="371.00000466" y="819.99998844" width="10.99999938000002" height="39.00000960000011" class="text">(</text>
<text x="383.00000718" y="819.99998844" width="10.99999938000002" height="39.00000960000011" class="text">A </text>
<text x="409.99998647999996" y="819.99998844" width="80.00002266000007" height="39.00000960000011" class="text">concise </text>
<text x="502.99999722" y="819.0000196799999" width="93.99997872" height="39.000009599999885" class="text">account </text>
<text x="605.00000106" y="819.0000196799999" width="22.000016340000002" height="39.000009599999885" class="text">of </text>
<text x="637.99998162" y="819.0000196799999" width="34.00003644000003" height="39.000009599999885" class="text">the </text>
<text x="682.9999822799999" y="819.0000196799999" width="67.00003458000003" height="39.000009599999885" class="text">nature </text>
<text x="763.0000049399999" y="818.00000544" width="28.99996800000008" height="39.0000096" class="text">of </text>
<text x="798.00000936" y="818.00000544" width="31.000009439999985" height="39.0000096" class="text">the </text>
<text x="840.9999861599999" y="818.00000544" width="139.00004969999998" height="40.00002384000004" class="text">propaganda </text>
<text x="992.0000032199999" y="818.00000544" width="95.00003460000005" height="40.00002384000004" class="text">material </text>
<text x="1097.9999493" y="816.9999912000001" width="49.00006596000003" height="39.00000960000011" class="text">filed</text>
<text x="1147.00001526" y="816.9999912000001" width="11.000016960000039" height="39.00000960000011" class="text">)
</text>
<text x="92.999996676" y="857.9999838" width="187.000003524" height="34.99999811999999" class="text">political </text>
<text x="300.00001026" y="857.9999838" width="58.99999187999998" height="34.99999811999999" class="text">and </text>
<text x="378.00000906" y="857.9999838" width="167.00001455999995" height="34.99999811999999" class="text">economic </text>
<text x="566.00001924" y="857.9999838" width="164.00000513999998" height="34.99999811999999" class="text">briefing </text>
<text x="750.99998484" y="857.9999838" width="122.99999946000003" height="34.99999811999999" class="text">papers</text>
<text x="884.0000157000001" y="857.9999838" width="9.999943499999972" height="34.99999811999999" class="text">, </text>
<text x="915.99999312" y="857.9999838" width="206.00001395999993" height="34.99999811999999" class="text">background </text>
<text x="1147.9999832400001" y="857.9999838" width="217.0000133399999" height="34.99999811999999" class="text">information
</text>
<text x="105.99999882" y="947.9999919600001" width="37.000003668000005" height="27.999989400000118" class="text">4. </text>
<text x="148.000000608" y="949.0000061999999" width="46.999996392000014" height="27.99998939999989" class="text">Title </text>
<text x="210.99999449999999" y="949.0000061999999" width="20.000010059999994" height="27.99998939999989" class="text">of </text>
<text x="248.99999076" y="950.9999892000001" width="88.99999817999998" height="29.999972400000047" class="text">material</text>
<text x="337.99998894" y="950.00002044" width="8.000025120000032" height="28.000034880000044" class="text">, </text>
<text x="358.00001658" y="950.9999892000001" width="15.999979919999987" height="27.999989400000118" class="text">if </text>
<text x="383.00000718" y="950.9999892000001" width="40.000002540000025" height="27.999989400000118" class="text">any
</text>
<text x="93.999999816" y="985.9999873200001" width="95.999999064" height="26.999975160000076" class="text">Chile</text>
<text x="199.99999512" y="985.9999873200001" width="8.000007540000013" height="26.999975160000076" class="text">: </text>
<text x="259.00000458" y="987.00000156" width="183.99996245999995" height="29.00000363999993" class="text">Political </text>
<text x="466.00002168" y="987.00000156" width="57.99998873999999" height="29.00000363999993" class="text">and </text>
<text x="546.99999474" y="987.00000156" width="162.00001643999997" height="29.00000363999993" class="text">Economic
</text>
<text x="276.99999077999996" y="1026.00001116" width="164.00000513999998" height="34.000029359999985" class="text">Briefing </text>
<text x="463.99998024" y="1026.00001116" width="98.99999442000001" height="34.000029359999985" class="text">Paper
</text>
<text x="926.0000421000001" y="952.0000034400001" width="28.999967999999853" height="30.99998664000009" class="text">5. </text>
<text x="977.99999442" y="952.0000034400001" width="70.00002641999993" height="32.00000088000013" class="text">Name </text>
<text x="1056.0000459599999" y="950.9999892000001" width="21.999910860000227" height="30.99998664000009" class="text">of </text>
<text x="1082.9999901" y="950.9999892000001" width="79.00000193999995" height="30.99998664000009" class="text">foreign </text>
<text x="1172.00004102" y="950.9999892000001" width="103.99990464000007" height="32.99996964000013" class="text">principal </text>
<text x="1282.0000348199999" y="950.00002044" width="21.999928440000076" height="31.000032120000014" class="text">on </text>
<text x="1311.9999708" y="950.00002044" width="72.00006785999994" height="31.000032120000014" class="text">whose </text>
<text x="1396.00000602" y="950.00002044" width="65.99996112000008" height="32.000000880000016" class="text">behalf </text>
<text x="1472.0000161199998" y="949.0000061999999" width="36.99999312" height="30.999986639999975" class="text">this </text>
<text x="1525.0000419" y="949.0000061999999" width="91.99995485999989" height="32.0000008799999" class="text">material </text>
<text x="1619.9999886" y="947.9999919600001" width="44.000032680000004" height="30.99998664000009" class="text">was
</text>
<text x="978.9999624000001" y="975.99998136" width="127.00001201999987" height="23.99997791999988" class="text">transmitted</text>
<text x="1110.9999901200001" y="975.0000126000001" width="5.999983680000014" height="23.00000915999999" class="text">.
</text>
<text x="1019.0000528400001" y="1019.00000244" width="99.99996239999973" height="27.999989400000004" class="text">Chile
</text>
<text x="107.00000196" y="1113.99999084" width="31.999991484000006" height="24.99999215999992" class="text">6. </text>
<text x="144.999994704" y="1113.99999084" width="78.00001989600003" height="24.99999215999992" class="text">Means </text>
<text x="233.9999964" y="1113.00002208" width="23.00001948000005" height="25.000037640000073" class="text">of </text>
<text x="265.00000584000003" y="1113.99999084" width="142.99999193999997" height="26.999975160000076" class="text">transmission
</text>
<text x="92.999996676" y="1154.99998344" width="79.00000545600003" height="26.999975160000076" class="text">Hand </text>
<text x="194.999997" y="1154.99998344" width="82.99999692" height="26.999975160000076" class="text">outs
</text>
<text x="642.99999732" y="1113.99999084" width="15.000029519999998" height="26.999975160000076" class="text">7. </text>
<text x="665.99998164" y="1113.99999084" width="69.00000570000009" height="26.999975160000076" class="text">Dates </text>
<text x="744.99998358" y="1113.99999084" width="25.000025759999858" height="26.999975160000076" class="text">of </text>
<text x="777.00001374" y="1113.99999084" width="144.99996306000003" height="26.999975160000076" class="text">transmission
</text>
<text x="652.99999356" y="1158.0000489000001" width="9.999996239999973" height="34.000052100000175" class="text">4</text>
<text x="672.99998604" y="1158.0000489000001" width="9.999996239999973" height="34.000052100000175" class="text">/</text>
<text x="689.99998668" y="1158.0000489000001" width="38.00001383999995" height="34.000052100000175" class="text">23</text>
<text x="737.99999676" y="1158.0000489000001" width="9.99997866000001" height="34.000052100000175" class="text">/</text>
<text x="750.99998484" y="1158.0000489000001" width="84.00001764000001" height="34.000052100000175" class="text">93-4</text>
<text x="839.9999830200001" y="1158.0000489000001" width="9.999996239999973" height="34.000052100000175" class="text">/</text>
<text x="856.99998366" y="1158.0000489000001" width="38.000049000000104" height="34.000052100000175" class="text">30</text>
<text x="902.9999523" y="1158.0000489000001" width="10.000048980000088" height="34.000052100000175" class="text">/</text>
<text x="918.0000169799999" y="1158.0000489000001" width="37.99996109999995" height="34.000052100000175" class="text">93
</text>
<text x="1152.00004854" y="1115.00000508" width="19.999992479999946" height="29.00000363999993" class="text">8. </text>
<text x="1186.00003224" y="1115.00000508" width="53.999993759999825" height="29.00000363999993" class="text">Total </text>
<text x="1248.00005112" y="1115.00000508" width="72.99991277999993" height="30.00001787999986" class="text">copies </text>
<text x="1331.00001288" y="1113.99999084" width="124.99997058000008" height="29.999972399999933" class="text">transmitted
</text>
<text x="1314.99998022" y="1155.9999976800002" width="33.00003330000004" height="30.000017880000087" class="text">13
</text>
<text x="108.99999945" y="1215.0000192" width="25.99999901400001" height="28.000034880000158" class="text">9. </text>
<text x="144.999994704" y="1215.0000192" width="44.000001036000015" height="28.000034880000158" class="text">List </text>
<text x="198.99999198" y="1215.0000192" width="109.00000824" height="28.000034880000158" class="text">addresses </text>
<text x="320.9999883" y="1215.0000192" width="55.000014480000004" height="28.000034880000158" class="text">from </text>
<text x="383.99999274" y="1215.0000192" width="69.99999126" height="28.000034880000158" class="text">which </text>
<text x="473.0000085" y="1215.0000192" width="89.00001576000005" height="28.000034880000158" class="text">material </text>
<text x="569.00001108" y="1215.0000192" width="43.999997519999965" height="28.000034880000158" class="text">was </text>
<text x="623.00000484" y="1215.0000192" width="127.99998000000005" height="28.000034880000158" class="text">transmitted</text>
<text x="754.99997982" y="1215.0000192" width="8.000025119999918" height="28.000034880000158" class="text">:
</text>
<text x="930.99995232" y="1211.9999537400001" width="41.00005841999996" height="23.999955180000143" class="text">10. </text>
<text x="980.99998626" y="1211.9999537400001" width="44.00005025999985" height="24.999969420000298" class="text">List </text>
<text x="1040.9999637" y="1210.9999395" width="59.00000946" height="23.999955180000143" class="text">states </text>
<text x="1116.9999738000001" y="1210.9999395" width="36.99999312" height="23.999955180000143" class="text">and </text>
<text x="1169.99999958" y="1210.9999395" width="115.99999506000017" height="26.000006400000075" class="text">territories </text>
<text x="1297.99997958" y="1210.0000617" width="27.000049620000027" height="24.000114359999998" class="text">of </text>
<text x="1336.0000285800002" y="1210.0000617" width="34.00000127999988" height="25.000128600000153" class="text">the </text>
<text x="1384.99998906" y="1209.00004746" width="76.00002768000013" height="24.000114359999998" class="text">United </text>
<text x="1478.99996778" y="1209.00004746" width="66.00006660000008" height="24.99999215999992" class="text">States </text>
<text x="1560.00001116" y="1208.0000104800001" width="16.000032659999988" height="23.999955180000143" class="text">to </text>
<text x="1593.00004446" y="1208.0000104800001" width="66.99992910000014" height="23.999955180000143" class="text">which
</text>
<text x="983.9999780999999" y="1243.99997736" width="90.99998688000005" height="23.999977919999992" class="text">material </text>
<text x="1085.00001396" y="1243.99997736" width="43.99994478000008" height="24.999992160000147" class="text">was </text>
<text x="1138.00003974" y="1242.9999403799998" width="124.00002018000009" height="23.999955179999915" class="text">transmitted</text>
<text x="1268.0000436" y="1242.9999403799998" width="6.9999516599998515" height="23.999955179999915" class="text">:
</text>
<text x="98.000001828" y="1292.0000469" width="75.00000168599999" height="33.00003786000002" class="text">1667 </text>
<text x="198.99999198" y="1293.0000611399998" width="9.000010680000003" height="33.000015119999944" class="text">K </text>
<text x="238.00000896" y="1293.99993894" width="115.99999506" height="34.9999299000001" class="text">Street</text>
<text x="364.00000026" y="1293.0000611399998" width="9.00001068000006" height="33.000015119999944" class="text">, </text>
<text x="399.00000468" y="1293.99993894" width="56.000000039999975" height="32.999878680000165" class="text">N.W</text>
<text x="463.00001226" y="1293.99993894" width="36.99999312" height="32.999878680000165" class="text">.. </text>
<text x="528.99999096" y="1292.0000469" width="9.000028260000022" height="30.00010883999994" class="text">#</text>
<text x="545.99997402" y="1292.0000469" width="59.00002704000008" height="32.000000880000016" class="text">900
</text>
<text x="92.00000056799999" y="1325.99993982" width="202.99999399200001" height="29.999949660000084" class="text">Washington</text>
<text x="305.99999393999997" y="1325.99993982" width="9.00001068000006" height="29.999949660000084" class="text">, </text>
<text x="337.00000338" y="1324.00004778" width="84.00000005999999" height="29.000094599999784" class="text">D.C. </text>
<text x="487.00001729999997" y="1319.9999453399998" width="96.99997056000007" height="26.999884199999997" class="text">20006
</text>
<text x="952.00001826" y="1325.00006202" width="204.99994049999998" height="36.00008058000003" class="text">Washington</text>
<text x="1169.99999958" y="1325.00006202" width="9.9999435000002" height="36.00008058000003" class="text">, </text>
<text x="1200.00004104" y="1325.00006202" width="85.00000320000004" height="36.00008058000003" class="text">D.C.</text>
<text x="1291.9999783199999" y="1325.00006202" width="10.000048980000201" height="36.00008058000003" class="text">, </text>
<text x="1328.00002104" y="1325.00006202" width="56.00001761999988" height="36.00008058000003" class="text">New </text>
<text x="1415.9999985" y="1325.00006202" width="71.9999448000001" height="36.00008058000003" class="text">York</text>
<text x="1500.9999841200001" y="1325.00006202" width="10.000048979999974" height="36.00008058000003" class="text">,
</text>
<text x="955.9999780799999" y="1357.9999406999998" width="247.00005480000027" height="35.9999441399998" class="text">Pennsylvania
</text>
<text x="99.999999318" y="1515.0000160799998" width="38.00000505" height="29.999949659999857" class="text">11. </text>
<text x="150.999994206" y="1515.0000160799998" width="61.00000343400001" height="30.999963899999784" class="text">Types </text>
<text x="226.00000644" y="1514.00000184" width="21.99999876000004" height="29.999949660000084" class="text">of </text>
<text x="260.00000772" y="1514.00000184" width="106.99998438" height="32.000000880000016" class="text">recipients </text>
<text x="378.99999462" y="1512.9999876000002" width="9.000010680000003" height="29.99997240000016" class="text">(</text>
<text x="388.0000053" y="1512.9999876000002" width="51.99996990000005" height="29.99997240000016" class="text">Give </text>
<text x="449.00002104000004" y="1512.9999876000002" width="90.99996930000003" height="32.00000088000024" class="text">number </text>
<text x="549.99998658" y="1511.99995062" width="22.000033919999964" height="29.999949659999857" class="text">of </text>
<text x="583.0000198800001" y="1511.99995062" width="151.99996746" height="32.000000880000016" class="text">organizations
</text>
<text x="148.000000608" y="1542.99993726" width="16.999998882" height="29.999949659999857" class="text">in </text>
<text x="180.99998820000002" y="1544.9999884800002" width="49.00003079999996" height="29.999972400000388" class="text">each </text>
<text x="243.99999264" y="1549.0000681800002" width="62.99998686000001" height="32.00000088000024" class="text">group</text>
<text x="310.0000065" y="1549.0000681800002" width="8.99997552000002" height="28.000057620000234" class="text">)
</text>
<text x="930.99995232" y="1508.00000736" width="43.0000822799999" height="29.999949659999857" class="text">12. </text>
<text x="981.99995424" y="1508.00000736" width="44.000050260000194" height="29.999949659999857" class="text">List </text>
<text x="1042.00003716" y="1508.00000736" width="70.99997682000003" height="29.999949659999857" class="text">names </text>
<text x="1133.00000646" y="1508.00000736" width="39.00003456000013" height="29.999949659999857" class="text">and </text>
<text x="1192.9999839" y="1508.00000736" width="109.0000434000001" height="29.999949659999857" class="text">addresses </text>
<text x="1322.00001978" y="1508.00000736" width="22.00003391999985" height="29.999949659999857" class="text">of </text>
<text x="1359.99998088" y="1508.00000736" width="90.99998687999982" height="29.999949659999857" class="text">persons </text>
<text x="1469.00002428" y="1508.00000736" width="22.000016340000002" height="29.999949659999857" class="text">or </text>
<text x="1511.0000331" y="1508.00000736" width="152.99998817999995" height="29.999949659999857" class="text">organizations
</text>
<text x="980.99998626" y="1542.00005946" width="104.00002769999992" height="30.000108840000166" class="text">receiving </text>
<text x="1101.00004662" y="1542.00005946" width="29.999935980000146" height="30.000108840000166" class="text">100 </text>
<text x="1144.9999914" y="1542.00005946" width="73.00001825999993" height="30.000108840000166" class="text">copies </text>
<text x="1227.9999531600001" y="1542.00005946" width="28.000000020000016" height="30.000108840000166" class="text">or </text>
<text x="1268.999994" y="1542.00005946" width="53.99999376000005" height="30.000108840000166" class="text">more</text>
<text x="1325.9999796" y="1542.00005946" width="8.999993099999983" height="30.000108840000166" class="text">:
</text>
<text x="344.99999334" y="1671.99997776" width="31.000009439999985" height="27.99992118000023" class="text">13
</text>
<text x="96.999998688" y="1605.00004698" width="100.99999015200001" height="23.00010012000007" class="text">Libraries
</text>
<text x="98.000001828" y="1638.0000621" width="69.00000218400001" height="22.000063140000066" class="text">Public </text>
<text x="178.9999995" y="1638.0000621" width="91.00000446000001" height="23.000077379999993" class="text">officials
</text>
<text x="95.00000119799999" y="1676.99993526" width="135.000017802" height="28.99993541999993" class="text">Newspapers
</text>
<text x="98.000001828" y="1707.00002136" width="58.99999363800001" height="27.000020639999775" class="text">Press </text>
<text x="168.999996228" y="1707.00002136" width="91.99999705200003" height="28.00003487999993" class="text">services </text>
<text x="271.0000071" y="1706.00000712" width="24.99999059999999" height="27.000020640000002" class="text">of
</text>
<text x="120.99999318" y="1739.00002224" width="139.00001454" height="28.00003487999993" class="text">associations
</text>
<text x="98.000001828" y="1772.0000601" width="137.00001529200003" height="28.000057620000007" class="text">Educational
</text>
<text x="120.00000410400001" y="1806.99999" width="127.00001553600002" height="28.99993541999993" class="text">institutions
</text>
<text x="96.999998688" y="1836.99993966" width="59.000007702000005" height="22.999940940000215" class="text">Civic
</text>
<text x="192.99999072" y="1841.0000193600001" width="79.00000193999998" height="24.99996942000007" class="text">groups</text>
<text x="271.0000071" y="1838.99999088" width="6.999986820000004" height="21.999926699999833" class="text">.
</text>
<text x="95.00000119799999" y="1874.00005722" width="67.000004694" height="33.00003785999979" class="text">Other </text>
<text x="175.99999008" y="1874.00005722" width="9.999996240000002" height="31.000123079999867" class="text">(</text>
<text x="185.00000076" y="1876.99998624" width="75.00000695999998" height="34.00005209999995" class="text">specify</text>
<text x="262.99999956" y="1875.9999492600002" width="9.999996239999973" height="30.99996390000024" class="text">)
</text>
<text x="1345.0000216800001" y="1753.00006242" width="42.999976799999786" height="192.00000527999987" class="text">REGISTRATION </text>
<text x="1351.00000536" y="1828.0000161599999" width="39.000016980000055" height="61.99995053999987" class="text">UNIT
</text>
<text x="1376.99998152" y="1745.0000167199998" width="39.000016980000055" height="112.99994909999987" class="text">SECTION
</text>
<text x="1404.9999815400001" y="1685.9999952" width="39.99998495999989" height="136.99992701999986" class="text">INTERNAL </text>
<text x="1409.0000468399999" y="1830.99994518" width="39.99998496000012" height="132.99996102" class="text">SECURITY
</text>
<text x="1467.00000042" y="1574.99993814" width="42.00000881999972" height="39.99988740000026" class="text">93 </text>
<text x="1467.9999508199999" y="1633.9999824000001" width="44.00005026000008" height="59.000044260000095" class="text">MAY</text>
<text x="1469.99999226" y="1657.99993758" width="41.00004084000011" height="13.000003200000037" class="text">-</text>
<text x="1470.9999602399998" y="1683.00006618" width="41.00004084000011" height="13.00000319999981" class="text">7 </text>
<text x="1470.9999602399998" y="1742.9999882400002" width="43.000082280000015" height="37.999995360000185" class="text">PM </text>
<text x="1472.9999841000001" y="1835.00004762" width="44.00005025999985" height="72.00004746000013" class="text">3:34
</text>
<text x="1537.00002684" y="1689.00006066" width="43.99992720000023" height="146.0001233999999" class="text">CRIMINAL </text>
<text x="1539.0000507" y="1830.99994518" width="43.99994478000008" height="131.99994678000007" class="text">DIVISION
</text>
<text x="1571.00001054" y="1637.00004786" width="39.00003456000013" height="84.00003641999979" class="text">DEPT</text>
<text x="1574.0000023799998" y="1642.00000536" width="34.99996926000017" height="10.999951979999878" class="text">. </text>
<text x="1574.0000023799998" y="1683.00006618" width="36.99999312" height="33.00001512000017" class="text">OF </text>
<text x="1576.00004382" y="1823.9999364599998" width="39.99998496000012" height="124.99993805999998" class="text">JUSTICE
</text>
<text x="1607.00005326" y="1763.00000016" width="38.99991150000005" height="145.9999869599999" class="text">RECEIVED
</text>
<text x="1540.99996908" y="2045.0000136" width="42.99997680000001" height="16.000068660000125" class="text">FORM </text>
<text x="1596.0000363" y="2046.0000505799999" width="31.999959839999974" height="17.0001056399999" class="text">CRM</text>
<text x="1636.00002126" y="2046.0000505799999" width="3.999959819999958" height="16.000068659999897" class="text">-</text>
<text x="1642.9999729200001" y="2046.0000505799999" width="18.000056520000044" height="16.000068659999897" class="text">159
</text>
<text x="1607.00005326" y="2067.99997728" width="27.999894540000014" height="14.999917980000191" class="text">SEP</text>
<text x="1636.00002126" y="2067.99997728" width="3.999959819999958" height="14.999917980000191" class="text">. </text>
<text x="1645.99996476" y="2067.99997728" width="17.000000640000053" height="14.999917980000191" class="text">89
</text>
</g>
<g id="page-1" transform="translate(0, 2294)">
<rect width="1758" height="2274" fill="none" stroke="black" />
<text x="107.99999806800001" y="127.00000065" width="46.00000379999999" height="32.999996928" class="text">13. </text>
<text x="158.99999998799998" y="127.00000065" width="18.999996372" height="32.999996928" class="text">If </text>
<text x="189.99999888" y="127.00000065" width="31.999994999999984" height="32.999996928" class="text">the </text>
<text x="241.0000008" y="127.00000065" width="86.00000634000003" height="32.999996928" class="text">material </text>
<text x="337.99998894" y="127.00000065" width="125.00002332000003" height="32.999996928" class="text">transmitted </text>
<text x="472.00000536000005" y="127.00000065" width="46.99998935999997" height="32.999996928" class="text">was </text>
<text x="528.99999096" y="127.00000065" width="9.000028260000022" height="32.999996928" class="text">a </text>
<text x="552.00002802" y="127.00000065" width="43.99997994000012" height="32.999996928" class="text">film </text>
<text x="610.9999847400001" y="127.00000065" width="24.00000504000002" height="32.999996928" class="text">or </text>
<text x="644.00001804" y="127.00000065" width="53.99999376000005" height="32.999996928" class="text">radio </text>
<text x="716.00001558" y="127.00000065" width="24.99997301999997" height="32.999996928" class="text">or </text>
<text x="750.00001686" y="127.00000065" width="105.99999882000009" height="32.999996928" class="text">television </text>
<text x="867.99998304" y="127.00000065" width="67.00003458000003" height="32.999996928" class="text">script</text>
<text x="935.00001762" y="127.00000065" width="8.99997552000002" height="32.999996928" class="text">, </text>
<text x="955.0000100999999" y="127.00000065" width="79.00000194000006" height="32.999996928" class="text">furnish </text>
<text x="1046.9999473799999" y="127.00000065" width="34.000001280000106" height="32.999996928" class="text">the </text>
<text x="1093.0000215" y="127.00000065" width="102.99995423999985" height="32.999996928" class="text">following </text>
<text x="1209.00003414" y="127.00000065" width="131.99992224000016" height="32.999996928" class="text">information</text>
<text x="1347.00004554" y="127.00000065" width="8.999975520000135" height="32.999996928" class="text">:
</text>
<text x="296.99998326" y="152.00000645400002" width="11.000016959999982" height="31.000004832000016" class="text">n</text>
<text x="322.00000902" y="152.999993406" width="10.9999818" height="30.999998009999985" class="text">/</text>
<text x="341.00001594" y="153.99999855000002" width="10.999981799999944" height="30.999998010000013" class="text">a
</text>
<text x="941.0000013" y="187.0000023" width="50.00003393999998" height="24.000000660000012" class="text">Date </text>
<text x="1005.0000440399999" y="187.0000023" width="26.999944140000025" height="24.000000660000012" class="text">or </text>
<text x="1040.9999637" y="187.0000023" width="56.999985599999945" height="25.000003530000015" class="text">dates </text>
<text x="1111.9999581" y="185.99999943" width="111.00006726000015" height="24.000000660000012" class="text">broadcast </text>
<text x="1232.99996886" y="185.99999943" width="70.00002641999981" height="24.000000660000012" class="text">shown
</text>
<text x="107.00000196" y="192.999994506" width="68.99998812" height="32.000000880000016" class="text">Name </text>
<text x="186.99998946000002" y="192.999994506" width="23.000001899999972" height="32.000000880000016" class="text">of </text>
<text x="219.00000204" y="192.999994506" width="75.99999252" height="32.000000880000016" class="text">station</text>
<text x="295.9999977" y="192.999994506" width="9.000010680000003" height="32.000000880000016" class="text">, </text>
<text x="317.99999646" y="192.999994506" width="135.99998754" height="32.000000880000016" class="text">organization</text>
<text x="460.00002041999994" y="192.999994506" width="8.999993100000097" height="32.000000880000016" class="text">, </text>
<text x="477.99998903999995" y="192.999994506" width="24.00000504000002" height="32.000000880000016" class="text">or </text>
<text x="511.00002234" y="192.999994506" width="78.99994920000006" height="32.000000880000016" class="text">theater </text>
<text x="597.9999966600001" y="192.999994506" width="60.00003017999995" height="32.000000880000016" class="text">using
</text>
<text x="110.99999693999999" y="226.00000053" width="8.000005782000002" height="29.000005914000013" class="text">(</text>
<text x="119.00000272199999" y="226.00000053" width="105.99998299800002" height="30.99999573599999" class="text">including </text>
<text x="236.99998824000002" y="224.999995386" width="37.00001069999999" height="28.999987721999986" class="text">city </text>
<text x="288.99999329999997" y="223.999992516" width="38.000013840000065" height="28.999987721999986" class="text">and </text>
<text x="342.99998705999997" y="223.999992516" width="47.00000694000005" height="29.999992865999985" class="text">state</text>
<text x="394.99999212" y="223.000005564" width="8.000007540000013" height="29.000005913999985" class="text">)
</text>
<text x="1404.00003114" y="183.00000219" width="111.99992975999999" height="22.999995516000013" class="text">Estimated </text>
<text x="1528.00003374" y="184.000007334" width="119.9999548799999" height="24.000000660000012" class="text">attendance
</text>
<text x="1455.00001548" y="219.999992406" width="8.000025119999918" height="26.999997899999983" class="text">(</text>
<text x="1466.00003244" y="219.999992406" width="29.99993597999992" height="26.999997899999983" class="text">for </text>
<text x="1509.0000092399998" y="220.999995276" width="42.000008820000176" height="28.000000769999986" class="text">film</text>
<text x="1557.0000193199999" y="220.999995276" width="8.00000754000007" height="26.999995625999986" class="text">(</text>
<text x="1565.99999484" y="220.999995276" width="8.000007539999842" height="26.999995625999986" class="text">s</text>
<text x="1576.00004382" y="220.999995276" width="7.999902060000068" height="26.999995625999986" class="text">)</text>
<text x="1586.9999553" y="220.999995276" width="8.00000754000007" height="26.999995625999986" class="text">)
</text>
<text x="108.99999945" y="455.9999898" width="48.99999739799999" height="32.00000087999996" class="text">14. </text>
<text x="157.999996848" y="455.9999898" width="58.999998911999995" height="32.00000087999996" class="text">Have </text>
<text x="224.99998572" y="455.9999898" width="45.00001824" height="32.00000087999996" class="text">two </text>
<text x="278.99999706" y="455.9999898" width="72.00001512" height="32.00000087999996" class="text">copies </text>
<text x="361.99999398" y="455.9999898" width="23.000001899999972" height="32.00000087999996" class="text">of </text>
<text x="394.99999212" y="455.9999898" width="41.000005680000015" height="32.00000087999996" class="text">this </text>
<text x="455.00000472" y="455.9999898" width="87.99997746000008" height="32.00000087999996" class="text">material </text>
<text x="549.99998658" y="455.9999898" width="53.99999375999994" height="32.00000087999996" class="text">been </text>
<text x="616.00000044" y="455.9999898" width="49.00003079999999" height="32.00000087999996" class="text">filed </text>
<text x="675.99997788" y="455.9999898" width="48.00001008000004" height="32.00000087999996" class="text">with </text>
<text x="740.9999885999999" y="455.9999898" width="32.00001258000009" height="32.00000087999996" class="text">the </text>
<text x="784.99996854" y="455.9999898" width="139.0000321199999" height="32.00000087999996" class="text">Department </text>
<text x="932.0000257800001" y="455.9999898" width="23.99995229999979" height="32.00000087999996" class="text">of </text>
<text x="963.99998562" y="455.9999898" width="76.99997808000012" height="32.00000087999996" class="text">Justice</text>
<text x="1042.00003716" y="455.9999898" width="8.999975519999907" height="32.00000087999996" class="text">?
</text>
<text x="1093.0000215" y="449.00000382" width="32.99994539999989" height="26.000006400000018" class="text">Yes </text>
<text x="1145.99995938" y="449.00000382" width="7.000039559999777" height="26.000006400000018" class="text">
</text>
<text x="1197.0000492000001" y="446.99999808" width="36.99999312" height="24.000000660000012" class="text">No </text>
<text x="1248.00005112" y="446.00000658" width="6.9999516599998515" height="22.00001765999997" class="text">
</text>
<text x="110.99999693999999" y="519.99999156" width="43.00000492800001" height="29.99999514000001" class="text">15. </text>
<text x="169.99999761" y="519.99999156" width="46.99999814999998" height="29.99999514000001" class="text">Has </text>
<text x="223.00001460000001" y="519.99999156" width="41.999991240000014" height="29.99999514000001" class="text">this </text>
<text x="281.9999889" y="519.99999156" width="89.00001576" height="29.99999514000001" class="text">material </text>
<text x="382.00000404" y="519.99999156" width="48.99999563999995" height="29.99999514000001" class="text">been </text>
<text x="446.00002920000003" y="519.99999156" width="77.99998121999994" height="29.99999514000001" class="text">labeled </text>
<text x="538.00001922" y="519.99999156" width="21.9999636" height="29.99999514000001" class="text">as </text>
<text x="570.99999978" y="519.99999156" width="94.00003145999995" height="29.99999514000001" class="text">required </text>
<text x="678.99996972" y="519.99999156" width="22.000033920000078" height="29.99999514000001" class="text">by </text>
<text x="716.00001558" y="519.99999156" width="34.99996926000006" height="29.99999514000001" class="text">the </text>
<text x="763.0000049399999" y="519.99999156" width="34.00000127999999" height="29.99999514000001" class="text">act</text>
<text x="797.0000062199999" y="519.99999156" width="8.999975520000135" height="29.99999514000001" class="text">?
</text>
<text x="847.99999056" y="516.99999432" width="34.00000127999988" height="29.000003640000045" class="text">Yes </text>
<text x="896.99996862" y="516.0000028200001" width="8.000007539999956" height="26.99999790000004" class="text">
</text>
<text x="952.00001826" y="513.9999970800001" width="36.00002513999982" height="24.00000066000007" class="text">No
</text>
<text x="107.99999806800001" y="586.0000218" width="52.000003301999996" height="30.000017879999973" class="text">Date </text>
<text x="175.99999008" y="586.99999056" width="20.000010059999994" height="27.999989400000004" class="text">of </text>
<text x="209.0000058" y="589.00001904" width="66.99999942" height="29.00002638000001" class="text">report
</text>
<text x="1045.99999698" y="583.99999332" width="107.00000195999974" height="29.000003640000045" class="text">Signature
</text>
<text x="202.0000014" y="663.99999552" width="149.99999633999997" height="71.9999792399999" class="text">5/3/93
</text>
<text x="395.99999526" y="580.9999960800001" width="70.00002641999998" height="24.00000066000007" class="text">Name </text>
<text x="477.99998903999995" y="580.9999960800001" width="37.9999962600001" height="24.00000066000007" class="text">and </text>
<text x="529.9999941000001" y="580.9999960800001" width="36.999993119999885" height="24.00000066000007" class="text">title
</text>
<text x="438.99998963999997" y="620.0000056800001" width="75.99999251999998" height="30.000017880000087" class="text">Mark </text>
<text x="541.0000110599999" y="620.0000056800001" width="121.99997874000007" height="30.000017880000087" class="text">Helmke
</text>
<text x="438.99998963999997" y="650.9999923199999" width="181.00002336" height="26.99997515999985" class="text">President
</text>
<text x="1046.9999473799999" y="678.99998172" width="92.00006034000012" height="122.99997780000001" class="text">Il </text>
<text x="1192.0000335" y="678.0000129599999" width="152.99998818000017" height="124.0000147799999" class="text">C.H.
</text>
<text x="1398.9999978600001" y="2086.99995222" width="5.999983680000014" height="20.99988971999983" class="text">*</text>
<text x="1409.0000468399999" y="2086.99995222" width="23.999952300000132" height="20.99988971999983" class="text">U.S</text>
<text x="1435.0000229999998" y="2086.99995222" width="6.000001260000317" height="20.99988971999983" class="text">. </text>
<text x="1446.0000399599999" y="2087.9999892" width="32.99992782000004" height="21.00004889999991" class="text">GPO</text>
<text x="1481.00000922" y="2087.9999892" width="5.999983680000014" height="21.00004889999991" class="text">: </text>
<text x="1494.00005004" y="2089.00000344" width="105.9999460800002" height="22.00006313999984" class="text">1992-312-332</text>
<text x="1600.99994652" y="2089.00000344" width="6.000106739999865" height="21.000026159999834" class="text">/</text>
<text x="1608.00000366" y="2089.00000344" width="48.00001008000004" height="21.000026159999834" class="text">61637
</text>
</g>
</svg>
