<svg xmlns="http://www.w3.org/2000/svg">
<style>.text { font-size: 14px; font-family: Arial, sans-serif; }</style>
<g id="page-0" transform="translate(0, 0)">
<rect width="1757" height="2276" fill="none" stroke="black" />
<text x="877.00001396" y="142.999996624" width="162.9999998899999" height="34.999993427999996" class="text">Dissemination </text>
<text x="1050.9999407599998" y="145.000002036" width="81.00005438000017" height="34.00000096400001" class="text">Report
</text>
<text x="93.999998988" y="142.00000416" width="49.00000665" height="32.000004656" class="text">U.S. </text>
<text x="151.999999186" y="142.00000416" width="149.000016564" height="32.000004656" class="text">Department </text>
<text x="311.99999536999997" y="142.00000416" width="22.999990930000024" height="32.000004656" class="text">of </text>
<text x="346.99999761000004" y="142.00000416" width="76.00000134999999" height="32.000004656" class="text">Justice
</text>
<text x="93.000002438" y="185.999998044" width="127.99999062200001" height="35.00000253199997" class="text">Washington</text>
<text x="226.99998993" y="183.999994908" width="9.000004090000033" height="31.999995551999973" class="text">, </text>
<text x="246.99999121000002" y="183.999994908" width="35.00000223999996" height="31.999995551999973" class="text">DC </text>
<text x="295.99999786" y="183.999994908" width="69.00000793000004" height="34.00000096400001" class="text">20530
</text>
<text x="1513.99997742" y="125.99999727999999" width="42.00001322999992" height="17.99999408399998" class="text">OMB </text>
<text x="1559.99997685" y="125.99999727999999" width="29.000022940000235" height="17.99999408399998" class="text">No. </text>
<text x="1596.00004592" y="125.99999727999999" width="66.99994455000001" height="17.99999408399998" class="text">1105-0006
</text>
<text x="1432.00003191" y="151.99999935600002" width="64.99998658999993" height="21.00000106400003" class="text">Approval </text>
<text x="1502.00003639" y="150.99999551200003" width="52.000013869999975" height="18.999995652000024" class="text">Expires </text>
<text x="1563.00003678" y="150.99999551200003" width="35.99998122000011" height="18.999995652000024" class="text">Nov. </text>
<text x="1605.00003244" y="149.99999394399998" width="14.999930680000034" height="18.999995651999996" class="text">30</text>
<text x="1622.00000893" y="149.99999394399998" width="5.0000003200000265" height="18.999995651999996" class="text">, </text>
<text x="1633.99996753" y="149.99999394399998" width="32.000082869999915" height="18.999995651999996" class="text">1993
</text>
<text x="90.000000489" y="287.00000392" width="163.000005161" height="28.99999539999999" class="text">INSTRUCTIONS</text>
<text x="254.99999875" y="287.00000392" width="7.99998997000003" height="28.99999539999999" class="text">: </text>
<text x="267.00001005999997" y="287.00000392" width="65.99998314000004" height="28.99999539999999" class="text">Report </text>
<text x="344.00000796" y="287.00000392" width="40.999999109999976" height="28.99999539999999" class="text">must </text>
<text x="387.00000017" y="287.00000392" width="21.999994379999976" height="28.99999539999999" class="text">be </text>
<text x="417.00000209" y="287.00000392" width="87.00001610999999" height="28.99999539999999" class="text">submitted </text>
<text x="513.00000472" y="287.00000392" width="17.000011630000017" height="28.99999539999999" class="text">in </text>
<text x="537.9999887499999" y="287.00000392" width="80.99998410000012" height="28.99999539999999" class="text">duplicate </text>
<text x="630.9999841599999" y="287.00000392" width="10.999997190000045" height="28.99999539999999" class="text">to </text>
<text x="651.99998199" y="287.00000392" width="30.00000191999993" height="28.99999539999999" class="text">the </text>
<text x="688.99997733" y="287.00000392" width="109.00004563000005" height="28.99999539999999" class="text">Registration </text>
<text x="807.00000948" y="287.00000392" width="40.99998154000002" height="28.99999539999999" class="text">Unit</text>
<text x="847.00002961" y="287.00000392" width="7.999972400000047" height="28.99999539999999" class="text">, </text>
<text x="861.00003402" y="287.00000392" width="71.99998000999994" height="28.99999539999999" class="text">Internal </text>
<text x="942.00001812" y="287.00000392" width="71.99994486999992" height="28.99999539999999" class="text">Security </text>
<text x="1022.99994951" y="287.00000392" width="66.00001828000006" height="28.99999539999999" class="text">Section</text>
<text x="1092.99995399" y="287.00000392" width="8.000077819999888" height="28.99999539999999" class="text">, </text>
<text x="1106.00003213" y="287.00000392" width="81.99996308000004" height="28.99999539999999" class="text">Criminal </text>
<text x="1195.00004134" y="287.00000392" width="77.99997687999985" height="28.99999539999999" class="text">Division</text>
<text x="1273.00001822" y="287.00000392" width="7.999972400000161" height="28.99999539999999" class="text">, </text>
<text x="1288.00003675" y="287.00000392" width="112.99992640999994" height="28.99999539999999" class="text">Department </text>
<text x="1401.99997728" y="287.00000392" width="21.999976810000135" height="28.99999539999999" class="text">of </text>
<text x="1428.9999544099999" y="287.00000392" width="62.00003208000021" height="28.99999539999999" class="text">Justice</text>
<text x="1489.99997237" y="287.00000392" width="8.000077819999888" height="28.99999539999999" class="text">, </text>
<text x="1506.00002259" y="287.00000392" width="104.00002773999995" height="28.99999539999999" class="text">Washington</text>
<text x="1611.99999072" y="287.00000392" width="7.999972400000161" height="28.99999539999999" class="text">, </text>
<text x="1624.9999634399999" y="287.00000392" width="43.00002735000021" height="28.99999539999999" class="text">D.C.
</text>
<text x="93.000002438" y="315.99997656" width="61.000002147000004" height="27.999989280000023" class="text">20530. </text>
<text x="162.99999813300002" y="315.99997656" width="31.000000226999987" height="27.999989280000023" class="text">The </text>
<text x="200.99999178" y="315.99997656" width="74.00000824999998" height="27.999989280000023" class="text">original </text>
<text x="284.9999831" y="315.99997656" width="43.00000977999997" height="27.999989280000023" class="text">must </text>
<text x="333.99998975" y="315.99997656" width="20.000001279999992" height="27.999989280000023" class="text">be </text>
<text x="362.99999512" y="315.99997656" width="55.00000352000001" height="27.999989280000023" class="text">signed </text>
<text x="424.99999206" y="315.99997656" width="21.000032970000007" height="27.999989280000023" class="text">by </text>
<text x="457.00000465" y="315.99997656" width="19.99998370999998" height="27.999989280000023" class="text">or </text>
<text x="481.00002727000003" y="315.99997656" width="20.999997829999927" height="27.999989280000023" class="text">on </text>
<text x="513.00000472" y="315.99997656" width="57.99999317000004" height="27.999989280000023" class="text">behalf </text>
<text x="578.00000888" y="315.99997656" width="15.999979940000003" height="27.999989280000023" class="text">of </text>
<text x="600.9999998100001" y="315.99997656" width="26.999977129999934" height="27.999989280000023" class="text">the </text>
<text x="636.00000205" y="315.99997656" width="87.00001610999993" height="27.999989280000023" class="text">registrant</text>
<text x="723.00001816" y="315.99997656" width="7.999972400000047" height="27.999989280000023" class="text">. </text>
<text x="739.99997708" y="315.99997656" width="26.000015719999965" height="27.999989280000023" class="text">All </text>
<text x="775.99999344" y="315.99997656" width="45.99999943" height="27.999989280000023" class="text">items </text>
<text x="830.00001798" y="315.99997656" width="15.999979940000003" height="27.999989280000023" class="text">in </text>
<text x="856.99999511" y="315.99997656" width="30.999963330000014" height="27.999989280000023" class="text">this </text>
<text x="895.00000457" y="315.99997656" width="43.000027350000096" height="27.999989280000023" class="text">form </text>
<text x="948.0000501300001" y="315.99997656" width="42.999904359999846" height="27.999989280000023" class="text">must </text>
<text x="996.9999865" y="315.99997656" width="21.00005053999996" height="27.999989280000023" class="text">be </text>
<text x="1024.9999953200002" y="315.99997656" width="81.00003680999976" height="27.999989280000023" class="text">answered</text>
<text x="1111.99995872" y="315.99997656" width="8.000077819999888" height="27.999989280000023" class="text">, </text>
<text x="1125.00003686" y="315.99997656" width="56.99992634000023" height="27.999989280000023" class="text">unless </text>
<text x="1189.00000933" y="315.99997656" width="26.999977129999934" height="27.999989280000023" class="text">the </text>
<text x="1223.00005016" y="315.99997656" width="65.99991286" height="27.999989280000023" class="text">answer </text>
<text x="1293.99996334" y="315.99997656" width="17.00006433999988" height="27.999989280000023" class="text">is </text>
<text x="1316.99995427" y="315.99997656" width="8.000077820000115" height="27.999989280000023" class="text">"</text>
<text x="1330.99995868" y="315.99997656" width="41.99999565999997" height="27.999989280000023" class="text">none</text>
<text x="1372.99995434" y="315.99997656" width="8.000077819999888" height="27.999989280000023" class="text">" </text>
<text x="1391.0000503699998" y="315.99997656" width="20.99994512000012" height="27.999989280000023" class="text">or </text>
<text x="1419.9999678899999" y="315.99997656" width="8.000077820000115" height="27.999989280000023" class="text">"</text>
<text x="1429.9999861" y="315.99997656" width="31.999977450000188" height="27.999989280000023" class="text">not </text>
<text x="1467.99999556" y="315.99997656" width="91.99998129000005" height="27.999989280000023" class="text">applicable</text>
<text x="1562.00002266" y="315.99997656" width="7.999972399999933" height="27.999989280000023" class="text">,</text>
<text x="1566.00000886" y="315.99997656" width="7.999954829999979" height="27.999989280000023" class="text">” </text>
<text x="1587.9999681000002" y="315.99997656" width="10.000018210000007" height="27.999989280000023" class="text">in </text>
<text x="1608.0000045200002" y="315.99997656" width="53.00004555999976" height="27.999989280000023" class="text">which
</text>
<text x="91.00000231" y="342.99998247999997" width="35.999997032999985" height="25.999977039999976" class="text">case </text>
<text x="137.99999829" y="342.99998247999997" width="39.00000600999999" height="25.999977039999976" class="text">such </text>
<text x="189.99999459" y="342.99998247999997" width="19.00000473" height="25.999977039999976" class="text">an </text>
<text x="218.00000341" y="342.99998247999997" width="48.00001009999997" height="25.999977039999976" class="text">entry </text>
<text x="275.99999658" y="342.99998247999997" width="42.99999220999996" height="25.999977039999976" class="text">shall </text>
<text x="326.99999633" y="342.99998247999997" width="19.00000473" height="25.999977039999976" class="text">be </text>
<text x="360.00000547" y="342.99998247999997" width="43.99998875999995" height="25.999977039999976" class="text">made </text>
<text x="414.00001244" y="342.99998247999997" width="15.000000960000023" height="25.999977039999976" class="text">in </text>
<text x="439.99999302" y="342.99998247999997" width="25.99999815000001" height="25.999977039999976" class="text">the </text>
<text x="474.00001628" y="342.99998247999997" width="105.00000672000004" height="25.999977039999976" class="text">appropriate </text>
<text x="590.9999816000001" y="342.99998247999997" width="49.00000664999993" height="25.999977039999976" class="text">space</text>
<text x="639.99998825" y="342.99998247999997" width="6.99999342000001" height="25.999977039999976" class="text">. </text>
<text x="655.99996819" y="342.99998247999997" width="14.000004409999974" height="25.999977039999976" class="text">If </text>
<text x="677.99999771" y="342.99998247999997" width="94.99998850999998" height="25.999977039999976" class="text">additional </text>
<text x="779.99997964" y="342.99998247999997" width="50.00003834000006" height="25.999977039999976" class="text">space </text>
<text x="837.99997281" y="342.99998247999997" width="14.000004409999974" height="25.999977039999976" class="text">is </text>
<text x="863.00000955" y="342.99998247999997" width="61.00001796000004" height="25.999977039999976" class="text">needed </text>
<text x="935.9999861099999" y="342.99998247999997" width="26.999977130000048" height="25.999977039999976" class="text">for </text>
<text x="967.9999635600001" y="342.99998247999997" width="34.000040829999875" height="25.999977039999976" class="text">any </text>
<text x="1013.0000367199999" y="342.99998247999997" width="36.999995340000055" height="25.999977039999976" class="text">item</text>
<text x="1052.9999865700001" y="342.99998247999997" width="7.000063699999828" height="25.999977039999976" class="text">, </text>
<text x="1065.99997686" y="342.99998247999997" width="53.00002798999981" height="25.999977039999976" class="text">attach </text>
<text x="1128.00000894" y="342.99998247999997" width="126.00000454999986" height="25.999977039999976" class="text">supplemental </text>
<text x="1257.9999996899999" y="342.99998247999997" width="49.99996806000013" height="25.999977039999976" class="text">sheet </text>
<text x="1312.99996807" y="342.99998247999997" width="99.00002741999992" height="25.999977039999976" class="text">identifying </text>
<text x="1422.0000137" y="342.99998247999997" width="39.99994985000012" height="25.999977039999976" class="text">each </text>
<text x="1471.99998176" y="342.99998247999997" width="38.000027029999956" height="25.999977039999976" class="text">item</text>
<text x="1513.99997742" y="342.99998247999997" width="7.000063700000055" height="25.999977039999976" class="text">.
</text>
<text x="88.999996911" y="401.9999794" width="70.00000272300001" height="27.999989279999966" class="text">Privacy </text>
<text x="165.000003532" y="401.9999794" width="32.00000204800003" height="27.999989279999966" class="text">Act </text>
<text x="201.99998833" y="401.9999794" width="93.00001298000001" height="27.999989279999966" class="text">Statement</text>
<text x="293.00000821" y="401.9999794" width="8.000007540000013" height="27.999989279999966" class="text">. </text>
<text x="305.00000195" y="401.9999794" width="56.00000007" height="27.999989279999966" class="text">Every </text>
<text x="368.99999199" y="401.9999794" width="100.99998538" height="27.999989279999966" class="text">registration </text>
<text x="478.99998145999996" y="401.9999794" width="85.00002301000006" height="27.999989279999966" class="text">statement</text>
<text x="565.00001859" y="401.9999794" width="7.999972400000047" height="27.999989279999966" class="text">, </text>
<text x="579.000023" y="401.9999794" width="46.99996083999997" height="27.999989279999966" class="text">short </text>
<text x="630.0000227500001" y="401.9999794" width="42.99997463999989" height="27.999989279999966" class="text">form </text>
<text x="683.9999770100001" y="401.9999794" width="99.00002741999992" height="27.999989279999966" class="text">registration </text>
<text x="791.00002954" y="401.9999794" width="86.99996340000007" height="27.999989279999966" class="text">statement</text>
<text x="877.9999929400001" y="401.9999794" width="8.00002510999991" height="27.999989279999966" class="text">, </text>
<text x="892.00005006" y="401.9999794" width="123.9999587399999" height="27.999989279999966" class="text">supplemental </text>
<text x="1018.0000370399999" y="401.9999794" width="89.99993548000009" height="27.999989279999966" class="text">statement</text>
<text x="1105.00001801" y="401.9999794" width="7.999954829999979" height="27.999989279999966" class="text">, </text>
<text x="1119.0000048499999" y="401.9999794" width="63.9999724700001" height="27.999989279999966" class="text">exhibit</text>
<text x="1181.00003693" y="401.9999794" width="7.999972399999933" height="27.999989279999966" class="text">, </text>
<text x="1191.9999814100001" y="401.9999794" width="112.00000013999988" height="27.999989279999966" class="text">amendment</text>
<text x="1301.00000947" y="401.9999794" width="7.999972400000161" height="27.999989279999966" class="text">, </text>
<text x="1315.00001388" y="401.9999794" width="123.99995873999978" height="27.999989279999966" class="text">dissemination </text>
<text x="1447.00005044" y="401.9999794" width="57.99994046000006" height="27.999989279999966" class="text">report</text>
<text x="1503.00005051" y="401.9999794" width="7.999972400000161" height="27.999989279999966" class="text">, </text>
<text x="1516.00002323" y="401.9999794" width="42.999921930000255" height="27.999989279999966" class="text">copy </text>
<text x="1567.00002298" y="401.9999794" width="19.999930999999833" height="27.999989279999966" class="text">of </text>
<text x="1591.9999543" y="401.9999794" width="76.00003649000018" height="27.999989279999966" class="text">political
</text>
<text x="88.999996911" y="430.99999756" width="108.00000866900002" height="27.999989279999966" class="text">propaganda </text>
<text x="204.99999555000002" y="430.99999756" width="20.000001279999964" height="27.999989279999966" class="text">or </text>
<text x="228.99998303" y="430.99999756" width="48.0000101" height="27.999989279999966" class="text">other </text>
<text x="284.9999831" y="430.99999756" width="91.00000231000001" height="27.999989279999966" class="text">document </text>
<text x="381.0000033" y="430.99999756" width="20.99999783000004" height="27.999989279999966" class="text">or </text>
<text x="407.999998" y="430.99999756" width="105.99998569999991" height="27.999989279999966" class="text">information </text>
<text x="522.0000088099999" y="430.99999756" width="41.99999566000008" height="27.999989279999966" class="text">filed </text>
<text x="569.00000479" y="430.99999756" width="42.000013230000036" height="27.999989279999966" class="text">with </text>
<text x="621.99999764" y="430.99999756" width="22.99999093000008" height="27.999989279999966" class="text">the </text>
<text x="655.99996819" y="430.99999756" width="75.00002237000001" height="27.999989279999966" class="text">Attorney </text>
<text x="740.9999912" y="430.99999756" width="75.00002237000001" height="27.999989279999966" class="text">General </text>
<text x="821.00001389" y="430.99999756" width="54.00000697000007" height="27.999989279999966" class="text">under </text>
<text x="882.00003185" y="430.99999756" width="30.999963330000014" height="27.999989279999966" class="text">this </text>
<text x="919.0000271900001" y="430.99999756" width="27.999991249999994" height="27.999989279999966" class="text">act </text>
<text x="953.99997672" y="430.99999756" width="15.000018530000148" height="27.999989279999966" class="text">is </text>
<text x="975.0000272599999" y="430.99999756" width="7.999972400000047" height="27.999989279999966" class="text">a </text>
<text x="991.99998618" y="430.99999756" width="54.00005968000005" height="27.999989279999966" class="text">public </text>
<text x="1055.99995865" y="430.99999756" width="56.00000006999994" height="27.999989279999966" class="text">record </text>
<text x="1122.99999105" y="430.99999756" width="39.000041150000015" height="27.999989279999966" class="text">open </text>
<text x="1171.00001872" y="430.99999756" width="15.999944799999867" height="27.999989279999966" class="text">to </text>
<text x="1195.00004134" y="430.99999756" width="56.00000006999994" height="27.999989279999966" class="text">public </text>
<text x="1260.9999542" y="430.99999756" width="109.00004562999993" height="27.999989279999966" class="text">examination</text>
<text x="1372.99995434" y="430.99999756" width="8.000077819999888" height="27.999989279999966" class="text">, </text>
<text x="1389.00000456" y="430.99999756" width="90.99994960000004" height="27.999989279999966" class="text">inspection </text>
<text x="1487.00000029" y="430.99999756" width="31.999995020000142" height="27.999989279999966" class="text">and </text>
<text x="1526.99996771" y="430.99999756" width="70.00000447999992" height="27.999989279999966" class="text">copying </text>
<text x="1608.0000045200002" y="430.99999756" width="56.000000069999714" height="27.999989279999966" class="text">during
</text>
<text x="90.000000489" y="459.99999296" width="29.00000361299999" height="27.999989279999966" class="text">the </text>
<text x="126.99999934299998" y="459.99999296" width="56.000001827000006" height="27.999989279999966" class="text">posted </text>
<text x="193.99999836" y="459.99999296" width="75.0000048" height="27.999989279999966" class="text">business </text>
<text x="277.99998968" y="459.99999296" width="50.00000319999998" height="27.999989279999966" class="text">hours </text>
<text x="337.00001454" y="459.99999296" width="20.000001279999992" height="27.999989279999966" class="text">of </text>
<text x="362.99999512" y="459.99999296" width="26.999994700000002" height="27.999989279999966" class="text">the </text>
<text x="401.00000458" y="459.99999296" width="106.99999981999997" height="27.999989279999966" class="text">Registration </text>
<text x="516.9999909200001" y="459.99999296" width="43.00002734999987" height="27.999989279999966" class="text">Unit </text>
<text x="567.99999067" y="459.99999296" width="11.000032330000067" height="27.999989279999966" class="text">in </text>
<text x="590.9999816000001" y="459.99999296" width="105.00000671999987" height="27.999989279999966" class="text">Washington</text>
<text x="697.9999814199999" y="459.99999296" width="8.000025110000024" height="27.999989279999966" class="text">, </text>
<text x="714.99999305" y="459.99999296" width="38.99998844000004" height="27.999989279999966" class="text">D.C. </text>
<text x="758.99998181" y="459.99999296" width="40.00002012999994" height="27.999989279999966" class="text">One </text>
<text x="807.00000948" y="459.99999296" width="42.999974640000005" height="27.999989279999966" class="text">copy </text>
<text x="860.00000233" y="459.99999296" width="17.000011630000017" height="27.999989279999966" class="text">of </text>
<text x="886.00001805" y="459.99999296" width="48.00002767000001" height="27.999989279999966" class="text">every </text>
<text x="942.00001812" y="459.99999296" width="38.00000945999989" height="27.999989279999966" class="text">such </text>
<text x="991.99998618" y="459.99999296" width="92.99999541000011" height="27.999989279999966" class="text">document </text>
<text x="1092.0000277200002" y="459.99999296" width="10.000018210000007" height="27.999989279999966" class="text">is </text>
<text x="1111.00003245" y="459.99999296" width="119.99999011000023" height="27.999989279999966" class="text">automatically </text>
<text x="1243.99999528" y="459.99999296" width="78.99999100000014" height="27.999989279999966" class="text">provided </text>
<text x="1331.9999728" y="459.99999296" width="15.000036099999988" height="27.999989279999966" class="text">to </text>
<text x="1357.00000954" y="459.99999296" width="26.99999469999989" height="27.999989279999966" class="text">the </text>
<text x="1391.0000503699998" y="459.99999296" width="84.99991759000022" height="27.999989279999966" class="text">Secretary </text>
<text x="1488.00003198" y="459.99999296" width="15.999944800000094" height="27.999989279999966" class="text">of </text>
<text x="1512.9999633" y="459.99999296" width="41.00008696000009" height="27.999989279999966" class="text">State </text>
<text x="1563.00003678" y="459.99999296" width="81.99996307999982" height="27.999989279999966" class="text">pursuant </text>
<text x="1651.00003187" y="459.99999296" width="15.000018530000034" height="27.999989279999966" class="text">to
</text>
<text x="91.99999886" y="487.99998224" width="63.000002275000014" height="28.99999539999999" class="text">Section </text>
<text x="163.999992926" y="487.99998224" width="8.000011053999998" height="28.99999539999999" class="text">6</text>
<text x="176.00000775" y="487.99998224" width="7.9999899700000014" height="28.99999539999999" class="text">(</text>
<text x="183.99999772" y="487.99998224" width="7.9999899700000014" height="28.99999539999999" class="text">b</text>
<text x="196.00000903" y="487.99998224" width="7.9999899700000014" height="28.99999539999999" class="text">) </text>
<text x="208.00000277" y="487.99998224" width="19.99998370999998" height="28.99999539999999" class="text">of </text>
<text x="232.00000781999998" y="487.99998224" width="27.999991250000022" height="28.99999539999999" class="text">the </text>
<text x="266.00001351" y="487.99998224" width="34.00000569000002" height="28.99999539999999" class="text">Act</text>
<text x="296.99999441" y="487.99998224" width="8.000007540000013" height="28.99999539999999" class="text">, </text>
<text x="311.99999536999997" y="487.99998224" width="28.999987800000042" height="28.99999539999999" class="text">and </text>
<text x="350.00000483" y="487.99998224" width="56.99999661999999" height="28.99999539999999" class="text">copies </text>
<text x="413.00001589" y="487.99998224" width="20.99999783000004" height="28.99999539999999" class="text">of </text>
<text x="441.00000714" y="487.99998224" width="35.999981219999995" height="28.99999539999999" class="text">such </text>
<text x="485.00001347000006" y="487.99998224" width="97.99999572999997" height="28.99999539999999" class="text">documents </text>
<text x="590.00000262" y="487.99998224" width="25.000001599999905" height="28.99999539999999" class="text">are </text>
<text x="625.00000486" y="487.99998224" width="81.00000166999996" height="28.99999539999999" class="text">routinely </text>
<text x="716.00000717" y="487.99998224" width="45.99999943" height="28.99999539999999" class="text">made </text>
<text x="765.9999928" y="487.99998224" width="81.99999822000007" height="28.99999539999999" class="text">available </text>
<text x="856.0000161300001" y="487.99998224" width="10.999979619999976" height="28.99999539999999" class="text">to </text>
<text x="877.00001396" y="487.99998224" width="49.999968060000015" height="28.99999539999999" class="text">other </text>
<text x="930.99996822" y="487.99998224" width="76.00003648999996" height="28.99999539999999" class="text">agencies</text>
<text x="1008.0000364" y="487.99998224" width="7.999972399999933" height="28.99999539999999" class="text">, </text>
<text x="1022.0000232400001" y="487.99998224" width="108.99994020999986" height="28.99999539999999" class="text">departments </text>
<text x="1136.99999546" y="487.99998224" width="34.000023260000034" height="28.99999539999999" class="text">and </text>
<text x="1176.99994531" y="487.99998224" width="85.00004058000013" height="28.99999539999999" class="text">Congress </text>
<text x="1268.00000033" y="487.99998224" width="81.99996308000004" height="28.99999539999999" class="text">pursuant </text>
<text x="1353.00004091" y="487.99998224" width="16.999958919999926" height="28.99999539999999" class="text">to </text>
<text x="1378.99998635" y="487.99998224" width="63.9999724700001" height="28.99999539999999" class="text">Section </text>
<text x="1451.99994534" y="487.99998224" width="8.000077820000115" height="28.99999539999999" class="text">6</text>
<text x="1462.99999524" y="487.99998224" width="7.999972399999933" height="28.99999539999999" class="text">(</text>
<text x="1469.00002725" y="487.99998224" width="7.999972400000161" height="28.99999539999999" class="text">c</text>
<text x="1480.99996828" y="487.99998224" width="8.000077819999888" height="28.99999539999999" class="text">) </text>
<text x="1490.99998649" y="487.99998224" width="21.999976809999907" height="28.99999539999999" class="text">of </text>
<text x="1515.00000911" y="487.99998224" width="29.999931639999886" height="28.99999539999999" class="text">the </text>
<text x="1550.99997276" y="487.99998224" width="33.000009139999975" height="28.99999539999999" class="text">Act</text>
<text x="1582.0000415099998" y="487.99998224" width="7.999972400000161" height="28.99999539999999" class="text">. </text>
<text x="1596.9999721899999" y="487.99998224" width="59.000060000000076" height="28.99999539999999" class="text">Finally</text>
<text x="1657.99997258" y="487.99998224" width="8.000077819999888" height="28.99999539999999" class="text">,
</text>
<text x="93.000002438" y="514.99998816" width="27.999993007000015" height="27.999989280000023" class="text">the </text>
<text x="127.99999589299999" y="514.99998816" width="75.00000655699999" height="27.999989280000023" class="text">Attorney </text>
<text x="213.00000309" y="514.99998816" width="75.0000048" height="27.999989280000023" class="text">General </text>
<text x="290.00000099" y="514.99998816" width="85.99998442000003" height="27.999989280000023" class="text">transmits </text>
<text x="381.99999985" y="514.99998816" width="20.999997829999984" height="27.999989280000023" class="text">an </text>
<text x="409.99999110000005" y="514.99998816" width="65.00000416" height="27.999989280000023" class="text">annual </text>
<text x="481.00002727000003" y="514.99998816" width="54.99996838000004" height="27.999989280000023" class="text">report </text>
<text x="544.00002076" y="514.99998816" width="12.99997271999996" height="27.999989280000023" class="text">to </text>
<text x="565.00001859" y="514.99998816" width="28.000008820000062" height="27.999989280000023" class="text">the </text>
<text x="602.00001393" y="514.99998816" width="86.00000198999999" height="27.999989280000023" class="text">Congress </text>
<text x="692.00000212" y="514.99998816" width="20.999997829999984" height="27.999989280000023" class="text">on </text>
<text x="725.99997267" y="514.99998816" width="24.00002261999998" height="27.999989280000023" class="text">the </text>
<text x="758.99998181" y="514.99998816" width="136.00002275999998" height="27.999989280000023" class="text">Administration </text>
<text x="901.99994528" y="514.99998816" width="21.00006811000003" height="27.999989280000023" class="text">of </text>
<text x="929.00002783" y="514.99998816" width="28.000008820000062" height="27.999989280000023" class="text">the </text>
<text x="967.9999635600001" y="514.99998816" width="27.000082550000002" height="27.999989280000023" class="text">Act </text>
<text x="1002.00000439" y="514.99998816" width="52.0000138700002" height="27.999989280000023" class="text">which </text>
<text x="1068.00002267" y="514.99998816" width="34.00002326000026" height="27.999989280000023" class="text">lists </text>
<text x="1109.00000421" y="514.99998816" width="26.999977129999934" height="27.999989280000023" class="text">the </text>
<text x="1144.00004159" y="514.99998816" width="58.999972150000076" height="27.999989280000023" class="text">names </text>
<text x="1210.9999861400001" y="514.99998816" width="17.00006433999988" height="27.999989280000023" class="text">of </text>
<text x="1237.000037" y="514.99998816" width="19.999930999999833" height="27.999989280000023" class="text">all </text>
<text x="1264.00001413" y="514.99998816" width="58.999972150000076" height="27.999989280000023" class="text">agents </text>
<text x="1330.00003241" y="514.99998816" width="84.99993515999995" height="27.999989280000023" class="text">registered </text>
<text x="1427.00001402" y="514.99998816" width="53.999954260000095" height="27.999989280000023" class="text">under </text>
<text x="1487.00000029" y="514.99998816" width="26.99997713000016" height="27.999989280000023" class="text">the </text>
<text x="1525.00002732" y="514.99998816" width="26.999977129999934" height="27.999989280000023" class="text">Act</text>
<text x="1553.00001857" y="514.99998816" width="7.999972399999933" height="27.999989280000023" class="text">, </text>
<text x="1568.0000546699998" y="514.99998816" width="26.99997713000016" height="27.999989280000023" class="text">the </text>
<text x="1602.99998663" y="514.99998816" width="62.00003207999998" height="27.999989280000023" class="text">foreign
</text>
<text x="91.00000231" y="546.9999791600001" width="92.99999541000001" height="31.999991000000023" class="text">principals </text>
<text x="188.00000149000002" y="546.9999791600001" width="40.99998153999999" height="31.999991000000023" class="text">they </text>
<text x="235.99999402000003" y="546.9999791600001" width="90.00000575999996" height="31.999991000000023" class="text">represent</text>
<text x="322.00001358" y="546.9999791600001" width="8.99998652000005" height="31.999991000000023" class="text">, </text>
<text x="338.00001109" y="546.9999791600001" width="31.999977450000017" height="31.999991000000023" class="text">and </text>
<text x="375.99998541" y="546.9999791600001" width="33.000009139999975" height="31.999991000000023" class="text">the </text>
<text x="414.00001244" y="546.9999791600001" width="55.99996493000003" height="31.999991000000023" class="text">nature</text>
<text x="471.99997046999994" y="546.9999791600001" width="9.000056800000095" height="31.999991000000023" class="text">, </text>
<text x="488.00002069000004" y="546.9999791600001" width="70.00000447999992" height="31.999991000000023" class="text">sources </text>
<text x="565.00001859" y="546.9999791600001" width="32.99995643" height="31.999991000000023" class="text">and </text>
<text x="607.00003182" y="546.9999791600001" width="70.99996589" height="31.999991000000023" class="text">content </text>
<text x="683.9999770100001" y="546.9999791600001" width="17.000011629999904" height="31.999991000000023" class="text">of </text>
<text x="706.00000653" y="546.9999791600001" width="31.999977450000074" height="31.999991000000023" class="text">the </text>
<text x="742.9999842999999" y="546.9999791600001" width="82.00001579000002" height="31.999991000000023" class="text">political </text>
<text x="826.9999931899999" y="546.9999791600001" width="106.00002084000005" height="31.999991000000023" class="text">propaganda </text>
<text x="943.0000322399999" y="546.9999791600001" width="117.99992672999997" height="31.999991000000023" class="text">disseminated </text>
<text x="1070.9999771799999" y="546.9999791600001" width="17.999990610000168" height="31.999991000000023" class="text">or </text>
<text x="1100.0000001199999" y="546.9999791600001" width="94.00002710000012" height="31.999991000000023" class="text">distributed </text>
<text x="1204.99995413" y="546.9999791600001" width="19.000004729999773" height="31.999991000000023" class="text">by </text>
<text x="1236.00002288" y="546.9999791600001" width="43.99993605000009" height="31.999991000000023" class="text">them</text>
<text x="1282.00000474" y="546.9999791600001" width="9.000004090000175" height="31.999991000000023" class="text">. </text>
<text x="1297.00002327" y="546.9999791600001" width="36.99999534000017" height="31.999991000000023" class="text">This </text>
<text x="1348.00002302" y="546.9999791600001" width="52.99994013999981" height="31.999991000000023" class="text">report </text>
<text x="1411.99999549" y="546.9999791600001" width="11.999958600000127" height="31.999991000000023" class="text">is </text>
<text x="1432.00003191" y="546.9999791600001" width="77.99997688000008" height="31.999991000000023" class="text">available </text>
<text x="1518.99999531" y="546.9999791600001" width="17.99999060999994" height="31.999991000000023" class="text">to </text>
<text x="1544.00003205" y="546.9999791600001" width="28.999917520000054" height="31.999991000000023" class="text">the </text>
<text x="1582.0000415099998" y="546.9999791600001" width="56.00000007000017" height="31.999991000000023" class="text">public</text>
<text x="1639.99998197" y="546.9999791600001" width="9.000004090000175" height="31.999991000000023" class="text">.
</text>
<text x="91.00000231" y="602.99995772" width="56.99999837699998" height="29.999955999999997" class="text">Public </text>
<text x="152.999995736" y="602.99995772" width="87.99999860399998" height="29.999955999999997" class="text">Reporting </text>
<text x="249.99998086000002" y="602.99995772" width="63.00001105999999" height="29.999955999999997" class="text">Burden</text>
<text x="316.99999569" y="602.99995772" width="9.000004090000004" height="29.999955999999997" class="text">. </text>
<text x="327.99999288" y="602.99995772" width="56.000000070000056" height="29.999955999999997" class="text">Public </text>
<text x="392.00001806" y="602.99995772" width="79.99995240999993" height="29.999955999999997" class="text">reporting </text>
<text x="481.99998867999994" y="602.99995772" width="59.000024859999996" height="29.999955999999997" class="text">burden </text>
<text x="548.00000696" y="602.99995772" width="26.00001572000008" height="29.999955999999997" class="text">for </text>
<text x="583.0000092" y="602.99995772" width="28.999970229999917" height="29.999955999999997" class="text">this </text>
<text x="620.0000045400001" y="602.99995772" width="82.99997719999999" height="29.999955999999997" class="text">collection </text>
<text x="711.99996826" y="602.99995772" width="22.00002952" height="29.999955999999997" class="text">of </text>
<text x="739.00001567" y="602.99995772" width="102.99999604999994" height="29.999955999999997" class="text">information </text>
<text x="849.99998412" y="602.99995772" width="11.000049900000022" height="29.999955999999997" class="text">is </text>
<text x="868.9999888499999" y="602.99995772" width="83.00004748000015" height="29.999955999999997" class="text">estimated </text>
<text x="958.9999770400001" y="602.99995772" width="17.000064339999994" height="29.999955999999997" class="text">to </text>
<text x="982.99999966" y="602.99995772" width="66.00000071" height="29.999955999999997" class="text">average </text>
<text x="1055.00003238" y="602.99995772" width="16.99997648999988" height="29.999955999999997" class="text">.5 </text>
<text x="1078.00004088" y="602.99995772" width="50.99998217999996" height="29.999955999999997" class="text">hours </text>
<text x="1135.99998134" y="602.99995772" width="30.000037060000068" height="29.999955999999997" class="text">per </text>
<text x="1168.99999048" y="602.99995772" width="77.00005061000002" height="29.999955999999997" class="text">response</text>
<text x="1246.9999497899998" y="602.99995772" width="9.000004090000175" height="29.999955999999997" class="text">, </text>
<text x="1259.0000138100002" y="602.99995772" width="82.99997719999988" height="29.999955999999997" class="text">including </text>
<text x="1349.00005471" y="602.99995772" width="29.999931639999886" height="29.999955999999997" class="text">the </text>
<text x="1384.00000424" y="602.99995772" width="41.99999565999997" height="29.999955999999997" class="text">time </text>
<text x="1432.00003191" y="602.99995772" width="24.999931320000087" height="29.999955999999997" class="text">for </text>
<text x="1460.0000231600002" y="602.99995772" width="85.99994927999978" height="29.999955999999997" class="text">reviewing </text>
<text x="1558.0000364599998" y="602.99995772" width="103.00001362000012" height="29.999955999999997" class="text">instructions</text>
<text x="1661.00005008" y="602.99995772" width="8.999986519999993" height="29.999955999999997" class="text">,
</text>
<text x="88.000000361" y="631.9999758800001" width="90.99999703900001" height="30.99998488000017" class="text">searching </text>
<text x="188.00000149000002" y="631.9999758800001" width="66.99999725999999" height="30.99998488000017" class="text">existing </text>
<text x="265.00001696" y="631.9999758800001" width="35.99999879000001" height="30.99998488000017" class="text">data </text>
<text x="311.99999536999997" y="631.9999758800001" width="67.00001483000005" height="30.99998488000017" class="text">sources</text>
<text x="381.0000033" y="631.9999758800001" width="8.999986519999993" height="30.99998488000017" class="text">, </text>
<text x="396.00000425999997" y="631.9999758800001" width="82.99997719999999" height="30.99998488000017" class="text">gathering </text>
<text x="488.00002069000004" y="631.9999758800001" width="30.999963330000014" height="30.99998488000017" class="text">and </text>
<text x="534.99998153" y="631.9999758800001" width="103.00001362" height="30.99998488000017" class="text">maintaining </text>
<text x="648.99997477" y="631.9999758800001" width="27.000029840000025" height="30.99998488000017" class="text">the </text>
<text x="683.9999770100001" y="631.9999758800001" width="36.00001636000002" height="30.99998488000017" class="text">data </text>
<text x="730.99999056" y="631.9999758800001" width="62.999993490000065" height="30.99998488000017" class="text">needed</text>
<text x="795.99997715" y="631.9999758800001" width="9.00003922999997" height="30.99998488000017" class="text">, </text>
<text x="807.00000948" y="631.9999758800001" width="35.00000223999996" height="30.99998488000017" class="text">and </text>
<text x="851.99997722" y="631.9999758800001" width="99.00002742000004" height="30.99998488000017" class="text">completing </text>
<text x="958.9999770400001" y="631.9999758800001" width="35.00005494999982" height="30.99998488000017" class="text">and </text>
<text x="1005.9999905899999" y="631.9999758800001" width="82.9999772000001" height="30.99998488000017" class="text">reviewing </text>
<text x="1102.0000459300002" y="631.9999758800001" width="25.999963009999874" height="30.99998488000017" class="text">the </text>
<text x="1136.99999546" y="631.9999758800001" width="86.99996339999984" height="30.99998488000017" class="text">collection </text>
<text x="1236.00002288" y="631.9999758800001" width="19.00000473" height="30.99998488000017" class="text">of </text>
<text x="1263.00000001" y="631.9999758800001" width="101.9999819300001" height="30.99998488000017" class="text">information</text>
<text x="1369.99999983" y="631.9999758800001" width="8.999986519999993" height="30.99998488000017" class="text">. </text>
<text x="1384.00000424" y="631.9999758800001" width="44.00004147000004" height="30.99998488000017" class="text">Send </text>
<text x="1437.00003223" y="631.9999758800001" width="96.99998161000008" height="30.99998488000017" class="text">comments </text>
<text x="1540.00004585" y="631.9999758800001" width="87.99999508999986" height="30.99998488000017" class="text">regarding </text>
<text x="1633.00004126" y="631.9999758800001" width="31.99997744999996" height="30.99998488000017" class="text">this
</text>
<text x="91.99999886" y="660.00003344" width="60.00000032599999" height="29.000018159999968" class="text">burden </text>
<text x="159.999996184" y="660.00003344" width="75.00000128599999" height="29.000018159999968" class="text">estimate </text>
<text x="244.00001913" y="660.00003344" width="21.999994379999976" height="29.000018159999968" class="text">or </text>
<text x="269.99999971" y="660.00003344" width="34.000005689999966" height="29.000018159999968" class="text">any </text>
<text x="311.99999536999997" y="660.00003344" width="46.000017000000014" height="29.000018159999968" class="text">other </text>
<text x="366.99999889" y="660.00003344" width="56.99999662000005" height="29.000018159999968" class="text">aspect </text>
<text x="430.00000995" y="660.00003344" width="21.999994380000032" height="29.000018159999968" class="text">of </text>
<text x="453.99999743" y="660.00003344" width="33.000009139999975" height="29.000018159999968" class="text">this </text>
<text x="495.00001411000005" y="660.00003344" width="89.99998818999995" height="29.000018159999968" class="text">collection </text>
<text x="591.99999572" y="660.00003344" width="22.00002952" height="29.000018159999968" class="text">of </text>
<text x="621.99999764" y="660.00003344" width="101.99998192999999" height="29.000018159999968" class="text">information</text>
<text x="727.00000436" y="660.00003344" width="8.00002510999991" height="29.000018159999968" class="text">, </text>
<text x="740.9999912" y="660.00003344" width="85.00004058000002" height="29.000018159999968" class="text">including </text>
<text x="833.99998661" y="660.00003344" width="108.0000315100001" height="29.000018159999968" class="text">suggestions </text>
<text x="947.0000184400001" y="660.00003344" width="25.999963009999874" height="29.000018159999968" class="text">for </text>
<text x="981.99996797" y="660.00003344" width="78.99999099999991" height="29.000018159999968" class="text">reducing </text>
<text x="1065.99997686" y="660.00003344" width="33.000009139999975" height="29.000018159999968" class="text">this </text>
<text x="1109.00000421" y="660.00003344" width="62.00001451000003" height="29.000018159999968" class="text">burden </text>
<text x="1178.99999112" y="660.00003344" width="16.99997649000011" height="29.000018159999968" class="text">to </text>
<text x="1203.00001374" y="660.00003344" width="54.99998594999988" height="29.000018159999968" class="text">Chief</text>
<text x="1255.00002761" y="660.00003344" width="7.999972399999933" height="29.000018159999968" class="text">, </text>
<text x="1270.99997241" y="660.00003344" width="109.00004562999993" height="29.000018159999968" class="text">Registration </text>
<text x="1389.00000456" y="660.00003344" width="41.999995660000195" height="29.000018159999968" class="text">Unit</text>
<text x="1428.9999544099999" y="660.00003344" width="8.000077820000115" height="29.000018159999968" class="text">, </text>
<text x="1443.99999051" y="660.00003344" width="82.00005092999982" height="29.000018159999968" class="text">Criminal </text>
<text x="1534.00001384" y="660.00003344" width="77.99997687999985" height="29.000018159999968" class="text">Division</text>
<text x="1614.00003653" y="660.00003344" width="7.999972399999933" height="29.000018159999968" class="text">, </text>
<text x="1627.00000925" y="660.00003344" width="43.00002734999998" height="29.000018159999968" class="text">U.S.
</text>
<text x="93.000002438" y="688.9999605600001" width="107.99998934199999" height="28.999927120000052" class="text">Department </text>
<text x="208.00000277" y="688.9999605600001" width="19.99998370999998" height="28.999927120000052" class="text">of </text>
<text x="234.99999746999998" y="688.9999605600001" width="59.00000729000004" height="28.999927120000052" class="text">Justice</text>
<text x="295.00000131" y="688.9999605600001" width="8.000007539999956" height="28.999927120000052" class="text">, </text>
<text x="309.00000572" y="688.9999605600001" width="104.00001017" height="28.999927120000052" class="text">Washington</text>
<text x="417.00000209" y="688.9999605600001" width="7.9999899700000014" height="28.999927120000052" class="text">, </text>
<text x="432.99998203" y="688.9999605600001" width="42.000013230000036" height="28.999927120000052" class="text">D.C. </text>
<text x="483.00002036999996" y="688.9999605600001" width="51.999961160000055" height="28.999927120000052" class="text">20530</text>
<text x="537.9999887499999" y="688.9999605600001" width="8.000025110000138" height="28.999927120000052" class="text">; </text>
<text x="553.00002485" y="688.9999605600001" width="31.99997744999996" height="28.999927120000052" class="text">and </text>
<text x="593.00002741" y="688.9999605600001" width="16.99995892000004" height="28.999927120000052" class="text">to </text>
<text x="620.0000045400001" y="688.9999605600001" width="24.99998402999995" height="28.999927120000052" class="text">the </text>
<text x="655.00000678" y="688.9999605600001" width="56.99996147999991" height="28.999927120000052" class="text">Office </text>
<text x="723.9999795699999" y="688.9999605600001" width="17.000011630000017" height="28.999927120000052" class="text">of </text>
<text x="751.99998839" y="688.9999605600001" width="102.00003463999997" height="28.999927120000052" class="text">Information </text>
<text x="865.00000265" y="688.9999605600001" width="32.99995643" height="28.999927120000052" class="text">and </text>
<text x="909.0000089800001" y="688.9999605600001" width="95.00004121999984" height="28.999927120000052" class="text">Regulatory </text>
<text x="1014.9999771100001" y="688.9999605600001" width="64.99998658999971" height="28.999927120000052" class="text">Affairs</text>
<text x="1080.9999953899999" y="688.9999605600001" width="7.999972400000161" height="28.999927120000052" class="text">, </text>
<text x="1092.99995399" y="688.9999605600001" width="56.00000006999994" height="28.999927120000052" class="text">Office </text>
<text x="1162.9999584700001" y="688.9999605600001" width="15.000018529999807" height="28.999927120000052" class="text">of </text>
<text x="1184.00000901" y="688.9999605600001" width="122.00001835000012" height="28.999927120000052" class="text">Management </text>
<text x="1312.99996807" y="688.9999605600001" width="31.999995019999915" height="28.999927120000052" class="text">and </text>
<text x="1354.9999813" y="688.9999605600001" width="64.0000603200001" height="28.999927120000052" class="text">Budget</text>
<text x="1419.9999678899999" y="688.9999605600001" width="8.000077820000115" height="28.999927120000052" class="text">, </text>
<text x="1431.0000002200002" y="688.9999605600001" width="108.00003150999964" height="28.999927120000052" class="text">Washington</text>
<text x="1541.99998624" y="688.9999605600001" width="7.999972399999933" height="28.999927120000052" class="text">, </text>
<text x="1554.00005026" y="688.9999605600001" width="47.99992224999983" height="28.999927120000052" class="text">D.C. </text>
<text x="1604.00001832" y="688.9999605600001" width="57.000031759999956" height="28.999927120000052" class="text">20503</text>
<text x="1661.00005008" y="688.9999605600001" width="7.999954829999979" height="28.999927120000052" class="text">.
</text>
<text x="102.999997807" y="749.99996972" width="30.000005434000002" height="31.99999099999991" class="text">1. </text>
<text x="143.000005638" y="750.9999985999999" width="67.000007802" height="32.00001375999989" class="text">Name </text>
<text x="221.99998961" y="752.0000047200001" width="25.00000160000002" height="31.999991000000136" class="text">of </text>
<text x="256.99999184999996" y="755.00000032" width="110.00000704000001" height="33.99995772000011" class="text">registrant
</text>
<text x="123.00000260099999" y="797.99999036" width="123.99998860900003" height="32.99999711999999" class="text">Québec </text>
<text x="273.00000693000004" y="797.99999036" width="205.99997452999992" height="32.99999711999999" class="text">Government </text>
<text x="499.00000030999996" y="797.99999036" width="105.00000672000004" height="32.99999711999999" class="text">House
</text>
<text x="1223.00005016" y="752.0000047200001" width="21.999959239999953" height="30.00002428000016" class="text">2. </text>
<text x="1252.9999818" y="752.0000047200001" width="136.0000227600001" height="31.999991000000136" class="text">Registration </text>
<text x="1401.99997728" y="750.9999985999999" width="47.00001354999995" height="29.999955999999997" class="text">No.
</text>
<text x="1378.99998635" y="795.00001752" width="80.00002268999992" height="27.000051439999993" class="text">1787
</text>
<text x="107.000001577" y="856.0000039199999" width="29.00000361299999" height="34.99998659999983" class="text">3. </text>
<text x="144.000002188" y="856.0000039199999" width="74.999997772" height="34.99998659999983" class="text">Nature </text>
<text x="233.00000436999997" y="856.0000039199999" width="25.99999815000004" height="34.99998659999983" class="text">of </text>
<text x="269.99999971" y="856.0000039199999" width="94.00000953" height="34.99998659999983" class="text">material </text>
<text x="369.99998854" y="856.0000039199999" width="10.000018210000007" height="34.99998659999983" class="text">(</text>
<text x="383.99999295000003" y="856.0000039199999" width="10.000018210000007" height="34.99998659999983" class="text">A </text>
<text x="407.999998" y="856.0000039199999" width="84.00000888999995" height="34.99998659999983" class="text">concise </text>
<text x="506.0000113" y="856.0000039199999" width="91.99996371999998" height="34.99998659999983" class="text">account </text>
<text x="609.00002492" y="856.0000039199999" width="19.999966140000083" height="34.99998659999983" class="text">of </text>
<text x="637.00001617" y="856.0000039199999" width="35.00000224000007" height="34.99998659999983" class="text">the </text>
<text x="683.9999770100001" y="856.0000039199999" width="74.00004338999997" height="34.99998659999983" class="text">nature </text>
<text x="767.9999859000001" y="856.0000039199999" width="25.99999815000001" height="34.99998659999983" class="text">of </text>
<text x="800.99999504" y="856.0000039199999" width="34.99998467" height="34.99998659999983" class="text">the </text>
<text x="844.00000482" y="856.0000039199999" width="138.99999484" height="34.99998659999983" class="text">propaganda </text>
<text x="998.00001819" y="856.0000039199999" width="96.99998161000008" height="34.99998659999983" class="text">material </text>
<text x="1103.99998632" y="856.0000039199999" width="47.00001354999995" height="34.99998659999983" class="text">filed</text>
<text x="1153.99995438" y="856.0000039199999" width="10.000018210000007" height="34.99998659999983" class="text">)
</text>
<text x="124.99999394400001" y="907.99998076" width="205.00000960599996" height="38.99998831999994" class="text">Newsletter </text>
<text x="357.00001582" y="907.99998076" width="203.00000244999995" height="38.99998831999994" class="text">containing </text>
<text x="581.0000161" y="907.99998076" width="148.99999548000005" height="38.99998831999994" class="text">general </text>
<text x="753.99998149" y="907.99998076" width="222.99998615999993" height="38.99998831999994" class="text">information </text>
<text x="998.00001819" y="907.99998076" width="61.00000038999997" height="38.99998831999994" class="text">and </text>
<text x="1084.99998159" y="907.99998076" width="80.00002268999992" height="38.99998831999994" class="text">news </text>
<text x="1190.00004102" y="907.99998076" width="36.99999533999994" height="38.99998831999994" class="text">on </text>
<text x="1254.00001349" y="907.99998076" width="123.00003247000018" height="38.99998831999994" class="text">Québec </text>
<text x="1397.99999108" y="907.99998076" width="61.00001795999992" height="38.99998831999994" class="text">and </text>
<text x="1484.00004578" y="907.99998076" width="54.99998594999988" height="38.99998831999994" class="text">the
</text>
<text x="123.00000260099999" y="939.99997176" width="211.99998369899998" height="39.99994891999995" class="text">activities </text>
<text x="355.99998413" y="939.99997176" width="37.00003048000002" height="39.99994891999995" class="text">of </text>
<text x="422.00000241" y="939.99997176" width="56.99997904999998" height="39.99994891999995" class="text">the </text>
<text x="499.99997929" y="939.99997176" width="127.00001867000009" height="39.99994891999995" class="text">Québec </text>
<text x="647.99999579" y="939.99997176" width="205.00001311999995" height="39.99994891999995" class="text">Government </text>
<text x="875.0000208600001" y="939.99997176" width="121.99996563999991" height="39.99994891999995" class="text">Office </text>
<text x="1023.99996363" y="939.99997176" width="36.99999533999983" height="39.99994891999995" class="text">in </text>
<text x="1089.9999819099999" y="939.99997176" width="141.0000406500003" height="39.99994891999995" class="text">Chicago</text>
<text x="1234.99999119" y="939.99997176" width="11.9999585999999" height="39.99994891999995" class="text">.
</text>
<text x="103.999999628" y="985.9999574000001" width="37.000000611000004" height="27.999966520000044" class="text">4. </text>
<text x="147.00000413700002" y="986.99998628" width="45.999997672999996" height="28.99999539999999" class="text">Title </text>
<text x="208.99999932" y="986.99998628" width="25.00000160000002" height="26.999960400000077" class="text">of </text>
<text x="246.00001223" y="989.99998188" width="92.99999541000003" height="29.999955999999997" class="text">material</text>
<text x="337.00001454" y="989.0000212799999" width="7.9999899700000014" height="27.0000286799999" class="text">, </text>
<text x="357.00001582" y="989.0000212799999" width="14.999983390000011" height="27.0000286799999" class="text">if </text>
<text x="385.00000707" y="990.999988" width="37.99999189000005" height="27.999989280000023" class="text">any
</text>
<text x="929.9999541000001" y="993.9999836" width="29.000022940000008" height="31.99999099999991" class="text">5. </text>
<text x="982.99999966" y="993.9999836" width="68.9999727899999" height="33.00001987999997" class="text">Name </text>
<text x="1059.00001858" y="993.0000229999999" width="24.00002262000021" height="32.00005927999996" class="text">of </text>
<text x="1089.9999819099999" y="993.0000229999999" width="76.00003649000018" height="32.00005927999996" class="text">foreign </text>
<text x="1172.99995911" y="993.0000229999999" width="108.0000315100001" height="34.000025999999934" class="text">principal </text>
<text x="1285.99999094" y="992.00001688" width="24.00002261999998" height="31.999991000000023" class="text">on </text>
<text x="1319.00000008" y="992.00001688" width="70.00000447999992" height="33.00001987999997" class="text">whose </text>
<text x="1396.9999769600001" y="990.999988" width="72.00005028999976" height="31.999991000000023" class="text">behalf </text>
<text x="1476.99999965" y="990.999988" width="39.999949849999894" height="31.999991000000023" class="text">this </text>
<text x="1527.9999818299998" y="989.99998188" width="91.99998129000028" height="32.99995159999992" class="text">material </text>
<text x="1623.00002305" y="989.99998188" width="44.9999677400001" height="31.99999099999991" class="text">was
</text>
<text x="981.99996797" y="1023.00000176" width="129.99999075000005" height="27.999989280000136" class="text">transmitted</text>
<text x="1115.00001865" y="1021.99997288" width="7.999972400000161" height="26.999960400000077" class="text">.
</text>
<text x="126.00000455" y="1042.00000424" width="121.99998321000001" height="34.00002600000005" class="text">QUEBEC </text>
<text x="272.00001038" y="1042.00000424" width="122.99999732999999" height="34.00002600000005" class="text">UPDATE</text>
<text x="401.00000458" y="1042.00000424" width="9.999983069999985" height="34.00002600000005" class="text">, </text>
<text x="437.99999992" y="1042.00000424" width="59.00000729000004" height="34.00002600000005" class="text">VOL </text>
<text x="523.00002293" y="1042.00000424" width="37.999956750000024" height="34.00002600000005" class="text">93</text>
<text x="567.99999067" y="1042.00000424" width="10.000018210000007" height="34.00002600000005" class="text">, </text>
<text x="604.9999860099999" y="1042.00000424" width="62.999993490000065" height="34.00002600000005" class="text">No. </text>
<text x="690.00000902" y="1042.00000424" width="38.00000946" height="34.00002600000005" class="text">13
</text>
<text x="1167.00005009" y="1043.00003312" width="121.99991292999994" height="36.00001548" class="text">Québec </text>
<text x="1311.99995395" y="1042.00000424" width="209.99999587000002" height="37.00002159999997" class="text">Government
</text>
<text x="133.999999791" y="1075.99998472" width="10.000002397000003" height="34.99998659999983" class="text">(</text>
<text x="152.999995736" y="1078.00001972" width="138.000001804" height="37.000021599999855" class="text">Chicago</text>
<text x="302.00001230000004" y="1076.99999084" width="9.999983069999928" height="34.99998660000006" class="text">)
</text>
<text x="105.000003206" y="1157.00002524" width="29.999993134999983" height="24.00005583999996" class="text">6. </text>
<text x="144.000002188" y="1157.00002524" width="77.999987422" height="24.00005583999996" class="text">Means </text>
<text x="232.00000781999998" y="1157.00002524" width="21.999994380000004" height="24.00005583999996" class="text">of </text>
<text x="263.99998527" y="1157.00002524" width="143.00001618" height="24.00005583999996" class="text">transmission
</text>
<text x="644.99998857" y="1160.00002084" width="15.00001852999992" height="27.00005143999988" class="text">7. </text>
<text x="669.9999726" y="1160.00002084" width="68.00001138000005" height="27.00005143999988" class="text">Dates </text>
<text x="749.00001631" y="1160.00002084" width="23.999969910000004" height="27.00005143999988" class="text">of </text>
<text x="779.99997964" y="1160.00002084" width="145.00006199000006" height="27.00005143999988" class="text">transmission
</text>
<text x="1156.00000019" y="1162.99999368" width="24.00002261999998" height="30.999962119999964" class="text">8. </text>
<text x="1190.9999497200001" y="1162.99999368" width="53.00004555999976" height="31.999991000000136" class="text">Total </text>
<text x="1256.9999679999999" y="1162.00005584" width="68.99999036000008" height="31.000053160000107" class="text">copies </text>
<text x="1336.99999069" y="1162.00005584" width="124.99997286000007" height="33.00001988000008" class="text">transmitted
</text>
<text x="123.999997394" y="1207.9999732" width="87.00001259599999" height="28.99994988000003" class="text">Mail
</text>
<text x="688.99997733" y="1213.9999416399999" width="146.00004097" height="32.99999711999976" class="text">October </text>
<text x="861.00003402" y="1213.0000037999998" width="34.99998467" height="30.99998487999983" class="text">15</text>
<text x="903.99999109" y="1213.0000037999998" width="9.000004090000061" height="30.99998487999983" class="text">, </text>
<text x="944.9999726299999" y="1213.9999416399999" width="78.99999100000014" height="31.99992271999986" class="text">1993
</text>
<text x="1381.0000321599998" y="1209.0000476" width="54.99998595000011" height="28.000103079999917" class="text">790
</text>
<text x="105.999999756" y="1262.99999116" width="31.000001983999994" height="27.999989280000136" class="text">9. </text>
<text x="145.999995288" y="1262.99999116" width="44.999995851999984" height="27.999989280000136" class="text">List </text>
<text x="200.99999178" y="1262.99999116" width="107.00001739000001" height="27.999989280000136" class="text">addresses </text>
<text x="323.00001013" y="1262.99999116" width="50.99998217999996" height="27.999989280000136" class="text">from </text>
<text x="385.00000707" y="1262.99999116" width="70.00000448000003" height="27.999989280000136" class="text">which </text>
<text x="473.00000215999995" y="1262.99999116" width="89.99997062000006" height="27.999989280000136" class="text">material </text>
<text x="569.99998377" y="1262.99999116" width="44.00004147000004" height="27.999989280000136" class="text">was </text>
<text x="626.9999979600001" y="1262.99999116" width="124.00001144999987" height="27.999989280000136" class="text">transmitted</text>
<text x="756.0000273" y="1262.99999116" width="7.999972399999933" height="27.999989280000136" class="text">:
</text>
<text x="934.9999544199999" y="1262.99999116" width="41.0000869600002" height="27.000028680000014" class="text">10. </text>
<text x="985.0000454699999" y="1262.99999116" width="45.99998186000005" height="27.000028680000014" class="text">List </text>
<text x="1044.0000000500002" y="1262.99999116" width="59.99998626999991" height="27.999989280000136" class="text">states </text>
<text x="1120.99994524" y="1262.00005332" width="39.000041150000015" height="27.000051440000107" class="text">and </text>
<text x="1176.99994531" y="1262.00005332" width="110.00007731999995" height="27.000051440000107" class="text">territories </text>
<text x="1304.99999567" y="1260.9999561599998" width="25.000036739999814" height="26.999892119999913" class="text">of </text>
<text x="1340.99997689" y="1260.9999561599998" width="35.00005495000005" height="26.999892119999913" class="text">the </text>
<text x="1391.99995907" y="1260.9999561599998" width="73.99999068000011" height="26.999892119999913" class="text">United </text>
<text x="1487.00000029" y="1260.9999561599998" width="63.9999724700001" height="27.99998927999991" class="text">States </text>
<text x="1566.00000886" y="1259.99999556" width="15.000018530000034" height="27.000028680000014" class="text">to </text>
<text x="1599.0000180000002" y="1259.99999556" width="67.99994109999989" height="27.000028680000014" class="text">which
</text>
<text x="990.00004579" y="1295.00005044" width="91.99996372000021" height="26.00006808000012" class="text">material </text>
<text x="1089.9999819099999" y="1295.00005044" width="40.00007284000003" height="26.00006808000012" class="text">was </text>
<text x="1141.99999578" y="1295.00005044" width="127.00003623999987" height="26.00006808000012" class="text">transmitted</text>
<text x="1273.00001822" y="1295.00005044" width="6.999940710000146" height="26.00006808000012" class="text">:
</text>
<text x="126.00000455" y="1349.9999546" width="122.99997975999997" height="34.999918320000006" class="text">Québec </text>
<text x="273.00000693000004" y="1349.9999546" width="206.99998864999998" height="34.999918320000006" class="text">Government </text>
<text x="504.0000182" y="1349.9999546" width="122.99997976000009" height="34.999918320000006" class="text">Office
</text>
<text x="126.99999934299998" y="1387.0000444799998" width="206.999990407" height="35.00005487999988" class="text">Prudential </text>
<text x="358.00001237" y="1387.0000444799998" width="102.00001706999996" height="35.00005487999988" class="text">Plaza</text>
<text x="467.00002286" y="1387.0000444799998" width="9.999965499999973" height="35.00005487999988" class="text">, </text>
<text x="506.0000113" y="1387.0000444799998" width="94.9999885100001" height="35.00005487999988" class="text">Suite </text>
<text x="625.99998384" y="1387.0000444799998" width="82.0000157899999" height="35.00005487999988" class="text">4300
</text>
<text x="131.999994392" y="1417.00006876" width="56.000007098000026" height="28.000125839999782" class="text">180 </text>
<text x="208.00000277" y="1417.00006876" width="101.99999950000003" height="28.000125839999782" class="text">North </text>
<text x="333.99998975" y="1417.00006876" width="144.00001273000004" height="28.000125839999782" class="text">Stetson </text>
<text x="502.00002509999996" y="1417.00006876" width="121.99996563999997" height="28.000125839999782" class="text">Street
</text>
<text x="129.000006499" y="1457.9999555200002" width="141.999989761" height="37.99989116000029" class="text">Chicago</text>
<text x="279.0000038" y="1457.0000176800002" width="10.000000639999996" height="36.00001548000023" class="text">, </text>
<text x="319.99998533999997" y="1457.0000176800002" width="33.00000914000003" height="36.99995332000026" class="text">IL </text>
<text x="379.0000102" y="1457.0000176800002" width="104.00001016999994" height="38.000050480000255" class="text">60601
</text>
<text x="962.0000369699999" y="1352.99992744" width="160.99995408000018" height="37.99989116000006" class="text">Illinois</text>
<text x="1131.99999514" y="1352.99992744" width="11.000032330000067" height="36.99995332000003" class="text">, </text>
<text x="1165.00000428" y="1354.9999852" width="165.00002812999992" height="39.00001108000015" class="text">Michigan</text>
<text x="1343.0000227" y="1354.0000246000002" width="10.999926909999886" height="37.00008988000036" class="text">, </text>
<text x="1376.00003184" y="1354.0000246000002" width="80.00000511999997" height="37.00008988000036" class="text">Ohio</text>
<text x="1465.00004105" y="1354.9999852" width="10.999926910000113" height="36.9999760799999" class="text">, </text>
<text x="1507.00003671" y="1354.9999852" width="76.99994519000006" height="36.9999760799999" class="text">Iowa</text>
<text x="1591.0000456" y="1354.9999852" width="10.999926909999886" height="36.9999760799999" class="text">,
</text>
<text x="953.99997672" y="1387.0000444799998" width="188.0000190600001" height="36.00001548" class="text">Wisconsin</text>
<text x="1153.99995438" y="1385.99994732" width="10.000018210000007" height="33.99995772000011" class="text">, </text>
<text x="1186.00005482" y="1385.99994732" width="188.99994532999995" height="35.99999272000014" class="text">Minnesota</text>
<text x="1381.9999584299999" y="1385.00000948" width="10.000000640000053" height="33.999980480000204" class="text">, </text>
<text x="1418.0000275" y="1385.00000948" width="168.99992647999989" height="36.00001548" class="text">Missouri
</text>
<text x="958.9999770400001" y="1423.0000372000002" width="166.00005981999982" height="35.999992720000364" class="text">Nebraska</text>
<text x="1131.99999514" y="1423.0000372000002" width="10.000000640000053" height="35.999992720000364" class="text">, </text>
<text x="1167.99995879" y="1423.0000372000002" width="43.00002735000021" height="35.999992720000364" class="text">N. </text>
<text x="1228.9999767499999" y="1423.0000372000002" width="126.00000455000009" height="35.999992720000364" class="text">Dakota</text>
<text x="1363.00004155" y="1423.0000372000002" width="9.999912789999826" height="35.999992720000364" class="text">, </text>
<text x="1399.00002277" y="1423.0000372000002" width="164.99994028000015" height="35.999992720000364" class="text">S.Dakota
</text>
<text x="963.9999773599999" y="1460.99995112" width="138.9999948400001" height="42.9999445200001" class="text">Indiana</text>
<text x="1112.99997284" y="1459.99999052" width="12.000064019999854" height="41.00002332000008" class="text">, </text>
<text x="1148.00002779" y="1459.99999052" width="164.99994027999992" height="42.99992176000001" class="text">Kentucky</text>
<text x="1321.99997216" y="1459.00005268" width="12.000046450000127" height="41.00004607999995" class="text">, </text>
<text x="1354.9999813" y="1459.00005268" width="125.99998698000013" height="43.00008107999997" class="text">Kansas
</text>
<text x="98.00000275800001" y="1573.99998264" width="40.99999208199999" height="31.999922720000086" class="text">11. </text>
<text x="148.999997237" y="1573.99998264" width="64.000005853" height="31.999922720000086" class="text">Types </text>
<text x="225.99999338" y="1573.99998264" width="22.999990929999967" height="31.999922720000086" class="text">of </text>
<text x="259.00000252" y="1573.99998264" width="106.00000327000004" height="31.999922720000086" class="text">recipients </text>
<text x="380.00000675" y="1573.99998264" width="8.999986519999993" height="31.999922720000086" class="text">(</text>
<text x="388.99999327" y="1573.99998264" width="52.000013869999975" height="31.999922720000086" class="text">Give </text>
<text x="452.00000433" y="1573.99998264" width="89.00000920999992" height="31.999922720000086" class="text">number </text>
<text x="551.99999316" y="1573.99998264" width="24.00002261999998" height="31.999922720000086" class="text">of </text>
<text x="583.0000092" y="1573.99998264" width="156.00000647000002" height="31.999922720000086" class="text">organizations
</text>
<text x="145.999995288" y="1606.0000419199998" width="17.999997637999996" height="32.00005927999973" class="text">in </text>
<text x="180.9999905" y="1607.9999631199998" width="50.00002077000002" height="33.00001987999963" class="text">each </text>
<text x="241.99999089000002" y="1610.9999359600001" width="68.00001138000002" height="32.999860560000116" class="text">group</text>
<text x="310.00000227000004" y="1610.9999359600001" width="9.999983069999928" height="29.999887720000288" class="text">)
</text>
<text x="934.00004572" y="1573.0000448" width="44.9999677400001" height="32.00008204000005" class="text">12. </text>
<text x="985.0000454699999" y="1573.0000448" width="44.999950170000034" height="32.00008204000005" class="text">List </text>
<text x="1050.00003206" y="1573.0000448" width="71.99994487000004" height="32.00008204000005" class="text">names </text>
<text x="1139.0000412699999" y="1573.0000448" width="40.999981540000135" height="32.00008204000005" class="text">and </text>
<text x="1200.00005923" y="1573.0000448" width="109.99995433000004" height="32.00008204000005" class="text">addresses </text>
<text x="1327.9999866" y="1573.0000448" width="24.00002261999998" height="32.00008204000005" class="text">of </text>
<text x="1369.99999983" y="1573.0000448" width="89.00000920999992" height="32.00008204000005" class="text">persons </text>
<text x="1475.00005926" y="1573.0000448" width="22.999990929999967" height="32.00008204000005" class="text">or </text>
<text x="1516.00002323" y="1573.0000448" width="156.9999678800002" height="32.00008204000005" class="text">organizations
</text>
<text x="985.9999541699999" y="1607.00000252" width="104.00002773999995" height="30.99998487999983" class="text">receiving </text>
<text x="1106.9999584" y="1607.00000252" width="31.000068750000082" height="30.99998487999983" class="text">100 </text>
<text x="1153.00004568" y="1607.00000252" width="72.99995898999987" height="30.99998487999983" class="text">copies </text>
<text x="1234.99999119" y="1607.00000252" width="29.000022940000008" height="30.99998487999983" class="text">or </text>
<text x="1279.00005023" y="1607.00000252" width="50.99998217999996" height="30.99998487999983" class="text">more</text>
<text x="1333.00000449" y="1607.00000252" width="8.999986519999993" height="30.99998487999983" class="text">:
</text>
<text x="353.99999103" y="1806.99999748" width="47.000013550000006" height="32.00005927999996" class="text">50
</text>
<text x="95.000000809" y="1671.9999451200001" width="105.99999097099999" height="25.99995428000011" class="text">Libraries
</text>
<text x="334.9999863" y="1667.00005108" width="38.00000946000006" height="26.00009084000021" class="text">80
</text>
<text x="97.000000937" y="1704.999965" width="68.000002595" height="26.99991487999978" class="text">Public </text>
<text x="178.9999974" y="1704.999965" width="102.99999604999996" height="26.99991487999978" class="text">officials_ </text>
<text x="332.9999932" y="1699.9999344" width="42.999992210000016" height="22.99995868000019" class="text">80
</text>
<text x="95.999997359" y="1745.00005048" width="136.000010461" height="33.000019879999854" class="text">Newspapers </text>
<text x="337.00001454" y="1735.9999498799998" width="35.99998122000005" height="25.000016439999854" class="text">40
</text>
<text x="95.000000809" y="1773.9999776" width="63.000002274999986" height="27.999989280000136" class="text">Press </text>
<text x="165.000003532" y="1773.9999776" width="95.999992088" height="27.999989280000136" class="text">services </text>
<text x="272.00001038" y="1773.9999776" width="25.99998058" height="27.999989280000136" class="text">of
</text>
<text x="122.000006051" y="1806.99999748" width="134.99998579899994" height="25.99995428000011" class="text">associations
</text>
<text x="95.999997359" y="1840.9999552" width="138.00000356100003" height="25.99995428000011" class="text">Educational
</text>
<text x="123.00000260099999" y="1875.00007224" width="126.99997825900003" height="25.00001644000008" class="text">institutions </text>
<text x="339.00000764000004" y="1875.00007224" width="55.00000352000001" height="26.000090839999984" class="text">250
</text>
<text x="95.999997359" y="1907.9999328" width="58.000007225999994" height="24.99999367999999" class="text">Civic
</text>
<text x="193.00000181000001" y="1917.00005616" width="81.00000166999996" height="27.99998927999991" class="text">groups
</text>
<text x="358.00001237" y="1910.9999283999998" width="37.99999188999999" height="26.999892119999913" class="text">50
</text>
<text x="98.00000275800001" y="1951.00001388" width="61.99999342599999" height="38.99998832000006" class="text">Other </text>
<text x="172.999998773" y="1951.00001388" width="10.999998947000023" height="38.99998832000006" class="text">(</text>
<text x="184.99999427" y="1951.00001388" width="67.00001483" height="38.99998832000006" class="text">specif </text>
<text x="318.99998879" y="1951.00001388" width="222.99998616000005" height="38.99998832000006" class="text">individuals </text>
<text x="567.99999067" y="1951.00001388" width="55.00002109000002" height="38.99998832000006" class="text">and</text>
<text x="637.00001617" y="1951.00001388" width="10.999979619999976" height="38.99998832000006" class="text">/</text>
<text x="647.99999579" y="1951.00001388" width="44.00000633000002" height="38.99998832000006" class="text">or </text>
<text x="716.99998615" y="1951.00001388" width="241.99999089000005" height="38.99998832000006" class="text">institutions
</text>
<text x="133.999999791" y="1986.00006876" width="197.99999685900002" height="42.00012048000008" class="text">interested </text>
<text x="358.00001237" y="1984.9999716" width="35.000002240000015" height="38.99998831999983" class="text">in </text>
<text x="420.00000931" y="1987.9999672" width="228.99996546" height="41.99998391999975" class="text">francophone </text>
<text x="676.99998359" y="1987.0000066" width="11.000032329999954" height="38.99998832000006" class="text">(</text>
<text x="686.99998423" y="1989.00006436" width="187.00002251" height="41.00004607999995" class="text">québécois</text>
<text x="883.00004597" y="1989.00006436" width="10.999944480000067" height="39.00001107999992" class="text">)
</text>
<text x="126.00000455" y="2017.99999148" width="206.99998865" height="35.99999271999991" class="text">activities
</text>
<text x="1331.9999728" y="1876.9999706800002" width="50.999999749999915" height="219.0000202000001" class="text">.REGISTRATION </text>
<text x="1347.0000089" y="1948.99997888" width="39.99994985000012" height="64.00000476000014" class="text">UNIT
</text>
<text x="1372.99995434" y="1868.00000664" width="39.000041150000015" height="119.99998331999996" class="text">SECTION
</text>
<text x="1391.99995907" y="1798.00003344" width="47.00001354999995" height="141.0000207999999" class="text">INTERNAL </text>
<text x="1404.00002309" y="1951.00001388" width="45.99998186000016" height="138.00004796000007" class="text">SECURITY
</text>
<text x="1456.99996323" y="1679.99997132" width="41.00008695999986" height="37.999913920000154" class="text">93 </text>
<text x="1460.0000231600002" y="1745.00005048" width="43.000027349999755" height="57.00007572000004" class="text">NOV </text>
<text x="1465.00004105" y="1796.9999362800002" width="40.999981540000135" height="37.99989116000006" class="text">10 </text>
<text x="1469.00002725" y="1857.99994544" width="40.999981540000135" height="30.999984880000056" class="text">AM </text>
<text x="1470.99996764" y="1961.00007508" width="45.999981859999934" height="91.00003343999992" class="text">10:55
</text>
<text x="1526.00004144" y="1798.99997128" width="48.99995394000007" height="147.99994984" class="text">CRIMINAL </text>
<text x="1538.0000000399998" y="1946.99994388" width="48.99995394000007" height="136.00001296000005" class="text">DIVISION
</text>
<text x="1559.99997685" y="1742.99999272" width="46.99999598000022" height="83.00000723999983" class="text">DEPT</text>
<text x="1567.00002298" y="1751.00001892" width="39.99994985000012" height="13.99999463999984" class="text">. </text>
<text x="1567.00002298" y="1798.00003344" width="41.99999565999997" height="47.00001451999992" class="text">OF </text>
<text x="1571.00000918" y="1936.0000586400001" width="49.9999680599999" height="127.00002616000006" class="text">JUSTICE
</text>
<text x="1601.99997251" y="1873.99997508" width="47.000013550000176" height="155.9999760400001" class="text">RECEIVED
</text>
<text x="1063.0000047800002" y="1840.00001736" width="57.999940459999834" height="25.999954279999884" class="text">NIL
</text>
<text x="1549.00003237" y="2126.999953" width="42.9999219299998" height="14.999932480000098" class="text">FORM </text>
<text x="1605.9999587099999" y="2126.00001516" width="31.000068750000082" height="14.999955240000418" class="text">CRM</text>
<text x="1643.9999681699999" y="2126.00001516" width="3.999986200000194" height="14.999955240000418" class="text">-</text>
<text x="1648.99998606" y="2126.00001516" width="20.000018849999833" height="14.999955240000418" class="text">159
</text>
<text x="1613.00000484" y="2150.00004824" width="29.999949210000068" height="15.000069040000199" class="text">SEP</text>
<text x="1642.99995405" y="2150.00004824" width="4.000091619999921" height="15.000069040000199" class="text">. </text>
<text x="1652.99997226" y="2150.00004824" width="13.99998684000002" height="15.000069040000199" class="text">89
</text>
</g>
<g id="page-1" transform="translate(0, 2296)">
<rect width="1757" height="2276" fill="none" stroke="black" />
<text x="105.999999756" y="139.999998748" width="42.99999748100001" height="33.99999868799999" class="text">13. </text>
<text x="159.999996184" y="139.999998748" width="19.000001216000015" height="33.99999868799999" class="text">If </text>
<text x="186.00000838999998" y="141.000002592" width="34.99998467000003" height="34.000000963999994" class="text">the </text>
<text x="239.00000124000002" y="142.00000416" width="88.99999163999996" height="35.00000253200001" class="text">material </text>
<text x="336.00001799" y="142.999996624" width="128.99995906000004" height="35.99999499600001" class="text">transmitted </text>
<text x="476.99998836" y="142.00000416" width="43.000027350000096" height="34.000000963999994" class="text">was </text>
<text x="530.00001635" y="142.999996624" width="9.999965499999917" height="33.999998688000005" class="text">a </text>
<text x="553.99998626" y="142.999996624" width="46.000034570000025" height="33.999998688000005" class="text">film </text>
<text x="614.00002524" y="142.999996624" width="24.99998402999995" height="33.999998688000005" class="text">or </text>
<text x="648.99997477" y="143.999998192" width="51.000052460000006" height="35.00000025599999" class="text">radio </text>
<text x="718.99997925" y="143.999998192" width="25.000036739999928" height="33.99999868799999" class="text">or </text>
<text x="751.00000941" y="145.000002036" width="108.99999292000007" height="36.00000410000001" class="text">television </text>
<text x="872.00001364" y="145.000002036" width="68.99997279000002" height="34.00000096400001" class="text">script</text>
<text x="938.0000319200001" y="145.000002036" width="10.000018210000007" height="34.00000096400001" class="text">, </text>
<text x="958.9999770400001" y="146.000003604" width="77.0000506099999" height="35.000002531999996" class="text">furnish </text>
<text x="1050.00003206" y="146.000003604" width="33.99991784000008" height="34.00000096400001" class="text">the </text>
<text x="1097.99995431" y="148.00000674" width="106.99999982000008" height="36.00000410000001" class="text">following </text>
<text x="1214.0000460699998" y="148.00000674" width="132.9999628300002" height="36.00000410000001" class="text">information</text>
<text x="1349.00005471" y="148.00000674" width="9.999895219999871" height="34.000007792000005" class="text">:
</text>
<text x="947.0000184400001" y="208.00000750400002" width="50.999999749999915" height="25.00001416400002" class="text">Date </text>
<text x="1009.99997679" y="208.00000750400002" width="27.999991250000107" height="25.00001416400002" class="text">or </text>
<text x="1045.0000317400002" y="208.00000750400002" width="58.999954579999894" height="25.00001416400002" class="text">dates </text>
<text x="1116.00005034" y="208.00000750400002" width="109.99995433000004" height="25.00001416400002" class="text">broadcast </text>
<text x="1237.000037" y="208.00000750400002" width="70.00000447999992" height="25.00001416400002" class="text">shown
</text>
<text x="107.000001577" y="208.99999314000002" width="66.999993746" height="32.99999712000002" class="text">Name </text>
<text x="188.00000149000002" y="208.00000750400002" width="22.000011949999987" height="31.00000991600004" class="text">of </text>
<text x="218.99999996" y="209.999994708" width="71.99999757999998" height="32.99999712000002" class="text">station</text>
<text x="295.99999786" y="208.99999314000002" width="9.000004090000004" height="30.999993984000014" class="text">, </text>
<text x="316.99999569" y="209.999994708" width="138.99999484000006" height="31.999995552" class="text">organization</text>
<text x="457.99998363000003" y="209.999994708" width="9.00003922999997" height="30.999993983999985" class="text">, </text>
<text x="478.00000248000003" y="210.999996276" width="24.000022619999925" height="31.999995551999973" class="text">or </text>
<text x="513.00000472" y="212.00000012" width="78.99999100000002" height="32.99999939599999" class="text">theater </text>
<text x="600.9999998100001" y="213.000001688" width="59.00000728999987" height="31.999995551999973" class="text">using
</text>
<text x="105.999999756" y="242.00000164" width="9.000005846999997" height="31.000005364000003" class="text">(</text>
<text x="116.000002153" y="242.00000164" width="107.000001577" height="31.000005364000003" class="text">including </text>
<text x="237.00000814" y="242.00000164" width="35.000002239999986" height="31.000005364000003" class="text">city </text>
<text x="283.99998655" y="242.00000164" width="44.00000632999996" height="31.000005364000003" class="text">and </text>
<text x="341.99997972" y="242.00000164" width="48.0000101" height="31.000005364000003" class="text">state</text>
<text x="395.00000771" y="242.00000164" width="8.999986519999993" height="31.000005364000003" class="text">)
</text>
<text x="1408.00000929" y="207.00000593599998" width="109.99995433000004" height="23.00001102799999" class="text">Estimated </text>
<text x="1534.00001384" y="208.00000750400002" width="118.00003214999992" height="24.000012596000033" class="text">attendance
</text>
<text x="1459.00000904" y="247.00000948" width="8.999986519999993" height="31.00000308799997" class="text">(</text>
<text x="1470.00004137" y="247.00000948" width="29.999949210000068" height="31.00000308799997" class="text">for </text>
<text x="1512.9999633" y="247.99999284" width="40.000055270000075" height="31.000000811999996" class="text">film</text>
<text x="1562.00002266" y="247.99999284" width="8.999986519999993" height="31.000000811999996" class="text">(</text>
<text x="1571.00000918" y="247.99999284" width="8.999986519999993" height="31.000000811999996" class="text">s</text>
<text x="1579.9999957" y="248.99999896000003" width="9.000004090000175" height="31.00000536400003" class="text">)</text>
<text x="1591.9999543" y="248.99999896000003" width="9.000004090000175" height="31.00000536400003" class="text">)
</text>
<text x="879.99998604" y="285.00001444" width="10.000018210000007" height="32.00001375999997" class="text">N</text>
<text x="902.99997697" y="284.00000832" width="10.000018210000007" height="32.00001376000003" class="text">/</text>
<text x="921.9999817" y="284.00000832" width="10.000018210000007" height="32.00001376000003" class="text">A
</text>
<text x="109.000001705" y="482.0000138" width="45.99999943000002" height="31.999990999999966" class="text">14. </text>
<text x="158.00000308399999" y="482.99999715999996" width="54.000003456" height="32.99997435999995" class="text">Have </text>
<text x="224.99999683" y="482.99999715999996" width="42.00001322999998" height="31.999990999999966" class="text">two </text>
<text x="279.0000038" y="482.99999715999996" width="71.00000103000002" height="31.999990999999966" class="text">copies </text>
<text x="362.99999512" y="484.00002604" width="23.000008500000035" height="33.000019880000025" class="text">of </text>
<text x="396.00000425999997" y="484.00002604" width="40.00000256000004" height="32.00003651999998" class="text">this </text>
<text x="453.00001845" y="484.00002604" width="87.99999508999991" height="32.00003651999998" class="text">material </text>
<text x="548.99998594" y="485.0000094" width="54.00000697000007" height="33.00001987999997" class="text">been </text>
<text x="621.0000186599999" y="485.0000094" width="45.999999430000116" height="32.00001376" class="text">filed </text>
<text x="676.00000461" y="485.0000094" width="50.99999975000003" height="32.00001376" class="text">with </text>
<text x="739.99997708" y="485.99999276" width="37.00004805000003" height="32.99999711999999" class="text">the </text>
<text x="784.99999753" y="486.99999888" width="140.99997036999991" height="34.00000324000001" class="text">Department </text>
<text x="934.9999544199999" y="486.99999888" width="22.999990930000195" height="31.999991000000023" class="text">of </text>
<text x="967.9999635600001" y="486.99999888" width="73.00008197999989" height="31.999991000000023" class="text">Justice</text>
<text x="1044.0000000500002" y="486.99999888" width="8.999986519999993" height="31.999991000000023" class="text">?
</text>
<text x="1094.9999998" y="480.00000156" width="35.99996364999993" height="24.99999367999999" class="text">Yes
</text>
<text x="1200.00005923" y="480.00000156" width="38.99991816000011" height="24.00001032" class="text">No </text>
<text x="1255.00002761" y="480.00000156" width="6.999958280000101" height="24.00001032" class="text">☐
</text>
<text x="107.000001577" y="548.00000804" width="44.000001059" height="31.000007640000035" class="text">15. </text>
<text x="168.00000548100002" y="548.9999914" width="44.00000105899997" height="30.999984879999943" class="text">Has </text>
<text x="224.99999683" y="548.9999914" width="38.99998844000004" height="30.999984879999943" class="text">this </text>
<text x="280.99999690000004" y="551.0000036399999" width="87.99999508999997" height="32.999997119999875" class="text">material </text>
<text x="376.99998196" y="551.0000036399999" width="52.00003143999999" height="31.00000763999992" class="text">been </text>
<text x="444.99999334" y="552.99999312" width="77.00001546999994" height="32.99999711999999" class="text">labeled </text>
<text x="537.0000273400001" y="552.00000976" width="22.999990929999854" height="31.000007640000035" class="text">as </text>
<text x="569.99998377" y="553.99997648" width="95.00004122000007" height="32.99997436000001" class="text">required </text>
<text x="679.99999081" y="552.99999312" width="22.00002952" height="31.000007640000035" class="text">by </text>
<text x="718.00000027" y="553.99997648" width="31.00001603999999" height="30.999962119999964" class="text">the </text>
<text x="762.0000066" y="553.99997648" width="36.00001636000002" height="30.999962119999964" class="text">act</text>
<text x="798.00002296" y="553.99997648" width="8.999986519999993" height="30.999962119999964" class="text">?
</text>
<text x="847.99999102" y="548.00000804" width="36.99999533999994" height="26.000022560000048" class="text">Yes </text>
<text x="898.9999907700001" y="548.00000804" width="7.000046129999987" height="26.000022560000048" class="text">☐
</text>
<text x="953.0000504499999" y="548.00000804" width="39.99994985000001" height="24.00001032" class="text">No
</text>
<text x="102.999997807" y="614.99998564" width="52.00000332800002" height="30.999962119999964" class="text">Date </text>
<text x="172.00000398" y="617.00002064" width="21.999994380000004" height="30.000024280000048" class="text">of </text>
<text x="201.99998833" y="620.00001624" width="72.00001514999997" height="31.999991000000023" class="text">report
</text>
<text x="397.99999736" y="614.99998564" width="66.00000071" height="26.999960399999964" class="text">Name </text>
<text x="476.99998836" y="613.99997952" width="39.000041150000015" height="25.00001644000008" class="text">and </text>
<text x="529.0000022300001" y="616.00001452" width="43.00002734999998" height="26.000022559999934" class="text">title
</text>
<text x="1050.9999407599998" y="623.00001184" width="104.00004531000013" height="30.999984879999943" class="text">Signature
</text>
<text x="126.00000455" y="696.00002616" width="142.99999861" height="32.99999711999999" class="text">11/3/93
</text>
<text x="394.00001116000004" y="697.9999928799999" width="82.99997719999993" height="34.000025999999934" class="text">Reed </text>
<text x="502.99998651" y="699.0000217600001" width="120.00002525000002" height="35.00005488000011" class="text">Scowen</text>
<text x="632.99997726" y="699.0000217600001" width="10.000018210000007" height="34.00002600000005" class="text">, </text>
<text x="665.9999864" y="700.9999884800001" width="168.00000020999994" height="35.99999272000002" class="text">Delegate </text>
<text x="856.99999511" y="700.9999884800001" width="142.99996347" height="34.99998660000006" class="text">General
</text>
<text x="1399.00002277" y="2187.00000156" width="6.000032010000041" height="21.00006024000004" class="text">*</text>
<text x="1409.9999496799999" y="2187.00000156" width="24.00002262000021" height="21.00006024000004" class="text">U.S</text>
<text x="1434.99998642" y="2187.00000156" width="6.000032010000268" height="21.00006024000004" class="text">. </text>
<text x="1446.00003632" y="2187.99996216" width="32.99999157000002" height="22.00002084000016" class="text">GPO</text>
<text x="1480.99996828" y="2187.99996216" width="6.0000320099998135" height="20.999923679999938" class="text">: </text>
<text x="1493.99995857" y="2189.00003656" width="106.00007355000002" height="23.000095240000064" class="text">1992-312-332</text>
<text x="1602.99998663" y="2189.00003656" width="6.000032010000041" height="21.00003747999972" class="text">/</text>
<text x="1606.9999728300002" y="2189.00003656" width="49.000059359999796" height="21.00003747999972" class="text">61637
</text>
</g>
</svg>
