<svg xmlns="http://www.w3.org/2000/svg">
<style>.text { font-size: 14px; font-family: Arial, sans-serif; }</style>
<g id="page-0" transform="translate(0, 0)">
<rect width="1756" height="2277" fill="none" stroke="black" />
<text x="901.9999544" y="147.000007341" width="163.00006783999993" height="32.000008491" class="text">Dissemination </text>
<text x="1076.99996432" y="148.000006539" width="79.00003428000014" height="31.000009293000005" class="text">Report
</text>
<text x="1536.99998588" y="127.000000611" width="43.000049999999874" height="17.000004582000003" class="text">OMB </text>
<text x="1585.0000175999999" y="126.00000141299999" width="26.99999260000027" height="17.00000458199999" class="text">No. </text>
<text x="1618.999953" y="126.00000141299999" width="68.0000815200001" height="18.000006056999993" class="text">1105-0006
</text>
<text x="1455.99999052" y="153.00000936" width="63.99998375999985" height="21.000005928000007" class="text">Approval </text>
<text x="1526.00003312" y="152.000007885" width="51.99993632000019" height="21.000005928000007" class="text">Expires </text>
<text x="1585.0000175999999" y="151.00000868700002" width="35.000012520000155" height="21.000005928000007" class="text">Nov. </text>
<text x="1627.99996224" y="150.000007212" width="14.000078759999951" height="19.00000525500002" class="text">30</text>
<text x="1645.9999456" y="150.000007212" width="5.000104640000018" height="19.00000525500002" class="text">, </text>
<text x="1658.9999647999998" y="150.000007212" width="31.000002560000212" height="20.000004453000003" class="text">1993
</text>
<text x="119.99999676799999" y="156.99999248999998" width="52.00000129200001" height="31.99999255199998" class="text">U.S. </text>
<text x="179.00000232" y="155.999991015" width="149.00000664" height="31.999990275000016" class="text">Department </text>
<text x="338.00000752" y="153.99999261899998" width="21.999975759999984" height="29.999991878999992" class="text">of </text>
<text x="374.00000936" y="153.99999261899998" width="78.99998160000007" height="31.99999255199998" class="text">Justice
</text>
<text x="115.999997344" y="200.00000354399998" width="134.00000177600003" height="35.00000836199999" class="text">Washington</text>
<text x="250.99998844" y="197.00000367299998" width="10.00001611999997" height="31.000009292999977" class="text">, </text>
<text x="268.00000004" y="196.00000219799998" width="41.000001120000036" height="32.00000849099999" class="text">DC </text>
<text x="324.99998832" y="195.00000300000002" width="68.00001128000002" height="34.00000916400003" class="text">20530
</text>
<text x="117.000000712" y="300.00000987000004" width="165.00000784799997" height="29.000008620000017" class="text">INSTRUCTIONS</text>
<text x="283.00001543999997" y="298.00000692000003" width="7.99998480000005" height="27.000005670000007" class="text">: </text>
<text x="293.00001399999996" y="298.99999701" width="62.99999444000002" height="28.99998585000003" class="text">Report </text>
<text x="370.99998872" y="296.99999406" width="37.99999804000004" height="26.99998290000002" class="text">must </text>
<text x="413.00001427999996" y="296.99999406" width="24.99997884000004" height="26.99998290000002" class="text">be </text>
<text x="445.00002372" y="296.99999406" width="85.99997707999995" height="28.99998585000003" class="text">submitted </text>
<text x="539.00002072" y="296.00000397" width="14.999962720000099" height="27.000005670000007" class="text">in </text>
<text x="564.99998888" y="296.00000397" width="80.99999535999996" height="29.000008620000017" class="text">duplicate </text>
<text x="653.0000324" y="294.99999111" width="14.999962719999985" height="27.99999575999999" class="text">to </text>
<text x="676.9999868" y="294.00002379" width="26.99999260000004" height="27.000028439999994" class="text">the </text>
<text x="712.99998864" y="294.00002379" width="106.99999864000006" height="28.000018529999977" class="text">Registration </text>
<text x="831.99998204" y="292.99998816" width="41.000036239999986" height="27.999972990000003" class="text">Unit</text>
<text x="871.0000045200001" y="292.00002084" width="7.999967239999933" height="27.000005670000007" class="text">, </text>
<text x="885.0000481599999" y="292.99998816" width="71.99998612000002" height="28.999985849999973" class="text">Internal </text>
<text x="964.99994884" y="292.00002084" width="73.00008080000009" height="29.000008620000017" class="text">Security </text>
<text x="1048.9999824000001" y="290.99998521" width="62.99999443999991" height="28.999985849999973" class="text">Section</text>
<text x="1114.0000257200002" y="290.00001789000004" width="7.999932119999812" height="27.000005670000064" class="text">, </text>
<text x="1128.9999884400002" y="290.00001789000004" width="85.0000053199999" height="29.000008620000017" class="text">Criminal </text>
<text x="1217.00003196" y="289.00000503" width="77.99995716000012" height="27.99999575999999" class="text">Division</text>
<text x="1298.00002732" y="288.00001494" width="8.000019919999886" height="27.000005670000007" class="text">, </text>
<text x="1311.00002896" y="288.00001494" width="110.99992079999993" height="28.000018530000034" class="text">Department </text>
<text x="1427.0000544" y="287.00000208" width="18.999972679999928" height="27.000005670000007" class="text">of </text>
<text x="1455.0000187599999" y="287.00000208" width="58.999984480000194" height="29.000008620000017" class="text">Justice</text>
<text x="1515.99996432" y="286.00001199" width="8.000019920000113" height="27.000005670000007" class="text">, </text>
<text x="1530.0000430799998" y="286.00001199" width="101.99992912000016" height="29.000008620000017" class="text">Washington</text>
<text x="1634.99999284" y="284.99999913" width="8.000037479999946" height="27.000005670000007" class="text">, </text>
<text x="1649.9999731199998" y="284.99999913" width="42.00006068000016" height="27.99999575999999" class="text">D.C.
</text>
<text x="119.00000569199999" y="327.00001554" width="63.999989028" height="27.00000566999995" class="text">20530. </text>
<text x="189.00000088000002" y="325.99997991" width="32.99999875999998" height="25.999970039999937" class="text">The </text>
<text x="230.99999131999996" y="325.99997991" width="71.00001436000005" height="27.999972989999947" class="text">original </text>
<text x="311.00001492" y="325.00001259" width="42.999979759999974" height="27.00000566999995" class="text">must </text>
<text x="358.00000464" y="323.99997695999997" width="23.999989520000042" height="25.999970039999937" class="text">be </text>
<text x="387.99998276" y="323.99997695999997" width="57.00004095999998" height="27.999972989999947" class="text">signed </text>
<text x="450.9999772" y="323.00000964000003" width="24.000024639999936" height="26.000015580000024" class="text">by </text>
<text x="483.00002176000004" y="323.00000964000003" width="18.999972679999985" height="26.000015580000024" class="text">or </text>
<text x="508.99998991999996" y="323.00000964000003" width="19.000025359999995" height="27.000005670000007" class="text">on </text>
<text x="537.99999628" y="323.00000964000003" width="57.00002340000003" height="28.000018530000034" class="text">behalf </text>
<text x="602.99998692" y="321.00000669" width="19.00002536000011" height="26.000015580000024" class="text">of </text>
<text x="627.0000115600001" y="321.00000669" width="26.000020839999934" height="26.000015580000024" class="text">the </text>
<text x="663.9999676" y="321.00000669" width="85.00000532000001" height="28.000018530000034" class="text">registrant</text>
<text x="750.00001492" y="319.99999383" width="6.999977919999992" height="25.999970039999994" class="text">. </text>
<text x="763.00001656" y="319.99999383" width="29.999978120000037" height="27.000005670000007" class="text">All </text>
<text x="799.9999901599999" y="319.00000374" width="49.999975240000026" height="26.99998290000002" class="text">items </text>
<text x="857.00001356" y="319.00000374" width="9.999981000000048" height="26.000015580000024" class="text">in </text>
<text x="879.9999610799999" y="317.99999088" width="33.00005143999999" height="25.999970039999994" class="text">this </text>
<text x="918.0000118" y="317.99999088" width="43.00003243999993" height="25.999970039999994" class="text">form </text>
<text x="973.99995808" y="317.00000079" width="43.00003243999993" height="26.000015580000024" class="text">must </text>
<text x="1021.00000048" y="317.00000079" width="23.999971959999925" height="26.000015580000024" class="text">be </text>
<text x="1049.99995416" y="317.00000079" width="80.99999535999996" height="27.99999575999999" class="text">answered</text>
<text x="1137.0000259199999" y="314.99999784" width="6.999942800000099" height="25.99999280999998" class="text">, </text>
<text x="1147.99997868" y="315.99998793" width="58.99996692000013" height="27.999972989999947" class="text">unless </text>
<text x="1212.00005024" y="314.99999784" width="29.99992543999997" height="26.999982899999964" class="text">the </text>
<text x="1248.00003452" y="314.99999784" width="65.99992727999984" height="27.99999575999999" class="text">answer </text>
<text x="1318.99996108" y="312.99999489000004" width="14.000078759999951" height="25.999992810000037" class="text">is </text>
<text x="1342.00004908" y="312.99999489000004" width="6.999942800000099" height="25.999992810000037" class="text">"</text>
<text x="1353.00000184" y="312.99999489000004" width="48.000031719999924" height="26.99998290000002" class="text">none</text>
<text x="1400.0000442399999" y="312.99999489000004" width="6.999942800000099" height="25.999992810000037" class="text">" </text>
<text x="1419.00001692" y="311.99998203" width="18.99999023999999" height="25.999970039999994" class="text">or </text>
<text x="1446.0000270799999" y="311.99998203" width="6.999942800000099" height="25.999970039999994" class="text">"</text>
<text x="1457.9999516" y="311.99998203" width="30.000030800000104" height="25.999970039999994" class="text">not 
</text>
<text x="1491.0000206" y="311.99998203" width="94.99996876" height="27.99999575999999" class="text">applicable</text>
<text x="1589.00002756" y="309.99997908" width="6.999942799999872" height="25.99999280999998" class="text">,</text>
<text x="1591.9999604" y="309.99997908" width="7.000048160000006" height="25.99999280999998" class="text">" </text>
<text x="1609.99996132" y="309.99997908" width="15.000068079999892" height="25.99999280999998" class="text">in </text>
<text x="1636.99995392" y="309.99997908" width="51.00006991999999" height="27.99999575999999" class="text">which
</text>
<text x="120.99999838" y="356.00000139" width="36.99999994000001" height="27.000005670000007" class="text">case </text>
<text x="166.999997024" y="355.0000113" width="36.000012376" height="27.000028439999994" class="text">such </text>
<text x="217.00000036" y="355.0000113" width="20.000014679999992" height="27.000028439999994" class="text">an </text>
<text x="247.99998535999998" y="353.99999844" width="43.00001488000004" height="26.99998290000002" class="text">entry </text>
<text x="302.00000568" y="353.99999844" width="44.99999352000003" height="28.000018530000034" class="text">shall </text>
<text x="350.99999160000004" y="353.00000835" width="25.000013959999933" height="27.000028439999994" class="text">be </text>
<text x="386.00000411999997" y="353.00000835" width="44.99999352000003" height="27.000028439999994" class="text">made </text>
<text x="439.0" y="351.99999549" width="15.99998715999999" height="26.99998290000002" class="text">in </text>
<text x="465.99999260000004" y="351.99999549" width="27.00001015999993" height="26.99998290000002" class="text">the </text>
<text x="503.00001888" y="351.99999549" width="103.00000624" height="28.999985849999973" class="text">appropriate </text>
<text x="613.9999923600001" y="349.99999254" width="48.000031719999924" height="27.99999575999999" class="text">space</text>
<text x="665.99998136" y="349.99999254" width="8.00001992" height="26.999982899999964" class="text">. </text>
<text x="679.00000056" y="349.99999254" width="19.000025359999995" height="26.999982899999964" class="text">If </text>
<text x="703.0000076399999" y="349.99999254" width="94.99998632000006" height="28.999985849999973" class="text">additional </text>
<text x="803.00002836" y="347.99998959" width="47.99997903999997" height="27.99999575999999" class="text">space </text>
<text x="862.9999846" y="347.99998959" width="15.000015400000052" height="26.999982899999964" class="text">is </text>
<text x="886.99999168" y="347.99998959" width="62.99999444000002" height="28.999985849999973" class="text">needed </text>
<text x="959.99996712" y="346.99999949999994" width="26.999992599999928" height="27.999995759999933" class="text">for </text>
<text x="994.9999796400001" y="345.99998664000003" width="30.00004836000005" height="26.99998290000002" class="text">any </text>
<text x="1033.00004792" y="345.99998664000003" width="39.99999423999998" height="27.999995760000047" class="text">item</text>
<text x="1075.999975" y="345.00001932000004" width="8.000019920000113" height="27.00002844000005" class="text">, </text>
<text x="1088.9999942" y="345.00001932000004" width="50.99994700000002" height="28.000018530000034" class="text">attach </text>
<text x="1150.99999932" y="345.00001932000004" width="124.00004536000006" height="29.00003139000006" class="text">supplemental </text>
<text x="1280.99999816" y="343.00001637" width="52.000041680000095" height="28.000018530000034" class="text">sheet </text>
<text x="1338.00003912" y="343.00001637" width="96.99992983999982" height="29.00003139000006" class="text">identifying </text>
<text x="1445.00003776" y="341.00001342" width="41.99997288000009" height="27.00002844000005" class="text">each </text>
<text x="1499.00004052" y="341.00001342" width="36.00000183999987" height="28.000018529999977" class="text">item</text>
<text x="1537.99995764" y="340.00000056" width="8.000037479999946" height="27.00000566999995" class="text">.
</text>
<text x="118.00000408" y="414.99998595000005" width="69.00000059999999" height="29.999998710000057" class="text">Privacy </text>
<text x="194.00000015999998" y="414.00001863" width="31.000002559999984" height="28.000018529999977" class="text">Act </text>
<text x="230.99999131999996" y="414.00001863" width="89.00001528000004" height="30.000021479999987" class="text">Statement</text>
<text x="322.00002036" y="413.00000577000003" width="7.999984799999993" height="28.000018530000034" class="text">. </text>
<text x="333.99999756" y="412.00001568" width="52.000006559999974" height="29.000031390000004" class="text">Every </text>
<text x="395.00001336" y="412.00001568" width="99.9999856" height="30.000021479999987" class="text">registration </text>
<text x="503.99999064" y="411.00000282" width="89.00001528000001" height="30.000021479999987" class="text">statement</text>
<text x="589.99998528" y="410.00001273" width="8.000019919999886" height="28.000018529999977" class="text">, </text>
<text x="605.0000006800001" y="408.99999987" width="46.99998971999992" height="28.999985849999973" class="text">short </text>
<text x="658.00001412" y="408.99999987" width="40.00001180000004" height="28.999985849999973" class="text">form </text>
<text x="707.99998936" y="408.99999987" width="100.99999248000006" height="30.000021479999987" class="text">registration </text>
<text x="817.0000193200001" y="406.99999692" width="87.00000151999984" height="28.999985849999973" class="text">statement</text>
<text x="904.0000208399999" y="406.00000682999996" width="8.000019920000113" height="27.999995759999933" class="text">, </text>
<text x="918.0000118" y="406.00000682999996" width="122.99995067999998" height="29.999998709999943" class="text">supplemental </text>
<text x="1044.00000068" y="404.99999397" width="85.99997708000001" height="29.99999871" class="text">statement</text>
<text x="1130.99994952" y="402.99999102000004" width="8.000019920000113" height="27.999995760000047" class="text">, </text>
<text x="1145.00004584" y="404.00000387999995" width="63.99996620000002" height="29.999998709999943" class="text">exhibit</text>
<text x="1205.99997384" y="402.99999102000004" width="8.000019920000113" height="27.999995760000047" class="text">, </text>
<text x="1218.00000372" y="402.99999102000004" width="111.00002616000006" height="29.999998710000057" class="text">amendment</text>
<text x="1326.999981" y="400.99998807000003" width="8.000019919999886" height="27.999995760000047" class="text">, </text>
<text x="1339.9999826399999" y="402.00000093" width="125.00001711999994" height="29.99999871" class="text">dissemination </text>
<text x="1473.0000196800002" y="399.99999798" width="58.00001271999986" height="29.999998709999943" class="text">report</text>
<text x="1531.0000324" y="398.99998512" width="8.000019920000113" height="27.999995760000047" class="text">, </text>
<text x="1541.9999676" y="398.99998512" width="42.00007823999999" height="28.999985849999973" class="text">copy </text>
<text x="1591.9999604" y="398.0000178" width="20.00004980000017" height="28.000018529999977" class="text">of </text>
<text x="1617.00000948" y="398.0000178" width="75.00002431999997" height="29.000008620000017" class="text">political
</text>
<text x="119.00000569199999" y="443.00000448" width="102.99999394800001" height="28.999985849999973" class="text">propaganda </text>
<text x="231.9999982" y="441.99999162" width="19.999997120000018" height="27.00000566999995" class="text">or </text>
<text x="256.9999946" y="441.00000152999996" width="49.00000348000003" height="27.999995759999933" class="text">other </text>
<text x="310.00000804" y="441.00000152999996" width="93.99999700000001" height="28.999985849999973" class="text">document </text>
<text x="407.99999744" y="439.99998867" width="19.99999711999999" height="26.999982899999964" class="text">or </text>
<text x="436.99998624" y="439.99998867" width="104.00003068000001" height="28.999985849999973" class="text">information </text>
<text x="549.00000172" y="437.99998572000004" width="40.99998356000003" height="26.99998290000002" class="text">filed </text>
<text x="598.99997696" y="437.99998572000004" width="36.00005452000005" height="27.99997299000006" class="text">with </text>
<text x="644.0000231600001" y="436.99999563" width="25.999968159999867" height="26.99998290000002" class="text">the </text>
<text x="680.000025" y="436.99999563" width="76.99996783999995" height="28.99998585000003" class="text">Attorney </text>
<text x="765.00003032" y="435.99998277000003" width="75.99994340000012" height="28.99998585000003" class="text">General </text>
<text x="844.99998368" y="434.99999268" width="51.999988999999914" height="27.99999575999999" class="text">under </text>
<text x="906.9999536799999" y="433.99997982" width="30.000030800000104" height="26.99998290000002" class="text">this </text>
<text x="941.9999662" y="433.99997982" width="30.000030799999877" height="26.99998290000002" class="text">act </text>
<text x="980.0000169199999" y="433.99997982" width="9.999981000000162" height="27.99997299000006" class="text">is </text>
<text x="999.99997892" y="432.99998973" width="8.00001992" height="26.99998290000002" class="text">a </text>
<text x="1013.99996988" y="433.99997982" width="57.999995160000026" height="28.99998585000003" class="text">public </text>
<text x="1080.9999742799998" y="432.99998973" width="57.000023400000146" height="28.99998585000003" class="text">record </text>
<text x="1143.99996872" y="431.99997687" width="44.99999352000009" height="27.99997299000006" class="text">open </text>
<text x="1196.99998216" y="431.00000955" width="15.00006808000012" height="27.000005670000064" class="text">to </text>
<text x="1221.0000419199998" y="431.00000955" width="55.99994628000013" height="29.000008620000017" class="text">public </text>
<text x="1285.0000081199998" y="431.00000955" width="108.99997728000017" height="29.000008620000017" class="text">examination</text>
<text x="1397.00000604" y="429.0000066" width="8.000037479999946" height="27.000005670000007" class="text">, </text>
<text x="1410.999997" y="429.0000066" width="90.99997636000012" height="29.000008620000017" class="text">inspection </text>
<text x="1512.00004216" y="428.00001650999997" width="30.999914760000138" height="28.000018529999977" class="text">and </text>
<text x="1553.0000257200002" y="428.00001650999997" width="72.99997543999984" height="29.000031389999947" class="text">copying 
</text>
<text x="1630.99998288" y="427.00000365000005" width="57.00004095999998" height="28.99998585000003" class="text">during
</text>
<text x="119.99999676799999" y="469.99998738" width="26.000006792000022" height="25.99999280999998" class="text">the </text>
<text x="155.000002264" y="469.99998738" width="55.999991936000015" height="27.99999575999999" class="text">posted </text>
<text x="219.99998588000003" y="469.00002006" width="79.00001671999993" height="28.000018530000034" class="text">business </text>
<text x="305.99999808" y="467.99998443" width="50.000010359999976" height="26.99998290000002" class="text">hours </text>
<text x="363.00000392" y="467.00001711" width="18.999990240000045" height="26.000015580000024" class="text">of </text>
<text x="389.99999651999997" y="467.00001711" width="25.99998572000004" height="26.000015580000024" class="text">the </text>
<text x="424.99999148" y="467.00001711" width="108.00000552" height="28.000018530000034" class="text">Registration </text>
<text x="542.9999779999999" y="465.00001416" width="40.00001180000004" height="26.000015580000024" class="text">Unit </text>
<text x="593.00000592" y="465.00001416" width="13.999990959999991" height="26.000015580000024" class="text">in </text>
<text x="615.0000167999999" y="465.00001416" width="104.99996732000011" height="28.000018529999977" class="text">Washington</text>
<text x="723.00000476" y="464.0000013" width="6.999995479999939" height="26.000015579999967" class="text">, </text>
<text x="739.00000948" y="463.00001120999997" width="42.00000799999998" height="26.000015579999967" class="text">D.C. </text>
<text x="784.99997476" y="463.00001120999997" width="41.000036239999986" height="26.000015579999967" class="text">One </text>
<text x="830.99999272" y="461.99999835" width="42.999997320000034" height="26.000015579999967" class="text">copy </text>
<text x="882.99998172" y="461.99999835" width="18.999972679999928" height="26.000015579999967" class="text">of </text>
<text x="909.00000256" y="461.99999835" width="46.999954600000024" height="27.000005670000007" class="text">every </text>
<text x="967.00001528" y="461.00000826" width="39.0000224800001" height="26.000015580000024" class="text">such </text>
<text x="1015.0000469999999" y="461.00000826" width="92.99991988000022" height="28.000018530000034" class="text">document </text>
<text x="1112.9999486000002" y="459.00000531" width="14.000096319999784" height="26.000015580000024" class="text">is </text>
<text x="1134.99995948" y="459.99999540000005" width="122.00008428000001" height="28.000018530000034" class="text">automatically </text>
<text x="1267.99999652" y="457.99999245000004" width="79.00003428000014" height="27.99997299000006" class="text">provided </text>
<text x="1354.9999453599999" y="457.00000236" width="15.00006808000012" height="25.99999280999998" class="text">to </text>
<text x="1380.9999662" y="457.00000236" width="26.000020839999934" height="26.99998290000002" class="text">the </text>
<text x="1419.00001692" y="457.00000236" width="80.99999535999996" height="27.99999575999999" class="text">Secretary </text>
<text x="1509.00002152" y="454.99999941" width="23.99995439999998" height="25.99999280999998" class="text">of </text>
<text x="1537.99995764" y="454.99999941" width="42.000078239999766" height="25.99999280999998" class="text">State 
</text>
<text x="1586.99997868" y="454.99999941" width="82.0000724800002" height="27.999995759999933" class="text">pursuant 
</text>
<text x="1675.00000464" y="453.99998655" width="13.999990959999877" height="25.99997004000005" class="text">to
</text>
<text x="122.00000174799999" y="498.00000590999997" width="62.999989172" height="28.999985849999973" class="text">Section </text>
<text x="193.00001084" y="496.99999305" width="7.999984799999993" height="27.000005670000007" class="text">6</text>
<text x="205.99999492" y="496.99999305" width="8.000002359999996" height="27.000005670000007" class="text">(</text>
<text x="212.00000108" y="496.99999305" width="7.999984800000021" height="27.000005670000007" class="text">b</text>
<text x="225.00000271999997" y="496.99999305" width="8.000002360000053" height="27.000005670000007" class="text">) </text>
<text x="238.99999368000002" y="496.99999305" width="15.000015399999995" height="27.000005670000007" class="text">of </text>
<text x="261.00000456" y="496.00000295999996" width="25.99998572000004" height="26.999982899999964" class="text">the </text>
<text x="296.99998884" y="496.00000295999996" width="31.000020119999988" height="26.999982899999964" class="text">Act</text>
<text x="328.00000896" y="496.00000295999996" width="7.999984799999993" height="26.999982899999964" class="text">, </text>
<text x="338.00000752" y="496.00000295999996" width="29.99999568000004" height="28.000018529999977" class="text">and </text>
<text x="378.00001932" y="496.00000295999996" width="57.99997760000002" height="28.999985849999973" class="text">copies </text>
<text x="439.99997176000005" y="494.99999010000005" width="20.000014679999936" height="27.99997299000006" class="text">of </text>
<text x="465.99999260000004" y="494.00000001" width="36.00000183999998" height="26.99998290000002" class="text">such </text>
<text x="512.9999998799999" y="494.00000001" width="96.99998252" height="28.99998585000003" class="text">documents </text>
<text x="616.00000612" y="492.99998715000004" width="26.99999260000004" height="27.99997299000006" class="text">are </text>
<text x="651.9999904" y="492.99998715000004" width="78.99998160000007" height="28.99998585000003" class="text">routinely </text>
<text x="745.00001564" y="491.00000697" width="41.99997287999997" height="27.000005670000007" class="text">made </text>
<text x="793.99996644" y="491.00000697" width="78.00000983999996" height="29.000008620000017" class="text">available </text>
<text x="878.99997176" y="489.99999411" width="16.00005740000006" height="26.99998290000002" class="text">to </text>
<text x="905.9999819200001" y="489.99999411" width="46.000070639999876" height="27.99999575999999" class="text">other </text>
<text x="955.99995716" y="489.99999411" width="79.00003428000002" height="28.999985849999973" class="text">agencies</text>
<text x="1034.99999144" y="487.99999116" width="8.000019919999886" height="26.999982899999964" class="text">, </text>
<text x="1048.00001064" y="489.00002679" width="110.0000368399999" height="29.000031389999947" class="text">departments </text>
<text x="1164.0000185200001" y="487.00002384" width="30.000030799999877" height="27.000028439999937" class="text">and </text>
<text x="1201.99996388" y="487.00002384" width="86.00008244000014" height="29.000031389999947" class="text">Congress </text>
<text x="1293.0000456" y="485.99998820999997" width="81.99996711999984" height="28.999985849999973" class="text">pursuant </text>
<text x="1382.00004332" y="485.00002089" width="9.999980999999934" height="27.000028439999937" class="text">to </text>
<text x="1403.99994884" y="485.00002089" width="66.00003263999997" height="29.000031389999947" class="text">Section </text>
<text x="1478.0000014" y="484.00000802999995" width="8.000019920000113" height="27.00000566999995" class="text">6</text>
<text x="1488.99995416" y="483.00001794" width="8.000019920000113" height="27.000028439999994" class="text">(</text>
<text x="1496.9999740800001" y="483.00001794" width="8.000037479999719" height="27.000028439999994" class="text">c</text>
<text x="1508.0000322" y="483.00001794" width="7.999932119999812" height="27.000028439999994" class="text">) </text>
<text x="1519.9999742799998" y="483.00001794" width="20.00004980000017" height="27.000028439999994" class="text">of </text>
<text x="1542.9999569200002" y="483.00001794" width="26.999992599999814" height="27.000028439999994" class="text">the </text>
<text x="1578.9999412" y="482.00000508" width="30.000030799999877" height="27.000005670000007" class="text">Act</text>
<text x="1609.99996132" y="482.00000508" width="8.000019920000113" height="27.000005670000007" class="text">. 
</text>
<text x="1626.9999729200001" y="482.00000508" width="58.00001271999986" height="28.000018529999977" class="text">Finally
</text>
<text x="1685.9999574" y="481.00001499" width="8.000019919999886" height="27.000028439999994" class="text">,
</text>
<text x="122.00000174799999" y="526.99999176" width="25.999994500000014" height="26.000015579999967" class="text">the </text>
<text x="155.000002264" y="526.99999176" width="76.999995936" height="27.999995759999933" class="text">Attorney </text>
<text x="240.00000056" y="526.00000167" width="75.99999608000002" height="27.99999575999999" class="text">General </text>
<text x="318.99999972" y="524.99998881" width="83.99999844000001" height="27.99999575999999" class="text">transmits </text>
<text x="411.00000052" y="523.99999872" width="19.00000779999999" height="27.000005670000007" class="text">an </text>
<text x="435.99999692" y="523.99999872" width="63.999983759999964" height="27.999995760000047" class="text">annual </text>
<text x="508.00001816" y="522.99998586" width="53.999985200000026" height="27.99999575999999" class="text">report </text>
<text x="568.00002708" y="522.00001854" width="13.999973400000044" height="26.00001558000008" class="text">to </text>
<text x="591.00000972" y="522.00001854" width="29.999978120000037" height="27.000028439999994" class="text">the </text>
<text x="627.0000115600001" y="522.00001854" width="85.9999770799999" height="28.000018530000034" class="text">Congress </text>
<text x="719.99998412" y="520.00001559" width="19.000025359999995" height="26.000015579999967" class="text">on </text>
<text x="750.99998668" y="520.00001559" width="26.000020840000047" height="26.000015579999967" class="text">the </text>
<text x="784.000003" y="520.00001559" width="134.99998056000004" height="29.00000861999996" class="text">Administration </text>
<text x="927.9999752400001" y="518.00001264" width="18.99999023999976" height="26.000015580000024" class="text">of </text>
<text x="953.00002432" y="516.9999997799999" width="29.99992543999997" height="25.999992809999924" class="text">the </text>
<text x="989.99999792" y="516.9999997799999" width="32.99996363999992" height="25.999992809999924" class="text">Act </text>
<text x="1025.0000280000002" y="516.9999997799999" width="54.999956959999736" height="27.999972989999947" class="text">which </text>
<text x="1092.0000324" y="516.00000969" width="33.99993539999991" height="26.000015579999967" class="text">lists </text>
<text x="1132.00002664" y="514.99999683" width="29.99992543999997" height="25.999970039999994" class="text">the </text>
<text x="1169.9999719999998" y="514.99999683" width="54.99997452000002" height="27.000005670000007" class="text">names </text>
<text x="1235.00003288" y="514.00000674" width="18.999972680000155" height="26.000015580000024" class="text">of </text>
<text x="1258.9999872800001" y="514.00000674" width="25.000049080000053" height="26.000015580000024" class="text">all </text>
<text x="1290.0000074" y="514.00000674" width="53.000013439999975" height="28.000018530000034" class="text">agents </text>
<text x="1356.0000224799999" y="512.9999938799999" width="85.00000532000013" height="27.999972989999947" class="text">registered </text>
<text x="1451.0000088" y="512.00000379" width="53.000013439999975" height="27.999995760000104" class="text">under </text>
<text x="1509.00002152" y="510.99999092999997" width="30.000030800000104" height="25.999970039999994" class="text">the </text>
<text x="1545.99999512" y="510.99999092999997" width="32.99994607999997" height="26.99998290000002" class="text">Act</text>
<text x="1578.9999412" y="510.00000084" width="7.000048160000006" height="25.999992810000037" class="text">, </text>
<text x="1591.9999604" y="510.00000084" width="26.00002084000016" height="25.999992810000037" class="text">the 
</text>
<text x="1629.00003936" y="510.00000084" width="62.99999443999991" height="27.99999575999999" class="text">foreign
</text>
<text x="120.99999838" y="557.9999805599999" width="89.00000650000001" height="29.9999759399999" class="text">principals </text>
<text x="217.00000036" y="556.9999904700001" width="39.00000492000004" height="29.999998710000114" class="text">they </text>
<text x="265.00001452000004" y="555.99997761" width="85.99997708000001" height="28.99998585000003" class="text">represent</text>
<text x="351.99999848" y="555.00001029" width="7.999984799999993" height="28.000018530000034" class="text">, </text>
<text x="365.00000012" y="555.00001029" width="31.000002559999984" height="29.000008620000017" class="text">and </text>
<text x="405.00001191999996" y="553.99997466" width="27.999999480000042" height="27.99997299000006" class="text">the </text>
<text x="443.00000996" y="553.99997466" width="56.999970719999965" height="29.999975940000013" class="text">nature</text>
<text x="499.99998067999996" y="553.00000734" width="8.00003748000006" height="28.000018530000034" class="text">, </text>
<text x="512.9999998799999" y="553.00000734" width="71.99998612000002" height="30.000021479999987" class="text">sources </text>
<text x="591.9999814800001" y="552.00001725" width="31.00000255999987" height="29.000031390000004" class="text">and </text>
<text x="633.9999894800001" y="552.00001725" width="67.00000439999997" height="29.99999871" class="text">content </text>
<text x="705.99999316" y="550.0000143" width="21.000021559999936" height="27.999995759999933" class="text">of </text>
<text x="732.99998576" y="550.0000143" width="26.99999260000004" height="27.999995759999933" class="text">the </text>
<text x="770.9999838" y="550.0000143" width="76.00001364000002" height="29.99999871" class="text">political </text>
<text x="855.00001736" y="549.00000144" width="103.99997799999994" height="30.000021479999987" class="text">propaganda </text>
<text x="967.00001528" y="546.9999984899999" width="117.99996896000005" height="30.999988799999983" class="text">disseminated </text>
<text x="1096.00004236" y="544.99999554" width="20.999916200000143" height="27.999995760000047" class="text">or </text>
<text x="1124.00000672" y="544.99999554" width="94.99998632000006" height="29.99999871" class="text">distributed </text>
<text x="1230.00005116" y="542.99999259" width="19.99994443999981" height="27.999995760000047" class="text">by </text>
<text x="1258.9999872800001" y="542.99999259" width="43.000049999999874" height="28.99998585000003" class="text">them</text>
<text x="1306.00004724" y="542.0000025" width="7.999914559999979" height="27.999995760000047" class="text">. </text>
<text x="1321.00000996" y="542.0000025" width="40.00001180000004" height="29.00000862000013" class="text">This </text>
<text x="1371.00000276" y="542.0000025" width="57.000023400000146" height="29.99999871" class="text">report </text>
<text x="1436.00004608" y="540.99998964" width="10.999952760000042" height="27.999995760000047" class="text">is </text>
<text x="1456.99997984" y="540.99998964" width="80.99997780000012" height="29.99999871" class="text">available 
</text>
<text x="1546.99996688" y="538.99998669" width="17.00001159999988" height="27.999995760000047" class="text">to </text>
<text x="1572.99998772" y="538.99998669" width="26.999992599999814" height="27.999995760000047" class="text">the </text>
<text x="1608.0000002400002" y="538.99998669" width="54.000002759999916" height="29.999998710000057" class="text">public</text>
<text x="1667.99995648" y="538.00001937" width="8.000037479999946" height="28.000018530000034" class="text">.
</text>
<text x="123.00000511600001" y="612.00003744" width="54.000001003999984" height="29.000054160000104" class="text">Public </text>
<text x="184.00000160000002" y="612.00003744" width="90.00000459999995" height="29.000054160000104" class="text">Reporting </text>
<text x="277.99999859999997" y="610.99997904" width="63.99998376000002" height="28.99998585000003" class="text">Burden</text>
<text x="345.00000300000005" y="609.99998895" width="7.999984799999993" height="27.000005670000064" class="text">. </text>
<text x="358.00000464" y="609.99998895" width="51.99998900000003" height="28.99998585000003" class="text">Public </text>
<text x="420.99999908" y="609.00002163" width="80.00002359999996" height="29.000008619999903" class="text">reporting </text>
<text x="508.99998991999996" y="608.00003154" width="60.00000892000003" height="29.00005415999999" class="text">burden </text>
<text x="577.00001876" y="606.99997314" width="23.99997196000004" height="26.999960129999863" class="text">for </text>
<text x="606.99999688" y="606.99997314" width="29.999978119999923" height="27.999995759999933" class="text">this </text>
<text x="647.0000086800001" y="606.99997314" width="83.99996332" height="28.999985849999916" class="text">collection </text>
<text x="741.99997744" y="605.00001573" width="15.000015400000052" height="27.000028439999937" class="text">of </text>
<text x="765.00003032" y="605.00001573" width="100.99999248000006" height="28.999985849999916" class="text">information </text>
<text x="873.9999900400001" y="604.0000256400001" width="14.999962719999985" height="27.00002844000005" class="text">is </text>
<text x="896.0000009199999" y="604.0000256400001" width="84.00001599999996" height="29.000054160000104" class="text">estimated </text>
<text x="985.0000162" y="602.9999900099999" width="14.999962719999985" height="26.999960129999863" class="text">to </text>
<text x="1008.9999706" y="602.9999900099999" width="65.00006087999998" height="29.000008619999903" class="text">average </text>
<text x="1082.0000513999998" y="601.99999992" width="14.999962720000212" height="28.000018530000034" class="text">.5 </text>
<text x="1102.9999676" y="601.0000098300001" width="51.00006991999999" height="27.999995760000047" class="text">hours </text>
<text x="1160.00000856" y="601.0000098300001" width="30.000030800000104" height="27.999995760000047" class="text">per </text>
<text x="1195.99999284" y="601.0000098300001" width="76.99998540000001" height="28.99998585000003" class="text">response</text>
<text x="1273.99995" y="600.0000197400001" width="8.000037480000174" height="27.000005670000064" class="text">, </text>
<text x="1288.0000463200001" y="600.0000197400001" width="79.99991823999994" height="29.000054160000104" class="text">including </text>
<text x="1376.99995624" y="597.99999402" width="26.000020839999934" height="27.00002844000005" class="text">the </text>
<text x="1409.0000534800001" y="597.99999402" width="40.99998355999969" height="27.00002844000005" class="text">time </text>
<text x="1455.0000187599999" y="597.99999402" width="26.99999260000004" height="27.999995760000047" class="text">for </text>
<text x="1486.00002132" y="597.99999402" width="86.99996639999995" height="28.99998585000003" class="text">reviewing </text>
<text x="1582.99996872" y="597.00000393" width="104.00006580000013" height="29.000008620000017" class="text">instructions</text>
<text x="1687.00003452" y="594.99997821" width="7.999932119999812" height="26.999982899999964" class="text">,
</text>
<text x="119.99999676799999" y="641.0000232900001" width="87.99999435200002" height="27.999995760000047" class="text">searching </text>
<text x="216.00001104" y="639.99996489" width="67.99999371999996" height="27.999927449999973" class="text">existing </text>
<text x="294.00002088" y="638.99999757" width="36.99999115999998" height="26.999960129999977" class="text">data </text>
<text x="338.00000752" y="638.99999757" width="68.00001128000002" height="28.000018530000034" class="text">sources</text>
<text x="408.99998676" y="637.00001739" width="6.9999954799999955" height="26.000038350000068" class="text">, </text>
<text x="424.00000216" y="638.00000748" width="84.99998775999995" height="28.000018530000034" class="text">gathering </text>
<text x="513.99997164" y="635.99998176" width="33.000016319999986" height="25.99999280999998" class="text">and </text>
<text x="560.99997892" y="635.99998176" width="102.99998868" height="27.99995021999996" class="text">maintaining </text>
<text x="674.99997304" y="634.00000158" width="25.00004907999994" height="25.999970039999994" class="text">the </text>
<text x="710.00000312" y="634.00000158" width="37.00002628000004" height="25.999970039999994" class="text">data </text>
<text x="752.9999828800001" y="634.00000158" width="64.00003644000003" height="27.999995760000047" class="text">needed</text>
<text x="822.9999728" y="633.00001149" width="7.000048159999892" height="26.000038350000068" class="text">, </text>
<text x="835.00000268" y="631.99997586" width="33.000016319999986" height="25.999970039999994" class="text">and </text>
<text x="875.99998624" y="631.99997586" width="100.00002071999995" height="27.999950219999846" class="text">completing </text>
<text x="985.0000162" y="630.99998577" width="32.99996363999992" height="26.999960129999863" class="text">and </text>
<text x="1027.99994328" y="630.99998577" width="90.00009240000009" height="27.999995760000047" class="text">reviewing </text>
<text x="1124.00000672" y="629.00002836" width="30.000030799999877" height="26.000038350000068" class="text">the </text>
<text x="1161.99995208" y="629.00002836" width="87.00007176000008" height="28.00001852999992" class="text">collection </text>
<text x="1260.99994836" y="626.99997987" width="19.000078040000062" height="25.99997003999988" class="text">of </text>
<text x="1285.99999744" y="626.99997987" width="106.00002687999995" height="26.999960129999863" class="text">information</text>
<text x="1394.99995716" y="626.0000125500001" width="7.000048160000006" height="25.99999280999998" class="text">. </text>
<text x="1411.99998632" y="626.0000125500001" width="44.00000419999992" height="28.000018530000034" class="text">Send </text>
<text x="1464.0000280000002" y="625.0000224600001" width="93.00000767999995" height="27.00002844000005" class="text">comments 
</text>
<text x="1566.00004492" y="623.99996406" width="86.99994884000012" height="27.999927449999973" class="text">regarding </text>
<text x="1660.0000419199998" y="622.99997397" width="32.99996364000026" height="26.99993735999999" class="text">this
</text>
<text x="119.00000569199999" y="669.0000418200001" width="59.999996628000005" height="27.00002844000005" class="text">burden </text>
<text x="189.9999902" y="669.0000418200001" width="76.00001363999996" height="28.000018530000034" class="text">estimate </text>
<text x="272.99999932000003" y="666.99999333" width="19.00000779999999" height="25.999970039999994" class="text">or </text>
<text x="299.00000259999996" y="666.99999333" width="33.99998808000004" height="25.999970039999994" class="text">any </text>
<text x="341.99998236" y="666.0000032400001" width="46.00000040000003" height="27.000005670000064" class="text">other </text>
<text x="392.9999996" y="666.0000032400001" width="57.000005839999915" height="27.999995760000047" class="text">aspect </text>
<text x="457.99997268" y="665.0000359200001" width="19.000025359999995" height="26.000038350000068" class="text">of </text>
<text x="481.99999732000003" y="665.0000359200001" width="32.999998759999926" height="26.000038350000068" class="text">this </text>
<text x="523.00003356" y="665.0000359200001" width="85.99997708000001" height="28.000018530000034" class="text">collection </text>
<text x="622.0000122800001" y="662.99998743" width="18.999972679999928" height="25.999970039999994" class="text">of </text>
<text x="645.99998424" y="662.99998743" width="104.00003068000001" height="27.000005670000064" class="text">information</text>
<text x="754.99999664" y="662.00002011" width="6.999995480000052" height="26.000038350000068" class="text">, </text>
<text x="767.99999828" y="662.00002011" width="83.00000911999996" height="28.000018530000034" class="text">including </text>
<text x="862.0000128400001" y="661.00003002" width="104.00003068000001" height="28.000018530000034" class="text">suggestions </text>
<text x="973.99995808" y="659.0000043" width="25.00004907999994" height="25.99999280999998" class="text">for </text>
<text x="1007.00002708" y="659.0000043" width="80.0000060399999" height="28.000018530000034" class="text">reducing </text>
<text x="1093.0000041600001" y="658.00001421" width="32.999963639999805" height="26.000038350000068" class="text">this </text>
<text x="1133.99998772" y="658.00001421" width="60.00006159999998" height="28.000018530000034" class="text">burden </text>
<text x="1205.00000208" y="657.00002412" width="13.999990960000105" height="26.000038350000068" class="text">to </text>
<text x="1231.99999468" y="655.99998849" width="48.000031719999924" height="26.999960129999977" class="text">Chief</text>
<text x="1280.0000264" y="655.99998849" width="6.999942799999872" height="25.99999280999998" class="text">, </text>
<text x="1293.0000456" y="655.99998849" width="108.99995971999988" height="28.000018530000034" class="text">Registration </text>
<text x="1412.9999580800002" y="654.00000831" width="39.00002247999987" height="26.000038350000068" class="text">Unit</text>
<text x="1455.0000187599999" y="654.00000831" width="6.999942800000099" height="26.000038350000068" class="text">, </text>
<text x="1470.99995324" y="654.00000831" width="82.0000724800002" height="27.999995759999933" class="text">Criminal 
</text>
<text x="1558.000025" y="653.00001822" width="77.9999571599999" height="27.999995759999933" class="text">Division</text>
<text x="1639.00002036" y="651.99998259" width="6.999925240000039" height="25.99997003999988" class="text">, 
</text>
<text x="1654.9999548399999" y="651.99998259" width="41.00008892000005" height="26.999960129999863" class="text">U.S.
</text>
<text x="120.99999838" y="695.0000118600001" width="109.99999293999997" height="28.000018530000034" class="text">Department </text>
<text x="238.00000436" y="694.0000217700001" width="18.99999023999999" height="26.000038350000068" class="text">of </text>
<text x="265.00001452000004" y="694.0000217700001" width="55.99999895999997" height="28.000018530000034" class="text">Justice</text>
<text x="324.99998832" y="692.99996337" width="6.9999954799999955" height="25.999970039999994" class="text">, </text>
<text x="340.00000372" y="692.99996337" width="101.00001004000006" height="27.999927449999973" class="text">Washington</text>
<text x="447.00001992" y="691.0000059600001" width="6.999995480000052" height="25.999970039999994" class="text">, </text>
<text x="459.99998644" y="691.0000059600001" width="41.000036239999986" height="25.999970039999994" class="text">D.C. </text>
<text x="510.99998612" y="691.0000059600001" width="53.00003099999992" height="28.000018530000034" class="text">20530</text>
<text x="566.00001332" y="690.0000158700001" width="6.999995479999939" height="26.000038350000068" class="text">; </text>
<text x="580.99997604" y="690.0000158700001" width="29.00000635999993" height="26.000038350000068" class="text">and </text>
<text x="620.99998784" y="688.99998024" width="14.000043640000058" height="25.99999280999998" class="text">to </text>
<text x="647.0000086800001" y="688.99998024" width="25.999968159999867" height="25.99999280999998" class="text">the </text>
<text x="680.000025" y="688.99998024" width="59.99995623999996" height="27.99995021999996" class="text">Office </text>
<text x="750.00001492" y="687.99999015" width="18.99997268000004" height="25.999970039999994" class="text">of </text>
<text x="772.99999756" y="687.99999015" width="108.00004063999995" height="28.000018530000034" class="text">Information </text>
<text x="891.00000164" y="686.0000099700001" width="32.999963639999805" height="26.000038350000068" class="text">and </text>
<text x="934.00005164" y="686.0000099700001" width="97.99990159999993" height="27.999995760000047" class="text">Regulatory </text>
<text x="1043.00001136" y="684.99997434" width="59.999956240000074" height="27.99995021999996" class="text">Affairs</text>
<text x="1105.00003404" y="683.99998425" width="6.999942800000099" height="25.999970039999994" class="text">, </text>
<text x="1120.99996852" y="683.99998425" width="56.00005164000004" height="27.999995760000047" class="text">Office </text>
<text x="1187.00000116" y="682.99999416" width="18.999972679999928" height="25.999970039999994" class="text">of </text>
<text x="1209.00001204" y="682.99999416" width="124.0000278" height="27.999995760000047" class="text">Management </text>
<text x="1338.00003912" y="682.00002684" width="32.999963639999805" height="27.00002844000005" class="text">and </text>
<text x="1382.00004332" y="680.99996844" width="62.99999443999991" height="26.999960129999977" class="text">Budget
</text>
<text x="1445.00003776" y="679.99997835" width="6.999942800000099" height="25.999970039999994" class="text">, </text>
<text x="1460.00000048" y="680.99996844" width="102.00003448000007" height="27.99995021999996" class="text">Washington</text>
<text x="1567.00001668" y="679.00001103" width="6.999942799999872" height="25.99999280999998" class="text">, </text>
<text x="1581.00000764" y="679.00001103" width="44.99999352000009" height="27.00002844000005" class="text">D.C. </text>
<text x="1630.99998288" y="679.00001103" width="57.00004095999998" height="28.000018530000034" class="text">20503</text>
<text x="1687.00003452" y="678.00002094" width="6.999942799999872" height="26.000038350000068" class="text">.
</text>
<text x="132.00000382" y="755.00003205" width="29.00000284800001" height="31.000034339999957" class="text">1. </text>
<text x="171.99999806" y="755.9999993700001" width="65.00001698" height="32.000001660000066" class="text">Name </text>
<text x="250.99998844" y="755.9999993700001" width="24.00002464000002" height="31.000011570000083" class="text">of </text>
<text x="285.99998339999996" y="757.99997955" width="110.00001928" height="32.99999175000005" class="text">registrant
</text>
<text x="174.00000304" y="796.00001283" width="76.99998540000001" height="30.000044249999974" class="text">JETRO</text>
<text x="258.9999908" y="795.00002274" width="9.000009239999997" height="27.00000566999995" class="text">, </text>
<text x="286.99999028" y="792.0000069299999" width="50.000010359999976" height="24.99997995000001" class="text">New </text>
<text x="358.00000464" y="792.0000069299999" width="64.00000132000002" height="26.000038349999954" class="text">York
</text>
<text x="1245.00001388" y="745.99996185" width="30.000030799999877" height="33.99995906999993" class="text">2. </text>
<text x="1280.0000264" y="744.99999453" width="138.0000187600001" height="34.999971930000015" class="text">Registration </text>
<text x="1428.99999792" y="741.99995595" width="46.99995460000014" height="32.999991749999936" class="text">No.
</text>
<text x="1290.0000074" y="784.0000179000001" width="67.00000440000008" height="28.000018530000034" class="text">1643
</text>
<text x="134.99999812" y="856.0000330199999" width="29.000002848000037" height="31.000034339999957" class="text">3. </text>
<text x="171.99999806" y="856.0000330199999" width="76.99999418000002" height="33.000060059999896" class="text">Nature </text>
<text x="265.00001452000004" y="854.99997462" width="21.999975759999984" height="30.99994326000001" class="text">of </text>
<text x="300.00000948" y="854.99997462" width="91.99998323999995" height="32.999991749999936" class="text">material </text>
<text x="401.00000196" y="853.00001721" width="8.999991679999994" height="31.000034339999957" class="text">(</text>
<text x="413.00001427999996" y="853.00001721" width="8.99999168000005" height="31.000034339999957" class="text">A </text>
<text x="437.99999312" y="854.0000073000001" width="85.00004044000002" height="32.99999175000005" class="text">concise </text>
<text x="532.00002524" y="853.00001721" width="92.99997255999995" height="32.99999175000005" class="text">account </text>
<text x="636.00000324" y="850.9999914900001" width="22.9999826400001" height="30.99996603000011" class="text">of </text>
<text x="663.9999676" y="850.9999914900001" width="35.00003007999999" height="30.99996603000011" class="text">the </text>
<text x="709.00003136" y="850.9999914900001" width="76.99996784000007" height="33.000014520000036" class="text">nature </text>
<text x="797.99999396" y="850.0000014000001" width="21.999993320000044" height="31.00003434000007" class="text">of </text>
<text x="830.0000209599999" y="849.00001131" width="33.999988080000094" height="31.000034339999957" class="text">the </text>
<text x="873.9999900400001" y="849.00001131" width="135.99995232000003" height="32.99999175000005" class="text">propaganda </text>
<text x="1025.0000280000002" y="848.00002122" width="95.99994051999988" height="33.00006006000001" class="text">material </text>
<text x="1130.99994952" y="846.99998559" width="46.000070640000104" height="32.00002443000005" class="text">filed</text>
<text x="1182.00001944" y="845.9999955000001" width="8.999991679999994" height="31.00003434000007" class="text">)
</text>
<text x="169.000002004" y="899.99998407" width="172.99998035599998" height="33.99998184000003" class="text">Newsletter </text>
<text x="361.99999704" y="898.9999939799999" width="44.99999352000003" height="32.999991749999936" class="text">for </text>
<text x="433.0000114" y="898.9999939799999" width="131.00000571999993" height="33.99998183999992" class="text">Japanese </text>
<text x="586.0000279999999" y="898.00000389" width="114.9999658800001" height="34.000027380000006" class="text">Economy </text>
<text x="723.00000476" y="895.9999781700001" width="45.99998284000003" height="32.000001660000066" class="text">and </text>
<text x="790.00000916" y="895.9999781700001" width="134.99994544000003" height="33.999981840000146" class="text">Business
</text>
<text x="134.99999812" y="991.0000158299999" width="33.00000227200002" height="30.00004424999986" class="text">4. </text>
<text x="175.99999924" y="991.0000158299999" width="47.9999966" height="30.00004424999986" class="text">Title </text>
<text x="235.00000128000002" y="991.0000158299999" width="27.999999479999957" height="30.00004424999986" class="text">of </text>
<text x="272.99999932000003" y="991.0000158299999" width="93.00000768000001" height="30.00004424999986" class="text">material</text>
<text x="366.00000700000004" y="991.0000158299999" width="8.999991679999937" height="30.00004424999986" class="text">, </text>
<text x="384.00000792" y="991.0000158299999" width="16.999994040000047" height="30.00004424999986" class="text">if </text>
<text x="408.99998676" y="991.0000158299999" width="38.00003315999999" height="30.00004424999986" class="text">any
</text>
<text x="958.99999536" y="985.9999743000001" width="29.000059039999996" height="31.999956120000093" class="text">5. </text>
<text x="1008.9999706" y="984.99998421" width="69.00007083999992" height="32.99999175000005" class="text">Name </text>
<text x="1084.99998424" y="983.99999412" width="24.000059760000113" height="32.000001660000066" class="text">of </text>
<text x="1115.9999868" y="983.99999412" width="75.99999608000007" height="33.999959070000045" class="text">foreign </text>
<text x="1203.000041" y="983.0000268" width="103.99997800000006" height="34.00005014999999" class="text">principal </text>
<text x="1312.00001828" y="980.99997831" width="23.99995439999998" height="32.00000165999995" class="text">on </text>
<text x="1344.99998192" y="980.99997831" width="74.00003500000003" height="33.99998184000003" class="text">whose </text>
<text x="1423.0000268800002" y="979.99998822" width="74.99993651999989" height="33.999959070000045" class="text">behalf </text>
<text x="1506.99995508" y="979.0000209" width="34.00004075999982" height="32.99999175000005" class="text">this </text>
<text x="1557.00003568" y="979.0000209" width="92.99993743999971" height="34.00005014999988" class="text">material </text>
<text x="1652.99999376" y="976.9999724099999" width="40.99998355999992" height="32.99999175000005" class="text">was
</text>
<text x="1008.9999706" y="1012.00001265" width="127.00006599999995" height="28.000018530000034" class="text">transmitted</text>
<text x="1142.00000764" y="1011.00002256" width="6.999942800000099" height="26.000038350000068" class="text">.
</text>
<text x="964.99994884" y="1064.00002104" width="79.00005184000008" height="32.99999175000016" class="text">Japan </text>
<text x="1067.99995508" y="1064.00002104" width="136.0000752399999" height="32.99999175000016" class="text">External </text>
<text x="1222.00001368" y="1061.99999532" width="84.00003356000002" height="32.00002442999994" class="text">Trade </text>
<text x="1324.00004816" y="1061.99999532" width="202.99995672" height="33.99998183999992" class="text">Organization
</text>
<text x="171.99999806" y="1070.99997444" width="84.99999653999998" height="33.99998183999992" class="text">Focus </text>
<text x="278.99998792" y="1069.99998435" width="78.00000983999996" height="33.99995906999993" class="text">Japan </text>
<text x="381.99999416" y="1069.00001703" width="9.000009239999997" height="32.999991749999936" class="text">(</text>
<text x="396.999992" y="1069.00001703" width="62.00000511999997" height="32.999991749999936" class="text">July</text>
<text x="468.00000636" y="1069.00001703" width="8.999991679999994" height="32.999991749999936" class="text">/</text>
<text x="481.99999732000003" y="1069.00001703" width="98.99997871999994" height="35.00004024000009" class="text">August </text>
<text x="604.00001136" y="1068.00002694" width="68.9999654799999" height="35.00004024000009" class="text">1993</text>
<text x="676.00001504" y="1066.99996854" width="8.999991679999994" height="32.99999175000016" class="text">)
</text>
<text x="137.999994176" y="1156.99996467" width="27.999999480000014" height="25.00000272000011" class="text">6. </text>
<text x="175.000006408" y="1156.99996467" width="77.99999579199999" height="26.99996013000009" class="text">Means </text>
<text x="264.00000764" y="1155.00000726" width="22.99998264000004" height="25.00000272000011" class="text">of </text>
<text x="294.99999264" y="1155.00000726" width="143.00000047999998" height="28.000018530000034" class="text">transmission
</text>
<text x="671.00001576" y="1153.00002708" width="20.000014679999936" height="27.999995760000047" class="text">7. </text>
<text x="698.00002592" y="1153.00002708" width="67.99997616000007" height="30.0000442500002" class="text">Dates </text>
<text x="777.99997928" y="1152.00003699" width="21.000039119999997" height="28.000064070000008" class="text">of </text>
<text x="808.99998184" y="1152.00003699" width="141.99999359999993" height="30.000044249999974" class="text">transmission
</text>
<text x="671.00001576" y="1202.0000196600001" width="65.00000820000002" height="31.000011570000197" class="text">July </text>
<text x="757.99998216" y="1200.00006225" width="29.000006360000043" height="31.000034339999957" class="text">16</text>
<text x="795.9999802" y="1200.00006225" width="10.000033680000001" height="30.000044249999974" class="text">, </text>
<text x="826.99998276" y="1198.99993554" width="65.99997996000002" height="30.99987495000005" class="text">1993
</text>
<text x="1183.9999629600002" y="1149.99994296" width="22.000010879999763" height="29.999975940000013" class="text">8. </text>
<text x="1217.00003196" y="1149.99994296" width="54.99997452000002" height="31.999933349999992" class="text">Total </text>
<text x="1282.99995924" y="1148.99995287" width="70.00004260000014" height="31.999933349999992" class="text">copies </text>
<text x="1365.00003172" y="1147.99998555" width="125.99998888000005" height="32.999991749999936" class="text">transmitted
</text>
<text x="1258.9999872800001" y="1194.0000306299999" width="48.000031719999924" height="28.000086839999767" class="text">317
</text>
<text x="187.00000468" y="1202.0000196600001" width="68.00001128" height="24.999979950000125" class="text">Mail
</text>
<text x="137.000004856" y="1260.99998145" width="28.99998880000001" height="26.999937360000104" class="text">9. </text>
<text x="179.00000232" y="1260.00001413" width="41.999990440000005" height="28.000086839999994" class="text">List </text>
<text x="229.99998444000002" y="1260.00001413" width="111.99999791999997" height="29.00005415999999" class="text">addresses </text>
<text x="352.99998780000004" y="1258.00003395" width="54.00000275999997" height="28.000064070000008" class="text">from </text>
<text x="416.99998912" y="1258.00003395" width="66.00003264000003" height="29.000054159999763" class="text">which </text>
<text x="501.99999444" y="1257.00006663" width="93.00002524000001" height="29.000076929999977" class="text">material </text>
<text x="600.99999072" y="1254.99994983" width="46.00001796000004" height="27.999927450000087" class="text">was </text>
<text x="654.99997592" y="1254.99994983" width="127.00001332" height="29.999907630000052" class="text">transmitted</text>
<text x="784.99997476" y="1252.99999242" width="8.00001992" height="26.999960129999863" class="text">:
</text>
<text x="963.0000053199999" y="1252.00000233" width="44.000021760000095" height="30.000044249999974" class="text">10. </text>
<text x="1012.99998056" y="1251.0000122400002" width="43.000049999999874" height="29.000054160000218" class="text">List </text>
<text x="1070.99999328" y="1251.0000122400002" width="63.99996620000002" height="30.000021480000214" class="text">states </text>
<text x="1147.99997868" y="1250.0000449200002" width="39.999994240000206" height="29.000054160000218" class="text">and </text>
<text x="1201.99996388" y="1249.00005483" width="116.99999720000005" height="29.00005415999999" class="text">territories </text>
<text x="1333.00003984" y="1246.9999608" width="25.999915480000027" height="27.999950220000073" class="text">of </text>
<text x="1366.9999752400001" y="1246.9999608" width="36.00000183999987" height="27.999950220000073" class="text">the </text>
<text x="1416.99996804" y="1246.9999608" width="74.00005255999986" height="29.999907630000052" class="text">United </text>
<text x="1512.00004216" y="1245.99997071" width="67.9999937199998" height="29.999907630000052" class="text">States </text>
<text x="1590.99998864" y="1244.0000133" width="21.00002156000005" height="27.999950220000073" class="text">to </text>
<text x="1626.9999729200001" y="1244.0000133" width="67.00000439999985" height="30.000044249999974" class="text">which
</text>
<text x="1017.9999798399999" y="1284.99999408" width="93.99999700000012" height="29.000054160000218" class="text">material </text>
<text x="1116.99995856" y="1283.0000366699999" width="42.00007823999999" height="28.000086839999767" class="text">was </text>
<text x="1170.99996132" y="1283.0000366699999" width="127.00006600000006" height="30.000044249999974" class="text">transmitted</text>
<text x="1303.0000090400001" y="1281.00005649" width="8.000019919999886" height="27.000073979999797" class="text">:
</text>
<text x="210.00000488" y="1306.00005921" width="77.99999228000001" height="26.00010666000003" class="text">JETRO </text>
<text x="307.99999428" y="1304.9999324999999" width="47.00000727999998" height="25.99997003999988" class="text">New </text>
<text x="378.00001932" y="1304.9999324999999" width="62.99999444000008" height="25.99997003999988" class="text">York
</text>
<text x="205.99999492" y="1340.00004105" width="66.00001507999997" height="28.000086839999767" class="text">1221 </text>
<text x="292.00000712" y="1340.00004105" width="101.99999935999995" height="28.000086839999767" class="text">Avenue </text>
<text x="415.00001047999996" y="1338.00006087" width="28.999971240000093" height="26.0001066599998" class="text">of </text>
<text x="467.00003460000005" y="1338.00006087" width="43.99995151999997" height="27.00009675000001" class="text">the </text>
<text x="533.99998632" y="1336.99993416" width="137.00002944000005" height="27.999927450000087" class="text">Americas
</text>
<text x="205.0000056" y="1374.9999902099999" width="50.000010359999976" height="26.999960129999863" class="text">New </text>
<text x="275.00001308000003" y="1374.00000012" width="64.99999063999996" height="27.999927450000087" class="text">York</text>
<text x="349.00001296" y="1374.00000012" width="7.999984799999993" height="26.99996013000009" class="text">, </text>
<text x="377.00001244000003" y="1373.0000328" width="34.99999495999998" height="26.99996013000009" class="text">NY </text>
<text x="433.0000114" y="1373.0000328" width="79.9999884799999" height="29.000076930000205" class="text">10020
</text>
<text x="963.0000053199999" y="1333.99998666" width="191.00003220000008" height="29.000054160000218" class="text">Connecticut </text>
<text x="1186.0000294" y="1333.00001934" width="49.00000348000003" height="29.000076929999977" class="text">New </text>
<text x="1255.99996664" y="1332.00002925" width="66.00001508000014" height="29.000054159999763" class="text">York </text>
<text x="1361.99999352" y="1332.00002925" width="222.0000523199999" height="31.000034339999957" class="text">Massachusetts
</text>
<text x="959.99996712" y="1374.00000012" width="174.99999235999996" height="35.999939250000125" class="text">Washington </text>
<text x="1152.9999604" y="1372.00004271" width="36.000001840000095" height="33.99998183999992" class="text">DC </text>
<text x="1221.0000419199998" y="1371.00005262" width="139.00000808000027" height="36.000075870000046" class="text">Maryland </text>
<text x="1392.99999608" y="1368.99995859" width="82.99995644" height="34.9999719299999" class="text">North </text>
<text x="1497.9999634" y="1367.9999685" width="140.00006764" height="35.999939250000125" class="text">Carolina
</text>
<text x="962.00003356" y="1406.00002455" width="206.99996668000017" height="33.999981840000146" class="text">Pennsylvania </text>
<text x="1204.00003032" y="1404.00004437" width="47.99992636000002" height="31.00001156999997" class="text">New </text>
<text x="1275.00004468" y="1404.00004437" width="101.9999115600001" height="32.99999175000016" class="text">Jersey </text>
<text x="1411.99998632" y="1403.0000542799999" width="139.9999622800001" height="33.00012836999986" class="text">Kentucky
</text>
<text x="964.99994884" y="1439.99998362" width="153.0000868400001" height="32.00000165999995" class="text">Tennessee </text>
<text x="1136.0000366" y="1439.0000163" width="136.9999416400001" height="32.00002442999994" class="text">Virginia </text>
<text x="1308.9999800800001" y="1437.0000361200002" width="120.99998959999994" height="32.00000166000018" class="text">Florida </text>
<text x="1447.9999706" y="1436.00004603" width="120.00001784000006" height="32.00000165999995" class="text">Vermont
</text>
<text x="963.99997708" y="1476.00005949" width="44.00002175999998" height="31.00001156999997" class="text">New </text>
<text x="1033.00004792" y="1476.00005949" width="153.99995323999997" height="33.000128370000084" class="text">Hampshire </text>
<text x="1201.99996388" y="1473.99996546" width="73.00008079999998" height="32.99999175000016" class="text">West </text>
<text x="1293.0000456" y="1472.99997537" width="134.99998056000004" height="32.999991749999936" class="text">Virginia </text>
<text x="1461.99996156" y="1472.00000805" width="140.00008520000006" height="32.999991749999936" class="text">Delaware
</text>
<text x="963.0000053199999" y="1505.99996712" width="85.99997708000024" height="26.99996013000009" class="text">Rhode </text>
<text x="1070.99999328" y="1504.9999998" width="97.00003520000018" height="27.999950220000073" class="text">Island
</text>
<text x="964.99994884" y="1555.9999497899998" width="46.00008819999994" height="29.999907630000052" class="text">12. </text>
<text x="1016.00001876" y="1555.9999497899998" width="44.000021760000095" height="30.99987494999982" class="text">List </text>
<text x="1075.999975" y="1554.9999597" width="75.00002431999997" height="31.000011570000197" class="text">names </text>
<text x="1165.99996204" y="1553.99999238" width="43.0000500000001" height="30.0000442500002" class="text">and </text>
<text x="1226.0000412" y="1553.99999238" width="110.9999032400001" height="31.000034339999957" class="text">addresses </text>
<text x="1354.9999453599999" y="1553.0000022899999" width="28.000087280000116" height="30.000044249999746" class="text">of </text>
<text x="1397.00000604" y="1553.0000022899999" width="90.99997636000012" height="32.00000165999995" class="text">persons </text>
<text x="1501.99997336" y="1552.0000122000001" width="28.00006971999983" height="30.0000442500002" class="text">or </text>
<text x="1546.99996688" y="1552.0000122000001" width="154.00005859999987" height="32.00000165999995" class="text">organizations
</text>
<text x="1013.99996988" y="1593.00001575" width="106.99999864000006" height="33.999981840000146" class="text">receiving </text>
<text x="1134.99995948" y="1592.00002566" width="33.00006900000017" height="32.999991749999936" class="text">100 </text>
<text x="1182.00001944" y="1592.00002566" width="71.99998612000013" height="33.99995906999993" class="text">copies </text>
<text x="1266.00003544" y="1590.0000682500001" width="22.9999826400001" height="32.00000166000018" class="text">or </text>
<text x="1306.00004724" y="1590.0000682500001" width="54.00000276000014" height="34.000118460000294" class="text">more</text>
<text x="1362.99996528" y="1588.99994154" width="9.000009240000054" height="32.00000165999995" class="text">:
</text>
<text x="131.000000452" y="1569.99999321" width="36.99999994000001" height="32.00000165999995" class="text">11. </text>
<text x="182.00000540000002" y="1569.99999321" width="65.99997995999996" height="33.99998183999992" class="text">Types </text>
<text x="255.00001595999998" y="1568.0000358000002" width="28.999988799999983" height="32.00002443000017" class="text">of </text>
<text x="289.00000404" y="1568.0000358000002" width="110.99999103999994" height="32.99999175000016" class="text">recipients </text>
<text x="414.0000036" y="1566.00005562" width="9.000009239999997" height="32.00000166000018" class="text">(</text>
<text x="424.00000216" y="1566.00005562" width="50.99999967999992" height="32.999991749999936" class="text">Give </text>
<text x="486.00000728000003" y="1566.00005562" width="87.99997328" height="34.00011846000007" class="text">number </text>
<text x="582.00000048" y="1563.9999615899999" width="24.000024639999992" height="32.00002442999994" class="text">of </text>
<text x="613.0000206" y="1564.9999289099999" width="155.99996700000008" height="34.999949159999915" class="text">organizations
</text>
<text x="179.00000232" y="1598.00005728" width="18.00000091999999" height="30.00002147999976" class="text">in </text>
<text x="208.999998" y="1600.00003746" width="55.00000963999997" height="32.000001659999725" class="text">each </text>
<text x="275.00001308000003" y="1601.00002755" width="64.00000131999997" height="31.000034339999957" class="text">group</text>
<text x="342.99998924" y="1601.00002755" width="9.999998560000051" height="30.000044249999746" class="text">)
</text>
<text x="982.9999497599999" y="1675.99999017" width="68.0000815200001" height="24.0000126299999" class="text">None
</text>
<text x="331.9999838" y="1647.00007263" width="27.00002771999999" height="25.000139340000032" class="text">10
</text>
<text x="128.000006152" y="1667.00001105" width="101.99997828800002" height="25.999992810000094" class="text">Libraries
</text>
<text x="366.00000700000004" y="1684.9999692899999" width="8.999991679999937" height="31.000011569999742" class="text">1 </text>
<text x="392.9999996" y="1684.9999692899999" width="52.99999587999997" height="32.00000165999995" class="text">Org</text>
<text x="452.99999096000005" y="1683.9999792" width="8.99999167999988" height="31.000011570000197" class="text">. </text>
<text x="485.00001796" y="1683.9999792" width="28.999953680000033" height="31.000011570000197" class="text">34
</text>
<text x="128.999995472" y="1699.00001271" width="71.00001084800002" height="26.99996013000009" class="text">Public </text>
<text x="212.9999904" y="1699.00001271" width="92.00000079999995" height="26.99996013000009" class="text">officials</text>
<text x="304.99999119999995" y="1697.00003253" width="7.000013040000056" height="24.999979950000125" class="text">.
</text>
<text x="367.00001388" y="1718.99995113" width="9.999998560000051" height="32.00000166000018" class="text">7 </text>
<text x="396.00000267999997" y="1718.99995113" width="49.99999280000003" height="33.999981840000146" class="text">Mag</text>
<text x="452.99999096000005" y="1716.99997095" width="10.000016119999941" height="32.00000166000018" class="text">. </text>
<text x="486.00000728000003" y="1716.99997095" width="31.00000256000004" height="32.00000166000018" class="text">30
</text>
<text x="128.999995472" y="1737.00004599" width="136.00001904800004" height="32.999991749999936" class="text">Newspapers
</text>
<text x="128.999995472" y="1766.99995362" width="59.000016087999995" height="27.999927450000087" class="text">Press </text>
<text x="200.99999563999998" y="1765.9999863" width="90.00000460000004" height="27.999950220000073" class="text">services </text>
<text x="305.99999808" y="1764.99999621" width="19.99999711999999" height="27.999950220000073" class="text">of
</text>
<text x="504.99997995999996" y="1780.00000695" width="7.000048160000063" height="23.999989859999914" class="text">5
</text>
<text x="155.000002264" y="1799.99994537" width="135.99999797600003" height="28.999917539999842" class="text">associations
</text>
<text x="131.000000452" y="1830.99997971" width="136.99999958799998" height="24.0000126299999" class="text">Educational
</text>
<text x="483.00002176000004" y="1848.99996072" width="33.99998808000004" height="25.999992810000094" class="text">45
</text>
<text x="156.00000563199998" y="1864.99996155" width="127.99999912799998" height="25.999970040000107" class="text">institutions
</text>
<text x="328.99999828" y="1881.99995247" width="203.00002696" height="22.999908689999984" class="text">Associations </text>
<text x="571.99998436" y="1879.99997229" width="30.00003079999999" height="23.000022539999918" class="text">33
</text>
<text x="133.000005432" y="1901.00003742" width="57.99999164800002" height="27.00009675000001" class="text">Civic </text>
<text x="229.99998444000002" y="1902.99999483" width="80.00002359999999" height="25.999970040000107" class="text">groups
</text>
<text x="327.00000208" y="1916.00004816" width="118.9999934" height="26.0001066599998" class="text">Private </text>
<text x="468.00000636" y="1914.99994422" width="46.999989719999974" height="23.99987600999998" class="text">cos</text>
<text x="524.00000532" y="1914.99994422" width="6.999995479999939" height="23.99987600999998" class="text">. </text>
<text x="555.99997964" y="1914.99994422" width="45.000011080000036" height="23.99987600999998" class="text">130
</text>
<text x="132.00000382" y="1937.99996676" width="64.99999942" height="34.9999719299999" class="text">Other </text>
<text x="210.00000488" y="1936.99997667" width="8.999991679999994" height="32.99999175000016" class="text">(</text>
<text x="218.99999656" y="1937.99996676" width="80.00000603999996" height="34.9999719299999" class="text">specify</text>
<text x="299.00000259999996" y="1937.99996676" width="8.99999168000005" height="32.999991749999936" class="text">)
</text>
<text x="1297.00005556" y="1831.9999698000001" width="32.99994607999997" height="197.99995050000007" class="text">REGISTRATION </text>
<text x="1297.00005556" y="1908.0000591300002" width="30.999897200000078" height="63.00003600000014" class="text">UNIT
</text>
<text x="1329.00002988" y="1828.00003221" width="31.000020120000045" height="119.00005028999976" class="text">SECTION
</text>
<text x="1356.0000224799999" y="1764.0000061199999" width="36.000001840000095" height="137.00000852999983" class="text">INTERNAL </text>
<text x="1353.9999736" y="1914.99994422" width="36.00000183999987" height="137.99988476999988" class="text">SECURITY
</text>
<text x="1419.00001692" y="1656.00005175" width="40.99998355999992" height="40.00001345999999" class="text">93 </text>
<text x="1416.99996804" y="1716.99997095" width="42.00006067999993" height="54.000034110000115" class="text">JUL </text>
<text x="1416.99996804" y="1766.99995362" width="40.99998355999992" height="40.00001345999999" class="text">23 </text>
<text x="1415.99999628" y="1828.00003221" width="41.999955320000026" height="38.00005605000001" class="text">PH </text>
<text x="1415.99999628" y="1860.0000338700002" width="40.99998355999992" height="13.000053330000355" class="text">4</text>
<text x="1415.99999628" y="1878.00001488" width="40.99998355999992" height="13.0000533299999" class="text">: </text>
<text x="1415.0000069599998" y="1927.00000746" width="40.999983560000146" height="39.00002337000001" class="text">24
</text>
<text x="1488.99995416" y="1775.9999555099998" width="41.000088919999826" height="146.00001041999985" class="text">CRIMINAL </text>
<text x="1487.9999824000001" y="1919.99998575" width="40.99998355999992" height="130.99997691" class="text">DIVISION
</text>
<text x="1522.99999492" y="1722.00003525" width="39.00004003999993" height="80.00002692000021" class="text">DEPT</text>
<text x="1522.99999492" y="1730.0000470500001" width="39.00004003999993" height="11.000095920000149" class="text">. </text>
<text x="1522.99999492" y="1772.00001792" width="39.00004003999993" height="37.0000659599998" class="text">OF </text>
<text x="1522.99999492" y="1911.9999739500001" width="39.00004003999993" height="120.00001760999999" class="text">JUSTICE
</text>
<text x="1557.00003568" y="1851.0000547500001" width="36.99997359999975" height="150.00008462999995" class="text">RECEIVED
</text>
<text x="636.999975" y="1914.99994422" width="119.00004608000006" height="28.999940310000056" class="text">Private </text>
<text x="779.00000372" y="1913.9999541299999" width="80.00002360000008" height="28.999917539999842" class="text">indiv</text>
<text x="866.99999456" y="1912.99996404" width="8.00001992" height="26.999960129999863" class="text">. </text>
<text x="900.99998264" y="1911.9999739500001" width="25.000049080000053" height="26.999937360000104" class="text">30
</text>
<text x="1580.0000358799998" y="2101.99993542" width="45.9999652800002" height="17.99998100999983" class="text">FORM </text>
<text x="1638.00003104" y="2100.99994533" width="32.99996364000003" height="17.99995824000007" class="text">CRM</text>
<text x="1675.00000464" y="2100.99994533" width="4.999999279999884" height="17.99995824000007" class="text">-</text>
<text x="1683.0000245600002" y="2100.99994533" width="16.999923799999806" height="17.99995824000007" class="text">159
</text>
<text x="1645.9999456" y="2123.99996787" width="30.000048359999937" height="17.99995824000007" class="text">SEP</text>
<text x="1675.00000464" y="2123.00000055" width="4.000009959999943" height="16.000023600000077" class="text">. </text>
<text x="1688.00002384" y="2123.00000055" width="11.999924519999922" height="16.999990920000073" class="text">89
</text>
</g>
<g id="page-1" transform="translate(0, 2297)">
<rect width="1756" height="2277" fill="none" stroke="black" />
<text x="119.00000569199999" y="150.000007212" width="40.999997608000015" height="32.00000849100002" class="text">13. </text>
<text x="169.000002004" y="150.000007212" width="18.00000267599998" height="32.00000849100002" class="text">If </text>
<text x="198.00001012" y="149.000008014" width="30.999984999999953" height="32.00001076800001" class="text">the </text>
<text x="246.00000672000002" y="150.000007212" width="92.00000079999998" height="34.000009164000005" class="text">material </text>
<text x="345.00000300000005" y="149.000008014" width="123.99997511999999" height="34.00000916399999" class="text">transmitted </text>
<text x="481.99999732000003" y="147.000007341" width="44.999993519999975" height="32.000008491" class="text">was </text>
<text x="539.00002072" y="147.000007341" width="8.999991679999994" height="32.000008491" class="text">a </text>
<text x="562.00000336" y="147.000007341" width="42.999997320000034" height="32.000008491" class="text">film </text>
<text x="616.9999778800001" y="147.000007341" width="29.00000635999993" height="33.00000996600001" class="text">or </text>
<text x="654.00000416" y="146.000005866" width="53.99998519999997" height="32.000008491" class="text">radio </text>
<text x="725.0000185199999" y="146.000005866" width="22.9999826400001" height="32.000008491" class="text">or </text>
<text x="757.99998216" y="146.000005866" width="108.00004064000007" height="34.000009164000005" class="text">television </text>
<text x="877.00002824" y="145.000006668" width="68.99994792000007" height="33.00000996599999" class="text">script</text>
<text x="945.9999761600001" y="144.00000519300002" width="9.000009239999827" height="32.00000849100002" class="text">, </text>
<text x="966.0000435200001" y="144.00000519300002" width="74.99991895999995" height="33.000007689000014" class="text">furnish </text>
<text x="1058.9999634" y="144.00000519300002" width="31.000002559999984" height="33.000007689000014" class="text">the </text>
<text x="1101.9999958399999" y="144.00000519300002" width="107.00001620000012" height="34.00000916400002" class="text">following </text>
<text x="1222.00001368" y="143.000005995" width="129.99999884" height="34.000009164000005" class="text">information</text>
<text x="1354.9999453599999" y="141.999997689" width="9.000009240000281" height="32.000001659999995" class="text">:
</text>
<text x="949.00001436" y="209.000007711" width="50.99996455999997" height="28.000009421999977" class="text">Date </text>
<text x="1016.00001876" y="208.000006236" width="24.999943720000033" height="27.000007946999972" class="text">or </text>
<text x="1051.00003128" y="208.000006236" width="54.99997452000002" height="29.00000861999999" class="text">dates </text>
<text x="1116.99995856" y="207.00000703799998" width="114.0000643599999" height="29.00000861999996" class="text">broadcast </text>
<text x="1240.0000146" y="206.000005563" width="72.99997544000007" height="29.00000861999999" class="text">shown
</text>
<text x="117.000000712" y="216.999992187" width="67.00000088800002" height="32.99999174999999" class="text">Name </text>
<text x="194.99998948" y="216.999992187" width="24.999996400000015" height="32.99999174999999" class="text">of </text>
<text x="228.99999511999997" y="216.999992187" width="69.00000060000005" height="32.99999174999999" class="text">station</text>
<text x="304.99999119999995" y="216.999992187" width="8.99999168000005" height="32.99999174999999" class="text">, </text>
<text x="323.999999" y="216.999992187" width="135.99998743999998" height="32.99999174999999" class="text">organization</text>
<text x="463.00000708" y="216.999992187" width="9.000009239999997" height="32.99999174999999" class="text">, </text>
<text x="479.99998356" y="216.999992187" width="31.00000256000004" height="32.99999174999999" class="text">or </text>
<text x="515.9999854" y="216.999992187" width="82.99999156000001" height="32.99999174999999" class="text">theater </text>
<text x="607.99996864" y="216.999992187" width="57.00004095999998" height="32.99999174999999" class="text">using
</text>
<text x="119.00000569199999" y="250.99999452" width="7.999997092000015" height="29.00000178899998" class="text">(</text>
<text x="127.000002784" y="250.99999452" width="102.99998165600002" height="31.000002461999998" class="text">including </text>
<text x="244.99999984000002" y="250.00000443" width="38.000015599999955" height="29.00001089699998" class="text">city </text>
<text x="294.00002088" y="250.00000443" width="40.999983559999976" height="30.000012371999986" class="text">and </text>
<text x="350.99999160000004" y="248.99999157" width="46.99998971999992" height="28.999999511999988" class="text">state</text>
<text x="402.99999816" y="248.99999157" width="8.000002359999996" height="28.999999511999988" class="text">)
</text>
<text x="1412.9999580800002" y="202.000004217" width="111.00002615999983" height="28.000007144999984" class="text">Estimated </text>
<text x="1536.00001412" y="202.000004217" width="122.99995067999976" height="28.000007144999984" class="text">attendance
</text>
<text x="1463.00003868" y="239.99998968" width="9.000009240000054" height="30.999981969000004" class="text">(</text>
<text x="1473.99999144" y="239.99998968" width="35.00003007999999" height="30.999981969000004" class="text">for </text>
<text x="1517.00004144" y="239.99998968" width="43.999916400000075" height="30.999981969000004" class="text">film</text>
<text x="1566.00004492" y="239.99998968" width="8.999991679999994" height="30.999981969000004" class="text">(</text>
<text x="1575.0000366" y="239.99998968" width="9.000009240000054" height="30.999981969000004" class="text">s</text>
<text x="1586.99997868" y="238.99999959" width="8.999991679999994" height="30.999993353999997" class="text">)</text>
<text x="1597.00004748" y="238.99999959" width="9.000009240000054" height="30.999993353999997" class="text">)
</text>
<text x="120.99999838" y="485.99998820999997" width="42.000000976000024" height="29.999998709999943" class="text">14. </text>
<text x="169.000002004" y="485.99998820999997" width="54.99999383599999" height="30.999988799999983" class="text">Have </text>
<text x="235.00000128000002" y="485.00002089" width="41.999990440000005" height="30.000021479999987" class="text">two </text>
<text x="289.00000404" y="485.00002089" width="70.00000747999997" height="32.000024429999996" class="text">copies </text>
<text x="373.00000248" y="484.00000802999995" width="22.000010880000048" height="30.00002147999993" class="text">of </text>
<text x="404.00000504" y="484.00000802999995" width="37.99998047999998" height="30.00002147999993" class="text">this </text>
<text x="461.00001088" y="484.00000802999995" width="89.99998703999995" height="32.00002442999994" class="text">material </text>
<text x="557.00002164" y="483.00001794" width="54.99997452000002" height="31.000034340000013" class="text">been </text>
<text x="625.9999695600001" y="482.00000508" width="48.000031719999924" height="30.000021479999987" class="text">filed </text>
<text x="685.00000672" y="482.00000508" width="47.99997903999997" height="30.99998880000004" class="text">with </text>
<text x="748.99997292" y="481.00001499" width="34.00004076000005" height="29.999998710000057" class="text">the </text>
<text x="792.99999468" y="481.00001499" width="139.99997984000004" height="32.00000166000001" class="text">Department </text>
<text x="937.9999562400001" y="480.00000213" width="28.000087280000002" height="30.999988799999983" class="text">of </text>
<text x="972.9999863200001" y="480.00000213" width="75.99999608000007" height="32.00002442999994" class="text">Justice</text>
<text x="1051.00003128" y="479.00001204" width="9.000009240000054" height="29.99999871" class="text">?
</text>
<text x="1101.00002408" y="475.99999622999997" width="33.99993539999991" height="28.999985849999973" class="text">Yes
</text>
<text x="1206.9999456" y="471.99999032999995" width="36.000001840000095" height="24.0000126299999" class="text">No </text>
<text x="1258.9999872800001" y="471.99999032999995" width="7.000048159999778" height="24.0000126299999" class="text">
</text>
<text x="122.00000174799999" y="552.00001725" width="41.999999220000035" height="29.99999871" class="text">15. </text>
<text x="179.00000232" y="552.00001725" width="42.999997320000006" height="31.00003434000007" class="text">Has </text>
<text x="233.9999944" y="551.00000439" width="41.00001868000004" height="30.000021479999987" class="text">this </text>
<text x="291.00000024" y="551.00000439" width="89.99998703999995" height="32.00002442999994" class="text">material </text>
<text x="387.00001100000003" y="550.0000143" width="50.99998211999997" height="29.99999871" class="text">been </text>
<text x="452.99999096000005" y="550.0000143" width="78.0000098399999" height="31.000034339999957" class="text">labeled </text>
<text x="542.9999779999999" y="549.00000144" width="28.000017040000102" height="30.000021479999987" class="text">as </text>
<text x="582.00000048" y="550.0000143" width="90.00000460000001" height="32.00000165999995" class="text">required </text>
<text x="683.99998228" y="548.00001135" width="28.000017039999875" height="29.99999871" class="text">by </text>
<text x="721.99998032" y="548.00001135" width="34.00004076000005" height="29.99999871" class="text">the </text>
<text x="770.00001204" y="548.00001135" width="33.999988080000094" height="29.99999871" class="text">act</text>
<text x="803.00002836" y="548.00001135" width="8.999991679999994" height="29.99999871" class="text">?
</text>
<text x="855.00001736" y="546.9999984899999" width="33.99993540000003" height="28.999985849999916" class="text">Yes </text>
<text x="917.0000224799999" y="546.0000084000001" width="7.999932120000153" height="29.00000862000013" class="text"> </text>
<text x="962.00003356" y="546.0000084000001" width="36.999973599999976" height="29.00000862000013" class="text">No </text>
<text x="1012.99998056" y="544.99999554" width="8.00001992" height="28.99998585000003" class="text">
</text>
<text x="117.000000712" y="618.99999084" width="53.00000466" height="29.999975940000013" class="text">Date </text>
<text x="180.99999852" y="619.99995816" width="24.999996400000015" height="28.99998585000003" class="text">of </text>
<text x="217.99998968" y="622.00000665" width="67.00000440000002" height="29.999975940000013" class="text">report
</text>
<text x="1056.00003056" y="613.00002753" width="102.00001692000001" height="30.000044250000087" class="text">Signature
</text>
<text x="404.00000504" y="612.00003744" width="70.00000748000002" height="23.00002254000003" class="text">Name </text>
<text x="485.00001796" y="610.99997904" width="38.999987360000034" height="22.999954229999958" class="text">and </text>
<text x="537.0000069600001" y="610.99997904" width="38.99998735999998" height="22.999954229999958" class="text">title
</text>
<text x="411.00000052" y="654.00000831" width="120.00000027999994" height="32.999991749999936" class="text">Michiro </text>
<text x="549.00000172" y="654.9999984" width="124.99999955999999" height="32.00002442999994" class="text">Hayashi
</text>
<text x="409.99999364" y="687.00000006" width="139.00000808" height="28.99998585000003" class="text">Director</text>
<text x="557.9999934" y="686.0000099700001" width="8.00001992" height="27.999995760000047" class="text">, </text>
<text x="588.99999596" y="686.0000099700001" width="96.00001076000001" height="30.0000214800001" class="text">Public </text>
<text x="709.00003136" y="684.99997434" width="116.99997963999999" height="29.999975940000013" class="text">Affairs
</text>
<text x="1116.99995856" y="682.99999416" width="121.00000716" height="64.99999341" class="text">mica </text>
<text x="1298.00002732" y="684.99997434" width="130.99997059999987" height="63.99995777999993" class="text">Hey
</text>
<text x="108.99999835199999" y="691.0000059600001" width="61.99999634000001" height="32.99999175000005" class="text">July </text>
<text x="194.00000015999998" y="688.99998024" width="29.999995680000012" height="32.99999175000005" class="text">16</text>
<text x="229.99998444000002" y="687.99999015" width="10.00001611999997" height="30.999966029999996" class="text">, </text>
<text x="263.00000076" y="687.00000006" width="67.00000440000002" height="32.000001660000066" class="text">1993
</text>
</g>
</svg>
