<svg xmlns="http://www.w3.org/2000/svg">
<style>.text { font-size: 14px; font-family: Arial, sans-serif; }</style>
<g id="page-0" transform="translate(0, 0)">
<rect width="1756" height="2277" fill="none" stroke="black" />
<text x="888.99995276" y="152.000007885" width="163.00006783999993" height="33.00000996600001" class="text">Dissemination </text>
<text x="1066.0000115599998" y="152.000007885" width="81.99996712000006" height="31.000009293000005" class="text">Report
</text>
<text x="1527.00000488" y="130.000002759" width="40.999983560000146" height="18.000006057000007" class="text">OMB </text>
<text x="1575.0000366" y="130.000002759" width="27.0000101600001" height="19.000005255000005" class="text">No. </text>
<text x="1608.9999719999998" y="130.000002759" width="67.00002196000014" height="20.00000673000001" class="text">1105-0006
</text>
<text x="1445.00003776" y="156.99999248999998" width="62.99999444000014" height="22.999988384999995" class="text">Approval </text>
<text x="1514.00000324" y="155.999991015" width="53.000013439999975" height="22.999988384999995" class="text">Expires </text>
<text x="1573.99995948" y="153.99999261899998" width="38.00005072000022" height="21.999989186999983" class="text">Nov. </text>
<text x="1617.9999812400001" y="153.00000936" width="15.000068079999892" height="21.000005928000007" class="text">30</text>
<text x="1634.99999284" y="153.00000936" width="5.999971039999991" height="21.000005928000007" class="text">, </text>
<text x="1647.0000402800001" y="153.00000936" width="31.999974319999865" height="23.000006600999995" class="text">1993
</text>
<text x="106.99999864" y="160.999993836" width="54.999997347999994" height="33.99999322499998" class="text">U.S. </text>
<text x="166.999997024" y="160.999993836" width="146.999985856" height="34.999992422999995" class="text">Department </text>
<text x="325.9999952" y="157.999991688" width="23.00001775999999" height="31.999990275000002" class="text">of </text>
<text x="361.99999704" y="158.999993163" width="79.99998848000001" height="33.999993225" class="text">Justice
</text>
<text x="108.000002008" y="207.00000703799998" width="130.000002352" height="38.00001050999998" class="text">Washington</text>
<text x="240.00000056" y="203.000005692" width="9.999998560000023" height="33.00000996599999" class="text">, </text>
<text x="259.99999768000004" y="203.000005692" width="36.99999115999998" height="35.00001063900001" class="text">DC </text>
<text x="312.00000424" y="201.00000501899999" width="67.99999372000002" height="35.00001063899998" class="text">20530
</text>
<text x="106.99999864" y="305.00000586" width="164.00000448000003" height="29.99999871" class="text">INSTRUCTIONS</text>
<text x="272.99999932000003" y="303.00000291" width="8.000002359999996" height="27.00000566999995" class="text">: </text>
<text x="284.00000475999997" y="303.00000291" width="62.000005120000026" height="28.999985849999973" class="text">Report </text>
<text x="356.99999776" y="302.00001282000005" width="41.99999044000003" height="27.000005670000064" class="text">must </text>
<text x="402.99999816" y="302.00001282000005" width="24.999996399999986" height="27.999995760000047" class="text">be </text>
<text x="434.99999004" y="302.00001282000005" width="86.00002976000002" height="29.000008620000017" class="text">submitted </text>
<text x="528.9999870400001" y="300.00000987000004" width="15.000015399999938" height="27.000005670000007" class="text">in </text>
<text x="553.00001168" y="300.00000987000004" width="78.99998160000007" height="29.000008620000017" class="text">duplicate </text>
<text x="642.99999872" y="298.99999701" width="15.000015399999938" height="26.99998290000002" class="text">to </text>
<text x="667.0000058" y="298.99999701" width="27.000010159999988" height="27.99999575999999" class="text">the </text>
<text x="703.9999794" y="298.99999701" width="106.0000444399999" height="28.99998585000003" class="text">Registration </text>
<text x="817.99999108" y="296.99999406" width="41.0000362400001" height="26.99998290000002" class="text">Unit</text>
<text x="860.9999708400001" y="296.00000397" width="8.000037479999946" height="27.000005670000007" class="text">, </text>
<text x="875.00001448" y="296.99999406" width="71.9999509999999" height="28.99998585000003" class="text">Internal </text>
<text x="952.00005256" y="296.00000397" width="72.99997544000018" height="29.000008620000017" class="text">Security </text>
<text x="1035.9999632" y="294.99999111" width="66.00003263999997" height="28.999985849999973" class="text">Section</text>
<text x="1103.9999569200002" y="294.00002379" width="8.000019919999886" height="27.000028439999994" class="text">, </text>
<text x="1119.000025" y="294.00002379" width="81.99996711999984" height="29.000008620000017" class="text">Criminal </text>
<text x="1208.0000402800001" y="292.99998816" width="73.99994719999995" height="28.999985849999973" class="text">Division</text>
<text x="1288.0000463200001" y="292.00002084" width="7.999914559999752" height="27.000005670000007" class="text">, </text>
<text x="1298.00002732" y="292.00002084" width="109.99993147999999" height="29.000008620000017" class="text">Department </text>
<text x="1416.99996804" y="290.00001789000004" width="19.000078039999835" height="27.000005670000064" class="text">of </text>
<text x="1442.00001712" y="290.00001789000004" width="58.99996692000013" height="29.000008620000017" class="text">Justice</text>
<text x="1504.00002224" y="289.00000503" width="8.000019920000113" height="27.000005670000007" class="text">, </text>
<text x="1517.00004144" y="289.00000503" width="102.99998868000011" height="27.99999575999999" class="text">Washington</text>
<text x="1622.9999629600002" y="288.00001494" width="8.000019919999886" height="27.000005670000007" class="text">, </text>
<text x="1636.99995392" y="288.00001494" width="42.00006067999993" height="28.000018530000034" class="text">D.C.
</text>
<text x="109.999994696" y="333.00000162000003" width="63.00000673199999" height="28.99998585000003" class="text">20530. </text>
<text x="179.99999164" y="331.99998876" width="30.000013240000015" height="26.99998290000002" class="text">The </text>
<text x="219.99998588000003" y="331.99998876" width="74.000035" height="28.99998585000003" class="text">original </text>
<text x="300.99999879999996" y="329.99998581" width="40.99998356000003" height="27.999972989999947" class="text">must </text>
<text x="346.99999920000005" y="329.99998581" width="22.999982639999928" height="26.99998290000002" class="text">be </text>
<text x="378.00001932" y="329.99998581" width="55.99999896000003" height="28.999985849999973" class="text">signed </text>
<text x="441.99998552" y="328.99999572" width="19.000025359999995" height="26.999982899999964" class="text">by </text>
<text x="472.00001632" y="327.99998286" width="18.99997268000004" height="26.999982899999964" class="text">or </text>
<text x="499.00000892" y="327.99998286" width="18.999972679999928" height="26.999982899999964" class="text">on </text>
<text x="528.00001528" y="327.99998286" width="56.999970719999965" height="28.999985849999973" class="text">behalf </text>
<text x="593.99999524" y="327.00001554" width="15.000015400000052" height="27.00000566999995" class="text">of </text>
<text x="616.00000612" y="327.00001554" width="26.99999260000004" height="28.000018529999977" class="text">the </text>
<text x="651.00001864" y="327.00001554" width="87.99999084000001" height="29.00000861999996" class="text">registrant</text>
<text x="739.99998124" y="325.00001259" width="8.00001992" height="27.00000566999995" class="text">. </text>
<text x="754.99999664" y="325.00001259" width="26.99999260000004" height="27.00000566999995" class="text">All </text>
<text x="788.99998472" y="323.99997695999997" width="50.000045479999926" height="27.999972989999947" class="text">items </text>
<text x="841.99999816" y="323.99997695999997" width="16.000004719999993" height="26.999982899999964" class="text">in </text>
<text x="866.99999456" y="323.00000964000003" width="33.99998807999998" height="27.000005670000007" class="text">this </text>
<text x="906.9999536799999" y="323.00000964000003" width="40.00001180000004" height="27.000005670000007" class="text">form </text>
<text x="966.0000435200001" y="321.99999678" width="36.99997359999986" height="27.000005670000007" class="text">must </text>
<text x="1012.0000087999999" y="321.99999678" width="18.999972679999928" height="27.000005670000007" class="text">be </text>
<text x="1039.0000014" y="321.99999678" width="84.00003356000002" height="29.000008620000017" class="text">answered</text>
<text x="1125.9999678" y="319.99999383" width="8.000019920000113" height="27.000005670000007" class="text">, </text>
<text x="1137.99999768" y="321.00000669" width="57.00002339999992" height="28.99998585000003" class="text">unless </text>
<text x="1201.99996388" y="319.00000374" width="26.00002084000016" height="26.99998290000002" class="text">the </text>
<text x="1237.99996572" y="319.00000374" width="62.00000511999974" height="28.999985849999973" class="text">answer </text>
<text x="1311.00002896" y="317.99999088" width="9.999980999999934" height="27.000005670000007" class="text">is </text>
<text x="1330.9999909599999" y="317.99999088" width="8.000019920000113" height="27.000005670000007" class="text">"</text>
<text x="1343.9999926" y="317.99999088" width="45.9999828399998" height="28.999985849999973" class="text">none</text>
<text x="1388.00001436" y="317.00000079" width="8.000019919999886" height="26.999982899999964" class="text">" </text>
<text x="1406.0000152799998" y="317.00000079" width="18.999972680000155" height="26.999982899999964" class="text">or 
</text>
<text x="1433.99997964" y="315.99998793" width="8.000037479999946" height="26.999982899999964" class="text">"</text>
<text x="1446.0000270799999" y="315.99998793" width="31.000002560000212" height="26.999982899999964" class="text">not </text>
<text x="1481.0000396" y="315.99998793" width="90.99997635999989" height="28.999985849999973" class="text">applicable</text>
<text x="1575.0000366" y="314.99999784" width="7.9999321200000395" height="26.999982899999964" class="text">,</text>
<text x="1578.9999412" y="314.99999784" width="8.000037479999946" height="26.999982899999964" class="text">" </text>
<text x="1598.0000368" y="313.99998497999997" width="15.999934479999865" height="26.999982899999964" class="text">in </text>
<text x="1621.9999912" y="314.99999784" width="54.000002759999916" height="28.999985849999973" class="text">which
</text>
<text x="106.99999864" y="361.00002014999995" width="40.000008288000004" height="28.00001852999992" class="text">case </text>
<text x="156.00000563199998" y="360.00000729" width="39.999990728" height="28.000018529999977" class="text">such </text>
<text x="205.0000056" y="360.00000729" width="21.00000399999999" height="28.000018529999977" class="text">an </text>
<text x="237.00001504" y="359.00001719999995" width="43.99998664000003" height="29.000031389999947" class="text">entry </text>
<text x="289.00000404" y="359.00001719999995" width="47.999996599999974" height="30.00002147999993" class="text">shall </text>
<text x="342.99998924" y="358.00000434000003" width="21.00000399999999" height="28.000018530000034" class="text">be </text>
<text x="374.99999868" y="358.00000434000003" width="47.000007280000034" height="30.000021480000044" class="text">made </text>
<text x="430.00000832" y="357.00001425" width="17.000011599999993" height="28.000018529999977" class="text">in </text>
<text x="456.00002916" y="357.00001425" width="26.99999260000004" height="29.000031390000004" class="text">the </text>
<text x="490.999989" y="357.00001425" width="102.00001692000001" height="29.99999871" class="text">appropriate </text>
<text x="602.99998692" y="355.0000113" width="51.000017240000034" height="29.99999871" class="text">space</text>
<text x="654.00000416" y="353.99999844" width="8.00001992" height="28.000018530000034" class="text">. </text>
<text x="671.00001576" y="353.99999844" width="16.000004719999993" height="28.000018530000034" class="text">If </text>
<text x="692.99997396" y="353.99999844" width="92.00000079999995" height="30.000021480000044" class="text">additional </text>
<text x="793.99996644" y="351.99999549" width="47.00000728000009" height="28.999985849999973" class="text">space </text>
<text x="853.9999929200001" y="351.99999549" width="11.000005439999882" height="28.000018530000034" class="text">is </text>
<text x="875.00001448" y="351.99999549" width="61.99996999999996" height="29.99999871" class="text">needed </text>
<text x="948.0000425999999" y="351.00000539999996" width="27.999964360000035" height="29.00000861999996" class="text">for </text>
<text x="984.0000268800001" y="349.99999254" width="31.000020119999817" height="27.99999575999999" class="text">any </text>
<text x="1025.0000280000002" y="349.99999254" width="36.999956039999915" height="28.999985849999973" class="text">item</text>
<text x="1066.0000115599998" y="349.00000244999995" width="8.000019920000113" height="27.999995759999933" class="text">, </text>
<text x="1079.0000132" y="349.00000244999995" width="54.99997452000002" height="29.999998709999943" class="text">attach </text>
<text x="1143.99996872" y="349.00000244999995" width="123.00005603999989" height="31.00001156999997" class="text">supplemental </text>
<text x="1272.99997824" y="345.99998664000003" width="45.99998284000003" height="28.99998585000003" class="text">sheet </text>
<text x="1330.00000164" y="345.99998664000003" width="98.00002452000012" height="29.999998710000057" class="text">identifying 
</text>
<text x="1434.99996896" y="343.99998369" width="38.00005072000022" height="27.999995760000047" class="text">each </text>
<text x="1487.00001064" y="343.99998369" width="36.999973599999976" height="27.999995760000047" class="text">item</text>
<text x="1527.9999942" y="343.00001637" width="8.000019920000113" height="28.000018530000034" class="text">.
</text>
<text x="108.99999835199999" y="418.99999185" width="67.000000888" height="30.999988799999983" class="text">Privacy </text>
<text x="182.99999472" y="418.00002452999996" width="33.000016320000015" height="29.000031389999947" class="text">Act </text>
<text x="222.99998896" y="418.00002452999996" width="90.00000460000001" height="31.000034339999957" class="text">Statement</text>
<text x="310.00000804" y="416.00002157999995" width="7.999984799999993" height="29.000031389999947" class="text">. </text>
<text x="321.00001348" y="416.9999889" width="54.99999207999997" height="30.999988799999983" class="text">Every </text>
<text x="384.99999724" y="416.00002157999995" width="101.9999818" height="31.000034339999957" class="text">registration </text>
<text x="495.99997071999996" y="414.99998595000005" width="86.00002976000007" height="30.99998880000004" class="text">statement</text>
<text x="582.00000048" y="413.00000577000003" width="7.999984799999993" height="29.000008620000017" class="text">, </text>
<text x="593.99999524" y="413.00000577000003" width="48.00003172000004" height="30.000021480000044" class="text">short </text>
<text x="645.99998424" y="412.00001568" width="42.00000799999998" height="30.000021479999987" class="text">form </text>
<text x="698.99999768" y="412.00001568" width="96.99998252" height="31.000034339999957" class="text">registration </text>
<text x="806.00001388" y="411.00000282" width="89.99998703999995" height="30.999988799999983" class="text">statement</text>
<text x="895.00002916" y="408.99999987" width="8.00001992" height="28.999985849999973" class="text">, </text>
<text x="906.9999536799999" y="410.00001273" width="120.99998960000016" height="31.000034339999957" class="text">supplemental </text>
<text x="1035.9999632" y="408.00000977999997" width="85.00000532000013" height="31.000034339999957" class="text">statement</text>
<text x="1121.99995784" y="406.99999692" width="8.000019920000113" height="28.999985849999973" class="text">, </text>
<text x="1132.00002664" y="406.99999692" width="67.00000440000008" height="30.999988799999983" class="text">exhibit</text>
<text x="1196.99998216" y="406.00000682999996" width="8.000019920000113" height="29.000031389999947" class="text">, </text>
<text x="1209.9999837999999" y="406.00000682999996" width="107.99998796000023" height="31.00001156999997" class="text">amendment</text>
<text x="1318.99996108" y="404.00000387999995" width="8.000019919999886" height="29.00000861999996" class="text">, </text>
<text x="1329.00002988" y="404.99999397" width="125.00001711999994" height="32.00000166000001" class="text">dissemination </text>
<text x="1464.0000280000002" y="402.99999102000004" width="57.00002339999969" height="30.99998880000004" class="text">report</text>
<text x="1518.99998496" y="402.00000093" width="8.000019920000113" height="29.000008620000017" class="text">, </text>
<text x="1532.0000041600001" y="402.00000093" width="40.99998355999992" height="29.99999871" class="text">copy </text>
<text x="1581.9999794" y="400.99998807000003" width="20.000067360000003" height="28.99998585000003" class="text">of </text>
<text x="1608.0000002400002" y="400.99998807000003" width="76.99998539999979" height="30.999988799999983" class="text">political
</text>
<text x="108.000002008" y="447.99997770000004" width="103.99999907200001" height="29.999953170000083" class="text">propaganda </text>
<text x="220.99999276" y="447.00001038" width="19.999997120000018" height="30.000021479999987" class="text">or </text>
<text x="247.99998535999998" y="445.99999752" width="48.000014160000035" height="29.99997594000007" class="text">other </text>
<text x="302.00000568" y="445.99999752" width="89.99998703999995" height="31.00001156999997" class="text">document </text>
<text x="397.99998131999996" y="443.99999457" width="20.00001468000005" height="29.00000861999996" class="text">or </text>
<text x="424.99999148" y="443.99999457" width="106.00000931999995" height="29.999975940000013" class="text">information </text>
<text x="537.99999628" y="443.00000448" width="39.99999423999998" height="29.999998709999943" class="text">filed </text>
<text x="586.99999976" y="441.99999162" width="40.00001180000004" height="28.999985849999973" class="text">with </text>
<text x="633.9999894800001" y="441.00000152999996" width="29.00000635999993" height="28.999985849999973" class="text">the </text>
<text x="667.99999512" y="441.00000152999996" width="82.00001980000002" height="29.999998709999943" class="text">Attorney </text>
<text x="754.99999664" y="439.99998867" width="75.00002431999997" height="29.999975940000013" class="text">General </text>
<text x="835.999992" y="438.99999857999995" width="51.999988999999914" height="29.999998709999943" class="text">under </text>
<text x="895.00002916" y="437.99998572000004" width="33.99993540000003" height="28.99998585000003" class="text">this </text>
<text x="934.00005164" y="437.99998572000004" width="28.999953679999862" height="28.99998585000003" class="text">act </text>
<text x="967.00001528" y="436.99999563" width="17.000011600000107" height="28.99998585000003" class="text">is </text>
<text x="989.99999792" y="436.99999563" width="8.00001992" height="28.99998585000003" class="text">a </text>
<text x="1007.00002708" y="436.99999563" width="53.00001344000009" height="29.99999871" class="text">public </text>
<text x="1071.99996504" y="436.99999563" width="57.000023400000146" height="30.99998880000004" class="text">record </text>
<text x="1137.0000259199999" y="434.99999268" width="40.999983560000146" height="28.99998585000003" class="text">open </text>
<text x="1187.00000116" y="434.99999268" width="17.00002915999994" height="28.99998585000003" class="text">to </text>
<text x="1213.000022" y="434.99999268" width="53.000013439999975" height="30.99998880000004" class="text">public </text>
<text x="1276.9999882" y="433.99997982" width="107.00001620000012" height="30.999988799999983" class="text">examination</text>
<text x="1388.00001436" y="431.99997687" width="8.000019919999886" height="28.999985849999973" class="text">, </text>
<text x="1402.99997708" y="432.99998973" width="91.00008172000003" height="30.999988799999983" class="text">inspection 
</text>
<text x="1504.00002224" y="431.00000955" width="32.99996364000003" height="29.000008620000017" class="text">and </text>
<text x="1544.00003404" y="431.00000955" width="69.99993724000001" height="31.000011570000026" class="text">copying </text>
<text x="1621.00001944" y="430.00001946" width="59.999956240000074" height="31.000034339999957" class="text">during
</text>
<text x="108.000002008" y="473.99999327999996" width="27.999999480000014" height="27.999995759999933" class="text">the </text>
<text x="143.99999858" y="473.99999327999996" width="56.00000774" height="29.999998709999943" class="text">posted </text>
<text x="210.9999942" y="473.00000319" width="74.99998919999996" height="29.99999871" class="text">business </text>
<text x="294.99999264" y="471.99999032999995" width="51.00001723999998" height="29.999998709999943" class="text">hours </text>
<text x="353.99999468" y="471.00000024" width="20.000014679999992" height="27.999995760000047" class="text">of </text>
<text x="380.99998727999997" y="471.00000024" width="25.00003152000005" height="27.999995760000047" class="text">the </text>
<text x="414.0000036" y="471.00000024" width="107.99998796" height="29.999998710000057" class="text">Registration </text>
<text x="531.0000008" y="469.00002006" width="44.000021760000095" height="28.000018530000034" class="text">Unit </text>
<text x="582.00000048" y="469.00002006" width="16.00000471999988" height="29.000031390000004" class="text">in </text>
<text x="606.99999688" y="469.00002006" width="103.00000623999995" height="30.000021480000044" class="text">Washington</text>
<text x="712.99998864" y="467.00001711" width="8.00001992" height="28.000018530000034" class="text">, </text>
<text x="728.9999758" y="467.00001711" width="41.000036239999986" height="28.000018530000034" class="text">D.C. </text>
<text x="774.9999937599999" y="465.99998148" width="40.00001180000004" height="27.999995759999933" class="text">One </text>
<text x="821.00002928" y="465.99998148" width="42.999979759999974" height="28.999985849999973" class="text">copy </text>
<text x="871.9999762799999" y="465.00001416" width="20.00001468000005" height="28.000018529999977" class="text">of </text>
<text x="896.9999726799999" y="465.00001416" width="47.000059960000044" height="29.000031389999947" class="text">every </text>
<text x="957.0000342799999" y="464.0000013" width="38.99993468000014" height="28.000018529999977" class="text">such </text>
<text x="1006.00003776" y="464.0000013" width="88.99990991999982" height="30.000021479999987" class="text">document </text>
<text x="1101.9999958399999" y="463.00001120999997" width="17.000029160000167" height="28.000018529999977" class="text">is </text>
<text x="1124.00000672" y="463.00001120999997" width="122.99995067999998" height="30.000021479999987" class="text">automatically </text>
<text x="1254.99997732" y="461.00000826" width="79.0000518400002" height="29.99999871" class="text">provided 
</text>
<text x="1343.00002084" y="459.99999540000005" width="15.999934480000093" height="28.000018530000034" class="text">to </text>
<text x="1367.99996456" y="459.99999540000005" width="28.00006971999983" height="28.99998585000003" class="text">the </text>
<text x="1406.99998704" y="459.99999540000005" width="84.00003356000002" height="29.99997594000007" class="text">Secretary </text>
<text x="1499.00004052" y="457.99999245000004" width="19.99994443999981" height="27.99997299000006" class="text">of </text>
<text x="1527.9999942" y="457.99999245000004" width="40.999983560000146" height="28.99998585000003" class="text">State </text>
<text x="1576.99999768" y="457.99999245000004" width="81.99996711999984" height="29.99997594000007" class="text">pursuant </text>
<text x="1662.000003" y="455.9999895" width="17.00001159999988" height="27.99997299000006" class="text">to
</text>
<text x="109.999994696" y="502.00001181" width="65.00001171199999" height="30.000021480000044" class="text">Section </text>
<text x="184.00000160000002" y="500.99997618" width="8.000002359999968" height="27.999972990000003" class="text">6</text>
<text x="194.99998948" y="500.99997618" width="8.00001992" height="27.999972990000003" class="text">(</text>
<text x="203.0000094" y="500.99997618" width="7.999984799999993" height="27.999972990000003" class="text">b</text>
<text x="215.00000416" y="500.99997618" width="7.999984799999993" height="27.999972990000003" class="text">) </text>
<text x="225.00000271999997" y="500.99997618" width="19.999997120000046" height="28.99998585000003" class="text">of </text>
<text x="247.99998535999998" y="500.00000886" width="27.999999480000042" height="28.000018530000034" class="text">the </text>
<text x="286.99999028" y="500.00000886" width="26.999992599999985" height="28.000018530000034" class="text">Act</text>
<text x="314.99998976" y="500.00000886" width="8.000002359999996" height="28.000018530000034" class="text">, </text>
<text x="328.99999828" y="498.999996" width="30.99998499999998" height="27.99999575999999" class="text">and </text>
<text x="368.00000320000004" y="498.999996" width="55.00000963999997" height="29.000008620000017" class="text">copies </text>
<text x="433.0000114" y="498.00000590999997" width="15.999969600000043" height="28.000018529999977" class="text">of </text>
<text x="456.00002916" y="498.00000590999997" width="37.99999803999998" height="28.000018529999977" class="text">such </text>
<text x="501.99999444" y="498.00000590999997" width="96.99998252" height="30.000021479999987" class="text">documents </text>
<text x="606.00002512" y="496.00000295999996" width="26.999992599999928" height="28.000018529999977" class="text">are </text>
<text x="640.0000132" y="496.00000295999996" width="79.99997092000001" height="30.000021479999987" class="text">routinely </text>
<text x="734.99999952" y="494.99999010000005" width="42.00000800000009" height="29.000008620000074" class="text">made </text>
<text x="785.9999992" y="494.99999010000005" width="78.00000983999996" height="29.99997594000007" class="text">available </text>
<text x="869.99998008" y="492.99998715000004" width="15.000068079999892" height="27.99997299000006" class="text">to </text>
<text x="895.00002916" y="492.99998715000004" width="46.99993703999996" height="28.99998585000003" class="text">other </text>
<text x="945.0000044" y="492.99998715000004" width="77.99995716000001" height="29.99997594000007" class="text">agencies</text>
<text x="1024.00003868" y="491.99999706" width="7.999914559999979" height="27.99999575999999" class="text">, </text>
<text x="1036.99995252" y="491.99999706" width="111.99999791999994" height="29.99999871" class="text">departments </text>
<text x="1155.9999986" y="489.99999411" width="30.000030799999877" height="27.99999575999999" class="text">and </text>
<text x="1192.9999722" y="489.99999411" width="84.00001599999996" height="29.999998709999943" class="text">Congress </text>
<text x="1282.99995924" y="489.00002679" width="82.00007247999997" height="30.000021479999987" class="text">pursuant </text>
<text x="1367.99996456" y="487.99999116" width="17.00001159999988" height="28.999985849999973" class="text">to </text>
<text x="1392.99999608" y="487.99999116" width="64.99995551999996" height="29.999998709999943" class="text">Section 
</text>
<text x="1469.00000972" y="485.99998820999997" width="8.000019920000113" height="27.999995759999933" class="text">6</text>
<text x="1477.00002964" y="485.99998820999997" width="8.000019919999886" height="27.999995759999933" class="text">(</text>
<text x="1486.00002132" y="485.99998820999997" width="8.000037479999946" height="27.999995759999933" class="text">c</text>
<text x="1496.9999740800001" y="485.99998820999997" width="8.000037479999719" height="27.999995759999933" class="text">) </text>
<text x="1510.99996504" y="485.99998820999997" width="16.00003984" height="27.999995759999933" class="text">of </text>
<text x="1535.00004236" y="485.99998820999997" width="27.99996436000015" height="28.999985849999973" class="text">the </text>
<text x="1567.9999884400002" y="485.00002089" width="31.000020119999817" height="28.000018529999977" class="text">Act</text>
<text x="1600.99995208" y="485.00002089" width="8.000019919999886" height="28.000018529999977" class="text">. </text>
<text x="1613.99997128" y="485.00002089" width="62.00002268000003" height="30.000021479999987" class="text">Finally
</text>
<text x="1675.99999396" y="484.00000802999995" width="8.000019920000113" height="28.00001852999992" class="text">,
</text>
<text x="110.99999630800001" y="530.99999766" width="26.000008547999997" height="27.00000566999995" class="text">the </text>
<text x="147.000006928" y="530.99999766" width="72.99997895200002" height="28.999985849999973" class="text">Attorney </text>
<text x="231.9999982" y="530.00000757" width="71.00001436000002" height="29.000031390000004" class="text">General </text>
<text x="310.00000804" y="528.99999471" width="82.99999156000001" height="28.99998585000003" class="text">transmits </text>
<text x="397.99998131999996" y="526.99999176" width="20.00001468000005" height="26.999982899999964" class="text">an </text>
<text x="427.99999456" y="526.99999176" width="62.00002267999997" height="27.999995759999933" class="text">annual </text>
<text x="495.99997071999996" y="526.99999176" width="57.00004095999998" height="28.999985849999973" class="text">report </text>
<text x="559.00001784" y="524.99998881" width="9.999980999999934" height="26.99998290000002" class="text">to </text>
<text x="584.00001424" y="524.99998881" width="26.999992599999928" height="26.99998290000002" class="text">the </text>
<text x="618.00000232" y="524.99998881" width="82.0000197999999" height="28.99998585000003" class="text">Congress </text>
<text x="707.99998936" y="523.99999872" width="20.00001468000005" height="27.999995760000047" class="text">on </text>
<text x="736.00002396" y="522.99998586" width="31.99997431999998" height="26.999982900000077" class="text">the </text>
<text x="774.9999937599999" y="522.99998586" width="130.99998816000016" height="29.99999871" class="text">Administration </text>
<text x="915.99994536" y="520.99998291" width="20.000067360000003" height="26.999982899999964" class="text">of </text>
<text x="941.9999662" y="520.99998291" width="26.999992599999928" height="26.999982899999964" class="text">the </text>
<text x="976.99999628" y="520.00001559" width="34.00004075999993" height="27.000028439999937" class="text">Act </text>
<text x="1013.99996988" y="520.00001559" width="53.000013439999975" height="29.00000861999996" class="text">which </text>
<text x="1079.99998496" y="518.99997996" width="31.999991880000152" height="26.99998290000002" class="text">lists </text>
<text x="1123.00003496" y="518.99997996" width="25.999915480000027" height="27.999972990000003" class="text">the </text>
<text x="1156.99997036" y="518.99997996" width="56.00005164000004" height="28.99998585000003" class="text">names </text>
<text x="1221.0000419199998" y="516.9999997799999" width="19.999962000000096" height="27.00000566999995" class="text">of </text>
<text x="1249.00002384" y="516.9999997799999" width="23.99995439999998" height="27.00000566999995" class="text">all </text>
<text x="1277.9999775200001" y="516.9999997799999" width="57.9999951599998" height="29.00000861999996" class="text">agents </text>
<text x="1339.9999826399999" y="516.00000969" width="89.99998704000018" height="28.999985849999973" class="text">registered </text>
<text x="1436.00004608" y="514.99999683" width="55.99994628000013" height="29.000008620000017" class="text">under </text>
<text x="1497.9999634" y="514.00000674" width="26.999992599999814" height="26.99998290000002" class="text">the 
</text>
<text x="1536.99998588" y="514.00000674" width="31.000002560000212" height="28.000018530000034" class="text">Act</text>
<text x="1567.9999884400002" y="512.9999938799999" width="8.000037479999719" height="27.00000566999995" class="text">, </text>
<text x="1582.99996872" y="512.9999938799999" width="26.000003279999873" height="27.00000566999995" class="text">the </text>
<text x="1617.00000948" y="512.9999938799999" width="61.00003336000009" height="28.999985849999973" class="text">foreign
</text>
<text x="108.99999835199999" y="561.99998646" width="88.00000488799999" height="29.9999759399999" class="text">principals </text>
<text x="208.999998" y="560.99999637" width="36.00000184000001" height="29.99999871" class="text">they </text>
<text x="255.00001595999998" y="559.99998351" width="86.9999664" height="30.999988799999983" class="text">represent</text>
<text x="341.99998236" y="558.99999342" width="8.000037480000003" height="28.99998585000003" class="text">, </text>
<text x="356.00000844" y="557.9999805599999" width="28.99998880000004" height="28.999985849999916" class="text">and </text>
<text x="397.99998131999996" y="557.9999805599999" width="24.00002464000005" height="28.999985849999916" class="text">the </text>
<text x="430.99999764" y="557.9999805599999" width="57.99997760000002" height="30.999988799999983" class="text">nature</text>
<text x="490.00001724" y="556.9999904700001" width="7.999967240000046" height="28.99998585000003" class="text">, </text>
<text x="503.00001888" y="556.9999904700001" width="69.9999899199999" height="30.999988800000096" class="text">sources </text>
<text x="580.99997604" y="555.00001029" width="34.00004075999993" height="29.000008620000017" class="text">and </text>
<text x="622.0000122800001" y="555.00001029" width="70.99996167999996" height="31.00001156999997" class="text">content </text>
<text x="696.99998392" y="553.99997466" width="22.000010880000104" height="28.99998585000003" class="text">of </text>
<text x="725.0000185199999" y="553.00000734" width="29.000006360000157" height="29.000008620000017" class="text">the </text>
<text x="761.00002036" y="553.00000734" width="75.99999607999996" height="30.999988799999983" class="text">political </text>
<text x="846.0000081200001" y="552.00001725" width="100.99995735999983" height="31.00003434000007" class="text">propaganda </text>
<text x="958.00000604" y="551.00000439" width="116.99999720000005" height="32.00002442999994" class="text">disseminated </text>
<text x="1085.9999559999999" y="548.00001135" width="22.000010880000218" height="29.000031390000004" class="text">or </text>
<text x="1111.99997684" y="548.00001135" width="96.00006344000008" height="29.99999871" class="text">distributed </text>
<text x="1218.9999930400002" y="546.9999984899999" width="22.000010879999763" height="29.99999871" class="text">by </text>
<text x="1249.00002384" y="546.0000084000001" width="44.99999352000009" height="29.999998710000114" class="text">them</text>
<text x="1298.9999990800002" y="544.99999554" width="8.000019919999886" height="28.99998585000003" class="text">. </text>
<text x="1315.00003892" y="544.99999554" width="37.999962920000144" height="29.99999871" class="text">This </text>
<text x="1361.99999352" y="544.99999554" width="58.00001271999986" height="30.999988799999983" class="text">report </text>
<text x="1423.0000268800002" y="544.00000545" width="16.999923799999806" height="29.000008620000017" class="text">is 
</text>
<text x="1448.99994236" y="544.00000545" width="76.0000136399999" height="31.000011570000083" class="text">available </text>
<text x="1536.00001412" y="542.0000025" width="17.000011600000107" height="29.00000862000013" class="text">to </text>
<text x="1563.00000672" y="542.0000025" width="28.999953679999862" height="29.00000862000013" class="text">the </text>
<text x="1599.00000856" y="542.0000025" width="53.99998520000008" height="31.000011570000083" class="text">public</text>
<text x="1657.9999930400002" y="540.00002232" width="8.000019919999886" height="29.000031390000004" class="text">.
</text>
<text x="111.999999676" y="614.99998494" width="53.99999398000001" height="28.99998585000003" class="text">Public </text>
<text x="173.000001428" y="614.99998494" width="88.00000313199999" height="28.99998585000003" class="text">Reporting </text>
<text x="266.99999316" y="613.99999485" width="64.00001888000003" height="28.99998585000003" class="text">Burden</text>
<text x="333.99999756" y="612.00003744" width="7.999984799999993" height="27.00002844000005" class="text">. </text>
<text x="346.00000988" y="613.00002753" width="56.999988280000025" height="29.000008620000017" class="text">Public </text>
<text x="409.99999364" y="612.00003744" width="80.00002359999996" height="29.000054160000104" class="text">reporting </text>
<text x="497.99998448" y="610.99997904" width="60.00000891999997" height="28.99998585000003" class="text">burden </text>
<text x="566.00001332" y="609.99998895" width="26.99999260000004" height="27.999995760000047" class="text">for </text>
<text x="600.0000014" y="609.00002163" width="29.999978120000037" height="27.00002844000005" class="text">this </text>
<text x="636.00000324" y="609.00002163" width="83.99998088000007" height="29.000008619999903" class="text">collection </text>
<text x="730.00000024" y="608.00003154" width="20.00001468000005" height="28.00001852999992" class="text">of </text>
<text x="752.9999828800001" y="608.00003154" width="105.00001999999995" height="29.00005415999999" class="text">information </text>
<text x="862.9999846" y="606.00000582" width="15.000015400000052" height="27.000028439999937" class="text">is </text>
<text x="883.99997104" y="606.00000582" width="84.99998775999995" height="29.000008619999903" class="text">estimated </text>
<text x="977.9999680400001" y="605.00001573" width="10.000086359999841" height="27.000028439999937" class="text">to </text>
<text x="997.00004608" y="605.00001573" width="64.99993796000012" height="28.999985849999916" class="text">average </text>
<text x="1070.99999328" y="604.0000256400001" width="14.999962719999985" height="27.00002844000005" class="text">.5 </text>
<text x="1094.9999476799999" y="602.9999900099999" width="48.00003172000015" height="28.00001852999992" class="text">hours </text>
<text x="1150.99999932" y="602.9999900099999" width="27.0000101600001" height="28.00001852999992" class="text">per </text>
<text x="1187.00000116" y="602.9999900099999" width="75.00002431999997" height="29.000008619999903" class="text">response</text>
<text x="1264.99995832" y="601.0000098300001" width="8.000019920000113" height="27.00002844000005" class="text">, </text>
<text x="1276.0000164399999" y="601.99999992" width="84.00003356000025" height="28.99998585000003" class="text">including </text>
<text x="1366.00000348" y="600.0000197400001" width="26.000020839999934" height="27.000005670000064" class="text">the </text>
<text x="1402.00000532" y="600.0000197400001" width="36.9999736000002" height="27.999995760000047" class="text">time </text>
<text x="1446.99999884" y="598.99998411" width="23.99995439999998" height="26.999960129999977" class="text">for </text>
<text x="1474.9999632" y="598.99998411" width="87.00007176000008" height="28.99998585000003" class="text">reviewing </text>
<text x="1571.00002664" y="597.99999402" width="104.99996732" height="28.99998585000003" class="text">instructions</text>
<text x="1675.99999396" y="597.00000393" width="8.000019920000113" height="27.000005670000064" class="text">,
</text>
<text x="108.000002008" y="643.99997079" width="89.00000123199999" height="29.999975940000013" class="text">searching </text>
<text x="205.0000056" y="642.9999807" width="69.00000059999996" height="29.999953170000026" class="text">existing </text>
<text x="281.00000168" y="642.00001338" width="36.00000183999998" height="28.99998585000003" class="text">data </text>
<text x="331.00001204" y="641.0000232900001" width="64.99999063999996" height="28.99998585000003" class="text">sources</text>
<text x="397.99998131999996" y="639.99996489" width="8.00003748000006" height="27.999927449999973" class="text">, </text>
<text x="415.00001047999996" y="639.99996489" width="82.99997400000007" height="29.999975940000013" class="text">gathering </text>
<text x="506.00000439999997" y="638.99999757" width="31.000002560000098" height="29.000008620000017" class="text">and </text>
<text x="553.99998344" y="638.99999757" width="100.99999247999995" height="29.999975940000013" class="text">maintaining </text>
<text x="665.0000096" y="637.00001739" width="27.999964360000035" height="27.999995760000047" class="text">the </text>
<text x="698.99999768" y="635.99998176" width="36.00000183999998" height="27.99995021999996" class="text">data </text>
<text x="743.9999912000001" y="635.99998176" width="60.99998067999991" height="29.999975940000013" class="text">needed</text>
<text x="812.00002004" y="634.99999167" width="7.999967240000046" height="28.000018530000034" class="text">, </text>
<text x="824.9999865599999" y="634.99999167" width="32.000027000000046" height="28.99998585000003" class="text">and </text>
<text x="866.99999456" y="634.00000158" width="100.00002071999995" height="28.99998585000003" class="text">completing </text>
<text x="976.00000696" y="633.00001149" width="32.99996364000003" height="28.999985849999916" class="text">and </text>
<text x="1018.9999515999999" y="633.00001149" width="88.00004352000008" height="30.0000214800001" class="text">reviewing </text>
<text x="1115.00001504" y="630.99998577" width="26.999992599999814" height="27.999995760000047" class="text">the </text>
<text x="1154.00003752" y="630.99998577" width="85.99997708000001" height="29.9999759399999" class="text">collection </text>
<text x="1251.99995668" y="629.00002836" width="15.000068079999892" height="28.00001852999992" class="text">of </text>
<text x="1275.00004468" y="629.00002836" width="107.99998796" height="30.000044249999974" class="text">information
</text>
<text x="1385.99996548" y="626.99997987" width="8.000019920000113" height="27.999995759999933" class="text">. </text>
<text x="1397.99999536" y="626.99997987" width="44.99999352000009" height="28.999985849999916" class="text">Send </text>
<text x="1451.99998056" y="626.99997987" width="94.99998632000006" height="29.9999759399999" class="text">comments </text>
<text x="1553.0000257200002" y="626.0000125500001" width="87.99993815999983" height="29.999975940000013" class="text">regarding </text>
<text x="1648.9999837999999" y="623.99996406" width="31.000020120000045" height="27.999927449999973" class="text">this
</text>
<text x="108.99999835199999" y="670.0000091400001" width="62.999999708000004" height="27.00002844000005" class="text">burden </text>
<text x="179.00000232" y="669.0000418200001" width="76.00001363999999" height="27.00002844000005" class="text">estimate </text>
<text x="261.00000456" y="667.99998342" width="23.999989520000042" height="25.999970039999994" class="text">or </text>
<text x="287.99999716" y="667.99998342" width="34.00002319999999" height="26.999960129999977" class="text">any </text>
<text x="330.00000516" y="666.99999333" width="47.000007280000034" height="27.00002844000005" class="text">other </text>
<text x="380.99998727999997" y="666.99999333" width="60.999998240000025" height="27.999995760000047" class="text">aspect </text>
<text x="445.99999548" y="666.0000032400001" width="24.000007080000046" height="26.000038350000068" class="text">of </text>
<text x="474.00001252000004" y="665.0000359200001" width="29.000006359999986" height="26.000038350000068" class="text">this </text>
<text x="512.00002812" y="665.0000359200001" width="88.9999626" height="28.000018530000034" class="text">collection </text>
<text x="611.00000684" y="663.99997752" width="18.99997268000004" height="26.999960129999977" class="text">of </text>
<text x="635.0000314800001" y="663.99997752" width="107.99998795999988" height="27.999995760000047" class="text">information</text>
<text x="743.9999912000001" y="662.00002011" width="6.999995479999939" height="26.000038350000068" class="text">, </text>
<text x="756.99999284" y="662.00002011" width="83.00000911999996" height="28.000018530000034" class="text">including </text>
<text x="849.9999654" y="661.00003002" width="105.00001999999995" height="28.000018530000034" class="text">suggestions </text>
<text x="963.0000053199999" y="659.0000043" width="25.000049080000053" height="25.99999280999998" class="text">for </text>
<text x="994.9999796400001" y="659.0000043" width="79.00005183999986" height="28.000018530000034" class="text">reducing </text>
<text x="1082.0000513999998" y="658.00001421" width="32.99996364000026" height="27.00002844000005" class="text">this </text>
<text x="1121.99995784" y="658.00001421" width="60.00006159999998" height="28.000018530000034" class="text">burden </text>
<text x="1194.00004932" y="655.99998849" width="13.999990960000105" height="25.99999280999998" class="text">to </text>
<text x="1221.0000419199998" y="655.99998849" width="47.999926360000245" height="26.999960129999977" class="text">Chief
</text>
<text x="1272.00000648" y="654.9999984" width="7.000048160000233" height="25.999970039999994" class="text">, </text>
<text x="1285.99999744" y="655.99998849" width="108.99995971999988" height="28.000018530000034" class="text">Registration </text>
<text x="1402.00000532" y="654.00000831" width="43.00003244000004" height="27.999995759999933" class="text">Unit</text>
<text x="1446.0000270799999" y="653.00001822" width="6.999942800000099" height="26.000038350000068" class="text">, </text>
<text x="1460.00000048" y="653.00001822" width="81.99996712000006" height="27.00000566999995" class="text">Criminal </text>
<text x="1546.99996688" y="651.99998259" width="78.0000625199998" height="28.00001852999992" class="text">Division</text>
<text x="1627.99996224" y="650.9999925" width="7.0000305999999455" height="25.99997003999988" class="text">, </text>
<text x="1644.00000208" y="650.9999925" width="40.99998355999992" height="28.00001852999992" class="text">U.S.
</text>
<text x="111.999999676" y="698.99999499" width="108.999993084" height="28.999985849999916" class="text">Department </text>
<text x="226.0000096" y="696.99996927" width="19.999997120000018" height="26.999960129999863" class="text">of </text>
<text x="254.00000908" y="698.00002767" width="59.99997379999999" height="28.999985849999916" class="text">Justice</text>
<text x="312.99999356" y="695.99997918" width="8.00001992" height="26.999937359999876" class="text">, </text>
<text x="330.00000516" y="696.99996927" width="101.99999936" height="28.999985849999916" class="text">Washington</text>
<text x="434.99999004" y="695.0000118600001" width="8.00001992" height="27.00002844000005" class="text">, </text>
<text x="448.99998100000005" y="695.0000118600001" width="42.00000799999998" height="29.000008620000017" class="text">D.C. </text>
<text x="499.00000892" y="694.0000217700001" width="54.99997452000002" height="28.000018530000034" class="text">20530</text>
<text x="555.99997964" y="692.99996337" width="8.000037479999946" height="26.999960129999977" class="text">; </text>
<text x="568.00002708" y="692.99996337" width="33.99998807999998" height="26.999960129999977" class="text">and </text>
<text x="611.00000684" y="692.99996337" width="14.999962720000099" height="27.999927449999973" class="text">to </text>
<text x="638.9999887600001" y="691.99999605" width="26.000020839999934" height="26.999960129999977" class="text">the </text>
<text x="672.9999768399999" y="691.99999605" width="55.999998960000084" height="29.000008620000017" class="text">Office </text>
<text x="739.00000948" y="691.0000059600001" width="19.99999711999999" height="27.00002844000005" class="text">of </text>
<text x="763.99998832" y="691.0000059600001" width="107.99998795999988" height="28.99998585000003" class="text">Information </text>
<text x="878.99997176" y="688.99998024" width="34.00004075999993" height="26.999960129999977" class="text">and </text>
<text x="922.00002176" y="688.99998024" width="98.99997872000006" height="29.000008620000017" class="text">Regulatory </text>
<text x="1031.99995324" y="687.99999015" width="61.00005092000015" height="28.99998585000003" class="text">Affairs</text>
<text x="1096.00004236" y="686.0000099700001" width="7.999914560000207" height="27.000005670000064" class="text">, </text>
<text x="1106.99999512" y="687.00000006" width="58.999966919999906" height="28.99998585000003" class="text">Office </text>
<text x="1178.00000948" y="684.99997434" width="14.999962719999985" height="26.999960129999977" class="text">of </text>
<text x="1200.99999212" y="686.0000099700001" width="119.00004608000017" height="30.0000214800001" class="text">Management </text>
<text x="1327.99995276" y="683.99998425" width="30.000030800000104" height="27.999995760000047" class="text">and </text>
<text x="1371.00000276" y="682.99999416" width="62.000005120000196" height="27.999995760000047" class="text">Budget</text>
<text x="1433.99997964" y="682.00002684" width="8.000037479999946" height="27.00002844000005" class="text">, 
</text>
<text x="1450.0000370399998" y="682.00002684" width="102.99998868000034" height="28.000018530000034" class="text">Washington</text>
<text x="1554.9999868" y="680.99996844" width="8.000019920000113" height="26.999960129999977" class="text">, </text>
<text x="1569.99994952" y="679.99997835" width="42.00006068000016" height="27.999995760000047" class="text">D.C. </text>
<text x="1621.9999912" y="679.99997835" width="52.00004167999987" height="28.99998585000003" class="text">20503</text>
<text x="1676.99996572" y="679.00001103" width="8.000019919999886" height="27.00002844000005" class="text">.
</text>
<text x="124.99999780400002" y="760.0000052700001" width="24.00000181199998" height="31.00003434000007" class="text">1. </text>
<text x="158.99999993199998" y="760.0000052700001" width="70.99998450800004" height="31.00003434000007" class="text">Name </text>
<text x="243.00000364000002" y="760.9999953600001" width="23.999989519999957" height="30.99996603000011" class="text">of </text>
<text x="275.99998484" y="760.9999953600001" width="108.00002307999995" height="30.99996603000011" class="text">registrant
</text>
<text x="160.0000033" y="802.99996623" width="78.00000105999999" height="29.999975940000013" class="text">JETRO</text>
<text x="246.00000672000002" y="801.0000088200001" width="9.000009239999969" height="27.00002844000005" class="text">, </text>
<text x="277.99999859999997" y="800.00001873" width="46.99998972000003" height="28.00001852999992" class="text">New </text>
<text x="349.00001296" y="799.00002864" width="61.99998756000002" height="29.00005415999999" class="text">York
</text>
<text x="1239.00004284" y="748.00001034" width="24.99994371999992" height="32.00002442999994" class="text">2. </text>
<text x="1270.0000453999999" y="748.00001034" width="137.9999134000002" height="35.000040239999976" class="text">Registration </text>
<text x="1418.0000451600001" y="744.99999453" width="50.99996455999985" height="33.99998183999992" class="text">No.
</text>
<text x="1297.00005556" y="788.99999112" width="65.99990972" height="25.999970040000107" class="text">1643
</text>
<text x="127.000002784" y="861.9999963299999" width="24.99999113199999" height="32.999991749999936" class="text">3. </text>
<text x="161.999995988" y="861.9999963299999" width="78.99999389200002" height="35.000017469999875" class="text">Nature </text>
<text x="253.00000219999998" y="861.00000624" width="23.999989520000042" height="34.00002737999989" class="text">of </text>
<text x="292.00000712" y="861.00000624" width="90.99999392000001" height="35.000017469999875" class="text">material </text>
<text x="388.99998964" y="858.99998052" width="8.999991679999937" height="32.999991749999936" class="text">(</text>
<text x="402.00000884" y="858.99998052" width="8.999991679999994" height="32.999991749999936" class="text">A </text>
<text x="426.99998768" y="858.99998052" width="83.00002667999996" height="34.99994916000003" class="text">concise </text>
<text x="523.00003356" y="857.9999904299999" width="93.99994432000005" height="35.000017469999875" class="text">account </text>
<text x="627.99998332" y="857.0000231099999" width="21.00002156000005" height="32.999991749999936" class="text">of </text>
<text x="656.99998968" y="856.0000330199999" width="32.999998759999926" height="33.000060059999896" class="text">the </text>
<text x="700.99999388" y="856.0000330199999" width="73.9999998799999" height="35.000017469999875" class="text">nature </text>
<text x="788.0000129599999" y="854.99997462" width="24.000007080000046" height="32.999991749999936" class="text">of </text>
<text x="817.99999108" y="854.99997462" width="33.000016319999986" height="33.99995906999993" class="text">the </text>
<text x="862.0000128400001" y="854.99997462" width="140.00001495999993" height="34.99994916000003" class="text">propaganda </text>
<text x="1018.9999515999999" y="853.00001721" width="89.00001528000018" height="35.000040239999976" class="text">material </text>
<text x="1119.000025" y="852.00002712" width="44.99999352000009" height="34.00005014999999" class="text">filed</text>
<text x="1170.99996132" y="850.9999914900001" width="8.999991679999994" height="33.000014520000036" class="text">)
</text>
<text x="156.999994952" y="907.0000057799999" width="68.00000776799996" height="32.999991749999936" class="text">News </text>
<text x="247.0000136" y="907.0000057799999" width="148.99998907999998" height="35.00004023999986" class="text">magazines </text>
<text x="417.999996" y="905.0000256" width="46.000000399999976" height="33.000060059999896" class="text">for </text>
<text x="486.99997904" y="905.0000256" width="131.99999504" height="35.00001746999999" class="text">Japanese </text>
<text x="636.999975" y="903.9999672" width="174.00002060000008" height="33.999959070000045" class="text">technology
</text>
<text x="127.000002784" y="993.99996333" width="30.999995536" height="28.999985849999916" class="text">4. </text>
<text x="169.000002004" y="993.99996333" width="43.99998839599999" height="28.999985849999916" class="text">Title </text>
<text x="227.00001648000003" y="995.00002173" width="24.999978839999983" height="30.00004424999986" class="text">of </text>
<text x="266.00000384" y="995.00002173" width="93.99997944" height="28.999985849999916" class="text">material</text>
<text x="359.00001152" y="995.00002173" width="8.000002359999996" height="28.999985849999916" class="text">, </text>
<text x="376.00000556" y="995.00002173" width="16.999994040000047" height="28.999985849999916" class="text">if </text>
<text x="404.00000504" y="995.00002173" width="37.00000872000004" height="28.999985849999916" class="text">any
</text>
<text x="175.99999924" y="1041.99998859" width="44.999993520000004" height="32.00002442999994" class="text">New </text>
<text x="246.00000672000002" y="1041.99998859" width="167.00000755999994" height="33.99998183999992" class="text">Technology </text>
<text x="434.99999004" y="1040.00000841" width="80.00000603999996" height="34.00002737999989" class="text">Japan </text>
<text x="542.9999779999999" y="1039.00004109" width="8.999991680000107" height="32.00002442999994" class="text">(</text>
<text x="557.00002164" y="1039.00004109" width="152.00000971999998" height="34.00005014999999" class="text">September</text>
<text x="711.9999993199999" y="1036.9999926" width="9.000009240000054" height="32.000001660000066" class="text">, </text>
<text x="745.00001564" y="1036.9999926" width="65.00000819999991" height="33.99998184000003" class="text">1993</text>
<text x="817.99999108" y="1036.00002528" width="8.999991679999994" height="32.00002443000005" class="text">)
</text>
<text x="948.0000425999999" y="991.0000158299999" width="31.000002560000098" height="32.999991749999936" class="text">5. </text>
<text x="999.00000716" y="991.0000158299999" width="67.00000439999985" height="35.00001746999999" class="text">Name </text>
<text x="1075.00000324" y="988.99999011" width="23.99995439999998" height="32.99999175000005" class="text">of </text>
<text x="1106.0000058" y="988.99999011" width="76.0000136399999" height="34.999971930000015" class="text">foreign </text>
<text x="1188.99996224" y="988.00000002" width="108.0000933199999" height="35.00001746999999" class="text">principal </text>
<text x="1303.0000090400001" y="985.9999743000001" width="23.99997195999981" height="32.99999175000005" class="text">on </text>
<text x="1333.00003984" y="985.9999743000001" width="72.00000367999996" height="34.99997193000013" class="text">whose </text>
<text x="1412.9999580800002" y="984.99998421" width="75.00002431999997" height="34.99994916000003" class="text">behalf </text>
<text x="1496.9999740800001" y="983.0000268" width="36.99997359999975" height="34.00005014999999" class="text">this </text>
<text x="1545.99999512" y="983.0000268" width="89.99998703999995" height="35.00004024000009" class="text">material </text>
<text x="1639.99999212" y="980.99997831" width="47.00004240000021" height="33.99998184000003" class="text">was
</text>
<text x="999.99997892" y="1015.00002846" width="127.00006599999995" height="27.000028439999937" class="text">transmitted</text>
<text x="1133.00001596" y="1013.9999700599999" width="6.999925240000039" height="24.999979949999897" class="text">.
</text>
<text x="967.99998704" y="1066.99996854" width="84.00003356000002" height="32.99999175000016" class="text">Japan </text>
<text x="1070.99999328" y="1066.99996854" width="139.99997983999992" height="34.99994916000014" class="text">External </text>
<text x="1228.99995648" y="1065.99997845" width="84.00003356000002" height="33.99995907000016" class="text">Trade </text>
<text x="1330.9999909599999" y="1065.99997845" width="205.99999492000006" height="34.99994916000014" class="text">Organization
</text>
<text x="127.000002784" y="1162.0000062" width="29.00000284799998" height="27.000005669999837" class="text">6. </text>
<text x="165.00000433600002" y="1162.0000062" width="75.999985544" height="28.999985849999803" class="text">Means </text>
<text x="251.99999532" y="1160.00004879" width="24.999996400000015" height="27.000028439999824" class="text">of </text>
<text x="285.99998339999996" y="1160.00004879" width="142.00001116000004" height="30.000044249999974" class="text">transmission
</text>
<text x="665.0000096" y="1154.0000171699999" width="13.999990959999991" height="26.00003834999984" class="text">7. </text>
<text x="689.00001668" y="1154.0000171699999" width="65.9999799599999" height="28.000018529999807" class="text">Dates </text>
<text x="766.9999738399999" y="1153.00002708" width="24.000024640000106" height="26.000038350000068" class="text">of </text>
<text x="799.9999901599999" y="1153.00002708" width="141.9999760400001" height="27.999995760000047" class="text">transmission
</text>
<text x="1173.99999952" y="1154.0000171699999" width="22.99998263999987" height="32.00002442999994" class="text">8. </text>
<text x="1208.0000402800001" y="1154.0000171699999" width="55.999946279999904" height="34.00005014999988" class="text">Total </text>
<text x="1272.00000648" y="1153.00002708" width="75.0000243200002" height="34.000050150000106" class="text">copies </text>
<text x="1356.0000224799999" y="1152.00003699" width="125.00001712000017" height="35.000017469999875" class="text">transmitted
</text>
<text x="1248.00003452" y="1194.0000306299999" width="27.000010159999874" height="25.000002719999884" class="text">26
</text>
<text x="156.00000563199998" y="1203.99999984" width="72.00000016800001" height="23.000022540000145" class="text">Mail
</text>
<text x="676.9999868" y="1205.99995725" width="154.99999523999998" height="32.99999175000016" class="text">September </text>
<text x="851.99997916" y="1202.0000196600001" width="26.99999260000004" height="29.000054160000218" class="text">20</text>
<text x="887.9999809999999" y="1202.0000196600001" width="8.999991679999994" height="29.000054160000218" class="text">, </text>
<text x="919.9999553199999" y="1201.0000523400001" width="64.00007156000015" height="30.0000442500002" class="text">1993
</text>
<text x="128.000006152" y="1263.99995172" width="30.999993779999983" height="27.999950219999846" class="text">9. </text>
<text x="168.000000392" y="1262.9999616300001" width="44.000000688" height="28.999917540000297" class="text">List </text>
<text x="222.99998896" y="1262.9999616300001" width="107.0000162" height="29.999907630000052" class="text">addresses </text>
<text x="343.99999612" y="1260.99998145" width="51.000017240000034" height="30.000021479999987" class="text">from </text>
<text x="406.0000188" y="1260.99998145" width="70.99997923999996" height="30.000021479999987" class="text">which </text>
<text x="492.00001344000003" y="1259.00002404" width="92.00000080000001" height="29.00005415999999" class="text">material </text>
<text x="591.00000972" y="1258.00003395" width="44.999993519999975" height="30.000044249999974" class="text">was </text>
<text x="644.99999492" y="1257.00006663" width="129.0000270800001" height="31.000034339999957" class="text">transmitted</text>
<text x="777.99997928" y="1254.99994983" width="8.00001992" height="27.999927450000087" class="text">:
</text>
<text x="953.99999608" y="1252.00000233" width="40.999983560000146" height="27.99992744999986" class="text">10. </text>
<text x="1004.99996064" y="1251.0000122400002" width="42.00006068000005" height="28.000064070000008" class="text">List </text>
<text x="1062.99997336" y="1251.0000122400002" width="62.00000511999997" height="29.000054160000218" class="text">states </text>
<text x="1137.0000259199999" y="1250.0000449200002" width="37.99994536000008" height="28.000086840000222" class="text">and </text>
<text x="1191.99998288" y="1249.00005483" width="116.00002543999994" height="28.000064070000008" class="text">territories </text>
<text x="1321.00000996" y="1246.9999608" width="24.99994371999992" height="26.99996013000009" class="text">of </text>
<text x="1361.00002176" y="1246.9999608" width="30.000030799999877" height="26.99996013000009" class="text">the </text>
<text x="1407.9999588" y="1246.9999608" width="76.0000136399999" height="28.999940310000056" class="text">United </text>
<text x="1501.99997336" y="1245.99997071" width="66.00001508000014" height="28.99991754000007" class="text">States </text>
<text x="1581.9999794" y="1244.0000133" width="15.000068079999892" height="26.99996013000009" class="text">to </text>
<text x="1616.00002016" y="1244.0000133" width="65.99992728000007" height="29.000076929999977" class="text">which
</text>
<text x="1007.99999884" y="1286.99997426" width="93.9999969999999" height="29.999907630000052" class="text">material </text>
<text x="1109.0000440000001" y="1285.9999841699998" width="42.99994463999997" height="27.999950219999846" class="text">was </text>
<text x="1161.99995208" y="1285.9999841699998" width="124.00004536000006" height="30.000044249999974" class="text">transmitted</text>
<text x="1290.99997916" y="1284.0000039899999" width="8.000019920000113" height="28.000064070000008" class="text">:
</text>
<text x="146.00000356" y="1309.00000671" width="76.99998539999999" height="26.999960129999863" class="text">JETRO </text>
<text x="244.99999984000002" y="1308.00001662" width="46.000000400000005" height="24.999979950000125" class="text">New </text>
<text x="314.99998976" y="1308.00001662" width="67.00000440000002" height="25.99997003999988" class="text">York
</text>
<text x="145.00000019200002" y="1341.9999984600001" width="65.99999400799999" height="25.999970040000107" class="text">1221 </text>
<text x="230.99999131999996" y="1341.00000837" width="97.00001764000004" height="24.999979949999897" class="text">Avenue </text>
<text x="350.00001984" y="1340.00004105" width="30.999967439999978" height="24.0000126299999" class="text">of </text>
<text x="401.00000196" y="1339.0000509600002" width="49.99997523999997" height="24.00001263000013" class="text">the </text>
<text x="468.99997812000004" y="1339.0000509600002" width="135.00003324" height="26.000106660000256" class="text">Americas
</text>
<text x="143.99999858" y="1379.00006442" width="48.000005379999976" height="28.000086839999994" class="text">New </text>
<text x="213.99999728" y="1377.99993771" width="64.00000131999997" height="27.999927450000087" class="text">York</text>
<text x="286.99999028" y="1377.99993771" width="8.000002359999996" height="27.999927450000087" class="text">, </text>
<text x="312.99999356" y="1377.99993771" width="36.000019399999985" height="27.999927450000087" class="text">NY </text>
<text x="387.00001100000003" y="1374.00000012" width="80.00002360000002" height="27.999927450000087" class="text">10020
</text>
<text x="950.99997544" y="1334.9999767499999" width="191.00003219999996" height="27.99992744999986" class="text">Connecticut
</text>
<text x="949.99998612" y="1372.00004271" width="141.00005695999982" height="32.00000165999995" class="text">Maryland
</text>
<text x="953.00002432" y="1406.99999187" width="47.99992636000002" height="31.00001156999997" class="text">New </text>
<text x="1025.0000280000002" y="1407.99998196" width="98.00000695999984" height="31.000034339999957" class="text">Jersey
</text>
<text x="953.00002432" y="1437.0000361200002" width="45.99998284000003" height="24.999979950000125" class="text">New </text>
<text x="1022.99996156" y="1437.0000361200002" width="67.00000440000008" height="25.999970040000335" class="text">York
</text>
<text x="1209.9999837999999" y="1336.99993416" width="206.00001248000012" height="32.999991749999936" class="text">Pennsylvania
</text>
<text x="1212.00005024" y="1371.00005262" width="133.9999034399998" height="32.999991749999936" class="text">Virginia
</text>
<text x="1205.99997384" y="1405.00003446" width="173.0000488400001" height="32.99999175000016" class="text">Washington</text>
<text x="1387.0000426" y="1404.00004437" width="8.999991679999994" height="31.00001156999997" class="text">, </text>
<text x="1418.0000451600001" y="1403.0000542799999" width="34.99992471999985" height="31.00001156999997" class="text">DC
</text>
<text x="119.99999676799999" y="1574.0000674199998" width="38.000001552000015" height="35.00010854999982" class="text">11. </text>
<text x="173.000001428" y="1574.0000674199998" width="64.000013612" height="35.00010854999982" class="text">Types </text>
<text x="248.99999224" y="1571.99995062" width="24.000007080000017" height="32.999991749999936" class="text">of </text>
<text x="278.99998792" y="1571.99995062" width="112.00001548" height="35.9999392499999" class="text">recipients </text>
<text x="405.00001191999996" y="1569.99999321" width="8.99999168000005" height="32.999991749999936" class="text">(</text>
<text x="413.00001427999996" y="1569.99999321" width="52.00000656000003" height="34.999949159999915" class="text">Give </text>
<text x="476.99999804" y="1569.0000031200002" width="87.00001907999996" height="34.99994916000037" class="text">number </text>
<text x="570.99999504" y="1568.0000358000002" width="29.999995679999984" height="33.99998184000037" class="text">of </text>
<text x="604.00001136" y="1568.0000358000002" width="159.99997696000003" height="36.00009864000026" class="text">organizations
</text>
<text x="170.000005372" y="1599.00004737" width="15.999992428000013" height="29.00005415999999" class="text">in </text>
<text x="203.99999872" y="1601.00002755" width="46.99998972" height="31.000034339999957" class="text">each </text>
<text x="265.00001452000004" y="1601.99999487" width="65.99999751999997" height="31.000011569999742" class="text">group</text>
<text x="335.00000444" y="1601.99999487" width="8.999991679999994" height="29.00005415999999" class="text">)
</text>
<text x="953.99999608" y="1559.00003391" width="49.00002103999998" height="31.000011569999742" class="text">12. </text>
<text x="1007.00002708" y="1559.00003391" width="45.99996528000008" height="32.00000165999995" class="text">List </text>
<text x="1066.0000115599998" y="1558.00006659" width="73.99992964000012" height="32.00002443000017" class="text">names </text>
<text x="1160.9999803199998" y="1556.99993988" width="39.00004004000016" height="30.999897720000263" class="text">and </text>
<text x="1219.9999647999998" y="1556.99993988" width="109.00006508000024" height="32.99999175000016" class="text">addresses </text>
<text x="1349.9999636399998" y="1555.9999497899998" width="23.000088000000233" height="30.99987494999982" class="text">of </text>
<text x="1388.99998612" y="1555.9999497899998" width="90.00000460000024" height="32.99999174999971" class="text">persons </text>
<text x="1494.0000588" y="1554.9999597" width="27.99996435999992" height="31.000011570000197" class="text">or </text>
<text x="1537.99995764" y="1554.9999597" width="155.00004792000004" height="32.99999175000016" class="text">organizations
</text>
<text x="1004.99996064" y="1593.00001575" width="102.00003447999995" height="31.000034340000184" class="text">receiving </text>
<text x="1124.00000672" y="1592.00002566" width="36.99997359999975" height="30.000044249999974" class="text">100 </text>
<text x="1173.99999952" y="1591.00005834" width="71.00001436000002" height="30.000044249999974" class="text">copies </text>
<text x="1257.00004376" y="1590.0000682500001" width="25.999915480000027" height="29.000054160000218" class="text">or </text>
<text x="1294.99998912" y="1590.0000682500001" width="54.00000276000014" height="31.000034340000184" class="text">more</text>
<text x="1353.9999736" y="1588.99994154" width="8.000019920000113" height="28.999917539999842" class="text">:
</text>
<text x="1006.00003776" y="1707.99999183" width="67.9999937199999" height="22.000032449999935" class="text">None
</text>
<text x="323.999999" y="1645.99994592" width="6.000006159999998" height="22.999885920000224" class="text">7
</text>
<text x="119.00000569199999" y="1667.00001105" width="105.99999702799998" height="29.000076929999977" class="text">Libraries
</text>
<text x="120.99999838" y="1701.99996021" width="68.00000250000002" height="28.999917539999842" class="text">Public </text>
<text x="205.0000056" y="1700.9999701200002" width="90.99999392000001" height="27.999927450000087" class="text">officials
</text>
<text x="287.99999716" y="1718.99995113" width="43.999986639999975" height="22.999885919999997" class="text">mag</text>
<text x="340.99999304" y="1717.99996104" width="6.000006160000055" height="20.999928510000018" class="text">.
</text>
<text x="373.00000248" y="1715.0000135399998" width="5.999988599999995" height="20.00007503999973" class="text">9
</text>
<text x="119.99999676799999" y="1739.00002617" width="138.999994032" height="32.00002443000017" class="text">Newspapers
</text>
<text x="122.00000174799999" y="1767.99994371" width="57.999989892" height="28.99991754000007" class="text">Press </text>
<text x="193.00001084" y="1766.99995362" width="93.99997944000003" height="29.999907630000052" class="text">services </text>
<text x="296.99998884" y="1764.99999621" width="26.000003279999987" height="26.99996013000009" class="text">of
</text>
<text x="374.99999868" y="1781.99998713" width="6.999995480000052" height="24.0000126299999" class="text">2
</text>
<text x="145.00000019200002" y="1799.99994537" width="138.00001524799995" height="26.999937359999876" class="text">associations
</text>
<text x="123.00000511600001" y="1834.00006383" width="136.99999256400002" height="28.000064070000235" class="text">Educational
</text>
<text x="146.00000356" y="1867.00005558" width="126.99999576000002" height="27.00009675000001" class="text">institutions
</text>
<text x="124.99999780400002" y="1902.99999483" width="54.99999383599997" height="26.99996013000009" class="text">Civic </text>
<text x="218.99999656" y="1905.99994233" width="80.00000603999996" height="27.999927450000087" class="text">groups</text>
<text x="297.99999572" y="1903.9999849199999" width="8.000002359999996" height="25.000002719999884" class="text">.
</text>
<text x="317.99999284" y="1921.9999431600002" width="67.00000440000002" height="28.999917540000297" class="text">govt</text>
<text x="392.9999996" y="1921.9999431600002" width="8.000002359999996" height="28.999917540000297" class="text">. </text>
<text x="422.00000596" y="1921.9999431600002" width="137.00001188000005" height="28.999917540000297" class="text">agencies
</text>
<text x="119.00000569199999" y="1940.00006079" width="70.99998450800003" height="32.999991749999936" class="text">Other </text>
<text x="202.00000252" y="1940.00006079" width="8.999991679999994" height="32.999991749999936" class="text">(</text>
<text x="212.00000108" y="1940.00006079" width="78.99999916000002" height="32.999991749999936" class="text">specify</text>
<text x="291.00000024" y="1940.00006079" width="9.000009239999997" height="32.999991749999936" class="text">)
</text>
<text x="317.99999284" y="1959.00000912" width="120.00000028" height="32.999991749999936" class="text">private </text>
<text x="459.99998644" y="1958.0000418" width="50.00002791999998" height="32.00002442999994" class="text">cos</text>
<text x="515.9999854" y="1958.0000418" width="8.999991679999994" height="32.00002442999994" class="text">.
</text>
<text x="1284.0000363600002" y="1928.99996487" width="114.99993075999987" height="201.00003462000018" class="text">REGISTRATION </text>
<text x="1257.00004376" y="2000.0000126700002" width="63.99996620000002" height="74.99996262000013" class="text">UNIT
</text>
<text x="1469.00000972" y="1805.00000967" width="54.99997452000002" height="53.00006678999989" class="text">93 </text>
<text x="1446.0000270799999" y="1863.99997146" width="60.99992800000018" height="66.99997359000008" class="text">SEP </text>
<text x="1427.0000544" y="1912.99996404" width="54.99995695999996" height="52.99993016999974" class="text">27 </text>
<text x="1411.99998632" y="1951.0000200900001" width="44.00000419999992" height="26.99996013000009" class="text">P </text>
<text x="1393.9999854" y="1999.00002258" width="44.00002175999998" height="27.00009675000001" class="text">4</text>
<text x="1385.99996548" y="2018.999961" width="44.00000420000015" height="26.999960129999863" class="text">: </text>
<text x="1369.00004168" y="2064.00001599" width="43.999916400000075" height="27.000073980000025" class="text">!
</text>
<text x="1572.99998772" y="2101.99993542" width="44.00002175999998" height="17.99998100999983" class="text">PORM </text>
<text x="1629.00003936" y="2101.99993542" width="32.99996364000003" height="17.99998100999983" class="text">CRM</text>
<text x="1667.99995648" y="2101.99993542" width="4.999999280000111" height="17.99998100999983" class="text">-</text>
<text x="1674.00003288" y="2101.99993542" width="19.999944440000036" height="18.999948329999825" class="text">159
</text>
<text x="1639.99999212" y="2122.00001046" width="26.00002084000016" height="16.999990920000073" class="text">SEP</text>
<text x="1666.9999847200002" y="2122.00001046" width="4.999981719999823" height="16.999990920000073" class="text">. </text>
<text x="1679.0000146" y="2122.00001046" width="11.999942079999983" height="16.999990920000073" class="text">89
</text>
</g>
<g id="page-1" transform="translate(0, 2297)">
<rect width="1756" height="2277" fill="none" stroke="black" />
<text x="114.000004656" y="157.999991688" width="40.99999760799999" height="33.999990948000004" class="text">13. </text>
<text x="165.00000433600002" y="156.99999248999998" width="17.99999038399997" height="31.99999255199998" class="text">If </text>
<text x="194.00000015999998" y="156.99999248999998" width="31.000002559999984" height="31.99999255199998" class="text">the </text>
<text x="241.99999676" y="156.99999248999998" width="92.00000080000001" height="33.99999322499998" class="text">material </text>
<text x="340.99999304" y="154.999991817" width="123.00000336" height="34.999992422999995" class="text">transmitted </text>
<text x="477.99996980000003" y="153.00000936" width="45.00006375999999" height="33.00000996600001" class="text">was </text>
<text x="532.00002524" y="152.000007885" width="8.999991679999994" height="32.000008491" class="text">a </text>
<text x="557.9999934" y="152.000007885" width="42.999997320000034" height="33.00000996600001" class="text">film </text>
<text x="613.0000206" y="151.00000868700002" width="29.000006360000043" height="32.000010768000024" class="text">or </text>
<text x="649.9999942" y="151.00000868700002" width="53.99998520000008" height="34.00001144100003" class="text">radio </text>
<text x="721.00000856" y="150.000007212" width="22.9999826400001" height="32.00000849100002" class="text">or </text>
<text x="754.0000248800001" y="150.000007212" width="108.99995971999988" height="34.000009164000005" class="text">television </text>
<text x="873.00001828" y="148.000006539" width="68.99994792000007" height="34.00000916399999" class="text">script</text>
<text x="940.0000226799999" y="147.000007341" width="8.999991680000107" height="32.000008491" class="text">, </text>
<text x="962.00003356" y="147.000007341" width="75.99999608000007" height="34.000009164000005" class="text">furnish </text>
<text x="1049.99995416" y="146.000005866" width="37.00007895999988" height="33.000007689" class="text">the </text>
<text x="1097.99998588" y="146.000005866" width="103.00000623999995" height="34.000009164000005" class="text">following </text>
<text x="1218.9999930400002" y="144.00000519300002" width="129.99999884" height="35.00000836200002" class="text">information</text>
<text x="1351.00004076" y="141.999997689" width="9.000009240000054" height="32.000001659999995" class="text">:
</text>
<text x="946.9999654799999" y="212.000007582" width="52.000041680000095" height="29.00000861999999" class="text">Date </text>
<text x="1011.0000370399999" y="211.00000838399998" width="26.999992600000155" height="28.000009421999977" class="text">or </text>
<text x="1044.99997244" y="211.00000838399998" width="61.00003336000009" height="29.00000861999999" class="text">dates </text>
<text x="1115.9999868" y="209.000007711" width="110.00005439999995" height="30.000010094999993" class="text">broadcast </text>
<text x="1235.00003288" y="207.00000703799998" width="72.99997544000007" height="29.00000861999996" class="text">shown
</text>
<text x="111.999999676" y="225.99999407700003" width="67.00000264399999" height="32.99999175000002" class="text">Name </text>
<text x="193.00001084" y="224.999994879" width="21.999993320000016" height="30.999993353999997" class="text">of </text>
<text x="223.99999584" y="225.99999407700003" width="72.00000368000002" height="32.99999175000002" class="text">station</text>
<text x="300.99999879999996" y="223.999993404" width="9.000009240000054" height="30.999991077000004" class="text">, </text>
<text x="317.99999284" y="224.999994879" width="139.00000808000004" height="32.99999174999999" class="text">organization</text>
<text x="463.00000708" y="222.999994206" width="9.000009239999997" height="30.999991076999976" class="text">, </text>
<text x="479.99998356" y="222.999994206" width="24.000007080000046" height="30.999991076999976" class="text">or </text>
<text x="514.99999608" y="222.999994206" width="78.99999916000002" height="32.99999174999999" class="text">theater </text>
<text x="602.99998692" y="221.99999273100002" width="59.00003716000003" height="30.999991077000004" class="text">using
</text>
<text x="117.000000712" y="259.00000632" width="7.999997092000015" height="29.00000861999999" class="text">(</text>
<text x="124.99999780400002" y="259.00000632" width="103.00000799599998" height="32.00001076800001" class="text">including </text>
<text x="240.00000056" y="257.00000337" width="36.999991160000036" height="31.000009292999977" class="text">city </text>
<text x="289.99999336" y="256.00001328" width="41.999990439999976" height="30.000019202999994" class="text">and </text>
<text x="345.00000300000005" y="255.00000042" width="47.999996599999974" height="30.00000554099998" class="text">state</text>
<text x="397.99998131999996" y="254.00001032999998" width="8.00003748000006" height="29.000015450999967" class="text">)
</text>
<text x="1410.999997" y="202.000004217" width="111.99999792000017" height="27.000007947" class="text">Estimated </text>
<text x="1533.9999476799999" y="201.00000501899999" width="121.00000716" height="27.000007946999972" class="text">attendance
</text>
<text x="1460.00000048" y="239.99998968" width="9.999980999999934" height="29.999982770999992" class="text">(</text>
<text x="1469.00000972" y="239.99998968" width="35.00001251999993" height="31.99998344400001" class="text">for </text>
<text x="1514.999975" y="238.99999959" width="44.00002175999998" height="31.99999255200001" class="text">film</text>
<text x="1562.00003496" y="237.99998673" width="9.999980999999934" height="29.999980494" class="text">(</text>
<text x="1571.00002664" y="237.99998673" width="9.999980999999934" height="29.999980494" class="text">s</text>
<text x="1582.99996872" y="237.99998673" width="10.000068800000008" height="29.999980494" class="text">)</text>
<text x="1591.9999604" y="236.99999663999998" width="10.000086360000068" height="29.999989602" class="text">)
</text>
<text x="114.999995732" y="496.00000295999996" width="48.000003624000016" height="32.99999174999999" class="text">14. </text>
<text x="162.99999935600002" y="496.00000295999996" width="59.99998960399998" height="32.99999174999999" class="text">Have </text>
<text x="231.9999982" y="494.00000001" width="43.99998664000003" height="32.00000166000001" class="text">two </text>
<text x="287.99999716" y="494.00000001" width="69.00000059999996" height="32.99999174999999" class="text">copies </text>
<text x="366.00000700000004" y="491.99999706" width="29.000006359999986" height="30.999988799999983" class="text">of </text>
<text x="397.99998131999996" y="491.99999706" width="45.00002864000004" height="32.00000165999995" class="text">this </text>
<text x="458.99999712" y="491.99999706" width="90.00000460000001" height="32.99999174999999" class="text">material </text>
<text x="555.00000788" y="489.99999411" width="52.99996076000002" height="32.99999174999999" class="text">been </text>
<text x="624.00002604" y="489.00002679" width="45.99996527999997" height="33.000037289999966" class="text">filed </text>
<text x="680.99999676" y="489.00002679" width="49.999975240000026" height="33.000037289999966" class="text">with </text>
<text x="748.00000116" y="487.00002384" width="29.999978120000037" height="31.000034339999957" class="text">the </text>
<text x="790.00000916" y="487.00002384" width="136.99999432000004" height="34.000027380000006" class="text">Department </text>
<text x="939.00003336" y="485.00002089" width="22.00001087999999" height="32.000024429999996" class="text">of </text>
<text x="973.99995808" y="485.00002089" width="71.00001435999991" height="33.000037289999966" class="text">Justice</text>
<text x="1047.00002132" y="483.00001794" width="9.000009239999827" height="31.000034340000013" class="text">?
</text>
<text x="1096.00004236" y="482.00000508" width="39.99999423999998" height="32.000024429999996" class="text">Yes </text>
<text x="1160.9999803199998" y="481.00001499" width="9.999981000000162" height="29.999998710000057" class="text"> </text>
<text x="1205.00000208" y="480.00000213" width="39.0000224800001" height="32.00002442999994" class="text">No
</text>
<text x="119.00000569199999" y="563.99998941" width="40.999997608000015" height="33.99998184000003" class="text">15. </text>
<text x="177.99999544" y="562.99999932" width="44.999993520000004" height="32.99999175000005" class="text">Has </text>
<text x="233.00000508000002" y="561.99998646" width="39.99999424000001" height="32.999991749999936" class="text">this </text>
<text x="286.99999028" y="561.99998646" width="93.00000768000001" height="33.99998183999992" class="text">material </text>
<text x="388.99998964" y="559.99998351" width="47.999996599999974" height="32.99999175000005" class="text">been </text>
<text x="454.00001540000005" y="559.99998351" width="75.99999607999996" height="33.99998184000003" class="text">labeled </text>
<text x="544.9999742" y="558.99999342" width="23.00005288" height="32.99999175000005" class="text">as </text>
<text x="582.00000048" y="557.9999805599999" width="89.00001527999996" height="32.999991749999936" class="text">required </text>
<text x="685.00000672" y="556.9999904700001" width="24.000024639999992" height="32.000001660000066" class="text">by </text>
<text x="721.99998032" y="555.99997761" width="36.00000183999998" height="31.999978889999966" class="text">the </text>
<text x="768.9999876" y="555.99997761" width="32.00002699999993" height="32.999991749999936" class="text">act</text>
<text x="804.99997188" y="555.00001029" width="9.000009240000054" height="32.00002442999994" class="text">?
</text>
<text x="853.9999929200001" y="553.99997466" width="34.999959839999974" height="31.99995611999998" class="text">Yes </text>
<text x="901.9999544" y="553.00000734" width="10.000086360000068" height="30.000021479999987" class="text"> </text>
<text x="962.00003356" y="551.00000439" width="33.99993540000003" height="30.999988799999983" class="text">No </text>
<text x="1009.9999423600001" y="550.0000143" width="10.000086359999841" height="29.99999871" class="text">
</text>
<text x="1053.9999641200002" y="618.00000075" width="107.00001619999966" height="31.00003434000007" class="text">Signature
</text>
<text x="114.000004656" y="626.99997987" width="51.999989000000014" height="26.999960129999863" class="text">Date </text>
<text x="179.99999164" y="629.00002836" width="25.000013960000018" height="27.000028439999937" class="text">of </text>
<text x="215.00000416" y="630.99998577" width="71.99998612000002" height="27.999995760000047" class="text">report
</text>
<text x="405.00001191999996" y="622.00000665" width="67.00000440000002" height="25.000002719999998" class="text">Name </text>
<text x="485.00001796" y="621.0000165600001" width="38.00001560000004" height="24.99997995000001" class="text">and </text>
<text x="535.99998252" y="619.99995816" width="42.00000799999998" height="24.99997995000001" class="text">title
</text>
<text x="114.000004656" y="670.9999992300001" width="151.00000986400005" height="37.99998774000005" class="text">Septebmer </text>
<text x="287.99999716" y="666.99999333" width="26.999992599999985" height="35.0000174700001" class="text">20</text>
<text x="322.99999212" y="666.0000032400001" width="11.000005439999995" height="34.00002738000012" class="text">, </text>
<text x="355.00000156" y="666.0000032400001" width="65.99999752000002" height="36.000007560000086" class="text">1993 </text>
<text x="468.00000636" y="661.00003002" width="120.99998959999999" height="31.00003434000007" class="text">Michiro </text>
<text x="609.00001064" y="662.00002011" width="119.99996515999999" height="31.00003434000007" class="text">Hayashi
</text>
<text x="470.99999188" y="696.99996927" width="138.00001876000005" height="32.999991749999936" class="text">Director</text>
<text x="615.0000167999999" y="695.0000118600001" width="9.000009240000054" height="29.999975940000013" class="text">, </text>
<text x="645.99998424" y="694.0000217700001" width="101.00004516000001" height="32.000001660000066" class="text">Public </text>
<text x="765.00003032" y="692.99996337" width="120.00001783999994" height="32.99999175000005" class="text">Affairs
</text>
<text x="1119.99999676" y="703.00000089" width="183.0000122800002" height="60.00002018999999" class="text">Miccis
</text>
<text x="1325.99999168" y="719.99999181" width="166.00000068000008" height="81.99998432999996" class="text">Hay
</text>
</g>
</svg>
