<svg xmlns="http://www.w3.org/2000/svg">
<style>.text { font-size: 14px; font-family: Arial, sans-serif; }</style>
<g id="page-0" transform="translate(0, 0)">
<rect width="1756" height="2277" fill="none" stroke="black" />
<text x="878.0" y="140.999996214" width="164.00003960000004" height="33.00000085799999" class="text">Dissemination </text>
<text x="1056.00003056" y="140.999996214" width="76.99998540000001" height="31.00000018499999" class="text">Report
</text>
<text x="1514.00000324" y="124.00000073999999" width="43.00003244000004" height="21.999998294999997" class="text">OMB </text>
<text x="1563.00000672" y="122.999999265" width="28.999953679999862" height="19.999995345000002" class="text">No. </text>
<text x="1597.00004748" y="122.999999265" width="68.99996548000013" height="21.999996018000004" class="text">1105-0006
</text>
<text x="1432.00003612" y="149.000008014" width="65.99992728000007" height="23.00000660100001" class="text">Approval </text>
<text x="1504.00002224" y="148.000006539" width="54.00000276000014" height="22.000005126000005" class="text">Expires </text>
<text x="1563.99997848" y="147.000007341" width="38.00006828000005" height="21.00000592800002" class="text">Nov. </text>
<text x="1608.0000002400002" y="147.000007341" width="14.999962719999985" height="21.00000592800002" class="text">30</text>
<text x="1625.0000294" y="147.000007341" width="5.999953480000158" height="21.00000592800002" class="text">, </text>
<text x="1636.99995392" y="146.000005866" width="32.00009724000006" height="21.000005928000007" class="text">1993
</text>
<text x="92.99999890000001" y="146.000005866" width="52.00000129200001" height="33.000007689" class="text">U.S. </text>
<text x="151.000004596" y="146.000005866" width="153.99998660399996" height="35.000008362" class="text">Department </text>
<text x="312.99999356" y="144.00000519300002" width="24.00000707999999" height="33.000007689000014" class="text">of </text>
<text x="346.00000988" y="144.00000519300002" width="82.99999156000001" height="34.00000916400002" class="text">Justice
</text>
<text x="96.999996568" y="189.000000981" width="129.000013032" height="35.00000836200002" class="text">Washington</text>
<text x="229.99998444000002" y="186.00000111" width="10.00001611999997" height="32.00000849100002" class="text">, </text>
<text x="246.00000672000002" y="186.00000111" width="41.999990440000005" height="32.99999174999999" class="text">DC </text>
<text x="302.00000568" y="184.99999963500002" width="67.99997615999996" height="32.99999175000002" class="text">20530
</text>
<text x="94.000002268" y="288.00001494" width="164.99998853199997" height="28.000018530000034" class="text">INSTRUCTIONS</text>
<text x="259.99999768000004" y="287.00000208" width="8.00000235999994" height="27.000005670000007" class="text">: </text>
<text x="274.0000062" y="287.00000208" width="58.99998448000002" height="27.000005670000007" class="text">Report </text>
<text x="348.00000608" y="287.00000208" width="37.99999803999998" height="27.000005670000007" class="text">must </text>
<text x="389.99999651999997" y="287.00000208" width="25.00001395999999" height="27.000005670000007" class="text">be </text>
<text x="422.00000596" y="286.00001199" width="86.00001220000001" height="27.000005670000007" class="text">submitted </text>
<text x="515.9999854" y="286.00001199" width="15.000015399999938" height="27.000005670000007" class="text">in </text>
<text x="542.0000062400001" y="286.00001199" width="80.9999777999999" height="27.000005670000007" class="text">duplicate </text>
<text x="629.99997952" y="286.00001199" width="15.000015399999938" height="27.000005670000007" class="text">to </text>
<text x="654.00000416" y="284.99999913" width="26.99999260000004" height="27.000005670000007" class="text">the </text>
<text x="689.9999884399999" y="284.99999913" width="107.0000162" height="27.000005670000007" class="text">Registration </text>
<text x="808.00001008" y="284.99999913" width="41.99995531999991" height="27.000005670000007" class="text">Unit</text>
<text x="851.0000074" y="284.99999913" width="8.000019920000113" height="27.000005670000007" class="text">, </text>
<text x="860.9999708400001" y="283.99998627" width="76.0000136399999" height="26.99998290000002" class="text">Internal </text>
<text x="941.9999662" y="283.99998627" width="73.00008079999986" height="26.99998290000002" class="text">Security </text>
<text x="1025.9999997599998" y="283.99998627" width="62.99999444000014" height="26.99998290000002" class="text">Section</text>
<text x="1093.99997592" y="282.99999618" width="8.000019919999886" height="26.999982899999964" class="text">, </text>
<text x="1107.99996688" y="282.99999618" width="83.00004423999985" height="26.999982899999964" class="text">Criminal </text>
<text x="1196.99998216" y="282.99999618" width="75.00002431999997" height="26.999982899999964" class="text">Division</text>
<text x="1276.9999882" y="282.99999618" width="8.000019919999886" height="26.999982899999964" class="text">, </text>
<text x="1288.0000463200001" y="282.99999618" width="113.99995899999976" height="28.99998585" class="text">Department </text>
<text x="1406.0000152799998" y="281.99998332" width="19.999944440000036" height="26.99998290000002" class="text">of </text>
<text x="1432.00003612" y="281.99998332" width="57.999995160000026" height="26.99998290000002" class="text">Justice</text>
<text x="1492.9999641200002" y="281.99998332" width="8.000019919999886" height="26.99998290000002" class="text">, </text>
<text x="1506.99995508" y="281.99998332" width="102.00001691999978" height="27.999972990000032" class="text">Washington</text>
<text x="1615.0000484" y="280.99999323" width="7.999914560000207" height="26.999982899999992" class="text">, </text>
<text x="1626.9999729200001" y="280.99999323" width="47.00005995999982" height="26.999982899999992" class="text">D.C.
</text>
<text x="96.000000224" y="315.99998793" width="62.999999707999976" height="26.999982899999964" class="text">20530. </text>
<text x="165.00000433600002" y="315.99998793" width="33.999995103999964" height="27.999972989999947" class="text">The </text>
<text x="205.99999492" y="314.99999784" width="73.99999987999996" height="26.999982899999964" class="text">original </text>
<text x="289.99999336" y="314.99999784" width="41.00001867999998" height="26.999982899999964" class="text">must </text>
<text x="335.99999376" y="314.99999784" width="20.000014679999992" height="26.999982899999964" class="text">be </text>
<text x="363.99999324" y="313.99998497999997" width="55.99999896000003" height="26.999982899999964" class="text">signed </text>
<text x="430.99999764" y="313.99998497999997" width="19.000007799999935" height="26.999982899999964" class="text">by </text>
<text x="457.99997268" y="313.99998497999997" width="19.000025359999995" height="26.999982899999964" class="text">or </text>
<text x="485.00001796" y="313.99998497999997" width="18.99997268000004" height="26.999982899999964" class="text">on </text>
<text x="513.99997164" y="313.99998497999997" width="60.00000892000003" height="27.999972989999947" class="text">behalf </text>
<text x="579.00003252" y="312.99999489000004" width="19.999944440000036" height="26.99998290000002" class="text">of </text>
<text x="604.00001136" y="312.99999489000004" width="27.000010159999988" height="26.99998290000002" class="text">the </text>
<text x="638.9999887600001" y="312.99999489000004" width="86.00002975999985" height="27.999995760000047" class="text">registrant</text>
<text x="725.99999028" y="311.99998203" width="8.00001992" height="26.99998290000002" class="text">. </text>
<text x="739.99998124" y="311.99998203" width="31.000002559999984" height="26.99998290000002" class="text">All </text>
<text x="774.0000220000001" y="311.99998203" width="52.99996075999991" height="26.99998290000002" class="text">items </text>
<text x="830.99999272" y="311.99998203" width="15.000015400000052" height="26.99998290000002" class="text">in </text>
<text x="855.00001736" y="311.99998203" width="30.000030799999877" height="26.99998290000002" class="text">this </text>
<text x="896.0000009199999" y="310.99999194000003" width="40.99998356000003" height="27.000005670000007" class="text">form </text>
<text x="950.99997544" y="310.99999194000003" width="40.99998356000003" height="27.000005670000007" class="text">must </text>
<text x="997.00004608" y="310.99999194000003" width="24.99994371999992" height="27.000005670000007" class="text">be </text>
<text x="1026.99997152" y="310.99999194000003" width="80.99999536000018" height="27.999995760000047" class="text">answered</text>
<text x="1114.0000257200002" y="309.99997908" width="7.999932119999812" height="26.99998290000002" class="text">, </text>
<text x="1123.00003496" y="309.99997908" width="62.00002268000003" height="26.99998290000002" class="text">unless </text>
<text x="1190.00003936" y="309.99997908" width="26.999992599999814" height="26.99998290000002" class="text">the </text>
<text x="1223.99997476" y="309.99997908" width="66.00003263999997" height="27.99999575999999" class="text">answer </text>
<text x="1295.99996088" y="308.99998899" width="15.00006808000012" height="27.000005670000007" class="text">is </text>
<text x="1320.0000382" y="308.99998899" width="7.999914559999979" height="27.000005670000007" class="text">"</text>
<text x="1331.99996272" y="308.99998899" width="44.99999352000009" height="27.000005670000007" class="text">none</text>
<text x="1375.99998448" y="308.99998899" width="8.000019920000113" height="27.000005670000007" class="text">" </text>
<text x="1393.9999854" y="308.99998899" width="20.00004980000017" height="27.000005670000007" class="text">or </text>
<text x="1421.99994976" y="308.99998899" width="8.000019920000113" height="27.000005670000007" class="text">"</text>
<text x="1434.99996896" y="307.99997613" width="30.000030799999877" height="26.99998290000002" class="text">not </text>
<text x="1469.9999814799999" y="307.99997613" width="93.00002524000024" height="27.999972990000003" class="text">applicable</text>
<text x="1564.9999678" y="307.99997613" width="8.000019920000113" height="26.99998290000002" class="text">,</text>
<text x="1568.99997776" y="307.99997613" width="8.000019919999886" height="26.99998290000002" class="text">" </text>
<text x="1586.99997868" y="307.99997613" width="15.00006808000012" height="26.99998290000002" class="text">in </text>
<text x="1611.00003844" y="307.00000881" width="54.000002759999916" height="27.000005670000007" class="text">which
</text>
<text x="94.000002268" y="345.00001932000004" width="38.000001551999986" height="27.00002844000005" class="text">case </text>
<text x="143.99999858" y="345.00001932000004" width="35.99999305999998" height="28.000018530000034" class="text">such </text>
<text x="190.99999708" y="343.99998369" width="19.99999711999999" height="26.99998290000002" class="text">an </text>
<text x="220.99999276" y="343.99998369" width="47.00000727999998" height="26.99998290000002" class="text">entry </text>
<text x="278.99998792" y="343.99998369" width="45.00001107999998" height="26.99998290000002" class="text">shall </text>
<text x="328.99999828" y="343.99998369" width="20.000014679999992" height="26.99998290000002" class="text">be </text>
<text x="363.00000392" y="343.00001637" width="44.99999352000003" height="27.00002844000005" class="text">made </text>
<text x="415.99998224" y="343.00001637" width="16.000022279999996" height="27.00002844000005" class="text">in </text>
<text x="443.00000996" y="343.00001637" width="26.99999260000004" height="27.00002844000005" class="text">the </text>
<text x="479.99998356" y="343.00001637" width="103.00000624" height="29.00003139000006" class="text">appropriate </text>
<text x="591.00000972" y="342.00000351" width="47.999979040000085" height="27.000005670000007" class="text">space</text>
<text x="642.99999872" y="342.00000351" width="8.00001992" height="27.000005670000007" class="text">. </text>
<text x="658.99998588" y="342.00000351" width="15.000015399999938" height="27.000005670000007" class="text">If </text>
<text x="680.000025" y="342.00000351" width="94.99996875999989" height="29.00000861999996" class="text">additional </text>
<text x="779.9999930399999" y="341.00001342" width="48.00003172000004" height="27.00002844000005" class="text">space </text>
<text x="840.00000196" y="341.00001342" width="15.000015400000052" height="27.00002844000005" class="text">is </text>
<text x="864.00000904" y="340.00000056" width="62.99999444000002" height="27.00000566999995" class="text">needed </text>
<text x="936.99998448" y="340.00000056" width="26.99999260000004" height="27.00000566999995" class="text">for </text>
<text x="971.9999969999999" y="340.00000056" width="30.000030800000104" height="27.00000566999995" class="text">any </text>
<text x="1013.99996988" y="340.00000056" width="35.999984280000035" height="28.000018529999977" class="text">item</text>
<text x="1052.99999236" y="339.00001047" width="8.000019919999886" height="27.000028439999994" class="text">, </text>
<text x="1070.00002152" y="339.00001047" width="50.99994700000002" height="27.000028439999994" class="text">attach </text>
<text x="1132.00002664" y="339.00001047" width="119.99993003999998" height="29.000031390000004" class="text">supplemental </text>
<text x="1260.99994836" y="337.99999761" width="49.00000348000003" height="27.00000566999995" class="text">sheet </text>
<text x="1315.00003892" y="337.99999761" width="100.99995736000005" height="29.00000861999996" class="text">identifying </text>
<text x="1425.9999597199999" y="337.00000752" width="38.00006828000028" height="27.000028439999994" class="text">each </text>
<text x="1475.99995252" y="337.00000752" width="36.00008963999994" height="27.000028439999994" class="text">item</text>
<text x="1514.999975" y="337.00000752" width="8.000019920000113" height="27.000028439999994" class="text">.
</text>
<text x="94.000002268" y="402.00000093" width="64.99999766399998" height="27.99999575999999" class="text">Privacy </text>
<text x="170.000005372" y="402.00000093" width="30.999990267999976" height="27.99999575999999" class="text">Act </text>
<text x="207.0000018" y="400.99998807000003" width="89.99998704000001" height="27.999995760000047" class="text">Statement</text>
<text x="297.99999572" y="400.99998807000003" width="8.000002359999996" height="27.999995760000047" class="text">. </text>
<text x="310.00000804" y="400.99998807000003" width="51.99998899999997" height="27.999995760000047" class="text">Every </text>
<text x="370.99998872" y="400.99998807000003" width="100.00000316" height="28.99998585000003" class="text">registration </text>
<text x="479.99998356" y="399.99999798" width="89.00001528000001" height="27.99999575999999" class="text">statement</text>
<text x="568.99999884" y="399.99999798" width="8.00001992" height="27.99999575999999" class="text">, </text>
<text x="580.99997604" y="399.99999798" width="44.99999352000009" height="27.99999575999999" class="text">short </text>
<text x="633.9999894800001" y="399.99999798" width="40.99998355999992" height="29.000008620000017" class="text">form </text>
<text x="683.99998228" y="398.99998512" width="102.00001692000001" height="27.999995760000047" class="text">registration </text>
<text x="793.99996644" y="398.99998512" width="85.99999463999995" height="28.999985849999973" class="text">statement</text>
<text x="879.9999610799999" y="398.0000178" width="8.00001992" height="28.000018529999977" class="text">, </text>
<text x="894.00003984" y="398.99998512" width="122.99995067999998" height="29.999975940000013" class="text">supplemental </text>
<text x="1020.0000287199999" y="398.0000178" width="89.99998704000006" height="29.000008620000017" class="text">statement</text>
<text x="1106.99999512" y="396.99998217" width="8.000019920000113" height="27.999972990000003" class="text">, </text>
<text x="1119.99999676" y="396.99998217" width="62.99999444000014" height="27.999972990000003" class="text">exhibit</text>
<text x="1185.00005764" y="396.99998217" width="7.999914559999979" height="27.999972990000003" class="text">, </text>
<text x="1194.00004932" y="396.99998217" width="111.99999791999994" height="28.999985849999973" class="text">amendment</text>
<text x="1306.00004724" y="396.00001485" width="7.999914559999979" height="28.000018529999977" class="text">, </text>
<text x="1316.00002824" y="396.99998217" width="123.99992244000009" height="29.999975940000013" class="text">dissemination </text>
<text x="1451.99998056" y="396.00001485" width="54.000002759999916" height="28.000018529999977" class="text">report</text>
<text x="1506.99995508" y="396.00001485" width="8.000019919999886" height="28.000018529999977" class="text">, </text>
<text x="1522.00002316" y="396.00001485" width="37.99994536000008" height="29.000008620000017" class="text">copy </text>
<text x="1567.9999884400002" y="394.99997922" width="19.99996199999987" height="27.999972990000003" class="text">of </text>
<text x="1593.00003752" y="394.99997922" width="76.00001364000013" height="27.999972990000003" class="text">political
</text>
<text x="96.999996568" y="431.99997687" width="103.99999907199998" height="28.999985849999973" class="text">propaganda </text>
<text x="207.0000018" y="431.00000955" width="20.00001468000002" height="29.000008620000017" class="text">or </text>
<text x="233.00000508000002" y="431.00000955" width="49.00000347999995" height="29.000008620000017" class="text">other </text>
<text x="287.99999716" y="431.00000955" width="90.00002215999996" height="29.000008620000017" class="text">document </text>
<text x="387.99998276" y="431.00000955" width="15.000015399999995" height="29.000008620000017" class="text">or </text>
<text x="411.00000052" y="431.00000955" width="106.00000932000006" height="30.000021479999987" class="text">information </text>
<text x="528.00001528" y="430.00001946" width="36.00000183999998" height="29.000031389999947" class="text">filed </text>
<text x="573.0000087999999" y="430.00001946" width="40.00001180000004" height="29.000031389999947" class="text">with </text>
<text x="624.00002604" y="430.00001946" width="24.99997884000004" height="30.000021479999987" class="text">the </text>
<text x="658.99998588" y="429.0000066" width="77.00003807999997" height="29.000008620000017" class="text">Attorney </text>
<text x="741.00000568" y="429.0000066" width="74.99997164000013" height="29.000008620000017" class="text">General </text>
<text x="822.00000104" y="429.0000066" width="51.99998900000003" height="30.000021479999987" class="text">under </text>
<text x="881.0000382" y="428.00001650999997" width="31.99997431999998" height="29.000031389999947" class="text">this </text>
<text x="919.9999553199999" y="428.00001650999997" width="29.00005904000011" height="29.000031389999947" class="text">act </text>
<text x="957.0000342799999" y="428.00001650999997" width="10.999952760000042" height="29.000031389999947" class="text">is </text>
<text x="976.00000696" y="428.00001650999997" width="8.000019920000113" height="29.000031389999947" class="text">a </text>
<text x="993.00003612" y="428.00001650999997" width="57.999995160000026" height="29.000031389999947" class="text">public </text>
<text x="1057.9999740800001" y="428.00001650999997" width="57.00004095999998" height="29.999998709999943" class="text">record </text>
<text x="1123.00003496" y="427.00000365000005" width="44.99999352000009" height="28.99998585000003" class="text">open </text>
<text x="1173.0000102000001" y="427.00000365000005" width="17.00002915999994" height="28.99998585000003" class="text">to </text>
<text x="1199.00003104" y="427.00000365000005" width="52.9999256399999" height="28.99998585000003" class="text">public </text>
<text x="1262.00002548" y="427.00000365000005" width="111.99999792000017" height="30.99998880000004" class="text">examination</text>
<text x="1375.99998448" y="426.00001356" width="8.000019920000113" height="29.000031390000004" class="text">, </text>
<text x="1388.00001436" y="426.00001356" width="91.99994812" height="29.000031390000004" class="text">inspection </text>
<text x="1488.99995416" y="426.00001356" width="33.00006899999994" height="29.99999871" class="text">and </text>
<text x="1528.99996596" y="425.00000070000004" width="71.0000143599998" height="28.99998585000003" class="text">copying </text>
<text x="1611.00003844" y="425.00000070000004" width="55.99994628000013" height="28.99998585000003" class="text">during
</text>
<text x="94.999998612" y="459.00000531" width="28.000006504000012" height="27.99999575999999" class="text">the </text>
<text x="131.000000452" y="459.00000531" width="56.000004227999995" height="27.99999575999999" class="text">posted </text>
<text x="198.00001012" y="459.00000531" width="74.99998920000002" height="28.99998585000003" class="text">business </text>
<text x="282.00000855999997" y="457.99999245000004" width="50.99998212000003" height="27.99997299000006" class="text">hours </text>
<text x="340.99999304" y="457.99999245000004" width="19.99999711999999" height="27.99997299000006" class="text">of </text>
<text x="363.99999324" y="457.99999245000004" width="29.000006360000043" height="27.99997299000006" class="text">the </text>
<text x="401.00000196" y="457.99999245000004" width="107.99998795999994" height="28.99998585000003" class="text">Registration </text>
<text x="517.9999816" y="457.00000236" width="42.00002556000004" height="27.99999575999999" class="text">Unit </text>
<text x="568.99999884" y="457.00000236" width="15.999987159999932" height="27.99999575999999" class="text">in </text>
<text x="593.99999524" y="457.00000236" width="102.99998868" height="27.99999575999999" class="text">Washington</text>
<text x="700.0000221199999" y="457.00000236" width="7.999967240000046" height="27.99999575999999" class="text">, </text>
<text x="716.00000928" y="457.00000236" width="43.99996908000003" height="28.99998585000003" class="text">D.C. </text>
<text x="761.99999212" y="455.9999895" width="39.000022479999984" height="27.99997299000006" class="text">One </text>
<text x="808.00001008" y="455.9999895" width="42.99999731999992" height="27.99997299000006" class="text">copy </text>
<text x="859.0000273200001" y="455.9999895" width="19.999944439999922" height="27.99997299000006" class="text">of </text>
<text x="887.9999809999999" y="455.9999895" width="46.000070640000104" height="27.99997299000006" class="text">every </text>
<text x="944.00003264" y="455.9999895" width="37.99994536000008" height="28.999985849999973" class="text">such </text>
<text x="993.00003612" y="454.99999941" width="89.00001527999984" height="27.999995759999933" class="text">document </text>
<text x="1088.9999942" y="454.99999941" width="17.000011600000107" height="27.999995759999933" class="text">is </text>
<text x="1115.00001504" y="454.99999941" width="116.99997963999999" height="28.999985849999973" class="text">automatically </text>
<text x="1245.00001388" y="453.99998655" width="79.00003427999991" height="27.999972990000003" class="text">provided </text>
<text x="1333.00003984" y="453.99998655" width="14.999962719999985" height="27.999972990000003" class="text">to </text>
<text x="1358.99995532" y="453.99998655" width="29.000059039999996" height="27.999972990000003" class="text">the </text>
<text x="1393.9999854" y="453.99998655" width="83.00004424000008" height="27.999972990000003" class="text">Secretary </text>
<text x="1490.00003128" y="452.99999646" width="14.999980279999818" height="27.999995759999933" class="text">of </text>
<text x="1514.00000324" y="452.99999646" width="41.999955320000026" height="27.999995759999933" class="text">State </text>
<text x="1563.99997848" y="452.99999646" width="81.99996712000006" height="27.999995759999933" class="text">pursuant </text>
<text x="1652.000022" y="452.99999646" width="15.999934480000093" height="27.999995759999933" class="text">to
</text>
<text x="96.000000224" y="485.00002089" width="64.000003076" height="26.000015579999967" class="text">Section </text>
<text x="170.000005372" y="485.00002089" width="7.000000747999991" height="26.000015579999967" class="text">6</text>
<text x="180.99999852" y="485.00002089" width="7.000013039999999" height="26.000015579999967" class="text">(</text>
<text x="188.00001156" y="485.00002089" width="6.9999779200000205" height="26.000015579999967" class="text">b</text>
<text x="200.99999563999998" y="485.00002089" width="6.999995480000024" height="26.000015579999967" class="text">) </text>
<text x="212.9999904" y="484.00000802999995" width="19.00000779999999" height="26.00001557999991" class="text">of </text>
<text x="235.00000128000002" y="484.00000802999995" width="30.000013240000015" height="26.00001557999991" class="text">the </text>
<text x="272.00001" y="484.00000802999995" width="29.99999568000004" height="26.00001557999991" class="text">Act</text>
<text x="303.00001256" y="484.00000802999995" width="6.9999954799999955" height="26.00001557999991" class="text">, </text>
<text x="314.99998976" y="484.00000802999995" width="29.000006359999986" height="26.00001557999991" class="text">and </text>
<text x="353.99999468" y="484.00000802999995" width="58.00001272000003" height="26.00001557999991" class="text">copies </text>
<text x="419.00000288" y="484.00000802999995" width="18.99999023999999" height="26.00001557999991" class="text">of </text>
<text x="443.00000996" y="483.00001794" width="34.99995984000003" height="26.000015580000024" class="text">such </text>
<text x="488.00000348" y="483.00001794" width="96.00001076000007" height="26.000015580000024" class="text">documents </text>
<text x="593.00000592" y="483.00001794" width="25.99996815999998" height="26.000015580000024" class="text">are </text>
<text x="627.99998332" y="483.00001794" width="80.00000604000002" height="27.000028439999994" class="text">routinely </text>
<text x="718.9999948000001" y="482.00000508" width="44.00002175999987" height="26.000015579999967" class="text">made </text>
<text x="770.00001204" y="482.00000508" width="76.99998540000001" height="26.000015579999967" class="text">available </text>
<text x="857.00001356" y="482.00000508" width="13.999990960000105" height="26.000015579999967" class="text">to </text>
<text x="882.99998172" y="482.00000508" width="45.99998284000003" height="27.000005670000007" class="text">other </text>
<text x="934.00005164" y="481.00001499" width="74.99991895999995" height="26.000015580000024" class="text">agencies</text>
<text x="1012.99998056" y="481.00001499" width="7.000048159999892" height="26.000015580000024" class="text">, </text>
<text x="1025.0000280000002" y="481.00001499" width="111.99999791999971" height="27.000028439999994" class="text">departments </text>
<text x="1142.00000764" y="480.00000213" width="28.99995368000009" height="26.000015579999967" class="text">and </text>
<text x="1182.00001944" y="480.00000213" width="85.0000053199999" height="26.000015579999967" class="text">Congress </text>
<text x="1272.00000648" y="480.00000213" width="80.99999536000018" height="26.000015579999967" class="text">pursuant </text>
<text x="1356.0000224799999" y="479.00001204" width="14.999980280000045" height="26.000015580000024" class="text">to </text>
<text x="1379.99999444" y="479.00001204" width="67.99997616000019" height="26.000015580000024" class="text">Section </text>
<text x="1455.0000187599999" y="479.00001204" width="6.999942800000099" height="26.000015580000024" class="text">6</text>
<text x="1468.00003796" y="479.00001204" width="6.999925239999811" height="26.000015580000024" class="text">(</text>
<text x="1474.9999632" y="479.00001204" width="7.000048160000006" height="26.000015580000024" class="text">c</text>
<text x="1486.00002132" y="479.00001204" width="6.999942800000099" height="26.000015580000024" class="text">) </text>
<text x="1497.9999634" y="479.00001204" width="19.000078039999835" height="26.000015580000024" class="text">of </text>
<text x="1522.99999492" y="479.00001204" width="26.000020839999934" height="26.000015580000024" class="text">the </text>
<text x="1557.00003568" y="479.00001204" width="28.999953679999862" height="26.000015580000024" class="text">Act</text>
<text x="1586.99997868" y="477.99999918" width="7.0000305999999455" height="26.000015579999967" class="text">. </text>
<text x="1602.00004676" y="477.99999918" width="58.999966919999906" height="26.000015579999967" class="text">Finally</text>
<text x="1662.99997476" y="477.99999918" width="7.000048160000006" height="26.000015579999967" class="text">,
</text>
<text x="94.999998612" y="516.00000969" width="27.00000313599999" height="26.999982899999964" class="text">the </text>
<text x="131.000000452" y="516.00000969" width="76.99999066800001" height="28.000018529999977" class="text">Attorney </text>
<text x="217.00000036" y="514.99999683" width="75.00000676000002" height="27.000005670000007" class="text">General </text>
<text x="294.99999264" y="514.99999683" width="81.00001291999996" height="27.999972990000003" class="text">transmits </text>
<text x="386.00000411999997" y="514.00000674" width="20.00001468000005" height="26.99998290000002" class="text">an </text>
<text x="412.0000074" y="514.00000674" width="65.99996240000002" height="26.99998290000002" class="text">annual </text>
<text x="483.99999352" y="514.00000674" width="55.99999895999997" height="26.99998290000002" class="text">report </text>
<text x="542.9999779999999" y="512.9999938799999" width="15.000015400000052" height="27.00000566999995" class="text">to </text>
<text x="568.00002708" y="512.9999938799999" width="30.99994988000003" height="27.00000566999995" class="text">the </text>
<text x="602.00001516" y="512.9999938799999" width="85.99997708000001" height="27.00000566999995" class="text">Congress </text>
<text x="696.00001216" y="512.9999938799999" width="19.99999711999999" height="27.00000566999995" class="text">on </text>
<text x="728.00000404" y="512.00000379" width="26.999992599999928" height="26.999982900000077" class="text">the </text>
<text x="763.99998832" y="512.9999938799999" width="130.00005151999994" height="28.999985849999973" class="text">Administration </text>
<text x="904.0000208399999" y="510.99999092999997" width="19.999944439999922" height="26.99998290000002" class="text">of </text>
<text x="928.9999645600001" y="510.99999092999997" width="26.999992599999928" height="26.99998290000002" class="text">the </text>
<text x="964.99994884" y="510.99999092999997" width="34.000058319999994" height="26.99998290000002" class="text">Act </text>
<text x="1002.0000278" y="510.99999092999997" width="53.000031000000035" height="26.99998290000002" class="text">which </text>
<text x="1067.99995508" y="510.99999092999997" width="36.000001840000095" height="27.999972989999947" class="text">lists </text>
<text x="1110.00001576" y="510.00000084" width="27.000010159999874" height="26.999982899999964" class="text">the </text>
<text x="1142.9999794" y="510.00000084" width="61.00005091999992" height="26.999982899999964" class="text">names </text>
<text x="1212.00005024" y="510.00000084" width="18.999972679999928" height="26.999982899999964" class="text">of </text>
<text x="1236.99999396" y="510.00000084" width="22.99998263999987" height="27.99999575999999" class="text">all </text>
<text x="1266.00003544" y="508.99998797999996" width="54.99997452000002" height="26.999982899999964" class="text">agents </text>
<text x="1331.99996272" y="508.99998797999996" width="86.00008244000014" height="26.999982899999964" class="text">registered </text>
<text x="1428.00002616" y="507.99999789" width="50.99996456000008" height="26.999982899999964" class="text">under </text>
<text x="1488.99995416" y="507.99999789" width="28.00008727999989" height="26.999982899999964" class="text">the </text>
<text x="1523.99998424" y="507.99999789" width="31.000002559999984" height="26.999982899999964" class="text">Act</text>
<text x="1555.99995856" y="507.99999789" width="8.000019919999886" height="26.999982899999964" class="text">, </text>
<text x="1568.99997776" y="507.99999789" width="26.999992599999814" height="26.999982899999964" class="text">the </text>
<text x="1603.99999028" y="506.99998502999995" width="62.00002268000003" height="26.999982899999964" class="text">foreign
</text>
<text x="94.000002268" y="546.9999984899999" width="88.99999245199999" height="28.00001852999992" class="text">principals </text>
<text x="193.00001084" y="546.0000084000001" width="37.99998047999998" height="27.00002844000005" class="text">they </text>
<text x="241.99999676" y="546.0000084000001" width="83.99999844000001" height="29.00000862000013" class="text">represent</text>
<text x="324.99998832" y="544.99999554" width="8.000002359999996" height="26.999982899999964" class="text">, </text>
<text x="340.99999304" y="544.99999554" width="29.999995679999984" height="26.999982899999964" class="text">and </text>
<text x="381.99999416" y="544.99999554" width="26.999992599999985" height="26.999982899999964" class="text">the </text>
<text x="419.00000288" y="544.00000545" width="53.999985200000026" height="27.000005670000064" class="text">nature</text>
<text x="476.99999804" y="544.00000545" width="8.00001992" height="27.000005670000064" class="text">, </text>
<text x="488.99997524" y="544.00000545" width="71.00003191999997" height="29.000008620000017" class="text">sources </text>
<text x="568.00002708" y="542.99999259" width="29.999978119999923" height="26.999982900000077" class="text">and </text>
<text x="607.99996864" y="542.99999259" width="67.00000439999997" height="27.999995760000047" class="text">content </text>
<text x="683.99998228" y="542.0000025" width="19.00002535999988" height="27.000005670000064" class="text">of </text>
<text x="712.99998864" y="542.0000025" width="26.99999260000004" height="27.000005670000064" class="text">the </text>
<text x="748.00000116" y="542.0000025" width="76.9999853999999" height="29.00000862000013" class="text">political </text>
<text x="828.9999965200001" y="542.0000025" width="107.99998795999988" height="29.00000862000013" class="text">propaganda </text>
<text x="945.9999761600001" y="540.99998964" width="114.00006436000001" height="28.999985849999916" class="text">disseminated </text>
<text x="1071.99996504" y="538.99998669" width="20.000067360000003" height="26.999982899999964" class="text">or </text>
<text x="1098.99995764" y="540.00002232" width="95.00009167999997" height="29.000031390000004" class="text">distributed </text>
<text x="1205.00000208" y="538.00001937" width="18.999972679999928" height="27.00002844000005" class="text">by </text>
<text x="1235.00003288" y="538.00001937" width="45.99996527999997" height="27.00002844000005" class="text">them</text>
<text x="1284.0000363600002" y="538.00001937" width="7.999914559999752" height="27.00002844000005" class="text">. </text>
<text x="1298.00002732" y="538.00001937" width="37.999945359999856" height="28.000018530000034" class="text">This </text>
<text x="1348.9999918800002" y="537.0000065099999" width="54.999956959999736" height="27.00000566999995" class="text">report </text>
<text x="1410.999997" y="537.0000065099999" width="14.999962719999985" height="27.00000566999995" class="text">is </text>
<text x="1433.99997964" y="537.0000065099999" width="78.00006252000003" height="29.00000861999996" class="text">available </text>
<text x="1523.99998424" y="536.00001642" width="15.00006808000012" height="27.000028439999994" class="text">to </text>
<text x="1549.00001576" y="536.00001642" width="26.000020839999934" height="27.000028439999994" class="text">the </text>
<text x="1585.0000175999999" y="535.00000356" width="57.000023400000146" height="27.000005670000007" class="text">public</text>
<text x="1643.00003032" y="535.00000356" width="8.000019920000113" height="27.000005670000007" class="text">.
</text>
<text x="96.999996568" y="601.99999992" width="57.000002327999994" height="28.000018530000034" class="text">Public </text>
<text x="157.99999832" y="601.99999992" width="88.00000840000001" height="28.99998585000003" class="text">Reporting </text>
<text x="253.00000219999998" y="601.0000098300001" width="61.99998756000002" height="27.999995760000047" class="text">Burden</text>
<text x="318.99999972" y="601.0000098300001" width="8.000002359999996" height="27.999995760000047" class="text">. </text>
<text x="331.9999838" y="601.0000098300001" width="55.000027200000034" height="28.99998585000003" class="text">Public </text>
<text x="395.00001336" y="600.0000197400001" width="81.99998467999995" height="27.999995760000047" class="text">reporting </text>
<text x="483.99999352" y="600.0000197400001" width="58.999984479999966" height="27.999995760000047" class="text">burden </text>
<text x="551.99996968" y="600.0000197400001" width="27.00006283999994" height="29.000054160000104" class="text">for </text>
<text x="582.9999898" y="598.99998411" width="31.000002560000098" height="28.000018530000034" class="text">this </text>
<text x="620.99998784" y="598.99998411" width="87.00000151999996" height="28.000018530000034" class="text">collection </text>
<text x="716.00000928" y="598.99998411" width="20.00001468000005" height="28.000018530000034" class="text">of </text>
<text x="739.99998124" y="598.99998411" width="103.00000623999995" height="29.999975940000013" class="text">information </text>
<text x="851.99997916" y="597.99999402" width="11.000005439999995" height="27.999995760000047" class="text">is </text>
<text x="869.99998008" y="597.99999402" width="85.0000053199999" height="27.999995760000047" class="text">estimated </text>
<text x="961.00004424" y="597.00000393" width="15.99995204000004" height="27.999995760000047" class="text">to </text>
<text x="985.9999879600001" y="597.00000393" width="63.9999661999999" height="27.999995760000047" class="text">average </text>
<text x="1060.00004052" y="597.00000393" width="9.999980999999934" height="27.999995760000047" class="text">.5 </text>
<text x="1079.99998496" y="597.00000393" width="50.99996456000008" height="27.999995760000047" class="text">hours </text>
<text x="1136.0000366" y="597.00000393" width="31.000020120000045" height="29.000008620000017" class="text">per </text>
<text x="1173.0000102000001" y="596.00003661" width="77.9999571599999" height="28.00004130000002" class="text">response</text>
<text x="1251.99995668" y="596.00003661" width="8.000019919999886" height="28.00004130000002" class="text">, </text>
<text x="1262.99999724" y="596.00003661" width="84.00003356000002" height="29.000031390000004" class="text">including </text>
<text x="1353.00000184" y="594.99997821" width="26.999992599999814" height="27.999972989999947" class="text">the </text>
<text x="1387.0000426" y="594.99997821" width="37.99994536000008" height="27.999972989999947" class="text">time </text>
<text x="1430.999959" y="594.99997821" width="28.000069720000056" height="27.999972989999947" class="text">for </text>
<text x="1464.9999997599998" y="594.99997821" width="85.99997708000024" height="28.99998585000003" class="text">reviewing </text>
<text x="1557.00003568" y="594.99997821" width="105.99993907999988" height="29.999975940000013" class="text">instructions</text>
<text x="1662.99997476" y="593.99998812" width="8.000019920000113" height="27.999995760000047" class="text">,
</text>
<text x="94.999998612" y="630.99998577" width="84.000003708" height="27.999995760000047" class="text">searching </text>
<text x="189.9999902" y="629.99999568" width="70.00000748000002" height="27.000005670000064" class="text">existing </text>
<text x="271.00000312000003" y="629.99999568" width="34.99999495999998" height="27.000005670000064" class="text">data </text>
<text x="313.99998288" y="629.00002836" width="71.00001436000002" height="27.000028439999937" class="text">sources</text>
<text x="384.99999724" y="629.00002836" width="8.000002359999996" height="27.000028439999937" class="text">, </text>
<text x="397.99998131999996" y="629.00002836" width="84.00001600000007" height="29.000008619999903" class="text">gathering </text>
<text x="492.00001344000003" y="627.9999699599999" width="29.99997811999998" height="26.999960129999863" class="text">and </text>
<text x="537.0000069600001" y="627.9999699599999" width="100.99999247999995" height="27.999950219999846" class="text">maintaining </text>
<text x="649.9999942" y="626.99997987" width="26.000020840000047" height="26.999960129999863" class="text">the </text>
<text x="683.0000105199999" y="626.99997987" width="37.99999804000004" height="26.999960129999863" class="text">data </text>
<text x="732.0000140000001" y="626.99997987" width="60.000008919999914" height="27.999995759999933" class="text">needed</text>
<text x="797.99999396" y="626.0000125500001" width="8.00001992" height="27.00002844000005" class="text">, </text>
<text x="810.9999956" y="626.0000125500001" width="29.999978120000037" height="27.00002844000005" class="text">and </text>
<text x="851.0000074" y="626.0000125500001" width="101.00004516000001" height="29.000008620000017" class="text">completing </text>
<text x="962.00003356" y="625.0000224600001" width="29.99992543999997" height="27.00002844000005" class="text">and </text>
<text x="1002.0000278" y="625.0000224600001" width="90.00000460000001" height="28.99998585000003" class="text">reviewing </text>
<text x="1100.0000523200001" y="623.99996406" width="26.999992599999814" height="26.999960129999977" class="text">the </text>
<text x="1137.0000259199999" y="625.0000224600001" width="86.99994884000012" height="28.99998585000003" class="text">collection </text>
<text x="1236.99999396" y="622.99997397" width="20.000049799999942" height="26.99993735999999" class="text">of </text>
<text x="1262.00002548" y="623.99996406" width="104.99994976000016" height="28.99998585000003" class="text">information</text>
<text x="1370.00001344" y="622.99997397" width="8.000019920000113" height="26.99993735999999" class="text">. </text>
<text x="1388.00001436" y="622.00000665" width="41.999955320000026" height="27.00002844000005" class="text">Send </text>
<text x="1439.99995068" y="622.99997397" width="90.00009239999986" height="28.99998585000003" class="text">comments </text>
<text x="1542.9999569200002" y="621.0000165600001" width="84.00001599999996" height="27.999995760000047" class="text">regarding </text>
<text x="1634.99999284" y="621.0000165600001" width="34.00005832000011" height="27.00002844000005" class="text">this
</text>
<text x="92.99999890000001" y="659.0000043" width="63.999996052" height="27.00002844000005" class="text">burden </text>
<text x="164.00000096800002" y="659.0000043" width="76.99998891199999" height="28.000018530000034" class="text">estimate </text>
<text x="247.99998535999998" y="658.00001421" width="20.000014679999992" height="27.00002844000005" class="text">or </text>
<text x="275.00001308000003" y="658.00001421" width="29.999978119999923" height="27.00002844000005" class="text">any </text>
<text x="317.00000352" y="658.00001421" width="44.999993519999975" height="28.000018530000034" class="text">other </text>
<text x="370.99998872" y="657.00002412" width="55.00000964000003" height="27.00002844000005" class="text">aspect </text>
<text x="434.00001828" y="657.00002412" width="19.999997120000046" height="27.00002844000005" class="text">of </text>
<text x="457.00000092000005" y="657.00002412" width="33.99998807999998" height="27.00002844000005" class="text">this </text>
<text x="499.00000892" y="655.99998849" width="87.0000190799999" height="28.000018530000034" class="text">collection </text>
<text x="595.99999144" y="655.99998849" width="20.000014679999936" height="26.999960129999977" class="text">of </text>
<text x="622.99998404" y="655.99998849" width="103.00000624000006" height="29.000008620000017" class="text">information</text>
<text x="728.9999758" y="654.9999984" width="8.00001992" height="27.00002844000005" class="text">, </text>
<text x="743.00001944" y="654.9999984" width="82.99999156000001" height="28.000018530000034" class="text">including </text>
<text x="837.9999882" y="654.9999984" width="106.00004444000001" height="28.999985849999916" class="text">suggestions </text>
<text x="948.0000425999999" y="654.00000831" width="26.999992600000155" height="27.00002844000005" class="text">for </text>
<text x="982.9999497599999" y="654.00000831" width="78.00006252000003" height="27.999995759999933" class="text">reducing </text>
<text x="1070.00002152" y="653.00001822" width="30.000030800000104" height="27.00000566999995" class="text">this </text>
<text x="1109.0000440000001" y="653.00001822" width="62.99999443999991" height="27.999995759999933" class="text">burden </text>
<text x="1179.999953" y="651.99998259" width="16.00003984" height="26.999960129999863" class="text">to </text>
<text x="1205.00000208" y="651.99998259" width="53.000013439999975" height="26.999960129999863" class="text">Chief</text>
<text x="1258.9999872800001" y="651.99998259" width="8.000037479999719" height="26.999960129999863" class="text">, </text>
<text x="1270.0000453999999" y="651.99998259" width="109.99994904000005" height="29.000008619999903" class="text">Registration </text>
<text x="1388.00001436" y="650.9999925" width="40.99998355999992" height="27.000028439999937" class="text">Unit</text>
<text x="1430.999959" y="650.9999925" width="8.000019920000113" height="27.000028439999937" class="text">, </text>
<text x="1446.0000270799999" y="650.9999925" width="81.99996712000006" height="28.999985849999916" class="text">Criminal </text>
<text x="1533.9999476799999" y="650.00000241" width="78.00006252000026" height="27.000028439999937" class="text">Division</text>
<text x="1615.0000484" y="650.00000241" width="7.999914560000207" height="27.000028439999937" class="text">, </text>
<text x="1629.00003936" y="650.00000241" width="42.99992707999991" height="27.999995759999933" class="text">U.S.
</text>
<text x="94.999998612" y="686.0000099700001" width="110.00000698800001" height="27.999995760000047" class="text">Department </text>
<text x="212.00000108" y="684.99997434" width="18.99999023999996" height="25.999970039999994" class="text">of </text>
<text x="238.99999368000002" y="684.99997434" width="59.00000204" height="25.999970039999994" class="text">Justice</text>
<text x="300.99999879999996" y="684.99997434" width="6.999995480000052" height="25.999970039999994" class="text">, </text>
<text x="313.99998288" y="684.99997434" width="104.00001312" height="27.99995021999996" class="text">Washington</text>
<text x="420.99999908" y="683.99998425" width="6.9999954799999955" height="25.999970039999994" class="text">, </text>
<text x="437.99999312" y="683.99998425" width="41.00001868000004" height="25.999970039999994" class="text">D.C. </text>
<text x="485.00001796" y="683.99998425" width="52.999978320000025" height="26.999960129999977" class="text">20530</text>
<text x="542.9999779999999" y="682.99999416" width="7.000048160000119" height="25.999970039999994" class="text">; </text>
<text x="557.9999934" y="682.99999416" width="29.000006360000043" height="25.999970039999994" class="text">and </text>
<text x="598.0000051999999" y="682.99999416" width="13.999990960000105" height="25.999970039999994" class="text">to </text>
<text x="624.9999978" y="682.99999416" width="26.000020840000047" height="25.999970039999994" class="text">the </text>
<text x="656.99998968" y="682.99999416" width="57.00002340000003" height="27.000005670000064" class="text">Office </text>
<text x="723.99999408" y="682.00002684" width="19.000025359999995" height="26.000038350000068" class="text">of </text>
<text x="750.99998668" y="682.99999416" width="106.00002687999995" height="27.999995760000047" class="text">Information </text>
<text x="866.99999456" y="680.99996844" width="33.00001631999987" height="25.999970039999994" class="text">and </text>
<text x="906.9999536799999" y="682.00002684" width="101.00004516000013" height="28.000018530000034" class="text">Regulatory </text>
<text x="1018.9999515999999" y="680.99996844" width="61.000033359999975" height="26.999960129999977" class="text">Affairs</text>
<text x="1083.99999492" y="679.99997835" width="7.000048159999778" height="25.999970039999994" class="text">, </text>
<text x="1096.00004236" y="679.99997835" width="57.999995160000026" height="25.999970039999994" class="text">Office </text>
<text x="1163.00004676" y="679.99997835" width="18.999972679999928" height="25.999970039999994" class="text">of </text>
<text x="1188.99996224" y="679.99997835" width="120.99998959999994" height="27.999995760000047" class="text">Management </text>
<text x="1313.9999618" y="679.00001103" width="34.00004076000005" height="25.99999280999998" class="text">and </text>
<text x="1357.0000118" y="679.00001103" width="63.99996620000002" height="27.00002844000005" class="text">Budget</text>
<text x="1421.99994976" y="678.00002094" width="7.000048160000006" height="26.000038350000068" class="text">, </text>
<text x="1437.00001784" y="679.00001103" width="103.99997799999983" height="28.000018530000034" class="text">Washington</text>
<text x="1544.00003404" y="676.99996254" width="6.999942800000099" height="25.999970039999994" class="text">, </text>
<text x="1560.99995784" y="676.99996254" width="41.00008892000005" height="25.999970039999994" class="text">D.C. </text>
<text x="1608.0000002400002" y="676.99996254" width="57.00004095999975" height="25.999970039999994" class="text">20503</text>
<text x="1663.9999465199999" y="676.99996254" width="7.000048160000233" height="25.999970039999994" class="text">.
</text>
<text x="1223.000003" y="744.00000444" width="25.000031519999993" height="32.999991749999936" class="text">2. </text>
<text x="1255.99996664" y="744.00000444" width="138.99999051999998" height="35.000040239999976" class="text">Registration </text>
<text x="1402.99997708" y="739.9999985400001" width="49.00000348000003" height="32.000001660000066" class="text">No.
</text>
<text x="106.00000229599999" y="749.99996775" width="32.999995248000005" height="35.99993925000001" class="text">1. </text>
<text x="143.99999858" y="749.99996775" width="68.99999181999999" height="35.99993925000001" class="text">Name </text>
<text x="226.0000096" y="751.0000261499999" width="25.999985720000012" height="36.00000755999986" class="text">of </text>
<text x="258.9999908" y="751.99999347" width="113.00000480000006" height="36.99997487999997" class="text">registrant </text>
<text x="401.00000196" y="752.99998356" width="132.99998435999993" height="37.99996496999995" class="text">Robinson</text>
<text x="544.00000244" y="751.99999347" width="9.999981000000048" height="36.00000755999997" class="text">, </text>
<text x="573.99998056" y="751.99999347" width="65.00000820000002" height="36.00000755999997" class="text">Lake</text>
<text x="644.99999492" y="752.99998356" width="9.999981000000048" height="36.000007560000086" class="text">, </text>
<text x="674.99997304" y="752.99998356" width="87.00001908000002" height="36.000007560000086" class="text">Lerer </text>
<text x="781.00001748" y="752.99998356" width="9.999981000000048" height="36.000007560000086" class="text">&amp; </text>
<text x="810.0000238399999" y="755.00003205" width="174.00000304000014" height="38.00005605000001" class="text">Montgomery</text>
<text x="989.99999792" y="753.99997365" width="9.999980999999934" height="35.999939250000125" class="text">/
</text>
<text x="490.00001724" y="788.0000238" width="44.99999352000003" height="31.000034339999957" class="text">The </text>
<text x="553.99998344" y="788.0000238" width="105.00000244" height="31.000034339999957" class="text">Sawyer </text>
<text x="674.99997304" y="788.0000238" width="104.00003068000001" height="31.000034339999957" class="text">Miller </text>
<text x="793.99996644" y="788.0000238" width="88.00004351999996" height="31.000034339999957" class="text">Group
</text>
<text x="1519.9999742799998" y="779.00002191" width="69.0000532800002" height="30.000044249999974" class="text">3911
</text>
<text x="111.999999676" y="852.00002712" width="25.000005180000002" height="34.00005014999999" class="text">3. </text>
<text x="147.999996248" y="852.00002712" width="78.000013352" height="35.00001746999999" class="text">Nature </text>
<text x="238.00000436" y="850.9999914900001" width="19.999979560000043" height="33.99998184000003" class="text">of </text>
<text x="274.0000062" y="850.9999914900001" width="88.99999772000001" height="33.99998184000003" class="text">material </text>
<text x="374.00000936" y="850.9999914900001" width="9.999998559999995" height="33.99998184000003" class="text">(</text>
<text x="387.99998276" y="850.9999914900001" width="9.999998559999938" height="33.99998184000003" class="text">A </text>
<text x="411.00000052" y="850.0000014000001" width="86.99998396000001" height="33.999981840000146" class="text">concise </text>
<text x="504.99997995999996" y="850.0000014000001" width="95.00002144000001" height="33.999981840000146" class="text">account </text>
<text x="607.99996864" y="849.00001131" width="26.000020840000047" height="34.00005014999999" class="text">of </text>
<text x="640.0000132" y="849.00001131" width="33.99998807999998" height="34.00005014999999" class="text">the </text>
<text x="685.99997848" y="849.00001131" width="72.00000367999996" height="34.00005014999999" class="text">nature </text>
<text x="767.99999828" y="849.00001131" width="24.999996399999986" height="34.00005014999999" class="text">of </text>
<text x="804.99997188" y="848.00002122" width="34.000058319999994" height="34.000027380000006" class="text">the </text>
<text x="844.99998368" y="849.00001131" width="137.99996607999992" height="36.00000755999997" class="text">propaganda </text>
<text x="1002.0000278" y="846.99998559" width="92.99991987999988" height="33.99998184000003" class="text">material </text>
<text x="1101.9999958399999" y="846.99998559" width="46.99995460000014" height="33.99998184000003" class="text">filed</text>
<text x="1155.9999986" y="846.99998559" width="9.999963439999874" height="33.99998184000003" class="text">)
</text>
<text x="158.99999993199998" y="894.99998808" width="169.00000902800002" height="34.99994916000003" class="text">Background </text>
<text x="351.99999848" y="891.9999722700001" width="180.00002676000003" height="35.999939250000125" class="text">information </text>
<text x="589.99998528" y="890.00001486" width="155.00003035999998" height="33.99998184000003" class="text">political </text>
<text x="763.99998832" y="890.00001486" width="47.00000727999998" height="33.99998184000003" class="text">and </text>
<text x="830.99999272" y="890.00001486" width="136.99999431999993" height="33.99998184000003" class="text">economic </text>
<text x="982.9999497599999" y="890.00001486" width="138.0000187600001" height="33.99998184000003" class="text">briefing </text>
<text x="1138.99996944" y="890.00001486" width="87.00007175999986" height="33.99998184000003" class="text">paper
</text>
<text x="108.000002008" y="984.99998421" width="34.99999320399999" height="30.999966029999996" class="text">4. </text>
<text x="151.999993916" y="984.99998421" width="46.00001620400002" height="30.999966029999996" class="text">Title </text>
<text x="210.00000488" y="984.99998421" width="27.999999479999985" height="30.999966029999996" class="text">of </text>
<text x="249.99999912" y="984.99998421" width="92.99999011999998" height="30.999966029999996" class="text">material</text>
<text x="341.99998236" y="984.99998421" width="9.000009240000054" height="30.999966029999996" class="text">, </text>
<text x="356.00000844" y="984.99998421" width="23.999989520000042" height="30.999966029999996" class="text">if </text>
<text x="387.00001100000003" y="984.99998421" width="39.999976679999975" height="30.999966029999996" class="text">any
</text>
<text x="162.99999935600002" y="1024.00000758" width="80.000004284" height="27.000028440000165" class="text">Chile</text>
<text x="253.00000219999998" y="1023.00001749" width="6.999995480000052" height="25.00004825999997" class="text">: </text>
<text x="297.99999572" y="1027.00002339" width="154.99999524000003" height="32.000001660000066" class="text">Political </text>
<text x="470.99999188" y="1027.00002339" width="49.00000348000009" height="32.000001660000066" class="text">and </text>
<text x="541.00001692" y="1027.00002339" width="135.99996987999998" height="32.000001660000066" class="text">Economic </text>
<text x="692.99997396" y="1027.00002339" width="137.00004699999988" height="32.000001660000066" class="text">Briefing
</text>
<text x="415.00001047999996" y="1062.99996264" width="86.99998396000007" height="30.99994326000001" class="text">Paper
</text>
<text x="930.00004168" y="983.99999412" width="34.99990716000002" height="32.000001660000066" class="text">5. </text>
<text x="984.0000268800001" y="983.99999412" width="68.99996548000001" height="33.999959070000045" class="text">Name </text>
<text x="1060.00004052" y="983.0000268" width="23.99995439999998" height="32.00002443000005" class="text">of </text>
<text x="1091.0000430799998" y="983.0000268" width="76.00001364000013" height="34.00005014999999" class="text">foreign </text>
<text x="1173.99999952" y="983.0000268" width="107.99998796" height="34.00005014999999" class="text">principal </text>
<text x="1286.9999692" y="980.99997831" width="24.000059760000113" height="32.00000165999995" class="text">on </text>
<text x="1320.0000382" y="980.99997831" width="69.99993723999978" height="32.99999175000005" class="text">whose </text>
<text x="1397.99999536" y="979.99998822" width="75.0000243200002" height="32.99999175000005" class="text">behalf </text>
<text x="1478.0000014" y="979.99998822" width="40.00001180000004" height="32.000001660000066" class="text">this </text>
<text x="1533.9999476799999" y="979.99998822" width="86.00008244000014" height="33.999959070000045" class="text">material </text>
<text x="1624.00005764" y="979.0000209" width="44.99999352000009" height="32.00002443000005" class="text">was
</text>
<text x="982.9999497599999" y="1011.00002256" width="125.00001712000017" height="27.00002844000005" class="text">transmitted</text>
<text x="1115.00001504" y="1011.00002256" width="8.000019919999886" height="27.00002844000005" class="text">.
</text>
<text x="1205.99997384" y="1056.00000924" width="139.99997983999992" height="31.000011570000197" class="text">ProChile
</text>
<text x="644.99999492" y="1155.00000726" width="20.999986440000043" height="36.00003033000007" class="text">7. </text>
<text x="669.9999913199999" y="1156.99996467" width="67.99997616000007" height="37.99998774000005" class="text">Dates </text>
<text x="748.00000116" y="1156.99996467" width="27.999981919999982" height="35.999939250000125" class="text">of </text>
<text x="784.000003" y="1161.0000388800001" width="143.00000048000004" height="40.00001346000022" class="text">transmission
</text>
<text x="110.99999630800001" y="1154.0000171699999" width="29.000002847999994" height="27.000028439999824" class="text">6. </text>
<text x="145.00000019200002" y="1154.0000171699999" width="77.99998876799998" height="27.000028439999824" class="text">Means </text>
<text x="237.00001504" y="1153.00002708" width="19.999979559999986" height="27.00002844000005" class="text">of </text>
<text x="266.99999316" y="1154.0000171699999" width="143.00000048000004" height="28.999985849999803" class="text">transmission
</text>
<text x="158.99999993199998" y="1198.99993554" width="63.999989028000016" height="30.99987495000005" class="text">Hand </text>
<text x="243.00000364000002" y="1201.0000523400001" width="135.00001567999996" height="32.99999175000016" class="text">Delivery
</text>
<text x="1155.9999986" y="1154.0000171699999" width="25.000031519999993" height="32.999991749999936" class="text">8. </text>
<text x="1195.00002108" y="1153.00002708" width="50.99996456000008" height="34.000050150000106" class="text">Total </text>
<text x="1254.99997732" y="1153.00002708" width="74.00005256000009" height="35.0000174700001" class="text">copies </text>
<text x="1339.00001088" y="1152.00003699" width="124.0000278" height="35.000017469999875" class="text">transmitted
</text>
<text x="1279.0000546400001" y="1190.99994651" width="48.9998981199999" height="27.999950220000073" class="text">110
</text>
<text x="692.0000022" y="1203.00000975" width="101.99996423999994" height="48.000002489999815" class="text">August </text>
<text x="813.99998112" y="1196.99997813" width="14.000043639999944" height="43.999951049999936" class="text">5</text>
<text x="833.00000648" y="1195.99998804" width="13.999990959999991" height="43.99995105000016" class="text">, </text>
<text x="869.99998008" y="1194.9999979499999" width="67.99997616000007" height="47.00001239999983" class="text">1993
</text>
<text x="108.99999835199999" y="1258.00003395" width="31.00000080400001" height="28.000064070000008" class="text">9. </text>
<text x="148.999999616" y="1258.00003395" width="44.00001122399999" height="29.000054159999763" class="text">List </text>
<text x="202.00000252" y="1258.00003395" width="109.0000124" height="30.000044249999974" class="text">addresses </text>
<text x="324.99998832" y="1255.9999399199999" width="51.00001723999998" height="27.999950219999846" class="text">from </text>
<text x="387.00001100000003" y="1255.9999399199999" width="70.99996167999996" height="28.999917539999842" class="text">which </text>
<text x="476.99999804" y="1255.9999399199999" width="87.99999084000007" height="29.999907629999825" class="text">material </text>
<text x="571.99998436" y="1254.99994983" width="44.99999352000009" height="28.99991754000007" class="text">was </text>
<text x="625.9999695600001" y="1254.99994983" width="129.00002707999988" height="29.999907630000052" class="text">transmitted</text>
<text x="759.0000066" y="1252.99999242" width="7.999967239999933" height="27.999950219999846" class="text">:
</text>
<text x="936.99998448" y="1252.99999242" width="40.999983560000146" height="26.999960129999863" class="text">10. </text>
<text x="988.0000544" y="1252.99999242" width="41.999955320000026" height="27.999950219999846" class="text">List </text>
<text x="1046.00004956" y="1252.00000233" width="61.99991732000012" height="26.999960129999863" class="text">states </text>
<text x="1119.99999676" y="1252.00000233" width="38.00005071999999" height="27.99992744999986" class="text">and </text>
<text x="1174.99997128" y="1252.00000233" width="116.00000788000011" height="29.000054159999763" class="text">territories </text>
<text x="1308.00000832" y="1250.0000449200002" width="19.999944440000036" height="27.00009675000001" class="text">of </text>
<text x="1343.9999926" y="1250.0000449200002" width="34.00004076000005" height="27.00009675000001" class="text">the </text>
<text x="1391.0000525599999" y="1250.0000449200002" width="75.99989072000017" height="29.000054160000218" class="text">United </text>
<text x="1485.00004956" y="1249.00005483" width="65.99992728000007" height="27.00009675000001" class="text">States </text>
<text x="1564.9999678" y="1247.99992812" width="18.000000920000048" height="26.999937360000104" class="text">to </text>
<text x="1598.0000368" y="1247.99992812" width="71.00001436000002" height="27.999927450000087" class="text">which
</text>
<text x="991.999959" y="1285.9999841699998" width="89.00001527999984" height="27.999950219999846" class="text">material </text>
<text x="1088.00000488" y="1285.9999841699998" width="42.99994463999997" height="27.999950219999846" class="text">was </text>
<text x="1146.0000175999999" y="1285.9999841699998" width="122.99995068000021" height="27.999950219999846" class="text">transmitted</text>
<text x="1273.99995" y="1285.9999841699998" width="8.000037480000174" height="27.999950219999846" class="text">:
</text>
<text x="161.000006668" y="1340.00004105" width="68.99997777200002" height="33.99998183999992" class="text">1667 </text>
<text x="246.00000672000002" y="1339.0000509600002" width="9.000009239999969" height="32.00000166000018" class="text">K </text>
<text x="282.00000855999997" y="1339.0000509600002" width="101.99999936" height="34.000118460000294" class="text">Street</text>
<text x="387.00001100000003" y="1338.00006087" width="8.999991679999937" height="32.00000165999995" class="text">, </text>
<text x="415.00001047999996" y="1338.00006087" width="75.99997852000007" height="34.00011845999984" class="text">N.W.</text>
<text x="493.00000276" y="1336.99993416" width="8.99999168000005" height="32.00000166000018" class="text">, </text>
<text x="524.99997708" y="1336.99993416" width="9.00000923999994" height="32.00000166000018" class="text">#</text>
<text x="542.0000062400001" y="1336.99993416" width="44.999993519999975" height="32.00000166000018" class="text">900
</text>
<text x="157.99999832" y="1375.9999803" width="170.99999996" height="33.99998183999992" class="text">Washington</text>
<text x="335.00000444" y="1373.0000328" width="9.999998560000051" height="30.0000442500002" class="text">, </text>
<text x="368.00000320000004" y="1372.00004271" width="10.000016119999941" height="30.000044249999746" class="text">D </text>
<text x="402.00000884" y="1372.00004271" width="28.999988799999983" height="31.000034339999957" class="text">.C</text>
<text x="436.99998624" y="1371.00005262" width="10.000033680000001" height="30.000044249999974" class="text">. </text>
<text x="526.00000152" y="1367.9999685" width="80.99999536000007" height="28.999917539999842" class="text">20006
</text>
<text x="1294.0000173600001" y="1371.00005262" width="174.00002059999997" height="36.000075870000046" class="text">Washington</text>
<text x="1475.99995252" y="1367.9999685" width="9.0000970399999" height="32.00000165999995" class="text">, </text>
<text x="1505.0000115599998" y="1367.9999685" width="71.99998612000013" height="33.99998183999992" class="text">D.C.
</text>
<text x="99.999999648" y="1569.0000031200002" width="41.000002875999996" height="32.00000166000018" class="text">11. </text>
<text x="151.000004596" y="1569.0000031200002" width="65.999995764" height="33.99995907000016" class="text">Types </text>
<text x="228.0000058" y="1568.0000358000002" width="23.999989520000014" height="32.00002443000017" class="text">of </text>
<text x="261.99999388000003" y="1568.0000358000002" width="106.99999863999994" height="33.99998184000037" class="text">recipients </text>
<text x="383.00000104000003" y="1567.00004571" width="8.999991679999937" height="32.00000165999995" class="text">(</text>
<text x="392.9999996" y="1567.00004571" width="50.99998212000003" height="32.99999175000016" class="text">Give </text>
<text x="454.99998716" y="1567.00004571" width="87.99999083999995" height="33.99998183999992" class="text">number </text>
<text x="550.0000261600001" y="1564.9999289099999" width="29.00000635999993" height="31.999865039999804" class="text">of </text>
<text x="586.0000279999999" y="1566.00005562" width="151.99993948000008" height="34.00011846000007" class="text">organizations
</text>
<text x="147.999996248" y="1601.00002755" width="20.000004144000002" height="31.000034339999957" class="text">in </text>
<text x="182.00000540000002" y="1602.9999849600001" width="48.99998591999994" height="32.99999175000016" class="text">each </text>
<text x="241.99999676" y="1603.9999750499999" width="67.00000440000002" height="32.00002442999994" class="text">group</text>
<text x="312.99999356" y="1603.9999750499999" width="9.999998559999995" height="31.000034339999957" class="text">)
</text>
<text x="936.00001272" y="1560.0000240000002" width="44.00000419999992" height="28.000086840000222" class="text">12. </text>
<text x="985.9999879600001" y="1560.0000240000002" width="43.00004999999999" height="29.000054160000218" class="text">List </text>
<text x="1048.00001064" y="1559.00003391" width="72.99995788000001" height="28.000064070000008" class="text">names </text>
<text x="1142.00000764" y="1559.00003391" width="36.000001840000095" height="29.00005415999999" class="text">and </text>
<text x="1199.00003104" y="1559.00003391" width="107.99998796" height="30.000044249999974" class="text">addresses
</text>
<text x="982.9999497599999" y="1599.00004737" width="107.00001620000012" height="35.00008578000006" class="text">receiving </text>
<text x="1109.0000440000001" y="1599.00004737" width="33.99993539999991" height="35.00008578000006" class="text">100 </text>
<text x="1155.9999986" y="1599.00004737" width="68.99994791999984" height="35.00008578000006" class="text">copies </text>
<text x="1239.00004284" y="1599.00004737" width="25.9999154799998" height="35.00008578000006" class="text">or </text>
<text x="1280.99999816" y="1599.00004737" width="49.00000348000003" height="35.00008578000006" class="text">more</text>
<text x="1333.00003984" y="1599.00004737" width="9.999980999999934" height="35.00008578000006" class="text">:
</text>
<text x="1321.99998172" y="1664.0000407799998" width="62.99999443999991" height="202.00000193999972" class="text">REGISTRATION </text>
<text x="1315.00003892" y="1745.00005779" width="49.99999279999997" height="71.00004779999995" class="text">UNIT
</text>
<text x="1360.00005" y="1665.00003087" width="42.99992707999991" height="122.99998787999994" class="text">SECTION
</text>
<text x="1397.00000604" y="1602.9999849600001" width="48.000031719999924" height="145.00002033000032" class="text">INTERNAL </text>
<text x="1383.00003264" y="1756.99998441" width="49.00000348000003" height="144.00003024000011" class="text">SECURITY
</text>
<text x="1469.00000972" y="1494.0000404999998" width="44.00002175999998" height="41.99997086999974" class="text">93 </text>
<text x="1463.00003868" y="1559.00003391" width="45.99998284000003" height="56.000014289999854" class="text">AUG </text>
<text x="1459.00002872" y="1605.99993246" width="42.99994463999997" height="32.99999175000016" class="text">10 </text>
<text x="1454.000047" y="1673.00004267" width="43.999916400000075" height="40.00001345999999" class="text">AM </text>
<text x="1445.00003776" y="1767.99994371" width="49.99999279999997" height="93.99993371999994" class="text">11:46
</text>
<text x="1526.00003312" y="1618.99998579" width="52.99990808000007" height="146.99997774000008" class="text">CRIMINAL </text>
<text x="1514.00000324" y="1766.99995362" width="50.99996455999985" height="135.99990458999991" class="text">DIVISION
</text>
<text x="1566.00004492" y="1569.0000031200002" width="45.9999652800002" height="81.99998433000019" class="text">DEAT</text>
<text x="1566.00004492" y="1580.99995251" width="40.00001180000004" height="13.999906799999962" class="text">. </text>
<text x="1563.00000672" y="1624.00005009" width="43.000049999999874" height="45.00007776000007" class="text">OF </text>
<text x="1551.9999486000002" y="1763.0000387999999" width="49.000003479999805" height="127.0000620899998" class="text">JUSTICE
</text>
<text x="1589.99999932" y="1702.9999503000001" width="44.00002175999998" height="151.99990542000023" class="text">RECEIVED
</text>
<text x="365.00000012" y="1699.00001271" width="48.00001415999998" height="29.00005415999999" class="text">110
</text>
<text x="99.000003304" y="1665.00003087" width="101.99999233599998" height="27.00009675000001" class="text">Libraries
</text>
<text x="101.00000126" y="1699.00001271" width="65.999995764" height="25.000002719999884" class="text">Public </text>
<text x="182.99999472" y="1699.00001271" width="89.00001527999999" height="26.99996013000009" class="text">officials
</text>
<text x="96.000000224" y="1738.00003608" width="140.00000793599997" height="31.000034340000184" class="text">Newspapers
</text>
<text x="99.999999648" y="1766.99995362" width="59.00000028399998" height="24.999979950000125" class="text">Press </text>
<text x="168.000000392" y="1766.99995362" width="93.00000416799998" height="26.99996013000009" class="text">services </text>
<text x="272.99999932000003" y="1765.9999863" width="23.000000199999988" height="25.999992810000094" class="text">of
</text>
<text x="123.00000511600001" y="1798.99997805" width="138.99998876400002" height="25.000002719999884" class="text">associations
</text>
<text x="97.999999936" y="1834.00006383" width="140.000004424" height="29.00005415999999" class="text">Educational
</text>
<text x="123.00000511600001" y="1868.0000456700002" width="126.999994004" height="28.000086840000222" class="text">institutions
</text>
<text x="99.999999648" y="1902.99999483" width="57.999998672000004" height="29.000054160000218" class="text">Civic
</text>
<text x="195.99999635999998" y="1905.99994233" width="79.99998848000004" height="25.999970040000107" class="text">groups
</text>
<text x="96.999996568" y="1938.99993408" width="68.99999708800001" height="32.999991749999936" class="text">Other </text>
<text x="177.99999544" y="1937.99996676" width="9.000009239999997" height="30.999897720000035" class="text">(</text>
<text x="189.9999902" y="1940.00006079" width="78.00000983999996" height="32.999991749999936" class="text">specify</text>
<text x="268.00000004" y="1938.99993408" width="8.99999168000005" height="30.99987494999982" class="text">)
</text>
<text x="1548.0000440000001" y="2111.00005116" width="43.99991639999985" height="18.000094860000445" class="text">FORM </text>
<text x="1603.99999028" y="2111.00005116" width="32.99996364000003" height="18.000094860000445" class="text">CRM</text>
<text x="1644.00000208" y="2111.00005116" width="4.999981719999823" height="18.000094860000445" class="text">-</text>
<text x="1648.9999837999999" y="2111.00005116" width="21.00003912000011" height="18.000094860000445" class="text">159
</text>
<text x="1615.0000484" y="2133.99993708" width="27.999981919999982" height="17.99995824000007" class="text">SEP</text>
<text x="1643.00003032" y="2133.99993708" width="4.999981720000051" height="17.99995824000007" class="text">. </text>
<text x="1654.9999548399999" y="2133.99993708" width="14.000096320000239" height="17.99995824000007" class="text">89
</text>
</g>
<g id="page-1" transform="translate(0, 2297)">
<rect width="1756" height="2277" fill="none" stroke="black" />
<text x="115.999997344" y="147.000007341" width="42.00000097600001" height="36.00000983700001" class="text">13. </text>
<text x="164.00000096800002" y="147.000007341" width="20.999989951999964" height="36.00000983700001" class="text">If </text>
<text x="193.00001084" y="147.000007341" width="36.99997360000003" height="37.00001131200001" class="text">the </text>
<text x="246.00000672000002" y="146.000005866" width="92.00000079999998" height="37.000009035000005" class="text">material </text>
<text x="346.00000988" y="146.000005866" width="123.99999268000005" height="38.00001051000001" class="text">transmitted </text>
<text x="481.99999732000003" y="145.000006668" width="41.000036239999986" height="36.00000983699999" class="text">was </text>
<text x="535.00001076" y="145.000006668" width="9.999963439999988" height="36.00000983699999" class="text">a </text>
<text x="562.00000336" y="145.000006668" width="42.00000799999998" height="37.000011312" class="text">film </text>
<text x="616.9999778800001" y="144.00000519300002" width="27.000045279999995" height="36.00000983700002" class="text">or </text>
<text x="654.00000416" y="144.00000519300002" width="55.99999895999997" height="36.00000983700002" class="text">radio </text>
<text x="721.00000856" y="144.00000519300002" width="26.99999260000004" height="36.00000983700002" class="text">or </text>
<text x="759.99997836" y="144.00000519300002" width="106.00004444000001" height="38.000001402000024" class="text">television </text>
<text x="875.99998624" y="143.000005995" width="69.99998992000008" height="37.00000220400001" class="text">script</text>
<text x="945.0000044" y="141.999997689" width="9.999980999999934" height="35.999993898" class="text">, </text>
<text x="962.00003356" y="141.999997689" width="78.99992892" height="35.999993898" class="text">furnish </text>
<text x="1052.99999236" y="141.999997689" width="36.999973599999976" height="35.999993898" class="text">the </text>
<text x="1100.0000523200001" y="141.999997689" width="102.99998867999989" height="37.999994571" class="text">following </text>
<text x="1218.9999930400002" y="140.999996214" width="133.00001947999976" height="37.999992293999995" class="text">information</text>
<text x="1356.0000224799999" y="139.99999701599998" width="9.999981000000162" height="35.999993897999985" class="text">:
</text>
<text x="949.00001436" y="212.000007582" width="55.99994628000002" height="39.00000970799999" class="text">Date </text>
<text x="1012.0000087999999" y="212.000007582" width="30.000030800000104" height="40.000011183" class="text">or </text>
<text x="1047.00002132" y="211.00000838399998" width="62.99999443999991" height="39.000011984999986" class="text">dates </text>
<text x="1116.99995856" y="211.00000838399998" width="114.0000643599999" height="41.000012657999974" class="text">broadcast </text>
<text x="1240.0000146" y="210.000006909" width="72.99997544000007" height="39.00000970799999" class="text">shown
</text>
<text x="113.000003044" y="214.00000825499998" width="67.999995476" height="34.00000916399998" class="text">Name </text>
<text x="194.00000015999998" y="214.00000825499998" width="24.999996400000015" height="34.00000916399998" class="text">of </text>
<text x="228.99999511999997" y="214.00000825499998" width="71.00001436000005" height="34.00000916399998" class="text">station</text>
<text x="303.00001256" y="214.00000825499998" width="9.999980999999991" height="34.00000916399998" class="text">, </text>
<text x="322.00002036" y="214.00000825499998" width="141.99997603999998" height="34.00000916399998" class="text">organization</text>
<text x="465.99999260000004" y="214.00000825499998" width="10.000033679999945" height="34.00000916399998" class="text">, </text>
<text x="486.00000728000003" y="214.00000825499998" width="24.999978839999983" height="34.00000916399998" class="text">or </text>
<text x="523.00003356" y="214.00000825499998" width="76.99996783999995" height="34.00000916399998" class="text">theater </text>
<text x="609.00001064" y="214.00000825499998" width="58.999984479999966" height="34.00000916399998" class="text">using
</text>
<text x="117.000000712" y="248.99999157" width="8.999998704000006" height="31.999999382999988" class="text">(</text>
<text x="125.99999941600001" y="248.99999157" width="102.99999570399996" height="33.999984117" class="text">including </text>
<text x="244.99999984000002" y="248.00000147999998" width="38.000015599999955" height="32.999994026999985" class="text">city </text>
<text x="294.99999264" y="247.00001139" width="41.00000111999998" height="32.000003937" class="text">and </text>
<text x="350.00001984" y="247.00001139" width="50.99998212000003" height="33.000003135000014" class="text">state</text>
<text x="402.00000884" y="245.99999853" width="8.999991679999994" height="31.999990275000016" class="text">)
</text>
<text x="1412.9999580800002" y="200.00000354399998" width="111.99999791999971" height="29.000006342999967" class="text">Estimated </text>
<text x="1539.0000523200001" y="200.00000354399998" width="116.99997963999976" height="29.000006342999967" class="text">attendance
</text>
<text x="1466.99994328" y="234.99999369" width="8.000019919999886" height="28.999988126999995" class="text">(</text>
<text x="1474.9999632" y="234.99999369" width="33.00006900000017" height="28.999988126999995" class="text">for </text>
<text x="1518.99998496" y="236.00000655000002" width="45.99998284000003" height="28.999999512000045" class="text">film</text>
<text x="1567.9999884400002" y="236.00000655000002" width="8.000037479999719" height="28.999999512000045" class="text">(</text>
<text x="1576.99999768" y="236.00000655000002" width="8.000019919999886" height="28.999999512000045" class="text">s</text>
<text x="1587.99995044" y="236.00000655000002" width="8.000019919999886" height="28.999999512000045" class="text">)</text>
<text x="1598.0000368" y="236.00000655000002" width="8.000019919999886" height="28.999999512000045" class="text">)
</text>
<text x="114.999995732" y="489.99999411" width="50.000008604000016" height="38.00001050999998" class="text">14. </text>
<text x="168.000000392" y="489.99999411" width="53.999999247999995" height="38.999977830000034" class="text">Have </text>
<text x="235.00000128000002" y="489.00002679" width="39.00000491999995" height="38.00001051000004" class="text">two </text>
<text x="287.99999716" y="489.00002679" width="71.00001435999997" height="39.000046139999995" class="text">copies </text>
<text x="371.99999560000003" y="487.99999116" width="21.00000399999999" height="38.00001050999998" class="text">of </text>
<text x="402.00000884" y="487.99999116" width="39.999976679999975" height="38.00001050999998" class="text">this </text>
<text x="461.9999826399999" y="487.99999116" width="87.00001908000007" height="40.000013459999934" class="text">material </text>
<text x="557.00002164" y="487.00002384" width="52.99996075999991" height="38.00001050999998" class="text">been </text>
<text x="622.99998404" y="485.99998820999997" width="53.000031000000035" height="38.000010509999925" class="text">filed </text>
<text x="683.99998228" y="485.99998820999997" width="51.00001723999992" height="38.000010509999925" class="text">with </text>
<text x="750.00001492" y="485.99998820999997" width="32.99999876000004" height="38.99997782999998" class="text">the </text>
<text x="790.00000916" y="485.99998820999997" width="145.00001424000004" height="39.99999068999995" class="text">Department </text>
<text x="941.9999662" y="484.00000802999995" width="21.000039119999883" height="38.000010509999925" class="text">of </text>
<text x="971.9999969999999" y="484.00000802999995" width="80.99999536000018" height="39.000000599999964" class="text">Justice</text>
<text x="1052.0000206" y="484.00000802999995" width="10.999952760000042" height="38.000010509999925" class="text">? </text>
<text x="1100.0000523200001" y="483.00001794" width="37.999945359999856" height="38.00001051000004" class="text">Yes </text>
<text x="1155.0000092799999" y="483.00001794" width="10.999952760000042" height="38.00001051000004" class="text"> </text>
<text x="1209.00001204" y="482.00000508" width="35.000012520000155" height="38.00001050999998" class="text">No </text>
<text x="1257.00004376" y="482.00000508" width="10.999952760000042" height="38.00001050999998" class="text">
</text>
<text x="119.99999676799999" y="553.00000734" width="40.000006532000015" height="34.9999947" class="text">15. </text>
<text x="179.00000232" y="553.00000734" width="43.99998664" height="36.000007560000086" class="text">Has </text>
<text x="233.00000508000002" y="552.00001725" width="41.00000111999995" height="35.0000174700001" class="text">this </text>
<text x="292.00000712" y="552.00001725" width="86.99998395999995" height="35.0000174700001" class="text">material </text>
<text x="389.99999651999997" y="552.00001725" width="49.99997524000008" height="36.000007560000086" class="text">been </text>
<text x="456.00002916" y="551.00000439" width="78.99998160000001" height="34.9999947" class="text">labeled </text>
<text x="544.00000244" y="551.00000439" width="25.99996815999998" height="34.9999947" class="text">as </text>
<text x="580.00000428" y="551.00000439" width="94.99996876" height="36.00000755999997" class="text">required </text>
<text x="687.00002048" y="550.0000143" width="25.99996815999998" height="35.00001746999999" class="text">by </text>
<text x="723.00000476" y="550.0000143" width="36.00000183999998" height="35.00001746999999" class="text">the </text>
<text x="768.9999876" y="550.0000143" width="34.00004075999993" height="36.00000755999997" class="text">act</text>
<text x="806.99998564" y="549.00000144" width="10.000033680000115" height="34.9999947" class="text">? </text>
<text x="855.00001736" y="549.00000144" width="35.00001251999993" height="34.9999947" class="text">Yes </text>
<text x="912.00004076" y="549.00000144" width="9.999980999999934" height="34.9999947" class="text"> </text>
<text x="961.00004424" y="549.00000144" width="37.99996292000003" height="36.000007560000086" class="text">No </text>
<text x="1009.9999423600001" y="548.00001135" width="10.000086359999841" height="35.0000174700001" class="text">
</text>
<text x="114.000004656" y="617.00001066" width="51.999989000000014" height="31.000011570000083" class="text">Date </text>
<text x="182.99999472" y="618.00000075" width="22.00001088000002" height="28.99998585000003" class="text">of </text>
<text x="212.9999904" y="622.00000665" width="72.00000368000002" height="32.00002443000005" class="text">report
</text>
<text x="405.00001191999996" y="614.99998494" width="69.00000060000008" height="29.999975940000013" class="text">Name </text>
<text x="486.99997904" y="613.99999485" width="36.00005451999999" height="27.999995760000047" class="text">and </text>
<text x="539.00002072" y="613.00002753" width="40.00001180000004" height="28.000018530000034" class="text">title
</text>
<text x="475.0000018399999" y="646.0000192800001" width="69.99997236000007" height="26.000061120000055" class="text">Mark </text>
<text x="564.99998888" y="646.0000192800001" width="100.99999247999995" height="27.00002844000005" class="text">Helmke
</text>
<text x="477.99996980000003" y="682.00002684" width="156.00001968000004" height="28.000018530000034" class="text">President
</text>
<text x="136.000001488" y="715.0000185900001" width="164.99999731199995" height="72.00003789000004" class="text">8.5-93
</text>
<text x="1042.0000396" y="735.0000253200001" width="138.99999051999998" height="190.0000297800001" class="text">ill</text>
<text x="1165.99996204" y="703.00000089" width="91.00008172000003" height="178.00001208000003" class="text">!
</text>
<text x="340.00000372" y="1273.00006746" width="3.9999923999999965" height="11.000095920000149" class="text">:
</text>
<text x="1416.99996804" y="2162.99999124" width="43.00003243999981" height="23.999989859999914" class="text">PU.S. </text>
<text x="1459.00002872" y="2162.99999124" width="35.00003007999999" height="23.999989859999914" class="text">GPC</text>
<text x="1497.9999634" y="2162.99999124" width="7.000048159999778" height="23.999989859999914" class="text">: </text>
<text x="1509.00002152" y="2162.99999124" width="106.99999864000006" height="23.999989859999914" class="text">1888-818-838</text>
<text x="1617.9999812400001" y="2162.99999124" width="7.000048159999778" height="23.999989859999914" class="text">/</text>
<text x="1626.9999729200001" y="2162.99999124" width="47.00005995999982" height="23.999989859999914" class="text">81837
</text>
</g>
</svg>
