<svg xmlns="http://www.w3.org/2000/svg">
<style>.text { font-size: 14px; font-family: Arial, sans-serif; }</style>
<g id="page-0" transform="translate(0, 0)">
<rect width="1758" height="2274" fill="none" stroke="black" />
<text x="877.0000288800001" y="135.999996918" width="159.99997499999984" height="33.999992976" class="text">Dissemination </text>
<text x="1051.9999806600001" y="135.999996918" width="81.00002579999978" height="30.99999573599999" class="text">Report
</text>
<text x="95.00000119799999" y="135.999996918" width="55.00000393200001" height="32.00000087999999" class="text">U.S. </text>
<text x="154.000001868" y="135.999996918" width="147.999979512" height="32.00000087999999" class="text">Department </text>
<text x="312.99999834" y="135.999996918" width="23.00001947999999" height="32.00000087999999" class="text">of </text>
<text x="349.0000059" y="135.999996918" width="76.99999565999997" height="32.00000087999999" class="text">Justice
</text>
<text x="95.00000119799999" y="179.00000208" width="131.000005242" height="32.00000087999999" class="text">Washington</text>
<text x="230.00001899999998" y="176.999994066" width="7.999989960000022" height="28.999987721999986" class="text">, </text>
<text x="248.00000520000003" y="176.000007114" width="37.99999625999999" height="30.000008783999988" class="text">DC </text>
<text x="300.99999582" y="176.000007114" width="65.99999628" height="31.000013927999987" class="text">20530
</text>
<text x="1511.0000331" y="117.99999528599999" width="39.99998495999989" height="16.999996487999994" class="text">OMB </text>
<text x="1557.0000193199999" y="117.99999528599999" width="26.999926560000176" height="17.999990261999997" class="text">No. </text>
<text x="1591.999971" y="117.000001512" width="68.00000256000021" height="18.000001632000007" class="text">1105-0006
</text>
<text x="1429.00003932" y="144.00000623399998" width="62.99996927999996" height="22.00001083799998" class="text">Approval </text>
<text x="1498.99996026" y="143.00000108999998" width="51.00000191999993" height="20.00000054999998" class="text">Expires </text>
<text x="1556.00005134" y="143.00000108999998" width="38.99991150000005" height="21.00000569399998" class="text">Nov. </text>
<text x="1599.99999612" y="141.99999822" width="14.999959199999921" height="20.000002824000006" class="text">30</text>
<text x="1616.00002878" y="141.99999822" width="5.9999836799997865" height="20.000002824000006" class="text">, </text>
<text x="1630.00003758" y="141.99999822" width="30.999991860000137" height="20.000002824000006" class="text">1993
</text>
<text x="95.999997306" y="275.99999622" width="161.00001857400002" height="32.000000880000016" class="text">INSTRUCTIONS</text>
<text x="259.00000458" y="275.99999622" width="8.999993099999983" height="32.000000880000016" class="text">: </text>
<text x="270.00000396" y="275.99999622" width="62.99998685999998" height="32.000000880000016" class="text">Report </text>
<text x="344.00000778000003" y="275.99999622" width="40.99998809999994" height="32.000000880000016" class="text">must </text>
<text x="389.00000844" y="275.99999622" width="23.999969880000037" height="32.000000880000016" class="text">be </text>
<text x="418.99999716" y="275.99999622" width="85.99998875999995" height="32.000000880000016" class="text">submitted </text>
<text x="517.00000602" y="275.99999622" width="11.000016959999925" height="32.000000880000016" class="text">in </text>
<text x="539.9999903400001" y="275.99999622" width="81.99999377999995" height="32.000000880000016" class="text">duplicate </text>
<text x="627.0000174" y="275.99999622" width="17.999968620000004" height="32.000000880000016" class="text">to </text>
<text x="654.0000142800001" y="275.99999622" width="28.000000019999902" height="32.000000880000016" class="text">the </text>
<text x="686.99999484" y="275.99999622" width="110.00001137999993" height="32.000000880000016" class="text">Registration </text>
<text x="804.00001062" y="275.99999622" width="40.999988099999996" height="32.000000880000016" class="text">Unit</text>
<text x="843.99999558" y="275.99999622" width="9.000028260000022" height="32.000000880000016" class="text">, </text>
<text x="856.99998366" y="275.99999622" width="76.00001010000005" height="32.000000880000016" class="text">Internal </text>
<text x="935.9999856" y="275.99999622" width="76.99997808" height="32.000000880000016" class="text">Security </text>
<text x="1019.0000528400001" y="275.99999622" width="68.99995295999997" height="32.000000880000016" class="text">Section</text>
<text x="1088.0000058" y="275.99999622" width="8.999975520000135" height="32.000000880000016" class="text">, </text>
<text x="1102.999965" y="275.99999622" width="82.00001136000014" height="32.000000880000016" class="text">Criminal </text>
<text x="1192.0000335" y="275.99999622" width="77.99992848000011" height="32.000000880000016" class="text">Division</text>
<text x="1269.99996198" y="275.99999622" width="9.00008099999991" height="32.000000880000016" class="text">, </text>
<text x="1283.99997078" y="275.99999622" width="109.0000434000001" height="32.000000880000016" class="text">Department </text>
<text x="1401.0000393" y="275.99999622" width="18.99991901999988" height="32.000000880000016" class="text">of </text>
<text x="1424.00002362" y="275.99999622" width="62.000001299999894" height="32.000000880000016" class="text">Justice</text>
<text x="1487.9999433" y="275.99999622" width="9.000098579999985" height="32.000000880000016" class="text">, </text>
<text x="1501.9999521" y="275.99999622" width="104.00002770000015" height="32.000000880000016" class="text">Washington</text>
<text x="1605.9999798000001" y="275.99999622" width="8.999975519999907" height="32.000000880000016" class="text">, </text>
<text x="1621.00004448" y="275.99999622" width="40.99995293999996" height="32.000000880000016" class="text">D.C.
</text>
<text x="93.999999816" y="304.00000836000004" width="65.00000017199999" height="26.000006400000018" class="text">20530. </text>
<text x="164.99999949" y="304.00000836000004" width="32.99998935000002" height="26.000006400000018" class="text">The </text>
<text x="206.99999952" y="304.00000836000004" width="70.99999440000002" height="27.00002064000006" class="text">original </text>
<text x="286.99998702" y="302.99999412" width="43.000011959999995" height="26.000006400000018" class="text">must </text>
<text x="334.9999971" y="302.99999412" width="19.000006920000033" height="26.000006400000018" class="text">be </text>
<text x="364.00000026" y="302.99999412" width="54.99999690000004" height="26.000006400000018" class="text">signed </text>
<text x="428.00000784" y="302.99999412" width="18.999971759999994" height="26.000006400000018" class="text">by </text>
<text x="456.99997584" y="302.99999412" width="19.000024499999995" height="26.000006400000018" class="text">or </text>
<text x="482.0000016" y="302.00000262000003" width="23.99998746" height="26.000006400000018" class="text">on </text>
<text x="514.00001418" y="302.00000262000003" width="56.99998560000006" height="26.000006400000018" class="text">behalf </text>
<text x="576.00001548" y="302.00000262000003" width="18.999989339999956" height="26.000006400000018" class="text">of </text>
<text x="600.9999885000001" y="302.00000262000003" width="30.00004145999992" height="26.000006400000018" class="text">the </text>
<text x="637.00001364" y="302.00000262000003" width="86.00000633999991" height="26.000006400000018" class="text">registrant</text>
<text x="723.0000199799999" y="302.00000262000003" width="7.00000440000008" height="26.000006400000018" class="text">. </text>
<text x="738.9999999" y="301.00001111999995" width="25.99997615999996" height="26.00000639999996" class="text">All </text>
<text x="771.9999804600001" y="301.00001111999995" width="51.00000191999993" height="26.00000639999996" class="text">items </text>
<text x="830.99998992" y="301.00001111999995" width="8.999993100000097" height="26.00000639999996" class="text">in </text>
<text x="853.00002384" y="301.00001111999995" width="32.999927819999925" height="26.00000639999996" class="text">this </text>
<text x="890.99996736" y="301.00001111999995" width="44.000050259999966" height="26.00000639999996" class="text">form </text>
<text x="947.00000256" y="301.00001111999995" width="44.000032680000004" height="26.00000639999996" class="text">must </text>
<text x="994.99999506" y="299.99999688" width="19.000024499999995" height="25.999983659999998" class="text">be </text>
<text x="1023.99996306" y="299.99999688" width="81.00004337999985" height="25.999983659999998" class="text">answered</text>
<text x="1110.00002214" y="299.99999688" width="6.999951660000079" height="25.999983659999998" class="text">, </text>
<text x="1122.00000708" y="299.99999688" width="54.99994416000004" height="25.999983659999998" class="text">unless </text>
<text x="1186.00003224" y="299.99999688" width="25.99999373999981" height="25.999983659999998" class="text">the </text>
<text x="1221.0000015" y="299.99999688" width="62.99996927999996" height="26.99999790000004" class="text">answer </text>
<text x="1291.9999783199999" y="299.00000538" width="14.999976780000225" height="26.000006400000018" class="text">is </text>
<text x="1313.0000442599999" y="299.00000538" width="6.999951660000079" height="26.000006400000018" class="text">"</text>
<text x="1328.00002104" y="299.00000538" width="43.999927199999775" height="26.000006400000018" class="text">none</text>
<text x="1370.00002986" y="299.00000538" width="6.9999516599998515" height="26.000006400000018" class="text">" </text>
<text x="1390.00002234" y="299.00000538" width="19.00002449999988" height="26.000006400000018" class="text">or </text>
<text x="1416.99996648" y="299.00000538" width="7.000057140000081" height="26.000006400000018" class="text">"</text>
<text x="1429.00003932" y="299.00000538" width="29.99993597999992" height="26.000006400000018" class="text">not </text>
<text x="1466.00003244" y="299.00000538" width="90.00001889999999" height="27.000020640000002" class="text">applicable</text>
<text x="1557.99996972" y="297.99999114" width="7.0000571399998535" height="26.000006400000018" class="text">,</text>
<text x="1563.99997098" y="297.99999114" width="7.000039560000005" height="26.000006400000018" class="text">" </text>
<text x="1580.9999540400001" y="297.99999114" width="14.000008799999932" height="26.000006400000018" class="text">in </text>
<text x="1604.00004384" y="297.99999114" width="54.99996173999989" height="26.000006400000018" class="text">which
</text>
<text x="95.00000119799999" y="331.00000626" width="37.00000366799999" height="26.000006400000018" class="text">case </text>
<text x="143.000002488" y="331.00000626" width="38.999988852" height="26.000006400000018" class="text">such </text>
<text x="191.99998758" y="331.00000626" width="19.000006919999976" height="26.999997899999983" class="text">an </text>
<text x="224.00000016" y="329.99999202" width="43.999997519999965" height="25.99998365999994" class="text">entry </text>
<text x="277.99999392" y="329.99999202" width="42.999994379999976" height="25.99998365999994" class="text">shall </text>
<text x="329.00001342" y="329.99999202" width="19.000006919999976" height="25.99998365999994" class="text">be </text>
<text x="361.99999398" y="329.99999202" width="44.00001510000004" height="25.99998365999994" class="text">made </text>
<text x="416.00000532" y="329.99999202" width="14.99999435999996" height="25.99998365999994" class="text">in </text>
<text x="442.00001664" y="329.00000052" width="25.99997615999996" height="26.000006400000018" class="text">the </text>
<text x="477.99998903999995" y="329.00000052" width="101.00001828000006" height="26.000006400000018" class="text">appropriate </text>
<text x="589.00000356" y="329.00000052" width="51.000001920000045" height="26.000006400000018" class="text">space</text>
<text x="640.00000548" y="329.00000052" width="7.000004399999966" height="26.000006400000018" class="text">. </text>
<text x="654.99998226" y="329.00000052" width="15.000011939999922" height="26.999997899999983" class="text">If </text>
<text x="678.00001932" y="328.00000902" width="93.9999611400001" height="26.00000639999996" class="text">additional </text>
<text x="777.00001374" y="328.00000902" width="49.99998120000009" height="26.00000639999996" class="text">space </text>
<text x="836.99999118" y="328.00000902" width="15.000011939999922" height="26.00000639999996" class="text">is </text>
<text x="859.00000752" y="328.00000902" width="64.00004273999991" height="26.99999790000004" class="text">needed </text>
<text x="933.9999441599999" y="326.99999478" width="25.000025760000085" height="25.999983660000055" class="text">for </text>
<text x="969.0000188999999" y="326.99999478" width="28.999968000000194" height="25.999983660000055" class="text">any </text>
<text x="1009.99997184" y="326.99999478" width="36.99997553999992" height="25.999983660000055" class="text">item</text>
<text x="1051.0000126799998" y="326.99999478" width="6.999951660000079" height="25.999983660000055" class="text">, </text>
<text x="1062.9999976200002" y="326.99999478" width="51.99995231999992" height="25.999983660000055" class="text">attach </text>
<text x="1124.99999892" y="326.99999478" width="121.99997873999996" height="27.999989400000004" class="text">supplemental </text>
<text x="1255.00000278" y="326.00000328" width="47.000024520000125" height="26.00000639999996" class="text">sheet </text>
<text x="1311.0000204" y="326.00000328" width="99.99996239999996" height="26.999997899999983" class="text">identifying </text>
<text x="1418.99999034" y="324.99998904" width="39.99998495999989" height="25.999983659999998" class="text">each </text>
<text x="1469.99999226" y="324.99998904" width="36.99999312" height="25.999983659999998" class="text">item</text>
<text x="1511.0000331" y="324.99998904" width="6.999951660000079" height="25.999983659999998" class="text">.
</text>
<text x="96.999998688" y="385.99999356" width="63.000002682" height="25.999983660000055" class="text">Privacy </text>
<text x="168.999996228" y="385.99999356" width="33.000005172000016" height="25.999983660000055" class="text">Act </text>
<text x="206.99999952" y="385.99999356" width="88.99999818" height="26.999997899999983" class="text">Statement</text>
<text x="295.9999977" y="385.00000206" width="7.000004400000023" height="26.00000639999996" class="text">. </text>
<text x="310.0000065" y="385.00000206" width="49.99998119999998" height="26.00000639999996" class="text">Every </text>
<text x="371.00000466" y="385.00000206" width="99.00001200000003" height="26.00000639999996" class="text">registration </text>
<text x="480.99998088" y="385.00000206" width="85.00003836000002" height="26.999997899999983" class="text">statement</text>
<text x="566.00001924" y="384.00001056" width="6.999951659999965" height="26.000006400000018" class="text">, </text>
<text x="579.00000732" y="384.00001056" width="45.99998621999998" height="26.000006400000018" class="text">short </text>
<text x="631.00002996" y="384.00001056" width="40.999988099999996" height="26.000006400000018" class="text">form </text>
<text x="679.99999044" y="384.00001056" width="101.99998626000001" height="26.000006400000018" class="text">registration </text>
<text x="790.00000182" y="382.99999632" width="87.99997745999997" height="26.00000639999996" class="text">statement</text>
<text x="877.9999792799999" y="382.99999632" width="7.00000440000008" height="26.00000639999996" class="text">, </text>
<text x="890.99996736" y="382.99999632" width="121.99999631999992" height="26.00000639999996" class="text">supplemental </text>
<text x="1019.0000528400001" y="382.99999632" width="84.99998561999996" height="26.999997899999983" class="text">statement</text>
<text x="1105.0000064399999" y="382.00000482" width="6.999951660000079" height="26.000006400000018" class="text">, </text>
<text x="1116.9999738000001" y="382.00000482" width="61.000050899999906" height="26.000006400000018" class="text">exhibit</text>
<text x="1179.99994308" y="382.00000482" width="7.0000571399998535" height="26.000006400000018" class="text">, </text>
<text x="1189.9999920599998" y="382.00000482" width="109.0000434000001" height="26.000006400000018" class="text">amendment</text>
<text x="1300.00000344" y="382.00000482" width="6.999951660000079" height="26.000006400000018" class="text">, </text>
<text x="1311.0000204" y="382.00000482" width="125.99993855999992" height="26.99999790000004" class="text">dissemination </text>
<text x="1444.0000161" y="380.99999058" width="57.999935999999934" height="25.999983659999998" class="text">report</text>
<text x="1501.9999521" y="380.99999058" width="7.0000571399998535" height="25.999983659999998" class="text">, </text>
<text x="1514.0000425199999" y="380.99999058" width="43.99992720000023" height="25.999983659999998" class="text">copy </text>
<text x="1563.99997098" y="380.99999058" width="19.00002450000011" height="25.999983659999998" class="text">of </text>
<text x="1590.0000526200001" y="380.99999058" width="71.99994479999987" height="26.999997899999983" class="text">political
</text>
<text x="96.999998688" y="414.0000057" width="100.99999015200001" height="32.00000087999996" class="text">propaganda </text>
<text x="209.0000058" y="414.0000057" width="17.000000639999996" height="32.00000087999996" class="text">or </text>
<text x="233.9999964" y="414.0000057" width="47.99999250000002" height="32.00000087999996" class="text">other </text>
<text x="288.99999329999997" y="414.0000057" width="89.00001576000005" height="32.00000087999996" class="text">document </text>
<text x="384.99999588" y="414.0000057" width="17.000000639999996" height="32.00000087999996" class="text">or </text>
<text x="411.0000072" y="414.0000057" width="103.00000697999997" height="32.00000087999996" class="text">information </text>
<text x="522.9999897" y="414.0000057" width="39.00003456000002" height="32.00000087999996" class="text">filed </text>
<text x="572.0000205" y="414.0000057" width="37.99999625999999" height="32.00000087999996" class="text">with </text>
<text x="618.99999228" y="414.0000057" width="28.00001759999998" height="32.00000087999996" class="text">the </text>
<text x="657.00000612" y="414.0000057" width="76.00001010000005" height="32.00000087999996" class="text">Attorney </text>
<text x="741.99999174" y="414.0000057" width="70.99999439999999" height="32.00000087999996" class="text">General </text>
<text x="819.99999054" y="414.0000057" width="53.99999376000005" height="32.00000087999996" class="text">under </text>
<text x="879.0" y="414.0000057" width="31.000009439999985" height="32.00000087999996" class="text">this </text>
<text x="915.00002514" y="414.0000057" width="31.000009439999985" height="32.00000087999996" class="text">act </text>
<text x="952.99998624" y="414.0000057" width="11.999967360000142" height="32.00000087999996" class="text">is </text>
<text x="972.99997872" y="414.0000057" width="8.99997552000002" height="32.00000087999996" class="text">a </text>
<text x="988.0000433999999" y="414.0000057" width="56.99998560000017" height="32.00000087999996" class="text">public </text>
<text x="1053.00005412" y="414.0000057" width="56.9999680200001" height="32.00000087999996" class="text">record </text>
<text x="1121.0000391" y="414.0000057" width="40.99995293999996" height="32.00000087999996" class="text">open </text>
<text x="1169.0000491800001" y="414.0000057" width="16.999983059999977" height="32.00000087999996" class="text">to </text>
<text x="1193.99995188" y="414.0000057" width="56.00001761999988" height="32.00000087999996" class="text">public </text>
<text x="1257.9999946199998" y="414.0000057" width="107.99996994000003" height="32.00000087999996" class="text">examination</text>
<text x="1370.00002986" y="414.0000057" width="8.999975520000135" height="32.00000087999996" class="text">, </text>
<text x="1384.99998906" y="414.0000057" width="89.0000685" height="32.00000087999996" class="text">inspection </text>
<text x="1481.00000922" y="414.0000057" width="33.000033299999814" height="32.00000087999996" class="text">and </text>
<text x="1523.99998602" y="414.0000057" width="70.00000883999996" height="32.00000087999996" class="text">copying </text>
<text x="1604.00004384" y="414.0000057" width="57.99995358000001" height="32.00000087999996" class="text">during
</text>
<text x="96.999998688" y="439.99998936" width="24.99999763199999" height="29.999995139999953" class="text">the </text>
<text x="130.000000344" y="439.99998936" width="57.999992255999985" height="29.999995139999953" class="text">posted </text>
<text x="197.00000328000002" y="439.99998936" width="74.00000381999999" height="29.999995139999953" class="text">business </text>
<text x="280.0000002" y="439.99998936" width="50.999984340000026" height="29.999995139999953" class="text">hours </text>
<text x="337.00000338" y="439.99998936" width="21.999998759999983" height="29.999995139999953" class="text">of </text>
<text x="361.99999398" y="439.99998936" width="30.000006299999995" height="29.999995139999953" class="text">the </text>
<text x="399.99999024" y="439.99998936" width="109.00000824000006" height="29.999995139999953" class="text">Registration </text>
<text x="515.9999853" y="439.99998936" width="42.00002639999991" height="29.999995139999953" class="text">Unit </text>
<text x="568.0000079399999" y="439.99998936" width="10.999999380000077" height="29.999995139999953" class="text">in </text>
<text x="589.99997154" y="439.99998936" width="105.00003083999991" height="29.999995139999953" class="text">Washington</text>
<text x="698.0000118" y="439.99998936" width="8.999975519999907" height="29.999995139999953" class="text">, </text>
<text x="712.00000302" y="439.99998936" width="42.99997680000001" height="29.999995139999953" class="text">D.C. </text>
<text x="758.9999923800001" y="439.99998936" width="38.00001383999984" height="29.999995139999953" class="text">One </text>
<text x="805.9999817400001" y="439.99998936" width="42.00000881999995" height="29.999995139999953" class="text">copy </text>
<text x="856.99998366" y="439.99998936" width="17.000000640000053" height="29.999995139999953" class="text">of </text>
<text x="879.99996798" y="439.99998936" width="47.999992500000076" height="29.999995139999953" class="text">every </text>
<text x="938.0000094599999" y="439.99998936" width="42.000026400000024" height="29.999995139999953" class="text">such </text>
<text x="988.0000433999999" y="439.99998936" width="89.99991342000021" height="29.999995139999953" class="text">document </text>
<text x="1087.00003782" y="439.99998936" width="10.999911480000037" height="29.999995139999953" class="text">is </text>
<text x="1108.99996626" y="439.99998936" width="122.00008421999996" height="29.999995139999953" class="text">automatically </text>
<text x="1240.99999398" y="439.99998936" width="78.00003396000011" height="29.999995139999953" class="text">provided </text>
<text x="1325.0000292" y="439.99998936" width="16.999983060000204" height="29.999995139999953" class="text">to </text>
<text x="1353.9999972" y="439.99998936" width="25.000008180000123" height="29.999995139999953" class="text">the </text>
<text x="1387.0000305" y="439.99998936" width="83.99992973999974" height="29.999995139999953" class="text">Secretary </text>
<text x="1480.00004124" y="439.99998936" width="21.99991086" height="29.999995139999953" class="text">of </text>
<text x="1508.00004126" y="439.99998936" width="39.99998495999989" height="29.999995139999953" class="text">State </text>
<text x="1557.99996972" y="439.99998936" width="82.00001135999992" height="29.999995139999953" class="text">pursuant </text>
<text x="1642.9999729200001" y="439.99998936" width="17.000000640000053" height="29.999995139999953" class="text">to
</text>
<text x="93.999999816" y="468.0000015" width="65.00000017199999" height="31.000009379999995" class="text">Section </text>
<text x="169.99999761" y="468.0000015" width="9.000001889999993" height="31.000009379999995" class="text">6</text>
<text x="178.9999995" y="468.0000015" width="8.999993099999983" height="31.000009379999995" class="text">(</text>
<text x="187.99999259999998" y="468.0000015" width="9.000010680000031" height="31.000009379999995" class="text">b</text>
<text x="197.99998884000001" y="468.0000015" width="9.000010679999974" height="31.000009379999995" class="text">) </text>
<text x="213.00000078" y="468.0000015" width="17.000018219999987" height="31.000009379999995" class="text">of </text>
<text x="236.99998824000002" y="468.0000015" width="25.00002576" height="31.000009379999995" class="text">the </text>
<text x="267.99999768" y="468.0000015" width="35.00000442000004" height="31.000009379999995" class="text">Act</text>
<text x="300.00001026" y="468.0000015" width="8.999975519999964" height="31.000009379999995" class="text">, </text>
<text x="310.99999206" y="468.0000015" width="31.000009439999985" height="31.000009379999995" class="text">and </text>
<text x="353.00001846" y="468.0000015" width="57.99998874000005" height="31.000009379999995" class="text">copies </text>
<text x="413.99999904" y="468.0000015" width="21.99999876000004" height="31.000009379999995" class="text">of </text>
<text x="438.99998963999997" y="468.0000015" width="38.99999939999998" height="31.000009379999995" class="text">such </text>
<text x="484.99999344" y="468.0000015" width="98.00002644000006" height="31.000009379999995" class="text">documents </text>
<text x="590.99999226" y="468.0000015" width="26.999996880000026" height="31.000009379999995" class="text">are </text>
<text x="625.99999668" y="468.0000015" width="80.00002266000001" height="31.000009379999995" class="text">routinely </text>
<text x="716.9999835599999" y="468.0000015" width="45.00000066000007" height="31.000009379999995" class="text">made </text>
<text x="767.9999679" y="468.0000015" width="75.00005970000007" height="31.000009379999995" class="text">available </text>
<text x="852.00000312" y="468.0000015" width="17.000000640000053" height="31.000009379999995" class="text">to </text>
<text x="876.00000816" y="468.0000015" width="51.000001920000045" height="31.000009379999995" class="text">other </text>
<text x="929.00003394" y="468.0000015" width="76.00001009999994" height="31.000009379999995" class="text">agencies</text>
<text x="1006.99996242" y="468.0000015" width="8.999993100000097" height="31.000009379999995" class="text">, </text>
<text x="1017.99997938" y="468.0000015" width="110.99997936" height="31.000009379999995" class="text">departments </text>
<text x="1136.99996628" y="468.0000015" width="32.00008290000005" height="31.000009379999995" class="text">and </text>
<text x="1175.00003286" y="468.0000015" width="85.99995360000003" height="31.000009379999995" class="text">Congress </text>
<text x="1266.99997014" y="468.0000015" width="80.00007540000001" height="31.000009379999995" class="text">pursuant </text>
<text x="1353.00002922" y="468.0000015" width="11.000016959999812" height="31.000009379999995" class="text">to </text>
<text x="1376.00001354" y="468.0000015" width="63.9999372599998" height="31.000009379999995" class="text">Section </text>
<text x="1449.99999978" y="468.0000015" width="8.999975519999907" height="31.000009379999995" class="text">6</text>
<text x="1458.9999753" y="468.0000015" width="8.999975519999907" height="31.000009379999995" class="text">(</text>
<text x="1469.00002428" y="468.0000015" width="8.999975520000135" height="31.000009379999995" class="text">c</text>
<text x="1477.9999998" y="468.0000015" width="8.999993099999983" height="31.000009379999995" class="text">) </text>
<text x="1489.0000167599999" y="468.0000015" width="23.999952300000132" height="31.000009379999995" class="text">of </text>
<text x="1512.00000108" y="468.0000015" width="31.99997742000005" height="31.000009379999995" class="text">the </text>
<text x="1546.9999703400001" y="468.0000015" width="33.99998370000003" height="31.000009379999995" class="text">Act</text>
<text x="1580.00000364" y="468.0000015" width="8.999975520000135" height="31.000009379999995" class="text">. </text>
<text x="1596.0000363" y="468.0000015" width="59.999977440000066" height="31.000009379999995" class="text">Finally</text>
<text x="1655.0000457600001" y="468.0000015" width="8.999975519999907" height="31.000009379999995" class="text">,
</text>
<text x="95.999997306" y="497.00000514000004" width="24.999995874000007" height="25.000014899999996" class="text">the </text>
<text x="131.000003484" y="497.00000514000004" width="74.99999289600001" height="25.000014899999996" class="text">Attorney </text>
<text x="215.00000706" y="495.9999909" width="71.99997995999999" height="24.999992160000033" class="text">General </text>
<text x="293.00000586" y="495.9999909" width="80.99999064000002" height="24.999992160000033" class="text">transmits </text>
<text x="384.99999588" y="495.9999909" width="18.000003780000043" height="24.999992160000033" class="text">an </text>
<text x="411.99999276" y="495.9999909" width="64.00000757999999" height="25.999983659999998" class="text">annual </text>
<text x="480.99998088" y="494.99999940000004" width="54.000046499999996" height="24.999992160000033" class="text">report </text>
<text x="542.9999821800001" y="494.99999940000004" width="14.000008799999932" height="24.999992160000033" class="text">to </text>
<text x="566.00001924" y="494.99999940000004" width="27.999964859999977" height="24.999992160000033" class="text">the </text>
<text x="600.00002052" y="494.99999940000004" width="85.99995359999991" height="26.000006400000018" class="text">Congress </text>
<text x="691.0000074" y="494.0000079" width="22.999984320000067" height="25.000014899999996" class="text">on </text>
<text x="723.0000199799999" y="494.0000079" width="24.99995544000012" height="25.000014899999996" class="text">the </text>
<text x="758.9999923800001" y="494.99999940000004" width="131.99997497999993" height="26.99999790000004" class="text">Administration </text>
<text x="898.99999248" y="494.0000079" width="22.999984320000067" height="26.000006400000018" class="text">of </text>
<text x="926.0000421000001" y="492.99999366000003" width="28.000000019999902" height="24.999992160000033" class="text">the </text>
<text x="960.9999937800001" y="492.99999366000003" width="31.999977419999937" height="24.999992160000033" class="text">Act </text>
<text x="997.9999869000001" y="492.99999366000003" width="52.00005779999992" height="24.999992160000033" class="text">which </text>
<text x="1063.99994802" y="492.99999366000003" width="33.00003330000027" height="24.999992160000033" class="text">lists </text>
<text x="1105.99997442" y="492.99999366000003" width="25.000008180000123" height="24.999992160000033" class="text">the </text>
<text x="1139.00000772" y="492.99999366000003" width="59.00000946" height="25.999983660000055" class="text">names </text>
<text x="1204.00000086" y="492.00000216" width="22.99998431999984" height="24.999992160000033" class="text">of </text>
<text x="1229.99997702" y="492.00000216" width="25.00002575999997" height="24.999992160000033" class="text">all </text>
<text x="1260.00001848" y="492.00000216" width="53.999993759999825" height="24.999992160000033" class="text">agents </text>
<text x="1325.9999796" y="492.00000216" width="85.00000320000004" height="26.00000639999996" class="text">registered </text>
<text x="1418.99999034" y="491.00001066000004" width="53.99999376000005" height="25.000014899999996" class="text">under </text>
<text x="1481.00000922" y="491.00001066000004" width="25.000008179999895" height="25.000014899999996" class="text">the </text>
<text x="1514.99999292" y="491.00001066000004" width="31.99997742000005" height="25.000014899999996" class="text">Act</text>
<text x="1548.0000262199999" y="491.00001066000004" width="6.999951660000306" height="25.000014899999996" class="text">, </text>
<text x="1560.99996156" y="491.00001066000004" width="28.000017600000092" height="25.000014899999996" class="text">the </text>
<text x="1597.99995468" y="491.00001066000004" width="60.00008292000007" height="26.000006400000075" class="text">foreign
</text>
<text x="92.999996676" y="527.00000028" width="88.99999466400001" height="26.999997899999983" class="text">principals </text>
<text x="191.99998758" y="526.00000878" width="38.00003141999997" height="26.999997899999983" class="text">they </text>
<text x="241.0000008" y="526.00000878" width="84.00000005999999" height="26.999997899999983" class="text">represent</text>
<text x="324.00001530000003" y="526.00000878" width="7.9999899599999935" height="26.999997899999983" class="text">, </text>
<text x="341.00001594" y="526.00000878" width="28.999985579999986" height="26.999997899999983" class="text">and </text>
<text x="382.00000404" y="526.00000878" width="27.99998243999994" height="28.000012140000024" class="text">the </text>
<text x="414.9999846" y="524.99999454" width="57.00002076000004" height="26.999997899999983" class="text">nature</text>
<text x="473.0000085" y="524.99999454" width="7.999972380000031" height="26.999997899999983" class="text">, </text>
<text x="487.99998528" y="524.99999454" width="67.99998498000008" height="26.999997899999983" class="text">sources </text>
<text x="563.9999953800001" y="524.99999454" width="35.00000441999987" height="26.999997899999983" class="text">and </text>
<text x="607.00002492" y="524.00000304" width="67.99998498000002" height="26.999997899999983" class="text">content </text>
<text x="679.99999044" y="524.00000304" width="19.00002449999988" height="26.999997899999983" class="text">of </text>
<text x="708.00000804" y="524.00000304" width="26.999979300000064" height="26.999997899999983" class="text">the </text>
<text x="744.99998358" y="524.00000304" width="76.00001009999994" height="28.000012140000024" class="text">political </text>
<text x="825.99997422" y="522.9999888" width="103.00005971999997" height="27.999989399999947" class="text">propaganda </text>
<text x="938.9999774400001" y="522.9999888" width="117.00006851999979" height="28.99998089999997" class="text">disseminated </text>
<text x="1065.99998946" y="521.9999973" width="19.999992479999946" height="26.999997899999983" class="text">or </text>
<text x="1096.00003092" y="521.9999973" width="94.99992912000016" height="26.999997899999983" class="text">distributed </text>
<text x="1201.0000090199999" y="521.0000058" width="19.999992480000174" height="26.99999790000004" class="text">by </text>
<text x="1229.0000090400001" y="521.0000058" width="45.00001823999992" height="26.99999790000004" class="text">them</text>
<text x="1277.00001912" y="521.0000058" width="8.000025120000146" height="26.99999790000004" class="text">. </text>
<text x="1296.0000436199998" y="521.0000058" width="36.99999312000023" height="26.99999790000004" class="text">This </text>
<text x="1342.0000122600002" y="521.0000058" width="56.00003519999973" height="26.99999790000004" class="text">report </text>
<text x="1404.9999815400001" y="519.99999156" width="14.99997677999977" height="26.999997899999983" class="text">is </text>
<text x="1427.99996586" y="519.99999156" width="76.99997807999989" height="26.999997899999983" class="text">available </text>
<text x="1514.99999292" y="519.99999156" width="14.999976779999997" height="26.999997899999983" class="text">to </text>
<text x="1542.00004254" y="519.99999156" width="26.999944140000025" height="26.999997899999983" class="text">the </text>
<text x="1579.00003566" y="519.99999156" width="52.999920299999985" height="27.999989400000004" class="text">public</text>
<text x="1636.99997166" y="519.00000006" width="8.000025119999918" height="26.99999790000004" class="text">.
</text>
<text x="96.999998688" y="579.0000130799999" width="52.00000506000001" height="32.00002361999998" class="text">Public </text>
<text x="156.00000639" y="579.0000130799999" width="91.00001325000002" height="32.00002361999998" class="text">Reporting </text>
<text x="252.00001776000002" y="579.0000130799999" width="65.99997869999996" height="32.00002361999998" class="text">Burden</text>
<text x="317.0000109" y="579.0000130799999" width="8.999975519999964" height="32.00002361999998" class="text">. </text>
<text x="329.00001342" y="579.0000130799999" width="55.999982459999956" height="32.00002361999998" class="text">Public </text>
<text x="394.99999212" y="579.0000130799999" width="78.99998436000004" height="32.00002361999998" class="text">reporting </text>
<text x="480.00001290000006" y="579.0000130799999" width="60.99999815999985" height="32.00002361999998" class="text">burden </text>
<text x="548.00001546" y="579.0000130799999" width="26.999996880000026" height="32.00002361999998" class="text">for </text>
<text x="582.00001674" y="579.0000130799999" width="30.999991860000023" height="32.00002361999998" class="text">this </text>
<text x="617.99998914" y="579.0000130799999" width="84.99998561999996" height="32.00002361999998" class="text">collection </text>
<text x="709.99997916" y="579.0000130799999" width="24.00000504000002" height="32.00002361999998" class="text">of </text>
<text x="733.00001622" y="579.0000130799999" width="104.99997810000002" height="32.00002361999998" class="text">information </text>
<text x="846.99998742" y="579.0000130799999" width="12.000020100000029" height="32.00002361999998" class="text">is </text>
<text x="867.99998304" y="579.0000130799999" width="82.00001135999992" height="32.00002361999998" class="text">estimated </text>
<text x="958.99996992" y="579.0000130799999" width="12.00007284000003" height="32.00002361999998" class="text">to </text>
<text x="980.0000358599999" y="579.0000130799999" width="65.9999611200002" height="32.00002361999998" class="text">average </text>
<text x="1050.0000447" y="579.0000130799999" width="18.999936599999955" height="32.00002361999998" class="text">.5 </text>
<text x="1074.99996498" y="579.0000130799999" width="50.000033940000094" height="32.00002361999998" class="text">hours </text>
<text x="1128.99995874" y="579.0000130799999" width="33.00003330000004" height="32.00002361999998" class="text">per </text>
<text x="1164.9999838800002" y="579.0000130799999" width="79.99996991999978" height="32.00002361999998" class="text">response</text>
<text x="1244.9999538" y="579.0000130799999" width="9.000081000000137" height="32.00002361999998" class="text">, </text>
<text x="1258.99994502" y="579.0000130799999" width="83.00006724000013" height="32.00002361999998" class="text">including </text>
<text x="1345.0000216800001" y="579.0000130799999" width="28.000000020000016" height="32.00002361999998" class="text">the </text>
<text x="1381.99999722" y="579.0000130799999" width="39.99998495999989" height="32.00002361999998" class="text">time </text>
<text x="1424.99997402" y="579.0000130799999" width="28.000017599999865" height="32.00002361999998" class="text">for </text>
<text x="1457.00005692" y="579.0000130799999" width="84.99998562000019" height="32.00002361999998" class="text">reviewing </text>
<text x="1551.00001806" y="579.0000130799999" width="107.99998751999988" height="32.00002361999998" class="text">instructions</text>
<text x="1655.0000457600001" y="579.0000130799999" width="8.999975519999907" height="32.00002361999998" class="text">,
</text>
<text x="93.999999816" y="607.00000248" width="87.99999152400001" height="26.00000639999996" class="text">searching </text>
<text x="189.99999888" y="607.00000248" width="70.00000883999999" height="27.000020640000002" class="text">existing </text>
<text x="267.99999768" y="605.99998824" width="37.00001070000002" height="26.00000639999996" class="text">data </text>
<text x="312.00001278" y="605.99998824" width="68.99998811999995" height="26.00000639999996" class="text">sources</text>
<text x="383.00000718" y="605.99998824" width="6.999986820000004" height="26.00000639999996" class="text">, </text>
<text x="394.99999212" y="605.99998824" width="84.00001764000001" height="26.999975160000076" class="text">gathering </text>
<text x="489.000006" y="605.0000194800001" width="32.99998056000004" height="26.00000640000019" class="text">and </text>
<text x="535.00002738" y="605.0000194800001" width="99.99996240000007" height="26.00000640000019" class="text">maintaining </text>
<text x="645.9999891599999" y="605.0000194800001" width="26.000028900000075" height="27.000020640000002" class="text">the </text>
<text x="679.99999044" y="604.0000052400001" width="38.00001383999995" height="26.00000639999996" class="text">data </text>
<text x="728.00000052" y="604.0000052400001" width="60.999980580000056" height="26.00000639999996" class="text">needed</text>
<text x="794.0000143799999" y="604.0000052400001" width="7.00000440000008" height="26.00000639999996" class="text">, </text>
<text x="805.9999817400001" y="604.0000052400001" width="34.00000127999999" height="26.00000639999996" class="text">and </text>
<text x="847.99999056" y="604.0000052400001" width="99.00001199999997" height="27.000020640000002" class="text">completing </text>
<text x="957.00003396" y="602.999991" width="32.9999454" height="26.00000639999996" class="text">and </text>
<text x="1000.0000283400001" y="602.999991" width="84.99998561999985" height="26.00000639999996" class="text">reviewing </text>
<text x="1096.00003092" y="602.999991" width="25.99997615999996" height="26.999975160000076" class="text">the </text>
<text x="1130.9999826" y="602.0000222399999" width="90.99998688000005" height="26.00000639999996" class="text">collection </text>
<text x="1229.99997702" y="602.0000222399999" width="19.00002450000011" height="26.00000639999996" class="text">of </text>
<text x="1257.00002664" y="602.0000222399999" width="104.00002769999992" height="27.000020640000002" class="text">information</text>
<text x="1365.9999645599999" y="601.0000080000001" width="7.000057140000308" height="26.00000640000019" class="text">. </text>
<text x="1381.0000468199999" y="601.0000080000001" width="43.99992720000023" height="26.00000640000019" class="text">Send </text>
<text x="1432.99999914" y="601.0000080000001" width="90.00001889999999" height="26.00000640000019" class="text">comments </text>
<text x="1534.9999854" y="601.0000080000001" width="82.9999617599999" height="27.000020640000002" class="text">regarding </text>
<text x="1628.99996412" y="599.99999376" width="32.0000653200002" height="26.00000639999996" class="text">this
</text>
<text x="93.999999816" y="637.00002036" width="58.99999891199998" height="27.000020640000002" class="text">burden </text>
<text x="163.999998108" y="637.00002036" width="72.00000457200002" height="28.000034880000044" class="text">estimate </text>
<text x="248.00000520000003" y="636.00000612" width="19.999992479999946" height="27.000020640000002" class="text">or </text>
<text x="271.99999266" y="636.00000612" width="31.000009440000042" height="27.000020640000002" class="text">any </text>
<text x="312.99999834" y="636.00000612" width="46.0000038" height="27.000020640000002" class="text">other </text>
<text x="366.9999921" y="636.00000612" width="56.00001762000005" height="27.000020640000002" class="text">aspect </text>
<text x="431.99998524" y="636.00000612" width="19.000006920000033" height="27.000020640000002" class="text">of </text>
<text x="457.99999656" y="634.99999188" width="29.999988719999976" height="26.999975159999963" class="text">this </text>
<text x="495.99999281999993" y="634.99999188" width="87.00002706000015" height="26.999975159999963" class="text">collection </text>
<text x="593.9999841" y="634.99999188" width="19.000024499999995" height="26.999975159999963" class="text">of </text>
<text x="620.000013" y="634.99999188" width="103.99997496000003" height="27.999989400000004" class="text">information</text>
<text x="726.9999798" y="633.99997764" width="8.00000754000007" height="26.999975159999963" class="text">, </text>
<text x="740.00002062" y="633.99997764" width="83.99998247999997" height="26.999975159999963" class="text">including </text>
<text x="830.99998992" y="633.99997764" width="106.00005155999997" height="26.999975159999963" class="text">suggestions </text>
<text x="946.00003458" y="633.00000888" width="25.99997615999996" height="27.000020640000002" class="text">for </text>
<text x="977.99999442" y="633.00000888" width="78.00005153999984" height="27.000020640000002" class="text">reducing </text>
<text x="1063.99994802" y="633.00000888" width="30.000041460000148" height="27.000020640000002" class="text">this </text>
<text x="1104.00003846" y="633.00000888" width="62.99996927999996" height="27.000020640000002" class="text">burden </text>
<text x="1175.00003286" y="631.99999464" width="14.999959199999921" height="26.99997515999985" class="text">to </text>
<text x="1200.00004104" y="631.99999464" width="49.999928459999865" height="26.99997515999985" class="text">Chief</text>
<text x="1249.9999695" y="631.99999464" width="8.000025119999918" height="26.99997515999985" class="text">, </text>
<text x="1265.0000517600001" y="631.99999464" width="106.99989647999973" height="26.99997515999985" class="text">Registration </text>
<text x="1382.9999652" y="631.99999464" width="42.000008820000176" height="27.99998939999989" class="text">Unit</text>
<text x="1426.00004748" y="630.9999804" width="7.999919639999916" height="26.999975159999963" class="text">, </text>
<text x="1439.9999507999999" y="630.9999804" width="83.00006724000013" height="26.999975159999963" class="text">Criminal </text>
<text x="1529.00000172" y="630.9999804" width="75.00004211999999" height="26.999975159999963" class="text">Division</text>
<text x="1610.0000451" y="630.9999804" width="7.99990205999984" height="26.999975159999963" class="text">, </text>
<text x="1625.0000043" y="630.9999804" width="37.999961100000064" height="27.999989400000004" class="text">U.S.
</text>
<text x="96.999998688" y="663.99999552" width="106.00000585200002" height="26.999975159999963" class="text">Department </text>
<text x="210.99999449999999" y="662.9999812799999" width="20.000010059999994" height="26.999975159999963" class="text">of </text>
<text x="236.99998824000002" y="662.9999812799999" width="59.00000945999997" height="26.999975159999963" class="text">Justice</text>
<text x="298.00000398000003" y="662.9999812799999" width="7.999989959999937" height="26.999975159999963" class="text">, </text>
<text x="312.00001278" y="662.9999812799999" width="101.99998625999996" height="26.999975159999963" class="text">Washington</text>
<text x="416.99999088" y="662.9999812799999" width="7.99998996000005" height="26.999975159999963" class="text">, </text>
<text x="435.00001224000005" y="662.00001252" width="38.99996424" height="27.000020640000002" class="text">D.C. </text>
<text x="480.99998088" y="662.00001252" width="54.999996899999985" height="27.000020640000002" class="text">20530</text>
<text x="538.9999872" y="662.00001252" width="8.00000754000007" height="27.000020640000002" class="text">; </text>
<text x="555.00001986" y="662.00001252" width="30.999991860000023" height="27.000020640000002" class="text">and </text>
<text x="593.00001612" y="662.00001252" width="14.999976779999997" height="27.000020640000002" class="text">to </text>
<text x="617.0000211600001" y="662.00001252" width="26.999996879999912" height="27.000020640000002" class="text">the </text>
<text x="655.9999854" y="662.00001252" width="56.000017619999994" height="28.000034880000044" class="text">Office </text>
<text x="721.99999926" y="660.99999828" width="15.999997500000063" height="27.000020640000002" class="text">of </text>
<text x="747.00002502" y="660.99999828" width="104.99997810000002" height="27.000020640000002" class="text">Information </text>
<text x="861.99999936" y="660.99999828" width="30.000041460000034" height="27.000020640000002" class="text">and </text>
<text x="904.00000818" y="659.99998404" width="99.00001199999997" height="26.999975159999963" class="text">Regulatory </text>
<text x="1011.9999957" y="659.99998404" width="62.99996927999996" height="26.999975159999963" class="text">Affairs</text>
<text x="1076.00003844" y="659.99998404" width="8.00000754000007" height="26.999975159999963" class="text">, </text>
<text x="1090.0000296599999" y="659.99998404" width="54.99996174000012" height="27.999989400000004" class="text">Office </text>
<text x="1155.99999078" y="659.00001528" width="19.999992479999946" height="27.000020640000002" class="text">of </text>
<text x="1179.99994308" y="659.00001528" width="123.0000521999998" height="28.00003487999993" class="text">Management </text>
<text x="1306.9999551" y="659.00001528" width="31.000009439999985" height="27.000020640000002" class="text">and </text>
<text x="1350.0000373799999" y="659.00001528" width="62.99996928000019" height="28.00003487999993" class="text">Budget</text>
<text x="1413.00000666" y="658.00000104" width="8.000025119999918" height="27.000020640000002" class="text">, </text>
<text x="1426.00004748" y="658.00000104" width="105.9999460800002" height="27.000020640000002" class="text">Washington</text>
<text x="1534.9999854" y="658.00000104" width="8.000025119999918" height="27.000020640000002" class="text">, </text>
<text x="1548.9999942" y="658.00000104" width="42.99997680000001" height="27.000020640000002" class="text">D.C. </text>
<text x="1599.00002814" y="656.9999868" width="54.999944159999814" height="26.999975159999963" class="text">20503</text>
<text x="1653.9999722999999" y="656.9999868" width="8.000025120000146" height="26.999975159999963" class="text">.
</text>
<text x="108.99999945" y="722.0000028000001" width="25.99999901400001" height="29.00000364000016" class="text">1. </text>
<text x="143.000002488" y="723.0000170400001" width="69.99999829199999" height="30.0000178800002" class="text">Name </text>
<text x="224.99998572" y="723.0000170400001" width="26.00001131999997" height="29.00000364000016" class="text">of </text>
<text x="258.00000144" y="723.9999858" width="112.00000008" height="30.99998664000009" class="text">registrant
</text>
<text x="1218.99997764" y="720.99998856" width="19.999974900000097" height="29.00000363999993" class="text">2. </text>
<text x="1251.00004296" y="720.99998856" width="132.9999957" height="32.000000880000016" class="text">Registration </text>
<text x="1396.999974" y="719.0000055600001" width="50.000033940000094" height="30.99998664000009" class="text">No.
</text>
<text x="324.00001530000003" y="777.00001284" width="96.99998813999997" height="30.000017879999973" class="text">JETRO</text>
<text x="428.9999934" y="777.00001284" width="9.000010680000003" height="30.000017879999973" class="text">-</text>
<text x="442.99996703999994" y="777.00001284" width="139.00004970000003" height="30.000017879999973" class="text">Houston
</text>
<text x="1353.9999972" y="768.00002112" width="81.99999378000007" height="27.000020640000002" class="text">2277
</text>
<text x="109.99999555800001" y="825.00001416" width="27.00000742799999" height="36.00001236000003" class="text">3. </text>
<text x="144.999994704" y="825.00001416" width="78.00001989600003" height="36.00001236000003" class="text">Nature </text>
<text x="233.00001084" y="825.00001416" width="26.999996879999998" height="36.00001236000003" class="text">of </text>
<text x="271.99999266" y="825.00001416" width="92.0000076" height="36.00001236000003" class="text">material </text>
<text x="371.00000466" y="825.00001416" width="9.999996239999973" height="36.00001236000003" class="text">(</text>
<text x="382.00000404" y="825.00001416" width="9.999996239999973" height="36.00001236000003" class="text">A </text>
<text x="411.0000072" y="825.00001416" width="81.99999378000001" height="36.00001236000003" class="text">concise </text>
<text x="502.99999722" y="825.00001416" width="94.99999944000007" height="36.00001236000003" class="text">account </text>
<text x="603.99998034" y="825.00001416" width="27.000049620000027" height="36.00001236000003" class="text">of </text>
<text x="634.0000218" y="825.00001416" width="35.99997239999993" height="36.00001236000003" class="text">the </text>
<text x="678.99996972" y="825.00001416" width="77.00003082" height="36.00001236000003" class="text">nature </text>
<text x="767.9999679" y="825.00001416" width="20.00004522000006" height="36.00001236000003" class="text">of </text>
<text x="795.9999855" y="825.00001416" width="36.00002514000005" height="36.00001236000003" class="text">the </text>
<text x="840.9999861599999" y="825.00001416" width="140.00000010000008" height="36.00001236000003" class="text">propaganda </text>
<text x="997.0000189200001" y="825.00001416" width="90.00001889999987" height="36.00001236000003" class="text">material </text>
<text x="1094.99995746" y="825.00001416" width="49.00006596000003" height="36.00001236000003" class="text">filed</text>
<text x="1149.0000567" y="825.00001416" width="9.999943499999972" height="36.00001236000003" class="text">)
</text>
<text x="116.9999982" y="886.00001868" width="141.00000324" height="42.00000683999997" class="text">JETRO's </text>
<text x="281.00000334" y="885.00000444" width="204.99999323999998" height="40.99999259999993" class="text">newsletter </text>
<text x="508.99999848000004" y="883.9999902" width="57.000020759999984" height="39.999978359999886" class="text">for </text>
<text x="586.9999797" y="883.9999902" width="168.00000011999998" height="42.00000683999997" class="text">Arkansas</text>
<text x="758.9999923800001" y="883.0000214400001" width="12.000037679999878" height="40.00002384000004" class="text">, </text>
<text x="797.0000062199999" y="883.0000214400001" width="180.99998820000008" height="42.00000683999997" class="text">Louisiana</text>
<text x="986.99996994" y="880.99999296" width="11.99998493999999" height="39.999978359999886" class="text">, </text>
<text x="1025.0000365199999" y="882.0000072" width="226.0000064400001" height="42.00000683999997" class="text">Mississippi</text>
<text x="1255.00000278" y="879.99997872" width="11.999967360000028" height="39.999978359999886" class="text">, </text>
<text x="1292.9999463000001" y="879.99997872" width="159.00007733999973" height="41.99996136000004" class="text">Oklahoma </text>
<text x="1481.00000922" y="879.00000996" width="56.9999680200001" height="40.999992600000155" class="text">and </text>
<text x="1565.00002686" y="877.99999572" width="96.99997056000007" height="40.99999259999993" class="text">Texas
</text>
<text x="107.00000196" y="952.0000034400001" width="37.00000366799999" height="27.999989400000118" class="text">4. </text>
<text x="150.00000513" y="953.0000176799999" width="45.99999500999999" height="28.000034880000044" class="text">Title </text>
<text x="208.00000266" y="953.0000176799999" width="25.99999373999998" height="28.000034880000044" class="text">of </text>
<text x="245.99999892" y="955.0000006800001" width="93.99999630000002" height="30.0000178800002" class="text">material</text>
<text x="339.00000966" y="955.0000006800001" width="7.9999899599999935" height="27.999989400000118" class="text">, </text>
<text x="354.99998958" y="955.0000006800001" width="20.000010060000022" height="27.999989400000118" class="text">if </text>
<text x="385.99999902" y="955.0000006800001" width="35.99998997999995" height="27.999989400000118" class="text">any
</text>
<text x="927.00001008" y="955.0000006800001" width="30.99999185999991" height="33.00001512000017" class="text">5. </text>
<text x="977.99999442" y="955.0000006800001" width="67.00003458000003" height="33.99998388000006" class="text">Name </text>
<text x="1054.00000452" y="953.99998644" width="23.999952300000132" height="32.99996964000002" class="text">of </text>
<text x="1085.00001396" y="953.99998644" width="81.00002580000023" height="32.99996964000002" class="text">foreign </text>
<text x="1172.00004102" y="953.99998644" width="102.99995423999985" height="34.9999981200001" class="text">principal </text>
<text x="1282.0000348199999" y="953.0000176799999" width="23.999952300000132" height="33.000015119999944" class="text">on </text>
<text x="1316.0000361" y="953.0000176799999" width="71.99996237999994" height="34.000029359999985" class="text">whose </text>
<text x="1392.0000462" y="952.0000034400001" width="74.99995422000006" height="33.00001512000017" class="text">behalf </text>
<text x="1475.99997594" y="952.0000034400001" width="35.0000571600001" height="33.99998388000017" class="text">this </text>
<text x="1525.0000419" y="950.9999892000001" width="89.99991341999998" height="33.99998388000006" class="text">material </text>
<text x="1619.00002062" y="950.9999892000001" width="46.99993661999997" height="32.99996964000013" class="text">was
</text>
<text x="978.9999624000001" y="982.0000213200001" width="127.00001201999987" height="28.000034880000044" class="text">transmitted</text>
<text x="1110.00002214" y="981.00000708" width="6.999951660000079" height="26.00000639999996" class="text">.
</text>
<text x="960.00004338" y="1023.99998268" width="96.00000257999989" height="36.99998112000003" class="text">Japan </text>
<text x="1082.9999901" y="1023.99998268" width="165.00006101999998" height="37.99999535999996" class="text">External </text>
<text x="1269.99996198" y="1021.99999968" width="100.00006787999996" height="37.99999535999996" class="text">Trade </text>
<text x="1392.0000462" y="1021.99999968" width="243.99997506" height="39.0000096" class="text">Organization
</text>
<text x="305.00000838" y="1027.9999941600001" width="140.00000010000002" height="34.9999981200001" class="text">ImpetUS </text>
<text x="470.00001666000003" y="1026.99997992" width="96.00000258" height="33.999983879999945" class="text">Japan
</text>
<text x="108.99999945" y="1116.9999880799999" width="27.000000395999976" height="23.999977919999765" class="text">6. </text>
<text x="144.999994704" y="1116.9999880799999" width="76.99999917599999" height="26.000006399999847" class="text">Means </text>
<text x="233.00001084" y="1116.00001932" width="21.99999876000001" height="24.000023400000146" class="text">of </text>
<text x="265.00000584000003" y="1116.00001932" width="138.99999695999998" height="26.000006400000075" class="text">transmission
</text>
<text x="155.00000325" y="1151.00001744" width="107.00001075000003" height="32.000000880000016" class="text">First </text>
<text x="281.00000334" y="1150.0000031999998" width="103.99999254" height="32.00000087999979" class="text">Class </text>
<text x="404.99998836" y="1148.9999889599999" width="80.00000508000005" height="32.000000880000016" class="text">Mail
</text>
<text x="644.00001804" y="1113.00002208" width="12.99998807999998" height="23.00000915999999" class="text">7. </text>
<text x="668.99997348" y="1113.00002208" width="63.000022020000074" height="23.00000915999999" class="text">Dates </text>
<text x="743.99998044" y="1112.00000784" width="26.00002889999996" height="23.00000915999999" class="text">of </text>
<text x="778.00001688" y="1113.00002208" width="142.0000415400001" height="25.000037640000073" class="text">transmission
</text>
<text x="669.9999942" y="1153.99994646" width="104.99997810000002" height="38.99994138000011" class="text">April </text>
<text x="799.99999806" y="1151.00001744" width="39.999984960000006" height="37.99999535999996" class="text">23</text>
<text x="843.99999558" y="1150.0000031999998" width="10.999999379999963" height="36.0000123599998" class="text">, </text>
<text x="884.0000157000001" y="1148.9999889599999" width="79.00001952000002" height="37.99999535999996" class="text">1993
</text>
<text x="1150.99997508" y="1116.9999880799999" width="19.999992479999946" height="27.999989399999777" class="text">8. </text>
<text x="1187.9999682" y="1116.9999880799999" width="50.99998434000008" height="29.999972399999933" class="text">Total </text>
<text x="1248.00005112" y="1116.00001932" width="72.99991277999993" height="30.000017880000087" class="text">copies </text>
<text x="1334.00000472" y="1115.00000508" width="124.99997057999985" height="30.99998663999986" class="text">transmitted
</text>
<text x="1292.9999463000001" y="1141.99998024" width="60.00008291999984" height="27.999989400000004" class="text">960
</text>
<text x="107.00000196" y="1216.99993398" width="31.999991484000006" height="24.99999215999992" class="text">9. </text>
<text x="148.000000608" y="1216.99993398" width="43.00000141200002" height="24.99999215999992" class="text">List </text>
<text x="200.99999825999998" y="1216.99993398" width="107.99998751999999" height="25.99986995999984" class="text">addresses </text>
<text x="322.00000902" y="1216.00005618" width="52.999990620000005" height="24.99999215999992" class="text">from </text>
<text x="385.99999902" y="1216.00005618" width="67.99998497999997" height="24.99999215999992" class="text">which </text>
<text x="472.00000536000005" y="1215.0000192" width="91.99999002000004" height="24.999969419999843" class="text">material </text>
<text x="572.0000205" y="1215.0000192" width="41.99995608000006" height="24.999969419999843" class="text">was </text>
<text x="624.99999354" y="1215.0000192" width="124.00000260000002" height="27.000020640000002" class="text">transmitted</text>
<text x="756.00000054" y="1214.00000496" width="7.000004399999966" height="24.999992160000147" class="text">:
</text>
<text x="932.0000257800001" y="1214.00000496" width="42.9999767999999" height="24.999992160000147" class="text">10. </text>
<text x="980.99998626" y="1214.00000496" width="42.99997680000001" height="26.000006400000075" class="text">List </text>
<text x="1040.9999637" y="1212.99999072" width="59.00000946" height="24.99999215999992" class="text">states </text>
<text x="1116.9999738000001" y="1212.99999072" width="36.00002513999971" height="24.99999215999992" class="text">and </text>
<text x="1170.99996756" y="1212.99999072" width="112.00003523999999" height="27.000043379999852" class="text">territories </text>
<text x="1300.00000344" y="1211.9999537400001" width="22.999984320000067" height="24.999969420000298" class="text">of </text>
<text x="1336.0000285800002" y="1210.9999395" width="31.999977419999823" height="24.99999215999992" class="text">the </text>
<text x="1384.00003866" y="1210.9999395" width="73.99996865999992" height="24.99999215999992" class="text">United </text>
<text x="1477.0000494" y="1210.0000617" width="65.99996111999985" height="25.000128600000153" class="text">States </text>
<text x="1556.00005134" y="1210.0000617" width="17.999951039999814" height="25.000128600000153" class="text">to </text>
<text x="1591.999971" y="1210.0000617" width="68.00000256000021" height="26.000006400000075" class="text">which
</text>
<text x="986.0000195399999" y="1246.00000584" width="87.9999774600002" height="26.000006400000075" class="text">material </text>
<text x="1082.0000221199998" y="1246.00000584" width="45.00000066000007" height="26.000006400000075" class="text">was </text>
<text x="1138.00003974" y="1246.00000584" width="124.00002018000009" height="26.000006400000075" class="text">transmitted</text>
<text x="1268.999994" y="1246.00000584" width="6.999951660000079" height="26.000006400000075" class="text">:
</text>
<text x="630.00000924" y="1280.00005794" width="100.00001513999996" height="33.00003786000002" class="text">Suite </text>
<text x="757.99997166" y="1279.0000209599998" width="80.00002266000001" height="33.000015119999716" class="text">2360
</text>
<text x="161.00000451" y="1286.00005242" width="77.99999000999998" height="34.00005209999995" class="text">1221 </text>
<text x="258.00000144" y="1286.00005242" width="165.00000828000003" height="36.00010331999988" class="text">McKinney </text>
<text x="446.00002920000003" y="1285.0000154400002" width="119.99999004" height="36.00008058000003" class="text">Street
</text>
<text x="157.999996848" y="1319.9999453399998" width="136.999997712" height="33.999892919999866" class="text">Houston</text>
<text x="308.00000022" y="1318.0000533" width="9.000010680000003" height="30.99998664000009" class="text">, </text>
<text x="344.99999334" y="1318.0000533" width="97.99997369999994" height="33.00003785999979" class="text">Texas </text>
<text x="493.00000098000004" y="1312.00005882" width="96.00000257999994" height="27.000043379999852" class="text">77010
</text>
<text x="941.0000013" y="1314.9999878400001" width="161.00001329999998" height="36.99998112000003" class="text">Arkansas</text>
<text x="1113.00001398" y="1313.99995086" width="9.9999435000002" height="34.9999299000001" class="text">, </text>
<text x="1147.00001526" y="1314.9999878400001" width="181.9999561799998" height="36.99998112000003" class="text">Louisiana</text>
<text x="1339.9999884" y="1312.99993662" width="10.000048979999974" height="34.99992989999987" class="text">, </text>
<text x="1373.99998968" y="1313.99995086" width="230.00005416" height="36.999958379999725" class="text">Mississippi</text>
<text x="1610.0000451" y="1312.00005882" width="9.999943499999972" height="35.000066339999876" class="text">,
</text>
<text x="938.0000094599999" y="1344.9999375" width="159.99993984000014" height="28.99993541999993" class="text">Oklahoma </text>
<text x="1127.0000227799999" y="1344.9999375" width="57.99995358000024" height="28.99993541999993" class="text">and </text>
<text x="1210.99995252" y="1344.9999375" width="98.00002643999983" height="28.99993541999993" class="text">Texas
</text>
<text x="98.999997936" y="1521.00001056" width="37.00000190999998" height="32.000000880000016" class="text">11. </text>
<text x="150.00000513" y="1521.00001056" width="60.99998936999998" height="33.000015119999944" class="text">Types </text>
<text x="223.00001460000001" y="1519.99999632" width="29.000003160000006" height="32.000000880000016" class="text">of </text>
<text x="257.00001588000003" y="1519.99999632" width="110.99999693999996" height="34.00005209999995" class="text">recipients </text>
<text x="382.00000404" y="1518.99998208" width="8.999993099999983" height="32.00000088000024" class="text">(</text>
<text x="392.00000028" y="1518.99998208" width="47.99997492000006" height="32.00000088000024" class="text">Give </text>
<text x="449.99997144" y="1518.99998208" width="89.00001575999994" height="33.99991566000017" class="text">number </text>
<text x="549.99998658" y="1517.9999450999999" width="24.00000504000002" height="32.00000087999979" class="text">of </text>
<text x="580.99999602" y="1517.9999450999999" width="157.00000074000002" height="33.999892919999866" class="text">organizations
</text>
<text x="145.999996086" y="1548.00005394" width="18.00000202199999" height="28.000057620000007" class="text">in </text>
<text x="177.99999635999998" y="1550.9999829600001" width="50.00001636000002" height="29.99997240000016" class="text">each </text>
<text x="241.99998636" y="1553.0000114400002" width="66.00001386" height="29.99994966000031" class="text">group</text>
<text x="310.99999206" y="1553.0000114400002" width="9.000010680000003" height="28.000057620000007" class="text">)
</text>
<text x="930.99995232" y="1512.9999876000002" width="45.00001823999992" height="32.00000088000024" class="text">12. </text>
<text x="983.0000277" y="1512.9999876000002" width="42.000008819999834" height="32.00000088000024" class="text">List </text>
<text x="1043.99995554" y="1512.9999876000002" width="70.9999944000001" height="32.00000088000024" class="text">names </text>
<text x="1133.00000646" y="1512.9999876000002" width="40.999952940000185" height="32.00000088000024" class="text">and </text>
<text x="1193.99995188" y="1512.9999876000002" width="109.00004339999987" height="32.00000088000024" class="text">addresses </text>
<text x="1322.00001978" y="1512.9999876000002" width="23.999952299999904" height="32.00000088000024" class="text">of </text>
<text x="1364.0000461799998" y="1512.9999876000002" width="88.99994544000015" height="32.00000088000024" class="text">persons </text>
<text x="1469.00002428" y="1512.9999876000002" width="23.999952300000132" height="32.00000088000024" class="text">or </text>
<text x="1511.0000331" y="1512.9999876000002" width="155.99998001999984" height="32.00000088000024" class="text">organizations
</text>
<text x="978.9999624000001" y="1548.00005394" width="104.00002770000003" height="32.000000880000016" class="text">receiving </text>
<text x="1097.9999493" y="1548.00005394" width="37.0000986" height="32.000000880000016" class="text">100 </text>
<text x="1144.9999914" y="1548.00005394" width="73.99998624" height="32.000000880000016" class="text">copies </text>
<text x="1232.0000184599999" y="1548.00005394" width="22.999984320000067" height="32.000000880000016" class="text">or </text>
<text x="1266.99997014" y="1548.00005394" width="55.00004964000004" height="32.000000880000016" class="text">more</text>
<text x="1325.0000292" y="1548.00005394" width="8.999975520000135" height="32.000000880000016" class="text">:
</text>
<text x="409.00000092" y="1644.0000565799999" width="58.99999187999998" height="30.00010883999994" class="text">106
</text>
<text x="430.00001412" y="1678.99998648" width="37.99997867999997" height="28.999935420000156" class="text">12
</text>
<text x="95.00000119799999" y="1612.0000556999998" width="102.99998764200002" height="23.000077379999766" class="text">Libraries
</text>
<text x="95.999997306" y="1645.9999486200002" width="71.00000670600001" height="26.000006400000302" class="text">Public </text>
<text x="179.99998506" y="1645.9999486200002" width="87.00002706000001" height="26.000006400000302" class="text">officials
</text>
<text x="98.999997936" y="1684.99998096" width="137.00000474400002" height="32.000000880000016" class="text">Newspapers
</text>
<text x="96.999998688" y="1713.00001584" width="58.00000456199999" height="24.99996942000007" class="text">Press </text>
<text x="166.00000263" y="1713.00001584" width="93.00000194999998" height="27.000020640000002" class="text">services </text>
<text x="271.0000071" y="1712.0000016000001" width="22.999984319999953" height="26.000006400000075" class="text">of
</text>
<text x="121.99999632" y="1745.0000167199998" width="136.00000512000003" height="24.999969419999843" class="text">associations</text>
<text x="262.99999956" y="1745.0000167199998" width="7.000004400000023" height="24.999969419999843" class="text">.
</text>
<text x="98.000001828" y="1776.00000336" width="135.999994572" height="22.999940939999988" class="text">Educational
</text>
<text x="122.999997702" y="1810.0000554599999" width="123.000001218" height="26.000006399999847" class="text">institutions
</text>
<text x="98.000001828" y="1842.99993414" width="58.99999363800001" height="24.999992160000147" class="text">Civic
</text>
<text x="192.99999072" y="1848.0000508199998" width="78.00001638" height="24.000114359999998" class="text">groups
</text>
<text x="95.999997306" y="1881.9999437400002" width="69.000002184" height="32.999878680000165" class="text">Other </text>
<text x="174.000006654" y="1881.00006594" width="9.999990965999984" height="30.00008610000009" class="text">(</text>
<text x="186.99998946000002" y="1883.9999949599999" width="75.00002454" height="33.000015119999944" class="text">specify</text>
<text x="262.99999956" y="1882.99998072" width="9.999996239999973" height="29.999972399999933" class="text">)-
</text>
<text x="1308.0000285600001" y="1771.00002312" width="56.00001761999965" height="203.9999714999999" class="text">REGISTRATION </text>
<text x="1325.9999796" y="1845.9999996" width="45.000018240000145" height="68.99998200000005" class="text">UNIT
</text>
<text x="1344.0000536999999" y="1760.9999489400002" width="50.99998434000008" height="119.99995782000019" class="text">SECTION
</text>
<text x="1370.00002986" y="1693.00000392" width="47.99999249999996" height="139.99999247999972" class="text">INTERNAL </text>
<text x="1384.00003866" y="1841.0000193600001" width="47.99999249999996" height="136.0000264800001" class="text">SECURITY
</text>
<text x="1424.99997402" y="1579.00001784" width="53.00002577999999" height="39.00000960000011" class="text">93 </text>
<text x="1427.99996586" y="1643.0000196" width="53.99999376000005" height="59.000021520000246" class="text">APR </text>
<text x="1432.00003116" y="1697.99998416" width="51.999969900000224" height="48.99997007999991" class="text">27 </text>
<text x="1438.00001484" y="1734.00006474" width="49.99992846000009" height="18.00011987999983" class="text">P </text>
<text x="1441.99997466" y="1787.99999232" width="50.000033940000094" height="17.99998344000005" class="text">3</text>
<text x="1443.00004812" y="1803.00004674" width="49.99992846000009" height="17.99998344000005" class="text">: </text>
<text x="1444.9999665" y="1848.0000508199998" width="52.00007538" height="41.00006081999982" class="text">26
</text>
<text x="1501.9999521" y="1690.9999527" width="53.000025780000215" height="142.99989875999995" class="text">CRIMINAL </text>
<text x="1514.99999292" y="1836.00006186" width="51.999969899999996" height="133.00012020000008" class="text">DIVISION</text>
<text x="1534.9999854" y="1638.0000621" width="47.00004209999997" height="84.00001367999994" class="text">DEPT
</text>
<text x="1543.00001052" y="1645.9999486200002" width="39.99998496000012" height="14.999895240000114" class="text">. </text>
<text x="1543.9999785" y="1687.00000944" width="42.99997680000001" height="41.00006081999982" class="text">OF </text>
<text x="1549.99996218" y="1824.9999507" width="52.00005779999992" height="122.00000904000012" class="text">JUSTICE
</text>
<text x="1577.0000117999998" y="1764.0000144" width="50.000016360000245" height="152.99999567999998" class="text">RECEIVED
</text>
<text x="1184.00000838" y="1772.9999379" width="65.99996111999985" height="35.99994414000025" class="text">Not </text>
<text x="1272.00000342" y="1774.99998912" width="82.99996176000013" height="36.99998112000003" class="text">appl
</text>
<text x="411.0000072" y="1802.00000976" width="55.00001447999995" height="26.000006400000075" class="text">108
</text>
<text x="411.0000072" y="1832.9999964" width="52.999973039999986" height="27.00004338000008" class="text">230
</text>
<text x="407.99999778" y="1874.99993502" width="58.99997429999996" height="27.99992118" class="text">504
</text>
<text x="531.9999828" y="1874.99993502" width="202.00000139999997" height="30.99998664000009" class="text">Businesses
</text>
<text x="1542.00004254" y="2049.99999384" width="42.999976799999786" height="15.999932220000119" class="text">FORM </text>
<text x="1597.00000428" y="2049.99999384" width="33.99998370000003" height="15.999932220000119" class="text">CRM</text>
<text x="1636.00002126" y="2049.99999384" width="3.999959819999958" height="15.999932220000119" class="text">-</text>
<text x="1642.00000494" y="2049.99999384" width="19.00002450000011" height="15.999932220000119" class="text">159
</text>
<text x="1605.9999798000001" y="2072.99993478" width="30.00004145999992" height="15.999932220000119" class="text">SEP</text>
<text x="1636.00002126" y="2072.99993478" width="3.999959819999958" height="15.999932220000119" class="text">. </text>
<text x="1647.00002064" y="2072.00005698" width="14.999976779999997" height="16.00006865999967" class="text">89
</text>
</g>
<g id="page-1" transform="translate(0, 2294)">
<rect width="1758" height="2274" fill="none" stroke="black" />
<text x="115.000005984" y="147.0000012" width="41.999989482000004" height="33.000006024000015" class="text">13. </text>
<text x="167.000004012" y="147.0000012" width="18.999982308" height="33.000006024000015" class="text">If </text>
<text x="192.99999072" y="147.0000012" width="38.99999940000001" height="33.000006024000015" class="text">the </text>
<text x="243.99999264" y="145.99999833" width="90.00001890000001" height="32.999996928000016" class="text">material </text>
<text x="342.99998705999997" y="145.99999833" width="123.00003462000001" height="32.999996928000016" class="text">transmitted </text>
<text x="480.99998088" y="145.99999833" width="42.000008820000005" height="32.999996928000016" class="text">was </text>
<text x="536.9999985000001" y="144.999993186" width="8.999975519999907" height="32.999996928000016" class="text">a </text>
<text x="561.00000354" y="144.999993186" width="42.99997680000001" height="32.999996928000016" class="text">film </text>
<text x="617.99998914" y="144.999993186" width="23.999987459999943" height="32.999996928000016" class="text">or </text>
<text x="651.9999728399999" y="144.999993186" width="55.000014480000004" height="32.999996928000016" class="text">radio </text>
<text x="719.00000742" y="144.999993186" width="31.000009439999985" height="32.999996928000016" class="text">or </text>
<text x="754.00002942" y="144.999993186" width="108.99999065999998" height="33.999992976000016" class="text">television </text>
<text x="876.00000816" y="144.00000623399998" width="67.00003457999992" height="33.00000602399999" class="text">script</text>
<text x="943.0000427399999" y="144.00000623399998" width="8.999975520000135" height="33.00000602399999" class="text">, </text>
<text x="961.99996176" y="144.00000623399998" width="75.00004211999988" height="33.00000602399999" class="text">furnish </text>
<text x="1051.0000126799998" y="144.00000623399998" width="39.000016980000055" height="34.000011167999986" class="text">the </text>
<text x="1097.9999493" y="143.00000108999998" width="105.00008358000014" height="33.00000602399999" class="text">following </text>
<text x="1215.99996822" y="143.00000108999998" width="132.0000453" height="33.99999979799999" class="text">information</text>
<text x="1351.99995576" y="141.99999822" width="9.000098579999985" height="32.999996928000016" class="text">:
</text>
<text x="947.00000256" y="207.000005124" width="53.0000257800001" height="30.999998010000013" class="text">Date </text>
<text x="1011.9999957" y="205.99999998" width="28.000000020000016" height="29.000005914000013" class="text">or </text>
<text x="1046.9999473799999" y="205.99999998" width="59.00002704000008" height="30.999998010000013" class="text">dates </text>
<text x="1118.00004726" y="204.999994836" width="110.99996178000015" height="30.99999573599999" class="text">broadcast </text>
<text x="1240.99999398" y="204.00000788399998" width="70.99997682000003" height="31.00001392799996" class="text">shown
</text>
<text x="114.000004602" y="211.99999218600001" width="66.99998359800001" height="32.99999010600001" class="text">Name </text>
<text x="192.99999072" y="211.99999218600001" width="25.00000818000001" height="32.99999010600001" class="text">of </text>
<text x="226.999992" y="211.99999218600001" width="73.00001826000002" height="32.99999010600001" class="text">station</text>
<text x="303.0000021" y="211.99999218600001" width="9.000010680000003" height="32.99999010600001" class="text">, </text>
<text x="322.00000902" y="211.99999218600001" width="135.99998754" height="32.99999010600001" class="text">organization</text>
<text x="465.00000095999997" y="211.99999218600001" width="8.999975520000078" height="32.99999010600001" class="text">, </text>
<text x="483.00000473999995" y="211.99999218600001" width="24.999973020000084" height="32.99999010600001" class="text">or </text>
<text x="517.00000602" y="211.99999218600001" width="79.99996992000001" height="32.99999010600001" class="text">theater </text>
<text x="605.00000106" y="211.99999218600001" width="62.00000130000001" height="32.99999010600001" class="text">using
</text>
<text x="119.00000272199999" y="244.99998684" width="7.999991718000018" height="28.999994544000003" class="text">(</text>
<text x="126.99999444000001" y="244.99998684" width="103.00002455999997" height="30.999986639999975" class="text">including </text>
<text x="245.00001336" y="243.99999534" width="37.99999626000002" height="28.999989995999982" class="text">city </text>
<text x="293.99999141999996" y="243.00000383999998" width="41.000005680000015" height="29.00000363999996" class="text">and </text>
<text x="346.99999962" y="243.00000383999998" width="52.000005060000035" height="29.00000363999996" class="text">state</text>
<text x="402.99999966" y="242.00001233999998" width="8.000007540000013" height="29.000017283999966" class="text">)
</text>
<text x="1412.00003868" y="200.99999472599998" width="106.99991406000004" height="25.999992755999983" class="text">Estimated </text>
<text x="1535.99995338" y="200.99999472599998" width="119.00009238000007" height="25.999992755999983" class="text">attendance
</text>
<text x="1461.00001674" y="236.99998662" width="8.000007539999842" height="28.999994543999975" class="text">(</text>
<text x="1472.0000161199998" y="236.99998662" width="32.99992782000004" height="28.999994543999975" class="text">for </text>
<text x="1515.9999609" y="236.99998662" width="42.000008820000176" height="28.999994543999975" class="text">film</text>
<text x="1562.00003502" y="235.99999512000002" width="7.999919639999916" height="28.99998999600001" class="text">(</text>
<text x="1574.0000023799998" y="235.99999512000002" width="8.000025120000146" height="28.99998999600001" class="text">s</text>
<text x="1582.99999548" y="235.99999512000002" width="8.000007539999842" height="28.99998999600001" class="text">)</text>
<text x="1593.99999486" y="235.99999512000002" width="8.000025119999918" height="28.99998999600001" class="text">)
</text>
<text x="116.9999982" y="481.00000470000003" width="49.00000443000002" height="34.99999812000004" class="text">14. </text>
<text x="168.000005394" y="481.00000470000003" width="53.99998848599998" height="34.99999812000004" class="text">Have </text>
<text x="233.00001084" y="481.00000470000003" width="44.99998308000002" height="36.00001236000003" class="text">two </text>
<text x="284.99999832" y="479.99999046" width="74.99998937999999" height="34.99999811999999" class="text">copies </text>
<text x="368.99999838" y="479.99999046" width="25.99999373999998" height="34.99999811999999" class="text">of </text>
<text x="401.00001096" y="479.99999046" width="39.99998495999995" height="34.99999811999999" class="text">this </text>
<text x="460.00002041999994" y="479.99999046" width="92.0000076" height="35.99998962000001" class="text">material </text>
<text x="558.0000117" y="478.99999896" width="49.00001322000003" height="34.99999812000004" class="text">been </text>
<text x="621.99998412" y="478.99999896" width="48.000010079999925" height="34.99999812000004" class="text">filed </text>
<text x="681.00001116" y="478.99999896" width="52.000005060000035" height="34.99999812000004" class="text">with </text>
<text x="743.99998044" y="478.99999896" width="36.00002514000005" height="34.99999812000004" class="text">the </text>
<text x="788.9999811" y="478.99999896" width="141.00002081999992" height="37.00000386000005" class="text">Department </text>
<text x="940.0000509" y="478.00000746" width="19.999992479999946" height="34.99999811999999" class="text">of </text>
<text x="972.00001074" y="478.00000746" width="71.99994479999998" height="34.99999811999999" class="text">Justice</text>
<text x="1048.99998882" y="478.00000746" width="10.000048979999974" height="34.99999811999999" class="text">?
</text>
<text x="1099.0000227599999" y="471.99999024000005" width="36.00002514000016" height="32.99999238000004" class="text">Yes </text>
<text x="1147.00001526" y="468.999993" width="11.000016960000039" height="29.99999514000001" class="text">
</text>
<text x="1204.00000086" y="467.00001" width="36.99999312" height="27.000020640000002" class="text">No </text>
<text x="1254.0000348" y="465.99999576000005" width="8.000025119999918" height="24.999992160000033" class="text">
</text>
<text x="120.00000410400001" y="543.99999222" width="37.99999274399998" height="33.999983879999945" class="text">15. </text>
<text x="174.000006654" y="543.99999222" width="49.00000794600001" height="33.999983879999945" class="text">Has </text>
<text x="233.00001084" y="543.99999222" width="38.99998181999999" height="33.999983879999945" class="text">this </text>
<text x="288.00000774" y="543.99999222" width="90.00000132000002" height="33.999983879999945" class="text">material </text>
<text x="388.0000053" y="543.99999222" width="47.99999250000002" height="33.999983879999945" class="text">been </text>
<text x="449.99997144" y="543.99999222" width="82.00001135999997" height="33.999983879999945" class="text">labeled </text>
<text x="545.99997402" y="543.99999222" width="19.000042079999957" height="33.999983879999945" class="text">as </text>
<text x="579.9999753" y="543.99999222" width="92.00004276000004" height="33.999983879999945" class="text">required </text>
<text x="682.9999822799999" y="543.99999222" width="26.000028900000075" height="33.999983879999945" class="text">by </text>
<text x="719.00000742" y="543.99999222" width="38.999964240000054" height="33.999983879999945" class="text">the </text>
<text x="765.9999967800001" y="543.99999222" width="32.999980559999926" height="33.999983879999945" class="text">act</text>
<text x="799.99999806" y="543.99999222" width="9.999996239999973" height="33.999983879999945" class="text">?
</text>
<text x="853.00002384" y="538.99998924" width="36.99999312" height="30.999986639999975" class="text">Yes </text>
<text x="904.00000818" y="535.999992" width="8.999993100000097" height="27.999989400000004" class="text">
</text>
<text x="958.99996992" y="535.0000005" width="34.00000127999999" height="26.99999790000004" class="text">No </text>
<text x="1009.00000386" y="535.0000005" width="8.00000754000007" height="26.99999790000004" class="text">
</text>
<text x="1051.0000126799998" y="605.99998824" width="105.9999460800002" height="29.999972400000047" class="text">Signature
</text>
<text x="114.000004602" y="608.0000167200001" width="51.99999802800001" height="29.00000364000016" class="text">Date </text>
<text x="182.99999448" y="609.99999972" width="21.999998759999983" height="29.00000363999993" class="text">of </text>
<text x="213.00000078" y="611.99998272" width="71.99999753999998" height="30.999986639999975" class="text">report
</text>
<text x="115.000005984" y="656.00001804" width="161.99998479599998" height="29.00000363999993" class="text">04-23-93
</text>
<text x="404.0000028" y="609.99999972" width="70.99999439999993" height="30.99998664000009" class="text">Name </text>
<text x="482.0000016" y="608.99998548" width="40.999988099999996" height="30.99998663999986" class="text">and </text>
<text x="535.99997778" y="608.0000167200001" width="40.00003770000001" height="31.000032120000014" class="text">title
</text>
<text x="399.00000468" y="653.0000208" width="143.99997750000006" height="32.000000880000016" class="text">Yoshiki </text>
<text x="566.00001924" y="653.0000208" width="76.99997808" height="32.000000880000016" class="text">Sato
</text>
<text x="401.00001096" y="685.99999044" width="183.99999762" height="30.99998664000009" class="text">Executive </text>
<text x="602.0000092199999" y="685.00002168" width="168.00000011999998" height="31.000032120000014" class="text">Director
</text>
<text x="1116.9999738000001" y="722.0000028000001" width="298.00005671999975" height="145.0000182" class="text">yashiki </text>
<text x="1421.00003178" y="691.00001616" width="162.99991410000007" height="131.0000235" class="text">Late
</text>
<text x="1409.0000468399999" y="2111.99994438" width="5.999983680000014" height="22.999940940000215" class="text">*</text>
<text x="1416.99996648" y="2111.99994438" width="24.000057780000134" height="22.999940940000215" class="text">U.S</text>
<text x="1444.0000161" y="2111.99994438" width="5.999983680000014" height="22.999940940000215" class="text">. </text>
<text x="1452.0000236399999" y="2111.99994438" width="36.99999312" height="22.999940940000215" class="text">GPO</text>
<text x="1492.0000086" y="2111.99994438" width="5.999983680000014" height="22.999940940000215" class="text">: </text>
<text x="1503.99999354" y="2111.99994438" width="103.00005971999985" height="22.999940940000215" class="text">1002-312-332</text>
<text x="1611.9999634800001" y="2111.99994438" width="5.9999836799997865" height="22.999940940000215" class="text">/</text>
<text x="1616.00002878" y="2111.99994438" width="50.999984339999855" height="22.999940940000215" class="text">61637
</text>
</g>
</svg>
