<svg xmlns="http://www.w3.org/2000/svg">
<style>.text { font-size: 14px; font-family: Arial, sans-serif; }</style>
<g id="page-0" transform="translate(0, 0)">
<rect width="1757" height="2276" fill="none" stroke="black" />
<text x="95.999997359" y="104.999998492" width="59.000003776000014" height="32.99999939600001" class="text">U.S. </text>
<text x="159.999996184" y="107.00000162799999" width="148.000012986" height="35.000002531999996" class="text">Department </text>
<text x="310.99999882" y="107.00000162799999" width="28.999987800000042" height="32.000004656" class="text">of </text>
<text x="347.99999415999997" y="108.00000319600001" width="81.00001924000003" height="33.999998688000005" class="text">Justice
</text>
<text x="93.999998988" y="147.000005172" width="150.00002014199998" height="35.000002531999996" class="text">Washington</text>
<text x="249.99998086000002" y="147.000005172" width="10.000018209999979" height="35.000002531999996" class="text">, </text>
<text x="269.00000316" y="147.000005172" width="62.99999349000001" height="35.000002531999996" class="text">D.C. </text>
<text x="337.00001454" y="147.000005172" width="70.99998346000001" height="35.000002531999996" class="text">20530
</text>
<text x="892.99995876" y="116.000002084" width="184.00005042999987" height="35.000002531999996" class="text">Dissemination </text>
<text x="1089.9999819099999" y="117.99999839200001" width="86.99996340000007" height="34.000000963999994" class="text">Report
</text>
<text x="1540.99997212" y="117.99999839200001" width="43.00000978000003" height="18.000003188000008" class="text">OMB </text>
<text x="1591.0000456" y="118.99999996" width="27.999991249999994" height="18.00000091199999" class="text">No. </text>
<text x="1624.00005474" y="120.000001528" width="74.99989937999999" height="19.000002479999992" class="text">1105-0006
</text>
<text x="1464.00000936" y="142.999996624" width="66.00001828000018" height="19.999997219999997" class="text">Approval </text>
<text x="1535.00004553" y="142.999996624" width="49.9999680599999" height="19.999997219999997" class="text">Expires </text>
<text x="1591.9999543" y="142.999996624" width="38.00002703000018" height="19.999997219999997" class="text">Nov. </text>
<text x="1634.9999816499999" y="142.999996624" width="15.000018530000034" height="19.999997219999997" class="text">30</text>
<text x="1652.00004599" y="142.999996624" width="5.999926590000086" height="19.999997219999997" class="text">, </text>
<text x="1662.99999047" y="142.999996624" width="32.99999157000002" height="19.999997219999997" class="text">1986
</text>
<text x="97.000000937" y="228.00000699999998" width="179.99999219300003" height="28.999999951999968" class="text">INSTRUCTIONS</text>
<text x="279.0000038" y="228.00000699999998" width="8.000007540000013" height="27.00001274799999" class="text">: </text>
<text x="287.00001134" y="229.99999648" width="71.99999757999996" height="29.000002228" class="text">Report </text>
<text x="368.99999199" y="231.0000026" width="47.000013550000006" height="29.00000677999998" class="text">must </text>
<text x="417.00000209" y="229.99999648" width="25.99999815000001" height="26.999999091999996" class="text">be </text>
<text x="444.99999334" y="232.00000872" width="101.00002052000008" height="29.000011332000014" class="text">submitted </text>
<text x="553.99998626" y="232.00000872" width="15.999997509999957" height="27.000005920000007" class="text">in </text>
<text x="576.99997719" y="233.9999982" width="92.99999541" height="28.99999539999999" class="text">duplicate </text>
<text x="676.00000461" y="233.00001484" width="14.999965820000057" height="27.000010472000014" class="text">to </text>
<text x="700.00002723" y="233.9999982" width="30.999963330000014" height="26.999992264000014" class="text">the </text>
<text x="735.00002947" y="236.9999938" width="120.9999866600001" height="29.99998786400002" class="text">Registration </text>
<text x="863.99998853" y="236.9999938" width="47.99997496000003" height="28.999986295999975" class="text">Unit</text>
<text x="910.0000231" y="235.99998767999998" width="7.999972400000047" height="26.99999453999996" class="text">, </text>
<text x="920.9999675800001" y="237.99999992" width="83.99999132000005" height="29.00000677999998" class="text">Internal </text>
<text x="1005.9999905899999" y="239.00000604000002" width="82.9999772000001" height="29.000011332000014" class="text">Security </text>
<text x="1092.0000277200002" y="240.00001216" width="71.99994486999981" height="29.00001588400002" class="text">Section</text>
<text x="1170.0000046" y="239.00000604000002" width="7.999972399999933" height="27.000005920000007" class="text">, </text>
<text x="1181.00003693" y="240.99999552" width="90.99994959999981" height="28.99999539999999" class="text">Criminal </text>
<text x="1274.99995861" y="242.00000164" width="81.00003680999998" height="28.999999951999996" class="text">Division</text>
<text x="1360.99999574" y="242.00000164" width="7.999972399999933" height="26.999996815999992" class="text">, </text>
<text x="1367.9999540200001" y="243.99999112" width="130.00009616999978" height="29.99998786400002" class="text">Department </text>
<text x="1501.0000047" y="243.99999112" width="20.000036420000015" height="26.999999091999996" class="text">of </text>
<text x="1522.99998151" y="244.99999724" width="68.00006409000002" height="28.99999084799998" class="text">Justice</text>
<text x="1594.00000011" y="244.99999724" width="7.999972399999933" height="27.000003644000003" class="text">, </text>
<text x="1602.99998663" y="246.00000336000002" width="86.00005469999996" height="29.000011332000014" class="text">Washing-</text>
<text x="98.00000275800001" y="255.99999628" width="31.000003740999986" height="27.000005920000007" class="text">ton</text>
<text x="130.000001292" y="255.99999628" width="7.999996998" height="27.000005920000007" class="text">, </text>
<text x="141.000000239" y="258.00000852" width="52.999998121000004" height="28.00001204" class="text">D.C. 
</text>
<text x="197.00000558000002" y="259.00001464" width="64.99998658999996" height="29.000018160000025" class="text">20530. </text>
<text x="269.00000316" y="258.00000852" width="34.000005689999966" height="27.000005920000007" class="text">The </text>
<text x="312.99999192" y="259.999998" width="76.00000134999999" height="28.999995400000017" class="text">original </text>
<text x="397.99999736" y="261.00000411999997" width="46.999995979999994" height="27.999989279999966" class="text">must </text>
<text x="450.0000112299999" y="261.00000411999997" width="24.000005050000084" height="27.999989279999966" class="text">be </text>
<text x="481.99998867999994" y="261.99998748" width="63.00001106000008" height="28.99997264000001" class="text">signed </text>
<text x="550.0000000599999" y="261.99998748" width="24.999984030000064" height="26.999983160000028" class="text">by </text>
<text x="579.000023" y="261.99998748" width="25.999963009999874" height="26.999983160000028" class="text">or </text>
<text x="606.00000013" y="261.99998748" width="26.000015719999965" height="26.999983160000028" class="text">on </text>
<text x="636.00000205" y="263.99999972" width="66.00001827999995" height="28.999995400000017" class="text">behalf </text>
<text x="707.00002065" y="263.99999972" width="19.999983710000038" height="28.00001204000003" class="text">of </text>
<text x="732.99998366" y="263.99999972" width="31.00001603999999" height="27.000005920000007" class="text">the </text>
<text x="767.00000692" y="266.00001196" width="101.00002052000002" height="29.000018159999996" class="text">registrant</text>
<text x="865.00000265" y="265.00000584" width="7.999972399999933" height="27.00000591999998" class="text">. </text>
<text x="878.99995435" y="266.00001196" width="31.00006874999997" height="27.00000591999998" class="text">All </text>
<text x="912.99999518" y="267.00001808" width="58.999954579999894" height="28.00001204" class="text">items </text>
<text x="976.0000413800001" y="267.00001808" width="14.999913109999852" height="27.000005920000007" class="text">in </text>
<text x="999.99995858" y="267.00001808" width="36.999995340000055" height="27.000005920000007" class="text">this </text>
<text x="1042.9999859299999" y="268.9999848" width="45.0000555900001" height="27.999989279999994" class="text">form </text>
<text x="1098.999986" y="269.99999092" width="49.00004179000007" height="28.999995400000017" class="text">must </text>
<text x="1152.00001399" y="268.9999848" width="24.00002261999998" height="26.99998316" class="text">be </text>
<text x="1181.9999632000001" y="270.99999704" width="92.99999540999988" height="28.99999539999999" class="text">answered</text>
<text x="1278.00001854" y="269.99999092" width="7.999972400000161" height="27.000005920000035" class="text">, </text>
<text x="1288.99996302" y="272.00000316" width="64.00007789000006" height="29.000018160000025" class="text">unless </text>
<text x="1358.99994993" y="272.00000316" width="31.000068749999855" height="28.00001204" class="text">the </text>
<text x="1395.9999452700001" y="273.00000928000003" width="71.00003616999993" height="29.000018160000025" class="text">answer </text>
<text x="1473.00001345" y="273.00000928000003" width="11.00003232999984" height="27.000005920000007" class="text">is </text>
<text x="1490.99998649" y="273.00000928000003" width="7.999972399999933" height="27.000005920000007" class="text">"</text>
<text x="1503.00005051" y="274.99999876" width="48.99995394000007" height="28.99999539999996" class="text">none</text>
<text x="1553.00001857" y="274.0000154" width="7.999972399999933" height="27.000005920000007" class="text">" </text>
<text x="1568.9999633700002" y="274.0000154" width="19.00000473" height="27.000005920000007" class="text">or </text>
<text x="1594.00000011" y="274.0000154" width="7.999972399999933" height="27.000005920000007" class="text">"</text>
<text x="1602.99998663" y="274.99999876" width="38.000027029999956" height="27.999989279999994" class="text">not </text>
<text x="1639.99998197" y="276.00000488" width="53.00004556000022" height="28.999995400000017" class="text">appli-</text>
<text x="97.000000937" y="285.00001444" width="48.99999435100001" height="28.000012039999945" class="text">cable</text>
<text x="148.999997237" y="285.00001444" width="7.999996998" height="27.00000591999998" class="text">,</text>
<text x="156.999994235" y="285.00001444" width="8.000009296999991" height="27.00000591999998" class="text">" </text>
<text x="170.999993374" y="285.00001444" width="15.000015015999963" height="27.00000591999998" class="text">in </text>
<text x="194.99999491" y="287.00000392" width="59.000007289999985" height="28.99999539999999" class="text">which 
</text>
<text x="266.00001351" y="287.99998727999997" width="41.999995660000025" height="28.999972639999953" class="text">case </text>
<text x="310.00000227000004" y="287.99998727999997" width="44.99998531" height="27.999989279999966" class="text">such </text>
<text x="364.00000924" y="287.00000392" width="19.999983710000038" height="27.00000591999998" class="text">an </text>
<text x="394.00001116000004" y="288.99999340000005" width="48.99998907999998" height="28.999995400000046" class="text">entry </text>
<text x="450.99997264" y="289.99999952" width="48.00002766999995" height="28.999995400000046" class="text">shall </text>
<text x="500.99999341000006" y="288.99999340000005" width="24.999984030000007" height="27.000005920000035" class="text">be </text>
<text x="534.99998153" y="290.99998288" width="53.000027990000035" height="28.99999539999999" class="text">made </text>
<text x="595.00002051" y="289.99999952" width="14.999965820000057" height="27.00000591999998" class="text">in </text>
<text x="618.9999728500001" y="290.99998288" width="31.000016039999878" height="27.999989279999966" class="text">the </text>
<text x="655.99996819" y="292.00001176" width="113.0000318299999" height="29.000018159999968" class="text">appropriate </text>
<text x="777.00002513" y="294.00000123999996" width="54.999985949999996" height="28.99999539999999" class="text">space</text>
<text x="835.0000183" y="292.99999512" width="7.999972399999933" height="26.99998316" class="text">. </text>
<text x="845.99999792" y="292.99999512" width="15.000036099999988" height="26.99998316" class="text">If </text>
<text x="866.99999575" y="294.99998459999995" width="103.00001361999989" height="28.999972639999953" class="text">additional </text>
<text x="971.9999497599999" y="296.00001348" width="54.00005968000005" height="28.99999539999999" class="text">space </text>
<text x="1035.0000135300002" y="294.99998459999995" width="15.000018529999807" height="26.999983159999942" class="text">is </text>
<text x="1055.00003238" y="296.99999684" width="70.99993074999998" height="28.99999539999999" class="text">needed </text>
<text x="1134.99994965" y="296.99999684" width="27.000082550000116" height="27.00000591999998" class="text">for </text>
<text x="1168.99999048" y="296.99999684" width="34.000023260000034" height="27.00000591999998" class="text">any </text>
<text x="1208.00001406" y="299.00000908" width="47.00001354999995" height="29.000018159999968" class="text">item</text>
<text x="1255.99995388" y="297.99998020000004" width="8.000060249999933" height="26.999983160000056" class="text">, </text>
<text x="1265.99995452" y="299.99999243999997" width="58.00006344999997" height="28.99999539999999" class="text">attach </text>
<text x="1334.00001861" y="300.99999856" width="136.99994902999993" height="28.99999539999999" class="text">supplemental </text>
<text x="1476.99999965" y="301.99998192" width="53.99995425999987" height="28.999972639999953" class="text">sheet </text>
<text x="1536.99998592" y="303.0000108" width="105.00004186000001" height="28.99999539999999" class="text">identifying </text>
<text x="1648.99998606" y="303.99999416" width="44.00004147000004" height="27.999989280000023" class="text">each</text>
<text x="95.999997359" y="310.99999148" width="45.00000288" height="21.999998079999955" class="text">item</text>
<text x="141.999996789" y="310.00000812" width="6.000003897999989" height="20.0000086" class="text">.
</text>
<text x="113.000000204" y="382.00001632000004" width="20.000003037" height="32.00003652000004" class="text">1. </text>
<text x="143.000005638" y="383.99998304" width="80.99999464199999" height="32.99997436000001" class="text">Name </text>
<text x="233.00000436999997" y="385.99999528" width="25.000001600000047" height="32.99997436000001" class="text">of </text>
<text x="263.99998527" y="387.99998476" width="125.00000799999998" height="34.99996384000002" class="text">registrant
</text>
<text x="1240.0000090800002" y="396.00001096000005" width="21.999976809999907" height="30.000024280000048" class="text">2. </text>
<text x="1271.99998653" y="398.0000232" width="150.00002717000007" height="32.00003651999998" class="text">Registration </text>
<text x="1437.00003223" y="398.0000232" width="47.00001354999995" height="31.000030400000014" class="text">No.
</text>
<text x="119.00000410199999" y="448.00001055999996" width="107.999985828" height="35.00000935999998" class="text">Swedish </text>
<text x="259.00000252" y="448.99999392" width="84.00000888999995" height="34.9999866" class="text">Travel </text>
<text x="366.00000234" y="448.99999392" width="8.999986519999993" height="32.99997435999995" class="text">&amp; </text>
<text x="413.00001589" y="451.00000616" width="107.99996122999994" height="34.99998659999994" class="text">Tourism </text>
<text x="546.99999284" y="451.99998952000004" width="108.99997535" height="34.00000324000001" class="text">Council
</text>
<text x="109.999998255" y="485.0000094" width="24.000001536" height="32.00001376" class="text">3. </text>
<text x="145.999995288" y="486.99999888" width="82.999987742" height="34.00000324000001" class="text">Nature </text>
<text x="244.00001913" y="486.99999888" width="23.999987480000016" height="31.999991000000023" class="text">of </text>
<text x="281.99999345" y="489.00001111999995" width="101.00000295000001" height="34.000003239999955" class="text">material </text>
<text x="393.00001461" y="489.00001111999995" width="8.99998652000005" height="31.99999099999991" class="text">(</text>
<text x="408.99999455" y="489.00001111999995" width="9.000004090000004" height="31.99999099999991" class="text">A </text>
<text x="432.99998203" y="491.00002336" width="87.99999508999991" height="34.000003239999955" class="text">concise </text>
<text x="530.9999953299999" y="492.99999008000003" width="96.00000263000015" height="34.00000324000001" class="text">account </text>
<text x="634.0000089499999" y="492.99999008000003" width="28.99997023000003" height="31.999991000000023" class="text">of </text>
<text x="667.9999795" y="493.9999962" width="35.00000224000007" height="32.99999711999999" class="text">the </text>
<text x="714.00001407" y="494.99997956" width="79.00000856999998" height="33.99998047999998" class="text">nature </text>
<text x="804.0000022600001" y="494.99997956" width="24.000022619999868" height="31.999991000000023" class="text">of </text>
<text x="837.0000114" y="496.9999918" width="35.99996365000004" height="32.99997435999995" class="text">the </text>
<text x="879.99998604" y="499.00000404" width="143.99997759000007" height="34.9999866" class="text">propaganda </text>
<text x="1042.9999859299999" y="500.00001016" width="100.00004154000021" height="34.000003239999955" class="text">material </text>
<text x="1148.99995406" y="500.99999352000003" width="50.00007348000008" height="33.000019880000025" class="text">filed</text>
<text x="1201.9999996200002" y="500.99999352000003" width="8.999986519999993" height="31.999991000000023" class="text">)
</text>
<text x="1261.99998589" y="451.99998952000004" width="87.9999775199999" height="27.999989280000023" class="text">04885
</text>
<text x="116.999998703" y="544.99998968" width="113.00001601699996" height="31.999991000000023" class="text">Swedish </text>
<text x="258.00000597" y="548.00000804" width="102.99999605" height="33.00001987999997" class="text">tourism </text>
<text x="389.99998982" y="550.00002028" width="162.00000334000003" height="33.00001987999997" class="text">information </text>
<text x="579.000023" y="550.00002028" width="21.99997681000002" height="30.000024279999934" class="text">to </text>
<text x="634.0000089499999" y="552.00000976" width="36.999995340000055" height="31.000007640000035" class="text">the </text>
<text x="698.99999554" y="552.99999312" width="68.99999036000008" height="31.000007640000035" class="text">trade </text>
<text x="793.00002264" y="555.00000536" width="46.999995979999994" height="31.999991000000023" class="text">and </text>
<text x="868.00002744" y="557.0000176" width="143.9999951599999" height="33.00001987999997" class="text">consumers
</text>
<text x="107.000001577" y="589.9999919600001" width="24.999992814999985" height="32.999974360000124" class="text">4. </text>
<text x="148.999997237" y="591.00002084" width="54.00000521299998" height="33.00001988000008" class="text">Title </text>
<text x="212.00000654" y="592.00002696" width="28.999987799999985" height="32.00003651999998" class="text">of </text>
<text x="251.00001254999998" y="595.00002256" width="103.99997503000006" height="34.00004876000003" class="text">material</text>
<text x="350.00000483" y="593.99999368" width="10.000000639999996" height="31.000007640000035" class="text">, </text>
<text x="369.99998854" y="595.00002256" width="18.00000818000001" height="31.000007640000035" class="text">if </text>
<text x="395.00000771" y="596.99998928" width="44.99998531" height="32.99997436000001" class="text">any
</text>
<text x="942.00001812" y="602.0000198800001" width="25.00003674000004" height="33.00001988000008" class="text">5. </text>
<text x="979.0000134600001" y="603.9999866" width="73.99997311000004" height="34.99998660000006" class="text">Name </text>
<text x="1063.0000047800002" y="602.99995772" width="29.99994920999984" height="32.99992884000005" class="text">of </text>
<text x="1098.999986" y="604.99999272" width="82.00005093000004" height="34.99996384000008" class="text">foreign </text>
<text x="1195.00004134" y="606.0000216" width="114.99997222000002" height="35.00005487999999" class="text">principal </text>
<text x="1317.99998596" y="606.0000216" width="25.00003674000004" height="33.00001987999997" class="text">on </text>
<text x="1354.9999813" y="606.9999822000001" width="80.00000511999997" height="33.99998048000009" class="text">whose </text>
<text x="1446.00003632" y="607.99998832" width="80.99993139000003" height="34.99998660000006" class="text">behalf </text>
<text x="1532.99999972" y="607.99998832" width="46.999995979999994" height="33.00001988000008" class="text">this </text>
<text x="1594.00000011" y="610.00002332" width="101.9999819300001" height="35.00005487999999" class="text">material
</text>
<text x="976.0000413800001" y="635.00003976" width="47.99992224999994" height="29.00001816000008" class="text">was </text>
<text x="1035.0000135300002" y="635.00003976" width="139.99999138999988" height="29.00001816000008" class="text">transmitted</text>
<text x="1180.00002281" y="635.00003976" width="7.999972399999933" height="29.00001816000008" class="text">.
</text>
<text x="117.99999349599999" y="651.00000112" width="103.99999611400001" height="34.99998659999994" class="text">Sweden </text>
<text x="259.00000252" y="653.00003612" width="120.00000768000001" height="34.00004875999991" class="text">Traveler </text>
<text x="410.99998765" y="657.99999844" width="128.00003278999998" height="36.00001548" class="text">magazine
</text>
<text x="116.999998703" y="688.0000227200001" width="86.00000374699998" height="34.99998660000006" class="text">Hotels </text>
<text x="223.00000373" y="688.0000227200001" width="18.999987160000018" height="34.00004876000003" class="text">in </text>
<text x="269.00000316" y="688.9999605600001" width="98.99999228000001" height="33.99995772000011" class="text">Sweden</text>
<text x="374.99998886" y="688.9999605600001" width="9.000004090000061" height="32.99992884000005" class="text">, </text>
<text x="402.00000113000004" y="690.99999556" width="60.00002140999999" height="34.999963839999964" class="text">Map </text>
<text x="485.00001347000006" y="690.99999556" width="29.99998434999992" height="32.99999711999999" class="text">of </text>
<text x="529.0000022300001" y="692.00002444" width="103.00001361999989" height="34.000025999999934" class="text">Sweden
</text>
<text x="949.9999905200001" y="692.99998504" width="110.00005974999988" height="32.00001375999989" class="text">Swedish </text>
<text x="1085.99999571" y="692.99998504" width="87.99999509000008" height="30.999984879999943" class="text">Travel </text>
<text x="1192.99999553" y="692.99998504" width="9.000004090000175" height="29.999955999999997" class="text">&amp; </text>
<text x="1238.9999773900001" y="693.9999911599999" width="105.00005942999996" height="31.99999099999991" class="text">Tourism </text>
<text x="1369.99999983" y="695.00002004" width="105.99996813000007" height="31.999991000000023" class="text">Council </text>
<text x="1494.99997269" y="695.00002004" width="38.000027029999956" height="31.000053159999993" class="text">AB
</text>
<text x="119.00000410199999" y="718.99998484" width="105.999992728" height="31.999991000000023" class="text">Coming </text>
<text x="246.99999121000002" y="720.00001372" width="89.00002677999998" height="31.99999099999991" class="text">Events </text>
<text x="361.00000202" y="720.00001372" width="24.00000504999997" height="31.99999099999991" class="text">in </text>
<text x="414.00001244" y="721.0000425999999" width="102.9999784800001" height="33.000019879999854" class="text">Sweden
</text>
<text x="109.000001705" y="760.99996876" width="20.00000479399999" height="28.99999539999999" class="text">6. </text>
<text x="140.00000368899998" y="763.0000037599999" width="91.00000758100003" height="31.0000303999999" class="text">Means </text>
<text x="237.00000814" y="763.0000037599999" width="28.000008819999977" height="30.000024279999934" class="text">of </text>
<text x="275.00000002999997" y="764.99999324" width="155.00000992000002" height="32.00001376" class="text">transmission
</text>
<text x="637.99999515" y="767.99996608" width="24.99998402999995" height="30.999962120000077" class="text">7. </text>
<text x="676.00000461" y="770.0000010800001" width="75.00000479999994" height="32.9999971200001" class="text">Dates </text>
<text x="758.0000204" y="771.00002996" width="29.999984349999977" height="32.00005928000007" class="text">of </text>
<text x="793.9999840500001" y="774.0000255599999" width="158.00005227999998" height="35.00005487999999" class="text">transmission
</text>
<text x="1171.00001872" y="774.9999634" width="28.000008819999948" height="29.999955999999997" class="text">8. </text>
<text x="1213.00003195" y="775.99999228" width="62.99994078000009" height="30.999984880000056" class="text">Total </text>
<text x="1287.0000226299999" y="776.9999984" width="76.99994519000006" height="30.999962119999964" class="text">copies </text>
<text x="1371.0000139499998" y="778.00002728" width="142.99996347000024" height="31.999991000000023" class="text">transmitted
</text>
<text x="113.999996754" y="825.99997964" width="90.99999879600003" height="39.99999444000002" class="text">Direct </text>
<text x="228.99998303" y="827.0000085199999" width="59.000024859999996" height="38.99998831999994" class="text">mail </text>
<text x="312.99999192" y="828.99997524" width="48.0000101" height="38.99998832000006" class="text">and </text>
<text x="386.00000362000003" y="831.0000102399999" width="34.000005689999966" height="38.99998831999983" class="text">by </text>
<text x="446.00002503" y="832.9999769599999" width="79.99995241000005" height="39.99999444000002" class="text">phone</text>
<text x="527.99997054" y="832.0000391200001" width="12.000011309999877" height="37.00002160000008" class="text">/</text>
<text x="539.00002044" y="834.0000058400001" width="42.999974640000005" height="38.99998832000006" class="text">fax
</text>
<text x="739.99997708" y="834.0000058400001" width="79.00004371" height="36.000015480000116" class="text">Daily
</text>
<text x="105.000003206" y="861.99999512" width="24.000003292999992" height="26.999983159999942" class="text">9. </text>
<text x="144.999998738" y="864.00003012" width="44.99999585200001" height="28.00005755999996" class="text">List </text>
<text x="198.00000212999998" y="865.99999684" width="124.00001144999999" height="30.000024279999934" class="text">addresses </text>
<text x="330.00000355" y="865.99999684" width="56.99999662000005" height="27.999989280000023" class="text">from </text>
<text x="400.00000803" y="867.99996356" width="69.00000793000004" height="28.99992711999994" class="text">which </text>
<text x="487.00000657" y="868.99999244" width="43.00000978000003" height="29.000018159999968" class="text">this </text>
<text x="548.99998594" y="868.99999244" width="99.00000984999997" height="27.999989280000023" class="text">material </text>
<text x="653.00001368" y="871.0000274399999" width="49.00000664999993" height="29.000018159999968" class="text">was </text>
<text x="714.00001407" y="872.9999941599999" width="140.00000895999995" height="30.000024279999934" class="text">transmitted</text>
<text x="856.99999511" y="871.99998804" width="8.00000754000007" height="26.999983159999942" class="text">:
</text>
<text x="1261.99998589" y="835.9999725600001" width="122.00001834999989" height="33.99995772000011" class="text">Monthly </text>
<text x="1423.99995409" y="835.9999725600001" width="174.0000322200001" height="33.99995772000011" class="text">fulfillments
</text>
<text x="943.99995851" y="872.9999941599999" width="34.000023260000034" height="26.99996039999985" class="text">10. </text>
<text x="993.0000002999999" y="874.0000230400001" width="45.99999943000023" height="27.000051440000107" class="text">List </text>
<text x="1047.9999862500001" y="875.9999897600001" width="71.00001859999975" height="29.00001816000008" class="text">states </text>
<text x="1129.0000230599999" y="874.9999608799999" width="45.99998186000016" height="26.99996039999985" class="text">and </text>
<text x="1187.99999521" y="876.99999588" width="119.99997254000004" height="28.99999539999999" class="text">territories </text>
<text x="1316.99995427" y="876.99999588" width="29.000022940000008" height="27.000028680000014" class="text">of </text>
<text x="1350.9999951" y="878.00002476" width="38.00000946" height="28.00005755999996" class="text">the </text>
<text x="1400.9999631599999" y="878.99998536" width="85.00002301000018" height="29.000018159999968" class="text">United </text>
<text x="1498.00005019" y="879.9999914800001" width="73.99997310999993" height="28.99999539999999" class="text">States </text>
<text x="1579.9999957" y="879.9999914800001" width="25.00003674000004" height="26.999960400000077" class="text">to </text>
<text x="1614.00003653" y="881.00002036" width="70.00000447999992" height="29.000018159999968" class="text">which
</text>
<text x="995.9999723799999" y="911.99998248" width="103.00001362000012" height="29.999955999999997" class="text">material </text>
<text x="1103.99998632" y="911.99998248" width="48.00002767000001" height="28.99999539999999" class="text">was </text>
<text x="1161.00001808" y="913.0000113599999" width="143.99997759000007" height="30.000024279999934" class="text">transmitted</text>
<text x="1307.99996775" y="913.0000113599999" width="8.000077820000115" height="27.999989280000023" class="text">:
</text>
<text x="113.999996754" y="990.999988" width="48.000004829000005" height="30.000024280000048" class="text">655 </text>
<text x="193.00000181000001" y="992.00001688" width="67.99999380999998" height="30.000024279999934" class="text">Third </text>
<text x="288.00000789" y="993.0000229999999" width="106.99999981999997" height="30.000024279999934" class="text">Avenue
</text>
<text x="113.000000204" y="1025.9999746" width="50.999992722" height="29.999955999999997" class="text">New </text>
<text x="193.99999836" y="1028.0000096" width="61.99999693999999" height="31.000030400000014" class="text">York</text>
<text x="260.99999562" y="1027.00000348" width="9.000004090000004" height="30.000024279999934" class="text">, </text>
<text x="281.99999345" y="1028.0000096" width="49.000006650000046" height="30.000024280000048" class="text">NY </text>
<text x="351.99999793" y="1029.99999908" width="157.00002058999996" height="32.00001375999989" class="text">10017-5617
</text>
<text x="1162.0000322" y="1000.00002032" width="36.99999533999994" height="27.0000286799999" class="text">All </text>
<text x="1218.9999585399999" y="1000.00002032" width="25.00003674000004" height="27.0000286799999" class="text">50 </text>
<text x="1269.99994072" y="1000.99998092" width="77.00006817999997" height="26.999960399999964" class="text">States
</text>
<text x="88.999996911" y="1110.00001072" width="37.000007639" height="31.999991000000136" class="text">11. </text>
<text x="143.000005638" y="1111.99997744" width="74.00000122200001" height="33.00001988000008" class="text">Types </text>
<text x="223.00000373" y="1111.0000396" width="29.000005369999997" height="32.00008204000005" class="text">of </text>
<text x="260.99999562" y="1113.00000632" width="122.00000078" height="34.00004876000003" class="text">recipients </text>
<text x="395.00000771" y="1111.99997744" width="8.999986519999993" height="31.999991000000136" class="text">(</text>
<text x="406.00000489999996" y="1113.00000632" width="49.99998563000008" height="33.00001988000008" class="text">Give </text>
<text x="465.99999117" y="1114.0000124399999" width="92.99999541000005" height="34.000025999999934" class="text">number </text>
<text x="565.99999757" y="1114.0000124399999" width="29.000022940000008" height="31.99999099999991" class="text">of
</text>
<text x="88.999996911" y="1146.9999640400001" width="164.000008739" height="32.99995160000026" class="text">organizations </text>
<text x="260.99999562" y="1146.0000262" width="21.999994379999976" height="31.000053160000107" class="text">in </text>
<text x="296.99999441" y="1146.0000262" width="50.99999974999997" height="31.000053160000107" class="text">each </text>
<text x="358.00001237" y="1146.9999640400001" width="69.00000792999998" height="30.999984880000056" class="text">group</text>
<text x="431.00000650000004" y="1146.9999640400001" width="8.999986519999936" height="30.999984880000056" class="text">)
</text>
<text x="940.99998643" y="1117.00000804" width="38.00002703000007" height="31.999991000000136" class="text">12. </text>
<text x="990.00004579" y="1117.00000804" width="47.99992225000017" height="31.999991000000136" class="text">List </text>
<text x="1050.00003206" y="1118.00003692" width="80.99993139000003" height="32.00001376" class="text">names </text>
<text x="1143.00002747" y="1118.99997476" width="47.00001354999995" height="30.999962119999964" class="text">and </text>
<text x="1203.00001374" y="1121.00000976" width="123.99995874000001" height="32.99999711999999" class="text">addresses </text>
<text x="1339.9999452" y="1121.00000976" width="22.00008223000009" height="30.00002428000016" class="text">of </text>
<text x="1373.99998603" y="1122.99997648" width="96.99998161000008" height="31.999991000000136" class="text">persons </text>
<text x="1487.00000029" y="1122.99997648" width="21.999976810000135" height="29.999955999999884" class="text">or </text>
<text x="1526.00004144" y="1125.99997208" width="163.9999261600001" height="32.999951599999804" class="text">organizations
</text>
<text x="987.9999999800001" y="1157.00002524" width="113.00003182999978" height="34.00004876000003" class="text">receiving </text>
<text x="1111.99995872" y="1157.99996308" width="41.00008696000009" height="32.999928840000166" class="text">100 </text>
<text x="1166.0000184" y="1157.99996308" width="76.00003648999996" height="31.999991000000136" class="text">copies </text>
<text x="1251.00004141" y="1159.00006024" width="28.999917520000054" height="32.00005927999996" class="text">or </text>
<text x="1293.99996334" y="1160.00002084" width="59.99998626999991" height="32.00001376" class="text">more</text>
<text x="1355.99999542" y="1160.00002084" width="8.999986519999993" height="30.999984880000056" class="text">:
</text>
<text x="318.99998879" y="1273.0000523600002" width="50.00000320000004" height="37.00008988000013" class="text">and </text>
<text x="402.99999768" y="1277.9999464" width="150.00002717000007" height="39.99994891999995" class="text">magazines
</text>
<text x="88.999996911" y="1209.0000476" width="114.00000553899999" height="26.000068079999892" class="text">Libraries
</text>
<text x="86.00000199" y="1243.00002808" width="79.99999809199998" height="26.000090839999984" class="text">Public </text>
<text x="178.00000085" y="1243.99996592" width="94.00000953" height="25.99993152000002" class="text">officials
</text>
<text x="83.00000004099999" y="1282.999977" width="158.99999084900003" height="31.99994547999995" class="text">Newspapers
</text>
<text x="86.00000199" y="1313.0000012799999" width="64.00000409600001" height="27.99998927999991" class="text">Press </text>
<text x="162.99999813300002" y="1315.00003628" width="97.99999748699997" height="30.000024279999934" class="text">services </text>
<text x="272.00001038" y="1313.99993912" width="25.99998058" height="27.99998927999991" class="text">of
</text>
<text x="115.00000560299999" y="1346.999959" width="153.99999755700003" height="26.999892119999913" class="text">associations
</text>
<text x="86.00000199" y="1382.99997448" width="153.99999580000002" height="28.999949879999804" class="text">Educational
</text>
<text x="116.999998703" y="1418.9999672" width="143.99999691699998" height="28.999949879999804" class="text">institutions
</text>
<text x="88.000000361" y="1452.99992492" width="63.000002275" height="32.999860560000116" class="text">Civic </text>
<text x="158.00000308399999" y="1459.99999052" width="90.99998122599999" height="35.00005487999988" class="text">groups
</text>
<text x="84.999998412" y="1488.9999404" width="77.000003171" height="33.99995772000011" class="text">Other </text>
<text x="169.00000203099998" y="1487.9999798" width="9.999995369000032" height="30.999962119999736" class="text">(</text>
<text x="179.99999395" y="1490.9999753999998" width="80.00000512" height="33.99995771999966" class="text">specify</text>
<text x="261.99999217" y="1490.9999753999998" width="10.000018210000007" height="30.99998487999983" class="text">)
</text>
<text x="1051.9999724499999" y="1276.00004796" width="106.00007355000025" height="30.000047040000254" class="text">Swedish </text>
<text x="1186.99996352" y="1276.00004796" width="148.99999548000005" height="30.000047040000254" class="text">Consulates </text>
<text x="1362.00002743" y="1276.9999858" width="108.99994020999998" height="30.00002428000016" class="text">General </text>
<text x="1488.00003198" y="1276.9999858" width="19.99993100000006" height="28.99992711999994" class="text">in </text>
<text x="1535.99995423" y="1276.9999858" width="43.00002735000021" height="27.99998927999991" class="text">the </text>
<text x="1600.00003212" y="1276.9999858" width="61.00001795999992" height="27.99998927999991" class="text">U.S.
</text>
<text x="1046.99997213" y="1316.9999347199998" width="120.99998665999988" height="35.9998789199999" class="text">Embassy </text>
<text x="1190.9999497200001" y="1316.9999347199998" width="33.00000913999975" height="35.9998789199999" class="text">of </text>
<text x="1241.0000232" y="1316.9999347199998" width="103.99993988999995" height="35.9998789199999" class="text">Sweden</text>
<text x="1352.00000922" y="1316.9999347199998" width="10.000018210000007" height="35.9998789199999" class="text">, </text>
<text x="1377.9999722300001" y="1316.9999347199998" width="162.9999998899998" height="35.9998789199999" class="text">Washington</text>
<text x="1545.99997244" y="1316.9999347199998" width="10.000018210000007" height="35.9998789199999" class="text">, </text>
<text x="1568.9999633700002" y="1316.9999347199998" width="47.00001354999972" height="35.9998789199999" class="text">DC
</text>
<text x="1047.9999862500001" y="1351.0000289999998" width="67.00003239999978" height="35.99999271999991" class="text">U.S. </text>
<text x="1135.99998134" y="1351.0000289999998" width="64.99998659000016" height="35.99999271999991" class="text">Tour </text>
<text x="1221.0000043500002" y="1351.0000289999998" width="137.00003687999993" height="35.99999271999991" class="text">Operators </text>
<text x="1381.9999584299999" y="1351.0000289999998" width="27.000082550000116" height="35.99999271999991" class="text">on </text>
<text x="1434.99998642" y="1351.0000289999998" width="168.00000021000005" height="35.99999271999991" class="text">Scandinavia
</text>
<text x="1050.9999407599998" y="1385.00000948" width="179.0000501100003" height="36.00001548" class="text">Scandinavian </text>
<text x="1259.0000138100002" y="1385.99994732" width="106.99999981999986" height="35.99999272000014" class="text">Interest </text>
<text x="1389.00000456" y="1385.99994732" width="48.99995394000007" height="34.99991832000023" class="text">Org</text>
<text x="1440.00000431" y="1385.99994732" width="10.00000064000028" height="33.99995772000011" class="text">. </text>
<text x="1475.00005926" y="1385.99994732" width="18.999899310000046" height="33.99995772000011" class="text">in </text>
<text x="1521.00004112" y="1385.99994732" width="42.99992193000003" height="33.99995772000011" class="text">the </text>
<text x="1588.9999997900002" y="1387.0000444799998" width="63.999972469999875" height="34.00011703999985" class="text">U.S.
</text>
<text x="317.99999224000004" y="1445.9999958800001" width="132.0000189899999" height="33.99995772000011" class="text">potential </text>
<text x="479.99999558" y="1446.9999564799998" width="110.00000704000001" height="33.99995771999966" class="text">tourists
</text>
<text x="316.99999569" y="1479.00001576" width="61.00001796000004" height="32.00005928000019" class="text">tour </text>
<text x="399.00001148" y="1482.0000113600001" width="131.00000487" height="33.99995772000011" class="text">operators </text>
<text x="558.00002517" y="1482.9999492000002" width="47.99997496000003" height="32.99999712000022" class="text">and </text>
<text x="634.0000089499999" y="1484.00004636" width="82.9999772000001" height="33.000019879999854" class="text">travel </text>
<text x="740.9999912" y="1485.00000696" width="86.00000198999999" height="33.00001988000008" class="text">agents
</text>
<text x="88.999996911" y="1559.00005016" width="38.00000243199999" height="33.00001988000008" class="text">13. </text>
<text x="140.00000368899998" y="1559.999988" width="18.999995945000023" height="32.99999712000022" class="text">If </text>
<text x="165.000003532" y="1560.9999486" width="42.000002687999995" height="33.99995772000011" class="text">the </text>
<text x="223.00000373" y="1562.000023" width="101.9999995" height="35.00003212000024" class="text">material </text>
<text x="331.0000001" y="1565.0000186" width="143.00001618" height="35.99999271999991" class="text">transmitted </text>
<text x="481.00002727000003" y="1565.0000186" width="51.99996116" height="33.999957719999884" class="text">was </text>
<text x="543.00000664" y="1565.0000186" width="8.999986519999993" height="33.000019879999854" class="text">a </text>
<text x="565.99999757" y="1567.0000536" width="43.999988760000065" height="35.00005487999988" class="text">film </text>
<text x="626.9999979600001" y="1565.9999792" width="24.99998402999995" height="33.00001988000008" class="text">or </text>
<text x="660.0000071" y="1568.0000142" width="63.00001106000002" height="35.00005487999988" class="text">radio </text>
<text x="735.99999088" y="1567.0000536" width="24.99998402999995" height="33.00001988000008" class="text">or </text>
<text x="774.00000034" y="1568.99995204" width="116.00000390999992" height="34.999918320000006" class="text">television </text>
<text x="901.00003658" y="1571.0000098" width="70.99991317999991" height="35.00005488000011" class="text">script</text>
<text x="971.9999497599999" y="1570.0000492" width="9.000109510000016" height="33.00001988000008" class="text">, </text>
<text x="986.9999682900001" y="1571.9999476399998" width="87.00008639000009" height="34.999918320000006" class="text">furnish </text>
<text x="1089.9999819099999" y="1571.9999476399998" width="39.000041150000015" height="33.000019879999854" class="text">the </text>
<text x="1139.99996754" y="1573.99998264" width="112.00000014000011" height="35.00005488000011" class="text">following </text>
<text x="1265.00004582" y="1576.0000176400001" width="146.99994966999998" height="35.99999272000014" class="text">information</text>
<text x="1417.0000133800002" y="1576.0000176400001" width="8.999986519999766" height="32.99999712000022" class="text">:
</text>
<text x="84.000001862" y="1626.9999656" width="74.999997772" height="31.999922720000086" class="text">Name </text>
<text x="169.999996824" y="1626.9999656" width="29.00000185600001" height="30.99996212000019" class="text">of </text>
<text x="204.99999555000002" y="1629.00002336" width="79.99998754999999" height="33.00001988000008" class="text">station</text>
<text x="290.00000099" y="1629.00002336" width="8.999986519999993" height="30.99998487999983" class="text">, </text>
<text x="307.00001262" y="1631.0000583600001" width="151.99998513000003" height="33.00001988000008" class="text">organization</text>
<text x="463.99999807" y="1631.0000583600001" width="9.000004089999948" height="31.000121440000157" class="text">, </text>
<text x="479.99999558" y="1631.0000583600001" width="29.00002293999995" height="31.000121440000157" class="text">or </text>
<text x="514.99999782" y="1632.9999568" width="92.99999541" height="33.00001988000008" class="text">theater </text>
<text x="616.00001834" y="1634.0000312" width="65.99996556999997" height="32.00005927999996" class="text">using
</text>
<text x="84.999998412" y="1662.0000204799999" width="9.000000576000005" height="30.000024279999707" class="text">(</text>
<text x="98.00000275800001" y="1664.00005548" width="109.00000346199998" height="32.00005927999973" class="text">including </text>
<text x="219.99999651" y="1662.99998108" width="35.99999879000001" height="30.000024279999934" class="text">city </text>
<text x="269.00000316" y="1662.99998108" width="42.99999220999996" height="30.000024279999934" class="text">and </text>
<text x="325.00000323" y="1662.99998108" width="57.99999316999998" height="30.000024279999934" class="text">state</text>
<text x="385.00000707" y="1664.00005548" width="9.000004090000061" height="30.000024279999934" class="text">)
</text>
<text x="906.0000369" y="1635.9999524" width="58.99997214999985" height="29.999910480000153" class="text">Date </text>
<text x="975.0000272599999" y="1634.9999918" width="30.999963330000014" height="27.999989280000136" class="text">or </text>
<text x="1012.0000226" y="1637.0000268" width="66.00001827999995" height="30.000024279999934" class="text">dates </text>
<text x="1087.0000274" y="1637.9999874" width="119.99997254000004" height="30.00002428000016" class="text">broadcast </text>
<text x="1219.9999726600001" y="1637.9999874" width="26.00006842999983" height="27.99998927999991" class="text">or </text>
<text x="1252.9999818" y="1640.0000224" width="82.00006850000022" height="30.000024279999934" class="text">shown
</text>
<text x="1409.00004098" y="1640.0000224" width="126.00000455000009" height="27.99998927999991" class="text">Estimated </text>
<text x="1546.99998656" y="1640.9999602399998" width="135.00000864000003" height="27.99998927999991" class="text">attendance
</text>
<text x="1442.99995882" y="1676.00001512" width="8.999986519999993" height="30.999962119999964" class="text">(</text>
<text x="1456.99996323" y="1676.9999757199998" width="35.00005495000005" height="31.99992271999986" class="text">for </text>
<text x="1499.99999058" y="1678.0000501200002" width="44.99995016999992" height="32.00005928000019" class="text">film</text>
<text x="1549.00003237" y="1678.0000501200002" width="9.00000408999972" height="31.000098680000065" class="text">(</text>
<text x="1560.99999097" y="1678.0000501200002" width="9.000004089999948" height="31.000098680000065" class="text">s</text>
<text x="1573.99996369" y="1678.0000501200002" width="9.000004089999948" height="31.000098680000065" class="text">)</text>
<text x="1582.99996778" y="1678.0000501200002" width="8.999986519999993" height="31.000098680000065" class="text">)
</text>
<text x="103.999999628" y="1753.00005392" width="58.99999850500002" height="37.000089879999905" class="text">Not </text>
<text x="186.00000838999998" y="1756.99998736" width="151.00000615000002" height="39.999926160000086" class="text">Applicable
</text>
<text x="906.99996317" y="1832.9999517600002" width="43.000027350000096" height="205.99998616000016" class="text">REGISTRATION </text>
<text x="902.99997697" y="1912.9999634" width="36.999995340000055" height="69.00001259999999" class="text">UNIT
</text>
<text x="939.00004604" y="1831.00005332" width="36.999995340000055" height="120.00011988000006" class="text">SECTION
</text>
<text x="967.0000548600001" y="1767.0000485599999" width="44.999967739999875" height="161.00000664000004" class="text">UNTERNAL </text>
<text x="962.0000369699999" y="1903.00006152" width="42.000013230000036" height="124.00005332" class="text">SECURIT
</text>
<text x="1060.00005027" y="1660.99994608" width="39.999949849999894" height="42.9999445200001" class="text">295 </text>
<text x="1058.0000044600001" y="1740.99995772" width="39.00004114999979" height="42.999921760000234" class="text">APR </text>
<text x="1055.00003238" y="1798.99997128" width="38.99993573000006" height="41.00002332000008" class="text">-3 </text>
<text x="1052.9999865700001" y="1870.99997948" width="39.000041150000015" height="47.99995236000018" class="text">P4</text>
<text x="1052.9999865700001" y="1890.00000472" width="36.999995339999714" height="11.999959640000043" class="text">:</text>
<text x="1050.00003206" y="1928.99999304" width="38.99993573000006" height="41.000023319999855" class="text">27
</text>
<text x="1145.99998198" y="1787.0000344" width="40.00007284000003" height="141.00004356" class="text">CRIMINAL </text>
<text x="1139.0000412699999" y="1920.9999896" width="39.99994985000012" height="127.00002616000006" class="text">DIVISION
</text>
<text x="1178.99999112" y="1731.99999368" width="36.99999533999994" height="77.00003880000008" class="text">DEPT</text>
<text x="1178.99999112" y="1740.99995772" width="33.000009139999975" height="9.999901880000152" class="text">. </text>
<text x="1177.999977" y="1779.9999688" width="34.000023260000034" height="30.99998487999983" class="text">OF </text>
<text x="1172.00005041" y="1917.00005616" width="37.99990404000005" height="113.99999212000012" class="text">JUSTICE
</text>
<text x="1204.00002786" y="1859.0000426" width="39.99996741999985" height="141.99998140000002" class="text">RECEIVED
</text>
<text x="84.000001862" y="1954.99994732" width="36.999993583000006" height="33.99995772000011" class="text">14. </text>
<text x="131.999994392" y="1954.99994732" width="65.00001118800003" height="33.99995772000011" class="text">Have </text>
<text x="211.00000999" y="1956.0000444799998" width="44.99998531" height="33.00001987999963" class="text">two </text>
<text x="266.00001351" y="1956.9999823199998" width="74.99996966000003" height="33.99995771999966" class="text">copies </text>
<text x="351.99999793" y="1956.9999823199998" width="29.000005369999997" height="31.99992271999986" class="text">of </text>
<text x="386.00000362000003" y="1959.00001732" width="44.00000632999996" height="33.99995772000011" class="text">this </text>
<text x="446.99998644" y="1959.99997792" width="101.9999995" height="33.999957719999884" class="text">material </text>
<text x="555.99997936" y="1961.00007508" width="58.000045880000016" height="34.00011703999985" class="text">been </text>
<text x="630.9999841599999" y="1962.00001292" width="45.999999430000116" height="33.99995772000011" class="text">filed </text>
<text x="693.00001624" y="1962.99997352" width="51.99996116" height="33.99998047999998" class="text">with </text>
<text x="756.0000273" y="1964.00004792" width="40.99998153999991" height="32.99999712000022" class="text">the </text>
<text x="805.99999536" y="1965.99994636" width="156.99996787999999" height="34.99989556000014" class="text">Department </text>
<text x="968.9999952500001" y="1965.99994636" width="29.000022939999894" height="32.99999711999999" class="text">of </text>
<text x="1005.9999905899999" y="1967.0000435200002" width="81.00003680999998" height="33.00001988000008" class="text">Justice</text>
<text x="1092.99995399" y="1967.0000435200002" width="9.000091940000175" height="32.00005928000019" class="text">? </text>
<text x="1135.99998134" y="1968.99994196" width="40.99996396999995" height="32.99988331999975" class="text">Yes
</text>
<text x="1261.99998589" y="1968.0000041199999" width="44.00004147000004" height="28.999949879999804" class="text">No </text>
<text x="1316.00004557" y="1967.0000435200002" width="7.999972399999933" height="27.00002868000024" class="text">
</text>
<text x="84.000001862" y="2023.00002208" width="35.99999878999999" height="33.00001988000008" class="text">15. </text>
<text x="130.999997842" y="2023.00002208" width="52.00000332799999" height="32.00005928000019" class="text">Has </text>
<text x="190.99999114" y="2023.99998268" width="46.000017000000014" height="33.00001988000008" class="text">this </text>
<text x="253.00000565" y="2026.0000176800002" width="99.99998883" height="33.99998047999998" class="text">material </text>
<text x="358.00001237" y="2026.9999555200002" width="60.999982820000014" height="33.00001988000008" class="text">been </text>
<text x="434.00001372" y="2028.00005268" width="86.9999633999999" height="33.000019879999854" class="text">labeled </text>
<text x="534.99998153" y="2028.00005268" width="22.00001194999993" height="31.00012143999993" class="text">as </text>
<text x="569.00000479" y="2031.00002552" width="103.99999259999993" height="34.000094279999985" class="text">required </text>
<text x="683.9999770100001" y="2031.00002552" width="33.000009139999975" height="32.00005927999996" class="text">by </text>
<text x="727.00000436" y="2031.99998612" width="38.999988439999925" height="31.999922720000086" class="text">the </text>
<text x="779.99997964" y="2032.99994672" width="35.00000223999996" height="31.99994548000018" class="text">act</text>
<text x="816.00001357" y="2031.99998612" width="8.999986519999993" height="30.999984880000056" class="text">? </text>
<text x="858.00000923" y="2034.00002112" width="39.99994985000001" height="32.00005927999996" class="text">Yes </text>
<text x="912.99999518" y="2034.00002112" width="8.999986519999993" height="30.999962119999736" class="text">
</text>
<text x="987.9999999800001" y="2032.99994672" width="39.99994985000001" height="28.99994988000003" class="text">No </text>
<text x="1035.0000135300002" y="2031.99998612" width="8.999986519999993" height="27.000028679999787" class="text">
</text>
<text x="80.999999913" y="2092.00003468" width="56.00000182699999" height="34.00009428000021" class="text">Date </text>
<text x="148.999997237" y="2092.99999528" width="29.00000361299999" height="31.999922720000086" class="text">of </text>
<text x="188.00000149000002" y="2097.00006528" width="75.99998378000001" height="34.00009427999976" class="text">report
</text>
<text x="373.99999231" y="2093.99993312" width="81.00001924000003" height="29.99988772000006" class="text">Name </text>
<text x="464.99997705000004" y="2095.00003028" width="45.000020449999965" height="30.00002428000016" class="text">and </text>
<text x="520.0000157100001" y="2095.99999088" width="45.0000028799999" height="30.000047040000027" class="text">title
</text>
<text x="1033.9999818400001" y="2106.00002932" width="121.00000422999983" height="30.999962119999964" class="text">Signature
</text>
<text x="102.999997807" y="2168.99993692" width="127.00001691299997" height="34.99991832000023" class="text">3/29/95
</text>
<text x="420.00000931" y="2176.00000252" width="98.99997471000006" height="36.99995332000026" class="text">Anders </text>
<text x="546.0000138600001" y="2176.99996312" width="91.99998128999994" height="36.999953319999804" class="text">Bjrck</text>
<text x="644.00002716" y="2176.00000252" width="9.999947930000076" height="35.000054880000334" class="text">, </text>
<text x="676.00000461" y="2178.0000375199998" width="142.00000205999993" height="37.000089879999905" class="text">Managing </text>
<text x="847.00002961" y="2179.99993596" width="120.99993395000013" height="36.99995332000026" class="text">Director
</text>
<text x="788.00000475" y="2231.99998108" width="87.00001611000005" height="27.000028680000014" class="text">Formerly </text>
<text x="884.99998636" y="2231.99998108" width="45.99998186000005" height="27.000028680000014" class="text">OBD</text>
<text x="937.0000002300001" y="2231.99998108" width="7.99997239999982" height="27.000028680000014" class="text">-</text>
<text x="948.0000501300001" y="2231.99998108" width="19.999913429999992" height="27.000028680000014" class="text">69
</text>
<text x="1548.0000182499998" y="2234.00001608" width="47.000013550000176" height="18.00006463999989" class="text">FORM </text>
<text x="1604.00001832" y="2234.00001608" width="33.000009139999975" height="18.00006463999989" class="text">CRM</text>
<text x="1643.9999681699999" y="2234.00001608" width="5.000017890000208" height="18.00006463999989" class="text">-</text>
<text x="1650.00000018" y="2234.00001608" width="22.999990930000195" height="18.00006463999989" class="text">159
</text>
<text x="1614.9999452299999" y="2258.0000719199998" width="28.000008820000176" height="18.00006463999989" class="text">FEB</text>
<text x="1647.00004567" y="2258.0000719199998" width="5.0000003200000265" height="18.00006463999989" class="text">. </text>
<text x="1659.00000427" y="2258.0000719199998" width="12.99997271999996" height="18.00006463999989" class="text">84
</text>
</g>
</svg>
