<svg xmlns="http://www.w3.org/2000/svg">
<style>.text { font-size: 14px; font-family: Arial, sans-serif; }</style>
<g id="page-0" transform="translate(0, 0)">
<rect width="1757" height="2276" fill="none" stroke="black" />
<text x="896.00001869" y="126.999998848" width="164.9999402799998" height="35.999994996" class="text">Dissemination </text>
<text x="1074.0000546800002" y="129.00000426" width="77.9999593099999" height="33.00000849999999" class="text">Report
</text>
<text x="109.999998255" y="125.000004816" width="51.000006777999985" height="28.000005212000005" class="text">U.S. </text>
<text x="166.999994875" y="125.000004816" width="150.99999736500004" height="30.000001519999998" class="text">Department </text>
<text x="327.99999288" y="124.000000972" width="25.99999815000001" height="28.00000521199999" class="text">of </text>
<text x="366.00000234" y="124.000000972" width="75.99998378000004" height="28.00000521199999" class="text">Justice
</text>
<text x="105.999999756" y="168.9999987" width="133.00000148400002" height="34.00000096399998" class="text">Washington</text>
<text x="244.00001913" y="165.99999172" width="9.999983069999985" height="30.999993983999985" class="text">, </text>
<text x="260.99999562" y="165.99999172" width="41.000016680000044" height="32.999988016" class="text">DC </text>
<text x="315.00000259" y="165.00000836" width="66.99999725999999" height="33.00000850000001" class="text">20530
</text>
<text x="1530.99995391" y="112.99999738000001" width="41.00006938999991" height="17.999994084000008" class="text">OMB </text>
<text x="1578.9999815800002" y="112.99999738000001" width="26.999977129999706" height="17.999994084000008" class="text">No. </text>
<text x="1613.00000484" y="112.99999738000001" width="67.99995867000007" height="17.999994084000008" class="text">1105-0006
</text>
<text x="1450.0000049500002" y="139.999998748" width="62.999958349999815" height="22.000000355999987" class="text">Approval </text>
<text x="1520.00000943" y="138.99999718" width="50.999999749999915" height="22.000000356" class="text">Expires </text>
<text x="1578.9999815800002" y="138.000004716" width="36.999995339999714" height="22.000002632000005" class="text">Nov. </text>
<text x="1620.99997724" y="137.000003148" width="15.000018530000034" height="20.000006323999983" class="text">30</text>
<text x="1638.99996785" y="137.000003148" width="6.0000320099998135" height="20.000006323999983" class="text">, </text>
<text x="1651.00003187" y="137.000003148" width="33.000009139999975" height="22.00000263199999" class="text">1993
</text>
<text x="105.000003206" y="267.00001808" width="168.00000372400004" height="28.00001204" class="text">INSTRUCTIONS</text>
<text x="272.00001038" y="266.00001196" width="6.99999342000001" height="25.999999799999983" class="text">: </text>
<text x="286.00001479" y="266.00001196" width="62.99997591999994" height="25.999999799999983" class="text">Report </text>
<text x="359.00000891999997" y="266.00001196" width="38.99998844000004" height="25.999999799999983" class="text">must </text>
<text x="406.00000489999996" y="266.00001196" width="18.999987160000046" height="25.999999799999983" class="text">be </text>
<text x="436.00000682" y="266.00001196" width="86.00000198999993" height="25.999999799999983" class="text">submitted </text>
<text x="530.00001635" y="267.00001808" width="14.000004409999974" height="26.00002256000002" class="text">in </text>
<text x="555.00000038" y="267.00001808" width="79.99996998000006" height="26.00002256000002" class="text">duplicate </text>
<text x="644.00002716" y="267.00001808" width="13.99998684000002" height="26.00002256000002" class="text">to </text>
<text x="667.00001809" y="267.00001808" width="29.999984349999977" height="26.00002256000002" class="text">the </text>
<text x="704.0000134300001" y="268.00000144" width="110.0000070399999" height="27.000005920000007" class="text">Registration </text>
<text x="819.99999977" y="268.00000144" width="43.99998875999995" height="25.999999800000012" class="text">Unit</text>
<text x="865.00000265" y="268.00000144" width="7.000010989999964" height="25.999999800000012" class="text">, </text>
<text x="877.9999929400001" y="268.00000144" width="71.99999758000001" height="25.999999800000012" class="text">Internal </text>
<text x="957.9999453500001" y="268.00000144" width="73.00008197999989" height="25.999999800000012" class="text">Security </text>
<text x="1040.00001385" y="268.9999848" width="66.99994455000001" height="26.99998316" class="text">Section</text>
<text x="1109.00000421" y="268.9999848" width="7.000046129999873" height="25.999999800000012" class="text">, </text>
<text x="1125.99996313" y="268.9999848" width="82.00005093000004" height="25.999999800000012" class="text">Criminal </text>
<text x="1214.0000460699998" y="268.9999848" width="74.99991695000017" height="25.999999800000012" class="text">Division</text>
<text x="1291.00000883" y="268.9999848" width="6.999940709999919" height="25.999999800000012" class="text">, </text>
<text x="1303.99998155" y="269.99999092" width="112.00000014000011" height="27.000005920000035" class="text">Department </text>
<text x="1419.9999678899999" y="269.99999092" width="19.00000473" height="25.999999800000012" class="text">of </text>
<text x="1443.99999051" y="269.99999092" width="59.99998626999991" height="25.999999800000012" class="text">Justice</text>
<text x="1507.00003671" y="269.99999092" width="6.999940710000146" height="25.999999800000012" class="text">, </text>
<text x="1518.99999531" y="269.99999092" width="105.00005942999996" height="25.999999800000012" class="text">Washington</text>
<text x="1627.00000925" y="269.99999092" width="6.999958280000101" height="25.999999800000012" class="text">, </text>
<text x="1639.99998197" y="270.99999704" width="44.9999677400001" height="25.999999799999983" class="text">D.C.
</text>
<text x="107.999998127" y="299.00000908" width="61.999998696999995" height="31.999990999999966" class="text">20530. </text>
<text x="177.0000043" y="299.00000908" width="36.99999534" height="31.999990999999966" class="text">The </text>
<text x="219.99999651" y="299.00000908" width="73.00001169999999" height="31.999990999999966" class="text">original </text>
<text x="302.00001230000004" y="299.00000908" width="39.99996741999996" height="31.999990999999966" class="text">must </text>
<text x="346.99999761000004" y="299.00000908" width="24.00000504999997" height="31.999990999999966" class="text">be </text>
<text x="376.99998196" y="299.00000908" width="57.00003176000001" height="31.999990999999966" class="text">signed </text>
<text x="443.99997922" y="299.00000908" width="18.00004332000003" height="31.999990999999966" class="text">by </text>
<text x="473.00000215999995" y="299.00000908" width="17.000011630000017" height="31.999990999999966" class="text">or </text>
<text x="497.00000721000004" y="299.00000908" width="23.99996990999989" height="31.999990999999966" class="text">on </text>
<text x="525.9999774400001" y="299.00000908" width="59.00002485999994" height="31.999990999999966" class="text">behalf </text>
<text x="590.00000262" y="299.00000908" width="24.00002261999998" height="31.999990999999966" class="text">of </text>
<text x="618.9999728500001" y="299.00000908" width="27.00004740999998" height="31.999990999999966" class="text">the </text>
<text x="651.99998199" y="299.00000908" width="89.00000920999992" height="31.999990999999966" class="text">registrant</text>
<text x="740.9999912" y="299.00000908" width="9.000004090000061" height="31.999990999999966" class="text">. </text>
<text x="756.0000273" y="299.00000908" width="27.999991249999994" height="31.999990999999966" class="text">All </text>
<text x="791.00002954" y="299.00000908" width="49.999968060000015" height="31.999990999999966" class="text">items </text>
<text x="849.00002271" y="299.00000908" width="12.00001130999999" height="31.999990999999966" class="text">in </text>
<text x="868.9999888499999" y="299.00000908" width="37.000048050000146" height="31.999990999999966" class="text">this </text>
<text x="911.00005479" y="299.00000908" width="45.99998186000005" height="31.999990999999966" class="text">form </text>
<text x="967.9999635600001" y="299.00000908" width="45.00007315999983" height="31.999990999999966" class="text">must </text>
<text x="1016.0000087999999" y="299.00000908" width="22.999990930000195" height="31.999990999999966" class="text">be </text>
<text x="1045.0000317400002" y="299.00000908" width="81.99994550999986" height="31.999990999999966" class="text">answered</text>
<text x="1131.99999514" y="299.00000908" width="8.999986519999993" height="31.999990999999966" class="text">, </text>
<text x="1144.00004159" y="299.00000908" width="57.99995803000024" height="31.999990999999966" class="text">unless </text>
<text x="1210.9999861400001" y="299.00000908" width="26.999977129999706" height="31.999990999999966" class="text">the </text>
<text x="1243.99999528" y="299.00000908" width="62.00003208000021" height="31.999990999999966" class="text">answer </text>
<text x="1315.00001388" y="299.00000908" width="12.99997271999996" height="31.999990999999966" class="text">is </text>
<text x="1336.99999069" y="299.00000908" width="8.999986519999993" height="31.999990999999966" class="text">“</text>
<text x="1348.00002302" y="299.00000908" width="47.00001354999995" height="31.999990999999966" class="text">none</text>
<text x="1394.00000488" y="299.00000908" width="9.000004089999948" height="31.999990999999966" class="text">” </text>
<text x="1413.00002718" y="299.00000908" width="17.999973040000214" height="31.999990999999966" class="text">or </text>
<text x="1437.00003223" y="299.00000908" width="9.000004089999948" height="31.999990999999966" class="text">“</text>
<text x="1451.99994534" y="299.00000908" width="31.000068749999855" height="31.999990999999966" class="text">not </text>
<text x="1487.00000029" y="299.00000908" width="90.00004090000016" height="31.999990999999966" class="text">applicable</text>
<text x="1579.9999957" y="299.00000908" width="9.000004090000175" height="31.999990999999966" class="text">,</text>
<text x="1583.9999819" y="299.00000908" width="9.000004089999948" height="31.999990999999966" class="text">” </text>
<text x="1601.99997251" y="299.00000908" width="19.00000473" height="31.999990999999966" class="text">in </text>
<text x="1627.00000925" y="299.00000908" width="54.99998595000011" height="31.999990999999966" class="text">which
</text>
<text x="105.999999756" y="324.00000276000003" width="38.000002432" height="27.000005920000035" class="text">case </text>
<text x="155.00000113500002" y="324.00000276000003" width="38.000000674999995" height="27.000005920000035" class="text">such </text>
<text x="205.9999921" y="324.00000276000003" width="20.00000128000002" height="27.000005920000035" class="text">an </text>
<text x="235.99999402000003" y="324.00000276000003" width="43.00000977999997" height="27.000005920000035" class="text">entry </text>
<text x="289.00000444" y="324.00000276000003" width="45.99998185999999" height="27.000005920000035" class="text">shall </text>
<text x="343.00001140999996" y="324.00000276000003" width="19.999983710000038" height="27.000005920000035" class="text">be </text>
<text x="373.99999231" y="324.00000276000003" width="46.000017000000014" height="27.000005920000035" class="text">made </text>
<text x="431.00000650000004" y="324.00000276000003" width="15.000018529999977" height="27.000005920000035" class="text">in </text>
<text x="453.99999743" y="324.00000276000003" width="27.999991249999937" height="27.000005920000035" class="text">the </text>
<text x="492.00000688999995" y="324.00000276000003" width="101.99998193000005" height="27.000005920000035" class="text">appropriate </text>
<text x="606.00000013" y="324.00000276000003" width="49.000006650000046" height="27.000005920000035" class="text">space</text>
<text x="653.99997509" y="324.00000276000003" width="8.000025110000024" height="27.000005920000035" class="text">. </text>
<text x="671.00000429" y="324.00000276000003" width="15.00001852999992" height="27.000005920000035" class="text">If </text>
<text x="695.0000093399999" y="324.00000276000003" width="93.99997439000003" height="27.000005920000035" class="text">additional </text>
<text x="795.00001574" y="324.00000276000003" width="47.99997495999992" height="27.000005920000035" class="text">space </text>
<text x="855.00000201" y="324.00000276000003" width="15.00001852999992" height="27.000005920000035" class="text">is </text>
<text x="877.9999929400001" y="324.00000276000003" width="62.99999348999995" height="27.000005920000035" class="text">needed </text>
<text x="952.0000363300001" y="324.00000276000003" width="26.999977130000048" height="27.000005920000035" class="text">for </text>
<text x="989.0000140999999" y="324.00000276000003" width="29.999949210000068" height="27.000005920000035" class="text">any </text>
<text x="1031.00002733" y="324.00000276000003" width="34.999949530000094" height="27.000005920000035" class="text">item</text>
<text x="1069.99996306" y="324.00000276000003" width="8.000077819999888" height="27.000005920000035" class="text">, </text>
<text x="1087.0000274" y="324.00000276000003" width="50.99999975000014" height="27.000005920000035" class="text">attach </text>
<text x="1148.99995406" y="324.00000276000003" width="120.00007796" height="27.000005920000035" class="text">supplemental </text>
<text x="1279.00005023" y="324.00000276000003" width="43.99993605000009" height="27.000005920000035" class="text">sheet </text>
<text x="1333.00000449" y="324.00000276000003" width="96.99998160999985" height="27.000005920000035" class="text">identifying </text>
<text x="1440.00000431" y="324.00000276000003" width="38.00000946" height="27.000005920000035" class="text">each </text>
<text x="1489.99997237" y="324.00000276000003" width="35.00005495000005" height="27.000005920000035" class="text">item</text>
<text x="1529.0000135199998" y="324.00000276000003" width="7.999972400000161" height="27.000005920000035" class="text">.
</text>
<text x="105.000003206" y="383.99998304" width="65.99999016800001" height="29.999978760000033" class="text">Privacy </text>
<text x="183.00000117" y="383.99998304" width="30.000001920000017" height="29.999978760000033" class="text">Act </text>
<text x="219.99999651" y="383.99998304" width="89.00000921" height="29.999978760000033" class="text">Statement</text>
<text x="310.00000227000004" y="383.99998304" width="8.999986519999936" height="29.999978760000033" class="text">. </text>
<text x="324.00000668" y="383.99998304" width="50.99998217999996" height="29.999978760000033" class="text">Every </text>
<text x="381.99999985" y="383.99998304" width="101.00002051999996" height="29.999978760000033" class="text">registration </text>
<text x="492.99998587" y="383.99998304" width="86.00003713000007" height="29.999978760000033" class="text">statement</text>
<text x="580.00000198" y="383.99998304" width="8.999986519999993" height="29.999978760000033" class="text">, </text>
<text x="591.99999572" y="383.99998304" width="45.99999943" height="29.999978760000033" class="text">short </text>
<text x="647.99999579" y="383.99998304" width="36.99999533999994" height="29.999978760000033" class="text">form </text>
<text x="698.99999554" y="383.99998304" width="100.00000639999996" height="29.999978760000033" class="text">registration </text>
<text x="809.99998156" y="383.99998304" width="84.00000889" height="29.999978760000033" class="text">statement</text>
<text x="895.00000457" y="383.99998304" width="8.999986519999993" height="29.999978760000033" class="text">, </text>
<text x="906.99996317" y="383.99998304" width="125.00007828000003" height="29.999978760000033" class="text">supplemental </text>
<text x="1036.00002765" y="383.99998304" width="89.00000920999992" height="29.999978760000033" class="text">statement</text>
<text x="1125.99996313" y="383.99998304" width="8.999986519999993" height="29.999978760000033" class="text">, </text>
<text x="1138.00002715" y="383.99998304" width="61.00000038999997" height="29.999978760000033" class="text">exhibit</text>
<text x="1200.9999679300001" y="383.99998304" width="8.999986519999993" height="29.999978760000033" class="text">, </text>
<text x="1210.9999861400001" y="383.99998304" width="109.00004562999993" height="29.999978760000033" class="text">amendment</text>
<text x="1321.00004589" y="383.99998304" width="8.999986519999993" height="29.999978760000033" class="text">, </text>
<text x="1331.9999728" y="383.99998304" width="123.0000500399999" height="29.999978760000033" class="text">dissemination </text>
<text x="1465.00004105" y="383.99998304" width="56.00000007000017" height="29.999978760000033" class="text">report</text>
<text x="1521.99994982" y="383.99998304" width="9.000004089999948" height="29.999978760000033" class="text">, </text>
<text x="1532.99999972" y="383.99998304" width="43.00000978000003" height="29.999978760000033" class="text">copy </text>
<text x="1585.00001359" y="383.99998304" width="16.999958919999926" height="29.999978760000033" class="text">of </text>
<text x="1608.0000045200002" y="383.99998304" width="75.00000479999994" height="29.999978760000033" class="text">political
</text>
<text x="102.999997807" y="412.00001784" width="109.00000873299999" height="31.000030400000014" class="text">propaganda </text>
<text x="218.00000341" y="412.00001784" width="21.999994380000004" height="31.000030400000014" class="text">or </text>
<text x="246.99999121000002" y="412.00001784" width="45.00000288000001" height="31.000030400000014" class="text">other </text>
<text x="298.99998751" y="412.00001784" width="91.99999886" height="31.000030400000014" class="text">document </text>
<text x="399.00001148" y="412.00001784" width="16.999994060000006" height="31.000030400000014" class="text">or </text>
<text x="424.99999206" y="412.00001784" width="104.00001017000005" height="31.000030400000014" class="text">information </text>
<text x="539.9999818499999" y="412.00001784" width="38.00002703000007" height="31.000030400000014" class="text">filed </text>
<text x="586.9999954" y="412.00001784" width="36.00001636000002" height="31.000030400000014" class="text">with </text>
<text x="630.9999841599999" y="412.00001784" width="27.000029840000025" height="31.000030400000014" class="text">the </text>
<text x="669.9999726" y="412.00001784" width="80.00002269000004" height="31.000030400000014" class="text">Attorney </text>
<text x="756.99998871" y="412.00001784" width="71.00003616999993" height="31.000030400000014" class="text">General </text>
<text x="835.0000183" y="412.00001784" width="56.000000070000056" height="31.000030400000014" class="text">under </text>
<text x="895.00000457" y="412.00001784" width="31.999977450000074" height="31.000030400000014" class="text">this </text>
<text x="934.00004572" y="412.00001784" width="31.999977450000074" height="31.000030400000014" class="text">act </text>
<text x="968.9999952500001" y="412.00001784" width="16.999958919999813" height="31.000030400000014" class="text">is </text>
<text x="994.0000319899999" y="412.00001784" width="8.999986519999993" height="31.000030400000014" class="text">a </text>
<text x="1008.0000364" y="412.00001784" width="58.999954579999894" height="31.000030400000014" class="text">public </text>
<text x="1075.99999507" y="412.00001784" width="52.000013869999975" height="31.000030400000014" class="text">record </text>
<text x="1139.0000412699999" y="412.00001784" width="42.999921930000255" height="31.000030400000014" class="text">open </text>
<text x="1189.00000933" y="412.00001784" width="19.00000473" height="31.000030400000014" class="text">to </text>
<text x="1213.00003195" y="412.00001784" width="59.99998626999991" height="31.000030400000014" class="text">public </text>
<text x="1279.00005023" y="412.00001784" width="107.99990852000019" height="31.000030400000014" class="text">examination</text>
<text x="1391.0000503699998" y="412.00001784" width="8.999986519999993" height="31.000030400000014" class="text">, </text>
<text x="1405.00005478" y="412.00001784" width="87.9999775199999" height="31.000030400000014" class="text">inspection </text>
<text x="1501.0000047" y="412.00001784" width="30.9999633299999" height="31.000030400000014" class="text">and </text>
<text x="1541.99998624" y="412.00001784" width="72.99995898999987" height="31.000030400000014" class="text">copying </text>
<text x="1623.00002305" y="412.00001784" width="59.999986270000136" height="31.000030400000014" class="text">during
</text>
<text x="102.999997807" y="439.000001" width="30.000005434000002" height="30.00002427999999" class="text">the </text>
<text x="141.000000239" y="439.000001" width="57.999998441" height="30.00002427999999" class="text">posted </text>
<text x="207.00000622" y="439.000001" width="77.99997688000002" height="30.00002427999999" class="text">business </text>
<text x="294.00000476" y="439.000001" width="50.99999974999997" height="30.00002427999999" class="text">hours </text>
<text x="351.00000138" y="439.000001" width="21.999994380000032" height="30.00002427999999" class="text">of </text>
<text x="375.99998541" y="439.000001" width="30.000019489999943" height="30.00002427999999" class="text">the </text>
<text x="414.00001244" y="439.000001" width="109.00001049000002" height="30.00002427999999" class="text">Registration </text>
<text x="532.99998843" y="439.000001" width="39.000041150000015" height="30.00002427999999" class="text">Unit </text>
<text x="581.99999508" y="439.000001" width="11.000032330000067" height="30.00002427999999" class="text">in </text>
<text x="604.00000703" y="439.000001" width="103.99999259999993" height="30.00002427999999" class="text">Washington</text>
<text x="711.99996826" y="439.000001" width="9.000056800000038" height="30.00002427999999" class="text">, </text>
<text x="728.99999746" y="439.000001" width="45.00000288000001" height="30.00002427999999" class="text">D.C. </text>
<text x="775.99999344" y="439.000001" width="38.000027029999956" height="30.00002427999999" class="text">One </text>
<text x="821.99999287" y="439.000001" width="43.00000978000003" height="30.00002427999999" class="text">copy </text>
<text x="872.99997505" y="439.000001" width="22.00002952" height="30.00002427999999" class="text">of </text>
<text x="901.00003658" y="439.000001" width="47.00001355000006" height="30.00002427999999" class="text">every </text>
<text x="957.9999453500001" y="439.000001" width="42.00001322999992" height="30.00002427999999" class="text">such </text>
<text x="1008.0000364" y="439.000001" width="92.99999540999988" height="30.00002427999999" class="text">document </text>
<text x="1110.0000183299999" y="439.000001" width="10.999926910000113" height="30.00002427999999" class="text">is </text>
<text x="1128.00000894" y="439.000001" width="122.00001835000012" height="30.00002427999999" class="text">automatically </text>
<text x="1260.0000455000002" y="439.000001" width="77.9999593099999" height="30.00002427999999" class="text">provided </text>
<text x="1349.99996341" y="439.000001" width="14.000004409999974" height="30.00002427999999" class="text">to </text>
<text x="1372.0000456399998" y="439.000001" width="29.999931640000113" height="30.00002427999999" class="text">the </text>
<text x="1410.99998137" y="439.000001" width="80.0000051200002" height="30.00002427999999" class="text">Secretary </text>
<text x="1499.99999058" y="439.000001" width="21.999959239999953" height="30.00002427999999" class="text">of </text>
<text x="1526.99996771" y="439.000001" width="44.00004147000004" height="30.00002427999999" class="text">State </text>
<text x="1577.9999498900002" y="439.000001" width="81.00005437999994" height="30.00002427999999" class="text">pursuant </text>
<text x="1666.0000504" y="439.000001" width="16.999958920000154" height="30.00002427999999" class="text">to
</text>
<text x="105.999999756" y="467.99997364" width="63.000002274999986" height="29.999978759999976" class="text">Section </text>
<text x="178.9999974" y="467.99997364" width="9.000004090000004" height="29.999978759999976" class="text">6</text>
<text x="190.99999114" y="467.99997364" width="9.000021660000016" height="29.999978759999976" class="text">(</text>
<text x="200.0000128" y="467.99997364" width="8.999986519999993" height="29.999978759999976" class="text">b</text>
<text x="212.00000654" y="467.99997364" width="8.999986520000022" height="29.999978759999976" class="text">) </text>
<text x="223.00000373" y="467.99997364" width="22.000011949999987" height="29.999978759999976" class="text">of </text>
<text x="249.99998086000002" y="467.99997364" width="25.000019169999945" height="29.999978759999976" class="text">the </text>
<text x="282.99998999999997" y="467.99997364" width="30.000001920000045" height="29.999978759999976" class="text">Act</text>
<text x="313.99998847" y="467.99997364" width="9.000021660000016" height="29.999978759999976" class="text">, </text>
<text x="325.00000323" y="467.99997364" width="34.000005689999966" height="29.999978759999976" class="text">and </text>
<text x="364.00000924" y="467.99997364" width="60.999982820000014" height="29.999978759999976" class="text">copies </text>
<text x="431.00000650000004" y="467.99997364" width="17.00001162999996" height="29.999978759999976" class="text">of </text>
<text x="452.00000433" y="467.99997364" width="38.000009459999944" height="29.999978759999976" class="text">such </text>
<text x="499.00000030999996" y="467.99997364" width="98.00001330000003" height="29.999978759999976" class="text">documents </text>
<text x="604.9999860099999" y="467.99997364" width="25.99999815000001" height="29.999978759999976" class="text">are </text>
<text x="637.99999515" y="467.99997364" width="78.99999100000002" height="29.999978759999976" class="text">routinely </text>
<text x="732.99998366" y="467.99997364" width="43.00000978000003" height="29.999978759999976" class="text">made </text>
<text x="784.99999753" y="467.99997364" width="76.00003649000007" height="29.999978759999976" class="text">available </text>
<text x="868.9999888499999" y="467.99997364" width="17.000029200000085" height="29.999978759999976" class="text">to </text>
<text x="892.00005006" y="467.99997364" width="51.99990845000002" height="29.999978759999976" class="text">other </text>
<text x="946.0000043199999" y="467.99997364" width="81.9999455100002" height="29.999978759999976" class="text">agencies</text>
<text x="1027.99994983" y="467.99997364" width="9.000004089999948" height="29.999978759999976" class="text">, </text>
<text x="1038.9999997300001" y="467.99997364" width="109.99995432999981" height="29.999978759999976" class="text">departments </text>
<text x="1156.00000019" y="467.99997364" width="30.000054630000022" height="29.999978759999976" class="text">and </text>
<text x="1198.00001342" y="467.99997364" width="85.00002300999995" height="29.999978759999976" class="text">Congress </text>
<text x="1284.99997682" y="467.99997364" width="81.00003680999998" height="29.999978759999976" class="text">pursuant </text>
<text x="1369.99999983" y="467.99997364" width="16.999958920000154" height="29.999978759999976" class="text">to </text>
<text x="1392.99999076" y="467.99997364" width="67.00003240000024" height="29.999978759999976" class="text">Section </text>
<text x="1465.99994975" y="467.99997364" width="9.000109509999902" height="29.999978759999976" class="text">6</text>
<text x="1478.00001377" y="467.99997364" width="8.999986519999993" height="29.999978759999976" class="text">(</text>
<text x="1487.00000029" y="467.99997364" width="9.000004090000175" height="29.999978759999976" class="text">c</text>
<text x="1496.00000438" y="467.99997364" width="8.999986519999993" height="29.999978759999976" class="text">) </text>
<text x="1511.00002291" y="467.99997364" width="16.9999589199997" height="29.999978759999976" class="text">of </text>
<text x="1531.99996803" y="467.99997364" width="26.00006842999983" height="29.999978759999976" class="text">the </text>
<text x="1569.99999506" y="467.99997364" width="30.000037060000068" height="29.999978759999976" class="text">Act</text>
<text x="1600.99995839" y="467.99997364" width="9.000091939999947" height="29.999978759999976" class="text">. </text>
<text x="1611.99999072" y="467.99997364" width="63.00004620000004" height="29.999978759999976" class="text">Finally</text>
<text x="1675.99996319" y="467.99997364" width="8.999986519999993" height="29.999978759999976" class="text">,
</text>
<text x="107.000001577" y="496.9999918" width="29.00000361299999" height="29.000018159999968" class="text">the </text>
<text x="141.000000239" y="496.9999918" width="79.999992821" height="29.000018159999968" class="text">Attorney </text>
<text x="226.99998993" y="496.9999918" width="74.00002581999999" height="29.000018159999968" class="text">General </text>
<text x="310.00000227000004" y="496.9999918" width="79.99998754999996" height="29.000018159999968" class="text">transmits </text>
<text x="397.99999736" y="496.9999918" width="20.000001279999992" height="29.000018159999968" class="text">an </text>
<text x="427.00002029999996" y="496.9999918" width="63.999972470000046" height="29.000018159999968" class="text">annual </text>
<text x="492.99998587" y="496.9999918" width="58.00004587999996" height="29.000018159999968" class="text">report </text>
<text x="553.99998626" y="496.9999918" width="17.000011630000017" height="29.000018159999968" class="text">to </text>
<text x="581.99999508" y="496.9999918" width="25.00003674000004" height="29.000018159999968" class="text">the </text>
<text x="616.00001834" y="496.9999918" width="86.00000198999999" height="29.000018159999968" class="text">Congress </text>
<text x="707.00002065" y="496.9999918" width="20.999997829999984" height="29.000018159999968" class="text">on </text>
<text x="737.00002257" y="496.9999918" width="28.999970229999917" height="29.000018159999968" class="text">the </text>
<text x="772.99998622" y="496.9999918" width="133.99997695000002" height="29.000018159999968" class="text">Administration </text>
<text x="920.00004131" y="496.9999918" width="19.99993100000006" height="29.000018159999968" class="text">of </text>
<text x="943.0000322399999" y="496.9999918" width="28.999917520000054" height="29.000018159999968" class="text">the </text>
<text x="981.99996797" y="496.9999918" width="30.000054630000022" height="29.000018159999968" class="text">Act </text>
<text x="1018.99996331" y="496.9999918" width="54.00005968000016" height="29.000018159999968" class="text">which </text>
<text x="1083.9999499" y="496.9999918" width="35.00005494999982" height="29.000018159999968" class="text">lists </text>
<text x="1126.99997725" y="496.9999918" width="25.00003674000004" height="29.000018159999968" class="text">the </text>
<text x="1158.99997227" y="496.9999918" width="59.000060000000076" height="29.000018159999968" class="text">names </text>
<text x="1226.00000467" y="496.9999918" width="21.999976809999907" height="29.000018159999968" class="text">of </text>
<text x="1252.9999818" y="496.9999918" width="21.999976810000135" height="29.000018159999968" class="text">all </text>
<text x="1282.00000474" y="496.9999918" width="53.00004556000022" height="29.000018159999968" class="text">agents </text>
<text x="1345.99997721" y="496.9999918" width="87.00006882000002" height="29.000018159999968" class="text">registered </text>
<text x="1442.00005012" y="496.9999918" width="50.99998217999996" height="29.000018159999968" class="text">under </text>
<text x="1501.0000047" y="496.9999918" width="28.00000881999972" height="29.000018159999968" class="text">the </text>
<text x="1535.00004553" y="496.9999918" width="33.00000913999975" height="29.000018159999968" class="text">Act</text>
<text x="1568.9999633700002" y="496.9999918" width="8.000077819999888" height="29.000018159999968" class="text">, </text>
<text x="1582.0000415099998" y="496.9999918" width="28.000008820000176" height="29.000018159999968" class="text">the </text>
<text x="1616.9999910400002" y="496.9999918" width="63.00006376999977" height="29.000018159999968" class="text">foreign
</text>
<text x="105.000003206" y="525.00000384" width="92.00000237400002" height="28.99999539999999" class="text">principals </text>
<text x="203.00000244999998" y="525.00000384" width="41.000016680000016" height="28.99999539999999" class="text">they </text>
<text x="254.00000219999998" y="525.00000384" width="85.99998442000003" height="28.99999539999999" class="text">represent</text>
<text x="337.00001454" y="525.00000384" width="7.9999899700000014" height="28.99999539999999" class="text">, </text>
<text x="353.99999103" y="525.00000384" width="29.000005369999997" height="28.99999539999999" class="text">and </text>
<text x="392.00001806" y="525.00000384" width="28.999987799999985" height="28.99999539999999" class="text">the </text>
<text x="429.0000134" y="525.00000384" width="57.99999316999998" height="28.99999539999999" class="text">nature</text>
<text x="488.00002069000004" y="525.00000384" width="7.999972399999933" height="28.99999539999999" class="text">, </text>
<text x="502.00002509999996" y="525.00000384" width="70.00000448000009" height="28.99999539999999" class="text">sources </text>
<text x="580.00000198" y="525.00000384" width="29.99998435000009" height="28.99999539999999" class="text">and </text>
<text x="620.0000045400001" y="525.00000384" width="70.99996589" height="28.99999539999999" class="text">content </text>
<text x="695.0000093399999" y="525.00000384" width="21.999976810000135" height="28.99999539999999" class="text">of </text>
<text x="723.9999795699999" y="525.00000384" width="25.00003674000004" height="28.99999539999999" class="text">the </text>
<text x="758.99998181" y="525.00000384" width="76.00003648999996" height="28.99999539999999" class="text">political </text>
<text x="842.9999906999999" y="525.00000384" width="105.99996813000018" height="28.99999539999999" class="text">propaganda </text>
<text x="958.9999770400001" y="525.00000384" width="115.99998633999996" height="28.99999539999999" class="text">disseminated </text>
<text x="1088.00004152" y="525.00000384" width="19.99993100000006" height="28.99999539999999" class="text">or </text>
<text x="1117.99999073" y="525.00000384" width="95.00004121999996" height="28.99999539999999" class="text">distributed </text>
<text x="1219.9999726600001" y="525.00000384" width="22.00008222999986" height="28.99999539999999" class="text">by </text>
<text x="1250.0000272900002" y="525.00000384" width="45.999981859999934" height="28.99999539999999" class="text">them</text>
<text x="1297.00002327" y="525.00000384" width="7.999972400000161" height="28.99999539999999" class="text">. </text>
<text x="1316.99995427" y="525.00000384" width="36.99999533999994" height="28.99999539999999" class="text">This </text>
<text x="1359.99998162" y="525.00000384" width="57.000031760000184" height="28.99999539999999" class="text">report </text>
<text x="1423.99995409" y="525.00000384" width="17.000064340000108" height="28.99999539999999" class="text">is </text>
<text x="1446.00003632" y="525.00000384" width="77.99995931000012" height="28.99999539999999" class="text">available </text>
<text x="1534.00001384" y="525.00000384" width="16.999958919999926" height="28.99999539999999" class="text">to </text>
<text x="1559.99997685" y="525.00000384" width="30.000037060000068" height="28.99999539999999" class="text">the </text>
<text x="1596.9999721899999" y="525.00000384" width="58.000045880000016" height="28.99999539999999" class="text">public</text>
<text x="1656.00003219" y="525.00000384" width="7.999972399999933" height="28.99999539999999" class="text">.
</text>
<text x="107.999998127" y="581.00002792" width="54.000003456" height="29.000018159999968" class="text">Public </text>
<text x="169.999996824" y="581.00002792" width="89.00000569600002" height="29.000018159999968" class="text">Reporting </text>
<text x="266.00001351" y="581.00002792" width="60.999982820000014" height="29.000018159999968" class="text">Burden</text>
<text x="331.0000001" y="581.00002792" width="8.000007540000013" height="29.000018159999968" class="text">. </text>
<text x="344.00000796" y="581.00002792" width="55.00000352000001" height="29.000018159999968" class="text">Public </text>
<text x="406.00000489999996" y="581.00002792" width="81.00000167000002" height="29.000018159999968" class="text">reporting </text>
<text x="495.00001411000005" y="581.00002792" width="61.99997936999989" height="29.000018159999968" class="text">burden </text>
<text x="562.99997278" y="581.00002792" width="25.00003674000004" height="29.000018159999968" class="text">for </text>
<text x="597.00001361" y="581.00002792" width="27.999991249999994" height="29.000018159999968" class="text">this </text>
<text x="632.00001585" y="581.00002792" width="87.99997752000013" height="29.000018159999968" class="text">collection </text>
<text x="727.00000436" y="581.00002792" width="22.00001194999993" height="29.000018159999968" class="text">of </text>
<text x="753.00000251" y="581.00002792" width="103.00001362000012" height="29.000018159999968" class="text">information </text>
<text x="866.99999575" y="581.00002792" width="10.000018210000007" height="29.000018159999968" class="text">is </text>
<text x="884.99998636" y="581.00002792" width="82.9999772000001" height="29.000018159999968" class="text">estimated </text>
<text x="976.0000413800001" y="581.00002792" width="14.999913109999852" height="29.000018159999968" class="text">to </text>
<text x="1000.9999727" y="581.00002792" width="67.00004996999996" height="29.000018159999968" class="text">average </text>
<text x="1073.0000229900002" y="581.00002792" width="16.9999589199997" height="29.000018159999968" class="text">.5 </text>
<text x="1096.00001392" y="581.00002792" width="52.0000138700002" height="29.000018159999968" class="text">hours </text>
<text x="1150.99999987" y="581.00002792" width="33.000009139999975" height="29.000018159999968" class="text">per </text>
<text x="1186.00005482" y="581.00002792" width="77.9999593099999" height="29.000018159999968" class="text">response</text>
<text x="1268.00000033" y="581.00002792" width="7.999972400000161" height="29.000018159999968" class="text">, </text>
<text x="1280.99999062" y="581.00002792" width="80.00000511999997" height="29.000018159999968" class="text">including </text>
<text x="1371.0000139499998" y="581.00002792" width="24.00002262000021" height="29.000018159999968" class="text">the </text>
<text x="1403.00000897" y="581.00002792" width="35.99996364999993" height="29.000018159999968" class="text">time </text>
<text x="1443.99999051" y="581.00002792" width="30.00003705999984" height="29.000018159999968" class="text">for </text>
<text x="1475.99996796" y="581.00002792" width="87.99999509000008" height="29.000018159999968" class="text">reviewing </text>
<text x="1568.9999633700002" y="581.00002792" width="108.00001393999992" height="29.000018159999968" class="text">instructions</text>
<text x="1675.99996319" y="581.00002792" width="8.000077819999888" height="29.000018159999968" class="text">,
</text>
<text x="103.999999628" y="607.99998832" width="86.999991512" height="26.999960400000077" class="text">searching </text>
<text x="200.99999178" y="607.99998832" width="72.00001515000005" height="26.999960400000077" class="text">existing </text>
<text x="281.99999345" y="607.99998832" width="35.000002240000015" height="26.999960400000077" class="text">data </text>
<text x="329.000007" y="607.99998832" width="66.99999725999999" height="26.999960400000077" class="text">sources</text>
<text x="396.00000425999997" y="607.99998832" width="7.9999899700000014" height="26.999960400000077" class="text">, </text>
<text x="411.9999842" y="607.99998832" width="82.00001579000008" height="26.999960400000077" class="text">gathering </text>
<text x="502.99998651" y="607.99998832" width="31.00001603999999" height="26.999960400000077" class="text">and </text>
<text x="548.00000696" y="607.99998832" width="101.99998192999999" height="26.999960400000077" class="text">maintaining </text>
<text x="660.99998608" y="607.99998832" width="27.000029840000025" height="26.999960400000077" class="text">the </text>
<text x="697.9999814199999" y="607.99998832" width="34.000023260000034" height="26.999960400000077" class="text">data </text>
<text x="744.00001599" y="607.99998832" width="62.999993490000065" height="26.999960400000077" class="text">needed</text>
<text x="809.00000258" y="607.99998832" width="7.999972399999933" height="26.999960400000077" class="text">, </text>
<text x="825.00000009" y="607.99998832" width="30.000001920000045" height="26.999960400000077" class="text">and </text>
<text x="865.00000265" y="607.99998832" width="103.99999260000004" height="26.999960400000077" class="text">completing </text>
<text x="979.0000134600001" y="607.99998832" width="29.999931639999886" height="26.999960400000077" class="text">and </text>
<text x="1019.99997743" y="607.99998832" width="90.00004089999993" height="26.999960400000077" class="text">reviewing </text>
<text x="1116.99995904" y="607.99998832" width="27.000082549999888" height="26.999960400000077" class="text">the </text>
<text x="1153.99995438" y="607.99998832" width="87.00006882000002" height="26.999960400000077" class="text">collection </text>
<text x="1255.00002761" y="607.99998832" width="14.99991311000008" height="26.999960400000077" class="text">of </text>
<text x="1279.00005023" y="607.99998832" width="105.99996813000007" height="26.999960400000077" class="text">information</text>
<text x="1386.9999587500001" y="607.99998832" width="8.000077819999888" height="26.999960400000077" class="text">. </text>
<text x="1403.00000897" y="607.99998832" width="40.999981540000135" height="26.999960400000077" class="text">Send </text>
<text x="1453.99999115" y="607.99998832" width="90.99994960000004" height="26.999960400000077" class="text">comments </text>
<text x="1557.00000477" y="607.99998832" width="84.00000888999989" height="26.999960400000077" class="text">regarding </text>
<text x="1652.99997226" y="607.99998832" width="30.000037060000068" height="26.999960400000077" class="text">this
</text>
<text x="105.999999756" y="638.9999732" width="60.00000032599999" height="28.99994988000003" class="text">burden </text>
<text x="173.999995323" y="638.9999732" width="74.99998898699997" height="28.99994988000003" class="text">estimate </text>
<text x="258.00000597" y="638.9999732" width="21.999994379999976" height="28.99994988000003" class="text">or </text>
<text x="283.99998655" y="638.9999732" width="34.00000569000002" height="28.99994988000003" class="text">any </text>
<text x="325.00000323" y="638.9999732" width="50.99998218000002" height="28.99994988000003" class="text">other </text>
<text x="381.0000033" y="638.9999732" width="56.99999661999999" height="28.99994988000003" class="text">aspect </text>
<text x="443.99997922" y="638.9999732" width="22.000011949999987" height="28.99994988000003" class="text">of </text>
<text x="467.99998427" y="638.9999732" width="33.00000914000003" height="28.99994988000003" class="text">this </text>
<text x="513.00000472" y="638.9999732" width="86.00000198999999" height="28.99994988000003" class="text">collection </text>
<text x="607.00003182" y="638.9999732" width="19.999966140000083" height="28.99994988000003" class="text">of </text>
<text x="632.00001585" y="638.9999732" width="105.0000067200001" height="28.99994988000003" class="text">information</text>
<text x="740.9999912" y="638.9999732" width="8.000025110000024" height="28.99994988000003" class="text">, </text>
<text x="754.99999561" y="638.9999732" width="87.99999508999986" height="28.99994988000003" class="text">including </text>
<text x="851.00001581" y="638.9999732" width="110.00000704000001" height="28.99994988000003" class="text">suggestions </text>
<text x="963.9999773599999" y="638.9999732" width="25.00003674000004" height="28.99994988000003" class="text">for </text>
<text x="999.0000323099999" y="638.9999732" width="77.99997687999996" height="28.99994988000003" class="text">reducing </text>
<text x="1088.00004152" y="638.9999732" width="31.999995019999915" height="28.99994988000003" class="text">this </text>
<text x="1125.00003686" y="638.9999732" width="61.99992666000003" height="28.99994988000003" class="text">burden </text>
<text x="1195.99996761" y="638.9999732" width="17.00006433999988" height="28.99994988000003" class="text">to </text>
<text x="1223.9999588599999" y="638.9999732" width="50.00007348000008" height="28.99994988000003" class="text">Chief</text>
<text x="1274.00003234" y="638.9999732" width="7.999972399999933" height="28.99994988000003" class="text">, </text>
<text x="1288.99996302" y="638.9999732" width="106.99998225000013" height="28.99994988000003" class="text">Registration </text>
<text x="1405.9999634800001" y="638.9999732" width="38.000027029999956" height="28.99994988000003" class="text">Unit</text>
<text x="1445.00000463" y="638.9999732" width="7.999972400000161" height="28.99994988000003" class="text">, </text>
<text x="1462.99999524" y="638.9999732" width="80.00000511999997" height="28.99994988000003" class="text">Criminal </text>
<text x="1548.0000182499998" y="638.9999732" width="76.99994519000006" height="28.99994988000003" class="text">Division</text>
<text x="1628.00004094" y="638.9999732" width="7.999954829999979" height="28.99994988000003" class="text">, </text>
<text x="1646.00001398" y="638.9999732" width="39.99996741999985" height="28.99994988000003" class="text">U.S.
</text>
<text x="102.999997807" y="666.00000188" width="111.99999838299999" height="27.999989280000023" class="text">Department </text>
<text x="224.00000028" y="666.00000188" width="20.000018850000004" height="27.999989280000023" class="text">of </text>
<text x="248.99998430999997" y="666.00000188" width="58.00002831000003" height="27.999989280000023" class="text">Justice</text>
<text x="310.99999882" y="666.00000188" width="7.9999899700000014" height="27.999989280000023" class="text">, </text>
<text x="325.00000323" y="666.00000188" width="104.00001017" height="27.999989280000023" class="text">Washington</text>
<text x="431.00000650000004" y="666.00000188" width="7.9999899700000014" height="27.999989280000023" class="text">, </text>
<text x="446.00002503" y="666.00000188" width="45.999981859999934" height="27.999989280000023" class="text">D.C. </text>
<text x="495.00001411000005" y="666.00000188" width="52.9999928499999" height="27.999989280000023" class="text">20530</text>
<text x="551.99999316" y="666.00000188" width="8.00002510999991" height="27.999989280000023" class="text">: </text>
<text x="567.00001169" y="666.00000188" width="33.00000914000009" height="27.999989280000023" class="text">and </text>
<text x="607.99999323" y="666.00000188" width="15.999997509999957" height="27.999989280000023" class="text">to </text>
<text x="634.0000089499999" y="666.00000188" width="26.999977130000048" height="27.999989280000023" class="text">the </text>
<text x="669.9999726" y="666.00000188" width="58.000045880000016" height="27.999989280000023" class="text">Office </text>
<text x="735.00002947" y="666.00000188" width="20.999997830000098" height="27.999989280000023" class="text">of </text>
<text x="762.0000066" y="666.00000188" width="108.99997535" height="27.999989280000023" class="text">Information </text>
<text x="882.00003185" y="666.00000188" width="30.999963330000014" height="27.999989280000023" class="text">and </text>
<text x="921.9999817" y="666.00000188" width="99.00002741999992" height="27.999989280000023" class="text">Regulatory </text>
<text x="1033.9999818400001" y="666.00000188" width="63.00006376999977" height="27.999989280000023" class="text">Affairs</text>
<text x="1097.99995431" y="666.00000188" width="8.000077819999888" height="27.999989280000023" class="text">, </text>
<text x="1111.99995872" y="666.00000188" width="55.000091370000064" height="27.999989280000023" class="text">Office </text>
<text x="1180.00002281" y="666.00000188" width="15.000018530000034" height="27.999989280000023" class="text">of </text>
<text x="1203.00001374" y="666.00000188" width="122.00001835000012" height="27.999989280000023" class="text">Management </text>
<text x="1330.00003241" y="666.00000188" width="30.999963330000128" height="27.999989280000023" class="text">and </text>
<text x="1369.99999983" y="666.00000188" width="67.00003240000001" height="27.999989280000023" class="text">Budget</text>
<text x="1433.9999723" y="666.00000188" width="8.000077819999888" height="27.999989280000023" class="text">. </text>
<text x="1447.00005044" y="666.00000188" width="106.99999982000008" height="27.999989280000023" class="text">Washington</text>
<text x="1557.00000477" y="666.00000188" width="7.999972399999933" height="27.999989280000023" class="text">, </text>
<text x="1572.9999495700001" y="666.00000188" width="40.00005526999985" height="27.999989280000023" class="text">D.C. </text>
<text x="1620.99997724" y="666.00000188" width="54.00005968000005" height="27.999989280000023" class="text">20503</text>
<text x="1676.99997731" y="666.00000188" width="7.999972399999933" height="27.999989280000023" class="text">.
</text>
<text x="117.99999349599999" y="723.00000932" width="27.000005242" height="29.00001816000008" class="text">1. </text>
<text x="155.00000113500002" y="724.99997604" width="71.99998879499998" height="29.999955999999997" class="text">Name </text>
<text x="237.00000814" y="724.99997604" width="26.99997713000002" height="28.99994988000003" class="text">of </text>
<text x="269.00000316" y="728.0000399200001" width="112.99999668999999" height="32.000013760000115" class="text">registrant
</text>
<text x="270.99999626" y="763.0000037599999" width="95.00000607999999" height="34.99996383999985" class="text">JETRO</text>
<text x="375.99998541" y="761.99999764" width="9.000021659999959" height="33.000019879999854" class="text">, </text>
<text x="411.9999842" y="764.0000326400001" width="61.00001795999998" height="34.00002600000005" class="text">Los </text>
<text x="497.00000721000004" y="764.99999324" width="143.9999951599999" height="34.99998659999994" class="text">Angeles
</text>
<text x="1241.0000232" y="730.00000664" width="21.999976809999907" height="30.000024279999934" class="text">2. </text>
<text x="1270.99997241" y="730.00000664" width="136.0000227600001" height="32.000013760000115" class="text">Registration </text>
<text x="1420.9999820100002" y="728.9999777600001" width="47.00001354999972" height="30.99998488000017" class="text">No.
</text>
<text x="1303.99998155" y="763.0000037599999" width="81.00003680999998" height="27.99996651999993" class="text">1833
</text>
<text x="120.000000652" y="828.00001464" width="28.999996585000005" height="31.000030400000014" class="text">3. </text>
<text x="156.999994235" y="828.99997524" width="77.00000668500002" height="31.999991000000023" class="text">Nature </text>
<text x="249.99998086000002" y="828.99997524" width="22.00002951999997" height="30.999984880000056" class="text">of </text>
<text x="284.9999831" y="828.99997524" width="91.99999886" height="30.999984880000056" class="text">material </text>
<text x="386.00000362000003" y="828.99997524" width="9.000004089999948" height="30.999984880000056" class="text">(</text>
<text x="397.99999736" y="828.99997524" width="9.000004090000004" height="30.999984880000056" class="text">A </text>
<text x="422.99999896" y="830.00000412" width="85.00000543999994" height="32.00001376" class="text">concise </text>
<text x="516.9999909200001" y="830.00000412" width="92.99999541" height="30.999984879999943" class="text">account </text>
<text x="621.0000186599999" y="830.00000412" width="23.000008500000035" height="30.999984879999943" class="text">of </text>
<text x="653.99997509" y="831.0000102399999" width="30.000001920000045" height="31.99999099999991" class="text">the </text>
<text x="697.00000244" y="831.0000102399999" width="73.99999068" height="31.0000303999999" class="text">nature </text>
<text x="781.00001133" y="831.0000102399999" width="27.999991249999994" height="31.0000303999999" class="text">of </text>
<text x="814.99998188" y="831.0000102399999" width="35.00000224000007" height="31.0000303999999" class="text">the </text>
<text x="861.99999543" y="832.9999769599999" width="134.99999106999996" height="32.999997119999875" class="text">propaganda </text>
<text x="1016.0000087999999" y="832.9999769599999" width="96.99996404000012" height="31.99999099999991" class="text">material </text>
<text x="1122.99999105" y="832.9999769599999" width="44.999967739999875" height="30.999962119999964" class="text">filed</text>
<text x="1170.0000046" y="832.9999769599999" width="8.999986519999993" height="30.999962119999964" class="text">)
</text>
<text x="266.00001351" y="902.00001232" width="165.99997197000005" height="39.00001107999992" class="text">Material </text>
<text x="452.00000433" y="906.00001404" width="206.99998864999998" height="40.0000172" class="text">concerning </text>
<text x="682.99999803" y="909.00000964" width="98.99997470999995" height="37.99998220000009" class="text">Japan
</text>
<text x="116.000002153" y="961.9999926" width="38.000002432" height="29.999955999999997" class="text">4. </text>
<text x="162.000001583" y="961.9999926" width="46.00000118700001" height="29.000018159999968" class="text">Title </text>
<text x="219.99999651" y="961.9999926" width="26.99999470000003" height="27.999989280000023" class="text">of </text>
<text x="261.99999217" y="964.99996544" width="89.00000921000003" height="30.999962119999964" class="text">material</text>
<text x="351.00000138" y="964.99996544" width="9.000004090000004" height="27.999966520000044" class="text">, </text>
<text x="369.99998854" y="964.99996544" width="18.00000818000001" height="27.999966520000044" class="text">if </text>
<text x="396.00000425999997" y="967.0000232" width="40.99999911000003" height="30.000024280000048" class="text">any
</text>
<text x="147.00000413700002" y="1035.00000692" width="261.999990413" height="31.000030400000014" class="text">International </text>
<text x="431.00000650000004" y="1035.00000692" width="162.00002091" height="28.999995400000103" class="text">Business </text>
<text x="616.9999797500001" y="1036.99997364" width="183.00003630999993" height="29.99995600000011" class="text">Alliances
</text>
<text x="948.9999588300001" y="968.99998992" width="25.000036739999814" height="33.99998047999998" class="text">5. </text>
<text x="1000.9999727" y="968.99998992" width="63.9999724700001" height="33.99998047999998" class="text">Name </text>
<text x="1074.0000546800002" y="968.99998992" width="24.99993131999986" height="33.99998047999998" class="text">of </text>
<text x="1106.00003213" y="968.99998992" width="77.99997688000008" height="33.99998047999998" class="text">foreign </text>
<text x="1192.99999553" y="968.99998992" width="103.00001362000012" height="33.99998047999998" class="text">principal </text>
<text x="1302.00004116" y="968.99998992" width="24.999931320000087" height="33.99998047999998" class="text">on </text>
<text x="1333.00000449" y="968.99998992" width="71.00001859999998" height="33.99998047999998" class="text">whose </text>
<text x="1414.0000413" y="968.99998992" width="71.99994487000004" height="33.99998047999998" class="text">behalf </text>
<text x="1489.99997237" y="968.99998992" width="44.00004147000004" height="33.99998047999998" class="text">this </text>
<text x="1543.00000036" y="968.99998992" width="94.0000270999999" height="33.99998047999998" class="text">material </text>
<text x="1641.00001366" y="968.99998992" width="43.00002734999998" height="33.99998047999998" class="text">was
</text>
<text x="999.0000323099999" y="999.0000142" width="127.99994494000009" height="27.999989280000023" class="text">transmitted</text>
<text x="1130.99996345" y="999.0000142" width="8.000077819999888" height="27.999989280000023" class="text">.
</text>
<text x="968.9999952500001" y="1044.9999998399999" width="99.00002741999981" height="35.999992719999796" class="text">Japan </text>
<text x="1096.00001392" y="1044.9999998399999" width="166.99998609" height="35.999992719999796" class="text">External </text>
<text x="1283.00003643" y="1044.9999998399999" width="99.99993612000003" height="35.999992719999796" class="text">Trade </text>
<text x="1405.00005478" y="1044.9999998399999" width="242.99989959000004" height="35.999992719999796" class="text">Organization
</text>
<text x="972.99998145" y="1076.99999084" width="100.00004154000021" height="33.00001988000008" class="text">Tokyo</text>
<text x="1082.0000095100002" y="1076.99999084" width="9.00000408999972" height="31.999991000000136" class="text">, </text>
<text x="1120.0000365399999" y="1078.99995756" width="95.99994992000006" height="33.99995772000011" class="text">Japan
</text>
<text x="119.00000410199999" y="1132.00003156" width="28.000000035000028" height="26.000022559999934" class="text">6. </text>
<text x="155.00000113500002" y="1132.00003156" width="80.99999288500001" height="26.000022559999934" class="text">Means </text>
<text x="244.00001913" y="1132.00003156" width="23.999987480000016" height="26.000022559999934" class="text">of </text>
<text x="276.99999313" y="1132.00003156" width="142.00000205999999" height="26.000022559999934" class="text">transmission
</text>
<text x="183.00000117" y="1170.00005928" width="82.00001578999999" height="26.000090839999984" class="text">Mail
</text>
<text x="655.00000678" y="1136.00003328" width="19.999983710000038" height="29.00001816000008" class="text">7. </text>
<text x="682.99999803" y="1136.00003328" width="65.00000416" height="29.00001816000008" class="text">Dates </text>
<text x="762.0000066" y="1136.00003328" width="19.99996613999997" height="29.00001816000008" class="text">of </text>
<text x="795.00001574" y="1136.00003328" width="141.9999844900001" height="29.00001816000008" class="text">transmission
</text>
<text x="681.99998391" y="1177.99994892" width="76.00003649000007" height="32.99988331999998" class="text">June </text>
<text x="791.00002954" y="1177.99994892" width="9.99996550000003" height="30.99998487999983" class="text">7</text>
<text x="809.99998156" y="1177.99994892" width="10.000018210000007" height="30.99998487999983" class="text">, </text>
<text x="847.00002961" y="1174.99995332" width="78.99993828999993" height="29.99988772000006" class="text">1995
</text>
<text x="1175.00000492" y="1138.9999606" width="16.99997649000011" height="29.999978759999976" class="text">8. </text>
<text x="1206.99999994" y="1138.9999606" width="54.99998595000011" height="30.99998487999983" class="text">Total </text>
<text x="1268.00000033" y="1138.0" width="75.00002237000012" height="30.000024279999934" class="text">copies </text>
<text x="1354.9999813" y="1138.0" width="123.00003246999995" height="31.99999099999991" class="text">transmitted
</text>
<text x="1241.0000232" y="1176.00005048" width="38.000027029999956" height="26.000090839999984" class="text">42
</text>
<text x="116.999998703" y="1235.99996248" width="28.999996585000005" height="26.999914880000006" class="text">9. </text>
<text x="158.00000308399999" y="1235.99996248" width="44.999999366" height="26.999914880000006" class="text">List </text>
<text x="213.00000309" y="1237.0000368800002" width="111.00000359" height="27.999989280000136" class="text">addresses </text>
<text x="336.00001799" y="1237.0000368800002" width="52.99997528" height="27.00002868000024" class="text">from </text>
<text x="399.00001148" y="1237.0000368800002" width="68.00001137999999" height="27.00002868000024" class="text">which </text>
<text x="483.99998178000004" y="1237.99999748" width="92.99999540999994" height="27.999989280000136" class="text">material </text>
<text x="583.0000092" y="1237.99999748" width="41.99999565999997" height="27.000028680000014" class="text">was </text>
<text x="637.99999515" y="1238.9999580800002" width="125.00002556999993" height="27.999989280000136" class="text">transmitted</text>
<text x="770.0000317099999" y="1238.9999580800002" width="7.999954830000092" height="26.999914880000233" class="text">:
</text>
<text x="948.0000501300001" y="1238.9999580800002" width="45.99998185999982" height="28.99994988000026" class="text">10. </text>
<text x="999.99995858" y="1238.9999580800002" width="46.00008728" height="28.99994988000026" class="text">List </text>
<text x="1060.00005027" y="1238.9999580800002" width="60.999894970000014" height="28.99994988000026" class="text">states </text>
<text x="1136.99999546" y="1238.9999580800002" width="36.99999533999994" height="28.99994988000026" class="text">and </text>
<text x="1190.00004102" y="1238.9999580800002" width="113.99994053" height="28.99994988000026" class="text">territories </text>
<text x="1319.00000008" y="1238.9999580800002" width="25.999963009999874" height="28.99994988000026" class="text">of </text>
<text x="1355.99999542" y="1238.9999580800002" width="31.99997744999996" height="28.99994988000026" class="text">the </text>
<text x="1404.00002309" y="1238.9999580800002" width="73.99999067999988" height="28.99994988000026" class="text">United </text>
<text x="1501.0000047" y="1238.9999580800002" width="61.00001795999992" height="28.99994988000026" class="text">States </text>
<text x="1578.9999815800002" y="1238.9999580800002" width="17.00006433999988" height="28.99994988000026" class="text">to </text>
<text x="1614.00003653" y="1238.9999580800002" width="66.99992698000005" height="28.99994988000026" class="text">which
</text>
<text x="1004.9999589000001" y="1271.9999552" width="92.99999540999988" height="26.999892119999913" class="text">material </text>
<text x="1102.9999722" y="1271.9999552" width="43.00000978000003" height="26.999892119999913" class="text">was </text>
<text x="1158.000046" y="1271.9999552" width="125.9998991299999" height="26.999892119999913" class="text">transmitted</text>
<text x="1288.00003675" y="1271.9999552" width="7.999972400000161" height="26.999892119999913" class="text">:
</text>
<text x="147.00000413700002" y="1313.0000012799999" width="51.999994542999985" height="33.000019879999854" class="text">725 </text>
<text x="224.99999683" y="1313.99993912" width="36.99999534" height="33.999957719999884" class="text">S. </text>
<text x="282.99998999999997" y="1315.00003628" width="163.99999644000002" height="35.00005487999988" class="text">Figueroa </text>
<text x="471.99997046999994" y="1315.00003628" width="61.00001796000009" height="33.00001988000008" class="text">St.</text>
<text x="539.00002044" y="1315.00003628" width="8.999986519999993" height="33.00001988000008" class="text">, </text>
<text x="578.00000888" y="1315.00003628" width="56.999961480000024" height="33.00001988000008" class="text">Ste</text>
<text x="644.99998857" y="1315.00003628" width="8.999986519999993" height="33.00001988000008" class="text">. </text>
<text x="679.99999081" y="1315.99997412" width="80.00002269000004" height="32.99999711999999" class="text">1890
</text>
<text x="140.00000368899998" y="1348.999994" width="61.999984641000026" height="33.99995772000011" class="text">Los </text>
<text x="225.99999338" y="1348.999994" width="138.00001586" height="33.99995772000011" class="text">Angeles</text>
<text x="373.99999231" y="1348.999994" width="10.000000640000053" height="33.99995772000011" class="text">, </text>
<text x="407.999998" y="1348.999994" width="38.00002703000001" height="33.99995772000011" class="text">CA </text>
<text x="473.00000215999995" y="1348.999994" width="103.00001362000006" height="33.99995772000011" class="text">90017
</text>
<text x="967.9999635600001" y="1351.0000289999998" width="146.00004097" height="32.00005927999973" class="text">Arizona</text>
<text x="1120.99994524" y="1351.0000289999998" width="9.000109509999902" height="30.999962119999736" class="text">, </text>
<text x="1154.99998607" y="1352.99992744" width="201.00000935000003" height="32.99986055999989" class="text">California</text>
<text x="1369.99999983" y="1352.99992744" width="8.999986519999993" height="31.99992271999986" class="text">, </text>
<text x="1405.9999634800001" y="1354.0000246000002" width="54.00005968000005" height="32.00005928000019" class="text">New </text>
<text x="1489.0000461" y="1356.0000596" width="117.9999267300002" height="34.000094279999985" class="text">Mexico</text>
<text x="1616.9999910400002" y="1354.9999852" width="9.00000408999972" height="31.99994548000018" class="text">,
</text>
<text x="966.0000231700001" y="1388.9999429200002" width="123.99995873999978" height="32.99988332000021" class="text">Nevada</text>
<text x="1100.0000001199999" y="1388.9999429200002" width="9.000004090000175" height="32.99988332000021" class="text">, </text>
<text x="1130.99996345" y="1388.9999429200002" width="81.00003680999998" height="32.99988332000021" class="text">Utah</text>
<text x="1222.00001847" y="1388.9999429200002" width="9.000004090000175" height="32.99988332000021" class="text">, </text>
<text x="1256.9999679999999" y="1388.9999429200002" width="122.00001835000012" height="32.99988332000021" class="text">Hawaii
</text>
<text x="107.999998127" y="1548.00002836" width="36.000004061" height="32.00005928000019" class="text">11. </text>
<text x="158.999999634" y="1548.00002836" width="65.00000064599999" height="32.00005928000019" class="text">Types </text>
<text x="235.99999402000003" y="1548.00002836" width="24.00000504999997" height="32.00005928000019" class="text">of </text>
<text x="268.00000661" y="1548.00002836" width="111.00000359" height="32.00005928000019" class="text">recipients </text>
<text x="394.00001116000004" y="1548.00002836" width="8.999986519999936" height="32.00005928000019" class="text">(</text>
<text x="403.99999422999997" y="1548.00002836" width="51.00001732000004" height="32.00005928000019" class="text">Give </text>
<text x="465.99999117" y="1548.00002836" width="84.00000888999995" height="32.00005928000019" class="text">number </text>
<text x="562.00001137" y="1548.00002836" width="24.000005049999913" height="32.00005928000019" class="text">of </text>
<text x="593.00002741" y="1548.00002836" width="160.99995407999995" height="32.00005928000019" class="text">organizations
</text>
<text x="155.99999768499998" y="1578.0000754" width="16.00000629500002" height="31.000121440000157" class="text">in </text>
<text x="188.00000149000002" y="1579.99997384" width="52.999992849999956" height="31.99994547999995" class="text">each </text>
<text x="254.00000219999998" y="1584.0000438400002" width="70.00000448000003" height="33.00001988000008" class="text">group</text>
<text x="326.99999633" y="1582.99994668" width="9.000021660000016" height="28.99992711999994" class="text">)
</text>
<text x="949.9999905200001" y="1548.9999889599999" width="45.00005558999999" height="31.99992271999986" class="text">12. </text>
<text x="999.99995858" y="1548.9999889599999" width="46.00008728" height="31.99992271999986" class="text">List </text>
<text x="1060.9999589699999" y="1548.9999889599999" width="76.00003649000018" height="31.99992271999986" class="text">names </text>
<text x="1154.99998607" y="1548.9999889599999" width="35.00005495000005" height="31.99992271999986" class="text">and </text>
<text x="1212.00000026" y="1548.9999889599999" width="109.99997189999999" height="31.99992271999986" class="text">addresses </text>
<text x="1339.9999452" y="1548.9999889599999" width="24.00002261999998" height="31.99992271999986" class="text">of </text>
<text x="1381.9999584299999" y="1548.9999889599999" width="89.00000921000014" height="31.99992271999986" class="text">persons </text>
<text x="1487.00000029" y="1548.9999889599999" width="23.00000850000015" height="31.99992271999986" class="text">or </text>
<text x="1527.9999818299998" y="1548.9999889599999" width="156.9999678800002" height="31.99992271999986" class="text">organizations
</text>
<text x="998.00001819" y="1584.0000438400002" width="108.00001393999992" height="32.00005928000019" class="text">receiving </text>
<text x="1120.0000365399999" y="1584.0000438400002" width="36.99999534000017" height="32.00005928000019" class="text">100 </text>
<text x="1167.00005009" y="1584.0000438400002" width="73.99997310999993" height="32.00005928000019" class="text">copies </text>
<text x="1250.0000272900002" y="1584.0000438400002" width="26.999977129999706" height="32.00005928000019" class="text">or </text>
<text x="1288.99996302" y="1584.0000438400002" width="55.00007380000011" height="32.00005928000019" class="text">more</text>
<text x="1347.0000089" y="1584.0000438400002" width="8.999986519999993" height="32.00005928000019" class="text">:
</text>
<text x="968.9999952500001" y="1664.00005548" width="58.0000458799999" height="34.000094279999985" class="text">Not </text>
<text x="1050.00003206" y="1665.99997668" width="202.99994973999992" height="36.00001548" class="text">Applicable
</text>
<text x="105.999999756" y="1643.9999558400002" width="107.00000333400001" height="24.999993680000216" class="text">Libraries
</text>
<text x="371.99999921" y="1642.0000573999998" width="34.000005689999966" height="29.000086439999905" class="text">10
</text>
<text x="107.000001577" y="1678.0000501200002" width="69.000006173" height="26.000068080000347" class="text">Public </text>
<text x="189.99999459" y="1678.0000501200002" width="92.99999540999997" height="26.000068080000347" class="text">officials</text>
<text x="281.99999345" y="1678.0000501200002" width="7.000010990000021" height="26.000068080000347" class="text">. </text>
<text x="371.00000266" y="1676.00001512" width="33.99998812000001" height="27.000028680000014" class="text">10
</text>
<text x="105.000003206" y="1718.99995964" width="141.99998800400002" height="31.999922720000086" class="text">Newspapers
</text>
<text x="103.999999628" y="1745.9999883199998" width="62.00000045399999" height="24.000033079999866" class="text">Press </text>
<text x="178.00000085" y="1745.9999883199998" width="95.00000608000005" height="24.000033079999866" class="text">services </text>
<text x="281.99999345" y="1745.9999883199998" width="27.000012270000013" height="24.000033079999866" class="text">of
</text>
<text x="130.000001292" y="1782.9999416399999" width="142.00000908799998" height="27.99998927999991" class="text">associations </text>
<text x="373.99999231" y="1779.0000082" width="7.000010990000021" height="24.00005583999996" class="text">0
</text>
<text x="105.000003206" y="1815.99996152" width="137.99998423399998" height="27.99998927999991" class="text">Educational
</text>
<text x="130.000001292" y="1848.9999814" width="129.999997778" height="25.99995428000011" class="text">institutions
</text>
<text x="374.99998886" y="1846.9999464" width="7.000010990000021" height="24.99999367999999" class="text">2
</text>
<text x="107.000001577" y="1882.99993912" width="55.99999655600001" height="25.999954279999884" class="text">Civic
</text>
<text x="203.999999" y="1887.0000091200002" width="77.99999444999997" height="24.999993680000216" class="text">groups</text>
<text x="281.99999345" y="1884.99997412" width="6.0000144400000295" height="21.99999808000007" class="text">. </text>
<text x="371.00000266" y="1879.99996628" width="5.999979300000007" height="20.999923680000165" class="text">0
</text>
<text x="107.999998127" y="1923.9999852" width="65.99999719600001" height="38.000050480000255" class="text">Other </text>
<text x="184.99999427" y="1923.0000246000002" width="10.000000639999996" height="36.00001548" class="text">(</text>
<text x="196.00000903" y="1923.9999852" width="77.99999444999997" height="38.000050480000255" class="text">specify</text>
<text x="275.00000002999997" y="1923.9999852" width="9.999983070000042" height="36.00001548" class="text">) </text>
<text x="309.00000572" y="1923.9999852" width="32.99997400000001" height="36.00001548" class="text">19 </text>
<text x="365.00000579000005" y="1926.0000202" width="56.00000006999994" height="36.99995332000003" class="text">Law </text>
<text x="450.99997264" y="1926.9999580400001" width="99.00002741999992" height="37.99989116000006" class="text">firms </text>
<text x="572.99999099" y="1928.0000552" width="61.00001795999992" height="37.000089879999905" class="text">and </text>
<text x="660.99998608" y="1929.99995364" width="182.0000046199999" height="38.99998832000006" class="text">companies
</text>
<text x="120.000000652" y="1954.00000948" width="139.00000186800003" height="35.00005488000011" class="text">related </text>
<text x="284.9999831" y="1954.00000948" width="37.000030479999964" height="33.00001988000008" class="text">to </text>
<text x="345.00000451" y="1956.9999823199998" width="206.00002723999995" height="35.99999271999991" class="text">technology </text>
<text x="572.00002958" y="1956.9999823199998" width="60.99994767999999" height="33.99995771999966" class="text">and </text>
<text x="658.000014" y="1957.9999429200002" width="96.99998161000008" height="34.999918320000006" class="text">trade
</text>
<text x="1471.99998176" y="1890.00000472" width="50.999999749999915" height="149.99998484000002" class="text">18:07 </text>
<text x="1464.00000936" y="1710.99993344" width="44.9999677400001" height="63.99998199999982" class="text">FLD
</text>
<text x="1567.00002298" y="1684.99997916" width="43.00002734999998" height="24.99999367999999" class="text">T. </text>
<text x="1568.0000546699998" y="1726.00002524" width="43.99993605000009" height="41.99998391999998" class="text">OF </text>
<text x="1572.9999495700001" y="1873.00003724" width="53.00004555999976" height="127.99998675999996" class="text">JUSTICE
</text>
<text x="1605.00003244" y="1801.9999668799999" width="45.99999942999989" height="152.00001983999982" class="text">RECEIVED
</text>
<text x="1559.99997685" y="2104.99995492" width="43.00000978000003" height="16.999990240000443" class="text">FORM </text>
<text x="1615.9999769199999" y="2104.99995492" width="33.0000091400002" height="16.999990240000443" class="text">CRM</text>
<text x="1655.00001807" y="2104.99995492" width="5.0000003200000265" height="16.999990240000443" class="text">-</text>
<text x="1660.00001839" y="2104.99995492" width="19.00000473" height="16.999990240000443" class="text">159
</text>
<text x="1627.00000925" y="2126.00001516" width="28.000008819999948" height="13.999994640000295" class="text">SEP </text>
<text x="1666.9999591" y="2125.00005456" width="13.000095709999869" height="13.999994640000295" class="text">89
</text>
</g>
<g id="page-1" transform="translate(0, 2296)">
<rect width="1757" height="2276" fill="none" stroke="black" />
<text x="100.999997679" y="162.00000138000001" width="43.00000450899999" height="34.00000096400001" class="text">13. </text>
<text x="150.000006086" y="162.00000138000001" width="18.999995944999966" height="34.00000096400001" class="text">If </text>
<text x="182.00000462" y="162.00000138000001" width="33.99998812000001" height="34.00000096400001" class="text">the </text>
<text x="228.99998303" y="162.00000138000001" width="94.00002710000001" height="34.00000096400001" class="text">material </text>
<text x="330.00000355" y="162.00000138000001" width="125.99998698000007" height="34.00000096400001" class="text">transmitted </text>
<text x="469.99997737" y="162.00000138000001" width="44.000006329999906" height="34.00000096400001" class="text">was </text>
<text x="523.00002293" y="162.00000138000001" width="9.99996550000003" height="34.00000096400001" class="text">a </text>
<text x="550.0000000599999" y="162.00000138000001" width="38.99998844000004" height="34.00000096400001" class="text">film </text>
<text x="604.00000703" y="162.00000138000001" width="24.999984030000064" height="34.00000096400001" class="text">or </text>
<text x="639.00000927" y="162.00000138000001" width="56.99997904999998" height="34.00000096400001" class="text">radio </text>
<text x="709.9999751600001" y="162.00000138000001" width="25.000054309999882" height="34.00000096400001" class="text">or </text>
<text x="744.9999774" y="162.00000138000001" width="109.00004562999993" height="34.00000096400001" class="text">television </text>
<text x="866.99999575" y="162.00000138000001" width="67.99995866999984" height="34.00000096400001" class="text">script</text>
<text x="930.99996822" y="162.00000138000001" width="10.000018210000007" height="34.00000096400001" class="text">, </text>
<text x="952.0000363300001" y="162.00000138000001" width="77.9999593099999" height="34.00000096400001" class="text">furnish </text>
<text x="1044.0000000500002" y="162.00000138000001" width="34.00004082999976" height="34.00000096400001" class="text">the </text>
<text x="1093.99996811" y="162.00000138000001" width="100.00005910999994" height="34.00000096400001" class="text">following </text>
<text x="1206.99999994" y="162.00000138000001" width="132.99994526" height="34.00000096400001" class="text">information</text>
<text x="1343.0000227" y="162.00000138000001" width="10.000018210000007" height="34.00000096400001" class="text">:
</text>
<text x="937.0000002300001" y="223.000003712" width="52.00001386999986" height="23.00001102799999" class="text">Date </text>
<text x="1004.0000501999999" y="223.000003712" width="24.9999313200002" height="23.00001102799999" class="text">or </text>
<text x="1037.99996804" y="223.000003712" width="59.99998626999991" height="23.00001102799999" class="text">dates </text>
<text x="1106.9999584" y="223.000003712" width="112.00000013999988" height="23.00001102799999" class="text">broadcast </text>
<text x="1229.9999908700001" y="223.000003712" width="72.99995898999987" height="23.00001102799999" class="text">shown
</text>
<text x="97.000000937" y="225.000009124" width="69.999993938" height="29.000006780000007" class="text">Name </text>
<text x="178.00000085" y="225.99999248400002" width="25.99999815000001" height="29.999990140000023" class="text">of </text>
<text x="214.99999619" y="225.99999248400002" width="71.00001860000003" height="28.999988572000035" class="text">station</text>
<text x="290.00000099" y="225.99999248400002" width="7.9999899700000014" height="28.999988572000035" class="text">, </text>
<text x="307.00001262" y="228.00000699999998" width="141.00000551" height="31.000003088" class="text">organization</text>
<text x="453.00001845" y="226.999996328" width="7.99997239999999" height="28.99999084799998" class="text">, </text>
<text x="471.00000906" y="226.999996328" width="25.99999815000001" height="28.99999084799998" class="text">or </text>
<text x="504.0000182" y="228.00000699999998" width="82.99997719999999" height="30.000001519999955" class="text">theater </text>
<text x="595.99998192" y="228.00000699999998" width="57.00003176000007" height="28.999999951999968" class="text">using
</text>
<text x="102.000001257" y="261.00000411999997" width="7.999996998" height="28.99999539999996" class="text">(</text>
<text x="109.999998255" y="261.00000411999997" width="103.00000483500001" height="28.99999539999996" class="text">including </text>
<text x="227.99998648" y="259.999998" width="37.00003047999999" height="28.999995400000017" class="text">city </text>
<text x="280.00000035" y="259.999998" width="40.99998154000002" height="28.999995400000017" class="text">and </text>
<text x="332.9999932" y="259.999998" width="48.0000101" height="28.999995400000017" class="text">state</text>
<text x="388.99999327" y="259.999998" width="8.000007540000013" height="28.999995400000017" class="text">)
</text>
<text x="1400.9999631599999" y="222.000002144" width="108.00001394000014" height="22.999995095999992" class="text">Estimated </text>
<text x="1525.00002732" y="222.000002144" width="117.00000045999991" height="22.999995095999992" class="text">attendance
</text>
<text x="1451.0000366400002" y="261.00000411999997" width="7.999972399999706" height="27.999989279999966" class="text">(</text>
<text x="1462.99999524" y="261.00000411999997" width="31.99997744999996" height="27.999989279999966" class="text">for </text>
<text x="1507.00003671" y="259.999998" width="40.99998153999991" height="27.999989279999994" class="text">film</text>
<text x="1554.99995896" y="259.999998" width="8.000077820000115" height="27.999989279999994" class="text">(</text>
<text x="1563.00003678" y="259.999998" width="7.999972399999933" height="27.999989279999994" class="text">s</text>
<text x="1573.99996369" y="259.999998" width="8.000077819999888" height="27.999989279999994" class="text">)</text>
<text x="1583.9999819" y="259.999998" width="7.999972399999933" height="27.999989279999994" class="text">)
</text>
<text x="279.0000038" y="351.99999204" width="60.00000384000003" height="34.9999866" class="text">Not </text>
<text x="360.00000547" y="351.99999204" width="205.9999921" height="36.999998840000046" class="text">Applicable
</text>
<text x="102.000001257" y="501.99997688" width="42.000000931" height="32.99997436000001" class="text">14. </text>
<text x="148.999997237" y="501.99997688" width="55.99999831300002" height="32.99997436000001" class="text">Have </text>
<text x="218.99999996" y="501.99997688" width="41.999995659999996" height="32.99997436000001" class="text">two </text>
<text x="269.99999971" y="501.99997688" width="74.00000825000001" height="32.99997436000001" class="text">copies </text>
<text x="355.99998413" y="501.99997688" width="24.00002262000004" height="32.99997436000001" class="text">of </text>
<text x="387.00000017" y="501.99997688" width="42.00001322999998" height="32.99997436000001" class="text">this </text>
<text x="443.99997922" y="501.99997688" width="91.00000231000001" height="32.99997436000001" class="text">material </text>
<text x="544.00002076" y="501.99997688" width="50.99999975000003" height="32.99997436000001" class="text">been </text>
<text x="611.0000180200001" y="501.99997688" width="48.999989079999864" height="32.99997436000001" class="text">filed </text>
<text x="669.9999726" y="501.99997688" width="49.000006650000046" height="32.99997436000001" class="text">with </text>
<text x="733.99999778" y="501.99997688" width="33.00000914000009" height="32.99997436000001" class="text">the </text>
<text x="779.0000182299999" y="501.99997688" width="138.99997727000016" height="32.99997436000001" class="text">Department </text>
<text x="926.9999820200001" y="501.99997688" width="24.00002261999998" height="32.99997436000001" class="text">of </text>
<text x="959.99999116" y="501.99997688" width="77.99997688000008" height="32.99997436000001" class="text">Justice</text>
<text x="1040.00001385" y="501.99997688" width="8.999986519999993" height="32.99997436000001" class="text">?
</text>
<text x="1088.99996779" y="496.9999918" width="34.000023260000034" height="27.00000591999998" class="text">Yes </text>
<text x="1134.99994965" y="496.9999918" width="8.000077820000115" height="27.00000591999998" class="text">☑
</text>
<text x="1191.9999814100001" y="496.00000844" width="39.000041150000015" height="24.000010319999944" class="text">No
</text>
<text x="100.000002886" y="564.99999828" width="43.000002752" height="30.000001519999955" class="text">15. </text>
<text x="158.00000308399999" y="566.0000044000001" width="46.99999246600004" height="31.000007640000035" class="text">Has </text>
<text x="217.00000686" y="566.0000044000001" width="38.99998843999998" height="30.000024280000048" class="text">this </text>
<text x="274.00000348" y="566.0000044000001" width="90.00000576000002" height="30.000024280000048" class="text">material </text>
<text x="372.99999576000005" y="566.9999877600001" width="50.99999974999997" height="29.99997876000009" class="text">been </text>
<text x="438.99999647000004" y="566.9999877600001" width="77.99999445000003" height="29.99997876000009" class="text">labeled </text>
<text x="534.00000255" y="566.9999877600001" width="21.99997681000002" height="29.99997876000009" class="text">as </text>
<text x="567.99999067" y="569.0" width="94.00000953000006" height="31.000007640000035" class="text">required </text>
<text x="674.9999904900001" y="568.00001664" width="22.00001194999993" height="30.000024280000048" class="text">by </text>
<text x="711.99996826" y="569.0" width="34.0000408300001" height="31.000007640000035" class="text">the </text>
<text x="758.99998181" y="569.0" width="34.00004082999999" height="30.000001519999955" class="text">act</text>
<text x="791.99999095" y="569.0" width="9.000004090000061" height="30.000001519999955" class="text">?
</text>
<text x="842.9999906999999" y="564.00001492" width="33.00000914000009" height="27.000005920000035" class="text">Yes </text>
<text x="906.99996317" y="564.00001492" width="8.000077820000001" height="27.000005920000035" class="text">☑ </text>
<text x="948.9999588300001" y="564.00001492" width="35.00005494999982" height="27.000005920000035" class="text">No </text>
<text x="999.0000323099999" y="564.00001492" width="7.999972400000047" height="27.000005920000035" class="text">☐
</text>
<text x="97.000000937" y="631.9999758800001" width="51.99999630000001" height="29.999955999999997" class="text">Date </text>
<text x="166.00000008199999" y="635.00003976" width="22.00000140800003" height="30.000047040000027" class="text">of </text>
<text x="200.0000128" y="638.0000126" width="67.99999381" height="31.999991000000023" class="text">report
</text>
<text x="1045.0000317400002" y="638.0000126" width="103.99992231999977" height="31.0000303999999" class="text">Signature
</text>
<text x="91.99999886" y="682.99999212" width="126.00000455" height="27.999989280000023" class="text">6.7.95
</text>
<text x="389.99998982" y="628.9999802799999" width="67.00001483" height="22.999958679999963" class="text">Name </text>
<text x="471.99997046999994" y="628.9999802799999" width="35.00000224000013" height="22.999958679999963" class="text">and </text>
<text x="520.0000157100001" y="630.0000091600001" width="42.99995706999994" height="23.000026960000014" class="text">title
</text>
<text x="381.99999985" y="668.9999974799999" width="122.00001835" height="27.999989280000023" class="text">Noboru </text>
<text x="532.99998843" y="668.9999974799999" width="115.00000735999993" height="27.999989280000023" class="text">Yumoto
</text>
<text x="385.00000707" y="707.9999858" width="182.00000461999997" height="35.99999271999991" class="text">Executive </text>
<text x="591.99999572" y="710.0000207999999" width="164.00003158000004" height="37.000021599999855" class="text">Director</text>
<text x="763.9999997" y="709.0000146799999" width="10.000000640000053" height="34.99998659999994" class="text">, </text>
<text x="804.0000022600001" y="710.9999813999999" width="200.99995664000005" height="36.99995331999992" class="text">Technology
</text>
<text x="1069.00003679" y="757.9999959200001" width="71.99994487000004" height="129.99995348000004" class="text">on </text>
<text x="1218.00003227" y="760.99996876" width="263.99996770000007" height="131.99998848000007" class="text">Yamoto
</text>
</g>
</svg>
