<svg xmlns="http://www.w3.org/2000/svg">
<style>.text { font-size: 14px; font-family: Arial, sans-serif; }</style>
<g id="page-0" transform="translate(0, 0)">
<rect width="1757" height="2276" fill="none" stroke="black" />
<text x="1521.00004112" y="117.99999839200001" width="39.999949849999894" height="18.000003188000008" class="text">OMB </text>
<text x="1568.0000546699998" y="116.99999682400001" width="29.99993164000034" height="15.999997776" class="text">No. </text>
<text x="1605.00003244" y="116.99999682400001" width="65.99991286" height="17.999994083999994" class="text">1105-0006
</text>
<text x="882.00003185" y="138.000004716" width="162.99999989000014" height="30.000001519999998" class="text">Dissemination </text>
<text x="1055.99995865" y="138.000004716" width="83.00008261999983" height="29.000006780000007" class="text">Report
</text>
<text x="88.000000361" y="146.000003604" width="50.999994478999994" height="29.000006779999993" class="text">U.S. </text>
<text x="148.00000068699998" y="146.000003604" width="150.999986823" height="31.000003088" class="text">Department </text>
<text x="305.9999985" y="145.000002036" width="26.999994700000002" height="28.99999995200001" class="text">of </text>
<text x="346.00000106" y="145.000002036" width="79.99998755000001" height="30.000001520000012" class="text">Justice
</text>
<text x="84.999998412" y="191.999993796" width="133.000004998" height="34.99998660000003" class="text">Washington</text>
<text x="223.00000373" y="188.000003456" width="10.000000639999968" height="30.999996260000017" class="text">, </text>
<text x="239.99999779" y="188.000003456" width="40.99999911000003" height="31.999997828000005" class="text">DC </text>
<text x="294.00000476" y="186.99999961199998" width="66.99999725999999" height="33.99999868799998" class="text">20530
</text>
<text x="88.999996911" y="294.99998459999995" width="165.000005289" height="30.999984879999943" class="text">INSTRUCTIONS</text>
<text x="254.00000219999998" y="292.99999512" width="7.9999899700000014" height="27.999989280000023" class="text">: </text>
<text x="266.00001351" y="292.99999512" width="64.99998659000005" height="28.99999539999999" class="text">Report </text>
<text x="343.00001140999996" y="292.00001176" width="39.99998499000003" height="28.00001204" class="text">must </text>
<text x="387.99999672" y="292.00001176" width="20.000001279999992" height="28.00001204" class="text">be </text>
<text x="416.00000554" y="292.00001176" width="90.00000575999996" height="30.00002427999999" class="text">submitted </text>
<text x="514.99999782" y="289.99999952" width="15.000018530000034" height="28.00001204" class="text">in </text>
<text x="539.00002044" y="290.99998288" width="83.99999132000005" height="29.999978760000033" class="text">duplicate </text>
<text x="630.0000227500001" y="288.99999340000005" width="15.999997509999957" height="27.99998928000008" class="text">to </text>
<text x="655.99996819" y="288.99999340000005" width="26.000015719999965" height="27.99998928000008" class="text">the </text>
<text x="688.99997733" y="288.99999340000005" width="111.00003873000003" height="29.999978760000033" class="text">Registration </text>
<text x="809.00000258" y="287.00000392" width="42.999974640000005" height="27.999989279999966" class="text">Unit</text>
<text x="851.00001581" y="287.00000392" width="7.999972399999933" height="27.999989279999966" class="text">, </text>
<text x="865.00000265" y="287.00000392" width="70.99998345999984" height="30.000001519999955" class="text">Internal </text>
<text x="944.9999726299999" y="285.99999779999996" width="72.0000502900001" height="30.000001519999955" class="text">Security </text>
<text x="1028.9999815200001" y="285.00001444" width="64.99998658999993" height="30.000024279999963" class="text">Section</text>
<text x="1097.00004561" y="284.00000832" width="7.999972400000161" height="28.00001204" class="text">, </text>
<text x="1111.99995872" y="284.00000832" width="83.00008262000006" height="29.000018159999996" class="text">Criminal </text>
<text x="1200.9999679300001" y="284.00000832" width="78.99999099999991" height="30.000001520000012" class="text">Division</text>
<text x="1282.00000474" y="281.99999608" width="7.999972400000161" height="27.999989280000023" class="text">, </text>
<text x="1297.00002327" y="283.00000220000004" width="110.99998602000005" height="30.00000152000004" class="text">Department </text>
<text x="1413.00002718" y="281.00001272" width="20.99994512000012" height="28.000012039999973" class="text">of </text>
<text x="1438.9999726199999" y="281.00001272" width="57.000031760000184" height="30.000024279999963" class="text">Justice</text>
<text x="1499.99999058" y="280.0000066" width="7.999972399999933" height="28.00001204000003" class="text">, </text>
<text x="1513.99997742" y="280.0000066" width="103.00001362000012" height="30.000001520000012" class="text">Washington</text>
<text x="1623.00002305" y="279.00000048" width="7.999972399999933" height="28.000012039999973" class="text">, </text>
<text x="1634.9999816499999" y="277.99999436" width="44.00004147000004" height="27.999989280000023" class="text">D.C.
</text>
<text x="86.00000199" y="321.99999052" width="66.99999374599999" height="27.999989280000023" class="text">20530. </text>
<text x="159.999996184" y="321.00000716" width="31.999991506000015" height="26.000022560000048" class="text">The </text>
<text x="201.99998833" y="321.00000716" width="73.00001169999996" height="28.00001204" class="text">original </text>
<text x="283.99998655" y="320.00000104" width="40.000020129999996" height="27.00000591999998" class="text">must </text>
<text x="331.99999665" y="319.00001768" width="19.00000473" height="26.00002255999999" class="text">be </text>
<text x="361.00000202" y="319.00001768" width="56.99999661999999" height="28.00003479999998" class="text">signed </text>
<text x="428.00001685" y="317.9999888" width="18.999969589999978" height="25.999977039999976" class="text">by </text>
<text x="457.00000465" y="317.9999888" width="19.000004729999944" height="27.00000591999998" class="text">or </text>
<text x="481.99998867999994" y="317.00000544" width="24.00002262000004" height="26.00002255999999" class="text">on </text>
<text x="513.9999836999999" y="317.00000544" width="57.000014190000115" height="28.000012039999945" class="text">behalf </text>
<text x="579.000023" y="315.99997656" width="18.99995201999991" height="25.999977039999976" class="text">of </text>
<text x="602.9999929100001" y="315.99997656" width="25.99999815000001" height="25.999977039999976" class="text">the </text>
<text x="639.99998825" y="315.99997656" width="88.00003023" height="27.999989280000023" class="text">registrant</text>
<text x="728.00001848" y="314.00000983999996" width="7.000010989999964" height="26.00002255999999" class="text">. </text>
<text x="742.00002289" y="314.00000983999996" width="28.99997023000003" height="26.00002255999999" class="text">All </text>
<text x="777.99998654" y="314.00000983999996" width="50.000038339999946" height="28.00001204" class="text">items </text>
<text x="835.0000183" y="313.00000372" width="14.000004410000088" height="25.999999800000012" class="text">in </text>
<text x="858.00000923" y="313.00000372" width="33.000009139999975" height="25.999999800000012" class="text">this </text>
<text x="900.00000489" y="312.00002036" width="39.999967420000075" height="26.000022560000048" class="text">form </text>
<text x="954.9999908399999" y="312.00002036" width="40.00005527000019" height="27.000005920000035" class="text">must </text>
<text x="1003.0000185099999" y="310.99999148" width="19.000004730000228" height="25.999977040000033" class="text">be </text>
<text x="1031.00002733" y="310.99999148" width="83.99999131999994" height="26.99998316" class="text">answered</text>
<text x="1117.99999073" y="310.00000812" width="7.000046129999873" height="25.999999800000012" class="text">, </text>
<text x="1133.00000926" y="310.00000812" width="53.99995425999987" height="28.00001204" class="text">unless </text>
<text x="1195.99996761" y="308.99997923999996" width="30.00003705999984" height="25.99997703999992" class="text">the </text>
<text x="1231.0000225600002" y="308.99997923999996" width="66.00000070999977" height="27.999966519999987" class="text">answer </text>
<text x="1302.99994986" y="307.99999588" width="14.000004409999974" height="25.999999799999955" class="text">is </text>
<text x="1325.99995836" y="306.99998976" width="7.000046130000101" height="25.999977040000033" class="text">"</text>
<text x="1336.99999069" y="306.99998976" width="47.00001354999995" height="26.99998316" class="text">none</text>
<text x="1382.99997255" y="306.99998976" width="7.000046129999873" height="25.999977040000033" class="text">" </text>
<text x="1403.00000897" y="306.99998976" width="19.00000473" height="26.99998316" class="text">or 
</text>
<text x="1429.9999861" y="306.00000639999996" width="7.000046130000101" height="25.999999799999955" class="text">"</text>
<text x="1441.0000184300002" y="306.00000639999996" width="33.00000913999975" height="25.999999799999955" class="text">not </text>
<text x="1478.00001377" y="306.00000639999996" width="94.00000952999994" height="28.000012039999945" class="text">applicable</text>
<text x="1576.0000095" y="305.00002304" width="6.999958279999873" height="26.00002255999999" class="text">,</text>
<text x="1577.9999498900002" y="303.99999416" width="7.000063699999828" height="25.999999800000012" class="text">" </text>
<text x="1596.00004592" y="303.99999416" width="14.999913109999852" height="25.999999800000012" class="text">in </text>
<text x="1623.00002305" y="303.99999416" width="50.999999749999915" height="27.000005920000035" class="text">which
</text>
<text x="86.99999853999999" y="351.99999204" width="37.99999540400002" height="27.00000591999998" class="text">case </text>
<text x="137.00000174" y="351.00000868" width="35.999997033" height="27.00000591999998" class="text">such </text>
<text x="187.00000494" y="351.00000868" width="20.000001279999992" height="27.00000591999998" class="text">an </text>
<text x="217.00000686" y="349.9999798" width="46.99997841000001" height="27.999989280000023" class="text">entry </text>
<text x="274.00000348" y="349.9999798" width="44.99998531" height="28.99997264000001" class="text">shall </text>
<text x="325.00000323" y="348.99999643999996" width="20.000001279999992" height="27.00000591999998" class="text">be </text>
<text x="359.00000891999997" y="348.99999643999996" width="44.99998531" height="28.99999539999999" class="text">made </text>
<text x="416.00000554" y="348.00001308" width="9.999983069999985" height="27.00000591999998" class="text">in </text>
<text x="438.99999647000004" y="348.00001308" width="26.999994699999945" height="27.00000591999998" class="text">the </text>
<text x="476.00000937999994" y="348.00001308" width="105.0000067200001" height="28.99999539999999" class="text">appropriate </text>
<text x="588.9999885" y="346.00002359999996" width="52.000013869999975" height="28.00003479999998" class="text">space</text>
<text x="641.00000237" y="346.00002359999996" width="7.999972400000047" height="27.00000591999998" class="text">. </text>
<text x="658.000014" y="344.99999472" width="15.999997510000071" height="27.000005920000035" class="text">If </text>
<text x="681.00000493" y="346.00002359999996" width="94.99998850999998" height="29.000018159999968" class="text">additional </text>
<text x="781.00001133" y="344.00001136000003" width="47.99997496000003" height="28.000034800000037" class="text">space </text>
<text x="840.9999976" y="342.99998247999997" width="15.000018530000034" height="27.00000591999998" class="text">is </text>
<text x="865.00000265" y="342.99998247999997" width="61.999979370000005" height="27.999989280000023" class="text">needed </text>
<text x="939.00004604" y="341.99999912" width="25.999963009999874" height="27.000005920000035" class="text">for </text>
<text x="975.0000272599999" y="341.99999912" width="30.999963330000014" height="27.000005920000035" class="text">any </text>
<text x="1013.99996299" y="340.99999299999996" width="41.00006939000002" height="26.99998316" class="text">item</text>
<text x="1056.99997277" y="340.99999299999996" width="7.999972399999933" height="26.99998316" class="text">, </text>
<text x="1074.0000546800002" y="340.99999299999996" width="50.99998217999973" height="28.999972639999953" class="text">attach </text>
<text x="1135.99998134" y="340.00000964" width="124.00006416000019" height="27.999989279999966" class="text">supplemental </text>
<text x="1268.00000033" y="339.00002628" width="45.999999430000116" height="29.000018159999968" class="text">sheet </text>
<text x="1321.99997216" y="337.9999974" width="97.00006946000008" height="29.000018160000025" class="text">identifying </text>
<text x="1433.00004603" y="337.00001404" width="36.99999533999994" height="28.000034800000037" class="text">each </text>
<text x="1481.99999997" y="335.99998516" width="39.000041150000015" height="27.000005920000035" class="text">item</text>
<text x="1523.99999563" y="335.99998516" width="7.999972399999933" height="27.000005920000035" class="text">.
</text>
<text x="88.999996911" y="410.0000056" width="67.00000077399999" height="31.00000763999998" class="text">Privacy </text>
<text x="162.000001583" y="408.99997672" width="32.999993327" height="28.99997264000001" class="text">Act </text>
<text x="201.99998833" y="408.99997672" width="94.00000953" height="30.99996212000002" class="text">Statement</text>
<text x="293.00000821" y="407.99999335999996" width="8.000007540000013" height="28.999995399999932" class="text">. </text>
<text x="304.00000539999996" y="407.99999335999996" width="55.00000352000001" height="31.00000763999992" class="text">Every </text>
<text x="367.99999544" y="407.00001" width="101.00002052000002" height="31.00000763999992" class="text">registration </text>
<text x="478.00000248000003" y="406.00000388" width="89.99998818999995" height="31.000007640000035" class="text">statement</text>
<text x="567.99999067" y="403.99999164" width="8.000025110000024" height="28.999995400000046" class="text">, </text>
<text x="580.00000198" y="403.99999164" width="46.99999598000011" height="30.000001520000012" class="text">short </text>
<text x="632.00001585" y="403.99999164" width="40.99998154000002" height="30.000001520000012" class="text">form </text>
<text x="683.9999770100001" y="403.99999164" width="101.00002051999991" height="30.99998488" class="text">registration </text>
<text x="793.9999840500001" y="401.9999794" width="91.0000023099999" height="30.999962119999964" class="text">statement</text>
<text x="883.99997224" y="400.99999604" width="8.000077820000001" height="28.99999539999999" class="text">, </text>
<text x="896.00001869" y="400.99999604" width="123.9999587399999" height="31.00000763999998" class="text">supplemental </text>
<text x="1023.99996363" y="399.99998992" width="89.00000921000003" height="30.99998488" class="text">statement</text>
<text x="1112.99997284" y="398.0000232" width="7.999972399999933" height="29.000018159999968" class="text">, </text>
<text x="1124.00002274" y="399.00000656" width="66.99992698000005" height="31.00000763999998" class="text">exhibit</text>
<text x="1189.00000933" y="396.99999432000004" width="7.999972399999933" height="28.999995400000046" class="text">, </text>
<text x="1200.00005923" y="398.0000232" width="109.99995433000004" height="31.000030400000014" class="text">amendment</text>
<text x="1311.00002768" y="396.00001096000005" width="7.999972400000161" height="29.00001816000008" class="text">, </text>
<text x="1325.00003209" y="396.00001096000005" width="124.99997286000007" height="31.000007640000035" class="text">dissemination </text>
<text x="1459.00000904" y="394.99998208" width="57.00001419" height="30.999962119999964" class="text">report</text>
<text x="1513.99997742" y="393.99999872" width="7.999972399999933" height="28.99999539999999" class="text">, </text>
<text x="1526.99996771" y="392.9999926" width="41.999995660000195" height="28.999972639999953" class="text">copy </text>
<text x="1576.0000095" y="392.9999926" width="21.999976810000135" height="28.999972639999953" class="text">of </text>
<text x="1601.99997251" y="392.9999926" width="76.00003649000018" height="30.999984879999943" class="text">political
</text>
<text x="86.00000199" y="437.99999488000003" width="107.99999637" height="29.000018160000025" class="text">propaganda </text>
<text x="201.99998833" y="437.00001152000004" width="20.000001279999992" height="28.000034800000037" class="text">or </text>
<text x="231.00001127000002" y="435.99998264" width="46.99997840999998" height="28.99997264000001" class="text">other </text>
<text x="281.99999345" y="435.99998264" width="92.99999541" height="29.999978759999976" class="text">document </text>
<text x="381.0000033" y="434.99999928" width="20.99999783000004" height="27.999989280000023" class="text">or </text>
<text x="410.99998765" y="434.99999928" width="105.00004186000001" height="29.999978759999976" class="text">information </text>
<text x="525.00001603" y="433.0000098" width="38.99998844000004" height="27.999989279999966" class="text">filed </text>
<text x="572.99999099" y="433.0000098" width="40.00002012999994" height="29.000018159999968" class="text">with </text>
<text x="623.9999907399999" y="432.00000368" width="24.000005050000027" height="28.00001204" class="text">the </text>
<text x="656.99999988" y="432.00000368" width="78.00002958999994" height="30.000024280000048" class="text">Attorney </text>
<text x="742.9999842999999" y="430.99999756" width="76.00003649000007" height="30.000001520000012" class="text">General </text>
<text x="823.00000699" y="430.0000142" width="54.00000697000007" height="30.00002427999999" class="text">under </text>
<text x="887.00003217" y="428.99998532" width="31.99999502000003" height="27.999989280000023" class="text">this </text>
<text x="925.00004163" y="428.99998532" width="26.999994700000002" height="28.99999539999999" class="text">act </text>
<text x="958.9999770400001" y="428.00000195999996" width="16.00005021999982" height="28.000012039999945" class="text">is </text>
<text x="981.00005927" y="428.00000195999996" width="7.999954829999979" height="28.000012039999945" class="text">a </text>
<text x="995.9999723799999" y="428.00000195999996" width="61.000000390000196" height="29.999978759999976" class="text">public </text>
<text x="1063.0000047800002" y="428.00000195999996" width="57.00003175999973" height="29.999978759999976" class="text">record </text>
<text x="1129.0000230599999" y="426.00001248" width="43.00002735000021" height="27.999989280000023" class="text">open </text>
<text x="1180.00002281" y="426.00001248" width="16.999958919999926" height="27.999989280000023" class="text">to </text>
<text x="1204.99995413" y="426.00001248" width="57.000031759999956" height="30.000001519999955" class="text">public </text>
<text x="1269.00003202" y="424.9999836" width="112.99992640999994" height="30.000001520000012" class="text">examination</text>
<text x="1385.00001836" y="424.00000024" width="7.999972399999933" height="27.999989279999966" class="text">, </text>
<text x="1400.0000368899998" y="424.00000024" width="91.99998129000028" height="30.000001520000012" class="text">inspection 
</text>
<text x="1498.99995889" y="421.999988" width="31.000068750000082" height="27.999989279999966" class="text">and </text>
<text x="1541.99998624" y="421.999988" width="68.9999727899999" height="29.999978759999976" class="text">copying </text>
<text x="1619.00003685" y="421.00000464" width="58.999972150000076" height="28.99999539999999" class="text">during
</text>
<text x="88.999996911" y="466.00000692000003" width="28.000001792000006" height="28.00001204" class="text">the </text>
<text x="124.99999394400001" y="466.00000692000003" width="55.999996555999985" height="30.000024280000048" class="text">posted </text>
<text x="191.99998769" y="465.0000008" width="79.00000856999998" height="30.000001520000012" class="text">business </text>
<text x="279.0000038" y="464.00001744" width="50.99999974999997" height="30.000024280000048" class="text">hours </text>
<text x="338.00001109" y="462.99998855999996" width="20.999997829999984" height="27.999989279999966" class="text">of </text>
<text x="365.00000579000005" y="462.99998855999996" width="28.000008819999948" height="27.999989279999966" class="text">the </text>
<text x="397.99999736" y="462.99998855999996" width="111.00002115999996" height="29.999978759999976" class="text">Registration </text>
<text x="518.00002261" y="460.99999908" width="41.99999565999997" height="27.999989280000023" class="text">Unit </text>
<text x="567.99999067" y="460.99999908" width="15.999997510000071" height="27.999989280000023" class="text">in </text>
<text x="593.00002741" y="460.99999908" width="105.99996812999996" height="30.000001520000012" class="text">Washington</text>
<text x="702.00002033" y="458.99998684" width="7.999954830000092" height="27.999989280000023" class="text">, </text>
<text x="718.00000027" y="458.99998684" width="40.00002013000005" height="27.999989280000023" class="text">D.C. </text>
<text x="763.9999997" y="458.99998684" width="38.999970870000084" height="28.99997264000001" class="text">One </text>
<text x="810.99999568" y="458.00000348000003" width="42.00001322999992" height="27.999989280000023" class="text">copy </text>
<text x="863.99998853" y="458.00000348000003" width="19.999983710000038" height="27.999989280000023" class="text">of </text>
<text x="888.9999725600001" y="457.00002012000004" width="47.000013549999835" height="29.00001816000008" class="text">every </text>
<text x="948.9999588300001" y="457.00002012000004" width="40.00005526999985" height="29.00001816000008" class="text">such </text>
<text x="998.00001819" y="457.00002012000004" width="92.99999540999988" height="30.000024280000048" class="text">document </text>
<text x="1097.99995431" y="455.00000788" width="11.000049900000022" height="28.00001204" class="text">is </text>
<text x="1119.0000048499999" y="455.00000788" width="123.00005004000013" height="30.00002427999999" class="text">automatically </text>
<text x="1252.9999818" y="454.00000176" width="78.99999100000014" height="30.000001519999955" class="text">provided </text>
<text x="1340.99997689" y="452.99999564" width="15.000018530000034" height="28.99999539999999" class="text">to </text>
<text x="1366.00001363" y="451.99998952000004" width="29.000022940000008" height="27.999989280000023" class="text">the </text>
<text x="1405.00005478" y="451.99998952000004" width="79.99989970000001" height="30.00000152000007" class="text">Secretary </text>
<text x="1497.0000185" y="451.00000616" width="19.99993100000006" height="27.999989279999966" class="text">of </text>
<text x="1526.00004144" y="451.00000616" width="39.999967420000075" height="29.000018160000025" class="text">State 
</text>
<text x="1574.99999538" y="450.0000228" width="81.99996308000004" height="29.000018160000025" class="text">pursuant </text>
<text x="1664.00000459" y="448.99999392" width="10.000018210000007" height="27.999989280000023" class="text">to
</text>
<text x="88.999996911" y="492.00000672000004" width="66.00000422400002" height="29.00001816000008" class="text">Section </text>
<text x="165.000003532" y="491.00002336" width="7.9999952409999935" height="27.00000591999998" class="text">6</text>
<text x="176.00000775" y="491.00002336" width="7.9999899700000014" height="27.00000591999998" class="text">(</text>
<text x="183.99999772" y="491.00002336" width="7.9999899700000014" height="27.00000591999998" class="text">b</text>
<text x="194.99999491" y="491.00002336" width="8.000007539999984" height="27.00000591999998" class="text">) </text>
<text x="208.00000277" y="491.00002336" width="18.99998715999999" height="27.00000591999998" class="text">of </text>
<text x="234.00000092000002" y="491.00002336" width="27.999991249999965" height="28.000034800000037" class="text">the </text>
<text x="266.00001351" y="489.99999448" width="34.00000569000002" height="27.000005920000035" class="text">Act</text>
<text x="300.0000192" y="489.99999448" width="7.9999899700000014" height="27.000005920000035" class="text">, </text>
<text x="310.99999882" y="489.99999448" width="29.999984350000034" height="27.000005920000035" class="text">and </text>
<text x="351.00000138" y="489.00001111999995" width="56.99999661999999" height="28.000012039999945" class="text">copies </text>
<text x="416.00000554" y="489.00001111999995" width="19.000004729999944" height="27.00000591999998" class="text">of </text>
<text x="441.00000714" y="489.00001111999995" width="37.99997431999998" height="28.000012039999945" class="text">such </text>
<text x="488.99999966999997" y="487.99998224" width="96.00000263000004" height="27.999989280000023" class="text">documents </text>
<text x="593.99998882" y="486.99999888" width="28.000008819999948" height="27.000005920000035" class="text">are </text>
<text x="630.0000227500001" y="486.99999888" width="76.99999789999993" height="28.99999539999999" class="text">routinely </text>
<text x="723.9999795699999" y="485.99999276" width="41.00003425000011" height="27.00000591999998" class="text">made </text>
<text x="772.0000072400001" y="485.99999276" width="77.00001547" height="28.999972639999953" class="text">available </text>
<text x="860.00000233" y="485.0000094" width="15.000018530000034" height="27.999989279999966" class="text">to </text>
<text x="883.00004597" y="484.00002604" width="48.99995394000007" height="27.00000591999998" class="text">other </text>
<text x="937.0000002300001" y="484.00002604" width="79.00000856999986" height="29.000018160000025" class="text">agencies</text>
<text x="1016.0000087999999" y="482.99999715999996" width="7.999954830000092" height="27.00000591999998" class="text">, </text>
<text x="1028.9999815200001" y="482.99999715999996" width="109.00004562999993" height="28.99999539999999" class="text">departments </text>
<text x="1147.00001367" y="482.0000138" width="30.9999633299999" height="27.00000591999998" class="text">and </text>
<text x="1186.99996352" y="482.0000138" width="85.00002300999995" height="29.000018159999968" class="text">Congress </text>
<text x="1279.99995893" y="480.99998492000003" width="78.00008230000003" height="28.99999539999999" class="text">pursuant </text>
<text x="1363.99996782" y="480.00000156" width="16.00005022000005" height="27.00000591999998" class="text">to </text>
<text x="1387.99997287" y="480.00000156" width="65.00000416000012" height="28.99999539999999" class="text">Section </text>
<text x="1464.00000936" y="478.99999544" width="7.999972400000161" height="27.00000591999998" class="text">6</text>
<text x="1475.00005926" y="478.99999544" width="7.999954829999979" height="27.00000591999998" class="text">(</text>
<text x="1483.00001409" y="478.99999544" width="7.999972400000161" height="27.00000591999998" class="text">c</text>
<text x="1493.99995857" y="478.00001208000003" width="8.000077820000115" height="27.000005920000035" class="text">) </text>
<text x="1507.00003671" y="478.00001208000003" width="19.00000473" height="27.000005920000035" class="text">of </text>
<text x="1529.0000135199998" y="478.00001208000003" width="26.99997713000016" height="27.000005920000035" class="text">the </text>
<text x="1564.99997717" y="478.00001208000003" width="31.000068750000082" height="27.000005920000035" class="text">Act
</text>
<text x="1596.00004592" y="476.9999832" width="7.999972399999933" height="26.999960399999964" class="text">. </text>
<text x="1608.0000045200002" y="478.00001208000003" width="62.99994077999986" height="29.000018160000025" class="text">Finally
</text>
<text x="1671.99997699" y="476.9999832" width="8.000077819999888" height="26.999960399999964" class="text">,
</text>
<text x="88.999996911" y="523.00001436" width="27.000005242" height="27.000005920000035" class="text">the </text>
<text x="124.99999394400001" y="523.00001436" width="75.99999783599998" height="29.000018160000025" class="text">Attorney </text>
<text x="213.99999964" y="521.99998548" width="75.0000048" height="28.999995399999932" class="text">General </text>
<text x="291.99999409000003" y="521.00000212" width="84.99998786999998" height="28.999995399999932" class="text">transmits </text>
<text x="386.00000362000003" y="519.999996" width="15.000000959999966" height="27.999989279999966" class="text">an </text>
<text x="411.9999842" y="519.999996" width="62.00003208000004" height="28.99997264000001" class="text">annual </text>
<text x="483.00002036999996" y="519.00001264" width="56.00000007" height="29.000018160000025" class="text">report </text>
<text x="544.99999974" y="518.00000652" width="15.999979940000003" height="26.999983160000056" class="text">to </text>
<text x="569.99998377" y="517.0000004" width="25.99999815000001" height="27.00000591999998" class="text">the </text>
<text x="604.9999860099999" y="518.00000652" width="85.99998442000015" height="28.999995400000103" class="text">Congress </text>
<text x="697.9999814199999" y="516.00001704" width="20.00001885000006" height="27.000005920000035" class="text">on </text>
<text x="727.00000436" y="516.00001704" width="31.00001603999999" height="28.00003479999998" class="text">the </text>
<text x="765.00001382" y="516.00001704" width="133.99997695000002" height="30.00002427999999" class="text">Administration </text>
<text x="909.0000089800001" y="514.0000048" width="19.00000473" height="27.000005920000035" class="text">of </text>
<text x="934.00004572" y="512.99999868" width="26.999977130000048" height="27.00000591999998" class="text">the </text>
<text x="973.9999955699999" y="512.99999868" width="30.000054630000022" height="27.00000591999998" class="text">Act </text>
<text x="1009.99997679" y="512.99999868" width="53.00002799000015" height="28.999972639999953" class="text">which </text>
<text x="1072.0000088699999" y="512.00001532" width="36.99999534000017" height="27.999989279999966" class="text">lists </text>
<text x="1115.00001865" y="510.99998644" width="26.99997713000016" height="26.999960399999964" class="text">the </text>
<text x="1152.00001399" y="510.99998644" width="59.99998626999991" height="28.99997264000001" class="text">names </text>
<text x="1218.9999585399999" y="510.00000308" width="20.000018850000288" height="27.000005920000035" class="text">of </text>
<text x="1245.0000094" y="510.00000308" width="22.999990929999967" height="27.000005920000035" class="text">all </text>
<text x="1273.00001822" y="510.00000308" width="56.00000007000017" height="29.000018159999968" class="text">agents </text>
<text x="1339.0000365" y="509.00001971999995" width="89.00000920999992" height="29.000018159999968" class="text">registered </text>
<text x="1433.9999723" y="507.99999084" width="56.00000006999994" height="28.99999539999999" class="text">under </text>
<text x="1496.00000438" y="507.00000748" width="29.000022940000008" height="27.000005920000035" class="text">the </text>
<text x="1534.00001384" y="507.00000748" width="30.9999633299999" height="28.00001204" class="text">Act</text>
<text x="1566.00000886" y="506.00000136" width="7.999954829999979" height="27.00000591999998" class="text">, </text>
<text x="1578.9999815800002" y="506.00000136" width="26.999977129999706" height="27.00000591999998" class="text">the </text>
<text x="1614.9999452299999" y="506.00000136" width="61.00001796000015" height="29.000018160000025" class="text">foreign
</text>
<text x="88.999996911" y="553.99997648" width="93.000007709" height="30.999962119999964" class="text">principals </text>
<text x="188.00000149000002" y="552.99999312" width="39.99998498999997" height="31.000007640000035" class="text">they </text>
<text x="238.00000468999997" y="552.00000976" width="86.99999854000004" height="30.000024280000048" class="text">represent</text>
<text x="325.00000323" y="551.0000036399999" width="7.9999899700000014" height="29.000018159999968" class="text">, </text>
<text x="338.00001109" y="551.0000036399999" width="31.999977450000017" height="30.000001519999955" class="text">and </text>
<text x="380.00000675" y="550.00002028" width="28.999987799999985" height="29.000018159999968" class="text">the </text>
<text x="416.00000554" y="550.00002028" width="58.99998972000003" height="31.00000763999992" class="text">nature</text>
<text x="474.99999526000005" y="548.9999914" width="8.00002510999991" height="28.99999539999999" class="text">, </text>
<text x="488.99999966999997" y="548.9999914" width="69.99998691000008" height="30.999984879999943" class="text">sources </text>
<text x="567.00001169" y="548.00000804" width="31.99999502000003" height="28.99999539999999" class="text">and </text>
<text x="611.0000180200001" y="548.00000804" width="70.99996588999988" height="31.000007640000035" class="text">content </text>
<text x="686.0000228199999" y="545.9999958000001" width="21.99997681000002" height="28.999995400000103" class="text">of </text>
<text x="714.00001407" y="545.9999958000001" width="25.999963009999988" height="28.999995400000103" class="text">the </text>
<text x="749.99999529" y="545.9999958000001" width="78.99999100000002" height="31.000007640000035" class="text">political </text>
<text x="833.99998661" y="544.99998968" width="105.99998570000014" height="30.999984879999943" class="text">propaganda </text>
<text x="949.9999905200001" y="543.00002296" width="114.99995464999995" height="30.000024280000048" class="text">disseminated </text>
<text x="1078.00004088" y="541.00001072" width="19.999913430000106" height="28.99999539999999" class="text">or </text>
<text x="1106.9999584" y="541.00001072" width="96.00005534000002" height="30.00002427999999" class="text">distributed </text>
<text x="1214.0000460699998" y="539.99998184" width="19.99993100000006" height="29.999978760000033" class="text">by </text>
<text x="1243.99999528" y="538.99999848" width="44.9999677400001" height="29.99997876000009" class="text">them</text>
<text x="1289.99997714" y="538.99999848" width="7.999972399999933" height="28.999995400000046" class="text">. </text>
<text x="1310.00001356" y="537.99999236" width="35.99996364999993" height="28.99997264000001" class="text">This </text>
<text x="1357.00000954" y="537.99999236" width="56.000017639999896" height="30.999984879999943" class="text">report </text>
<text x="1422.0000137" y="537.000009" width="11.000032330000067" height="29.000018159999968" class="text">is </text>
<text x="1442.99995882" y="537.000009" width="80.00002268999992" height="31.00000763999998" class="text">available 
</text>
<text x="1534.00001384" y="535.99998012" width="16.999958919999926" height="29.999978760000033" class="text">to </text>
<text x="1560.99999097" y="534.99999676" width="24.00002261999998" height="28.999995400000046" class="text">the </text>
<text x="1596.9999721899999" y="534.99999676" width="53.000027990000035" height="31.000007640000092" class="text">public</text>
<text x="1652.99997226" y="534.0000134000001" width="8.000077819999888" height="28.999995400000046" class="text">.
</text>
<text x="91.00000231" y="609.0000172" width="57.999994927" height="31.000053159999993" class="text">Public </text>
<text x="151.999999186" y="609.0000172" width="89.99999170400002" height="31.000053159999993" class="text">Reporting </text>
<text x="247.99998776" y="607.99998832" width="65.00000416" height="30.999962119999964" class="text">Burden</text>
<text x="317.99999224000004" y="606.9999822000001" width="8.000007539999956" height="29.00001816000008" class="text">. </text>
<text x="331.0000001" y="606.9999822000001" width="54.00000696999996" height="30.999984880000056" class="text">Public </text>
<text x="393.00001461" y="606.0000216" width="84.99998787000004" height="31.000053159999993" class="text">reporting </text>
<text x="481.99998867999994" y="604.99999272" width="59.99998627000008" height="30.999962120000077" class="text">burden </text>
<text x="553.00002485" y="603.9999866" width="24.99998402999995" height="29.00001816000008" class="text">for </text>
<text x="586.00001642" y="603.9999866" width="28.000008820000062" height="29.00001816000008" class="text">this </text>
<text x="621.0000186599999" y="603.9999866" width="87.99999509000008" height="30.999984880000056" class="text">collection </text>
<text x="716.99998615" y="602.0000198800001" width="22.00002952" height="29.00001816000008" class="text">of </text>
<text x="740.9999912" y="602.99995772" width="103.99999260000004" height="30.999962120000077" class="text">information </text>
<text x="855.00000201" y="600.9999909999999" width="10.999979619999976" height="28.99999539999999" class="text">is </text>
<text x="874.00000674" y="600.9999909999999" width="83.99993861000007" height="30.999962119999964" class="text">estimated </text>
<text x="968.9999952500001" y="599.9999848799999" width="10.000018210000007" height="29.000018159999968" class="text">to </text>
<text x="990.9999544899999" y="599.9999848799999" width="67.00004997000019" height="30.999984879999943" class="text">average </text>
<text x="1063.0000047800002" y="599.0000242799999" width="16.9999589199997" height="28.99999539999999" class="text">.5 </text>
<text x="1083.0000412000002" y="599.0000242799999" width="54.99998594999988" height="31.00000763999992" class="text">hours </text>
<text x="1143.00002747" y="598.00001816" width="29.999931639999886" height="29.000018159999968" class="text">per </text>
<text x="1178.99999112" y="598.00001816" width="77.99997687999985" height="31.0000303999999" class="text">response</text>
<text x="1260.0000455000002" y="596.99998928" width="7.999954829999751" height="28.99997264000001" class="text">, </text>
<text x="1273.00001822" y="596.99998928" width="81.99996308000004" height="30.999984879999943" class="text">including </text>
<text x="1363.00004155" y="595.9999604000001" width="23.999917200000027" height="28.99997264000001" class="text">the </text>
<text x="1394.00000488" y="595.00002256" width="40.99998153999991" height="29.000018159999968" class="text">time </text>
<text x="1440.00000431" y="595.00002256" width="27.999991249999994" height="29.000018159999968" class="text">for </text>
<text x="1471.99998176" y="595.00002256" width="89.00000920999992" height="31.000007640000035" class="text">reviewing </text>
<text x="1568.9999633700002" y="593.99999368" width="105.00005942999974" height="31.000007640000035" class="text">instructions</text>
<text x="1675.00003692" y="592.99998756" width="7.999972400000161" height="28.99997264000001" class="text">,
</text>
<text x="88.999996911" y="638.0000126" width="89.000003939" height="30.000024279999934" class="text">searching </text>
<text x="187.00000494" y="637.00000648" width="69.99998690999996" height="30.000024279999934" class="text">existing </text>
<text x="269.00000316" y="635.9999776" width="35.99999879000001" height="28.999995399999875" class="text">data </text>
<text x="313.99998847" y="635.9999776" width="66.00001828" height="29.999955999999997" class="text">sources</text>
<text x="383.99999295000003" y="634.00001088" width="8.000025109999967" height="27.999989280000023" class="text">, </text>
<text x="397.00000081" y="635.00003976" width="84.99998786999993" height="30.000047040000027" class="text">gathering </text>
<text x="492.99998587" y="632.999982" width="31.000016039999934" height="27.999989280000023" class="text">and </text>
<text x="539.9999818499999" y="632.999982" width="101.99999950000006" height="30.000024280000048" class="text">maintaining </text>
<text x="649.9999888899999" y="631.0000152800001" width="28.000008820000062" height="28.000057560000073" class="text">the </text>
<text x="688.99997733" y="631.0000152800001" width="36.00003392999997" height="28.99999539999999" class="text">data </text>
<text x="735.99999088" y="631.0000152800001" width="62.00003207999998" height="30.00002428000016" class="text">needed</text>
<text x="800.99999504" y="628.9999802799999" width="8.000007539999956" height="27.999989280000023" class="text">, </text>
<text x="814.99998188" y="628.9999802799999" width="31.000016040000105" height="27.999989280000023" class="text">and </text>
<text x="856.99999511" y="628.9999802799999" width="100.99995024000009" height="29.999955999999997" class="text">completing </text>
<text x="968.9999952500001" y="627.00001356" width="30.9999633299999" height="27.999989280000023" class="text">and </text>
<text x="1012.0000226" y="627.00001356" width="85.99993171000006" height="30.000024279999934" class="text">reviewing </text>
<text x="1110.0000183299999" y="625.99998468" width="26.99997713000016" height="28.99999539999999" class="text">the </text>
<text x="1144.99996786" y="625.99998468" width="90.00002332999998" height="30.000024279999934" class="text">collection </text>
<text x="1246.9999497899998" y="624.00001796" width="18.000096030000122" height="28.00005755999996" class="text">of </text>
<text x="1271.99998653" y="624.00001796" width="105.99998570000025" height="30.000024280000048" class="text">information</text>
<text x="1381.0000321599998" y="621.99998296" width="7.999972400000161" height="27.999989280000023" class="text">. </text>
<text x="1396.9999769600001" y="621.99998296" width="43.000027349999755" height="28.99999539999999" class="text">Send 
</text>
<text x="1450.0000049500002" y="621.99998296" width="95.99996748999979" height="29.999955999999997" class="text">comments </text>
<text x="1554.99995896" y="620.99997684" width="83.00008262000006" height="29.999955999999997" class="text">regarding </text>
<text x="1651.00003187" y="618.9999873600001" width="30.999963330000128" height="27.999966520000044" class="text">this
</text>
<text x="91.00000231" y="667.9999686" width="63.000002275" height="28.99999539999999" class="text">burden </text>
<text x="161.00000503299998" y="667.00003076" width="76.00000310700003" height="29.000018159999968" class="text">estimate </text>
<text x="245.00001568" y="666.00000188" width="20.999997829999984" height="27.999989280000023" class="text">or </text>
<text x="273.00000693000004" y="666.00000188" width="32.99999156999996" height="28.99999539999999" class="text">any </text>
<text x="312.99999192" y="664.99999576" width="48.0000101" height="29.00001816000008" class="text">other </text>
<text x="369.99998854" y="664.99999576" width="58.000028310000005" height="29.999955999999997" class="text">aspect </text>
<text x="432.99998203" y="663.99996688" width="20.000036420000015" height="27.999989280000023" class="text">of </text>
<text x="458.99999775000003" y="663.00002904" width="31.99999501999997" height="27.99998927999991" class="text">this </text>
<text x="500.99999341000006" y="663.00002904" width="87.00001610999999" height="29.000018159999968" class="text">collection </text>
<text x="597.99997502" y="662.00000016" width="20.000036420000015" height="27.999989280000023" class="text">of </text>
<text x="625.00000486" y="662.00000016" width="105.0000067200001" height="30.000024279999934" class="text">information</text>
<text x="732.99998366" y="660.00003344" width="8.000007539999956" height="28.00005755999996" class="text">, </text>
<text x="749.00001631" y="660.00003344" width="81.99996308000004" height="29.000018159999968" class="text">including </text>
<text x="842.9999906999999" y="659.0000045600001" width="108.00001394000014" height="30.00002428000016" class="text">suggestions </text>
<text x="954.9999908399999" y="656.99996956" width="26.999977130000048" height="27.999989280000023" class="text">for </text>
<text x="987.9999999800001" y="656.99996956" width="77.99997687999996" height="28.99992711999994" class="text">reducing </text>
<text x="1074.99996338" y="656.00003172" width="35.00005494999982" height="27.999989280000023" class="text">this </text>
<text x="1116.00005034" y="656.00003172" width="60.999894970000014" height="30.000047040000027" class="text">burden </text>
<text x="1190.9999497200001" y="655.00000284" width="10.000018210000007" height="27.999989280000023" class="text">to </text>
<text x="1217.00001815" y="653.99997396" width="46.999995979999994" height="28.99999539999999" class="text">Chief</text>
<text x="1265.00004582" y="653.99997396" width="7.999972399999933" height="27.999989280000023" class="text">, </text>
<text x="1279.99995893" y="653.99997396" width="108.00001393999992" height="29.999955999999997" class="text">Registration </text>
<text x="1400.9999631599999" y="652.00000724" width="38.00000946" height="27.99998927999991" class="text">Unit</text>
<text x="1442.00005012" y="652.00000724" width="7.999954830000206" height="27.99998927999991" class="text">, </text>
<text x="1456.99996323" y="652.00000724" width="82.00006849999977" height="30.000024279999934" class="text">Criminal </text>
<text x="1545.99997244" y="651.00000112" width="78.00008230000003" height="30.000024279999934" class="text">Division
</text>
<text x="1627.00000925" y="649.0000344" width="7.999972399999933" height="28.00005755999996" class="text">, </text>
<text x="1641.00001366" y="649.0000344" width="39.99994985000012" height="28.00005755999996" class="text">U.S.
</text>
<text x="93.000002438" y="696.00002616" width="110.999996562" height="30.000024279999934" class="text">Department </text>
<text x="208.99999932" y="695.00002004" width="19.99998371000001" height="29.000018159999968" class="text">of </text>
<text x="234.00000092000002" y="695.00002004" width="61.99999693999999" height="30.000024279999934" class="text">Justice</text>
<text x="298.99998751" y="693.9999911599999" width="8.000025110000024" height="27.99998927999991" class="text">, </text>
<text x="312.99999192" y="693.9999911599999" width="105.00000671999999" height="30.000024279999934" class="text">Washington</text>
<text x="421.00000586" y="692.00002444" width="8.000007540000013" height="28.00005755999996" class="text">, </text>
<text x="438.99999647000004" y="692.00002444" width="39.00000600999999" height="28.00005755999996" class="text">D.C. </text>
<text x="485.99997487999997" y="692.00002444" width="54.00000696999996" height="30.000024279999934" class="text">20530</text>
<text x="543.00000664" y="690.99999556" width="8.00002510999991" height="27.999966520000044" class="text">; </text>
<text x="560.0000182699999" y="690.99999556" width="31.999977450000074" height="28.99999539999999" class="text">and </text>
<text x="599.00000671" y="689.99998944" width="15.999997509999957" height="27.999989280000023" class="text">to </text>
<text x="623.9999907399999" y="689.99998944" width="27.999991250000107" height="27.999989280000023" class="text">the </text>
<text x="660.99998608" y="689.99998944" width="57.99999317000004" height="29.999955999999997" class="text">Office </text>
<text x="730.99999056" y="688.9999605600001" width="15.000018530000034" height="28.999927120000052" class="text">of </text>
<text x="756.0000273" y="688.9999605600001" width="105.99996812999996" height="29.999955999999997" class="text">Information </text>
<text x="872.99997505" y="686.99999384" width="31.00001603999999" height="27.99998927999991" class="text">and </text>
<text x="912.99999518" y="686.99999384" width="99.00002741999992" height="30.000024280000048" class="text">Regulatory </text>
<text x="1024.9999953200002" y="685.99998772" width="63.999972469999875" height="29.999955999999997" class="text">Affairs</text>
<text x="1088.99996779" y="683.99999824" width="8.000077819999888" height="27.99996651999993" class="text">, </text>
<text x="1103.99998632" y="685.00002712" width="58.000045880000016" height="30.000024280000048" class="text">Office </text>
<text x="1168.99999048" y="683.99999824" width="21.000050540000075" height="28.99999539999999" class="text">of </text>
<text x="1198.00001342" y="683.99999824" width="119.99997254000004" height="30.000024279999934" class="text">Management </text>
<text x="1326.99997248" y="681.9999632399999" width="31.99997744999996" height="28.99992711999994" class="text">and </text>
<text x="1367.9999540200001" y="681.9999632399999" width="65.00009200999989" height="29.999955999999997" class="text">Budget</text>
<text x="1433.00004603" y="681.0000253999999" width="7.999972400000161" height="27.99998927999991" class="text">, </text>
<text x="1447.00005044" y="681.0000253999999" width="103.99992232" height="30.000024279999934" class="text">Washington
</text>
<text x="1557.00000477" y="678.9999904" width="7.999972399999933" height="27.999989280000023" class="text">, </text>
<text x="1572.9999495700001" y="678.9999904" width="39.00004114999979" height="27.999989280000023" class="text">D.C. </text>
<text x="1619.99996312" y="678.9999904" width="54.00005967999982" height="29.999955999999997" class="text">20503
</text>
<text x="1676.99997731" y="678.0000298" width="7.999972399999933" height="28.00005755999996" class="text">.
</text>
<text x="102.999997807" y="755.00000032" width="28.99999658499999" height="30.999984879999943" class="text">1. </text>
<text x="141.999996789" y="756.99996704" width="70.000009751" height="32.99995159999992" class="text">Name </text>
<text x="224.99999683" y="756.00000644" width="23.999987479999987" height="31.000030400000014" class="text">of </text>
<text x="255.9999953" y="757.9999959200001" width="115.00000736000001" height="33.00001988000008" class="text">registrant
</text>
<text x="1232.00003668" y="746.99997412" width="24.99993131999986" height="30.999962120000077" class="text">2. </text>
<text x="1264.00001413" y="746.99997412" width="142.9999810400002" height="34.99998659999994" class="text">Registration </text>
<text x="1414.9999675699999" y="744.00000128" width="50.00007348000008" height="33.00001988000008" class="text">No.
</text>
<text x="144.000002188" y="804.99998768" width="151.999995672" height="35.99999272000002" class="text">Malaysian </text>
<text x="319.99998533999997" y="803.0000209599999" width="169.00001433" height="35.99999271999991" class="text">Industrial </text>
<text x="506.99997271000007" y="800.99998596" width="190.00002972999994" height="35.99999272000002" class="text">Development </text>
<text x="714.99999305" y="799.00001924" width="152.0000027000001" height="36.000015480000116" class="text">Authority
</text>
<text x="1386.9999587500001" y="781.0000228800001" width="71.00001859999975" height="26.000022560000048" class="text">2331
</text>
<text x="107.999998127" y="860.9999662399999" width="30.999996713" height="32.99995159999992" class="text">3. </text>
<text x="144.000002188" y="860.9999662399999" width="77.999987422" height="34.99998659999994" class="text">Nature </text>
<text x="234.99999746999998" y="860.0000284" width="24.000005050000027" height="33.00001988000008" class="text">of </text>
<text x="273.00000693000004" y="860.0000284" width="94.99998850999998" height="35.00005487999999" class="text">material </text>
<text x="378.00001365" y="858.99999952" width="8.999986519999993" height="33.00001987999997" class="text">(</text>
<text x="387.99999672" y="858.99999952" width="9.000004090000004" height="33.00001987999997" class="text">A </text>
<text x="413.00001589" y="858.99999952" width="82.99997719999999" height="34.99998659999994" class="text">concise </text>
<text x="506.99997271000007" y="858.99999952" width="100.00005910999994" height="34.99998659999994" class="text">account </text>
<text x="609.9999863300001" y="857.0000328" width="30.00000191999993" height="33.00001987999997" class="text">of </text>
<text x="644.99998857" y="857.0000328" width="33.000009139999975" height="33.00001987999997" class="text">the </text>
<text x="688.99997733" y="857.0000328" width="74.00004338999997" height="35.00005487999988" class="text">nature </text>
<text x="775.99999344" y="856.0000039199999" width="24.00002261999998" height="32.999997119999875" class="text">of </text>
<text x="812.00002737" y="856.0000039199999" width="30.9999633299999" height="32.999997119999875" class="text">the </text>
<text x="855.00000201" y="856.0000039199999" width="136.99998416999995" height="34.99998659999983" class="text">propaganda </text>
<text x="1008.9999451" y="854.9999978" width="95.00004122000007" height="34.99998659999994" class="text">material </text>
<text x="1115.00001865" y="853.99996892" width="43.99995362000004" height="33.99995772" class="text">filed</text>
<text x="1166.0000184" y="853.00003108" width="8.999986519999993" height="33.00001987999997" class="text">)
</text>
<text x="148.999997237" y="911.99998248" width="169.99999155299997" height="37.00002160000008" class="text">Industrial </text>
<text x="336.00001799" y="909.00000964" width="47.99997496000003" height="34.99998659999994" class="text">and </text>
<text x="406.00000489999996" y="907.99998076" width="137.00000174000007" height="35.99999272000002" class="text">property </text>
<text x="560.99997968" y="906.00001404" width="185.00002941000002" height="37.00002159999997" class="text">development </text>
<text x="769.0000000199999" y="903.0000184400001" width="151.9999675600002" height="35.99999272000014" class="text">prospects </text>
<text x="944.9999726299999" y="900.00002284" width="24.00002262000021" height="32.9999971200001" class="text">in </text>
<text x="993.0000002999999" y="899.00001672" width="45.99999943000023" height="34.000025999999934" class="text">the </text>
<text x="1061.9999906599999" y="897.99998784" width="85.00002301000018" height="34.99998659999994" class="text">state </text>
<text x="1163.99997259" y="896.0000211199999" width="36.00008664000006" height="34.000025999999934" class="text">of </text>
<text x="1222.00001847" y="896.0000211199999" width="80.00002268999992" height="35.00005487999999" class="text">Johor</text>
<text x="1308.99998187" y="893.99998612" width="9.000004089999948" height="33.00001988000008" class="text">, </text>
<text x="1339.9999452" y="893.99998612" width="131.00002244000007" height="34.99998660000006" class="text">Malaysia
</text>
<text x="109.999998255" y="993.0000229999999" width="34.000003933" height="28.99999539999999" class="text">4. </text>
<text x="151.999999186" y="995.0000124799999" width="46.99999949400001" height="30.000047039999913" class="text">Title </text>
<text x="213.00000309" y="993.9999836" width="21.999994379999976" height="29.000018159999968" class="text">of </text>
<text x="248.99998430999997" y="996.0000186000001" width="92.99999541000003" height="31.000053160000107" class="text">material</text>
<text x="341.99997972" y="996.0000186000001" width="8.000025110000024" height="28.999995400000103" class="text">, </text>
<text x="361.99999857" y="996.0000186000001" width="17.000011630000017" height="28.999995400000103" class="text">if </text>
<text x="389.99998982" y="996.9999792000001" width="37.000030479999964" height="29.99995600000011" class="text">any
</text>
<text x="152.999995736" y="1042.00000424" width="62.000000454" height="27.99998927999991" class="text">Intl</text>
<text x="223.00000373" y="1040.99999812" width="7.000010989999964" height="26.000022560000048" class="text">. </text>
<text x="253.00000565" y="1040.99999812" width="165.99998954" height="29.00001816000008" class="text">Conference </text>
<text x="443.00000024" y="1038.00000252" width="28.000008820000005" height="26.000022559999934" class="text">On </text>
<text x="499.00000030999996" y="1038.00000252" width="80.0000226900001" height="27.99998927999991" class="text">Johor </text>
<text x="597.99997502" y="1036.99997364" width="81.00003680999998" height="27.99996651999993" class="text">State </text>
<text x="707.00002065" y="1035.00000692" width="165.99995439999998" height="28.999995400000103" class="text">Investment
</text>
<text x="165.000003532" y="1082.00002144" width="227.000014528" height="35.00005487999988" class="text">Opportunities
</text>
<text x="940.99998643" y="993.0000229999999" width="30.00005462999991" height="31.0000303999999" class="text">5. </text>
<text x="993.0000002999999" y="992.00001688" width="71.00003617000027" height="31.999991000000023" class="text">Name </text>
<text x="1070.9999771799999" y="990.999988" width="22.999990930000195" height="31.999991000000023" class="text">of </text>
<text x="1097.00004561" y="990.999988" width="80.99993139000003" height="32.99999711999999" class="text">foreign </text>
<text x="1186.00005482" y="989.0000212799999" width="108.99992264000002" height="34.00002600000005" class="text">principal </text>
<text x="1299.99999535" y="986.99998628" width="22.999990929999967" height="30.999984879999943" class="text">on </text>
<text x="1330.00003241" y="986.99998628" width="76.99996276000024" height="33.00001988000008" class="text">whose </text>
<text x="1413.00002718" y="985.00001956" width="73.99997310999993" height="31.999991000000136" class="text">behalf </text>
<text x="1493.0000323" y="983.99999068" width="39.999967420000075" height="32.99999711999999" class="text">this </text>
<text x="1545.99997244" y="982.9999845599999" width="94.00000952999994" height="33.99998047999998" class="text">material </text>
<text x="1641.00001366" y="982.00002396" width="44.999967739999875" height="33.00001988000008" class="text">was
</text>
<text x="994.0000319899999" y="1018.9999772799999" width="126.99991325000008" height="26.999960399999964" class="text">transmitted</text>
<text x="1126.99997725" y="1018.0000394399999" width="7.000063700000055" height="25.000016439999968" class="text">.
</text>
<text x="993.0000002999999" y="1068.9999874" width="155.99995376000004" height="36.00001548" class="text">Malaysian </text>
<text x="1170.0000046" y="1065.9999918" width="173.00001810000003" height="35.99999272000014" class="text">Industrial </text>
<text x="1358.00004123" y="1062.9999962" width="192.9999315299999" height="35.99999271999991" class="text">Development </text>
<text x="1567.00002298" y="1058.99999448" width="156.99996787999999" height="34.99998659999983" class="text">Authority
</text>
<text x="109.000001705" y="1165.99998928" width="31.999998534" height="24.99999367999999" class="text">6. </text>
<text x="145.999995288" y="1165.99998928" width="81.99999119199998" height="27.000028680000014" class="text">Means </text>
<text x="239.00000124000002" y="1165.00002868" width="22.999990929999967" height="26.00006808000012" class="text">of </text>
<text x="269.99999971" y="1165.00002868" width="145.00000928000003" height="28.00005755999996" class="text">transmission
</text>
<text x="655.00000678" y="1162.99999368" width="14.999965819999943" height="26.999960399999964" class="text">7. </text>
<text x="679.99999081" y="1162.99999368" width="66.99997969000003" height="28.99999539999999" class="text">Dates </text>
<text x="758.0000204" y="1162.00005584" width="24.99998402999995" height="27.00005143999988" class="text">of </text>
<text x="793.00002264" y="1162.00005584" width="141.99993177999988" height="29.000086439999905" class="text">transmission
</text>
<text x="690.9999704300001" y="1210.0000082" width="69.00004306999995" height="30.000024279999707" class="text">Jan. </text>
<text x="777.99998654" y="1207.9999732" width="27.00002983999991" height="27.99998927999991" class="text">15</text>
<text x="812.99998878" y="1207.9999732" width="9.000004090000061" height="27.99998927999991" class="text">, </text>
<text x="847.99999102" y="1207.0000126" width="63.99997246999999" height="29.00006368000004" class="text">1996
</text>
<text x="1170.0000046" y="1162.99999368" width="25.00003674000004" height="33.00001988000008" class="text">8. </text>
<text x="1205.99996825" y="1162.00005584" width="56.000017640000124" height="33.00001988000008" class="text">Total </text>
<text x="1269.00003202" y="1160.99995868" width="75.99993107" height="32.99995160000003" class="text">copies </text>
<text x="1353.00004091" y="1160.00002084" width="129.99997317999987" height="36.00001548" class="text">transmitted
</text>
<text x="1223.9999588599999" y="1198.0000485599999" width="48.00002767000001" height="26.000090839999757" class="text">100
</text>
<text x="148.999997237" y="1213.9999416399999" width="70.99999927299999" height="23.999896519999766" class="text">Mail
</text>
<text x="113.000000204" y="1271.00001736" width="28.99999658499999" height="27.00005143999988" class="text">9. </text>
<text x="151.000002636" y="1271.00001736" width="45.000006393999996" height="27.99998927999991" class="text">List </text>
<text x="205.9999921" y="1271.00001736" width="111.00000359" height="29.000086439999905" class="text">addresses </text>
<text x="327.99999288" y="1268.9999823599999" width="53.000010420000024" height="27.00005143999988" class="text">from </text>
<text x="395.00000771" y="1268.9999823599999" width="67.00001483000005" height="27.99998927999991" class="text">which </text>
<text x="483.00002036999996" y="1268.9999823599999" width="89.00000921000009" height="28.999949879999804" class="text">material </text>
<text x="581.0000161" y="1266.9999246" width="41.99999565999997" height="26.999892119999913" class="text">was </text>
<text x="637.00001617" y="1266.9999246" width="123.99995874000001" height="27.999966519999816" class="text">transmitted</text>
<text x="769.0000000199999" y="1265.99998676" width="8.000025110000138" height="27.000028679999787" class="text">:
</text>
<text x="152.999995736" y="1324.99993816" width="50.000006713999994" height="32.99999711999999" class="text">875 </text>
<text x="221.99998961" y="1323.00003972" width="34.000005689999995" height="32.00005927999996" class="text">N. </text>
<text x="274.00000348" y="1323.00003972" width="136.99998417" height="35.00005487999988" class="text">Michigan </text>
<text x="429.0000134" y="1320.00006688" width="69.99998690999996" height="33.00001988000008" class="text">Ave.</text>
<text x="504.0000182" y="1318.0000091200002" width="9.999965499999917" height="30.99996212000019" class="text">, </text>
<text x="534.99998153" y="1318.0000091200002" width="10.000018210000007" height="30.99996212000019" class="text">#</text>
<text x="553.99998626" y="1318.0000091200002" width="66.00001828000006" height="32.99999712000022" class="text">3350
</text>
<text x="154.000004585" y="1359.0000552" width="119.00000234500004" height="33.000019879999854" class="text">Chicago </text>
<text x="296.99999441" y="1354.9999852" width="27.000012270000013" height="30.999984880000056" class="text">IL </text>
<text x="345.00000451" y="1354.0000246000002" width="86.99998097000002" height="32.00005928000019" class="text">60611
</text>
<text x="946.0000043199999" y="1263.9999517600002" width="44.00004147000004" height="27.999989280000136" class="text">10. </text>
<text x="998.00001819" y="1262.99999116" width="48.00002767000001" height="27.000028680000014" class="text">List </text>
<text x="1060.9999589699999" y="1262.00005332" width="61.00001796000015" height="27.000051440000107" class="text">states </text>
<text x="1138.00002715" y="1260.9999561599998" width="35.99996364999993" height="27.99998927999991" class="text">and </text>
<text x="1192.99999553" y="1259.99999556" width="113.00003183000013" height="27.999966519999816" class="text">territories </text>
<text x="1321.00004589" y="1257.9999605599999" width="23.999917200000027" height="25.99993151999979" class="text">of </text>
<text x="1359.99998162" y="1257.0000227199998" width="33.000009139999975" height="27.00005143999988" class="text">the </text>
<text x="1406.9999951700001" y="1257.0000227199998" width="76.00001891999977" height="27.99998927999991" class="text">United </text>
<text x="1503.00005051" y="1256.00006212" width="65.99991286000022" height="28.000125839999782" class="text">States </text>
<text x="1582.0000415099998" y="1254.00002712" width="18.999916880000228" height="26.000090839999757" class="text">to </text>
<text x="1616.9999910400002" y="1254.00002712" width="68.99999035999963" height="27.99998927999991" class="text">which
</text>
<text x="1003.0000185099999" y="1298.0000460400001" width="94.00002710000001" height="29.000063680000267" class="text">material </text>
<text x="1102.0000459300002" y="1296.99997164" width="45.999981859999934" height="28.99994988000003" class="text">was </text>
<text x="1156.00000019" y="1296.0000110400001" width="129.99999075000005" height="30.00002428000016" class="text">transmitted</text>
<text x="1288.99996302" y="1293.00001544" width="8.000060249999933" height="27.000028680000014" class="text">:
</text>
<text x="984.0000137799999" y="1346.999959" width="136.99993146000008" height="35.99999271999991" class="text">Illinois</text>
<text x="1125.00003686" y="1343.9999634" width="9.999912790000053" height="32.99999711999999" class="text">, </text>
<text x="1153.99995438" y="1343.9999634" width="138.00006856999994" height="35.99999271999991" class="text">Michigan</text>
<text x="1299.99999535" y="1340.9999905599998" width="10.000018210000007" height="33.00001987999963" class="text">, </text>
<text x="1330.99995868" y="1340.9999905599998" width="100.00004154000021" height="36.000015479999774" class="text">Pennsy </text>
<text x="1447.99997671" y="1338.9999328" width="87.9999775199999" height="35.99999271999991" class="text">Dania</text>
<text x="1544.00003205" y="1337.00003436" width="10.000018210000007" height="32.99999711999999" class="text">, </text>
<text x="1572.0000232999998" y="1337.00003436" width="66.99994455000024" height="35.00005487999988" class="text">Ohio</text>
<text x="1647.00004567" y="1334.99999936" width="9.999912790000053" height="33.000019879999854" class="text">,
</text>
<text x="982.99999966" y="1377.99994388" width="153.99999580000008" height="31.99994547999995" class="text">Minnesota</text>
<text x="1144.99996786" y="1374.99994828" width="8.999986519999993" height="27.99998927999991" class="text">, </text>
<text x="1178.99999112" y="1373.99998768" width="81.00005438000017" height="30.000024279999934" class="text">Texas</text>
<text x="1268.00000033" y="1371.99995268" width="9.000004089999948" height="27.99998927999991" class="text">, </text>
<text x="1298.99996366" y="1371.99995268" width="119.00006383999994" height="30.99996212000019" class="text">Indiana</text>
<text x="1424.99996821" y="1368.99997984" width="9.000004090000175" height="27.999989280000136" class="text">, </text>
<text x="1451.0000366400002" y="1368.99997984" width="152.9999816799998" height="31.99994547999995" class="text">Wisconsin</text>
<text x="1614.9999452299999" y="1365.00002364" width="9.00010951000013" height="27.999989280000136" class="text">,
</text>
<text x="984.0000137799999" y="1412.9999987600002" width="105.99996812999996" height="30.00002428000016" class="text">Kansas</text>
<text x="1092.99995399" y="1410.00000316" width="9.000091940000175" height="27.000028680000014" class="text">, </text>
<text x="1125.00003686" y="1410.00000316" width="9.000004090000175" height="27.000028680000014" class="text">&amp; </text>
<text x="1156.00000019" y="1409.0000425599999" width="141.99994934999995" height="31.000098679999837" class="text">Missouri
</text>
<text x="1414.9999675699999" y="1456.0000570799998" width="64.0000603200001" height="117.00012427999991" class="text">1036
</text>
<text x="102.999997807" y="1585.00000444" width="41.000004381" height="31.99994548000018" class="text">11. </text>
<text x="158.00000308399999" y="1584.0000438400002" width="65.99999719600001" height="33.00001988000008" class="text">Types </text>
<text x="234.99999746999998" y="1584.0000438400002" width="24.000005050000027" height="32.00005928000019" class="text">of </text>
<text x="269.00000316" y="1584.0000438400002" width="110.00000704000001" height="34.00009428000021" class="text">recipients </text>
<text x="393.00001461" y="1582.00000884" width="8.99998652000005" height="32.00005927999996" class="text">(</text>
<text x="402.99999768" y="1582.00000884" width="50.99999975000003" height="32.00005927999996" class="text">Give </text>
<text x="464.99997705000004" y="1582.00000884" width="88.0000478" height="33.99998047999998" class="text">number </text>
<text x="565.00001859" y="1581.0000482399998" width="22.99999093000008" height="32.00005927999996" class="text">of </text>
<text x="597.00001361" y="1581.0000482399998" width="155.99998889999995" height="34.000094279999985" class="text">organizations
</text>
<text x="155.00000113500002" y="1615.00002872" width="15.999992238999994" height="29.000086440000132" class="text">in </text>
<text x="188.99999803999998" y="1618.0000015599999" width="50.99999975000003" height="30.999962119999736" class="text">each </text>
<text x="254.99999875" y="1620.99999716" width="64.99998658999996" height="32.00005927999996" class="text">group</text>
<text x="323.00001013" y="1620.0000365600001" width="8.999986519999993" height="29.00006368000004" class="text">)
</text>
<text x="949.9999905200001" y="1574.9999432400002" width="46.99999597999988" height="29.999887720000288" class="text">12. </text>
<text x="1000.9999727" y="1573.99998264" width="48.00002767000001" height="30.00002428000016" class="text">List </text>
<text x="1064.0000364700002" y="1573.99998264" width="75.00000479999972" height="31.999922720000086" class="text">names </text>
<text x="1158.99997227" y="1573.0000448" width="38.00000946" height="30.00002428000016" class="text">and </text>
<text x="1218.9999585399999" y="1573.0000448" width="109.0000280600002" height="32.00008204000005" class="text">addresses </text>
<text x="1345.99997721" y="1571.0000098" width="28.000008819999948" height="30.000047040000027" class="text">of </text>
<text x="1387.99997287" y="1571.0000098" width="91.00005501999999" height="32.00008204000005" class="text">persons </text>
<text x="1496.00000438" y="1568.99995204" width="27.999991249999994" height="30.000024279999934" class="text">or </text>
<text x="1538.0000000399998" y="1570.0000492" width="156.9999678800002" height="33.00001988000008" class="text">organizations
</text>
<text x="999.99995858" y="1612.0000331200001" width="108.00001394000003" height="33.00001988000008" class="text">receiving </text>
<text x="1121.99997693" y="1610.9999359600001" width="36.00006907000011" height="31.999922720000086" class="text">100 </text>
<text x="1172.00005041" y="1609.99999812" width="71.99994486999981" height="33.00001988000008" class="text">copies </text>
<text x="1259.0000138100002" y="1609.00003752" width="21.999976809999907" height="30.999962119999964" class="text">or </text>
<text x="1296.00000915" y="1609.00003752" width="52.000013869999975" height="33.000019879999854" class="text">more</text>
<text x="1354.9999813" y="1607.9999631199998" width="8.999986519999993" height="30.99998487999983" class="text">:
</text>
<text x="1163.99997259" y="1715.9999640400001" width="68.00006409000002" height="24.99999367999999" class="text">NONE
</text>
<text x="103.999999628" y="1682.99994416" width="106.000013812" height="25.99993152000002" class="text">Libraries
</text>
<text x="103.999999628" y="1717.99999904" width="69.99999569500001" height="27.99998927999991" class="text">Public </text>
<text x="190.99999114" y="1717.0000612" width="89.00000921" height="27.99998927999991" class="text">officials
</text>
<text x="105.000003206" y="1756.00004952" width="137.99998423399998" height="32.00005927999996" class="text">Newspapers
</text>
<text x="105.999999756" y="1785.99993724" width="60.00000032599999" height="27.999989280000136" class="text">Press </text>
<text x="178.00000085" y="1785.99993724" width="94.00000953" height="27.999989280000136" class="text">services </text>
<text x="283.99998655" y="1784.0000388" width="24.00002261999998" height="26.00009084000021" class="text">of
</text>
<text x="130.999997842" y="1818.99995712" width="138.000005318" height="25.99995428000011" class="text">associations
</text>
<text x="107.000001577" y="1854.99994984" width="140.999986183" height="29.99988772000006" class="text">Educational
</text>
<text x="134.99999634099999" y="1887.99996972" width="126.999995829" height="27.000028680000014" class="text">institutions
</text>
<text x="109.000001705" y="1923.9999852" width="56.99999837699998" height="27.999989280000136" class="text">Civic
</text>
<text x="208.00000277" y="1928.0000552" width="78.00001202000001" height="24.99999367999999" class="text">groups
</text>
<text x="107.000001577" y="1962.99997352" width="66.999993746" height="33.99998047999998" class="text">Other </text>
<text x="189.99999459" y="1962.00001292" width="9.000004090000004" height="32.00005927999996" class="text">(</text>
<text x="200.0000128" y="1962.99997352" width="75.99998378000001" height="33.99998047999998" class="text">specify</text>
<text x="280.00000035" y="1961.00007508" width="9.000004090000004" height="32.00008204000005" class="text">) </text>
<text x="305.9999985" y="1962.00001292" width="202.00000589999996" height="35.00005487999988" class="text">Corporations
</text>
<text x="1381.0000321599998" y="1749.99994452" width="38.00000946000023" height="51.99990856000022" class="text">CRM</text>
<text x="1384.00000424" y="1764.00005296" width="35.000037380000094" height="12.000073439999824" class="text">/</text>
<text x="1385.00001836" y="1807.9999580800002" width="36.99999533999994" height="41.999983920000204" class="text">ISS</text>
<text x="1386.9999587500001" y="1823.00002712" width="35.00005494999982" height="12.000096199999916" class="text">/</text>
<text x="1387.99997287" y="2001.99996184" width="44.00005904" height="178.99993472000006" class="text">REGISTRATION </text>
<text x="1396.9999769600001" y="2073.00000944" width="38.000009459999774" height="60.99998640000035" class="text">UNIT
</text>
<text x="1443.99999051" y="1754.00001452" width="41.99999565999997" height="33.000019879999854" class="text">95 </text>
<text x="1446.00003632" y="1820.9999921200001" width="43.00000978000003" height="55.00001796000015" class="text">DEC </text>
<text x="1448.99999083" y="1870.99997948" width="43.00002735000021" height="41.00002332000031" class="text">30 </text>
<text x="1451.99994534" y="1934.00002364" width="42.00001322999992" height="32.00005927999996" class="text">AM </text>
<text x="1453.99999115" y="2040.99995016" width="45.999999430000116" height="95.9999047199999" class="text">10:37
</text>
<text x="1577.00004119" y="2128.999988" width="45.999981859999934" height="16.00002964000032" class="text">FORM </text>
<text x="1633.99996753" y="2128.0000501600002" width="34.000023260000034" height="16.00002964000032" class="text">CRM</text>
<text x="1674.0000228" y="2126.999953" width="3.999986200000194" height="14.999932480000098" class="text">-</text>
<text x="1679.00002312" y="2126.999953" width="19.99993100000006" height="14.999932480000098" class="text">159
</text>
<text x="1643.9999681699999" y="2151.00000884" width="29.000022940000235" height="14.999955239999963" class="text">SEP</text>
<text x="1674.0000228" y="2151.00000884" width="3.999986200000194" height="14.999955239999963" class="text">. </text>
<text x="1684.99994971" y="2150.00004824" width="14.000004409999974" height="15.000069040000199" class="text">89
</text>
</g>
<g id="page-1" transform="translate(0, 2296)">
<rect width="1757" height="2276" fill="none" stroke="black" />
<text x="95.000000809" y="163.000002948" width="42.99999748100001" height="29.99999924400001" class="text">13. </text>
<text x="144.999998738" y="163.000002948" width="21.99999613700001" height="29.99999924400001" class="text">If </text>
<text x="176.00000775" y="163.000002948" width="34.000005689999995" height="29.99999924400001" class="text">the </text>
<text x="226.99998993" y="162.00000138000001" width="92.99999540999997" height="30.000001520000012" class="text">material </text>
<text x="329.000007" y="162.00000138000001" width="126.00000455000003" height="30.000001520000012" class="text">transmitted </text>
<text x="465.99999117" y="162.00000138000001" width="43.00002734999998" height="31.000003088000028" class="text">was </text>
<text x="523.00002293" y="160.99999981200003" width="8.999986519999993" height="30.00000152000004" class="text">a </text>
<text x="548.00000696" y="160.99999981200003" width="40.0000025600001" height="30.00000152000004" class="text">film </text>
<text x="602.00001393" y="160.99999981200003" width="28.000008820000062" height="30.00000152000004" class="text">or </text>
<text x="639.99998825" y="160.99999981200003" width="57.999993169999925" height="30.00000152000004" class="text">radio </text>
<text x="711.99996826" y="160.99999981200003" width="22.00002952" height="30.00000152000004" class="text">or </text>
<text x="746.00000909" y="160.99999981200003" width="108.99999291999995" height="31.000003088000028" class="text">television </text>
<text x="868.00002744" y="159.99999824399998" width="67.99995866999984" height="30.000001519999984" class="text">script</text>
<text x="934.00004572" y="159.99999824399998" width="8.99998651999988" height="30.000001519999984" class="text">, </text>
<text x="956.0000049600001" y="159.99999824399998" width="73.99999067999988" height="30.000001519999984" class="text">furnish </text>
<text x="1046.00004586" y="158.9999944" width="33.99991783999985" height="29.999990139999994" class="text">the </text>
<text x="1093.99996811" y="158.9999944" width="106.00009111999998" height="29.999990139999994" class="text">following </text>
<text x="1214.0000460699998" y="158.9999944" width="128.99997663000022" height="30.999993983999985" class="text">information</text>
<text x="1348.00002302" y="157.999992832" width="8.999986519999993" height="29.999992415999998" class="text">:
</text>
<text x="939.00004604" y="224.00000527999998" width="51.99990844999991" height="23.00001102799999" class="text">Date </text>
<text x="1007.00000471" y="223.000003712" width="25.00003674000004" height="23.00001102799999" class="text">or </text>
<text x="1040.00001385" y="223.000003712" width="61.00001795999992" height="23.99999666399998" class="text">dates </text>
<text x="1109.00000421" y="223.000003712" width="114.99995464999984" height="24.999998231999967" class="text">broadcast </text>
<text x="1232.99996295" y="222.000002144" width="73.00006441000005" height="24.999998232000024" class="text">shown
</text>
<text x="95.000000809" y="233.00001484" width="70.000002723" height="32.00002058800001" class="text">Name </text>
<text x="175.000005929" y="233.00001484" width="23.999992751000008" height="32.00002058800001" class="text">of </text>
<text x="207.00000622" y="233.00001484" width="75.99998377999998" height="32.00002058800001" class="text">station</text>
<text x="288.00000789" y="233.00001484" width="8.999986519999993" height="32.00002058800001" class="text">, </text>
<text x="305.9999985" y="233.00001484" width="138.99999484" height="32.00002058800001" class="text">organization</text>
<text x="450.99997264" y="233.00001484" width="9.000056799999925" height="32.00002058800001" class="text">, </text>
<text x="469.00001596000004" y="233.00001484" width="23.999969909999948" height="32.00002058800001" class="text">or </text>
<text x="502.00002509999996" y="233.00001484" width="80.99998410000006" height="32.00002058800001" class="text">theater </text>
<text x="593.00002741" y="233.00001484" width="59.99998627000002" height="32.00002058800001" class="text">using
</text>
<text x="95.999997359" y="268.00000144" width="9.000005846999997" height="30.000001520000012" class="text">(</text>
<text x="105.999999756" y="268.00000144" width="106.00000678399999" height="32.00001376000003" class="text">including </text>
<text x="224.99999683" y="267.00001808" width="38.99998844000004" height="30.00002428000002" class="text">city </text>
<text x="274.00000348" y="266.00001196" width="42.999992210000016" height="30.00002428000002" class="text">and </text>
<text x="330.00000355" y="266.00001196" width="50.99999975000003" height="30.00002428000002" class="text">state</text>
<text x="383.99999295000003" y="266.00001196" width="9.000021659999959" height="30.00002428000002" class="text">)
</text>
<text x="1405.00005478" y="221.000000576" width="112.99990883999999" height="24.999998231999996" class="text">Estimated </text>
<text x="1532.99999972" y="221.000000576" width="119.99997254000004" height="24.999998231999996" class="text">attendance
</text>
<text x="1457.9999773499999" y="258.00000852" width="7.999972400000161" height="29.000018159999996" class="text">(</text>
<text x="1466.99998144" y="258.00000852" width="33.000009139999975" height="29.000018159999996" class="text">for </text>
<text x="1512.00003703" y="258.00000852" width="43.99995362000004" height="29.000018159999996" class="text">film</text>
<text x="1559.99997685" y="258.00000852" width="8.000077819999888" height="29.000018159999996" class="text">(</text>
<text x="1568.9999633700002" y="258.00000852" width="8.000077819999888" height="29.000018159999996" class="text">s</text>
<text x="1582.0000415099998" y="258.00000852" width="7.999972400000161" height="29.000018159999996" class="text">)</text>
<text x="1591.9999543" y="258.00000852" width="8.000077820000115" height="29.000018159999996" class="text">)
</text>
<text x="130.999997842" y="416.00001956000006" width="9.000005846999983" height="30.000024280000048" class="text">N</text>
<text x="151.999999186" y="416.00001956000006" width="9.000005846999983" height="30.000024280000048" class="text">/</text>
<text x="166.999994875" y="416.00001956000006" width="9.00001287500001" height="30.000024280000048" class="text">A
</text>
<text x="100.999997679" y="507.99999084" width="46.000006458000016" height="29.999978759999976" class="text">14. </text>
<text x="148.999997237" y="507.99999084" width="55.000001763" height="31.000007640000035" class="text">Have </text>
<text x="218.99999996" y="507.00000748" width="37.99999188999996" height="30.000024280000048" class="text">two </text>
<text x="272.00001038" y="507.00000748" width="69.99996934" height="30.000024280000048" class="text">copies </text>
<text x="355.99998413" y="507.00000748" width="22.000029520000055" height="30.000024280000048" class="text">of </text>
<text x="387.00000017" y="507.00000748" width="41.00001667999999" height="31.000007640000035" class="text">this </text>
<text x="443.99997922" y="506.00000136" width="93.00004812000009" height="30.000001520000012" class="text">material </text>
<text x="543.00000664" y="506.00000136" width="54.99996837999993" height="30.000001520000012" class="text">been </text>
<text x="611.9999794299999" y="505.000018" width="48.00002767000001" height="30.000001520000012" class="text">filed </text>
<text x="669.9999726" y="505.000018" width="49.000006650000046" height="30.000001520000012" class="text">with </text>
<text x="735.00002947" y="505.000018" width="33.999970549999944" height="30.000001520000012" class="text">the </text>
<text x="781.99997274" y="505.000018" width="140.00000896000006" height="32.00001376" class="text">Department </text>
<text x="931.99999991" y="503.99998911999995" width="21.999976809999907" height="30.000001519999955" class="text">of </text>
<text x="966.0000231700001" y="503.99998911999995" width="71.99994487000004" height="30.999984879999943" class="text">Justice</text>
<text x="1042.9999859299999" y="503.00000575999996" width="8.999986519999993" height="30.000001519999955" class="text">?
</text>
<text x="1091.0000135999999" y="498.00002068000003" width="36.99999534000017" height="25.000016440000024" class="text">Yes </text>
<text x="1147.00001367" y="496.00000844" width="6.999940709999919" height="23.000004199999978" class="text">
</text>
<text x="1198.00001342" y="496.00000844" width="38.00000946" height="23.000004199999978" class="text">No
</text>
<text x="98.00000275800001" y="575.99999732" width="45.00000288" height="31.999991000000023" class="text">15. </text>
<text x="155.00000113500002" y="575.99999732" width="50.99999096499997" height="31.999991000000023" class="text">Has </text>
<text x="214.99999619" y="575.99999732" width="40.999999110000005" height="31.999991000000023" class="text">this </text>
<text x="274.00000348" y="575.99999732" width="91.99999886" height="31.999991000000023" class="text">material </text>
<text x="373.99999231" y="575.99999732" width="48.0000101" height="31.999991000000023" class="text">been </text>
<text x="438.99999647000004" y="575.99999732" width="79.00002613999993" height="31.999991000000023" class="text">labeled </text>
<text x="530.9999953299999" y="575.99999732" width="22.99999093000008" height="31.999991000000023" class="text">as </text>
<text x="565.99999757" y="575.99999732" width="94.00000952999994" height="31.999991000000023" class="text">required </text>
<text x="674.9999904900001" y="575.99999732" width="22.999990929999854" height="31.999991000000023" class="text">by </text>
<text x="716.00000717" y="575.99999732" width="30.000001920000045" height="31.999991000000023" class="text">the </text>
<text x="758.0000204" y="575.99999732" width="35.99996365000004" height="31.999991000000023" class="text">act</text>
<text x="793.9999840500001" y="575.99999732" width="8.999986519999993" height="31.999991000000023" class="text">?
</text>
<text x="847.00002961" y="568.00001664" width="31.999924740000097" height="24.99999367999999" class="text">Yes </text>
<text x="892.99995876" y="568.00001664" width="7.000046129999987" height="24.99999367999999" class="text">
</text>
<text x="951.00000464" y="566.0000044000001" width="38.00000945999989" height="22.999981440000056" class="text">No
</text>
<text x="95.000000809" y="642.99997492" width="56.000001827000006" height="28.99999539999999" class="text">Date </text>
<text x="162.99999813300002" y="644.0000038000001" width="25.000003356999997" height="26.999983160000056" class="text">of </text>
<text x="198.00000212999998" y="646.99997664" width="71.99999758000001" height="28.99999539999999" class="text">report
</text>
<text x="390.99998637" y="638.9999732" width="66.99999726000004" height="23.999987560000022" class="text">Name </text>
<text x="471.00000906" y="638.0000126" width="40.00000256000004" height="23.000026960000014" class="text">and </text>
<text x="524.0000019099999" y="638.0000126" width="41.000016680000044" height="24.00003307999998" class="text">title
</text>
<text x="1047.9999862500001" y="641.0000081999999" width="105.00005942999996" height="30.000024279999934" class="text">Signature
</text>
<text x="1326.99997248" y="711.9999875200001" width="90.00004090000016" height="119.99996056000009" class="text">quer
</text>
<text x="91.99999886" y="710.0000207999999" width="73.00000467199999" height="28.00005755999996" class="text">Dec. </text>
<text x="183.99999772" y="710.9999813999999" width="30.00000191999999" height="29.000018159999968" class="text">29</text>
<text x="223.00000373" y="710.9999813999999" width="8.000007540000013" height="27.99998927999991" class="text">, </text>
<text x="254.00000219999998" y="710.9999813999999" width="63.99999004000006" height="27.99998927999991" class="text">1995
</text>
<text x="387.99999672" y="713.0000164" width="48.0000101" height="29.00001816000008" class="text">Foo</text>
<text x="446.00002503" y="713.0000164" width="7.99997239999999" height="29.00001816000008" class="text">-</text>
<text x="460.99999085" y="713.0000164" width="62.00003207999998" height="29.00001816000008" class="text">Sang</text>
<text x="532.99998843" y="713.0000164" width="8.00002510999991" height="29.00001816000008" class="text">, </text>
<text x="562.00001137" y="713.0000164" width="47.99997496000003" height="29.00001816000008" class="text">Lee
</text>
<text x="634.99997036" y="699.9999823600001" width="1.0000316900000144" height="5.999991200000181" class="text">-
</text>
<text x="662.0000002" y="710.0000207999999" width="140.99997037000003" height="27.0000286799999" class="text">Director
</text>
</g>
</svg>
