<svg xmlns="http://www.w3.org/2000/svg">
<style>.text { font-size: 14px; font-family: Arial, sans-serif; }</style>
<g id="page-0" transform="translate(0, 0)">
<rect width="1757" height="2276" fill="none" stroke="black" />
<text x="872.99997505" y="116.000002084" width="186.00004352999997" height="35.000002531999996" class="text">Dissemination </text>
<text x="1073.0000229900002" y="116.000002084" width="85.99994927999978" height="32.00000465599999" class="text">Report
</text>
<text x="67.000000774" y="111.000001072" width="57.99999317000001" height="32.000004656" class="text">U.S. </text>
<text x="129.000006499" y="111.000001072" width="149.999997301" height="32.000004656" class="text">Department </text>
<text x="286.00001479" y="111.000001072" width="22.999990929999967" height="32.000004656" class="text">of </text>
<text x="317.99999224000004" y="111.000001072" width="83.00001233999996" height="32.000004656" class="text">Justice
</text>
<text x="60.000000326" y="151.99999935600002" width="153.999999314" height="32.99999939600002" class="text">Washington</text>
<text x="218.99999996" y="151.99999935600002" width="8.999986519999993" height="32.99999939600002" class="text">, </text>
<text x="234.99999746999998" y="151.99999935600002" width="65.00002173000001" height="32.99999939600002" class="text">D.C. </text>
<text x="310.00000227000004" y="151.99999935600002" width="66.99997968999998" height="32.99999939600002" class="text">20530
</text>
<text x="1525.00002732" y="118.99999996" width="43.99993605000009" height="19.000004755999996" class="text">OMB </text>
<text x="1573.99996369" y="118.99999996" width="30.000054630000022" height="19.000004755999996" class="text">No. </text>
<text x="1610.00005033" y="118.99999996" width="73.99999067999988" height="19.000004755999996" class="text">1105-0006
</text>
<text x="1451.0000366400002" y="143.999998192" width="61.9999266599998" height="20.999998787999985" class="text">Approval </text>
<text x="1520.00000943" y="143.999998192" width="52.00001386999975" height="20.999998787999985" class="text">Expires </text>
<text x="1577.9999498900002" y="143.999998192" width="40.00007284000003" height="20.999998787999985" class="text">Nov. </text>
<text x="1624.00005474" y="143.999998192" width="10.999926909999886" height="20.999998787999985" class="text">30</text>
<text x="1639.99998197" y="143.999998192" width="6.000032010000041" height="20.999998787999985" class="text">, </text>
<text x="1652.99997226" y="143.999998192" width="31.000068749999855" height="20.999998787999985" class="text">1986
</text>
<text x="65.000000646" y="235.00000432" width="183.99998366399996" height="28.999999951999996" class="text">INSTRUCTIONS</text>
<text x="247.99998776" y="235.00000432" width="8.000007539999984" height="27.99999838400001" class="text">: </text>
<text x="259.00000252" y="236.9999938" width="72.99999413" height="28.999986295999975" class="text">Report </text>
<text x="340.99998317" y="235.99998767999998" width="47.000013550000006" height="27.99998017599995" class="text">must </text>
<text x="393.00001461" y="236.9999938" width="20.000001279999992" height="28.999986295999975" class="text">be </text>
<text x="422.00000241" y="237.99999992" width="100.00000639999996" height="29.99999241599997" class="text">submitted </text>
<text x="527.0000091300001" y="237.99999992" width="19.999983709999924" height="29.00000677999998" class="text">in </text>
<text x="555.00000038" y="239.00000604000002" width="92.99999541" height="30.0000129" class="text">duplicate </text>
<text x="653.99997509" y="237.99999992" width="15.999997509999957" height="28.00000521199999" class="text">to </text>
<text x="676.00000461" y="239.00000604000002" width="35.99996364999993" height="28.000009764000026" class="text">the </text>
<text x="712.99999995" y="240.00001216" width="124.00001144999999" height="30.00001745200001" class="text">Registration </text>
<text x="844.00000482" y="240.00001216" width="48.00004524000008" height="28.00001204" class="text">Unit</text>
<text x="892.00005006" y="240.00001216" width="7.999954829999979" height="28.00001204" class="text">, </text>
<text x="900.00000489" y="242.00000164" width="86.99996340000007" height="30.000001519999984" class="text">Internal </text>
<text x="987.9999999800001" y="242.00000164" width="81.00003680999987" height="30.000001519999984" class="text">Security </text>
<text x="1074.99996338" y="242.99998499999998" width="73.99999067999988" height="29.999983311999983" class="text">Section</text>
<text x="1152.00001399" y="242.00000164" width="7.999972399999933" height="27.99999838400001" class="text">, </text>
<text x="1163.99997259" y="243.99999112" width="92.99999540999988" height="29.99998786400002" class="text">Criminal </text>
<text x="1259.0000138100002" y="243.99999112" width="85.00002300999995" height="29.99998786400002" class="text">Division</text>
<text x="1345.99997721" y="242.99998499999998" width="7.999972399999933" height="27.99998017599998" class="text">, </text>
<text x="1352.00000922" y="244.99999724" width="131.00000486999988" height="29.999992415999998" class="text">Department </text>
<text x="1488.00003198" y="244.99999724" width="20.99994512000012" height="28.99999084799998" class="text">of </text>
<text x="1510.00000879" y="246.00000336000002" width="68.99997279000013" height="29.000011332000014" class="text">Justice</text>
<text x="1581.00002739" y="244.99999724" width="7.999972400000161" height="28.00000521199999" class="text">, </text>
<text x="1590.00001391" y="247.00000948" width="86.99996340000007" height="30.00001745199998" class="text">Washing-
</text>
<text x="61.999998697" y="265.00000584" width="33.999998662" height="27.00000591999998" class="text">ton</text>
<text x="98.00000275800001" y="265.00000584" width="7.999996997999986" height="27.00000591999998" class="text">, </text>
<text x="109.000001705" y="266.00001196" width="52.999999878" height="28.00001204" class="text">D.C. </text>
<text x="165.000003532" y="266.00001196" width="68.00000083799998" height="27.00000591999998" class="text">20530. </text>
<text x="239.99999779" y="266.00001196" width="37.99999188999999" height="27.00000591999998" class="text">The </text>
<text x="283.99998655" y="267.00001808" width="78.00001201999999" height="28.00001204" class="text">original </text>
<text x="371.99999921" y="267.00001808" width="46.999995979999994" height="27.000005920000007" class="text">must </text>
<text x="422.99999896" y="267.00001808" width="23.99998747999996" height="27.000005920000007" class="text">be </text>
<text x="455.00001155" y="268.00000144" width="61.00001795999998" height="27.000005920000007" class="text">signed </text>
<text x="525.9999774400001" y="268.00000144" width="25.000054309999882" height="27.000005920000007" class="text">by </text>
<text x="555.00000038" y="268.00000144" width="25.00000160000002" height="27.000005920000007" class="text">or </text>
<text x="581.99999508" y="268.00000144" width="25.00003674000004" height="27.000005920000007" class="text">on </text>
<text x="615.0000042199999" y="268.9999848" width="64.99998659000005" height="26.99998316" class="text">behalf </text>
<text x="681.99998391" y="268.9999848" width="25.00003674000004" height="26.99998316" class="text">of </text>
<text x="707.00002065" y="268.9999848" width="35.00000223999996" height="26.99998316" class="text">the </text>
<text x="744.9999774" y="270.99999704" width="103.00001362" height="28.99999539999999" class="text">registrant</text>
<text x="845.99999792" y="269.99999092" width="8.00002510999991" height="27.000005920000035" class="text">. </text>
<text x="858.00000923" y="269.99999092" width="29.999949209999954" height="27.000005920000035" class="text">All </text>
<text x="892.00005006" y="270.99999704" width="57.99994046000006" height="28.00001204" class="text">items </text>
<text x="953.99997672" y="270.99999704" width="15.000018530000148" height="27.00000591999998" class="text">in </text>
<text x="981.00005927" y="270.99999704" width="36.99997776999999" height="27.00000591999998" class="text">this </text>
<text x="1021.00000912" y="270.99999704" width="48.00002767000001" height="27.00000591999998" class="text">form </text>
<text x="1080.9999953899999" y="272.00000316" width="47.000013550000176" height="28.00001204" class="text">must </text>
<text x="1133.00000926" y="272.00000316" width="24.00002261999998" height="27.000005920000007" class="text">be </text>
<text x="1163.99997259" y="273.00000928000003" width="91.99998129000005" height="28.00001204000003" class="text">answered</text>
<text x="1261.99998589" y="273.00000928000003" width="7.999954829999979" height="27.000005920000007" class="text">, </text>
<text x="1270.99997241" y="273.00000928000003" width="66.00001827999995" height="27.000005920000007" class="text">unless </text>
<text x="1339.0000365" y="273.00000928000003" width="33.99991783999985" height="27.000005920000007" class="text">the </text>
<text x="1380.00001804" y="274.0000154" width="71.0000186000002" height="28.000012039999973" class="text">answer </text>
<text x="1456.99996323" y="274.0000154" width="10.000018210000007" height="27.000005920000007" class="text">is </text>
<text x="1475.00005926" y="274.0000154" width="7.999954829999979" height="27.000005920000007" class="text">"</text>
<text x="1487.00000029" y="274.0000154" width="52.00003143999993" height="27.000005920000007" class="text">none</text>
<text x="1540.00004585" y="274.0000154" width="7.999972399999706" height="27.000005920000007" class="text">" </text>
<text x="1550.99997276" y="274.99999876" width="26.000068430000056" height="27.999989279999994" class="text">or </text>
<text x="1577.9999498900002" y="274.99999876" width="8.000077819999888" height="27.00000591999998" class="text">"</text>
<text x="1588.9999997900002" y="274.99999876" width="34.00002325999981" height="27.00000591999998" class="text">not </text>
<text x="1628.00004094" y="274.99999876" width="50.99998217999996" height="27.00000591999998" class="text">appli-
</text>
<text x="65.000000646" y="294.00000123999996" width="50.00000495699999" height="25.999999799999955" class="text">cable</text>
<text x="117.99999349599999" y="294.00000123999996" width="7.000000448000023" height="25.999999799999955" class="text">,</text>
<text x="126.00000455" y="294.00000123999996" width="6.999998691000002" height="25.999999799999955" class="text">" </text>
<text x="141.999996789" y="294.99998459999995" width="14.999997446000009" height="25.999999799999955" class="text">in </text>
<text x="163.999992926" y="294.99998459999995" width="57.999996683999996" height="25.999999799999955" class="text">which </text>
<text x="234.00000092000002" y="294.99998459999995" width="40.000002559999956" height="25.999999799999955" class="text">case </text>
<text x="283.99998655" y="296.00001348" width="42.00001322999998" height="27.000028680000014" class="text">such </text>
<text x="336.00001799" y="296.00001348" width="18.999969590000035" height="26.00002255999999" class="text">an </text>
<text x="362.99999512" y="296.00001348" width="54.000006970000015" height="26.00002255999999" class="text">entry </text>
<text x="423.99999551" y="296.99999684" width="49.00000664999993" height="27.00000591999998" class="text">shall </text>
<text x="478.00000248000003" y="296.99999684" width="24.000022619999925" height="25.999999800000012" class="text">be </text>
<text x="511.00001162000007" y="296.99999684" width="52.999992849999956" height="25.999999800000012" class="text">made </text>
<text x="570.99999789" y="296.99999684" width="15.00001852999992" height="25.999999800000012" class="text">in </text>
<text x="593.00002741" y="297.99998020000004" width="33.99997055000006" height="25.999977040000033" class="text">the </text>
<text x="630.9999841599999" y="299.00000908" width="119.00001113000008" height="28.00001204" class="text">appropriate </text>
<text x="756.99998871" y="299.00000908" width="57.000031759999956" height="25.999999799999955" class="text">space</text>
<text x="814.99998188" y="299.00000908" width="7.000010990000078" height="25.999999799999955" class="text">. </text>
<text x="826.00003178" y="299.00000908" width="13.99998684000002" height="25.999999799999955" class="text">If </text>
<text x="844.00000482" y="300.99999856" width="105.99998570000014" height="27.999989279999966" class="text">additional </text>
<text x="954.9999908399999" y="299.99999243999997" width="56.000000070000056" height="25.999977039999976" class="text">space </text>
<text x="1014.9999771100001" y="299.99999243999997" width="15.000018529999807" height="25.999977039999976" class="text">is </text>
<text x="1036.99995392" y="300.99999856" width="73.00006440999982" height="26.99998316" class="text">needed </text>
<text x="1116.00005034" y="300.99999856" width="28.999917520000054" height="25.999999800000012" class="text">for </text>
<text x="1148.99995406" y="300.99999856" width="37.00010076000012" height="25.999999800000012" class="text">any </text>
<text x="1191.9999814100001" y="301.99998192" width="45.99998185999971" height="26.99998316" class="text">item</text>
<text x="1238.9999773900001" y="301.99998192" width="7.000063699999828" height="25.999977039999976" class="text">, </text>
<text x="1246.9999497899998" y="301.99998192" width="62.00003208000021" height="25.999977039999976" class="text">attach </text>
<text x="1320.00003177" y="303.99999416" width="136.99993145999997" height="27.999989280000023" class="text">supplemental </text>
<text x="1461.99996355" y="303.0000108" width="54.99998594999988" height="26.00002255999999" class="text">sheet </text>
<text x="1521.99994982" y="305.00002304" width="108.0000315100001" height="28.00003479999998" class="text">identifying </text>
<text x="1638.00004158" y="305.00002304" width="42.99992193000003" height="27.000028679999957" class="text">each
</text>
<text x="63.999998825" y="319.00001768" width="45.000002880000004" height="20.0000086" class="text">item</text>
<text x="109.999998255" y="319.00001768" width="6.000003898000003" height="20.0000086" class="text">.
</text>
<text x="79.999998092" y="389.999997" width="22.999999715" height="30.000001520000012" class="text">1. </text>
<text x="112.000003654" y="392.9999926" width="79.99998403600001" height="31.999991000000023" class="text">Name </text>
<text x="200.99999178" y="393.99999872" width="29.00002293999998" height="31.00000763999998" class="text">of </text>
<text x="235.99999402000003" y="396.00001096000005" width="126.00000454999997" height="33.000019880000025" class="text">registrant
</text>
<text x="1219.9999726600001" y="401.9999794" width="25.000036739999814" height="33.99998047999998" class="text">2. </text>
<text x="1254.00001349" y="401.9999794" width="155.0000274900001" height="33.99998047999998" class="text">Registration </text>
<text x="1420.9999820100002" y="401.9999794" width="52.00003143999993" height="33.99998047999998" class="text">No.
</text>
<text x="133.000003241" y="450.0000228" width="75.999996079" height="27.00000591999998" class="text">JETRO</text>
<text x="220.99999306" y="450.0000228" width="7.9999899700000014" height="27.00000591999998" class="text">, </text>
<text x="246.00001223" y="448.99999392" width="120.99998665999996" height="27.999989280000023" class="text">Atlanta
</text>
<text x="1268.00000033" y="455.99999124" width="68.99999036000008" height="27.00000591999998" class="text">4069
</text>
<text x="77.999997964" y="498.00002068000003" width="24.000003292999992" height="32.00001376" class="text">3. </text>
<text x="113.999996754" y="500.00001016" width="86.999995026" height="34.000003239999955" class="text">Nature </text>
<text x="213.00000309" y="499.00000404" width="25.99999815000001" height="32.00001376" class="text">of </text>
<text x="253.00000565" y="500.99999352000003" width="101.99998193000005" height="34.00000324000001" class="text">material </text>
<text x="364.00000924" y="500.00001016" width="8.99998652000005" height="32.00003651999998" class="text">(</text>
<text x="380.00000675" y="500.00001016" width="8.999986519999993" height="32.00003651999998" class="text">A </text>
<text x="407.999998" y="501.99997688" width="87.00001611000005" height="34.00000324000001" class="text">concise </text>
<text x="506.0000113" y="501.99997688" width="97.99999573000002" height="34.00000324000001" class="text">account </text>
<text x="611.9999794299999" y="501.99997688" width="24.000022620000095" height="31.999991000000023" class="text">of </text>
<text x="644.00002716" y="501.99997688" width="40.99996396999995" height="31.999991000000023" class="text">the </text>
<text x="690.9999704300001" y="503.00000575999996" width="79.00006127999984" height="33.00001987999997" class="text">nature </text>
<text x="781.99997274" y="503.00000575999996" width="24.00002261999998" height="31.999990999999966" class="text">of </text>
<text x="816.00001357" y="503.00000575999996" width="35.99996365000004" height="31.999990999999966" class="text">the </text>
<text x="861.00003402" y="505.000018" width="143.9999248800001" height="34.00000324000001" class="text">propaganda </text>
<text x="1023.99996363" y="506.00000136" width="99.00002742000004" height="34.000003239999955" class="text">material </text>
<text x="1129.0000230599999" y="505.000018" width="50.99999975000014" height="32.00001376" class="text">filed</text>
<text x="1186.00005482" y="505.000018" width="8.999986519999993" height="32.00001376" class="text">)
</text>
<text x="126.99999934299998" y="523.99999772" width="173.000019857" height="34.00000324000001" class="text">newsletter </text>
<text x="316.99999569" y="523.99999772" width="29.000005369999997" height="31.999990999999966" class="text">on </text>
<text x="366.99999889" y="525.00000384" width="141.00000551" height="32.99999711999993" class="text">business </text>
<text x="524.0000019099999" y="526.00000996" width="48.99998908000009" height="33.000019880000025" class="text">and </text>
<text x="593.99998882" y="526.99999332" width="152.00002027000005" height="34.00000324000001" class="text">lifestyle </text>
<text x="767.00000692" y="528.9999828" width="99.99998883" height="34.00000324000001" class="text">trends </text>
<text x="895.00000457" y="527.99999944" width="22.99999093000008" height="31.999991000000023" class="text">in </text>
<text x="943.99995851" y="530.00001168" width="80.00000511999997" height="34.000003239999955" class="text">Japan</text>
<text x="1032.00004145" y="528.9999828" width="9.000004089999948" height="31.999991000000023" class="text">: </text>
<text x="1061.9999906599999" y="530.9999950399999" width="120.9999866600001" height="34.000003239999955" class="text">Success </text>
<text x="1203.00001374" y="532.00000116" width="115.99998634000008" height="33.99998047999998" class="text">stories </text>
<text x="1340.99997689" y="532.00000116" width="50.000073479999855" height="31.999991000000023" class="text">and </text>
<text x="1410.99998137" y="534.0000134000001" width="115.99998634000008" height="34.00000324000007" class="text">special
</text>
<text x="129.000006499" y="557.0000176" width="98.999979981" height="35.000032120000014" class="text">topics </text>
<text x="247.99998776" y="557.0000176" width="121.00000423" height="34.000003239999955" class="text">related </text>
<text x="387.00000017" y="557.0000176" width="29.000005369999997" height="33.00001987999997" class="text">to </text>
<text x="438.99999647000004" y="559.00000708" width="119.00002869999992" height="35.000009360000035" class="text">JETRO's </text>
<text x="578.00000888" y="559.99999044" width="134.99999106999996" height="34.99998660000006" class="text">programs </text>
<text x="730.99999056" y="559.99999044" width="52.000013869999975" height="32.99999711999999" class="text">are </text>
<text x="802.00000916" y="562.00000268" width="137.00003688000004" height="35.00000935999992" class="text">featured
</text>
<text x="72.000001094" y="602.99995772" width="31.999998534" height="33.99995772" class="text">4. </text>
<text x="116.999998703" y="604.99999272" width="52.99999812099999" height="35.99999272000002" class="text">Title </text>
<text x="182.00000462" y="604.99999272" width="26.999994700000002" height="34.00002600000005" class="text">of </text>
<text x="219.99999651" y="607.99998832" width="103.00001362000003" height="37.00002160000008" class="text">material</text>
<text x="322.00001358" y="606.9999822000001" width="10.999979620000033" height="33.99998048000009" class="text">, </text>
<text x="339.00000764000004" y="606.9999822000001" width="20.999997829999984" height="33.99998048000009" class="text">if </text>
<text x="365.00000579000005" y="609.0000172" width="49.00000664999993" height="36.00001548" class="text">any
</text>
<text x="923.00001339" y="609.0000172" width="25.00003674000004" height="33.00001987999997" class="text">5. </text>
<text x="959.99999116" y="610.00002332" width="73.99999068000011" height="34.000025999999934" class="text">Name </text>
<text x="1049.00000037" y="610.00002332" width="24.00002262000021" height="32.999997119999875" class="text">of </text>
<text x="1078.99994958" y="610.00002332" width="87.00006882000002" height="32.999997119999875" class="text">foreign </text>
<text x="1176.00003661" y="611.99999004" width="117.99992672999997" height="34.99996383999985" class="text">principal </text>
<text x="1297.99994954" y="610.99998392" width="30.000037060000068" height="33.00001987999997" class="text">on </text>
<text x="1339.9999452" y="610.99998392" width="80.00002268999992" height="33.00001987999997" class="text">whose </text>
<text x="1429.9999861" y="611.99999004" width="83.99999132000016" height="34.000025999999934" class="text">behalf </text>
<text x="1522.99998151" y="611.99999004" width="44.00004147000004" height="32.999997119999875" class="text">this </text>
<text x="1581.00002739" y="613.00001892" width="103.00001361999989" height="34.000025999999934" class="text">material
</text>
<text x="127.99999589299999" y="625.99998468" width="87.000000297" height="34.999963839999964" class="text">Focus </text>
<text x="234.00000092000002" y="628.00004244" width="76.99999789999995" height="34.00004876000003" class="text">Japan
</text>
<text x="958.9999770400001" y="642.0000370800001" width="49.00005935999991" height="29.00001816000008" class="text">was </text>
<text x="1019.99997743" y="641.0000081999999" width="140.00000896000006" height="30.000024279999934" class="text">transmitted</text>
<text x="1166.0000184" y="638.0000126" width="7.999972399999933" height="27.000028680000014" class="text">.
</text>
<text x="126.00000455" y="655.00000284" width="52.99999285000001" height="26.999960399999964" class="text">Vol</text>
<text x="183.99999772" y="656.00003172" width="7.9999899700000014" height="27.000051440000107" class="text">. </text>
<text x="215.99999274" y="656.00003172" width="29.00002293999998" height="27.000051440000107" class="text">22</text>
<text x="254.00000219999998" y="656.00003172" width="7.9999899700000014" height="27.000051440000107" class="text">, </text>
<text x="279.0000038" y="657.99999844" width="106.00000326999998" height="29.00001816000008" class="text">number </text>
<text x="404.99999078" y="657.99999844" width="8.000025109999967" height="26.999983159999942" class="text">5
</text>
<text x="126.99999934299998" y="693.9999911599999" width="48.00000658600001" height="30.999962119999964" class="text">May </text>
<text x="197.00000558000002" y="692.00002444" width="64.99998658999996" height="31.00005315999988" class="text">1995
</text>
<text x="957.9999453500001" y="702.00001736" width="80.00002269000004" height="34.00004876000003" class="text">Japan </text>
<text x="1059.00001858" y="702.00001736" width="141.00004065000007" height="33.00001988000008" class="text">External </text>
<text x="1215.99998646" y="703.99998408" width="86.99996340000007" height="33.999957719999884" class="text">Trade </text>
<text x="1317.99998596" y="704.9999902" width="207.00004136000007" height="34.00002600000005" class="text">Organization
</text>
<text x="72.999997644" y="771.99999056" width="25.000005114000004" height="26.999983160000056" class="text">6. </text>
<text x="107.999998127" y="774.0000255599999" width="90.00000400299999" height="29.000018159999968" class="text">Means </text>
<text x="208.00000277" y="772.99999668" width="25.000001599999962" height="26.999960399999964" class="text">of </text>
<text x="241.99999089000002" y="774.0000255599999" width="159.00001368999997" height="27.99998927999991" class="text">transmission
</text>
<text x="620.0000045400001" y="779.999994" width="19.000004729999887" height="33.00001987999997" class="text">7. </text>
<text x="653.00001368" y="781.9999607200001" width="76.99999790000004" height="34.99998660000006" class="text">Dates </text>
<text x="742.00002289" y="781.0000228800001" width="23.999969910000004" height="33.00001988000008" class="text">of </text>
<text x="772.0000072400001" y="783.99999572" width="159.99999266999998" height="35.99999272000002" class="text">transmission
</text>
<text x="1154.99998607" y="781.9999607200001" width="24.000005050000027" height="31.999991000000136" class="text">8. </text>
<text x="1195.00004134" y="783.99999572" width="67.99995866999984" height="34.00002600000005" class="text">Total </text>
<text x="1269.99994072" y="785.0000246" width="79.00011399000005" height="34.00002600000005" class="text">copies </text>
<text x="1358.00004123" y="785.0000246" width="145.00000927999986" height="34.00002600000005" class="text">transmitted
</text>
<text x="1198.00001342" y="834.0000058400001" width="49.9999680599999" height="24.999993680000102" class="text">195
</text>
<text x="123.999997394" y="825.99997964" width="72.000011636" height="23.999964800000043" class="text">U.S. </text>
<text x="208.99999932" y="827.0000085199999" width="70.00000448" height="23.999987560000022" class="text">Mail
</text>
<text x="641.99998135" y="835.00001196" width="118.00003215000004" height="31.000030400000128" class="text">5/23/95
</text>
<text x="73.999999465" y="875.9999897600001" width="24.000003293000006" height="26.999983160000056" class="text">9. </text>
<text x="110.999994805" y="876.99999588" width="48.000004829000005" height="27.999989280000023" class="text">List </text>
<text x="170.999993374" y="878.00002476" width="122.00001483599996" height="29.000018159999968" class="text">addresses </text>
<text x="305.00000195" y="878.00002476" width="56.00000007" height="27.0000286799999" class="text">from </text>
<text x="371.00000266" y="879.9999914800001" width="75.99998377999998" height="28.99999539999999" class="text">which </text>
<text x="460.00002943999993" y="878.99998536" width="46.99994327000013" height="26.999983159999942" class="text">this </text>
<text x="525.9999774400001" y="881.00002036" width="101.00002052000002" height="29.000018159999968" class="text">material </text>
<text x="632.00001585" y="879.9999914800001" width="48.99998908000009" height="26.999960400000077" class="text">was </text>
<text x="693.00001624" y="882.00002648" width="142.99996347" height="28.99999539999999" class="text">transmitted</text>
<text x="840.00001862" y="882.00002648" width="7.999972400000047" height="27.000028680000014" class="text">:
</text>
<text x="126.99999934299998" y="913.0000113599999" width="45.00000463700002" height="27.000028680000014" class="text">245 </text>
<text x="193.00000181000001" y="916.0000069600001" width="152.00000269999998" height="30.00002428000016" class="text">Peachtree </text>
<text x="366.99999889" y="917.00001308" width="100.00002397000003" height="28.99999539999999" class="text">Center </text>
<text x="488.99999966999997" y="917.99997368" width="67.99999380999998" height="27.999989280000023" class="text">Ave.
</text>
<text x="122.000006051" y="953.9999664" width="120.99998138899998" height="31.99999099999991" class="text">Marquis </text>
<text x="259.00000252" y="953.9999664" width="54.999985949999996" height="31.99999099999991" class="text">One </text>
<text x="334.9999863" y="953.9999664" width="80.00002269000004" height="31.99999099999991" class="text">Tower</text>
<text x="422.99999896" y="953.9999664" width="8.999986519999993" height="31.99999099999991" class="text">, </text>
<text x="457.99998363000003" y="953.9999664" width="79.00004371000006" height="31.99999099999991" class="text">Suite </text>
<text x="556.99999348" y="953.9999664" width="66.00001828000006" height="31.99999099999991" class="text">2208
</text>
<text x="123.999997394" y="985.00001956" width="118.99999004599998" height="27.999989280000023" class="text">Atlanta</text>
<text x="252.0000091" y="985.00001956" width="7.9999899700000014" height="27.000028680000014" class="text">, </text>
<text x="280.99999690000004" y="985.00001956" width="30.00000191999993" height="27.000028680000014" class="text">GA </text>
<text x="332.9999932" y="986.99998628" width="85.00000544" height="28.99999539999999" class="text">30303
</text>
<text x="924.00002751" y="882.00002648" width="35.99996365000004" height="28.00005755999996" class="text">10. </text>
<text x="976.0000413800001" y="882.99998708" width="46.99990812999988" height="29.000018159999968" class="text">List </text>
<text x="1032.9999677199999" y="882.99998708" width="70.00000448000014" height="27.999989280000023" class="text">states </text>
<text x="1112.99997284" y="882.99998708" width="44.00005904" height="27.999989280000023" class="text">and </text>
<text x="1167.99995879" y="885.0000220799999" width="125.00009584999998" height="30.000024279999934" class="text">territories </text>
<text x="1303.99998155" y="883.9999932" width="26.000050859999874" height="27.999989280000023" class="text">of </text>
<text x="1335.999959" y="883.9999932" width="39.000041150000015" height="27.999989280000023" class="text">the </text>
<text x="1385.00001836" y="885.0000220799999" width="86.99996340000007" height="27.99998927999991" class="text">United </text>
<text x="1485.99998617" y="885.0000220799999" width="72.9999589900001" height="27.99998927999991" class="text">States </text>
<text x="1568.0000546699998" y="885.9999826799999" width="19.999913430000333" height="27.99998927999991" class="text">to </text>
<text x="1599.0000180000002" y="885.9999826799999" width="72.99995898999987" height="27.99998927999991" class="text">which
</text>
<text x="977.9999817700001" y="917.99997368" width="103.00001361999978" height="29.999955999999997" class="text">material </text>
<text x="1085.99999571" y="917.00001308" width="47.000013550000176" height="27.999989280000023" class="text">was </text>
<text x="1147.00001367" y="918.9999798" width="141.0000230799999" height="29.999955999999997" class="text">transmitted</text>
<text x="1292.00002295" y="917.99997368" width="7.999972400000161" height="27.999989280000023" class="text">:
</text>
<text x="968.9999952500001" y="993.0000229999999" width="36.99999533999983" height="28.00005755999996" class="text">AL</text>
<text x="1012.0000226" y="993.0000229999999" width="7.999954829999979" height="28.00005755999996" class="text">, </text>
<text x="1040.00001385" y="993.0000229999999" width="30.9999633299999" height="28.00005755999996" class="text">FL</text>
<text x="1079.9999636999999" y="993.0000229999999" width="8.000077820000115" height="28.00005755999996" class="text">, </text>
<text x="1110.0000183299999" y="993.0000229999999" width="30.999963330000128" height="28.00005755999996" class="text">GA</text>
<text x="1149.99996818" y="993.0000229999999" width="8.000077820000115" height="28.00005755999996" class="text">, </text>
<text x="1180.00002281" y="993.0000229999999" width="30.999963330000128" height="28.00005755999996" class="text">SC
</text>
<text x="58.999996747999994" y="1127.00000096" width="38.000004189" height="33.99998047999998" class="text">11. </text>
<text x="110.999994805" y="1127.00000096" width="75.00001358499998" height="33.99998047999998" class="text">Types </text>
<text x="193.00000181000001" y="1127.00000096" width="30.99999846999998" height="33.99998047999998" class="text">of </text>
<text x="228.99998303" y="1127.00000096" width="126.00000455000003" height="33.99998047999998" class="text">recipients </text>
<text x="365.00000579000005" y="1127.00000096" width="9.999983069999928" height="33.99998047999998" class="text">(</text>
<text x="380.00000675" y="1127.00000096" width="54.000006970000015" height="33.99998047999998" class="text">Give </text>
<text x="441.00000714" y="1127.00000096" width="98.00001329999998" height="33.99998047999998" class="text">number </text>
<text x="548.00000696" y="1127.00000096" width="24.999984030000064" height="33.99998047999998" class="text">of
</text>
<text x="58.999996747999994" y="1160.99995868" width="160.999999762" height="31.999922720000086" class="text">organizations </text>
<text x="233.00000436999997" y="1160.99995868" width="18.00000818000001" height="31.999922720000086" class="text">in </text>
<text x="267.00001005999997" y="1160.99995868" width="52.99997528" height="31.999922720000086" class="text">each </text>
<text x="330.00000355" y="1160.99995868" width="71.00000103000002" height="31.999922720000086" class="text">group</text>
<text x="406.00000489999996" y="1160.99995868" width="9.000004090000061" height="31.999922720000086" class="text">)
</text>
<text x="917.9999955000001" y="1125.99997208" width="39.99994985000001" height="30.999962119999964" class="text">12. </text>
<text x="970.0000093699999" y="1127.00000096" width="48.99995394000007" height="30.999984880000056" class="text">List </text>
<text x="1032.9999677199999" y="1128.00000708" width="83.99999132000016" height="31.99999099999991" class="text">names </text>
<text x="1125.99996313" y="1128.00000708" width="44.00004147000004" height="31.000030400000014" class="text">and </text>
<text x="1185.00002313" y="1129.9999738" width="124.99999043000003" height="32.99999711999999" class="text">addresses </text>
<text x="1321.00004589" y="1129.9999738" width="28.999917520000054" height="30.999962119999964" class="text">of </text>
<text x="1358.00004123" y="1132.00003156" width="96.99998160999985" height="33.00001988000008" class="text">persons </text>
<text x="1466.99998144" y="1131.0000026799999" width="29.000022940000008" height="30.99998487999983" class="text">or </text>
<text x="1507.00003671" y="1133.99999828" width="171.99998641000002" height="33.99998047999998" class="text">organizations
</text>
<text x="970.0000093699999" y="1165.00002868" width="114.99997222000013" height="32.99999711999999" class="text">receiving </text>
<text x="1097.00004561" y="1165.00002868" width="39.99994985000012" height="32.00005927999996" class="text">100 </text>
<text x="1149.99996818" y="1165.99998928" width="76.00003648999996" height="31.99999099999991" class="text">copies </text>
<text x="1236.00002288" y="1165.99998928" width="27.999991249999994" height="30.99998487999983" class="text">or </text>
<text x="1277.0000044199999" y="1168.0000242800002" width="61.000000390000196" height="33.00001988000008" class="text">more</text>
<text x="1339.9999452" y="1166.9999498799998" width="9.00010951000013" height="30.99991659999978" class="text">:
</text>
<text x="56.000001827" y="1226.00003784" width="116.99999694599998" height="27.999989280000136" class="text">Libraries
</text>
<text x="382.9999964" y="1224.00000284" width="30.00001949" height="22.99995868000019" class="text">18
</text>
<text x="54.999998248999994" y="1259.99999556" width="82.000003491" height="27.999966519999816" class="text">Public </text>
<text x="148.999997237" y="1259.99999556" width="97.00001499300001" height="27.999966519999816" class="text">officials
</text>
<text x="381.99999985" y="1257.0000227199998" width="31.00001603999999" height="21.00006023999981" class="text">38
</text>
<text x="51.999999814" y="1299.00000664" width="159.000010176" height="30.999984880000056" class="text">Newspapers
</text>
<text x="385.00000707" y="1293.00001544" width="25.99998058" height="21.00006024000004" class="text">19
</text>
<text x="56.000001827" y="1329.9999687600002" width="63.999998825" height="27.999989280000136" class="text">Press </text>
<text x="133.000003241" y="1332.00000376" width="100.99999767900002" height="30.000024279999934" class="text">services </text>
<text x="245.00001568" y="1331.00006592" width="25.99998058" height="28.00012584000001" class="text">of
</text>
<text x="84.000001862" y="1363.99994924" width="154.00000282799996" height="26.999914880000006" class="text">associations
</text>
<text x="54.999998248999994" y="1399.0000041199999" width="154.000001071" height="27.99998927999991" class="text">Educational
</text>
<text x="84.000001862" y="1435.9999574400001" width="146.00001285799996" height="29.99988772000006" class="text">institutions
</text>
<text x="380.00000675" y="1432.99996184" width="36.99999534" height="23.999919280000086" class="text">37
</text>
<text x="56.999998377" y="1470.00005172" width="63.000002275" height="32.00005927999996" class="text">Civic </text>
<text x="126.99999934299998" y="1476.00002016" width="90.00000751700003" height="33.99995772000011" class="text">groups
</text>
<text x="382.9999964" y="1465.00002112" width="33.00000914000003" height="21.00006024000004" class="text">31
</text>
<text x="53.999999942" y="1506.0000672" width="76.9999979" height="34.00011704000008" class="text">Other </text>
<text x="141.000000239" y="1504.99997004" width="10.000002397000003" height="30.999984880000056" class="text">(</text>
<text x="154.000004585" y="1507.99996564" width="78.00000323499998" height="33.99998047999998" class="text">specify</text>
<text x="234.00000092000002" y="1507.99996564" width="10.000018209999979" height="30.999984880000056" class="text">)</text>
<text x="248.99998430999997" y="1507.99996564" width="10.000018210000036" height="30.999984880000056" class="text">.
</text>
<text x="383.99999295000003" y="1504.0000094400002" width="25.99999815000001" height="29.000063680000267" class="text">20 </text>
<text x="436.00000682" y="1509.00004004" width="182.99996603000005" height="33.000019879999854" class="text">individuals
</text>
<text x="379.0000102" y="1542.00005992" width="35.99999879000001" height="32.00005927999996" class="text">27 </text>
<text x="432.99998203" y="1548.9999889599999" width="156.00000646999996" height="36.99995332000003" class="text">companies
</text>
<text x="54.999998248999994" y="1574.9999432400002" width="38.000004189" height="32.99988332000021" class="text">13. </text>
<text x="105.000003206" y="1574.9999432400002" width="24.999998086000005" height="32.99988332000021" class="text">If </text>
<text x="134.99999634099999" y="1576.0000176400001" width="42.000007959000015" height="32.99999712000022" class="text">the </text>
<text x="191.99998769" y="1576.99997824" width="106.00000326999998" height="34.999918320000006" class="text">material </text>
<text x="305.00000195" y="1578.0000754" width="141.99998448999997" height="35.00005488000011" class="text">transmitted </text>
<text x="457.99998363000003" y="1578.0000754" width="51.00003488999994" height="34.00011704000008" class="text">was </text>
<text x="522.0000088099999" y="1578.0000754" width="8.999986519999993" height="33.00001988000008" class="text">a </text>
<text x="546.0000138600001" y="1578.0000754" width="43.99998875999995" height="33.00001988000008" class="text">film </text>
<text x="607.00003182" y="1578.0000754" width="24.99998402999995" height="33.00001988000008" class="text">or </text>
<text x="644.99998857" y="1579.00001324" width="57.99999317000004" height="33.99995772000011" class="text">radio </text>
<text x="719.9999933700001" y="1579.00001324" width="24.000022619999868" height="33.00001988000008" class="text">or </text>
<text x="753.00000251" y="1581.0000482399998" width="115.99998633999996" height="35.00005487999988" class="text">television </text>
<text x="884.99998636" y="1579.99997384" width="73.99999068000011" height="33.00001988000008" class="text">script</text>
<text x="954.9999908399999" y="1579.99997384" width="8.999986519999993" height="33.00001988000008" class="text">, </text>
<text x="975.0000272599999" y="1582.00000884" width="85.99993170999994" height="35.00005488000011" class="text">furnish </text>
<text x="1072.0000088699999" y="1581.0000482399998" width="41.999995660000195" height="33.000019879999854" class="text">the </text>
<text x="1121.99997693" y="1582.99994668" width="118.00003215000015" height="34.999918320000006" class="text">following </text>
<text x="1252.9999818" y="1584.0000438400002" width="145.00000928000009" height="35.000054880000334" class="text">information</text>
<text x="1404.00002309" y="1582.99994668" width="9.000004089999948" height="32.99999711999999" class="text">:
</text>
<text x="53.999999942" y="1643.9999558400002" width="75.00000655699999" height="30.999984880000284" class="text">Name </text>
<text x="140.00000368899998" y="1645.000053" width="28.999998341999998" height="32.00008204000005" class="text">of </text>
<text x="175.000005929" y="1645.000053" width="83.99999659100001" height="31.00012143999993" class="text">station</text>
<text x="262.99998872000003" y="1645.000053" width="9.000021659999959" height="31.00012143999993" class="text">, </text>
<text x="284.9999831" y="1646.9999514400001" width="150.00002716999995" height="33.00001988000008" class="text">organization</text>
<text x="439.99999302" y="1645.99999084" width="8.99998652000005" height="30.999962119999964" class="text">, </text>
<text x="458.99999775000003" y="1645.99999084" width="29.000022940000008" height="30.999962119999964" class="text">or </text>
<text x="495.00001411000005" y="1646.9999514400001" width="91.0000023099999" height="31.999922720000086" class="text">theater </text>
<text x="595.99998192" y="1646.9999514400001" width="71.00003617000004" height="30.999984880000056" class="text">using
</text>
<text x="888.9999725600001" y="1643.9999558400002" width="58.000045880000016" height="26.999892120000368" class="text">Date </text>
<text x="962.0000369699999" y="1645.000053" width="23.999917200000027" height="27.000051440000107" class="text">or </text>
<text x="995.9999723799999" y="1645.99999084" width="67.00003240000024" height="27.999989280000136" class="text">dates </text>
<text x="1072.0000088699999" y="1646.9999514400001" width="120.9999866600001" height="28.99994988000026" class="text">broadcast </text>
<text x="1204.99995413" y="1646.9999514400001" width="25.00003674000004" height="26.999914880000006" class="text">or </text>
<text x="1240.0000090800002" y="1648.00002584" width="81.99996307999982" height="29.00006368000004" class="text">shown </text>
<text x="1399.00002277" y="1646.9999514400001" width="122.99992705" height="26.999914880000006" class="text">Estimated </text>
<text x="1535.00004553" y="1646.9999514400001" width="133.99995937999984" height="26.999914880000006" class="text">attendance
</text>
<text x="53.999999942" y="1679.99997132" width="9.000002332999998" height="30.999984880000056" class="text">(</text>
<text x="67.000000774" y="1679.99997132" width="112.999993176" height="30.999984880000056" class="text">including </text>
<text x="189.99999459" y="1679.99997132" width="41.000016680000016" height="30.999984880000056" class="text">city </text>
<text x="239.00000124000002" y="1679.99997132" width="50.00000319999998" height="30.999984880000056" class="text">and </text>
<text x="302.00001230000004" y="1679.99997132" width="52.99997528" height="30.999984880000056" class="text">state</text>
<text x="361.00000202" y="1679.99997132" width="8.999986519999993" height="30.999984880000056" class="text">)
</text>
<text x="1431.0000002200002" y="1685.99993976" width="9.00000408999972" height="30.999984880000056" class="text">(</text>
<text x="1443.99999051" y="1685.99993976" width="35.99996364999993" height="30.999984880000056" class="text">for </text>
<text x="1487.00000029" y="1685.99993976" width="44.9999677400001" height="30.999984880000056" class="text">film</text>
<text x="1540.00004585" y="1685.99993976" width="8.999986519999993" height="30.999984880000056" class="text">(</text>
<text x="1549.00003237" y="1685.99993976" width="9.00000408999972" height="30.999984880000056" class="text">s</text>
<text x="1562.00002266" y="1685.99993976" width="8.999986519999993" height="30.999984880000056" class="text">)</text>
<text x="1573.99996369" y="1685.99993976" width="9.000004089999948" height="30.999984880000056" class="text">)
</text>
<text x="1440.00000431" y="1243.00002808" width="40.99996397000018" height="44.00001892" class="text">95 </text>
<text x="1442.00005012" y="1307.00001008" width="41.99999565999997" height="61.99994700000002" class="text">MAY </text>
<text x="1446.00003632" y="1354.0000246000002" width="40.99996396999995" height="37.00008988000036" class="text">26 </text>
<text x="1448.99999083" y="1418.0000066" width="40.999981540000135" height="38.99998832000006" class="text">PM </text>
<text x="1451.99994534" y="1518.99996468" width="43.00002734999998" height="80.9999722399998" class="text">4:16
</text>
<text x="1511.00002291" y="1357.9999580400001" width="47.00001354999972" height="145.9999148400002" class="text">CRIMINAL </text>
<text x="1518.99999531" y="1507.0000050400001" width="47.00001354999995" height="135.99999020000018" class="text">DIVISION
</text>
<text x="1544.99994075" y="1307.9999706800002" width="43.00002735000021" height="86.9999634400001" class="text">DEPT</text>
<text x="1549.99995864" y="1312.00004068" width="38.00000946000023" height="13.000034039999946" class="text">. </text>
<text x="1552.00000445" y="1352.99992744" width="39.000041150000015" height="35.99999272000014" class="text">OF </text>
<text x="1554.99995896" y="1496.99994384" width="44.000059040000224" height="122.99995616000001" class="text">JUSTICE
</text>
<text x="52.999999878" y="1970.9999769600001" width="40.999999110000005" height="31.999922720000086" class="text">14. </text>
<text x="102.999997807" y="1971.99993756" width="67.99999556700001" height="32.99988331999998" class="text">Have </text>
<text x="183.00000117" y="1971.99993756" width="44.99998531" height="31.999922720000086" class="text">two </text>
<text x="239.00000124000002" y="1973.99997256" width="77.99999444999997" height="33.99995772000011" class="text">copies </text>
<text x="326.99999633" y="1973.00001196" width="28.999987799999985" height="32.00005927999996" class="text">of </text>
<text x="360.00000547" y="1973.99997256" width="48.99998907999998" height="33.00001988000008" class="text">this </text>
<text x="424.99999206" y="1975.00006972" width="102.99997848000004" height="34.00011704000008" class="text">material </text>
<text x="534.00000255" y="1975.00006972" width="61.00001796000004" height="33.00001988000008" class="text">been </text>
<text x="611.9999794299999" y="1975.00006972" width="50.000020770000106" height="32.00008204000005" class="text">filed </text>
<text x="674.9999904900001" y="1976.0000075599999" width="55.00002109000002" height="33.000019879999854" class="text">with </text>
<text x="740.9999912" y="1976.0000075599999" width="40.99998154000002" height="32.00005927999996" class="text">the </text>
<text x="791.00002954" y="1978.0000425599999" width="159.99997510000003" height="34.000094279999985" class="text">Department </text>
<text x="957.0000366500001" y="1978.0000425599999" width="29.99993164" height="32.99999711999976" class="text">of </text>
<text x="995.0000461100001" y="1979.00000316" width="79.99991726999997" height="33.000019879999854" class="text">Justice</text>
<text x="1080.9999953899999" y="1978.0000425599999" width="8.999986519999993" height="32.00005927999973" class="text">? </text>
<text x="1124.00002274" y="1979.00000316" width="40.99998153999991" height="32.00005927999996" class="text">Yes </text>
<text x="1176.99994531" y="1979.00000316" width="9.00010951000013" height="32.00005927999996" class="text">☑
</text>
<text x="1248.9999956000001" y="1978.0000425599999" width="45.999981859999934" height="30.000024279999934" class="text">No </text>
<text x="1306.00002736" y="1976.99996816" width="7.999972399999933" height="27.99998927999991" class="text">☐
</text>
<text x="56.000001827" y="2037.9999545599999" width="37.999997161" height="30.000024279999934" class="text">15. </text>
<text x="102.999997807" y="2039.00005172" width="51.000006778" height="30.00002428000016" class="text">Has </text>
<text x="163.999992926" y="2039.00005172" width="45.000006393999996" height="30.00002428000016" class="text">this </text>
<text x="226.99998993" y="2040.99995016" width="104.00001017000002" height="31.999922720000086" class="text">material </text>
<text x="334.9999863" y="2040.99995016" width="58.000028310000005" height="30.999962119999964" class="text">been </text>
<text x="410.99998765" y="2042.99998516" width="91.00003744999998" height="31.999922720000086" class="text">labeled </text>
<text x="513.00000472" y="2042.00004732" width="28.000008819999948" height="30.00002428000016" class="text">as </text>
<text x="551.00003175" y="2043.99994576" width="106.99998225000002" height="31.999922720000086" class="text">required </text>
<text x="667.9999795" y="2042.99998516" width="33.000009139999975" height="30.00002428000016" class="text">by </text>
<text x="714.00001407" y="2043.99994576" width="37.99997431999998" height="29.999887719999833" class="text">the </text>
<text x="762.0000066" y="2043.99994576" width="35.00000223999996" height="29.999887719999833" class="text">act</text>
<text x="800.00001606" y="2043.99994576" width="8.999986519999993" height="29.999887719999833" class="text">? </text>
<text x="842.9999906999999" y="2045.00002016" width="43.000027350000096" height="30.000024279999934" class="text">Yes </text>
<text x="896.00001869" y="2045.00002016" width="9.000004089999948" height="30.000024279999934" class="text">☑
</text>
<text x="971.00004106" y="2042.99998516" width="44.99996773999999" height="27.99998927999991" class="text">No </text>
<text x="1022.0000232400001" y="2042.99998516" width="9.000004089999834" height="27.00002868000024" class="text">☐
</text>
<text x="50.000001443" y="2107.99992776" width="57.999996683999996" height="31.999922720000086" class="text">Date </text>
<text x="122.000006051" y="2109.0000249199998" width="28.999996585000005" height="30.000024279999707" class="text">of </text>
<text x="155.00000113500002" y="2112.9999583599997" width="82.00000700499999" height="33.0000198799994" class="text">report
</text>
<text x="119.00000410199999" y="2145.00001764" width="116.99998991800004" height="32.00005928000019" class="text">5/24/95
</text>
<text x="1022.0000232400001" y="2117.00002836" width="119.99997253999993" height="30.99996212000042" class="text">Signature
</text>
<text x="353.99999103" y="2109.99996276" width="77.99999445000003" height="28.99992711999994" class="text">Name </text>
<text x="441.99998612" y="2109.0000249199998" width="45.000020449999965" height="27.00002867999956" class="text">and </text>
<text x="500.99999341000006" y="2109.99996276" width="45.00002045000002" height="27.000028680000014" class="text">title
</text>
<text x="378.00001365" y="2148.9999738399997" width="86.99996340000001" height="31.999945479999496" class="text">Shoji </text>
<text x="483.00002036999996" y="2148.00001324" width="85.99998442000009" height="33.000019879999854" class="text">Isaki
</text>
<text x="378.00001365" y="2181.00003312" width="150.99998858000004" height="27.99998927999968" class="text">Executive </text>
<text x="548.00000696" y="2181.00003312" width="136.99998416999995" height="27.000028680000014" class="text">Director
</text>
<text x="1303.99998155" y="2195.00002776" width="182.00000462000003" height="88.00003784" class="text">Saker
</text>
<text x="772.99998622" y="2245.00001512" width="89.00000921000003" height="27.00002868000047" class="text">Formerly </text>
<text x="870.0000205399999" y="2243.9999407200003" width="50.000020770000106" height="24.99999367999999" class="text">OBD</text>
<text x="928.0000137100001" y="2243.9999407200003" width="6.999940709999805" height="24.99999367999999" class="text">-</text>
<text x="933.00001403" y="2243.9999407200003" width="22.99999093000008" height="24.99999367999999" class="text">69
</text>
<text x="1541.99998624" y="2240.99994512" width="44.999967739999875" height="17.999928080000245" class="text">FORM </text>
<text x="1597.9999863100002" y="2240.00000728" width="34.00004082999976" height="16.00005239999973" class="text">CRM</text>
<text x="1637.00002746" y="2240.00000728" width="3.9999861999999666" height="16.00005239999973" class="text">-</text>
<text x="1642.99995405" y="2239.0000466799997" width="23.00009634999992" height="16.000029639999866" class="text">159
</text>
<text x="1608.0000045200002" y="2262.0000053599997" width="29.00002293999978" height="16.000029639999866" class="text">FEB</text>
<text x="1642.00002778" y="2262.0000053599997" width="3.9999861999999666" height="16.000029639999866" class="text">. </text>
<text x="1652.99997226" y="2262.0000053599997" width="15.000018530000034" height="16.000029639999866" class="text">84
</text>
</g>
</svg>
