<svg xmlns="http://www.w3.org/2000/svg">
<style>.text { font-size: 14px; font-family: Arial, sans-serif; }</style>
<g id="page-0" transform="translate(0, 0)">
<rect width="1757" height="2276" fill="none" stroke="black" />
<text x="138.99999484" y="146.000003604" width="54.000006970000015" height="29.000006779999993" class="text">U.S. </text>
<text x="193.00000181000001" y="146.000003604" width="151.00000615" height="31.000003088" class="text">Department </text>
<text x="347.99999415999997" y="145.000002036" width="27.99999125000005" height="28.99999995200001" class="text">of </text>
<text x="380.00000675" y="145.000002036" width="85.99998441999998" height="30.000001520000012" class="text">Justice
</text>
<text x="134.99999634099999" y="181.00000613600002" width="132.00001371899998" height="32.00001376000003" class="text">Washington</text>
<text x="272.00001038" y="179.00000072400002" width="8.99998652000005" height="30.000008348000023" class="text">, </text>
<text x="281.99999345" y="179.00000072400002" width="44.00000633000002" height="30.999993984000014" class="text">DC </text>
<text x="334.9999863" y="179.00000072400002" width="68.00001137999999" height="31.99999555200003" class="text">20530
</text>
<text x="653.99997509" y="146.000003604" width="143.00003374999994" height="30.000001519999998" class="text">Amendment </text>
<text x="798.00002296" y="146.000003604" width="19.999983709999924" height="29.000006779999993" class="text">to </text>
<text x="828.00002488" y="148.00000674" width="134.00001208999993" height="31.000009915999996" class="text">Registration </text>
<text x="975.0000272599999" y="148.00000674" width="106.99998225000024" height="31.000009915999996" class="text">Statement
</text>
<text x="653.00001368" y="182.000007704" width="99.9999888299999" height="33.00001532800002" class="text">Pursuant </text>
<text x="760.99997491" y="182.000007704" width="18.000043319999918" height="33.00001532800002" class="text">to </text>
<text x="786.9999906300001" y="182.000007704" width="33.000009139999975" height="33.00001532800002" class="text">the </text>
<text x="828.00002488" y="182.000007704" width="84.99997030000009" height="33.00001532800002" class="text">Foreign </text>
<text x="923.00001339" y="182.000007704" width="76.99994518999995" height="33.00001532800002" class="text">Agents </text>
<text x="1004.0000501999999" y="182.000007704" width="135.99991734000002" height="33.00001532800002" class="text">Registration </text>
<text x="1149.99996818" y="182.000007704" width="43.00002734999998" height="33.00001532800002" class="text">Act </text>
<text x="1199.00002754" y="182.000007704" width="21.999976810000135" height="33.00001532800002" class="text">of </text>
<text x="1228.00005048" y="182.000007704" width="54.99998594999988" height="33.00001532800002" class="text">1938</text>
<text x="1284.99997682" y="182.000007704" width="8.999986519999993" height="33.00001532800002" class="text">, </text>
<text x="1297.00002327" y="182.000007704" width="24.99994889000004" height="33.00001532800002" class="text">as </text>
<text x="1324.00001797" y="182.000007704" width="104.00002773999995" height="33.00001532800002" class="text">amended
</text>
<text x="1380.00001804" y="148.00000674" width="38.00000946" height="15.00000303600001" class="text">OMB </text>
<text x="1422.0000137" y="148.00000674" width="21.999976810000135" height="15.00000303600001" class="text">NO</text>
<text x="1447.00005044" y="148.00000674" width="3.999986200000194" height="15.00000303600001" class="text">. </text>
<text x="1453.99999115" y="148.999992376" width="71.00003617000016" height="15.999988672" class="text">1105-0004
</text>
<text x="138.99999484" y="326.99999836" width="65.00000416" height="27.999989280000023" class="text">Privacy </text>
<text x="210.00001344" y="326.99999836" width="31.999977450000017" height="27.999989280000023" class="text">Act </text>
<text x="246.99999121000002" y="326.99999836" width="91.00001987999997" height="27.999989280000023" class="text">Statement</text>
<text x="338.00001109" y="326.99999836" width="7.9999899700000014" height="27.999989280000023" class="text">. </text>
<text x="352.99999448" y="326.99999836" width="51.99999630000002" height="27.999989280000023" class="text">Every </text>
<text x="411.9999842" y="326.99999836" width="100.00000640000002" height="27.999989280000023" class="text">registration </text>
<text x="520.9999771199999" y="326.99999836" width="86.00005470000008" height="27.999989280000023" class="text">statement</text>
<text x="604.00000703" y="326.99999836" width="7.999972399999933" height="27.999989280000023" class="text">, </text>
<text x="615.0000042199999" y="326.99999836" width="43.00000978000003" height="27.999989280000023" class="text">short </text>
<text x="665.9999864" y="326.99999836" width="40.00002012999994" height="27.999989280000023" class="text">form </text>
<text x="712.99999995" y="326.99999836" width="97.99999573000002" height="27.999989280000023" class="text">registration </text>
<text x="819.99999977" y="326.99999836" width="86.99996339999996" height="27.999989280000023" class="text">statement</text>
<text x="903.99999109" y="326.99999836" width="7.999972400000047" height="27.999989280000023" class="text">, </text>
<text x="915.99994969" y="326.99999836" width="119.00006384000017" height="27.999989280000023" class="text">supplemental </text>
<text x="1038.9999997300001" y="326.99999836" width="85.00002300999995" height="27.999989280000023" class="text">statement</text>
<text x="1125.00003686" y="326.99999836" width="7.999972400000161" height="27.999989280000023" class="text">, </text>
<text x="1136.99999546" y="326.99999836" width="58.999972150000076" height="27.999989280000023" class="text">exhibit</text>
<text x="1198.00001342" y="326.99999836" width="7.999954829999979" height="27.999989280000023" class="text">, </text>
<text x="1206.99999994" y="326.99999836" width="104.99995401000001" height="27.999989280000023" class="text">amendment</text>
<text x="1311.99995395" y="326.99999836" width="8.000077820000115" height="27.999989280000023" class="text">, </text>
<text x="1324.00001797" y="326.99999836" width="39.00002358000006" height="27.999989280000023" class="text">copy </text>
<text x="1371.0000139499998" y="326.99999836" width="20.000036420000015" height="27.999989280000023" class="text">of </text>
<text x="1394.00000488" y="326.99999836" width="126.00000455000009" height="27.999989280000023" class="text">informational </text>
<text x="1527.9999818299998" y="326.99999836" width="77.99997688000008" height="27.999989280000023" class="text">materials </text>
<text x="1613.00000484" y="326.99999836" width="15.000036099999988" height="27.999989280000023" class="text">or
</text>
<text x="137.99999829" y="355.99999376000005" width="41.999995659999996" height="31.999991000000023" class="text">other </text>
<text x="188.99999803999998" y="355.99999376000005" width="88.99999164000002" height="31.999991000000023" class="text">document </text>
<text x="281.99999345" y="355.99999376000005" width="16.999994060000006" height="31.999991000000023" class="text">or </text>
<text x="305.9999985" y="355.99999376000005" width="103.99999260000004" height="31.999991000000023" class="text">information </text>
<text x="417.99999864" y="355.99999376000005" width="35.99999879000001" height="31.999991000000023" class="text">filed </text>
<text x="458.99999775000003" y="355.99999376000005" width="38.00000946" height="31.999991000000023" class="text">with </text>
<text x="508.00000439999997" y="355.99999376000005" width="26.999977130000048" height="31.999991000000023" class="text">the </text>
<text x="539.9999818499999" y="355.99999376000005" width="76.00003649000007" height="31.999991000000023" class="text">Attorney </text>
<text x="621.99999764" y="355.99999376000005" width="73.99999068" height="31.999991000000023" class="text">General </text>
<text x="700.99998864" y="355.99999376000005" width="50.00002076999999" height="31.999991000000023" class="text">under </text>
<text x="756.0000273" y="355.99999376000005" width="28.999970229999917" height="31.999991000000023" class="text">this </text>
<text x="795.99997715" y="355.99999376000005" width="27.000029840000025" height="31.999991000000023" class="text">Act </text>
<text x="830.99997939" y="355.99999376000005" width="11.000032329999954" height="31.999991000000023" class="text">is </text>
<text x="851.00001581" y="355.99999376000005" width="8.999986519999993" height="31.999991000000023" class="text">a </text>
<text x="866.99999575" y="355.99999376000005" width="52.00003144000004" height="31.999991000000023" class="text">public </text>
<text x="925.00004163" y="355.99999376000005" width="56.99992633999989" height="31.999991000000023" class="text">record </text>
<text x="987.9999999800001" y="355.99999376000005" width="41.999995659999854" height="31.999991000000023" class="text">open </text>
<text x="1038.9999997300001" y="355.99999376000005" width="11.00003232999984" height="31.999991000000023" class="text">to </text>
<text x="1059.00001858" y="355.99999376000005" width="56.00000006999994" height="31.999991000000023" class="text">public </text>
<text x="1119.0000048499999" y="355.99999376000005" width="108.0000315100001" height="31.999991000000023" class="text">examination</text>
<text x="1232.00003668" y="355.99999376000005" width="8.999986519999993" height="31.999991000000023" class="text">, </text>
<text x="1243.99999528" y="355.99999376000005" width="86.99996340000007" height="31.999991000000023" class="text">inspection </text>
<text x="1336.99999069" y="355.99999376000005" width="30.999963330000128" height="31.999991000000023" class="text">and </text>
<text x="1375.00000015" y="355.99999376000005" width="71.00003616999993" height="31.999991000000023" class="text">copying </text>
<text x="1456.00003696" y="355.99999376000005" width="57.99994046000006" height="31.999991000000023" class="text">during </text>
<text x="1516.9999495" y="355.99999376000005" width="27.000082550000116" height="31.999991000000023" class="text">the </text>
<text x="1552.00000445" y="355.99999376000005" width="53.99995425999987" height="31.999991000000023" class="text">posted
</text>
<text x="133.999999791" y="382.00001632000004" width="78.000006749" height="30.000024280000048" class="text">business </text>
<text x="214.99999619" y="382.00001632000004" width="51.000017319999984" height="30.000024280000048" class="text">hours </text>
<text x="273.00000693000004" y="382.00001632000004" width="16.99999405999995" height="30.000024280000048" class="text">of </text>
<text x="295.99999786" y="382.00001632000004" width="23.99998747999996" height="30.000024280000048" class="text">the </text>
<text x="329.000007" y="382.00001632000004" width="105.00000672000004" height="30.000024280000048" class="text">Registration </text>
<text x="441.99998612" y="382.00001632000004" width="39.000041150000015" height="30.000024280000048" class="text">Unit </text>
<text x="488.00002069000004" y="382.00001632000004" width="14.000004409999917" height="30.000024280000048" class="text">in </text>
<text x="509.9999975" y="382.00001632000004" width="104.00002774000001" height="30.000024280000048" class="text">Washington</text>
<text x="618.00001144" y="382.00001632000004" width="8.999986520000107" height="30.000024280000048" class="text">, </text>
<text x="628.9999910600001" y="382.00001632000004" width="45.99999943" height="30.000024280000048" class="text">D.C. </text>
<text x="681.99998391" y="382.00001632000004" width="38.000009460000115" height="30.000024280000048" class="text">One </text>
<text x="725.99997267" y="382.00001632000004" width="42.000013230000036" height="30.000024280000048" class="text">copy </text>
<text x="772.99998622" y="382.00001632000004" width="22.00002952" height="30.000024280000048" class="text">of </text>
<text x="798.00002296" y="382.00001632000004" width="46.99996083999997" height="30.000024280000048" class="text">every </text>
<text x="851.99997722" y="382.00001632000004" width="38.000027029999956" height="30.000024280000048" class="text">such </text>
<text x="900.00000489" y="382.00001632000004" width="85.9999492799999" height="30.000024280000048" class="text">document</text>
<text x="984.0000137799999" y="382.00001632000004" width="8.999986519999993" height="30.000024280000048" class="text">, </text>
<text x="995.9999723799999" y="382.00001632000004" width="47.00001354999995" height="30.000024280000048" class="text">other </text>
<text x="1049.00000037" y="382.00001632000004" width="33.0000091400002" height="30.000024280000048" class="text">than </text>
<text x="1093.99996811" y="382.00001632000004" width="120.00007795999977" height="30.000024280000048" class="text">informational </text>
<text x="1223.00005016" y="382.00001632000004" width="76.99994519000006" height="30.000024280000048" class="text">materials</text>
<text x="1302.00004116" y="382.00001632000004" width="8.999986519999993" height="30.000024280000048" class="text">, </text>
<text x="1312.99996807" y="382.00001632000004" width="11.000049900000022" height="30.000024280000048" class="text">is </text>
<text x="1331.9999728" y="382.00001632000004" width="122.00001834999989" height="30.000024280000048" class="text">automatically </text>
<text x="1460.0000231600002" y="382.00001632000004" width="77.99997687999962" height="30.000024280000048" class="text">provided </text>
<text x="1544.99994075" y="382.00001632000004" width="17.000081910000063" height="30.000024280000048" class="text">to </text>
<text x="1571.00000918" y="382.00001632000004" width="25.00003674000004" height="30.000024280000048" class="text">the
</text>
<text x="137.99999829" y="407.00001" width="80.00000512" height="28.99999539999999" class="text">Secretary </text>
<text x="226.99998993" y="407.00001" width="17.0000292" height="28.99999539999999" class="text">of </text>
<text x="251.00001254999998" y="407.00001" width="41.999995659999996" height="28.99999539999999" class="text">State </text>
<text x="298.99998751" y="407.00001" width="82.00001579000002" height="28.99999539999999" class="text">pursuant </text>
<text x="386.00000362000003" y="407.00001" width="10.999997189999988" height="28.99999539999999" class="text">to </text>
<text x="406.00000489999996" y="407.00001" width="65.00000416000006" height="28.99999539999999" class="text">Section </text>
<text x="479.99999558" y="407.00001" width="8.000025110000024" height="28.99999539999999" class="text">6</text>
<text x="490.99999277" y="407.00001" width="8.000007539999956" height="28.99999539999999" class="text">(</text>
<text x="497.00000721000004" y="407.00001" width="7.999972399999933" height="28.99999539999999" class="text">b</text>
<text x="509.00001851999997" y="407.00001" width="7.999972400000104" height="28.99999539999999" class="text">) </text>
<text x="523.00002293" y="407.00001" width="16.999958919999926" height="28.99999539999999" class="text">of </text>
<text x="544.99999974" y="407.00001" width="27.999991249999994" height="28.99999539999999" class="text">the </text>
<text x="579.000023" y="407.00001" width="32.999956429999884" height="28.99999539999999" class="text">Act</text>
<text x="609.9999863300001" y="407.00001" width="8.00002510999991" height="28.99999539999999" class="text">, </text>
<text x="621.99999764" y="407.00001" width="29.000022940000008" height="28.99999539999999" class="text">and </text>
<text x="660.99998608" y="407.00001" width="53.000027990000035" height="28.99999539999999" class="text">copies </text>
<text x="719.9999933700001" y="407.00001" width="20.99999782999987" height="28.99999539999999" class="text">of </text>
<text x="744.00001599" y="407.00001" width="31.999977450000074" height="28.99999539999999" class="text">any </text>
<text x="779.99997964" y="407.00001" width="34.00004082999999" height="28.99999539999999" class="text">and </text>
<text x="819.00002079" y="407.00001" width="24.99998402999995" height="28.99999539999999" class="text">all </text>
<text x="847.00002961" y="407.00001" width="94.9999885100001" height="28.99999539999999" class="text">documents </text>
<text x="951.00000464" y="407.00001" width="24.000022619999868" height="28.99999539999999" class="text">are </text>
<text x="981.99996797" y="407.00001" width="76.00003649000018" height="28.99999539999999" class="text">routinely </text>
<text x="1069.00003679" y="407.00001" width="45.999981859999934" height="28.99999539999999" class="text">made </text>
<text x="1120.99994524" y="407.00001" width="79.00011399000005" height="28.99999539999999" class="text">available </text>
<text x="1209.00004575" y="407.00001" width="14.999913109999852" height="28.99999539999999" class="text">to </text>
<text x="1231.0000225600002" y="407.00001" width="45.99998185999971" height="28.99999539999999" class="text">other </text>
<text x="1282.00000474" y="407.00001" width="76.00003649000018" height="28.99999539999999" class="text">agencies</text>
<text x="1358.00004123" y="407.00001" width="7.999972399999933" height="28.99999539999999" class="text">, </text>
<text x="1368.99996814" y="407.00001" width="110.99998602000005" height="28.99999539999999" class="text">departments </text>
<text x="1485.99998617" y="407.00001" width="29.000022940000008" height="28.99999539999999" class="text">and </text>
<text x="1526.99996771" y="407.00001" width="77.00005061000002" height="28.99999539999999" class="text">Congress
</text>
<text x="133.999999791" y="433.0000098" width="83.00000706900002" height="27.999989279999966" class="text">pursuant </text>
<text x="218.99999996" y="433.0000098" width="16.999994060000034" height="27.999989279999966" class="text">to </text>
<text x="244.00001913" y="433.0000098" width="62.99999349000001" height="27.999989279999966" class="text">Section </text>
<text x="315.00000259" y="433.0000098" width="8.000007540000013" height="27.999989279999966" class="text">6</text>
<text x="325.99999978" y="433.0000098" width="7.9999899700000014" height="27.999989279999966" class="text">(</text>
<text x="333.99998975" y="433.0000098" width="7.9999899700000014" height="27.999989279999966" class="text">c</text>
<text x="345.00000451" y="433.0000098" width="7.9999899700000014" height="27.999989279999966" class="text">) </text>
<text x="355.99998413" y="433.0000098" width="20.99999783000004" height="27.999989279999966" class="text">of </text>
<text x="380.00000675" y="433.0000098" width="26.999994700000002" height="27.999989279999966" class="text">the </text>
<text x="413.00001589" y="433.0000098" width="33.00000914000003" height="27.999989279999966" class="text">Act</text>
<text x="443.00000024" y="433.0000098" width="7.99997239999999" height="27.999989279999966" class="text">. </text>
<text x="465.99999117" y="433.0000098" width="31.000016040000048" height="27.999989279999966" class="text">The </text>
<text x="504.99997960999997" y="433.0000098" width="71.99999758000001" height="27.999989279999966" class="text">Attorney </text>
<text x="586.9999954" y="433.0000098" width="71.00001859999998" height="27.999989279999966" class="text">General </text>
<text x="662.0000002" y="433.0000098" width="36.99999533999994" height="27.999989279999966" class="text">also </text>
<text x="706.00000653" y="433.0000098" width="76.99999790000004" height="27.999989279999966" class="text">transmits </text>
<text x="791.00002954" y="433.0000098" width="7.999972399999933" height="27.999989279999966" class="text">a </text>
<text x="807.00000948" y="433.0000098" width="42.999974640000005" height="27.999989279999966" class="text">semi</text>
<text x="847.00002961" y="433.0000098" width="7.999972400000047" height="27.999989279999966" class="text">-</text>
<text x="855.00000201" y="433.0000098" width="60.99994767999999" height="27.999989279999966" class="text">annual </text>
<text x="919.0000271900001" y="433.0000098" width="56.00000006999983" height="27.999989279999966" class="text">report </text>
<text x="977.9999817700001" y="433.0000098" width="16.00005021999982" height="27.999989279999966" class="text">to </text>
<text x="1000.9999727" y="433.0000098" width="84.00000889000012" height="27.999989279999966" class="text">Congress </text>
<text x="1089.9999819099999" y="433.0000098" width="16.00005022000005" height="27.999989279999966" class="text">on </text>
<text x="1115.00001865" y="433.0000098" width="28.000008820000176" height="27.999989279999966" class="text">the </text>
<text x="1149.99996818" y="433.0000098" width="129.99999075000005" height="27.999989279999966" class="text">Administration </text>
<text x="1288.99996302" y="433.0000098" width="20.00001885000006" height="27.999989279999966" class="text">of </text>
<text x="1311.00002768" y="433.0000098" width="28.999917520000054" height="27.999989279999966" class="text">the </text>
<text x="1345.99997721" y="433.0000098" width="31.999995020000142" height="27.999989279999966" class="text">Act </text>
<text x="1381.9999584299999" y="433.0000098" width="52.0000138700002" height="27.999989279999966" class="text">which </text>
<text x="1445.00000463" y="433.0000098" width="33.000009139999975" height="27.999989279999966" class="text">lists </text>
<text x="1481.99999997" y="433.0000098" width="29.000022940000008" height="27.999989279999966" class="text">the </text>
<text x="1516.00002323" y="433.0000098" width="58.999972150000076" height="27.999989279999966" class="text">names </text>
<text x="1579.9999957" y="433.0000098" width="16.00005022000005" height="27.999989279999966" class="text">of </text>
<text x="1602.99998663" y="433.0000098" width="24.00002261999998" height="27.999989279999966" class="text">all
</text>
<text x="137.00000174" y="459.99999296" width="52.99999285000001" height="28.99999539999999" class="text">agents </text>
<text x="198.99999868" y="459.99999296" width="85.99998442" height="28.99999539999999" class="text">registered </text>
<text x="289.00000444" y="459.99999296" width="52.99997528" height="28.99999539999999" class="text">under </text>
<text x="345.00000451" y="459.99999296" width="29.999984349999977" height="28.99999539999999" class="text">the </text>
<text x="381.0000033" y="459.99999296" width="33.000009139999975" height="28.99999539999999" class="text">Act </text>
<text x="417.00000209" y="459.99999296" width="33.00000913999992" height="28.99999539999999" class="text">and </text>
<text x="457.99998363000003" y="459.99999296" width="24.000005049999913" height="28.99999539999999" class="text">the </text>
<text x="488.99999966999997" y="459.99999296" width="59.000007289999985" height="28.99999539999999" class="text">foreign </text>
<text x="555.99997936" y="459.99999296" width="86.00000198999999" height="28.99999539999999" class="text">principals </text>
<text x="649.9999888899999" y="459.99999296" width="38.00002703000007" height="28.99999539999999" class="text">they </text>
<text x="693.9999952200001" y="459.99999296" width="83.99999131999994" height="28.99999539999999" class="text">represent</text>
<text x="774.99997932" y="459.99999296" width="8.000025110000024" height="28.99999539999999" class="text">. </text>
<text x="793.9999840500001" y="459.99999296" width="38.000027029999956" height="28.99999539999999" class="text">This </text>
<text x="837.0000114" y="459.99999296" width="51.99996116000011" height="28.99999539999999" class="text">report </text>
<text x="895.00000457" y="459.99999296" width="15.000018530000034" height="28.99999539999999" class="text">is </text>
<text x="916.99998138" y="459.99999296" width="76.00001891999989" height="28.99999539999999" class="text">available </text>
<text x="1000.9999727" y="459.99999296" width="17.000064339999994" height="28.99999539999999" class="text">to </text>
<text x="1026.00000944" y="459.99999296" width="24.00002261999998" height="28.99999539999999" class="text">the </text>
<text x="1055.00003238" y="459.99999296" width="53.99997183000005" height="28.99999539999999" class="text">public</text>
<text x="1111.00003245" y="459.99999296" width="7.999972399999933" height="28.99999539999999" class="text">. </text>
<text x="1130.99996345" y="459.99999296" width="59.999986270000136" height="28.99999539999999" class="text">Finally</text>
<text x="1191.9999814100001" y="459.99999296" width="8.000077819999888" height="28.99999539999999" class="text">, </text>
<text x="1205.99996825" y="459.99999296" width="24.00002262000021" height="28.99999539999999" class="text">the </text>
<text x="1238.9999773900001" y="459.99999296" width="75.0000223699999" height="28.99999539999999" class="text">Attorney </text>
<text x="1321.00004589" y="459.99999296" width="74.99989938000022" height="28.99999539999999" class="text">General </text>
<text x="1400.0000368899998" y="459.99999296" width="61.00001796000038" height="28.99999539999999" class="text">intends</text>
<text x="1461.99996355" y="459.99999296" width="8.000077819999888" height="28.99999539999999" class="text">, </text>
<text x="1475.00005926" y="459.99999296" width="14.99991311000008" height="28.99999539999999" class="text">at </text>
<text x="1493.99995857" y="459.99999296" width="29.000022940000008" height="28.99999539999999" class="text">the </text>
<text x="1530.00002764" y="459.99999296" width="65.00000415999989" height="28.99999539999999" class="text">earliest
</text>
<text x="133.000003241" y="485.0000094" width="74.99999952900001" height="27.00000591999998" class="text">possible </text>
<text x="213.00000309" y="485.0000094" width="102.99999605" height="27.00000591999998" class="text">opportunity</text>
<text x="315.99999914" y="485.0000094" width="8.000007540000013" height="27.00000591999998" class="text">, </text>
<text x="327.99999288" y="485.0000094" width="15.000018529999977" height="27.00000591999998" class="text">to </text>
<text x="354.99998758000004" y="485.0000094" width="46.00001699999996" height="27.00000591999998" class="text">make </text>
<text x="406.00000489999996" y="485.0000094" width="45.99999943000006" height="27.00000591999998" class="text">these </text>
<text x="455.99999053000005" y="485.0000094" width="57.000014189999945" height="27.00000591999998" class="text">public </text>
<text x="518.99998402" y="485.0000094" width="92.99999540999988" height="27.00000591999998" class="text">documents </text>
<text x="621.0000186599999" y="485.0000094" width="76.99996276000002" height="27.00000591999998" class="text">available </text>
<text x="707.00002065" y="485.0000094" width="19.999983710000038" height="27.00000591999998" class="text">on </text>
<text x="735.99999088" y="485.0000094" width="22.999990929999967" height="27.00000591999998" class="text">the </text>
<text x="767.9999859000001" y="485.0000094" width="69.00002549999988" height="27.00000591999998" class="text">Internet </text>
<text x="842.00001172" y="485.0000094" width="15.999997510000071" height="27.00000591999998" class="text">on </text>
<text x="866.99999575" y="485.0000094" width="26.999994700000002" height="27.00000591999998" class="text">the </text>
<text x="900.00000489" y="485.0000094" width="108.00003150999999" height="27.00000591999998" class="text">Department </text>
<text x="1013.0000367199999" y="485.0000094" width="19.000004730000114" height="27.00000591999998" class="text">of </text>
<text x="1037.99996804" y="485.0000094" width="54.99998594999988" height="27.00000591999998" class="text">Justice </text>
<text x="1100.0000001199999" y="485.0000094" width="54.99998595000011" height="27.00000591999998" class="text">World </text>
<text x="1162.9999584700001" y="485.0000094" width="46.999995979999994" height="27.00000591999998" class="text">Wide </text>
<text x="1215.99998646" y="485.0000094" width="39.000041150000015" height="27.00000591999998" class="text">Web </text>
<text x="1264.00001413" y="485.0000094" width="28.000008819999948" height="27.00000591999998" class="text">site</text>
<text x="1296.00000915" y="485.0000094" width="7.999972399999933" height="27.00000591999998" class="text">.
</text>
<text x="134.99999634099999" y="538.99999848" width="54.999998249000015" height="31.000007640000035" class="text">Public </text>
<text x="196.00000903" y="538.99999848" width="91.99999886" height="31.000007640000035" class="text">Reporting </text>
<text x="294.00000476" y="538.99999848" width="59.999986269999965" height="31.000007640000035" class="text">Burden</text>
<text x="360.00000547" y="538.99999848" width="8.999986519999993" height="31.000007640000035" class="text">. </text>
<text x="378.00001365" y="538.99999848" width="53.99997182999999" height="31.000007640000035" class="text">Public </text>
<text x="437.00000337" y="538.99999848" width="83.99997374999992" height="31.000007640000035" class="text">reporting </text>
<text x="525.9999774400001" y="538.99999848" width="64.00002517999997" height="31.000007640000035" class="text">burden </text>
<text x="591.99999572" y="538.99999848" width="28.000008820000062" height="31.000007640000035" class="text">for </text>
<text x="623.00001176" y="538.99999848" width="31.99999502000003" height="31.000007640000035" class="text">this </text>
<text x="662.99997918" y="538.99999848" width="83.00002991000008" height="31.000007640000035" class="text">collection </text>
<text x="756.0000273" y="538.99999848" width="18.99995201999991" height="31.000007640000035" class="text">of </text>
<text x="779.99997964" y="538.99999848" width="98.99997471000006" height="31.000007640000035" class="text">information </text>
<text x="888.9999725600001" y="538.99999848" width="11.000032329999954" height="31.000007640000035" class="text">is </text>
<text x="907.9999772900001" y="538.99999848" width="84.00000888999989" height="31.000007640000035" class="text">estimated </text>
<text x="999.99995858" y="538.99999848" width="11.000032329999954" height="31.000007640000035" class="text">to </text>
<text x="1018.99996331" y="538.99999848" width="72.00005028999988" height="31.000007640000035" class="text">average </text>
<text x="1097.00004561" y="538.99999848" width="22.999990929999967" height="31.000007640000035" class="text">1.5 </text>
<text x="1126.99997725" y="538.99999848" width="53.00004555999999" height="31.000007640000035" class="text">hours </text>
<text x="1182.99997732" y="538.99999848" width="31.000068749999855" height="31.000007640000035" class="text">per </text>
<text x="1218.00003227" y="538.99999848" width="77.99997688000008" height="31.000007640000035" class="text">response</text>
<text x="1296.00000915" y="538.99999848" width="8.999986519999993" height="31.000007640000035" class="text">, </text>
<text x="1310.00001356" y="538.99999848" width="82.99997719999988" height="31.000007640000035" class="text">including </text>
<text x="1395.00003657" y="538.99999848" width="31.99997744999996" height="31.000007640000035" class="text">the </text>
<text x="1431.0000002200002" y="538.99999848" width="38.00002702999973" height="31.000007640000035" class="text">time </text>
<text x="1475.99996796" y="538.99999848" width="26.000068430000056" height="31.000007640000035" class="text">for </text>
<text x="1507.00003671" y="538.99999848" width="84.99991759" height="31.000007640000035" class="text">reviewing
</text>
<text x="138.99999484" y="564.00001492" width="101.00000295000001" height="27.000005920000035" class="text">instructions</text>
<text x="239.00000124000002" y="564.00001492" width="7.9999899700000014" height="27.000005920000035" class="text">, </text>
<text x="251.00001254999998" y="564.00001492" width="83.99997375000001" height="27.000005920000035" class="text">searching </text>
<text x="341.99997972" y="564.00001492" width="68.00001138000005" height="27.000005920000035" class="text">existing </text>
<text x="417.99999864" y="564.00001492" width="34.00000569000002" height="27.000005920000035" class="text">data </text>
<text x="462.00002254000003" y="564.00001492" width="62.99999348999995" height="27.000005920000035" class="text">sources</text>
<text x="525.9999774400001" y="564.00001492" width="8.00002510999991" height="27.000005920000035" class="text">, </text>
<text x="539.00002044" y="564.00001492" width="81.99999821999995" height="27.000005920000035" class="text">gathering </text>
<text x="627.99997694" y="564.00001492" width="30.000037059999954" height="27.000005920000035" class="text">and </text>
<text x="669.00001119" y="564.00001492" width="102.99999605000005" height="27.000005920000035" class="text">maintaining </text>
<text x="777.00002513" y="564.00001492" width="26.999977130000048" height="27.000005920000035" class="text">the </text>
<text x="810.99999568" y="564.00001492" width="35.00000224000007" height="27.000005920000035" class="text">data </text>
<text x="855.00000201" y="564.00001492" width="60.00003898" height="27.000005920000035" class="text">needed</text>
<text x="914.0000093" y="564.00001492" width="7.999972400000047" height="27.000005920000035" class="text">, </text>
<text x="929.00002783" y="564.00001492" width="29.999949210000068" height="27.000005920000035" class="text">and </text>
<text x="966.0000231700001" y="564.00001492" width="94.99993579999978" height="27.000005920000035" class="text">completing </text>
<text x="1068.00002267" y="564.00001492" width="34.00002326000026" height="27.000005920000035" class="text">and </text>
<text x="1106.9999584" y="564.00001492" width="86.00003713000001" height="27.000005920000035" class="text">reviewing </text>
<text x="1203.00001374" y="564.00001492" width="25.999963009999874" height="27.000005920000035" class="text">the </text>
<text x="1232.99996295" y="564.00001492" width="83.00008262000006" height="27.000005920000035" class="text">collection </text>
<text x="1326.99997248" y="564.00001492" width="20.000036420000015" height="27.000005920000035" class="text">of </text>
<text x="1349.99996341" y="564.00001492" width="101.00007323000023" height="27.000005920000035" class="text">information</text>
<text x="1453.99999115" y="564.00001492" width="7.999972400000161" height="27.000005920000035" class="text">. </text>
<text x="1473.00001345" y="564.00001492" width="40.99996396999995" height="27.000005920000035" class="text">Send </text>
<text x="1525.00002732" y="564.00001492" width="87.9999775199999" height="27.000005920000035" class="text">comments
</text>
<text x="133.999999791" y="589.9999919600001" width="87.999989819" height="27.00000592000015" class="text">regarding </text>
<text x="226.99998993" y="589.9999919600001" width="30.00000191999996" height="27.00000592000015" class="text">this </text>
<text x="262.99998872000003" y="589.9999919600001" width="60.00002140999999" height="27.00000592000015" class="text">burden </text>
<text x="331.0000001" y="589.9999919600001" width="72.99999412999995" height="27.00000592000015" class="text">estimate </text>
<text x="411.9999842" y="589.9999919600001" width="20.00000128000005" height="27.00000592000015" class="text">or </text>
<text x="437.00000337" y="589.9999919600001" width="30.00001949" height="27.00000592000015" class="text">any </text>
<text x="474.00001628" y="589.9999919600001" width="45.99999943000006" height="27.00000592000015" class="text">other </text>
<text x="525.9999774400001" y="589.9999919600001" width="57.000031759999956" height="27.00000592000015" class="text">aspect </text>
<text x="585.0000023" y="589.9999919600001" width="19.00000473" height="27.00000592000015" class="text">of </text>
<text x="611.0000180200001" y="589.9999919600001" width="29.999984349999863" height="27.00000592000015" class="text">this </text>
<text x="646.99998167" y="589.9999919600001" width="84.00000889" height="27.00000592000015" class="text">collection </text>
<text x="739.00001567" y="589.9999919600001" width="19.00000473" height="27.00000592000015" class="text">of </text>
<text x="760.0000135" y="589.9999919600001" width="103.99997502999997" height="27.00000592000015" class="text">information</text>
<text x="865.99998163" y="589.9999919600001" width="8.000025110000024" height="27.00000592000015" class="text">, </text>
<text x="877.00001396" y="589.9999919600001" width="85.00002300999984" height="27.00000592000015" class="text">including </text>
<text x="966.0000231700001" y="589.9999919600001" width="103.00001361999989" height="27.00000592000015" class="text">suggestions </text>
<text x="1074.0000546800002" y="589.9999919600001" width="26.999977129999706" height="27.00000592000015" class="text">for </text>
<text x="1106.9999584" y="589.9999919600001" width="75.00000480000017" height="27.00000592000015" class="text">reducing </text>
<text x="1187.99999521" y="589.9999919600001" width="30.000037060000068" height="27.00000592000015" class="text">this </text>
<text x="1228.00005048" y="589.9999919600001" width="59.99998626999991" height="27.00000592000015" class="text">burden </text>
<text x="1293.00005464" y="589.9999919600001" width="14.99991311000008" height="27.00000592000015" class="text">to </text>
<text x="1316.99995427" y="589.9999919600001" width="52.000013869999975" height="27.00000592000015" class="text">Chief</text>
<text x="1364.99998194" y="589.9999919600001" width="7.999972399999933" height="27.00000592000015" class="text">, </text>
<text x="1377.9999722300001" y="589.9999919600001" width="106.9999822499999" height="27.00000592000015" class="text">Registration </text>
<text x="1493.99995857" y="589.9999919600001" width="36.99999533999994" height="27.00000592000015" class="text">Unit</text>
<text x="1532.99999972" y="589.9999919600001" width="7.999972399999933" height="27.00000592000015" class="text">, </text>
<text x="1544.00003205" y="589.9999919600001" width="80.00002268999992" height="27.00000592000015" class="text">Criminal
</text>
<text x="134.99999634099999" y="617.00002064" width="75.00001709900002" height="28.000057560000073" class="text">Division</text>
<text x="213.00000309" y="617.00002064" width="7.9999899700000014" height="28.000057560000073" class="text">, </text>
<text x="221.99998961" y="617.00002064" width="44.000023899999974" height="28.000057560000073" class="text">U.S. </text>
<text x="269.99999971" y="617.00002064" width="105.99998570000002" height="28.000057560000073" class="text">Department </text>
<text x="381.99999985" y="617.00002064" width="15.000000960000023" height="28.000057560000073" class="text">of </text>
<text x="402.99999768" y="617.00002064" width="57.99999317000004" height="28.000057560000073" class="text">Justice</text>
<text x="464.99997705000004" y="617.00002064" width="8.00002510999991" height="28.000057560000073" class="text">, </text>
<text x="474.99999526000005" y="617.00002064" width="104.00002774000001" height="28.000057560000073" class="text">Washington</text>
<text x="581.99999508" y="617.00002064" width="8.00000754000007" height="28.000057560000073" class="text">, </text>
<text x="593.00002741" y="617.00002064" width="30.9999633299999" height="28.000057560000073" class="text">DC </text>
<text x="632.99997726" y="617.00002064" width="53.000045559999876" height="28.000057560000073" class="text">20530</text>
<text x="688.99997733" y="617.00002064" width="8.000025110000024" height="28.000057560000073" class="text">; </text>
<text x="704.0000134300001" y="617.00002064" width="31.000016039999878" height="28.000057560000073" class="text">and </text>
<text x="739.00001567" y="617.00002064" width="15.999979940000003" height="28.000057560000073" class="text">to </text>
<text x="762.0000066" y="617.00002064" width="27.999991249999994" height="28.000057560000073" class="text">the </text>
<text x="795.99997715" y="617.00002064" width="52.00001387000009" height="28.000057560000073" class="text">Office </text>
<text x="858.00000923" y="617.00002064" width="17.99999060999994" height="28.000057560000073" class="text">of </text>
<text x="878.99995435" y="617.00002064" width="104.0000453099999" height="28.000057560000073" class="text">Information </text>
<text x="990.9999544899999" y="617.00002064" width="31.000068750000196" height="28.000057560000073" class="text">and </text>
<text x="1027.99994983" y="617.00002064" width="97.0000870299998" height="28.000057560000073" class="text">Regulatory </text>
<text x="1136.99999546" y="617.00002064" width="58.000045880000016" height="28.000057560000073" class="text">Affairs</text>
<text x="1195.99996761" y="617.00002064" width="8.000060249999933" height="28.000057560000073" class="text">, </text>
<text x="1208.00001406" y="617.00002064" width="54.99998594999988" height="28.000057560000073" class="text">Office </text>
<text x="1266.9999862099999" y="617.00002064" width="21.000050540000075" height="28.000057560000073" class="text">of </text>
<text x="1289.99997714" y="617.00002064" width="122.00001834999989" height="28.000057560000073" class="text">Management </text>
<text x="1418.0000275" y="617.00002064" width="26.999977129999934" height="28.000057560000073" class="text">and </text>
<text x="1456.00003696" y="617.00002064" width="63.9999724700001" height="28.000057560000073" class="text">Budget</text>
<text x="1518.99999531" y="617.00002064" width="7.999972399999933" height="28.000057560000073" class="text">, </text>
<text x="1527.9999818299998" y="617.00002064" width="108.00001394000014" height="28.000057560000073" class="text">Washington</text>
<text x="1638.00004158" y="617.00002064" width="7.999972399999933" height="28.000057560000073" class="text">,
</text>
<text x="136.00000519" y="637.00000648" width="28.999998341999998" height="19.999985840000022" class="text">DC </text>
<text x="176.00000775" y="638.9999732" width="56.00000006999997" height="21.999952559999997" class="text">20503</text>
<text x="231.00001127000002" y="638.0000126" width="5.99999686999999" height="20.00003135999998" class="text">.
</text>
<text x="155.99999768499998" y="724.0000154400001" width="22.00000316500001" height="30.00002428000016" class="text">1. </text>
<text x="188.99999803999998" y="725.9999821600001" width="65.00000416" height="31.999991000000136" class="text">Name </text>
<text x="263.99998527" y="725.9999821600001" width="22.00002952" height="29.99995600000011" class="text">of </text>
<text x="291.99999409000003" y="728.9999777600001" width="117.99999701000002" height="32.999951600000145" class="text">Registrant
</text>
<text x="241.99999089000002" y="756.99996704" width="97.99999573" height="25.999954279999997" class="text">ARNOLD </text>
<text x="366.00000234" y="756.99996704" width="6.999993420000067" height="25.999954279999997" class="text">&amp; </text>
<text x="397.99999736" y="756.99996704" width="97.99999572999997" height="25.999954279999997" class="text">PORTER
</text>
<text x="909.0000089800001" y="728.9999777600001" width="24.000005049999913" height="31.999991000000136" class="text">2. </text>
<text x="942.00001812" y="728.9999777600001" width="134.99999106999985" height="32.999951600000145" class="text">Registration </text>
<text x="1085.99999571" y="728.0000399200001" width="44.9999677400001" height="32.000013760000115" class="text">No.
</text>
<text x="1172.00005041" y="756.99996704" width="62.99994077999986" height="26.999960399999964" class="text">1750
</text>
<text x="134.99999634099999" y="935.99997004" width="24.999999843000012" height="33.99995772" class="text">3. </text>
<text x="172.999998773" y="936.9999989199999" width="46.999997737" height="34.99998659999994" class="text">This </text>
<text x="225.99999338" y="938.00000504" width="129.99999074999997" height="35.99999272000002" class="text">amendment </text>
<text x="366.00000234" y="938.00000504" width="13.00000786000004" height="34.000025999999934" class="text">is </text>
<text x="387.99999672" y="938.00000504" width="47.00001354999995" height="34.000025999999934" class="text">filed </text>
<text x="446.00002503" y="938.00000504" width="18.999952020000023" height="34.000025999999934" class="text">to </text>
<text x="476.99998836" y="939.99997176" width="120.99998665999999" height="35.99999271999991" class="text">accomplish </text>
<text x="611.0000180200001" y="939.99997176" width="33.999970549999944" height="34.99998659999994" class="text">the </text>
<text x="649.9999888899999" y="941.0000006399999" width="106.99999982000008" height="36.00001547999989" class="text">following </text>
<text x="762.0000066" y="942.00000676" width="97.99999573000002" height="35.99999272000002" class="text">indicated </text>
<text x="870.0000205399999" y="942.9999673599999" width="87.99992481000015" height="35.99994719999995" class="text">purpose </text>
<text x="970.0000093699999" y="942.00000676" width="19.00000473" height="34.00002600000005" class="text">or </text>
<text x="994.0000319899999" y="943.9999962400001" width="104.99995401000012" height="36.000015480000116" class="text">purposes</text>
<text x="1097.99995431" y="942.9999673599999" width="10.000018210000007" height="33.999957719999884" class="text">:
</text>
<text x="170.999993374" y="1003.99997652" width="9.00000057599999" height="32.00001376" class="text">☐ </text>
<text x="207.00000622" y="1004.99998264" width="28.999987800000042" height="31.99999099999991" class="text">To </text>
<text x="242.99998743999998" y="1007.0000176399999" width="81.00001924000003" height="34.00002599999982" class="text">correct </text>
<text x="331.0000001" y="1006.0000115199999" width="8.999986519999993" height="31.99999099999991" class="text">a </text>
<text x="347.99999415999997" y="1007.9999782399999" width="114.00002838000006" height="33.999957719999884" class="text">deficiency </text>
<text x="473.00000215999995" y="1007.9999782399999" width="12.000011310000104" height="31.99999099999991" class="text">in
</text>
<text x="942.00001812" y="1011.99997996" width="11.00003232999984" height="36.99995332000003" class="text">□ </text>
<text x="984.0000137799999" y="1011.99997996" width="20.999945120000234" height="36.99995332000003" class="text">To </text>
<text x="1017.00002292" y="1011.99997996" width="43.00002734999998" height="36.99995332000003" class="text">give </text>
<text x="1072.0000088699999" y="1011.99997996" width="11.000032330000295" height="36.99995332000003" class="text">a </text>
<text x="1088.99996779" y="1011.99997996" width="27.999991249999994" height="36.99995332000003" class="text">10</text>
<text x="1116.00005034" y="1011.99997996" width="10.999926910000113" height="36.99995332000003" class="text">-</text>
<text x="1125.99996313" y="1011.99997996" width="38.00000946" height="36.99995332000003" class="text">day </text>
<text x="1171.00001872" y="1011.99997996" width="71.00003616999993" height="36.99995332000003" class="text">notice </text>
<text x="1250.0000272900002" y="1011.99997996" width="20.999945119999893" height="36.99995332000003" class="text">of </text>
<text x="1279.99995893" y="1011.99997996" width="77.00005061000002" height="36.99995332000003" class="text">change </text>
<text x="1367.00002775" y="1011.99997996" width="12.999990289999914" height="36.99995332000003" class="text">in </text>
<text x="1391.0000503699998" y="1011.99997996" width="127.9999449400002" height="36.99995332000003" class="text">information </text>
<text x="1530.99995391" y="1011.99997996" width="21.000050540000075" height="36.99995332000003" class="text">as
</text>
<text x="939.9999723100001" y="1040.99999812" width="94.00000953000006" height="33.999980480000204" class="text">required </text>
<text x="1041.9999542399999" y="1039.9999692400002" width="24.00002262000021" height="31.99999100000025" class="text">by </text>
<text x="1075.99999507" y="1039.9999692400002" width="80.00000511999997" height="31.99999100000025" class="text">Section </text>
<text x="1167.99995879" y="1039.9999692400002" width="8.999986519999993" height="31.99999100000025" class="text">2</text>
<text x="1181.00003693" y="1039.9999692400002" width="9.000004089999948" height="31.99999100000025" class="text">(</text>
<text x="1190.9999497200001" y="1039.9999692400002" width="9.000109509999902" height="31.99999100000025" class="text">b</text>
<text x="1206.99999994" y="1039.9999692400002" width="8.999986519999993" height="31.99999100000025" class="text">) </text>
<text x="1222.00001847" y="1039.0000314000001" width="22.999990929999967" height="32.00001376000023" class="text">of </text>
<text x="1251.00004141" y="1039.0000314000001" width="32.99990372000002" height="32.00001376000023" class="text">the </text>
<text x="1293.99996334" y="1039.0000314000001" width="41.00008696000009" height="32.00001376000023" class="text">Act</text>
<text x="1330.99995868" y="1039.0000314000001" width="8.999986519999993" height="32.00001376000023" class="text">.
</text>
<text x="241.99999089000002" y="1100.9999784" width="6.999993419999953" height="24.99999367999999" class="text">☐ </text>
<text x="276.99999313" y="1103.0000134" width="66.00001827999995" height="27.000028680000014" class="text">Initial </text>
<text x="350.00000483" y="1103.0000134" width="110.99998602" height="26.000022559999934" class="text">Statement
</text>
<text x="1457.9999773499999" y="1193.0000179600002" width="59.999986270000136" height="199.0000343600002" class="text">291010
</text>
<text x="241.99999089000002" y="1176.9999883199998" width="9.000021659999959" height="33.000019879999854" class="text">□ </text>
<text x="277.99998968" y="1176.9999883199998" width="156.00002404000003" height="33.000019879999854" class="text">Supplemental </text>
<text x="438.99999647000004" y="1176.9999883199998" width="109.99998946999995" height="33.000019879999854" class="text">Statement </text>
<text x="555.99997936" y="1176.9999883199998" width="33.000009139999975" height="33.000019879999854" class="text">for </text>
<text x="597.00001361" y="1176.9999883199998" width="33.00000914000009" height="33.000019879999854" class="text">the </text>
<text x="632.99997726" y="1176.9999883199998" width="71.9999975799999" height="33.000019879999854" class="text">period </text>
<text x="712.99999995" y="1176.9999883199998" width="73.99999068000011" height="33.000019879999854" class="text">ending
</text>
<text x="239.99999779" y="1243.00002808" width="8.999986519999965" height="33.00001988000008" class="text">☐ </text>
<text x="277.99998968" y="1245.00006308" width="60.00002140999999" height="35.00005488000011" class="text">Other </text>
<text x="347.99999415999997" y="1246.0000009199998" width="86.00001956000006" height="35.00003211999979" class="text">purpose </text>
<text x="444.99999334" y="1246.0000009199998" width="9.000004090000004" height="32.99999711999999" class="text">(</text>
<text x="453.00001845" y="1248.0000586800002" width="74.99995209000002" height="35.000054880000334" class="text">specify</text>
<text x="534.00000255" y="1246.99996152" width="9.000004090000061" height="33.00001988000008" class="text">)
</text>
<text x="172.999998773" y="1313.0000012799999" width="9.000005847000011" height="31.99994547999995" class="text">☑ </text>
<text x="210.00001344" y="1313.0000012799999" width="23.999987480000016" height="31.99994547999995" class="text">To </text>
<text x="246.00001223" y="1313.0000012799999" width="41.999995659999996" height="31.99994547999995" class="text">give </text>
<text x="295.99999786" y="1313.0000012799999" width="68.00001137999999" height="31.99994547999995" class="text">notice </text>
<text x="372.99999576000005" y="1313.0000012799999" width="23.00000849999992" height="31.99994547999995" class="text">of </text>
<text x="402.00000113000004" y="1313.0000012799999" width="77.99999444999997" height="31.99994547999995" class="text">change </text>
<text x="485.99997487999997" y="1313.0000012799999" width="18.00004332000003" height="31.99994547999995" class="text">in </text>
<text x="518.00002261" y="1313.0000012799999" width="17.9999730400001" height="31.99994547999995" class="text">an </text>
<text x="548.99998594" y="1313.0000012799999" width="76.00001892" height="31.99994547999995" class="text">exhibit </text>
<text x="632.99997726" y="1313.0000012799999" width="113.99999323999998" height="31.99994547999995" class="text">previously </text>
<text x="754.99999561" y="1313.0000012799999" width="49.000006650000046" height="31.99994547999995" class="text">filed</text>
<text x="805.99999536" y="1313.0000012799999" width="8.999986519999993" height="31.99994547999995" class="text">.
</text>
<text x="136.00000519" y="1384.00004888" width="24.999999842999983" height="34.000094279999985" class="text">4. </text>
<text x="172.999998773" y="1384.00004888" width="11.999995497000015" height="34.000094279999985" class="text">If </text>
<text x="196.00000903" y="1384.00004888" width="37.99999189000002" height="34.000094279999985" class="text">this </text>
<text x="239.00000124000002" y="1384.00004888" width="132.00000142" height="34.000094279999985" class="text">amendment </text>
<text x="373.99999231" y="1384.00004888" width="95.99998506000003" height="34.000094279999985" class="text">requires </text>
<text x="473.00000215999995" y="1384.00004888" width="33.999970550000114" height="34.000094279999985" class="text">the </text>
<text x="518.99998402" y="1384.00004888" width="53.00004555999999" height="34.000094279999985" class="text">filing </text>
<text x="580.00000198" y="1384.00004888" width="25.99999815000001" height="34.000094279999985" class="text">of </text>
<text x="611.9999794299999" y="1384.00004888" width="10.000018210000007" height="34.000094279999985" class="text">a </text>
<text x="630.9999841599999" y="1384.00004888" width="111.00003873000003" height="34.000094279999985" class="text">document </text>
<text x="749.00001631" y="1384.00004888" width="18.99996959000009" height="34.000094279999985" class="text">or </text>
<text x="772.99998622" y="1384.00004888" width="119.00006384000005" height="34.000094279999985" class="text">documents</text>
<text x="893.99999045" y="1384.00004888" width="10.00000063999994" height="34.000094279999985" class="text">, </text>
<text x="911.99996349" y="1384.00004888" width="68.00006408999991" height="34.000094279999985" class="text">please </text>
<text x="989.0000140999999" y="1384.00004888" width="33.999935410000035" height="34.000094279999985" class="text">list-
</text>
<text x="172.00000398" y="1449.99995208" width="66.00000070999997" height="26.99991487999978" class="text">None</text>
<text x="246.99999121000002" y="1449.99995208" width="8.000007539999984" height="26.99991487999978" class="text">.
</text>
<text x="1386.9999587500001" y="1463.99994672" width="41.00008695999986" height="50.99994795999987" class="text">CRM</text>
<text x="1386.9999587500001" y="1479.99997636" width="39.00004114999979" height="11.999959640000043" class="text">/</text>
<text x="1385.00001836" y="1520.00006184" width="40.99998153999991" height="40.00008548000005" class="text">ISS</text>
<text x="1385.00001836" y="1538.99992776" width="38.99993573000006" height="11.999936880000178" class="text">/</text>
<text x="1380.00001804" y="1718.99995964" width="43.99993605000009" height="178.99993472000006" class="text">REGISTATION
</text>
<text x="1440.00000431" y="1476.00002016" width="61.000000390000196" height="35.99999272000014" class="text">96 </text>
<text x="1437.00003223" y="1540.99996276" width="61.99992666000003" height="53.999920800000154" class="text">DEC </text>
<text x="1433.9999723" y="1588.99993788" width="61.00000038999997" height="36.99995332000003" class="text">24 </text>
<text x="1424.99996821" y="1756.00004952" width="66.00001828000018" height="113.99999212000012" class="text">11:52
</text>
<text x="131.999994392" y="1660.99994608" width="29.00001064099999" height="37.999913919999926" class="text">5. </text>
<text x="165.000003532" y="1660.99994608" width="54.999992977999995" height="37.999913919999926" class="text">Each </text>
<text x="230.00001471999997" y="1660.99994608" width="49.999985630000026" height="37.999913919999926" class="text">item </text>
<text x="283.99998655" y="1660.99994608" width="91.99999886" height="37.999913919999926" class="text">checked </text>
<text x="382.9999964" y="1660.99994608" width="70.00002205000004" height="37.999913919999926" class="text">above </text>
<text x="462.99998394999994" y="1660.99994608" width="54.00000697000013" height="37.999913919999926" class="text">must </text>
<text x="520.0000157100001" y="1660.99994608" width="27.99999124999988" height="37.999913919999926" class="text">be </text>
<text x="555.99997936" y="1660.99994608" width="106.00002084000005" height="37.999913919999926" class="text">explained </text>
<text x="667.9999795" y="1660.99994608" width="63.00001106000002" height="37.999913919999926" class="text">below </text>
<text x="742.00002289" y="1660.99994608" width="21.99997681000002" height="37.999913919999926" class="text">in </text>
<text x="774.99997932" y="1660.99994608" width="38.00000946" height="37.999913919999926" class="text">full </text>
<text x="816.00001357" y="1660.99994608" width="62.99994078000009" height="37.999913919999926" class="text">detail </text>
<text x="883.00004597" y="1660.99994608" width="92.99999541000011" height="37.999913919999926" class="text">together </text>
<text x="979.0000134600001" y="1660.99994608" width="50.99998217999985" height="37.999913919999926" class="text">with</text>
<text x="1029.99999564" y="1660.99994608" width="11.000049900000022" height="37.999913919999926" class="text">, </text>
<text x="1042.9999859299999" y="1660.99994608" width="66.00001828000018" height="37.999913919999926" class="text">where </text>
<text x="1116.99995904" y="1660.99994608" width="127.00003623999987" height="37.999913919999926" class="text">appropriate</text>
<text x="1246.9999497899998" y="1660.99994608" width="11.000049900000022" height="37.999913919999926" class="text">, </text>
<text x="1263.00000001" y="1660.99994608" width="86.00005470000019" height="37.999913919999926" class="text">specific </text>
<text x="1353.99994961" y="1660.99994608" width="105.00005942999996" height="37.999913919999926" class="text">reference </text>
<text x="1469.00002725" y="1660.99994608" width="15.000018530000034" height="37.999913919999926" class="text">to </text>
<text x="1494.99997269" y="1660.99994608" width="35.99998121999988" height="37.999913919999926" class="text">and </text>
<text x="1540.00004585" y="1660.99994608" width="85.99994927999978" height="37.999913919999926" class="text">identity
</text>
<text x="133.999999791" y="1692.00004476" width="27.000005241999986" height="35.99999271999991" class="text">of </text>
<text x="166.00000008199999" y="1692.00004476" width="31.000005498000036" height="35.99999271999991" class="text">the </text>
<text x="204.99999555000002" y="1692.00004476" width="47.00001354999998" height="35.99999271999991" class="text">item </text>
<text x="262.99998872000003" y="1693.00000536" width="14.000004409999974" height="35.99999271999991" class="text">in </text>
<text x="286.00001479" y="1693.00000536" width="36.99999534" height="35.99999271999991" class="text">the </text>
<text x="329.000007" y="1693.00000536" width="126.00000455000003" height="35.99999271999991" class="text">registration </text>
<text x="462.00002254000003" y="1693.99996596" width="112.99996154999997" height="36.99995332000003" class="text">statement </text>
<text x="580.00000198" y="1693.99996596" width="13.00002543000005" height="36.00001548" class="text">to </text>
<text x="604.00000703" y="1693.99996596" width="66.99999725999999" height="36.00001548" class="text">which </text>
<text x="679.99999081" y="1693.99996596" width="14.000004410000088" height="36.00001548" class="text">it </text>
<text x="702.9999817400001" y="1693.99996596" width="88.00004779999995" height="36.00001548" class="text">pertains</text>
<text x="789.99999785" y="1695.00004036" width="10.000018210000007" height="35.99999271999991" class="text">. </text>
<text x="812.00002737" y="1695.00004036" width="9.99996550000003" height="35.99999271999991" class="text">(</text>
<text x="819.00002079" y="1695.00004036" width="19.999983710000038" height="35.99999271999991" class="text">If </text>
<text x="844.00000482" y="1695.00004036" width="63.9999724700001" height="35.99999271999991" class="text">space </text>
<text x="917.9999955000001" y="1695.00004036" width="12.99997271999996" height="35.99999271999991" class="text">is </text>
<text x="940.99998643" y="1696.00000096" width="131.00002243999984" height="36.99995332000003" class="text">insufficient</text>
<text x="1066.99999098" y="1696.00000096" width="10.000018210000007" height="36.00001548" class="text">, </text>
<text x="1082.0000095100002" y="1696.00000096" width="10.000018210000007" height="36.00001548" class="text">a </text>
<text x="1111.99995872" y="1696.00000096" width="40.000055270000075" height="36.00001548" class="text">full </text>
<text x="1153.99995438" y="1696.00000096" width="67.00004997000019" height="36.00001548" class="text">insert </text>
<text x="1224.99999055" y="1696.00000096" width="53.000027990000035" height="36.00001548" class="text">page </text>
<text x="1293.00005464" y="1696.9999388" width="56.00000007000017" height="36.99995332000003" class="text">must </text>
<text x="1350.9999951" y="1696.9999388" width="26.99997713000016" height="35.99999272000014" class="text">be </text>
<text x="1382.99997255" y="1696.9999388" width="50.00007348000008" height="35.99999272000014" class="text">used</text>
<text x="1433.9999723" y="1696.9999388" width="10.000018210000007" height="35.99999272000014" class="text">.</text>
<text x="1442.00005012" y="1696.9999388" width="9.999895220000099" height="35.99999272000014" class="text">)
</text>
<text x="224.99999683" y="1767.0000485599999" width="63.00001106000002" height="35.99999271999991" class="text">This </text>
<text x="310.99999882" y="1767.0000485599999" width="151.99998512999997" height="35.99999271999991" class="text">amendment </text>
<text x="485.00001347000006" y="1767.0000485599999" width="26.999977129999934" height="35.99999271999991" class="text">to </text>
<text x="534.00000255" y="1767.0000485599999" width="203.99998143000005" height="35.99999271999991" class="text">Registrant's </text>
<text x="762.0000066" y="1767.0000485599999" width="200.99995663999994" height="35.99999271999991" class="text">Registration </text>
<text x="984.0000137799999" y="1767.0000485599999" width="151.99996756000007" height="35.99999271999991" class="text">Statement </text>
<text x="1157.00003188" y="1767.0000485599999" width="33.000009139999975" height="35.99999271999991" class="text">is </text>
<text x="1206.99999994" y="1767.0000485599999" width="33.0000091400002" height="35.99999271999991" class="text">to </text>
<text x="1261.99998589" y="1767.0000485599999" width="150.00000959999988" height="35.99999271999991" class="text">terminate </text>
<text x="1436.00001811" y="1767.0000485599999" width="44.99995017000015" height="35.99999271999991" class="text">the
</text>
<text x="173.999995323" y="1804.00000188" width="200.99999353699997" height="38.99998831999983" class="text">registration </text>
<text x="400.00000803" y="1804.00000188" width="44.99998531" height="38.99998831999983" class="text">for </text>
<text x="465.99999117" y="1804.00000188" width="50.00003834" height="38.99998831999983" class="text">the </text>
<text x="535.9999956500001" y="1804.00000188" width="150.99998857999992" height="38.99998831999983" class="text">following </text>
<text x="707.00002065" y="1804.00000188" width="114.99997222000002" height="38.99998831999983" class="text">foreign </text>
<text x="842.00001172" y="1804.00000188" width="157.00002058999996" height="38.99998831999983" class="text">principal </text>
<text x="1018.99996331" y="1804.00000188" width="35.00005495000016" height="38.99998831999983" class="text">of </text>
<text x="1070.9999771799999" y="1804.00000188" width="49.99996806000013" height="38.99998831999983" class="text">the </text>
<text x="1140.99998166" y="1804.00000188" width="170.99997228999996" height="38.99998831999983" class="text">Registrant </text>
<text x="1331.9999728" y="1804.00000188" width="28.000008819999948" height="38.99998831999983" class="text">as </text>
<text x="1381.0000321599998" y="1804.00000188" width="35.999981220000336" height="38.99998831999983" class="text">of
</text>
<text x="172.00000398" y="1837.00002176" width="137.99999829000004" height="36.99995332000003" class="text">December </text>
<text x="329.000007" y="1837.00002176" width="10.999979620000033" height="36.99995332000003" class="text">4</text>
<text x="347.99999415999997" y="1837.00002176" width="11.00001476" height="36.99995332000003" class="text">, </text>
<text x="379.0000102" y="1837.00002176" width="67.99997623999997" height="36.99995332000003" class="text">1996 </text>
<text x="469.99997737" y="1837.00002176" width="11.000049900000022" height="36.99995332000003" class="text">(</text>
<text x="483.00002036999996" y="1837.00002176" width="85.99998442000009" height="36.99995332000003" class="text">after </text>
<text x="586.9999954" y="1837.00002176" width="64.99998659000005" height="36.99995332000003" class="text">this </text>
<text x="671.00000429" y="1837.00002176" width="66.00001828000006" height="36.99995332000003" class="text">date</text>
<text x="746.9999705" y="1837.00002176" width="11.000049900000022" height="36.99995332000003" class="text">, </text>
<text x="779.99997964" y="1837.00002176" width="236.00002915999994" height="36.99995332000003" class="text">representation </text>
<text x="1032.9999677199999" y="1837.00002176" width="40.0000552700003" height="36.99995332000003" class="text">of </text>
<text x="1089.9999819099999" y="1837.00002176" width="67.00004997000019" height="36.99995332000003" class="text">this </text>
<text x="1173.9999908" y="1837.00002176" width="119.99997254000004" height="36.99995332000003" class="text">foreign </text>
<text x="1311.00002768" y="1837.00002176" width="156.99996787999999" height="36.99995332000003" class="text">principal </text>
<text x="1484.99995448" y="1837.00002176" width="35.00005495000005" height="36.99995332000003" class="text">is
</text>
<text x="172.00000398" y="1871.99994008" width="119.99999011000003" height="36.00001548" class="text">limited </text>
<text x="309.00000572" y="1871.99994008" width="32.99997400000001" height="36.00001548" class="text">to </text>
<text x="364.00000924" y="1871.99994008" width="168.99997919000003" height="36.00001548" class="text">activities </text>
<text x="550.0000000599999" y="1871.99994008" width="106.99999982000008" height="36.00001548" class="text">exempt </text>
<text x="672.99999739" y="1871.99994008" width="69.99998690999996" height="36.00001548" class="text">from </text>
<text x="758.99998181" y="1871.99994008" width="206.0000272399999" height="36.00001548" class="text">registration </text>
<text x="981.99996797" y="1871.99994008" width="87.00006882000002" height="36.00001548" class="text">under </text>
<text x="1087.0000274" y="1871.99994008" width="118.99994085000003" height="36.00001548" class="text">Section </text>
<text x="1229.9999908700001" y="1871.99994008" width="10.000018210000007" height="36.00001548" class="text">3 </text>
<text x="1260.0000455000002" y="1871.99994008" width="33.00000913999975" height="36.00001548" class="text">of </text>
<text x="1315.00001388" y="1871.99994008" width="45.999981859999934" height="36.00001548" class="text">the </text>
<text x="1381.9999584299999" y="1871.99994008" width="46.000087280000116" height="36.00001548" class="text">Act</text>
<text x="1434.99998642" y="1871.99994008" width="10.000018210000007" height="36.00001548" class="text">)</text>
<text x="1452.99997703" y="1871.99994008" width="10.000018210000007" height="36.00001548" class="text">:
</text>
<text x="173.999995323" y="1900.00006592" width="167.999984397" height="28.00012584000001" class="text">Government </text>
<text x="361.00000202" y="1900.00006592" width="35.99999879000001" height="28.00012584000001" class="text">of </text>
<text x="414.00001244" y="1900.00006592" width="117.99999701000002" height="28.00012584000001" class="text">Alberta</text>
<text x="541.0000135399999" y="1900.00006592" width="7.999972400000047" height="28.00012584000001" class="text">.
</text>
<text x="340.99998317" y="1964.00004792" width="19.000022300000012" height="32.99999712000022" class="text">IN </text>
<text x="388.99999327" y="1962.99997352" width="119.00001112999996" height="36.999953319999804" class="text">NOVELS
</text>
<text x="925.00004163" y="2017.99999148" width="187.99993121" height="55.00001796000015" class="text">891010
</text>
<text x="1529.0000135199998" y="2189.00003656" width="43.00000978000003" height="16.99996747999967" class="text">FORM </text>
<text x="1579.9999957" y="2189.00003656" width="31.999995019999915" height="16.99996747999967" class="text">CRM</text>
<text x="1615.9999769199999" y="2189.00003656" width="5.0000003200000265" height="16.99996747999967" class="text">-</text>
<text x="1622.00000893" y="2189.00003656" width="24.000005050000027" height="16.99996747999967" class="text">158
</text>
<text x="1577.00004119" y="2206.9999874" width="26.999977129999934" height="16.000029639999866" class="text">SEP</text>
<text x="1605.9999587099999" y="2206.9999874" width="4.000091620000148" height="16.000029639999866" class="text">. </text>
<text x="1614.00003653" y="2206.9999874" width="30.9999633299999" height="16.000029639999866" class="text">1996
</text>
</g>
<g id="page-1" transform="translate(0, 2296)">
<rect width="1757" height="2276" fill="none" stroke="black" />
<text x="772.99998622" y="204.000001232" width="199.99999522999997" height="30.999993983999985" class="text">EXECUTION
</text>
<text x="225.99999338" y="274.99999876" width="11.00001476" height="32.00001376" class="text">In </text>
<text x="253.00000565" y="276.00000488" width="125.00000800000004" height="33.000019880000025" class="text">accordance </text>
<text x="383.99999295000003" y="276.00000488" width="47.000013550000006" height="32.00001376" class="text">with </text>
<text x="444.99999334" y="276.00000488" width="22.999990930000024" height="32.00001376" class="text">28 </text>
<text x="476.99998836" y="276.00000488" width="80.00000511999997" height="32.00001376" class="text">U.S.C. </text>
<text x="562.99997278" y="276.00000488" width="9.000056800000038" height="32.00001376" class="text">§ </text>
<text x="583.0000092" y="276.99998824" width="54.00000696999996" height="32.99999711999999" class="text">1746</text>
<text x="639.99998825" y="276.99998824" width="8.999986519999993" height="31.999990999999994" class="text">, </text>
<text x="653.99997509" y="276.99998824" width="35.00000223999996" height="31.999990999999994" class="text">the </text>
<text x="697.00000244" y="277.99999436" width="131.99998385000004" height="32.99999712000002" class="text">undersigned </text>
<text x="837.0000114" y="277.99999436" width="64.99993388000007" height="32.99999712000002" class="text">swear</text>
<text x="901.99994528" y="277.99999436" width="9.000109510000016" height="31.999990999999994" class="text">(</text>
<text x="915.00004099" y="277.99999436" width="8.999986519999993" height="31.999990999999994" class="text">s</text>
<text x="925.00004163" y="277.99999436" width="9.000004089999948" height="31.999990999999994" class="text">) </text>
<text x="940.99998643" y="277.99999436" width="22.999990929999854" height="31.999990999999994" class="text">or </text>
<text x="973.9999955699999" y="277.99999436" width="61.000017960000264" height="31.999990999999994" class="text">affirm</text>
<text x="1040.00001385" y="277.99999436" width="8.999986519999993" height="31.999990999999994" class="text">(</text>
<text x="1050.00003206" y="277.99999436" width="8.999986519999993" height="31.999990999999994" class="text">s</text>
<text x="1061.9999906599999" y="277.99999436" width="8.999986519999993" height="31.999990999999994" class="text">) </text>
<text x="1077.00000919" y="279.00000048" width="62.00003207999998" height="32.99999711999996" class="text">under </text>
<text x="1148.99995406" y="279.00000048" width="76.00003648999996" height="31.999990999999994" class="text">penalty </text>
<text x="1233.9999770699999" y="279.00000048" width="24.00002261999998" height="31.999990999999994" class="text">of </text>
<text x="1261.99998589" y="279.00000048" width="82.00005093000004" height="31.999990999999994" class="text">perjury </text>
<text x="1349.99996341" y="280.0000066" width="45.99998186000016" height="32.00001376" class="text">that </text>
<text x="1400.9999631599999" y="280.0000066" width="22.999990930000195" height="32.00001376" class="text">he</text>
<text x="1427.00001402" y="280.0000066" width="9.000004089999948" height="32.00001376" class="text">/</text>
<text x="1433.00004603" y="280.0000066" width="35.99998121999988" height="32.00001376" class="text">she </text>
<text x="1475.99996796" y="280.0000066" width="40.99998153999991" height="32.00001376" class="text">has </text>
<text x="1534.00001384" y="280.0000066" width="43.99993605000009" height="32.00001376" class="text">they
</text>
<text x="115.00000560299999" y="314.00000983999996" width="55.99998777100002" height="36.000015479999945" class="text">have </text>
<text x="184.99999427" y="314.00000983999996" width="50.00000319999998" height="36.000015479999945" class="text">read </text>
<text x="244.00001913" y="314.00000983999996" width="30.99998089999997" height="36.000015479999945" class="text">the </text>
<text x="281.99999345" y="314.00000983999996" width="129.99999075" height="36.000015479999945" class="text">information </text>
<text x="422.99999896" y="314.00000983999996" width="30.99999846999998" height="36.000015479999945" class="text">set </text>
<text x="458.99999775000003" y="314.00000983999996" width="52.999992849999956" height="36.000015479999945" class="text">forth </text>
<text x="522.0000088099999" y="314.00000983999996" width="12.999972720000073" height="36.000015479999945" class="text">in </text>
<text x="550.0000000599999" y="314.00000983999996" width="35.00000224000007" height="36.000015479999945" class="text">this </text>
<text x="595.99998192" y="314.00000983999996" width="125.00004314" height="36.000015479999945" class="text">registration </text>
<text x="728.99999746" y="314.00000983999996" width="111.00002115999996" height="36.000015479999945" class="text">statement </text>
<text x="844.00000482" y="314.00000983999996" width="35.999981219999995" height="36.000015479999945" class="text">and </text>
<text x="892.00005006" y="314.00000983999996" width="30.999963330000014" height="36.000015479999945" class="text">the </text>
<text x="929.9999541000001" y="314.00000983999996" width="89.00000920999992" height="36.000015479999945" class="text">attached </text>
<text x="1031.00002733" y="314.00000983999996" width="82.9999772000001" height="36.000015479999945" class="text">exhibits </text>
<text x="1122.99999105" y="314.00000983999996" width="40.99998153999991" height="36.000015479999945" class="text">and </text>
<text x="1172.99995911" y="314.00000983999996" width="45.000073160000056" height="36.000015479999945" class="text">that </text>
<text x="1221.0000043500002" y="314.00000983999996" width="25.999945439999692" height="36.000015479999945" class="text">he</text>
<text x="1246.9999497899998" y="314.00000983999996" width="10.000018210000007" height="36.000015479999945" class="text">/</text>
<text x="1254.00001349" y="314.00000983999996" width="35.999963650000154" height="36.000015479999945" class="text">she </text>
<text x="1297.99994954" y="314.00000983999996" width="20.000036420000015" height="36.000015479999945" class="text">is </text>
<text x="1321.99997216" y="314.00000983999996" width="10.000000640000053" height="36.000015479999945" class="text">(</text>
<text x="1334.00001861" y="314.00000983999996" width="44.999967739999875" height="36.000015479999945" class="text">they </text>
<text x="1387.99997287" y="314.00000983999996" width="35.00005495000005" height="36.000015479999945" class="text">are</text>
<text x="1423.00002782" y="314.00000983999996" width="10.000018210000007" height="36.000015479999945" class="text">) </text>
<text x="1437.9999585" y="314.00000983999996" width="89.00000920999992" height="36.000015479999945" class="text">familiar </text>
<text x="1531.99996803" y="314.00000983999996" width="49.00005936000002" height="36.000015479999945" class="text">with </text>
<text x="1591.0000456" y="314.00000983999996" width="29.999931639999886" height="36.000015479999945" class="text">the
</text>
<text x="117.99999349599999" y="348.99999643999996" width="94.000013044" height="38.000004959999956" class="text">contents </text>
<text x="218.00000341" y="348.99999643999996" width="82.00001578999999" height="38.000004959999956" class="text">thereof </text>
<text x="305.00000195" y="348.99999643999996" width="36.99997776999999" height="38.000004959999956" class="text">and </text>
<text x="351.00000138" y="348.99999643999996" width="43.00000978000003" height="38.000004959999956" class="text">that </text>
<text x="400.00000803" y="348.99999643999996" width="46.99997840999998" height="38.000004959999956" class="text">such </text>
<text x="460.00002943999993" y="348.99999643999996" width="87.99997752000002" height="38.000004959999956" class="text">contents </text>
<text x="558.99998658" y="348.99999643999996" width="33.000009139999975" height="38.000004959999956" class="text">are </text>
<text x="602.00001393" y="348.99999643999996" width="14.000004409999974" height="38.000004959999956" class="text">in </text>
<text x="628.9999910600001" y="348.99999643999996" width="47.999992529999986" height="38.000004959999956" class="text">their </text>
<text x="688.00001592" y="348.99999643999996" width="82.0000157899999" height="38.000004959999956" class="text">entirety </text>
<text x="777.99998654" y="348.99999643999996" width="43.00002734999998" height="38.000004959999956" class="text">true </text>
<text x="828.99998629" y="348.99999643999996" width="38.00000946" height="38.000004959999956" class="text">and </text>
<text x="875.0000208600001" y="348.99999643999996" width="87.00001610999982" height="38.000004959999956" class="text">accurate </text>
<text x="972.99998145" y="348.99999643999996" width="22.000064660000135" height="38.000004959999956" class="text">to </text>
<text x="999.99995858" y="348.99999643999996" width="38.000009460000115" height="38.000004959999956" class="text">the </text>
<text x="1040.00001385" y="348.99999643999996" width="48.00002767000001" height="38.000004959999956" class="text">best </text>
<text x="1092.99995399" y="348.99999643999996" width="27.999991249999994" height="38.000004959999956" class="text">of </text>
<text x="1125.00003686" y="348.99999643999996" width="33.0000091400002" height="38.000004959999956" class="text">his</text>
<text x="1154.99998607" y="348.99999643999996" width="11.000032330000067" height="38.000004959999956" class="text">/</text>
<text x="1167.00005009" y="348.99999643999996" width="33.000009139999975" height="38.000004959999956" class="text">her </text>
<text x="1208.00001406" y="348.99999643999996" width="10.99994447999984" height="38.000004959999956" class="text">(</text>
<text x="1218.00003227" y="348.99999643999996" width="47.999922250000054" height="38.000004959999956" class="text">their</text>
<text x="1269.00003202" y="348.99999643999996" width="10.999926910000113" height="38.000004959999956" class="text">) </text>
<text x="1283.00003643" y="348.99999643999996" width="122.00001835000012" height="38.000004959999956" class="text">knowledge </text>
<text x="1411.99999549" y="348.99999643999996" width="39.00004115000024" height="38.000004959999956" class="text">and </text>
<text x="1461.99996355" y="348.99999643999996" width="65.00000415999989" height="38.000004959999956" class="text">belief</text>
<text x="1522.99998151" y="348.99999643999996" width="11.000032330000067" height="38.000004959999956" class="text">, </text>
<text x="1540.00004585" y="348.99999643999996" width="73.99999067999988" height="38.000004959999956" class="text">except
</text>
<text x="116.000002153" y="380.00000408" width="46.99999598000002" height="32.99999711999999" class="text">that </text>
<text x="165.000003532" y="380.00000408" width="33.99999514800001" height="32.99999711999999" class="text">the </text>
<text x="207.00000622" y="380.00000408" width="132.00000142000005" height="32.99999711999999" class="text">undersigned </text>
<text x="354.99998758000004" y="380.00000408" width="55.00000352000001" height="32.99999711999999" class="text">make</text>
<text x="413.00001589" y="380.00000408" width="8.999986519999993" height="32.99999711999999" class="text">(</text>
<text x="422.99999896" y="380.00000408" width="8.999986519999993" height="32.99999711999999" class="text">s</text>
<text x="436.00000682" y="380.00000408" width="8.999986519999993" height="32.99999711999999" class="text">) </text>
<text x="446.00002503" y="380.00000408" width="30.999963329999957" height="32.99999711999999" class="text">no </text>
<text x="485.00001347000006" y="380.00000408" width="155.9999888999999" height="32.99999711999999" class="text">representation </text>
<text x="653.99997509" y="380.00000408" width="19.000022299999955" height="32.99999711999999" class="text">as </text>
<text x="679.99999081" y="380.00000408" width="17.99999060999994" height="32.99999711999999" class="text">to </text>
<text x="709.9999751600001" y="380.00000408" width="33.00000913999986" height="32.99999711999999" class="text">the </text>
<text x="749.99999529" y="380.00000408" width="50.99999975000003" height="32.99999711999999" class="text">truth </text>
<text x="810.99999568" y="380.00000408" width="24.00002261999998" height="32.99999711999999" class="text">or </text>
<text x="840.9999976" y="380.00000408" width="97.00003432000005" height="32.99999711999999" class="text">accuracy </text>
<text x="947.0000184400001" y="380.00000408" width="24.000022619999868" height="32.99999711999999" class="text">of </text>
<text x="973.9999955699999" y="380.00000408" width="33.00000914000009" height="32.99999711999999" class="text">the </text>
<text x="1018.99996331" y="380.00000408" width="124.00006416000008" height="32.99999711999999" class="text">information </text>
<text x="1150.99999987" y="380.00000408" width="106.99999981999986" height="32.99999711999999" class="text">contained </text>
<text x="1269.99994072" y="380.00000408" width="11.000049900000022" height="32.99999711999999" class="text">in </text>
<text x="1293.99996334" y="380.00000408" width="33.000009139999975" height="32.99999711999999" class="text">the </text>
<text x="1335.999959" y="380.00000408" width="89.00000920999992" height="32.99999711999999" class="text">attached </text>
<text x="1437.9999585" y="380.00000408" width="61.00000038999997" height="32.99999711999999" class="text">Short </text>
<text x="1502.00003639" y="380.00000408" width="61.00000038999997" height="32.99999711999999" class="text">Form
</text>
<text x="115.00000560299999" y="417.99998628000003" width="134.99997525700002" height="36.999998840000046" class="text">Registration </text>
<text x="266.00001351" y="417.99998628000003" width="109.99997190000005" height="36.999998840000046" class="text">Statement</text>
<text x="371.99999921" y="417.99998628000003" width="10.999997189999988" height="36.999998840000046" class="text">(</text>
<text x="382.9999964" y="417.99998628000003" width="11.000014760000056" height="36.999998840000046" class="text">s</text>
<text x="394.00001116000004" y="417.99998628000003" width="10.999979619999976" height="36.999998840000046" class="text">)</text>
<text x="402.00000113000004" y="417.99998628000003" width="11.000014759999942" height="36.999998840000046" class="text">, </text>
<text x="418.99999519" y="417.99998628000003" width="13.99998684000002" height="36.999998840000046" class="text">if </text>
<text x="443.00000024" y="417.99998628000003" width="36.99999534" height="36.999998840000046" class="text">any</text>
<text x="478.99998145999996" y="417.99998628000003" width="11.00003233000001" height="36.999998840000046" class="text">, </text>
<text x="495.99999309" y="417.99998628000003" width="76.00003649000007" height="36.999998840000046" class="text">insofar </text>
<text x="580.00000198" y="417.99998628000003" width="20.999997830000098" height="36.999998840000046" class="text">as </text>
<text x="609.9999863300001" y="417.99998628000003" width="47.00001354999995" height="36.999998840000046" class="text">such </text>
<text x="665.00002499" y="417.99998628000003" width="127.99999764999995" height="36.999998840000046" class="text">information </text>
<text x="802.00000916" y="417.99998628000003" width="20.999997829999984" height="36.999998840000046" class="text">is </text>
<text x="826.00003178" y="417.99998628000003" width="40.99996397000007" height="36.999998840000046" class="text">not </text>
<text x="870.0000205399999" y="417.99998628000003" width="65.99996556999997" height="36.999998840000046" class="text">within </text>
<text x="949.9999905200001" y="417.99998628000003" width="31.999977449999847" height="36.999998840000046" class="text">his</text>
<text x="979.0000134600001" y="417.99998628000003" width="11.00003232999984" height="36.999998840000046" class="text">/</text>
<text x="989.0000140999999" y="417.99998628000003" width="38.00002703000007" height="36.999998840000046" class="text">her </text>
<text x="1031.00002733" y="417.99998628000003" width="10.999926909999886" height="36.999998840000046" class="text">(</text>
<text x="1044.0000000500002" y="417.99998628000003" width="47.00001354999972" height="36.999998840000046" class="text">their</text>
<text x="1093.99996811" y="417.99998628000003" width="11.000049900000022" height="36.999998840000046" class="text">) </text>
<text x="1106.9999584" y="417.99998628000003" width="101.00005566000004" height="36.999998840000046" class="text">personal </text>
<text x="1210.9999861400001" y="417.99998628000003" width="124.00006415999997" height="36.999998840000046" class="text">knowledge</text>
<text x="1334.00001861" y="417.99998628000003" width="10.99994447999984" height="36.999998840000046" class="text">.
</text>
<text x="119.00000410199999" y="512.99999868" width="8.999991791" height="30.99998488" class="text">(</text>
<text x="124.99999394400001" y="512.99999868" width="53.00000690599998" height="30.99998488" class="text">Date </text>
<text x="190.99999114" y="514.0000048" width="22.000011950000015" height="31.000007640000092" class="text">of </text>
<text x="219.99999651" y="514.99998816" width="96.99999918" height="32.99997436000007" class="text">signature</text>
<text x="324.00000668" y="514.99998816" width="8.999986519999993" height="30.99996212000002" class="text">)
</text>
<text x="122.000006051" y="564.99999828" width="136.999996469" height="30.999984879999943" class="text">December </text>
<text x="282.99998999999997" y="564.99999828" width="28.000008820000005" height="30.999984879999943" class="text">24</text>
<text x="318.99998879" y="564.99999828" width="9.000004090000004" height="30.999984879999943" class="text">, </text>
<text x="351.00000138" y="564.99999828" width="62.00001450999997" height="30.999984879999943" class="text">1996
</text>
<text x="928.0000137100001" y="517.0000004" width="10.000018210000007" height="34.00000324000001" class="text">(</text>
<text x="940.99998643" y="517.0000004" width="52.00001386999986" height="34.00000324000001" class="text">Type </text>
<text x="1000.9999727" y="517.0000004" width="26.000068430000056" height="34.00000324000001" class="text">or </text>
<text x="1032.9999677199999" y="517.0000004" width="55.00007380000011" height="34.00000324000001" class="text">print </text>
<text x="1088.99996779" y="517.0000004" width="59.99998626999991" height="34.00000324000001" class="text">name </text>
<text x="1158.000046" y="517.0000004" width="65.99991285999977" height="34.00000324000001" class="text">under </text>
<text x="1229.9999908700001" y="517.0000004" width="49.000059359999796" height="34.00000324000001" class="text">each </text>
<text x="1288.99996302" y="517.0000004" width="100.00004153999998" height="34.00000324000001" class="text">signature</text>
<text x="1390.0000186799998" y="517.0000004" width="10.000018210000007" height="34.00000324000001" class="text">'</text>
<text x="1400.0000368899998" y="517.0000004" width="9.999912790000053" height="34.00000324000001" class="text">)
</text>
<text x="1119.0000048499999" y="578.9999929200001" width="238.0000046900002" height="57.000007440000104" class="text">Ahme
</text>
<text x="999.0000323099999" y="610.99998392" width="135.99991734000002" height="29.999955999999997" class="text">Lawrence </text>
<text x="1157.00003188" y="609.0000172" width="34.999949530000094" height="30.000024279999934" class="text">A. </text>
<text x="1210.9999861400001" y="607.99998832" width="151.0000412899999" height="30.999962119999964" class="text">Schneider
</text>
<text x="136.00000519" y="2176.99996312" width="24.999999842999983" height="22.999958679999963" class="text">This </text>
<text x="169.00000203099998" y="2176.99996312" width="62.000009239000036" height="22.999958679999963" class="text">statement </text>
<text x="234.00000092000002" y="2176.99996312" width="34.000005689999995" height="23.99991927999963" class="text">shall </text>
<text x="270.99999626" y="2176.00000252" width="12.999990290000028" height="22.999958679999963" class="text">be </text>
<text x="290.00000099" y="2176.00000252" width="40.000002559999984" height="22.999958679999963" class="text">signed </text>
<text x="338.00001109" y="2176.00000252" width="12.999990290000028" height="22.999958679999963" class="text">by </text>
<text x="359.00000891999997" y="2176.00000252" width="20.00000128000005" height="22.999958679999963" class="text">the </text>
<text x="381.99999985" y="2176.00000252" width="68.00001137999993" height="22.999958679999963" class="text">individual </text>
<text x="452.00000433" y="2176.00000252" width="40.00000255999993" height="22.999958679999963" class="text">agent</text>
<text x="490.00001378999997" y="2175.00004192" width="5.999979300000007" height="23.000095240000064" class="text">, </text>
<text x="497.00000721000004" y="2175.00004192" width="12.999990289999971" height="23.000095240000064" class="text">if </text>
<text x="509.9999975" y="2175.00004192" width="24.00000504999997" height="23.000095240000064" class="text">the </text>
<text x="535.9999956500001" y="2175.00004192" width="63.000011059999906" height="23.000095240000064" class="text">registrant </text>
<text x="602.9999929100001" y="2175.00004192" width="8.99998651999988" height="23.000095240000064" class="text">is </text>
<text x="618.9999728500001" y="2175.00004192" width="13.000042999999891" height="23.000095240000064" class="text">an </text>
<text x="637.99999515" y="2175.00004192" width="66.99997968999992" height="23.000095240000064" class="text">individual</text>
<text x="704.0000134300001" y="2175.00004192" width="5.999961729999995" height="23.000095240000064" class="text">, </text>
<text x="712.99999995" y="2175.00004192" width="12.999972720000073" height="23.000095240000064" class="text">or </text>
<text x="730.99999056" y="2175.00004192" width="13.000025429999937" height="23.000095240000064" class="text">by </text>
<text x="751.99998839" y="2173.99996752" width="6.000032010000041" height="22.999958679999963" class="text">a </text>
<text x="765.00001382" y="2173.99996752" width="52.9999928499999" height="22.999958679999963" class="text">majority </text>
<text x="823.00000699" y="2173.99996752" width="12.999972720000073" height="22.999958679999963" class="text">of </text>
<text x="840.00001862" y="2173.99996752" width="35.00000224000007" height="22.999958679999963" class="text">those </text>
<text x="877.9999929400001" y="2173.99996752" width="54.00000696999996" height="22.999958679999963" class="text">partners</text>
<text x="934.00004572" y="2173.99996752" width="5.999926590000086" height="22.999958679999963" class="text">, </text>
<text x="943.0000322399999" y="2173.99996752" width="49.999968060000015" height="22.999958679999963" class="text">officers</text>
<text x="990.9999544899999" y="2173.00000692" width="6.000032010000041" height="22.999958679999963" class="text">, </text>
<text x="999.99995858" y="2173.00000692" width="56.000000070000056" height="22.999958679999963" class="text">directors </text>
<text x="1061.9999906599999" y="2173.00000692" width="12.999972720000187" height="22.999958679999963" class="text">or </text>
<text x="1080.9999953899999" y="2173.00000692" width="50.99999975000014" height="22.999958679999963" class="text">persons </text>
<text x="1135.99998134" y="2173.00000692" width="69.99998690999996" height="22.999958679999963" class="text">performing </text>
<text x="1212.00000026" y="2173.00000692" width="44.999967739999875" height="24.00003308000032" class="text">similar </text>
<text x="1260.0000455000002" y="2172.0000690800002" width="64.99998658999993" height="23.00009524000052" class="text">functions</text>
<text x="1321.99997216" y="2172.0000690800002" width="6.000014440000086" height="23.00009524000052" class="text">, </text>
<text x="1331.9999728" y="2172.0000690800002" width="9.000004089999948" height="23.00009524000052" class="text">if </text>
<text x="1345.99997721" y="2172.0000690800002" width="20.000036420000015" height="23.00009524000052" class="text">the </text>
<text x="1371.0000139499998" y="2172.0000690800002" width="63.9999724700001" height="23.00009524000052" class="text">registrant </text>
<text x="1437.9999585" y="2172.0000690800002" width="9.000091939999947" height="23.00009524000052" class="text">is </text>
<text x="1450.0000049500002" y="2172.0000690800002" width="16.99997648999988" height="23.00009524000052" class="text">an </text>
<text x="1471.99998176" y="2172.0000690800002" width="78.99999099999991" height="24.000055840000186" class="text">organization</text>
<text x="1552.00000445" y="2170.99997192" width="6.0000320099998135" height="22.999958679999963" class="text">, </text>
<text x="1559.99997685" y="2170.99997192" width="46.99999598000022" height="22.999958679999963" class="text">except </text>
<text x="1610.99995903" y="2170.99997192" width="26.000068430000056" height="22.999958679999963" class="text">that
</text>
<text x="116.999998703" y="2192.00003216" width="20.999999587000005" height="21.00006024000004" class="text">the </text>
<text x="141.000000239" y="2192.00003216" width="80.999989371" height="21.00006024000004" class="text">organization </text>
<text x="227.99998648" y="2192.00003216" width="21.999994380000032" height="21.00006024000004" class="text">can</text>
<text x="252.0000091" y="2192.00003216" width="5.999996870000018" height="21.00006024000004" class="text">, </text>
<text x="259.00000252" y="2192.00003216" width="16.999994060000006" height="21.00006024000004" class="text">by </text>
<text x="280.00000035" y="2192.00003216" width="45.00000288000001" height="21.00006024000004" class="text">power </text>
<text x="325.99999978" y="2192.00003216" width="17.00001162999996" height="21.00006024000004" class="text">of </text>
<text x="350.00000483" y="2192.00003216" width="56.00000006999994" height="21.00006024000004" class="text">attorney</text>
<text x="404.99999078" y="2192.00003216" width="5.999996869999961" height="21.00006024000004" class="text">, </text>
<text x="415.00000899" y="2192.00003216" width="61.00000038999991" height="21.00006024000004" class="text">authorize </text>
<text x="479.99999558" y="2192.00003216" width="22.999990929999967" height="21.00006024000004" class="text">one </text>
<text x="509.9999975" y="2192.00003216" width="10.99997961999992" height="21.00006024000004" class="text">or </text>
<text x="530.00001635" y="2192.00003216" width="28.99997023000003" height="21.00006024000004" class="text">more </text>
<text x="565.99999757" y="2192.00003216" width="71.00001859999998" height="21.00006024000004" class="text">individuals </text>
<text x="639.99998825" y="2192.00003216" width="11.999993740000036" height="21.00006024000004" class="text">to </text>
<text x="658.000014" y="2192.00003216" width="51.99996116000011" height="21.00006024000004" class="text">execute </text>
<text x="716.99998615" y="2192.00003216" width="20.999997829999984" height="21.00006024000004" class="text">this </text>
<text x="742.9999842999999" y="2192.00003216" width="65.00000416" height="21.00006024000004" class="text">statement </text>
<text x="812.00002737" y="2192.00003216" width="12.99997271999996" height="21.00006024000004" class="text">on </text>
<text x="832.00001108" y="2192.00003216" width="15.00001852999992" height="21.00006024000004" class="text">its </text>
<text x="851.00001581" y="2192.00003216" width="41.99994294999999" height="21.00006024000004" class="text">behalf</text>
<text x="893.99999045" y="2192.00003216" width="6.000014439999973" height="21.00006024000004" class="text">.
</text>
</g>
</svg>
