<svg xmlns="http://www.w3.org/2000/svg">
<style>.text { font-size: 14px; font-family: Arial, sans-serif; }</style>
<g id="page-0" transform="translate(0, 0)">
<rect width="1757" height="2276" fill="none" stroke="black" />
<text x="1526.99996771" y="130.999998292" width="38.00000946" height="16.99999934399999" class="text">OMB </text>
<text x="1571.00000918" y="129.999996724" width="25.999963009999874" height="16.99999934399999" class="text">No. </text>
<text x="1604.00001832" y="130.999998292" width="66.00001827999995" height="18.999995651999996" class="text">1105-0004
</text>
<text x="113.999996754" y="146.000003604" width="51.000006778" height="30.000001519999998" class="text">U.S. </text>
<text x="172.999998773" y="146.000003604" width="149.00001480699999" height="32.000004656" class="text">Department </text>
<text x="331.99999665" y="145.000002036" width="21.999994379999976" height="30.000001520000012" class="text">of </text>
<text x="365.00000579000005" y="145.000002036" width="78.99997342999995" height="30.000001520000012" class="text">Justice
</text>
<text x="112.000003654" y="189.00000502400002" width="132.000015476" height="32.99999939600002" class="text">Washington </text>
<text x="254.99999875" y="186.99999961199998" width="55.000003520000035" height="31.999995551999973" class="text">D.C. </text>
<text x="319.99998533999997" y="185.999998044" width="64.00000761000007" height="31.999995551999973" class="text">20530
</text>
<text x="887.00003217" y="142.999996624" width="145.9999355499998" height="28.999997676000007" class="text">Amendment </text>
<text x="1040.00001385" y="142.00000416" width="15.000018530000034" height="28.000005212000005" class="text">to </text>
<text x="1069.99996306" y="142.00000416" width="134.00006480000002" height="29.000006779999993" class="text">Registration </text>
<text x="1217.00001815" y="142.00000416" width="112.00000014000011" height="29.000006779999993" class="text">Statement
</text>
<text x="892.00005006" y="185.999998044" width="105.99996812999996" height="29.999992415999998" class="text">Pursuant </text>
<text x="1003.0000185099999" y="185.999998044" width="16.99995892000004" height="30.999993983999985" class="text">to </text>
<text x="1032.9999677199999" y="184.999996476" width="34.000023260000034" height="29.999992415999998" class="text">the </text>
<text x="1077.00000919" y="184.999996476" width="78.99999100000014" height="29.999992415999998" class="text">Foreign </text>
<text x="1167.99995879" y="184.999996476" width="74.00009610000006" height="29.999992415999998" class="text">Agents </text>
<text x="1251.99996768" y="184.999996476" width="132.0000365599999" height="31.999995552" class="text">Registration </text>
<text x="1400.9999631599999" y="183.999994908" width="34.000023260000034" height="29.99999241599997" class="text">Act </text>
<text x="1442.99995882" y="183.999994908" width="22.00008222999986" height="29.99999241599997" class="text">of </text>
<text x="1474.00002757" y="183.999994908" width="48.99995394000007" height="30.999993983999985" class="text">1938</text>
<text x="1521.00004112" y="182.99999334" width="8.999986519999993" height="29.999992415999998" class="text">, </text>
<text x="1536.99998592" y="182.99999334" width="27.999991249999994" height="29.999992415999998" class="text">as </text>
<text x="1568.0000546699998" y="182.99999334" width="104.99993644000028" height="29.999992415999998" class="text">amended
</text>
<text x="113.000000204" y="287.00000392" width="69.000004416" height="31.00000763999998" class="text">Privacy </text>
<text x="187.00000494" y="287.00000392" width="30.000001920000017" height="31.00000763999998" class="text">Act </text>
<text x="225.99999338" y="287.00000392" width="90.00000576" height="31.00000763999998" class="text">Statement</text>
<text x="315.99999914" y="287.00000392" width="9.000004090000004" height="31.00000763999998" class="text">. </text>
<text x="326.99999633" y="287.00000392" width="54.000006970000015" height="31.00000763999998" class="text">Every </text>
<text x="387.00000017" y="287.00000392" width="101.99999949999994" height="31.00000763999998" class="text">registration </text>
<text x="495.99999309" y="287.00000392" width="89.00000921000003" height="31.00000763999998" class="text">statement</text>
<text x="581.99999508" y="287.00000392" width="8.999986520000107" height="31.00000763999998" class="text">, </text>
<text x="595.00002051" y="287.00000392" width="47.99997496000003" height="31.00000763999998" class="text">short </text>
<text x="648.99997477" y="287.00000392" width="39.000041150000015" height="31.00000763999998" class="text">form </text>
<text x="697.00000244" y="287.00000392" width="101.99999949999994" height="31.00000763999998" class="text">registration </text>
<text x="805.99999536" y="287.00000392" width="89.00000921000003" height="31.00000763999998" class="text">statement</text>
<text x="892.00005006" y="287.00000392" width="8.999986519999993" height="31.00000763999998" class="text">, </text>
<text x="905.00002278" y="287.00000392" width="122.99992705000011" height="31.00000763999998" class="text">supplemental </text>
<text x="1033.9999818400001" y="287.00000392" width="82.99997719999988" height="31.00000763999998" class="text">statement</text>
<text x="1119.0000048499999" y="287.00000392" width="9.000004090000175" height="31.00000763999998" class="text">, </text>
<text x="1130.99996345" y="287.00000392" width="63.00006377" height="31.00000763999998" class="text">exhibit</text>
<text x="1192.99999553" y="287.00000392" width="9.000004090000175" height="31.00000763999998" class="text">, </text>
<text x="1204.00002786" y="287.00000392" width="109.99997189999999" height="31.00000763999998" class="text">amendment</text>
<text x="1313.99999976" y="287.00000392" width="8.999986519999993" height="31.00000763999998" class="text">, </text>
<text x="1325.99995836" y="287.00000392" width="124.00004659000024" height="31.00000763999998" class="text">dissemination </text>
<text x="1456.99996323" y="287.00000392" width="57.00001419" height="31.00000763999998" class="text">report</text>
<text x="1512.00003703" y="287.00000392" width="9.000004090000175" height="31.00000763999998" class="text">, </text>
<text x="1523.99999563" y="287.00000392" width="44.00005903999977" height="31.00000763999998" class="text">copy </text>
<text x="1573.99996369" y="287.00000392" width="22.00008223000009" height="31.00000763999998" class="text">of </text>
<text x="1597.9999863100002" y="287.00000392" width="77.99997687999985" height="31.00000763999998" class="text">political
</text>
<text x="113.000000204" y="315.99997656" width="105.999999756" height="30.99996212000002" class="text">propaganda </text>
<text x="224.99999683" y="315.99997656" width="21.999994380000032" height="30.99996212000002" class="text">or </text>
<text x="254.00000219999998" y="315.99997656" width="44.99998531" height="30.99996212000002" class="text">other </text>
<text x="305.9999985" y="315.99997656" width="89.00000920999997" height="30.99996212000002" class="text">document </text>
<text x="402.99999768" y="315.99997656" width="17.000011630000017" height="30.99996212000002" class="text">or </text>
<text x="428.00001685" y="315.99997656" width="103.99999259999998" height="30.99996212000002" class="text">information </text>
<text x="544.00002076" y="315.99997656" width="36.999995340000055" height="30.99996212000002" class="text">filed </text>
<text x="590.9999816000001" y="315.99997656" width="38.00000946" height="30.99996212000002" class="text">with </text>
<text x="637.00001617" y="315.99997656" width="25.999963009999988" height="30.99996212000002" class="text">the </text>
<text x="671.00000429" y="315.99997656" width="78.99999100000002" height="30.99996212000002" class="text">Attorney </text>
<text x="758.0000204" y="315.99997656" width="70.99996589" height="30.99996212000002" class="text">General </text>
<text x="837.0000114" y="315.99997656" width="50.99994704000005" height="30.99996212000002" class="text">under </text>
<text x="892.00005006" y="315.99997656" width="31.99997744999996" height="30.99996212000002" class="text">this </text>
<text x="931.99999991" y="315.99997656" width="30.00003705999984" height="30.99996212000002" class="text">act </text>
<text x="968.9999952500001" y="315.99997656" width="11.00003232999984" height="30.99996212000002" class="text">is </text>
<text x="987.9999999800001" y="315.99997656" width="8.99998651999988" height="30.99996212000002" class="text">a </text>
<text x="1007.00000471" y="315.99997656" width="56.00000007000017" height="30.99996212000002" class="text">public </text>
<text x="1069.00003679" y="315.99997656" width="53.999954260000095" height="30.99996212000002" class="text">record </text>
<text x="1133.00000926" y="315.99997656" width="43.99993604999986" height="30.99996212000002" class="text">open </text>
<text x="1184.00000901" y="315.99997656" width="16.999958920000154" height="30.99996212000002" class="text">to </text>
<text x="1208.00001406" y="315.99997656" width="53.99997183000005" height="30.99996212000002" class="text">public </text>
<text x="1274.00003234" y="315.99997656" width="107.99992608999992" height="30.99996212000002" class="text">examination</text>
<text x="1381.9999584299999" y="315.99997656" width="9.000091939999947" height="30.99996212000002" class="text">, </text>
<text x="1395.00003657" y="315.99997656" width="90.99994960000004" height="30.99996212000002" class="text">inspection </text>
<text x="1497.0000185" y="315.99997656" width="31.999995019999915" height="30.99996212000002" class="text">and </text>
<text x="1536.99998592" y="315.99997656" width="69.99998691000019" height="30.99996212000002" class="text">copying </text>
<text x="1614.00003653" y="315.99997656" width="58.99995458000012" height="30.99996212000002" class="text">during
</text>
<text x="115.00000560299999" y="342.99998247999997" width="23.99998923700001" height="28.99997264000001" class="text">the </text>
<text x="151.000002636" y="342.99998247999997" width="56.000003583999984" height="28.99997264000001" class="text">posted </text>
<text x="213.99999964" y="342.99998247999997" width="76.00000134999999" height="28.99997264000001" class="text">business </text>
<text x="297.99999096" y="342.99998247999997" width="49.000006650000046" height="28.99997264000001" class="text">hours </text>
<text x="355.99998413" y="342.99998247999997" width="22.000029520000055" height="28.99997264000001" class="text">of </text>
<text x="381.0000033" y="342.99998247999997" width="28.999987800000042" height="28.99997264000001" class="text">the </text>
<text x="416.00000554" y="342.99998247999997" width="109.99997190000005" height="28.99997264000001" class="text">Registration </text>
<text x="534.99998153" y="342.99998247999997" width="41.00003425" height="28.99997264000001" class="text">Unit </text>
<text x="581.99999508" y="342.99998247999997" width="15.000018530000034" height="28.99997264000001" class="text">in </text>
<text x="607.00003182" y="342.99998247999997" width="103.99997502999997" height="28.99997264000001" class="text">Washington</text>
<text x="714.00001407" y="342.99998247999997" width="7.999972399999933" height="28.99997264000001" class="text">, </text>
<text x="730.0000115800001" y="342.99998247999997" width="42.99997463999989" height="28.99997264000001" class="text">D.C. </text>
<text x="775.99999344" y="342.99998247999997" width="36.99999533999994" height="28.99997264000001" class="text">One </text>
<text x="819.99999977" y="342.99998247999997" width="41.00003425" height="28.99997264000001" class="text">copy </text>
<text x="872.00001364" y="342.99998247999997" width="15.000018530000034" height="28.99997264000001" class="text">is </text>
<text x="897.99995908" y="342.99998247999997" width="116.00000390999992" height="28.99997264000001" class="text">automatically </text>
<text x="1027.00004113" y="342.99998247999997" width="75.99993107" height="28.99997264000001" class="text">provided </text>
<text x="1111.00003245" y="342.99998247999997" width="16.99997649000011" height="28.99997264000001" class="text">to </text>
<text x="1134.00004095" y="342.99998247999997" width="29.999931639999886" height="28.99997264000001" class="text">the </text>
<text x="1171.00001872" y="342.99998247999997" width="84.99993515999995" height="28.99997264000001" class="text">Secretary </text>
<text x="1264.00001413" y="342.99998247999997" width="21.999976810000135" height="28.99997264000001" class="text">of </text>
<text x="1289.99997714" y="342.99998247999997" width="44.00004147000004" height="28.99997264000001" class="text">State </text>
<text x="1343.0000227" y="342.99998247999997" width="77.99995931000012" height="28.99997264000001" class="text">pursuant </text>
<text x="1427.00001402" y="342.99998247999997" width="16.99997649000011" height="28.99997264000001" class="text">to </text>
<text x="1451.99994534" y="342.99998247999997" width="65.00000415999989" height="28.99997264000001" class="text">Section </text>
<text x="1529.0000135199998" y="342.99998247999997" width="7.999972400000161" height="28.99997264000001" class="text">6</text>
<text x="1540.00004585" y="342.99998247999997" width="7.999972399999706" height="28.99997264000001" class="text">(</text>
<text x="1545.99997244" y="342.99998247999997" width="8.000077820000115" height="28.99997264000001" class="text">b</text>
<text x="1558.0000364599998" y="342.99998247999997" width="7.999972400000161" height="28.99997264000001" class="text">) </text>
<text x="1571.00000918" y="342.99998247999997" width="21.999976809999907" height="28.99997264000001" class="text">of </text>
<text x="1600.00003212" y="342.99998247999997" width="24.00002261999998" height="28.99997264000001" class="text">the </text>
<text x="1633.99996753" y="342.99998247999997" width="32.99999157000002" height="28.99997264000001" class="text">Act</text>
<text x="1667.99999079" y="342.99998247999997" width="7.999972399999933" height="28.99997264000001" class="text">,
</text>
<text x="116.000002153" y="373.99999012" width="28.000000035" height="31.999991000000023" class="text">and </text>
<text x="154.000004585" y="373.99999012" width="56.000008855000004" height="31.999991000000023" class="text">copies </text>
<text x="218.00000341" y="373.99999012" width="19.00000473" height="31.999991000000023" class="text">of </text>
<text x="239.99999779" y="373.99999012" width="40.99999911000003" height="31.999991000000023" class="text">such </text>
<text x="287.00001134" y="373.99999012" width="97.99999572999997" height="31.999991000000023" class="text">documents </text>
<text x="394.00001116000004" y="373.99999012" width="22.999990929999967" height="31.999991000000023" class="text">are </text>
<text x="425.99998861" y="373.99999012" width="83.00002990999997" height="31.999991000000023" class="text">routinely </text>
<text x="518.00002261" y="373.99999012" width="43.999988760000065" height="31.999991000000023" class="text">made </text>
<text x="569.99998377" y="373.99999012" width="78.99999100000002" height="31.999991000000023" class="text">available </text>
<text x="653.00001368" y="373.99999012" width="19.00000473" height="31.999991000000023" class="text">to </text>
<text x="679.00001183" y="373.99999012" width="45.99999943" height="31.999991000000023" class="text">other </text>
<text x="732.99998366" y="373.99999012" width="76.00001892" height="31.999991000000023" class="text">agencies</text>
<text x="809.99998156" y="373.99999012" width="9.00003922999997" height="31.999991000000023" class="text">, </text>
<text x="821.99999287" y="373.99999012" width="110.00000704000001" height="31.999991000000023" class="text">departments </text>
<text x="940.99998643" y="373.99999012" width="33.00000913999986" height="31.999991000000023" class="text">and </text>
<text x="981.99996797" y="373.99999012" width="82.9999772000001" height="31.999991000000023" class="text">Congress </text>
<text x="1072.0000088699999" y="373.99999012" width="80.0000051200002" height="31.999991000000023" class="text">pursuant </text>
<text x="1158.000046" y="373.99999012" width="10.99994447999984" height="31.999991000000023" class="text">to </text>
<text x="1181.00003693" y="373.99999012" width="63.999972469999875" height="31.999991000000023" class="text">Section </text>
<text x="1255.00002761" y="373.99999012" width="8.999986519999993" height="31.999991000000023" class="text">6</text>
<text x="1264.00001413" y="373.99999012" width="9.000004089999948" height="31.999991000000023" class="text">(</text>
<text x="1270.99997241" y="373.99999012" width="8.999986519999993" height="31.999991000000023" class="text">c</text>
<text x="1283.99994513" y="373.99999012" width="9.000109509999902" height="31.999991000000023" class="text">) </text>
<text x="1296.00000915" y="373.99999012" width="17.99999060999994" height="31.999991000000023" class="text">of </text>
<text x="1319.00000008" y="373.99999012" width="26.999977129999934" height="31.999991000000023" class="text">the </text>
<text x="1355.99999542" y="373.99999012" width="33.000009139999975" height="31.999991000000023" class="text">Act</text>
<text x="1386.00005005" y="373.99999012" width="8.999986519999993" height="31.999991000000023" class="text">. </text>
<text x="1401.99997728" y="373.99999012" width="58.00004588000024" height="31.999991000000023" class="text">Finally</text>
<text x="1462.99999524" y="373.99999012" width="8.999986519999993" height="31.999991000000023" class="text">, </text>
<text x="1478.00001377" y="373.99999012" width="26.99997713000016" height="31.999991000000023" class="text">the </text>
<text x="1510.00000879" y="373.99999012" width="76.00001892" height="31.999991000000023" class="text">Attorney </text>
<text x="1595.0000318" y="373.99999012" width="81.99994551000009" height="31.999991000000023" class="text">Genreral
</text>
<text x="116.000002153" y="399.00000656" width="77.99999620700001" height="27.999989279999966" class="text">transmits </text>
<text x="200.99999178" y="399.00000656" width="20.00000128000002" height="27.999989279999966" class="text">an </text>
<text x="228.99998303" y="399.00000656" width="61.00001795999998" height="27.999989279999966" class="text">annual </text>
<text x="294.00000476" y="399.00000656" width="53.99998939999995" height="27.999989279999966" class="text">report </text>
<text x="351.99999793" y="399.00000656" width="16.999994060000006" height="27.999989279999966" class="text">to </text>
<text x="375.99998541" y="399.00000656" width="27.000012269999957" height="27.999989279999966" class="text">the </text>
<text x="414.00001244" y="399.00000656" width="81.00000167000007" height="27.999989279999966" class="text">Congress </text>
<text x="500.99999341000006" y="399.00000656" width="19.999983709999867" height="27.999989279999966" class="text">on </text>
<text x="527.0000091300001" y="399.00000656" width="26.999977129999934" height="27.999989279999966" class="text">the </text>
<text x="560.0000182699999" y="399.00000656" width="133.99997695000013" height="27.999989279999966" class="text">Administration </text>
<text x="700.99998864" y="399.00000656" width="20.999997829999984" height="27.999989279999966" class="text">of </text>
<text x="725.99997267" y="399.00000656" width="27.00002983999991" height="27.999989279999966" class="text">the </text>
<text x="758.99998181" y="399.00000656" width="32.000047730000006" height="27.999989279999966" class="text">Act </text>
<text x="795.99997715" y="399.00000656" width="51.000052460000006" height="27.999989279999966" class="text">which </text>
<text x="858.00000923" y="399.00000656" width="34.00004082999999" height="27.999989279999966" class="text">lists </text>
<text x="896.00001869" y="399.00000656" width="28.000008819999948" height="27.999989279999966" class="text">the </text>
<text x="931.99999991" y="399.00000656" width="54.99996838000004" height="27.999989279999966" class="text">names </text>
<text x="995.9999723799999" y="399.00000656" width="17.000064339999994" height="27.999989279999966" class="text">of </text>
<text x="1019.99997743" y="399.00000656" width="23.00000849999992" height="27.999989279999966" class="text">all </text>
<text x="1047.9999862500001" y="399.00000656" width="54.00005968000005" height="27.999989279999966" class="text">agents </text>
<text x="1106.9999584" y="399.00000656" width="33.000009139999975" height="27.999989279999966" class="text">and </text>
<text x="1145.99998198" y="399.00000656" width="26.999977129999934" height="27.999989279999966" class="text">the </text>
<text x="1176.99994531" y="399.00000656" width="57.000031759999956" height="27.999989279999966" class="text">nature</text>
<text x="1233.9999770699999" y="399.00000656" width="8.000077820000115" height="27.999989279999966" class="text">, </text>
<text x="1247.9999814799999" y="399.00000656" width="67.00003240000024" height="27.999989279999966" class="text">sources </text>
<text x="1321.00004589" y="399.00000656" width="30.999963330000128" height="27.999989279999966" class="text">and </text>
<text x="1358.99994993" y="399.00000656" width="69.00009578000004" height="27.999989279999966" class="text">content </text>
<text x="1433.00004603" y="399.00000656" width="15.999944799999867" height="27.999989279999966" class="text">of </text>
<text x="1457.9999773499999" y="399.00000656" width="22.999990930000195" height="27.999989279999966" class="text">the </text>
<text x="1489.0000461" y="399.00000656" width="75.99993107" height="27.999989279999966" class="text">political </text>
<text x="1567.00002298" y="399.00000656" width="104.99995401000001" height="27.999989279999966" class="text">propaganda
</text>
<text x="116.000002153" y="428.00000195999996" width="114.00001256699997" height="27.00000591999998" class="text">disseminated </text>
<text x="239.99999779" y="428.00000195999996" width="20.000001279999992" height="27.00000591999998" class="text">or </text>
<text x="269.99999971" y="428.00000195999996" width="91.99999886" height="27.00000591999998" class="text">distributed </text>
<text x="371.99999921" y="428.00000195999996" width="20.000018850000004" height="27.00000591999998" class="text">by </text>
<text x="402.99999768" y="428.00000195999996" width="40.99998154000002" height="27.00000591999998" class="text">them</text>
<text x="448.00001813" y="428.00000195999996" width="7.999972400000047" height="27.00000591999998" class="text">. </text>
<text x="467.00002286" y="428.00000195999996" width="36.99999534" height="27.00000591999998" class="text">This </text>
<text x="513.00000472" y="428.00000195999996" width="56.000000070000056" height="27.00000591999998" class="text">report </text>
<text x="576.00001578" y="428.00000195999996" width="14.999965820000057" height="27.00000591999998" class="text">is </text>
<text x="599.00000671" y="428.00000195999996" width="77.99997688000008" height="27.00000591999998" class="text">available </text>
<text x="684.9999911299999" y="428.00000195999996" width="15.999997510000071" height="27.00000591999998" class="text">to </text>
<text x="709.9999751600001" y="428.00000195999996" width="27.00004740999998" height="27.00000591999998" class="text">the </text>
<text x="748.00000219" y="428.00000195999996" width="56.000000070000056" height="27.00000591999998" class="text">public</text>
<text x="804.0000022600001" y="428.00000195999996" width="8.00002510999991" height="27.00000591999998" class="text">.
</text>
<text x="116.999998703" y="482.99999715999996" width="52.99999812099999" height="28.99999539999999" class="text">Public </text>
<text x="178.9999974" y="482.99999715999996" width="89.00000921" height="28.99999539999999" class="text">Reporting </text>
<text x="275.00000002999997" y="482.99999715999996" width="61.00001796000004" height="28.99999539999999" class="text">Burden</text>
<text x="339.99998662" y="482.99999715999996" width="8.000007539999956" height="28.99999539999999" class="text">. </text>
<text x="352.99999448" y="482.99999715999996" width="55.00000352000001" height="28.99999539999999" class="text">Public </text>
<text x="417.99999864" y="482.99999715999996" width="81.99998065" height="28.99999539999999" class="text">reporting </text>
<text x="504.0000182" y="482.99999715999996" width="61.00000038999997" height="28.99999539999999" class="text">burden </text>
<text x="574.99998409" y="482.99999715999996" width="29.000022940000008" height="28.99999539999999" class="text">for </text>
<text x="607.99999323" y="482.99999715999996" width="33.000009139999975" height="28.99999539999999" class="text">this </text>
<text x="646.99998167" y="482.99999715999996" width="88.00004779999995" height="28.99999539999999" class="text">collection </text>
<text x="742.9999842999999" y="482.99999715999996" width="17.000029200000085" height="28.99999539999999" class="text">of </text>
<text x="763.00002072" y="482.99999715999996" width="107.99996123000005" height="28.99999539999999" class="text">information </text>
<text x="875.99999984" y="482.99999715999996" width="16.99995892000004" height="28.99999539999999" class="text">is </text>
<text x="901.00003658" y="482.99999715999996" width="82.99997719999988" height="28.99999539999999" class="text">estimated </text>
<text x="990.00004579" y="482.99999715999996" width="15.99994479999998" height="28.99999539999999" class="text">to </text>
<text x="1017.00002292" y="482.99999715999996" width="66.00001828000018" height="28.99999539999999" class="text">average </text>
<text x="1092.99995399" y="482.99999715999996" width="20.00001885000006" height="28.99999539999999" class="text">1.5 </text>
<text x="1117.99999073" y="482.99999715999996" width="53.000027990000035" height="28.99999539999999" class="text">hours </text>
<text x="1176.99994531" y="482.99999715999996" width="29.000022940000008" height="28.99999539999999" class="text">per </text>
<text x="1214.0000460699998" y="482.99999715999996" width="75.99993107000023" height="28.99999539999999" class="text">response</text>
<text x="1293.99996334" y="482.99999715999996" width="8.000077819999888" height="28.99999539999999" class="text">, </text>
<text x="1307.99996775" y="482.99999715999996" width="82.00005092999982" height="28.99999539999999" class="text">including </text>
<text x="1395.00003657" y="482.99999715999996" width="29.999931639999886" height="28.99999539999999" class="text">the </text>
<text x="1432.00003191" y="482.99999715999996" width="39.99994985000012" height="28.99999539999999" class="text">time </text>
<text x="1479.00002789" y="482.99999715999996" width="24.00002261999998" height="28.99999539999999" class="text">for </text>
<text x="1510.00000879" y="482.99999715999996" width="86.00003713000001" height="28.99999539999999" class="text">reviewing </text>
<text x="1600.99995839" y="482.99999715999996" width="64.00006031999987" height="28.99999539999999" class="text">instruc-
</text>
<text x="113.000000204" y="512.99999868" width="48.00000482899998" height="30.000001520000012" class="text">tions</text>
<text x="158.00000308399999" y="512.99999868" width="8.999991791000014" height="30.000001520000012" class="text">, </text>
<text x="172.999998773" y="512.99999868" width="82.99999652700001" height="30.000001520000012" class="text">searching </text>
<text x="266.00001351" y="512.99999868" width="68.99997279000002" height="30.000001520000012" class="text">existing </text>
<text x="343.00001140999996" y="512.99999868" width="35.00000224000007" height="30.000001520000012" class="text">data </text>
<text x="388.99999327" y="512.99999868" width="65.00000416" height="30.000001520000012" class="text">sources</text>
<text x="455.00001155" y="512.99999868" width="8.999986519999993" height="30.000001520000012" class="text">, </text>
<text x="469.00001596000004" y="512.99999868" width="84.99997029999997" height="30.000001520000012" class="text">gathering </text>
<text x="562.99997278" y="512.99999868" width="30.000054630000022" height="30.000001520000012" class="text">and </text>
<text x="607.00003182" y="512.99999868" width="98.99997470999995" height="30.000001520000012" class="text">maintaining </text>
<text x="718.00000027" y="512.99999868" width="24.99998402999995" height="30.000001520000012" class="text">the </text>
<text x="751.00000941" y="512.99999868" width="35.00000223999996" height="30.000001520000012" class="text">data </text>
<text x="795.99997715" y="512.99999868" width="60.00003898000011" height="30.000001520000012" class="text">needed</text>
<text x="860.00000233" y="512.99999868" width="8.99998651999988" height="30.000001520000012" class="text">, </text>
<text x="875.0000208600001" y="512.99999868" width="30.00000191999993" height="30.000001520000012" class="text">and </text>
<text x="912.99999518" y="512.99999868" width="101.9999819300001" height="30.000001520000012" class="text">completing </text>
<text x="1021.00000912" y="512.99999868" width="34.000023260000034" height="30.000001520000012" class="text">and </text>
<text x="1064.0000364700002" y="512.99999868" width="86.99996339999984" height="30.000001520000012" class="text">reviewing </text>
<text x="1162.0000322" y="512.99999868" width="24.99993131999986" height="30.000001520000012" class="text">the </text>
<text x="1191.9999814100001" y="512.99999868" width="91.00005501999976" height="30.000001520000012" class="text">collection </text>
<text x="1292.00002295" y="512.99999868" width="16.999958920000154" height="30.000001520000012" class="text">of </text>
<text x="1317.99998596" y="512.99999868" width="102.99999605000016" height="30.000001520000012" class="text">information</text>
<text x="1423.99995409" y="512.99999868" width="9.000091939999947" height="30.000001520000012" class="text">. </text>
<text x="1437.9999585" y="512.99999868" width="43.00000978000003" height="30.000001520000012" class="text">Send </text>
<text x="1489.0000461" y="512.99999868" width="91.99998129000005" height="30.000001520000012" class="text">comments </text>
<text x="1588.9999997900002" y="512.99999868" width="82.99997719999988" height="30.000001520000012" class="text">regarding
</text>
<text x="113.999996754" y="541.00001072" width="35.00000048300001" height="30.00002427999999" class="text">this </text>
<text x="155.99999768499998" y="541.00001072" width="58.99999850500001" height="30.00002427999999" class="text">burden </text>
<text x="224.99999683" y="541.00001072" width="73.99999068" height="30.00002427999999" class="text">estimate </text>
<text x="309.00000572" y="541.00001072" width="16.999994060000006" height="30.00002427999999" class="text">or </text>
<text x="331.99999665" y="541.00001072" width="34.000005689999966" height="30.00002427999999" class="text">any </text>
<text x="374.99998886" y="541.00001072" width="48.000010100000054" height="30.00002427999999" class="text">other </text>
<text x="429.0000134" y="541.00001072" width="56.000000070000056" height="30.00002427999999" class="text">aspect </text>
<text x="490.99999277" y="541.00001072" width="22.000011949999987" height="30.00002427999999" class="text">of </text>
<text x="516.00002951" y="541.00001072" width="30.999963330000014" height="30.00002427999999" class="text">this </text>
<text x="558.00002517" y="541.00001072" width="86.99996340000007" height="30.00002427999999" class="text">collection </text>
<text x="653.99997509" y="541.00001072" width="17.00002919999997" height="30.00002427999999" class="text">of </text>
<text x="677.99999771" y="541.00001072" width="103.99997502999997" height="30.00002427999999" class="text">information</text>
<text x="786.0000116499999" y="541.00001072" width="9.000004090000061" height="30.00002427999999" class="text">, </text>
<text x="802.9999705700001" y="541.00001072" width="82.0000157899999" height="30.00002427999999" class="text">including </text>
<text x="893.99999045" y="541.00001072" width="105.0000418599999" height="30.00002427999999" class="text">suggestions </text>
<text x="1004.9999589000001" y="541.00001072" width="26.00006842999983" height="30.00002427999999" class="text">for </text>
<text x="1037.99996804" y="541.00001072" width="78.0000822999998" height="30.00002427999999" class="text">reducing </text>
<text x="1126.99997725" y="541.00001072" width="29.000022940000008" height="30.00002427999999" class="text">this </text>
<text x="1167.00005009" y="541.00001072" width="58.999954579999894" height="30.00002427999999" class="text">burden </text>
<text x="1232.99996295" y="541.00001072" width="17.000064340000108" height="30.00002427999999" class="text">to </text>
<text x="1261.99998589" y="541.00001072" width="48.00002767000001" height="30.00002427999999" class="text">Chief</text>
<text x="1311.00002768" y="541.00001072" width="9.000004090000175" height="30.00002427999999" class="text">, </text>
<text x="1324.00001797" y="541.00001072" width="109.99995433000004" height="30.00002427999999" class="text">Registration </text>
<text x="1443.99999051" y="541.00001072" width="39.000023579999834" height="30.00002427999999" class="text">Unit</text>
<text x="1484.99995448" y="541.00001072" width="9.000004089999948" height="30.00002427999999" class="text">, </text>
<text x="1498.00005019" y="541.00001072" width="85.99993171000006" height="30.00002427999999" class="text">Criminal </text>
<text x="1587.9999681000002" y="541.00001072" width="77.00005060999979" height="30.00002427999999" class="text">Division</text>
<text x="1667.99999079" y="541.00001072" width="8.999986519999993" height="30.00002427999999" class="text">,
</text>
<text x="115.00000560299999" y="569.0" width="43.999994031000014" height="31.000007640000035" class="text">U.S. </text>
<text x="161.00000503299998" y="569.0" width="108.99999467700002" height="31.000007640000035" class="text">Department </text>
<text x="274.00000348" y="569.0" width="19.00000473" height="31.000007640000035" class="text">of </text>
<text x="301.00001575" y="569.0" width="56.00000007" height="31.000007640000035" class="text">Justice</text>
<text x="358.00001237" y="569.0" width="8.999986519999993" height="31.000007640000035" class="text">, </text>
<text x="371.99999921" y="569.0" width="104.99998914999998" height="31.000007640000035" class="text">Washington</text>
<text x="476.99998836" y="569.0" width="8.999986519999993" height="31.000007640000035" class="text">, </text>
<text x="490.00001378999997" y="569.0" width="40.00000256000004" height="31.000007640000035" class="text">D.C. </text>
<text x="537.9999887499999" y="569.0" width="50.99999975000003" height="31.000007640000035" class="text">20530</text>
<text x="593.99998882" y="569.0" width="9.000004090000061" height="31.000007640000035" class="text">; </text>
<text x="606.00000013" y="569.0" width="31.99999502000003" height="31.000007640000035" class="text">and </text>
<text x="642.99999547" y="569.0" width="19.00000473" height="31.000007640000035" class="text">to </text>
<text x="665.00002499" y="569.0" width="27.999991249999994" height="31.000007640000035" class="text">the </text>
<text x="700.99998864" y="569.0" width="57.00003176000007" height="31.000007640000035" class="text">Office </text>
<text x="763.9999997" y="569.0" width="17.999973039999986" height="31.000007640000035" class="text">of </text>
<text x="786.0000116499999" y="569.0" width="107.99997880000012" height="31.000007640000035" class="text">Information </text>
<text x="900.00000489" y="569.0" width="29.999949210000068" height="31.000007640000035" class="text">and </text>
<text x="939.9999723100001" y="569.0" width="95.00004122000007" height="31.000007640000035" class="text">Regulatory </text>
<text x="1047.9999862500001" y="569.0" width="58.00004587999979" height="31.000007640000035" class="text">Affairs</text>
<text x="1107.99997252" y="569.0" width="8.999986519999993" height="31.000007640000035" class="text">, </text>
<text x="1122.99999105" y="569.0" width="54.99998594999988" height="31.000007640000035" class="text">Office </text>
<text x="1186.00005482" y="569.0" width="16.999958919999926" height="31.000007640000035" class="text">of </text>
<text x="1208.00001406" y="569.0" width="118.99995841999998" height="31.000007640000035" class="text">Management </text>
<text x="1330.99995868" y="569.0" width="30.000037060000068" height="31.000007640000035" class="text">and </text>
<text x="1371.0000139499998" y="569.0" width="66.00001828000018" height="31.000007640000035" class="text">Budget</text>
<text x="1437.00003223" y="569.0" width="9.000004089999948" height="31.000007640000035" class="text">, </text>
<text x="1445.00000463" y="569.0" width="104.99995401000001" height="31.000007640000035" class="text">Washington</text>
<text x="1554.99995896" y="569.0" width="9.000004090000175" height="31.000007640000035" class="text">, </text>
<text x="1568.9999633700002" y="569.0" width="41.00008695999986" height="31.000007640000035" class="text">D.C. </text>
<text x="1613.00000484" y="569.0" width="56.00000006999994" height="31.000007640000035" class="text">20503</text>
<text x="1669.00000491" y="569.0" width="9.000004090000175" height="31.000007640000035" class="text">.
</text>
<text x="905.00002278" y="624.99997856" width="20.00001885000006" height="29.000018159999968" class="text">2. </text>
<text x="937.0000002300001" y="624.99997856" width="135.0000086399998" height="30.999984880000056" class="text">Registration </text>
<text x="1083.0000412000002" y="623.00001184" width="44.999967739999875" height="29.000018159999968" class="text">No.
</text>
<text x="122.000006051" y="623.00001184" width="16.999988789" height="30.000024279999934" class="text">1. </text>
<text x="148.00000068699998" y="624.99997856" width="69.00000617300003" height="31.999991000000023" class="text">Name </text>
<text x="225.99999338" y="624.99997856" width="21.999994380000004" height="29.999955999999997" class="text">of </text>
<text x="259.99999907" y="628.00004244" width="118.00001458000003" height="33.00001987999997" class="text">Registrant
</text>
<text x="112.000003654" y="659.0000045600001" width="49.999997929" height="23.999964800000043" class="text">Old </text>
<text x="180.9999905" y="660.9999712800001" width="67.99999380999998" height="24.999993680000102" class="text">Name</text>
<text x="258.00000597" y="660.00003344" width="5.999979300000007" height="23.000026960000014" class="text">: </text>
<text x="303.00000885" y="667.9999686" width="104.99998915000003" height="32.99992883999994" class="text">Bozell </text>
<text x="425.99998861" y="667.9999686" width="99.00002741999998" height="32.99992883999994" class="text">Sawyer </text>
<text x="543.00000664" y="667.9999686" width="103.99997502999997" height="32.99992883999994" class="text">Miller </text>
<text x="665.00002499" y="667.9999686" width="84.99997029999997" height="32.99992883999994" class="text">Group
</text>
<text x="110.999994805" y="692.99998504" width="50.00001022799998" height="22.99995867999985" class="text">New </text>
<text x="183.99999772" y="695.00002004" width="65.99998314000001" height="24.999993679999875" class="text">Name</text>
<text x="259.00000252" y="695.00002004" width="6.000014439999973" height="23.0000269599999" class="text">: </text>
<text x="301.00001575" y="700.9999884800001" width="68.99997279000002" height="30.999962119999964" class="text">BSMG </text>
<text x="387.99999672" y="700.9999884800001" width="156.00002403999997" height="30.999962119999964" class="text">Worldwide
</text>
<text x="1256.9999679999999" y="659.0000045600001" width="65.00000416000012" height="26.000022560000048" class="text">3911
</text>
<text x="122.000006051" y="799.00001924" width="17.999997637999982" height="31.999991000000023" class="text">3. </text>
<text x="151.000002636" y="799.00001924" width="43.99999227399999" height="31.999991000000023" class="text">This </text>
<text x="207.00000622" y="800.99998596" width="134.9999735" height="33.99995772" class="text">amendment </text>
<text x="351.00000138" y="799.99997984" width="18.99998715999999" height="32.00001376" class="text">is </text>
<text x="380.00000675" y="800.99998596" width="52.99997528" height="33.00001987999997" class="text">filed </text>
<text x="439.99999302" y="800.99998596" width="24.000005050000027" height="31.999991000000023" class="text">to </text>
<text x="474.99999526000005" y="802.00001484" width="126.00000455000003" height="34.00004875999991" class="text">accomplish </text>
<text x="615.0000042199999" y="802.00001484" width="34.99998467" height="32.00001375999989" class="text">the </text>
<text x="658.000014" y="803.0000209599999" width="106.99999982000008" height="33.000019879999854" class="text">following </text>
<text x="777.99998654" y="803.9999815599999" width="99.00002742000004" height="33.99998047999986" class="text">indicated </text>
<text x="891.00001837" y="803.0000209599999" width="86.99996340000007" height="31.99999099999991" class="text">purpose </text>
<text x="994.0000319899999" y="803.9999815599999" width="22.99999093000008" height="31.99999099999991" class="text">or </text>
<text x="1029.99999564" y="804.99998768" width="99.00002741999992" height="32.99999711999999" class="text">purposes</text>
<text x="1129.0000230599999" y="803.9999815599999" width="9.000004090000175" height="31.99999099999991" class="text">:
</text>
<text x="152.999995736" y="868.99999244" width="9.000005847000011" height="30.999984880000056" class="text">☐ </text>
<text x="188.99999803999998" y="868.99999244" width="23.000008500000007" height="30.999984880000056" class="text">To </text>
<text x="226.99998993" y="868.99999244" width="81.00001924" height="30.999984880000056" class="text">correct </text>
<text x="317.99999224000004" y="868.99999244" width="9.000004089999948" height="30.999984880000056" class="text">a </text>
<text x="337.00001454" y="868.99999244" width="114.99998979000003" height="30.999984880000056" class="text">deficiency </text>
<text x="462.99998394999994" y="868.99999244" width="19.00000473" height="30.999984880000056" class="text">in
</text>
<text x="897.0000503800001" y="868.99999244" width="9.99991278999994" height="33.99998047999998" class="text">☐ </text>
<text x="938.0000319200001" y="868.99999244" width="19.999913429999992" height="33.99998047999998" class="text">To </text>
<text x="970.0000093699999" y="868.99999244" width="44.999967740000216" height="33.99998047999998" class="text">give </text>
<text x="1028.9999815200001" y="868.99999244" width="10.000018210000007" height="33.99998047999998" class="text">a </text>
<text x="1056.99997277" y="868.99999244" width="20.000036419999788" height="33.99998047999998" class="text">10</text>
<text x="1079.9999636999999" y="868.99999244" width="10.000018210000007" height="33.99998047999998" class="text">-</text>
<text x="1088.99996779" y="868.99999244" width="35.00005495000005" height="33.99998047999998" class="text">day </text>
<text x="1139.99996754" y="868.99999244" width="64.99998659000016" height="33.99998047999998" class="text">notice </text>
<text x="1218.9999585399999" y="868.99999244" width="25.00003674000004" height="33.99998047999998" class="text">of </text>
<text x="1254.00001349" y="868.99999244" width="10.000000640000053" height="33.99998047999998" class="text">a </text>
<text x="1275.99997273" y="868.99999244" width="80.00002268999992" height="33.99998047999998" class="text">change </text>
<text x="1366.00001363" y="868.99999244" width="20.000036420000015" height="33.99998047999998" class="text">in </text>
<text x="1400.0000368899998" y="868.99999244" width="132.9999628300002" height="33.99998047999998" class="text">information </text>
<text x="1545.99997244" y="868.99999244" width="25.00003674000004" height="33.99998047999998" class="text">as </text>
<text x="1581.00002739" y="868.99999244" width="91.9999637200001" height="33.99998047999998" class="text">required
</text>
<text x="897.99995908" y="903.0000184400001" width="22.000082229999975" height="30.00002428000016" class="text">by </text>
<text x="931.99999991" y="903.0000184400001" width="81.00003680999987" height="31.999991000000136" class="text">Section </text>
<text x="1029.99999564" y="902.00001232" width="9.000004090000175" height="30.000024280000048" class="text">2</text>
<text x="1041.9999542399999" y="902.00001232" width="8.999986519999993" height="30.000024280000048" class="text">(</text>
<text x="1050.9999407599998" y="902.00001232" width="9.00010951000013" height="30.000024280000048" class="text">b</text>
<text x="1065.99997686" y="902.00001232" width="8.999986519999993" height="30.000024280000048" class="text">) </text>
<text x="1087.0000274" y="902.00001232" width="21.999976810000135" height="30.000024280000048" class="text">of </text>
<text x="1117.99999073" y="902.00001232" width="34.000023260000034" height="30.999984880000056" class="text">the </text>
<text x="1166.0000184" y="900.9999834399999" width="38.99993573000006" height="29.999955999999997" class="text">Act</text>
<text x="1204.00002786" y="900.9999834399999" width="9.000004089999948" height="29.999955999999997" class="text">.
</text>
<text x="189.99999459" y="931.00000772" width="7.000010990000021" height="23.999987560000022" class="text">☐ </text>
<text x="223.00000373" y="932.0000366" width="66.99999725999999" height="25.00001644000008" class="text">Initial </text>
<text x="301.00001575" y="932.9999744400001" width="110.99996844999998" height="25.99995428000011" class="text">Statement
</text>
<text x="223.00000373" y="1006.0000115199999" width="156.00000647000002" height="34.00004875999991" class="text">Supplemental </text>
<text x="387.99999672" y="1003.99997652" width="111.99998256999999" height="33.99998047999998" class="text">Statement </text>
<text x="509.9999975" y="1002.0000098" width="34.00002325999998" height="32.00001376" class="text">for
</text>
<text x="897.0000503800001" y="1003.00001592" width="8.999986519999993" height="31.000053159999993" class="text">☑ </text>
<text x="934.9999544199999" y="1003.00001592" width="65.00000416000012" height="31.000053159999993" class="text">Other </text>
<text x="1009.99997679" y="1003.99997652" width="89.00000921000003" height="30.999984879999943" class="text">purpose </text>
<text x="1110.0000183299999" y="1003.99997652" width="8.999986519999993" height="30.999984879999943" class="text">(</text>
<text x="1120.0000365399999" y="1003.99997652" width="76.99994519000006" height="30.999984879999943" class="text">specify</text>
<text x="1200.00005923" y="1003.99997652" width="8.999986519999993" height="30.999984879999943" class="text">)
</text>
<text x="1304.99999567" y="990.999988" width="68.99999035999986" height="30.999962120000077" class="text">Name </text>
<text x="1396.9999769600001" y="992.00001688" width="101.00007322999977" height="31.000053159999993" class="text">Change
</text>
<text x="156.999994235" y="1107.00001512" width="9.000005846999983" height="31.99999099999991" class="text">☐ </text>
<text x="190.99999114" y="1107.00001512" width="24.00000505" height="31.99999099999991" class="text">To </text>
<text x="225.99999338" y="1107.00001512" width="46.000016999999986" height="31.99999099999991" class="text">give </text>
<text x="282.99998999999997" y="1107.00001512" width="69.00000793000004" height="31.99999099999991" class="text">notice </text>
<text x="364.00000924" y="1107.00001512" width="23.999987480000016" height="31.99999099999991" class="text">of </text>
<text x="396.00000425999997" y="1107.00001512" width="78.00001202000004" height="31.99999099999991" class="text">change </text>
<text x="485.99997487999997" y="1107.00001512" width="18.00004332000003" height="31.99999099999991" class="text">in </text>
<text x="516.00002951" y="1107.00001512" width="29.99998435000009" height="31.99999099999991" class="text">an </text>
<text x="555.99997936" y="1107.00001512" width="78.99999100000002" height="31.99999099999991" class="text">exhibit </text>
<text x="644.99998857" y="1107.00001512" width="115.00002493" height="31.99999099999991" class="text">previously </text>
<text x="774.00000034" y="1107.00001512" width="49.00000664999993" height="31.99999099999991" class="text">filed</text>
<text x="828.99998629" y="1107.00001512" width="8.999986519999993" height="31.99999099999991" class="text">.
</text>
<text x="120.000000652" y="1207.9999732" width="24.99999808599999" height="33.00001988000008" class="text">4. </text>
<text x="154.000004585" y="1207.9999732" width="17.999999395000003" height="33.00001988000008" class="text">If </text>
<text x="180.9999905" y="1207.9999732" width="42.00001323000001" height="33.00001988000008" class="text">this </text>
<text x="228.99998303" y="1207.9999732" width="135.00002621" height="33.00001988000008" class="text">amendment </text>
<text x="374.99998886" y="1207.9999732" width="92.99999541000005" height="33.00001988000008" class="text">requires </text>
<text x="478.00000248000003" y="1207.9999732" width="33.00000914000003" height="33.00001988000008" class="text">the </text>
<text x="524.0000019099999" y="1207.9999732" width="56.000000070000056" height="33.00001988000008" class="text">filing </text>
<text x="595.00002051" y="1207.9999732" width="24.999984030000064" height="33.00001988000008" class="text">of </text>
<text x="628.9999910600001" y="1207.9999732" width="9.000004089999948" height="33.00001988000008" class="text">a </text>
<text x="651.99998199" y="1207.9999732" width="113.00003183000001" height="33.00001988000008" class="text">document </text>
<text x="774.00000034" y="1207.9999732" width="24.00002261999998" height="33.00001988000008" class="text">or </text>
<text x="805.99999536" y="1207.9999732" width="123.00003247000006" height="33.00001988000008" class="text">documents</text>
<text x="929.9999541000001" y="1207.9999732" width="9.000091939999947" height="33.00001988000008" class="text">, </text>
<text x="948.9999588300001" y="1207.9999732" width="66.00001828000006" height="33.00001988000008" class="text">please </text>
<text x="1031.00002733" y="1207.9999732" width="31.999977450000188" height="33.00001988000008" class="text">list-
</text>
<text x="188.99999803999998" y="1266.9999246" width="8.000007540000041" height="27.999966519999816" class="text">N</text>
<text x="208.00000277" y="1266.9999246" width="7.9999899700000014" height="27.999966519999816" class="text">/</text>
<text x="221.99998961" y="1265.99998676" width="8.000025109999967" height="27.99998927999991" class="text">A
</text>
<text x="119.00000410199999" y="1376.9999832800002" width="26.999991186000017" height="35.999992720000364" class="text">5. </text>
<text x="151.000002636" y="1376.9999832800002" width="50.999985694" height="35.999992720000364" class="text">Each </text>
<text x="219.99999651" y="1376.9999832800002" width="41.999995659999996" height="35.999992720000364" class="text">item </text>
<text x="274.00000348" y="1376.9999832800002" width="91.00000231000007" height="35.999992720000364" class="text">checked </text>
<text x="373.99999231" y="1376.9999832800002" width="66.00000071" height="35.999992720000364" class="text">above </text>
<text x="457.00000465" y="1376.9999832800002" width="50.99999974999997" height="35.999992720000364" class="text">must </text>
<text x="514.99999782" y="1376.9999832800002" width="26.999977130000048" height="35.999992720000364" class="text">be </text>
<text x="553.00002485" y="1376.9999832800002" width="107.99996122999994" height="35.999992720000364" class="text">explained </text>
<text x="669.9999726" y="1376.9999832800002" width="58.000045880000016" height="35.999992720000364" class="text">below </text>
<text x="746.9999705" y="1376.9999832800002" width="21.000015400000052" height="35.999992720000364" class="text">in </text>
<text x="779.99997964" y="1376.9999832800002" width="42.000013230000036" height="35.999992720000364" class="text">full </text>
<text x="828.99998629" y="1376.9999832800002" width="65.00000416" height="35.999992720000364" class="text">detail </text>
<text x="897.99995908" y="1376.9999832800002" width="92.99999540999988" height="35.999992720000364" class="text">together </text>
<text x="999.99995858" y="1376.9999832800002" width="46.00008728" height="35.999992720000364" class="text">with</text>
<text x="1052.9999865700001" y="1376.9999832800002" width="10.000018210000007" height="35.999992720000364" class="text">, </text>
<text x="1072.0000088699999" y="1376.9999832800002" width="66.00001828000018" height="35.999992720000364" class="text">where </text>
<text x="1148.00002779" y="1376.9999832800002" width="128.99997662999976" height="35.999992720000364" class="text">appropriate</text>
<text x="1279.99995893" y="1376.9999832800002" width="10.000018210000007" height="35.999992720000364" class="text">, </text>
<text x="1297.00002327" y="1376.9999832800002" width="89.9999354800002" height="35.999992720000364" class="text">specific </text>
<text x="1400.0000368899998" y="1376.9999832800002" width="98.00001330000009" height="35.999992720000364" class="text">reference </text>
<text x="1510.00000879" y="1376.9999832800002" width="20.999945119999893" height="35.999992720000364" class="text">to </text>
<text x="1540.99997212" y="1376.9999832800002" width="41.00006938999991" height="35.999992720000364" class="text">and </text>
<text x="1595.0000318" y="1376.9999832800002" width="82.9999772000001" height="35.999992720000364" class="text">identity
</text>
<text x="120.000000652" y="1410.9999409999998" width="24.99999808599999" height="33.99995771999966" class="text">of </text>
<text x="151.999999186" y="1410.9999409999998" width="34.00000920399998" height="33.99995771999966" class="text">the </text>
<text x="200.99999178" y="1410.9999409999998" width="45.99999943000003" height="33.99995771999966" class="text">item </text>
<text x="256.99999184999996" y="1410.9999409999998" width="19.000004730000057" height="33.99995771999966" class="text">in </text>
<text x="290.99999754" y="1410.9999409999998" width="34.00000569000002" height="33.99995771999966" class="text">the </text>
<text x="334.9999863" y="1410.9999409999998" width="126.00000455000003" height="33.99995771999966" class="text">registration </text>
<text x="474.99999526000005" y="1410.9999409999998" width="112.00000013999994" height="33.99995771999966" class="text">statement </text>
<text x="593.99998882" y="1410.9999409999998" width="19.000022299999955" height="33.99995771999966" class="text">to </text>
<text x="623.9999907399999" y="1410.9999409999998" width="69.0000255000001" height="33.99995771999966" class="text">which </text>
<text x="707.00002065" y="1410.9999409999998" width="12.999972720000073" height="33.99995771999966" class="text">it </text>
<text x="732.00000468" y="1410.9999409999998" width="89.99998819000007" height="33.99995771999966" class="text">pertains</text>
<text x="821.00001389" y="1410.9999409999998" width="9.99996550000003" height="33.99995771999966" class="text">. </text>
<text x="842.00001172" y="1410.9999409999998" width="19.999983710000038" height="33.99995771999966" class="text">If </text>
<text x="872.99997505" y="1410.9999409999998" width="52.9999928499999" height="33.99995771999966" class="text">more </text>
<text x="940.99998643" y="1410.9999409999998" width="61.00001795999992" height="33.99995771999966" class="text">space </text>
<text x="1012.0000226" y="1410.9999409999998" width="20.00001885000006" height="33.99995771999966" class="text">is </text>
<text x="1041.9999542399999" y="1410.9999409999998" width="78.99999100000014" height="33.99995771999966" class="text">needed</text>
<text x="1124.00002274" y="1410.9999409999998" width="10.000018210000007" height="33.99995771999966" class="text">, </text>
<text x="1140.99998166" y="1410.9999409999998" width="44.00004147000004" height="33.99995771999966" class="text">full </text>
<text x="1191.9999814100001" y="1410.9999409999998" width="40.00005526999985" height="33.99995771999966" class="text">size </text>
<text x="1246.9999497899998" y="1410.9999409999998" width="61.00001796000015" height="33.99995771999966" class="text">insert </text>
<text x="1321.00004589" y="1410.9999409999998" width="67.99995867000007" height="33.99995771999966" class="text">sheets </text>
<text x="1404.00002309" y="1410.9999409999998" width="38.99993573000006" height="33.99995771999966" class="text">may </text>
<text x="1456.00003696" y="1410.9999409999998" width="24.999931320000087" height="33.99995771999966" class="text">be </text>
<text x="1493.99995857" y="1410.9999409999998" width="48.00002767000001" height="33.99995771999966" class="text">used</text>
<text x="1549.00003237" y="1410.9999409999998" width="9.999912790000053" height="33.99995771999966" class="text">.
</text>
<text x="112.000003654" y="1477.9999413599999" width="70.999997516" height="34.999918320000006" class="text">Name </text>
<text x="200.0000128" y="1477.9999413599999" width="35.99998122000002" height="34.999918320000006" class="text">of </text>
<text x="258.00000597" y="1477.9999413599999" width="166.99998609" height="34.999918320000006" class="text">registrant </text>
<text x="444.99999334" y="1477.9999413599999" width="31.99999501999997" height="34.999918320000006" class="text">is </text>
<text x="499.00000030999996" y="1477.9999413599999" width="115.00002493000005" height="34.999918320000006" class="text">changed </text>
<text x="634.0000089499999" y="1477.9999413599999" width="73.00001170000007" height="34.999918320000006" class="text">from </text>
<text x="721.99998647" y="1477.9999413599999" width="101.99999950000006" height="34.999918320000006" class="text">Bozell </text>
<text x="844.00000482" y="1477.9999413599999" width="104.00004531000013" height="34.999918320000006" class="text">Sawyer </text>
<text x="962.0000369699999" y="1477.9999413599999" width="102.99990820000016" height="34.999918320000006" class="text">Miller </text>
<text x="1085.99999571" y="1477.9999413599999" width="81.00005438000017" height="34.999918320000006" class="text">Group </text>
<text x="1186.99996352" y="1477.9999413599999" width="31.999995019999915" height="34.999918320000006" class="text">to </text>
<text x="1240.0000090800002" y="1477.9999413599999" width="67.00003239999978" height="34.999918320000006" class="text">BSMG </text>
<text x="1322.99998628" y="1477.9999413599999" width="159.00001369000006" height="34.999918320000006" class="text">Worldwide</text>
<text x="1487.00000029" y="1477.9999413599999" width="10.000018210000007" height="34.999918320000006" class="text">.
</text>
<text x="1413.00002718" y="1635.9999524" width="41.99999565999997" height="53.00000571999999" class="text">1998 </text>
<text x="1417.0000133800002" y="1698.0000359599999" width="40.999963969999726" height="46.00005392000003" class="text">MAR </text>
<text x="1419.9999678899999" y="1756.00004952" width="41.00008696000032" height="46.00005392000003" class="text">-5 </text>
<text x="1423.00002782" y="1810.99993092" width="39.999967420000075" height="29.99988772000006" class="text">PM </text>
<text x="1424.99996821" y="1920.9999896" width="44.00005904" height="86.99996343999987" class="text">4:03
</text>
<text x="1479.00002789" y="1814.00006308" width="56.99992634" height="240.00008043999992" class="text">REGISTRATION </text>
<text x="1493.99995857" y="1906.00003436" width="47.00001354999995" height="77.99997663999989" class="text">UNIT
</text>
<text x="1527.9999818299998" y="1729.99995868" width="38.00002703000018" height="61.00000915999999" class="text">CRM</text>
<text x="1531.99996803" y="1756.00004952" width="36.000086639999836" height="12.000096199999916" class="text">/</text>
<text x="1532.99999972" y="1812.00002808" width="38.00000946" height="51.0000845200002" class="text">ISS
</text>
<text x="1559.99997685" y="2114.00005552" width="45.999981859999934" height="16.000029639999866" class="text">FORM </text>
<text x="1615.9999769199999" y="2114.00005552" width="34.000023260000034" height="16.000029639999866" class="text">CRM</text>
<text x="1656.00003219" y="2114.00005552" width="3.9999861999999666" height="16.000029639999866" class="text">-</text>
<text x="1661.99995878" y="2114.00005552" width="20.000036420000015" height="16.000029639999866" class="text">158
</text>
<text x="1633.99996753" y="2137.0000142" width="46.999995979999994" height="16.000029639999866" class="text">SEP.88
</text>
</g>
<g id="page-1" transform="translate(0, 2296)">
<rect width="1757" height="2276" fill="none" stroke="black" />
<text x="178.00000085" y="157.999992832" width="37.99999189000002" height="29.999992415999998" class="text">The </text>
<text x="224.00000028" y="160.99999981200003" width="135.00000863999998" height="32.99999939600002" class="text">undersigned </text>
<text x="373.99999231" y="162.00000138000001" width="63.00001106000002" height="32.000004656000016" class="text">swear</text>
<text x="436.00000682" y="160.99999981200003" width="8.999986519999993" height="30.00000152000004" class="text">(</text>
<text x="444.99999334" y="160.99999981200003" width="9.000004090000004" height="30.00000152000004" class="text">s</text>
<text x="457.00000465" y="160.99999981200003" width="8.999986519999993" height="30.00000152000004" class="text">) </text>
<text x="473.00000215999995" y="162.00000138000001" width="27.999991250000107" height="31.000003088000028" class="text">or </text>
<text x="508.00000439999997" y="163.000002948" width="68.99997279000002" height="32.000004656000016" class="text">affirm</text>
<text x="580.00000198" y="163.000002948" width="8.999986519999993" height="29.99999924400001" class="text">(</text>
<text x="588.9999885" y="163.000002948" width="8.999986519999993" height="29.99999924400001" class="text">s</text>
<text x="600.9999998100001" y="163.000002948" width="8.999986519999993" height="29.99999924400001" class="text">) </text>
<text x="616.9999797500001" y="164.000004516" width="45.000020449999965" height="31.000000811999996" class="text">that </text>
<text x="669.9999726" y="164.000004516" width="22.00002952" height="30.000008347999994" class="text">he </text>
<text x="700.99998864" y="164.000004516" width="38.99998844000004" height="30.000008347999994" class="text">has </text>
<text x="760.99997491" y="165.00000836" width="41.00003425" height="30.000010623999998" class="text">they </text>
<text x="812.00002737" y="166.99999328799998" width="53.99995425999998" height="31.999995551999973" class="text">have</text>
<text x="868.00002744" y="165.99999172" width="8.999986519999993" height="29.999992415999998" class="text">) </text>
<text x="887.00003217" y="166.99999328799998" width="45.999981859999934" height="30.999993983999985" class="text">read </text>
<text x="943.99995851" y="166.99999328799998" width="30.00003705999984" height="29.999990139999994" class="text">the </text>
<text x="985.9999541699999" y="168.9999987" width="129.00006448" height="31.999995552" class="text">information </text>
<text x="1130.00005475" y="168.9999987" width="29.999931640000113" height="30.000001519999984" class="text">set </text>
<text x="1168.99999048" y="171.00000183600002" width="49.9999680599999" height="32.000004656000016" class="text">forth </text>
<text x="1232.00003668" y="170.000000268" width="16.999958920000154" height="30.000001520000012" class="text">in </text>
<text x="1261.99998589" y="171.00000183600002" width="35.99996364999993" height="31.000003088000028" class="text">this </text>
<text x="1308.99998187" y="173.000007248" width="136.00002275999987" height="33.00000850000001" class="text">amendment </text>
<text x="1452.99997703" y="173.000007248" width="38.00000946" height="31.000003088" class="text">and </text>
<text x="1502.00003639" y="173.000007248" width="41.99999565999997" height="30.000010623999998" class="text">that </text>
<text x="1549.99995864" y="174.00000881600002" width="27.99999125000022" height="30.000010624000026" class="text">he </text>
<text x="1590.00001391" y="174.00000881600002" width="10.999944480000067" height="30.000010624000026" class="text">is </text>
<text x="1614.9999452299999" y="174.00000881600002" width="9.00010951000013" height="30.000010624000026" class="text">(</text>
<text x="1624.9999634399999" y="175.99999602" width="45.000073160000056" height="31.999997828000005" class="text">they
</text>
<text x="113.999996754" y="192.999995364" width="37.00000588200001" height="35.000002531999996" class="text">are</text>
<text x="154.000004585" y="193.999996932" width="9.999988341000005" height="35.000002531999996" class="text">) </text>
<text x="173.999995323" y="194.9999985" width="84.00001064700001" height="37.000005668" class="text">familiar </text>
<text x="268.00000661" y="196.000002344" width="44.99998531" height="36.00000410000001" class="text">with </text>
<text x="325.99999978" y="196.000002344" width="35.000002240000015" height="35.00000253199997" class="text">the </text>
<text x="369.99998854" y="198.00000548000003" width="94.99998851000004" height="37.000005668" class="text">contents </text>
<text x="473.00000215999995" y="199.00000704800001" width="83.99999131999999" height="37.000005668" class="text">thereof </text>
<text x="564.00000447" y="199.999992684" width="40.000002559999984" height="35.999988168000016" class="text">and </text>
<text x="615.0000042199999" y="200.999994252" width="43.999988760000065" height="35.999985891999984" class="text">that </text>
<text x="665.00002499" y="201.99999582" width="44.999950170000034" height="36.99998746" class="text">such </text>
<text x="723.9999795699999" y="201.99999582" width="89.00000921000003" height="36.99998746" class="text">contents </text>
<text x="825.00000009" y="202.999997388" width="35.00000224000007" height="36.00000410000001" class="text">are </text>
<text x="874.00000674" y="202.999997388" width="13.00002543000005" height="35.00000025599999" class="text">in </text>
<text x="900.00000489" y="205.0000028" width="54.99998594999988" height="37.000005668" class="text">their </text>
<text x="962.0000369699999" y="206.000004368" width="81.99996308000027" height="37.000005668" class="text">entirety </text>
<text x="1056.99997277" y="207.00000593599998" width="45.99999942999989" height="37.00000566799997" class="text">true </text>
<text x="1111.99995872" y="207.00000593599998" width="40.000055270000075" height="36.000004099999956" class="text">and </text>
<text x="1161.00001808" y="208.00000750400002" width="94.9999358" height="37.000005668" class="text">accurate </text>
<text x="1264.00001413" y="208.00000750400002" width="19.99993100000006" height="35.00000025600002" class="text">to </text>
<text x="1294.99997746" y="208.99999314000002" width="35.99998121999988" height="35.99998589200001" class="text">the </text>
<text x="1339.9999452" y="209.999994708" width="49.00005936000002" height="36.99998746" class="text">best </text>
<text x="1396.9999769600001" y="209.999994708" width="22.99999092999974" height="35.00000025599999" class="text">of </text>
<text x="1427.00001402" y="209.999994708" width="29.999949210000068" height="35.00000025599999" class="text">his </text>
<text x="1470.00004137" y="210.999996276" width="9.999912790000053" height="35.00000025599999" class="text">(</text>
<text x="1476.99999965" y="212.00000012" width="54.99996837999993" height="37.000005668" class="text">their</text>
<text x="1532.99999972" y="210.999996276" width="10.000000640000053" height="35.00000025599999" class="text">) </text>
<text x="1549.99995864" y="214.00000325599999" width="120.00007796" height="38.00000723599999" class="text">knowledge</text>
<text x="116.000002153" y="223.000003712" width="38.99999898200002" height="29.000006780000007" class="text">and </text>
<text x="166.999994875" y="223.000003712" width="64.00001639500002" height="29.000006780000007" class="text">belief</text>
<text x="234.00000092000002" y="223.000003712" width="7.9999899700000014" height="27.000001368" class="text">.
</text>
<text x="920.9999675800001" y="351.00000868" width="80.00000511999986" height="29.000018160000025" class="text">Lance </text>
<text x="1022.0000232400001" y="351.00000868" width="99.99995368999987" height="28.000034800000037" class="text">Morgan
</text>
<text x="133.000003241" y="340.99999299999996" width="5.999991598999998" height="19.999985839999965" class="text">(</text>
<text x="141.000000239" y="340.99999299999996" width="17.000002844999983" height="19.999985839999965" class="text">All </text>
<text x="163.999992926" y="342.99998247999997" width="41.99999917399998" height="21.999975319999976" class="text">copies </text>
<text x="208.99999932" y="341.99999912" width="15.000000959999994" height="20.0000086" class="text">of </text>
<text x="225.99999338" y="342.99998247999997" width="25.000019169999973" height="20.99999195999999" class="text">this </text>
<text x="253.00000565" y="344.00001136000003" width="80.9999841" height="22.000020840000047" class="text">amendment </text>
<text x="338.00001109" y="344.00001136000003" width="32.99999157000002" height="20.0000086" class="text">shall </text>
<text x="374.99998886" y="344.00001136000003" width="15.000000960000023" height="20.0000086" class="text">be </text>
<text x="396.00000425999997" y="346.00002359999996" width="41.999995660000025" height="21.000037479999946" class="text">signed </text>
<text x="443.00000024" y="344.99999472" width="22.999990929999967" height="20.0000086" class="text">and </text>
<text x="474.00001628" y="346.00002359999996" width="36.999995340000055" height="20.0000086" class="text">sworn </text>
<text x="518.00002261" y="346.00002359999996" width="7.999954830000092" height="20.0000086" class="text">to </text>
<text x="534.99998153" y="348.00001308" width="43.00002734999998" height="21.99999808000001" class="text">before </text>
<text x="581.0000161" y="347.00000696" width="5.99997929999995" height="20.0000086" class="text">a </text>
<text x="595.00002051" y="348.99999643999996" width="41.99999565999997" height="21.999998079999955" class="text">notary </text>
<text x="642.99999547" y="348.99999643999996" width="38.999988439999925" height="20.99999195999999" class="text">public </text>
<text x="688.99997733" y="348.00001308" width="15.000036100000102" height="20.0000086" class="text">or </text>
<text x="709.9999751600001" y="348.99999643999996" width="33.00000913999986" height="20.0000086" class="text">other </text>
<text x="749.00001631" y="351.00000868" width="42.999974640000005" height="22.000020840000047" class="text">person
</text>
<text x="116.000002153" y="362.99999108000003" width="67.99999556700001" height="20.999991960000045" class="text">authorized </text>
<text x="193.00000181000001" y="362.00000772000004" width="8.999986519999993" height="19.00002524000007" class="text">to </text>
<text x="210.00001344" y="364.00001996000003" width="73.99997311000001" height="21.00003748000006" class="text">administer </text>
<text x="288.00000789" y="365.00000332" width="37.99999188999999" height="20.0000086" class="text">oaths </text>
<text x="331.99999665" y="365.00000332" width="15.000000960000023" height="20.0000086" class="text">by </text>
<text x="351.00000138" y="365.00000332" width="21.999994380000032" height="18.999979720000056" class="text">the </text>
<text x="379.0000102" y="366.9999928" width="39.99998498999997" height="20.99996920000001" class="text">agent</text>
<text x="418.99999519" y="365.99998668" width="5.0000003200000265" height="18.99997972" class="text">, </text>
<text x="428.00001685" y="365.99998668" width="10.999979620000033" height="18.99997972" class="text">if </text>
<text x="443.99997922" y="365.99998668" width="20.99999783000004" height="18.99997972" class="text">the </text>
<text x="469.00001596000004" y="367.99999892" width="68.00001138000005" height="20.99999195999999" class="text">registrant </text>
<text x="541.99997495" y="367.99999892" width="8.00002510999991" height="19.000002480000035" class="text">is </text>
<text x="558.00002517" y="367.99999892" width="14.999965820000057" height="19.000002480000035" class="text">an </text>
<text x="581.99999508" y="369.9999884" width="69.00002549999999" height="20.999991960000045" class="text">individual</text>
<text x="649.9999888899999" y="369.00000504" width="5.000017890000095" height="19.000025240000014" class="text">, </text>
<text x="660.99998608" y="369.9999884" width="14.000004410000088" height="20.0000086" class="text">or </text>
<text x="681.99998391" y="369.9999884" width="14.000004409999974" height="18.99997972" class="text">by </text>
<text x="704.0000134300001" y="369.9999884" width="5.000000319999913" height="18.99997972" class="text">a </text>
<text x="718.99997925" y="372.00000064" width="53.000027990000035" height="20.99999195999999" class="text">majority </text>
<text x="781.00001133" y="371.00001728" width="12.999972720000073" height="19.000025240000014" class="text">of
</text>
<text x="116.000002153" y="385.00001192" width="32.999995084000005" height="19.000025240000014" class="text">those </text>
<text x="155.00000113500002" y="387.0000014" width="53.00000163499999" height="21.000014719999967" class="text">partners</text>
<text x="211.00000999" y="385.99999528" width="4.999982750000015" height="19.000002480000035" class="text">, </text>
<text x="217.00000686" y="387.99998476" width="50.00000319999995" height="20.999991960000045" class="text">officers</text>
<text x="268.00000661" y="387.0000014" width="5.0000003200000265" height="19.000002479999978" class="text">, </text>
<text x="275.99999658" y="387.99998476" width="56.00000007" height="20.999991960000045" class="text">directors </text>
<text x="336.00001799" y="387.99998476" width="16.999976489999995" height="19.999985840000022" class="text">or </text>
<text x="354.99998758000004" y="389.00001364" width="54.00000696999996" height="20.0000086" class="text">persons </text>
<text x="409.99999110000005" y="389.999997" width="75.00002237000001" height="20.99999195999999" class="text">performing </text>
<text x="490.00001378999997" y="389.999997" width="45.999981860000105" height="20.0000086" class="text">similar </text>
<text x="541.0000135399999" y="390.99998036000005" width="59.0000072900001" height="20.999991960000045" class="text">functions </text>
<text x="604.00000703" y="390.99998036000005" width="24.999984030000064" height="19.999963080000043" class="text">who </text>
<text x="634.99997036" y="390.99998036000005" width="22.00002952" height="18.999979720000056" class="text">are </text>
<text x="660.99998608" y="390.99998036000005" width="11.000032330000067" height="18.999979720000056" class="text">in </text>
<text x="677.99999771" y="390.99998036000005" width="17.99999060999994" height="18.999979720000056" class="text">the </text>
<text x="702.9999817400001" y="392.00000924" width="41.99999565999997" height="20.0000086" class="text">United </text>
<text x="751.99998839" y="392.00000924" width="35.00000224000007" height="19.000002479999978" class="text">States</text>
<text x="789.99999785" y="392.00000924" width="5.000017889999981" height="19.000002479999978" class="text">,
</text>
<text x="113.000000204" y="406.00000388" width="13.999999138999982" height="18.00001911999999" class="text">if </text>
<text x="130.999997842" y="407.00001" width="20.000004794000006" height="19.000025239999957" class="text">the </text>
<text x="158.999999634" y="407.99999335999996" width="65.99999719599998" height="20.000008599999944" class="text">registrant </text>
<text x="230.00001471999997" y="407.99999335999996" width="9.999983070000042" height="17.999996359999955" class="text">is </text>
<text x="246.00001223" y="407.99999335999996" width="15.999979939999974" height="17.999996359999955" class="text">an </text>
<text x="269.00000316" y="410.0000056" width="82.99999477" height="20.0000086" class="text">organization</text>
<text x="354.99998758000004" y="410.0000056" width="5.000017889999981" height="17.99999636000001" class="text">.</text>
<text x="361.00000202" y="410.0000056" width="5.00000031999997" height="17.99999636000001" class="text">)
</text>
<text x="618.00001144" y="471.99999812000004" width="175.00001120000002" height="30.999984880000056" class="text">Washington</text>
<text x="802.9999705700001" y="471.99999812000004" width="9.000056799999925" height="30.999984880000056" class="text">, </text>
<text x="828.99998629" y="471.99999812000004" width="72.99995898999998" height="30.999984880000056" class="text">D.C.
</text>
<text x="116.000002153" y="473.9999876" width="121.00000598700001" height="29.999978759999976" class="text">Subscribed </text>
<text x="252.0000091" y="475.00001648" width="38.99998843999998" height="29.000018159999968" class="text">and </text>
<text x="303.00000885" y="475.99999984" width="59.99998627000002" height="28.99999539999999" class="text">sworn </text>
<text x="380.00000675" y="475.99999984" width="15.999997509999957" height="27.999989280000023" class="text">to </text>
<text x="409.99999110000005" y="476.9999832" width="70.00000447999997" height="27.999989279999966" class="text">before </text>
<text x="495.99999309" y="478.00001208000003" width="29.000022940000008" height="27.999989280000023" class="text">me </text>
<text x="537.9999887499999" y="478.00001208000003" width="20.000036420000015" height="27.000005920000035" class="text">at
</text>
<text x="231.00001127000002" y="507.00000748" width="26.999994700000002" height="35.99999272000002" class="text">rd
</text>
<text x="200.99999178" y="534.0000134000001" width="13.00000786000001" height="42.99999004000006" class="text">3
</text>
<text x="113.000000204" y="537.000009" width="39.999995531999986" height="24.99999367999999" class="text">this
</text>
<text x="280.99999690000004" y="558.00000096" width="45.999999429999946" height="77.00001603999993" class="text">day </text>
<text x="332.9999932" y="555.00000536" width="32.00001259000004" height="76.99999328000001" class="text">of </text>
<text x="413.00001589" y="550.00002028" width="173.00000052999997" height="84.00001335999991" class="text">March
</text>
<text x="718.00000027" y="562.00000268" width="24.00002261999998" height="54.999995199999944" class="text">,</text>
<text x="728.99999746" y="560.9999738" width="110.00000704000001" height="69.99995044000002" class="text">1998
</text>
<text x="965.0000090499999" y="552.99999312" width="174.00003221999998" height="85.00001947999999" class="text">honey </text>
<text x="1158.000046" y="555.00000536" width="107.99990851999996" height="86.00000284000004" class="text">Ann </text>
<text x="1303.99998155" y="557.0000176" width="299.00000507999994" height="87.00003171999998" class="text">Kishanuk
</text>
<text x="1125.00003686" y="617.99998124" width="112.99992640999994" height="82.99998447999997" class="text">JeNotary
</text>
<text x="962.0000369699999" y="611.99999004" width="199.9999952300002" height="149.00000147999998" class="text">honey
</text>
<text x="1140.99998166" y="585.00002964" width="8.999986519999993" height="32.00003651999998" class="text">(</text>
<text x="1154.99998607" y="586.99999636" width="76.00003649000018" height="34.000003239999955" class="text">Notary </text>
<text x="1243.99999528" y="586.99999636" width="22.999990929999967" height="31.99999099999991" class="text">or </text>
<text x="1278.00001854" y="588.00002524" width="58.999972150000076" height="33.00001987999997" class="text">other </text>
<text x="1349.00005471" y="588.9999630799999" width="70.9999131799998" height="32.9999743599999" class="text">officer</text>
<text x="1423.00002782" y="588.9999630799999" width="9.000004089999948" height="31.99994547999995" class="text">)
</text>
<text x="109.999998255" y="638.9999732" width="46.99999598000001" height="32.99995160000003" class="text">My </text>
<text x="162.99999813300002" y="642.0000370800001" width="135.99998937699996" height="35.00005487999999" class="text">commission </text>
<text x="311.99999536999997" y="644.0000038000001" width="78.99999100000002" height="33.99998048000009" class="text">expires</text>
<text x="394.00001116000004" y="642.99997492" width="9.999983069999928" height="30.999984880000056" class="text">.
</text>
<text x="431.99998548" y="638.9999732" width="121.00003937000002" height="28.99994988000003" class="text">October </text>
<text x="572.00002958" y="638.0000126" width="35.00000223999996" height="27.000028680000014" class="text">31</text>
<text x="611.0000180200001" y="638.9999732" width="7.999954829999979" height="26.999983160000056" class="text">, </text>
<text x="642.99999547" y="639.99997932" width="66.00001827999995" height="27.999989280000023" class="text">2001
</text>
<text x="1391.99995907" y="2192.00003216" width="5.000017890000208" height="18.00006463999989" class="text">*</text>
<text x="1399.00002277" y="2192.00003216" width="24.999931320000087" height="18.00006463999989" class="text">U.S</text>
<text x="1428.00004571" y="2192.9999927599997" width="5.0000003200000265" height="17.999950839999656" class="text">. </text>
<text x="1436.00001811" y="2193.9999306" width="34.999949530000094" height="18.999888679999913" class="text">GPO</text>
<text x="1475.00005926" y="2192.9999927599997" width="4.999894900000072" height="17.999950839999656" class="text">: </text>
<text x="1487.00000029" y="2195.9999656" width="104.00004531000013" height="20.999923679999938" class="text">1991-300-811</text>
<text x="1596.00004592" y="2195.00002776" width="4.999912470000027" height="18.000064640000346" class="text">/</text>
<text x="1600.99995839" y="2197.00006276" width="46.999995979999994" height="20.00009964000037" class="text">49217
</text>
</g>
</svg>
