<svg xmlns="http://www.w3.org/2000/svg">
<style>.text { font-size: 14px; font-family: Arial, sans-serif; }</style>
<g id="page-0" transform="translate(0, 0)">
<rect width="1757" height="2276" fill="none" stroke="black" />
<text x="126.00000455" y="138.000004716" width="50.99999975" height="30.000001519999998" class="text">U.S. </text>
<text x="182.00000462" y="139.999998748" width="148.99999548000002" height="31.999995551999987" class="text">Department </text>
<text x="338.00001109" y="138.99999718" width="21.999994380000032" height="29.99999924400001" class="text">of </text>
<text x="366.00000234" y="141.000002592" width="84.00000888999995" height="31.000003087999985" class="text">Justice
</text>
<text x="123.999997394" y="172.000003404" width="131.99999790599998" height="31.000000812000025" class="text">Washington</text>
<text x="259.00000252" y="171.00000183600002" width="9.000004090000004" height="31.000003088000028" class="text">, </text>
<text x="269.99999971" y="171.00000183600002" width="40.00000256000004" height="31.000003088000028" class="text">DC </text>
<text x="318.99998879" y="171.00000183600002" width="71.00000103000002" height="31.000003088000028" class="text">20530
</text>
<text x="639.99998825" y="146.000003604" width="144.00003030000005" height="34.00000096400001" class="text">Amendment </text>
<text x="786.9999906300001" y="145.000002036" width="17.000011630000017" height="31.000003088000014" class="text">to </text>
<text x="814.00002047" y="148.00000674" width="134.0000296600001" height="34.000007792000005" class="text">Registration </text>
<text x="962.9999632399999" y="149.99999394399998" width="109.00004562999993" height="33.99999185999998" class="text">Statement
</text>
<text x="642.99999547" y="179.00000072400002" width="99.00002741999992" height="32.99999712000002" class="text">Pursuant </text>
<text x="749.00001631" y="179.00000072400002" width="16.999976489999995" height="30.999993984000014" class="text">to </text>
<text x="777.00002513" y="179.00000072400002" width="33.999970549999944" height="30.999993984000014" class="text">the </text>
<text x="816.9999749799999" y="181.00000613600002" width="83.00002991000008" height="32.99999939600002" class="text">Foreign </text>
<text x="911.99996349" y="182.99999334" width="77.0000506099999" height="32.99999939600002" class="text">Agents </text>
<text x="996.9999865" y="184.999996476" width="133.0000682499999" height="34.00000096399998" class="text">Registration </text>
<text x="1138.00002715" y="185.999998044" width="43.99993605000009" height="32.99999711999999" class="text">Act </text>
<text x="1187.99999521" y="184.999996476" width="21.99995924000018" height="30.999993983999985" class="text">of </text>
<text x="1218.9999585399999" y="186.99999961199998" width="54.00005968000005" height="32.99999711999996" class="text">1938</text>
<text x="1274.99995861" y="185.999998044" width="8.999986519999993" height="30.999993983999985" class="text">, </text>
<text x="1288.99996302" y="186.99999961199998" width="24.000005050000027" height="30.999993983999985" class="text">as </text>
<text x="1317.99998596" y="188.000003456" width="100.00004153999998" height="31.999997828000005" class="text">amended
</text>
<text x="1367.9999540200001" y="154.00000249200002" width="38.00000946" height="15.000005312000013" class="text">OMB </text>
<text x="1409.9999496799999" y="155.00000406" width="22.00008223000009" height="15.000005312000013" class="text">NO</text>
<text x="1436.00001811" y="155.00000406" width="3.9999861999999666" height="15.000005312000013" class="text">. </text>
<text x="1442.99995882" y="156.000005628" width="72.00005028999999" height="17.00000844799999" class="text">1105-0004
</text>
<text x="122.000006051" y="319.00001768" width="67.999988539" height="29.000018159999968" class="text">Privacy </text>
<text x="197.00000558000002" y="317.9999888" width="34.000005689999995" height="27.00000591999998" class="text">Act </text>
<text x="235.99999402000003" y="320.00000104" width="90.00000575999996" height="29.000018159999968" class="text">Statement</text>
<text x="323.00001013" y="319.00001768" width="7.9999899700000014" height="27.00000591999998" class="text">. </text>
<text x="339.99998662" y="321.00000716" width="53.00002798999998" height="28.99999539999999" class="text">Every </text>
<text x="399.00001148" y="321.99999052" width="98.99997470999995" height="28.99999539999999" class="text">registration </text>
<text x="506.99997271000007" y="322.99997387999997" width="86.00005469999996" height="28.99997264000001" class="text">statement</text>
<text x="593.00002741" y="322.99997387999997" width="7.999972400000047" height="26.999960399999964" class="text">, </text>
<text x="604.00000703" y="322.99997387999997" width="40.00002012999994" height="26.999960399999964" class="text">short </text>
<text x="651.99998199" y="324.00000276000003" width="42.000013230000036" height="27.999989280000023" class="text">form </text>
<text x="700.99998864" y="324.99998612" width="96.0000202" height="28.99997264000001" class="text">registration </text>
<text x="805.99999536" y="326.00001499999996" width="85.00002301000006" height="28.000034799999924" class="text">statement</text>
<text x="892.00005006" y="326.00001499999996" width="7.999954829999979" height="27.00000591999998" class="text">, </text>
<text x="902.99997697" y="328.00000448" width="118.00003214999992" height="28.99999539999999" class="text">supplemental </text>
<text x="1027.99994983" y="328.99998783999996" width="86.00005469999996" height="28.99999539999999" class="text">statement</text>
<text x="1111.00003245" y="328.99998783999996" width="7.999972399999933" height="27.00000591999998" class="text">, </text>
<text x="1120.99994524" y="330.00001672" width="66.00001827999995" height="29.000018160000025" class="text">exhibit</text>
<text x="1184.00000901" y="328.99998783999996" width="7.999972400000161" height="27.00000591999998" class="text">, </text>
<text x="1191.9999814100001" y="331.00000008" width="108.00001393999992" height="29.000018160000025" class="text">amendment</text>
<text x="1299.99999535" y="331.00000008" width="7.999972399999933" height="27.00000591999998" class="text">, </text>
<text x="1310.00001356" y="331.00000008" width="40.99998153999991" height="27.00000591999998" class="text">copy </text>
<text x="1358.99994993" y="331.99998344" width="19.000022300000182" height="27.999989279999966" class="text">of </text>
<text x="1381.0000321599998" y="333.00001232" width="126.99993082000015" height="29.000018159999968" class="text">informational </text>
<text x="1513.99997742" y="335.00000179999995" width="79.00000856999986" height="28.99999539999999" class="text">materials </text>
<text x="1599.0000180000002" y="333.99999568" width="20.000018849999833" height="27.00000591999998" class="text">or</text>
<text x="122.000006051" y="342.99998247999997" width="46.99999597999998" height="27.999989280000023" class="text">other </text>
<text x="172.999998773" y="344.00001136000003" width="89.99998994700005" height="29.00001816000008" class="text">document </text>
<text x="269.00000316" y="344.00001136000003" width="14.999983390000011" height="27.000005920000035" class="text">or </text>
<text x="290.99999754" y="346.00002359999996" width="101.00002052000002" height="29.000018159999968" class="text">information 
</text>
<text x="401.00000458" y="347.00000696" width="40.000002559999984" height="27.999989280000023" class="text">filed </text>
<text x="448.00001813" y="348.00001308" width="36.999995340000055" height="28.00001204" class="text">with </text>
<text x="492.99998587" y="347.00000696" width="27.00002984000008" height="27.000005920000035" class="text">the </text>
<text x="525.9999774400001" y="348.99999643999996" width="77.00001547" height="28.99999539999999" class="text">Attorney </text>
<text x="609.00002492" y="349.9999798" width="72.99995898999998" height="28.99997264000001" class="text">General </text>
<text x="686.0000228199999" y="351.00000868" width="51.99996116000011" height="29.000018160000025" class="text">under </text>
<text x="740.9999912" y="351.00000868" width="33.99998812000001" height="27.00000591999998" class="text">this </text>
<text x="783.00000443" y="351.00000868" width="29.999984349999977" height="27.00000591999998" class="text">Act </text>
<text x="816.9999749799999" y="351.99999204" width="15.000036100000102" height="27.00000591999998" class="text">is </text>
<text x="837.99997281" y="351.99999204" width="8.000025110000024" height="27.00000591999998" class="text">a </text>
<text x="854.00002303" y="354.00000428" width="53.999954260000095" height="29.000018159999968" class="text">public </text>
<text x="914.0000093" y="354.00000428" width="53.0000455600001" height="29.000018159999968" class="text">record </text>
<text x="975.0000272599999" y="355.00001039999995" width="40.99998154000002" height="28.000012039999945" class="text">open </text>
<text x="1024.9999953200002" y="355.00001039999995" width="15.000018529999807" height="28.000012039999945" class="text">to </text>
<text x="1049.00000037" y="355.99999376000005" width="53.00004556000022" height="28.999995400000046" class="text">public </text>
<text x="1107.99997252" y="356.99997712000004" width="108.00001393999992" height="28.999972640000067" class="text">examination</text>
<text x="1218.9999585399999" y="356.99997712000004" width="8.000077820000115" height="26.99996040000002" class="text">, </text>
<text x="1229.9999908700001" y="358.99998936000003" width="89.00000920999992" height="28.99997264000001" class="text">inspection </text>
<text x="1325.99995836" y="358.99998936000003" width="31.000051180000128" height="27.000005920000035" class="text">and </text>
<text x="1363.99996782" y="361.00000159999996" width="71.00001859999998" height="29.000018159999968" class="text">copying </text>
<text x="1442.00005012" y="362.00000772000004" width="57.99994046000006" height="28.999995400000046" class="text">during </text>
<text x="1504.9999909" y="361.00000159999996" width="26.999977129999934" height="27.00000591999998" class="text">the </text>
<text x="1540.00004585" y="362.99999108000003" width="52.99994013999981" height="28.999995400000046" class="text">posted</text>
<text x="122.000006051" y="369.9999884" width="71.999992309" height="27.000005920000035" class="text">business </text>
<text x="200.99999178" y="371.00001728" width="51.00001732000001" height="27.00000591999998" class="text">hours </text>
<text x="255.9999953" y="369.9999884" width="23.000008500000007" height="24.99999367999999" class="text">of </text>
<text x="280.00000035" y="369.9999884" width="29.000005369999997" height="24.99999367999999" class="text">the </text>
<text x="311.99999536999997" y="372.00000064" width="108.00001394000003" height="27.00000591999998" class="text">Registration </text>
<text x="427.00002029999996" y="373.00000676" width="41.99999566000008" height="25.999999800000012" class="text">Unit </text>
<text x="476.00000937999994" y="373.00000676" width="9.99996550000003" height="25.999999800000012" class="text">in 
</text>
<text x="495.00001411000005" y="373.99999012" width="107.99997880000001" height="26.99998316" class="text">Washington</text>
<text x="604.9999860099999" y="373.99999012" width="6.99999342000001" height="24.999993680000046" class="text">, </text>
<text x="615.0000042199999" y="376.00000236000005" width="45.99998186000005" height="27.000005920000092" class="text">D.C. </text>
<text x="669.9999726" y="374.99999624" width="35.00000223999996" height="25.000016439999968" class="text">One </text>
<text x="711.99996826" y="376.99998572000004" width="41.00003425" height="27.000005920000035" class="text">copy </text>
<text x="762.0000066" y="376.00000236000005" width="17.999973039999986" height="24.999993680000046" class="text">of </text>
<text x="784.00001855" y="378.0000146" width="44.99996773999999" height="27.00000591999998" class="text">every </text>
<text x="840.00001862" y="376.99998572000004" width="33.99998812000001" height="24.999993680000046" class="text">such </text>
<text x="883.00004597" y="378.99999796000003" width="89.99993547999998" height="27.000005920000035" class="text">document</text>
<text x="972.99998145" y="378.99999796000003" width="7.000046129999987" height="24.999993680000046" class="text">, </text>
<text x="985.0000454699999" y="380.00000408" width="41.99999566000008" height="25.999999800000012" class="text">other </text>
<text x="1032.9999677199999" y="380.00000408" width="36.99999534000017" height="25.999999800000012" class="text">than </text>
<text x="1078.00004088" y="380.99998744" width="120.9999866600001" height="25.999977040000033" class="text">informational </text>
<text x="1208.00001406" y="382.99999968000003" width="79.00000856999986" height="27.00000591999998" class="text">materials</text>
<text x="1288.00003675" y="382.99999968000003" width="6.999940710000146" height="24.999993680000046" class="text">, </text>
<text x="1297.99994954" y="382.99999968000003" width="14.000004409999974" height="24.999993680000046" class="text">is </text>
<text x="1319.00000008" y="383.99998304" width="119.99997253999982" height="25.999977040000033" class="text">automatically </text>
<text x="1448.99999083" y="385.99999528" width="76.00003649000018" height="27.00000591999998" class="text">provided </text>
<text x="1532.99999972" y="385.99999528" width="13.99998684000002" height="24.999993680000046" class="text">to </text>
<text x="1554.99995896" y="385.99999528" width="29.000022940000008" height="24.999993680000046" class="text">the</text>
<text x="123.00000260099999" y="396.99999432000004" width="81.99999294900003" height="27.999989280000023" class="text">Secretary </text>
<text x="212.00000654" y="396.00001096000005" width="19.00000473000003" height="26.000022560000048" class="text">of </text>
<text x="234.99999746999998" y="398.0000232" width="41.999995660000025" height="28.00003479999998" class="text">State 
</text>
<text x="284.9999831" y="399.00000656" width="77.00001547" height="27.999989279999966" class="text">pursuant </text>
<text x="368.99999199" y="398.0000232" width="15.000000960000023" height="26.00002255999999" class="text">to </text>
<text x="394.00001116000004" y="399.99998992" width="59.000007289999985" height="27.999989280000023" class="text">Section </text>
<text x="464.99997705000004" y="399.00000656" width="6.999993419999896" height="25.999999799999955" class="text">6</text>
<text x="474.99999526000005" y="399.00000656" width="6.999993419999896" height="25.999999799999955" class="text">(</text>
<text x="483.00002036999996" y="399.00000656" width="6.99999342000001" height="25.999999799999955" class="text">b</text>
<text x="495.99999309" y="399.99998992" width="6.99999342000001" height="25.999999800000012" class="text">) </text>
<text x="508.00000439999997" y="399.99998992" width="19.000004730000114" height="25.999999800000012" class="text">of </text>
<text x="530.00001635" y="399.99998992" width="25.999963009999988" height="25.999999800000012" class="text">the </text>
<text x="564.00000447" y="400.99999604" width="33.000009139999975" height="27.00000591999998" class="text">Act</text>
<text x="595.00002051" y="400.99999604" width="6.99999342000001" height="25.999999800000012" class="text">, </text>
<text x="607.00003182" y="400.99999604" width="28.99997023000003" height="25.999999800000012" class="text">and </text>
<text x="642.99999547" y="403.00000828000003" width="54.99998594999988" height="28.00001204000006" class="text">copies </text>
<text x="706.00000653" y="401.9999794" width="19.00000473" height="25.99997703999992" class="text">of </text>
<text x="728.99999746" y="403.00000828000003" width="29.999984349999977" height="27.00000591999998" class="text">any </text>
<text x="765.9999928" y="403.00000828000003" width="33.000009139999975" height="26.00002255999999" class="text">and </text>
<text x="805.99999536" y="403.99999164" width="22.00002952" height="27.00000591999998" class="text">all </text>
<text x="833.0000252" y="405.00002052" width="92.9999426999999" height="28.00003479999998" class="text">documents </text>
<text x="935.9999861099999" y="405.00002052" width="25.000036740000155" height="26.00002255999999" class="text">are </text>
<text x="966.0000231700001" y="407.00001" width="77.99997688000008" height="28.000012039999945" class="text">routinely </text>
<text x="1055.99995865" y="407.99999335999996" width="43.00002734999998" height="27.999989279999966" class="text">made </text>
<text x="1106.00003213" y="408.99997672" width="80.99993139000003" height="27.999989280000023" class="text">available </text>
<text x="1192.99999553" y="407.99999335999996" width="14.000004409999974" height="25.99997703999992" class="text">to </text>
<text x="1214.99997234" y="410.0000056" width="48.00002766999978" height="27.999989279999966" class="text">other </text>
<text x="1266.9999862099999" y="410.0000056" width="76.00003649000018" height="27.00000591999998" class="text">agencies</text>
<text x="1344.00003682" y="410.0000056" width="6.999958279999873" height="26.00002255999999" class="text">, </text>
<text x="1355.99999542" y="410.99998896000005" width="105.00005943000019" height="27.000005920000035" class="text">departments </text>
<text x="1470.00004137" y="412.00001784" width="29.999949210000068" height="27.00000591999998" class="text">and </text>
<text x="1507.99996298" y="413.0000012" width="82.00005093000004" height="27.00000591999998" class="text">Congress</text>
<text x="120.99999544500001" y="424.00000024" width="79.000017355" height="27.00000591999998" class="text">pursuant </text>
<text x="204.99999555000002" y="423.00001688000003" width="14.000004409999974" height="24.999993680000046" class="text">to 
</text>
<text x="227.99998648" y="424.9999836" width="64.00000761000004" height="26.99996040000002" class="text">Section 
</text>
<text x="302.00001230000004" y="424.00000024" width="6.999993419999953" height="24.999993680000046" class="text">6</text>
<text x="311.99999536999997" y="424.00000024" width="6.99999342000001" height="24.999993680000046" class="text">(</text>
<text x="319.99998533999997" y="424.00000024" width="7.000010990000021" height="24.999993680000046" class="text">c</text>
<text x="330.00000355" y="424.00000024" width="7.000010990000021" height="24.999993680000046" class="text">) 
</text>
<text x="339.99998662" y="424.9999836" width="23.00000849999998" height="24.99999367999999" class="text">of </text>
<text x="365.00000579000005" y="424.9999836" width="28.000008819999948" height="24.99999367999999" class="text">the </text>
<text x="400.00000803" y="424.9999836" width="31.999977450000017" height="24.99999367999999" class="text">Act</text>
<text x="430.00000995" y="426.00001248" width="6.99999342000001" height="25.000016440000024" class="text">. </text>
<text x="450.99997264" y="426.00001248" width="32.00004772999995" height="25.000016440000024" class="text">The </text>
<text x="490.99999277" y="428.00000195999996" width="74.00002581999996" height="27.00000591999998" class="text">Attorney </text>
<text x="572.00002958" y="428.99998532" width="72.99995898999998" height="27.000005920000035" class="text">General </text>
<text x="648.99997477" y="428.00000195999996" width="32.00003016000005" height="24.999993679999932" class="text">also </text>
<text x="690.00000902" y="430.0000142" width="80.9999841" height="27.00000591999998" class="text">transmits </text>
<text x="777.00002513" y="428.99998532" width="6.99999342000001" height="24.99999367999999" class="text">a </text>
<text x="791.00002954" y="430.0000142" width="43.99998875999995" height="24.99999367999999" class="text">semi</text>
<text x="835.0000183" y="430.0000142" width="6.99999342000001" height="24.99999367999999" class="text">-</text>
<text x="840.9999976" y="432.00000368" width="60.00003898" height="26.99998316" class="text">annual </text>
<text x="906.99996317" y="432.00000368" width="54.00005968000005" height="26.99998316" class="text">report </text>
<text x="963.9999773599999" y="432.00000368" width="17.999990610000054" height="24.999993680000046" class="text">to </text>
<text x="990.00004579" y="433.0000098" width="78.99999100000002" height="27.00000591999998" class="text">Congress </text>
<text x="1075.99999507" y="433.0000098" width="19.00000473" height="25.000016440000024" class="text">on </text>
<text x="1102.0000459300002" y="433.0000098" width="28.999917519999826" height="25.000016440000024" class="text">the </text>
<text x="1138.00002715" y="434.99999928" width="128.9999590599998" height="27.000005920000035" class="text">Administration </text>
<text x="1275.99997273" y="434.99999928" width="19.00000473" height="24.99999367999999" class="text">of </text>
<text x="1299.99999535" y="434.99999928" width="27.999991249999994" height="24.99999367999999" class="text">the </text>
<text x="1335.0000503" y="435.99998264" width="28.999917519999826" height="24.999993679999932" class="text">Act </text>
<text x="1368.99996814" y="437.00001152000004" width="53.00004555999999" height="26.00002255999999" class="text">which </text>
<text x="1429.9999861" y="437.00001152000004" width="33.0000091400002" height="24.999993680000046" class="text">lists </text>
<text x="1471.99998176" y="437.00001152000004" width="25.000036739999814" height="24.999993680000046" class="text">the </text>
<text x="1503.00005051" y="439.000001" width="55.999894650000215" height="26.99998316" class="text">names </text>
<text x="1566.00000886" y="437.99999488000003" width="19.00000473" height="24.999993680000046" class="text">of </text>
<text x="1591.9999543" y="439.000001" width="22.00008223000009" height="24.99999367999999" class="text">all</text>
<text x="120.99999544500001" y="451.00000616" width="57.00000540499998" height="29.000018160000025" class="text">agents </text>
<text x="183.99999772" y="451.00000616" width="84.00000889" height="29.000018160000025" class="text">registered 
</text>
<text x="275.00000002999997" y="451.99998952000004" width="50.99999975000003" height="27.999989280000023" class="text">under </text>
<text x="332.9999932" y="451.99998952000004" width="26.000015719999965" height="27.999989280000023" class="text">the </text>
<text x="366.00000234" y="451.99998952000004" width="30.00000191999999" height="27.000005920000035" class="text">Act </text>
<text x="402.00000113000004" y="451.99998952000004" width="30.99998089999997" height="27.000005920000035" class="text">and </text>
<text x="441.00000714" y="452.99999564" width="26.00001572000002" height="26.99998316" class="text">the </text>
<text x="473.00000215999995" y="454.00000176" width="61.99997937000006" height="27.999989279999966" class="text">foreign </text>
<text x="541.99997495" y="455.00000788" width="85.00002301000006" height="28.99999539999999" class="text">principals </text>
<text x="634.99997036" y="455.00000788" width="37.00004805000003" height="27.000005920000035" class="text">they </text>
<text x="677.99999771" y="457.00002012000004" width="84.00000889" height="29.00001816000008" class="text">represent</text>
<text x="758.99998181" y="455.99999124" width="8.000025110000024" height="27.00000591999998" class="text">. </text>
<text x="779.99997964" y="457.00002012000004" width="34.00004082999999" height="28.000034800000037" class="text">This </text>
<text x="821.00001389" y="458.00000348000003" width="51.99996116" height="29.000018160000025" class="text">report </text>
<text x="882.00003185" y="458.00000348000003" width="10.000018210000007" height="27.000005920000035" class="text">is </text>
<text x="898.9999907700001" y="458.99998684" width="81.00003680999987" height="28.99997264000001" class="text">available </text>
<text x="985.9999541699999" y="458.99998684" width="15.000018530000034" height="26.99998316" class="text">to </text>
<text x="1008.0000364" y="458.99998684" width="26.99997713000016" height="26.99998316" class="text">the </text>
<text x="1041.9999542399999" y="460.99999908" width="54.00005968000005" height="28.99999539999999" class="text">public</text>
<text x="1096.00001392" y="459.99999296" width="7.999972400000161" height="26.99998316" class="text">. </text>
<text x="1115.00001865" y="462.0000052" width="57.99994046000006" height="28.99999539999999" class="text">Finally</text>
<text x="1177.999977" y="460.99999908" width="8.000077820000115" height="27.000005920000035" class="text">, </text>
<text x="1189.00000933" y="460.99999908" width="25.9999630100001" height="27.000005920000035" class="text">the </text>
<text x="1222.00001847" y="462.99998855999996" width="76.99994519000006" height="28.99999539999999" class="text">Attorney </text>
<text x="1307.99996775" y="464.00001744" width="72.00005028999999" height="29.000018160000025" class="text">General </text>
<text x="1382.99997255" y="465.0000008" width="64.00007789000006" height="29.000018160000025" class="text">intends</text>
<text x="1447.99997671" y="464.00001744" width="8.000060249999933" height="27.00000591999998" class="text">, </text>
<text x="1459.00000904" y="464.00001744" width="15.000018530000034" height="27.00000591999998" class="text">at </text>
<text x="1479.99995416" y="464.00001744" width="27.000082549999888" height="27.00000591999998" class="text">the </text>
<text x="1512.00003703" y="466.00000692000003" width="65.99991286000022" height="28.99999539999999" class="text">earliest</text>
<text x="117.99999349599999" y="473.00000424" width="34.00000569000001" height="21.99999808000001" class="text">pos 
</text>
<text x="198.00000212999998" y="478.00001208000003" width="100.99998538" height="27.999989280000023" class="text">opportunity</text>
<text x="303.00000885" y="476.9999832" width="6.999993420000067" height="25.999977039999976" class="text">, </text>
<text x="312.99999192" y="476.9999832" width="15.000000959999966" height="25.999977039999976" class="text">to </text>
<text x="339.99998662" y="478.00001208000003" width="43.00000977999997" height="26.00002255999999" class="text">make </text>
<text x="390.99998637" y="478.00001208000003" width="44.000023899999974" height="26.00002255999999" class="text">these </text>
<text x="441.99998612" y="480.00000156" width="55.00002109000002" height="28.000012039999945" class="text">public </text>
<text x="500.99999341000006" y="480.99998492000003" width="96.9999816099999" height="27.999989280000023" class="text">documents </text>
<text x="606.00000013" y="482.0000138" width="77.99997688000008" height="28.00001204" class="text">available </text>
<text x="692.00000212" y="480.99998492000003" width="19.00000473" height="25.999977040000033" class="text">on </text>
<text x="718.99997925" y="482.0000138" width="25.99999815000001" height="26.00002255999999" class="text">the </text>
<text x="753.00000251" y="482.99999715999996" width="66.00001828000006" height="27.999989279999966" class="text">Internet </text>
<text x="828.00002488" y="482.99999715999996" width="13.99998684000002" height="25.99997703999992" class="text">on </text>
<text x="851.00001581" y="482.99999715999996" width="29.999984349999977" height="25.99997703999992" class="text">the </text>
<text x="884.99998636" y="485.0000094" width="106.99999981999997" height="27.999989279999966" class="text">Department </text>
<text x="995.9999723799999" y="485.0000094" width="19.000004730000228" height="27.00000591999998" class="text">of </text>
<text x="1019.99997743" y="485.99999276" width="56.000017640000124" height="27.999989279999966" class="text">Justice </text>
<text x="1083.0000412000002" y="486.99999888" width="56.000000069999714" height="28.00001204" class="text">World </text>
<text x="1145.99998198" y="486.99999888" width="48.00004523999996" height="27.000005920000035" class="text">Wide </text>
<text x="1200.9999679300001" y="486.99999888" width="40.00005526999985" height="25.999999800000012" class="text">Web </text>
<text x="1248.9999956000001" y="486.99999888" width="30.9999633299999" height="25.999999800000012" class="text">site</text>
<text x="1279.99995893" y="486.99999888" width="7.000063699999828" height="25.999999800000012" class="text">.
</text>
<text x="122.000006051" y="530.00001168" width="54.999998249" height="31.00000763999992" class="text">Public </text>
<text x="179.99999395" y="530.00001168" width="91.00000230999999" height="31.00000763999992" class="text">Reporting </text>
<text x="275.99999658" y="532.00000116" width="64.99998658999999" height="31.00000763999998" class="text">Burden</text>
<text x="346.00000106" y="530.9999950399999" width="7.9999899700000014" height="29.00001815999991" class="text">. </text>
<text x="361.99999857" y="533.00000728" width="56.00000007" height="31.000030399999957" class="text">Public </text>
<text x="423.99999551" y="533.00000728" width="82.00001578999996" height="30.000001520000012" class="text">reporting </text>
<text x="509.9999975" y="534.99999676" width="59.999986269999965" height="31.000007640000092" class="text">burden </text>
<text x="578.00000888" y="534.0000134000001" width="24.000005050000027" height="28.999995400000046" class="text">for </text>
<text x="611.0000180200001" y="534.99999676" width="27.99999124999988" height="29.999978760000033" class="text">this </text>
<text x="646.99998167" y="535.99998012" width="84.00000889" height="30.99996212000002" class="text">collection </text>
<text x="739.00001567" y="535.99998012" width="21.999959239999953" height="28.99997264000001" class="text">of </text>
<text x="765.00001382" y="537.99999236" width="97.99999572999991" height="30.999984879999943" class="text">information </text>
<text x="870.99998195" y="537.99999236" width="16.00005022000005" height="28.99997264000001" class="text">is </text>
<text x="893.99999045" y="538.99999848" width="80.00000511999986" height="29.99997876000009" class="text">estimated </text>
<text x="981.00005927" y="538.99999848" width="16.99995892000004" height="28.999995400000046" class="text">to </text>
<text x="1005.9999905899999" y="541.00001072" width="67.00003240000024" height="31.00000763999998" class="text">average </text>
<text x="1083.0000412000002" y="541.00001072" width="24.99993131999986" height="30.00002427999999" class="text">1.5 </text>
<text x="1112.99997284" y="541.99999408" width="53.00004555999999" height="31.00000763999998" class="text">hours </text>
<text x="1167.99995879" y="541.99999408" width="30.000054630000022" height="28.99999539999999" class="text">per </text>
<text x="1204.00002786" y="543.00002296" width="75.0000223699999" height="30.000024280000048" class="text">response</text>
<text x="1279.99995893" y="543.00002296" width="8.000077819999888" height="29.000018159999968" class="text">, </text>
<text x="1291.00000883" y="544.99998968" width="85.00002300999995" height="30.999984879999943" class="text">including </text>
<text x="1381.0000321599998" y="544.99998968" width="28.000008820000176" height="30.000001519999955" class="text">the </text>
<text x="1413.00002718" y="545.9999958000001" width="40.99996396999995" height="29.99997876000009" class="text">time </text>
<text x="1459.00000904" y="545.9999958000001" width="30.000037060000068" height="29.99997876000009" class="text">for </text>
<text x="1490.99998649" y="546.9999791600001" width="87.99999509000008" height="30.999962120000077" class="text">reviewing</text>
<text x="119.00000410199999" y="555.99998872" width="103.99999962800001" height="27.999989280000023" class="text">instructions</text>
<text x="223.00000373" y="555.00000536" width="7.000010989999964" height="26.000022560000048" class="text">, </text>
<text x="235.99999402000003" y="557.0000176" width="80.00000511999997" height="28.00003479999998" class="text">searching </text>
<text x="326.99999633" y="558.00000096" width="69.00000792999998" height="27.999989280000023" class="text">existing </text>
<text x="401.00000458" y="558.00000096" width="35.99999879000001" height="27.000005920000035" class="text">data </text>
<text x="443.00000024" y="559.00000708" width="68.00001138000005" height="28.000012040000115" class="text">sources</text>
<text x="511.00001162000007" y="558.00000096" width="7.0000109899999075" height="25.999999799999955" class="text">, 
</text>
<text x="523.00002293" y="559.99999044" width="82.99997719999999" height="27.999989280000023" class="text">gathering </text>
<text x="611.9999794299999" y="559.99999044" width="29.000022940000008" height="25.999977039999976" class="text">and </text>
<text x="651.99998199" y="562.00000268" width="105.00000671999999" height="27.99998927999991" class="text">maintaining </text>
<text x="760.99997491" y="560.9999738" width="26.00001572000008" height="25.999977039999976" class="text">the </text>
<text x="793.9999840500001" y="562.00000268" width="36.00003392999997" height="26.000022559999934" class="text">data </text>
<text x="837.99997281" y="564.00001492" width="59.99998627000002" height="28.00003479999998" class="text">needed</text>
<text x="898.9999907700001" y="562.99998604" width="7.000046129999987" height="25.999977039999976" class="text">, </text>
<text x="911.00005479" y="562.99998604" width="28.999917520000054" height="25.999977039999976" class="text">and </text>
<text x="951.00000464" y="564.99999828" width="96.99998161000008" height="27.999989280000023" class="text">completing </text>
<text x="1055.00003238" y="564.99999828" width="28.000008820000176" height="25.999999799999955" class="text">and </text>
<text x="1091.0000135999999" y="566.0000044000001" width="85.99993171000006" height="27.000005920000035" class="text">reviewing </text>
<text x="1185.00002313" y="566.0000044000001" width="25.9999630100001" height="26.000022560000048" class="text">the </text>
<text x="1218.00003227" y="568.00001664" width="84.00000888999989" height="28.00003479999998" class="text">collection </text>
<text x="1311.00002768" y="568.00001664" width="19.00000473" height="27.000005920000035" class="text">of </text>
<text x="1333.00000449" y="569.0" width="104.00002773999995" height="27.999989280000023" class="text">information</text>
<text x="1440.00000431" y="569.0" width="7.000046130000101" height="25.999977039999976" class="text">. </text>
<text x="1456.00003696" y="570.99996672" width="44.9999677400001" height="27.99994375999995" class="text">Send </text>
<text x="1506.00002259" y="570.99996672" width="90.99994959999981" height="27.99994375999995" class="text">comments</text>
<text x="116.999998703" y="581.00002792" width="87.99999684700002" height="27.000051439999993" class="text">regarding </text>
<text x="208.99999932" y="581.00002792" width="32.99999157000002" height="26.000022559999934" class="text">this </text>
<text x="246.99999121000002" y="582.99999464" width="61.00001795999998" height="27.99998927999991" class="text">burden 
</text>
<text x="315.00000259" y="584.00002352" width="71.99999758000001" height="28.00003479999998" class="text">estimate </text>
<text x="395.00000771" y="582.99999464" width="19.00000473" height="25.999977039999976" class="text">or </text>
<text x="418.99999519" y="584.00002352" width="33.00000914000003" height="27.000005920000035" class="text">any </text>
<text x="457.99998363000003" y="584.00002352" width="44.00004146999993" height="26.000022560000048" class="text">other </text>
<text x="511.00001162000007" y="585.99999024" width="54.0000069699999" height="27.999989280000023" class="text">aspect </text>
<text x="569.99998377" y="585.00002964" width="19.00000473" height="26.000022559999934" class="text">of </text>
<text x="590.9999816000001" y="585.99999024" width="33.00000913999986" height="26.999983159999942" class="text">this </text>
<text x="628.9999910600001" y="586.99999636" width="84.00000888999989" height="27.99998927999991" class="text">collection </text>
<text x="723.00001816" y="586.99999636" width="19.00000473" height="26.000022559999934" class="text">of </text>
<text x="744.9999774" y="588.00002524" width="103.00001362" height="28.00003479999998" class="text">information</text>
<text x="851.00001581" y="588.00002524" width="6.99999342000001" height="26.000022560000048" class="text">, </text>
<text x="863.00000955" y="589.9999919600001" width="79.00000857000009" height="27.999989280000136" class="text">including </text>
<text x="948.9999588300001" y="591.00002084" width="101.99998192999976" height="28.000034800000094" class="text">suggestions </text>
<text x="1059.00001858" y="591.00002084" width="25.9999630100001" height="27.000005920000035" class="text">for </text>
<text x="1087.0000274" y="592.00002696" width="80.00002269000015" height="28.00001204" class="text">reducing </text>
<text x="1175.00000492" y="592.00002696" width="29.000022940000008" height="26.000022559999934" class="text">this </text>
<text x="1209.00004575" y="592.99998756" width="60.999894970000014" height="26.999983159999942" class="text">burden </text>
<text x="1278.00001854" y="592.99998756" width="15.000036099999988" height="25.999999799999955" class="text">to </text>
<text x="1302.00004116" y="593.99999368" width="47.000013550000176" height="27.00000591999992" class="text">Chief</text>
<text x="1350.9999951" y="593.99999368" width="7.000046130000101" height="25.999977039999976" class="text">, </text>
<text x="1362.00002743" y="595.00002256" width="104.99995401000001" height="28.00003479999998" class="text">Registration </text>
<text x="1475.00005926" y="595.00002256" width="39.99994985000012" height="26.000022560000048" class="text">Unit</text>
<text x="1516.9999495" y="595.00002256" width="7.000046130000101" height="26.000022560000048" class="text">, </text>
<text x="1527.9999818299998" y="596.99998928" width="82.00006850000022" height="27.999989280000023" class="text">Criminal</text>
<text x="117.99999349599999" y="607.99998832" width="72.00000109400001" height="27.999989280000023" class="text">Division</text>
<text x="197.00000558000002" y="606.9999822000001" width="6.999993419999981" height="25.99995428000011" class="text">, </text>
<text x="208.00000277" y="606.9999822000001" width="40.999981539999965" height="25.99995428000011" class="text">U.S. 
</text>
<text x="251.00001254999998" y="609.0000172" width="106.99999982" height="27.999989280000023" class="text">Department </text>
<text x="361.99999857" y="609.0000172" width="19.00000473" height="26.000022560000048" class="text">of </text>
<text x="388.99999327" y="610.99998392" width="57.00003176000001" height="27.999989280000023" class="text">Justice</text>
<text x="446.00002503" y="610.00002332" width="6.99999342000001" height="25.999999799999955" class="text">, </text>
<text x="457.99998363000003" y="610.99998392" width="104.99998914999998" height="26.999960399999964" class="text">Washington</text>
<text x="565.99999757" y="610.99998392" width="6.99999342000001" height="25.999954279999997" class="text">, </text>
<text x="574.99998409" y="611.99999004" width="33.000009139999975" height="26.999960399999964" class="text">DC </text>
<text x="616.9999797500001" y="613.00001892" width="52.9999928499999" height="27.999989280000023" class="text">20530</text>
<text x="672.99999739" y="611.99999004" width="6.99999342000001" height="25.999999799999955" class="text">; </text>
<text x="684.9999911299999" y="613.00001892" width="33.00000914000009" height="26.000022560000048" class="text">and </text>
<text x="721.99998647" y="613.00001892" width="14.000004410000088" height="26.000022560000048" class="text">to </text>
<text x="744.9999774" y="613.99997952" width="26.000015719999965" height="26.999983160000056" class="text">the </text>
<text x="775.99999344" y="614.99998564" width="57.999993169999925" height="27.999989280000023" class="text">Office </text>
<text x="842.00001172" y="614.99998564" width="14.000004410000088" height="26.999960399999964" class="text">of </text>
<text x="861.99999543" y="616.00001452" width="104.00002774000006" height="27.999989280000023" class="text">Information </text>
<text x="972.99998145" y="616.00001452" width="34.000023260000034" height="26.000022559999934" class="text">and </text>
<text x="1010.99999091" y="617.99998124" width="98.00001330000009" height="27.99998927999991" class="text">Regulatory </text>
<text x="1117.99999073" y="618.9999873600001" width="59.99998626999991" height="27.999966520000044" class="text">Affairs</text>
<text x="1180.00002281" y="617.99998124" width="6.999940709999919" height="25.999954279999997" class="text">, </text>
<text x="1190.00004102" y="620.00001624" width="52.99992256999985" height="27.999989280000023" class="text">Office </text>
<text x="1251.00004141" y="618.9999873600001" width="18.999899310000046" height="25.99999980000007" class="text">of </text>
<text x="1274.00003234" y="620.99997684" width="121.00000423000006" height="27.999989280000023" class="text">Management </text>
<text x="1400.0000368899998" y="620.99997684" width="28.999917520000054" height="25.999954279999997" class="text">and </text>
<text x="1437.9999585" y="623.00001184" width="66.00001827999995" height="27.99998927999991" class="text">Budget</text>
<text x="1502.00003639" y="621.99998296" width="6.999940709999919" height="26.000022559999934" class="text">, </text>
<text x="1513.99997742" y="624.00001796" width="105.00005942999996" height="28.00005755999996" class="text">Washington</text>
<text x="1622.00000893" y="623.00001184" width="6.999940710000146" height="26.000022559999934" class="text">,</text>
<text x="117.99999349599999" y="628.00004244" width="29.00001064100003" height="21.000060239999925" class="text">DC </text>
<text x="156.999994235" y="628.00004244" width="53.000019205" height="21.000060239999925" class="text">20503</text>
<text x="213.99999964" y="628.00004244" width="5.99999686999999" height="21.000060239999925" class="text">.
</text>
<text x="136.00000519" y="716.000012" width="24.999999842999983" height="33.00001987999997" class="text">1. </text>
<text x="168.00000548100002" y="717.9999787200001" width="67.99998853900001" height="33.99998048000009" class="text">Name </text>
<text x="246.00001223" y="717.9999787200001" width="22.999990929999996" height="31.999991000000023" class="text">of </text>
<text x="270.99999626" y="721.0000425999999" width="118.99999356000001" height="35.00005487999988" class="text">Registrant
</text>
<text x="892.00005006" y="725.9999821600001" width="21.999959239999953" height="29.99995600000011" class="text">2. </text>
<text x="920.9999675800001" y="728.0000399200001" width="137.00003688000004" height="32.000013760000115" class="text">Registration </text>
<text x="1069.00003679" y="727.00001104" width="42.99992193000003" height="30.000024280000048" class="text">No.
</text>
<text x="143.000005638" y="803.9999815599999" width="115.00000033200001" height="33.99998047999986" class="text">Holland </text>
<text x="286.00001479" y="803.9999815599999" width="8.999986519999993" height="31.99999099999991" class="text">&amp; </text>
<text x="315.99999914" y="806.0000165600001" width="99.00000985000003" height="34.00002600000005" class="text">Knight </text>
<text x="437.00000337" y="807.99998328" width="48.999971509999966" height="33.99995772000011" class="text">LLP
</text>
<text x="938.0000319200001" y="807.99998328" width="66.00001827999984" height="24.99999367999999" class="text">3718
</text>
<text x="115.00000560299999" y="927.000006" width="25.99999463600001" height="34.000025999999934" class="text">3. </text>
<text x="151.999999186" y="928.99997272" width="42.999995724" height="35.99999271999991" class="text">This </text>
<text x="204.99999555000002" y="931.00000772" width="133.00001553999996" height="35.99999272000002" class="text">amendment </text>
<text x="339.99998662" y="932.0000366" width="21.000015399999995" height="35.00005488000011" class="text">is </text>
<text x="368.99999199" y="932.9999744400001" width="48.0000101" height="34.99998660000006" class="text">filed </text>
<text x="424.99999206" y="932.9999744400001" width="21.000032970000007" height="33.99995772000011" class="text">to </text>
<text x="450.99997264" y="935.99997004" width="128.00005036000005" height="36.99995332000003" class="text">accomplish </text>
<text x="585.0000023" y="936.9999989199999" width="36.000016359999904" height="34.99998659999994" class="text">the </text>
<text x="625.99998384" y="939.00003392" width="106.00002083999993" height="37.00002159999997" class="text">following </text>
<text x="742.9999842999999" y="941.0000006399999" width="99.00002742000004" height="37.000021599999855" class="text">indicated </text>
<text x="849.00002271" y="942.9999673599999" width="90.99994960000004" height="36.99995331999992" class="text">purpose </text>
<text x="943.99995851" y="942.9999673599999" width="26.000050859999874" height="34.99998659999994" class="text">or </text>
<text x="975.0000272599999" y="945.00000236" width="99.99993612000014" height="37.00002160000008" class="text">purposes</text>
<text x="1074.0000546800002" y="945.00000236" width="10.999926909999886" height="34.00002600000005" class="text">:
</text>
<text x="148.999997237" y="993.9999836" width="10.000002397000003" height="30.999984879999943" class="text">☐ </text>
<text x="189.99999459" y="995.0000124799999" width="23.000008500000007" height="30.999984879999943" class="text">To </text>
<text x="224.00000028" y="996.9999792000001" width="78.00001202000004" height="32.999951600000145" class="text">correct </text>
<text x="307.00001262" y="996.9999792000001" width="9.999983069999985" height="30.99998488000017" class="text">a </text>
<text x="327.99999288" y="1000.00002032" width="113.99999324000004" height="34.00002600000005" class="text">deficiency </text>
<text x="448.00001813" y="1000.00002032" width="17.999973039999986" height="31.000030400000014" class="text">in
</text>
<text x="915.99994969" y="1007.0000176399999" width="35.00005495000005" height="31.0000303999999" class="text">KX </text>
<text x="962.9999632399999" y="1007.0000176399999" width="22.000082229999975" height="31.0000303999999" class="text">To </text>
<text x="996.9999865" y="1007.9999782399999" width="44.00005904" height="30.999984879999943" class="text">give </text>
<text x="1050.00003206" y="1007.9999782399999" width="8.999986519999993" height="30.999984879999943" class="text">a </text>
<text x="1069.99996306" y="1007.9999782399999" width="24.000005050000027" height="30.999984879999943" class="text">10</text>
<text x="1098.999986" y="1007.9999782399999" width="8.999986519999993" height="30.999984879999943" class="text">-</text>
<text x="1106.9999584" y="1009.0000071200001" width="35.000037380000094" height="32.000013760000115" class="text">day </text>
<text x="1149.99996818" y="1009.0000071200001" width="67.00004996999996" height="30.99998488000017" class="text">notice </text>
<text x="1228.00005048" y="1009.0000071200001" width="23.999917200000027" height="30.99998488000017" class="text">of </text>
<text x="1255.99995388" y="1010.99997384" width="81.00003680999998" height="32.999951600000145" class="text">change </text>
<text x="1345.99997721" y="1010.00001324" width="11.000032330000067" height="31.000053160000107" class="text">in </text>
<text x="1372.99995434" y="1011.99997996" width="127.0000362400001" height="33.00001988000008" class="text">information </text>
<text x="1511.00002291" y="1010.99997384" width="22.999990929999967" height="30.999984880000056" class="text">as
</text>
<text x="919.0000271900001" y="1040.99999812" width="90.99994959999992" height="31.999991000000023" class="text">required </text>
<text x="1021.00000912" y="1040.99999812" width="24.00002262000021" height="31.999991000000023" class="text">by </text>
<text x="1055.99995865" y="1040.99999812" width="78.99999099999991" height="31.999991000000023" class="text">Section </text>
<text x="1147.00001367" y="1040.99999812" width="8.999986519999993" height="31.999991000000023" class="text">2</text>
<text x="1159.99998639" y="1040.99999812" width="9.000004089999948" height="31.999991000000023" class="text">(</text>
<text x="1168.99999048" y="1040.99999812" width="8.999986519999993" height="31.999991000000023" class="text">b</text>
<text x="1185.00002313" y="1040.99999812" width="9.000004089999948" height="31.999991000000023" class="text">) </text>
<text x="1200.00005923" y="1040.99999812" width="22.999990929999967" height="31.999991000000023" class="text">of </text>
<text x="1227.00003636" y="1040.99999812" width="36.99997776999999" height="31.999991000000023" class="text">the </text>
<text x="1268.00000033" y="1040.99999812" width="42.00001323000015" height="31.999991000000023" class="text">Act</text>
<text x="1310.00001356" y="1040.99999812" width="8.999986519999993" height="31.999991000000023" class="text">.
</text>
<text x="219.99999651" y="1092.00001436" width="6.99999342000001" height="26.000022559999934" class="text">☐ </text>
<text x="253.00000565" y="1093.99998108" width="65.99998313999998" height="27.99998927999991" class="text">Initial </text>
<text x="327.99999288" y="1096.00001608" width="112.00000014" height="27.99998927999991" class="text">Statement
</text>
<text x="218.99999996" y="1166.9999498799998" width="8.999986519999993" height="30.99991659999978" class="text">◉ </text>
<text x="251.00001254999998" y="1168.99998488" width="157.99998200000002" height="32.99995160000003" class="text">Supplemental </text>
<text x="417.99999864" y="1170.00005928" width="109.00001049000008" height="33.000088159999905" class="text">Statement </text>
<text x="532.99998843" y="1170.00005928" width="31.00001603999999" height="31.000098680000065" class="text">for </text>
<text x="570.99999789" y="1171.00001988" width="35.00000223999996" height="32.00005928000019" class="text">the </text>
<text x="611.0000180200001" y="1171.99995772" width="70.99996588999988" height="32.99999712000022" class="text">period </text>
<text x="695.0000093399999" y="1173.0000548799999" width="71.99999758000013" height="33.000019879999854" class="text">ending
</text>
<text x="1442.00005012" y="1251.9999921200001" width="45.999981859999934" height="179.0000030000001" class="text">DES
</text>
<text x="217.00000686" y="1234.0000640399999" width="9.999983069999985" height="32.00008204000005" class="text">☐ </text>
<text x="248.99998430999997" y="1237.99999748" width="69.00000793000007" height="35.00005487999988" class="text">Other </text>
<text x="319.99998533999997" y="1238.9999580800002" width="89.00000921000003" height="34.999918320000006" class="text">purpose </text>
<text x="418.99999519" y="1238.9999580800002" width="10.000018210000007" height="31.99994548000018" class="text">(</text>
<text x="427.00002029999996" y="1240.99999308" width="75.99996621000003" height="33.99998047999998" class="text">specify</text>
<text x="508.00000439999997" y="1240.99999308" width="10.000018210000007" height="31.99994547999995" class="text">)
</text>
<text x="148.00000068699998" y="1301.99997948" width="8.99999354800002" height="32.99999712000022" class="text">◉ </text>
<text x="182.00000462" y="1302.99994008" width="30.00000191999999" height="32.99988332000021" class="text">To </text>
<text x="219.99999651" y="1304.99997508" width="47.00001354999998" height="34.99991832000023" class="text">give </text>
<text x="270.99999626" y="1304.99997508" width="68.00001138000005" height="34.99991832000023" class="text">notice </text>
<text x="347.99999415999997" y="1304.99997508" width="25.000001600000076" height="33.00001988000008" class="text">of </text>
<text x="378.00001365" y="1306.00007224" width="76.99999789999998" height="34.00011704000008" class="text">change </text>
<text x="467.00002286" y="1306.00007224" width="11.999958599999957" height="33.000019879999854" class="text">in </text>
<text x="495.00001411000005" y="1307.00001008" width="18.999969589999864" height="33.00001988000008" class="text">an </text>
<text x="527.99997054" y="1309.00004508" width="73.00002927000003" height="35.00005488000011" class="text">exhibit </text>
<text x="609.00002492" y="1310.99996628" width="115.99998633999996" height="36.00001548" class="text">previously </text>
<text x="733.99999778" y="1310.99996628" width="43.999988760000065" height="33.99998047999998" class="text">filed</text>
<text x="781.99997274" y="1310.00000568" width="9.000056800000038" height="33.000019879999854" class="text">.
</text>
<text x="109.000001705" y="1371.00001484" width="24.000001536" height="30.999984880000056" class="text">4. </text>
<text x="144.000002188" y="1371.99995268" width="18.999995945000023" height="30.99996212000019" class="text">If </text>
<text x="170.999993374" y="1371.99995268" width="34.99999872599997" height="30.99996212000019" class="text">this </text>
<text x="213.00000309" y="1374.99994828" width="133.99999452000003" height="33.99995772000011" class="text">amendment </text>
<text x="352.99999448" y="1376.0000454400001" width="90.00000576000002" height="33.00001988000008" class="text">requires </text>
<text x="453.00001845" y="1376.0000454400001" width="30.999963330000014" height="30.999984880000056" class="text">the </text>
<text x="493.99999999000005" y="1377.99994388" width="54.99998594999994" height="32.99988331999998" class="text">filing </text>
<text x="556.99999348" y="1376.9999832800002" width="22.000029520000112" height="30.999984880000056" class="text">of </text>
<text x="588.00000952" y="1377.99994388" width="9.000004089999948" height="30.999984880000056" class="text">a </text>
<text x="604.00000703" y="1379.99997888" width="112.00000014" height="33.99998047999998" class="text">document </text>
<text x="721.00002506" y="1379.99997888" width="21.999959239999953" height="31.999922720000086" class="text">or </text>
<text x="749.99999529" y="1382.00001388" width="120.00002524999991" height="33.99995772000011" class="text">documents</text>
<text x="870.0000205399999" y="1381.00005328" width="8.99993381000013" height="31.000098680000065" class="text">, </text>
<text x="883.99997224" y="1382.99997448" width="70.00000447999992" height="33.00001988000008" class="text">please </text>
<text x="961.00002285" y="1382.99997448" width="35.99996364999993" height="30.999984880000056" class="text">list-
</text>
<text x="151.000002636" y="1445.00005804" width="138.000001804" height="33.00001988000008" class="text">Exhibits </text>
<text x="310.00000227000004" y="1443.99996088" width="8.999986519999936" height="30.000024279999707" class="text">A </text>
<text x="343.00001140999996" y="1445.9999958800001" width="46.99997841000004" height="32.00005927999996" class="text">and </text>
<text x="415.00000899" y="1445.00005804" width="8.999986519999993" height="30.00002428000016" class="text">B </text>
<text x="448.99997954" y="1445.9999958800001" width="28.000008819999948" height="30.99996212000019" class="text">to </text>
<text x="499.00000030999996" y="1448.00005364" width="203.9999814300001" height="32.00008204000005" class="text">Registration </text>
<text x="723.9999795699999" y="1451.00002648" width="153.0000343900001" height="33.00001988000008" class="text">Statement</text>
<text x="883.00004597" y="1449.99995208" width="9.000004090000061" height="29.99988772000006" class="text">; </text>
<text x="915.99994969" y="1451.99998708" width="84.00000889" height="31.999922720000086" class="text">eight </text>
<text x="1018.99996331" y="1452.99992492" width="83.00008262000017" height="30.99996212000019" class="text">Short </text>
<text x="1120.0000365399999" y="1454.99998268" width="68.99997279000013" height="31.999945479999724" class="text">Form </text>
<text x="1206.99999994" y="1457.0000176800002" width="202.99994973999992" height="33.00001988000008" class="text">Registration </text>
<text x="1432.00003191" y="1459.00005268" width="170.99995472" height="33.000019879999854" class="text">Statements
</text>
<text x="109.000001705" y="1645.99999084" width="22.999992686999988" height="33.00001988000008" class="text">5. </text>
<text x="140.00000368899998" y="1648.00002584" width="54.999991221000016" height="35.00005488000011" class="text">Each </text>
<text x="207.00000622" y="1648.99998644" width="41.999978089999985" height="35.00005487999988" class="text">item </text>
<text x="259.99999907" y="1648.99998644" width="90.00000576000002" height="33.999957719999884" class="text">checked </text>
<text x="359.00000891999997" y="1651.00002144" width="63.99999004000006" height="35.00005487999988" class="text">above </text>
<text x="437.00000337" y="1651.9999820399998" width="51.00001732000004" height="34.999918320000006" class="text">must </text>
<text x="495.00001411000005" y="1651.00002144" width="23.999969910000004" height="33.00001988000008" class="text">be </text>
<text x="527.99997054" y="1653.0000564400002" width="106.00003840999989" height="35.000054880000334" class="text">explained </text>
<text x="642.99999547" y="1654.0000170399999" width="61.99997936999989" height="33.99998047999975" class="text">below </text>
<text x="716.99998615" y="1654.0000170399999" width="19.00000473" height="33.000019879999854" class="text">in </text>
<text x="746.00000909" y="1654.99995488" width="38.999988439999925" height="33.999957719999884" class="text">full </text>
<text x="791.00002954" y="1656.0000520400001" width="57.99999317000004" height="35.00005488000011" class="text">detail </text>
<text x="858.99998821" y="1657.00001264" width="88.0000302300001" height="35.00005487999988" class="text">together </text>
<text x="954.9999908399999" y="1657.99995048" width="43.000027350000096" height="33.99995772000011" class="text">with</text>
<text x="1004.0000501999999" y="1657.99995048" width="8.999986519999993" height="33.00001988000008" class="text">, </text>
<text x="1018.0000370399999" y="1659.00004764" width="67.99995866999996" height="35.00005488000011" class="text">where </text>
<text x="1092.0000277200002" y="1660.99994608" width="128.99997663" height="36.00001548" class="text">appropriate</text>
<text x="1222.00001847" y="1659.99998548" width="9.000004090000175" height="33.00001988000008" class="text">, </text>
<text x="1237.9999632699999" y="1662.0000204799999" width="82.00006850000022" height="35.00005487999988" class="text">specific </text>
<text x="1330.00003241" y="1662.99998108" width="103.00001362000012" height="34.999918320000006" class="text">reference </text>
<text x="1438.9999726199999" y="1662.99998108" width="19.00000473" height="33.00001988000008" class="text">to </text>
<text x="1467.99999556" y="1664.00005548" width="36.99999534000017" height="32.99999711999976" class="text">and </text>
<text x="1515.00000911" y="1665.99997668" width="81.99996307999982" height="34.99991831999978" class="text">identity
</text>
<text x="105.000003206" y="1682.00000632" width="24.999998086000005" height="33.99998047999998" class="text">of </text>
<text x="133.000003241" y="1682.99994416" width="35.000002240000015" height="34.999918320000006" class="text">the </text>
<text x="176.00000775" y="1684.99997916" width="48.99998907999998" height="35.99999272000014" class="text">item </text>
<text x="234.00000092000002" y="1684.00004132" width="12.99999029" height="34.000094279999985" class="text">in </text>
<text x="259.99999907" y="1684.00004132" width="33.000009139999975" height="34.000094279999985" class="text">the </text>
<text x="300.0000192" y="1687.00003692" width="127.00000109999996" height="37.000089879999905" class="text">registration </text>
<text x="436.00000682" y="1687.99997476" width="110.00000704000007" height="35.99999272000014" class="text">statement </text>
<text x="548.99998594" y="1687.99997476" width="19.00000473" height="33.99995772000011" class="text">to </text>
<text x="576.99997719" y="1690.00000976" width="62.00003207999998" height="35.99999272000014" class="text">which </text>
<text x="651.00002058" y="1689.00007192" width="18.999952020000023" height="34.00011704000008" class="text">it </text>
<text x="672.99999739" y="1690.9999703600001" width="90.00002332999998" height="36.00001548000023" class="text">pertains</text>
<text x="762.0000066" y="1690.9999703600001" width="10.000000640000053" height="33.99995772000011" class="text">. </text>
<text x="783.00000443" y="1690.9999703600001" width="10.000018210000007" height="33.99995772000011" class="text">(</text>
<text x="793.00002264" y="1690.9999703600001" width="19.99996613999997" height="33.99995772000011" class="text">If </text>
<text x="816.9999749799999" y="1693.00000536" width="60.00003898000011" height="35.99999271999991" class="text">space </text>
<text x="890.00000425" y="1693.00000536" width="11.999941030000059" height="33.999957719999884" class="text">is </text>
<text x="911.99996349" y="1695.00004036" width="129.00008204999995" height="37.000089879999905" class="text">insufficient</text>
<text x="1037.99996804" y="1695.00004036" width="10.000018210000007" height="34.000094279999985" class="text">, </text>
<text x="1055.00003238" y="1695.00004036" width="9.999912790000053" height="34.000094279999985" class="text">a </text>
<text x="1083.9999499" y="1696.9999388" width="38.000027029999956" height="35.99999272000014" class="text">full </text>
<text x="1126.99997725" y="1696.9999388" width="66.00001827999995" height="35.99999272000014" class="text">insert </text>
<text x="1196.99998173" y="1698.0000359599999" width="54.99998595000011" height="36.00001548" class="text">page </text>
<text x="1264.00001413" y="1698.9999738" width="52.00003144000016" height="35.99999271999991" class="text">must </text>
<text x="1321.99997216" y="1698.0000359599999" width="25.00003674000004" height="33.99998047999998" class="text">be </text>
<text x="1352.00000922" y="1699.9999344" width="53.00004555999999" height="35.99987892000013" class="text">used</text>
<text x="1408.00000929" y="1698.9999738" width="10.000018210000007" height="33.99995772000011" class="text">.</text>
<text x="1414.9999675699999" y="1699.9999344" width="10.000000640000053" height="33.99995772000011" class="text">)
</text>
<text x="155.00000113500002" y="1754.99995236" width="64.99999537499997" height="33.999957719999884" class="text">This </text>
<text x="235.99999402000003" y="1756.99998736" width="152.00000269999998" height="35.000032120000014" class="text">amendment </text>
<text x="413.00001589" y="1756.99998736" width="28.99997023000003" height="32.00005927999996" class="text">is </text>
<text x="463.99999807" y="1759.00004512" width="82.99999477" height="34.00011704000008" class="text">filed </text>
<text x="567.00001169" y="1759.00004512" width="28.99997023000003" height="32.00008204000005" class="text">to </text>
<text x="618.00001144" y="1762.0000179600002" width="136.99998417000006" height="35.00005488000011" class="text">register </text>
<text x="770.99999312" y="1764.00005296" width="121.00005694000004" height="35.000032120000014" class="text">Holland </text>
<text x="915.00004099" y="1764.00005296" width="8.999986519999993" height="32.00005927999996" class="text">&amp; </text>
<text x="943.0000322399999" y="1765.99997416" width="135.00000864000003" height="33.99998047999998" class="text">Knight's </text>
<text x="1101.0000318099999" y="1770.0000441599998" width="236.99997300000018" height="36.000015479999774" class="text">representation </text>
<text x="1358.99994993" y="1770.0000441599998" width="36.00008664000006" height="32.00005927999973" class="text">of </text>
<text x="1414.0000413" y="1770.9999819999998" width="8.999986519999993" height="31.99992271999986" class="text">a </text>
<text x="1447.00005044" y="1773.0000397600002" width="44.9999677400001" height="33.999980480000204" class="text">new
</text>
<text x="152.999995736" y="1790.99996784" width="113.00001777399999" height="31.99992271999986" class="text">foreign </text>
<text x="289.00000444" y="1793.9999634399999" width="153.99999580000002" height="33.99998047999975" class="text">principal</text>
<text x="450.0000112299999" y="1793.00000284" width="8.999986520000107" height="30.99998487999983" class="text">, </text>
<text x="478.99998145999996" y="1795.00003784" width="48.99998908000009" height="32.00005927999996" class="text">the </text>
<text x="546.0000138600001" y="1795.9999984400001" width="121.00000422999994" height="33.00001988000008" class="text">Central </text>
<text x="686.0000228199999" y="1796.9999362800002" width="135.99997005000012" height="32.99988332000021" class="text">American </text>
<text x="840.9999976" y="1798.99997128" width="62.99999348999995" height="32.99999711999999" class="text">Bank </text>
<text x="921.9999817" y="1798.99997128" width="44.00004147000004" height="31.999922720000086" class="text">for </text>
<text x="976.9999676499999" y="1800.00006844" width="139.9999913900001" height="33.00001988000008" class="text">Economic </text>
<text x="1135.99998134" y="1803.0000640399999" width="184.0000504300001" height="34.00011703999985" class="text">Integration</text>
<text x="1330.00003241" y="1801.9999668799999" width="9.000004090000175" height="30.999984880000056" class="text">, </text>
<text x="1358.99994993" y="1804.00000188" width="48.00004524000019" height="32.00005927999973" class="text">and </text>
<text x="1428.00004571" y="1804.00000188" width="27.999991249999994" height="32.00005927999973" class="text">to
</text>
<text x="148.999997237" y="1826.0000227199998" width="120.000005923" height="32.00005927999996" class="text">provide </text>
<text x="290.99999754" y="1826.9999605599999" width="61.000000390000025" height="31.99992271999986" class="text">such </text>
<text x="373.99999231" y="1828.00005772" width="120.00000768000007" height="32.00005927999996" class="text">further </text>
<text x="516.00002951" y="1831.00005332" width="180.99997293" height="33.00001988000008" class="text">information </text>
<text x="718.99997925" y="1831.00005332" width="33.000009139999975" height="30.999984880000056" class="text">as </text>
<text x="774.00000034" y="1831.00005332" width="28.000008819999948" height="30.000024279999934" class="text">is </text>
<text x="825.00000009" y="1832.9999517600002" width="133.99997695000013" height="31.999922720000086" class="text">required </text>
<text x="976.9999676499999" y="1834.99998676" width="87.00006882000025" height="31.999922720000086" class="text">under </text>
<text x="1082.0000095100002" y="1835.9999246" width="117.00001802999986" height="31.999922720000086" class="text">Section </text>
<text x="1223.00005016" y="1835.9999246" width="8.999986519999993" height="29.999887719999833" class="text">2</text>
<text x="1243.99999528" y="1835.9999246" width="8.999986519999993" height="29.999887719999833" class="text">(</text>
<text x="1255.99995388" y="1835.9999246" width="9.000091939999947" height="29.999887719999833" class="text">b</text>
<text x="1277.0000044199999" y="1837.00002176" width="8.99998652000022" height="30.000024279999934" class="text">) </text>
<text x="1302.99994986" y="1837.00002176" width="38.000027029999956" height="30.000024279999934" class="text">of </text>
<text x="1358.99994993" y="1839.0000567599998" width="47.000013550000176" height="31.00009867999961" class="text">the </text>
<text x="1427.00001402" y="1840.00001736" width="68.99999036000008" height="32.00005927999973" class="text">FARA</text>
<text x="1502.00003639" y="1839.0000567599998" width="8.999986519999993" height="30.000024279999707" class="text">.
</text>
<text x="1498.00005019" y="2192.00003216" width="39.999949849999894" height="16.000029639999866" class="text">FORM </text>
<text x="1545.99997244" y="2192.00003216" width="34.000023260000034" height="16.000029639999866" class="text">CRM</text>
<text x="1583.9999819" y="2192.9999927599997" width="3.999986200000194" height="16.000029639999866" class="text">-</text>
<text x="1590.00001391" y="2192.9999927599997" width="22.999990929999967" height="16.000029639999866" class="text">158
</text>
<text x="1543.00000036" y="2212.000018" width="26.99999469999989" height="16.000052400000186" class="text">SEP</text>
<text x="1573.99996369" y="2212.000018" width="3.999986200000194" height="16.000052400000186" class="text">. </text>
<text x="1582.0000415099998" y="2212.000018" width="30.999963330000128" height="16.000052400000186" class="text">1996
</text>
</g>
<g id="page-1" transform="translate(0, 2296)">
<rect width="1757" height="2276" fill="none" stroke="black" />
<text x="751.00000941" y="208.99999314000002" width="204.9999955500001" height="33.999998688000005" class="text">EXECUTION
</text>
<text x="200.99999178" y="281.99999608" width="20.00000128000002" height="35.999992719999995" class="text">In </text>
<text x="233.00000436999997" y="281.99999608" width="120.99998666000002" height="35.999992719999995" class="text">accordance </text>
<text x="362.99999512" y="281.99999608" width="48.99998907999998" height="35.999992719999995" class="text">with </text>
<text x="422.99999896" y="281.99999608" width="25.99998058" height="35.999992719999995" class="text">28 </text>
<text x="457.00000465" y="281.99999608" width="82.99997719999993" height="35.999992719999995" class="text">U.S.C. </text>
<text x="541.99997495" y="281.99999608" width="10.000018210000007" height="35.999992719999995" class="text">§ </text>
<text x="562.00001137" y="281.99999608" width="56.00000006999994" height="35.999992719999995" class="text">1746</text>
<text x="618.00001144" y="281.99999608" width="9.99996550000003" height="35.999992719999995" class="text">, </text>
<text x="632.99997726" y="281.99999608" width="36.00003392999997" height="35.999992719999995" class="text">the </text>
<text x="674.9999904900001" y="281.99999608" width="134.00001208999993" height="35.999992719999995" class="text">undersigned </text>
<text x="814.00002047" y="281.99999608" width="70.99996589" height="35.999992719999995" class="text">swear</text>
<text x="882.00003185" y="281.99999608" width="10.000018210000007" height="35.999992719999995" class="text">(</text>
<text x="892.00005006" y="281.99999608" width="9.999895219999985" height="35.999992719999995" class="text">s</text>
<text x="901.99994528" y="281.99999608" width="10.000018210000007" height="35.999992719999995" class="text">) </text>
<text x="919.0000271900001" y="281.99999608" width="26.99997712999982" height="35.999992719999995" class="text">or </text>
<text x="949.9999905200001" y="281.99999608" width="66.00001827999984" height="35.999992719999995" class="text">affirm</text>
<text x="1018.0000370399999" y="281.99999608" width="9.999912790000167" height="35.999992719999995" class="text">(</text>
<text x="1027.99994983" y="281.99999608" width="10.000018210000007" height="35.999992719999995" class="text">s</text>
<text x="1038.9999997300001" y="281.99999608" width="10.000000639999826" height="35.999992719999995" class="text">) </text>
<text x="1052.9999865700001" y="281.99999608" width="65.00000415999989" height="35.999992719999995" class="text">under </text>
<text x="1125.00003686" y="281.99999608" width="76.99996276000024" height="35.999992719999995" class="text">penalty </text>
<text x="1215.99998646" y="281.99999608" width="20.000036420000015" height="35.999992719999995" class="text">of </text>
<text x="1242.9999635899999" y="281.99999608" width="80.00002269000015" height="35.999992719999995" class="text">perjury </text>
<text x="1327.9999866" y="281.99999608" width="44.999967739999875" height="35.999992719999995" class="text">that </text>
<text x="1377.00004596" y="281.99999608" width="25.999963009999874" height="35.999992719999995" class="text">he</text>
<text x="1405.9999634800001" y="281.99999608" width="10.000018210000007" height="35.999992719999995" class="text">/</text>
<text x="1414.0000413" y="281.99999608" width="35.999963650000154" height="35.999992719999995" class="text">she </text>
<text x="1455.00002284" y="281.99999608" width="41.99999565999997" height="35.999992719999995" class="text">has </text>
<text x="1511.00002291" y="281.99999608" width="47.00001354999972" height="35.999992719999995" class="text">they
</text>
<text x="97.000000937" y="313.00000372" width="50.999999749999986" height="32.99999711999999" class="text">have </text>
<text x="168.00000548100002" y="313.00000372" width="45.99999415899998" height="32.99999711999999" class="text">read </text>
<text x="219.99999651" y="313.00000372" width="34.000005689999995" height="32.99999711999999" class="text">the </text>
<text x="263.99998527" y="313.00000372" width="128.00003278999998" height="32.99999711999999" class="text">information </text>
<text x="401.00000458" y="313.00000372" width="33.00000914000003" height="32.99999711999999" class="text">set </text>
<text x="437.00000337" y="313.00000372" width="53.00001041999997" height="32.99999711999999" class="text">forth </text>
<text x="502.99998651" y="313.00000372" width="12.00001130999999" height="32.99999711999999" class="text">in </text>
<text x="527.0000091300001" y="313.00000372" width="40.99998153999991" height="32.99999711999999" class="text">this </text>
<text x="576.99997719" y="313.00000372" width="122.00001835" height="32.99999711999999" class="text">registration </text>
<text x="711.99996826" y="313.00000372" width="106.00003841" height="32.99999711999999" class="text">statement </text>
<text x="823.00000699" y="313.00000372" width="38.00002703000007" height="32.99999711999999" class="text">and </text>
<text x="872.00001364" y="313.00000372" width="33.000009139999975" height="32.99999711999999" class="text">the </text>
<text x="909.0000089800001" y="313.00000372" width="89.00000920999992" height="32.99999711999999" class="text">attached </text>
<text x="1012.0000226" y="313.00000372" width="85.00002300999995" height="32.99999711999999" class="text">exhibits </text>
<text x="1107.99997252" y="313.00000372" width="33.000009139999975" height="32.99999711999999" class="text">and </text>
<text x="1150.99999987" y="313.00000372" width="45.999981859999934" height="32.99999711999999" class="text">that </text>
<text x="1198.00001342" y="313.00000372" width="30.000037060000068" height="32.99999711999999" class="text">he</text>
<text x="1227.00003636" y="313.00000372" width="8.999986519999993" height="32.99999711999999" class="text">/</text>
<text x="1237.000037" y="313.00000372" width="32.99990372000002" height="32.99999711999999" class="text">she </text>
<text x="1279.99995893" y="313.00000372" width="19.00000473" height="32.99999711999999" class="text">is </text>
<text x="1306.00002736" y="313.00000372" width="8.999986519999993" height="32.99999711999999" class="text">(</text>
<text x="1316.99995427" y="313.00000372" width="41.00008696000009" height="32.99999711999999" class="text">they </text>
<text x="1367.9999540200001" y="313.00000372" width="33.00000913999975" height="32.99999711999999" class="text">are</text>
<text x="1405.00005478" y="313.00000372" width="8.999986519999993" height="32.99999711999999" class="text">) </text>
<text x="1417.0000133800002" y="313.00000372" width="89.00000920999992" height="32.99999711999999" class="text">familiar </text>
<text x="1513.99997742" y="313.00000372" width="44.00005903999977" height="32.99999711999999" class="text">with </text>
<text x="1569.99999506" y="313.00000372" width="32.99999157000002" height="32.99999711999999" class="text">the
</text>
<text x="98.00000275800001" y="347.00000696" width="89.99999873200001" height="32.00001376000006" class="text">contents </text>
<text x="200.0000128" y="347.00000696" width="77.99997687999999" height="32.00001376000006" class="text">thereof </text>
<text x="283.99998655" y="347.00000696" width="35.99999878999995" height="32.00001376000006" class="text">and </text>
<text x="329.000007" y="347.00000696" width="44.99998531" height="32.00001376000006" class="text">that </text>
<text x="380.00000675" y="347.00000696" width="44.99998531" height="32.00001376000006" class="text">such </text>
<text x="437.00000337" y="347.00000696" width="91.99999886000006" height="32.00001376000006" class="text">contents </text>
<text x="535.9999956500001" y="347.00000696" width="33.000009139999975" height="32.00001376000006" class="text">are </text>
<text x="579.000023" y="347.00000696" width="17.99999060999994" height="32.00001376000006" class="text">in </text>
<text x="609.9999863300001" y="347.00000696" width="45.999981859999934" height="32.00001376000006" class="text">their </text>
<text x="663.9999933" y="347.00000696" width="84.00000889" height="32.00001376000006" class="text">entirety </text>
<text x="754.99999561" y="347.00000696" width="42.00001322999992" height="32.00001376000006" class="text">true </text>
<text x="805.0000163799999" y="347.00000696" width="40.999981540000135" height="32.00001376000006" class="text">and </text>
<text x="853.0000089099999" y="347.00000696" width="89.00000921000014" height="32.00001376000006" class="text">accurate </text>
<text x="953.0000504499999" y="347.00000696" width="18.999899310000046" height="32.00001376000006" class="text">to </text>
<text x="984.0000137799999" y="347.00000696" width="31.99999502000003" height="32.00001376000006" class="text">the </text>
<text x="1022.99994951" y="347.00000696" width="45.00007315999994" height="32.00001376000006" class="text">best </text>
<text x="1074.0000546800002" y="347.00000696" width="23.999899629999845" height="32.00001376000006" class="text">of </text>
<text x="1102.9999722" y="347.00000696" width="31.000068750000082" height="32.00001376000006" class="text">his</text>
<text x="1135.99998134" y="347.00000696" width="8.999986519999993" height="32.00001376000006" class="text">/</text>
<text x="1144.00004159" y="347.00000696" width="36.99999534000017" height="32.00001376000006" class="text">her </text>
<text x="1186.99996352" y="347.00000696" width="9.000004090000175" height="32.00001376000006" class="text">(</text>
<text x="1195.99996761" y="347.00000696" width="49.00004178999984" height="32.00001376000006" class="text">their</text>
<text x="1247.9999814799999" y="347.00000696" width="8.999986519999993" height="32.00001376000006" class="text">) </text>
<text x="1261.99998589" y="347.00000696" width="124.00006415999997" height="32.00001376000006" class="text">knowledge </text>
<text x="1394.00000488" y="347.00000696" width="35.99998121999988" height="32.00001376000006" class="text">and </text>
<text x="1437.9999585" y="347.00000696" width="64.00007789000006" height="32.00001376000006" class="text">belief</text>
<text x="1503.99997678" y="347.00000696" width="8.999986519999993" height="32.00001376000006" class="text">, </text>
<text x="1518.99999531" y="347.00000696" width="75.00000479999994" height="32.00001376000006" class="text">except
</text>
<text x="93.999998988" y="383.99998304" width="47.000001251" height="36.99997608000001" class="text">that </text>
<text x="147.00000413700002" y="383.99998304" width="31.999993262999993" height="36.99997608000001" class="text">the </text>
<text x="184.99999427" y="383.99998304" width="138.00001586000002" height="36.99997608000001" class="text">undersigned </text>
<text x="337.00001454" y="383.99998304" width="52.99997528" height="36.99997608000001" class="text">make</text>
<text x="388.99999327" y="383.99998304" width="11.00001476" height="36.99997608000001" class="text">(</text>
<text x="401.00000458" y="383.99998304" width="10.999979619999976" height="36.99997608000001" class="text">s</text>
<text x="411.9999842" y="383.99998304" width="11.000014760000056" height="36.99997608000001" class="text">) </text>
<text x="429.0000134" y="383.99998304" width="27.999991249999994" height="36.99997608000001" class="text">no </text>
<text x="463.99999807" y="383.99998304" width="154.00001336999998" height="36.99997608000001" class="text">representation </text>
<text x="630.9999841599999" y="383.99998304" width="20.999997830000098" height="36.99997608000001" class="text">as </text>
<text x="660.0000071" y="383.99998304" width="20.999997830000098" height="36.99997608000001" class="text">to </text>
<text x="686.0000228199999" y="383.99998304" width="36.999995340000055" height="36.99997608000001" class="text">the </text>
<text x="727.00000436" y="383.99998304" width="47.99997495999992" height="36.99997608000001" class="text">truth </text>
<text x="789.99999785" y="383.99998304" width="20.999997829999984" height="36.99997608000001" class="text">or </text>
<text x="818.00000667" y="383.99998304" width="96.00000263000004" height="36.99997608000001" class="text">accuracy </text>
<text x="920.9999675800001" y="383.99998304" width="27.999991249999994" height="36.99997608000001" class="text">of </text>
<text x="953.99997672" y="383.99998304" width="31.99997744999996" height="36.99997608000001" class="text">the </text>
<text x="994.0000319899999" y="383.99998304" width="128.99995906000015" height="36.99997608000001" class="text">information </text>
<text x="1128.00000894" y="383.99998304" width="109.00002805999998" height="36.99997608000001" class="text">contained </text>
<text x="1246.9999497899998" y="383.99998304" width="13.000095710000323" height="36.99997608000001" class="text">in </text>
<text x="1275.99997273" y="383.99998304" width="31.999995019999915" height="36.99997608000001" class="text">the </text>
<text x="1315.00001388" y="383.99998304" width="92.99999540999988" height="36.99997608000001" class="text">attached </text>
<text x="1419.00004162" y="383.99998304" width="56.000017639999896" height="36.99997608000001" class="text">Short </text>
<text x="1484.00004578" y="383.99998304" width="58.99995458000012" height="36.99997608000001" class="text">Form
</text>
<text x="97.000000937" y="417.99998628000003" width="136.00000343299996" height="34.9999866" class="text">Registration </text>
<text x="241.99999089000002" y="417.99998628000003" width="113.99999323999995" height="34.9999866" class="text">Statement</text>
<text x="354.99998758000004" y="417.99998628000003" width="10.000018210000007" height="34.9999866" class="text">(</text>
<text x="361.99999857" y="417.99998628000003" width="10.000000639999996" height="34.9999866" class="text">s</text>
<text x="375.99998541" y="417.99998628000003" width="10.000018210000007" height="34.9999866" class="text">)</text>
<text x="382.9999964" y="417.99998628000003" width="10.000018210000007" height="34.9999866" class="text">, </text>
<text x="399.00001148" y="417.99998628000003" width="12.99997271999996" height="34.9999866" class="text">if </text>
<text x="421.00000586" y="417.99998628000003" width="39.99998499000003" height="34.9999866" class="text">any</text>
<text x="460.00002943999993" y="417.99998628000003" width="9.999947930000076" height="34.9999866" class="text">, </text>
<text x="476.00000937999994" y="417.99998628000003" width="75.00002237000001" height="34.9999866" class="text">insofar </text>
<text x="556.99999348" y="417.99998628000003" width="26.00001572000008" height="34.9999866" class="text">as </text>
<text x="590.00000262" y="417.99998628000003" width="44.99996773999999" height="34.9999866" class="text">such </text>
<text x="647.99999579" y="417.99998628000003" width="122.99999733000004" height="34.9999866" class="text">information </text>
<text x="783.00000443" y="417.99998628000003" width="19.999966140000083" height="34.9999866" class="text">is </text>
<text x="809.00000258" y="417.99998628000003" width="35.999981219999995" height="34.9999866" class="text">not </text>
<text x="849.99998412" y="417.99998628000003" width="68.00001138000005" height="34.9999866" class="text">within </text>
<text x="929.9999541000001" y="417.99998628000003" width="30.000037059999954" height="34.9999866" class="text">his</text>
<text x="961.00002285" y="417.99998628000003" width="10.000018209999894" height="34.9999866" class="text">/</text>
<text x="967.0000548600001" y="417.99998628000003" width="34.99994952999987" height="34.9999866" class="text">her </text>
<text x="1009.99997679" y="417.99998628000003" width="10.00000063999994" height="34.9999866" class="text">(</text>
<text x="1022.0000232400001" y="417.99998628000003" width="47.999939819999895" height="34.9999866" class="text">their</text>
<text x="1073.0000229900002" y="417.99998628000003" width="10.000018210000007" height="34.9999866" class="text">) </text>
<text x="1088.99996779" y="417.99998628000003" width="95.00004121999996" height="34.9999866" class="text">personal </text>
<text x="1190.9999497200001" y="417.99998628000003" width="120.00007795999977" height="34.9999866" class="text">knowledge</text>
<text x="1313.99999976" y="417.99998628000003" width="10.000018210000007" height="34.9999866" class="text">.
</text>
<text x="98.00000275800001" y="518.00000652" width="8.999998818999998" height="31.000007640000035" class="text">(</text>
<text x="103.999999628" y="518.00000652" width="51.999998056999985" height="31.000007640000035" class="text">Date </text>
<text x="169.00000203099998" y="518.00000652" width="21.999989109000012" height="31.000007640000035" class="text">of </text>
<text x="198.00000212999998" y="518.00000652" width="98.99999228000001" height="31.000007640000035" class="text">signature</text>
<text x="303.00000885" y="518.00000652" width="8.999986519999993" height="31.000007640000035" class="text">)
</text>
<text x="907.9999772900001" y="518.00000652" width="10.000018210000007" height="35.00000936000009" class="text">(</text>
<text x="920.9999675800001" y="518.00000652" width="55.000073799999996" height="35.00000936000009" class="text">Type </text>
<text x="981.00005927" y="518.00000652" width="25.999945440000033" height="35.00000936000009" class="text">or </text>
<text x="1012.0000226" y="518.00000652" width="52.99992257000008" height="35.00000936000009" class="text">print </text>
<text x="1072.0000088699999" y="518.00000652" width="62.00003208000021" height="35.00000936000009" class="text">name </text>
<text x="1138.00002715" y="518.00000652" width="63.9999724700001" height="35.00000936000009" class="text">under </text>
<text x="1208.00001406" y="518.00000652" width="49.999985629999856" height="35.00000936000009" class="text">each </text>
<text x="1269.00003202" y="518.00000652" width="110.99998602000005" height="35.00000936000009" class="text">signature¹</text>
<text x="1381.0000321599998" y="518.00000652" width="10.000018210000007" height="35.00000936000009" class="text">)
</text>
<text x="178.00000085" y="610.00002332" width="197.99998456000003" height="82.00002387999996" class="text">2/23/99
</text>
<text x="939.00004604" y="588.00002524" width="141.99994934999984" height="79.00000552000006" class="text">Alice </text>
<text x="1268.00000033" y="595.00002256" width="146.0000409700001" height="74.00002044000007" class="text">order
</text>
<text x="951.00000464" y="660.00003344" width="160.99995407999995" height="70.00004147999994" class="text">Steven </text>
<text x="1153.99995438" y="657.99999844" width="87.00006882000002" height="69.00003536000008" class="text">D. </text>
<text x="1243.99999528" y="656.99996956" width="196.00000903" height="69.9999732" class="text">Gordon
</text>
<text x="123.00000260099999" y="2178.0000375199998" width="24.99999808599999" height="21.99999807999984" class="text">This </text>
<text x="151.000002636" y="2178.0000375199998" width="68.99999387399998" height="24.000033079999866" class="text">statement </text>
<text x="221.99998961" y="2176.99996312" width="32.00001258999998" height="22.000020839999706" class="text">shall </text>
<text x="256.99999184999996" y="2176.99996312" width="16.000015080000082" height="22.000020839999706" class="text">be </text>
<text x="276.99999313" y="2176.99996312" width="41.99999565999997" height="22.999958679999963" class="text">signed </text>
<text x="323.00001013" y="2176.00000252" width="15.999997510000014" height="21.999998080000296" class="text">by </text>
<text x="343.00001140999996" y="2176.00000252" width="21.99999438000009" height="21.999998080000296" class="text">the </text>
<text x="369.99998854" y="2176.00000252" width="67.00001483" height="21.999998080000296" class="text">individual </text>
<text x="437.99999992" y="2175.00004192" width="38.000009459999944" height="21.99999807999984" class="text">agent</text>
<text x="476.99998836" y="2175.00004192" width="6.000032009999984" height="21.99999807999984" class="text">, </text>
<text x="483.99998178000004" y="2175.00004192" width="9.000004089999948" height="21.99999807999984" class="text">if </text>
<text x="497.00000721000004" y="2175.00004192" width="21.99997681000002" height="21.99999807999984" class="text">the </text>
<text x="524.0000019099999" y="2175.00004192" width="62.999993490000065" height="23.000095240000064" class="text">registrant </text>
<text x="590.00000262" y="2173.99996752" width="7.999972399999933" height="22.00002084000016" class="text">is </text>
<text x="604.00000703" y="2173.99996752" width="12.999972720000073" height="22.00002084000016" class="text">an </text>
<text x="625.00000486" y="2173.99996752" width="66.99999725999999" height="22.00002084000016" class="text">individual</text>
<text x="690.00000902" y="2173.99996752" width="5.99997929999995" height="22.00002084000016" class="text">, </text>
<text x="700.00002723" y="2173.99996752" width="11.999941029999945" height="22.00002084000016" class="text">or </text>
<text x="716.00000717" y="2173.00000692" width="15.999997509999957" height="21.99999807999984" class="text">by </text>
<text x="735.99999088" y="2173.00000692" width="6.000032009999927" height="21.99999807999984" class="text">a </text>
<text x="751.99998839" y="2173.00000692" width="49.000006650000046" height="21.99999807999984" class="text">majority </text>
<text x="807.9999884599999" y="2173.00000692" width="17.000011630000017" height="21.99999807999984" class="text">of </text>
<text x="826.9999931899999" y="2173.00000692" width="35.00000224000007" height="22.999958679999963" class="text">those </text>
<text x="865.00000265" y="2172.0000690800002" width="51.99997872999995" height="22.00002084000016" class="text">partners</text>
<text x="919.0000271900001" y="2172.0000690800002" width="6.000014439999973" height="22.00002084000016" class="text">, </text>
<text x="928.0000137100001" y="2172.0000690800002" width="48.99995393999984" height="22.00002084000016" class="text">officers</text>
<text x="977.9999817700001" y="2172.0000690800002" width="6.0000320099998135" height="22.00002084000016" class="text">, </text>
<text x="986.9999682900001" y="2172.0000690800002" width="56.00001763999978" height="23.00009524000052" class="text">directors </text>
<text x="1049.00000037" y="2170.99997192" width="15.999944800000094" height="21.999998080000296" class="text">or </text>
<text x="1064.99994517" y="2170.99997192" width="52.000013869999975" height="21.999998080000296" class="text">persons </text>
<text x="1120.0000365399999" y="2170.99997192" width="73.99999068000011" height="23.999896519999766" class="text">performing </text>
<text x="1198.00001342" y="2170.0000340799998" width="45.999981859999934" height="22.000020839999706" class="text">similar </text>
<text x="1247.9999814799999" y="2170.0000340799998" width="63.00004620000004" height="22.99995867999951" class="text">functions</text>
<text x="1307.99996775" y="2168.99993692" width="6.000032010000041" height="21.99986151999974" class="text">, </text>
<text x="1317.99998596" y="2168.99993692" width="8.999986519999993" height="21.99986151999974" class="text">if </text>
<text x="1330.00003241" y="2168.99993692" width="23.00000850000015" height="21.99986151999974" class="text">the </text>
<text x="1358.00004123" y="2168.99993692" width="62.99994078000009" height="22.999958679999963" class="text">registrant </text>
<text x="1423.99995409" y="2167.99999908" width="8.000077819999888" height="22.00002084000016" class="text">is </text>
<text x="1437.00003223" y="2167.99999908" width="16.999958919999926" height="22.00002084000016" class="text">an </text>
<text x="1456.99996323" y="2168.99993692" width="83.00008262000006" height="23.999919280000086" class="text">organization</text>
<text x="1539.0000317299998" y="2167.00003848" width="5.999909020000132" height="22.00002084000016" class="text">, </text>
<text x="1546.99998656" y="2167.00003848" width="47.00001354999995" height="22.00002084000016" class="text">except </text>
<text x="1596.9999721899999" y="2167.00003848" width="29.000022940000008" height="22.00002084000016" class="text">that
</text>
<text x="103.999999628" y="2195.00002776" width="19.999997766000007" height="18.000064640000346" class="text">the </text>
<text x="127.99999589299999" y="2195.00002776" width="81.00000342700001" height="19.999985840000136" class="text">organization </text>
<text x="214.99999619" y="2193.9999306" width="20.000001279999992" height="17.99992807999979" class="text">can</text>
<text x="239.00000124000002" y="2193.9999306" width="5.000017889999981" height="17.99992807999979" class="text">, </text>
<text x="246.99999121000002" y="2193.9999306" width="13.000007859999982" height="17.99992807999979" class="text">by </text>
<text x="266.00001351" y="2193.9999306" width="42.999992210000016" height="17.99992807999979" class="text">power </text>
<text x="313.99998847" y="2193.9999306" width="13.000007859999982" height="17.99992807999979" class="text">of </text>
<text x="334.9999863" y="2192.9999927599997" width="56.00000007" height="17.999950839999656" class="text">attorney</text>
<text x="392.00001806" y="2192.9999927599997" width="4.999982750000015" height="17.999950839999656" class="text">, </text>
<text x="400.00000803" y="2192.9999927599997" width="60.00002140999993" height="17.999950839999656" class="text">authorize </text>
<text x="467.00002286" y="2192.9999927599997" width="22.999990929999967" height="17.999950839999656" class="text">one </text>
<text x="495.99999309" y="2192.00003216" width="14.000004410000031" height="18.00006463999989" class="text">or </text>
<text x="513.9999836999999" y="2192.00003216" width="31.000016040000105" height="18.00006463999989" class="text">more </text>
<text x="551.00003175" y="2192.00003216" width="69.99998690999996" height="18.00006463999989" class="text">individuals </text>
<text x="627.99997694" y="2192.00003216" width="9.00003922999997" height="18.00006463999989" class="text">to </text>
<text x="644.99998857" y="2192.00003216" width="48.00002767000001" height="19.000025240000014" class="text">execute </text>
<text x="702.9999817400001" y="2190.99995776" width="19.000004729999887" height="17.99995084000011" class="text">this </text>
<text x="728.99999746" y="2190.99995776" width="64.00002517999997" height="17.99995084000011" class="text">statement </text>
<text x="795.00001574" y="2190.99995776" width="17.000011630000017" height="18.999888679999913" class="text">on </text>
<text x="816.9999749799999" y="2189.99999716" width="16.00005022000005" height="17.99992807999979" class="text">its </text>
<text x="835.0000183" y="2189.99999716" width="43.99993605000009" height="17.99992807999979" class="text">behalf</text>
<text x="877.9999929400001" y="2189.99999716" width="5.00005302999989" height="17.99992807999979" class="text">.
</text>
</g>
</svg>
