<svg xmlns="http://www.w3.org/2000/svg">
<style>.text { font-size: 14px; font-family: Arial, sans-serif; }</style>
<g id="page-0" transform="translate(0, 0)">
<rect width="1756" height="2277" fill="none" stroke="black" />
<text x="133.000005432" y="143.000005995" width="52.99999236800002" height="31.000009293000005" class="text">U.S. </text>
<text x="190.99999708" y="143.000005995" width="147.00001043999998" height="33.00000996600001" class="text">Department </text>
<text x="345.00000300000005" y="141.999997689" width="23.99998951999993" height="32.000001659999995" class="text">of </text>
<text x="374.99999868" y="140.999996214" width="83.99999844000001" height="31.999999382999988" class="text">Justice
</text>
<text x="131.000000452" y="177.99999841800002" width="135.00000338799998" height="36.00000072900002" class="text">Washington</text>
<text x="268.00000004" y="175.999997745" width="9.999998559999995" height="32.99999174999999" class="text">, </text>
<text x="282.00000855999997" y="174.99999627" width="36.999991160000036" height="34.000000056000005" class="text">DC </text>
<text x="330.00000516" y="174.99999627" width="72.99999300000002" height="34.999999254000016" class="text">20530
</text>
<text x="653.0000324" y="143.000005995" width="142.99994779999997" height="33.00000996600001" class="text">Amendment </text>
<text x="799.0000184" y="143.000005995" width="16.99995892000004" height="32.000008491" class="text">to </text>
<text x="828.00002476" y="145.000006668" width="133.00001948" height="34.00000916399999" class="text">Registration </text>
<text x="973.99995808" y="146.000005866" width="109.0000650799999" height="34.000009164000005" class="text">Statement
</text>
<text x="651.9999904" y="177.99999841800002" width="103.00000623999995" height="32.99999175000002" class="text">Pursuant </text>
<text x="757.99998216" y="176.999996943" width="17.000011599999993" height="30.999991077000004" class="text">to </text>
<text x="790.00000916" y="176.999996943" width="29.999978120000037" height="30.999991077000004" class="text">the </text>
<text x="826.000011" y="178.999997616" width="82.00001980000013" height="32.99999174999999" class="text">Foreign </text>
<text x="921.00005" y="178.999997616" width="76.99996784000007" height="31.999990274999988" class="text">Agents </text>
<text x="1004.99996064" y="179.999999091" width="134.00000880000005" height="32.99999174999999" class="text">Registration </text>
<text x="1150.00002756" y="179.999999091" width="40.00001180000004" height="31.99999255200001" class="text">Act </text>
<text x="1195.00002108" y="179.999999091" width="27.99998192000021" height="30.999991077000004" class="text">of </text>
<text x="1231.00002292" y="179.999999091" width="49.99997523999991" height="30.999991077000004" class="text">1938</text>
<text x="1284.0000363600002" y="179.999999091" width="9.000009239999827" height="30.999991077000004" class="text">, </text>
<text x="1298.00002732" y="179.999999091" width="23.99995439999998" height="30.999991077000004" class="text">as </text>
<text x="1326.999981" y="181.999999764" width="100.00007340000002" height="32.99999174999999" class="text">amended
</text>
<text x="1378.00003336" y="147.000007341" width="38.999934680000024" height="15.000003909000014" class="text">OMB </text>
<text x="1420.999978" y="147.000007341" width="22.00001087999999" height="15.000003909000014" class="text">NO</text>
<text x="1446.99999884" y="148.000006539" width="4.000009959999943" height="15.000003908999986" class="text">. </text>
<text x="1454.000047" y="149.000008014" width="71.9999861199999" height="17.000004582000003" class="text">1105-0004
</text>
<text x="132.00000382" y="321.00000669" width="68.00000250000002" height="26.99998290000002" class="text">Privacy </text>
<text x="207.0000018" y="321.00000669" width="30.000013239999987" height="26.99998290000002" class="text">Act </text>
<text x="246.00000672000002" y="321.99999678" width="89.99998703999998" height="27.999972990000003" class="text">Statement</text>
<text x="332.99999068" y="321.99999678" width="8.000002359999996" height="27.000005670000007" class="text">. </text>
<text x="350.00001984" y="321.99999678" width="52.999978320000025" height="27.000005670000007" class="text">Every </text>
<text x="408.99998676" y="323.00000964000003" width="99.00003140000001" height="28.000018530000034" class="text">registration </text>
<text x="517.0000098400001" y="323.00000964000003" width="85.9999770799999" height="27.000005670000007" class="text">statement</text>
<text x="602.99998692" y="323.00000964000003" width="8.00001992" height="27.000005670000007" class="text">, </text>
<text x="613.9999923600001" y="323.00000964000003" width="44.00002175999987" height="27.000005670000007" class="text">short </text>
<text x="660.9999996399999" y="323.00000964000003" width="42.99997976000009" height="27.000005670000007" class="text">form </text>
<text x="710.00000312" y="323.99997695999997" width="100.00002071999995" height="27.999972989999947" class="text">registration </text>
<text x="819.00001552" y="323.99997695999997" width="85.9999770799999" height="26.999982899999964" class="text">statement</text>
<text x="901.9999544" y="323.99997695999997" width="8.00003748000006" height="26.999982899999964" class="text">, </text>
<text x="915.99994536" y="325.00001259" width="118.00007432000018" height="28.000018529999977" class="text">supplemental </text>
<text x="1040.99996248" y="325.00001259" width="86.00008243999991" height="27.00000566999995" class="text">statement</text>
<text x="1124.00000672" y="325.00001259" width="8.000019919999886" height="27.00000566999995" class="text">, </text>
<text x="1133.99998772" y="325.00001259" width="63.99996620000002" height="27.00000566999995" class="text">exhibit</text>
<text x="1196.99998216" y="325.00001259" width="8.000019920000113" height="27.00000566999995" class="text">, </text>
<text x="1205.00000208" y="325.99997991" width="107.99998796" height="27.999972989999947" class="text">amendment</text>
<text x="1312.99999004" y="325.99997991" width="8.000019919999886" height="26.999982899999964" class="text">, </text>
<text x="1322.99997104" y="325.99997991" width="40.999983560000146" height="26.999982899999964" class="text">copy </text>
<text x="1371.00000276" y="325.99997991" width="20.000049799999942" height="26.999982899999964" class="text">of </text>
<text x="1397.99999536" y="327.00001554" width="123.00005603999989" height="28.000018529999977" class="text">informational </text>
<text x="1527.00000488" y="327.00001554" width="79.00005183999997" height="27.00000566999995" class="text">materials </text>
<text x="1612.0000102000001" y="327.00001554" width="18.999972679999928" height="27.00000566999995" class="text">or
</text>
<text x="133.000005432" y="345.99998664000003" width="44.000000688" height="25.999992810000037" class="text">other </text>
<text x="184.99999092" y="346.99999949999994" width="85.00000531999999" height="27.00000566999995" class="text">document </text>
<text x="275.99998484" y="346.99999949999994" width="19.00000779999999" height="25.999992809999924" class="text">or </text>
<text x="303.99998432" y="347.99998959" width="100.00002072000001" height="26.999982899999964" class="text">information </text>
<text x="412.0000074" y="347.99998959" width="38.999969799999974" height="25.99999280999998" class="text">filed </text>
<text x="456.00002916" y="347.99998959" width="37.99999803999998" height="25.99999280999998" class="text">with </text>
<text x="503.00001888" y="347.99998959" width="25.999968160000037" height="25.99999280999998" class="text">the </text>
<text x="537.0000069600001" y="349.00000244999995" width="78.9999991599999" height="27.00000566999995" class="text">Attorney </text>
<text x="622.99998404" y="349.00000244999995" width="69.00001816000008" height="25.999992809999924" class="text">General </text>
<text x="696.00001216" y="349.99999254" width="54.00000276000003" height="26.999982899999964" class="text">under </text>
<text x="752.9999828800001" y="349.99999254" width="33.000016319999986" height="26.000015580000024" class="text">this </text>
<text x="792.00002292" y="349.99999254" width="32.99996363999992" height="26.000015580000024" class="text">Act </text>
<text x="828.00002476" y="349.99999254" width="13.999973400000044" height="26.000015580000024" class="text">is </text>
<text x="848.9999936400001" y="349.99999254" width="6.999995479999939" height="26.000015580000024" class="text">a </text>
<text x="866.99999456" y="351.00000539999996" width="50.000027919999866" height="27.000028439999994" class="text">public </text>
<text x="927.00000348" y="351.00000539999996" width="54.00000276000003" height="25.99999280999998" class="text">record </text>
<text x="988.0000544" y="351.00000539999996" width="39.99988888000007" height="25.99999280999998" class="text">open </text>
<text x="1035.9999632" y="351.00000539999996" width="13.999990960000105" height="25.99999280999998" class="text">to </text>
<text x="1057.00000232" y="351.99999549" width="55.99994628000013" height="26.99998290000002" class="text">public </text>
<text x="1120.99996852" y="353.00000835" width="107.00001620000012" height="27.99999575999999" class="text">examination</text>
<text x="1233.9999557600001" y="351.99999549" width="7.000048159999778" height="26.000015580000024" class="text">, </text>
<text x="1245.00001388" y="353.00000835" width="84.00001599999996" height="27.000028439999994" class="text">inspection </text>
<text x="1339.00001088" y="353.00000835" width="34.00004076000005" height="25.99999280999998" class="text">and </text>
<text x="1378.00003336" y="353.99999844" width="68.9999654799999" height="26.99998290000002" class="text">copying </text>
<text x="1455.99999052" y="353.99999844" width="56.00005164000004" height="26.000015580000024" class="text">during </text>
<text x="1519.9999742799998" y="353.99999844" width="25.00003152000022" height="26.000015580000024" class="text">the </text>
<text x="1550.99997684" y="353.99999844" width="57.000023400000146" height="26.000015580000024" class="text">posted
</text>
<text x="129.999997084" y="372.00000222" width="75.999997836" height="25.000002720000055" class="text">business </text>
<text x="212.9999904" y="372.99999231" width="48.00001415999998" height="25.999992810000037" class="text">hours </text>
<text x="268.00000004" y="372.99999231" width="18.999990240000045" height="25.000002719999998" class="text">of </text>
<text x="292.00000712" y="372.99999231" width="24.999996399999986" height="25.000002719999998" class="text">the </text>
<text x="323.999999" y="374.00000517" width="108.00000552" height="26.000015580000024" class="text">Registration </text>
<text x="439.0" y="374.00000517" width="42.00000799999998" height="25.000002720000055" class="text">Unit </text>
<text x="483.99999352" y="374.00000517" width="13.999990960000048" height="25.000002720000055" class="text">in </text>
<text x="506.99997616" y="374.99999526" width="107.00001620000006" height="25.999992810000037" class="text">Washington</text>
<text x="616.9999778800001" y="374.00000517" width="7.000048159999892" height="25.000002720000055" class="text">, </text>
<text x="625.9999695600001" y="374.99999526" width="47.00000727999986" height="25.999992810000037" class="text">D.C. </text>
<text x="681.9999685199999" y="374.99999526" width="36.00005452000005" height="25.000002719999998" class="text">One </text>
<text x="723.00000476" y="374.99999526" width="42.000025559999926" height="25.000002719999998" class="text">copy </text>
<text x="772.99999756" y="374.99999526" width="19.000025359999995" height="25.000002719999998" class="text">of </text>
<text x="795.9999802" y="374.99999526" width="44.99999352000009" height="25.000002719999998" class="text">every </text>
<text x="851.99997916" y="376.00000812" width="36.99997360000009" height="26.000015580000024" class="text">such </text>
<text x="895.00002916" y="376.00000812" width="88.99999772000001" height="25.000002720000055" class="text">document</text>
<text x="984.0000268800001" y="376.00000812" width="6.999942799999985" height="25.000002720000055" class="text">, </text>
<text x="995.99996896" y="376.00000812" width="46.00007063999999" height="25.000002720000055" class="text">other </text>
<text x="1047.00002132" y="376.00000812" width="35.00003007999976" height="25.000002720000055" class="text">than </text>
<text x="1093.0000041600001" y="378.00001107" width="120.99998959999994" height="27.000005670000064" class="text">informational </text>
<text x="1222.00001368" y="378.00001107" width="77.9999571599999" height="26.000015580000024" class="text">materials</text>
<text x="1302.00003728" y="378.00001107" width="6.999942800000099" height="25.000002720000055" class="text">, </text>
<text x="1312.00001828" y="378.00001107" width="13.999973400000044" height="25.000002720000055" class="text">is </text>
<text x="1334.0000291600002" y="378.99997839" width="118.99994071999981" height="26.99998290000002" class="text">automatically </text>
<text x="1460.9999897999999" y="378.99997839" width="78.00006252000026" height="25.99997004000005" class="text">provided </text>
<text x="1546.99996688" y="378.99997839" width="13.999990959999877" height="24.99997995000001" class="text">to </text>
<text x="1568.99997776" y="378.99997839" width="29.000059039999996" height="24.99997995000001" class="text">the
</text>
<text x="131.000000452" y="398.99998512" width="85.00001058800001" height="25.999992810000037" class="text">Secretary </text>
<text x="222.99998896" y="399.99999798" width="19.00000779999999" height="27.000005670000007" class="text">of </text>
<text x="246.00000672000002" y="399.99999798" width="41.999990440000005" height="25.99999280999998" class="text">State </text>
<text x="295.99999952" y="399.99999798" width="82.00001979999996" height="25.99999280999998" class="text">pursuant </text>
<text x="379.99999796000003" y="399.99999798" width="15.000015399999995" height="25.99999280999998" class="text">to </text>
<text x="405.00001191999996" y="400.99998807000003" width="62.99999444000002" height="26.99998290000002" class="text">Section </text>
<text x="476.00002628" y="400.99998807000003" width="6.999995480000052" height="25.999992810000037" class="text">6</text>
<text x="488.99997524" y="400.99998807000003" width="6.999995479999939" height="25.999992810000037" class="text">(</text>
<text x="494.0000272" y="400.99998807000003" width="6.9999954799999955" height="25.999992810000037" class="text">b</text>
<text x="506.99997616" y="400.99998807000003" width="6.9999954799999955" height="25.999992810000037" class="text">) </text>
<text x="519.00000604" y="400.99998807000003" width="18.99999023999999" height="25.999992810000037" class="text">of </text>
<text x="541.00001692" y="400.99998807000003" width="29.999978120000037" height="25.999992810000037" class="text">the </text>
<text x="579.00003252" y="400.99998807000003" width="27.999964360000035" height="25.999992810000037" class="text">Act</text>
<text x="606.00002512" y="400.99998807000003" width="6.999995479999939" height="25.999992810000037" class="text">, </text>
<text x="618.00000232" y="400.99998807000003" width="33.000016319999986" height="25.999992810000037" class="text">and </text>
<text x="656.99998968" y="402.00000093" width="53.99998519999997" height="27.000005670000007" class="text">copies </text>
<text x="716.9999986" y="402.00000093" width="19.000025359999995" height="25.99999280999998" class="text">of </text>
<text x="739.99998124" y="402.00000093" width="34.00004076000005" height="25.99999280999998" class="text">any </text>
<text x="779.00000372" y="402.00000093" width="29.999978120000037" height="25.99999280999998" class="text">and </text>
<text x="819.00001552" y="402.00000093" width="21.999958200000037" height="25.99999280999998" class="text">all </text>
<text x="846.99999744" y="402.99999102000004" width="93.99999700000001" height="26.99998290000002" class="text">documents </text>
<text x="945.9999761600001" y="402.99999102000004" width="25.000049080000053" height="26.000015580000024" class="text">are </text>
<text x="980.0000169199999" y="402.99999102000004" width="77.99995716000024" height="26.000015580000024" class="text">routinely </text>
<text x="1069.0000322" y="402.99999102000004" width="43.999916400000075" height="26.000015580000024" class="text">made </text>
<text x="1119.99999676" y="404.00000387999995" width="80.99999535999996" height="25.999992809999924" class="text">available </text>
<text x="1206.9999456" y="404.00000387999995" width="14.000096319999784" height="25.999992809999924" class="text">to </text>
<text x="1228.99995648" y="404.00000387999995" width="48.000031719999924" height="25.999992809999924" class="text">other </text>
<text x="1280.99999816" y="404.99999397" width="76.00001364000013" height="26.999982899999964" class="text">agencies</text>
<text x="1357.0000118" y="404.99999397" width="6.999942800000099" height="26.000015579999967" class="text">, </text>
<text x="1369.00004168" y="404.99999397" width="108.99995971999988" height="26.000015579999967" class="text">departments </text>
<text x="1483.99997244" y="404.99999397" width="33.00006899999994" height="26.000015579999967" class="text">and </text>
<text x="1523.99998424" y="406.00000682999996" width="80.00000604000002" height="27.000028439999937" class="text">Congress
</text>
<text x="131.000000452" y="431.00000955" width="81.00000062800001" height="29.000008620000017" class="text">pursuant </text>
<text x="216.00001104" y="431.00000955" width="14.99998027999996" height="29.000008620000017" class="text">to </text>
<text x="240.99998988000002" y="431.00000955" width="60.00000891999994" height="29.000008620000017" class="text">Section </text>
<text x="310.00000804" y="431.00000955" width="7.999984799999993" height="29.000008620000017" class="text">6</text>
<text x="322.00002036" y="431.00000955" width="7.999984799999993" height="29.000008620000017" class="text">(</text>
<text x="331.00001204" y="431.00000955" width="8.000002359999996" height="29.000008620000017" class="text">c</text>
<text x="339.0000144" y="431.00000955" width="7.99998480000005" height="29.000008620000017" class="text">) </text>
<text x="353.99999468" y="431.00000955" width="16.99999403999999" height="29.000008620000017" class="text">of </text>
<text x="374.00000936" y="431.00000955" width="29.99999568000004" height="29.000008620000017" class="text">the </text>
<text x="409.99999364" y="431.00000955" width="33.000016319999986" height="29.000008620000017" class="text">Act</text>
<text x="441.00001376000006" y="431.00000955" width="7.9999672399999895" height="29.000008620000017" class="text">. </text>
<text x="459.99998644" y="431.00000955" width="33.000016319999986" height="29.000008620000017" class="text">The </text>
<text x="501.00002268" y="431.00000955" width="76.99996784000001" height="29.000008620000017" class="text">Attorney </text>
<text x="584.00001424" y="431.00000955" width="70.99996167999996" height="29.000008620000017" class="text">General </text>
<text x="660.9999996399999" y="431.00000955" width="31.999974320000092" height="29.000008620000017" class="text">also </text>
<text x="698.99999768" y="431.00000955" width="82.00001980000002" height="29.000008620000017" class="text">transmits </text>
<text x="788.99998472" y="431.00000955" width="8.000019919999886" height="29.000008620000017" class="text">a </text>
<text x="804.0000001200001" y="431.00000955" width="42.99999731999992" height="29.000008620000017" class="text">semi</text>
<text x="844.00001192" y="431.00000955" width="7.999967239999933" height="29.000008620000017" class="text">-</text>
<text x="853.0000036" y="431.00000955" width="64.00001887999986" height="29.000008620000017" class="text">annual </text>
<text x="922.00002176" y="431.00000955" width="51.999936320000074" height="29.000008620000017" class="text">report </text>
<text x="980.0000169199999" y="431.00000955" width="9.999981000000162" height="29.000008620000017" class="text">to </text>
<text x="1003.99998888" y="431.00000955" width="76.99998539999979" height="29.000008620000017" class="text">Congress </text>
<text x="1088.00000488" y="431.00000955" width="19.999962000000096" height="29.000008620000017" class="text">on </text>
<text x="1114.0000257200002" y="431.00000955" width="28.999953679999862" height="29.000008620000017" class="text">the </text>
<text x="1150.00002756" y="431.00000955" width="131.99995992000004" height="29.000008620000017" class="text">Administration </text>
<text x="1291.99995092" y="431.00000955" width="15.00006808000012" height="29.000008620000017" class="text">of </text>
<text x="1311.00002896" y="431.00000955" width="28.999953679999862" height="29.000008620000017" class="text">the </text>
<text x="1347.0000308" y="431.00000955" width="28.999953679999862" height="29.000008620000017" class="text">Act </text>
<text x="1380.9999662" y="431.00000955" width="54.000002759999916" height="29.000008620000017" class="text">which </text>
<text x="1442.99998888" y="431.00000955" width="34.00004076000005" height="29.000008620000017" class="text">lists </text>
<text x="1482.00001136" y="431.00000955" width="28.99995368000009" height="29.000008620000017" class="text">the </text>
<text x="1517.00004144" y="431.00000955" width="56.99991804000001" height="29.000008620000017" class="text">names </text>
<text x="1581.9999794" y="431.00000955" width="15.000068079999892" height="29.000008620000017" class="text">of </text>
<text x="1603.99999028" y="431.00000955" width="25.000049080000053" height="29.000008620000017" class="text">all
</text>
<text x="129.999997084" y="459.00000531" width="59.000003796000016" height="30.99998880000004" class="text">agents </text>
<text x="193.00001084" y="459.00000531" width="85.99997708000004" height="30.99998880000004" class="text">registered </text>
<text x="284.99999408" y="459.00000531" width="54.000020319999976" height="30.99998880000004" class="text">under </text>
<text x="343.99999612" y="459.00000531" width="26.999992599999985" height="30.99998880000004" class="text">the </text>
<text x="378.00001932" y="459.00000531" width="30.999967440000034" height="30.99998880000004" class="text">Act </text>
<text x="413.00001427999996" y="459.00000531" width="30.99996744000009" height="30.99998880000004" class="text">and </text>
<text x="450.9999772" y="459.00000531" width="26.00002083999999" height="30.99998880000004" class="text">the </text>
<text x="486.99997904" y="459.00000531" width="57.99999515999997" height="30.99998880000004" class="text">foreign </text>
<text x="551.99996968" y="459.00000531" width="89.00001527999996" height="30.99998880000004" class="text">principals </text>
<text x="645.99998424" y="459.00000531" width="35.99998427999992" height="30.99998880000004" class="text">they </text>
<text x="689.00001668" y="459.00000531" width="83.99998087999995" height="30.99998880000004" class="text">represent</text>
<text x="772.99999756" y="459.00000531" width="8.999991679999994" height="30.99998880000004" class="text">. </text>
<text x="792.00002292" y="459.00000531" width="34.999959839999974" height="30.99998880000004" class="text">This </text>
<text x="831.99998204" y="459.00000531" width="53.00006611999993" height="30.99998880000004" class="text">report </text>
<text x="892.99996272" y="459.00000531" width="11.000058119999949" height="30.99998880000004" class="text">is </text>
<text x="912.00004076" y="459.00000531" width="78.99992892" height="30.99998880000004" class="text">available </text>
<text x="995.99996896" y="459.00000531" width="18.000000919999934" height="30.99998880000004" class="text">to </text>
<text x="1022.99996156" y="459.00000531" width="26.99999260000004" height="30.99998880000004" class="text">the </text>
<text x="1055.0000588" y="459.00000531" width="55.999946279999904" height="30.99998880000004" class="text">public</text>
<text x="1111.00000508" y="459.00000531" width="8.999991679999994" height="30.99998880000004" class="text">. </text>
<text x="1124.99997848" y="459.00000531" width="61.00005091999992" height="30.99998880000004" class="text">Finally</text>
<text x="1187.9999729200001" y="459.00000531" width="9.000009239999827" height="30.99998880000004" class="text">, </text>
<text x="1203.000041" y="459.00000531" width="25.999915480000027" height="30.99998880000004" class="text">the </text>
<text x="1237.99996572" y="459.00000531" width="73.00006323999992" height="30.99998880000004" class="text">Attorney </text>
<text x="1320.0000382" y="459.00000531" width="72.99995788000001" height="30.99998880000004" class="text">General </text>
<text x="1397.99999536" y="459.00000531" width="62.00000511999997" height="30.99998880000004" class="text">intends</text>
<text x="1460.9999897999999" y="459.00000531" width="8.999991679999994" height="30.99998880000004" class="text">, </text>
<text x="1470.99995324" y="459.00000531" width="17.000029160000167" height="30.99998880000004" class="text">at </text>
<text x="1491.99999236" y="459.00000531" width="26.999992599999814" height="30.99998880000004" class="text">the </text>
<text x="1526.00003312" y="459.00000531" width="67.00000440000008" height="30.99998880000004" class="text">earliest
</text>
<text x="128.000006152" y="485.00002089" width="73.99999636800001" height="31.000034339999957" class="text">possible </text>
<text x="210.00000488" y="485.00002089" width="101.00001004" height="31.000034339999957" class="text">opportunity</text>
<text x="312.00000424" y="485.00002089" width="9.000009239999997" height="31.000034339999957" class="text">, </text>
<text x="322.00002036" y="485.00002089" width="16.99999403999999" height="31.000034339999957" class="text">to </text>
<text x="351.99999848" y="485.00002089" width="44.99999352000003" height="31.000034339999957" class="text">make </text>
<text x="398.9999882" y="485.00002089" width="48.00003171999998" height="31.000034339999957" class="text">these </text>
<text x="450.9999772" y="485.00002089" width="58.00001271999997" height="31.000034339999957" class="text">public </text>
<text x="512.9999998799999" y="485.00002089" width="100.00002072000007" height="31.000034339999957" class="text">documents </text>
<text x="615.0000167999999" y="485.00002089" width="78.99999916000013" height="31.000034339999957" class="text">available </text>
<text x="703.0000076399999" y="485.00002089" width="16.9999764800001" height="31.000034339999957" class="text">on </text>
<text x="732.99998576" y="485.00002089" width="24.999996399999986" height="31.000034339999957" class="text">the </text>
<text x="766.9999738399999" y="485.00002089" width="64.00001888000008" height="31.000034339999957" class="text">Internet </text>
<text x="839.0000302" y="485.00002089" width="17.999983359999987" height="31.000034339999957" class="text">on </text>
<text x="866.0000228" y="485.00002089" width="26.999939919999974" height="31.000034339999957" class="text">the </text>
<text x="896.0000009199999" y="485.00002089" width="110.00003684000012" height="31.000034339999957" class="text">Department </text>
<text x="1009.9999423600001" y="485.00002089" width="17.000029159999826" height="31.000034339999957" class="text">of </text>
<text x="1030.9999814799999" y="485.00002089" width="61.00005092000015" height="31.000034339999957" class="text">Justice </text>
<text x="1096.00004236" y="485.00002089" width="57.999995160000026" height="31.000034339999957" class="text">World </text>
<text x="1163.00004676" y="485.00002089" width="43.999898840000014" height="31.000034339999957" class="text">Wide </text>
<text x="1213.99999376" y="485.00002089" width="39.00004003999993" height="31.000034339999957" class="text">Web </text>
<text x="1266.00003544" y="485.00002089" width="28.99995368000009" height="31.000034339999957" class="text">site</text>
<text x="1291.99995092" y="485.00002089" width="9.000009240000054" height="31.000034339999957" class="text">.
</text>
<text x="132.00000382" y="532.00001052" width="56.00000774" height="27.00002844000005" class="text">Public </text>
<text x="192.00000396" y="533.00000061" width="88.99999772000004" height="28.000018530000034" class="text">Reporting </text>
<text x="289.99999336" y="533.00000061" width="64.00000131999997" height="27.000005670000007" class="text">Burden</text>
<text x="356.99999776" y="533.00000061" width="8.000002359999996" height="27.000005670000007" class="text">. </text>
<text x="370.99998872" y="534.00001347" width="58.00001272000003" height="28.000018529999977" class="text">Public </text>
<text x="434.99999004" y="534.00001347" width="80.99999536000001" height="27.00002844000005" class="text">reporting </text>
<text x="523.00003356" y="534.00001347" width="59.99995623999996" height="27.00002844000005" class="text">burden </text>
<text x="591.9999814800001" y="535.00000356" width="23.000035319999824" height="27.000005670000007" class="text">for </text>
<text x="622.0000122800001" y="535.00000356" width="29.00000635999993" height="27.000005670000007" class="text">this </text>
<text x="662.00002408" y="535.00000356" width="80.99999535999996" height="27.000005670000007" class="text">collection </text>
<text x="754.0000248800001" y="535.00000356" width="15.999987159999932" height="27.000005670000007" class="text">of </text>
<text x="774.9999937599999" y="537.0000065099999" width="103.00000624000006" height="29.00000861999996" class="text">information </text>
<text x="886.99999168" y="536.00001642" width="9.999980999999934" height="27.000028439999994" class="text">is </text>
<text x="908.0000308000001" y="537.0000065099999" width="80.99999535999996" height="28.000018529999977" class="text">estimated </text>
<text x="997.00004608" y="537.0000065099999" width="15.999934480000093" height="27.00000566999995" class="text">to </text>
<text x="1020.0000287199999" y="537.0000065099999" width="67.99997616000007" height="27.00000566999995" class="text">average </text>
<text x="1097.00001412" y="537.0000065099999" width="23.99995439999998" height="27.00000566999995" class="text">1.5 </text>
<text x="1128.00001668" y="538.00001937" width="46.99995459999991" height="28.000018530000034" class="text">hours </text>
<text x="1185.00005764" y="538.00001937" width="26.99999260000004" height="27.00002844000005" class="text">per </text>
<text x="1218.00000372" y="538.00001937" width="75.00004188000003" height="27.00002844000005" class="text">response</text>
<text x="1294.0000173600001" y="538.00001937" width="8.000019919999886" height="27.00002844000005" class="text">, </text>
<text x="1308.00000832" y="538.99998669" width="84.99998776000007" height="27.999995760000047" class="text">including </text>
<text x="1396.00003428" y="538.99998669" width="26.99999260000027" height="26.999982899999964" class="text">the </text>
<text x="1428.99999792" y="538.99998669" width="41.999955320000026" height="26.999982899999964" class="text">time </text>
<text x="1474.9999632" y="538.99998669" width="26.00002084000016" height="26.999982899999964" class="text">for </text>
<text x="1506.99995508" y="540.00002232" width="86.00008243999991" height="27.00002844000005" class="text">reviewing
</text>
<text x="132.00000382" y="563.99998941" width="102.99999746000003" height="31.999978889999966" class="text">instructions</text>
<text x="231.9999982" y="563.99998941" width="8.999991680000022" height="31.999978889999966" class="text">, </text>
<text x="244.99999984000002" y="563.99998941" width="86.99998395999998" height="31.999978889999966" class="text">searching </text>
<text x="332.99999068" y="563.99998941" width="70.00000748000002" height="31.999978889999966" class="text">existing </text>
<text x="414.0000036" y="563.99998941" width="33.000016319999986" height="31.999978889999966" class="text">data </text>
<text x="456.00002916" y="563.99998941" width="67.00000440000002" height="31.999978889999966" class="text">sources</text>
<text x="523.00003356" y="563.99998941" width="8.999991679999994" height="31.999978889999966" class="text">, </text>
<text x="532.00002524" y="563.99998941" width="82.9999915599999" height="31.999978889999966" class="text">gathering </text>
<text x="620.99998784" y="563.99998941" width="33.000016319999986" height="31.999978889999966" class="text">and </text>
<text x="665.99998136" y="563.99998941" width="100.00002072000007" height="31.999978889999966" class="text">maintaining </text>
<text x="774.9999937599999" y="563.99998941" width="27.0000101600001" height="31.999978889999966" class="text">the </text>
<text x="808.00001008" y="563.99998941" width="32.99996364000003" height="31.999978889999966" class="text">data </text>
<text x="848.9999936400001" y="563.99998941" width="60.99999823999997" height="31.999978889999966" class="text">needed</text>
<text x="909.99999188" y="563.99998941" width="8.999991679999994" height="31.999978889999966" class="text">, </text>
<text x="922.9999935200001" y="563.99998941" width="32.99996363999992" height="31.999978889999966" class="text">and </text>
<text x="962.00003356" y="563.99998941" width="98.00000696000006" height="31.999978889999966" class="text">completing </text>
<text x="1066.99998332" y="563.99998941" width="27.99996435999992" height="31.999978889999966" class="text">and </text>
<text x="1101.9999958399999" y="563.99998941" width="89.99998704000018" height="31.999978889999966" class="text">reviewing </text>
<text x="1195.00002108" y="563.99998941" width="27.99998192000021" height="31.999978889999966" class="text">the </text>
<text x="1230.00005116" y="563.99998941" width="84.99998775999984" height="31.999978889999966" class="text">collection </text>
<text x="1322.99997104" y="563.99998941" width="22.00001087999999" height="31.999978889999966" class="text">of </text>
<text x="1345.9999536799999" y="563.99998941" width="105.00005512000007" height="31.999978889999966" class="text">information</text>
<text x="1454.000047" y="563.99998941" width="8.999991679999994" height="31.999978889999966" class="text">. </text>
<text x="1469.00000972" y="563.99998941" width="41.999955320000026" height="31.999978889999966" class="text">Send </text>
<text x="1522.00002316" y="563.99998941" width="86.99994883999989" height="31.999978889999966" class="text">comments
</text>
<text x="129.999997084" y="589.99998222" width="84.000000196" height="30.999988799999983" class="text">regarding </text>
<text x="219.99998588000003" y="589.99998222" width="32.000009439999985" height="30.999988799999983" class="text">this </text>
<text x="261.00000456" y="589.99998222" width="56.999988280000025" height="30.999988799999983" class="text">burden </text>
<text x="328.99999828" y="589.99998222" width="73.00001056000002" height="30.999988799999983" class="text">estimate </text>
<text x="408.99998676" y="589.99998222" width="19.00000779999999" height="30.999988799999983" class="text">or </text>
<text x="430.99999764" y="589.99998222" width="36.000036960000045" height="30.999988799999983" class="text">any </text>
<text x="470.99999188" y="589.99998222" width="46.00001796000009" height="30.999988799999983" class="text">other </text>
<text x="521.0000198" y="589.99998222" width="58.00001271999997" height="30.999988799999983" class="text">aspect </text>
<text x="582.9999898" y="589.99998222" width="17.000011599999993" height="30.999988799999983" class="text">of </text>
<text x="606.99999688" y="589.99998222" width="29.00000635999993" height="30.999988799999983" class="text">this </text>
<text x="644.99999492" y="589.99998222" width="82.00001980000002" height="30.999988799999983" class="text">collection </text>
<text x="737.99996748" y="589.99998222" width="17.00002915999994" height="30.999988799999983" class="text">of </text>
<text x="761.99999212" y="589.99998222" width="100.00002072000007" height="30.999988799999983" class="text">information</text>
<text x="862.9999846" y="589.99998222" width="8.999991679999994" height="30.999988799999983" class="text">, </text>
<text x="875.99998624" y="589.99998222" width="83.00000911999996" height="30.999988799999983" class="text">including </text>
<text x="963.99997708" y="589.99998222" width="101.0000451599999" height="30.999988799999983" class="text">suggestions </text>
<text x="1073.00004216" y="589.99998222" width="25.999915480000027" height="30.999988799999983" class="text">for </text>
<text x="1103.9999569200002" y="589.99998222" width="77.00007319999986" height="30.999988799999983" class="text">reducing </text>
<text x="1188.99996224" y="589.99998222" width="30.000030800000104" height="30.999988799999983" class="text">this </text>
<text x="1223.99997476" y="589.99998222" width="61.00003335999986" height="30.999988799999983" class="text">burden </text>
<text x="1293.0000456" y="589.99998222" width="16.999906239999973" height="30.999988799999983" class="text">to </text>
<text x="1316.00002824" y="589.99998222" width="49.99997524000014" height="30.999988799999983" class="text">Chief</text>
<text x="1366.9999752400001" y="589.99998222" width="9.000009239999827" height="30.999988799999983" class="text">, </text>
<text x="1379.00002268" y="589.99998222" width="106.00002687999995" height="30.999988799999983" class="text">Registration </text>
<text x="1491.99999236" y="589.99998222" width="40.00001180000004" height="30.999988799999983" class="text">Unit</text>
<text x="1532.0000041600001" y="589.99998222" width="8.999991679999766" height="30.999988799999983" class="text">, </text>
<text x="1545.99999512" y="589.99998222" width="80.00000604000002" height="30.999988799999983" class="text">Criminal
</text>
<text x="128.999995472" y="609.00002163" width="76.00001012800001" height="25.000002719999998" class="text">Division</text>
<text x="207.0000018" y="609.00002163" width="6.9999954799999955" height="25.000002719999998" class="text">, </text>
<text x="217.00000036" y="609.99998895" width="42.999997320000034" height="25.999970039999994" class="text">U.S. </text>
<text x="261.99999388000003" y="609.99998895" width="107.99998795999994" height="24.99997995000001" class="text">Department </text>
<text x="376.00000556" y="609.99998895" width="19.00000780000005" height="24.99997995000001" class="text">of </text>
<text x="399.99999507999996" y="609.99998895" width="59.999991360000024" height="24.99997995000001" class="text">Justice</text>
<text x="459.99998644" y="609.99998895" width="7.000048160000063" height="24.99997995000001" class="text">, </text>
<text x="470.00000256000004" y="610.99997904" width="107.00001619999995" height="25.999970039999994" class="text">Washington</text>
<text x="580.00000428" y="610.99997904" width="6.999995480000052" height="24.99997995000001" class="text">, </text>
<text x="588.0000242" y="610.99997904" width="31.99999188000004" height="24.99997995000001" class="text">DC </text>
<text x="629.00000776" y="610.99997904" width="56.999970719999965" height="24.99997995000001" class="text">20530</text>
<text x="687.00002048" y="610.99997904" width="6.999995480000052" height="24.99997995000001" class="text">; </text>
<text x="698.99999768" y="612.00003744" width="28.00001703999999" height="26.000038350000068" class="text">and </text>
<text x="734.0000102" y="612.00003744" width="18.000000919999934" height="25.000071030000072" class="text">to </text>
<text x="761.00002036" y="612.00003744" width="23.99995439999998" height="25.000071030000072" class="text">the </text>
<text x="792.00002292" y="612.00003744" width="51.99998900000003" height="25.000071030000072" class="text">Office </text>
<text x="853.9999929200001" y="612.00003744" width="17.999983359999874" height="25.000071030000072" class="text">of </text>
<text x="877.00002824" y="613.00002753" width="102.99998867999989" height="26.000061120000055" class="text">Information </text>
<text x="989.0000261600001" y="613.00002753" width="27.99996435999992" height="25.000002719999998" class="text">and </text>
<text x="1024.00003868" y="613.00002753" width="100.99993979999999" height="25.000002719999998" class="text">Regulatory </text>
<text x="1133.00001596" y="613.99999485" width="57.999995160000026" height="25.999970039999994" class="text">Affairs</text>
<text x="1195.00002108" y="613.99999485" width="6.999942800000099" height="24.99997995000001" class="text">, </text>
<text x="1204.00003032" y="613.99999485" width="55.999946279999904" height="24.99997995000001" class="text">Office </text>
<text x="1266.00003544" y="613.99999485" width="18.999972679999928" height="24.99997995000001" class="text">of </text>
<text x="1286.9999692" y="614.99998494" width="123.00005604000012" height="25.999970039999994" class="text">Management </text>
<text x="1414.0000352000002" y="614.99998494" width="27.999981919999755" height="25.999970039999994" class="text">and </text>
<text x="1452.99996988" y="614.99998494" width="62.99999443999991" height="25.000002719999998" class="text">Budget</text>
<text x="1517.00004144" y="614.99998494" width="6.999942800000099" height="25.000002719999998" class="text">, </text>
<text x="1527.9999942" y="614.99998494" width="103.99997800000006" height="25.000002719999998" class="text">Washington</text>
<text x="1636.99995392" y="614.99998494" width="7.000048160000006" height="25.000002719999998" class="text">,
</text>
<text x="128.000006152" y="630.99998577" width="30.999993779999983" height="20.99999681999998" class="text">DC </text>
<text x="170.999994692" y="631.99997586" width="56.000021788000026" height="21.99998690999996" class="text">20503</text>
<text x="227.00001648000003" y="631.99997586" width="5.999988599999995" height="20.99999681999998" class="text">.
</text>
<text x="147.999996248" y="718.0000343999999" width="25.000005179999988" height="32.000024429999826" class="text">1. </text>
<text x="179.00000232" y="719.00000172" width="68.00001128" height="32.00000165999995" class="text">Name </text>
<text x="257.99998392000003" y="719.99999181" width="23.00001775999999" height="31.00001156999997" class="text">of </text>
<text x="283.00001543999997" y="723.99999771" width="123.00000336000005" height="35.00001746999999" class="text">Registrant
</text>
<text x="904.0000208399999" y="724.9999878" width="23.999954400000206" height="32.00002442999994" class="text">2. </text>
<text x="936.99998448" y="724.9999878" width="134.99998056000004" height="33.99998183999992" class="text">Registration </text>
<text x="1080.9999742799998" y="723.99999771" width="44.99999352000009" height="32.00000165999995" class="text">No.
</text>
<text x="170.999994692" y="805.9999820400001" width="120.00000554800002" height="30.99996603000011" class="text">Holland </text>
<text x="314.99998976" y="805.9999820400001" width="9.000009239999997" height="29.999975940000013" class="text">&amp; </text>
<text x="345.00000300000005" y="808.0000305299999" width="102.00001691999995" height="32.000024429999826" class="text">Knight </text>
<text x="468.00000636" y="808.0000305299999" width="50.99999968000003" height="30.00004424999986" class="text">LLP
</text>
<text x="918.0000118" y="804.9999919500001" width="67.00000439999997" height="24.99997995000001" class="text">3718
</text>
<text x="128.999995472" y="927.99997983" width="24.000001811999994" height="32.00000165999995" class="text">3. </text>
<text x="166.999997024" y="930.00002832" width="45.99999337599999" height="32.999991749999936" class="text">This </text>
<text x="220.99999276" y="930.99999564" width="129.99999884000005" height="33.99995906999993" class="text">amendment </text>
<text x="356.99999776" y="930.99999564" width="19.00000779999999" height="32.000001660000066" class="text">is </text>
<text x="384.00000792" y="932.99997582" width="46.99998972000003" height="33.999981840000146" class="text">filed </text>
<text x="439.99997176000005" y="931.99998573" width="19.00002535999994" height="32.000001660000066" class="text">to </text>
<text x="468.00000636" y="934.00001145" width="125.99998887999999" height="34.000027380000006" class="text">accomplish </text>
<text x="604.00001136" y="934.00001145" width="31.999991879999925" height="32.000001660000066" class="text">the </text>
<text x="644.99999492" y="935.9999916300001" width="105.99999176000006" height="33.999981840000146" class="text">following </text>
<text x="756.99999284" y="936.9999589500001" width="100.00002071999995" height="33.99995907000016" class="text">indicated </text>
<text x="868.000019" y="938.00001735" width="87.99993816000006" height="34.00005014999999" class="text">purpose </text>
<text x="963.99997708" y="938.00001735" width="24.000077319999946" height="32.000001660000066" class="text">or </text>
<text x="991.999959" y="939.9999975300001" width="101.00004516000013" height="33.999981840000146" class="text">purposes</text>
<text x="1096.00004236" y="939.00000744" width="8.999991679999994" height="32.000001660000066" class="text">:
</text>
<text x="164.00000096800002" y="999.00002763" width="9.000000459999967" height="32.999991749999936" class="text">◉ </text>
<text x="203.0000094" y="999.99999495" width="24.000007080000017" height="33.99995906999993" class="text">To </text>
<text x="240.00000056" y="1000.99998504" width="78.99999916000002" height="34.999949159999915" class="text">correct </text>
<text x="325.9999952" y="999.99999495" width="9.000009239999997" height="32.999991749999936" class="text">a </text>
<text x="340.00000372" y="1001.99997513" width="114.00001168000006" height="34.999971930000015" class="text">deficiency </text>
<text x="465.99999260000004" y="1001.99997513" width="13.000019199999997" height="32.99999175000005" class="text">in
</text>
<text x="937.9999562400001" y="1001.99997513" width="9.000009239999827" height="29.999975940000127" class="text">◉ </text>
<text x="975.0000352000001" y="1001.99997513" width="27.99998191999987" height="29.999975940000127" class="text">To </text>
<text x="1012.99998056" y="1003.00001076" width="47.000059960000044" height="31.000011570000083" class="text">give </text>
<text x="1066.99998332" y="1003.00001076" width="8.999991679999994" height="30.000021479999987" class="text">a </text>
<text x="1088.00000488" y="1003.00001076" width="22.00001087999999" height="30.000021479999987" class="text">10</text>
<text x="1115.00001504" y="1003.00001076" width="8.999991679999994" height="30.000021479999987" class="text">-</text>
<text x="1127.00004492" y="1003.00001076" width="33.99993539999991" height="30.000021479999987" class="text">day </text>
<text x="1169.9999719999998" y="1003.00001076" width="66.0000326400002" height="30.000021479999987" class="text">notice </text>
<text x="1246.9999574" y="1003.00001076" width="22.00001087999999" height="30.000021479999987" class="text">of </text>
<text x="1277.9999775200001" y="1004.00000085" width="75.99999607999985" height="31.00001156999997" class="text">change </text>
<text x="1361.99999352" y="1004.00000085" width="17.00002915999994" height="29.999975940000013" class="text">in </text>
<text x="1392.99999608" y="1004.99999094" width="125.00001711999994" height="30.999966029999996" class="text">information </text>
<text x="1528.99996596" y="1004.99999094" width="22.00001087999999" height="29.999975940000013" class="text">as
</text>
<text x="936.00001272" y="1036.9999926" width="90.99995879999994" height="29.999975940000013" class="text">required </text>
<text x="1035.9999632" y="1036.9999926" width="28.000087280000116" height="29.999975940000013" class="text">by </text>
<text x="1071.99996504" y="1036.00002528" width="82.00007247999997" height="30.000044249999974" class="text">Section </text>
<text x="1164.0000185200001" y="1036.00002528" width="8.999991679999994" height="30.000044249999974" class="text">2</text>
<text x="1178.9999812400001" y="1036.00002528" width="8.999991679999994" height="30.000044249999974" class="text">(</text>
<text x="1187.9999729200001" y="1036.00002528" width="9.000009239999827" height="30.000044249999974" class="text">b</text>
<text x="1203.000041" y="1036.00002528" width="9.000009240000054" height="30.000044249999974" class="text">) </text>
<text x="1215.9999548399999" y="1036.00002528" width="28.000069720000283" height="30.000044249999974" class="text">of </text>
<text x="1249.9999956" y="1036.00002528" width="30.000030800000104" height="30.000044249999974" class="text">the </text>
<text x="1290.99997916" y="1036.00002528" width="39.00002247999987" height="30.000044249999974" class="text">Act</text>
<text x="1329.00002988" y="1035.00003519" width="9.000009240000054" height="30.000044250000087" class="text">.
</text>
<text x="236.00000816" y="1094.9999870699999" width="6.999995480000024" height="25.000002719999884" class="text">☐ </text>
<text x="271.00000312000003" y="1097.00001279" width="65.99999751999997" height="27.00002844000005" class="text">Initial </text>
<text x="343.99999612" y="1098.00000288" width="110.99999104" height="27.00002844000005" class="text">Statement
</text>
<text x="233.00000508000002" y="1168.00006059" width="8.999991679999965" height="31.000034339999957" class="text">☐ </text>
<text x="271.00000312000003" y="1170.000018" width="154.99999523999998" height="32.999991749999936" class="text">Supplemental </text>
<text x="432.00000452" y="1169.00002791" width="111.99999792" height="31.00001156999997" class="text">Statement </text>
<text x="550.9999979199999" y="1170.000018" width="29.999978120000037" height="32.00000165999995" class="text">for </text>
<text x="588.0000242" y="1170.000018" width="34.999959839999974" height="31.000034339999957" class="text">the </text>
<text x="629.00000776" y="1170.000018" width="69.99998991999996" height="31.000034339999957" class="text">period </text>
<text x="707.99998936" y="1170.000018" width="72.00000367999996" height="31.000034339999957" class="text">ending</text>
<text x="788.0000129599999" y="1171.00000809" width="8.999991679999994" height="31.000034339999957" class="text">.
</text>
<text x="226.0000096" y="1236.0000015" width="9.999998559999995" height="32.99999175000016" class="text">☑ </text>
<text x="266.99999316" y="1237.99995891" width="65.99999752000002" height="33.99995906999993" class="text">Other </text>
<text x="335.99999376" y="1238.999949" width="92.00000080000001" height="33.99998183999992" class="text">purpose </text>
<text x="437.99999312" y="1239.99993909" width="9.999998559999995" height="32.99999175000016" class="text">(</text>
<text x="447.99999168" y="1241.00004303" width="73.99999988000002" height="34.00009569000008" class="text">specify</text>
<text x="526.99999084" y="1241.00004303" width="10.000016120000055" height="32.99999174999971" class="text">)
</text>
<text x="573.0000087999999" y="1241.00004303" width="24.999996399999986" height="32.99999174999971" class="text">To </text>
<text x="620.99998784" y="1241.00004303" width="47.00000727999998" height="32.99999174999971" class="text">add </text>
<text x="692.99997396" y="1241.00004303" width="9.000009240000054" height="32.99999174999971" class="text">a </text>
<text x="721.99998032" y="1241.00004303" width="48.00003172000004" height="32.99999174999971" class="text">new </text>
<text x="797.99999396" y="1241.00004303" width="114.00004680000006" height="32.99999174999971" class="text">foreign </text>
<text x="930.00004168" y="1241.00004303" width="157.99996320000002" height="32.99999174999971" class="text">principal
</text>
<text x="162.99999935600002" y="1302.9999750900001" width="8.999998703999978" height="31.000034339999957" class="text">☐ </text>
<text x="198.00001012" y="1302.9999750900001" width="29.000006360000015" height="31.000034339999957" class="text">To </text>
<text x="238.00000436" y="1303.9999424100001" width="44.00000419999998" height="32.00000165999995" class="text">give </text>
<text x="287.99999716" y="1303.9999424100001" width="68.00001127999997" height="30.99987495000005" class="text">notice </text>
<text x="368.00000320000004" y="1303.9999424100001" width="21.99999331999993" height="30.99987495000005" class="text">of </text>
<text x="396.00000267999997" y="1304.9999324999999" width="74.99998920000002" height="31.999865039999804" class="text">change </text>
<text x="479.99998356" y="1304.9999324999999" width="18.000000920000048" height="30.999897719999808" class="text">in </text>
<text x="510.00001435999997" y="1304.9999324999999" width="22.99998264000004" height="30.999897719999808" class="text">an </text>
<text x="541.00001692" y="1304.9999324999999" width="80.99999536000007" height="30.999897719999808" class="text">exhibit </text>
<text x="627.0000115600001" y="1307.0000493" width="111.99999791999994" height="33.00001451999992" class="text">previously </text>
<text x="750.00001492" y="1306.00005921" width="45.99996527999997" height="31.000034340000184" class="text">filed</text>
<text x="799.0000184" y="1306.00005921" width="8.999991679999994" height="31.000034340000184" class="text">.
</text>
<text x="1521.0000513999998" y="1322.00006004" width="54.99997452000002" height="97.99998516000005" class="text">20:11
</text>
<text x="127.000002784" y="1374.00000012" width="24.000001811999994" height="32.00000165999995" class="text">4. </text>
<text x="161.000006668" y="1374.00000012" width="17.999995651999996" height="32.00000165999995" class="text">If </text>
<text x="187.00000468" y="1374.9999902099999" width="35.99998428000001" height="32.99999174999971" class="text">this </text>
<text x="229.99998444000002" y="1375.9999803" width="135.00001567999996" height="33.99998183999992" class="text">amendment </text>
<text x="367.00001388" y="1376.99994762" width="93.99999700000001" height="33.99995907000016" class="text">requires </text>
<text x="467.00003460000005" y="1376.99994762" width="32.999946079999916" height="32.99999175000016" class="text">the </text>
<text x="510.99998612" y="1376.99994762" width="57.00004095999998" height="32.00000166000018" class="text">filing </text>
<text x="575.00002256" y="1376.99994762" width="23.99995439999998" height="32.00000166000018" class="text">of </text>
<text x="605.0000006800001" y="1376.99994762" width="8.999991679999994" height="32.00000166000018" class="text">a </text>
<text x="622.0000122800001" y="1379.00006442" width="110.99997347999988" height="34.00011846000007" class="text">document </text>
<text x="737.99996748" y="1377.99993771" width="24.000024639999992" height="31.99986504000003" class="text">or </text>
<text x="770.00001204" y="1380.0000317400002" width="118.99994072000004" height="33.99995907000016" class="text">documents</text>
<text x="890.0000298799999" y="1379.00006442" width="9.000009240000168" height="32.00002442999994" class="text">, </text>
<text x="900.0000108799999" y="1380.0000317400002" width="72.99997544000018" height="32.99999175000016" class="text">please </text>
<text x="979.00004516" y="1380.0000317400002" width="37.99994535999997" height="32.00000166000018" class="text">list-
</text>
<text x="205.99999492" y="1462.0000388400001" width="134.0000088" height="32.00002443000017" class="text">Exhibits </text>
<text x="365.00000012" y="1461.00004875" width="9.000009239999997" height="30.000044249999746" class="text">A </text>
<text x="395.00001336" y="1461.00004875" width="46.99997215999997" height="30.000044249999746" class="text">and </text>
<text x="467.00003460000005" y="1461.00004875" width="8.999991679999937" height="30.000044249999746" class="text">B </text>
<text x="501.00002268" y="1461.00004875" width="27.999964360000092" height="30.000044249999746" class="text">to </text>
<text x="550.9999979199999" y="1463.00000616" width="203.99999872" height="32.00000165999995" class="text">Registration </text>
<text x="775.99998308" y="1463.9999962499999" width="152.9999814800001" height="32.00000165999995" class="text">Statement</text>
<text x="935.0000234" y="1463.00000616" width="9.00000923999994" height="30.0000442500002" class="text">; </text>
<text x="966.0000435200001" y="1463.00000616" width="46.99993703999996" height="30.0000442500002" class="text">two </text>
<text x="1034.0000196800002" y="1463.00000616" width="84.00001599999996" height="30.0000442500002" class="text">Short </text>
<text x="1139.9999412" y="1463.9999962499999" width="69.00007084000003" height="30.000044249999974" class="text">Form </text>
<text x="1223.000003" y="1464.99998634" width="202.99995671999977" height="32.00002443000017" class="text">Registration </text>
<text x="1447.9999706" y="1465.99995366" width="170.9999823999999" height="32.00000166000018" class="text">Statements
</text>
<text x="124.99999780400002" y="1645.99994592" width="24.00000181199998" height="32.00000165999995" class="text">5. </text>
<text x="158.99999993199998" y="1647.00007263" width="53.99999046800002" height="33.00012836999986" class="text">Each </text>
<text x="223.99999584" y="1647.00007263" width="46.000000399999976" height="32.00002442999994" class="text">item </text>
<text x="278.99998792" y="1647.00007263" width="86.00001219999996" height="32.00002442999994" class="text">checked </text>
<text x="378.99999108" y="1648.00003995" width="64.00001888000003" height="32.00000165999995" class="text">above </text>
<text x="457.00000092000005" y="1648.00003995" width="49.00000347999992" height="32.00000165999995" class="text">must </text>
<text x="510.99998612" y="1648.00003995" width="29.00000635999993" height="32.00000165999995" class="text">be </text>
<text x="546.99998796" y="1650.00002013" width="107.0000162" height="33.99998183999992" class="text">explained </text>
<text x="660.9999996399999" y="1649.00003004" width="60.99998068000002" height="32.00000166000018" class="text">below </text>
<text x="736.99999572" y="1650.00002013" width="19.000025359999995" height="32.00002442999971" class="text">in </text>
<text x="766.9999738399999" y="1650.00002013" width="40.00001180000004" height="32.00002442999971" class="text">full </text>
<text x="808.99998184" y="1650.00002013" width="65.00000820000002" height="32.00002442999971" class="text">detail </text>
<text x="878.99997176" y="1651.9999775400001" width="92.00005348000013" height="33.99998183999992" class="text">together </text>
<text x="973.99995808" y="1650.99998745" width="47.000042399999984" height="32.00000165999995" class="text">with</text>
<text x="1025.0000280000002" y="1650.99998745" width="8.999991679999994" height="32.00000165999995" class="text">, </text>
<text x="1038.00002964" y="1651.9999775400001" width="67.00000439999985" height="32.99999175000016" class="text">where </text>
<text x="1115.00001504" y="1652.99996763" width="126.99996063999993" height="33.99998183999992" class="text">appropriate</text>
<text x="1245.99998564" y="1651.9999775400001" width="8.999991679999994" height="32.00000166000018" class="text">, </text>
<text x="1258.9999872800001" y="1652.99996763" width="85.99999463999984" height="32.00000165999995" class="text">specific </text>
<text x="1351.00004076" y="1653.99995772" width="103.00000623999995" height="32.99999175000016" class="text">reference </text>
<text x="1464.0000280000002" y="1653.99995772" width="17.99998335999976" height="32.00002443000017" class="text">to </text>
<text x="1496.00000232" y="1653.99995772" width="36.000001840000095" height="32.00002443000017" class="text">and </text>
<text x="1540.00002408" y="1655.00006166" width="78.99992892" height="33.000128370000084" class="text">identity
</text>
<text x="124.99999780400002" y="1682.0000217900001" width="25.000003423999985" height="32.99999175000016" class="text">of </text>
<text x="152.999997284" y="1682.0000217900001" width="33.00000051600003" height="32.99999175000016" class="text">the </text>
<text x="192.00000396" y="1683.00001188" width="49.9999928" height="32.99999175000016" class="text">item </text>
<text x="249.99999912" y="1683.00001188" width="15.000015400000024" height="32.99999175000016" class="text">in </text>
<text x="277.99999859999997" y="1683.00001188" width="33.00001632000004" height="32.99999175000016" class="text">the </text>
<text x="317.00000352" y="1684.9999692899999" width="128.99999196" height="34.999949159999915" class="text">registration </text>
<text x="456.00002916" y="1685.99995938" width="108.99995972000005" height="34.99997193000013" class="text">statement </text>
<text x="568.99999884" y="1684.9999692899999" width="19.000025359999995" height="32.99999174999971" class="text">to </text>
<text x="593.99999524" y="1685.99995938" width="66.00001508000003" height="33.99998183999992" class="text">which </text>
<text x="671.00001576" y="1685.99995938" width="18.999972679999928" height="32.99999175000016" class="text">it </text>
<text x="692.0000022" y="1686.9999494699998" width="91.00001148000001" height="33.99998183999992" class="text">pertains</text>
<text x="783.00001368" y="1686.9999494699998" width="9.00000923999994" height="32.99999174999971" class="text">. </text>
<text x="806.00001388" y="1686.9999494699998" width="8.999991679999994" height="32.99999174999971" class="text">(</text>
<text x="813.0000093599999" y="1686.9999494699998" width="18.99997268000004" height="32.99999174999971" class="text">If </text>
<text x="839.0000302" y="1686.9999494699998" width="62.99992420000001" height="32.99999174999971" class="text">space </text>
<text x="909.00000256" y="1688.00005341" width="18.999972680000155" height="34.00009568999985" class="text">is </text>
<text x="935.0000234" y="1689.0000435" width="129.00002708" height="35.000085779999836" class="text">insufficient</text>
<text x="1060.00004052" y="1688.00005341" width="8.999991679999994" height="32.999991749999936" class="text">, </text>
<text x="1076.99996432" y="1689.0000435" width="8.999991679999994" height="32.999991749999936" class="text">a </text>
<text x="1102.9999676" y="1689.0000435" width="42.00007823999999" height="32.999991749999936" class="text">full </text>
<text x="1150.99999932" y="1689.0000435" width="63.99998376000008" height="32.999991749999936" class="text">insert </text>
<text x="1221.0000419199998" y="1690.00003359" width="54.00000276000014" height="32.999991749999936" class="text">page </text>
<text x="1290.0000074" y="1690.00003359" width="49.99997523999991" height="32.999991749999936" class="text">must </text>
<text x="1345.9999536799999" y="1691.00000091" width="25.000049080000053" height="33.99995906999993" class="text">be </text>
<text x="1379.00002268" y="1691.00000091" width="50.99994700000002" height="32.999991749999936" class="text">used</text>
<text x="1429.99996968" y="1691.00000091" width="9.000009240000054" height="32.999991749999936" class="text">.</text>
<text x="1439.99995068" y="1691.00000091" width="8.999991679999994" height="32.999991749999936" class="text">)
</text>
<text x="171.99999806" y="1737.00004599" width="66.99999562000002" height="31.00001156999997" class="text">This </text>
<text x="257.99998392000003" y="1739.00002617" width="153.00001659999998" height="32.999991749999936" class="text">amendment </text>
<text x="433.0000114" y="1738.00003608" width="27.999999479999985" height="31.000034340000184" class="text">is </text>
<text x="481.000008" y="1739.00002617" width="85.00000532000001" height="31.000034339999957" class="text">filed </text>
<text x="584.9999859999999" y="1739.00002617" width="31.000020120000045" height="31.000034339999957" class="text">to </text>
<text x="636.999975" y="1740.9999835800002" width="135.00005080000005" height="32.99999175000016" class="text">register </text>
<text x="790.99999848" y="1741.99997367" width="122.00001403999988" height="32.99999174999971" class="text">Holland </text>
<text x="934.00005164" y="1740.9999835800002" width="8.999991679999994" height="31.000011570000197" class="text">&amp; </text>
<text x="964.99994884" y="1742.9999637600001" width="138.00001876" height="32.99999175000016" class="text">Knight's </text>
<text x="1119.99999676" y="1742.9999637600001" width="237.0000150400001" height="32.99999175000016" class="text">representation </text>
<text x="1379.99999444" y="1742.9999637600001" width="35.00001251999993" height="30.999897720000263" class="text">of </text>
<text x="1436.00004608" y="1742.9999637600001" width="8.999991679999994" height="30.999897720000263" class="text">a </text>
<text x="1464.0000280000002" y="1743.9999310800001" width="48.000014159999864" height="30.99987495000005" class="text">new
</text>
<text x="170.000005372" y="1778.00004954" width="119.99998798800002" height="36.000075870000046" class="text">foreign </text>
<text x="307.00000496" y="1778.00004954" width="156.00000211999998" height="36.000075870000046" class="text">principal</text>
<text x="468.00000636" y="1778.00004954" width="9.999963440000045" height="36.000075870000046" class="text">, </text>
<text x="497.99998448" y="1778.00004954" width="51.00001723999998" height="36.000075870000046" class="text">the </text>
<text x="566.00001332" y="1778.00004954" width="173.99996792000002" height="36.000075870000046" class="text">Government </text>
<text x="756.99999284" y="1778.00004954" width="33.000016319999986" height="36.000075870000046" class="text">of </text>
<text x="812.00002004" y="1778.00004954" width="47.00000728000009" height="36.000075870000046" class="text">the </text>
<text x="875.00001448" y="1778.00004954" width="105.99999176000006" height="36.000075870000046" class="text">United </text>
<text x="998.00001784" y="1778.00004954" width="125.00001711999994" height="36.000075870000046" class="text">Kingdom</text>
<text x="1127.00004492" y="1778.00004954" width="9.999980999999934" height="36.000075870000046" class="text">, </text>
<text x="1158.00004748" y="1778.00004954" width="45.99998284000003" height="36.000075870000046" class="text">and </text>
<text x="1226.0000412" y="1778.00004954" width="26.99999260000004" height="36.000075870000046" class="text">to </text>
<text x="1276.0000164399999" y="1778.00004954" width="118.99994072000004" height="36.000075870000046" class="text">provide </text>
<text x="1418.0000451600001" y="1778.00004954" width="62.99999443999991" height="36.000075870000046" class="text">such
</text>
<text x="171.99999806" y="1806.99996708" width="119.00000218000002" height="28.99991754000007" class="text">further </text>
<text x="312.00000424" y="1808.99994726" width="183.99996647999996" height="30.999897720000035" class="text">information </text>
<text x="517.0000098400001" y="1808.99994726" width="31.00000255999987" height="29.999907630000052" class="text">as </text>
<text x="568.99999884" y="1808.99994726" width="31.000002559999984" height="28.999940310000056" class="text">is </text>
<text x="620.99998784" y="1810.0000512" width="133.00003704000005" height="30.000044249999974" class="text">required </text>
<text x="774.9999937599999" y="1810.0000512" width="83.00000912000007" height="29.00005415999999" class="text">under </text>
<text x="878.0" y="1810.0000512" width="116.9999796400001" height="29.00005415999999" class="text">Section </text>
<text x="1021.00000048" y="1811.0000412900001" width="8.00003748000006" height="29.000054160000218" class="text">2 </text>
<text x="1042.0000396" y="1811.0000412900001" width="7.999914559999979" height="29.000054160000218" class="text">(</text>
<text x="1052.99999236" y="1811.0000412900001" width="8.000019919999886" height="29.000054160000218" class="text">b</text>
<text x="1074.00003148" y="1811.0000412900001" width="8.000019919999886" height="29.000054160000218" class="text">) </text>
<text x="1101.00002408" y="1811.0000412900001" width="36.999973599999976" height="29.000054160000218" class="text">of </text>
<text x="1155.0000092799999" y="1811.0000412900001" width="66.00003263999997" height="29.000054160000218" class="text">FARA</text>
<text x="1230.00005116" y="1811.0000412900001" width="7.999914559999979" height="29.000054160000218" class="text">.
</text>
<text x="1521.0000513999998" y="2184.00005637" width="42.999927080000134" height="16.000000829999863" class="text">FORM </text>
<text x="1573.99995948" y="2184.00005637" width="32.00009724000006" height="16.000000829999863" class="text">CRM</text>
<text x="1608.9999719999998" y="2184.00005637" width="4.000027520000231" height="16.000000829999863" class="text">-</text>
<text x="1616.00002016" y="2184.00005637" width="23.00000019999993" height="16.000000829999863" class="text">158
</text>
<text x="1568.99997776" y="2202.00003738" width="26.999992599999814" height="15.000033509999867" class="text">SEP</text>
<text x="1599.9999803199998" y="2203.0000047" width="4.00000996000017" height="15.000010740000107" class="text">. </text>
<text x="1608.0000002400002" y="2203.0000047" width="30.000030799999877" height="15.000010740000107" class="text">1996
</text>
</g>
<g id="page-1" transform="translate(0, 2297)">
<rect width="1756" height="2277" fill="none" stroke="black" />
<text x="785.9999992" y="200.00000354399998" width="203.00002696" height="32.00000849099999" class="text">EXECUTION
</text>
<text x="230.99999131999996" y="275.00000715" width="19.00000780000005" height="34.00000460999999" class="text">In </text>
<text x="261.00000456" y="275.00000715" width="126.99997820000004" height="34.00000460999999" class="text">accordance </text>
<text x="395.00001336" y="275.00000715" width="43.999986639999975" height="34.00000460999999" class="text">with </text>
<text x="454.99998716" y="275.00000715" width="24.999996399999986" height="34.00000460999999" class="text">28 </text>
<text x="486.99997904" y="275.00000715" width="81.00004803999997" height="34.00000460999999" class="text">U.S.C. </text>
<text x="573.99998056" y="275.00000715" width="10.000033680000001" height="34.00000460999999" class="text">§ </text>
<text x="593.00000592" y="275.00000715" width="58.00001271999997" height="34.00000460999999" class="text">1746</text>
<text x="651.9999904" y="275.00000715" width="10.000033680000001" height="34.00000460999999" class="text">, </text>
<text x="662.99999584" y="275.00000715" width="33.99998807999998" height="34.00000460999999" class="text">the </text>
<text x="705.99999316" y="275.00000715" width="134.00000879999993" height="34.00000460999999" class="text">undersigned </text>
<text x="849.9999654" y="275.00000715" width="63.00004711999998" height="34.00000460999999" class="text">swear</text>
<text x="914.0000018400001" y="275.00000715" width="9.99996343999976" height="34.00000460999999" class="text">(</text>
<text x="923.9999652799999" y="275.00000715" width="10.000086360000182" height="34.00000460999999" class="text">s</text>
<text x="937.9999562400001" y="275.00000715" width="10.000086359999841" height="34.00000460999999" class="text">) </text>
<text x="949.99998612" y="275.00000715" width="26.000020839999934" height="34.00000460999999" class="text">or </text>
<text x="982.9999497599999" y="275.00000715" width="64.00007156000015" height="34.00000460999999" class="text">affirm</text>
<text x="1049.99995416" y="275.00000715" width="10.000086360000068" height="34.00000460999999" class="text">(</text>
<text x="1060.00004052" y="275.00000715" width="9.999980999999934" height="34.00000460999999" class="text">s</text>
<text x="1070.00002152" y="275.00000715" width="9.999963439999874" height="34.00000460999999" class="text">) </text>
<text x="1085.9999559999999" y="275.00000715" width="67.00000440000008" height="34.00000460999999" class="text">under </text>
<text x="1158.00004748" y="275.00000715" width="76.99998540000001" height="34.00000460999999" class="text">penalty </text>
<text x="1246.9999574" y="275.00000715" width="25.000049079999826" height="34.00000460999999" class="text">of </text>
<text x="1272.00000648" y="275.00000715" width="80.00000604000002" height="34.00000460999999" class="text">perjury </text>
<text x="1365.00003172" y="275.00000715" width="40.99998355999992" height="34.00000460999999" class="text">that </text>
<text x="1407.9999588" y="275.00000715" width="31.000020120000045" height="34.00000460999999" class="text">he</text>
<text x="1438.00000716" y="275.00000715" width="9.999963440000101" height="34.00000460999999" class="text">/</text>
<text x="1447.9999706" y="275.00000715" width="35.00003007999999" height="34.00000460999999" class="text">she </text>
<text x="1491.99999236" y="275.00000715" width="32.999963639999805" height="34.00000460999999" class="text">has </text>
<text x="1544.00003404" y="275.00000715" width="46.99995460000014" height="34.00000460999999" class="text">they
</text>
<text x="124.99999780400002" y="309.99997908" width="52.00000831599998" height="36.99997487999997" class="text">have </text>
<text x="197.00000323999998" y="309.99997908" width="47.99999660000003" height="36.99997487999997" class="text">read </text>
<text x="255.00001595999998" y="309.99997908" width="30.999967439999978" height="36.99997487999997" class="text">the </text>
<text x="294.99999264" y="309.99997908" width="128.0000202" height="36.99997487999997" class="text">information </text>
<text x="434.00001828" y="309.99997908" width="31.999974320000035" height="36.99997487999997" class="text">set </text>
<text x="470.99999188" y="309.99997908" width="50.99999968000003" height="36.99997487999997" class="text">forth </text>
<text x="530.00001148" y="309.99997908" width="20.99998643999993" height="36.99997487999997" class="text">in </text>
<text x="562.00000336" y="309.99997908" width="35.00001251999993" height="36.99997487999997" class="text">this </text>
<text x="607.99996864" y="309.99997908" width="125.00001711999994" height="36.99997487999997" class="text">registration </text>
<text x="741.00000568" y="309.99997908" width="110.99997348" height="36.99997487999997" class="text">statement </text>
<text x="855.99998912" y="309.99997908" width="36.999973599999976" height="36.99997487999997" class="text">and </text>
<text x="900.0000108799999" y="309.99997908" width="31.999991880000152" height="36.99997487999997" class="text">the </text>
<text x="945.0000044" y="309.99997908" width="86.99994884" height="36.99997487999997" class="text">attached </text>
<text x="1044.99997244" y="309.99997908" width="87.00005420000002" height="36.99997487999997" class="text">exhibits </text>
<text x="1134.99995948" y="309.99997908" width="43.0000500000001" height="36.99997487999997" class="text">and </text>
<text x="1186.0000294" y="309.99997908" width="41.999955320000254" height="36.99997487999997" class="text">that </text>
<text x="1231.00002292" y="309.99997908" width="27.99996436000015" height="36.99997487999997" class="text">he</text>
<text x="1258.00001552" y="309.99997908" width="10.999952760000042" height="36.99997487999997" class="text">/</text>
<text x="1267.0000247599999" y="309.99997908" width="35.99998428000026" height="36.99997487999997" class="text">she </text>
<text x="1311.00002896" y="309.99997908" width="20.999933759999976" height="36.99997487999997" class="text">is </text>
<text x="1335.99997268" y="309.99997908" width="11.000058120000176" height="36.99997487999997" class="text">(</text>
<text x="1349.9999636399998" y="309.99997908" width="46.000070640000104" height="36.99997487999997" class="text">they </text>
<text x="1403.99994884" y="309.99997908" width="32.00009724000006" height="36.99997487999997" class="text">are</text>
<text x="1436.00004608" y="309.99997908" width="10.999952760000042" height="36.99997487999997" class="text">) </text>
<text x="1451.99998056" y="309.99997908" width="90.99997636000012" height="36.99997487999997" class="text">familiar </text>
<text x="1550.00000508" y="309.99997908" width="43.00003244000004" height="36.99997487999997" class="text">with </text>
<text x="1603.0000185200001" y="309.99997908" width="31.999974319999865" height="36.99997487999997" class="text">the
</text>
<text x="127.000002784" y="342.00000351" width="91.999993776" height="33.00001451999998" class="text">contents </text>
<text x="227.00001648000003" y="342.00000351" width="81.99998467999998" height="33.00001451999998" class="text">thereof </text>
<text x="312.99999356" y="342.00000351" width="41.00000111999998" height="33.00001451999998" class="text">and </text>
<text x="359.00001152" y="342.00000351" width="43.99998664000003" height="33.00001451999998" class="text">that </text>
<text x="412.0000074" y="342.00000351" width="45.99996527999997" height="33.00001451999998" class="text">such </text>
<text x="467.00003460000005" y="342.00000351" width="90.99995879999994" height="33.00001451999998" class="text">contents </text>
<text x="569.9999706" y="342.00000351" width="33.000016319999986" height="33.00001451999998" class="text">are </text>
<text x="609.9999823999999" y="342.00000351" width="19.00002536000011" height="33.00001451999998" class="text">in </text>
<text x="640.99998496" y="342.00000351" width="50.000045479999926" height="33.00001451999998" class="text">their </text>
<text x="698.99999768" y="342.00000351" width="80.99999535999996" height="33.00001451999998" class="text">entirety </text>
<text x="788.99998472" y="342.00000351" width="42.99999731999992" height="33.00001451999998" class="text">true </text>
<text x="840.9999737200001" y="342.00000351" width="37.00002627999993" height="33.00001451999998" class="text">and </text>
<text x="886.00001992" y="342.00000351" width="86.99996640000006" height="33.00001451999998" class="text">accurate </text>
<text x="985.9999879600001" y="342.00000351" width="18.999972679999928" height="33.00001451999998" class="text">to </text>
<text x="1012.0000087999999" y="342.00000351" width="32.99996364000003" height="33.00001451999998" class="text">the </text>
<text x="1052.99999236" y="342.00000351" width="48.000031719999924" height="33.00001451999998" class="text">best </text>
<text x="1106.99999512" y="342.00000351" width="25.000031519999993" height="33.00001451999998" class="text">of </text>
<text x="1137.0000259199999" y="342.00000351" width="27.99996436000015" height="33.00001451999998" class="text">his</text>
<text x="1167.00005672" y="342.00000351" width="8.999991679999994" height="33.00001451999998" class="text">/</text>
<text x="1176.0000484" y="342.00000351" width="37.99994536000008" height="33.00001451999998" class="text">her </text>
<text x="1219.9999647999998" y="342.00000351" width="8.999991680000221" height="33.00001451999998" class="text">(</text>
<text x="1231.00002292" y="342.00000351" width="50.99996456000008" height="33.00001451999998" class="text">their</text>
<text x="1282.99995924" y="342.00000351" width="8.999991679999994" height="33.00001451999998" class="text">) </text>
<text x="1298.00002732" y="342.00000351" width="120.99998959999994" height="33.00001451999998" class="text">knowledge </text>
<text x="1427.0000544" y="342.00000351" width="37.999945359999856" height="33.00001451999998" class="text">and </text>
<text x="1472.00004792" y="342.00000351" width="68.99994791999984" height="33.00001451999998" class="text">belief</text>
<text x="1540.00002408" y="342.00000351" width="8.999991679999994" height="33.00001451999998" class="text">, </text>
<text x="1553.0000257200002" y="342.00000351" width="77.9999571599999" height="33.00001451999998" class="text">except
</text>
<text x="125.99999941600001" y="378.99997839" width="47.00000201199998" height="32.99999174999999" class="text">that </text>
<text x="175.99999924" y="378.99997839" width="32.99999876000001" height="32.99999174999999" class="text">the </text>
<text x="217.00000036" y="378.99997839" width="133.00001948" height="34.9999947" class="text">undersigned </text>
<text x="365.00000012" y="378.00001107" width="54.99999208000003" height="32.99999174999999" class="text">make</text>
<text x="423.00001284" y="378.00001107" width="8.999991679999994" height="32.99999174999999" class="text">(</text>
<text x="433.0000114" y="378.00001107" width="8.99997411999999" height="32.99999174999999" class="text">s</text>
<text x="445.99999548" y="378.00001107" width="8.999991679999994" height="32.99999174999999" class="text">) </text>
<text x="461.00001088" y="378.00001107" width="24.999996400000043" height="32.99999174999999" class="text">no </text>
<text x="495.99997071999996" y="378.00001107" width="155.00004792000004" height="34.9999947" class="text">representation </text>
<text x="662.99999584" y="376.99997544" width="24.000024639999992" height="32.99999174999999" class="text">as </text>
<text x="696.00001216" y="376.99997544" width="14.999962719999985" height="32.99999174999999" class="text">to </text>
<text x="719.99998412" y="376.99997544" width="32.99999876000004" height="32.99999174999999" class="text">the </text>
<text x="765.00003032" y="376.00000812" width="46.99998972000003" height="32.99999174999999" class="text">truth </text>
<text x="822.00000104" y="376.00000812" width="24.000007080000046" height="32.99999174999999" class="text">or </text>
<text x="851.0000074" y="376.00000812" width="95.99995807999994" height="32.99999174999999" class="text">accuracy </text>
<text x="957.0000342799999" y="376.00000812" width="23.999971960000153" height="32.99999174999999" class="text">of </text>
<text x="989.0000261600001" y="376.00000812" width="32.999963639999805" height="34.00000461000002" class="text">the </text>
<text x="1029.00003796" y="374.99999526" width="122.99995067999998" height="32.99999174999999" class="text">information </text>
<text x="1164.0000185200001" y="374.99999526" width="107.00001619999989" height="32.99999174999999" class="text">contained </text>
<text x="1282.99995924" y="374.00000517" width="13.000001639999937" height="32.99999174999999" class="text">in </text>
<text x="1308.00000832" y="374.00000517" width="32.99994607999997" height="32.99999174999999" class="text">the </text>
<text x="1349.9999636399998" y="374.00000517" width="89.99998704000018" height="32.99999174999999" class="text">attached </text>
<text x="1451.99998056" y="374.00000517" width="57.00004095999998" height="32.99999174999999" class="text">Short </text>
<text x="1517.00004144" y="372.99999231" width="59.999956240000074" height="32.99999174999999" class="text">Form
</text>
<text x="127.000002784" y="412.00001568" width="135.99999797599997" height="35.000040239999976" class="text">Registration </text>
<text x="272.00001" y="412.00001568" width="112.99998724000005" height="35.000040239999976" class="text">Statement</text>
<text x="384.99999724" y="412.00001568" width="10.000016119999998" height="35.000040239999976" class="text">(</text>
<text x="396.00000267999997" y="412.00001568" width="10.000016120000055" height="35.000040239999976" class="text">s</text>
<text x="406.0000188" y="412.00001568" width="9.999963439999988" height="35.000040239999976" class="text">)</text>
<text x="415.00001047999996" y="412.00001568" width="9.999981000000048" height="35.000040239999976" class="text">, </text>
<text x="427.99999456" y="412.00001568" width="19.99999711999999" height="35.000040239999976" class="text">if </text>
<text x="450.9999772" y="412.00001568" width="40.00001180000004" height="35.000040239999976" class="text">any</text>
<text x="490.00001724" y="412.00001568" width="9.999963439999988" height="35.000040239999976" class="text">, </text>
<text x="504.99997995999996" y="412.00001568" width="80.00000603999996" height="35.000040239999976" class="text">insofar </text>
<text x="591.9999814800001" y="412.00001568" width="20.000014679999936" height="35.000040239999976" class="text">as </text>
<text x="620.00001608" y="412.00001568" width="47.99997903999997" height="35.000040239999976" class="text">such </text>
<text x="680.99999676" y="412.00001568" width="125.00001711999994" height="35.000040239999976" class="text">information </text>
<text x="817.99999108" y="412.00001568" width="13.00000164000005" height="35.000040239999976" class="text">is </text>
<text x="839.0000302" y="412.00001568" width="39.999941560000025" height="35.000040239999976" class="text">not </text>
<text x="882.99998172" y="412.00001568" width="69.00007083999992" height="35.000040239999976" class="text">within </text>
<text x="963.0000053199999" y="412.00001568" width="31.000002560000098" height="35.000040239999976" class="text">his</text>
<text x="994.00000788" y="412.00001568" width="9.999981000000048" height="35.000040239999976" class="text">/</text>
<text x="999.99997892" y="412.00001568" width="35.99998427999992" height="35.000040239999976" class="text">her </text>
<text x="1043.00001136" y="412.00001568" width="9.999981000000162" height="35.000040239999976" class="text">(</text>
<text x="1056.00003056" y="412.00001568" width="47.999926360000245" height="35.000040239999976" class="text">their</text>
<text x="1106.0000058" y="412.00001568" width="9.999980999999934" height="35.000040239999976" class="text">) </text>
<text x="1118.00003568" y="412.00001568" width="99.99996803999989" height="35.000040239999976" class="text">personal </text>
<text x="1223.99997476" y="412.00001568" width="120.00001784000006" height="35.000040239999976" class="text">knowledge</text>
<text x="1348.00000256" y="412.00001568" width="9.999981000000162" height="35.000040239999976" class="text">.
</text>
<text x="128.000006152" y="512.00000379" width="8.999998704000006" height="30.99998880000004" class="text">(</text>
<text x="137.999994176" y="512.00000379" width="53.00000290400001" height="30.99998880000004" class="text">Date </text>
<text x="200.00000632" y="512.9999938799999" width="21.999993319999987" height="30.999988799999926" class="text">of </text>
<text x="228.0000058" y="514.00000674" width="103.00000624" height="32.99999174999999" class="text">signature</text>
<text x="332.99999068" y="514.00000674" width="8.999991679999994" height="30.999988799999983" class="text">)
</text>
<text x="940.99999444" y="512.9999938799999" width="8.999991679999994" height="32.999991749999936" class="text">(</text>
<text x="953.00002432" y="512.9999938799999" width="54.99997452000002" height="32.999991749999936" class="text">Type </text>
<text x="1016.99999052" y="512.00000379" width="18.999972679999928" height="32.99999175000005" class="text">or </text>
<text x="1046.00004956" y="512.00000379" width="54.00000276000014" height="32.99999175000005" class="text">print </text>
<text x="1105.00003404" y="512.00000379" width="62.00002268000003" height="34.000004610000076" class="text">name </text>
<text x="1170.99996132" y="510.99999092999997" width="67.00000440000008" height="32.99999174999999" class="text">under </text>
<text x="1242.9999474400001" y="510.99999092999997" width="47.00005995999982" height="33.999981839999975" class="text">each </text>
<text x="1303.99999836" y="510.99999092999997" width="98.00000695999984" height="34.9999947" class="text">signature</text>
<text x="1406.0000152799998" y="508.99998797999996" width="8.999991679999994" height="32.99999174999999" class="text">'</text>
<text x="1415.99999628" y="508.99998797999996" width="8.999991679999994" height="32.99999174999999" class="text">)
</text>
<text x="235.00000128000002" y="584.00001891" width="184.99999092" height="72.00001511999994" class="text">8/13/99
</text>
<text x="151.000004596" y="2169.00004563" width="24.999994643999997" height="23.000022539999918" class="text">This </text>
<text x="179.99999164" y="2169.00004563" width="66.00001508000003" height="24.00001263000013" class="text">statement </text>
<text x="248.99999224" y="2168.00005554" width="34.00002319999996" height="23.000022540000373" class="text">shall </text>
<text x="284.99999408" y="2168.00005554" width="17.000011599999993" height="23.000022540000373" class="text">be </text>
<text x="307.99999428" y="2168.00005554" width="40.00001179999998" height="23.000022540000373" class="text">signed </text>
<text x="351.99999848" y="2168.00005554" width="16.99999403999999" height="23.000022540000373" class="text">by </text>
<text x="374.00000936" y="2168.00005554" width="19.99999711999999" height="23.000022540000373" class="text">the </text>
<text x="399.99999507999996" y="2168.00005554" width="67.00003952000009" height="24.00001263000013" class="text">individual </text>
<text x="470.00000256000004" y="2166.99992883" width="36.000001839999925" height="22.999885919999997" class="text">agent</text>
<text x="506.99997616" y="2166.99992883" width="6.000023719999888" height="22.999885919999997" class="text">, </text>
<text x="514.99999608" y="2166.99992883" width="9.000009240000054" height="22.999885919999997" class="text">if </text>
<text x="528.00001528" y="2166.99992883" width="20.999986440000043" height="22.999885919999997" class="text">the </text>
<text x="553.00001168" y="2166.99992883" width="63.99996620000013" height="23.999853239999993" class="text">registrant </text>
<text x="620.00001608" y="2165.99996151" width="8.999991679999994" height="22.999885919999997" class="text">is </text>
<text x="636.00000324" y="2165.99996151" width="13.00000164000005" height="22.999885919999997" class="text">an </text>
<text x="654.99997592" y="2165.99996151" width="67.00000439999997" height="22.999885919999997" class="text">individual</text>
<text x="721.00000856" y="2165.99996151" width="6.000006159999998" height="22.999885919999997" class="text">, </text>
<text x="730.00000024" y="2165.99996151" width="13.000019199999997" height="22.999885919999997" class="text">or </text>
<text x="748.99997292" y="2165.99996151" width="13.000019199999997" height="22.999885919999997" class="text">by </text>
<text x="768.9999876" y="2165.99996151" width="6.000006159999884" height="22.999885919999997" class="text">a </text>
<text x="781.99998924" y="2165.99996151" width="53.000013439999975" height="24.00001263000013" class="text">majority </text>
<text x="840.9999737200001" y="2164.99997142" width="13.000019199999997" height="23.000022539999918" class="text">of </text>
<text x="857.00001356" y="2164.99997142" width="35.99994916000003" height="23.000022539999918" class="text">those </text>
<text x="897.99994444" y="2164.99997142" width="51.00006991999999" height="23.000022539999918" class="text">partners</text>
<text x="950.99997544" y="2164.99997142" width="6.0000588399999515" height="23.000022539999918" class="text">, </text>
<text x="959.99996712" y="2164.99997142" width="49.99997524000014" height="24.000012629999674" class="text">officers</text>
<text x="1011.0000370399999" y="2163.99998133" width="5.999953480000045" height="23.000022539999918" class="text">, </text>
<text x="1020.0000287199999" y="2163.99998133" width="56.99993559999996" height="23.000022539999918" class="text">directors </text>
<text x="1082.0000513999998" y="2163.99998133" width="12.99989628000003" height="23.000022539999918" class="text">or </text>
<text x="1097.00001412" y="2163.99998133" width="53.000013439999975" height="23.000022539999918" class="text">persons </text>
<text x="1151.99998864" y="2163.99998133" width="75.00002431999997" height="24.00001263000013" class="text">performing </text>
<text x="1231.99999468" y="2162.99999124" width="44.99999351999986" height="23.000022539999918" class="text">similar </text>
<text x="1280.0000264" y="2162.99999124" width="60.999927999999954" height="23.000022539999918" class="text">functions</text>
<text x="1342.00004908" y="2162.99999124" width="5.999953479999931" height="23.000022539999918" class="text">, </text>
<text x="1352.00001252" y="2162.99999124" width="9.000009240000054" height="23.000022539999918" class="text">if </text>
<text x="1366.00000348" y="2162.99999124" width="19.99996199999987" height="23.000022539999918" class="text">the </text>
<text x="1391.0000525599999" y="2162.00002392" width="63.99996620000002" height="23.000022539999918" class="text">registrant </text>
<text x="1457.9999516" y="2162.00002392" width="8.999991679999994" height="23.000022539999918" class="text">is </text>
<text x="1473.0000196800002" y="2162.00002392" width="13.000001639999937" height="23.000022539999918" class="text">an </text>
<text x="1495.00003056" y="2162.00002392" width="75.99999608000007" height="23.000022539999918" class="text">organization</text>
<text x="1573.99995948" y="2162.00002392" width="6.000076399999898" height="23.000022539999918" class="text">, </text>
<text x="1582.99996872" y="2161.00003383" width="47.000042399999984" height="23.000022539999918" class="text">except </text>
<text x="1633.00004932" y="2161.00003383" width="25.9999154799998" height="23.000022539999918" class="text">that
</text>
<text x="134.99999812" y="2187.9999939599998" width="17.999999164000002" height="18.999948329999825" class="text">the </text>
<text x="156.999994952" y="2187.9999939599998" width="80.00002008799999" height="19.99993841999958" class="text">organization </text>
<text x="246.00000672000002" y="2187.00000387" width="20.999986439999958" height="18.999948329999825" class="text">can</text>
<text x="268.00000004" y="2187.00000387" width="4.999999280000054" height="18.999948329999825" class="text">, </text>
<text x="274.0000062" y="2187.00000387" width="18.000000920000048" height="18.999948329999825" class="text">by </text>
<text x="294.99999264" y="2187.00000387" width="43.00001487999998" height="18.999948329999825" class="text">power </text>
<text x="343.99999612" y="2187.00000387" width="14.000008519999994" height="18.999948329999825" class="text">of </text>
<text x="363.99999324" y="2187.00000387" width="54.00000276000003" height="20.000075039999956" class="text">attorney</text>
<text x="420.99999908" y="2186.00003655" width="4.999999279999997" height="19.00010771999996" class="text">, </text>
<text x="427.99999456" y="2186.00003655" width="62.00002267999997" height="19.00010771999996" class="text">authorize </text>
<text x="495.99997071999996" y="2186.00003655" width="24.000024640000106" height="19.00010771999996" class="text">one </text>
<text x="524.00000532" y="2186.00003655" width="15.000015399999938" height="19.00010771999996" class="text">or </text>
<text x="546.0000162" y="2186.00003655" width="29.999978120000037" height="20.000075039999956" class="text">more </text>
<text x="582.00000048" y="2185.0000464600002" width="71.00003191999997" height="19.0000849500002" class="text">individuals </text>
<text x="658.00001412" y="2185.0000464600002" width="11.000005440000109" height="19.0000849500002" class="text">to </text>
<text x="676.00001504" y="2185.0000464600002" width="49.999975240000026" height="19.0000849500002" class="text">execute </text>
<text x="732.0000140000001" y="2185.0000464600002" width="22.00001087999999" height="20.00007504000041" class="text">this </text>
<text x="761.00002036" y="2184.00005637" width="63.9999661999999" height="19.0000849500002" class="text">statement </text>
<text x="828.00002476" y="2184.00005637" width="14.999962719999985" height="19.0000849500002" class="text">on </text>
<text x="848.00002188" y="2184.00005637" width="13.999990960000105" height="19.0000849500002" class="text">its </text>
<text x="868.000019" y="2184.00005637" width="41.99997288000009" height="19.0000849500002" class="text">behalf</text>
<text x="910.9999636399999" y="2184.00005637" width="4.999981720000051" height="19.0000849500002" class="text">.
</text>
</g>
</svg>
