<svg xmlns="http://www.w3.org/2000/svg">
<style>.text { font-size: 14px; font-family: Arial, sans-serif; }</style>
<g id="page-0" transform="translate(0, 0)">
<rect width="1756" height="2277" fill="none" stroke="black" />
<text x="1473.99999144" y="124.999999938" width="38.00005071999999" height="17.000004582000003" class="text">OMB </text>
<text x="1517.00004144" y="124.999999938" width="22.000010880000218" height="17.000004582000003" class="text">NO</text>
<text x="1544.00003404" y="124.999999938" width="4.999981720000051" height="17.000004582000003" class="text">. </text>
<text x="1553.0000257200002" y="124.999999938" width="69.99993724000001" height="17.999996949000007" class="text">1105-0004
</text>
<text x="114.000004656" y="129.000001284" width="51.999989000000014" height="33.00000085799999" class="text">U.S. </text>
<text x="169.000002004" y="129.000001284" width="153.000018356" height="35.000001530999995" class="text">Department </text>
<text x="325.9999952" y="128.000002086" width="24.999996400000043" height="33.00000085799999" class="text">of </text>
<text x="355.00000156" y="128.000002086" width="84.99997020000006" height="33.00000085799999" class="text">Justice
</text>
<text x="108.000002008" y="160.999993836" width="139.000011592" height="37.99999457099999" class="text">Washington</text>
<text x="246.00000672000002" y="160.999993836" width="10.999987879999964" height="37.99999457099999" class="text">, </text>
<text x="257.99998392000003" y="160.999993836" width="41.000018679999926" height="37.99999457099999" class="text">DC </text>
<text x="312.00000424" y="160.999993836" width="67.99999372000002" height="37.99999457099999" class="text">20530
</text>
<text x="730.9999720000001" y="124.00000073999999" width="141.00000427999987" height="30.00000098699998" class="text">Amendment </text>
<text x="878.0" y="124.00000073999999" width="17.000029160000054" height="30.00000098699998" class="text">to </text>
<text x="904.9999925999999" y="124.00000073999999" width="137.0000470000001" height="30.00000098699998" class="text">Registration </text>
<text x="1051.00003128" y="124.00000073999999" width="112.00001548" height="30.00000098699998" class="text">Statement
</text>
<text x="734.99999952" y="158.999993163" width="102.00001692000001" height="33.999993225" class="text">Pursuant </text>
<text x="839.0000302" y="157.999991688" width="18.99997268000004" height="31.999990275000002" class="text">to </text>
<text x="868.000019" y="157.999991688" width="32.99996364000003" height="31.999990275000002" class="text">the </text>
<text x="908.0000308000001" y="159.99999236099998" width="85.0000053199999" height="33.99999094799999" class="text">Foreign </text>
<text x="1003.0000171199999" y="159.99999236099998" width="79.00003427999991" height="32.99999174999998" class="text">Agents </text>
<text x="1085.9999559999999" y="160.999993836" width="138.0000187600001" height="33.99999322499998" class="text">Registration
</text>
<text x="737.99996748" y="191.00000165400002" width="38.00001559999998" height="30.00000781800003" class="text">Act </text>
<text x="779.9999930399999" y="191.00000165400002" width="28.000017040000102" height="30.00000781800003" class="text">of </text>
<text x="813.99998112" y="191.00000165400002" width="54.00003787999992" height="30.00000781800003" class="text">1938</text>
<text x="869.00000832" y="191.00000165400002" width="8.999991679999994" height="30.00000781800003" class="text">, </text>
<text x="882.99998172" y="191.00000165400002" width="22.000010879999877" height="30.00000781800003" class="text">as </text>
<text x="909.99999188" y="191.00000165400002" width="99.99995048000005" height="30.00000781800003" class="text">amended
</text>
<text x="113.000003044" y="302.00001282000005" width="64.999992396" height="27.000005670000064" class="text">Privacy </text>
<text x="187.00000468" y="302.00001282000005" width="30.99998500000001" height="27.000005670000064" class="text">Act </text>
<text x="223.99999584" y="302.00001282000005" width="88.99999772000001" height="27.000005670000064" class="text">Statement</text>
<text x="312.99999356" y="302.00001282000005" width="8.00001992" height="27.000005670000064" class="text">. </text>
<text x="331.00001204" y="302.00001282000005" width="48.99998592000003" height="27.000005670000064" class="text">Every </text>
<text x="388.99998964" y="302.00001282000005" width="99.9999856" height="27.000005670000064" class="text">registration </text>
<text x="497.00001272" y="302.00001282000005" width="87.00000152000007" height="27.000005670000064" class="text">statement</text>
<text x="582.9999898" y="302.00001282000005" width="8.00001992" height="27.000005670000064" class="text">, </text>
<text x="593.99999524" y="302.00001282000005" width="41.0000362400001" height="27.000005670000064" class="text">short </text>
<text x="642.99999872" y="302.00001282000005" width="40.000011799999925" height="27.000005670000064" class="text">form </text>
<text x="692.0000022" y="302.00001282000005" width="96.0000107599999" height="27.000005670000064" class="text">registration </text>
<text x="797.0000046399999" y="302.00001282000005" width="85.99997708000012" height="27.000005670000064" class="text">statement</text>
<text x="882.99998172" y="302.00001282000005" width="8.00001992" height="27.000005670000064" class="text">, </text>
<text x="894.00003984" y="302.00001282000005" width="117.99996895999993" height="27.000005670000064" class="text">supplemental </text>
<text x="1017.9999798399999" y="302.00001282000005" width="87.00005420000002" height="27.000005670000064" class="text">statement</text>
<text x="1101.00002408" y="302.00001282000005" width="8.000019920000113" height="27.000005670000064" class="text">, </text>
<text x="1115.00001504" y="302.00001282000005" width="62.00000511999997" height="27.000005670000064" class="text">exhibit</text>
<text x="1173.99999952" y="302.00001282000005" width="8.000019919999886" height="27.000005670000064" class="text">, </text>
<text x="1182.9999912" y="302.00001282000005" width="107.00001619999989" height="27.000005670000064" class="text">amendment</text>
<text x="1290.0000074" y="302.00001282000005" width="8.000019920000113" height="27.000005670000064" class="text">, </text>
<text x="1300.99996016" y="302.00001282000005" width="41.00008892000005" height="27.000005670000064" class="text">copy </text>
<text x="1349.9999636399998" y="302.00001282000005" width="19.00007804000029" height="27.000005670000064" class="text">of </text>
<text x="1375.0000127199999" y="302.00001282000005" width="124.00002780000023" height="27.000005670000064" class="text">informational
</text>
<text x="114.999995732" y="328.99999572" width="76.00000134800001" height="26.999982899999964" class="text">materials </text>
<text x="200.99999563999998" y="328.99999572" width="18.999990240000045" height="26.999982899999964" class="text">or </text>
<text x="226.0000096" y="328.99999572" width="46.000000399999976" height="26.999982899999964" class="text">other </text>
<text x="276.99999172" y="328.99999572" width="89.00001528000001" height="26.999982899999964" class="text">document </text>
<text x="370.99998872" y="328.99999572" width="20.00001468000005" height="26.999982899999964" class="text">or </text>
<text x="392.9999996" y="328.99999572" width="101.99999936" height="26.999982899999964" class="text">information </text>
<text x="508.00001816" y="328.99999572" width="35.99998427999998" height="26.999982899999964" class="text">filed </text>
<text x="550.9999979199999" y="328.99999572" width="35.00003007999999" height="26.999982899999964" class="text">with </text>
<text x="595.99999144" y="328.99999572" width="26.999992599999928" height="26.999982899999964" class="text">the </text>
<text x="627.99998332" y="328.99999572" width="78.00000984000008" height="26.999982899999964" class="text">Attorney </text>
<text x="711.9999993199999" y="328.99999572" width="72.00000368000008" height="26.999982899999964" class="text">General </text>
<text x="788.99998472" y="328.99999572" width="51.00001723999992" height="26.999982899999964" class="text">under </text>
<text x="842.99998748" y="328.99999572" width="31.000002560000098" height="26.999982899999964" class="text">this </text>
<text x="882.99998172" y="328.99999572" width="34.00004075999982" height="26.999982899999964" class="text">Act </text>
<text x="919.9999553199999" y="328.99999572" width="15.00006808000012" height="26.999982899999964" class="text">is </text>
<text x="940.99999444" y="328.99999572" width="8.00001992" height="26.999982899999964" class="text">a </text>
<text x="958.00000604" y="328.99999572" width="51.999936320000074" height="26.999982899999964" class="text">public </text>
<text x="1016.99999052" y="328.99999572" width="53.000031000000035" height="26.999982899999964" class="text">record </text>
<text x="1078.00004144" y="328.99999572" width="39.999994240000206" height="26.999982899999964" class="text">open </text>
<text x="1128.00001668" y="328.99999572" width="14.999962719999985" height="26.999982899999964" class="text">to </text>
<text x="1150.99999932" y="328.99999572" width="54.00000276000014" height="26.999982899999964" class="text">public </text>
<text x="1213.000022" y="328.99999572" width="108.9999597200001" height="26.999982899999964" class="text">examination</text>
<text x="1324.00004816" y="328.99999572" width="7.999914559999979" height="26.999982899999964" class="text">, </text>
<text x="1336.99994444" y="328.99999572" width="88.00004351999996" height="26.999982899999964" class="text">inspection </text>
<text x="1432.00003612" y="328.99999572" width="29.99992543999997" height="26.999982899999964" class="text">and </text>
<text x="1469.9999814799999" y="328.99999572" width="71.00001436000002" height="26.999982899999964" class="text">copying
</text>
<text x="113.000003044" y="357.00001425" width="57.999991648000005" height="29.000031390000004" class="text">during </text>
<text x="177.99999544" y="357.00001425" width="25.000013960000018" height="29.000031390000004" class="text">the </text>
<text x="207.0000018" y="357.00001425" width="59.99999135999997" height="29.000031390000004" class="text">posted </text>
<text x="271.00000312000003" y="357.00001425" width="75.99999608000002" height="29.000031390000004" class="text">business </text>
<text x="351.99999848" y="357.00001425" width="50.00001036000003" height="29.000031390000004" class="text">hours </text>
<text x="407.99999744" y="357.00001425" width="21.00000399999999" height="29.000031390000004" class="text">of </text>
<text x="434.00001828" y="357.00001425" width="23.99995439999998" height="29.000031390000004" class="text">the </text>
<text x="465.00002084" y="357.00001425" width="104.99994975999999" height="29.000031390000004" class="text">Registration </text>
<text x="582.00000048" y="357.00001425" width="36.00000183999998" height="29.000031390000004" class="text">Unit </text>
<text x="622.99998404" y="357.00001425" width="17.000029160000054" height="29.000031390000004" class="text">in </text>
<text x="644.99999492" y="357.00001425" width="105.00002000000006" height="29.000031390000004" class="text">Washington</text>
<text x="754.0000248800001" y="357.00001425" width="7.999967239999933" height="29.000031390000004" class="text">, </text>
<text x="766.9999738399999" y="357.00001425" width="47.00000728000009" height="29.000031390000004" class="text">D.C. </text>
<text x="817.99999108" y="357.00001425" width="37.00002628000004" height="29.000031390000004" class="text">One </text>
<text x="864.00000904" y="357.00001425" width="42.99994463999985" height="29.000031390000004" class="text">copy </text>
<text x="909.00000256" y="357.00001425" width="22.000010880000104" height="29.000031390000004" class="text">of </text>
<text x="932.00000276" y="357.00001425" width="49.999975240000026" height="29.000031390000004" class="text">every </text>
<text x="989.0000261600001" y="357.00001425" width="36.000001840000095" height="29.000031390000004" class="text">such </text>
<text x="1034.0000196800002" y="357.00001425" width="90.99995879999983" height="29.000031390000004" class="text">document</text>
<text x="1121.99995784" y="357.00001425" width="8.000019920000113" height="29.000031390000004" class="text">, </text>
<text x="1133.00001596" y="357.00001425" width="45.9999652800002" height="29.000031390000004" class="text">other </text>
<text x="1183.9999629600002" y="357.00001425" width="37.000078959999655" height="29.000031390000004" class="text">than </text>
<text x="1226.0000412" y="357.00001425" width="123.99992243999986" height="29.000031390000004" class="text">informational </text>
<text x="1357.9999835600001" y="357.00001425" width="78.0000625199998" height="29.000031390000004" class="text">materials</text>
<text x="1438.00000716" y="357.00001425" width="8.000019919999886" height="29.000031390000004" class="text">, </text>
<text x="1451.99998056" y="357.00001425" width="9.999980999999934" height="29.000031390000004" class="text">is
</text>
<text x="114.000004656" y="384.99998724" width="119.99998974399999" height="28.999985849999973" class="text">automatically </text>
<text x="238.99999368000002" y="384.99998724" width="78.99999915999999" height="28.999985849999973" class="text">provided </text>
<text x="323.999999" y="384.99998724" width="16.99999403999999" height="28.999985849999973" class="text">to </text>
<text x="349.00001296" y="384.99998724" width="27.999999480000042" height="28.999985849999973" class="text">the </text>
<text x="380.99998727999997" y="384.99998724" width="82.00001980000002" height="28.999985849999973" class="text">Secretary </text>
<text x="470.99999188" y="384.99998724" width="22.00001087999999" height="28.999985849999973" class="text">of </text>
<text x="494.99999896" y="384.99998724" width="42.00000800000004" height="28.999985849999973" class="text">State </text>
<text x="549.00000172" y="384.99998724" width="76.99996784000007" height="28.999985849999973" class="text">pursuant </text>
<text x="629.00000776" y="384.99998724" width="16.999976479999987" height="28.999985849999973" class="text">to </text>
<text x="651.00001864" y="384.99998724" width="64.99999063999996" height="28.999985849999973" class="text">Section </text>
<text x="725.0000185199999" y="384.99998724" width="7.999967240000046" height="28.999985849999973" class="text">6</text>
<text x="736.00002396" y="384.99998724" width="7.999967240000046" height="28.999985849999973" class="text">(</text>
<text x="741.99997744" y="384.99998724" width="8.00003748000006" height="28.999985849999973" class="text">b</text>
<text x="754.0000248800001" y="384.99998724" width="7.999967239999933" height="28.999985849999973" class="text">) </text>
<text x="767.99999828" y="384.99998724" width="16.999976479999987" height="28.999985849999973" class="text">of </text>
<text x="788.0000129599999" y="384.99998724" width="29.999978120000037" height="28.999985849999973" class="text">the </text>
<text x="824.9999865599999" y="384.99998724" width="29.000006360000157" height="28.999985849999973" class="text">Act</text>
<text x="853.9999929200001" y="384.99998724" width="8.00001992" height="28.999985849999973" class="text">, </text>
<text x="868.000019" y="384.99998724" width="27.999981919999982" height="28.999985849999973" class="text">and </text>
<text x="904.0000208399999" y="384.99998724" width="54.99997452000002" height="28.999985849999973" class="text">copies </text>
<text x="963.99997708" y="384.99998724" width="22.000010880000104" height="28.999985849999973" class="text">of </text>
<text x="989.0000261600001" y="384.99998724" width="28.999953679999862" height="28.999985849999973" class="text">any </text>
<text x="1025.9999997599998" y="384.99998724" width="29.000059040000224" height="28.999985849999973" class="text">and </text>
<text x="1064.00005048" y="384.99998724" width="24.99994371999992" height="28.999985849999973" class="text">all </text>
<text x="1092.0000324" y="384.99998724" width="94.99996876" height="28.999985849999973" class="text">documents </text>
<text x="1194.00004932" y="384.99998724" width="25.9999154799998" height="28.999985849999973" class="text">are </text>
<text x="1226.0000412" y="384.99998724" width="80.99997780000012" height="28.999985849999973" class="text">routinely </text>
<text x="1317.99997176" y="384.99998724" width="44.99999351999986" height="28.999985849999973" class="text">made </text>
<text x="1366.9999752400001" y="384.99998724" width="80.99999535999996" height="28.999985849999973" class="text">available </text>
<text x="1455.0000187599999" y="384.99998724" width="17.000029160000167" height="28.999985849999973" class="text">to </text>
<text x="1478.9999907200001" y="384.99998724" width="44.99999351999986" height="28.999985849999973" class="text">other
</text>
<text x="113.000003044" y="414.00001863" width="74.000001636" height="29.000031390000004" class="text">agencies</text>
<text x="188.00001156" y="414.00001863" width="7.999984799999993" height="29.000031390000004" class="text">, </text>
<text x="200.00000632" y="414.00001863" width="108.99999484" height="29.000031390000004" class="text">departments </text>
<text x="317.00000352" y="414.00001863" width="27.999999480000042" height="29.000031390000004" class="text">and </text>
<text x="350.99999160000004" y="414.00001863" width="83.00002667999996" height="29.000031390000004" class="text">Congress </text>
<text x="439.0" y="414.00001863" width="82.99999156000001" height="29.000031390000004" class="text">pursuant </text>
<text x="524.99997708" y="414.00001863" width="16.00003984" height="29.000031390000004" class="text">to </text>
<text x="546.0000162" y="414.00001863" width="64.99999063999996" height="29.000031390000004" class="text">Section </text>
<text x="620.00001608" y="414.00001863" width="7.999967239999933" height="29.000031390000004" class="text">6</text>
<text x="631.99999328" y="414.00001863" width="8.00001992" height="29.000031390000004" class="text">(</text>
<text x="640.99998496" y="414.00001863" width="8.00001992" height="29.000031390000004" class="text">c</text>
<text x="649.00000488" y="414.00001863" width="7.999984799999993" height="29.000031390000004" class="text">) </text>
<text x="660.9999996399999" y="414.00001863" width="19.999997120000103" height="29.000031390000004" class="text">of </text>
<text x="683.99998228" y="414.00001863" width="29.00000635999993" height="29.000031390000004" class="text">the </text>
<text x="716.9999986" y="414.00001863" width="33.000016319999986" height="29.000031390000004" class="text">Act</text>
<text x="748.00000116" y="414.00001863" width="8.00001992" height="29.000031390000004" class="text">. </text>
<text x="766.9999738399999" y="414.00001863" width="33.000016319999986" height="29.000031390000004" class="text">The </text>
<text x="808.99998184" y="414.00001863" width="74.99998919999996" height="29.000031390000004" class="text">Attorney </text>
<text x="891.00000164" y="414.00001863" width="71.00003191999997" height="29.000031390000004" class="text">General </text>
<text x="967.99998704" y="414.00001863" width="31.000020120000045" height="29.000031390000004" class="text">also </text>
<text x="1006.00003776" y="414.00001863" width="82.99995643999989" height="29.000031390000004" class="text">transmits </text>
<text x="1096.00004236" y="414.00001863" width="7.999914560000207" height="29.000031390000004" class="text">a </text>
<text x="1110.00001576" y="414.00001863" width="44.00002175999998" height="29.000031390000004" class="text">semi</text>
<text x="1150.99999932" y="414.00001863" width="8.000037480000174" height="29.000031390000004" class="text">-</text>
<text x="1159.0000368" y="414.00001863" width="64.9999379599999" height="29.000031390000004" class="text">annual </text>
<text x="1226.0000412" y="414.00001863" width="54.99995695999996" height="29.000031390000004" class="text">report </text>
<text x="1284.0000363600002" y="414.00001863" width="16.999923799999806" height="29.000031390000004" class="text">to </text>
<text x="1308.00000832" y="414.00001863" width="83.00004423999985" height="29.000031390000004" class="text">Congress </text>
<text x="1397.00000604" y="414.00001863" width="17.000029160000167" height="29.000031390000004" class="text">on </text>
<text x="1423.0000268800002" y="414.00001863" width="29.999942999999803" height="29.000031390000004" class="text">the
</text>
<text x="114.000004656" y="438.99999857999995" width="130.999995184" height="26.999982899999964" class="text">Administration </text>
<text x="253.00000219999998" y="438.99999857999995" width="19.00000779999999" height="26.999982899999964" class="text">of </text>
<text x="278.99998792" y="438.99999857999995" width="23.00001775999999" height="26.999982899999964" class="text">the </text>
<text x="311.00001492" y="438.99999857999995" width="29.99997811999998" height="26.999982899999964" class="text">Act </text>
<text x="345.00000300000005" y="438.99999857999995" width="52.99997831999991" height="26.999982899999964" class="text">which </text>
<text x="407.99999744" y="438.99999857999995" width="31.999974320000035" height="26.999982899999964" class="text">lists </text>
<text x="447.99999168" y="438.99999857999995" width="27.00001015999993" height="26.999982899999964" class="text">the </text>
<text x="476.99999804" y="438.99999857999995" width="58.99998448000002" height="26.999982899999964" class="text">names </text>
<text x="544.00000244" y="438.99999857999995" width="20.000014679999936" height="26.999982899999964" class="text">of </text>
<text x="564.99998888" y="438.99999857999995" width="24.000007079999932" height="26.999982899999964" class="text">all </text>
<text x="595.00001968" y="438.99999857999995" width="56.999970719999965" height="26.999982899999964" class="text">agents </text>
<text x="654.00000416" y="438.99999857999995" width="87.99997327999995" height="26.999982899999964" class="text">registered </text>
<text x="748.99997292" y="438.99999857999995" width="51.00001723999992" height="26.999982899999964" class="text">under </text>
<text x="804.0000001200001" y="438.99999857999995" width="31.00000255999987" height="26.999982899999964" class="text">the </text>
<text x="839.0000302" y="438.99999857999995" width="30.99994988000003" height="26.999982899999964" class="text">Act </text>
<text x="877.00002824" y="438.99999857999995" width="29.999925439999856" height="26.999982899999964" class="text">and </text>
<text x="912.00004076" y="438.99999857999995" width="26.999992599999928" height="26.999982899999964" class="text">the </text>
<text x="944.00003264" y="438.99999857999995" width="62.00000512000008" height="26.999982899999964" class="text">foreign </text>
<text x="1013.99996988" y="438.99999857999995" width="84.99998776000007" height="26.999982899999964" class="text">principals </text>
<text x="1106.0000058" y="438.99999857999995" width="37.999962919999916" height="26.999982899999964" class="text">they </text>
<text x="1151.99998864" y="438.99999857999995" width="80.9999777999999" height="26.999982899999964" class="text">represent</text>
<text x="1232.99996644" y="438.99999857999995" width="8.000037479999946" height="26.999982899999964" class="text">. </text>
<text x="1250.99996736" y="438.99999857999995" width="38.00005071999999" height="26.999982899999964" class="text">This </text>
<text x="1294.99998912" y="438.99999857999995" width="52.000041680000095" height="26.999982899999964" class="text">report </text>
<text x="1356.0000224799999" y="438.99999857999995" width="9.999981000000162" height="26.999982899999964" class="text">is </text>
<text x="1375.99998448" y="438.99999857999995" width="80.00000604000002" height="26.999982899999964" class="text">available </text>
<text x="1463.00003868" y="438.99999857999995" width="14.999962719999985" height="26.999982899999964" class="text">to </text>
<text x="1483.99997244" y="438.99999857999995" width="26.99999260000004" height="26.999982899999964" class="text">the
</text>
<text x="113.000003044" y="467.99998443" width="52.00000129200002" height="29.999998709999943" class="text">public</text>
<text x="166.999997024" y="467.99998443" width="9.000002215999984" height="29.999998709999943" class="text">. </text>
<text x="184.00000160000002" y="467.99998443" width="63.00001199999997" height="29.999998709999943" class="text">Finally</text>
<text x="247.99998535999998" y="467.99998443" width="9.000009239999997" height="29.999998709999943" class="text">, </text>
<text x="261.99999388000003" y="467.99998443" width="24.999996399999986" height="29.999998709999943" class="text">the </text>
<text x="294.99999264" y="467.99998443" width="75.99999607999996" height="29.999998709999943" class="text">Attorney </text>
<text x="378.00001932" y="467.99998443" width="72.99995788000001" height="29.999998709999943" class="text">General </text>
<text x="457.00000092000005" y="467.99998443" width="64.00001887999997" height="29.999998709999943" class="text">intends</text>
<text x="517.9999816" y="467.99998443" width="9.000009240000054" height="29.999998709999943" class="text">, </text>
<text x="530.00001148" y="467.99998443" width="16.999976479999987" height="29.999998709999943" class="text">at </text>
<text x="550.9999979199999" y="467.99998443" width="26.000020840000047" height="29.999998709999943" class="text">the </text>
<text x="582.9999898" y="467.99998443" width="64.99999063999996" height="29.999998709999943" class="text">earliest </text>
<text x="656.0000003600001" y="467.99998443" width="67.00000439999997" height="29.999998709999943" class="text">possible </text>
<text x="730.00000024" y="467.99998443" width="100.99999248000006" height="29.999998709999943" class="text">opportunity</text>
<text x="833.00000648" y="467.99998443" width="8.999991679999994" height="29.999998709999943" class="text">, </text>
<text x="844.99998368" y="467.99998443" width="17.000029160000054" height="29.999998709999943" class="text">to </text>
<text x="873.9999900400001" y="467.99998443" width="43.00003243999981" height="29.999998709999943" class="text">make </text>
<text x="924.9999546" y="467.99998443" width="42.00006067999993" height="29.999998709999943" class="text">these </text>
<text x="972.9999863200001" y="467.99998443" width="57.00002339999992" height="29.999998709999943" class="text">public </text>
<text x="1031.99995324" y="467.99998443" width="100.00007340000002" height="29.999998709999943" class="text">documents </text>
<text x="1134.99995948" y="467.99998443" width="84.00003356000025" height="29.999998709999943" class="text">available </text>
<text x="1226.0000412" y="467.99998443" width="16.9999062400002" height="29.999998709999943" class="text">on </text>
<text x="1249.9999956" y="467.99998443" width="30.000030800000104" height="29.999998709999943" class="text">the </text>
<text x="1288.0000463200001" y="467.99998443" width="64.99995551999996" height="29.999998709999943" class="text">Internet </text>
<text x="1361.00002176" y="467.99998443" width="17.000011600000107" height="29.999998709999943" class="text">on </text>
<text x="1389.9999754399998" y="467.99998443" width="25.000031519999993" height="29.999998709999943" class="text">the </text>
<text x="1421.99994976" y="467.99998443" width="106.00004444000001" height="29.999998709999943" class="text">Department </text>
<text x="1535.00004236" y="467.99998443" width="16.9999062400002" height="29.999998709999943" class="text">of
</text>
<text x="114.999995732" y="489.99999411" width="57.000002327999994" height="20.99997404999999" class="text">Justice </text>
<text x="179.00000232" y="489.99999411" width="52.99999588" height="20.99997404999999" class="text">World </text>
<text x="243.00000364000002" y="489.00002679" width="46.99998972" height="21.00004236000001" class="text">Wide </text>
<text x="294.00002088" y="489.00002679" width="42.999979759999974" height="21.00004236000001" class="text">Web </text>
<text x="345.00000300000005" y="489.00002679" width="27.99999947999993" height="21.00004236000001" class="text">site</text>
<text x="377.00001244000003" y="489.00002679" width="5.999988599999995" height="21.00004236000001" class="text">.
</text>
<text x="114.000004656" y="548.00001135" width="52.99999236800001" height="29.000031390000004" class="text">Public </text>
<text x="175.000006408" y="548.00001135" width="90.00000811200005" height="29.000031390000004" class="text">Reporting </text>
<text x="272.00001" y="548.00001135" width="60.99998068000002" height="29.000031390000004" class="text">Burden</text>
<text x="337.00000064" y="548.00001135" width="8.000002360000053" height="29.000031390000004" class="text">. </text>
<text x="352.99998780000004" y="548.00001135" width="59.00001959999997" height="29.000031390000004" class="text">Public </text>
<text x="415.00001047999996" y="548.00001135" width="82.00000224000001" height="29.000031390000004" class="text">reporting </text>
<text x="503.99999064" y="548.00001135" width="60.999998240000025" height="29.000031390000004" class="text">burden </text>
<text x="571.99998436" y="548.00001135" width="25.000031519999993" height="29.000031390000004" class="text">for </text>
<text x="606.00002512" y="548.00001135" width="27.999964360000035" height="29.000031390000004" class="text">this </text>
<text x="640.99998496" y="548.00001135" width="85.00000532000001" height="29.000031390000004" class="text">collection </text>
<text x="734.0000102" y="548.00001135" width="16.999976479999987" height="29.000031390000004" class="text">of </text>
<text x="759.0000066" y="548.00001135" width="100.00002072000007" height="29.000031390000004" class="text">information </text>
<text x="866.0000228" y="548.00001135" width="15.000015399999938" height="29.000031390000004" class="text">is </text>
<text x="887.9999809999999" y="548.00001135" width="80.00000604000002" height="29.000031390000004" class="text">estimated </text>
<text x="975.0000352000001" y="548.00001135" width="16.99992379999992" height="29.000031390000004" class="text">to </text>
<text x="1000.99995068" y="548.00001135" width="66.00003263999997" height="29.000031390000004" class="text">average </text>
<text x="1075.999975" y="548.00001135" width="26.000020839999934" height="29.000031390000004" class="text">1.5 </text>
<text x="1106.99999512" y="548.00001135" width="53.000013439999975" height="29.000031390000004" class="text">hours </text>
<text x="1161.99995208" y="548.00001135" width="30.000030800000104" height="29.000031390000004" class="text">per </text>
<text x="1197.99995392" y="548.00001135" width="75.00002431999997" height="29.000031390000004" class="text">response</text>
<text x="1276.0000164399999" y="548.00001135" width="8.00001992000034" height="29.000031390000004" class="text">, </text>
<text x="1285.0000081199998" y="548.00001135" width="85.00000532000013" height="29.000031390000004" class="text">including </text>
<text x="1375.0000127199999" y="548.00001135" width="28.99993612000003" height="29.000031390000004" class="text">the </text>
<text x="1411.99998632" y="548.00001135" width="40.99998355999992" height="29.000031390000004" class="text">time </text>
<text x="1457.9999516" y="548.00001135" width="25.000049080000053" height="29.000031390000004" class="text">for
</text>
<text x="111.999999676" y="577.99998729" width="90.00000284400001" height="31.999978889999966" class="text">reviewing </text>
<text x="203.99999872" y="577.99998729" width="109.99998416" height="31.999978889999966" class="text">instructions</text>
<text x="310.00000804" y="577.99998729" width="8.999991679999994" height="31.999978889999966" class="text">, </text>
<text x="320.0000066" y="577.99998729" width="85.00000531999996" height="31.999978889999966" class="text">searching </text>
<text x="411.00000052" y="577.99998729" width="70.99999680000002" height="31.999978889999966" class="text">existing </text>
<text x="488.00000348" y="577.99998729" width="37.99999803999998" height="31.999978889999966" class="text">data </text>
<text x="530.00001148" y="577.99998729" width="70.99997924000002" height="31.999978889999966" class="text">sources</text>
<text x="598.0000051999999" y="577.99998729" width="8.999991680000107" height="31.999978889999966" class="text">, </text>
<text x="611.00000684" y="577.99998729" width="83.00000912000007" height="31.999978889999966" class="text">gathering </text>
<text x="700.0000221199999" y="577.99998729" width="32.99996364000003" height="31.999978889999966" class="text">and </text>
<text x="741.00000568" y="577.99998729" width="103.99997800000006" height="31.999978889999966" class="text">maintaining </text>
<text x="848.00002188" y="577.99998729" width="27.999964360000035" height="31.999978889999966" class="text">the </text>
<text x="882.99998172" y="577.99998729" width="38.00006827999994" height="31.999978889999966" class="text">data </text>
<text x="922.9999935200001" y="577.99998729" width="65.00006087999986" height="31.999978889999966" class="text">needed</text>
<text x="988.0000544" y="577.99998729" width="8.999991679999994" height="31.999978889999966" class="text">, </text>
<text x="998.00001784" y="577.99998729" width="31.000020120000045" height="31.999978889999966" class="text">and </text>
<text x="1035.9999632" y="577.99998729" width="100.00007340000002" height="31.999978889999966" class="text">completing </text>
<text x="1142.00000764" y="577.99998729" width="31.999991880000152" height="31.999978889999966" class="text">and </text>
<text x="1182.00001944" y="577.99998729" width="88.0000259599999" height="31.999978889999966" class="text">reviewing </text>
<text x="1273.99995" y="577.99998729" width="28.000087280000116" height="31.999978889999966" class="text">the </text>
<text x="1308.00000832" y="577.99998729" width="84.99998776000007" height="31.999978889999966" class="text">collection </text>
<text x="1401.00003356" y="577.99998729" width="18.999972679999928" height="31.999978889999966" class="text">of </text>
<text x="1425.9999597199999" y="577.99998729" width="103.00000624000018" height="31.999978889999966" class="text">information</text>
<text x="1532.0000041600001" y="577.99998729" width="8.999991679999766" height="31.999978889999966" class="text">.
</text>
<text x="109.999994696" y="601.99999992" width="45.00000756799999" height="28.000018530000034" class="text">Send </text>
<text x="162.99999935600002" y="601.99999992" width="87.99998908399999" height="28.000018530000034" class="text">comments </text>
<text x="258.9999908" y="601.99999992" width="82.99999156000001" height="28.000018530000034" class="text">regarding </text>
<text x="350.00001984" y="601.99999992" width="32.999981200000036" height="28.000018530000034" class="text">this </text>
<text x="388.99998964" y="601.99999992" width="59.00000203999997" height="28.000018530000034" class="text">burden </text>
<text x="457.99997268" y="601.99999992" width="71.00001436000008" height="28.000018530000034" class="text">estimate </text>
<text x="539.00002072" y="601.99999992" width="14.999962720000099" height="28.000018530000034" class="text">or </text>
<text x="559.00001784" y="601.99999992" width="32.99996364000003" height="28.000018530000034" class="text">any </text>
<text x="600.0000014" y="601.99999992" width="44.000021760000095" height="28.000018530000034" class="text">other </text>
<text x="651.00001864" y="601.99999992" width="53.99998519999997" height="28.000018530000034" class="text">aspect </text>
<text x="710.99997488" y="601.99999992" width="21.00003912000011" height="28.000018530000034" class="text">of </text>
<text x="736.00002396" y="601.99999992" width="26.999992599999928" height="28.000018530000034" class="text">this </text>
<text x="768.9999876" y="601.99999992" width="85.00000532000001" height="28.000018530000034" class="text">collection </text>
<text x="866.0000228" y="601.99999992" width="15.999987159999932" height="28.000018530000034" class="text">of </text>
<text x="885.0000481599999" y="601.99999992" width="103.99997800000017" height="28.000018530000034" class="text">information</text>
<text x="991.999959" y="601.99999992" width="8.00001992" height="28.000018530000034" class="text">, </text>
<text x="1004.99996064" y="601.99999992" width="83.00004423999997" height="28.000018530000034" class="text">including </text>
<text x="1092.0000324" y="601.99999992" width="103.99996044" height="28.000018530000034" class="text">suggestions </text>
<text x="1201.99996388" y="601.99999992" width="24.000077319999946" height="28.000018530000034" class="text">for </text>
<text x="1231.99999468" y="601.99999992" width="80.00002359999985" height="28.000018530000034" class="text">reducing </text>
<text x="1316.00002824" y="601.99999992" width="32.99996364000026" height="28.000018530000034" class="text">this </text>
<text x="1354.9999453599999" y="601.99999992" width="59.00008984000033" height="28.000018530000034" class="text">burden </text>
<text x="1424.0000162000001" y="601.99999992" width="14.999962719999985" height="28.000018530000034" class="text">to </text>
<text x="1446.0000270799999" y="601.99999992" width="49.00000348000003" height="28.000018530000034" class="text">Chief</text>
<text x="1496.00000232" y="601.99999992" width="8.000019919999886" height="28.000018530000034" class="text">,
</text>
<text x="110.99999630800001" y="629.00002836" width="108.99998957200002" height="29.000008619999903" class="text">Registration </text>
<text x="227.00001648000003" y="629.00002836" width="40.99998355999995" height="29.000008619999903" class="text">Unit</text>
<text x="266.00000384" y="629.00002836" width="8.000002359999996" height="29.000008619999903" class="text">, </text>
<text x="281.00000168" y="629.00002836" width="80.99999535999996" height="29.000008619999903" class="text">Criminal </text>
<text x="363.00000392" y="629.00002836" width="78.00000984000008" height="29.000008619999903" class="text">Division</text>
<text x="439.99997176000005" y="629.00002836" width="8.000019919999943" height="29.000008619999903" class="text">, </text>
<text x="454.00001540000005" y="629.00002836" width="41.99995531999991" height="29.000008619999903" class="text">U.S. </text>
<text x="494.99999896" y="629.00002836" width="111.00002616" height="29.000008619999903" class="text">Department </text>
<text x="609.00001064" y="629.00002836" width="19.99999711999999" height="29.000008619999903" class="text">of </text>
<text x="636.999975" y="629.00002836" width="55.00002720000009" height="29.000008619999903" class="text">Justice</text>
<text x="692.99997396" y="629.00002836" width="8.00001992" height="29.000008619999903" class="text">, </text>
<text x="703.9999794" y="629.00002836" width="104.00003068000001" height="29.000008619999903" class="text">Washington</text>
<text x="812.00002004" y="629.00002836" width="7.999967240000046" height="29.000008619999903" class="text">, </text>
<text x="819.99998728" y="629.00002836" width="33.000016319999986" height="29.000008619999903" class="text">DC </text>
<text x="859.99999908" y="629.00002836" width="55.99994628000002" height="29.000008619999903" class="text">20530</text>
<text x="918.99998356" y="629.00002836" width="8.00001992" height="29.000008619999903" class="text">; </text>
<text x="931.0000134400001" y="629.00002836" width="28.999953679999862" height="29.000008619999903" class="text">and </text>
<text x="964.99994884" y="629.00002836" width="17.000029160000054" height="29.000008619999903" class="text">to </text>
<text x="989.0000261600001" y="629.00002836" width="28.999953679999862" height="29.000008619999903" class="text">the </text>
<text x="1021.00000048" y="629.00002836" width="57.000040959999865" height="29.000008619999903" class="text">Office </text>
<text x="1083.00002316" y="629.00002836" width="22.00001087999999" height="29.000008619999903" class="text">of </text>
<text x="1106.99999512" y="629.00002836" width="103.99997799999983" height="29.000008619999903" class="text">Information </text>
<text x="1218.9999930400002" y="629.00002836" width="34.00004075999982" height="29.000008619999903" class="text">and </text>
<text x="1255.99996664" y="629.00002836" width="100.00005583999996" height="29.000008619999903" class="text">Regulatory </text>
<text x="1366.9999752400001" y="629.00002836" width="58.00001271999986" height="29.000008619999903" class="text">Affairs</text>
<text x="1425.9999597199999" y="629.00002836" width="8.000019920000113" height="29.000008619999903" class="text">, </text>
<text x="1438.99997892" y="629.00002836" width="53.000013439999975" height="29.000008619999903" class="text">Office </text>
<text x="1503.00005048" y="629.00002836" width="14.999962719999985" height="29.000008619999903" class="text">of
</text>
<text x="110.99999630800001" y="657.00002412" width="121.00000189199999" height="27.999995760000047" class="text">Management </text>
<text x="237.00001504" y="655.99998849" width="28.999988799999983" height="25.99999280999998" class="text">and </text>
<text x="275.00001308000003" y="655.99998849" width="64.99999063999996" height="25.99999280999998" class="text">Budget</text>
<text x="339.0000144" y="655.99998849" width="6.9999954799999955" height="25.99999280999998" class="text">, </text>
<text x="350.99999160000004" y="655.99998849" width="105.00003755999995" height="28.000018530000034" class="text">Washington</text>
<text x="458.99999712" y="654.9999984" width="6.999995480000052" height="25.999970039999994" class="text">, </text>
<text x="470.99999188" y="654.9999984" width="28.000017040000046" height="25.999970039999994" class="text">DC </text>
<text x="510.00001435999997" y="654.9999984" width="55.99999896000003" height="25.999970039999994" class="text">20503</text>
<text x="568.00002708" y="654.9999984" width="6.999995480000052" height="25.999970039999994" class="text">.
</text>
<text x="888.99995276" y="739.9999985400001" width="24.000059759999886" height="32.000001660000066" class="text">2. </text>
<text x="922.00002176" y="739.9999985400001" width="134.99998056000004" height="33.999981840000146" class="text">Registration </text>
<text x="1065.00002224" y="739.0000084499999" width="49.00000348000026" height="32.00000165999984" class="text">No.
</text>
<text x="129.999997084" y="738.00004113" width="25.000005179999988" height="33.00006006000001" class="text">1. </text>
<text x="164.00000096800002" y="739.9999985400001" width="66.99999035199994" height="35.0000174700001" class="text">Name </text>
<text x="238.99999368000002" y="739.9999985400001" width="25.00001395999996" height="32.99999175000005" class="text">of </text>
<text x="266.00000384" y="743.0000143499999" width="123.99999267999999" height="36.00000755999986" class="text">Registrant
</text>
<text x="128.000006152" y="797.00000292" width="61.999984048000016" height="36.00000755999997" class="text">JWI</text>
<text x="195.99999635999998" y="797.00000292" width="9.999998560000023" height="36.00000755999997" class="text">, </text>
<text x="228.0000058" y="797.00000292" width="60.999998240000025" height="36.00000755999997" class="text">LLC </text>
<text x="317.99999284" y="797.00000292" width="10.000016119999998" height="36.00000755999997" class="text">(</text>
<text x="331.00001204" y="797.00000292" width="78.99998160000001" height="36.00000755999997" class="text">Also </text>
<text x="436.99998624" y="797.00000292" width="100.00002072000007" height="36.00000755999997" class="text">doing </text>
<text x="559.00001784" y="797.00000292" width="163.99998691999997" height="36.00000755999997" class="text">business </text>
<text x="747.0000294" y="797.00000292" width="38.99996980000003" height="36.00000755999997" class="text">as
</text>
<text x="131.000000452" y="828.00001449" width="176.99999382800002" height="35.00001746999999" class="text">Jefferson </text>
<text x="328.99999828" y="828.00001449" width="168.00001443999997" height="34.000027380000006" class="text">Waterman </text>
<text x="521.99999156" y="829.00000458" width="269.00000692000003" height="33.99998184000003" class="text">International</text>
<text x="793.99996644" y="829.00000458" width="9.000061920000007" height="32.99999175000005" class="text">)
</text>
<text x="1016.99999052" y="828.00001449" width="79.00005183999997" height="30.000021479999987" class="text">4990
</text>
<text x="114.000004656" y="950.00003505" width="24.999992887999994" height="32.999991749999936" class="text">3. </text>
<text x="150.000001228" y="950.00003505" width="47.00000201199998" height="32.999991749999936" class="text">This </text>
<text x="205.99999492" y="951.9999924599999" width="129.99999884" height="34.999949159999915" class="text">amendment </text>
<text x="342.99998924" y="951.00000237" width="19.00000779999999" height="32.999991749999936" class="text">is </text>
<text x="370.99998872" y="951.9999924599999" width="44.99999352000003" height="33.99998183999992" class="text">filed </text>
<text x="425.99999836" y="951.9999924599999" width="19.000025359999995" height="32.999991749999936" class="text">to </text>
<text x="454.00001540000005" y="952.99998255" width="126.99996063999993" height="34.999971930000015" class="text">accomplish </text>
<text x="586.99999976" y="952.99998255" width="33.000016319999986" height="33.99998184000003" class="text">the </text>
<text x="629.99997952" y="954.00001818" width="107.0000162" height="34.00002737999989" class="text">following </text>
<text x="743.00001944" y="955.00000827" width="98.99997872000006" height="35.000017469999875" class="text">indicated </text>
<text x="848.9999936400001" y="954.00001818" width="92.00000079999995" height="32.999991749999936" class="text">purpose </text>
<text x="949.99998612" y="954.00001818" width="18.999972679999928" height="32.999991749999936" class="text">or </text>
<text x="979.00004516" y="955.99999836" width="99.99996804" height="34.9999719299999" class="text">purposes</text>
<text x="1079.0000132" y="955.00000827" width="8.999991679999994" height="32.999991749999936" class="text">:
</text>
<text x="151.000004596" y="1012.00001265" width="10.000002072000001" height="33.99998184000003" class="text">☐ </text>
<text x="190.99999708" y="1012.00001265" width="25.00001395999999" height="33.99998184000003" class="text">To </text>
<text x="225.00000271999997" y="1012.00001265" width="49.000003480000004" height="33.99998184000003" class="text">give </text>
<text x="279.99999479999997" y="1012.00001265" width="9.999998560000051" height="33.99998184000003" class="text">a </text>
<text x="304.99999119999995" y="1012.00001265" width="19.00000780000005" height="33.99998184000003" class="text">10</text>
<text x="331.00001204" y="1012.00001265" width="9.999980999999991" height="33.99998184000003" class="text">-</text>
<text x="340.00000372" y="1012.00001265" width="34.99999495999998" height="33.99998184000003" class="text">day </text>
<text x="384.99999724" y="1012.00001265" width="69.00001816000002" height="33.99998184000003" class="text">notice </text>
<text x="463.9999964" y="1012.00001265" width="19.99999711999999" height="33.99998184000003" class="text">of </text>
<text x="490.999989" y="1012.00001265" width="78.99998159999996" height="33.99998184000003" class="text">change </text>
<text x="577.00001876" y="1012.00001265" width="18.99997268000004" height="33.99998184000003" class="text">in </text>
<text x="604.00001136" y="1012.00001265" width="128.99997439999993" height="33.99998184000003" class="text">information </text>
<text x="741.99997744" y="1012.00001265" width="24.999996399999986" height="33.99998184000003" class="text">as </text>
<text x="768.9999876" y="1012.00001265" width="97.00003519999996" height="33.99998184000003" class="text">required </text>
<text x="869.99998008" y="1012.00001265" width="31.000002559999984" height="33.99998184000003" class="text">by </text>
<text x="909.00000256" y="1012.00001265" width="79.00005183999997" height="33.99998184000003" class="text">Section </text>
<text x="998.00001784" y="1012.00001265" width="9.999980999999934" height="33.99998184000003" class="text">2</text>
<text x="1011.0000370399999" y="1012.00001265" width="9.999963440000101" height="33.99998184000003" class="text">(</text>
<text x="1021.00000048" y="1012.00001265" width="9.99998099999982" height="33.99998184000003" class="text">b</text>
<text x="1038.00002964" y="1012.00001265" width="9.999980999999934" height="33.99998184000003" class="text">) </text>
<text x="1052.0000206" y="1012.00001265" width="24.99994371999992" height="33.99998184000003" class="text">of </text>
<text x="1079.99998496" y="1012.00001265" width="34.000040760000275" height="33.99998184000003" class="text">the </text>
<text x="1124.99997848" y="1012.00001265" width="39.00004004000016" height="33.99998184000003" class="text">Act</text>
<text x="1164.0000185200001" y="1012.00001265" width="9.999980999999934" height="33.99998184000003" class="text">.
</text>
<text x="151.999993916" y="1064.00002104" width="9.000012752000004" height="32.00000166000018" class="text">☐ </text>
<text x="194.00000015999998" y="1064.00002104" width="23.000000200000017" height="32.00000166000018" class="text">To </text>
<text x="228.0000058" y="1065.99997845" width="76.99998539999996" height="32.99999175000016" class="text">correct </text>
<text x="314.99998976" y="1065.00001113" width="9.000009239999997" height="32.00002443000017" class="text">a </text>
<text x="333.99999756" y="1066.99996854" width="113.00002236" height="33.999981840000146" class="text">deficiency </text>
<text x="454.00001540000005" y="1065.99997845" width="18.000000919999934" height="32.00000166000018" class="text">in
</text>
<text x="222.99998896" y="1110.9999879" width="6.999995480000024" height="24.0000126299999" class="text">☐ </text>
<text x="257.99998392000003" y="1113.0000136200001" width="69.00001815999997" height="26.000038350000068" class="text">Initial </text>
<text x="333.99999756" y="1114.00000371" width="113.99999412" height="25.999970040000107" class="text">Statement
</text>
<text x="219.99998588000003" y="1173.9999555900001" width="9.999998559999995" height="33.999981840000146" class="text">☐ </text>
<text x="255.00001595999998" y="1173.9999555900001" width="158.99998764000003" height="33.999981840000146" class="text">Supplemental </text>
<text x="419.9999922" y="1173.9999555900001" width="113.99999411999994" height="33.999981840000146" class="text">Statement </text>
<text x="539.99999248" y="1173.9999555900001" width="29.999978120000037" height="33.999981840000146" class="text">for </text>
<text x="580.00000428" y="1173.9999555900001" width="33.000016319999986" height="33.999981840000146" class="text">the </text>
<text x="616.9999778800001" y="1173.9999555900001" width="70.00004259999992" height="33.999981840000146" class="text">period </text>
<text x="696.00001216" y="1173.9999555900001" width="76.99998540000001" height="33.999981840000146" class="text">ending</text>
<text x="774.0000220000001" y="1173.9999555900001" width="9.999980999999934" height="33.999981840000146" class="text">,
</text>
<text x="217.99998968" y="1224.00007488" width="9.000026800000029" height="32.00002443000017" class="text">☐ </text>
<text x="255.00001595999998" y="1226.00003229" width="68.99998304000002" height="33.999981840000146" class="text">Other </text>
<text x="327.00000208" y="1227.00002238" width="92.99999012" height="33.99998183999992" class="text">purpose </text>
<text x="429.00000144" y="1227.00002238" width="8.999991679999994" height="32.00002443000017" class="text">(</text>
<text x="437.99999312" y="1228.9999797900002" width="77.00000295999996" height="33.99998184000037" class="text">specify</text>
<text x="519.00000604" y="1228.9999797900002" width="9.00000923999994" height="32.00000166000018" class="text">)
</text>
<text x="152.999997284" y="1281.00005649" width="8.999998704000006" height="33.00012836999986" class="text">☑ </text>
<text x="192.00000396" y="1281.00005649" width="24.999996400000015" height="33.00012836999986" class="text">To </text>
<text x="228.99999511999997" y="1281.00005649" width="44.00000420000006" height="33.00012836999986" class="text">give </text>
<text x="281.00000168" y="1281.00005649" width="68.00001127999997" height="33.00012836999986" class="text">notice </text>
<text x="356.99999776" y="1281.00005649" width="24.999996400000043" height="33.00012836999986" class="text">of </text>
<text x="387.99998276" y="1281.00005649" width="76.00001363999996" height="33.00012836999986" class="text">change </text>
<text x="476.00002628" y="1281.00005649" width="10.999952760000042" height="33.00012836999986" class="text">in </text>
<text x="503.00001888" y="1281.00005649" width="18.00000091999999" height="33.00012836999986" class="text">an </text>
<text x="535.00001076" y="1281.00005649" width="80.0000060399999" height="33.00012836999986" class="text">exhibit </text>
<text x="620.99998784" y="1281.00005649" width="111.00002616000006" height="33.00012836999986" class="text">previously </text>
<text x="746.00000496" y="1281.00005649" width="44.99999352000009" height="33.00012836999986" class="text">filed</text>
<text x="793.99996644" y="1281.00005649" width="9.000061920000007" height="33.00012836999986" class="text">.
</text>
<text x="110.99999630800001" y="1342.99998855" width="29.000002847999994" height="32.00002442999994" class="text">4. </text>
<text x="147.999996248" y="1342.99998855" width="17.999997408000013" height="32.00002442999994" class="text">If </text>
<text x="175.000006408" y="1342.99998855" width="34.999998472000016" height="32.00002442999994" class="text">this </text>
<text x="217.00000036" y="1342.99998855" width="135.99998744000004" height="32.00002442999994" class="text">amendment </text>
<text x="359.00001152" y="1342.99998855" width="89.99996948000006" height="32.00002442999994" class="text">requires </text>
<text x="454.99998716" y="1342.99998855" width="37.00002628000004" height="32.00002442999994" class="text">the </text>
<text x="501.99999444" y="1342.99998855" width="53.000013439999975" height="32.00002442999994" class="text">filing </text>
<text x="562.00000336" y="1342.99998855" width="29.00000635999993" height="32.00002442999994" class="text">of </text>
<text x="595.99999144" y="1342.99998855" width="9.000009240000054" height="32.00002442999994" class="text">a </text>
<text x="613.9999923600001" y="1342.99998855" width="109.00001239999995" height="32.00002442999994" class="text">document </text>
<text x="728.9999758" y="1342.99998855" width="24.000007080000046" height="32.00002442999994" class="text">or </text>
<text x="756.99999284" y="1342.99998855" width="120.0000354" height="32.00002442999994" class="text">documents</text>
<text x="877.00002824" y="1342.99998855" width="8.999991679999994" height="32.00002442999994" class="text">, </text>
<text x="891.99999096" y="1342.99998855" width="67.00000439999997" height="32.00002442999994" class="text">please </text>
<text x="971.0000252400001" y="1342.99998855" width="33.99993539999991" height="32.00002442999994" class="text">list-
</text>
<text x="111.999999676" y="1617.0000283799998" width="25.9999945" height="34.999971929999674" class="text">5. </text>
<text x="148.999999616" y="1617.0000283799998" width="56.00000598400001" height="34.999971929999674" class="text">Each </text>
<text x="212.9999904" y="1617.0000283799998" width="44.99999352000003" height="34.999971929999674" class="text">item </text>
<text x="271.00000312000003" y="1617.0000283799998" width="88.00000839999996" height="34.999971929999674" class="text">checked </text>
<text x="368.00000320000004" y="1617.0000283799998" width="67.99999371999996" height="34.999971929999674" class="text">above </text>
<text x="447.99999168" y="1617.0000283799998" width="47.99997903999997" height="34.999971929999674" class="text">must </text>
<text x="503.99999064" y="1617.0000283799998" width="26.00002083999999" height="34.999971929999674" class="text">be </text>
<text x="541.00001692" y="1617.0000283799998" width="104.99996732" height="34.999971929999674" class="text">explained </text>
<text x="654.99997592" y="1617.0000283799998" width="61.000033359999975" height="34.999971929999674" class="text">below </text>
<text x="730.9999720000001" y="1617.0000283799998" width="13.000019199999997" height="34.999971929999674" class="text">in </text>
<text x="757.99998216" y="1617.0000283799998" width="41.0000362400001" height="34.999971929999674" class="text">full </text>
<text x="802.00000392" y="1617.0000283799998" width="60.99998067999991" height="34.999971929999674" class="text">detail </text>
<text x="869.99998008" y="1617.0000283799998" width="89.99998703999995" height="34.999971929999674" class="text">together </text>
<text x="967.99998704" y="1617.0000283799998" width="41.99995532000014" height="34.999971929999674" class="text">with</text>
<text x="1016.00001876" y="1617.0000283799998" width="9.99998099999982" height="34.999971929999674" class="text">, </text>
<text x="1026.99997152" y="1617.0000283799998" width="69.00007084000003" height="34.999971929999674" class="text">where </text>
<text x="1107.99996688" y="1617.0000283799998" width="123.00005603999989" height="34.999971929999674" class="text">appropriate</text>
<text x="1236.99999396" y="1617.0000283799998" width="9.999963440000101" height="34.999971929999674" class="text">, </text>
<text x="1250.99996736" y="1617.0000283799998" width="83.00006180000014" height="34.999971929999674" class="text">specific </text>
<text x="1342.00004908" y="1617.0000283799998" width="104.99994975999994" height="34.999971929999674" class="text">reference </text>
<text x="1454.000047" y="1617.0000283799998" width="19.999944440000036" height="34.999971929999674" class="text">to </text>
<text x="1486.00002132" y="1617.0000283799998" width="35.00003007999976" height="34.999971929999674" class="text">and
</text>
<text x="147.999996248" y="1652.99996763" width="79.00002023200003" height="35.999939250000125" class="text">identity </text>
<text x="240.99998988000002" y="1652.99996763" width="21.00000400000002" height="35.999939250000125" class="text">of </text>
<text x="266.99999316" y="1652.99996763" width="35.00001252000004" height="35.999939250000125" class="text">the </text>
<text x="311.00001492" y="1652.99996763" width="46.999989719999974" height="35.999939250000125" class="text">item </text>
<text x="368.00000320000004" y="1652.99996763" width="13.999990959999991" height="35.999939250000125" class="text">in </text>
<text x="397.99998131999996" y="1652.99996763" width="30.000013240000044" height="35.999939250000125" class="text">the </text>
<text x="435.99999692" y="1652.99996763" width="124.99998199999999" height="35.999939250000125" class="text">registration </text>
<text x="573.0000087999999" y="1652.99996763" width="105.99999176000006" height="35.999939250000125" class="text">statement </text>
<text x="683.99998228" y="1652.99996763" width="21.000021559999936" height="35.999939250000125" class="text">to </text>
<text x="714.00001308" y="1652.99996763" width="62.99999444000002" height="35.999939250000125" class="text">which </text>
<text x="790.00000916" y="1652.99996763" width="13.000019199999997" height="35.999939250000125" class="text">it </text>
<text x="808.00001008" y="1652.99996763" width="92.00000079999984" height="35.999939250000125" class="text">pertains</text>
<text x="900.0000108799999" y="1652.99996763" width="9.999981000000162" height="35.999939250000125" class="text">. </text>
<text x="921.00005" y="1652.99996763" width="9.999963440000101" height="35.999939250000125" class="text">(</text>
<text x="928.9999645600001" y="1652.99996763" width="20.000049799999942" height="35.999939250000125" class="text">If </text>
<text x="953.99999608" y="1652.99996763" width="64.99995551999996" height="35.999939250000125" class="text">space </text>
<text x="1027.99994328" y="1652.99996763" width="13.000019199999997" height="35.999939250000125" class="text">is </text>
<text x="1052.0000206" y="1652.99996763" width="129.00000952000005" height="35.999939250000125" class="text">insufficient</text>
<text x="1177.00002016" y="1652.99996763" width="9.999980999999934" height="35.999939250000125" class="text">, </text>
<text x="1191.00001112" y="1652.99996763" width="9.999980999999934" height="35.999939250000125" class="text">a </text>
<text x="1213.99999376" y="1652.99996763" width="40.99998355999992" height="35.999939250000125" class="text">full </text>
<text x="1257.00004376" y="1652.99996763" width="67.00000440000008" height="35.999939250000125" class="text">insert </text>
<text x="1325.99999168" y="1652.99996763" width="59.99997379999991" height="35.999939250000125" class="text">page </text>
<text x="1393.9999854" y="1652.99996763" width="56.00005163999981" height="35.999939250000125" class="text">must </text>
<text x="1452.99996988" y="1652.99996763" width="26.99999260000004" height="35.999939250000125" class="text">be </text>
<text x="1483.99997244" y="1652.99996763" width="52.000041680000095" height="35.999939250000125" class="text">used</text>
<text x="1540.9999958399999" y="1652.99996763" width="9.999981000000162" height="35.999939250000125" class="text">.</text>
<text x="1548.0000440000001" y="1652.99996763" width="9.999980999999934" height="35.999939250000125" class="text">)
</text>
<text x="108.000002008" y="1696.00006521" width="36.99999818400002" height="33.000128370000084" class="text">In </text>
<text x="170.999994692" y="1698.00002262" width="179.000025148" height="35.00008578000006" class="text">reference </text>
<text x="376.00000556" y="1697.00003253" width="37.00000871999998" height="32.99999175000016" class="text">to </text>
<text x="437.99999312" y="1699.00001271" width="142.99998291999998" height="34.99997193000013" class="text">Exhibit </text>
<text x="606.99999688" y="1699.00001271" width="9.00000923999994" height="32.99999175000016" class="text">B </text>
<text x="645.99998424" y="1699.00001271" width="101.00004516000001" height="32.99999175000016" class="text">dated </text>
<text x="768.9999876" y="1699.00001271" width="35.99998427999992" height="32.99999175000016" class="text">on </text>
<text x="830.0000209599999" y="1700.0000028000002" width="100.99999248000017" height="32.99999175000016" class="text">March </text>
<text x="957.0000342799999" y="1700.0000028000002" width="36.000001840000095" height="32.99999175000016" class="text">29</text>
<text x="1003.99998888" y="1700.0000028000002" width="8.999991679999994" height="32.99999175000016" class="text">, </text>
<text x="1039.0000014" y="1700.9999701200002" width="80.00002360000008" height="32.99999175000016" class="text">2002</text>
<text x="1128.9999884400002" y="1700.9999701200002" width="9.000009239999827" height="32.99999175000016" class="text">, </text>
<text x="1160.00000856" y="1700.9999701200002" width="41.999955320000026" height="32.99999175000016" class="text">no </text>
<text x="1227.00001296" y="1702.9999503000001" width="124.0000278" height="34.99997193000013" class="text">formal </text>
<text x="1371.99997452" y="1704.00005424" width="183.00001227999996" height="35.00008578000006" class="text">agreement </text>
<text x="1576.0000259199999" y="1704.00005424" width="60.99992800000018" height="34.00009569000008" class="text">has
</text>
<text x="106.00000229599999" y="1737.00004599" width="79.99999550400003" height="40.99998077999999" class="text">been </text>
<text x="213.99999728" y="1738.00003608" width="95.00000388000001" height="41.000003549999974" class="text">filed </text>
<text x="332.99999068" y="1738.00003608" width="36.99999115999998" height="41.000003549999974" class="text">on </text>
<text x="391.99999271999997" y="1739.99999349" width="123.99999268000005" height="42.99996095999995" class="text">behalf </text>
<text x="539.99999248" y="1739.00002617" width="44.999993519999975" height="41.000003549999974" class="text">of </text>
<text x="602.00001516" y="1739.00002617" width="58.999984479999966" height="41.000003549999974" class="text">the </text>
<text x="689.00001668" y="1740.9999835800002" width="119.99996515999999" height="41.9999708700002" class="text">Somali </text>
<text x="833.00000648" y="1741.99997367" width="158.99995251999997" height="42.99996095999995" class="text">Republic</text>
<text x="1003.0000171199999" y="1740.9999835800002" width="12.000029879999943" height="40.99998077999999" class="text">, </text>
<text x="1035.9999632" y="1742.9999637600001" width="167.0000778000001" height="42.99996095999995" class="text">Ministry </text>
<text x="1227.00001296" y="1741.99997367" width="36.999973599999976" height="41.00000354999975" class="text">of </text>
<text x="1286.9999692" y="1743.9999310800001" width="141.00005696000017" height="42.99996095999995" class="text">Foreign </text>
<text x="1450.0000370399998" y="1743.9999310800001" width="145.99993332000008" height="42.99996095999995" class="text">Affairs</text>
<text x="1606.00005672" y="1742.9999637600001" width="11.99992452000015" height="41.0000035500002" class="text">.
</text>
<text x="106.00000229599999" y="1773.00000801" width="225.000009744" height="40.00001346000022" class="text">Furthermore</text>
<text x="340.99999304" y="1773.00000801" width="11.99999476000005" height="40.00001346000022" class="text">, </text>
<text x="374.00000936" y="1773.00000801" width="36.999991160000036" height="40.00001346000022" class="text">no </text>
<text x="433.0000114" y="1773.00000801" width="80.99996024000001" height="40.00001346000022" class="text">work </text>
<text x="542.0000062400001" y="1773.00000801" width="62.99999444000002" height="40.00001346000022" class="text">has </text>
<text x="620.99998784" y="1773.00000801" width="82.0000197999999" height="40.00001346000022" class="text">been </text>
<text x="725.0000185199999" y="1773.00000801" width="185.99994512" height="40.00001346000022" class="text">performed </text>
<text x="934.00005164" y="1773.00000801" width="36.99997360000009" height="40.00001346000022" class="text">on </text>
<text x="998.00001784" y="1773.00000801" width="121.00000716" height="40.00001346000022" class="text">behalf </text>
<text x="1141.0000358799998" y="1773.00000801" width="44.00002176000021" height="40.00001346000022" class="text">of </text>
<text x="1205.99997384" y="1773.00000801" width="57.000023400000146" height="40.00001346000022" class="text">the </text>
<text x="1290.0000074" y="1773.00000801" width="137.000047" height="40.00001346000022" class="text">foreign </text>
<text x="1454.000047" y="1773.00000801" width="186.99991688" height="40.00001346000022" class="text">principal
</text>
<text x="106.99999864" y="1802.00006217" width="205.99999492" height="35.00010855000005" class="text">throughout </text>
<text x="335.00000444" y="1800.99993546" width="80.00000603999996" height="33.99998183999992" class="text">this </text>
<text x="441.00001376000006" y="1799.99994537" width="73.9999823199999" height="32.999991749999936" class="text">time</text>
<text x="526.99999084" y="1799.99994537" width="8.999991679999994" height="32.999991749999936" class="text">. </text>
<text x="586.99999976" y="1806.99996708" width="75.99999607999996" height="37.999896660000104" class="text">This </text>
<text x="687.99999224" y="1806.99996708" width="240.9999723200001" height="37.999896660000104" class="text">registration </text>
<text x="953.00002432" y="1806.99996708" width="58.999984479999966" height="37.999896660000104" class="text">has </text>
<text x="1038.00002964" y="1806.99996708" width="159.99992427999996" height="37.999896660000104" class="text">formally </text>
<text x="1223.99997476" y="1806.99996708" width="101.0000451599999" height="37.999896660000104" class="text">ended </text>
<text x="1349.9999636399998" y="1806.99996708" width="35.000012520000155" height="37.999896660000104" class="text">on </text>
<text x="1410.00002524" y="1806.99996708" width="118.99994072000004" height="37.999896660000104" class="text">August </text>
<text x="1558.99999676" y="1806.99996708" width="35.00001251999993" height="37.999896660000104" class="text">28</text>
<text x="1603.0000185200001" y="1806.99996708" width="10.999952759999815" height="37.999896660000104" class="text">, </text>
<text x="1638.00003104" y="1806.99996708" width="81.99996711999984" height="37.999896660000104" class="text">2002</text>
<text x="1724.0000081199998" y="1806.99996708" width="10.999952760000042" height="37.999896660000104" class="text">.
</text>
<text x="711.9999993199999" y="2155.9999923" width="98.00002452000001" height="32.00002442999994" class="text">Formerly </text>
<text x="817.99999108" y="2154.00001212" width="53.00001344000009" height="30.000044249999974" class="text">OBD</text>
<text x="875.00001448" y="2153.0000448" width="8.999956559999987" height="29.000076929999977" class="text">-</text>
<text x="882.0000099599999" y="2153.0000448" width="26.00002084000016" height="29.000076929999977" class="text">68
</text>
<text x="1505.0000115599998" y="2155.0000022100003" width="55.99994628000013" height="19.99993842000049" class="text">FORM </text>
<text x="1571.00002664" y="2155.0000022100003" width="40.00001180000004" height="19.99993842000049" class="text">CRM</text>
<text x="1620.00003012" y="2155.0000022100003" width="5.999971039999991" height="19.99993842000049" class="text">-</text>
<text x="1626.9999729200001" y="2155.0000022100003" width="27.999981919999755" height="19.99993842000049" class="text">158
</text>
<text x="1550.00000508" y="2179.00001484" width="48.00003172000015" height="18.99997110000004" class="text">JUNE </text>
<text x="1607.00002848" y="2179.00001484" width="38.999917119999964" height="18.99997110000004" class="text">1998
</text>
</g>
<g id="page-1" transform="translate(0, 2297)">
<rect width="1756" height="2277" fill="none" stroke="black" />
<text x="783.00001368" y="194.00000152500002" width="201.0000132" height="29.000006343000024" class="text">EXECUTION
</text>
<text x="238.99999368000002" y="272.00001411" width="11.000005439999995" height="32.000024429999996" class="text">In </text>
<text x="266.00000384" y="272.00001411" width="124.99999956000005" height="34.000027380000006" class="text">accordance </text>
<text x="396.999992" y="271.00000125" width="46.99998972000003" height="33.000014520000036" class="text">with </text>
<text x="457.99997268" y="270.00001116" width="23.000035319999995" height="32.000024429999996" class="text">28 </text>
<text x="490.999989" y="270.00001116" width="80.00000604000002" height="33.00001452000001" class="text">U.S.C. </text>
<text x="575.99999432" y="268.9999983" width="8.99999167999988" height="32.00000166000004" class="text">§ </text>
<text x="598.0000051999999" y="268.9999983" width="53.00001344000009" height="32.00000166000004" class="text">1746</text>
<text x="653.0000324" y="268.9999983" width="8.999991679999994" height="32.00000166000004" class="text">, </text>
<text x="667.0000058" y="268.9999983" width="31.00002011999993" height="32.00000166000004" class="text">the </text>
<text x="705.99999316" y="268.9999983" width="133.00003703999994" height="34.00000461000002" class="text">undersigned </text>
<text x="846.99999744" y="266.99999535" width="65.00004332000003" height="32.00000166000001" class="text">swear</text>
<text x="914.9999736000001" y="266.99999535" width="8.999991679999766" height="32.00000166000001" class="text">(</text>
<text x="924.9999546" y="266.99999535" width="9.000097040000014" height="32.00000166000001" class="text">s</text>
<text x="935.0000234" y="266.99999535" width="9.00000923999994" height="32.00000166000001" class="text">) </text>
<text x="954.9999853999999" y="266.99999535" width="17.000011599999993" height="32.00000166000001" class="text">or </text>
<text x="984.0000268800001" y="266.00000526" width="60.9999455599999" height="32.00000166000001" class="text">affirm</text>
<text x="1049.99995416" y="266.00000526" width="9.000009240000054" height="32.00000166000001" class="text">(</text>
<text x="1058.9999634" y="266.00000526" width="8.999991679999994" height="32.00000166000001" class="text">s</text>
<text x="1071.99996504" y="266.00000526" width="9.000009239999827" height="32.00000166000001" class="text">) </text>
<text x="1083.99999492" y="266.00000526" width="63.99998375999985" height="33.000014520000036" class="text">under </text>
<text x="1158.00004748" y="266.00000526" width="75.99990828000023" height="34.00000461000002" class="text">penalty </text>
<text x="1244.0000245600002" y="265.00001517" width="23.99997195999981" height="33.00001451999998" class="text">of </text>
<text x="1272.00000648" y="265.00001517" width="80.99999536000018" height="34.000027380000006" class="text">perjury </text>
<text x="1360.00005" y="264.00000231" width="43.99989883999979" height="32.00000166000001" class="text">that </text>
<text x="1410.00002524" y="263.00001222" width="23.99995439999998" height="32.000024429999996" class="text">he</text>
<text x="1437.00001784" y="263.00001222" width="9.000009239999827" height="32.000024429999996" class="text">/</text>
<text x="1446.99999884" y="263.00001222" width="36.000001840000095" height="32.000024429999996" class="text">she </text>
<text x="1490.00003128" y="263.00001222" width="36.999973599999976" height="32.000024429999996" class="text">has </text>
<text x="1532.99997592" y="261.99999936" width="8.999991679999994" height="32.00000165999998" class="text">(</text>
<text x="1542.9999569200002" y="261.99999936" width="44.000021759999754" height="32.00000165999998" class="text">they
</text>
<text x="128.999995472" y="307.00000881" width="53.000009928000026" height="31.00001156999997" class="text">have </text>
<text x="200.00000632" y="306.00001872" width="47.00000727999998" height="31.000011570000026" class="text">read </text>
<text x="255.00001595999998" y="306.00001872" width="35.999984280000035" height="31.000011570000026" class="text">the </text>
<text x="296.99998884" y="306.00001872" width="126.000024" height="33.00001451999998" class="text">information </text>
<text x="434.99999004" y="304.00001577" width="31.00000256000004" height="31.00001156999997" class="text">set </text>
<text x="472.00001632" y="304.00001577" width="49.999975240000026" height="31.00001156999997" class="text">forth </text>
<text x="535.99998252" y="304.00001577" width="12.000029879999943" height="31.00001156999997" class="text">in </text>
<text x="564.0000171199999" y="303.00000291" width="34.99995984000009" height="30.999988799999983" class="text">this </text>
<text x="609.9999823999999" y="304.00001577" width="120.00001784000006" height="33.00001451999998" class="text">registration </text>
<text x="743.00001944" y="302.00001282000005" width="105.00000244" height="32.000001660000066" class="text">statement </text>
<text x="853.9999929200001" y="300.99999996" width="38.99996979999992" height="30.99998880000004" class="text">and </text>
<text x="900.99998264" y="300.99999996" width="31.000020120000045" height="30.99998880000004" class="text">the </text>
<text x="939.00003336" y="300.99999996" width="91.99994811999989" height="32.99999175000005" class="text">attached </text>
<text x="1039.9999907200001" y="300.00000987000004" width="84.00001599999996" height="33.000014520000036" class="text">exhibits </text>
<text x="1136.0000366" y="298.99999701" width="38.999934680000024" height="30.99998880000004" class="text">and </text>
<text x="1182.00001944" y="298.99999701" width="44.00002175999998" height="32.00000166000001" class="text">that </text>
<text x="1230.00005116" y="298.00000692000003" width="27.99996435999992" height="31.000011570000026" class="text">he</text>
<text x="1257.00004376" y="298.00000692000003" width="8.999991679999994" height="31.000011570000026" class="text">/</text>
<text x="1267.0000247599999" y="298.00000692000003" width="35.000012520000155" height="31.000011570000026" class="text">she </text>
<text x="1308.9999800800001" y="296.99999406" width="18.999972679999928" height="30.999988799999983" class="text">is </text>
<text x="1334.0000291600002" y="296.99999406" width="8.999991679999766" height="30.999988799999983" class="text">(</text>
<text x="1348.9999918800002" y="296.99999406" width="42.000060679999706" height="30.999988799999983" class="text">they </text>
<text x="1397.99999536" y="296.99999406" width="31.999974320000092" height="30.999988799999983" class="text">are</text>
<text x="1436.00004608" y="296.00000397" width="8.999991679999994" height="30.99998880000004" class="text">) </text>
<text x="1448.99994236" y="296.99999406" width="90.00010996000015" height="32.99999174999999" class="text">familiar </text>
<text x="1545.99999512" y="296.00000397" width="44.99999352000009" height="32.00000166000001" class="text">with
</text>
<text x="132.00000382" y="340.00000056" width="31.999997148000034" height="31.00001156999997" class="text">the </text>
<text x="170.999994692" y="340.00000056" width="94.00001982800003" height="32.99999174999999" class="text">contents </text>
<text x="272.99999932000003" y="339.00001047" width="79.99998848000001" height="32.99999174999999" class="text">thereof </text>
<text x="359.00001152" y="337.99999761" width="38.999969799999974" height="30.999988799999983" class="text">and </text>
<text x="406.0000188" y="337.99999761" width="42.99996220000003" height="30.999988799999983" class="text">that </text>
<text x="456.00002916" y="337.00000752" width="45.999965280000026" height="30.999988799999983" class="text">such </text>
<text x="513.99997164" y="337.99999761" width="89.00001527999996" height="32.99999174999999" class="text">contents </text>
<text x="613.9999923600001" y="335.99999465999997" width="31.00000255999987" height="30.999988799999983" class="text">are </text>
<text x="654.99997592" y="335.99999465999997" width="11.000005439999995" height="30.999988799999983" class="text">in </text>
<text x="679.00000056" y="335.99999465999997" width="50.99999967999997" height="31.999978889999966" class="text">their </text>
<text x="741.00000568" y="335.99999465999997" width="76.99998540000001" height="32.99999174999999" class="text">entirety </text>
<text x="828.00002476" y="335.00000457000004" width="43.99995151999997" height="32.000001660000066" class="text">true </text>
<text x="878.0" y="333.99999171" width="36.000001840000095" height="30.99998880000004" class="text">and </text>
<text x="926.00003172" y="333.99999171" width="89.99998703999995" height="32.99999174999999" class="text">accurate </text>
<text x="1025.9999997599998" y="333.00000162000003" width="17.000011600000107" height="30.999988799999983" class="text">to </text>
<text x="1053.9999641200002" y="333.00000162000003" width="31.000020119999817" height="30.999988799999983" class="text">the </text>
<text x="1091.0000430799998" y="333.00000162000003" width="48.999898120000125" height="32.00000166000001" class="text">best </text>
<text x="1143.99996872" y="331.99998876" width="29.000041480000164" height="30.999988799999983" class="text">of </text>
<text x="1177.00002016" y="331.99998876" width="31.000020120000045" height="30.999988799999983" class="text">his</text>
<text x="1208.0000402800001" y="331.99998876" width="8.999991679999766" height="30.999988799999983" class="text">/</text>
<text x="1215.9999548399999" y="331.99998876" width="36.000001840000095" height="30.999988799999983" class="text">her </text>
<text x="1258.00001552" y="330.99999867" width="9.000009239999827" height="30.999988799999983" class="text">(</text>
<text x="1267.99999652" y="330.99999867" width="49.00000348000003" height="30.999988799999983" class="text">their</text>
<text x="1322.99997104" y="330.99999867" width="8.999991679999994" height="30.999988799999983" class="text">) </text>
<text x="1336.99994444" y="330.99999867" width="120.00003539999989" height="32.99999174999999" class="text">knowledge </text>
<text x="1464.0000280000002" y="329.99998581" width="39.99999423999975" height="30.999988799999983" class="text">and </text>
<text x="1513.00003148" y="328.99999572" width="64.99993796000012" height="30.999988799999983" class="text">belief</text>
<text x="1576.99999768" y="328.99999572" width="8.999991679999994" height="30.999988799999983" class="text">,
</text>
<text x="131.000000452" y="376.99997544" width="76.99999066800001" height="34.999971930000015" class="text">except </text>
<text x="210.9999942" y="376.00000812" width="46.99998972000003" height="32.99999174999999" class="text">that </text>
<text x="261.99999388000003" y="376.00000812" width="32.00002699999999" height="34.00000461000002" class="text">the </text>
<text x="302.00000568" y="376.00000812" width="133.99999123999999" height="34.9999947" class="text">undersigned </text>
<text x="450.00000543999994" y="374.00000517" width="54.99997452000002" height="34.9999947" class="text">make</text>
<text x="504.99997995999996" y="372.99999231" width="8.99999168000005" height="32.99999174999999" class="text">(</text>
<text x="517.0000098400001" y="372.99999231" width="8.99999167999988" height="32.99999174999999" class="text">s</text>
<text x="528.00001528" y="372.99999231" width="8.999991680000107" height="32.99999174999999" class="text">) </text>
<text x="542.9999779999999" y="372.99999231" width="25.000049080000053" height="33.999981839999975" class="text">no </text>
<text x="577.99999052" y="372.99999231" width="154.99999523999998" height="35.999984789999985" class="text">representation </text>
<text x="746.00000496" y="369.99999927000005" width="19.000025359999995" height="32.99999175000005" class="text">as </text>
<text x="772.0000258" y="369.99999927000005" width="18.99997268000004" height="32.99999175000005" class="text">to </text>
<text x="804.0000001200001" y="369.99999927000005" width="31.999991879999925" height="32.99999175000005" class="text">the </text>
<text x="841.99999816" y="369.00000918" width="48.000031719999924" height="34.00000460999996" class="text">truth </text>
<text x="900.0000108799999" y="369.00000918" width="23.99995439999998" height="33.000014520000036" class="text">or </text>
<text x="934.00005164" y="369.00000918" width="91.99994811999977" height="35.00001746999999" class="text">accuracy </text>
<text x="1034.99999144" y="367.00000623" width="25.000049080000053" height="33.00001451999998" class="text">of </text>
<text x="1067.99995508" y="367.00000623" width="32.00009724000006" height="33.00001451999998" class="text">the </text>
<text x="1106.0000058" y="367.00000623" width="127.9999499600001" height="35.00001746999999" class="text">information </text>
<text x="1242.9999474400001" y="365.99999337" width="107.00001619999966" height="34.9999947" class="text">contained </text>
<text x="1361.99999352" y="363.99999042" width="11.000058119999949" height="32.99999174999999" class="text">in </text>
<text x="1385.99996548" y="363.99999042" width="33.00005144000011" height="34.00000461000002" class="text">the </text>
<text x="1428.99999792" y="363.99999042" width="88.00004351999996" height="34.9999947" class="text">attached </text>
<text x="1530.0000430799998" y="363.00002309999996" width="62.99999444000014" height="35.000040239999976" class="text">Short
</text>
<text x="131.000000452" y="410.00001273" width="59.99999662800002" height="35.00001746999999" class="text">Form </text>
<text x="200.99999563999998" y="410.00001273" width="130.00001640000002" height="35.00001746999999" class="text">Registration </text>
<text x="342.99998924" y="408.00000977999997" width="114.00001168000006" height="34.00000460999996" class="text">Statement</text>
<text x="457.00000092000005" y="406.99999692" width="8.999991679999994" height="32.99999174999999" class="text">(</text>
<text x="467.00003460000005" y="406.99999692" width="8.999991679999937" height="32.99999174999999" class="text">s</text>
<text x="476.99999804" y="406.99999692" width="9.000009240000054" height="32.99999174999999" class="text">)</text>
<text x="486.99997904" y="406.99999692" width="8.999991679999937" height="32.99999174999999" class="text">, </text>
<text x="501.00002268" y="406.99999692" width="11.999977199999933" height="32.99999174999999" class="text">if </text>
<text x="521.99999156" y="406.00000682999996" width="37.00002628000004" height="33.00001451999998" class="text">any</text>
<text x="562.00000336" y="406.00000682999996" width="8.999991679999994" height="33.00001451999998" class="text">, </text>
<text x="577.00001876" y="406.00000682999996" width="73.99999988000002" height="35.00001746999999" class="text">insofar </text>
<text x="656.99998968" y="404.99999397" width="24.000007080000046" height="32.99999174999999" class="text">as </text>
<text x="687.99999224" y="404.99999397" width="44.999993519999975" height="32.99999174999999" class="text">such </text>
<text x="748.99997292" y="404.99999397" width="124.00004535999994" height="34.999994699999945" class="text">information </text>
<text x="883.99997104" y="402.99999102000004" width="12.000029879999943" height="32.99999174999999" class="text">is </text>
<text x="903.00004908" y="402.99999102000004" width="41.99995531999991" height="32.99999174999999" class="text">not </text>
<text x="949.99998612" y="402.99999102000004" width="62.000022679999915" height="34.9999947" class="text">within </text>
<text x="1026.99997152" y="402.00000093" width="28.000087280000116" height="32.99999174999999" class="text">his</text>
<text x="1057.9999740800001" y="402.00000093" width="9.000009239999827" height="32.99999174999999" class="text">/</text>
<text x="1066.0000115599998" y="402.00000093" width="37.99994536000031" height="34.00000460999996" class="text">her </text>
<text x="1109.0000440000001" y="400.99998807000003" width="8.999991679999994" height="32.99999174999999" class="text">(</text>
<text x="1116.99995856" y="400.99998807000003" width="51.00006991999999" height="32.99999174999999" class="text">their</text>
<text x="1173.0000102000001" y="400.99998807000003" width="9.000009239999827" height="32.99999174999999" class="text">) </text>
<text x="1183.9999629600002" y="400.99998807000003" width="101.00004515999967" height="34.9999947" class="text">personal </text>
<text x="1285.99999744" y="399.99999798" width="124.99999955999988" height="34.999971930000015" class="text">knowledge</text>
<text x="1410.999997" y="398.99998512" width="9.000009240000054" height="32.99999174999999" class="text">.
</text>
<text x="136.000001488" y="510.00000084" width="8.999998704000006" height="32.00000166000001" class="text">(</text>
<text x="142.00000589200002" y="510.00000084" width="51.00000494799997" height="32.99999174999999" class="text">Date </text>
<text x="202.00000252" y="508.99998797999996" width="24.00000707999999" height="31.999978889999966" class="text">of </text>
<text x="230.99999131999996" y="510.00000084" width="104.00001312000003" height="34.00000461000002" class="text">signature</text>
<text x="338.00000752" y="507.99999789" width="8.99999168000005" height="32.00000166000001" class="text">)
</text>
<text x="940.0000226799999" y="504.99998208" width="9.999963440000101" height="33.999981839999975" class="text">(</text>
<text x="953.00002432" y="504.99998208" width="53.00001344000009" height="35.99996202" class="text">Type </text>
<text x="1013.99996988" y="503.99999199" width="26.00002084000016" height="34.00000461000002" class="text">or </text>
<text x="1044.99997244" y="503.99999199" width="55.00007988000016" height="36.00000756000003" class="text">print </text>
<text x="1101.00002408" y="503.99999199" width="64.9999379599999" height="36.00000756000003" class="text">name </text>
<text x="1169.9999719999998" y="502.99997913" width="65.00006088000009" height="35.99996202" class="text">under </text>
<text x="1241.99997568" y="502.00001181" width="48.000031719999924" height="34.000027380000006" class="text">each </text>
<text x="1300.99996016" y="502.00001181" width="101.0000451599999" height="36.000030330000016" class="text">signature</text>
<text x="1406.0000152799998" y="500.00000886" width="9.999981000000162" height="34.000027380000006" class="text">'</text>
<text x="1412.9999580800002" y="500.00000886" width="10.000068800000008" height="34.000027380000006" class="text">)
</text>
<text x="179.00000232" y="576.00002988" width="300.00000948" height="89.00000604000007" class="text">12-3-02
</text>
<text x="980.0000169199999" y="597.99999402" width="141.99994092000009" height="34.00000461000002" class="text">CHARLES </text>
<text x="1148.99995044" y="596.00003661" width="9.0000970399999" height="33.00003729000002" class="text">E </text>
<text x="1195.00002108" y="596.00003661" width="208.99992776" height="35.00004024000009" class="text">WATERMAN
</text>
<text x="4.0000001264" y="1415.0000036699998" width="4.0000001264" height="11.999949389999983" class="text">1
</text>
<text x="151.000004596" y="2156.99995962" width="5.999990356000012" height="20.99990574000003" class="text">1 </text>
<text x="166.999997024" y="2156.99995962" width="27.000003135999975" height="20.99990574000003" class="text">This </text>
<text x="200.00000632" y="2156.99995962" width="69.99998991999996" height="23.000022539999918" class="text">statement </text>
<text x="269.99999624" y="2155.9999923" width="33.00001632000004" height="20.999928510000245" class="text">shall </text>
<text x="309.00000116" y="2155.9999923" width="14.999997839999992" height="22.000055219999922" class="text">be </text>
<text x="328.99999828" y="2155.0000022100003" width="44.00000419999998" height="21.000065130000166" class="text">signed </text>
<text x="377.00001244000003" y="2155.0000022100003" width="16.999994039999933" height="21.000065130000166" class="text">by </text>
<text x="399.99999507999996" y="2155.0000022100003" width="21.000004000000047" height="21.000065130000166" class="text">the </text>
<text x="424.00000216" y="2155.0000022100003" width="71.99996855999996" height="23.000022540000373" class="text">individual </text>
<text x="497.99998448" y="2154.00001212" width="41.00003623999993" height="21.000042359999952" class="text">agent</text>
<text x="535.99998252" y="2154.00001212" width="6.000023720000058" height="21.000042359999952" class="text">, </text>
<text x="544.9999742" y="2153.0000448" width="8.000037479999946" height="21.000065130000166" class="text">if </text>
<text x="560.00000716" y="2153.0000448" width="20.999968879999983" height="21.000065130000166" class="text">the </text>
<text x="584.9999859999999" y="2154.00001212" width="65.00000820000002" height="23.000022539999918" class="text">registrant </text>
<text x="651.9999904" y="2152.00005471" width="8.00001992" height="21.00006512999971" class="text">is </text>
<text x="669.00001956" y="2152.00005471" width="11.000005439999995" height="21.00006512999971" class="text">an </text>
<text x="687.99999224" y="2153.0000448" width="69.99998991999996" height="23.000045310000132" class="text">individual</text>
<text x="756.00002108" y="2152.00005471" width="5.999971039999991" height="21.00006512999971" class="text">, </text>
<text x="765.00003032" y="2151.00006462" width="14.999962719999985" height="21.000065130000166" class="text">or </text>
<text x="783.00001368" y="2151.00006462" width="16.000004719999993" height="21.000065130000166" class="text">by </text>
<text x="804.99997188" y="2151.00006462" width="6.000023720000058" height="21.000065130000166" class="text">a </text>
<text x="819.99998728" y="2151.00006462" width="54.00000276000003" height="21.000065130000166" class="text">majority </text>
<text x="879.9999610799999" y="2149.99993791" width="16.00003984" height="20.99990574000003" class="text">of </text>
<text x="897.99994444" y="2149.99993791" width="37.000078959999996" height="20.99990574000003" class="text">those </text>
<text x="939.00003336" y="2149.99993791" width="54.00000276000003" height="21.999895829999787" class="text">partners</text>
<text x="994.00000788" y="2148.99997059" width="5.999971039999991" height="20.99992850999979" class="text">, </text>
<text x="1003.99998888" y="2148.99997059" width="49.99997524000014" height="20.99992850999979" class="text">officers</text>
<text x="1053.9999641200002" y="2148.99997059" width="6.000076399999898" height="20.99992850999979" class="text">, </text>
<text x="1062.99997336" y="2148.99997059" width="57.999995160000026" height="23.000022539999918" class="text">directors </text>
<text x="1128.00001668" y="2147.9999804999998" width="14.999962719999985" height="20.99992850999979" class="text">or </text>
<text x="1143.99996872" y="2147.9999804999998" width="56.00005164000004" height="20.99992850999979" class="text">persons </text>
<text x="1204.00003032" y="2147.9999804999998" width="75.99999608000007" height="23.000022539999918" class="text">performing </text>
<text x="1285.0000081199998" y="2146.99999041" width="45.99998284000003" height="22.000032450000162" class="text">similar </text>
<text x="1336.99994444" y="2146.99999041" width="66.00003263999997" height="23.000022539999918" class="text">functions</text>
<text x="1401.00003356" y="2146.00002309" width="5.999953479999931" height="21.000065130000166" class="text">, </text>
<text x="1406.99998704" y="2146.00002309" width="13.000019199999997" height="21.000065130000166" class="text">if </text>
<text x="1423.0000268800002" y="2146.00002309" width="20.99993375999975" height="22.000055219999922" class="text">the </text>
<text x="1446.0000270799999" y="2146.00002309" width="68.99994792000007" height="23.000022539999918" class="text">registrant </text>
<text x="1515.99996432" y="2145.000033" width="13.000001640000164" height="21.00006512999971" class="text">is </text>
<text x="1532.0000041600001" y="2145.000033" width="17.00001159999988" height="21.00006512999971" class="text">an </text>
<text x="1553.0000257200002" y="2145.000033" width="83.99992819999989" height="23.000022539999918" class="text">organization</text>
<text x="1639.99999212" y="2144.00004291" width="5.999953480000158" height="21.000042359999952" class="text">,
</text>
<text x="150.000001228" y="2179.00001484" width="47.00000201199998" height="22.000055219999922" class="text">except </text>
<text x="200.99999563999998" y="2178.0000247499997" width="27.999999479999985" height="20.0000750399995" class="text">that </text>
<text x="230.99999131999996" y="2178.0000247499997" width="19.999997120000046" height="20.0000750399995" class="text">the </text>
<text x="256.00000528000004" y="2178.0000247499997" width="83.00000911999996" height="22.000032449999708" class="text">organization </text>
<text x="346.00000988" y="2176.00006734" width="22.999982639999985" height="20.000075039999956" class="text">can</text>
<text x="369.99998184" y="2176.00006734" width="6.0000237200000015" height="20.000075039999956" class="text">, </text>
<text x="379.99999796000003" y="2176.00006734" width="15.000015399999995" height="20.000075039999956" class="text">by </text>
<text x="402.00000884" y="2176.00006734" width="41.99997288000003" height="22.000055219999922" class="text">power </text>
<text x="450.00000543999994" y="2174.99994063" width="15.000015400000052" height="19.99993841999958" class="text">of </text>
<text x="472.00001632" y="2174.99994063" width="56.99997072000008" height="21.999895829999787" class="text">attorney</text>
<text x="528.00001528" y="2173.99995054" width="5.999971039999991" height="19.999938420000035" class="text">, </text>
<text x="537.99999628" y="2173.99995054" width="64.99999063999996" height="21.99989583000024" class="text">authorize </text>
<text x="606.00002512" y="2172.99996045" width="24.999996399999986" height="19.99991564999982" class="text">one </text>
<text x="636.00000324" y="2171.99999313" width="15.000015400000052" height="19.999938420000035" class="text">or </text>
<text x="656.99998968" y="2171.99999313" width="31.000002559999984" height="19.999938420000035" class="text">more </text>
<text x="694.9999877199999" y="2171.99999313" width="71.99998612000002" height="22.000055219999922" class="text">individuals </text>
<text x="772.99999756" y="2171.00000304" width="11.000005439999995" height="19.999938420000035" class="text">to </text>
<text x="792.99999468" y="2171.00000304" width="47.999979040000085" height="22.000032450000162" class="text">execute </text>
<text x="848.9999936400001" y="2170.00001295" width="22.00001087999999" height="21.000042359999952" class="text">this </text>
<text x="878.99997176" y="2170.00001295" width="66.00003263999997" height="22.000032450000162" class="text">statement </text>
<text x="948.0000425999999" y="2168.00005554" width="14.999962719999985" height="20.00007504000041" class="text">on </text>
<text x="968.9999588" y="2168.00005554" width="13.999990959999991" height="20.00007504000041" class="text">its </text>
<text x="989.99999792" y="2168.00005554" width="44.000021760000095" height="22.000032450000162" class="text">behalf</text>
<text x="1031.99995324" y="2166.99992883" width="6.000076400000125" height="19.999938420000035" class="text">.
</text>
</g>
</svg>
