<svg xmlns="http://www.w3.org/2000/svg">
<style>.text { font-size: 14px; font-family: Arial, sans-serif; }</style>
<g id="page-0" transform="translate(0, 0)">
<rect width="1756" height="2277" fill="none" stroke="black" />
<text x="1455.99999052" y="134.000004105" width="38.00006828000005" height="18.00000605699998" class="text">OMB </text>
<text x="1499.00004052" y="132.000003432" width="23.99995439999998" height="17.00000458199999" class="text">NO</text>
<text x="1526.00003312" y="132.000003432" width="4.000009959999943" height="16.00000538399999" class="text">. </text>
<text x="1533.9999476799999" y="132.000003432" width="71.00001436000002" height="19.00000525499999" class="text">1105-0004
</text>
<text x="94.999998612" y="184.000000437" width="52.999997636" height="31.99999255200001" class="text">U.S. </text>
<text x="151.999993916" y="181.999999764" width="150.00001176400002" height="35.999993897999985" class="text">Department </text>
<text x="302.00000568" y="174.99999627" width="29.000006359999986" height="29.999989602" class="text">of </text>
<text x="333.99999756" y="173.999997072" width="87.00000152000001" height="33.00000085800002" class="text">Justice
</text>
<text x="89.999997576" y="218.99999286000002" width="135.00000514399997" height="38.999993769000014" class="text">Washington</text>
<text x="227.00001648000003" y="212.000007582" width="10.999987879999964" height="32.00000849099999" class="text">, </text>
<text x="243.00000364000002" y="211.00000838399998" width="37.99999804000001" height="34.00001144099997" class="text">DC </text>
<text x="289.99999336" y="209.000007711" width="69.99998991999996" height="35.00001063899998" class="text">20530
</text>
<text x="714.00001308" y="159.99999236099998" width="143.99998979999998" height="36.99999309599998" class="text">Amendment </text>
<text x="859.99999908" y="154.999991817" width="18.000000920000048" height="32.99999174999999" class="text">to </text>
<text x="883.99997104" y="154.999991817" width="138.99999051999998" height="36.999993096" class="text">Registration </text>
<text x="1034.99999144" y="150.000007212" width="112.99998723999988" height="35.000008362" class="text">Statement
</text>
<text x="714.00001308" y="192.00000312900002" width="103.00000624000006" height="36.000012114000015" class="text">Pursuant </text>
<text x="822.00000104" y="189.000000981" width="18.99997268000004" height="32.00000849100002" class="text">to </text>
<text x="851.99997916" y="188.00000178300002" width="33.00006899999994" height="33.00000996600002" class="text">the </text>
<text x="890.0000298799999" y="187.000000308" width="82.99995644000012" height="34.99999242300001" class="text">Foreign </text>
<text x="985.9999879600001" y="184.99999963500002" width="75.99999607999996" height="34.99999242300001" class="text">Agents </text>
<text x="1067.99995508" y="182.999998962" width="136.0000752399999" height="36.999993096" class="text">Registration
</text>
<text x="718.9999948000001" y="224.999994879" width="40.000011799999925" height="28.999992681000037" class="text">Act </text>
<text x="765.00003032" y="222.999994206" width="26.99999260000004" height="28.99999268099998" class="text">of </text>
<text x="795.00000844" y="221.99999273100002" width="54.99995695999996" height="30.999991077000004" class="text">1938</text>
<text x="853.0000036" y="219.999992058" width="9.000009240000054" height="27.999988928999983" class="text">, </text>
<text x="864.99999836" y="219.999992058" width="26.99999260000004" height="29.999989602" class="text">as </text>
<text x="892.99996272" y="218.99999286000002" width="101.00004516000001" height="31.99999255200001" class="text">amended
</text>
<text x="96.000000224" y="361.00002014999995" width="69.99999343200001" height="30.00002147999993" class="text">Privacy </text>
<text x="174.00000304" y="358.00000434000003" width="31.99999188000001" height="28.000018530000034" class="text">Act </text>
<text x="210.00000488" y="357.00001425" width="92.00000080000001" height="31.000034340000013" class="text">Statement</text>
<text x="300.00000948" y="353.99999844" width="8.999991679999994" height="26.99998290000002" class="text">. </text>
<text x="318.99999972" y="353.00000835" width="49.00000348000003" height="29.999998709999943" class="text">Every </text>
<text x="376.00000556" y="351.00000539999996" width="100.99999248" height="32.00000165999995" class="text">registration </text>
<text x="483.99999352" y="346.99999949999994" width="87.99999084000001" height="29.999998709999943" class="text">statement</text>
<text x="569.9999706" y="343.99998369" width="9.000061920000007" height="26.99998290000002" class="text">, </text>
<text x="580.99997604" y="343.99998369" width="46.0000355200001" height="29.999998710000057" class="text">short </text>
<text x="629.99997952" y="342.00000351" width="42.00002556000004" height="28.000018530000034" class="text">form </text>
<text x="679.00000056" y="341.00001342" width="100.00000316" height="32.000024429999996" class="text">registration </text>
<text x="786.99998852" y="337.00000752" width="87.00000152000007" height="30.999988799999983" class="text">statement</text>
<text x="869.99998008" y="333.00000162000003" width="8.999991679999994" height="26.99998290000002" class="text">, </text>
<text x="882.0000099599999" y="333.00000162000003" width="118.99994072000004" height="32.00000166000001" class="text">supplemental </text>
<text x="1003.99998888" y="328.99999572" width="89.99998703999995" height="30.999988799999983" class="text">statement</text>
<text x="1089.99996596" y="325.00001259" width="8.999991679999994" height="27.00000566999995" class="text">, </text>
<text x="1100.0000523200001" y="325.00001259" width="65.99990971999978" height="29.00000861999996" class="text">exhibit</text>
<text x="1163.00004676" y="323.00000964000003" width="8.999991679999994" height="27.000005670000007" class="text">, </text>
<text x="1170.99996132" y="323.00000964000003" width="111.99999791999994" height="32.00002443000005" class="text">amendment</text>
<text x="1279.0000546400001" y="319.00000374" width="8.999991679999994" height="26.99998290000002" class="text">, </text>
<text x="1289.00001808" y="319.00000374" width="42.99994463999997" height="28.999985849999973" class="text">copy </text>
<text x="1342.00004908" y="315.99998793" width="15.999934480000093" height="27.999972989999947" class="text">of </text>
<text x="1362.99996528" y="315.99998793" width="124.00004536000006" height="32.00000165999995" class="text">informational
</text>
<text x="101.999997604" y="386.99999019" width="80.00000779600002" height="30.999988799999983" class="text">materials </text>
<text x="185.99999780000002" y="383.99999715" width="21.00000399999999" height="28.99998585000003" class="text">or </text>
<text x="210.00000488" y="382.99998429" width="46.999989719999974" height="29.999975940000013" class="text">other </text>
<text x="261.00000456" y="380.99998134000003" width="91.99998324000006" height="29.99997594000007" class="text">document </text>
<text x="356.00000844" y="378.00001107" width="21.000004000000047" height="29.000008620000074" class="text">or </text>
<text x="383.00000104000003" y="376.99997544" width="102.00001691999995" height="30.999988799999983" class="text">information </text>
<text x="492.00001344000003" y="374.00000517" width="40.999983559999976" height="28.999985849999973" class="text">filed 
</text>
<text x="539.00002072" y="372.00000222" width="36.99997360000009" height="28.999985849999973" class="text">with </text>
<text x="584.9999859999999" y="369.99999927000005" width="29.000006360000157" height="27.999995760000047" class="text">the </text>
<text x="618.00000232" y="369.00000918" width="73.99999988000002" height="31.000011570000026" class="text">Attorney </text>
<text x="700.99999388" y="365.99999337" width="72.00000367999996" height="29.999998710000057" class="text">General </text>
<text x="777.00000752" y="363.99999042" width="53.00001343999986" height="29.99999871" class="text">under </text>
<text x="831.99998204" y="361.99998747" width="31.000002559999984" height="28.999985849999973" class="text">this </text>
<text x="871.0000045200001" y="360.00000729" width="34.999977400000034" height="28.000018529999977" class="text">Act </text>
<text x="908.0000308000001" y="359.00001719999995" width="15.999934479999752" height="29.000031389999947" class="text">is </text>
<text x="927.9999752400001" y="358.00000434000003" width="9.000009239999827" height="27.000005670000007" class="text">a </text>
<text x="944.00003264" y="358.00000434000003" width="54.99997452000002" height="30.000021480000044" class="text">public </text>
<text x="1003.99998888" y="356.00000139" width="57.999995160000026" height="30.000021480000044" class="text">record </text>
<text x="1067.99995508" y="353.00000835" width="39.00004003999993" height="27.99999575999999" class="text">open </text>
<text x="1115.00001504" y="351.99999549" width="15.999934479999865" height="28.999985849999973" class="text">to </text>
<text x="1137.99999768" y="351.00000539999996" width="57.999995160000026" height="29.999998709999943" class="text">public </text>
<text x="1200.00002036" y="349.00000244999995" width="109.99993147999999" height="32.00000165999995" class="text">examination</text>
<text x="1312.00001828" y="345.00001932000004" width="8.999991679999994" height="27.00002844000005" class="text">, </text>
<text x="1322.99997104" y="345.00001932000004" width="89.99998704000018" height="31.00003434000007" class="text">inspection </text>
<text x="1423.0000268800002" y="341.00001342" width="31.000020119999817" height="28.000018529999977" class="text">and 
</text>
<text x="1460.00000048" y="340.00000056" width="72.99997544000007" height="30.000021479999987" class="text">copying
</text>
<text x="101.00000126" y="414.99998595000005" width="57.999998671999975" height="28.99998585000003" class="text">during </text>
<text x="165.00000433600002" y="413.00000577000003" width="26.99999962399997" height="28.000018530000034" class="text">the </text>
<text x="198.00001012" y="411.00000282" width="55.99999896" height="28.000018530000034" class="text">posted </text>
<text x="259.99999768000004" y="408.99999987" width="77.00000295999996" height="30.000021479999987" class="text">business </text>
<text x="340.00000372" y="406.00000682999996" width="50.99999968000003" height="29.000031389999947" class="text">hours </text>
<text x="397.99998131999996" y="404.00000387999995" width="20.00001468000005" height="27.999995759999933" class="text">of </text>
<text x="419.9999922" y="402.99999102000004" width="30.00001323999993" height="26.99998290000002" class="text">the </text>
<text x="454.00001540000005" y="402.00000093" width="106.99996351999994" height="29.99999871" class="text">Registration 
</text>
<text x="566.99998508" y="398.0000178" width="40.99998356000003" height="28.000018529999977" class="text">Unit </text>
<text x="616.00000612" y="396.00001485" width="9.999963440000101" height="26.000015579999967" class="text">in </text>
<text x="636.999975" y="394.99997922" width="106.00004444000001" height="29.999953170000026" class="text">Washington</text>
<text x="745.00001564" y="390.99999609" width="7.999967240000046" height="25.99997004000005" class="text">, </text>
<text x="756.00002108" y="390.99999609" width="47.999979040000085" height="29.000008620000017" class="text">D.C. </text>
<text x="808.99998184" y="388.99999314" width="38.00001559999998" height="27.000005670000007" class="text">One </text>
<text x="851.99997916" y="388.00000305000003" width="40.99998356000003" height="27.999995760000047" class="text">copy </text>
<text x="901.9999544" y="386.0000001" width="16.00005740000006" height="27.99999575999999" class="text">of </text>
<text x="924.9999546" y="384.99998724" width="45.000098879999996" height="28.999985849999973" class="text">every </text>
<text x="976.99999628" y="382.99998429" width="39.99999423999998" height="27.999972990000003" class="text">such </text>
<text x="1021.9999897999999" y="381.9999942" width="92.0000359200003" height="29.99999871" class="text">document</text>
<text x="1112.9999486000002" y="378.00001107" width="8.000019919999886" height="26.000015580000024" class="text">, </text>
<text x="1125.9999678" y="378.00001107" width="44.99999352000009" height="29.000008620000074" class="text">other </text>
<text x="1176.0000484" y="376.00000812" width="36.000001840000095" height="28.000018530000034" class="text">than 
</text>
<text x="1218.9999930400002" y="374.00000517" width="125.99998887999982" height="30.999988799999983" class="text">informational </text>
<text x="1353.00000184" y="369.99999927000005" width="79.00003427999991" height="29.999998710000057" class="text">materials</text>
<text x="1433.00000788" y="365.99999337" width="8.000019919999886" height="25.999992810000037" class="text">, </text>
<text x="1442.99998888" y="365.99999337" width="14.999962719999985" height="26.99998290000002" class="text">is
</text>
<text x="99.999999648" y="443.00000448" width="122.999989312" height="30.999988799999983" class="text">automatically </text>
<text x="229.99998444000002" y="437.99998572000004" width="80.00002359999999" height="29.99997594000007" class="text">provided </text>
<text x="313.99998288" y="434.99999268" width="15.000015399999995" height="26.99998290000002" class="text">to </text>
<text x="337.00000064" y="433.99997982" width="26.999992599999985" height="26.99998290000002" class="text">the </text>
<text x="373.00000248" y="432.99998973" width="81.99998468000001" height="29.999998709999943" class="text">Secretary </text>
<text x="461.00001088" y="429.0000066" width="19.99999711999999" height="27.000005670000007" class="text">of </text>
<text x="488.00000348" y="429.0000066" width="42.00000800000004" height="29.000008620000017" class="text">State </text>
<text x="537.0000069600001" y="427.00000365000005" width="78.9999991599999" height="30.000021480000044" class="text">pursuant 
</text>
<text x="616.9999778800001" y="424.00001061" width="19.999997119999875" height="27.99999575999999" class="text">to </text>
<text x="642.99999872" y="422.99999775000003" width="64.00001888000008" height="28.99998585000003" class="text">Section </text>
<text x="716.00000928" y="420.00000471" width="7.999984799999993" height="25.99999280999998" class="text">6</text>
<text x="727.00001472" y="420.00000471" width="7.999984799999993" height="25.99999280999998" class="text">(</text>
<text x="734.99999952" y="418.99999185" width="8.00001992" height="25.999992810000037" class="text">b</text>
<text x="746.00000496" y="418.99999185" width="8.000019920000113" height="25.999992810000037" class="text">) </text>
<text x="757.99998216" y="418.99999185" width="19.999997120000103" height="27.99999575999999" class="text">of </text>
<text x="781.99998924" y="418.00002452999996" width="26.99999260000004" height="28.00001852999992" class="text">the </text>
<text x="815.9999773200001" y="416.9999889" width="30.00003079999999" height="27.99999575999999" class="text">Act</text>
<text x="846.0000081200001" y="414.99998595000005" width="7.999984799999993" height="25.999992810000037" class="text">, </text>
<text x="855.00001736" y="414.99998595000005" width="35.00001251999993" height="26.99998290000002" class="text">and </text>
<text x="894.00003984" y="414.00001863" width="55.99994628000002" height="29.000031390000004" class="text">copies </text>
<text x="958.00000604" y="411.00000282" width="15.99995204000004" height="27.000005670000007" class="text">of </text>
<text x="977.9999680400001" y="411.00000282" width="34.00004075999982" height="28.000018530000034" class="text">any </text>
<text x="1016.99999052" y="408.99999987" width="30.000030800000104" height="27.000005670000007" class="text">and </text>
<text x="1057.00000232" y="408.00000977999997" width="22.99998263999987" height="27.999995759999933" class="text">all </text>
<text x="1083.99999492" y="406.99999692" width="94.00001455999995" height="30.000021479999987" class="text">documents </text>
<text x="1186.0000294" y="402.99999102000004" width="26.00002084000016" height="27.999995760000047" class="text">are </text>
<text x="1219.9999647999998" y="402.00000093" width="79.00003428000036" height="29.99999871" class="text">routinely </text>
<text x="1308.9999800800001" y="398.99998512" width="49.00000348000003" height="28.999985849999973" class="text">made 
</text>
<text x="1358.99995532" y="396.99998217" width="80.99999535999996" height="29.999975940000013" class="text">available </text>
<text x="1448.99994236" y="392.99999904" width="16.000057399999832" height="27.00000566999995" class="text">to </text>
<text x="1472.00004792" y="392.99999904" width="47.99992635999979" height="29.00000861999996" class="text">other
</text>
<text x="101.00000126" y="471.99999032999995" width="76.99999417999999" height="30.999988799999983" class="text">agencies</text>
<text x="177.00000612" y="469.00002006" width="8.999991680000022" height="27.000028439999994" class="text">, </text>
<text x="189.9999902" y="469.00002006" width="109.00001239999995" height="32.000024429999996" class="text">departments </text>
<text x="303.99998432" y="464.0000013" width="31.000020119999988" height="28.000018529999977" class="text">and </text>
<text x="342.99998924" y="463.00001120999997" width="83.00000912000002" height="31.000034339999957" class="text">Congress </text>
<text x="430.99999764" y="459.99999540000005" width="82.0000022399999" height="30.99998880000004" class="text">pursuant </text>
<text x="514.99999608" y="455.9999895" width="16.000004719999993" height="27.99997299000006" class="text">to </text>
<text x="539.00002072" y="455.9999895" width="63.99996620000002" height="29.999975940000013" class="text">Section 
</text>
<text x="611.99999616" y="452.99999646" width="8.999991679999994" height="26.999982899999964" class="text">6</text>
<text x="622.99998404" y="451.9999836" width="9.000009240000054" height="26.999982899999964" class="text">(</text>
<text x="631.00002152" y="451.9999836" width="8.999991679999994" height="26.999982899999964" class="text">c</text>
<text x="638.9999887600001" y="451.00001627999995" width="8.99999167999988" height="27.00000566999995" class="text">) </text>
<text x="651.9999904" y="451.00001627999995" width="20.00001468000005" height="28.00001852999992" class="text">of </text>
<text x="674.00000128" y="449.99998065" width="27.999981920000096" height="27.999972990000003" class="text">the </text>
<text x="710.00000312" y="449.00001333" width="33.000016319999986" height="28.000018529999977" class="text">Act</text>
<text x="739.99998124" y="447.99997770000004" width="8.999991679999994" height="26.99998290000002" class="text">. </text>
<text x="759.99997836" y="447.00001038" width="31.000020120000045" height="28.99998585000003" class="text">The </text>
<text x="799.0000184" y="445.99999752" width="74.99997164000001" height="31.00001156999997" class="text">Attorney </text>
<text x="882.0000099599999" y="443.00000448" width="72.99997543999996" height="30.999988799999983" class="text">General </text>
<text x="959.99996712" y="438.99999857999995" width="33.00006900000005" height="27.999995759999933" class="text">also </text>
<text x="997.00004608" y="437.99998572000004" width="83.99992819999989" height="29.99997594000007" class="text">transmits </text>
<text x="1085.9999559999999" y="434.99999268" width="8.999991679999994" height="26.99998290000002" class="text">a </text>
<text x="1102.9999676" y="433.99997982" width="45.99998284000003" height="28.99998585000003" class="text">semi</text>
<text x="1142.9999794" y="431.99997687" width="9.000009240000054" height="26.99998290000002" class="text">-</text>
<text x="1150.00002756" y="431.99997687" width="62.99999443999991" height="28.999985849999973" class="text">annual </text>
<text x="1218.9999930400002" y="430.00001946" width="54.999956959999736" height="30.000021479999987" class="text">report </text>
<text x="1276.0000164399999" y="427.00000365000005" width="15.999934480000093" height="28.000018530000034" class="text">to 
</text>
<text x="1300.99996016" y="427.00000365000005" width="82.00007247999997" height="30.99998880000004" class="text">Congress </text>
<text x="1388.00001436" y="422.99999775000003" width="21.00003912000011" height="28.000018530000034" class="text">on </text>
<text x="1415.99999628" y="422.99999775000003" width="27.99996435999992" height="28.99998585000003" class="text">the
</text>
<text x="106.99999864" y="496.99999305" width="130.0000164" height="32.99999174999999" class="text">Administration </text>
<text x="244.99999984000002" y="491.99999706" width="16.99999404000002" height="28.99998585000003" class="text">of </text>
<text x="268.99998936" y="491.00000697" width="24.000024639999992" height="29.000008620000017" class="text">the </text>
<text x="302.00000568" y="489.99999411" width="31.999991879999982" height="28.999985849999973" class="text">Act </text>
<text x="335.00000444" y="489.00002679" width="55.99999896000003" height="30.000021479999987" class="text">which </text>
<text x="396.00000267999997" y="487.00002384" width="34.99999496000004" height="30.000021479999987" class="text">lists </text>
<text x="437.99999312" y="485.99998820999997" width="29.00004148000005" height="29.999998709999943" class="text">the 
</text>
<text x="470.99999188" y="485.00002089" width="57.000023399999975" height="31.000034339999957" class="text">names </text>
<text x="535.99998252" y="482.00000508" width="18.000000920000048" height="29.000008620000017" class="text">of </text>
<text x="559.00001784" y="482.00000508" width="24.999996399999986" height="30.000021479999987" class="text">all </text>
<text x="586.0000279999999" y="481.00001499" width="54.99995696000008" height="31.000034340000013" class="text">agents </text>
<text x="647.99998044" y="477.99999918" width="89.00001528000007" height="30.999988799999983" class="text">registered </text>
<text x="739.99998124" y="475.00000614" width="55.00002719999998" height="29.99999871" class="text">under </text>
<text x="797.0000046399999" y="473.00000319" width="27.999981919999982" height="29.00000861999996" class="text">the </text>
<text x="830.99999272" y="471.99999032999995" width="33.000016319999986" height="28.999985849999973" class="text">Act </text>
<text x="866.0000228" y="471.00000024" width="31.999921640000025" height="29.999998710000057" class="text">and </text>
<text x="906.9999536799999" y="469.99998738" width="26.00002084000016" height="29.99999871" class="text">the </text>
<text x="936.99998448" y="469.00002006" width="61.00003336000009" height="31.000034339999957" class="text">foreign </text>
<text x="1004.99996064" y="465.99998148" width="91.00008171999991" height="30.999988799999983" class="text">principals </text>
<text x="1097.99998588" y="463.00001120999997" width="40.00001180000004" height="29.000031389999947" class="text">they </text>
<text x="1142.9999794" y="461.99999835" width="85.00000532000013" height="31.999978890000023" class="text">represent</text>
<text x="1223.99997476" y="459.00000531" width="8.999991679999994" height="27.99999575999999" class="text">. </text>
<text x="1242.9999474400001" y="457.99999245000004" width="40.00001179999981" height="28.99998585000003" class="text">This </text>
<text x="1285.0000081199998" y="457.00000236" width="54.99997452000002" height="30.999988799999983" class="text">report 
</text>
<text x="1348.00000256" y="453.99998655" width="12.000047440000117" height="27.999972990000003" class="text">is </text>
<text x="1366.00000348" y="453.99998655" width="80.99999535999996" height="31.999978890000023" class="text">available </text>
<text x="1454.000047" y="451.00001627999995" width="15.999934479999865" height="30.00002147999993" class="text">to </text>
<text x="1475.99995252" y="449.99998065" width="30.000030799999877" height="28.999985849999973" class="text">the
</text>
<text x="103.999997316" y="524.99998881" width="57.00000935199999" height="29.999998709999943" class="text">puble</text>
<text x="158.99999993199998" y="522.99998586" width="9.000000460000024" height="26.999982900000077" class="text">. </text>
<text x="177.00000612" y="522.00001854" width="62.999994439999995" height="29.000031390000004" class="text">Finally</text>
<text x="240.00000056" y="520.00001559" width="8.999991680000022" height="27.000028439999937" class="text">, </text>
<text x="250.99998844" y="520.00001559" width="27.999999480000014" height="29.00000861999996" class="text">the </text>
<text x="286.99999028" y="518.00001264" width="73.99999987999996" height="30.000021480000044" class="text">Attorney </text>
<text x="368.99999252" y="514.99999683" width="72.99999300000002" height="29.999975940000013" class="text">General </text>
<text x="448.99998100000005" y="512.9999938799999" width="64.00001887999986" height="29.9999759399999" class="text">intends</text>
<text x="510.00001435999997" y="510.00000084" width="8.99999168000005" height="26.999982899999964" class="text">, </text>
<text x="523.00003356" y="510.00000084" width="15.999987159999932" height="28.999985849999973" class="text">at </text>
<text x="546.0000162" y="508.99998797999996" width="29.000006360000043" height="27.999972989999947" class="text">the 
</text>
<text x="575.99999432" y="507.99999789" width="66.00003263999997" height="29.99999871" class="text">earliest </text>
<text x="645.99998424" y="504.99998208" width="72.00003879999997" height="29.999975940000013" class="text">possible </text>
<text x="725.0000185199999" y="502.99997913" width="103.00000624000006" height="31.999978889999966" class="text">opportunity</text>
<text x="828.00002476" y="498.999996" width="8.999991679999994" height="27.000005670000064" class="text">, </text>
<text x="839.0000302" y="498.00000590999997" width="15.999987160000046" height="28.000018529999977" class="text">to </text>
<text x="866.99999456" y="496.99999305" width="45.00004620000004" height="29.000008620000017" class="text">make </text>
<text x="917.0000224799999" y="496.00000295999996" width="42.99994464000008" height="30.000021479999987" class="text">these </text>
<text x="967.00001528" y="494.00000001" width="53.000013439999975" height="29.99999871" class="text">public </text>
<text x="1029.00003796" y="491.99999706" width="94.99996876" height="30.999988799999983" class="text">documents </text>
<text x="1128.9999884400002" y="487.99999116" width="81.99998467999967" height="30.999988799999983" class="text">available 
</text>
<text x="1218.00000372" y="484.00000802999995" width="19.999962000000096" height="28.00001852999992" class="text">on </text>
<text x="1246.9999574" y="484.00000802999995" width="29.00005903999977" height="29.00000861999996" class="text">the </text>
<text x="1277.9999775200001" y="483.00001794" width="70.00002503999985" height="30.000021480000044" class="text">Internet </text>
<text x="1353.00000184" y="480.00000213" width="20.000049799999942" height="28.99998585000003" class="text">on </text>
<text x="1382.00004332" y="479.00001204" width="27.0000101600001" height="29.000031390000004" class="text">the 
</text>
<text x="1412.9999580800002" y="477.99999918" width="111.99999791999971" height="32.00000165999995" class="text">Department 
</text>
<text x="1527.9999942" y="473.00000319" width="21.00002156000005" height="27.99999575999999" class="text">of
</text>
<text x="106.00000229599999" y="546.0000084000001" width="57.99999867200003" height="23.00002254000003" class="text">Justice </text>
<text x="169.000002004" y="544.00000545" width="56.00000071599996" height="23.00002254000003" class="text">World </text>
<text x="233.9999944" y="540.99998964" width="48.00001415999998" height="22.00000967999995" class="text">Wide </text>
<text x="286.99999028" y="538.99998669" width="41.00001867999998" height="20.99997404999999" class="text">Web </text>
<text x="335.99999376" y="538.00001937" width="29.000006359999986" height="22.000009680000062" class="text">site</text>
<text x="368.00000320000004" y="536.00001642" width="6.999995479999939" height="20.000006729999996" class="text">.
</text>
<text x="103.999997316" y="605.00001573" width="57.00000935199999" height="31.000034339999957" class="text">Public </text>
<text x="169.000002004" y="602.9999900099999" width="88.99998191600002" height="32.00002442999994" class="text">Reporting </text>
<text x="264.00000764" y="600.0000197400001" width="67.00000440000002" height="31.000011570000083" class="text">Burden</text>
<text x="332.99999068" y="597.00000393" width="8.999991679999994" height="27.999995760000047" class="text">. </text>
<text x="349.00001296" y="597.00000393" width="57.00000584000003" height="31.000011570000083" class="text">Public </text>
<text x="412.0000074" y="593.99998812" width="80.99999535999996" height="30.999988799999983" class="text">reporting </text>
<text x="499.99998067999996" y="590.99997231" width="60.00002648000003" height="29.999975940000013" class="text">burden </text>
<text x="568.00002708" y="589.0000149" width="24.99997884000004" height="30.000021479999987" class="text">for </text>
<text x="598.99997696" y="588.00002481" width="33.000016319999986" height="30.000044250000087" class="text">this </text>
<text x="637.99999944" y="586.99996641" width="85.00000532000001" height="31.99995611999998" class="text">collection </text>
<text x="730.00000024" y="582.9999832799999" width="20.999986440000043" height="29.000008619999903" class="text">of </text>
<text x="754.0000248800001" y="582.9999832799999" width="102.99998867999989" height="32.99996897999995" class="text">information </text>
<text x="862.0000128400001" y="578.99997738" width="17.999948239999867" height="29.999975940000013" class="text">is </text>
<text x="885.0000481599999" y="577.99998729" width="82.99993888000006" height="31.999978889999966" class="text">estimated </text>
<text x="972.9999863200001" y="574.99997148" width="17.999983359999987" height="29.999975940000013" class="text">to </text>
<text x="994.9999796400001" y="573.99998139" width="71.00003191999974" height="30.999988799999983" class="text">average </text>
<text x="1074.00003148" y="572.00002398" width="26.00002084000016" height="30.000021479999987" class="text">1.5 </text>
<text x="1106.99999512" y="569.99999826" width="47.000042399999984" height="29.999975940000013" class="text">hours </text>
<text x="1164.0000185200001" y="567.99999531" width="27.99996435999992" height="29.000008620000017" class="text">per </text>
<text x="1194.00004932" y="567.00000522" width="78.99992892" height="30.999988800000096" class="text">response</text>
<text x="1272.99997824" y="563.99998941" width="9.000009240000054" height="27.99997299000006" class="text">, </text>
<text x="1284.0000363600002" y="563.99998941" width="85.99997707999978" height="30.999988799999983" class="text">including </text>
<text x="1374.0000234000001" y="560.99999637" width="27.999981919999755" height="29.99999871" class="text">the </text>
<text x="1406.99998704" y="559.99998351" width="43.000049999999874" height="29.999975940000013" class="text">time </text>
<text x="1455.0000187599999" y="557.9999805599999" width="26.00002084000016" height="28.999985849999916" class="text">for
</text>
<text x="106.99999864" y="634.00000158" width="87.00000151999998" height="31.000011570000083" class="text">reviewing </text>
<text x="203.0000094" y="630.99998577" width="104.99998488" height="32.00000165999995" class="text">instructions</text>
<text x="307.00000496" y="626.0000125500001" width="8.999991679999994" height="27.00002844000005" class="text">, </text>
<text x="317.99999284" y="626.0000125500001" width="84.00001600000002" height="29.999975940000013" class="text">searching </text>
<text x="408.99998676" y="622.99997397" width="68.99998304000002" height="29.999953170000026" class="text">existing </text>
<text x="483.99999352" y="619.99995816" width="40.00001180000004" height="28.99998585000003" class="text">data </text>
<text x="526.99999084" y="618.99999084" width="69.00000060000002" height="29.999975940000013" class="text">sources
</text>
<text x="595.99999144" y="615.99997503" width="9.000009240000054" height="26.999960129999977" class="text">, </text>
<text x="606.00002512" y="615.99997503" width="85.0000053199999" height="30.999966029999996" class="text">gathering </text>
<text x="698.00002592" y="612.00003744" width="32.999946080000086" height="28.000018530000034" class="text">and </text>
<text x="736.99999572" y="610.99997904" width="102.00003447999995" height="32.00000165999995" class="text">maintaining </text>
<text x="846.0000081200001" y="606.99997314" width="27.000010159999874" height="28.999985849999916" class="text">the </text>
<text x="879.9999610799999" y="606.00000582" width="35.999984280000035" height="29.000008619999903" class="text">data </text>
<text x="918.99998356" y="604.0000256400001" width="65.00004332000003" height="29.000054160000104" class="text">needed</text>
<text x="982.9999497599999" y="601.0000098300001" width="9.000009240000054" height="27.00002844000005" class="text">, </text>
<text x="997.00004608" y="601.0000098300001" width="31.999991880000152" height="27.999995760000047" class="text">and </text>
<text x="1034.99999144" y="600.0000197400001" width="98.0000245199999" height="32.00002443000005" class="text">completing </text>
<text x="1138.99996944" y="596.00003661" width="31.999991879999925" height="29.000031390000004" class="text">and </text>
<text x="1173.99999952" y="594.99997821" width="90.99995879999983" height="30.999988799999983" class="text">reviewing </text>
<text x="1271.00003472" y="590.99997231" width="26.000020839999934" height="27.999972989999947" class="text">the </text>
<text x="1303.99999836" y="589.99998222" width="84.00001599999996" height="30.999988799999983" class="text">collection </text>
<text x="1397.99999536" y="585.99999909" width="21.00002156000005" height="28.000018530000034" class="text">of 
</text>
<text x="1420.999978" y="585.99999909" width="106.00002687999995" height="32.00002442999994" class="text">information</text>
<text x="1528.99996596" y="581.0000031" width="8.999991679999994" height="27.000028439999937" class="text">.
</text>
<text x="109.999994696" y="659.99997162" width="44.00000419999999" height="29.999975940000013" class="text">Send </text>
<text x="157.99999832" y="658.00001421" width="89.00001527999999" height="31.00003434000007" class="text">comments </text>
<text x="254.00000908" y="654.9999984" width="88.99998015999998" height="31.000034339999957" class="text">regarding </text>
<text x="346.00000988" y="651.99998259" width="31.00000256000004" height="29.000008619999903" class="text">this </text>
<text x="384.99999724" y="650.00000241" width="62.00002267999997" height="30.000044249999974" class="text">burden </text>
<text x="454.00001540000005" y="647.99997669" width="72.99997543999996" height="30.999966029999996" class="text">estimate 
</text>
<text x="533.99998632" y="645.0000291900001" width="21.00002156000005" height="29.000054160000104" class="text">or </text>
<text x="557.9999934" y="643.99997079" width="31.000002559999984" height="28.99998585000003" class="text">any </text>
<text x="597.00001588" y="642.9999807" width="47.00000728000009" height="29.999953170000026" class="text">other </text>
<text x="647.99998044" y="641.0000232900001" width="57.00002340000003" height="30.000044250000087" class="text">aspect </text>
<text x="705.99999316" y="638.00000748" width="21.000021559999936" height="28.000018530000034" class="text">of </text>
<text x="732.99998576" y="638.00000748" width="31.000002560000098" height="28.99998585000003" class="text">this </text>
<text x="768.9999876" y="637.00001739" width="85.00000532000001" height="31.000011570000083" class="text">collection </text>
<text x="859.99999908" y="633.00001149" width="21.000039119999997" height="27.999995760000047" class="text">of </text>
<text x="883.99997104" y="633.00001149" width="100.00005584000007" height="32.00000165999995" class="text">information</text>
<text x="989.99999792" y="627.9999699599999" width="9.00000923999994" height="26.999960129999863" class="text">, </text>
<text x="1002.0000278" y="627.9999699599999" width="80.00002359999985" height="29.9999759399999" class="text">including </text>
<text x="1089.99996596" y="625.0000224600001" width="103.00000623999995" height="32.000001660000066" class="text">suggestions </text>
<text x="1196.99998216" y="621.0000165600001" width="29.000059039999996" height="27.999995760000047" class="text">for </text>
<text x="1230.00005116" y="619.99995816" width="79.99990067999988" height="30.99994326000001" class="text">reducing 
</text>
<text x="1313.9999618" y="617.00001066" width="31.000020120000045" height="27.999995760000047" class="text">this </text>
<text x="1351.00004076" y="615.99997503" width="59.99995623999985" height="29.999975940000013" class="text">burden </text>
<text x="1419.00001692" y="613.00002753" width="15.999952039999926" height="28.000018530000034" class="text">to 
</text>
<text x="1443.99996064" y="613.00002753" width="52.000041680000095" height="30.000044250000087" class="text">Chief</text>
<text x="1495.00003056" y="609.99998895" width="8.999991679999994" height="27.000005670000064" class="text">,
</text>
<text x="108.99999835199999" y="687.00000006" width="107.00001268800001" height="31.000011570000083" class="text">Registration </text>
<text x="222.99998896" y="682.99999416" width="41.00001867999998" height="27.999995760000047" class="text">Unit</text>
<text x="265.00001452000004" y="680.99996844" width="7.999984799999993" height="25.999970039999994" class="text">, </text>
<text x="275.99998484" y="680.99996844" width="83.00002667999996" height="29.999975940000013" class="text">Criminal </text>
<text x="360.99999016" y="678.00002094" width="75.99999608000002" height="30.000044249999974" class="text">Division</text>
<text x="439.0" y="675.00000513" width="8.00001992" height="25.99997003999988" class="text">, </text>
<text x="450.00000543999994" y="675.00000513" width="45.999965280000026" height="28.999985849999916" class="text">U.S. </text>
<text x="495.99997071999996" y="673.0000249499999" width="108.00004064000007" height="31.000011569999856" class="text">Department 
</text>
<text x="606.99999688" y="669.0000418200001" width="20.00001468000005" height="28.000018530000034" class="text">of </text>
<text x="633.9999894800001" y="667.99998342" width="58.00001271999997" height="28.99998585000003" class="text">Justice</text>
<text x="691.0000304399999" y="666.0000032400001" width="7.999967240000046" height="26.000038350000068" class="text">, </text>
<text x="703.0000076399999" y="666.0000032400001" width="105.99997420000011" height="31.000011570000083" class="text">Washington</text>
<text x="810.9999956" y="661.00003002" width="8.00001992" height="26.000038350000068" class="text">, </text>
<text x="819.99998728" y="661.00003002" width="35.00003007999999" height="27.00002844000005" class="text">DC </text>
<text x="858.00000288" y="659.99997162" width="56.99997072000008" height="28.99998585000003" class="text">20530</text>
<text x="915.99994536" y="658.00001421" width="8.000019919999886" height="26.000038350000068" class="text">; </text>
<text x="927.9999752400001" y="657.00002412" width="31.000020119999817" height="27.00002844000005" class="text">and </text>
<text x="966.0000435200001" y="655.99998849" width="15.999934479999979" height="26.999960129999977" class="text">to </text>
<text x="989.0000261600001" y="654.9999984" width="26.999992599999928" height="27.00002844000005" class="text">the </text>
<text x="1024.00003868" y="654.00000831" width="54.000002759999916" height="27.999995759999933" class="text">Office </text>
<text x="1083.99999492" y="651.99998259" width="19.999962000000096" height="28.00001852999992" class="text">of </text>
<text x="1109.0000440000001" y="650.9999925" width="100.99993979999977" height="31.000034339999957" class="text">Information </text>
<text x="1219.9999647999998" y="646.9999866" width="34.000040760000275" height="27.999995760000047" class="text">and 
</text>
<text x="1257.00004376" y="646.0000192800001" width="101.9999115600001" height="31.00003434000007" class="text">Regulatory </text>
<text x="1366.9999752400001" y="642.00001338" width="61.00005091999992" height="28.99998585000003" class="text">Affairs</text>
<text x="1428.99999792" y="638.99999757" width="8.000019920000113" height="25.999970039999994" class="text">, </text>
<text x="1438.99997892" y="638.99999757" width="53.99998520000008" height="29.000008620000017" class="text">Office </text>
<text x="1500.00001228" y="637.00001739" width="19.99996199999987" height="27.999995760000047" class="text">of
</text>
<text x="110.99999630800001" y="714.0000285" width="121.00000189199999" height="31.000034339999957" class="text">Management </text>
<text x="233.9999944" y="708.9999642" width="32.99999875999998" height="25.999970039999994" class="text">and </text>
<text x="272.99999932000003" y="707.99999688" width="67.99999371999996" height="28.99998585000003" class="text">Budget</text>
<text x="337.00000064" y="704.99998107" width="8.000002360000053" height="25.000002719999998" class="text">, </text>
<text x="346.99999920000005" y="704.99998107" width="109.00002995999995" height="29.999975940000013" class="text">Washington</text>
<text x="457.00000092000005" y="699.99998508" width="8.000019919999943" height="24.99997995000001" class="text">, </text>
<text x="468.00000636" y="699.99998508" width="33.000016319999986" height="25.999970039999994" class="text">DC </text>
<text x="508.99998991999996" y="698.99999499" width="57.999995160000026" height="27.999995759999933" class="text">20503
</text>
<text x="566.99998508" y="695.99997918" width="8.00003748000006" height="24.999979949999897" class="text">.
</text>
<text x="891.00000164" y="769.99997448" width="24.99994371999992" height="33.99998183999992" class="text">2. </text>
<text x="924.9999546" y="768.99998439" width="135.00008592000006" height="37.99996496999995" class="text">Registration </text>
<text x="1067.99995508" y="764.0000111700001" width="46.000070640000104" height="35.00004024000009" class="text">No.
</text>
<text x="133.999996508" y="792.0000069299999" width="22.000009123999973" height="30.00004424999986" class="text">1. </text>
<text x="164.00000096800002" y="792.0000069299999" width="67.99999723199997" height="32.00000165999984" class="text">Name </text>
<text x="241.99999676" y="791.0000396099999" width="22.00001087999999" height="30.00004424999986" class="text">of </text>
<text x="268.99998936" y="791.0000396099999" width="122.00001404000005" height="32.00002442999994" class="text">Registrant
</text>
<text x="1012.99998056" y="845.9999955000001" width="139.00000808000004" height="44.999986680000006" class="text">4883
</text>
<text x="89.999997576" y="861.00000624" width="193.00001786399997" height="48.999992580000026" class="text">LLOYD'S </text>
<text x="321.00001348" y="853.00001721" width="47.99997903999997" height="44.0000193599999" class="text">OF </text>
<text x="401.00000196" y="850.0000014000001" width="168.99996863999996" height="48.00002526000003" class="text">LONDON </text>
<text x="606.00002512" y="842.99997969" width="181.9999878399999" height="47.99995695000007" class="text">MARKET
</text>
<text x="445.00002372" y="902.0000097899999" width="412.99997916" height="53.999988569999914" class="text">REPRESENTATIVES
</text>
<text x="120.99999838" y="1005.9999810300001" width="26.00000854800001" height="34.99997193000013" class="text">3. </text>
<text x="157.99999832" y="1004.99999094" width="47.000007280000005" height="34.999971930000015" class="text">This </text>
<text x="212.9999904" y="1003.00001076" width="135.00001568" height="38.00003327999991" class="text">amendment </text>
<text x="350.00001984" y="999.00002763" width="19.999961999999982" height="34.00005014999988" class="text">is </text>
<text x="378.00001932" y="999.00002763" width="45.99998284000003" height="35.000040239999976" class="text">filed </text>
<text x="433.0000114" y="996.9999791399999" width="19.999979560000043" height="34.999949159999915" class="text">to </text>
<text x="461.00001088" y="996.0000118199999" width="127.99998507999999" height="37.99998773999994" class="text">accomplish </text>
<text x="598.99997696" y="992.0000059199999" width="35.00001252000004" height="33.99998183999992" class="text">the </text>
<text x="636.999975" y="991.0000158299999" width="108.00004064000007" height="36.999997649999955" class="text">following </text>
<text x="750.00001492" y="988.00000002" width="101.99996423999994" height="36.99999765000007" class="text">indicated </text>
<text x="859.99999908" y="983.99999412" width="88.00004351999996" height="36.000007560000086" class="text">purpose </text>
<text x="955.99995716" y="980.99997831" width="26.000020840000047" height="33.99998184000003" class="text">or </text>
<text x="985.9999879600001" y="980.99997831" width="99.99996803999977" height="36.99999765000007" class="text">purposes</text>
<text x="1088.9999942" y="976.9999724099999" width="9.999963440000101" height="32.99999175000005" class="text">:
</text>
<text x="198.99999943999998" y="1068.00002694" width="28.000017040000046" height="32.999991749999936" class="text">To </text>
<text x="238.00000436" y="1065.99997845" width="47.99997903999997" height="33.99995907000016" class="text">give </text>
<text x="293.00001399999996" y="1064.00002104" width="9.999998560000051" height="32.00000166000018" class="text">a </text>
<text x="311.00001492" y="1062.99996264" width="24.999978839999983" height="32.999991749999936" class="text">10</text>
<text x="340.99999304" y="1061.99999532" width="9.999998560000051" height="32.00002442999994" class="text">-</text>
<text x="349.00001296" y="1061.99999532" width="37.99999804000004" height="33.99998183999992" class="text">day </text>
<text x="392.9999996" y="1061.00000523" width="70.99999679999996" height="36.000007560000086" class="text">notice </text>
<text x="470.99999188" y="1056.99999933" width="24.999978839999983" height="32.999991749999936" class="text">of </text>
<text x="501.00002268" y="1056.00000924" width="78.00000984000002" height="35.0000174700001" class="text">change </text>
<text x="588.99999596" y="1052.99999343" width="13.000019199999997" height="32.00000165999995" class="text">in </text>
<text x="618.00000232" y="1052.00002611" width="123.99997511999993" height="36.999997649999955" class="text">information </text>
<text x="752.9999828800001" y="1046.9999618099998" width="24.000024639999992" height="32.999991749999936" class="text">as </text>
<text x="781.00001748" y="1045.99997172" width="96.00001076000001" height="36.99997488000008" class="text">required </text>
<text x="885.0000481599999" y="1041.99998859" width="23.999954400000092" height="32.999991749999936" class="text">by </text>
<text x="917.0000224799999" y="1040.9999985" width="80.00002360000008" height="35.000017469999875" class="text">Section </text>
<text x="1008.9999706" y="1037.99998269" width="9.999980999999934" height="32.00000165999995" class="text">2</text>
<text x="1021.00000048" y="1036.9999926" width="9.99998099999982" height="32.000001660000066" class="text">(</text>
<text x="1030.9999814799999" y="1036.9999926" width="9.999981000000162" height="32.000001660000066" class="text">b</text>
<text x="1047.00002132" y="1036.00002528" width="9.999980999999934" height="32.00002443000005" class="text">) </text>
<text x="1061.99998404" y="1036.00002528" width="25.000049079999826" height="34.00005014999999" class="text">of </text>
<text x="1093.0000041600001" y="1035.00003519" width="31.999974319999865" height="34.000050150000106" class="text">the </text>
<text x="1133.99998772" y="1032.9999867" width="42.00006067999993" height="33.99995906999993" class="text">Act</text>
<text x="1172.00003844" y="1031.00002929" width="9.999980999999934" height="32.00000165999995" class="text">.
</text>
<text x="164.00000096800002" y="1121.00002542" width="10.000002071999972" height="32.00002442999994" class="text">☑ </text>
<text x="200.00000632" y="1118.99997693" width="30.999984999999953" height="32.999991749999936" class="text">To </text>
<text x="238.00000436" y="1118.99997693" width="79.99998848000001" height="34.999949159999915" class="text">correct </text>
<text x="323.999999" y="1115.9999611199999" width="9.999998559999995" height="31.999933349999765" class="text">a </text>
<text x="340.99999304" y="1115.9999611199999" width="116.00000788000006" height="35.9999392499999" class="text">deficiency </text>
<text x="465.99999260000004" y="1111.99997799" width="19.00002535999994" height="32.999991749999936" class="text">in
</text>
<text x="1446.99999884" y="1141.99993116" width="36.999973599999976" height="88.99993773000006" class="text">721
</text>
<text x="233.00000508000002" y="1167.0000705" width="7.999984799999993" height="26.00010666000003" class="text">☐ </text>
<text x="271.00000312000003" y="1165.99994379" width="70.99997923999996" height="28.99991754000007" class="text">Initial </text>
<text x="346.00000988" y="1163.9999863799999" width="115.99997275999993" height="28.999985849999803" class="text">Statement
</text>
<text x="837.9999882" y="1202.0000196600001" width="45.99998284000003" height="41.9999708700002" class="text">31 </text>
<text x="904.9999925999999" y="1200.00006225" width="106.00004444000001" height="43.000097579999874" class="text">JULY </text>
<text x="1034.99999144" y="1197.99996822" width="115.00003612" height="43.99995105000016" class="text">2002
</text>
<text x="236.00000816" y="1227.00002238" width="9.999998560000023" height="32.99999175000016" class="text">☑ </text>
<text x="274.0000062" y="1226.00003229" width="156.99999144000003" height="40.00001346000022" class="text">Supplemental </text>
<text x="435.99999692" y="1220.00000067" width="113.0000048" height="38.00005605000001" class="text">Statement </text>
<text x="557.00002164" y="1214.9999363700001" width="32.99996364000003" height="33.99995907000016" class="text">for </text>
<text x="597.00001588" y="1213.9999690500001" width="34.00000564000004" height="34.99997193000013" class="text">the </text>
<text x="633.00001772" y="1212.99997896" width="71.99998612000002" height="36.99992933999988" class="text">period </text>
<text x="712.99998864" y="1210.00003146" width="75.00002431999997" height="37.00006596000003" class="text">ending</text>
<text x="792.99999468" y="1205.99995725" width="10.000033680000001" height="32.99999175000016" class="text">.
</text>
<text x="238.00000436" y="1282.0000465800001" width="10.99998788000002" height="35.00008578000006" class="text">☐ </text>
<text x="275.00001308000003" y="1281.00005649" width="64.99999063999996" height="38.000033280000025" class="text">Other </text>
<text x="349.00001296" y="1278.99996246" width="88.99998016" height="37.99991943000009" class="text">purpose </text>
<text x="447.99999168" y="1276.00001496" width="11.000005439999995" height="34.99997193000013" class="text">(</text>
<text x="454.00001540000005" y="1276.00001496" width="81.99996711999995" height="38.00005605000001" class="text">specify</text>
<text x="535.99998252" y="1274.00003478" width="11.000005439999995" height="35.00008578000006" class="text">)</text>
<text x="548.0000124" y="1273.00006746" width="11.000005440000109" height="35.00010855000005" class="text">.
</text>
<text x="170.000005372" y="1338.00006087" width="9.999986267999986" height="32.00000165999995" class="text">☐ </text>
<text x="210.9999942" y="1335.99996684" width="24.000007080000017" height="32.999991749999936" class="text">To </text>
<text x="247.0000136" y="1334.9999767499999" width="46.000000399999976" height="34.999949159999915" class="text">give </text>
<text x="299.00000259999996" y="1333.00001934" width="70.99997924000002" height="33.99998183999992" class="text">notice </text>
<text x="377.00001244000003" y="1330.0000718400001" width="24.999996399999986" height="33.000128370000084" class="text">of </text>
<text x="406.99999056" y="1328.99994513" width="78.00002739999996" height="34.9999719299999" class="text">change </text>
<text x="493.00000276" y="1325.9999976299998" width="19.999997119999932" height="32.99999174999971" class="text">in </text>
<text x="521.0000198" y="1325.00000754" width="24.999996399999986" height="32.99999175000016" class="text">an </text>
<text x="555.99997964" y="1324.0000174499999" width="76.00001364000002" height="36.00007586999982" class="text">exhibit </text>
<text x="637.99999944" y="1320.9999333300002" width="118.00002164" height="35.999939250000125" class="text">previously </text>
<text x="766.9999738399999" y="1316.99999574" width="43.00004999999999" height="33.99995907000016" class="text">filed</text>
<text x="815.9999773200001" y="1315.00003833" width="10.000033679999888" height="32.00000166000018" class="text">.
</text>
<text x="134.99999812" y="1403.0000542799999" width="26.00000854800001" height="35.000085779999836" class="text">4. </text>
<text x="170.000005372" y="1400.99996025" width="18.999995508000012" height="33.999981840000146" class="text">If </text>
<text x="193.00001084" y="1400.99996025" width="42.999997320000006" height="34.99994916000014" class="text">this </text>
<text x="238.00000436" y="1399.00000284" width="136.99999431999998" height="38.000056049999785" class="text">amendment </text>
<text x="380.99998727999997" y="1393.99993854" width="93.00002524000007" height="35.9999392499999" class="text">requires </text>
<text x="481.000008" y="1390.99999104" width="33.99998807999998" height="33.99998183999992" class="text">the </text>
<text x="519.00000604" y="1390.00000095" width="61.99996999999996" height="36.000075870000046" class="text">filing </text>
<text x="588.0000242" y="1387.00005345" width="24.999996399999986" height="34.00009569000008" class="text">of </text>
<text x="618.00000232" y="1385.99994951" width="9.999980999999934" height="32.99999175000016" class="text">a </text>
<text x="633.00001772" y="1385.99994951" width="114.99998344000005" height="37.99991943000009" class="text">document </text>
<text x="752.00001112" y="1381.00002183" width="25.999968160000094" height="33.99998183999992" class="text">or </text>
<text x="781.99998924" y="1381.00002183" width="119.99996515999999" height="38.000033280000025" class="text">documents</text>
<text x="901.9999544" y="1375.9999803" width="10.000086360000068" height="32.99999175000016" class="text">, </text>
<text x="914.0000018400001" y="1375.9999803" width="71.00001435999991" height="35.999939250000125" class="text">please </text>
<text x="989.99999792" y="1374.00000012" width="40.000011799999925" height="34.999949159999915" class="text">list-
</text>
<text x="195.99999635999998" y="1462.0000388400001" width="14.000008520000023" height="44.000087670000084" class="text">- </text>
<text x="240.99998988000002" y="1461.00004875" width="133.00001947999996" height="46.00004508000006" class="text">SHORT</text>
<text x="379.99999796000003" y="1458.99995472" width="14.000008519999938" height="43.99995105000016" class="text">-</text>
<text x="398.9999882" y="1458.99995472" width="100.99999247999995" height="45.99993123000013" class="text">FORM </text>
<text x="549.00000172" y="1456.99997454" width="282.99998031999996" height="48.999992580000026" class="text">REGISTRATION </text>
<text x="877.00002824" y="1452.00006963" width="250.00001667999993" height="49.00001535000024" class="text">STATEMENT
</text>
<text x="244.00001052000002" y="1544.99999049" width="198.99999943999998" height="39.999990690000004" class="text">APPENDIX </text>
<text x="483.99999352" y="1544.00002317" width="11.000005440000052" height="39.00002337000001" class="text">2
</text>
<text x="146.00000356" y="1674.00000999" width="25.999994499999985" height="34.999949159999915" class="text">5. </text>
<text x="179.00000232" y="1674.00000999" width="52.99999588" height="37.00004319000004" class="text">Each </text>
<text x="244.00001052000002" y="1670.99992587" width="50.000010360000005" height="36.999906569999894" class="text">item </text>
<text x="299.00000259999996" y="1668.99996846" width="88.99998016000006" height="36.99992934000011" class="text">checked </text>
<text x="402.00000884" y="1665.00003087" width="65.00002576000003" height="36.000075870000046" class="text">above </text>
<text x="477.99996980000003" y="1662.99993684" width="53.00003099999992" height="36.99992933999988" class="text">must </text>
<text x="537.0000069600001" y="1659.9999893400002" width="25.999968159999867" height="34.99997193000013" class="text">be </text>
<text x="571.99998436" y="1658.99999925" width="106.00002687999995" height="38.000033280000025" class="text">explained </text>
<text x="685.99997848" y="1656.00005175" width="60.000026479999974" height="37.00006596000003" class="text">below </text>
<text x="759.0000066" y="1651.9999775400001" width="19.99999711999999" height="34.99994916000037" class="text">in </text>
<text x="790.00000916" y="1651.9999775400001" width="40.000011799999925" height="35.999939250000125" class="text">full </text>
<text x="831.99998204" y="1650.00002013" width="65.99996240000007" height="36.00007586999982" class="text">detail </text>
<text x="901.9999544" y="1648.00003995" width="90.00000460000001" height="38.000033280000025" class="text">together </text>
<text x="994.9999796400001" y="1643.9999885099999" width="52.00004167999998" height="35.999962019999884" class="text">with</text>
<text x="1047.00002132" y="1642.00000833" width="10.999952760000042" height="33.99998183999992" class="text">, </text>
<text x="1061.99998404" y="1642.00000833" width="66.00003263999997" height="37.00006596000003" class="text">where </text>
<text x="1137.99999768" y="1639.0000608300002" width="124.0000278" height="39.000023370000235" class="text">appropriate</text>
<text x="1267.99999652" y="1634.0000193" width="11.000058120000176" height="33.999981840000146" class="text">, </text>
<text x="1281.99998748" y="1634.0000193" width="84.00001599999996" height="38.00005605000024" class="text">specific </text>
<text x="1371.99997452" y="1631.0000490300001" width="107.99998796" height="39.000023370000235" class="text">reference </text>
<text x="1486.00002132" y="1626.0000075" width="19.99996199999987" height="34.99994916000014" class="text">to </text>
<text x="1514.999975" y="1625.00001741" width="39.00004004000016" height="34.999949159999915" class="text">and
</text>
<text x="179.00000232" y="1707.99999183" width="85.00000531999999" height="37.00006596000003" class="text">identity </text>
<text x="269.99999624" y="1705.00004433" width="26.000003280000044" height="35.00008578000006" class="text">of </text>
<text x="303.00001256" y="1702.9999503000001" width="32.99998119999998" height="33.999981840000146" class="text">the </text>
<text x="341.99998236" y="1701.99996021" width="49.000021040000036" height="35.999939250000125" class="text">item </text>
<text x="396.999992" y="1700.0000028000002" width="19.99999711999999" height="34.99997193000013" class="text">in </text>
<text x="426.99998768" y="1699.00001271" width="34.00002319999999" height="34.99997193000013" class="text">the </text>
<text x="470.00000256000004" y="1698.00002262" width="125.99998887999999" height="39.00002337000001" class="text">registration </text>
<text x="606.00002512" y="1692.99998109" width="108.99995971999999" height="37.99991942999986" class="text">statement 
</text>
<text x="716.9999986" y="1688.00005341" width="19.99999711999999" height="34.00009568999985" class="text">to </text>
<text x="743.9999912000001" y="1688.00005341" width="66.00003263999986" height="36.00007586999982" class="text">which </text>
<text x="819.00001552" y="1684.9999692899999" width="20.000014679999936" height="34.999949159999915" class="text">it </text>
<text x="840.00000196" y="1683.9999792" width="92.99997256000006" height="36.99990657000012" class="text">pertains</text>
<text x="932.00000276" y="1680.00006438" width="9.999963439999988" height="32.999991749999936" class="text">. </text>
<text x="953.99999608" y="1680.00006438" width="9.999981000000048" height="32.999991749999936" class="text">(</text>
<text x="959.99996712" y="1678.99993767" width="20.000049799999942" height="33.999981840000146" class="text">If </text>
<text x="986.9999597199999" y="1678.99993767" width="64.00007156000015" height="35.9999392499999" class="text">space </text>
<text x="1056.00003056" y="1675.99999017" width="19.999944440000036" height="33.999981840000146" class="text">is </text>
<text x="1082.0000513999998" y="1675.00000008" width="129.99999884000022" height="38.000033280000025" class="text">insufficient</text>
<text x="1210.9999731199998" y="1669.99995855" width="10.000068800000008" height="32.999991749999936" class="text">, </text>
<text x="1223.99997476" y="1669.99995855" width="9.999981000000162" height="32.999991749999936" class="text">a </text>
<text x="1244.0000245600002" y="1668.99996846" width="42.99994463999974" height="34.999949159999915" class="text">full </text>
<text x="1290.0000074" y="1667.99997837" width="71.00001436000002" height="36.99992933999988" class="text">insert </text>
<text x="1361.00002176" y="1665.00003087" width="55.99994628000013" height="35.00008578000006" class="text">page </text>
<text x="1429.99996968" y="1662.99993684" width="52.00004167999987" height="35.9999392499999" class="text">must </text>
<text x="1487.00001064" y="1659.9999893400002" width="25.000031519999993" height="33.999981840000146" class="text">be </text>
<text x="1518.99998496" y="1659.9999893400002" width="53.000031000000035" height="35.999939250000125" class="text">used
</text>
<text x="1573.99995948" y="1657.00004184" width="10.000086360000068" height="32.999991749999936" class="text">.</text>
<text x="1581.00000764" y="1657.00004184" width="9.999981000000162" height="32.999991749999936" class="text">)
</text>
<text x="228.99999511999997" y="1794.00005037" width="140.99998672" height="48.999992580000026" class="text">SHORT</text>
<text x="371.99999560000003" y="1789.99997616" width="14.000008519999938" height="43.99992827999995" class="text">-</text>
<text x="396.999992" y="1789.00000884" width="98.99997871999994" height="46.000045079999836" class="text">FORM </text>
<text x="546.99998796" y="1786.00006134" width="301.00003391999996" height="53.00006679000012" class="text">REGISTRATION </text>
<text x="886.00001992" y="1777.0000594500002" width="277.00002684000003" height="52.000076700000136" class="text">STATEMENT </text>
<text x="1181.00003012" y="1770.00003774" width="68.9999654799999" height="47.00001240000006" class="text">FOR </text>
<text x="1279.0000546400001" y="1766.99995362" width="182.99990691999983" height="48.999992580000026" class="text">JEREMY </text>
<text x="1492.9999641200002" y="1762.00004871" width="188.99998331999996" height="49.999982670000236" class="text">PINCHIN
</text>
<text x="235.00000128000002" y="1887.99998409" width="201.99998495999998" height="52.99993016999997" class="text">APPENDIX </text>
<text x="468.99997812000004" y="1883.00005641" width="15.000015399999938" height="48.00000249000004" class="text">2</text>
<text x="497.99998448" y="1883.00005641" width="15.000015399999882" height="48.00000249000004" class="text">, </text>
<text x="546.99998796" y="1881.99995247" width="257.0000121600001" height="53.99992025999995" class="text">ADDITIONAL </text>
<text x="849.9999654" y="1876.0000347" width="262.9999832000002" height="54.000034110000115" class="text">REPORTABLE </text>
<text x="1150.99999932" y="1870.00000308" width="194.99995435999995" height="53.00006678999989" class="text">ACTIVITY </text>
<text x="1388.99998612" y="1864.99996155" width="18.000000920000048" height="48.00002526000003" class="text">IN </text>
<text x="1459.00002872" y="1863.99997146" width="181.99993515999995" height="51.999940080000215" class="text">RESPECT
</text>
<text x="228.99999511999997" y="1953.99996759" width="50.99999968" height="45.999908459999915" class="text">OF </text>
<text x="311.00001492" y="1953.99996759" width="143.99997223999998" height="48.00002526000003" class="text">ITEMS </text>
<text x="488.99997524" y="1951.9999874100001" width="42.000025559999926" height="46.00004508000006" class="text">11 </text>
<text x="550.9999979199999" y="1951.9999874100001" width="92.00000080000007" height="48.00000249000027" class="text">AND </text>
<text x="669.00001956" y="1950.00003" width="40.000011799999925" height="46.00004508000006" class="text">12 </text>
<text x="759.0000066" y="1949.0000399100002" width="49.999975240000026" height="46.00004508000006" class="text">OF </text>
<text x="855.00001736" y="1949.0000399100002" width="84.00001599999996" height="48.00000249000027" class="text">THE </text>
<text x="968.9999588" y="1948.00007259" width="210.00002244000018" height="49.00001535000001" class="text">ORIGINAL </text>
<text x="1214.99998308" y="1945.99995579" width="335.99999376000005" height="49.999982670000236" class="text">SUPPLEMENTAL
</text>
<text x="244.00001052000002" y="2024.0000253" width="275.99998484" height="48.00002526000003" class="text">STATEMENT </text>
<text x="541.00001692" y="2021.0000550299999" width="70.99997924000002" height="46.000045079999836" class="text">FOR </text>
<text x="662.99999584" y="2018.999961" width="73.99999988000002" height="44.99991836999993" class="text">THE </text>
<text x="772.99999756" y="2017.99997091" width="153.00003416000004" height="47.00001240000006" class="text">PERIOD </text>
<text x="954.9999853999999" y="2015.00002341" width="170.99998240000002" height="46.00004508000006" class="text">ENDING </text>
<text x="1159.0000368" y="2013.000066" width="50.99994699999979" height="46.00004508000006" class="text">31 </text>
<text x="1232.99996644" y="2011.99993929" width="101.00006272000019" height="45.999908459999915" class="text">JULY </text>
<text x="1369.00004168" y="2009.99998188" width="112.99996967999982" height="44.99994113999992" class="text">2002</text>
<text x="1495.00003056" y="2008.99999179" width="13.999990960000105" height="43.999951049999936" class="text">.
</text>
<text x="763.99998832" y="2192.00006817" width="98.00002452000001" height="34.00011845999961" class="text">Formerly </text>
<text x="866.99999456" y="2186.00003655" width="55.999998960000084" height="31.00003433999973" class="text">OBD</text>
<text x="924.9999546" y="2182.99992966" width="9.000097040000014" height="27.999927449999632" class="text">-</text>
<text x="932.00000276" y="2182.99992966" width="26.999992599999928" height="28.999917539999842" class="text">68
</text>
<text x="1558.99999676" y="2162.00002392" width="54.99997452000002" height="22.000055219999922" class="text">FORM </text>
<text x="1627.99996224" y="2160.00004374" width="38.00005071999999" height="21.000042359999952" class="text">CRM</text>
<text x="1674.00003288" y="2157.9999497100002" width="5.999971039999991" height="18.99994833000028" class="text">-</text>
<text x="1680.99997568" y="2157.9999497100002" width="28.00006971999983" height="19.999938420000035" class="text">158
</text>
<text x="1603.0000185200001" y="2185.0000464600002" width="50.99996455999985" height="22.000055220000377" class="text">JUNE </text>
<text x="1660.0000419199998" y="2182.99992966" width="42.999944640000194" height="19.999938420000035" class="text">1998
</text>
</g>
<g id="page-1" transform="translate(0, 2297)">
<rect width="1756" height="2277" fill="none" stroke="black" />
<text x="797.0000046399999" y="194.00000152500002" width="202.00000252000007" height="34.00000916400003" class="text">EXECUTION
</text>
<text x="244.00001052000002" y="271.00000125" width="18.99999023999996" height="33.000014520000036" class="text">In </text>
<text x="275.99998484" y="271.00000125" width="121.99999647999994" height="34.9999947" class="text">accordance </text>
<text x="409.99999364" y="270.00001116" width="44.00002176000004" height="33.00001452000001" class="text">with </text>
<text x="468.00000636" y="268.9999983" width="24.000007080000046" height="32.99999174999999" class="text">28 </text>
<text x="503.00001888" y="268.9999983" width="77.99995715999995" height="34.00000461000002" class="text">U.S.C. </text>
<text x="586.99999976" y="268.9999983" width="8.999991679999994" height="32.99999174999999" class="text">§ </text>
<text x="609.00001064" y="268.00000821" width="50.99999967999997" height="33.00001451999998" class="text">1746</text>
<text x="662.99999584" y="268.00000821" width="9.000009240000054" height="33.00001451999998" class="text">, </text>
<text x="676.00001504" y="268.00000821" width="33.99998807999998" height="33.00001451999998" class="text">the </text>
<text x="718.00002304" y="268.00000821" width="133.99995611999998" height="35.00001746999999" class="text">undersigned </text>
<text x="859.99999908" y="266.99999535" width="66.00003264000009" height="34.00000461000002" class="text">swear</text>
<text x="927.00000348" y="266.00000526" width="9.00000923999994" height="33.000014520000036" class="text">(</text>
<text x="936.99998448" y="266.00000526" width="8.999991680000107" height="33.000014520000036" class="text">s</text>
<text x="949.00001436" y="266.00000526" width="8.999991679999994" height="33.000014520000036" class="text">) </text>
<text x="966.0000435200001" y="266.00000526" width="23.99995439999998" height="33.000014520000036" class="text">or </text>
<text x="997.00004608" y="266.00000526" width="58.999984479999966" height="34.00000461000002" class="text">affirm</text>
<text x="1062.99997336" y="265.00001517" width="8.999991679999994" height="33.00001451999998" class="text">(</text>
<text x="1073.00004216" y="265.00001517" width="9.000009239999827" height="33.00001451999998" class="text">s</text>
<text x="1085.9999559999999" y="265.00001517" width="8.999991679999994" height="33.00001451999998" class="text">) </text>
<text x="1097.00001412" y="265.00001517" width="67.99997615999996" height="33.00001451999998" class="text">under </text>
<text x="1170.99996132" y="264.00000231" width="79.00003427999991" height="34.00000460999999" class="text">penalty </text>
<text x="1258.9999872800001" y="264.00000231" width="25.000049080000053" height="33.000014520000036" class="text">of </text>
<text x="1289.00001808" y="264.00000231" width="80.99999535999996" height="35.00001747000002" class="text">perjury </text>
<text x="1375.99998448" y="263.00001222" width="45.99996527999997" height="33.00001451999995" class="text">that </text>
<text x="1423.0000268800002" y="263.00001222" width="29.999942999999803" height="33.00001451999995" class="text">he</text>
<text x="1451.99998056" y="263.00001222" width="9.000009239999827" height="33.00001451999995" class="text">/</text>
<text x="1461.99996156" y="261.99999936" width="33.00006899999994" height="33.00001452000001" class="text">she </text>
<text x="1503.00005048" y="261.99999936" width="36.999973599999976" height="33.00001452000001" class="text">has </text>
<text x="1550.99997684" y="261.99999936" width="8.999991679999994" height="33.00001452000001" class="text">(</text>
<text x="1558.000025" y="261.99999936" width="45.99996527999997" height="33.00001452000001" class="text">they
</text>
<text x="142.00000589200002" y="305.00000586" width="51.999994267999966" height="30.999988799999983" class="text">have </text>
<text x="212.9999904" y="304.00001577" width="43.00001488000004" height="31.00001156999997" class="text">read </text>
<text x="268.99998936" y="304.00001577" width="31.000020120000045" height="31.00001156999997" class="text">the </text>
<text x="310.00000804" y="304.00001577" width="125.99998887999999" height="33.00001451999998" class="text">information </text>
<text x="447.99999168" y="302.00001282000005" width="31.000020120000045" height="31.000011570000026" class="text">set </text>
<text x="483.99999352" y="302.00001282000005" width="49.99999279999997" height="31.000011570000026" class="text">forth </text>
<text x="542.9999779999999" y="302.00001282000005" width="19.00002536000011" height="31.000011570000026" class="text">in </text>
<text x="571.99998436" y="300.99999996" width="39.000022479999984" height="30.99998880000004" class="text">this </text>
<text x="618.00000232" y="302.00001282000005" width="123.99997511999993" height="33.000014520000036" class="text">registration </text>
<text x="754.99999664" y="300.00000987000004" width="105.00000244" height="32.000001660000066" class="text">statement </text>
<text x="866.0000228" y="298.99999701" width="38.99996979999992" height="30.99998880000004" class="text">and </text>
<text x="913.0000125199999" y="298.99999701" width="31.000020120000045" height="32.00000166000001" class="text">the </text>
<text x="957.0000342799999" y="298.99999701" width="85.99997708000001" height="32.99999174999999" class="text">attached </text>
<text x="1055.0000588" y="298.00000692000003" width="85.99997707999978" height="32.99999175000005" class="text">exhibits </text>
<text x="1151.99998864" y="296.99999406" width="35.00001251999993" height="30.999988799999983" class="text">and </text>
<text x="1194.00004932" y="296.00000397" width="43.999916400000075" height="30.99998880000004" class="text">that </text>
<text x="1241.99997568" y="296.00000397" width="29.000059039999996" height="30.99998880000004" class="text">he</text>
<text x="1272.00000648" y="296.00000397" width="8.999991679999994" height="30.99998880000004" class="text">/</text>
<text x="1277.9999775200001" y="296.00000397" width="39.00002247999987" height="32.00000166000001" class="text">she </text>
<text x="1321.00000996" y="294.99999111" width="18.999972679999928" height="30.999988799999983" class="text">is </text>
<text x="1348.9999918800002" y="294.99999111" width="8.999991679999994" height="30.999988799999983" class="text">(</text>
<text x="1360.00005" y="294.99999111" width="42.99992707999991" height="30.999988799999983" class="text">they </text>
<text x="1414.0000352000002" y="294.99999111" width="31.999991879999698" height="31.999978890000023" class="text">are</text>
<text x="1448.99994236" y="294.00002379" width="9.000009240000054" height="31.000011570000026" class="text">) </text>
<text x="1464.9999997599998" y="294.99999111" width="85.99997708000024" height="32.99999174999999" class="text">familiar </text>
<text x="1557.00003568" y="292.99998816" width="43.99991639999985" height="30.999988799999983" class="text">with
</text>
<text x="141.000002524" y="337.00000752" width="36.000003596" height="30.999988799999983" class="text">the </text>
<text x="184.99999092" y="337.00000752" width="89.00001527999999" height="32.99999174999999" class="text">contents </text>
<text x="285.99998339999996" y="335.99999465999997" width="76.00001364000002" height="32.99999174999999" class="text">thereof </text>
<text x="370.99998872" y="335.00000457000004" width="35.000030080000045" height="30.99998880000004" class="text">and </text>
<text x="415.00001047999996" y="335.00000457000004" width="46.00000040000003" height="30.99998880000004" class="text">that </text>
<text x="468.00000636" y="335.00000457000004" width="44.99999351999992" height="32.000001660000066" class="text">such </text>
<text x="526.00000152" y="335.00000457000004" width="89.00001527999996" height="32.99999174999999" class="text">contents </text>
<text x="625.9999695600001" y="333.00000162000003" width="31.00002011999993" height="30.999988799999983" class="text">are </text>
<text x="667.0000058" y="333.00000162000003" width="11.000005439999882" height="30.999988799999983" class="text">in </text>
<text x="694.9999877199999" y="333.00000162000003" width="44.99999352000009" height="30.999988799999983" class="text">their </text>
<text x="752.00001112" y="333.00000162000003" width="79.99997092000001" height="32.99999174999999" class="text">entirety </text>
<text x="844.00001192" y="331.99998876" width="39.99995911999997" height="30.999988799999983" class="text">true </text>
<text x="891.00000164" y="331.99998876" width="39.00004003999993" height="31.999978889999966" class="text">and </text>
<text x="937.9999562400001" y="331.99998876" width="89.99998703999995" height="32.99999174999999" class="text">accurate </text>
<text x="1038.00002964" y="329.99998581" width="18.00000091999982" height="30.999988799999983" class="text">to </text>
<text x="1066.0000115599998" y="329.99998581" width="35.000012520000155" height="30.999988799999983" class="text">the </text>
<text x="1106.0000058" y="329.99998581" width="49.000003479999805" height="30.999988799999983" class="text">best </text>
<text x="1160.00000856" y="329.99998581" width="23.999954400000206" height="31.999978889999966" class="text">of </text>
<text x="1187.9999729200001" y="328.99999572" width="31.999991879999698" height="30.999988799999983" class="text">his</text>
<text x="1223.000003" y="328.99999572" width="8.999991679999994" height="30.999988799999983" class="text">/</text>
<text x="1227.00001296" y="328.99999572" width="40.00001179999981" height="30.999988799999983" class="text">her </text>
<text x="1272.99997824" y="328.99999572" width="9.000009240000054" height="30.999988799999983" class="text">(</text>
<text x="1282.99995924" y="328.99999572" width="52.00004167999987" height="32.00000166000001" class="text">their</text>
<text x="1335.0000009199998" y="327.99998286" width="8.999991680000221" height="30.999988799999983" class="text">) </text>
<text x="1348.00000256" y="328.99999572" width="124.00004536000006" height="32.99999174999999" class="text">knowledge </text>
<text x="1485.00004956" y="327.00001554" width="33.99993539999991" height="31.00001156999997" class="text">and </text>
<text x="1527.9999942" y="327.00001554" width="63.99996620000002" height="31.00001156999997" class="text">belief</text>
<text x="1591.9999604" y="325.99997991" width="8.999991679999994" height="30.999988799999983" class="text">,
</text>
<text x="141.000002524" y="374.99999526" width="75.999997836" height="35.999984789999985" class="text">except </text>
<text x="226.0000096" y="374.00000517" width="41.999990439999976" height="34.00000461000002" class="text">that </text>
<text x="272.99999932000003" y="374.00000517" width="32.99999875999998" height="34.9999947" class="text">the </text>
<text x="311.00001492" y="374.00000517" width="136.99997675999998" height="36.00000756000003" class="text">undersigned </text>
<text x="461.00001088" y="372.00000222" width="54.99997452000002" height="36.00000756000003" class="text">make</text>
<text x="515.9999854" y="370.99998936" width="10.000016119999941" height="33.999981839999975" class="text">(</text>
<text x="526.00000152" y="370.99998936" width="9.999981000000048" height="33.999981839999975" class="text">s</text>
<text x="539.99999248" y="370.99998936" width="10.000033680000115" height="33.999981839999975" class="text">) </text>
<text x="555.99997964" y="370.99998936" width="26.000020840000047" height="34.9999947" class="text">no </text>
<text x="591.00000972" y="370.99998936" width="152.9999814800001" height="36.999997649999955" class="text">representation </text>
<text x="757.99998216" y="367.99999632000004" width="19.00002536000011" height="34.00000461000002" class="text">as </text>
<text x="784.99997476" y="367.99999632000004" width="19.00002536000011" height="34.00000461000002" class="text">to </text>
<text x="812.00002004" y="367.99999632000004" width="33.999988080000094" height="34.00000461000002" class="text">the </text>
<text x="853.0000036" y="367.00000623" width="50.00004548000004" height="35.00001746999999" class="text">truth </text>
<text x="913.0000125199999" y="367.00000623" width="26.000020840000047" height="34.00000460999996" class="text">or </text>
<text x="944.00003264" y="367.00000623" width="94.99996876" height="36.00000755999997" class="text">accuracy </text>
<text x="1048.9999824000001" y="365.00002605" width="26.000020839999934" height="34.00002737999995" class="text">of </text>
<text x="1078.00004144" y="365.00002605" width="32.99996364000003" height="34.00002737999995" class="text">the </text>
<text x="1118.00003568" y="365.00002605" width="128.99992171999997" height="36.00003032999996" class="text">information </text>
<text x="1255.99996664" y="363.99999042" width="107.99998796000023" height="36.00000756000003" class="text">contained </text>
<text x="1375.0000127199999" y="361.99998747" width="13.000001640000164" height="34.00000461000002" class="text">in </text>
<text x="1401.00003356" y="361.99998747" width="32.99994607999997" height="34.999971930000015" class="text">the </text>
<text x="1443.99996064" y="361.99998747" width="88.00004352000019" height="36.00000756000003" class="text">attached </text>
<text x="1545.0000058" y="361.00002014999995" width="62.00002268000003" height="36.00000755999997" class="text">Short
</text>
<text x="139.999999156" y="408.00000977999997" width="59.00000028399998" height="33.00001451999998" class="text">Form </text>
<text x="208.999998" y="408.00000977999997" width="134.99999812" height="35.00001746999999" class="text">Registration </text>
<text x="355.00000156" y="406.99999692" width="113.99997656000005" height="34.9999947" class="text">Statement</text>
<text x="465.99999260000004" y="404.99999397" width="9.000009239999883" height="32.99999174999999" class="text">(</text>
<text x="475.0000018399999" y="404.99999397" width="8.99999168000005" height="32.99999174999999" class="text">s</text>
<text x="488.99997524" y="404.99999397" width="9.000009239999997" height="32.99999174999999" class="text">)</text>
<text x="494.99999896" y="404.99999397" width="8.999991679999994" height="32.99999174999999" class="text">, </text>
<text x="512.9999998799999" y="404.99999397" width="11.999977200000103" height="32.99999174999999" class="text">if </text>
<text x="533.99998632" y="404.99999397" width="37.000008720000096" height="32.99999174999999" class="text">any</text>
<text x="570.99999504" y="404.99999397" width="9.00000923999994" height="32.99999174999999" class="text">, </text>
<text x="588.99999596" y="404.99999397" width="73.99999988000002" height="34.999994699999945" class="text">insofar </text>
<text x="669.00001956" y="404.00000387999995" width="23.99995439999998" height="33.00001451999998" class="text">as </text>
<text x="698.99999768" y="404.00000387999995" width="46.00001796000004" height="34.000004609999905" class="text">such </text>
<text x="761.00002036" y="404.00000387999995" width="124.00002779999988" height="34.999994699999945" class="text">information </text>
<text x="895.00002916" y="402.00000093" width="18.99997268000004" height="32.99999174999999" class="text">is </text>
<text x="919.9999553199999" y="402.00000093" width="37.000078959999996" height="32.99999174999999" class="text">not </text>
<text x="962.00003356" y="402.00000093" width="67.00000440000008" height="34.9999947" class="text">within </text>
<text x="1039.0000014" y="400.99998807000003" width="32.99996364000003" height="32.99999174999999" class="text">his</text>
<text x="1073.00004216" y="400.99998807000003" width="9.000009239999827" height="32.99999174999999" class="text">/</text>
<text x="1076.99996432" y="400.99998807000003" width="38.00005072000022" height="32.99999174999999" class="text">her </text>
<text x="1121.99995784" y="399.99999798" width="8.999991679999994" height="32.99999174999999" class="text">(</text>
<text x="1133.99998772" y="399.99999798" width="49.99997524000014" height="32.99999174999999" class="text">their</text>
<text x="1185.00005764" y="399.99999798" width="8.999991679999994" height="32.99999174999999" class="text">) </text>
<text x="1200.00002036" y="399.99999798" width="95.99994051999988" height="34.999971930000015" class="text">personal </text>
<text x="1303.0000090400001" y="399.99999798" width="122.99995067999976" height="34.999971930000015" class="text">knowledge</text>
<text x="1425.9999597199999" y="398.0000178" width="9.000009240000054" height="32.99999175000005" class="text">.
</text>
<text x="954.9999853999999" y="502.99997913" width="13.999973400000044" height="33.99995906999999" class="text">(</text>
<text x="968.9999588" y="502.99997913" width="51.00006991999999" height="34.9999947" class="text">Pope </text>
<text x="1025.9999997599998" y="502.00001181" width="25.00003152000022" height="34.000027380000006" class="text">or </text>
<text x="1056.00003056" y="502.00001181" width="54.99997452000002" height="34.000027380000006" class="text">print </text>
<text x="1118.00003568" y="502.00001181" width="59.99997379999991" height="36.000030330000016" class="text">name </text>
<text x="1186.0000294" y="500.99997618" width="64.99993796000012" height="35.99996202" class="text">under </text>
<text x="1257.00004376" y="500.00000886" width="49.00000348000003" height="34.000027380000006" class="text">each </text>
<text x="1316.00002824" y="500.00000886" width="111.00002616000006" height="36.00000755999997" class="text">signature¹</text>
<text x="1428.00002616" y="498.999996" width="9.999980999999934" height="33.99998184000003" class="text">)
</text>
<text x="143.99999858" y="507.99999789" width="8.999998703999978" height="30.999988799999983" class="text">(</text>
<text x="153.999998896" y="507.99999789" width="51.99999602400001" height="32.99999174999999" class="text">Date </text>
<text x="216.00001104" y="506.99998502999995" width="21.999993319999987" height="30.999988799999983" class="text">of </text>
<text x="244.00001052000002" y="506.99998502999995" width="102.99998868000003" height="32.99999174999999" class="text">signature</text>
<text x="349.00001296" y="505.99999494" width="8.999991679999994" height="30.99998880000004" class="text">)
</text>
<text x="175.000006408" y="567.99999531" width="69.99999343200002" height="39.999990690000004" class="text">27
</text>
<text x="170.999994692" y="606.00000582" width="93.00001294799998" height="82.00000709999995" class="text">27. </text>
<text x="278.99998792" y="604.0000256400001" width="160.99998384000003" height="84.00001005000013" class="text">august
</text>
<text x="419.00000288" y="565.99999236" width="169.99999307999997" height="45.00000944999999" class="text">1-2002
</text>
<text x="953.99999608" y="630.99998577" width="121.99997891999999" height="34.999949159999915" class="text">BRUCE
</text>
<text x="1226.0000412" y="635.99998176" width="184.99995579999995" height="55.99996874999988" class="text">Tempsar
</text>
<text x="162.99999935600002" y="2156.99995962" width="6.000002647999992" height="21.99989583000024" class="text">1 </text>
<text x="177.00000612" y="2156.99995962" width="27.999999480000014" height="21.99989583000024" class="text">This </text>
<text x="210.9999942" y="2156.99995962" width="69.00000059999996" height="23.999989859999914" class="text">statement </text>
<text x="282.00000855999997" y="2155.9999923" width="32.999981200000036" height="22.000055219999922" class="text">shall </text>
<text x="317.99999284" y="2155.0000022100003" width="17.000011599999993" height="22.000032450000162" class="text">be </text>
<text x="340.00000372" y="2155.0000022100003" width="41.99999044000003" height="22.000032450000162" class="text">signed </text>
<text x="388.99998964" y="2155.0000022100003" width="16.00002227999994" height="22.000032450000162" class="text">by </text>
<text x="412.0000074" y="2155.0000022100003" width="22.999982639999985" height="23.000022540000373" class="text">the </text>
<text x="436.99998624" y="2155.0000022100003" width="71.00003192000003" height="24.00001263000013" class="text">individual </text>
<text x="510.00001435999997" y="2154.00001212" width="40.999983559999976" height="23.000022539999918" class="text">agent</text>
<text x="548.0000124" y="2153.0000448" width="5.999971040000105" height="22.000055219999922" class="text">, </text>
<text x="555.00000788" y="2153.0000448" width="11.99997719999999" height="22.000055219999922" class="text">if </text>
<text x="570.99999504" y="2153.0000448" width="20.999986440000043" height="22.000055219999922" class="text">the </text>
<text x="595.99999144" y="2153.0000448" width="67.00000439999997" height="24.00001263000013" class="text">registrant </text>
<text x="665.0000096" y="2152.00005471" width="8.999991679999994" height="22.000055219999922" class="text">is </text>
<text x="680.99999676" y="2152.00005471" width="11.99997719999999" height="22.000055219999922" class="text">an </text>
<text x="700.99999388" y="2152.00005471" width="69.00001815999997" height="24.000012629999674" class="text">individual</text>
<text x="767.99999828" y="2151.00006462" width="6.000023720000058" height="22.000032450000162" class="text">, </text>
<text x="777.00000752" y="2151.00006462" width="15.999987159999932" height="22.000032450000162" class="text">or </text>
<text x="795.9999802" y="2151.00006462" width="16.00003984" height="22.000032450000162" class="text">by </text>
<text x="815.9999773200001" y="2151.00006462" width="6.000023719999945" height="22.000032450000162" class="text">a </text>
<text x="833.00000648" y="2151.00006462" width="53.000013439999975" height="24.00001263000013" class="text">majority </text>
<text x="892.99996272" y="2149.99993791" width="13.00001920000011" height="21.999895829999787" class="text">of </text>
<text x="912.00004076" y="2149.99993791" width="36.999973599999976" height="21.999895829999787" class="text">those </text>
<text x="953.00002432" y="2148.99997059" width="54.00000276000003" height="23.000022539999918" class="text">partners</text>
<text x="1007.99999884" y="2148.99997059" width="5.999971039999991" height="21.9999186" class="text">, </text>
<text x="1016.00001876" y="2148.99997059" width="50.99996455999997" height="23.000022539999918" class="text">officers</text>
<text x="1066.99998332" y="2147.9999804999998" width="6.000058840000065" height="22.000032449999708" class="text">, </text>
<text x="1075.999975" y="2148.99997059" width="58.000012720000086" height="24.00001263000013" class="text">directors </text>
<text x="1142.9999794" y="2147.9999804999998" width="12.000029879999829" height="22.000032449999708" class="text">or </text>
<text x="1159.0000368" y="2146.99999041" width="53.999985199999855" height="23.000022539999918" class="text">persons </text>
<text x="1217.00003196" y="2146.99999041" width="76.99998540000024" height="23.999989859999914" class="text">performing </text>
<text x="1300.99996016" y="2146.00002309" width="44.99999351999986" height="22.000055219999922" class="text">similar </text>
<text x="1352.00001252" y="2146.00002309" width="62.99999443999991" height="24.00001263000013" class="text">functions</text>
<text x="1415.0000069599998" y="2145.000033" width="5.999971040000219" height="22.000032449999708" class="text">, </text>
<text x="1424.0000162000001" y="2145.000033" width="8.999991679999994" height="22.000032449999708" class="text">if </text>
<text x="1438.00000716" y="2145.000033" width="21.00002156000005" height="22.000032449999708" class="text">the </text>
<text x="1463.00003868" y="2145.000033" width="67.00000439999985" height="24.00001263000013" class="text">registrant </text>
<text x="1531.0000324" y="2144.00004291" width="13.000001639999937" height="22.000032450000162" class="text">is </text>
<text x="1550.00000508" y="2144.00004291" width="12.000029880000056" height="22.000032450000162" class="text">an </text>
<text x="1568.99997776" y="2144.00004291" width="84.00001599999996" height="24.00001263000013" class="text">organization</text>
<text x="1654.9999548399999" y="2143.00007559" width="6.000058840000065" height="22.000055220000377" class="text">,
</text>
<text x="161.000006668" y="2177.00003466" width="46.99998445200001" height="22.000032449999708" class="text">except </text>
<text x="212.00000108" y="2176.00006734" width="25.00001395999999" height="20.000075039999956" class="text">that </text>
<text x="241.99999676" y="2176.00006734" width="19.999997120000046" height="20.000075039999956" class="text">the </text>
<text x="266.99999316" y="2176.00006734" width="83.00002668000002" height="22.000055219999922" class="text">organization </text>
<text x="356.99999776" y="2173.99995054" width="23.000000200000045" height="19.999938420000035" class="text">can</text>
<text x="380.99998727999997" y="2173.99995054" width="6.000023720000058" height="19.999938420000035" class="text">, </text>
<text x="391.0000034" y="2173.99995054" width="15.000015399999995" height="19.999938420000035" class="text">by </text>
<text x="413.00001427999996" y="2173.99995054" width="41.99997288000003" height="21.99989583000024" class="text">power </text>
<text x="461.00001088" y="2172.99996045" width="15.000015399999995" height="19.99991564999982" class="text">of </text>
<text x="483.00002176000004" y="2172.99996045" width="56.99997071999991" height="21.999895829999787" class="text">attorney</text>
<text x="541.00001692" y="2171.99999313" width="5.999971039999991" height="19.999938420000035" class="text">, </text>
<text x="549.00000172" y="2171.99999313" width="64.99999064000008" height="22.000055219999922" class="text">authorize </text>
<text x="618.99997408" y="2171.00000304" width="25.000049080000053" height="19.999938420000035" class="text">one </text>
<text x="649.9999942" y="2170.00001295" width="11.000005439999995" height="20.000075039999956" class="text">or </text>
<text x="669.9999913199999" y="2170.00001295" width="31.000002560000098" height="20.000075039999956" class="text">more </text>
<text x="705.99999316" y="2170.00001295" width="75.00002431999997" height="22.000032450000162" class="text">individuals </text>
<text x="785.9999992" y="2169.00004563" width="11.000005439999882" height="20.000075039999956" class="text">to </text>
<text x="803.00002836" y="2169.00004563" width="51.99998900000003" height="22.000055219999922" class="text">execute </text>
<text x="862.0000128400001" y="2168.00005554" width="23.000035319999824" height="21.000065130000166" class="text">this </text>
<text x="890.0000298799999" y="2168.00005554" width="67.99997616000007" height="22.000032450000162" class="text">statement </text>
<text x="961.00004424" y="2165.99996151" width="14.999962719999985" height="19.999938420000035" class="text">on </text>
<text x="981.999978" y="2165.99996151" width="13.999990959999991" height="19.999938420000035" class="text">its 
</text>
<text x="1003.0000171199999" y="2165.99996151" width="44.00000420000015" height="21.9999186" class="text">behalf</text>
<text x="1044.99997244" y="2164.99997142" width="6.000058840000065" height="19.999938420000035" class="text">.
</text>
</g>
</svg>
