<svg xmlns="http://www.w3.org/2000/svg">
<style>.text { font-size: 14px; font-family: Arial, sans-serif; }</style>
<g id="page-0" transform="translate(0, 0)">
<rect width="1756" height="2277" fill="none" stroke="black" />
<text x="1437.00001784" y="157.999991688" width="33.99993539999991" height="13.999986494999973" class="text">OMB </text>
<text x="1473.99999144" y="157.999991688" width="21.000039119999883" height="13.999986494999973" class="text">NO</text>
<text x="1497.9999634" y="157.999991688" width="4.000009959999943" height="13.999986494999973" class="text">. </text>
<text x="1505.99998332" y="158.999993163" width="63.99996620000002" height="14.999987969999978" class="text">1103-0004
</text>
<text x="114.000004656" y="174.99999627" width="43.999993664" height="27.999988928999983" class="text">U.S. </text>
<text x="162.99999935600002" y="174.99999627" width="136.00000324399994" height="29.999989602" class="text">Department </text>
<text x="304.99999119999995" y="173.999997072" width="21.000004000000047" height="27.999991206000004" class="text">of </text>
<text x="332.99999068" y="173.999997072" width="75.00000676000002" height="27.999991206000004" class="text">Justice
</text>
<text x="108.99999835199999" y="204.00000488999999" width="120.99998608800003" height="30.000007817999972" class="text">Washington</text>
<text x="235.00000128000002" y="202.000004217" width="8.000002359999996" height="27.000007947" class="text">, </text>
<text x="247.99998535999998" y="202.000004217" width="34.00002319999999" height="29.000006342999995" class="text">DC </text>
<text x="289.99999336" y="201.00000501899999" width="62.00000511999997" height="28.000007144999984" class="text">20530
</text>
<text x="616.9999778800001" y="177.99999841800002" width="161.00000139999997" height="34.99999242300001" class="text">Amendment </text>
<text x="781.99998924" y="177.99999841800002" width="20.00001468000005" height="34.99999242300001" class="text">to </text>
<text x="813.0000093599999" y="177.99999841800002" width="151.99993948000008" height="34.99999242300001" class="text">Registration </text>
<text x="976.00000696" y="177.99999841800002" width="124.00004536000017" height="34.99999242300001" class="text">Statement
</text>
<text x="620.99998784" y="204.00000488999999" width="92.00000079999995" height="29.00000861999999" class="text">Pursuant </text>
<text x="714.00001308" y="204.00000488999999" width="22.00001087999999" height="29.00000861999999" class="text">to </text>
<text x="743.9999912000001" y="204.00000488999999" width="30.00003079999999" height="29.00000861999999" class="text">the </text>
<text x="784.000003" y="204.00000488999999" width="73.99999988000002" height="29.00000861999999" class="text">Foreign </text>
<text x="869.00000832" y="204.00000488999999" width="71.99998612000002" height="29.00000861999999" class="text">Agents </text>
<text x="948.0000425999999" y="204.00000488999999" width="120.99998960000016" height="29.00000861999999" class="text">Registration </text>
<text x="1080.9999742799998" y="204.00000488999999" width="37.00006140000028" height="29.00000861999999" class="text">Act </text>
<text x="1121.99995784" y="204.00000488999999" width="28.000069720000056" height="29.00000861999999" class="text">of </text>
<text x="1155.9999986" y="204.00000488999999" width="49.00000348000003" height="29.00000861999999" class="text">1938</text>
<text x="1203.000041" y="204.00000488999999" width="7.999932119999812" height="29.00000861999999" class="text">, </text>
<text x="1215.9999548399999" y="204.00000488999999" width="22.000010880000218" height="29.00000861999999" class="text">as </text>
<text x="1242.9999474400001" y="204.00000488999999" width="93.00002523999979" height="29.00000861999999" class="text">amended
</text>
<text x="110.99999630800001" y="305.00000586" width="70.00000221199998" height="29.00000861999996" class="text">Privacy </text>
<text x="189.9999902" y="305.00000586" width="32.99999875999998" height="29.00000861999996" class="text">Act </text>
<text x="229.99998444000002" y="305.00000586" width="96.00001075999998" height="29.00000861999996" class="text">Statement</text>
<text x="322.00002036" y="305.00000586" width="7.999984799999993" height="29.00000861999996" class="text">. </text>
<text x="340.99999304" y="305.00000586" width="53.000013439999975" height="29.00000861999996" class="text">Every </text>
<text x="406.0000188" y="305.00000586" width="101.99999936" height="29.00000861999996" class="text">registration </text>
<text x="517.9999816" y="305.00000586" width="89.00001528000007" height="29.00000861999996" class="text">statement</text>
<text x="606.99999688" y="305.00000586" width="8.000019919999886" height="29.00000861999996" class="text">, </text>
<text x="618.00000232" y="305.00000586" width="44.999993519999975" height="29.00000861999996" class="text">short </text>
<text x="669.9999913199999" y="305.00000586" width="42.00000799999998" height="29.00000861999996" class="text">form </text>
<text x="725.0000185199999" y="305.00000586" width="97.99995428000011" height="29.00000861999996" class="text">registration </text>
<text x="833.00000648" y="305.00000586" width="93.00002524000001" height="29.00000861999996" class="text">statement</text>
<text x="922.9999935200001" y="305.00000586" width="8.00001992" height="29.00000861999996" class="text">, </text>
<text x="932.99997452" y="305.00000586" width="128.00003775999994" height="29.00000861999996" class="text">supplemental </text>
<text x="1065.00002224" y="305.00000586" width="93.00002524000001" height="29.00000861999996" class="text">statement</text>
<text x="1158.00004748" y="305.00000586" width="7.999914559999979" height="29.00000861999996" class="text">, </text>
<text x="1169.0000002400002" y="305.00000586" width="66.00003263999974" height="29.00000861999996" class="text">exhibit</text>
<text x="1232.99996644" y="305.00000586" width="8.000037479999946" height="29.00000861999996" class="text">, </text>
<text x="1241.99997568" y="305.00000586" width="116.00000788000011" height="29.00000861999996" class="text">amendment</text>
<text x="1354.9999453599999" y="305.00000586" width="8.000019920000113" height="29.00000861999996" class="text">, </text>
<text x="1365.00003172" y="305.00000586" width="44.99999352000009" height="29.00000861999996" class="text">copy </text>
<text x="1419.00001692" y="305.00000586" width="19.999962000000096" height="29.00000861999996" class="text">of </text>
<text x="1442.99998888" y="305.00000586" width="129.00002707999988" height="29.00000861999996" class="text">informational
</text>
<text x="114.000004656" y="331.99998876" width="80.99998482400001" height="29.999975939999956" class="text">materials </text>
<text x="202.00000252" y="331.99998876" width="16.99999403999999" height="29.999975939999956" class="text">or </text>
<text x="225.00000271999997" y="331.99998876" width="47.99999660000006" height="29.999975939999956" class="text">other </text>
<text x="278.99998792" y="331.99998876" width="93.00000768000001" height="29.999975939999956" class="text">document </text>
<text x="378.99999108" y="331.99998876" width="17.000011599999993" height="29.999975939999956" class="text">or </text>
<text x="405.00001191999996" y="331.99998876" width="105.99997420000005" height="29.999975939999956" class="text">information </text>
<text x="521.99999156" y="331.99998876" width="36.00000183999998" height="29.999975939999956" class="text">filed </text>
<text x="566.00001332" y="331.99998876" width="40.00001180000004" height="29.999975939999956" class="text">with </text>
<text x="613.0000206" y="331.99998876" width="29.999978120000037" height="29.999975939999956" class="text">the </text>
<text x="651.00001864" y="331.99998876" width="78.99998159999996" height="29.999975939999956" class="text">Attorney </text>
<text x="736.99999572" y="331.99998876" width="73.00002811999991" height="29.999975939999956" class="text">General </text>
<text x="813.0000093599999" y="331.99998876" width="57.99999516000014" height="29.999975939999956" class="text">under </text>
<text x="875.99998624" y="331.99998876" width="29.00000635999993" height="29.999975939999956" class="text">this </text>
<text x="914.0000018400001" y="331.99998876" width="34.00004075999982" height="29.999975939999956" class="text">Act </text>
<text x="952.00005256" y="331.99998876" width="16.999906239999973" height="29.999975939999956" class="text">is </text>
<text x="972.9999863200001" y="331.99998876" width="8.999991679999994" height="29.999975939999956" class="text">a </text>
<text x="989.99999792" y="331.99998876" width="57.00002340000003" height="29.999975939999956" class="text">public </text>
<text x="1053.9999641200002" y="331.99998876" width="56.00005163999981" height="29.999975939999956" class="text">record </text>
<text x="1119.000025" y="331.99998876" width="41.9999553199998" height="29.999975939999956" class="text">open </text>
<text x="1168.00002848" y="331.99998876" width="17.00002915999994" height="29.999975939999956" class="text">to </text>
<text x="1194.00004932" y="331.99998876" width="56.99991804000001" height="29.999975939999956" class="text">public </text>
<text x="1257.00004376" y="331.99998876" width="114.9999307600001" height="29.999975939999956" class="text">examination</text>
<text x="1371.99997452" y="331.99998876" width="8.999991679999994" height="29.999975939999956" class="text">, </text>
<text x="1384.0000044" y="331.99998876" width="91.99994812" height="29.999975939999956" class="text">inspection </text>
<text x="1485.00004956" y="331.99998876" width="29.99992543999997" height="29.999975939999956" class="text">and
</text>
<text x="108.000002008" y="358.00000434000003" width="74.999992712" height="28.000018530000034" class="text">copying </text>
<text x="192.00000396" y="358.00000434000003" width="57.999995160000026" height="28.000018530000034" class="text">during </text>
<text x="258.9999908" y="358.00000434000003" width="26.999992599999985" height="28.000018530000034" class="text">the </text>
<text x="294.00002088" y="358.00000434000003" width="58.99996692000002" height="28.000018530000034" class="text">posted </text>
<text x="359.99998328" y="358.00000434000003" width="79.00001672000002" height="28.000018530000034" class="text">business </text>
<text x="447.99999168" y="358.00000434000003" width="49.99999280000003" height="28.000018530000034" class="text">hours </text>
<text x="501.99999444" y="358.00000434000003" width="26.000020839999934" height="28.000018530000034" class="text">of </text>
<text x="528.9999870400001" y="358.00000434000003" width="29.00000635999993" height="28.000018530000034" class="text">the </text>
<text x="564.0000171199999" y="358.00000434000003" width="113.99999412" height="28.000018530000034" class="text">Registration </text>
<text x="683.0000105199999" y="358.00000434000003" width="44.000004200000035" height="28.000018530000034" class="text">Unit </text>
<text x="736.00002396" y="358.00000434000003" width="9.999980999999934" height="28.000018530000034" class="text">in </text>
<text x="754.99999664" y="358.00000434000003" width="110.00000172" height="28.000018530000034" class="text">Washington</text>
<text x="868.000019" y="358.00000434000003" width="7.999967240000046" height="28.000018530000034" class="text">, </text>
<text x="878.99997176" y="358.00000434000003" width="34.00004075999993" height="28.000018530000034" class="text">DC</text>
<text x="913.0000125199999" y="358.00000434000003" width="8.00003748000006" height="28.000018530000034" class="text">. </text>
<text x="930.00004168" y="358.00000434000003" width="38.999917119999964" height="28.000018530000034" class="text">One </text>
<text x="976.00000696" y="358.00000434000003" width="44.00002175999998" height="28.000018530000034" class="text">copy </text>
<text x="1027.99994328" y="358.00000434000003" width="20.000067360000003" height="28.000018530000034" class="text">of </text>
<text x="1052.99999236" y="358.00000434000003" width="49.99997523999991" height="28.000018530000034" class="text">every </text>
<text x="1112.9999486000002" y="358.00000434000003" width="38.00005071999976" height="28.000018530000034" class="text">such </text>
<text x="1161.99995208" y="358.00000434000003" width="93.00002524000001" height="28.000018530000034" class="text">document</text>
<text x="1251.99995668" y="358.00000434000003" width="8.000019919999886" height="28.000018530000034" class="text">, </text>
<text x="1267.0000247599999" y="358.00000434000003" width="45.9999652800002" height="28.000018530000034" class="text">other </text>
<text x="1321.00000996" y="358.00000434000003" width="33.99993539999991" height="28.000018530000034" class="text">than </text>
<text x="1365.00003172" y="358.00000434000003" width="126.99996064000015" height="28.000018530000034" class="text">informational </text>
<text x="1504.00002224" y="358.00000434000003" width="76.99998540000001" height="28.000018530000034" class="text">materials</text>
<text x="1585.0000175999999" y="358.00000434000003" width="8.000019920000113" height="28.000018530000034" class="text">,
</text>
<text x="109.999994696" y="386.99999019" width="15.000003108000016" height="28.999985849999973" class="text">is </text>
<text x="132.00000382" y="386.99999019" width="124.00000146000005" height="28.999985849999973" class="text">automatically </text>
<text x="261.00000456" y="386.99999019" width="82.99999156000001" height="28.999985849999973" class="text">provided </text>
<text x="349.00001296" y="386.99999019" width="16.999994040000047" height="28.999985849999973" class="text">to </text>
<text x="374.00000936" y="386.99999019" width="27.999999480000042" height="28.999985849999973" class="text">the </text>
<text x="408.99998676" y="386.99999019" width="85.00004043999996" height="28.999985849999973" class="text">Secretary </text>
<text x="499.00000892" y="386.99999019" width="22.00001087999999" height="28.999985849999973" class="text">of </text>
<text x="524.99997708" y="386.99999019" width="43.00004999999999" height="28.999985849999973" class="text">State </text>
<text x="577.99999052" y="386.99999019" width="82.00001980000002" height="28.999985849999973" class="text">pursuant </text>
<text x="665.0000096" y="386.99999019" width="9.999963439999988" height="28.999985849999973" class="text">to </text>
<text x="683.99998228" y="386.99999019" width="69.00000060000002" height="28.999985849999973" class="text">Section </text>
<text x="761.00002036" y="386.99999019" width="7.999967240000046" height="28.999985849999973" class="text">6</text>
<text x="770.00001204" y="386.99999019" width="7.999967240000046" height="28.999985849999973" class="text">(</text>
<text x="779.00000372" y="386.99999019" width="7.999984799999993" height="28.999985849999973" class="text">b</text>
<text x="790.00000916" y="386.99999019" width="7.999984799999993" height="28.999985849999973" class="text">) </text>
<text x="804.99997188" y="386.99999019" width="20.000014679999936" height="28.999985849999973" class="text">of </text>
<text x="828.00002476" y="386.99999019" width="28.999988799999983" height="28.999985849999973" class="text">the </text>
<text x="864.00000904" y="386.99999019" width="32.99996363999992" height="28.999985849999973" class="text">Act</text>
<text x="895.00002916" y="386.99999019" width="8.00001992" height="28.999985849999973" class="text">, </text>
<text x="904.9999925999999" y="386.99999019" width="32.999963640000146" height="28.999985849999973" class="text">and </text>
<text x="946.9999654799999" y="386.99999019" width="57.000023400000146" height="28.999985849999973" class="text">copies </text>
<text x="1011.0000370399999" y="386.99999019" width="19.999944439999922" height="28.999985849999973" class="text">of </text>
<text x="1034.0000196800002" y="386.99999019" width="31.999991879999698" height="28.999985849999973" class="text">any </text>
<text x="1074.00003148" y="386.99999019" width="32.99996364000003" height="28.999985849999973" class="text">and </text>
<text x="1111.99997684" y="386.99999019" width="25.000049079999826" height="28.999985849999973" class="text">all </text>
<text x="1139.9999412" y="386.99999019" width="102.00003448000007" height="28.999985849999973" class="text">documents </text>
<text x="1248.00003452" y="386.99999019" width="25.9999154799998" height="28.999985849999973" class="text">are </text>
<text x="1280.0000264" y="386.99999019" width="83.99992820000011" height="28.999985849999973" class="text">routinely </text>
<text x="1375.0000127199999" y="386.99999019" width="44.99999352000009" height="28.999985849999973" class="text">made </text>
<text x="1424.0000162000001" y="386.99999019" width="80.99999535999973" height="28.999985849999973" class="text">available </text>
<text x="1512.00004216" y="386.99999019" width="16.999923800000033" height="28.999985849999973" class="text">to
</text>
<text x="108.000002008" y="414.99998595000005" width="50.999997923999985" height="29.999998710000057" class="text">other </text>
<text x="161.999995988" y="414.99998595000005" width="81.00000765200002" height="29.999998710000057" class="text">agencies</text>
<text x="244.00001052000002" y="414.99998595000005" width="8.999991679999965" height="29.999998710000057" class="text">, </text>
<text x="255.00001595999998" y="414.99998595000005" width="113.99997656" height="29.999998710000057" class="text">departments </text>
<text x="376.00000556" y="414.99998595000005" width="34.99999496000004" height="29.999998710000057" class="text">and </text>
<text x="416.99998912" y="414.99998595000005" width="84.00003355999996" height="29.999998710000057" class="text">Congress </text>
<text x="506.99997616" y="414.99998595000005" width="81.00004803999997" height="29.999998710000057" class="text">pursuant </text>
<text x="591.9999814800001" y="414.99998595000005" width="17.00002915999994" height="29.999998710000057" class="text">to </text>
<text x="618.00000232" y="414.99998595000005" width="67.00000439999997" height="29.999998710000057" class="text">Section </text>
<text x="694.00001596" y="414.99998595000005" width="8.99999167999988" height="29.999998710000057" class="text">6</text>
<text x="703.0000076399999" y="414.99998595000005" width="8.999991679999994" height="29.999998710000057" class="text">(</text>
<text x="711.9999993199999" y="414.99998595000005" width="9.000009240000054" height="29.999998710000057" class="text">c</text>
<text x="723.99999408" y="414.99998595000005" width="8.999991679999994" height="29.999998710000057" class="text">) </text>
<text x="734.99999952" y="414.99998595000005" width="21.999993320000044" height="29.999998710000057" class="text">of </text>
<text x="759.99997836" y="414.99998595000005" width="26.000020840000047" height="29.999998710000057" class="text">the </text>
<text x="793.99996644" y="414.99998595000005" width="34.000058319999994" height="29.999998710000057" class="text">Act</text>
<text x="828.9999965200001" y="414.99998595000005" width="8.99999167999988" height="29.999998710000057" class="text">. </text>
<text x="846.0000081200001" y="414.99998595000005" width="33.99995295999986" height="29.999998710000057" class="text">The </text>
<text x="887.9999809999999" y="414.99998595000005" width="78.00006252000014" height="29.999998710000057" class="text">Attorney </text>
<text x="973.99995808" y="414.99998595000005" width="75.99999607999996" height="29.999998710000057" class="text">General </text>
<text x="1053.9999641200002" y="414.99998595000005" width="35.00003007999976" height="29.999998710000057" class="text">also </text>
<text x="1096.00004236" y="414.99998595000005" width="84.99998776000007" height="29.999998710000057" class="text">transmits </text>
<text x="1188.99996224" y="414.99998595000005" width="8.999991679999994" height="29.999998710000057" class="text">a </text>
<text x="1203.000041" y="414.99998595000005" width="48.99991567999996" height="29.999998710000057" class="text">semi</text>
<text x="1249.00002384" y="414.99998595000005" width="8.999991679999994" height="29.999998710000057" class="text">-</text>
<text x="1258.00001552" y="414.99998595000005" width="62.00002268000003" height="29.999998710000057" class="text">annual </text>
<text x="1324.00004816" y="414.99998595000005" width="54.99997452000002" height="29.999998710000057" class="text">report </text>
<text x="1384.0000044" y="414.99998595000005" width="17.00002915999994" height="29.999998710000057" class="text">to </text>
<text x="1409.0000534800001" y="414.99998595000005" width="85.0000053199999" height="29.999998710000057" class="text">Congress </text>
<text x="1500.00001228" y="414.99998595000005" width="22.00001087999999" height="29.999998710000057" class="text">on </text>
<text x="1527.9999942" y="414.99998595000005" width="30.000030800000104" height="29.999998710000057" class="text">the
</text>
<text x="110.99999630800001" y="445.00000743" width="139.999992132" height="32.99999174999999" class="text">Administration </text>
<text x="256.00000528000004" y="445.00000743" width="24.999996399999986" height="32.99999174999999" class="text">of </text>
<text x="285.99998339999996" y="445.00000743" width="23.00001776000005" height="32.99999174999999" class="text">the </text>
<text x="317.00000352" y="445.00000743" width="37.99999803999998" height="32.99999174999999" class="text">Act </text>
<text x="358.00000464" y="445.00000743" width="54.00000276000003" height="32.99999174999999" class="text">which </text>
<text x="419.00000288" y="445.00000743" width="42.00000799999998" height="32.99999174999999" class="text">lists </text>
<text x="467.00003460000005" y="445.00000743" width="27.99996435999998" height="32.99999174999999" class="text">the </text>
<text x="497.00001272" y="445.00000743" width="62.99999444000002" height="32.99999174999999" class="text">names </text>
<text x="568.00002708" y="445.00000743" width="18.000000919999934" height="32.99999174999999" class="text">of </text>
<text x="591.00000972" y="445.00000743" width="22.9999826400001" height="32.99999174999999" class="text">all </text>
<text x="620.00001608" y="445.00000743" width="56.999970719999965" height="32.99999174999999" class="text">agents </text>
<text x="687.99999224" y="445.00000743" width="91.00001148000001" height="32.99999174999999" class="text">registered </text>
<text x="784.99997476" y="445.00000743" width="51.000017240000034" height="32.99999174999999" class="text">under </text>
<text x="841.99999816" y="445.00000743" width="27.999981919999982" height="32.99999174999999" class="text">the </text>
<text x="879.9999610799999" y="445.00000743" width="33.00005143999999" height="32.99999174999999" class="text">Act </text>
<text x="917.0000224799999" y="445.00000743" width="33.99995296000009" height="32.99999174999999" class="text">and </text>
<text x="958.00000604" y="445.00000743" width="28.999953679999862" height="32.99999174999999" class="text">the </text>
<text x="989.99999792" y="445.00000743" width="68.99996548000001" height="32.99999174999999" class="text">foreign </text>
<text x="1066.0000115599998" y="445.00000743" width="89.99998704000018" height="32.99999174999999" class="text">principals </text>
<text x="1161.99995208" y="445.00000743" width="43.0000500000001" height="32.99999174999999" class="text">they </text>
<text x="1208.0000402800001" y="445.00000743" width="92.99991987999988" height="32.99999174999999" class="text">represent</text>
<text x="1297.00005556" y="445.00000743" width="8.999991679999994" height="32.99999174999999" class="text">. </text>
<text x="1316.00002824" y="445.00000743" width="37.99994536000008" height="32.99999174999999" class="text">This </text>
<text x="1363.9999546000001" y="445.00000743" width="57.00002339999992" height="32.99999174999999" class="text">report </text>
<text x="1424.0000162000001" y="445.00000743" width="12.000029879999829" height="32.99999174999999" class="text">is </text>
<text x="1445.00003776" y="445.00000743" width="85.0000053199999" height="32.99999174999999" class="text">available </text>
<text x="1536.99998588" y="445.00000743" width="11.000058120000176" height="32.99999174999999" class="text">to </text>
<text x="1559.99996852" y="445.00000743" width="27.999981919999982" height="32.99999174999999" class="text">the
</text>
<text x="110.99999630800001" y="465.00001416" width="54.99999734800001" height="25.000025489999985" class="text">public</text>
<text x="170.000005372" y="465.00001416" width="7.000000747999991" height="25.000025489999985" class="text">.
</text>
<text x="108.000002008" y="524.99998881" width="59.99999838400001" height="33.999981839999975" class="text">Public </text>
<text x="175.99999924" y="524.99998881" width="92.00000079999998" height="33.999981839999975" class="text">Reporting </text>
<text x="277.99999859999997" y="524.99998881" width="64.99999064000002" height="33.999981839999975" class="text">Burden</text>
<text x="346.99999920000005" y="524.99998881" width="9.999998559999938" height="33.999981839999975" class="text">. </text>
<text x="363.00000392" y="524.99998881" width="61.99998756000002" height="33.999981839999975" class="text">Public </text>
<text x="430.00000832" y="524.99998881" width="82.9999915599999" height="33.999981839999975" class="text">reporting </text>
<text x="519.9999953600001" y="524.99998881" width="64.00001887999997" height="33.999981839999975" class="text">burden </text>
<text x="591.9999814800001" y="524.99998881" width="29.00000635999993" height="33.999981839999975" class="text">for </text>
<text x="622.99998404" y="524.99998881" width="34.00000564000004" height="33.999981839999975" class="text">this </text>
<text x="662.00002408" y="524.99998881" width="92.00000080000007" height="33.999981839999975" class="text">collection </text>
<text x="759.99997836" y="524.99998881" width="26.000020840000047" height="33.999981839999975" class="text">of </text>
<text x="785.9999992" y="524.99998881" width="110.99997347999988" height="33.999981839999975" class="text">information </text>
<text x="905.9999819200001" y="524.99998881" width="13.000001639999937" height="33.999981839999975" class="text">is </text>
<text x="924.9999546" y="524.99998881" width="87.00005419999991" height="33.999981839999975" class="text">estimated </text>
<text x="1021.9999897999999" y="524.99998881" width="13.000001640000164" height="33.999981839999975" class="text">to </text>
<text x="1043.00001136" y="524.99998881" width="75.0000243200002" height="33.999981839999975" class="text">average </text>
<text x="1125.9999678" y="524.99998881" width="24.000059760000113" height="33.999981839999975" class="text">1.5 </text>
<text x="1159.0000368" y="524.99998881" width="53.999985199999855" height="33.999981839999975" class="text">hours </text>
<text x="1217.00003196" y="524.99998881" width="32.99996364000003" height="33.999981839999975" class="text">per </text>
<text x="1251.99995668" y="524.99998881" width="83.00004423999985" height="33.999981839999975" class="text">response</text>
<text x="1335.99997268" y="524.99998881" width="9.999980999999934" height="33.999981839999975" class="text">, </text>
<text x="1348.00000256" y="524.99998881" width="86.99996639999995" height="33.999981839999975" class="text">including </text>
<text x="1438.99997892" y="524.99998881" width="29.000059039999996" height="33.999981839999975" class="text">the </text>
<text x="1477.00002964" y="524.99998881" width="40.00001179999981" height="33.999981839999975" class="text">time </text>
<text x="1526.00003312" y="524.99998881" width="27.99998192000021" height="33.999981839999975" class="text">for
</text>
<text x="108.99999835199999" y="549.00000144" width="94.00001104800002" height="28.000018530000034" class="text">reviewing </text>
<text x="212.00000108" y="549.00000144" width="108.00000552" height="28.000018530000034" class="text">instructions</text>
<text x="318.99999972" y="549.00000144" width="8.000002359999996" height="28.000018530000034" class="text">, </text>
<text x="330.00000516" y="549.00000144" width="92.00000080000001" height="28.000018530000034" class="text">searching </text>
<text x="427.99999456" y="549.00000144" width="71.00001436000002" height="28.000018530000034" class="text">existing </text>
<text x="506.99997616" y="549.00000144" width="37.99999803999998" height="28.000018530000034" class="text">data </text>
<text x="550.9999979199999" y="549.00000144" width="71.00001436000014" height="28.000018530000034" class="text">sources</text>
<text x="622.0000122800001" y="549.00000144" width="7.999967239999933" height="28.000018530000034" class="text">, </text>
<text x="635.0000314800001" y="549.00000144" width="84.99995263999995" height="28.000018530000034" class="text">gathering </text>
<text x="728.00000404" y="549.00000144" width="31.000002559999984" height="28.000018530000034" class="text">and </text>
<text x="770.9999838" y="549.00000144" width="110.00005439999995" height="28.000018530000034" class="text">maintaining </text>
<text x="886.00001992" y="549.00000144" width="26.999992599999928" height="28.000018530000034" class="text">the </text>
<text x="921.00005" y="549.00000144" width="35.99998427999992" height="28.000018530000034" class="text">data </text>
<text x="966.0000435200001" y="549.00000144" width="64.99993795999978" height="28.000018530000034" class="text">needed</text>
<text x="1030.00000972" y="549.00000144" width="8.000019920000113" height="28.000018530000034" class="text">, </text>
<text x="1044.00000068" y="549.00000144" width="32.999963639999805" height="28.000018530000034" class="text">and </text>
<text x="1083.00002316" y="549.00000144" width="105.9999390800001" height="28.000018530000034" class="text">completing </text>
<text x="1195.99999284" y="549.00000144" width="31.000020120000045" height="28.000018530000034" class="text">and </text>
<text x="1236.00000464" y="549.00000144" width="93.00002524000001" height="28.000018530000034" class="text">reviewing </text>
<text x="1338.00003912" y="549.00000144" width="26.999992599999814" height="28.000018530000034" class="text">the </text>
<text x="1369.00004168" y="549.00000144" width="89.99998703999995" height="28.000018530000034" class="text">collection </text>
<text x="1466.99994328" y="549.00000144" width="20.000067360000003" height="28.000018530000034" class="text">of
</text>
<text x="108.99999835199999" y="576.9999972" width="107.00001268800001" height="29.999998710000114" class="text">information</text>
<text x="219.99998588000003" y="576.9999972" width="9.00000923999994" height="29.999998710000114" class="text">. </text>
<text x="236.00000816" y="576.9999972" width="47.00000727999998" height="29.999998710000114" class="text">Send </text>
<text x="292.00000712" y="576.9999972" width="93.99999699999995" height="29.999998710000114" class="text">comments </text>
<text x="394.00000647999997" y="576.9999972" width="87.00000152000001" height="29.999998710000114" class="text">regarding </text>
<text x="492.00001344000003" y="576.9999972" width="29.000006359999986" height="29.999998710000114" class="text">this </text>
<text x="528.00001528" y="576.9999972" width="62.99999444000002" height="29.999998710000114" class="text">burden </text>
<text x="600.99999072" y="576.9999972" width="77.00002051999991" height="29.999998710000114" class="text">estimate </text>
<text x="685.00000672" y="576.9999972" width="16.9999764800001" height="29.999998710000114" class="text">or </text>
<text x="707.99998936" y="576.9999972" width="33.99998807999998" height="29.999998710000114" class="text">any </text>
<text x="750.99998668" y="576.9999972" width="47.00000727999998" height="29.999998710000114" class="text">other </text>
<text x="801.0000146" y="576.9999972" width="59.999956240000074" height="29.999998710000114" class="text">aspect </text>
<text x="866.99999456" y="576.9999972" width="21.999958200000037" height="29.999998710000114" class="text">of </text>
<text x="891.99999096" y="576.9999972" width="35.00001252000004" height="29.999998710000114" class="text">this </text>
<text x="934.00005164" y="576.9999972" width="85.9999770799999" height="29.999998710000114" class="text">collection </text>
<text x="1029.00003796" y="576.9999972" width="21.99999331999993" height="29.999998710000114" class="text">of </text>
<text x="1053.9999641200002" y="576.9999972" width="111.00002615999983" height="29.999998710000114" class="text">information</text>
<text x="1168.00002848" y="576.9999972" width="8.999991679999994" height="29.999998710000114" class="text">, </text>
<text x="1177.00002016" y="576.9999972" width="91.99994812" height="29.999998710000114" class="text">including </text>
<text x="1272.99997824" y="576.9999972" width="111.00002616000006" height="29.999998710000114" class="text">suggestions </text>
<text x="1387.0000426" y="576.9999972" width="29.999925440000197" height="29.999998710000114" class="text">for </text>
<text x="1420.00000624" y="576.9999972" width="80.99997780000012" height="29.999998710000114" class="text">reducing </text>
<text x="1512.00004216" y="576.9999972" width="29.99992543999997" height="29.999998710000114" class="text">this
</text>
<text x="109.999994696" y="602.9999900099999" width="60.000010676" height="29.000008619999903" class="text">burden </text>
<text x="179.00000232" y="602.9999900099999" width="16.99999403999999" height="29.000008619999903" class="text">to </text>
<text x="203.0000094" y="602.9999900099999" width="54.99997452000002" height="29.000008619999903" class="text">Chief</text>
<text x="255.00001595999998" y="602.9999900099999" width="7.999984799999993" height="29.000008619999903" class="text">, </text>
<text x="266.99999316" y="602.9999900099999" width="113.00000480000006" height="29.000008619999903" class="text">Registration </text>
<text x="384.99999724" y="602.9999900099999" width="46.000000399999976" height="29.000008619999903" class="text">Unit</text>
<text x="429.00000144" y="602.9999900099999" width="7.999984799999993" height="29.000008619999903" class="text">, </text>
<text x="441.99998552" y="602.9999900099999" width="82.00001980000002" height="29.000008619999903" class="text">Criminal </text>
<text x="528.00001528" y="602.9999900099999" width="78.00000984000008" height="29.000008619999903" class="text">Division</text>
<text x="607.99996864" y="602.9999900099999" width="8.000037479999946" height="29.000008619999903" class="text">, </text>
<text x="620.99998784" y="602.9999900099999" width="42.00000799999998" height="29.000008619999903" class="text">U.S. </text>
<text x="667.0000058" y="602.9999900099999" width="112.99998723999988" height="29.000008619999903" class="text">Department </text>
<text x="781.00001748" y="602.9999900099999" width="22.00001087999999" height="29.000008619999903" class="text">of </text>
<text x="808.99998184" y="602.9999900099999" width="60.000026479999974" height="29.000008619999903" class="text">Justice</text>
<text x="871.9999762799999" y="602.9999900099999" width="7.999984799999993" height="29.000008619999903" class="text">, </text>
<text x="879.9999610799999" y="602.9999900099999" width="111.00000860000011" height="29.000008619999903" class="text">Washington</text>
<text x="994.00000788" y="602.9999900099999" width="8.00001992" height="29.000008619999903" class="text">, </text>
<text x="1006.00003776" y="602.9999900099999" width="30.999914760000024" height="29.000008619999903" class="text">DC </text>
<text x="1044.99997244" y="602.9999900099999" width="53.000013439999975" height="29.000008619999903" class="text">20530</text>
<text x="1101.00002408" y="602.9999900099999" width="8.000019920000113" height="29.000008619999903" class="text">; </text>
<text x="1115.9999868" y="602.9999900099999" width="31.999991879999925" height="29.000008619999903" class="text">and </text>
<text x="1154.00003752" y="602.9999900099999" width="15.999934479999865" height="29.000008619999903" class="text">to </text>
<text x="1178.00000948" y="602.9999900099999" width="27.99996435999992" height="29.000008619999903" class="text">the </text>
<text x="1212.00005024" y="602.9999900099999" width="56.99991804000001" height="29.000008619999903" class="text">Office </text>
<text x="1276.9999882" y="602.9999900099999" width="22.000010880000218" height="29.000008619999903" class="text">of </text>
<text x="1306.00004724" y="602.9999900099999" width="105.9999390800001" height="29.000008619999903" class="text">Information </text>
<text x="1420.00000624" y="602.9999900099999" width="32.99996364000003" height="29.000008619999903" class="text">and </text>
<text x="1459.00002872" y="602.9999900099999" width="99.99996803999989" height="29.000008619999903" class="text">Regulatory
</text>
<text x="108.99999835199999" y="629.99999568" width="66.000008056" height="27.999995759999933" class="text">Affairs</text>
<text x="175.99999924" y="629.99999568" width="8.000002360000025" height="27.999995759999933" class="text">, </text>
<text x="188.00001156" y="629.99999568" width="57.999995160000026" height="27.999995759999933" class="text">Office </text>
<text x="254.00000908" y="629.99999568" width="19.99999711999996" height="27.999995759999933" class="text">of </text>
<text x="275.00001308000003" y="629.99999568" width="127.99998507999999" height="27.999995759999933" class="text">Management </text>
<text x="405.00001191999996" y="629.99999568" width="30.999985000000038" height="27.999995759999933" class="text">and </text>
<text x="445.00002372" y="629.99999568" width="68.99994792000001" height="27.999995759999933" class="text">Budget</text>
<text x="512.00002812" y="629.99999568" width="7.999967240000046" height="27.999995759999933" class="text">, </text>
<text x="524.99997708" y="629.99999568" width="106.00004444000001" height="27.999995759999933" class="text">Washington</text>
<text x="637.99999944" y="629.99999568" width="7.999984799999993" height="27.999995759999933" class="text">, </text>
<text x="644.99999492" y="629.99999568" width="35.0000300800001" height="27.999995759999933" class="text">DC </text>
<text x="687.99999224" y="629.99999568" width="53.99998519999997" height="27.999995759999933" class="text">20503</text>
<text x="743.9999912000001" y="629.99999568" width="8.000019919999886" height="27.999995759999933" class="text">.
</text>
<text x="114.000004656" y="712.9999701" width="19.000000775999993" height="26.999960129999977" class="text">1. </text>
<text x="143.99999858" y="715.0000185900001" width="61.999996339999996" height="29.000008620000017" class="text">Name </text>
<text x="213.99999728" y="715.0000185900001" width="19.00000780000002" height="27.00002844000005" class="text">of </text>
<text x="238.99999368000002" y="718.0000343999999" width="110.00001927999998" height="30.00004424999986" class="text">Registrant
</text>
<text x="804.0000001200001" y="718.0000343999999" width="19.999997119999875" height="28.000018529999807" class="text">2. </text>
<text x="835.00000268" y="718.0000343999999" width="129.99994616000004" height="28.000018529999807" class="text">Registration </text>
<text x="971.0000252400001" y="718.0000343999999" width="44.000021759999754" height="28.000018529999807" class="text">No.
</text>
<text x="164.00000096800002" y="765.99996858" width="72.00000719199997" height="28.999985849999916" class="text">Qorvis </text>
<text x="243.00000364000002" y="765.99996858" width="180.0000092" height="28.999985849999916" class="text">Communications</text>
<text x="423.00001284" y="765.99996858" width="7.999984799999993" height="28.999985849999916" class="text">, </text>
<text x="437.99999312" y="765.99996858" width="45.00002864000004" height="28.999985849999916" class="text">LLC
</text>
<text x="901.9999544" y="764.0000111700001" width="51.00006991999999" height="23.000022540000145" class="text">5483
</text>
<text x="111.999999676" y="866.00000223" width="21.999996832000008" height="29.999975940000013" class="text">3. </text>
<text x="142.999995212" y="866.99999232" width="46.999994988000026" height="30.99996603000011" class="text">This </text>
<text x="193.00001084" y="867.99995964" width="126.99999576000002" height="31.999933350000106" class="text">amendment </text>
<text x="327.00000208" y="867.99995964" width="11.000005439999995" height="29.999975940000013" class="text">is </text>
<text x="350.99999160000004" y="867.99995964" width="44.00002175999998" height="29.999975940000013" class="text">filed </text>
<text x="404.00000504" y="869.00001804" width="16.99999403999999" height="30.000044249999974" class="text">to </text>
<text x="430.00000832" y="870.00000813" width="113.99999412" height="32.00002442999994" class="text">accomplish </text>
<text x="553.99998344" y="870.00000813" width="34.00004075999993" height="29.999975940000013" class="text">the </text>
<text x="595.99999144" y="871.9999655400001" width="96.00001076000001" height="31.999933350000106" class="text">following </text>
<text x="700.99999388" y="873.00002394" width="92.99997255999995" height="32.000001660000066" class="text">indicated </text>
<text x="802.00000392" y="873.00002394" width="81.99996711999995" height="31.000034339999957" class="text">purpose </text>
<text x="891.99999096" y="873.00002394" width="22.000010880000104" height="30.000044249999974" class="text">or </text>
<text x="918.99998356" y="874.00001403" width="93.99999700000001" height="31.000034339999957" class="text">purposes</text>
<text x="1012.0000087999999" y="874.00001403" width="8.999991680000107" height="29.999975940000013" class="text">:
</text>
<text x="205.0000056" y="918.00001062" width="8.999991679999994" height="31.00001156999997" class="text">☐ </text>
<text x="248.99999224" y="919.00000071" width="22.00001088000002" height="31.000034339999957" class="text">To </text>
<text x="279.99999479999997" y="921.00002643" width="75.00000676000002" height="33.00006006000001" class="text">correct </text>
<text x="359.00001152" y="919.9999908000001" width="8.99999168000005" height="30.99996603000011" class="text">a </text>
<text x="376.00000556" y="923.0000066099999" width="105.99999176000006" height="33.99998183999992" class="text">deficiency </text>
<text x="488.00000348" y="922.00001652" width="18.00000091999999" height="31.00003434000007" class="text">in
</text>
<text x="892.99996272" y="923.99997393" width="22.000010880000104" height="29.999975940000013" class="text">To </text>
<text x="926.00003172" y="923.99997393" width="42.99992707999991" height="29.999975940000013" class="text">give </text>
<text x="977.9999680400001" y="923.99997393" width="8.999991679999766" height="29.999975940000013" class="text">a </text>
<text x="994.9999796400001" y="923.99997393" width="22.000010879999877" height="29.999975940000013" class="text">10</text>
<text x="1020.0000287199999" y="923.99997393" width="9.000009240000168" height="29.999975940000013" class="text">-</text>
<text x="1027.99994328" y="923.99997393" width="34.00004076000005" height="29.999975940000013" class="text">day </text>
<text x="1073.00004216" y="923.99997393" width="60.999945560000015" height="29.999975940000013" class="text">notice </text>
<text x="1142.00000764" y="923.99997393" width="22.000010880000218" height="29.999975940000013" class="text">of </text>
<text x="1169.0000002400002" y="923.99997393" width="72.99997543999984" height="29.999975940000013" class="text">change </text>
<text x="1248.00003452" y="923.99997393" width="16.999923799999806" height="29.999975940000013" class="text">in </text>
<text x="1275.00004468" y="923.99997393" width="119.99991247999992" height="29.999975940000013" class="text">information </text>
<text x="1402.99997708" y="923.99997393" width="22.00001087999999" height="29.999975940000013" class="text">as </text>
<text x="1430.999959" y="923.99997393" width="84.00001599999996" height="29.999975940000013" class="text">required </text>
<text x="1522.00002316" y="923.99997393" width="27.999981919999982" height="29.999975940000013" class="text">by
</text>
<text x="848.9999936400001" y="952.99998255" width="70.99996167999984" height="29.000008620000017" class="text">Section </text>
<text x="928.9999645600001" y="952.99998255" width="8.000019919999886" height="29.000008620000017" class="text">2</text>
<text x="940.0000226799999" y="952.99998255" width="8.00001992" height="29.000008620000017" class="text">(</text>
<text x="949.00001436" y="952.99998255" width="8.000019919999886" height="29.000008620000017" class="text">b</text>
<text x="961.00004424" y="952.99998255" width="7.999914559999979" height="29.000008620000017" class="text">) </text>
<text x="973.99995808" y="952.99998255" width="22.00001087999999" height="29.000008620000017" class="text">of </text>
<text x="1003.0000171199999" y="952.99998255" width="30.000030800000104" height="29.000008620000017" class="text">the </text>
<text x="1036.99995252" y="952.99998255" width="37.00007895999988" height="29.000008620000017" class="text">Act</text>
<text x="1074.00003148" y="952.99998255" width="8.000019919999886" height="29.000008620000017" class="text">.
</text>
<text x="247.0000136" y="980.99997831" width="27.999999480000042" height="25.999970039999994" class="text">To </text>
<text x="293.00001399999996" y="982.00003671" width="114.99998344000005" height="27.00002844000005" class="text">confirm </text>
<text x="430.00000832" y="983.0000268" width="174.99999236000008" height="28.000018530000034" class="text">information </text>
<text x="629.99997952" y="982.00003671" width="24.000024639999992" height="26.000038350000068" class="text">in
</text>
<text x="194.99998948" y="988.00000002" width="19.00000779999999" height="65.99998349999998" class="text">✓ </text>
<text x="249.99999912" y="988.00000002" width="35.99998427999995" height="65.99998349999998" class="text">To
</text>
<text x="300.00000948" y="1032.00001938" width="7.999984799999993" height="27.000028439999937" class="text">☐ </text>
<text x="340.00000372" y="1033.99997679" width="62.000005120000026" height="28.999985849999916" class="text">Initial </text>
<text x="408.99998676" y="1036.00002528" width="104.00001311999989" height="30.000044249999974" class="text">Statement
</text>
<text x="338.00000752" y="1101.00001869" width="148.99997152000003" height="31.000034339999957" class="text">Supplemental </text>
<text x="492.00001344000003" y="1101.00001869" width="101.99998179999994" height="31.000034339999957" class="text">Statement </text>
<text x="597.00001588" y="1101.00001869" width="29.999995680000097" height="31.000034339999957" class="text">for </text>
<text x="635.0000314800001" y="1101.00001869" width="31.99997431999998" height="31.000034339999957" class="text">the </text>
<text x="674.00000128" y="1101.00001869" width="62.99999444000002" height="31.000034339999957" class="text">period </text>
<text x="746.00000496" y="1101.00001869" width="64.99999064000008" height="31.000034339999957" class="text">ending
</text>
<text x="883.99997104" y="1102.00000878" width="111.00000860000011" height="32.00002442999994" class="text">September </text>
<text x="1002.0000278" y="1100.0000286" width="22.00001087999999" height="29.00005415999999" class="text">30</text>
<text x="1026.99997152" y="1098.9999702" width="8.000019920000113" height="28.99998585000003" class="text">, </text>
<text x="1039.9999907200001" y="1098.9999702" width="51.0000523599997" height="29.999953170000026" class="text">2004
</text>
<text x="296.99998884" y="1157.99995476" width="10.000016119999998" height="30.999966029999996" class="text">☐ </text>
<text x="339.0000144" y="1160.00004879" width="54.99999207999997" height="32.00006996999991" class="text">Other </text>
<text x="399.99999507999996" y="1162.0000062" width="77.99997472000007" height="32.999991749999936" class="text">purpose </text>
<text x="483.00002176000004" y="1162.0000062" width="9.999980999999934" height="31.00001156999997" class="text">(</text>
<text x="494.99999896" y="1162.99999629" width="64.00001888000003" height="32.00000165999995" class="text">specify</text>
<text x="557.9999934" y="1162.99999629" width="10.000033680000001" height="31.000034339999957" class="text">)</text>
<text x="566.99998508" y="1162.99999629" width="10.000033680000001" height="31.000034339999957" class="text">:
</text>
<text x="203.0000094" y="1227.9999897" width="8.999991679999994" height="32.99999175000016" class="text">☐ </text>
<text x="247.99998535999998" y="1227.9999897" width="25.000013960000047" height="32.99999175000016" class="text">To </text>
<text x="283.00001543999997" y="1228.9999797900002" width="42.99997976000003" height="33.99998184000037" class="text">give </text>
<text x="331.00001204" y="1228.9999797900002" width="64.00000132000002" height="32.99999175000016" class="text">notice </text>
<text x="399.99999507999996" y="1228.9999797900002" width="24.999996400000043" height="32.99999175000016" class="text">of </text>
<text x="430.99999764" y="1228.9999797900002" width="68.99998303999996" height="32.99999175000016" class="text">change </text>
<text x="512.00002812" y="1229.99996988" width="12.999948959999983" height="32.999991749999936" class="text">in </text>
<text x="537.0000069600001" y="1229.99996988" width="18.999972679999928" height="32.999991749999936" class="text">an </text>
<text x="564.99998888" y="1229.99996988" width="75.99999607999996" height="32.999991749999936" class="text">exhibit </text>
<text x="644.0000231600001" y="1231.99992729" width="103.99997799999994" height="34.999949159999915" class="text">previously </text>
<text x="763.00001656" y="1230.99995997" width="40.00001180000004" height="32.999991749999936" class="text">filed</text>
<text x="806.99998564" y="1230.99995997" width="8.999991680000107" height="32.999991749999936" class="text">.
</text>
<text x="110.99999630800001" y="1300.99999491" width="20.000004143999988" height="29.000054159999763" class="text">4. </text>
<text x="143.99999858" y="1300.99999491" width="16.000004719999993" height="29.000054159999763" class="text">If </text>
<text x="166.999997024" y="1301.999985" width="37.000001696" height="30.000044249999746" class="text">this </text>
<text x="210.00000488" y="1302.9999750900001" width="123.99999267999999" height="31.000034339999957" class="text">amendment </text>
<text x="340.00000372" y="1302.9999750900001" width="84.99998776000001" height="29.999907630000052" class="text">requires </text>
<text x="434.00001828" y="1302.9999750900001" width="28.999988799999983" height="28.999940310000056" class="text">the </text>
<text x="475.0000018399999" y="1302.9999750900001" width="53.00001344000003" height="28.999940310000056" class="text">filing </text>
<text x="537.0000069600001" y="1303.9999424100001" width="20.99998643999993" height="28.999917540000297" class="text">of </text>
<text x="564.0000171199999" y="1303.9999424100001" width="7.999967240000046" height="28.999917540000297" class="text">a </text>
<text x="582.9999898" y="1304.9999324999999" width="102.99998868" height="30.999897719999808" class="text">document </text>
<text x="694.00001596" y="1303.9999424100001" width="20.999968879999983" height="28.999917540000297" class="text">or </text>
<text x="723.00000476" y="1306.00005921" width="110.00000172" height="31.000034340000184" class="text">documents</text>
<text x="833.99997824" y="1304.9999324999999" width="8.00001992" height="28.999917539999842" class="text">, </text>
<text x="846.99999744" y="1306.00005921" width="63.9999661999999" height="30.000044249999974" class="text">please </text>
<text x="922.00002176" y="1306.00005921" width="30.00003079999999" height="29.000054160000218" class="text">list </text>
<text x="958.00000604" y="1306.00005921" width="8.00003748000006" height="29.000054160000218" class="text">-
</text>
<text x="1420.999978" y="1225.0000422" width="33.00006899999994" height="50.00011928999993" class="text">CRM</text>
<text x="1421.99994976" y="1242.0000331200001" width="31.000020120000045" height="8.999979120000035" class="text">/</text>
<text x="1421.99994976" y="1282.0000465800001" width="31.000020120000045" height="39.000023370000235" class="text">ISS</text>
<text x="1421.99994976" y="1300.99999491" width="31.000020120000045" height="8.999979120000035" class="text">/</text>
<text x="1421.99994976" y="1479.9999970800002" width="34.00004076000005" height="178.00001208000026" class="text">REGISTRATION </text>
<text x="1424.0000162000001" y="1545.99998058" width="32.999963639999805" height="55.0000242000001" class="text">UNIT
</text>
<text x="1483.00000068" y="1247.99992812" width="36.99997359999975" height="47.99986587000012" class="text">2005 </text>
<text x="1483.99997244" y="1309.9999968" width="37.00007895999988" height="42.99996095999995" class="text">FEB </text>
<text x="1483.99997244" y="1367.9999685" width="37.00007895999988" height="41.0000035500002" class="text">17 </text>
<text x="1485.00004956" y="1423.9999827899999" width="36.999973599999976" height="26.999960129999863" class="text">PM </text>
<text x="1485.00004956" y="1463.9999962499999" width="36.999973599999976" height="10.999959299999773" class="text">1</text>
<text x="1485.00004956" y="1474.9999555499999" width="36.999973599999976" height="10.9999593" class="text">:</text>
<text x="1485.00004956" y="1525.00007484" width="36.999973599999976" height="47.00003517000005" class="text">120
</text>
<text x="109.999994696" y="1514.9999690099999" width="19.000000775999993" height="32.999991749999936" class="text">5. </text>
<text x="142.999995212" y="1514.9999690099999" width="46.00000566800003" height="32.999991749999936" class="text">Each </text>
<text x="200.99999563999998" y="1514.9999690099999" width="43.00001488000004" height="32.999991749999936" class="text">item </text>
<text x="256.00000528000004" y="1515.9999363299999" width="82.00000223999996" height="32.999991749999936" class="text">checked </text>
<text x="342.99998924" y="1515.9999363299999" width="65.00000820000002" height="32.999991749999936" class="text">above </text>
<text x="417.999996" y="1515.9999363299999" width="47.99999660000003" height="32.999991749999936" class="text">must </text>
<text x="472.00001632" y="1515.9999363299999" width="24.999996399999986" height="32.999991749999936" class="text">be </text>
<text x="501.99999444" y="1517.00006304" width="98.99999628" height="34.00011846000007" class="text">explained </text>
<text x="611.00000684" y="1517.00006304" width="56.999988280000025" height="33.00012836999986" class="text">below </text>
<text x="683.0000105199999" y="1517.00006304" width="15.999987160000046" height="33.00012836999986" class="text">in </text>
<text x="709.00003136" y="1517.00006304" width="37.99999804000004" height="33.00012836999986" class="text">full </text>
<text x="748.99997292" y="1518.00005313" width="64.00003643999992" height="34.00011845999984" class="text">detail </text>
<text x="813.0000093599999" y="1518.00005313" width="88.99994504000006" height="32.99999175000016" class="text">together </text>
<text x="906.9999536799999" y="1518.00005313" width="44.000021760000095" height="32.99999175000016" class="text">with</text>
<text x="952.00005256" y="1518.00005313" width="8.999991679999994" height="32.99999175000016" class="text">, </text>
<text x="966.0000435200001" y="1518.00005313" width="60.99992799999984" height="32.99999175000016" class="text">where </text>
<text x="1039.0000014" y="1519.00002045" width="111.00002616000006" height="33.99995907000016" class="text">appropriate</text>
<text x="1156.99997036" y="1519.00002045" width="8.999991679999994" height="32.99999175000016" class="text">, </text>
<text x="1170.99996132" y="1519.00002045" width="77.00007320000009" height="32.99999175000016" class="text">specific </text>
<text x="1255.99996664" y="1519.00002045" width="93.9999969999999" height="32.99999175000016" class="text">reference </text>
<text x="1357.9999835600001" y="1520.0000105400002" width="18.999972679999928" height="33.99998184000037" class="text">to </text>
<text x="1388.00001436" y="1520.0000105400002" width="37.999945359999856" height="32.99999175000016" class="text">and </text>
<text x="1432.00003612" y="1520.0000105400002" width="74.99991896000006" height="32.99999175000016" class="text">intentity </text>
<text x="1519.9999742799998" y="1520.0000105400002" width="17.999983360000215" height="32.99999175000016" class="text">of </text>
<text x="1542.9999569200002" y="1520.0000105400002" width="33.00006899999971" height="32.99999175000016" class="text">the
</text>
<text x="106.99999864" y="1543.0000330799999" width="44.000005955999995" height="31.00003433999973" class="text">item </text>
<text x="160.0000033" y="1543.0000330799999" width="17.00000281999999" height="31.00003433999973" class="text">in </text>
<text x="188.00001156" y="1544.00002317" width="30.99998500000001" height="32.00002442999994" class="text">the </text>
<text x="228.0000058" y="1544.99999049" width="114.99998344" height="32.999991749999936" class="text">registration </text>
<text x="351.99999848" y="1545.99998058" width="98.00000695999995" height="32.99999175000016" class="text">statement </text>
<text x="457.00000092000005" y="1544.99999049" width="18.000000919999877" height="31.00001156999997" class="text">to </text>
<text x="481.000008" y="1544.99999049" width="62.99999444000002" height="31.00001156999997" class="text">which </text>
<text x="555.00000788" y="1544.99999049" width="11.000005439999995" height="31.00001156999997" class="text">it </text>
<text x="573.0000087999999" y="1545.99998058" width="82.99999156000013" height="31.000011570000197" class="text">pertains</text>
<text x="654.99997592" y="1545.99998058" width="8.999991679999994" height="31.000011570000197" class="text">. </text>
<text x="669.9999913199999" y="1545.99998058" width="9.000009240000054" height="31.000011570000197" class="text">(</text>
<text x="678.0000112399999" y="1545.99998058" width="16.999976479999987" height="31.000011570000197" class="text">If </text>
<text x="700.99999388" y="1546.9999706699998" width="55.99999895999997" height="32.00000165999995" class="text">space </text>
<text x="767.99999828" y="1546.9999706699998" width="11.999994759999936" height="31.000034339999957" class="text">is </text>
<text x="788.99998472" y="1547.99996076" width="117.99996895999982" height="32.99999175000016" class="text">insufficient</text>
<text x="903.00004908" y="1546.9999706699998" width="8.999991679999994" height="31.000034339999957" class="text">, </text>
<text x="914.9999736000001" y="1546.9999706699998" width="8.999991679999766" height="31.000034339999957" class="text">a </text>
<text x="935.0000234" y="1547.99996076" width="38.999934680000024" height="30.999897720000035" class="text">full </text>
<text x="979.00004516" y="1547.99996076" width="56.9999180399999" height="30.999897720000035" class="text">insert </text>
<text x="1040.99996248" y="1547.99996076" width="49.00000348000003" height="30.999897720000035" class="text">page </text>
<text x="1102.9999676" y="1548.99992808" width="49.00002104000009" height="31.99986504000003" class="text">must </text>
<text x="1151.99998864" y="1548.99992808" width="29.000041479999936" height="30.99987495000005" class="text">be </text>
<text x="1185.00005764" y="1548.99992808" width="42.999927080000134" height="30.99987495000005" class="text">used</text>
<text x="1231.99999468" y="1548.99992808" width="9.000009239999827" height="30.99987495000005" class="text">.</text>
<text x="1237.99996572" y="1548.99992808" width="8.999991679999994" height="30.99987495000005" class="text">)
</text>
<text x="113.000003044" y="1658.00000916" width="48.999992944" height="32.999991749999936" class="text">Item </text>
<text x="168.000000392" y="1658.00000916" width="24.000003567999983" height="32.999991749999936" class="text">14</text>
<text x="192.00000396" y="1658.00000916" width="8.999991679999994" height="32.999991749999936" class="text">(</text>
<text x="202.00000252" y="1658.00000916" width="8.999991679999994" height="32.999991749999936" class="text">a</text>
<text x="215.00000416" y="1658.00000916" width="8.999991679999994" height="32.999991749999936" class="text">) </text>
<text x="228.0000058" y="1658.00000916" width="19.00000779999999" height="32.999991749999936" class="text">in </text>
<text x="255.00001595999998" y="1658.00000916" width="32.999981200000036" height="32.999991749999936" class="text">the </text>
<text x="296.99998884" y="1658.00000916" width="113.0000048" height="32.999991749999936" class="text">September </text>
<text x="415.99998224" y="1658.00000916" width="19.00000779999999" height="32.999991749999936" class="text">30</text>
<text x="439.99997176000005" y="1658.00000916" width="9.000009239999997" height="32.999991749999936" class="text">, </text>
<text x="456.00002916" y="1658.00000916" width="46.99998972000003" height="32.999991749999936" class="text">2004 </text>
<text x="510.99998612" y="1658.00000916" width="146.00000355999998" height="32.999991749999936" class="text">Supplemental </text>
<text x="663.9999676" y="1658.00000916" width="106.00004444000001" height="32.999991749999936" class="text">Statement </text>
<text x="772.0000258" y="1658.00000916" width="27.99996435999992" height="32.999991749999936" class="text">did </text>
<text x="812.00002004" y="1658.00000916" width="36.99997360000009" height="32.999991749999936" class="text">not </text>
<text x="851.99997916" y="1658.00000916" width="70.00004260000003" height="32.999991749999936" class="text">reflect </text>
<text x="923.9999652799999" y="1658.00000916" width="37.00007896000011" height="32.999991749999936" class="text">any </text>
<text x="971.9999969999999" y="1658.00000916" width="71.00001436000002" height="32.999991749999936" class="text">monies </text>
<text x="1049.99995416" y="1658.00000916" width="85.0000053199999" height="32.999991749999936" class="text">received </text>
<text x="1145.00004584" y="1658.00000916" width="23.999954400000206" height="32.999991749999936" class="text">on </text>
<text x="1178.00000948" y="1658.00000916" width="63.99996620000002" height="32.999991749999936" class="text">behalf </text>
<text x="1249.9999956" y="1658.00000916" width="25.000049080000053" height="32.999991749999936" class="text">of </text>
<text x="1280.0000264" y="1658.00000916" width="31.000002559999984" height="32.999991749999936" class="text">the </text>
<text x="1318.99996108" y="1658.00000916" width="64.00007155999992" height="32.999991749999936" class="text">Dubai </text>
<text x="1387.0000426" y="1658.00000916" width="134.00000879999993" height="32.999991749999936" class="text">International
</text>
<text x="114.000004656" y="1686.9999494699998" width="100.999999504" height="32.99999174999971" class="text">Financial </text>
<text x="219.99998588000003" y="1686.9999494699998" width="65.99999751999994" height="32.99999174999971" class="text">Centre </text>
<text x="292.00000712" y="1686.9999494699998" width="67.00000439999997" height="32.99999174999971" class="text">during </text>
<text x="366.00000700000004" y="1686.9999494699998" width="36.99999115999998" height="32.99999174999971" class="text">this </text>
<text x="412.0000074" y="1686.9999494699998" width="29.000006360000043" height="32.99999174999971" class="text">six</text>
<text x="441.99998552" y="1686.9999494699998" width="8.999991679999994" height="32.99999174999971" class="text">-</text>
<text x="456.00002916" y="1686.9999494699998" width="60.99998068000008" height="32.99999174999971" class="text">month </text>
<text x="524.00000532" y="1686.9999494699998" width="96.00001076000001" height="32.99999174999971" class="text">reporting </text>
<text x="629.99997952" y="1686.9999494699998" width="62.99999444000002" height="32.99999174999971" class="text">period</text>
<text x="694.00001596" y="1686.9999494699998" width="8.99999167999988" height="32.99999174999971" class="text">. </text>
<text x="718.9999948000001" y="1686.9999494699998" width="40.99998355999992" height="32.99999174999971" class="text">This </text>
<text x="766.9999738399999" y="1686.9999494699998" width="42.00000800000009" height="32.99999174999971" class="text">was </text>
<text x="813.99998112" y="1686.9999494699998" width="78.00000983999996" height="32.99999174999971" class="text">because</text>
<text x="894.00003984" y="1686.9999494699998" width="9.000009240000054" height="32.99999174999971" class="text">, </text>
<text x="906.9999536799999" y="1686.9999494699998" width="18.00000092000016" height="32.99999174999971" class="text">in </text>
<text x="937.9999562400001" y="1686.9999494699998" width="38.00005071999988" height="32.99999174999971" class="text">fact</text>
<text x="976.99999628" y="1686.9999494699998" width="8.999991680000107" height="32.99999174999971" class="text">, </text>
<text x="989.0000261600001" y="1686.9999494699998" width="23.99995439999998" height="32.99999174999971" class="text">no </text>
<text x="1022.99996156" y="1686.9999494699998" width="71.00001436000002" height="32.99999174999971" class="text">monies </text>
<text x="1097.99998588" y="1686.9999494699998" width="53.000013439999975" height="32.99999174999971" class="text">were </text>
<text x="1158.00004748" y="1686.9999494699998" width="88.99990992000016" height="32.99999174999971" class="text">received </text>
<text x="1254.00000556" y="1686.9999494699998" width="32.999963639999805" height="32.99999174999971" class="text">for </text>
<text x="1290.0000074" y="1686.9999494699998" width="32.99996364000003" height="32.99999174999971" class="text">the </text>
<text x="1330.9999909599999" y="1686.9999494699998" width="51.000052360000154" height="32.99999174999971" class="text">work </text>
<text x="1391.0000525599999" y="1686.9999494699998" width="105.99992152000027" height="32.99999174999971" class="text">performed </text>
<text x="1508.0000322" y="1686.9999494699998" width="18.999972679999928" height="32.99999174999971" class="text">on </text>
<text x="1540.00002408" y="1686.9999494699998" width="26.000020839999934" height="32.99999174999971" class="text">the
</text>
<text x="111.999999676" y="1708.9999819200002" width="65.99999576399999" height="26.99996013000009" class="text">Dubai </text>
<text x="184.99999092" y="1710.99993933" width="82.00000223999999" height="27.99992744999986" class="text">account </text>
<text x="269.99999624" y="1709.99997201" width="26.000003280000044" height="26.999960129999863" class="text">as </text>
<text x="300.00000948" y="1709.99997201" width="24.999978839999983" height="26.999960129999863" class="text">of </text>
<text x="330.00000516" y="1712.0000660399999" width="111.99998036" height="29.000054159999763" class="text">September </text>
<text x="450.00000543999994" y="1710.99993933" width="18.9999726800001" height="26.999960129999863" class="text">30</text>
<text x="475.0000018399999" y="1710.99993933" width="8.000019920000113" height="26.999960129999863" class="text">, </text>
<text x="490.00001724" y="1712.0000660399999" width="49.000003479999975" height="27.00009675000001" class="text">2004</text>
<text x="542.0000062400001" y="1712.0000660399999" width="8.00001992" height="27.00009675000001" class="text">.
</text>
<text x="734.0000102" y="2046.00005775" width="101.9999818" height="29.00005415999999" class="text">Formerly </text>
<text x="846.0000081200001" y="2044.99993104" width="49.00002103999998" height="27.999927450000087" class="text">OBD</text>
<text x="900.99998264" y="2043.9999637199999" width="8.00001992" height="26.999960129999863" class="text">-</text>
<text x="910.9999636399999" y="2043.9999637199999" width="20.00004980000017" height="26.999960129999863" class="text">68
</text>
<text x="1469.9999814799999" y="2033.99999451" width="40.999983560000146" height="14.000043420000111" class="text">FORM </text>
<text x="1522.00002316" y="2033.99999451" width="28.99995368000009" height="14.000043420000111" class="text">CRM</text>
<text x="1557.00003568" y="2033.0000044199999" width="3.999922159999869" height="14.000043419999884" class="text">-</text>
<text x="1564.9999678" y="2033.0000044199999" width="22.00001087999999" height="14.000043419999884" class="text">158
</text>
<text x="1522.99999492" y="2051.99995275" width="30.000030800000104" height="13.999906799999962" class="text">June </text>
<text x="1554.9999868" y="2050.9999626599997" width="30.000030799999877" height="14.00002064999967" class="text">1998
</text>
<text x="1075.00000324" y="2161.00003383" width="236.00002571999994" height="113.00001866999992" class="text">DHA
</text>
<text x="1420.999978" y="2146.00002309" width="226.00006228000007" height="89.99999613" class="text">2/15/2005
</text>
</g>
<g id="page-1" transform="translate(0, 2297)">
<rect width="1756" height="2277" fill="none" stroke="black" />
<text x="781.00001748" y="238.99999959" width="176.0000167999999" height="26.999992007999992" class="text">EXECUTION
</text>
<text x="244.00001052000002" y="333.99999171" width="12.999984079999962" height="32.99999174999999" class="text">In </text>
<text x="269.99999624" y="333.99999171" width="111.99999792000006" height="32.99999174999999" class="text">accordance </text>
<text x="386.00000411999997" y="333.99999171" width="44.000004200000035" height="32.99999174999999" class="text">with </text>
<text x="441.00001376000006" y="333.99999171" width="18.999972679999928" height="32.99999174999999" class="text">28 </text>
<text x="468.99997812000004" y="333.99999171" width="30.00003079999999" height="32.99999174999999" class="text">U. </text>
<text x="499.99998067999996" y="333.99999171" width="47.000007280000034" height="32.99999174999999" class="text">S.C. </text>
<text x="550.0000261600001" y="333.99999171" width="8.999991679999994" height="32.99999174999999" class="text">§ </text>
<text x="568.99999884" y="333.99999171" width="44.99999352000009" height="32.99999174999999" class="text">1746</text>
<text x="618.99997408" y="333.99999171" width="9.00000923999994" height="32.99999174999999" class="text">, </text>
<text x="635.0000314800001" y="333.99999171" width="27.99996435999992" height="32.99999174999999" class="text">the </text>
<text x="667.99999512" y="333.99999171" width="118.9999934" height="32.99999174999999" class="text">undersigned </text>
<text x="797.99999396" y="333.99999171" width="57.00002340000003" height="32.99999174999999" class="text">swear</text>
<text x="853.9999929200001" y="333.99999171" width="8.99999167999988" height="32.99999174999999" class="text">(</text>
<text x="864.00000904" y="333.99999171" width="9.00000923999994" height="32.99999174999999" class="text">s</text>
<text x="873.9999900400001" y="333.99999171" width="8.999991679999994" height="32.99999174999999" class="text">) </text>
<text x="886.00001992" y="333.99999171" width="23.99997196000004" height="32.99999174999999" class="text">or </text>
<text x="912.00004076" y="333.99999171" width="60.999945560000015" height="32.99999174999999" class="text">affirm</text>
<text x="976.00000696" y="333.99999171" width="9.000009240000054" height="32.99999174999999" class="text">(</text>
<text x="985.9999879600001" y="333.99999171" width="8.999991679999994" height="32.99999174999999" class="text">s</text>
<text x="995.99996896" y="333.99999171" width="8.999991679999994" height="32.99999174999999" class="text">) </text>
<text x="1007.99999884" y="333.99999171" width="58.999984479999966" height="32.99999174999999" class="text">under </text>
<text x="1075.00000324" y="333.99999171" width="71.9999861199999" height="32.99999174999999" class="text">penalty </text>
<text x="1152.9999604" y="333.99999171" width="25.000049080000053" height="32.99999174999999" class="text">of </text>
<text x="1178.9999812400001" y="333.99999171" width="70.00004259999992" height="32.99999174999999" class="text">perjury </text>
<text x="1255.99996664" y="333.99999171" width="42.00006068000016" height="32.99999174999999" class="text">that </text>
<text x="1302.00003728" y="333.99999171" width="23.99995439999998" height="32.99999174999999" class="text">he</text>
<text x="1325.99999168" y="333.99999171" width="9.000009239999827" height="32.99999174999999" class="text">/</text>
<text x="1331.99996272" y="333.99999171" width="34.00004076000005" height="32.99999174999999" class="text">she </text>
<text x="1371.00000276" y="333.99999171" width="36.99995604000014" height="32.99999174999999" class="text">has </text>
<text x="1410.999997" y="333.99999171" width="9.000009240000054" height="32.99999174999999" class="text">(</text>
<text x="1423.0000268800002" y="333.99999171" width="36.99997359999975" height="32.99999174999999" class="text">they </text>
<text x="1469.9999814799999" y="333.99999171" width="47.000059960000044" height="32.99999174999999" class="text">have</text>
<text x="1517.00004144" y="333.99999171" width="8.999991679999994" height="32.99999174999999" class="text">)
</text>
<text x="146.00000356" y="365.99999337" width="42.00000799999998" height="32.99999174999999" class="text">read </text>
<text x="200.99999563999998" y="365.99999337" width="27.999999479999985" height="32.99999174999999" class="text">the </text>
<text x="235.00000128000002" y="365.99999337" width="121.99999647999996" height="32.99999174999999" class="text">information </text>
<text x="363.99999324" y="365.99999337" width="32.99999876000004" height="32.99999174999999" class="text">set </text>
<text x="399.99999507999996" y="365.99999337" width="43.99998664000009" height="32.99999174999999" class="text">forth </text>
<text x="457.00000092000005" y="365.99999337" width="13.000001639999994" height="32.99999174999999" class="text">in </text>
<text x="483.99999352" y="365.99999337" width="36.000001840000095" height="32.99999174999999" class="text">this </text>
<text x="524.99997708" y="365.99999337" width="115.00003612" height="32.99999174999999" class="text">registration </text>
<text x="651.00001864" y="365.99999337" width="103.00000624000006" height="32.99999174999999" class="text">statement </text>
<text x="756.00002108" y="365.99999337" width="37.99994535999997" height="32.99999174999999" class="text">and </text>
<text x="801.0000146" y="365.99999337" width="27.999981920000096" height="32.99999174999999" class="text">the </text>
<text x="839.0000302" y="365.99999337" width="82.99999156000001" height="32.99999174999999" class="text">attached </text>
<text x="931.0000134400001" y="365.99999337" width="76.9999853999999" height="32.99999174999999" class="text">exhibits </text>
<text x="1016.99999052" y="365.99999337" width="36.9999736000002" height="32.99999174999999" class="text">and </text>
<text x="1060.00004052" y="365.99999337" width="41.9999553199998" height="32.99999174999999" class="text">that </text>
<text x="1105.00003404" y="365.99999337" width="23.999954400000206" height="32.99999174999999" class="text">he</text>
<text x="1128.9999884400002" y="365.99999337" width="9.000009239999827" height="32.99999174999999" class="text">/</text>
<text x="1138.99996944" y="365.99999337" width="34.00004076000005" height="32.99999174999999" class="text">she </text>
<text x="1181.00003012" y="365.99999337" width="11.999942079999983" height="32.99999174999999" class="text">is </text>
<text x="1201.99996388" y="365.99999337" width="9.000009239999827" height="32.99999174999999" class="text">(</text>
<text x="1213.99999376" y="365.99999337" width="40.99998355999992" height="32.99999174999999" class="text">they </text>
<text x="1259.9999765999999" y="365.99999337" width="33.00006900000017" height="32.99999174999999" class="text">are</text>
<text x="1294.0000173600001" y="365.99999337" width="8.999991679999994" height="32.99999174999999" class="text">) </text>
<text x="1308.00000832" y="365.99999337" width="85.99997708000001" height="32.99999174999999" class="text">familiar </text>
<text x="1392.99999608" y="365.99999337" width="44.00002175999998" height="32.99999174999999" class="text">with </text>
<text x="1451.0000088" y="365.99999337" width="27.99998192000021" height="32.99999174999999" class="text">the </text>
<text x="1488.99995416" y="365.99999337" width="85.0000053199999" height="32.99999174999999" class="text">contents
</text>
<text x="147.000006928" y="396.99998217" width="75.99998203199999" height="34.9999947" class="text">thereof </text>
<text x="226.0000096" y="396.99998217" width="34.99999495999998" height="34.9999947" class="text">and </text>
<text x="268.00000004" y="396.99998217" width="41.000001120000036" height="34.9999947" class="text">that </text>
<text x="313.99998288" y="396.99998217" width="44.00002175999998" height="34.9999947" class="text">such </text>
<text x="365.00000012" y="396.99998217" width="85.99997708000001" height="34.9999947" class="text">contents </text>
<text x="461.9999826399999" y="396.99998217" width="26.000020840000047" height="34.9999947" class="text">are </text>
<text x="497.00001272" y="396.99998217" width="13.000001639999994" height="34.9999947" class="text">in </text>
<text x="521.0000198" y="396.99998217" width="48.999950799999965" height="34.9999947" class="text">their </text>
<text x="575.99999432" y="396.99998217" width="73.9999998799999" height="34.9999947" class="text">entirety </text>
<text x="662.00002408" y="396.99998217" width="39.999959120000085" height="34.9999947" class="text">true </text>
<text x="703.9999794" y="396.99998217" width="36.00000183999998" height="34.9999947" class="text">and </text>
<text x="750.99998668" y="396.99998217" width="82.99999156000001" height="34.9999947" class="text">accurate </text>
<text x="839.0000302" y="396.99998217" width="19.999997120000103" height="34.9999947" class="text">to </text>
<text x="868.000019" y="396.99998217" width="29.999925440000084" height="34.9999947" class="text">the </text>
<text x="904.9999925999999" y="396.99998217" width="39.000040040000044" height="34.9999947" class="text">best </text>
<text x="953.99999608" y="396.99998217" width="19.999962000000096" height="34.9999947" class="text">of </text>
<text x="976.99999628" y="396.99998217" width="30.00003079999999" height="34.9999947" class="text">his</text>
<text x="1009.9999423600001" y="396.99998217" width="10.000086359999841" height="34.9999947" class="text">/</text>
<text x="1016.00001876" y="396.99998217" width="35.00001252000004" height="34.9999947" class="text">her </text>
<text x="1055.0000588" y="396.99998217" width="9.999963439999874" height="34.9999947" class="text">(</text>
<text x="1062.99997336" y="396.99998217" width="46.000070640000104" height="34.9999947" class="text">their</text>
<text x="1111.00000508" y="396.99998217" width="9.999963440000101" height="34.9999947" class="text">) </text>
<text x="1124.00000672" y="396.99998217" width="113.99995899999999" height="34.9999947" class="text">knowledge </text>
<text x="1245.00001388" y="396.99998217" width="35.00001251999993" height="34.9999947" class="text">and </text>
<text x="1285.0000081199998" y="396.99998217" width="59.999973800000134" height="34.9999947" class="text">belief</text>
<text x="1345.9999536799999" y="396.99998217" width="10.000068800000008" height="34.9999947" class="text">, </text>
<text x="1360.00005" y="396.99998217" width="65.99990971999978" height="34.9999947" class="text">except </text>
<text x="1432.00003612" y="396.99998217" width="38.999917119999964" height="34.9999947" class="text">that </text>
<text x="1477.00002964" y="396.99998217" width="29.99992543999997" height="34.9999947" class="text">the
</text>
<text x="145.00000019200002" y="426.00001356" width="124.99999604799996" height="31.000034340000013" class="text">undersigned </text>
<text x="284.00000475999997" y="426.00001356" width="52.99999588000003" height="31.000034340000013" class="text">make</text>
<text x="335.00000444" y="426.00001356" width="8.999991679999994" height="31.000034340000013" class="text">(</text>
<text x="345.00000300000005" y="426.00001356" width="8.999991679999937" height="31.000034340000013" class="text">s</text>
<text x="353.99999468" y="426.00001356" width="9.000009239999997" height="31.000034340000013" class="text">) </text>
<text x="368.00000320000004" y="426.00001356" width="27.99999947999993" height="31.000034340000013" class="text">no </text>
<text x="399.99999507999996" y="426.00001356" width="146.00002112000004" height="31.000034340000013" class="text">representation </text>
<text x="553.99998344" y="426.00001356" width="23.000035319999938" height="31.000034340000013" class="text">as </text>
<text x="582.9999898" y="426.00001356" width="19.000025359999995" height="31.000034340000013" class="text">to </text>
<text x="607.99996864" y="426.00001356" width="31.000020120000045" height="31.000034340000013" class="text">the </text>
<text x="649.9999942" y="426.00001356" width="44.999993519999975" height="31.000034340000013" class="text">truth </text>
<text x="703.0000076399999" y="426.00001356" width="24.000007080000046" height="31.000034340000013" class="text">or </text>
<text x="732.0000140000001" y="426.00001356" width="87.99997327999995" height="31.000034340000013" class="text">accuracy </text>
<text x="826.99998276" y="426.00001356" width="24.000024639999992" height="31.000034340000013" class="text">of </text>
<text x="858.00000288" y="426.00001356" width="30.99994988000003" height="31.000034340000013" class="text">the </text>
<text x="892.99996272" y="426.00001356" width="121.00000716" height="31.000034340000013" class="text">information </text>
<text x="1022.99996156" y="426.00001356" width="95.00007412000014" height="31.000034340000013" class="text">contained </text>
<text x="1128.9999884400002" y="426.00001356" width="17.000029159999713" height="31.000034340000013" class="text">in </text>
<text x="1154.00003752" y="426.00001356" width="36.000001840000095" height="31.000034340000013" class="text">the </text>
<text x="1194.00004932" y="426.00001356" width="85.00000532000013" height="31.000034340000013" class="text">attached </text>
<text x="1285.0000081199998" y="426.00001356" width="55.99994628000013" height="31.000034340000013" class="text">Short </text>
<text x="1347.0000308" y="426.00001356" width="56.999918039999784" height="31.000034340000013" class="text">Form </text>
<text x="1411.99998632" y="426.00001356" width="124.0000278" height="31.000034340000013" class="text">Registration
</text>
<text x="147.999996248" y="457.00000236" width="102.99999219200001" height="30.999988799999983" class="text">Statement</text>
<text x="248.99999224" y="457.00000236" width="8.999991680000022" height="30.999988799999983" class="text">(</text>
<text x="257.99998392000003" y="457.00000236" width="9.00000923999994" height="30.999988799999983" class="text">s</text>
<text x="266.99999316" y="457.00000236" width="8.99999168000005" height="30.999988799999983" class="text">)</text>
<text x="276.99999172" y="457.00000236" width="8.999991679999937" height="30.999988799999983" class="text">, </text>
<text x="291.00000024" y="457.00000236" width="11.000005439999995" height="30.999988799999983" class="text">if </text>
<text x="311.00001492" y="457.00000236" width="34.99999495999998" height="30.999988799999983" class="text">any</text>
<text x="345.00000300000005" y="457.00000236" width="8.999991679999937" height="30.999988799999983" class="text">, </text>
<text x="356.99999776" y="457.00000236" width="69.99998992000002" height="30.999988799999983" class="text">insofar </text>
<text x="434.99999004" y="457.00000236" width="17.000011599999993" height="30.999988799999983" class="text">as </text>
<text x="457.99997268" y="457.00000236" width="44.00002176000004" height="30.999988799999983" class="text">such </text>
<text x="512.00002812" y="457.00000236" width="118.9999934" height="30.999988799999983" class="text">information </text>
<text x="636.00000324" y="457.00000236" width="17.000029160000054" height="30.999988799999983" class="text">is </text>
<text x="660.00001032" y="457.00000236" width="36.00000183999998" height="30.999988799999983" class="text">not </text>
<text x="698.99999768" y="457.00000236" width="58.999984479999966" height="30.999988799999983" class="text">within </text>
<text x="767.99999828" y="457.00000236" width="27.000010159999988" height="30.999988799999983" class="text">his</text>
<text x="797.0000046399999" y="457.00000236" width="9.000009240000054" height="30.999988799999983" class="text">/</text>
<text x="806.00001388" y="457.00000236" width="29.999978120000037" height="30.999988799999983" class="text">her </text>
<text x="840.9999737200001" y="457.00000236" width="8.99999167999988" height="30.999988799999983" class="text">(</text>
<text x="849.9999654" y="457.00000236" width="44.00007444000005" height="30.999988799999983" class="text">their</text>
<text x="896.0000009199999" y="457.00000236" width="8.999991679999994" height="30.999988799999983" class="text">) </text>
<text x="910.9999636399999" y="457.00000236" width="88.00004352000008" height="30.999988799999983" class="text">personal </text>
<text x="1000.99995068" y="457.00000236" width="109.00006508000001" height="30.999988799999983" class="text">knowledge</text>
<text x="1112.9999486000002" y="457.00000236" width="9.000009239999827" height="30.999988799999983" class="text">.
</text>
<text x="147.000006928" y="549.00000144" width="8.999998703999978" height="32.99999175000005" class="text">(</text>
<text x="157.99999832" y="549.00000144" width="47.9999966" height="32.99999175000005" class="text">Date </text>
<text x="215.00000416" y="550.0000143" width="24.999996399999986" height="33.000014520000036" class="text">of </text>
<text x="243.00000364000002" y="551.00000439" width="95.00000387999998" height="34.9999947" class="text">signature</text>
<text x="341.99998236" y="550.0000143" width="9.000009240000054" height="33.000014520000036" class="text">)
</text>
<text x="875.00001448" y="553.99997466" width="11.000005439999995" height="36.99997488000008" class="text">(</text>
<text x="885.0000481599999" y="553.99997466" width="56.999918040000125" height="36.99997488000008" class="text">Type </text>
<text x="948.0000425999999" y="553.99997466" width="27.999964360000035" height="36.99997488000008" class="text">or </text>
<text x="976.99999628" y="553.00000734" width="56.00005164000004" height="36.99999765000007" class="text">print </text>
<text x="1036.99995252" y="553.00000734" width="61.00003335999986" height="36.99999765000007" class="text">name </text>
<text x="1107.99996688" y="553.00000734" width="62.00000511999974" height="36.99999765000007" class="text">under </text>
<text x="1178.9999812400001" y="553.00000734" width="45.99996527999974" height="38.00001051000004" class="text">each </text>
<text x="1233.9999557600001" y="552.00001725" width="102.00001691999978" height="37.000020420000055" class="text">signature</text>
<text x="1336.99994444" y="552.00001725" width="11.000058119999949" height="37.000020420000055" class="text">'</text>
<text x="1344.99998192" y="552.00001725" width="11.000040559999889" height="37.000020420000055" class="text">)
</text>
<text x="200.99999563999998" y="670.0000091400001" width="292.00000711999996" height="119.00000475000013" class="text">2/15/2005
</text>
<text x="851.99997916" y="796.00001283" width="223.99999584" height="113.00001866999992" class="text">Douglas</text>
<text x="991.999959" y="760.0000052700001" width="89.00001527999984" height="81.99998433000007" class="text">65 
</text>
<text x="1101.00002408" y="757.99997955" width="103.00000623999995" height="82.00000710000006" class="text">H. </text>
<text x="1209.9999837999999" y="755.9999993700001" width="226.00006228000007" height="85.00000014" class="text">Poretz
</text>
<text x="145.00000019200002" y="1968.99997833" width="6.999993723999978" height="25.99997003999988" class="text">1 </text>
<text x="165.00000433600002" y="1968.99997833" width="35.99999130399996" height="25.99997003999988" class="text">This </text>
<text x="207.99999112" y="1969.99996842" width="80.00000604000002" height="26.999960129999863" class="text">statement </text>
<text x="294.00002088" y="1969.99996842" width="39.999976679999975" height="25.999970040000107" class="text">shall </text>
<text x="337.00000064" y="1969.99996842" width="19.00000779999999" height="25.999970040000107" class="text">be </text>
<text x="365.00000012" y="1969.99996842" width="50.99998212000003" height="25.999970040000107" class="text">signed </text>
<text x="423.00001284" y="1969.99996842" width="18.999972679999985" height="25.999970040000107" class="text">by </text>
<text x="447.00001992" y="1970.99995851" width="25.999968160000037" height="25.999992810000094" class="text">the </text>
<text x="477.99996980000003" y="1970.99995851" width="88.00004351999996" height="25.999992810000094" class="text">individual </text>
<text x="568.00002708" y="1970.99995851" width="47.99997903999997" height="25.999992810000094" class="text">agent</text>
<text x="613.0000206" y="1970.99995851" width="6.999995480000052" height="25.999992810000094" class="text">, </text>
<text x="624.00002604" y="1970.99995851" width="14.999962720000099" height="25.999992810000094" class="text">if </text>
<text x="642.00002696" y="1971.99992583" width="25.99996815999998" height="25.99997003999988" class="text">the </text>
<text x="672.9999768399999" y="1971.99992583" width="81.00004804000014" height="25.99997003999988" class="text">registrant </text>
<text x="756.00002108" y="1971.99992583" width="14.999962719999985" height="25.99997003999988" class="text">is </text>
<text x="777.00000752" y="1971.99992583" width="15.000015399999938" height="25.99997003999988" class="text">an </text>
<text x="801.0000146" y="1973.00005254" width="85.00000532000001" height="27.00009675000001" class="text">individual</text>
<text x="886.00001992" y="1973.00005254" width="6.999942799999985" height="26.00010666000003" class="text">, </text>
<text x="896.9999726799999" y="1973.00005254" width="18.00000092000016" height="26.00010666000003" class="text">or </text>
<text x="915.99994536" y="1973.00005254" width="24.000077319999946" height="26.00010666000003" class="text">by </text>
<text x="944.00003264" y="1973.00005254" width="6.999942799999985" height="26.00010666000003" class="text">a </text>
<text x="963.0000053199999" y="1973.00005254" width="66.0000326400002" height="26.00010666000003" class="text">majority </text>
<text x="1036.99995252" y="1974.00004263" width="15.000068079999892" height="25.999970040000107" class="text">of </text>
<text x="1058.9999634" y="1974.00004263" width="43.00003243999981" height="25.999970040000107" class="text">those </text>
<text x="1106.0000058" y="1974.00004263" width="67.99999372000002" height="25.999970040000107" class="text">partners</text>
<text x="1174.99997128" y="1974.00004263" width="7.000048160000006" height="25.999970040000107" class="text">, </text>
<text x="1183.9999629600002" y="1975.00000995" width="62.99999443999991" height="26.999937360000104" class="text">officers</text>
<text x="1248.00003452" y="1975.00000995" width="6.999942799999872" height="25.99997003999988" class="text">, </text>
<text x="1257.00004376" y="1975.00000995" width="72.99995788000001" height="25.99997003999988" class="text">directors </text>
<text x="1339.00001088" y="1975.00000995" width="14.999962719999985" height="25.99997003999988" class="text">or </text>
<text x="1358.99995532" y="1975.00000995" width="62.99999443999991" height="25.99997003999988" class="text">persons </text>
<text x="1428.99999792" y="1976.00000004" width="92.0000534799999" height="26.999960129999863" class="text">performing </text>
<text x="1526.00003312" y="1976.00000004" width="58.999984479999966" height="25.999970040000107" class="text">similar
</text>
<text x="142.999995212" y="1992.9999909599999" width="76.00000134800001" height="24.0000126299999" class="text">functions</text>
<text x="220.99999276" y="1992.9999909599999" width="7.000013039999999" height="24.0000126299999" class="text">, </text>
<text x="230.99999131999996" y="1992.9999909599999" width="14.000008520000051" height="24.0000126299999" class="text">if </text>
<text x="247.99998535999998" y="1992.9999909599999" width="27.00002772000005" height="24.0000126299999" class="text">the </text>
<text x="277.99999859999997" y="1993.99998105" width="83.99999844000001" height="24.00001263000013" class="text">registrant </text>
<text x="363.00000392" y="1993.99998105" width="14.000008520000051" height="24.00001263000013" class="text">is </text>
<text x="384.99999724" y="1993.99998105" width="12.999984079999933" height="24.00001263000013" class="text">an </text>
<text x="407.99999744" y="1993.99998105" width="102.00001691999995" height="24.00001263000013" class="text">organization</text>
<text x="512.00002812" y="1993.99998105" width="6.999977919999992" height="24.00001263000013" class="text">, </text>
<text x="523.00003356" y="1994.99994837" width="55.99999895999997" height="24.999979950000125" class="text">except </text>
<text x="580.99997604" y="1994.99994837" width="34.00004075999993" height="23.99998986000014" class="text">that </text>
<text x="620.00001608" y="1994.99994837" width="24.000007080000046" height="23.99998986000014" class="text">the </text>
<text x="649.9999942" y="1994.99994837" width="102.00001692000001" height="23.99998986000014" class="text">organization </text>
<text x="757.99998216" y="1994.99994837" width="28.000017040000102" height="23.99998986000014" class="text">can</text>
<text x="788.0000129599999" y="1994.99994837" width="6.999995480000052" height="23.99998986000014" class="text">, </text>
<text x="795.9999802" y="1994.99994837" width="22.00001087999999" height="23.99998986000014" class="text">by </text>
<text x="822.00000104" y="1995.99993846" width="55.00002719999998" height="24.999979950000125" class="text">power </text>
<text x="879.9999610799999" y="1995.99993846" width="21.999993320000044" height="24.00001263000013" class="text">of </text>
<text x="901.9999544" y="1995.99993846" width="68.00009908000004" height="24.00001263000013" class="text">attorney</text>
<text x="972.9999863200001" y="1995.99993846" width="7.000030599999832" height="24.00001263000013" class="text">, </text>
<text x="981.0000062400001" y="1995.99993846" width="76.99996784000007" height="24.00001263000013" class="text">authorize </text>
<text x="1065.00002224" y="1995.99993846" width="31.000020120000045" height="24.00001263000013" class="text">one </text>
<text x="1101.00002408" y="1995.99993846" width="18.000000920000048" height="24.00001263000013" class="text">or </text>
<text x="1127.00004492" y="1997.00006517" width="36.9999736000002" height="24.0000126299999" class="text">more </text>
<text x="1172.00003844" y="1997.00006517" width="92.99991987999988" height="24.0000126299999" class="text">individuals </text>
<text x="1271.00003472" y="1997.00006517" width="13.000001640000164" height="24.0000126299999" class="text">to </text>
<text x="1290.99997916" y="1997.00006517" width="62.00002268000003" height="24.0000126299999" class="text">execute </text>
<text x="1357.9999835600001" y="1997.00006517" width="31.000002559999757" height="24.0000126299999" class="text">this </text>
<text x="1397.00000604" y="1998.0000324900002" width="80.00002360000008" height="24.999979950000125" class="text">statement </text>
<text x="1479.99996248" y="1998.0000324900002" width="22.00001087999999" height="23.99998986000014" class="text">on </text>
<text x="1509.00002152" y="1998.0000324900002" width="17.00001159999988" height="23.99998986000014" class="text">its </text>
<text x="1530.0000430799998" y="1998.0000324900002" width="54.00000276000014" height="23.99998986000014" class="text">behalf</text>
<text x="1585.0000175999999" y="1998.0000324900002" width="6.999942800000099" height="23.99998986000014" class="text">.
</text>
</g>
</svg>
