<svg xmlns="http://www.w3.org/2000/svg">
<style>.text { font-size: 14px; font-family: Arial, sans-serif; }</style>
<g id="page-0" transform="translate(0, 0)">
<rect width="1756" height="2277" fill="none" stroke="black" />
<text x="1383.00003264" y="139.99999701599998" width="37.99994536000008" height="16.99999775099998" class="text">OMB </text>
<text x="1424.0000162000001" y="139.99999701599998" width="22.000010879999763" height="16.99999775099998" class="text">NO</text>
<text x="1450.0000370399998" y="139.99999701599998" width="4.999981720000051" height="16.99999775099998" class="text">. </text>
<text x="1457.9999516" y="139.99999701599998" width="70.00004259999992" height="16.99999775099998" class="text">1105-0004
</text>
<text x="146.00000356" y="143.000005995" width="52.00000656" height="31.000009293000005" class="text">U.S. </text>
<text x="198.00001012" y="143.000005995" width="152.99998148000003" height="32.000008491" class="text">Department </text>
<text x="358.00000464" y="140.999996214" width="21.999993320000044" height="29.999998709999986" class="text">of </text>
<text x="387.99998276" y="140.999996214" width="82.00001980000002" height="31.999999382999988" class="text">Justice
</text>
<text x="141.000002524" y="177.99999841800002" width="131.00000747599998" height="37.000002204000026" class="text">Washington</text>
<text x="277.99999859999997" y="174.99999627" width="9.999998560000051" height="32.999998581" class="text">, </text>
<text x="287.99999716" y="174.99999627" width="41.00000111999998" height="34.999999254000016" class="text">DC </text>
<text x="340.00000372" y="173.999997072" width="67.99999372000002" height="35.00000153100001" class="text">20530
</text>
<text x="656.99998968" y="138.999995541" width="144.00002492" height="31.000000185000005" class="text">Amendment </text>
<text x="803.00002836" y="138.999995541" width="19.999944440000036" height="31.000000185000005" class="text">to </text>
<text x="830.0000209599999" y="138.999995541" width="134.9999278800001" height="31.000000185000005" class="text">Registration </text>
<text x="979.00004516" y="138.999995541" width="109.99994903999993" height="31.000000185000005" class="text">Statement
</text>
<text x="660.9999996399999" y="172.999997874" width="100.99999248000006" height="32.00000166000001" class="text">Pursuant </text>
<text x="765.00003032" y="172.999997874" width="18.99997268000004" height="32.00000166000001" class="text">to </text>
<text x="793.99996644" y="172.999997874" width="32.00004455999999" height="32.00000166000001" class="text">the </text>
<text x="833.99997824" y="172.999997874" width="80.00002360000008" height="32.00000166000001" class="text">Foreign </text>
<text x="927.9999752400001" y="172.999997874" width="76.9999853999999" height="32.00000166000001" class="text">Agents </text>
<text x="1012.99998056" y="172.999997874" width="133.00003703999982" height="32.00000166000001" class="text">Registration </text>
<text x="1155.0000092799999" y="172.999997874" width="41.99997288000009" height="32.00000166000001" class="text">Act </text>
<text x="1203.000041" y="172.999997874" width="23.00000019999993" height="32.00000166000001" class="text">of </text>
<text x="1235.00003288" y="172.999997874" width="50.99996456000008" height="32.00000166000001" class="text">1938</text>
<text x="1290.0000074" y="172.999997874" width="8.999991680000221" height="32.00000166000001" class="text">, </text>
<text x="1306.00004724" y="172.999997874" width="18.999972679999928" height="32.00000166000001" class="text">as </text>
<text x="1330.9999909599999" y="172.999997874" width="98.99997872000017" height="32.00000166000001" class="text">amended
</text>
<text x="143.99999858" y="319.99999383" width="64.99999942" height="31.999978889999966" class="text">Privacy </text>
<text x="215.00000416" y="319.99999383" width="32.000009439999985" height="31.999978889999966" class="text">Act </text>
<text x="256.00000528000004" y="319.99999383" width="88.99999772000001" height="31.999978889999966" class="text">Statement</text>
<text x="341.99998236" y="319.99999383" width="9.000009240000054" height="31.999978889999966" class="text">. </text>
<text x="359.99998328" y="319.99999383" width="52.000024120000035" height="31.999978889999966" class="text">Every </text>
<text x="415.99998224" y="319.99999383" width="101.00002760000007" height="31.999978889999966" class="text">registration </text>
<text x="524.00000532" y="319.99999383" width="89.99998704000006" height="31.999978889999966" class="text">statement</text>
<text x="611.00000684" y="319.99999383" width="9.000009240000054" height="31.999978889999966" class="text">, </text>
<text x="620.00001608" y="319.99999383" width="45.99996527999997" height="31.999978889999966" class="text">short </text>
<text x="674.00000128" y="319.99999383" width="36.00000183999998" height="31.999978889999966" class="text">form </text>
<text x="721.99998032" y="319.99999383" width="95.00003900000013" height="31.999978889999966" class="text">registration </text>
<text x="826.000011" y="319.99999383" width="83.99998088000007" height="31.999978889999966" class="text">statement</text>
<text x="908.0000308000001" y="319.99999383" width="8.999991679999766" height="31.999978889999966" class="text">, </text>
<text x="922.00002176" y="319.99999383" width="118.99994072000004" height="31.999978889999966" class="text">supplemental </text>
<text x="1043.00001136" y="319.99999383" width="89.00001528000007" height="31.999978889999966" class="text">statement</text>
<text x="1128.9999884400002" y="319.99999383" width="9.000009239999827" height="31.999978889999966" class="text">, </text>
<text x="1137.99999768" y="319.99999383" width="62.00002268000003" height="31.999978889999966" class="text">exhibit</text>
<text x="1200.00002036" y="319.99999383" width="8.999991679999994" height="31.999978889999966" class="text">, </text>
<text x="1209.9999837999999" y="319.99999383" width="107.00001620000012" height="31.999978889999966" class="text">amendment</text>
<text x="1315.00003892" y="319.99999383" width="9.000009240000054" height="31.999978889999966" class="text">, </text>
<text x="1327.99995276" y="319.99999383" width="42.00006067999993" height="31.999978889999966" class="text">copy </text>
<text x="1375.99998448" y="319.99999383" width="17.000011600000107" height="31.999978889999966" class="text">of </text>
<text x="1400.0000442399999" y="319.99999383" width="121.00000716" height="31.999978889999966" class="text">informational </text>
<text x="1527.9999942" y="319.99999383" width="79.00003428000014" height="31.999978889999966" class="text">materials </text>
<text x="1611.00003844" y="319.99999383" width="22.99998263999987" height="31.999978889999966" class="text">or
</text>
<text x="145.00000019200002" y="343.99998369" width="42.00000448799997" height="26.99998290000002" class="text">other </text>
<text x="189.9999902" y="343.99998369" width="92.00001835999996" height="26.99998290000002" class="text">document </text>
<text x="286.99999028" y="343.99998369" width="19.00000779999999" height="26.99998290000002" class="text">or </text>
<text x="312.99999356" y="343.99998369" width="101.00001004" height="26.99998290000002" class="text">information </text>
<text x="424.00000216" y="343.99998369" width="35.99998427999998" height="26.99998290000002" class="text">filed </text>
<text x="467.00003460000005" y="343.99998369" width="34.999959839999974" height="26.99998290000002" class="text">with </text>
<text x="512.00002812" y="343.99998369" width="26.999992599999928" height="26.99998290000002" class="text">the </text>
<text x="549.00000172" y="343.99998369" width="73.00001056000008" height="26.99998290000002" class="text">Attorney </text>
<text x="631.00002152" y="343.99998369" width="71.9999861199999" height="26.99998290000002" class="text">General </text>
<text x="705.00000384" y="343.99998369" width="51.000017240000034" height="26.99998290000002" class="text">under </text>
<text x="763.99998832" y="343.99998369" width="29.999978119999923" height="26.99998290000002" class="text">this </text>
<text x="801.0000146" y="343.99998369" width="30.999967439999978" height="26.99998290000002" class="text">Act </text>
<text x="835.999992" y="343.99998369" width="15.000015399999938" height="26.99998290000002" class="text">is </text>
<text x="857.00001356" y="343.99998369" width="7.999984799999993" height="26.99998290000002" class="text">a </text>
<text x="871.9999762799999" y="343.99998369" width="54.0000554400001" height="26.99998290000002" class="text">public </text>
<text x="932.99997452" y="343.99998369" width="56.00005164000004" height="26.99998290000002" class="text">record </text>
<text x="998.00001784" y="343.99998369" width="36.999973599999976" height="26.99998290000002" class="text">open </text>
<text x="1044.00000068" y="343.99998369" width="14.999962719999985" height="26.99998290000002" class="text">to </text>
<text x="1066.99998332" y="343.99998369" width="53.99998520000008" height="26.99998290000002" class="text">public </text>
<text x="1127.00004492" y="343.99998369" width="107.99998796" height="26.99998290000002" class="text">examination</text>
<text x="1236.99999396" y="343.99998369" width="8.000019920000113" height="26.99998290000002" class="text">, </text>
<text x="1249.9999956" y="343.99998369" width="88.00004352000019" height="26.99998290000002" class="text">inspection </text>
<text x="1345.9999536799999" y="343.99998369" width="31.000002560000212" height="26.99998290000002" class="text">and </text>
<text x="1383.00003264" y="343.99998369" width="67.99997615999996" height="26.99998290000002" class="text">copying </text>
<text x="1461.99996156" y="343.99998369" width="54.000002759999916" height="26.99998290000002" class="text">during </text>
<text x="1524.9999559999999" y="343.99998369" width="26.99999260000027" height="26.99998290000002" class="text">the </text>
<text x="1555.99995856" y="343.99998369" width="54.000002759999916" height="26.99998290000002" class="text">posted
</text>
<text x="141.000002524" y="370.99998936" width="75.00000851600001" height="29.999975939999956" class="text">business </text>
<text x="221.99999964" y="370.99998936" width="50.99999968000003" height="29.999975939999956" class="text">hours </text>
<text x="275.99998484" y="370.99998936" width="22.00001087999999" height="29.999975939999956" class="text">of </text>
<text x="303.00001256" y="370.99998936" width="24.999996399999986" height="29.999975939999956" class="text">the </text>
<text x="331.9999838" y="370.99998936" width="110.00000172" height="29.999975939999956" class="text">Registration </text>
<text x="448.99998100000005" y="370.99998936" width="39.00002247999993" height="29.999975939999956" class="text">Unit </text>
<text x="493.00000276" y="370.99998936" width="17.000011599999993" height="29.999975939999956" class="text">in </text>
<text x="517.0000098400001" y="370.99998936" width="103.99997799999994" height="29.999975939999956" class="text">Washington</text>
<text x="624.9999978" y="370.99998936" width="8.999991680000107" height="29.999975939999956" class="text">, </text>
<text x="635.0000314800001" y="370.99998936" width="46.99993703999985" height="29.999975939999956" class="text">D.C. </text>
<text x="689.00001668" y="370.99998936" width="37.99999803999992" height="29.999975939999956" class="text">One </text>
<text x="732.99998576" y="370.99998936" width="42.00000799999998" height="29.999975939999956" class="text">copy </text>
<text x="781.00001748" y="370.99998936" width="16.999976479999987" height="29.999975939999956" class="text">of </text>
<text x="804.99997188" y="370.99998936" width="47.00000727999998" height="29.999975939999956" class="text">every </text>
<text x="859.0000273200001" y="370.99998936" width="37.999945359999856" height="29.999975939999956" class="text">such </text>
<text x="903.00004908" y="370.99998936" width="90.99995879999994" height="29.999975939999956" class="text">document</text>
<text x="990.99996968" y="370.99998936" width="9.00000923999994" height="29.999975939999956" class="text">, </text>
<text x="1003.0000171199999" y="370.99998936" width="44.00000420000015" height="29.999975939999956" class="text">other </text>
<text x="1051.00003128" y="370.99998936" width="37.999962919999916" height="29.999975939999956" class="text">than </text>
<text x="1097.99998588" y="370.99998936" width="123.00005603999989" height="29.999975939999956" class="text">informational </text>
<text x="1226.0000412" y="370.99998936" width="77.99995716000012" height="29.999975939999956" class="text">materials</text>
<text x="1306.00004724" y="370.99998936" width="8.999991679999994" height="29.999975939999956" class="text">, </text>
<text x="1320.0000382" y="370.99998936" width="10.999952759999815" height="29.999975939999956" class="text">is </text>
<text x="1339.00001088" y="370.99998936" width="117.99996895999993" height="29.999975939999956" class="text">automatically </text>
<text x="1468.00003796" y="370.99998936" width="73.99992963999989" height="29.999975939999956" class="text">provided </text>
<text x="1549.00001576" y="370.99998936" width="17.00002915999994" height="29.999975939999956" class="text">to </text>
<text x="1575.0000366" y="370.99998936" width="24.99994371999992" height="29.999975939999956" class="text">the
</text>
<text x="142.00000589200002" y="398.0000178" width="85.00001058800001" height="31.000011570000026" class="text">Secretary </text>
<text x="233.00000508000002" y="398.0000178" width="18.99999023999999" height="31.000011570000026" class="text">of </text>
<text x="257.99998392000003" y="398.0000178" width="42.00002555999998" height="31.000011570000026" class="text">State </text>
<text x="307.99999428" y="398.0000178" width="76.00001363999996" height="31.000011570000026" class="text">pursuant </text>
<text x="387.99998276" y="398.0000178" width="18.000036039999998" height="31.000011570000026" class="text">to </text>
<text x="412.0000074" y="398.0000178" width="64.99999063999996" height="31.000011570000026" class="text">Section </text>
<text x="483.99999352" y="398.0000178" width="9.000009239999997" height="31.000011570000026" class="text">6</text>
<text x="497.00001272" y="398.0000178" width="8.999991679999994" height="31.000011570000026" class="text">(</text>
<text x="503.99999064" y="398.0000178" width="9.000009239999883" height="31.000011570000026" class="text">b</text>
<text x="514.99999608" y="398.0000178" width="9.000009240000054" height="31.000011570000026" class="text">) </text>
<text x="526.99999084" y="398.0000178" width="22.00001087999999" height="31.000011570000026" class="text">of </text>
<text x="550.9999979199999" y="398.0000178" width="29.000006360000043" height="31.000011570000026" class="text">the </text>
<text x="584.9999859999999" y="398.0000178" width="30.00003079999999" height="31.000011570000026" class="text">Act</text>
<text x="613.9999923600001" y="398.0000178" width="8.99999167999988" height="31.000011570000026" class="text">, </text>
<text x="627.0000115600001" y="398.0000178" width="31.99997431999998" height="31.000011570000026" class="text">and </text>
<text x="662.99999584" y="398.0000178" width="60.00000892000003" height="31.000011570000026" class="text">copies </text>
<text x="725.99999028" y="398.0000178" width="21.000039119999997" height="31.000011570000026" class="text">of </text>
<text x="750.99998668" y="398.0000178" width="32.000027000000046" height="31.000011570000026" class="text">any </text>
<text x="788.0000129599999" y="398.0000178" width="31.999974320000092" height="31.000011570000026" class="text">and </text>
<text x="824.9999865599999" y="398.0000178" width="23.000035320000052" height="31.000011570000026" class="text">all </text>
<text x="851.99997916" y="398.0000178" width="94.99998631999995" height="31.000011570000026" class="text">documents </text>
<text x="954.9999853999999" y="398.0000178" width="22.999982640000212" height="31.000011570000026" class="text">are </text>
<text x="985.9999879600001" y="398.0000178" width="80.00002359999974" height="31.000011570000026" class="text">routinely </text>
<text x="1074.00003148" y="398.0000178" width="44.99999352000009" height="31.000011570000026" class="text">made </text>
<text x="1124.99997848" y="398.0000178" width="79.00005183999997" height="31.000011570000026" class="text">available </text>
<text x="1214.99998308" y="398.0000178" width="11.000058119999949" height="31.000011570000026" class="text">to </text>
<text x="1237.99996572" y="398.0000178" width="44.99999351999986" height="31.000011570000026" class="text">other </text>
<text x="1285.99999744" y="398.0000178" width="76.99996783999995" height="31.000011570000026" class="text">agencies</text>
<text x="1361.99999352" y="398.0000178" width="9.000009239999827" height="31.000011570000026" class="text">, </text>
<text x="1373.00005164" y="398.0000178" width="106.99991083999998" height="31.000011570000026" class="text">departments </text>
<text x="1488.99995416" y="398.0000178" width="30.000030799999877" height="31.000011570000026" class="text">and </text>
<text x="1527.9999942" y="398.0000178" width="80.00000604000024" height="31.000011570000026" class="text">Congress
</text>
<text x="142.999995212" y="425.00000070000004" width="77.99999754800001" height="32.000001660000066" class="text">pursuant </text>
<text x="228.0000058" y="425.00000070000004" width="10.99998788000002" height="32.000001660000066" class="text">to </text>
<text x="247.0000136" y="425.00000070000004" width="64.99999064000002" height="32.000001660000066" class="text">Section </text>
<text x="322.00002036" y="425.00000070000004" width="8.999991679999994" height="32.000001660000066" class="text">6</text>
<text x="331.00001204" y="425.00000070000004" width="8.999991679999994" height="32.000001660000066" class="text">(</text>
<text x="340.99999304" y="425.00000070000004" width="9.0000268" height="32.000001660000066" class="text">c</text>
<text x="350.99999160000004" y="425.00000070000004" width="8.999991679999937" height="32.000001660000066" class="text">) </text>
<text x="363.00000392" y="425.00000070000004" width="17.999983359999987" height="32.000001660000066" class="text">of </text>
<text x="387.99998276" y="425.00000070000004" width="27.000027719999935" height="32.000001660000066" class="text">the </text>
<text x="419.9999922" y="425.00000070000004" width="32.000009439999985" height="32.000001660000066" class="text">Act</text>
<text x="450.00000543999994" y="425.00000070000004" width="8.99999168000005" height="32.000001660000066" class="text">. </text>
<text x="472.00001632" y="425.00000070000004" width="32.999963639999976" height="32.000001660000066" class="text">The </text>
<text x="510.00001435999997" y="425.00000070000004" width="76.99998540000007" height="32.000001660000066" class="text">Attorney </text>
<text x="595.99999144" y="425.00000070000004" width="71.00001436000002" height="32.000001660000066" class="text">General </text>
<text x="671.00001576" y="425.00000070000004" width="32.99996364000003" height="32.000001660000066" class="text">also </text>
<text x="710.99997488" y="425.00000070000004" width="79.00003428000002" height="32.000001660000066" class="text">transmits </text>
<text x="799.0000184" y="425.00000070000004" width="8.999991679999994" height="32.000001660000066" class="text">a </text>
<text x="810.9999956" y="425.00000070000004" width="44.999993519999975" height="32.000001660000066" class="text">semi</text>
<text x="853.0000036" y="425.00000070000004" width="9.000009240000054" height="32.000001660000066" class="text">-</text>
<text x="862.9999846" y="425.00000070000004" width="60.00000892000014" height="32.000001660000066" class="text">annual </text>
<text x="927.00000348" y="425.00000070000004" width="52.00004167999998" height="32.000001660000066" class="text">report </text>
<text x="984.0000268800001" y="425.00000070000004" width="18.999990239999875" height="32.000001660000066" class="text">to </text>
<text x="1008.9999706" y="425.00000070000004" width="83.00006180000003" height="32.000001660000066" class="text">Congress </text>
<text x="1096.00004236" y="425.00000070000004" width="18.999972680000155" height="32.000001660000066" class="text">on </text>
<text x="1124.00000672" y="425.00000070000004" width="26.999992599999814" height="32.000001660000066" class="text">the </text>
<text x="1155.9999986" y="425.00000070000004" width="132.0000477200001" height="32.000001660000066" class="text">Administration </text>
<text x="1294.0000173600001" y="425.00000070000004" width="22.99998263999987" height="32.000001660000066" class="text">of </text>
<text x="1318.99996108" y="425.00000070000004" width="25.000031519999993" height="32.000001660000066" class="text">the </text>
<text x="1353.9999736" y="425.00000070000004" width="28.000069720000056" height="32.000001660000066" class="text">Act </text>
<text x="1389.9999754399998" y="425.00000070000004" width="49.99997524000014" height="32.000001660000066" class="text">which </text>
<text x="1448.99994236" y="425.00000070000004" width="32.00009724000006" height="32.000001660000066" class="text">lists </text>
<text x="1487.00001064" y="425.00000070000004" width="27.99996435999992" height="32.000001660000066" class="text">the </text>
<text x="1522.00002316" y="425.00000070000004" width="56.99991804000001" height="32.000001660000066" class="text">names </text>
<text x="1582.99996872" y="425.00000070000004" width="21.00002156000005" height="32.000001660000066" class="text">of </text>
<text x="1604.99996204" y="425.00000070000004" width="27.0000101600001" height="32.000001660000066" class="text">all
</text>
<text x="142.999995212" y="451.00001627999995" width="55.000014908000026" height="26.00001557999991" class="text">agents </text>
<text x="203.99999872" y="451.00001627999995" width="85.99999464000001" height="27.00000566999995" class="text">registered </text>
<text x="295.99999952" y="449.99998065" width="54.000020319999976" height="25.999970039999994" class="text">under </text>
<text x="351.99999848" y="449.99998065" width="29.99999568000004" height="25.999970039999994" class="text">the </text>
<text x="386.00000411999997" y="449.99998065" width="32.99999876000004" height="25.999970039999994" class="text">Act </text>
<text x="424.00000216" y="449.99998065" width="30.000013240000044" height="25.999970039999994" class="text">and </text>
<text x="461.9999826399999" y="449.99998065" width="24.9999964000001" height="25.999970039999994" class="text">the </text>
<text x="494.99999896" y="449.99998065" width="60.00000891999997" height="26.999982899999964" class="text">foreign </text>
<text x="564.99998888" y="449.00001333" width="86.00002975999996" height="26.000015579999967" class="text">principals </text>
<text x="656.99998968" y="449.00001333" width="35.999984280000035" height="26.000015579999967" class="text">they </text>
<text x="700.99999388" y="449.00001333" width="80.00002359999996" height="26.000015579999967" class="text">represent</text>
<text x="781.00001748" y="447.99997770000004" width="6.999995479999939" height="25.99997004000005" class="text">. </text>
<text x="801.0000146" y="447.99997770000004" width="36.00000183999998" height="25.99997004000005" class="text">This </text>
<text x="844.00001192" y="447.99997770000004" width="53.999932520000016" height="25.99997004000005" class="text">report </text>
<text x="900.99998264" y="447.99997770000004" width="13.999990960000105" height="25.99997004000005" class="text">is </text>
<text x="921.00005" y="447.99997770000004" width="76.99996784000007" height="25.99997004000005" class="text">available </text>
<text x="1007.99999884" y="447.99997770000004" width="13.999990959999877" height="25.99997004000005" class="text">to </text>
<text x="1027.99994328" y="447.99997770000004" width="30.000030800000104" height="26.99998290000002" class="text">the </text>
<text x="1061.00001228" y="447.00001038" width="54.99997452000002" height="26.000015579999967" class="text">public</text>
<text x="1116.99995856" y="447.00001038" width="7.000048160000006" height="26.000015579999967" class="text">. </text>
<text x="1133.00001596" y="447.00001038" width="59.999956240000074" height="26.000015579999967" class="text">Finally</text>
<text x="1196.99998216" y="447.00001038" width="7.000048160000006" height="26.000015579999967" class="text">, </text>
<text x="1208.0000402800001" y="447.00001038" width="25.999915480000027" height="26.000015579999967" class="text">the </text>
<text x="1241.99997568" y="447.00001038" width="79.00003427999991" height="27.000005670000007" class="text">Attorney </text>
<text x="1324.00004816" y="445.99999752" width="71.9999861199999" height="25.999992810000037" class="text">General </text>
<text x="1403.99994884" y="445.99999752" width="61.00005091999992" height="25.999992810000037" class="text">intends</text>
<text x="1464.9999997599998" y="445.99999752" width="7.000048160000233" height="25.999992810000037" class="text">, </text>
<text x="1478.0000014" y="445.99999752" width="14.999962720000212" height="25.999992810000037" class="text">at </text>
<text x="1500.00001228" y="445.99999752" width="24.99994371999992" height="25.999992810000037" class="text">the </text>
<text x="1532.99997592" y="445.99999752" width="61.00003335999986" height="27.000005670000007" class="text">earliest
</text>
<text x="141.000002524" y="477.99999918" width="70.99999855600001" height="26.000015579999967" class="text">possible </text>
<text x="219.99998588000003" y="477.99999918" width="102.00003447999998" height="26.99998290000002" class="text">opportunity</text>
<text x="322.99999212" y="477.00000909" width="7.000013039999999" height="25.999992810000037" class="text">, </text>
<text x="335.99999376" y="477.00000909" width="14.999997840000049" height="25.999992810000037" class="text">to </text>
<text x="361.99999704" y="477.00000909" width="44.00002176000004" height="25.999992810000037" class="text">make </text>
<text x="414.0000036" y="477.00000909" width="43.99996907999997" height="25.999992810000037" class="text">these </text>
<text x="465.00002084" y="475.99999622999997" width="54.99997452000008" height="26.000015579999967" class="text">public </text>
<text x="526.99999084" y="475.99999622999997" width="93.99999700000001" height="26.000015579999967" class="text">documents </text>
<text x="629.00000776" y="475.99999622999997" width="76.99998540000001" height="26.999982899999964" class="text">available </text>
<text x="714.00001308" y="475.00000614" width="18.999972679999928" height="25.99999280999998" class="text">on </text>
<text x="741.00000568" y="475.00000614" width="25.99996815999998" height="25.99999280999998" class="text">the </text>
<text x="774.9999937599999" y="475.00000614" width="69.99998992000008" height="25.99999280999998" class="text">Internet </text>
<text x="849.9999654" y="475.00000614" width="19.000042920000055" height="25.99999280999998" class="text">on </text>
<text x="878.0" y="475.00000614" width="26.000020839999934" height="25.99999280999998" class="text">the </text>
<text x="906.9999536799999" y="473.99999327999996" width="107.00001620000012" height="26.00001557999991" class="text">Department </text>
<text x="1018.9999515999999" y="473.99999327999996" width="19.000078040000176" height="26.00001557999991" class="text">of </text>
<text x="1043.00001136" y="473.99999327999996" width="59.999956240000074" height="26.00001557999991" class="text">Justice </text>
<text x="1106.0000058" y="473.99999327999996" width="54.999974519999796" height="26.999982899999964" class="text">World </text>
<text x="1169.0000002400002" y="473.00000319" width="52.00004167999964" height="25.99999280999998" class="text">Wide </text>
<text x="1223.99997476" y="473.00000319" width="40.00001180000004" height="25.99999280999998" class="text">Web </text>
<text x="1272.00000648" y="473.00000319" width="30.000030800000104" height="25.99999280999998" class="text">site</text>
<text x="1303.0000090400001" y="473.00000319" width="6.999942799999872" height="25.99999280999998" class="text">.
</text>
<text x="142.00000589200002" y="528.99999471" width="56.99999354799996" height="28.99998585000003" class="text">Public </text>
<text x="203.0000094" y="528.99999471" width="90.00000459999995" height="28.99998585000003" class="text">Reporting </text>
<text x="300.00000948" y="528.99999471" width="64.99999063999996" height="28.99998585000003" class="text">Burden</text>
<text x="365.00000012" y="528.99999471" width="8.000002359999996" height="28.99998585000003" class="text">. </text>
<text x="380.99998727999997" y="528.99999471" width="58.99998448000008" height="28.99998585000003" class="text">Public </text>
<text x="445.99999548" y="528.99999471" width="82.00001979999996" height="28.99998585000003" class="text">reporting </text>
<text x="532.00002524" y="528.99999471" width="60.99998068000002" height="28.99998585000003" class="text">burden </text>
<text x="600.0000014" y="528.99999471" width="24.999996399999986" height="28.99998585000003" class="text">for </text>
<text x="633.9999894800001" y="528.99999471" width="28.000034599999935" height="28.99998585000003" class="text">this </text>
<text x="669.00001956" y="528.99999471" width="83.99996332" height="28.99998585000003" class="text">collection </text>
<text x="761.99999212" y="528.99999471" width="17.000011599999993" height="28.99998585000003" class="text">of </text>
<text x="788.0000129599999" y="528.99999471" width="98.00000696000006" height="28.99998585000003" class="text">information </text>
<text x="892.99996272" y="528.99999471" width="16.00003984" height="28.99998585000003" class="text">is </text>
<text x="915.99994536" y="528.99999471" width="80.00002360000008" height="28.99998585000003" class="text">estimated </text>
<text x="1003.0000171199999" y="528.99999471" width="17.000011599999993" height="28.99998585000003" class="text">to </text>
<text x="1029.00003796" y="528.99999471" width="65.99990971999978" height="28.99998585000003" class="text">average </text>
<text x="1105.00003404" y="528.99999471" width="24.999943720000147" height="28.99998585000003" class="text">1.5 </text>
<text x="1134.99995948" y="528.99999471" width="49.00000348000026" height="28.99998585000003" class="text">hours </text>
<text x="1190.00003936" y="528.99999471" width="29.999925439999743" height="28.99998585000003" class="text">per </text>
<text x="1222.00001368" y="528.99999471" width="78.99994648000006" height="28.99998585000003" class="text">response</text>
<text x="1302.00003728" y="528.99999471" width="7.999914559999979" height="28.99998585000003" class="text">, </text>
<text x="1315.00003892" y="528.99999471" width="82.99995644" height="28.99998585000003" class="text">including </text>
<text x="1405.00004352" y="528.99999471" width="24.999926160000086" height="28.99998585000003" class="text">the </text>
<text x="1437.00001784" y="528.99999471" width="40.99998355999992" height="28.99998585000003" class="text">time </text>
<text x="1481.0000396" y="528.99999471" width="25.999915480000027" height="28.99998585000003" class="text">for </text>
<text x="1509.99999328" y="528.99999471" width="90.99995880000006" height="28.99998585000003" class="text">reviewing
</text>
<text x="145.00000019200002" y="555.99997761" width="99.000010328" height="31.999978889999966" class="text">instructions</text>
<text x="244.99999984000002" y="555.99997761" width="9.000009239999997" height="31.999978889999966" class="text">, </text>
<text x="255.00001595999998" y="555.99997761" width="85.99997708000001" height="31.999978889999966" class="text">searching </text>
<text x="346.99999920000005" y="555.99997761" width="69.99998991999996" height="31.999978889999966" class="text">existing </text>
<text x="424.00000216" y="555.99997761" width="32.99999876000004" height="31.999978889999966" class="text">data </text>
<text x="465.99999260000004" y="555.99997761" width="66.00003263999997" height="31.999978889999966" class="text">sources</text>
<text x="532.999997" y="555.99997761" width="9.000009240000054" height="31.999978889999966" class="text">, </text>
<text x="546.0000162" y="555.99997761" width="82.99999156000001" height="31.999978889999966" class="text">gathering </text>
<text x="635.0000314800001" y="555.99997761" width="28.999936119999916" height="31.999978889999966" class="text">and </text>
<text x="676.00001504" y="555.99997761" width="99.99996804" height="31.999978889999966" class="text">maintaining </text>
<text x="784.99997476" y="555.99997761" width="27.000045279999995" height="31.999978889999966" class="text">the </text>
<text x="817.99999108" y="555.99997761" width="33.000016319999986" height="31.999978889999966" class="text">data </text>
<text x="859.0000273200001" y="555.99997761" width="60.99992799999984" height="31.999978889999966" class="text">needed</text>
<text x="919.9999553199999" y="555.99997761" width="9.000009240000168" height="31.999978889999966" class="text">, </text>
<text x="932.99997452" y="555.99997761" width="31.99997431999998" height="31.999978889999966" class="text">and </text>
<text x="971.0000252400001" y="555.99997761" width="95.99995807999983" height="31.999978889999966" class="text">completing </text>
<text x="1074.00003148" y="555.99997761" width="31.000002559999984" height="31.999978889999966" class="text">and </text>
<text x="1112.9999486000002" y="555.99997761" width="84.00003355999979" height="31.999978889999966" class="text">reviewing </text>
<text x="1206.9999456" y="555.99997761" width="26.000020839999934" height="31.999978889999966" class="text">the </text>
<text x="1236.99999396" y="555.99997761" width="85.99997708000001" height="31.999978889999966" class="text">collection </text>
<text x="1330.00000164" y="555.99997761" width="18.000000920000048" height="31.999978889999966" class="text">of </text>
<text x="1352.00001252" y="555.99997761" width="103.99997800000006" height="31.999978889999966" class="text">information</text>
<text x="1457.9999516" y="555.99997761" width="8.999991679999994" height="31.999978889999966" class="text">. </text>
<text x="1475.99995252" y="555.99997761" width="41.000088919999826" height="31.999978889999966" class="text">Send </text>
<text x="1524.9999559999999" y="555.99997761" width="90.00009240000009" height="31.999978889999966" class="text">comments
</text>
<text x="141.000002524" y="581.0000031" width="84.00000019599997" height="29.99999871" class="text">regarding </text>
<text x="230.99999131999996" y="581.0000031" width="31.00000256000007" height="29.99999871" class="text">this </text>
<text x="268.99998936" y="581.0000031" width="60.00000892000003" height="29.99999871" class="text">burden </text>
<text x="339.0000144" y="581.0000031" width="69.99997236000002" height="29.99999871" class="text">estimate </text>
<text x="415.99998224" y="581.0000031" width="22.00001087999999" height="29.99999871" class="text">or </text>
<text x="439.99997176000005" y="581.0000031" width="34.00004075999999" height="29.99999871" class="text">any </text>
<text x="479.99998356" y="581.0000031" width="47.000007280000034" height="29.99999871" class="text">other </text>
<text x="531.0000008" y="581.0000031" width="55.999998960000084" height="29.99999871" class="text">aspect </text>
<text x="593.99999524" y="581.0000031" width="17.000011599999993" height="29.99999871" class="text">of </text>
<text x="616.9999778800001" y="581.0000031" width="29.00000635999993" height="29.99999871" class="text">this </text>
<text x="654.00000416" y="581.0000031" width="82.99999156000001" height="29.99999871" class="text">collection </text>
<text x="747.0000294" y="581.0000031" width="16.99995892000004" height="29.99999871" class="text">of </text>
<text x="770.00001204" y="581.0000031" width="98.99999628" height="29.99999871" class="text">information</text>
<text x="873.00001828" y="581.0000031" width="8.999991679999994" height="29.99999871" class="text">, </text>
<text x="882.0000099599999" y="581.0000031" width="84.00003356000013" height="29.99999871" class="text">including </text>
<text x="971.9999969999999" y="581.0000031" width="104.99996732" height="29.99999871" class="text">suggestions </text>
<text x="1079.99998496" y="581.0000031" width="26.00002084000016" height="29.99999871" class="text">for </text>
<text x="1110.00001576" y="581.0000031" width="77.99995716000012" height="29.99999871" class="text">reducing </text>
<text x="1194.00004932" y="581.0000031" width="30.99989719999985" height="29.99999871" class="text">this </text>
<text x="1232.99996644" y="581.0000031" width="58.999984479999966" height="29.99999871" class="text">burden </text>
<text x="1298.9999990800002" y="581.0000031" width="17.000029159999713" height="29.99999871" class="text">to </text>
<text x="1325.0000199199999" y="581.0000031" width="48.00003172000015" height="29.99999871" class="text">Chief</text>
<text x="1371.00000276" y="581.0000031" width="8.999991679999994" height="29.99999871" class="text">, </text>
<text x="1380.9999662" y="581.0000031" width="110.00005439999995" height="29.99999871" class="text">Registration </text>
<text x="1497.9999634" y="581.0000031" width="39.00002247999987" height="29.99999871" class="text">Unit</text>
<text x="1536.00001412" y="581.0000031" width="8.999991679999994" height="29.99999871" class="text">, </text>
<text x="1550.00000508" y="581.0000031" width="77.99995716000012" height="29.99999871" class="text">Criminal
</text>
<text x="145.00000019200002" y="606.99997314" width="72.00000016799999" height="28.999985849999916" class="text">Division</text>
<text x="217.00000036" y="606.99997314" width="8.000002359999968" height="28.999985849999916" class="text">, </text>
<text x="231.9999982" y="606.99997314" width="40.00001179999998" height="28.999985849999916" class="text">U.S. </text>
<text x="272.99999932000003" y="606.99997314" width="110.00000172" height="28.999985849999916" class="text">Department </text>
<text x="384.00000792" y="606.99997314" width="22.000010880000048" height="28.999985849999916" class="text">of </text>
<text x="413.00001427999996" y="606.99997314" width="55.99996384000008" height="28.999985849999916" class="text">Justice</text>
<text x="468.99997812000004" y="606.99997314" width="8.000019919999943" height="28.999985849999916" class="text">, </text>
<text x="479.99998356" y="606.99997314" width="109.0000124" height="28.999985849999916" class="text">Washington</text>
<text x="588.0000242" y="606.99997314" width="7.999967240000046" height="28.999985849999916" class="text">, </text>
<text x="600.0000014" y="606.99997314" width="31.000020120000045" height="28.999985849999916" class="text">DC </text>
<text x="640.99998496" y="606.99997314" width="51.000017240000034" height="28.999985849999916" class="text">20530</text>
<text x="696.00001216" y="606.99997314" width="7.999967240000046" height="28.999985849999916" class="text">; </text>
<text x="705.99999316" y="606.99997314" width="33.000016319999986" height="28.999985849999916" class="text">and </text>
<text x="745.00001564" y="606.99997314" width="16.999976479999987" height="28.999985849999916" class="text">to </text>
<text x="770.00001204" y="606.99997314" width="23.99995439999998" height="28.999985849999916" class="text">the </text>
<text x="801.0000146" y="606.99997314" width="52.99997832000008" height="28.999985849999916" class="text">Office </text>
<text x="864.00000904" y="606.99997314" width="15.999952039999926" height="28.999985849999916" class="text">of </text>
<text x="888.99995276" y="606.99997314" width="99.00010163999991" height="28.999985849999916" class="text">Information </text>
<text x="997.00004608" y="606.99997314" width="28.999953679999862" height="28.999985849999916" class="text">and </text>
<text x="1033.00004792" y="606.99997314" width="99.99996803999989" height="28.999985849999916" class="text">Regulatory </text>
<text x="1141.0000358799998" y="606.99997314" width="60.99992800000018" height="28.999985849999916" class="text">Affairs</text>
<text x="1200.00002036" y="606.99997314" width="8.000019920000113" height="28.999985849999916" class="text">, </text>
<text x="1214.99998308" y="606.99997314" width="51.00005235999993" height="28.999985849999916" class="text">Office </text>
<text x="1276.9999882" y="606.99997314" width="14.999962719999985" height="28.999985849999916" class="text">of </text>
<text x="1298.9999990800002" y="606.99997314" width="115.00003612" height="28.999985849999916" class="text">Management </text>
<text x="1421.99994976" y="606.99997314" width="33.00006899999994" height="28.999985849999916" class="text">and </text>
<text x="1460.00000048" y="606.99997314" width="63.99998376000008" height="28.999985849999916" class="text">Budget</text>
<text x="1522.00002316" y="606.99997314" width="8.000019919999886" height="28.999985849999916" class="text">, </text>
<text x="1532.99997592" y="606.99997314" width="103.99997800000006" height="28.999985849999916" class="text">Washington</text>
<text x="1640.99996388" y="606.99997314" width="8.000019919999886" height="28.999985849999916" class="text">,
</text>
<text x="139.999999156" y="629.99999568" width="30.999995536" height="20.99997404999999" class="text">DC </text>
<text x="180.99999852" y="630.99998577" width="55.00000964" height="21.999964139999975" class="text">20503</text>
<text x="238.99999368000002" y="630.99998577" width="6.000006159999998" height="20.99999681999998" class="text">.
</text>
<text x="162.99999935600002" y="715.0000185900001" width="17.999999163999973" height="30.000044250000087" class="text">1. </text>
<text x="190.99999708" y="716.999976" width="70.00000747999997" height="32.00000165999995" class="text">Name </text>
<text x="269.99999624" y="716.999976" width="23.00001775999999" height="29.9999759399999" class="text">of </text>
<text x="294.00002088" y="719.99999181" width="122.99996823999999" height="32.999991749999936" class="text">Registrant
</text>
<text x="914.0000018400001" y="716.999976" width="23.99995439999998" height="32.00000165999995" class="text">2. </text>
<text x="946.9999654799999" y="716.999976" width="135.00008591999995" height="33.99998183999992" class="text">Registration </text>
<text x="1091.0000430799998" y="715.0000185900001" width="44.99999352000009" height="32.00002443000005" class="text">No.
</text>
<text x="203.99999872" y="777.99998628" width="101.99999936" height="32.00002443000005" class="text">Garvey </text>
<text x="327.00000208" y="776.99999619" width="134.0000088" height="32.000001660000066" class="text">Schubert </text>
<text x="479.99998356" y="775.00001601" width="87.00000152000001" height="32.000001660000066" class="text">Barer
</text>
<text x="949.00001436" y="772.99999029" width="93.9999969999999" height="28.99998585000003" class="text">3047.2
</text>
<text x="143.99999858" y="926.9999897399999" width="19.000000776000007" height="32.999991749999936" class="text">3. </text>
<text x="179.99999164" y="926.9999897399999" width="46.00001796000001" height="32.999991749999936" class="text">This </text>
<text x="229.99998444000002" y="927.99997983" width="136.00002256000002" height="33.99998184000003" class="text">amendment </text>
<text x="369.99998184" y="927.99997983" width="18.000000920000048" height="32.99999175000005" class="text">is </text>
<text x="396.999992" y="927.99997983" width="44.00002176000004" height="32.99999175000005" class="text">filed </text>
<text x="450.9999772" y="927.99997983" width="19.000025360000052" height="32.99999175000005" class="text">to </text>
<text x="479.99998356" y="928.99996992" width="127.00001332000005" height="33.99998184000003" class="text">accomplish </text>
<text x="618.00000232" y="928.99996992" width="31.999991879999925" height="32.999991749999936" class="text">the </text>
<text x="656.0000003600001" y="928.99996992" width="107.00001619999989" height="32.999991749999936" class="text">following </text>
<text x="767.99999828" y="930.00002832" width="98.99999628" height="34.00005014999988" class="text">indicated </text>
<text x="875.00001448" y="930.00002832" width="91.00002904000007" height="32.999991749999936" class="text">purpose </text>
<text x="976.00000696" y="930.00002832" width="18.999972680000155" height="32.999991749999936" class="text">or </text>
<text x="1004.99996064" y="930.00002832" width="100.0000733999999" height="32.999991749999936" class="text">purposes</text>
<text x="1105.00003404" y="930.99999564" width="8.999991680000221" height="32.999991749999936" class="text">:
</text>
<text x="177.99999544" y="996.0000118199999" width="9.000009239999997" height="32.00002442999994" class="text">☐ </text>
<text x="215.00000416" y="996.0000118199999" width="23.999989520000014" height="32.00002442999994" class="text">To </text>
<text x="249.99999912" y="996.0000118199999" width="81.99998467999998" height="32.00002442999994" class="text">correct </text>
<text x="338.00000752" y="996.0000118199999" width="8.99999168000005" height="32.00002442999994" class="text">a </text>
<text x="356.00000844" y="996.0000118199999" width="107.99998796" height="32.00002442999994" class="text">deficiency </text>
<text x="475.0000018399999" y="996.0000118199999" width="18.000000920000048" height="32.00002442999994" class="text">in
</text>
<text x="948.0000425999999" y="997.99996923" width="11.999924520000036" height="39.99994515000003" class="text">□ </text>
<text x="989.0000261600001" y="997.99996923" width="22.000010879999877" height="39.99994515000003" class="text">To </text>
<text x="1021.00000048" y="997.99996923" width="45.999982839999916" height="39.99994515000003" class="text">give </text>
<text x="1075.999975" y="997.99996923" width="12.000029880000056" height="39.99994515000003" class="text">a </text>
<text x="1097.00001412" y="997.99996923" width="22.00001087999999" height="39.99994515000003" class="text">10</text>
<text x="1124.00000672" y="997.99996923" width="12.000029879999829" height="39.99994515000003" class="text">-</text>
<text x="1137.0000259199999" y="997.99996923" width="33.99993540000014" height="39.99994515000003" class="text">day </text>
<text x="1181.00003012" y="997.99996923" width="65.99992728000007" height="39.99994515000003" class="text">notice </text>
<text x="1257.00004376" y="997.99996923" width="22.000010880000218" height="39.99994515000003" class="text">of </text>
<text x="1285.0000081199998" y="997.99996923" width="80.00002360000008" height="39.99994515000003" class="text">change </text>
<text x="1370.00001344" y="997.99996923" width="14.999962719999985" height="39.99994515000003" class="text">in </text>
<text x="1397.99999536" y="997.99996923" width="130.9999706000001" height="39.99994515000003" class="text">information </text>
<text x="1536.99998588" y="997.99996923" width="22.00001087999999" height="39.99994515000003" class="text">as
</text>
<text x="945.0000044" y="1027.00002339" width="93.99999700000001" height="30.000044250000087" class="text">required </text>
<text x="1044.99997244" y="1027.00002339" width="28.000069720000056" height="31.000011570000083" class="text">by </text>
<text x="1080.9999742799998" y="1025.9999877599998" width="82.0000724800002" height="29.9999759399999" class="text">Section </text>
<text x="1173.0000102000001" y="1025.9999877599998" width="9.000009239999827" height="29.9999759399999" class="text">2</text>
<text x="1185.00005764" y="1025.9999877599998" width="8.999991679999994" height="29.9999759399999" class="text">(</text>
<text x="1196.99998216" y="1025.9999877599998" width="8.999991679999994" height="29.9999759399999" class="text">b</text>
<text x="1212.00005024" y="1025.9999877599998" width="8.999991679999766" height="29.9999759399999" class="text">) </text>
<text x="1227.00001296" y="1025.9999877599998" width="22.00001087999999" height="29.9999759399999" class="text">of </text>
<text x="1254.99997732" y="1025.9999877599998" width="34.00004076000005" height="29.9999759399999" class="text">the </text>
<text x="1295.99996088" y="1025.9999877599998" width="43.0000500000001" height="30.999966029999882" class="text">Act</text>
<text x="1335.0000009199998" y="1024.9999976699999" width="8.999991680000221" height="29.9999759399999" class="text">.
</text>
<text x="1419.00001692" y="856.0000330199999" width="33.99995295999997" height="48.00000249000004" class="text">CRM</text>
<text x="1420.00000624" y="873.00002394" width="32.99996364000003" height="10.000037519999978" class="text">/</text>
<text x="1420.00000624" y="915.9999849000001" width="35.00001251999993" height="40.00001345999999" class="text">ISS</text>
<text x="1420.999978" y="932.99997582" width="33.00006899999994" height="9.999969210000131" class="text">/</text>
<text x="1420.999978" y="1114.00000371" width="36.999973599999976" height="179.9999922600001" class="text">RESISTRATION </text>
<text x="1424.0000162000001" y="1180.9999773" width="33.99993539999991" height="58.99998456000003" class="text">UNIT
</text>
<text x="1478.9999907200001" y="882.99999315" width="43.00003243999981" height="52.00000838999995" class="text">206 </text>
<text x="1479.99996248" y="939.9999975300001" width="41.000088919999826" height="41.0000035500002" class="text">APR </text>
<text x="1482.00001136" y="1054.99997361" width="40.999983560000146" height="30.999966029999996" class="text">PM </text>
<text x="1482.00001136" y="1093.9999969799999" width="40.999983560000146" height="23.000022539999918" class="text">12</text>
<text x="1482.00001136" y="1106.999982" width="40.999983560000146" height="11.999994930000184" class="text">: </text>
<text x="1483.00000068" y="1159.0000587000002" width="40.99998355999992" height="38.00003328000025" class="text">23
</text>
<text x="247.0000136" y="1089.99999108" width="6.999995480000024" height="24.0000126299999" class="text">☐ </text>
<text x="279.99999479999997" y="1089.99999108" width="69.00001816000002" height="24.0000126299999" class="text">Initial </text>
<text x="356.00000844" y="1089.99999108" width="111.00002616000006" height="24.0000126299999" class="text">Statement
</text>
<text x="247.0000136" y="1164.9999536999999" width="8.99999168000005" height="29.9999531699998" class="text">☐ </text>
<text x="281.00000168" y="1164.9999536999999" width="155.99998455999997" height="31.999933349999765" class="text">Supplemental </text>
<text x="445.00002372" y="1163.9999863799999" width="112.99996967999999" height="29.999975939999786" class="text">Statement </text>
<text x="559.00001784" y="1163.9999863799999" width="33.99998807999998" height="29.999975939999786" class="text">for </text>
<text x="598.99997696" y="1162.99999629" width="34.00004075999993" height="29.999975939999786" class="text">the </text>
<text x="637.99999944" y="1162.99999629" width="72.99997543999996" height="29.999975939999786" class="text">period </text>
<text x="718.00002304" y="1162.99999629" width="73.99999988000002" height="29.999975939999786" class="text">ending</text>
<text x="795.9999802" y="1162.99999629" width="8.999991679999994" height="29.999975939999786" class="text">.
</text>
<text x="247.0000136" y="1233.000054" width="8.99999168000005" height="32.99999175000016" class="text">☐ </text>
<text x="282.00000855999997" y="1233.000054" width="64.99999064000008" height="32.99999175000016" class="text">Other </text>
<text x="351.99999848" y="1233.000054" width="85.99999464000001" height="32.99999175000016" class="text">purpose </text>
<text x="447.99999168" y="1233.000054" width="9.000009240000054" height="32.99999175000016" class="text">(</text>
<text x="457.99997268" y="1233.000054" width="74.00005256000003" height="32.99999175000016" class="text">specify</text>
<text x="537.99999628" y="1233.000054" width="8.999991679999994" height="32.99999175000016" class="text">)
</text>
<text x="165.00000433600002" y="1300.00002759" width="30.999992023999965" height="33.99998183999992" class="text">XX </text>
<text x="213.99999728" y="1300.00002759" width="24.999996400000015" height="33.99998183999992" class="text">To </text>
<text x="247.99998535999998" y="1300.00002759" width="49.00000348000003" height="33.99998183999992" class="text">give </text>
<text x="303.00001256" y="1300.00002759" width="68.99998304000002" height="33.99998183999992" class="text">notice </text>
<text x="377.00001244000003" y="1300.00002759" width="24.999996399999986" height="33.99998183999992" class="text">of </text>
<text x="408.99998676" y="1300.00002759" width="77.99999228000001" height="33.99998183999992" class="text">change </text>
<text x="494.99999896" y="1300.00002759" width="13.000019199999997" height="33.99998183999992" class="text">in </text>
<text x="524.99997708" y="1300.00002759" width="19.000025359999995" height="33.99998183999992" class="text">an </text>
<text x="553.99998344" y="1300.00002759" width="82.0000197999999" height="33.99998183999992" class="text">exhibit </text>
<text x="638.9999887600001" y="1300.00002759" width="116.00000787999988" height="33.99998183999992" class="text">previously </text>
<text x="765.00003032" y="1300.00002759" width="44.999993519999975" height="33.99998183999992" class="text">filed</text>
<text x="813.0000093599999" y="1300.00002759" width="9.999963440000101" height="33.99998183999992" class="text">.
</text>
<text x="141.000002524" y="1369.99992591" width="24.000001812000022" height="31.99986504000003" class="text">4. </text>
<text x="174.00000304" y="1369.99992591" width="18.00000091999999" height="31.99986504000003" class="text">If </text>
<text x="200.99999563999998" y="1369.99992591" width="35.00001252000001" height="31.99986504000003" class="text">this </text>
<text x="244.99999984000002" y="1369.99992591" width="131.00000571999996" height="31.99986504000003" class="text">amendment </text>
<text x="381.99999416" y="1369.99992591" width="88.99999771999995" height="31.99986504000003" class="text">requires </text>
<text x="483.00002176000004" y="1369.99992591" width="31.99997431999992" height="31.99986504000003" class="text">the </text>
<text x="519.00000604" y="1369.99992591" width="58.00001271999997" height="31.99986504000003" class="text">filing </text>
<text x="586.0000279999999" y="1369.99992591" width="22.9999826400001" height="31.99986504000003" class="text">of </text>
<text x="615.0000167999999" y="1369.99992591" width="9.000009240000054" height="31.99986504000003" class="text">a </text>
<text x="636.999975" y="1369.99992591" width="110.00005440000007" height="31.99986504000003" class="text">document </text>
<text x="752.9999828800001" y="1369.99992591" width="19.00004291999994" height="31.99986504000003" class="text">or </text>
<text x="781.00001748" y="1369.99992591" width="118.99999339999988" height="31.99986504000003" class="text">documents</text>
<text x="900.0000108799999" y="1369.99992591" width="8.999991680000107" height="31.99986504000003" class="text">, </text>
<text x="914.9999736000001" y="1369.99992591" width="69.00005327999997" height="31.99986504000003" class="text">please </text>
<text x="989.99999792" y="1369.99992591" width="34.00004075999993" height="31.99986504000003" class="text">list-
</text>
<text x="215.00000416" y="1442.99993112" width="120.99998959999999" height="25.99997003999988" class="text">Exhibit </text>
<text x="359.00001152" y="1444.00005783" width="6.999995480000052" height="25.000116570000046" class="text">B
</text>
<text x="216.00001104" y="1483.9999346700001" width="67.99999371999996" height="32.99999175000016" class="text">Copy </text>
<text x="302.00000568" y="1483.9999346700001" width="30.99998499999998" height="32.99999175000016" class="text">of </text>
<text x="356.00000844" y="1483.9999346700001" width="136.99999431999998" height="32.99999175000016" class="text">contract </text>
<text x="510.99998612" y="1483.9999346700001" width="82.00001980000002" height="32.99999175000016" class="text">dated </text>
<text x="611.00000684" y="1483.9999346700001" width="137.99996608000004" height="32.99999175000016" class="text">December </text>
<text x="774.0000220000001" y="1483.9999346700001" width="8.999991679999994" height="32.99999175000016" class="text">1</text>
<text x="790.00000916" y="1483.9999346700001" width="9.000009240000054" height="32.99999175000016" class="text">, </text>
<text x="819.99998728" y="1483.9999346700001" width="67.00000439999997" height="32.99999175000016" class="text">2005
</text>
<text x="137.000004856" y="1643.9999885099999" width="25.999994500000014" height="34.9999719299999" class="text">5. </text>
<text x="170.999994692" y="1643.9999885099999" width="54.00000802799997" height="34.9999719299999" class="text">Each </text>
<text x="238.00000436" y="1643.9999885099999" width="45.00001107999998" height="34.9999719299999" class="text">item </text>
<text x="291.00000024" y="1643.9999885099999" width="93.00000767999995" height="34.9999719299999" class="text">checked </text>
<text x="394.00000647999997" y="1643.9999885099999" width="62.00002268000003" height="34.9999719299999" class="text">above </text>
<text x="468.00000636" y="1643.9999885099999" width="55.000027200000034" height="34.9999719299999" class="text">must </text>
<text x="526.00000152" y="1643.9999885099999" width="25.999968160000094" height="34.9999719299999" class="text">be </text>
<text x="562.00000336" y="1643.9999885099999" width="105.00000244" height="34.9999719299999" class="text">explained </text>
<text x="676.00001504" y="1643.9999885099999" width="60.99998068000002" height="34.9999719299999" class="text">below </text>
<text x="750.99998668" y="1643.9999885099999" width="19.99999711999999" height="34.9999719299999" class="text">in </text>
<text x="779.00000372" y="1643.9999885099999" width="40.99998356000003" height="34.9999719299999" class="text">full </text>
<text x="822.9999728" y="1643.9999885099999" width="62.00007535999987" height="34.9999719299999" class="text">detail </text>
<text x="891.00000164" y="1643.9999885099999" width="90.00000460000001" height="34.9999719299999" class="text">together </text>
<text x="985.9999879600001" y="1643.9999885099999" width="45.999965279999856" height="34.9999719299999" class="text">with</text>
<text x="1038.00002964" y="1643.9999885099999" width="9.999980999999934" height="34.9999719299999" class="text">, </text>
<text x="1048.00001064" y="1643.9999885099999" width="70.00002504000008" height="34.9999719299999" class="text">where </text>
<text x="1128.9999884400002" y="1643.9999885099999" width="125.00001711999994" height="34.9999719299999" class="text">appropriate</text>
<text x="1254.99997732" y="1643.9999885099999" width="9.999980999999934" height="34.9999719299999" class="text">, </text>
<text x="1267.99999652" y="1643.9999885099999" width="88.0000259599999" height="34.9999719299999" class="text">specific </text>
<text x="1363.9999546000001" y="1643.9999885099999" width="100.00007340000002" height="34.9999719299999" class="text">reference </text>
<text x="1472.00004792" y="1643.9999885099999" width="19.999944440000036" height="34.9999719299999" class="text">to </text>
<text x="1504.00002224" y="1643.9999885099999" width="35.000030080000215" height="34.9999719299999" class="text">and </text>
<text x="1549.00001576" y="1643.9999885099999" width="77.99995716000012" height="34.9999719299999" class="text">identity
</text>
<text x="141.000002524" y="1677.99994758" width="20.000004144000002" height="34.999949159999915" class="text">of </text>
<text x="165.99999365600002" y="1677.99994758" width="35.000001983999965" height="34.999949159999915" class="text">the </text>
<text x="208.999998" y="1677.99994758" width="45.00001108000001" height="34.999949159999915" class="text">item </text>
<text x="264.00000764" y="1677.99994758" width="19.99999711999999" height="34.999949159999915" class="text">in </text>
<text x="292.00000712" y="1677.99994758" width="34.99999495999998" height="34.999949159999915" class="text">the </text>
<text x="333.99999756" y="1677.99994758" width="125.99998887999999" height="34.999949159999915" class="text">registration </text>
<text x="472.00001632" y="1677.99994758" width="107.0000162" height="34.999949159999915" class="text">statement </text>
<text x="584.00001424" y="1677.99994758" width="13.000001639999937" height="34.999949159999915" class="text">to </text>
<text x="606.00002512" y="1677.99994758" width="65.99997996000002" height="34.999949159999915" class="text">which </text>
<text x="685.00000672" y="1677.99994758" width="13.000019199999997" height="34.999949159999915" class="text">it </text>
<text x="707.0000176000001" y="1677.99994758" width="88.99996259999989" height="34.999949159999915" class="text">pertains</text>
<text x="795.00000844" y="1677.99994758" width="9.999963439999988" height="34.999949159999915" class="text">. </text>
<text x="815.9999773200001" y="1677.99994758" width="10.000033679999888" height="34.999949159999915" class="text">(</text>
<text x="823.99999724" y="1677.99994758" width="20.00001468000005" height="34.999949159999915" class="text">If </text>
<text x="851.99997916" y="1677.99994758" width="58.000012720000086" height="34.999949159999915" class="text">space </text>
<text x="922.9999935200001" y="1677.99994758" width="13.000019199999883" height="34.999949159999915" class="text">is </text>
<text x="948.0000425999999" y="1677.99994758" width="127.99993240000003" height="34.999949159999915" class="text">insufficient</text>
<text x="1071.99996504" y="1677.99994758" width="10.000086359999841" height="34.999949159999915" class="text">, </text>
<text x="1085.9999559999999" y="1677.99994758" width="10.000086360000068" height="34.999949159999915" class="text">a </text>
<text x="1115.9999868" y="1677.99994758" width="39.00002247999987" height="34.999949159999915" class="text">full </text>
<text x="1160.9999803199998" y="1677.99994758" width="63.99996620000002" height="34.999949159999915" class="text">insert </text>
<text x="1227.9999847200002" y="1677.99994758" width="58.00001271999986" height="34.999949159999915" class="text">page </text>
<text x="1298.00002732" y="1677.99994758" width="49.99997523999991" height="34.999949159999915" class="text">must </text>
<text x="1353.9999736" y="1677.99994758" width="26.000020839999934" height="34.999949159999915" class="text">be </text>
<text x="1385.99996548" y="1677.99994758" width="50.00008060000005" height="34.999949159999915" class="text">used</text>
<text x="1438.99997892" y="1677.99994758" width="9.999963439999874" height="34.999949159999915" class="text">.</text>
<text x="1446.0000270799999" y="1677.99994758" width="9.999963440000101" height="34.999949159999915" class="text">)
</text>
<text x="177.00000612" y="1740.9999835800002" width="105.00000243999997" height="32.99999175000016" class="text">Notice </text>
<text x="297.99999572" y="1739.99999349" width="34.99999495999998" height="31.000011569999742" class="text">of </text>
<text x="350.99999160000004" y="1741.99997367" width="103.00002380000001" height="32.99999174999971" class="text">change </text>
<text x="472.00001632" y="1741.99997367" width="32.999963639999976" height="31.000034339999957" class="text">to </text>
<text x="524.99997708" y="1742.9999637600001" width="115.00003612" height="32.00002443000017" class="text">Exhibit </text>
<text x="667.0000058" y="1742.9999637600001" width="9.00000923999994" height="30.999897720000263" class="text">B</text>
<text x="685.99997848" y="1742.9999637600001" width="9.00000923999994" height="30.999897720000263" class="text">, </text>
<text x="716.9999986" y="1743.9999310800001" width="8.999991679999994" height="30.99987495000005" class="text">a </text>
<text x="748.00000116" y="1743.9999310800001" width="47.99997903999997" height="30.99987495000005" class="text">new </text>
<text x="819.99998728" y="1746.00004788" width="135.99996987999998" height="32.999991749999936" class="text">contract </text>
<text x="975.0000352000001" y="1746.00004788" width="28.999953679999976" height="31.000034340000184" class="text">to </text>
<text x="1024.00003868" y="1748.00000529" width="121.00000716" height="32.99999175000016" class="text">provide </text>
<text x="1163.00004676" y="1748.9999953800002" width="169.99999307999997" height="32.99999175000016" class="text">monitoring </text>
<text x="1353.00000184" y="1748.9999953800002" width="48.000031719999924" height="31.000034340000184" class="text">and </text>
<text x="1424.99998796" y="1750.99995279" width="83.00004424000008" height="32.999991749999936" class="text">legal
</text>
<text x="180.99999852" y="1774.99996542" width="101.00001003999998" height="31.000034339999957" class="text">advice </text>
<text x="300.99999879999996" y="1774.99996542" width="27.999999480000042" height="29.999907630000052" class="text">on </text>
<text x="350.99999160000004" y="1775.9999555099998" width="51.00001723999998" height="30.999897719999808" class="text">the </text>
<text x="424.00000216" y="1778.00004954" width="249.99999911999998" height="32.999991749999936" class="text">reauthorization </text>
<text x="696.00001216" y="1778.00004954" width="32.99996364000003" height="30.000044249999974" class="text">of </text>
<text x="750.99998668" y="1779.00003963" width="47.00000727999998" height="31.000034339999957" class="text">the </text>
<text x="815.9999773200001" y="1780.00000695" width="138.00001875999988" height="32.00000165999995" class="text">Magnuson</text>
<text x="959.99996712" y="1780.00000695" width="8.999991679999994" height="30.000044249999746" class="text">-</text>
<text x="976.00000696" y="1780.99999704" width="116.00002544000006" height="31.00003433999973" class="text">Stevens </text>
<text x="1109.0000440000001" y="1781.99998713" width="121.00000716" height="31.000034339999957" class="text">Fishery </text>
<text x="1248.00003452" y="1784.9999346299999" width="203.99994603999994" height="32.99999174999971" class="text">Conservation </text>
<text x="1473.99999144" y="1783.9999445400001" width="47.00005995999982" height="29.999907630000052" class="text">and
</text>
<text x="175.99999924" y="1812.0000313799999" width="173.00001372" height="32.00002442999994" class="text">Management </text>
<text x="369.99998184" y="1812.0000313799999" width="49.000021040000036" height="32.00002442999994" class="text">Act </text>
<text x="434.99999004" y="1812.0000313799999" width="35.00001252000004" height="32.00002442999994" class="text">as </text>
<text x="490.999989" y="1812.0000313799999" width="151.00003796" height="32.00002442999994" class="text">described </text>
<text x="663.9999676" y="1812.0000313799999" width="29.000006360000043" height="32.00002442999994" class="text">in </text>
<text x="714.99998484" y="1812.0000313799999" width="136.00002255999993" height="32.00002442999994" class="text">contract</text>
<text x="858.00000288" y="1812.0000313799999" width="8.999991679999994" height="32.00002442999994" class="text">.
</text>
<text x="1533.9999476799999" y="2170.00001295" width="41.00008892000005" height="16.000000829999863" class="text">FORM </text>
<text x="1581.9999794" y="2171.00000304" width="31.999991879999925" height="16.000000829999863" class="text">CRM</text>
<text x="1620.00003012" y="2171.00000304" width="4.000027520000003" height="16.000000829999863" class="text">-</text>
<text x="1626.9999729200001" y="2171.00000304" width="21.000039119999883" height="16.000000829999863" class="text">158
</text>
<text x="1580.0000358799998" y="2188.99998405" width="24.999926160000086" height="15.000033509999867" class="text">SEP</text>
<text x="1609.99996132" y="2188.99998405" width="4.000009959999943" height="15.000033509999867" class="text">. </text>
<text x="1617.00000948" y="2188.99998405" width="31.999974319999865" height="15.000033509999867" class="text">1996
</text>
</g>
<g id="page-1" transform="translate(0, 2297)">
<rect width="1756" height="2277" fill="none" stroke="black" />
<text x="741.00000568" y="186.00000111" width="203.99999872" height="30.000010094999993" class="text">EXECUTION
</text>
<text x="189.9999902" y="259.99999641" width="20.000014679999992" height="35.00000153099998" class="text">In </text>
<text x="220.99999276" y="259.99999641" width="126.00000644000005" height="35.00000153099998" class="text">accordance </text>
<text x="350.00001984" y="259.99999641" width="46.99997216000003" height="35.00000153099998" class="text">with </text>
<text x="412.0000074" y="259.99999641" width="25.999985719999984" height="35.00000153099998" class="text">28 </text>
<text x="445.99999548" y="259.99999641" width="80.00000603999996" height="35.00000153099998" class="text">U.S.C. </text>
<text x="532.00002524" y="259.99999641" width="9.999981000000048" height="35.00000153099998" class="text">§ </text>
<text x="551.99996968" y="259.99999641" width="54.00005543999998" height="35.00000153099998" class="text">1746</text>
<text x="609.00001064" y="259.99999641" width="9.999963439999988" height="35.00000153099998" class="text">, </text>
<text x="624.9999978" y="259.99999641" width="29.999978120000037" height="35.00000153099998" class="text">the </text>
<text x="663.9999676" y="259.99999641" width="135.00005080000005" height="35.00000153099998" class="text">undersigned </text>
<text x="806.00001388" y="259.99999641" width="64.99999064000008" height="35.00000153099998" class="text">swear</text>
<text x="871.9999762799999" y="259.99999641" width="10.000033680000001" height="35.00000153099998" class="text">(</text>
<text x="882.0000099599999" y="259.99999641" width="9.999981000000048" height="35.00000153099998" class="text">s</text>
<text x="892.99996272" y="259.99999641" width="10.000086360000068" height="35.00000153099998" class="text">) </text>
<text x="909.00000256" y="259.99999641" width="26.000020840000047" height="35.00000153099998" class="text">or </text>
<text x="941.9999662" y="259.99999641" width="60.00006159999998" height="35.00000153099998" class="text">affirm</text>
<text x="1007.99999884" y="259.99999641" width="9.999980999999934" height="35.00000153099998" class="text">(</text>
<text x="1018.9999515999999" y="259.99999641" width="10.000086360000182" height="35.00000153099998" class="text">s</text>
<text x="1029.00003796" y="259.99999641" width="9.999963439999874" height="35.00000153099998" class="text">) </text>
<text x="1042.0000396" y="259.99999641" width="67.99997615999996" height="35.00000153099998" class="text">under </text>
<text x="1115.9999868" y="259.99999641" width="75.00002431999997" height="35.00000153099998" class="text">penalty </text>
<text x="1203.000041" y="259.99999641" width="25.999915480000027" height="35.00000153099998" class="text">of </text>
<text x="1231.00002292" y="259.99999641" width="81.99996712000006" height="35.00000153099998" class="text">perjury </text>
<text x="1321.99998172" y="259.99999641" width="39.00004003999993" height="35.00000153099998" class="text">that </text>
<text x="1367.99996456" y="259.99999641" width="26.000020839999934" height="35.00000153099998" class="text">he</text>
<text x="1392.99999608" y="259.99999641" width="9.999980999999934" height="35.00000153099998" class="text">/</text>
<text x="1403.99994884" y="259.99999641" width="35.000030080000215" height="35.00000153099998" class="text">she </text>
<text x="1445.00003776" y="259.99999641" width="40.00001180000004" height="35.00000153099998" class="text">has </text>
<text x="1499.00004052" y="259.99999641" width="49.00000348000003" height="35.00000153099998" class="text">they
</text>
<text x="82.99999682800001" y="292.99998816" width="52.00000129199998" height="31.999978889999966" class="text">have </text>
<text x="155.000002264" y="292.99998816" width="43.999997175999994" height="31.999978889999966" class="text">read </text>
<text x="208.999998" y="292.99998816" width="32.99999875999998" height="31.999978889999966" class="text">the </text>
<text x="250.99998844" y="292.99998816" width="128.00000263999996" height="31.999978889999966" class="text">information </text>
<text x="391.99999271999997" y="292.99998816" width="31.000020120000045" height="31.999978889999966" class="text">set </text>
<text x="425.99999836" y="292.99998816" width="51.999971440000024" height="31.999978889999966" class="text">forth </text>
<text x="488.00000348" y="292.99998816" width="18.00000091999999" height="31.999978889999966" class="text">in </text>
<text x="517.0000098400001" y="292.99998816" width="40.99998355999992" height="31.999978889999966" class="text">this </text>
<text x="564.99998888" y="292.99998816" width="124.99999955999988" height="31.999978889999966" class="text">registration </text>
<text x="698.99999768" y="292.99998816" width="107.99998796" height="31.999978889999966" class="text">statement </text>
<text x="813.99998112" y="292.99998816" width="37.00002627999993" height="31.999978889999966" class="text">and </text>
<text x="860.9999708400001" y="292.99998816" width="31.999991879999925" height="31.999978889999966" class="text">the </text>
<text x="900.99998264" y="292.99998816" width="85.00000532000013" height="31.999978889999966" class="text">attached </text>
<text x="999.00000716" y="292.99998816" width="86.99994883999989" height="31.999978889999966" class="text">exhibits </text>
<text x="1096.00004236" y="292.99998816" width="36.999973599999976" height="31.999978889999966" class="text">and </text>
<text x="1141.0000358799998" y="292.99998816" width="44.99999352000009" height="31.999978889999966" class="text">that </text>
<text x="1187.00000116" y="292.99998816" width="28.999953679999862" height="31.999978889999966" class="text">he</text>
<text x="1213.99999376" y="292.99998816" width="9.000009240000054" height="31.999978889999966" class="text">/</text>
<text x="1223.99997476" y="292.99998816" width="36.999973599999976" height="31.999978889999966" class="text">she </text>
<text x="1264.99995832" y="292.99998816" width="18.000000920000048" height="31.999978889999966" class="text">is </text>
<text x="1294.0000173600001" y="292.99998816" width="8.999991679999994" height="31.999978889999966" class="text">(</text>
<text x="1300.99996016" y="292.99998816" width="48.00003172000015" height="31.999978889999966" class="text">they </text>
<text x="1357.9999835600001" y="292.99998816" width="33.00006899999971" height="31.999978889999966" class="text">are</text>
<text x="1392.99999608" y="292.99998816" width="9.000009239999827" height="31.999978889999966" class="text">) </text>
<text x="1406.0000152799998" y="292.99998816" width="89.00001528000007" height="31.999978889999966" class="text">familiar </text>
<text x="1497.9999634" y="292.99998816" width="48.000031719999924" height="31.999978889999966" class="text">with </text>
<text x="1557.00003568" y="292.99998816" width="31.999991879999925" height="31.999978889999966" class="text">the
</text>
<text x="85.000001808" y="327.99998286" width="92.000004312" height="33.99995906999999" class="text">contents </text>
<text x="184.99999092" y="327.99998286" width="82.00000223999999" height="33.99995906999999" class="text">thereof </text>
<text x="272.99999932000003" y="327.99998286" width="39.00000491999998" height="33.99995906999999" class="text">and </text>
<text x="317.00000352" y="327.99998286" width="42.999979759999974" height="33.99995906999999" class="text">that </text>
<text x="368.00000320000004" y="327.99998286" width="47.00000727999992" height="33.99995906999999" class="text">such </text>
<text x="424.99999148" y="327.99998286" width="96.00002832000001" height="33.99995906999999" class="text">contents </text>
<text x="528.00001528" y="327.99998286" width="29.999978120000037" height="33.99995906999999" class="text">are </text>
<text x="569.9999706" y="327.99998286" width="13.000019199999997" height="33.99995906999999" class="text">in </text>
<text x="598.0000051999999" y="327.99998286" width="46.00001796000015" height="33.99995906999999" class="text">their </text>
<text x="651.9999904" y="327.99998286" width="85.99997708000001" height="33.99995906999999" class="text">entirety </text>
<text x="747.0000294" y="327.99998286" width="39.99995911999997" height="33.99995906999999" class="text">true </text>
<text x="797.0000046399999" y="327.99998286" width="37.99999804000004" height="33.99995906999999" class="text">and </text>
<text x="844.00001192" y="327.99998286" width="86.00002975999996" height="33.99995906999999" class="text">accurate </text>
<text x="944.00003264" y="327.99998286" width="13.000001639999937" height="33.99995906999999" class="text">to </text>
<text x="970.00005348" y="327.99998286" width="33.99993540000003" height="33.99995906999999" class="text">the </text>
<text x="1007.99999884" y="327.99998286" width="49.00000348000003" height="33.99995906999999" class="text">best </text>
<text x="1064.00005048" y="327.99998286" width="24.99994371999992" height="33.99995906999999" class="text">of </text>
<text x="1092.0000324" y="327.99998286" width="32.99994607999997" height="33.99995906999999" class="text">his</text>
<text x="1123.00003496" y="327.99998286" width="9.999980999999934" height="33.99995906999999" class="text">/</text>
<text x="1132.00002664" y="327.99998286" width="38.999934680000024" height="33.99995906999999" class="text">her </text>
<text x="1173.99999952" y="327.99998286" width="9.999963440000101" height="33.99995906999999" class="text">(</text>
<text x="1183.9999629600002" y="327.99998286" width="49.000003479999805" height="33.99995906999999" class="text">their</text>
<text x="1237.99996572" y="327.99998286" width="10.000068800000008" height="33.99995906999999" class="text">) </text>
<text x="1250.99996736" y="327.99998286" width="124.00004535999983" height="33.99995906999999" class="text">knowledge </text>
<text x="1380.9999662" y="327.99998286" width="38.00005071999999" height="33.99995906999999" class="text">and </text>
<text x="1427.0000544" y="327.99998286" width="65.99990972000023" height="33.99995906999999" class="text">belief</text>
<text x="1492.9999641200002" y="327.99998286" width="10.000086359999841" height="33.99995906999999" class="text">, </text>
<text x="1505.99998332" y="327.99998286" width="75.99999608000007" height="33.99995906999999" class="text">except
</text>
<text x="84.000000196" y="361.00002014999995" width="43.000002588" height="34.00000460999996" class="text">that </text>
<text x="131.000000452" y="361.00002014999995" width="34.99999320400002" height="34.00000460999996" class="text">the </text>
<text x="175.000006408" y="361.00002014999995" width="131.99999855200002" height="34.00000460999996" class="text">undersigned </text>
<text x="322.99999212" y="361.00002014999995" width="57.99999515999997" height="34.00000460999996" class="text">make</text>
<text x="378.99999108" y="361.00002014999995" width="9.999998560000051" height="34.00000460999996" class="text">(</text>
<text x="388.99998964" y="361.00002014999995" width="9.999998559999995" height="34.00000460999996" class="text">s</text>
<text x="402.99999816" y="361.00002014999995" width="10.000016119999941" height="34.00000460999996" class="text">) </text>
<text x="414.0000036" y="361.00002014999995" width="31.000020119999988" height="34.00000460999996" class="text">no </text>
<text x="448.99998100000005" y="361.00002014999995" width="158.00001587999998" height="34.00000460999996" class="text">representation </text>
<text x="620.99998784" y="361.00002014999995" width="19.99999711999999" height="34.00000460999996" class="text">as </text>
<text x="647.99998044" y="361.00002014999995" width="19.00002536000011" height="34.00000460999996" class="text">to </text>
<text x="674.99997304" y="361.00002014999995" width="35.00003007999999" height="34.00000460999996" class="text">the </text>
<text x="716.00000928" y="361.00002014999995" width="49.999992800000086" height="34.00000460999996" class="text">truth </text>
<text x="775.99998308" y="361.00002014999995" width="25.000031519999993" height="34.00000460999996" class="text">or </text>
<text x="806.00001388" y="361.00002014999995" width="95.99994052" height="34.00000460999996" class="text">accuracy </text>
<text x="912.00004076" y="361.00002014999995" width="24.99994371999992" height="34.00000460999996" class="text">of </text>
<text x="940.99999444" y="361.00002014999995" width="34.00004076000005" height="34.00000460999996" class="text">the </text>
<text x="982.9999497599999" y="361.00002014999995" width="123.00005604000012" height="34.00000460999996" class="text">information </text>
<text x="1120.99996852" y="361.00002014999995" width="102.00003448000007" height="34.00000460999996" class="text">contained </text>
<text x="1233.9999557600001" y="361.00002014999995" width="13.000001639999937" height="34.00000460999996" class="text">in </text>
<text x="1259.9999765999999" y="361.00002014999995" width="34.000040760000275" height="34.00000460999996" class="text">the </text>
<text x="1303.99999836" y="361.00002014999995" width="88.99999772000001" height="34.00000460999996" class="text">attached </text>
<text x="1400.0000442399999" y="361.00002014999995" width="62.99999444000014" height="34.00000460999996" class="text">Short </text>
<text x="1469.00000972" y="361.00002014999995" width="57.999995160000026" height="34.00000460999996" class="text">Form
</text>
<text x="82.00000048400001" y="394.99997922" width="136.999996076" height="32.99999174999999" class="text">Registration </text>
<text x="229.99998444000002" y="394.99997922" width="114.00001167999997" height="32.99999174999999" class="text">Statement</text>
<text x="343.99999612" y="394.99997922" width="8.99999168000005" height="32.99999174999999" class="text">(</text>
<text x="352.99998780000004" y="394.99997922" width="9.00000923999994" height="32.99999174999999" class="text">s</text>
<text x="363.00000392" y="394.99997922" width="8.99999168000005" height="32.99999174999999" class="text">)</text>
<text x="373.00000248" y="394.99997922" width="8.99999168000005" height="32.99999174999999" class="text">, </text>
<text x="386.00000411999997" y="394.99997922" width="19.00000779999999" height="32.99999174999999" class="text">if </text>
<text x="413.00001427999996" y="394.99997922" width="37.99996292000003" height="32.99999174999999" class="text">any</text>
<text x="448.99998100000005" y="394.99997922" width="8.999991679999937" height="32.99999174999999" class="text">, </text>
<text x="461.9999826399999" y="394.99997922" width="80.00002360000013" height="32.99999174999999" class="text">insofar </text>
<text x="546.99998796" y="394.99997922" width="24.999996399999986" height="32.99999174999999" class="text">as </text>
<text x="577.99999052" y="394.99997922" width="49.99999279999997" height="32.99999174999999" class="text">such </text>
<text x="638.9999887600001" y="394.99997922" width="124.00002779999988" height="32.99999174999999" class="text">information </text>
<text x="772.99999756" y="394.99997922" width="19.000025359999995" height="32.99999174999999" class="text">is </text>
<text x="797.99999396" y="394.99997922" width="37.00000871999998" height="32.99999174999999" class="text">not </text>
<text x="840.00000196" y="394.99997922" width="66.9999517199999" height="32.99999174999999" class="text">within </text>
<text x="917.0000224799999" y="394.99997922" width="32.999963640000146" height="32.99999174999999" class="text">his</text>
<text x="950.99997544" y="394.99997922" width="8.999991679999994" height="32.99999174999999" class="text">/</text>
<text x="954.9999853999999" y="394.99997922" width="38.000050720000104" height="32.99999174999999" class="text">her </text>
<text x="999.99997892" y="394.99997922" width="8.999991679999994" height="32.99999174999999" class="text">(</text>
<text x="1009.9999423600001" y="394.99997922" width="51.00006991999987" height="32.99999174999999" class="text">their</text>
<text x="1062.99997336" y="394.99997922" width="8.999991679999994" height="32.99999174999999" class="text">) </text>
<text x="1079.0000132" y="394.99997922" width="94.99998632000006" height="32.99999174999999" class="text">personal </text>
<text x="1181.00003012" y="394.99997922" width="119.99993003999998" height="32.99999174999999" class="text">knowledge</text>
<text x="1303.99999836" y="394.99997922" width="8.999991679999994" height="32.99999174999999" class="text">.
</text>
<text x="87.00000152" y="494.99999010000005" width="8.999998704000006" height="29.99997594000007" class="text">(</text>
<text x="92.000002556" y="494.99999010000005" width="55.00000437200001" height="29.99997594000007" class="text">Date </text>
<text x="153.999998896" y="496.00000295999996" width="28.000006504000027" height="30.000021479999987" class="text">of </text>
<text x="187.00000468" y="496.99999305" width="97.99998940000003" height="31.999978890000023" class="text">signature</text>
<text x="291.00000024" y="496.99999305" width="9.000009239999997" height="29.999975940000013" class="text">)
</text>
<text x="896.0000009199999" y="498.00000590999997" width="9.999981000000162" height="34.9999947" class="text">(</text>
<text x="909.00000256" y="498.00000590999997" width="54.99997452000002" height="34.9999947" class="text">Type </text>
<text x="968.9999588" y="498.00000590999997" width="26.00002084000016" height="34.9999947" class="text">or </text>
<text x="999.99997892" y="498.00000590999997" width="53.00001344000009" height="34.9999947" class="text">print </text>
<text x="1060.00004052" y="498.00000590999997" width="61.999917319999895" height="34.9999947" class="text">name </text>
<text x="1125.9999678" y="498.00000590999997" width="64.00007156000015" height="34.9999947" class="text">under </text>
<text x="1195.99999284" y="498.00000590999997" width="50.99996456000008" height="34.9999947" class="text">each </text>
<text x="1257.00004376" y="498.00000590999997" width="100.99993980000022" height="34.9999947" class="text">signature</text>
<text x="1357.9999835600001" y="498.00000590999997" width="9.999980999999934" height="34.9999947" class="text">'</text>
<text x="1369.00004168" y="498.00000590999997" width="9.999980999999934" height="34.9999947" class="text">)
</text>
<text x="295.99999952" y="592.00003071" width="187.00002224000002" height="111.00001572000002" class="text">4/14/06
</text>
<text x="1732.0000456" y="1308.00001662" width="1.999943519999988" height="8.999979119999807" class="text">1
</text>
<text x="1428.99999792" y="1486.0000286999998" width="40.99998355999992" height="52.00007669999991" class="text">CRM</text>
<text x="1424.99998796" y="1506.9999572099998" width="34.00004076000005" height="15.000010739999652" class="text">/</text>
<text x="1416.99996804" y="1544.99999049" width="40.00001179999981" height="42.99996095999995" class="text">ISS</text>
<text x="1414.0000352000002" y="1561.99998141" width="33.99993539999991" height="15.000010740000107" class="text">/</text>
<text x="1378.00003336" y="1738.00003608" width="68.9999654799999" height="182.00008629000013" class="text">REGISTRATION </text>
<text x="1366.00000348" y="1805.00000967" width="44.00002175999998" height="59.999951880000026" class="text">UNIT
</text>
<text x="1483.00000068" y="1530.99996984" width="49.00000348000003" height="57.00000437999984" class="text">2006 </text>
<text x="1470.99995324" y="1588.99994154" width="47.000059960000044" height="51.99994007999999" class="text">APR</text>
<text x="1466.99994328" y="1612.99995417" width="40.00001180000004" height="18.999948329999825" class="text">-</text>
<text x="1460.9999897999999" y="1640.00005092" width="39.999994240000206" height="19.000084949999973" class="text">7 </text>
<text x="1450.0000370399998" y="1691.9999910000001" width="41.999955320000254" height="26.99996013000009" class="text">PM </text>
<text x="1427.0000544" y="1794.00005037" width="56.99991804000001" height="89.00000604000002" class="text">12:24
</text>
<text x="97.999999936" y="2145.000033" width="27.999999480000014" height="24.00001263000013" class="text">This </text>
<text x="129.999997084" y="2145.000033" width="68.00001303600001" height="24.00001263000013" class="text">statement </text>
<text x="200.99999563999998" y="2145.000033" width="32.00000944000004" height="24.00001263000013" class="text">shall </text>
<text x="231.9999982" y="2145.000033" width="18.00000092000002" height="24.00001263000013" class="text">be </text>
<text x="253.00000219999998" y="2145.000033" width="41.99999044000003" height="24.00001263000013" class="text">signed </text>
<text x="300.00000948" y="2145.000033" width="17.999983359999987" height="24.00001263000013" class="text">by </text>
<text x="322.99999212" y="2145.000033" width="21.00000399999999" height="24.00001263000013" class="text">the </text>
<text x="346.99999920000005" y="2145.000033" width="68.00001127999991" height="24.00001263000013" class="text">individual </text>
<text x="417.999996" y="2145.000033" width="39.00000492000004" height="24.00001263000013" class="text">agent</text>
<text x="454.00001540000005" y="2145.000033" width="6.999995479999939" height="24.00001263000013" class="text">, </text>
<text x="461.9999826399999" y="2145.000033" width="10.000033680000058" height="24.00001263000013" class="text">if </text>
<text x="476.99999804" y="2145.000033" width="20.999986440000043" height="24.00001263000013" class="text">the </text>
<text x="499.99998067999996" y="2145.000033" width="62.999994439999966" height="24.00001263000013" class="text">registrant </text>
<text x="568.00002708" y="2145.000033" width="8.999991679999994" height="24.00001263000013" class="text">is </text>
<text x="580.00000428" y="2145.000033" width="18.000000919999934" height="24.00001263000013" class="text">an </text>
<text x="604.00001136" y="2145.000033" width="65.00000820000002" height="24.00001263000013" class="text">individual</text>
<text x="667.0000058" y="2145.000033" width="6.999995479999939" height="24.00001263000013" class="text">, </text>
<text x="676.9999868" y="2145.000033" width="14.000043639999944" height="24.00001263000013" class="text">or </text>
<text x="692.99997396" y="2145.000033" width="18.000000919999934" height="24.00001263000013" class="text">by </text>
<text x="714.99998484" y="2145.000033" width="6.999995479999939" height="24.00001263000013" class="text">a </text>
<text x="728.9999758" y="2145.000033" width="53.000013439999975" height="24.00001263000013" class="text">majority </text>
<text x="788.0000129599999" y="2145.000033" width="13.00000164000005" height="24.00001263000013" class="text">of </text>
<text x="806.00001388" y="2145.000033" width="33.000016319999986" height="24.00001263000013" class="text">those </text>
<text x="841.99999816" y="2145.000033" width="54.000002759999916" height="24.00001263000013" class="text">partners</text>
<text x="897.99994444" y="2145.000033" width="7.000048159999892" height="24.00001263000013" class="text">, </text>
<text x="904.9999925999999" y="2145.000033" width="52.00004167999998" height="24.00001263000013" class="text">officers</text>
<text x="954.9999853999999" y="2145.000033" width="7.000048160000119" height="24.00001263000013" class="text">, </text>
<text x="964.99994884" y="2145.000033" width="56.00005164000004" height="24.00001263000013" class="text">directors </text>
<text x="1027.99994328" y="2145.000033" width="13.000019199999997" height="24.00001263000013" class="text">or </text>
<text x="1044.00000068" y="2145.000033" width="49.99997523999991" height="24.00001263000013" class="text">persons </text>
<text x="1100.0000523200001" y="2145.000033" width="70.99990899999989" height="24.00001263000013" class="text">performing </text>
<text x="1178.00000948" y="2145.000033" width="43.00003243999981" height="24.00001263000013" class="text">similar </text>
<text x="1224.9999465199999" y="2145.000033" width="61.00005092000015" height="24.00001263000013" class="text">functions</text>
<text x="1285.99999744" y="2145.000033" width="7.000048160000006" height="24.00001263000013" class="text">, </text>
<text x="1294.99998912" y="2145.000033" width="9.000009240000054" height="24.00001263000013" class="text">if </text>
<text x="1309.99995184" y="2145.000033" width="20.000049799999942" height="24.00001263000013" class="text">the </text>
<text x="1333.00003984" y="2145.000033" width="63.99996620000002" height="24.00001263000013" class="text">registrant </text>
<text x="1401.00003356" y="2145.000033" width="8.999991679999994" height="24.00001263000013" class="text">is </text>
<text x="1416.99996804" y="2145.000033" width="13.000001639999937" height="24.00001263000013" class="text">an </text>
<text x="1436.00004608" y="2145.000033" width="77.99995716000012" height="24.00001263000013" class="text">organization</text>
<text x="1517.00004144" y="2145.000033" width="6.999942800000099" height="24.00001263000013" class="text">, </text>
<text x="1524.9999559999999" y="2145.000033" width="44.00002176000021" height="24.00001263000013" class="text">except </text>
<text x="1573.99995948" y="2145.000033" width="26.99999260000004" height="24.00001263000013" class="text">that
</text>
<text x="80.99999711599999" y="2166.99992883" width="22.000003856000006" height="20.99990574000003" class="text">the </text>
<text x="106.00000229599999" y="2166.99992883" width="79.99999550400003" height="21.99989583000024" class="text">organization </text>
<text x="193.00001084" y="2165.99996151" width="19.999979560000014" height="20.999928510000245" class="text">can</text>
<text x="216.00001104" y="2165.99996151" width="5.999988599999995" height="20.999928510000245" class="text">, </text>
<text x="222.99998896" y="2165.99996151" width="17.000011599999993" height="20.999928510000245" class="text">by </text>
<text x="244.99999984000002" y="2165.99996151" width="41.999990440000005" height="20.999928510000245" class="text">power </text>
<text x="289.99999336" y="2165.99996151" width="17.000011599999993" height="20.999928510000245" class="text">of </text>
<text x="313.99998288" y="2165.99996151" width="55.99999895999997" height="21.9999186" class="text">attorney</text>
<text x="368.99999252" y="2164.99997142" width="6.000006159999998" height="20.99992850999979" class="text">, </text>
<text x="376.00000556" y="2164.99997142" width="65.00000820000008" height="20.99992850999979" class="text">authorize </text>
<text x="445.00002372" y="2164.99997142" width="22.999982639999985" height="20.99992850999979" class="text">one </text>
<text x="475.0000018399999" y="2164.99997142" width="11.000005440000109" height="20.99992850999979" class="text">or </text>
<text x="494.99999896" y="2164.99997142" width="29.000006359999986" height="21.999895829999787" class="text">more </text>
<text x="530.00001148" y="2163.99998133" width="70.99997924000002" height="20.99990574000003" class="text">individuals </text>
<text x="606.99999688" y="2163.99998133" width="9.00000923999994" height="20.99990574000003" class="text">to </text>
<text x="622.99998404" y="2163.99998133" width="49.00002104000009" height="20.99990574000003" class="text">execute </text>
<text x="680.99999676" y="2162.99999124" width="20.999986440000043" height="21.000042359999952" class="text">this </text>
<text x="707.99998936" y="2162.99999124" width="65.00000820000002" height="21.000042359999952" class="text">statement </text>
<text x="774.9999937599999" y="2162.99999124" width="17.000029160000054" height="21.000042359999952" class="text">on </text>
<text x="795.9999802" y="2162.99999124" width="16.00003984" height="21.000042359999952" class="text">its </text>
<text x="815.00000556" y="2162.99999124" width="42.999997320000034" height="22.000032449999708" class="text">behalf</text>
<text x="858.00000288" y="2162.00002392" width="6.000006159999998" height="21.00006512999971" class="text">.
</text>
<text x="340.00000372" y="2267.00003079" width="2.9999855199999956" height="9.999969210000017" class="text">1
</text>
</g>
</svg>
